M48
;GenerationSoftware,Autodesk,EAGLE,9.2.2*%
;CreationDate,2019-04-23T16:11:32Z*%
FMAT,2
ICI,OFF
METRIC,TZ,000.000
T4C0.254
T3C0.300
T2C1.000
%
G90
M71
T2
X19050Y21590
X21590Y21590
T3
X38354Y10160
X3048Y13589
X34290Y7366
X34290Y5334
X38354Y7620
X38354Y5080
X36449Y16510
X36449Y19050
X36449Y21590
X36576Y13970
X34671Y13970
X38354Y13970
X34671Y21590
X38354Y21590
X34290Y18796
X34290Y16764
X38354Y19050
X38354Y16510
X38354Y2540
X34671Y10160
X3048Y11049
X3048Y8509
X2921Y16129
X4826Y16129
X1143Y16129
X4826Y8509
X1143Y8509
X5207Y11303
X1143Y11049
X5207Y13335
X34671Y2540
X36576Y2540
X36449Y10160
X36449Y7620
X36449Y5080
X1143Y13589
T4
X18161Y10287
X18161Y11049
X18161Y13081
X18161Y13843
X14224Y10160
X14224Y13970
X14224Y10795
X14224Y13335
X16129Y10287
X20066Y10033
X20066Y10668
X16129Y11049
X16129Y13081
X16129Y13843
X20066Y14097
X20066Y13462
X26543Y13716
X26543Y14351
X11176Y13589
X26543Y10414
X17272Y3429
X17272Y4064
X11303Y10541
X10668Y10541
X6985Y2032
X5715Y2032
X10287Y13589
X10287Y14605
X17526Y19177
X19812Y17653
X19812Y18415
X19812Y19177
X17526Y20828
X17526Y21590
X17526Y22352
X17526Y17653
X17526Y18415
X14224Y14732
X18161Y9271
X16764Y8255
X14224Y9271
X16129Y9271
X19431Y8763
X16764Y15875
X17526Y15875
X18669Y15367
X19431Y15367
X17526Y8255
X14859Y15367
X21844Y14478
X23114Y15367
X23749Y15875
X25146Y16383
X25908Y16383
X26416Y15748
X26416Y8509
X19177Y1524
X11430Y16510
X9144Y8509
X9906Y8509
X10668Y7620
X11430Y7620
X8382Y1905
X9398Y1905
X12827Y1905
X13843Y1905
X23114Y8763
X20066Y1524
X24003Y4318
X24003Y3429
X23876Y5588
X21844Y5588
X25146Y7747
X25908Y7747
X23749Y8255
X20955Y14478
X22987Y17653
X23114Y22352
X23114Y21590
X23114Y20828
X20955Y19177
X20955Y18415
X20955Y17653
X13462Y14351
X12446Y14351
X22987Y18415
X20955Y15113
X21844Y15113
X12446Y14986
X12954Y20320
X13716Y20320
X23114Y13462
X23114Y10668
X26543Y9779
X21336Y9144
X18669Y8763
X14859Y8763
X15621Y8763
X15621Y15367
X16129Y14732
X18161Y14732
X22352Y9779
X21336Y9779
X10795Y16510
X22352Y9144
X21209Y12446
X21971Y12446
X21209Y11684
X21971Y11684
X24384Y15875
X24384Y8255
X22987Y19177
M30