G04 EAGLE Gerber RS-274X export*
G75*
%MOMM*%
%FSLAX34Y34*%
%LPD*%
%INSolder side*%
%IPPOS*%
%AMOC8*
5,1,8,0,0,1.08239X$1,22.5*%
G01*
%ADD10P,2.089446X8X202.500000*%
%ADD11C,0.503200*%
%ADD12R,5.588000X9.144000*%
%ADD13C,0.457200*%

G36*
X389320Y3822D02*
X389320Y3822D01*
X389386Y3824D01*
X389429Y3842D01*
X389476Y3850D01*
X389533Y3884D01*
X389593Y3909D01*
X389628Y3940D01*
X389669Y3965D01*
X389711Y4016D01*
X389759Y4060D01*
X389781Y4102D01*
X389810Y4139D01*
X389831Y4201D01*
X389862Y4260D01*
X389870Y4314D01*
X389882Y4351D01*
X389881Y4391D01*
X389889Y4445D01*
X389889Y236855D01*
X389878Y236920D01*
X389876Y236986D01*
X389858Y237029D01*
X389850Y237076D01*
X389816Y237133D01*
X389791Y237193D01*
X389760Y237228D01*
X389735Y237269D01*
X389684Y237311D01*
X389640Y237359D01*
X389598Y237381D01*
X389561Y237410D01*
X389499Y237431D01*
X389440Y237462D01*
X389386Y237470D01*
X389349Y237482D01*
X389309Y237481D01*
X389255Y237489D01*
X4445Y237489D01*
X4380Y237478D01*
X4314Y237476D01*
X4271Y237458D01*
X4224Y237450D01*
X4167Y237416D01*
X4107Y237391D01*
X4072Y237360D01*
X4031Y237335D01*
X3989Y237284D01*
X3941Y237240D01*
X3919Y237198D01*
X3890Y237161D01*
X3869Y237099D01*
X3838Y237040D01*
X3830Y236986D01*
X3818Y236949D01*
X3819Y236909D01*
X3811Y236855D01*
X3811Y4445D01*
X3822Y4380D01*
X3824Y4314D01*
X3842Y4271D01*
X3850Y4224D01*
X3884Y4167D01*
X3909Y4107D01*
X3940Y4072D01*
X3965Y4031D01*
X4016Y3989D01*
X4060Y3941D01*
X4102Y3919D01*
X4139Y3890D01*
X4201Y3869D01*
X4260Y3838D01*
X4314Y3830D01*
X4351Y3818D01*
X4391Y3819D01*
X4445Y3811D01*
X389255Y3811D01*
X389320Y3822D01*
G37*
%LPC*%
G36*
X173787Y204723D02*
X173787Y204723D01*
X171703Y206807D01*
X171703Y209753D01*
X173592Y211642D01*
X173629Y211696D01*
X173674Y211743D01*
X173693Y211787D01*
X173720Y211826D01*
X173736Y211889D01*
X173762Y211950D01*
X173764Y211997D01*
X173776Y212043D01*
X173769Y212108D01*
X173772Y212174D01*
X173757Y212219D01*
X173752Y212266D01*
X173723Y212325D01*
X173703Y212388D01*
X173670Y212432D01*
X173653Y212467D01*
X173624Y212494D01*
X173592Y212539D01*
X171703Y214427D01*
X171703Y217373D01*
X173592Y219262D01*
X173629Y219316D01*
X173674Y219363D01*
X173693Y219407D01*
X173720Y219446D01*
X173736Y219509D01*
X173762Y219570D01*
X173764Y219617D01*
X173776Y219663D01*
X173769Y219728D01*
X173772Y219794D01*
X173757Y219839D01*
X173752Y219886D01*
X173723Y219945D01*
X173703Y220008D01*
X173670Y220052D01*
X173653Y220087D01*
X173624Y220114D01*
X173592Y220159D01*
X171703Y222047D01*
X171703Y224993D01*
X173787Y227077D01*
X176733Y227077D01*
X178817Y224993D01*
X178817Y222047D01*
X176928Y220159D01*
X176891Y220104D01*
X176846Y220057D01*
X176827Y220013D01*
X176800Y219974D01*
X176784Y219911D01*
X176758Y219850D01*
X176756Y219803D01*
X176744Y219757D01*
X176751Y219692D01*
X176748Y219626D01*
X176763Y219581D01*
X176768Y219534D01*
X176797Y219475D01*
X176817Y219412D01*
X176850Y219368D01*
X176867Y219333D01*
X176896Y219306D01*
X176928Y219262D01*
X178495Y217695D01*
X178568Y217645D01*
X178637Y217589D01*
X178659Y217581D01*
X178679Y217567D01*
X178765Y217545D01*
X178849Y217517D01*
X178873Y217517D01*
X178896Y217511D01*
X178985Y217521D01*
X179074Y217523D01*
X179096Y217532D01*
X179119Y217535D01*
X179199Y217574D01*
X179281Y217608D01*
X179299Y217624D01*
X179320Y217634D01*
X179381Y217699D01*
X179447Y217759D01*
X179458Y217780D01*
X179474Y217797D01*
X179509Y217879D01*
X179550Y217959D01*
X179553Y217985D01*
X179562Y218004D01*
X179564Y218054D01*
X179569Y218091D01*
X179570Y218094D01*
X179570Y218097D01*
X179577Y218144D01*
X179577Y220424D01*
X185976Y226823D01*
X195024Y226823D01*
X201423Y220424D01*
X201423Y211376D01*
X195024Y204977D01*
X185976Y204977D01*
X179577Y211376D01*
X179577Y213656D01*
X179561Y213744D01*
X179552Y213832D01*
X179542Y213853D01*
X179538Y213877D01*
X179492Y213954D01*
X179453Y214033D01*
X179436Y214050D01*
X179423Y214070D01*
X179354Y214126D01*
X179290Y214187D01*
X179268Y214197D01*
X179249Y214211D01*
X179165Y214240D01*
X179083Y214275D01*
X179059Y214276D01*
X179037Y214283D01*
X178948Y214281D01*
X178859Y214285D01*
X178836Y214277D01*
X178812Y214277D01*
X178730Y214243D01*
X178645Y214216D01*
X178624Y214200D01*
X178605Y214192D01*
X178567Y214158D01*
X178495Y214105D01*
X176928Y212538D01*
X176891Y212485D01*
X176846Y212437D01*
X176827Y212393D01*
X176800Y212354D01*
X176784Y212291D01*
X176758Y212230D01*
X176756Y212183D01*
X176744Y212137D01*
X176751Y212072D01*
X176748Y212006D01*
X176763Y211961D01*
X176768Y211914D01*
X176797Y211855D01*
X176817Y211792D01*
X176850Y211748D01*
X176867Y211713D01*
X176896Y211686D01*
X176928Y211642D01*
X178817Y209753D01*
X178817Y206807D01*
X176733Y204723D01*
X173787Y204723D01*
G37*
%LPD*%
%LPC*%
G36*
X196647Y172973D02*
X196647Y172973D01*
X194563Y175057D01*
X194563Y178003D01*
X196452Y179892D01*
X196489Y179946D01*
X196534Y179993D01*
X196553Y180037D01*
X196580Y180076D01*
X196596Y180139D01*
X196622Y180200D01*
X196624Y180247D01*
X196636Y180293D01*
X196629Y180358D01*
X196632Y180424D01*
X196617Y180469D01*
X196612Y180516D01*
X196583Y180575D01*
X196563Y180638D01*
X196530Y180682D01*
X196513Y180717D01*
X196484Y180744D01*
X196452Y180789D01*
X194563Y182677D01*
X194563Y185623D01*
X196452Y187512D01*
X196489Y187566D01*
X196534Y187613D01*
X196553Y187657D01*
X196580Y187696D01*
X196596Y187759D01*
X196622Y187820D01*
X196624Y187867D01*
X196636Y187913D01*
X196629Y187978D01*
X196632Y188044D01*
X196617Y188089D01*
X196612Y188136D01*
X196583Y188195D01*
X196563Y188258D01*
X196530Y188302D01*
X196513Y188337D01*
X196484Y188364D01*
X196452Y188409D01*
X194563Y190297D01*
X194563Y193243D01*
X196647Y195327D01*
X199593Y195327D01*
X201677Y193243D01*
X201677Y190297D01*
X199788Y188409D01*
X199751Y188354D01*
X199706Y188307D01*
X199687Y188263D01*
X199660Y188224D01*
X199644Y188161D01*
X199618Y188100D01*
X199616Y188053D01*
X199604Y188007D01*
X199611Y187942D01*
X199608Y187876D01*
X199623Y187831D01*
X199628Y187784D01*
X199657Y187725D01*
X199677Y187662D01*
X199710Y187618D01*
X199727Y187583D01*
X199756Y187556D01*
X199788Y187512D01*
X201677Y185623D01*
X201677Y182677D01*
X199788Y180789D01*
X199751Y180734D01*
X199706Y180687D01*
X199687Y180643D01*
X199660Y180604D01*
X199644Y180541D01*
X199618Y180480D01*
X199616Y180433D01*
X199604Y180387D01*
X199611Y180322D01*
X199608Y180256D01*
X199623Y180211D01*
X199628Y180164D01*
X199657Y180105D01*
X199677Y180042D01*
X199710Y179998D01*
X199727Y179963D01*
X199756Y179936D01*
X199788Y179892D01*
X201677Y178003D01*
X201677Y175057D01*
X199593Y172973D01*
X196647Y172973D01*
G37*
%LPD*%
%LPC*%
G36*
X173787Y172973D02*
X173787Y172973D01*
X171703Y175057D01*
X171703Y178003D01*
X173592Y179892D01*
X173629Y179946D01*
X173674Y179993D01*
X173693Y180037D01*
X173720Y180076D01*
X173736Y180139D01*
X173762Y180200D01*
X173764Y180247D01*
X173776Y180293D01*
X173769Y180358D01*
X173772Y180424D01*
X173757Y180469D01*
X173752Y180516D01*
X173723Y180575D01*
X173703Y180638D01*
X173670Y180682D01*
X173653Y180717D01*
X173624Y180744D01*
X173592Y180789D01*
X171703Y182677D01*
X171703Y185623D01*
X173592Y187512D01*
X173629Y187566D01*
X173674Y187613D01*
X173693Y187657D01*
X173720Y187696D01*
X173736Y187759D01*
X173762Y187820D01*
X173764Y187867D01*
X173776Y187913D01*
X173769Y187978D01*
X173772Y188044D01*
X173757Y188089D01*
X173752Y188136D01*
X173723Y188195D01*
X173703Y188258D01*
X173670Y188302D01*
X173653Y188337D01*
X173624Y188364D01*
X173592Y188409D01*
X171703Y190297D01*
X171703Y193243D01*
X173787Y195327D01*
X176733Y195327D01*
X178817Y193243D01*
X178817Y190297D01*
X176928Y188409D01*
X176891Y188354D01*
X176846Y188307D01*
X176827Y188263D01*
X176800Y188224D01*
X176784Y188161D01*
X176758Y188100D01*
X176756Y188053D01*
X176744Y188007D01*
X176751Y187942D01*
X176748Y187876D01*
X176763Y187831D01*
X176768Y187784D01*
X176797Y187725D01*
X176817Y187662D01*
X176850Y187618D01*
X176867Y187583D01*
X176896Y187556D01*
X176928Y187512D01*
X178817Y185623D01*
X178817Y182677D01*
X176928Y180789D01*
X176891Y180734D01*
X176846Y180687D01*
X176827Y180643D01*
X176800Y180604D01*
X176784Y180541D01*
X176758Y180480D01*
X176756Y180433D01*
X176744Y180387D01*
X176751Y180322D01*
X176748Y180256D01*
X176763Y180211D01*
X176768Y180164D01*
X176797Y180105D01*
X176817Y180042D01*
X176850Y179998D01*
X176867Y179963D01*
X176896Y179936D01*
X176928Y179892D01*
X178817Y178003D01*
X178817Y175057D01*
X176733Y172973D01*
X173787Y172973D01*
G37*
%LPD*%
%LPC*%
G36*
X159817Y127253D02*
X159817Y127253D01*
X157733Y129337D01*
X157733Y132283D01*
X159622Y134172D01*
X159659Y134226D01*
X159704Y134273D01*
X159723Y134317D01*
X159750Y134356D01*
X159766Y134419D01*
X159792Y134480D01*
X159794Y134527D01*
X159806Y134573D01*
X159799Y134638D01*
X159802Y134704D01*
X159787Y134749D01*
X159782Y134796D01*
X159753Y134855D01*
X159733Y134918D01*
X159700Y134962D01*
X159683Y134997D01*
X159654Y135024D01*
X159622Y135069D01*
X157733Y136957D01*
X157733Y139903D01*
X159817Y141987D01*
X162763Y141987D01*
X164847Y139903D01*
X164847Y136957D01*
X162958Y135069D01*
X162921Y135014D01*
X162876Y134967D01*
X162857Y134923D01*
X162830Y134884D01*
X162814Y134821D01*
X162788Y134760D01*
X162786Y134713D01*
X162774Y134667D01*
X162781Y134602D01*
X162778Y134536D01*
X162793Y134491D01*
X162798Y134444D01*
X162827Y134385D01*
X162847Y134322D01*
X162880Y134278D01*
X162897Y134243D01*
X162926Y134216D01*
X162958Y134172D01*
X164847Y132283D01*
X164847Y129337D01*
X162763Y127253D01*
X159817Y127253D01*
G37*
%LPD*%
%LPC*%
G36*
X159817Y99313D02*
X159817Y99313D01*
X157733Y101397D01*
X157733Y104343D01*
X159622Y106232D01*
X159659Y106286D01*
X159704Y106333D01*
X159723Y106377D01*
X159750Y106416D01*
X159766Y106479D01*
X159792Y106540D01*
X159794Y106587D01*
X159806Y106633D01*
X159799Y106698D01*
X159802Y106764D01*
X159787Y106809D01*
X159782Y106856D01*
X159753Y106915D01*
X159733Y106978D01*
X159700Y107022D01*
X159683Y107057D01*
X159654Y107084D01*
X159622Y107129D01*
X157733Y109017D01*
X157733Y111963D01*
X159817Y114047D01*
X162763Y114047D01*
X164847Y111963D01*
X164847Y109017D01*
X162958Y107129D01*
X162921Y107074D01*
X162876Y107027D01*
X162857Y106983D01*
X162830Y106944D01*
X162814Y106881D01*
X162788Y106820D01*
X162786Y106773D01*
X162774Y106727D01*
X162781Y106662D01*
X162778Y106596D01*
X162793Y106551D01*
X162798Y106504D01*
X162827Y106445D01*
X162847Y106382D01*
X162880Y106338D01*
X162897Y106303D01*
X162926Y106276D01*
X162958Y106232D01*
X164847Y104343D01*
X164847Y101397D01*
X162763Y99313D01*
X159817Y99313D01*
G37*
%LPD*%
%LPC*%
G36*
X180137Y99313D02*
X180137Y99313D01*
X178053Y101397D01*
X178053Y104343D01*
X179942Y106232D01*
X179979Y106286D01*
X180024Y106333D01*
X180043Y106377D01*
X180070Y106416D01*
X180086Y106479D01*
X180112Y106540D01*
X180114Y106587D01*
X180126Y106633D01*
X180119Y106698D01*
X180122Y106764D01*
X180107Y106809D01*
X180102Y106856D01*
X180073Y106915D01*
X180053Y106978D01*
X180020Y107022D01*
X180003Y107057D01*
X179974Y107084D01*
X179942Y107129D01*
X178053Y109017D01*
X178053Y111963D01*
X180137Y114047D01*
X183083Y114047D01*
X185167Y111963D01*
X185167Y109017D01*
X183278Y107129D01*
X183241Y107074D01*
X183196Y107027D01*
X183177Y106983D01*
X183150Y106944D01*
X183134Y106881D01*
X183108Y106820D01*
X183106Y106773D01*
X183094Y106727D01*
X183101Y106662D01*
X183098Y106596D01*
X183113Y106551D01*
X183118Y106504D01*
X183147Y106445D01*
X183167Y106382D01*
X183200Y106338D01*
X183217Y106303D01*
X183246Y106276D01*
X183278Y106232D01*
X185167Y104343D01*
X185167Y101397D01*
X183083Y99313D01*
X180137Y99313D01*
G37*
%LPD*%
%LPC*%
G36*
X180137Y127253D02*
X180137Y127253D01*
X178053Y129337D01*
X178053Y132283D01*
X179942Y134172D01*
X179979Y134226D01*
X180024Y134273D01*
X180043Y134317D01*
X180070Y134356D01*
X180086Y134419D01*
X180112Y134480D01*
X180114Y134527D01*
X180126Y134573D01*
X180119Y134638D01*
X180122Y134704D01*
X180107Y134749D01*
X180102Y134796D01*
X180073Y134855D01*
X180053Y134918D01*
X180020Y134962D01*
X180003Y134997D01*
X179974Y135024D01*
X179942Y135069D01*
X178053Y136957D01*
X178053Y139903D01*
X180137Y141987D01*
X183083Y141987D01*
X185167Y139903D01*
X185167Y136957D01*
X183278Y135069D01*
X183241Y135014D01*
X183196Y134967D01*
X183177Y134923D01*
X183150Y134884D01*
X183134Y134821D01*
X183108Y134760D01*
X183106Y134713D01*
X183094Y134667D01*
X183101Y134602D01*
X183098Y134536D01*
X183113Y134491D01*
X183118Y134444D01*
X183147Y134385D01*
X183167Y134322D01*
X183200Y134278D01*
X183217Y134243D01*
X183246Y134216D01*
X183278Y134172D01*
X185167Y132283D01*
X185167Y129337D01*
X183083Y127253D01*
X180137Y127253D01*
G37*
%LPD*%
%LPC*%
G36*
X140767Y129793D02*
X140767Y129793D01*
X138683Y131877D01*
X138683Y134823D01*
X139937Y136076D01*
X139974Y136131D01*
X140019Y136178D01*
X140038Y136222D01*
X140065Y136261D01*
X140081Y136324D01*
X140107Y136385D01*
X140109Y136432D01*
X140121Y136478D01*
X140114Y136543D01*
X140117Y136609D01*
X140102Y136654D01*
X140097Y136701D01*
X140068Y136760D01*
X140048Y136823D01*
X140015Y136867D01*
X139998Y136902D01*
X139969Y136929D01*
X139937Y136973D01*
X138683Y138227D01*
X138683Y141173D01*
X140767Y143257D01*
X143713Y143257D01*
X145797Y141173D01*
X145797Y138227D01*
X144543Y136973D01*
X144506Y136919D01*
X144461Y136872D01*
X144442Y136828D01*
X144415Y136789D01*
X144399Y136726D01*
X144373Y136665D01*
X144371Y136618D01*
X144359Y136572D01*
X144366Y136507D01*
X144363Y136441D01*
X144378Y136396D01*
X144383Y136349D01*
X144412Y136290D01*
X144432Y136227D01*
X144465Y136183D01*
X144482Y136148D01*
X144511Y136121D01*
X144543Y136076D01*
X145797Y134823D01*
X145797Y131877D01*
X143713Y129793D01*
X140767Y129793D01*
G37*
%LPD*%
%LPC*%
G36*
X171247Y30733D02*
X171247Y30733D01*
X169163Y32817D01*
X169163Y35763D01*
X170417Y37017D01*
X170454Y37071D01*
X170499Y37118D01*
X170518Y37162D01*
X170545Y37201D01*
X170561Y37264D01*
X170587Y37325D01*
X170589Y37372D01*
X170601Y37418D01*
X170594Y37483D01*
X170597Y37549D01*
X170582Y37594D01*
X170577Y37641D01*
X170548Y37700D01*
X170528Y37763D01*
X170495Y37807D01*
X170478Y37842D01*
X170449Y37869D01*
X170417Y37914D01*
X169163Y39167D01*
X169163Y42113D01*
X171247Y44197D01*
X174193Y44197D01*
X176277Y42113D01*
X176277Y39167D01*
X175023Y37914D01*
X174986Y37859D01*
X174941Y37812D01*
X174922Y37768D01*
X174895Y37729D01*
X174879Y37666D01*
X174853Y37605D01*
X174851Y37558D01*
X174839Y37512D01*
X174846Y37447D01*
X174843Y37381D01*
X174858Y37336D01*
X174863Y37289D01*
X174892Y37230D01*
X174912Y37167D01*
X174945Y37123D01*
X174962Y37088D01*
X174991Y37061D01*
X175023Y37017D01*
X176277Y35763D01*
X176277Y32817D01*
X174193Y30733D01*
X171247Y30733D01*
G37*
%LPD*%
%LPC*%
G36*
X263957Y94233D02*
X263957Y94233D01*
X261873Y96317D01*
X261873Y99263D01*
X263127Y100516D01*
X263164Y100571D01*
X263209Y100618D01*
X263228Y100662D01*
X263255Y100701D01*
X263271Y100764D01*
X263297Y100825D01*
X263299Y100872D01*
X263311Y100918D01*
X263304Y100983D01*
X263307Y101049D01*
X263292Y101094D01*
X263287Y101141D01*
X263258Y101200D01*
X263238Y101263D01*
X263205Y101307D01*
X263188Y101342D01*
X263159Y101369D01*
X263127Y101413D01*
X261873Y102667D01*
X261873Y105613D01*
X263957Y107697D01*
X266903Y107697D01*
X268987Y105613D01*
X268987Y102667D01*
X267733Y101413D01*
X267696Y101359D01*
X267651Y101312D01*
X267632Y101268D01*
X267605Y101229D01*
X267589Y101166D01*
X267563Y101105D01*
X267561Y101058D01*
X267549Y101012D01*
X267556Y100947D01*
X267553Y100881D01*
X267568Y100836D01*
X267573Y100789D01*
X267602Y100730D01*
X267622Y100667D01*
X267655Y100623D01*
X267672Y100588D01*
X267701Y100561D01*
X267733Y100516D01*
X268987Y99263D01*
X268987Y96317D01*
X266903Y94233D01*
X263957Y94233D01*
G37*
%LPD*%
%LPC*%
G36*
X199187Y131063D02*
X199187Y131063D01*
X197103Y133147D01*
X197103Y136093D01*
X198357Y137346D01*
X198394Y137401D01*
X198439Y137448D01*
X198458Y137492D01*
X198485Y137531D01*
X198501Y137594D01*
X198527Y137655D01*
X198529Y137702D01*
X198541Y137748D01*
X198534Y137813D01*
X198537Y137879D01*
X198522Y137924D01*
X198517Y137971D01*
X198488Y138030D01*
X198468Y138093D01*
X198435Y138137D01*
X198418Y138172D01*
X198389Y138199D01*
X198357Y138243D01*
X197103Y139497D01*
X197103Y142443D01*
X199187Y144527D01*
X202133Y144527D01*
X204217Y142443D01*
X204217Y139497D01*
X202963Y138243D01*
X202926Y138189D01*
X202881Y138142D01*
X202862Y138098D01*
X202835Y138059D01*
X202819Y137996D01*
X202793Y137935D01*
X202791Y137888D01*
X202779Y137842D01*
X202786Y137777D01*
X202783Y137711D01*
X202798Y137666D01*
X202803Y137619D01*
X202832Y137560D01*
X202852Y137497D01*
X202885Y137453D01*
X202902Y137418D01*
X202931Y137391D01*
X202963Y137346D01*
X204217Y136093D01*
X204217Y133147D01*
X202133Y131063D01*
X199187Y131063D01*
G37*
%LPD*%
%LPC*%
G36*
X263957Y133603D02*
X263957Y133603D01*
X261873Y135687D01*
X261873Y138633D01*
X263127Y139887D01*
X263164Y139941D01*
X263209Y139988D01*
X263228Y140032D01*
X263255Y140071D01*
X263271Y140134D01*
X263297Y140195D01*
X263299Y140242D01*
X263311Y140288D01*
X263304Y140353D01*
X263307Y140419D01*
X263292Y140464D01*
X263287Y140511D01*
X263258Y140570D01*
X263238Y140633D01*
X263205Y140677D01*
X263188Y140712D01*
X263159Y140739D01*
X263127Y140784D01*
X261873Y142037D01*
X261873Y144983D01*
X263957Y147067D01*
X266903Y147067D01*
X268987Y144983D01*
X268987Y142037D01*
X267733Y140784D01*
X267696Y140729D01*
X267651Y140682D01*
X267632Y140638D01*
X267605Y140599D01*
X267589Y140536D01*
X267563Y140475D01*
X267561Y140428D01*
X267549Y140382D01*
X267556Y140317D01*
X267553Y140251D01*
X267568Y140206D01*
X267573Y140159D01*
X267602Y140100D01*
X267622Y140037D01*
X267655Y139993D01*
X267672Y139958D01*
X267701Y139931D01*
X267733Y139887D01*
X268987Y138633D01*
X268987Y135687D01*
X266903Y133603D01*
X263957Y133603D01*
G37*
%LPD*%
%LPC*%
G36*
X140767Y98043D02*
X140767Y98043D01*
X138683Y100127D01*
X138683Y103073D01*
X139937Y104327D01*
X139974Y104381D01*
X140019Y104428D01*
X140038Y104472D01*
X140065Y104511D01*
X140081Y104574D01*
X140107Y104635D01*
X140109Y104682D01*
X140121Y104728D01*
X140114Y104793D01*
X140117Y104859D01*
X140102Y104904D01*
X140097Y104951D01*
X140068Y105010D01*
X140048Y105073D01*
X140015Y105117D01*
X139998Y105152D01*
X139969Y105179D01*
X139937Y105224D01*
X138683Y106477D01*
X138683Y109423D01*
X140767Y111507D01*
X143713Y111507D01*
X145797Y109423D01*
X145797Y106477D01*
X144543Y105224D01*
X144506Y105169D01*
X144461Y105122D01*
X144442Y105078D01*
X144415Y105039D01*
X144399Y104976D01*
X144373Y104915D01*
X144371Y104868D01*
X144359Y104822D01*
X144366Y104757D01*
X144363Y104691D01*
X144378Y104646D01*
X144383Y104599D01*
X144412Y104540D01*
X144432Y104477D01*
X144465Y104433D01*
X144482Y104398D01*
X144511Y104371D01*
X144543Y104327D01*
X145797Y103073D01*
X145797Y100127D01*
X143713Y98043D01*
X140767Y98043D01*
G37*
%LPD*%
%LPC*%
G36*
X105207Y101853D02*
X105207Y101853D01*
X103123Y103937D01*
X103123Y106883D01*
X105207Y108967D01*
X108153Y108967D01*
X109406Y107713D01*
X109461Y107676D01*
X109508Y107631D01*
X109552Y107612D01*
X109591Y107585D01*
X109654Y107569D01*
X109715Y107543D01*
X109762Y107541D01*
X109808Y107529D01*
X109873Y107536D01*
X109939Y107533D01*
X109984Y107548D01*
X110031Y107553D01*
X110090Y107582D01*
X110153Y107602D01*
X110197Y107635D01*
X110232Y107652D01*
X110259Y107681D01*
X110303Y107713D01*
X111557Y108967D01*
X114503Y108967D01*
X116587Y106883D01*
X116587Y103937D01*
X114503Y101853D01*
X111557Y101853D01*
X110303Y103107D01*
X110249Y103144D01*
X110202Y103189D01*
X110158Y103208D01*
X110119Y103235D01*
X110056Y103251D01*
X109995Y103277D01*
X109948Y103279D01*
X109902Y103291D01*
X109837Y103284D01*
X109771Y103287D01*
X109726Y103272D01*
X109679Y103267D01*
X109620Y103238D01*
X109557Y103218D01*
X109513Y103185D01*
X109478Y103168D01*
X109451Y103139D01*
X109406Y103107D01*
X108153Y101853D01*
X105207Y101853D01*
G37*
%LPD*%
%LPC*%
G36*
X199187Y96773D02*
X199187Y96773D01*
X197103Y98857D01*
X197103Y101803D01*
X198357Y103057D01*
X198394Y103111D01*
X198439Y103158D01*
X198458Y103202D01*
X198485Y103241D01*
X198501Y103304D01*
X198527Y103365D01*
X198529Y103412D01*
X198541Y103458D01*
X198534Y103523D01*
X198537Y103589D01*
X198522Y103634D01*
X198517Y103681D01*
X198488Y103740D01*
X198468Y103803D01*
X198435Y103847D01*
X198418Y103882D01*
X198389Y103909D01*
X198357Y103954D01*
X197103Y105207D01*
X197103Y108153D01*
X199187Y110237D01*
X202133Y110237D01*
X204217Y108153D01*
X204217Y105207D01*
X202963Y103954D01*
X202926Y103899D01*
X202881Y103852D01*
X202862Y103808D01*
X202835Y103769D01*
X202819Y103706D01*
X202793Y103645D01*
X202791Y103598D01*
X202779Y103552D01*
X202786Y103487D01*
X202783Y103421D01*
X202798Y103376D01*
X202803Y103329D01*
X202832Y103270D01*
X202852Y103207D01*
X202885Y103163D01*
X202902Y103128D01*
X202931Y103101D01*
X202963Y103057D01*
X204217Y101803D01*
X204217Y98857D01*
X202133Y96773D01*
X199187Y96773D01*
G37*
%LPD*%
%LPC*%
G36*
X55677Y16763D02*
X55677Y16763D01*
X53593Y18847D01*
X53593Y21793D01*
X55677Y23877D01*
X58623Y23877D01*
X60707Y21793D01*
X60707Y18847D01*
X58623Y16763D01*
X55677Y16763D01*
G37*
%LPD*%
%LPC*%
G36*
X68377Y16763D02*
X68377Y16763D01*
X66293Y18847D01*
X66293Y21793D01*
X68377Y23877D01*
X71323Y23877D01*
X73407Y21793D01*
X73407Y18847D01*
X71323Y16763D01*
X68377Y16763D01*
G37*
%LPD*%
%LPC*%
G36*
X229667Y103123D02*
X229667Y103123D01*
X227583Y105207D01*
X227583Y108153D01*
X229667Y110237D01*
X232613Y110237D01*
X234697Y108153D01*
X234697Y105207D01*
X232613Y103123D01*
X229667Y103123D01*
G37*
%LPD*%
%LPC*%
G36*
X229667Y131063D02*
X229667Y131063D01*
X227583Y133147D01*
X227583Y136093D01*
X229667Y138177D01*
X232613Y138177D01*
X234697Y136093D01*
X234697Y133147D01*
X232613Y131063D01*
X229667Y131063D01*
G37*
%LPD*%
%LPC*%
G36*
X101397Y132333D02*
X101397Y132333D01*
X99313Y134417D01*
X99313Y137363D01*
X101397Y139447D01*
X104343Y139447D01*
X106427Y137363D01*
X106427Y134417D01*
X104343Y132333D01*
X101397Y132333D01*
G37*
%LPD*%
%LPC*%
G36*
X110287Y132333D02*
X110287Y132333D01*
X108203Y134417D01*
X108203Y137363D01*
X110287Y139447D01*
X113233Y139447D01*
X115317Y137363D01*
X115317Y134417D01*
X113233Y132333D01*
X110287Y132333D01*
G37*
%LPD*%
%LPC*%
G36*
X101397Y142493D02*
X101397Y142493D01*
X99313Y144577D01*
X99313Y147523D01*
X101397Y149607D01*
X104343Y149607D01*
X106427Y147523D01*
X106427Y144577D01*
X104343Y142493D01*
X101397Y142493D01*
G37*
%LPD*%
D10*
X190500Y215900D03*
X215900Y215900D03*
D11*
X383540Y165100D03*
X383540Y190500D03*
X342900Y167640D03*
X342900Y187960D03*
X383540Y215900D03*
X346710Y215900D03*
X383540Y139700D03*
X346710Y139700D03*
X365760Y139700D03*
X364490Y215900D03*
X364490Y190500D03*
X364490Y165100D03*
D12*
X365760Y177800D03*
D11*
X383540Y50800D03*
X383540Y76200D03*
X342900Y53340D03*
X342900Y73660D03*
X383540Y101600D03*
X346710Y101600D03*
X383540Y25400D03*
X346710Y25400D03*
X365760Y25400D03*
X364490Y101600D03*
X364490Y76200D03*
X364490Y50800D03*
D12*
X365760Y63500D03*
D11*
X11430Y135890D03*
X11430Y110490D03*
X52070Y133350D03*
X52070Y113030D03*
X11430Y85090D03*
X48260Y85090D03*
X11430Y161290D03*
X48260Y161290D03*
X29210Y161290D03*
X30480Y85090D03*
X30480Y110490D03*
X30480Y135890D03*
D12*
X29210Y123190D03*
D13*
X107950Y165100D03*
X114300Y165100D03*
X91440Y85090D03*
X99060Y85090D03*
X106680Y76200D03*
X114300Y76200D03*
X83820Y19050D03*
X93980Y19050D03*
X128270Y19050D03*
X138430Y19050D03*
X191770Y15240D03*
X200660Y15240D03*
X240030Y43180D03*
X240030Y34290D03*
X238760Y55880D03*
X218440Y55880D03*
X251460Y77470D03*
X259080Y77470D03*
X237490Y82550D03*
X175260Y82550D03*
X181610Y92710D03*
X167640Y82550D03*
X142240Y92710D03*
X161290Y92710D03*
X194310Y87630D03*
X167640Y158750D03*
X175260Y158750D03*
X186690Y153670D03*
X194310Y153670D03*
X142240Y147320D03*
X148590Y153670D03*
X218440Y144780D03*
X231140Y153670D03*
X237490Y158750D03*
X251460Y163830D03*
X259080Y163830D03*
X264160Y157480D03*
X264160Y85090D03*
X231140Y87630D03*
X186690Y87630D03*
X148590Y87630D03*
X156210Y87630D03*
X156210Y153670D03*
X161290Y147320D03*
X181610Y147320D03*
X223520Y97790D03*
X213360Y97790D03*
X213360Y91440D03*
X223520Y91440D03*
X212090Y124460D03*
X219710Y124460D03*
X212090Y116840D03*
X219710Y116840D03*
X243840Y158750D03*
X243840Y82550D03*
X229870Y191770D03*
X229870Y184150D03*
X229870Y176530D03*
X231140Y223520D03*
X231140Y215900D03*
X231140Y208280D03*
X209550Y191770D03*
X209550Y184150D03*
X209550Y176530D03*
X134620Y143510D03*
X124460Y143510D03*
X209550Y144780D03*
X209550Y151130D03*
X218440Y151130D03*
X124460Y149860D03*
X129540Y203200D03*
X137160Y203200D03*
X231140Y134620D03*
X231140Y106680D03*
X265430Y97790D03*
X265430Y104140D03*
X265430Y143510D03*
X265430Y137160D03*
X200660Y134620D03*
X200660Y140970D03*
X161290Y138430D03*
X161290Y130810D03*
X161290Y110490D03*
X200660Y106680D03*
X200660Y100330D03*
X161290Y102870D03*
X142240Y133350D03*
X142240Y107950D03*
X142240Y139700D03*
X142240Y101600D03*
X181610Y138430D03*
X181610Y130810D03*
X181610Y110490D03*
X181610Y102870D03*
X175260Y191770D03*
X175260Y184150D03*
X175260Y176530D03*
X175260Y223520D03*
X175260Y215900D03*
X175260Y208280D03*
X198120Y191770D03*
X198120Y184150D03*
X198120Y176530D03*
X111760Y135890D03*
X102870Y146050D03*
X102870Y135890D03*
X57150Y20320D03*
X69850Y20320D03*
X106680Y105410D03*
X113030Y105410D03*
X172720Y40640D03*
X172720Y34290D03*
M02*
