G04 EAGLE Gerber RS-274X export*
G75*
%MOMM*%
%FSLAX34Y34*%
%LPD*%
%INTop Silkscreen *%
%IPPOS*%
%AMOC8*
5,1,8,0,0,1.08239X$1,22.5*%
G01*
%ADD10C,0.177800*%
%ADD11C,0.254000*%
%ADD12C,0.127000*%
%ADD13C,0.400000*%


D10*
X59704Y26853D02*
X61778Y26853D01*
X61778Y19939D01*
X57630Y19939D01*
X57527Y19941D01*
X57423Y19947D01*
X57320Y19956D01*
X57218Y19970D01*
X57116Y19987D01*
X57015Y20008D01*
X56914Y20033D01*
X56815Y20062D01*
X56716Y20094D01*
X56619Y20130D01*
X56524Y20170D01*
X56430Y20213D01*
X56338Y20260D01*
X56247Y20310D01*
X56158Y20363D01*
X56072Y20420D01*
X55987Y20479D01*
X55905Y20542D01*
X55826Y20608D01*
X55749Y20677D01*
X55674Y20749D01*
X55602Y20824D01*
X55533Y20901D01*
X55467Y20980D01*
X55404Y21062D01*
X55345Y21147D01*
X55288Y21233D01*
X55235Y21322D01*
X55185Y21413D01*
X55138Y21505D01*
X55095Y21599D01*
X55055Y21694D01*
X55019Y21791D01*
X54987Y21890D01*
X54958Y21989D01*
X54933Y22090D01*
X54912Y22191D01*
X54895Y22293D01*
X54881Y22395D01*
X54872Y22498D01*
X54866Y22602D01*
X54864Y22705D01*
X54864Y29619D01*
X54866Y29722D01*
X54872Y29826D01*
X54881Y29929D01*
X54895Y30031D01*
X54912Y30133D01*
X54933Y30234D01*
X54958Y30335D01*
X54987Y30434D01*
X55019Y30533D01*
X55055Y30630D01*
X55095Y30725D01*
X55138Y30819D01*
X55185Y30911D01*
X55235Y31002D01*
X55288Y31091D01*
X55345Y31177D01*
X55404Y31261D01*
X55467Y31344D01*
X55533Y31423D01*
X55602Y31500D01*
X55674Y31575D01*
X55749Y31647D01*
X55826Y31716D01*
X55905Y31782D01*
X55987Y31845D01*
X56072Y31904D01*
X56158Y31961D01*
X56247Y32014D01*
X56338Y32064D01*
X56430Y32111D01*
X56524Y32154D01*
X56619Y32194D01*
X56716Y32230D01*
X56815Y32262D01*
X56914Y32291D01*
X57014Y32316D01*
X57116Y32337D01*
X57218Y32354D01*
X57320Y32368D01*
X57423Y32377D01*
X57527Y32383D01*
X57630Y32385D01*
X61778Y32385D01*
X68519Y32385D02*
X68519Y19939D01*
X75433Y19939D02*
X68519Y32385D01*
X75433Y32385D02*
X75433Y19939D01*
X82174Y19939D02*
X82174Y32385D01*
X85631Y32385D01*
X85747Y32383D01*
X85862Y32377D01*
X85977Y32368D01*
X86092Y32354D01*
X86206Y32337D01*
X86320Y32316D01*
X86432Y32291D01*
X86544Y32262D01*
X86655Y32230D01*
X86765Y32194D01*
X86873Y32154D01*
X86981Y32111D01*
X87086Y32064D01*
X87190Y32013D01*
X87292Y31960D01*
X87393Y31902D01*
X87491Y31842D01*
X87587Y31778D01*
X87682Y31711D01*
X87773Y31641D01*
X87863Y31568D01*
X87950Y31492D01*
X88034Y31413D01*
X88116Y31331D01*
X88195Y31247D01*
X88271Y31160D01*
X88344Y31070D01*
X88414Y30979D01*
X88481Y30884D01*
X88545Y30788D01*
X88605Y30690D01*
X88663Y30589D01*
X88716Y30487D01*
X88767Y30383D01*
X88814Y30278D01*
X88857Y30170D01*
X88897Y30062D01*
X88933Y29952D01*
X88965Y29841D01*
X88994Y29729D01*
X89019Y29617D01*
X89040Y29503D01*
X89057Y29389D01*
X89071Y29274D01*
X89080Y29159D01*
X89086Y29043D01*
X89088Y28928D01*
X89088Y23396D01*
X89086Y23280D01*
X89080Y23165D01*
X89071Y23050D01*
X89057Y22935D01*
X89040Y22821D01*
X89019Y22707D01*
X88994Y22595D01*
X88965Y22483D01*
X88933Y22372D01*
X88897Y22262D01*
X88857Y22154D01*
X88814Y22046D01*
X88767Y21941D01*
X88716Y21837D01*
X88663Y21735D01*
X88605Y21634D01*
X88545Y21536D01*
X88481Y21440D01*
X88414Y21345D01*
X88344Y21254D01*
X88271Y21164D01*
X88195Y21077D01*
X88116Y20993D01*
X88034Y20911D01*
X87950Y20832D01*
X87863Y20756D01*
X87773Y20683D01*
X87682Y20613D01*
X87587Y20546D01*
X87491Y20482D01*
X87393Y20422D01*
X87292Y20364D01*
X87190Y20311D01*
X87086Y20260D01*
X86981Y20213D01*
X86873Y20170D01*
X86765Y20130D01*
X86655Y20094D01*
X86544Y20062D01*
X86432Y20033D01*
X86320Y20008D01*
X86206Y19987D01*
X86092Y19970D01*
X85977Y19956D01*
X85862Y19947D01*
X85747Y19941D01*
X85631Y19939D01*
X82174Y19939D01*
X56811Y113679D02*
X48514Y113679D01*
X52663Y109530D02*
X52663Y117828D01*
X62860Y108839D02*
X66318Y108839D01*
X66435Y108841D01*
X66551Y108847D01*
X66668Y108857D01*
X66784Y108871D01*
X66899Y108888D01*
X67014Y108910D01*
X67128Y108935D01*
X67241Y108964D01*
X67353Y108998D01*
X67464Y109034D01*
X67573Y109075D01*
X67681Y109119D01*
X67788Y109167D01*
X67893Y109218D01*
X67996Y109273D01*
X68097Y109332D01*
X68196Y109394D01*
X68293Y109459D01*
X68388Y109527D01*
X68480Y109598D01*
X68570Y109673D01*
X68657Y109751D01*
X68742Y109831D01*
X68824Y109914D01*
X68903Y110000D01*
X68979Y110089D01*
X69052Y110180D01*
X69122Y110273D01*
X69188Y110369D01*
X69252Y110467D01*
X69312Y110567D01*
X69369Y110670D01*
X69422Y110774D01*
X69471Y110879D01*
X69517Y110987D01*
X69560Y111095D01*
X69599Y111206D01*
X69633Y111317D01*
X69665Y111429D01*
X69692Y111543D01*
X69716Y111657D01*
X69735Y111773D01*
X69751Y111888D01*
X69763Y112004D01*
X69771Y112121D01*
X69775Y112238D01*
X69775Y112354D01*
X69771Y112471D01*
X69763Y112588D01*
X69751Y112704D01*
X69735Y112819D01*
X69716Y112935D01*
X69692Y113049D01*
X69665Y113163D01*
X69633Y113275D01*
X69599Y113386D01*
X69560Y113497D01*
X69517Y113605D01*
X69471Y113713D01*
X69422Y113818D01*
X69369Y113922D01*
X69312Y114024D01*
X69252Y114125D01*
X69188Y114223D01*
X69122Y114319D01*
X69052Y114412D01*
X68979Y114503D01*
X68903Y114592D01*
X68824Y114678D01*
X68742Y114761D01*
X68657Y114841D01*
X68570Y114919D01*
X68480Y114994D01*
X68388Y115065D01*
X68293Y115133D01*
X68196Y115198D01*
X68097Y115260D01*
X67996Y115319D01*
X67893Y115374D01*
X67788Y115425D01*
X67681Y115473D01*
X67573Y115517D01*
X67464Y115558D01*
X67353Y115594D01*
X67241Y115628D01*
X67128Y115657D01*
X67014Y115682D01*
X66899Y115704D01*
X66784Y115721D01*
X66668Y115735D01*
X66551Y115745D01*
X66435Y115751D01*
X66318Y115753D01*
X67009Y121285D02*
X62860Y121285D01*
X67009Y121285D02*
X67112Y121283D01*
X67216Y121277D01*
X67319Y121268D01*
X67421Y121254D01*
X67523Y121237D01*
X67624Y121216D01*
X67725Y121191D01*
X67824Y121162D01*
X67923Y121130D01*
X68020Y121094D01*
X68115Y121054D01*
X68209Y121011D01*
X68301Y120964D01*
X68392Y120914D01*
X68481Y120861D01*
X68567Y120804D01*
X68652Y120745D01*
X68734Y120682D01*
X68813Y120616D01*
X68890Y120547D01*
X68965Y120475D01*
X69037Y120400D01*
X69106Y120323D01*
X69172Y120244D01*
X69235Y120162D01*
X69294Y120077D01*
X69351Y119991D01*
X69404Y119902D01*
X69454Y119811D01*
X69501Y119719D01*
X69544Y119625D01*
X69584Y119530D01*
X69620Y119433D01*
X69652Y119334D01*
X69681Y119235D01*
X69706Y119134D01*
X69727Y119033D01*
X69744Y118931D01*
X69758Y118829D01*
X69767Y118726D01*
X69773Y118622D01*
X69775Y118519D01*
X69773Y118416D01*
X69767Y118312D01*
X69758Y118209D01*
X69744Y118107D01*
X69727Y118005D01*
X69706Y117904D01*
X69681Y117803D01*
X69652Y117704D01*
X69620Y117605D01*
X69584Y117508D01*
X69544Y117413D01*
X69501Y117319D01*
X69454Y117227D01*
X69404Y117136D01*
X69351Y117047D01*
X69294Y116961D01*
X69235Y116876D01*
X69172Y116794D01*
X69106Y116715D01*
X69037Y116638D01*
X68965Y116563D01*
X68890Y116491D01*
X68813Y116422D01*
X68734Y116356D01*
X68652Y116293D01*
X68567Y116234D01*
X68481Y116177D01*
X68392Y116124D01*
X68301Y116074D01*
X68209Y116027D01*
X68115Y115984D01*
X68020Y115944D01*
X67923Y115908D01*
X67824Y115876D01*
X67725Y115847D01*
X67624Y115822D01*
X67523Y115801D01*
X67421Y115784D01*
X67319Y115770D01*
X67216Y115761D01*
X67112Y115755D01*
X67009Y115753D01*
X64243Y115753D01*
X74933Y109530D02*
X74933Y108839D01*
X74933Y109530D02*
X75624Y109530D01*
X75624Y108839D01*
X74933Y108839D01*
X80783Y108839D02*
X84240Y108839D01*
X84357Y108841D01*
X84473Y108847D01*
X84590Y108857D01*
X84706Y108871D01*
X84821Y108888D01*
X84936Y108910D01*
X85050Y108935D01*
X85163Y108964D01*
X85275Y108998D01*
X85386Y109034D01*
X85495Y109075D01*
X85603Y109119D01*
X85710Y109167D01*
X85815Y109218D01*
X85918Y109273D01*
X86019Y109332D01*
X86118Y109394D01*
X86215Y109459D01*
X86310Y109527D01*
X86402Y109598D01*
X86492Y109673D01*
X86579Y109751D01*
X86664Y109831D01*
X86746Y109914D01*
X86825Y110000D01*
X86901Y110089D01*
X86974Y110180D01*
X87044Y110273D01*
X87110Y110369D01*
X87174Y110467D01*
X87234Y110567D01*
X87291Y110670D01*
X87344Y110774D01*
X87393Y110879D01*
X87439Y110987D01*
X87482Y111095D01*
X87521Y111206D01*
X87555Y111317D01*
X87587Y111429D01*
X87614Y111543D01*
X87638Y111657D01*
X87657Y111773D01*
X87673Y111888D01*
X87685Y112004D01*
X87693Y112121D01*
X87697Y112238D01*
X87697Y112354D01*
X87693Y112471D01*
X87685Y112588D01*
X87673Y112704D01*
X87657Y112819D01*
X87638Y112935D01*
X87614Y113049D01*
X87587Y113163D01*
X87555Y113275D01*
X87521Y113386D01*
X87482Y113497D01*
X87439Y113605D01*
X87393Y113713D01*
X87344Y113818D01*
X87291Y113922D01*
X87234Y114024D01*
X87174Y114125D01*
X87110Y114223D01*
X87044Y114319D01*
X86974Y114412D01*
X86901Y114503D01*
X86825Y114592D01*
X86746Y114678D01*
X86664Y114761D01*
X86579Y114841D01*
X86492Y114919D01*
X86402Y114994D01*
X86310Y115065D01*
X86215Y115133D01*
X86118Y115198D01*
X86019Y115260D01*
X85918Y115319D01*
X85815Y115374D01*
X85710Y115425D01*
X85603Y115473D01*
X85495Y115517D01*
X85386Y115558D01*
X85275Y115594D01*
X85163Y115628D01*
X85050Y115657D01*
X84936Y115682D01*
X84821Y115704D01*
X84706Y115721D01*
X84590Y115735D01*
X84473Y115745D01*
X84357Y115751D01*
X84240Y115753D01*
X84931Y121285D02*
X80783Y121285D01*
X84931Y121285D02*
X85034Y121283D01*
X85138Y121277D01*
X85241Y121268D01*
X85343Y121254D01*
X85445Y121237D01*
X85546Y121216D01*
X85647Y121191D01*
X85746Y121162D01*
X85845Y121130D01*
X85942Y121094D01*
X86037Y121054D01*
X86131Y121011D01*
X86223Y120964D01*
X86314Y120914D01*
X86403Y120861D01*
X86489Y120804D01*
X86574Y120745D01*
X86656Y120682D01*
X86735Y120616D01*
X86812Y120547D01*
X86887Y120475D01*
X86959Y120400D01*
X87028Y120323D01*
X87094Y120244D01*
X87157Y120162D01*
X87216Y120077D01*
X87273Y119991D01*
X87326Y119902D01*
X87376Y119811D01*
X87423Y119719D01*
X87466Y119625D01*
X87506Y119530D01*
X87542Y119433D01*
X87574Y119334D01*
X87603Y119235D01*
X87628Y119134D01*
X87649Y119033D01*
X87666Y118931D01*
X87680Y118829D01*
X87689Y118726D01*
X87695Y118622D01*
X87697Y118519D01*
X87695Y118416D01*
X87689Y118312D01*
X87680Y118209D01*
X87666Y118107D01*
X87649Y118005D01*
X87628Y117904D01*
X87603Y117803D01*
X87574Y117704D01*
X87542Y117605D01*
X87506Y117508D01*
X87466Y117413D01*
X87423Y117319D01*
X87376Y117227D01*
X87326Y117136D01*
X87273Y117047D01*
X87216Y116961D01*
X87157Y116876D01*
X87094Y116794D01*
X87028Y116715D01*
X86959Y116638D01*
X86887Y116563D01*
X86812Y116491D01*
X86735Y116422D01*
X86656Y116356D01*
X86574Y116293D01*
X86489Y116234D01*
X86403Y116177D01*
X86314Y116124D01*
X86223Y116074D01*
X86131Y116027D01*
X86037Y115984D01*
X85942Y115944D01*
X85845Y115908D01*
X85746Y115876D01*
X85647Y115847D01*
X85546Y115822D01*
X85445Y115801D01*
X85343Y115784D01*
X85241Y115770D01*
X85138Y115761D01*
X85034Y115755D01*
X84931Y115753D01*
X82166Y115753D01*
X92893Y121285D02*
X97041Y108839D01*
X101190Y121285D01*
X136172Y99314D02*
X141704Y99314D01*
X136172Y99314D02*
X136055Y99316D01*
X135939Y99322D01*
X135822Y99332D01*
X135706Y99346D01*
X135591Y99363D01*
X135476Y99385D01*
X135362Y99410D01*
X135249Y99439D01*
X135137Y99473D01*
X135026Y99509D01*
X134917Y99550D01*
X134809Y99594D01*
X134702Y99642D01*
X134597Y99693D01*
X134494Y99748D01*
X134393Y99807D01*
X134294Y99869D01*
X134197Y99934D01*
X134102Y100002D01*
X134010Y100073D01*
X133920Y100148D01*
X133833Y100226D01*
X133748Y100306D01*
X133666Y100389D01*
X133587Y100475D01*
X133511Y100564D01*
X133438Y100655D01*
X133368Y100748D01*
X133302Y100844D01*
X133238Y100942D01*
X133178Y101043D01*
X133121Y101145D01*
X133068Y101249D01*
X133019Y101354D01*
X132973Y101462D01*
X132930Y101570D01*
X132891Y101681D01*
X132857Y101792D01*
X132825Y101904D01*
X132798Y102018D01*
X132774Y102132D01*
X132755Y102248D01*
X132739Y102363D01*
X132727Y102479D01*
X132719Y102596D01*
X132715Y102713D01*
X132715Y102829D01*
X132719Y102946D01*
X132727Y103063D01*
X132739Y103179D01*
X132755Y103294D01*
X132774Y103410D01*
X132798Y103524D01*
X132825Y103638D01*
X132857Y103750D01*
X132891Y103861D01*
X132930Y103972D01*
X132973Y104080D01*
X133019Y104188D01*
X133068Y104293D01*
X133121Y104397D01*
X133178Y104500D01*
X133238Y104600D01*
X133302Y104698D01*
X133368Y104794D01*
X133438Y104887D01*
X133511Y104978D01*
X133587Y105067D01*
X133666Y105153D01*
X133748Y105236D01*
X133833Y105316D01*
X133920Y105394D01*
X134010Y105469D01*
X134102Y105540D01*
X134197Y105608D01*
X134294Y105673D01*
X134393Y105735D01*
X134494Y105794D01*
X134597Y105849D01*
X134702Y105900D01*
X134809Y105948D01*
X134917Y105992D01*
X135026Y106033D01*
X135137Y106069D01*
X135249Y106103D01*
X135362Y106132D01*
X135476Y106157D01*
X135591Y106179D01*
X135706Y106196D01*
X135822Y106210D01*
X135939Y106220D01*
X136055Y106226D01*
X136172Y106228D01*
X141704Y106228D01*
X141821Y106226D01*
X141937Y106220D01*
X142054Y106210D01*
X142170Y106196D01*
X142285Y106179D01*
X142400Y106157D01*
X142514Y106132D01*
X142627Y106103D01*
X142739Y106069D01*
X142850Y106033D01*
X142959Y105992D01*
X143067Y105948D01*
X143174Y105900D01*
X143279Y105849D01*
X143382Y105794D01*
X143483Y105735D01*
X143582Y105673D01*
X143679Y105608D01*
X143774Y105540D01*
X143866Y105469D01*
X143956Y105394D01*
X144043Y105316D01*
X144128Y105236D01*
X144210Y105153D01*
X144289Y105067D01*
X144365Y104978D01*
X144438Y104887D01*
X144508Y104794D01*
X144574Y104698D01*
X144638Y104600D01*
X144698Y104499D01*
X144755Y104397D01*
X144808Y104293D01*
X144857Y104188D01*
X144903Y104080D01*
X144946Y103972D01*
X144985Y103861D01*
X145019Y103750D01*
X145051Y103638D01*
X145078Y103524D01*
X145102Y103410D01*
X145121Y103294D01*
X145137Y103179D01*
X145149Y103063D01*
X145157Y102946D01*
X145161Y102829D01*
X145161Y102713D01*
X145157Y102596D01*
X145149Y102479D01*
X145137Y102363D01*
X145121Y102248D01*
X145102Y102132D01*
X145078Y102018D01*
X145051Y101904D01*
X145019Y101792D01*
X144985Y101681D01*
X144946Y101570D01*
X144903Y101462D01*
X144857Y101354D01*
X144808Y101249D01*
X144755Y101145D01*
X144698Y101042D01*
X144638Y100942D01*
X144574Y100844D01*
X144508Y100748D01*
X144438Y100655D01*
X144365Y100564D01*
X144289Y100475D01*
X144210Y100389D01*
X144128Y100306D01*
X144043Y100226D01*
X143956Y100148D01*
X143866Y100073D01*
X143774Y100002D01*
X143679Y99934D01*
X143582Y99869D01*
X143483Y99807D01*
X143382Y99748D01*
X143279Y99693D01*
X143174Y99642D01*
X143067Y99594D01*
X142959Y99550D01*
X142850Y99509D01*
X142739Y99473D01*
X142627Y99439D01*
X142514Y99410D01*
X142400Y99385D01*
X142285Y99363D01*
X142170Y99346D01*
X142054Y99332D01*
X141937Y99322D01*
X141821Y99316D01*
X141704Y99314D01*
X143087Y112380D02*
X136864Y112380D01*
X143087Y112381D02*
X143175Y112383D01*
X143263Y112388D01*
X143350Y112398D01*
X143438Y112411D01*
X143524Y112428D01*
X143610Y112448D01*
X143694Y112472D01*
X143778Y112499D01*
X143860Y112531D01*
X143941Y112565D01*
X144021Y112603D01*
X144098Y112644D01*
X144174Y112689D01*
X144248Y112737D01*
X144320Y112788D01*
X144390Y112841D01*
X144457Y112898D01*
X144522Y112958D01*
X144584Y113020D01*
X144644Y113085D01*
X144701Y113152D01*
X144754Y113222D01*
X144805Y113294D01*
X144853Y113368D01*
X144898Y113444D01*
X144939Y113521D01*
X144977Y113601D01*
X145011Y113682D01*
X145043Y113764D01*
X145070Y113848D01*
X145094Y113932D01*
X145114Y114018D01*
X145131Y114104D01*
X145144Y114192D01*
X145154Y114279D01*
X145159Y114367D01*
X145161Y114455D01*
X145161Y117912D01*
X136864Y117912D01*
X136864Y122754D02*
X136864Y126902D01*
X132715Y124137D02*
X143087Y124137D01*
X143175Y124139D01*
X143263Y124144D01*
X143350Y124154D01*
X143438Y124167D01*
X143524Y124184D01*
X143610Y124204D01*
X143694Y124228D01*
X143778Y124255D01*
X143860Y124287D01*
X143941Y124321D01*
X144021Y124359D01*
X144098Y124400D01*
X144174Y124445D01*
X144248Y124493D01*
X144320Y124544D01*
X144390Y124597D01*
X144457Y124654D01*
X144522Y124714D01*
X144584Y124776D01*
X144644Y124841D01*
X144701Y124908D01*
X144755Y124978D01*
X144805Y125050D01*
X144853Y125124D01*
X144898Y125200D01*
X144939Y125277D01*
X144977Y125357D01*
X145011Y125438D01*
X145043Y125520D01*
X145070Y125604D01*
X145094Y125688D01*
X145114Y125774D01*
X145131Y125861D01*
X145144Y125948D01*
X145154Y126035D01*
X145159Y126123D01*
X145161Y126211D01*
X145161Y126902D01*
D11*
X50800Y25400D02*
X44450Y25400D01*
X92075Y25400D02*
X101600Y25400D01*
D10*
X132715Y32921D02*
X145161Y32921D01*
X132715Y29464D02*
X132715Y36378D01*
X132715Y42082D02*
X145161Y42082D01*
X132715Y42082D02*
X132715Y45539D01*
X132717Y45656D01*
X132723Y45772D01*
X132733Y45889D01*
X132747Y46005D01*
X132764Y46120D01*
X132786Y46235D01*
X132811Y46349D01*
X132840Y46462D01*
X132874Y46574D01*
X132910Y46685D01*
X132951Y46794D01*
X132995Y46902D01*
X133043Y47009D01*
X133094Y47114D01*
X133149Y47217D01*
X133208Y47318D01*
X133270Y47417D01*
X133335Y47514D01*
X133403Y47609D01*
X133474Y47701D01*
X133549Y47791D01*
X133627Y47878D01*
X133707Y47963D01*
X133790Y48045D01*
X133876Y48124D01*
X133965Y48200D01*
X134056Y48273D01*
X134149Y48343D01*
X134245Y48409D01*
X134343Y48473D01*
X134444Y48533D01*
X134546Y48590D01*
X134650Y48643D01*
X134755Y48692D01*
X134863Y48738D01*
X134971Y48781D01*
X135082Y48820D01*
X135193Y48854D01*
X135305Y48886D01*
X135419Y48913D01*
X135533Y48937D01*
X135649Y48956D01*
X135764Y48972D01*
X135880Y48984D01*
X135997Y48992D01*
X136114Y48996D01*
X136230Y48996D01*
X136347Y48992D01*
X136464Y48984D01*
X136580Y48972D01*
X136695Y48956D01*
X136811Y48937D01*
X136925Y48913D01*
X137039Y48886D01*
X137151Y48854D01*
X137262Y48820D01*
X137373Y48781D01*
X137481Y48738D01*
X137589Y48692D01*
X137694Y48643D01*
X137798Y48590D01*
X137901Y48533D01*
X138001Y48473D01*
X138099Y48409D01*
X138195Y48343D01*
X138288Y48273D01*
X138379Y48200D01*
X138468Y48124D01*
X138554Y48045D01*
X138637Y47963D01*
X138717Y47878D01*
X138795Y47791D01*
X138870Y47701D01*
X138941Y47609D01*
X139009Y47514D01*
X139074Y47417D01*
X139136Y47318D01*
X139195Y47217D01*
X139250Y47114D01*
X139301Y47009D01*
X139349Y46902D01*
X139393Y46794D01*
X139434Y46685D01*
X139470Y46574D01*
X139504Y46462D01*
X139533Y46349D01*
X139558Y46235D01*
X139580Y46120D01*
X139597Y46005D01*
X139611Y45889D01*
X139621Y45772D01*
X139627Y45656D01*
X139629Y45539D01*
X139629Y42082D01*
D12*
X44450Y63500D02*
X44450Y88900D01*
X57150Y88900D01*
X57150Y63500D01*
X44450Y63500D01*
X37825Y61175D02*
X19325Y61175D01*
X37825Y61175D02*
X37825Y91225D01*
X19325Y91225D01*
X19325Y61175D01*
X73375Y88200D02*
X85375Y88200D01*
X85375Y64200D02*
X73375Y64200D01*
X63375Y73200D02*
X63375Y79200D01*
X94375Y79200D02*
X94375Y73200D01*
D13*
X60375Y61200D03*
D12*
X103475Y92725D02*
X131475Y92725D01*
X131475Y78725D01*
X103475Y78725D01*
X103475Y92725D01*
M02*
