M48
;GenerationSoftware,Autodesk,EAGLE,9.4.1*%
;CreationDate,2019-08-20T15:38:20Z*%
FMAT,2
ICI,OFF
METRIC,TZ,000.000
T4C0.300
T3C0.450
T2C1.000
%
G90
M71
T2
X11049Y16002
X11049Y18542
T3
X18288Y1270
X13589Y7620
X20828Y1270
X23368Y1270
X24638Y19685
X22098Y19685
X19558Y19685
X4064Y19177
X4064Y18161
X5461Y15367
X5461Y14605
X7112Y11557
X5969Y10668
X5080Y10668
X10287Y10287
X7874Y10287
X15748Y9398
X15748Y8382
X15748Y14732
X11684Y8128
X13208Y1270
X15748Y13970
X24638Y17780
X24638Y13970
X22733Y17780
X22733Y12700
X20828Y16510
X18923Y14605
X20828Y10795
X24638Y7620
X24638Y3810
X22733Y8890
X15748Y1270
X10668Y1270
X3683Y1270
X1143Y4445
X1143Y19685
X22733Y3810
X20828Y5080
X1143Y1270
X18923Y6985
T4
X27432Y1778
X26162Y1778
X27432Y9652
X27432Y7366
X27432Y4064
X28702Y14224
X28702Y17526
X26162Y14224
X26162Y17526
X28702Y19812
X26162Y19812
X28702Y11938
X26162Y11938
X27432Y11938
X27432Y19812
X27432Y17526
X27432Y14224
X2413Y10795
X1143Y10795
X3683Y14097
X3683Y10795
X1143Y8509
X3683Y8509
X1143Y16383
X3683Y16383
X2413Y16383
X2413Y8509
X1143Y14097
X2413Y14097
X28702Y4064
X28702Y7366
X26162Y4064
X26162Y7366
X28702Y9652
X26162Y9652
X28702Y1778
M30