G04 EAGLE Gerber RS-274X export*
G75*
%MOMM*%
%FSLAX34Y34*%
%LPD*%
%INComponent side*%
%IPPOS*%
%AMOC8*
5,1,8,0,0,1.08239X$1,22.5*%
G01*
%ADD10R,1.600000X0.900000*%
%ADD11R,0.800000X0.800000*%
%ADD12R,0.700000X0.600000*%
%ADD13R,1.000000X1.400000*%
%ADD14R,0.800000X0.300000*%
%ADD15R,0.300000X0.800000*%
%ADD16R,1.230000X1.230000*%
%ADD17R,1.714500X1.714500*%
%ADD18R,5.537200X0.340359*%
%ADD19C,0.609600*%
%ADD20R,5.537200X3.723641*%
%ADD21R,4.572000X2.540000*%
%ADD22R,3.810000X1.016000*%
%ADD23C,0.503200*%
%ADD24R,0.127000X0.127000*%
%ADD25P,2.089446X8X112.500000*%
%ADD26R,0.950000X0.950000*%
%ADD27C,0.750000*%
%ADD28C,0.508000*%
%ADD29C,0.304800*%
%ADD30C,0.254000*%
%ADD31C,0.340359*%

G36*
X217870Y3822D02*
X217870Y3822D01*
X217936Y3824D01*
X217979Y3842D01*
X218026Y3850D01*
X218083Y3884D01*
X218143Y3909D01*
X218178Y3940D01*
X218219Y3965D01*
X218261Y4016D01*
X218309Y4060D01*
X218331Y4102D01*
X218360Y4139D01*
X218381Y4201D01*
X218412Y4260D01*
X218420Y4314D01*
X218432Y4351D01*
X218431Y4391D01*
X218439Y4445D01*
X218439Y97739D01*
X218428Y97804D01*
X218426Y97870D01*
X218408Y97913D01*
X218400Y97960D01*
X218366Y98017D01*
X218341Y98078D01*
X218310Y98113D01*
X218285Y98153D01*
X218234Y98195D01*
X218190Y98243D01*
X218148Y98265D01*
X218111Y98295D01*
X218049Y98316D01*
X217990Y98346D01*
X217936Y98354D01*
X217899Y98367D01*
X217859Y98365D01*
X217805Y98373D01*
X195909Y98373D01*
X167141Y98373D01*
X167099Y98366D01*
X167057Y98368D01*
X166990Y98346D01*
X166920Y98334D01*
X166920Y98333D01*
X163903Y98333D01*
X141361Y98333D01*
X141273Y98318D01*
X141185Y98309D01*
X141163Y98298D01*
X141140Y98294D01*
X141063Y98249D01*
X140983Y98209D01*
X140967Y98192D01*
X140947Y98180D01*
X140891Y98111D01*
X140830Y98046D01*
X140820Y98024D01*
X140805Y98005D01*
X140777Y97921D01*
X140742Y97839D01*
X140741Y97815D01*
X140733Y97793D01*
X140736Y97704D01*
X140732Y97615D01*
X140739Y97592D01*
X140740Y97569D01*
X140773Y97486D01*
X140801Y97401D01*
X140817Y97380D01*
X140824Y97361D01*
X140858Y97324D01*
X140912Y97251D01*
X143996Y94167D01*
X144031Y94142D01*
X144060Y94111D01*
X144123Y94079D01*
X144181Y94038D01*
X144222Y94028D01*
X144260Y94008D01*
X144349Y93995D01*
X144398Y93982D01*
X144419Y93985D01*
X144445Y93981D01*
X153670Y93981D01*
X153671Y93980D01*
X153671Y80010D01*
X153670Y80009D01*
X138430Y80009D01*
X138429Y80010D01*
X138429Y90345D01*
X138422Y90387D01*
X138424Y90429D01*
X138402Y90496D01*
X138390Y90566D01*
X138368Y90602D01*
X138355Y90643D01*
X138301Y90716D01*
X138275Y90759D01*
X138259Y90772D01*
X138243Y90793D01*
X135889Y93148D01*
X135854Y93172D01*
X135826Y93203D01*
X135763Y93236D01*
X135705Y93276D01*
X135664Y93286D01*
X135626Y93306D01*
X135537Y93319D01*
X135488Y93332D01*
X135467Y93330D01*
X135441Y93333D01*
X125943Y93333D01*
X125927Y93349D01*
X125893Y93374D01*
X125864Y93405D01*
X125801Y93437D01*
X125743Y93478D01*
X125702Y93488D01*
X125664Y93508D01*
X125575Y93521D01*
X125526Y93534D01*
X125505Y93531D01*
X125479Y93535D01*
X123825Y93535D01*
X123760Y93524D01*
X123694Y93522D01*
X123651Y93504D01*
X123604Y93496D01*
X123547Y93462D01*
X123487Y93437D01*
X123452Y93406D01*
X123411Y93381D01*
X123369Y93330D01*
X123321Y93286D01*
X123299Y93244D01*
X123270Y93207D01*
X123249Y93145D01*
X123218Y93086D01*
X123210Y93032D01*
X123198Y92995D01*
X123199Y92955D01*
X123191Y92901D01*
X123191Y88900D01*
X123190Y88899D01*
X118935Y88899D01*
X118870Y88888D01*
X118804Y88886D01*
X118761Y88868D01*
X118714Y88860D01*
X118657Y88826D01*
X118597Y88801D01*
X118562Y88770D01*
X118521Y88745D01*
X118479Y88694D01*
X118431Y88650D01*
X118409Y88608D01*
X118380Y88571D01*
X118359Y88509D01*
X118328Y88450D01*
X118320Y88396D01*
X118308Y88359D01*
X118309Y88319D01*
X118301Y88265D01*
X118301Y80284D01*
X117556Y79539D01*
X113959Y79539D01*
X113894Y79528D01*
X113828Y79526D01*
X113785Y79508D01*
X113738Y79500D01*
X113681Y79466D01*
X113621Y79441D01*
X113586Y79410D01*
X113545Y79385D01*
X113503Y79334D01*
X113455Y79290D01*
X113433Y79248D01*
X113404Y79211D01*
X113383Y79149D01*
X113352Y79090D01*
X113344Y79036D01*
X113332Y78999D01*
X113333Y78959D01*
X113325Y78905D01*
X113325Y70330D01*
X113332Y70289D01*
X113330Y70246D01*
X113352Y70179D01*
X113364Y70109D01*
X113386Y70073D01*
X113399Y70033D01*
X113453Y69960D01*
X113479Y69916D01*
X113495Y69903D01*
X113511Y69882D01*
X120036Y63357D01*
X120071Y63332D01*
X120099Y63301D01*
X120162Y63269D01*
X120220Y63228D01*
X120261Y63218D01*
X120299Y63198D01*
X120389Y63185D01*
X120437Y63172D01*
X120458Y63175D01*
X120484Y63171D01*
X127566Y63171D01*
X128311Y62426D01*
X128311Y51874D01*
X127566Y51129D01*
X117014Y51129D01*
X116269Y51874D01*
X116269Y58956D01*
X116262Y58997D01*
X116264Y59040D01*
X116242Y59107D01*
X116230Y59177D01*
X116208Y59213D01*
X116195Y59253D01*
X116141Y59326D01*
X116115Y59370D01*
X116099Y59383D01*
X116083Y59404D01*
X111827Y63660D01*
X111754Y63711D01*
X111685Y63767D01*
X111663Y63775D01*
X111643Y63788D01*
X111557Y63810D01*
X111473Y63839D01*
X111449Y63838D01*
X111426Y63844D01*
X111337Y63835D01*
X111248Y63832D01*
X111226Y63823D01*
X111203Y63821D01*
X111123Y63782D01*
X111041Y63748D01*
X111023Y63732D01*
X111002Y63722D01*
X110941Y63657D01*
X110875Y63597D01*
X110864Y63576D01*
X110848Y63558D01*
X110813Y63476D01*
X110772Y63397D01*
X110769Y63371D01*
X110760Y63352D01*
X110758Y63301D01*
X110745Y63212D01*
X110745Y45655D01*
X110756Y45590D01*
X110758Y45524D01*
X110776Y45481D01*
X110784Y45434D01*
X110818Y45377D01*
X110843Y45317D01*
X110874Y45282D01*
X110899Y45241D01*
X110950Y45199D01*
X110994Y45151D01*
X111036Y45129D01*
X111073Y45100D01*
X111135Y45079D01*
X111194Y45048D01*
X111248Y45040D01*
X111285Y45028D01*
X111325Y45029D01*
X111379Y45021D01*
X113226Y45021D01*
X113971Y44276D01*
X113971Y42429D01*
X113982Y42364D01*
X113984Y42298D01*
X114002Y42255D01*
X114010Y42208D01*
X114044Y42151D01*
X114069Y42091D01*
X114100Y42056D01*
X114125Y42015D01*
X114176Y41973D01*
X114220Y41925D01*
X114262Y41903D01*
X114299Y41874D01*
X114361Y41853D01*
X114420Y41822D01*
X114474Y41814D01*
X114511Y41802D01*
X114551Y41803D01*
X114605Y41795D01*
X120345Y41795D01*
X120410Y41806D01*
X120476Y41808D01*
X120519Y41826D01*
X120566Y41834D01*
X120623Y41868D01*
X120683Y41893D01*
X120718Y41924D01*
X120759Y41949D01*
X120801Y42000D01*
X120849Y42044D01*
X120871Y42086D01*
X120900Y42123D01*
X120921Y42185D01*
X120952Y42244D01*
X120960Y42298D01*
X120972Y42335D01*
X120971Y42375D01*
X120979Y42429D01*
X120979Y44276D01*
X121724Y45021D01*
X132276Y45021D01*
X133021Y44276D01*
X133021Y33724D01*
X132276Y32979D01*
X121724Y32979D01*
X120979Y33724D01*
X120979Y35571D01*
X120968Y35636D01*
X120966Y35702D01*
X120948Y35745D01*
X120940Y35792D01*
X120906Y35849D01*
X120881Y35909D01*
X120850Y35944D01*
X120825Y35985D01*
X120774Y36027D01*
X120730Y36075D01*
X120688Y36097D01*
X120651Y36126D01*
X120589Y36147D01*
X120530Y36178D01*
X120476Y36186D01*
X120439Y36198D01*
X120399Y36197D01*
X120345Y36205D01*
X114605Y36205D01*
X114540Y36194D01*
X114474Y36192D01*
X114431Y36174D01*
X114384Y36166D01*
X114327Y36132D01*
X114267Y36107D01*
X114232Y36076D01*
X114191Y36051D01*
X114149Y36000D01*
X114101Y35956D01*
X114079Y35914D01*
X114050Y35877D01*
X114029Y35815D01*
X113998Y35756D01*
X113990Y35702D01*
X113978Y35665D01*
X113979Y35625D01*
X113971Y35571D01*
X113971Y33724D01*
X113226Y32979D01*
X102674Y32979D01*
X101929Y33724D01*
X101929Y44276D01*
X102674Y45021D01*
X104521Y45021D01*
X104586Y45032D01*
X104652Y45034D01*
X104695Y45052D01*
X104742Y45060D01*
X104799Y45094D01*
X104859Y45119D01*
X104894Y45150D01*
X104935Y45175D01*
X104977Y45226D01*
X105025Y45270D01*
X105047Y45312D01*
X105076Y45349D01*
X105097Y45411D01*
X105128Y45470D01*
X105136Y45524D01*
X105148Y45561D01*
X105148Y45576D01*
X105148Y45578D01*
X105148Y45603D01*
X105155Y45655D01*
X105155Y62080D01*
X105148Y62121D01*
X105150Y62164D01*
X105128Y62231D01*
X105116Y62301D01*
X105094Y62337D01*
X105081Y62377D01*
X105027Y62450D01*
X105001Y62494D01*
X104985Y62507D01*
X104969Y62528D01*
X99588Y67909D01*
X99553Y67934D01*
X99525Y67965D01*
X99462Y67997D01*
X99404Y68038D01*
X99363Y68048D01*
X99325Y68068D01*
X99235Y68081D01*
X99187Y68094D01*
X99166Y68091D01*
X99140Y68095D01*
X96946Y68095D01*
X96922Y68107D01*
X96864Y68148D01*
X96823Y68158D01*
X96786Y68178D01*
X96696Y68191D01*
X96647Y68204D01*
X96626Y68201D01*
X96600Y68205D01*
X94805Y68205D01*
X94740Y68194D01*
X94674Y68192D01*
X94631Y68174D01*
X94584Y68166D01*
X94527Y68132D01*
X94467Y68107D01*
X94432Y68076D01*
X94391Y68051D01*
X94349Y68000D01*
X94301Y67956D01*
X94279Y67914D01*
X94250Y67877D01*
X94229Y67815D01*
X94198Y67756D01*
X94190Y67702D01*
X94178Y67665D01*
X94179Y67625D01*
X94171Y67571D01*
X94171Y66474D01*
X93426Y65729D01*
X84374Y65729D01*
X83629Y66474D01*
X83629Y75526D01*
X84374Y76271D01*
X85725Y76271D01*
X85790Y76282D01*
X85856Y76284D01*
X85899Y76302D01*
X85946Y76310D01*
X86003Y76344D01*
X86063Y76369D01*
X86098Y76400D01*
X86139Y76425D01*
X86181Y76476D01*
X86229Y76520D01*
X86251Y76562D01*
X86280Y76599D01*
X86301Y76661D01*
X86332Y76720D01*
X86340Y76774D01*
X86352Y76811D01*
X86351Y76851D01*
X86359Y76905D01*
X86359Y89952D01*
X90508Y94101D01*
X92875Y94101D01*
X92940Y94112D01*
X93006Y94114D01*
X93049Y94132D01*
X93096Y94140D01*
X93153Y94174D01*
X93213Y94199D01*
X93248Y94230D01*
X93289Y94255D01*
X93331Y94306D01*
X93379Y94350D01*
X93401Y94392D01*
X93430Y94429D01*
X93451Y94491D01*
X93482Y94550D01*
X93490Y94604D01*
X93502Y94641D01*
X93501Y94681D01*
X93509Y94735D01*
X93509Y98131D01*
X93498Y98196D01*
X93496Y98262D01*
X93478Y98305D01*
X93470Y98352D01*
X93436Y98409D01*
X93411Y98469D01*
X93380Y98504D01*
X93355Y98545D01*
X93304Y98587D01*
X93260Y98635D01*
X93218Y98657D01*
X93181Y98686D01*
X93119Y98707D01*
X93060Y98738D01*
X93006Y98746D01*
X92969Y98758D01*
X92929Y98757D01*
X92875Y98765D01*
X85025Y98765D01*
X84960Y98754D01*
X84894Y98752D01*
X84851Y98734D01*
X84804Y98726D01*
X84747Y98692D01*
X84687Y98667D01*
X84652Y98636D01*
X84611Y98611D01*
X84569Y98560D01*
X84521Y98516D01*
X84499Y98474D01*
X84470Y98437D01*
X84449Y98375D01*
X84418Y98316D01*
X84410Y98262D01*
X84398Y98225D01*
X84399Y98185D01*
X84391Y98131D01*
X84391Y96324D01*
X83646Y95579D01*
X73094Y95579D01*
X72349Y96324D01*
X72349Y106876D01*
X73094Y107621D01*
X74763Y107621D01*
X74828Y107632D01*
X74894Y107634D01*
X74937Y107652D01*
X74984Y107660D01*
X75041Y107694D01*
X75102Y107719D01*
X75137Y107750D01*
X75177Y107775D01*
X75219Y107826D01*
X75267Y107870D01*
X75289Y107912D01*
X75319Y107949D01*
X75340Y108011D01*
X75370Y108070D01*
X75378Y108124D01*
X75391Y108161D01*
X75389Y108201D01*
X75397Y108255D01*
X75397Y110555D01*
X75386Y110620D01*
X75384Y110686D01*
X75366Y110729D01*
X75358Y110776D01*
X75324Y110833D01*
X75300Y110893D01*
X75268Y110928D01*
X75244Y110969D01*
X75193Y111011D01*
X75148Y111059D01*
X75106Y111081D01*
X75069Y111110D01*
X75007Y111131D01*
X74949Y111162D01*
X74894Y111170D01*
X74857Y111182D01*
X74818Y111181D01*
X74763Y111189D01*
X73464Y111189D01*
X72719Y111934D01*
X72719Y118110D01*
X72708Y118175D01*
X72706Y118241D01*
X72688Y118284D01*
X72680Y118331D01*
X72646Y118388D01*
X72621Y118448D01*
X72590Y118483D01*
X72565Y118524D01*
X72514Y118566D01*
X72470Y118614D01*
X72428Y118636D01*
X72391Y118665D01*
X72329Y118686D01*
X72270Y118717D01*
X72216Y118725D01*
X72179Y118737D01*
X72139Y118736D01*
X72085Y118744D01*
X60171Y118744D01*
X59054Y119861D01*
X59054Y153189D01*
X60171Y154306D01*
X96039Y154306D01*
X97156Y153189D01*
X97156Y133350D01*
X97167Y133285D01*
X97169Y133219D01*
X97187Y133176D01*
X97195Y133129D01*
X97229Y133072D01*
X97254Y133012D01*
X97285Y132977D01*
X97310Y132936D01*
X97361Y132894D01*
X97405Y132846D01*
X97447Y132824D01*
X97484Y132795D01*
X97546Y132774D01*
X97605Y132743D01*
X97659Y132735D01*
X97696Y132723D01*
X97736Y132724D01*
X97790Y132716D01*
X112549Y132716D01*
X113217Y132049D01*
X113290Y131998D01*
X113359Y131942D01*
X113381Y131934D01*
X113401Y131920D01*
X113487Y131898D01*
X113571Y131870D01*
X113595Y131870D01*
X113618Y131865D01*
X113707Y131874D01*
X113796Y131876D01*
X113818Y131885D01*
X113841Y131888D01*
X113921Y131927D01*
X114003Y131961D01*
X114021Y131977D01*
X114042Y131987D01*
X114103Y132052D01*
X114169Y132112D01*
X114180Y132133D01*
X114196Y132150D01*
X114231Y132232D01*
X114272Y132312D01*
X114275Y132338D01*
X114284Y132357D01*
X114286Y132407D01*
X114299Y132497D01*
X114299Y152552D01*
X115713Y153967D01*
X115738Y154001D01*
X115769Y154030D01*
X115801Y154093D01*
X115842Y154151D01*
X115852Y154192D01*
X115872Y154230D01*
X115885Y154319D01*
X115898Y154368D01*
X115895Y154389D01*
X115899Y154415D01*
X115899Y161856D01*
X116644Y162601D01*
X127196Y162601D01*
X127941Y161856D01*
X127941Y151304D01*
X127196Y150559D01*
X120015Y150559D01*
X119950Y150548D01*
X119884Y150546D01*
X119841Y150528D01*
X119794Y150520D01*
X119737Y150486D01*
X119677Y150461D01*
X119642Y150430D01*
X119601Y150405D01*
X119559Y150354D01*
X119511Y150310D01*
X119489Y150268D01*
X119460Y150231D01*
X119439Y150169D01*
X119408Y150110D01*
X119400Y150056D01*
X119388Y150019D01*
X119389Y149979D01*
X119381Y149925D01*
X119381Y132497D01*
X119396Y132409D01*
X119406Y132321D01*
X119416Y132300D01*
X119420Y132276D01*
X119466Y132199D01*
X119505Y132120D01*
X119522Y132104D01*
X119535Y132083D01*
X119604Y132027D01*
X119668Y131966D01*
X119690Y131957D01*
X119709Y131942D01*
X119793Y131913D01*
X119875Y131878D01*
X119899Y131877D01*
X119921Y131870D01*
X120010Y131872D01*
X120099Y131868D01*
X120122Y131876D01*
X120146Y131876D01*
X120228Y131910D01*
X120313Y131937D01*
X120334Y131953D01*
X120353Y131961D01*
X120391Y131995D01*
X120463Y132049D01*
X121131Y132716D01*
X158269Y132716D01*
X159386Y131599D01*
X159386Y117321D01*
X158269Y116204D01*
X123959Y116204D01*
X123894Y116193D01*
X123828Y116191D01*
X123785Y116173D01*
X123738Y116165D01*
X123681Y116131D01*
X123621Y116106D01*
X123586Y116075D01*
X123545Y116050D01*
X123503Y115999D01*
X123455Y115955D01*
X123433Y115913D01*
X123404Y115876D01*
X123383Y115814D01*
X123352Y115755D01*
X123344Y115701D01*
X123332Y115664D01*
X123333Y115624D01*
X123325Y115570D01*
X123325Y112026D01*
X123315Y111962D01*
X123303Y111913D01*
X123305Y111892D01*
X123301Y111866D01*
X123301Y108757D01*
X123289Y108733D01*
X123248Y108675D01*
X123238Y108634D01*
X123218Y108596D01*
X123205Y108507D01*
X123192Y108458D01*
X123195Y108437D01*
X123191Y108411D01*
X123191Y105219D01*
X123202Y105154D01*
X123204Y105088D01*
X123222Y105045D01*
X123230Y104998D01*
X123264Y104941D01*
X123289Y104881D01*
X123320Y104846D01*
X123345Y104805D01*
X123396Y104763D01*
X123440Y104715D01*
X123482Y104693D01*
X123519Y104664D01*
X123581Y104643D01*
X123640Y104612D01*
X123694Y104604D01*
X123731Y104592D01*
X123771Y104593D01*
X123825Y104585D01*
X125479Y104585D01*
X125521Y104592D01*
X125563Y104590D01*
X125630Y104612D01*
X125700Y104624D01*
X125736Y104646D01*
X125777Y104659D01*
X125850Y104713D01*
X125893Y104739D01*
X125906Y104755D01*
X125927Y104771D01*
X125943Y104787D01*
X163903Y104787D01*
X163944Y104794D01*
X163987Y104792D01*
X164054Y104814D01*
X164123Y104826D01*
X164124Y104827D01*
X167141Y104827D01*
X195909Y104827D01*
X217805Y104827D01*
X217870Y104838D01*
X217936Y104840D01*
X217979Y104858D01*
X218026Y104866D01*
X218083Y104900D01*
X218143Y104924D01*
X218178Y104956D01*
X218219Y104980D01*
X218261Y105031D01*
X218309Y105076D01*
X218331Y105118D01*
X218360Y105155D01*
X218381Y105217D01*
X218412Y105275D01*
X218420Y105330D01*
X218432Y105367D01*
X218431Y105406D01*
X218439Y105461D01*
X218439Y224155D01*
X218428Y224220D01*
X218426Y224286D01*
X218408Y224329D01*
X218400Y224376D01*
X218366Y224433D01*
X218341Y224493D01*
X218310Y224528D01*
X218285Y224569D01*
X218234Y224611D01*
X218190Y224659D01*
X218148Y224681D01*
X218111Y224710D01*
X218049Y224731D01*
X217990Y224762D01*
X217936Y224770D01*
X217899Y224782D01*
X217859Y224781D01*
X217805Y224789D01*
X71537Y224789D01*
X71449Y224774D01*
X71361Y224764D01*
X71340Y224754D01*
X71316Y224750D01*
X71239Y224704D01*
X71160Y224665D01*
X71144Y224648D01*
X71123Y224635D01*
X71067Y224566D01*
X71006Y224502D01*
X70997Y224480D01*
X70982Y224461D01*
X70953Y224377D01*
X70918Y224295D01*
X70917Y224271D01*
X70910Y224249D01*
X70912Y224160D01*
X70908Y224071D01*
X70916Y224048D01*
X70916Y224024D01*
X70950Y223942D01*
X70977Y223857D01*
X70993Y223836D01*
X71001Y223817D01*
X71035Y223779D01*
X71089Y223707D01*
X71756Y223039D01*
X71756Y189711D01*
X70639Y188594D01*
X5561Y188594D01*
X4893Y189261D01*
X4820Y189312D01*
X4751Y189368D01*
X4729Y189376D01*
X4709Y189390D01*
X4623Y189412D01*
X4539Y189440D01*
X4515Y189440D01*
X4492Y189445D01*
X4403Y189436D01*
X4314Y189434D01*
X4292Y189425D01*
X4269Y189422D01*
X4189Y189383D01*
X4107Y189349D01*
X4089Y189333D01*
X4068Y189323D01*
X4007Y189258D01*
X3941Y189198D01*
X3930Y189177D01*
X3914Y189160D01*
X3879Y189078D01*
X3838Y188998D01*
X3835Y188972D01*
X3826Y188953D01*
X3824Y188903D01*
X3811Y188813D01*
X3811Y122046D01*
X0Y122046D01*
X-2Y122045D01*
X-4Y122046D01*
X-47Y122026D01*
X-91Y122008D01*
X-91Y122006D01*
X-93Y122005D01*
X-126Y121920D01*
X-126Y111760D01*
X-125Y111758D01*
X-126Y111756D01*
X-106Y111713D01*
X-88Y111669D01*
X-86Y111669D01*
X-85Y111667D01*
X0Y111634D01*
X45720Y111634D01*
X45721Y111634D01*
X45721Y105461D01*
X45732Y105396D01*
X45734Y105330D01*
X45752Y105287D01*
X45760Y105240D01*
X45794Y105183D01*
X45819Y105122D01*
X45850Y105087D01*
X45875Y105047D01*
X45926Y105005D01*
X45970Y104957D01*
X46012Y104935D01*
X46049Y104905D01*
X46111Y104884D01*
X46170Y104854D01*
X46224Y104846D01*
X46261Y104834D01*
X46301Y104835D01*
X46355Y104827D01*
X56961Y104827D01*
X57026Y104838D01*
X57092Y104840D01*
X57135Y104858D01*
X57182Y104866D01*
X57239Y104900D01*
X57299Y104924D01*
X57334Y104956D01*
X57375Y104980D01*
X57417Y105031D01*
X57465Y105076D01*
X57487Y105118D01*
X57516Y105155D01*
X57537Y105217D01*
X57568Y105275D01*
X57576Y105330D01*
X57588Y105367D01*
X57587Y105406D01*
X57595Y105461D01*
X57595Y106982D01*
X58488Y107875D01*
X69252Y107875D01*
X70145Y106982D01*
X70145Y96218D01*
X69205Y95278D01*
X69167Y95224D01*
X69122Y95177D01*
X69104Y95133D01*
X69077Y95094D01*
X69060Y95031D01*
X69035Y94970D01*
X69033Y94923D01*
X69021Y94877D01*
X69028Y94812D01*
X69025Y94746D01*
X69039Y94701D01*
X69044Y94654D01*
X69073Y94595D01*
X69093Y94532D01*
X69126Y94488D01*
X69143Y94453D01*
X69172Y94426D01*
X69205Y94381D01*
X70025Y93562D01*
X70025Y78298D01*
X69132Y77405D01*
X57868Y77405D01*
X56975Y78298D01*
X56975Y93562D01*
X57877Y94464D01*
X57915Y94470D01*
X58004Y94480D01*
X58025Y94490D01*
X58049Y94494D01*
X58125Y94540D01*
X58205Y94579D01*
X58221Y94596D01*
X58242Y94609D01*
X58298Y94678D01*
X58359Y94742D01*
X58368Y94764D01*
X58383Y94783D01*
X58412Y94867D01*
X58446Y94949D01*
X58447Y94973D01*
X58455Y94995D01*
X58452Y95084D01*
X58456Y95173D01*
X58449Y95196D01*
X58448Y95220D01*
X58415Y95302D01*
X58388Y95387D01*
X58372Y95408D01*
X58364Y95427D01*
X58330Y95465D01*
X58276Y95537D01*
X57595Y96218D01*
X57595Y97739D01*
X57584Y97804D01*
X57582Y97870D01*
X57564Y97913D01*
X57556Y97960D01*
X57522Y98017D01*
X57497Y98078D01*
X57466Y98113D01*
X57441Y98153D01*
X57390Y98195D01*
X57346Y98243D01*
X57304Y98265D01*
X57267Y98295D01*
X57205Y98316D01*
X57146Y98346D01*
X57092Y98354D01*
X57055Y98366D01*
X57015Y98365D01*
X56961Y98373D01*
X46355Y98373D01*
X46290Y98362D01*
X46224Y98360D01*
X46181Y98342D01*
X46134Y98334D01*
X46077Y98300D01*
X46017Y98276D01*
X45982Y98244D01*
X45941Y98220D01*
X45899Y98169D01*
X45851Y98124D01*
X45829Y98082D01*
X45800Y98045D01*
X45779Y97983D01*
X45748Y97925D01*
X45740Y97870D01*
X45728Y97833D01*
X45729Y97794D01*
X45721Y97739D01*
X45721Y91566D01*
X45720Y91566D01*
X0Y91566D01*
X-2Y91565D01*
X-4Y91566D01*
X-47Y91546D01*
X-91Y91528D01*
X-91Y91526D01*
X-93Y91525D01*
X-126Y91440D01*
X-126Y81280D01*
X-125Y81278D01*
X-126Y81276D01*
X-106Y81233D01*
X-88Y81189D01*
X-86Y81189D01*
X-85Y81187D01*
X0Y81154D01*
X3811Y81154D01*
X3811Y4445D01*
X3822Y4380D01*
X3824Y4314D01*
X3842Y4271D01*
X3850Y4224D01*
X3884Y4167D01*
X3909Y4107D01*
X3940Y4072D01*
X3965Y4031D01*
X4016Y3989D01*
X4060Y3941D01*
X4102Y3919D01*
X4139Y3890D01*
X4201Y3869D01*
X4260Y3838D01*
X4314Y3830D01*
X4351Y3818D01*
X4391Y3819D01*
X4445Y3811D01*
X217805Y3811D01*
X217870Y3822D01*
G37*
G36*
X69915Y189877D02*
X69915Y189877D01*
X69981Y189879D01*
X70024Y189897D01*
X70071Y189905D01*
X70128Y189939D01*
X70188Y189964D01*
X70223Y189995D01*
X70264Y190020D01*
X70306Y190071D01*
X70354Y190115D01*
X70376Y190157D01*
X70405Y190194D01*
X70426Y190256D01*
X70457Y190315D01*
X70465Y190369D01*
X70477Y190406D01*
X70476Y190446D01*
X70484Y190500D01*
X70484Y222250D01*
X70473Y222315D01*
X70471Y222381D01*
X70453Y222424D01*
X70445Y222471D01*
X70411Y222528D01*
X70386Y222588D01*
X70355Y222623D01*
X70330Y222664D01*
X70279Y222706D01*
X70235Y222754D01*
X70193Y222776D01*
X70156Y222805D01*
X70094Y222826D01*
X70035Y222857D01*
X69981Y222865D01*
X69944Y222877D01*
X69904Y222876D01*
X69850Y222884D01*
X6350Y222884D01*
X6285Y222873D01*
X6219Y222871D01*
X6176Y222853D01*
X6129Y222845D01*
X6072Y222811D01*
X6012Y222786D01*
X5977Y222755D01*
X5936Y222730D01*
X5895Y222679D01*
X5846Y222635D01*
X5824Y222593D01*
X5795Y222556D01*
X5774Y222494D01*
X5743Y222435D01*
X5735Y222381D01*
X5723Y222344D01*
X5724Y222309D01*
X5723Y222306D01*
X5723Y222298D01*
X5716Y222250D01*
X5716Y190500D01*
X5727Y190435D01*
X5729Y190369D01*
X5747Y190326D01*
X5755Y190279D01*
X5789Y190222D01*
X5814Y190162D01*
X5845Y190127D01*
X5870Y190086D01*
X5921Y190045D01*
X5965Y189996D01*
X6007Y189974D01*
X6044Y189945D01*
X6106Y189924D01*
X6165Y189893D01*
X6219Y189885D01*
X6256Y189873D01*
X6296Y189874D01*
X6350Y189866D01*
X69850Y189866D01*
X69915Y189877D01*
G37*
G36*
X111825Y118757D02*
X111825Y118757D01*
X111891Y118759D01*
X111934Y118777D01*
X111981Y118785D01*
X112038Y118819D01*
X112098Y118844D01*
X112133Y118875D01*
X112174Y118900D01*
X112216Y118951D01*
X112264Y118995D01*
X112286Y119037D01*
X112315Y119074D01*
X112336Y119136D01*
X112367Y119195D01*
X112375Y119249D01*
X112387Y119286D01*
X112386Y119326D01*
X112394Y119380D01*
X112394Y130810D01*
X112383Y130875D01*
X112381Y130941D01*
X112363Y130984D01*
X112355Y131031D01*
X112321Y131088D01*
X112296Y131148D01*
X112265Y131183D01*
X112240Y131224D01*
X112189Y131266D01*
X112145Y131314D01*
X112103Y131336D01*
X112066Y131365D01*
X112004Y131386D01*
X111945Y131417D01*
X111891Y131425D01*
X111854Y131437D01*
X111814Y131436D01*
X111760Y131444D01*
X95884Y131444D01*
X95884Y152400D01*
X95873Y152465D01*
X95871Y152531D01*
X95853Y152574D01*
X95845Y152621D01*
X95811Y152678D01*
X95786Y152738D01*
X95755Y152773D01*
X95730Y152814D01*
X95679Y152856D01*
X95635Y152904D01*
X95593Y152926D01*
X95556Y152955D01*
X95494Y152976D01*
X95435Y153007D01*
X95381Y153015D01*
X95344Y153027D01*
X95304Y153026D01*
X95250Y153034D01*
X60960Y153034D01*
X60895Y153023D01*
X60829Y153021D01*
X60786Y153003D01*
X60739Y152995D01*
X60682Y152961D01*
X60622Y152936D01*
X60587Y152905D01*
X60546Y152880D01*
X60505Y152829D01*
X60456Y152785D01*
X60434Y152743D01*
X60405Y152706D01*
X60384Y152644D01*
X60353Y152585D01*
X60345Y152531D01*
X60333Y152494D01*
X60334Y152458D01*
X60333Y152455D01*
X60333Y152448D01*
X60326Y152400D01*
X60326Y120650D01*
X60337Y120585D01*
X60339Y120519D01*
X60357Y120476D01*
X60365Y120429D01*
X60399Y120372D01*
X60424Y120312D01*
X60455Y120277D01*
X60480Y120236D01*
X60531Y120195D01*
X60575Y120146D01*
X60617Y120124D01*
X60654Y120095D01*
X60716Y120074D01*
X60775Y120043D01*
X60829Y120035D01*
X60866Y120023D01*
X60906Y120024D01*
X60960Y120016D01*
X72085Y120016D01*
X72150Y120027D01*
X72216Y120029D01*
X72259Y120047D01*
X72306Y120055D01*
X72363Y120089D01*
X72423Y120114D01*
X72458Y120145D01*
X72499Y120170D01*
X72541Y120221D01*
X72589Y120265D01*
X72611Y120307D01*
X72640Y120344D01*
X72661Y120406D01*
X72692Y120465D01*
X72700Y120519D01*
X72712Y120556D01*
X72711Y120596D01*
X72719Y120650D01*
X72719Y122486D01*
X73464Y123231D01*
X84016Y123231D01*
X84761Y122486D01*
X84761Y120650D01*
X84772Y120585D01*
X84774Y120519D01*
X84792Y120476D01*
X84800Y120429D01*
X84834Y120372D01*
X84859Y120312D01*
X84890Y120277D01*
X84915Y120236D01*
X84966Y120195D01*
X85010Y120146D01*
X85052Y120124D01*
X85089Y120095D01*
X85151Y120074D01*
X85210Y120043D01*
X85264Y120035D01*
X85301Y120023D01*
X85341Y120024D01*
X85395Y120016D01*
X100966Y120016D01*
X100966Y119380D01*
X100977Y119315D01*
X100979Y119249D01*
X100997Y119206D01*
X101005Y119159D01*
X101039Y119102D01*
X101064Y119042D01*
X101095Y119007D01*
X101120Y118966D01*
X101171Y118925D01*
X101215Y118876D01*
X101257Y118854D01*
X101294Y118825D01*
X101356Y118804D01*
X101415Y118773D01*
X101469Y118765D01*
X101506Y118753D01*
X101546Y118754D01*
X101600Y118746D01*
X111760Y118746D01*
X111825Y118757D01*
G37*
G36*
X157545Y117487D02*
X157545Y117487D01*
X157611Y117489D01*
X157654Y117507D01*
X157701Y117515D01*
X157758Y117549D01*
X157818Y117574D01*
X157853Y117605D01*
X157894Y117630D01*
X157936Y117681D01*
X157984Y117725D01*
X158006Y117767D01*
X158035Y117804D01*
X158056Y117866D01*
X158087Y117925D01*
X158095Y117979D01*
X158107Y118016D01*
X158106Y118056D01*
X158114Y118110D01*
X158114Y130810D01*
X158103Y130875D01*
X158101Y130941D01*
X158083Y130984D01*
X158075Y131031D01*
X158041Y131088D01*
X158016Y131148D01*
X157985Y131183D01*
X157960Y131224D01*
X157909Y131266D01*
X157865Y131314D01*
X157823Y131336D01*
X157786Y131365D01*
X157724Y131386D01*
X157665Y131417D01*
X157611Y131425D01*
X157574Y131437D01*
X157534Y131436D01*
X157480Y131444D01*
X121920Y131444D01*
X121855Y131433D01*
X121789Y131431D01*
X121746Y131413D01*
X121699Y131405D01*
X121642Y131371D01*
X121582Y131346D01*
X121547Y131315D01*
X121506Y131290D01*
X121465Y131239D01*
X121416Y131195D01*
X121394Y131153D01*
X121365Y131116D01*
X121344Y131054D01*
X121313Y130995D01*
X121305Y130941D01*
X121293Y130904D01*
X121293Y130890D01*
X121293Y130889D01*
X121294Y130862D01*
X121286Y130810D01*
X121286Y118110D01*
X121297Y118045D01*
X121299Y117979D01*
X121317Y117936D01*
X121325Y117889D01*
X121359Y117832D01*
X121384Y117772D01*
X121415Y117737D01*
X121440Y117696D01*
X121491Y117655D01*
X121535Y117606D01*
X121577Y117584D01*
X121614Y117555D01*
X121676Y117534D01*
X121735Y117503D01*
X121789Y117495D01*
X121826Y117483D01*
X121866Y117484D01*
X121920Y117476D01*
X157480Y117476D01*
X157545Y117487D01*
G37*
%LPC*%
G36*
X116644Y165059D02*
X116644Y165059D01*
X115899Y165804D01*
X115899Y171449D01*
X115892Y171491D01*
X115894Y171533D01*
X115872Y171600D01*
X115860Y171670D01*
X115838Y171706D01*
X115825Y171747D01*
X115771Y171819D01*
X115745Y171863D01*
X115729Y171876D01*
X115713Y171897D01*
X113029Y174582D01*
X113029Y183188D01*
X115262Y185421D01*
X118418Y185421D01*
X120651Y183188D01*
X120651Y178001D01*
X120660Y177949D01*
X120660Y177896D01*
X120682Y177827D01*
X120690Y177780D01*
X120706Y177755D01*
X120718Y177718D01*
X120718Y177717D01*
X120765Y177655D01*
X120805Y177587D01*
X120831Y177565D01*
X120852Y177538D01*
X120918Y177495D01*
X120979Y177446D01*
X121011Y177435D01*
X121040Y177416D01*
X121117Y177399D01*
X121191Y177374D01*
X121226Y177375D01*
X121259Y177367D01*
X121337Y177378D01*
X121416Y177380D01*
X121447Y177393D01*
X121482Y177398D01*
X121551Y177435D01*
X121623Y177465D01*
X121649Y177488D01*
X121679Y177504D01*
X121731Y177563D01*
X121789Y177616D01*
X121805Y177647D01*
X121828Y177673D01*
X121856Y177746D01*
X121892Y177816D01*
X121897Y177854D01*
X121908Y177882D01*
X121909Y177929D01*
X121919Y178001D01*
X121919Y183188D01*
X124152Y185421D01*
X127308Y185421D01*
X129541Y183188D01*
X129541Y173312D01*
X128127Y171897D01*
X128102Y171863D01*
X128071Y171834D01*
X128039Y171771D01*
X127998Y171713D01*
X127988Y171672D01*
X127968Y171634D01*
X127955Y171545D01*
X127942Y171496D01*
X127945Y171475D01*
X127941Y171449D01*
X127941Y165804D01*
X127196Y165059D01*
X116644Y165059D01*
G37*
%LPD*%
%LPC*%
G36*
X121612Y10159D02*
X121612Y10159D01*
X119379Y12392D01*
X119379Y22268D01*
X120793Y23683D01*
X120818Y23717D01*
X120849Y23746D01*
X120881Y23809D01*
X120922Y23867D01*
X120932Y23908D01*
X120952Y23946D01*
X120965Y24035D01*
X120978Y24084D01*
X120975Y24105D01*
X120979Y24131D01*
X120979Y29776D01*
X121724Y30521D01*
X132276Y30521D01*
X133021Y29776D01*
X133021Y24131D01*
X133028Y24089D01*
X133026Y24047D01*
X133048Y23980D01*
X133060Y23910D01*
X133082Y23874D01*
X133095Y23833D01*
X133143Y23769D01*
X133143Y23768D01*
X133144Y23768D01*
X133149Y23760D01*
X133175Y23717D01*
X133191Y23704D01*
X133207Y23683D01*
X135891Y20998D01*
X135891Y12392D01*
X133658Y10159D01*
X130502Y10159D01*
X128269Y12392D01*
X128269Y17579D01*
X128260Y17631D01*
X128260Y17684D01*
X128238Y17753D01*
X128230Y17800D01*
X128214Y17825D01*
X128202Y17862D01*
X128202Y17863D01*
X128155Y17925D01*
X128115Y17993D01*
X128089Y18015D01*
X128068Y18042D01*
X128002Y18085D01*
X127941Y18134D01*
X127909Y18145D01*
X127880Y18164D01*
X127803Y18181D01*
X127729Y18206D01*
X127694Y18205D01*
X127661Y18213D01*
X127583Y18202D01*
X127504Y18200D01*
X127473Y18187D01*
X127438Y18182D01*
X127369Y18145D01*
X127297Y18115D01*
X127271Y18092D01*
X127241Y18076D01*
X127189Y18017D01*
X127131Y17964D01*
X127115Y17933D01*
X127092Y17907D01*
X127064Y17834D01*
X127028Y17764D01*
X127023Y17726D01*
X127012Y17698D01*
X127011Y17651D01*
X127001Y17579D01*
X127001Y12392D01*
X124768Y10159D01*
X121612Y10159D01*
G37*
%LPD*%
G36*
X92940Y104366D02*
X92940Y104366D01*
X93006Y104368D01*
X93049Y104386D01*
X93096Y104394D01*
X93153Y104428D01*
X93213Y104453D01*
X93248Y104484D01*
X93289Y104509D01*
X93331Y104560D01*
X93379Y104604D01*
X93401Y104646D01*
X93430Y104683D01*
X93451Y104745D01*
X93482Y104804D01*
X93490Y104858D01*
X93502Y104895D01*
X93501Y104935D01*
X93509Y104989D01*
X93509Y108586D01*
X94254Y109331D01*
X103333Y109331D01*
X103357Y109319D01*
X103415Y109278D01*
X103456Y109268D01*
X103494Y109248D01*
X103583Y109235D01*
X103632Y109222D01*
X103653Y109225D01*
X103679Y109221D01*
X107125Y109221D01*
X107190Y109232D01*
X107256Y109234D01*
X107299Y109252D01*
X107346Y109260D01*
X107403Y109294D01*
X107463Y109319D01*
X107498Y109350D01*
X107539Y109375D01*
X107581Y109426D01*
X107629Y109470D01*
X107651Y109512D01*
X107680Y109549D01*
X107701Y109611D01*
X107732Y109670D01*
X107740Y109724D01*
X107752Y109761D01*
X107751Y109801D01*
X107759Y109855D01*
X107759Y111866D01*
X107752Y111908D01*
X107754Y111950D01*
X107735Y112007D01*
X107735Y116840D01*
X107724Y116905D01*
X107722Y116971D01*
X107704Y117014D01*
X107696Y117061D01*
X107662Y117118D01*
X107637Y117178D01*
X107606Y117213D01*
X107581Y117254D01*
X107530Y117296D01*
X107486Y117344D01*
X107444Y117366D01*
X107407Y117395D01*
X107345Y117416D01*
X107286Y117447D01*
X107232Y117455D01*
X107195Y117467D01*
X107155Y117466D01*
X107101Y117474D01*
X100811Y117474D01*
X99726Y118558D01*
X99692Y118583D01*
X99663Y118614D01*
X99600Y118646D01*
X99542Y118687D01*
X99501Y118697D01*
X99463Y118717D01*
X99374Y118730D01*
X99325Y118743D01*
X99304Y118740D01*
X99278Y118744D01*
X85395Y118744D01*
X85330Y118733D01*
X85264Y118731D01*
X85221Y118713D01*
X85174Y118705D01*
X85117Y118671D01*
X85057Y118646D01*
X85022Y118615D01*
X84981Y118590D01*
X84939Y118539D01*
X84891Y118495D01*
X84869Y118453D01*
X84840Y118416D01*
X84819Y118354D01*
X84788Y118295D01*
X84780Y118241D01*
X84768Y118204D01*
X84769Y118164D01*
X84761Y118110D01*
X84761Y111934D01*
X84016Y111189D01*
X81977Y111189D01*
X81912Y111178D01*
X81846Y111176D01*
X81803Y111158D01*
X81756Y111150D01*
X81699Y111116D01*
X81638Y111091D01*
X81603Y111060D01*
X81563Y111035D01*
X81521Y110984D01*
X81473Y110940D01*
X81451Y110898D01*
X81421Y110861D01*
X81400Y110799D01*
X81370Y110740D01*
X81362Y110686D01*
X81349Y110649D01*
X81351Y110609D01*
X81343Y110555D01*
X81343Y108255D01*
X81354Y108190D01*
X81356Y108124D01*
X81374Y108081D01*
X81382Y108034D01*
X81416Y107977D01*
X81440Y107917D01*
X81472Y107882D01*
X81496Y107841D01*
X81547Y107799D01*
X81592Y107751D01*
X81634Y107729D01*
X81671Y107700D01*
X81733Y107679D01*
X81791Y107648D01*
X81846Y107640D01*
X81883Y107628D01*
X81922Y107629D01*
X81977Y107621D01*
X83646Y107621D01*
X84391Y106876D01*
X84391Y104989D01*
X84402Y104924D01*
X84404Y104858D01*
X84422Y104815D01*
X84430Y104768D01*
X84464Y104711D01*
X84489Y104651D01*
X84520Y104616D01*
X84545Y104575D01*
X84596Y104533D01*
X84640Y104485D01*
X84682Y104463D01*
X84719Y104434D01*
X84781Y104413D01*
X84840Y104382D01*
X84894Y104374D01*
X84931Y104362D01*
X84971Y104363D01*
X85025Y104355D01*
X92875Y104355D01*
X92940Y104366D01*
G37*
%LPC*%
G36*
X137752Y50799D02*
X137752Y50799D01*
X137607Y50943D01*
X137573Y50968D01*
X137544Y50999D01*
X137481Y51031D01*
X137423Y51072D01*
X137382Y51082D01*
X137344Y51102D01*
X137255Y51115D01*
X137206Y51128D01*
X137185Y51125D01*
X137159Y51129D01*
X131514Y51129D01*
X130769Y51874D01*
X130769Y62426D01*
X131514Y63171D01*
X137159Y63171D01*
X137201Y63178D01*
X137243Y63176D01*
X137310Y63198D01*
X137380Y63210D01*
X137416Y63232D01*
X137457Y63245D01*
X137529Y63299D01*
X137573Y63325D01*
X137586Y63341D01*
X137607Y63357D01*
X139022Y64771D01*
X148898Y64771D01*
X151131Y62538D01*
X151131Y59382D01*
X149983Y58234D01*
X149945Y58179D01*
X149900Y58132D01*
X149882Y58088D01*
X149855Y58049D01*
X149838Y57986D01*
X149813Y57925D01*
X149810Y57878D01*
X149799Y57832D01*
X149805Y57767D01*
X149803Y57701D01*
X149817Y57656D01*
X149822Y57609D01*
X149851Y57550D01*
X149871Y57487D01*
X149904Y57443D01*
X149921Y57408D01*
X149950Y57381D01*
X149983Y57337D01*
X151131Y56188D01*
X151131Y53032D01*
X148898Y50799D01*
X137752Y50799D01*
G37*
%LPD*%
G36*
X107143Y68575D02*
X107143Y68575D01*
X107232Y68578D01*
X107254Y68587D01*
X107277Y68589D01*
X107357Y68628D01*
X107439Y68662D01*
X107457Y68678D01*
X107478Y68688D01*
X107539Y68753D01*
X107605Y68813D01*
X107616Y68834D01*
X107632Y68852D01*
X107667Y68934D01*
X107708Y69013D01*
X107711Y69039D01*
X107720Y69058D01*
X107722Y69109D01*
X107735Y69198D01*
X107735Y86094D01*
X107742Y86139D01*
X107752Y86170D01*
X107752Y86185D01*
X107758Y86207D01*
X107755Y86228D01*
X107759Y86254D01*
X107759Y88265D01*
X107748Y88330D01*
X107746Y88396D01*
X107728Y88439D01*
X107720Y88486D01*
X107686Y88543D01*
X107661Y88603D01*
X107630Y88638D01*
X107605Y88679D01*
X107554Y88721D01*
X107510Y88769D01*
X107468Y88791D01*
X107431Y88820D01*
X107369Y88841D01*
X107310Y88872D01*
X107256Y88880D01*
X107219Y88892D01*
X107179Y88891D01*
X107125Y88899D01*
X103679Y88899D01*
X103637Y88892D01*
X103595Y88894D01*
X103528Y88872D01*
X103458Y88860D01*
X103422Y88838D01*
X103381Y88825D01*
X103333Y88789D01*
X94254Y88789D01*
X94209Y88833D01*
X94175Y88858D01*
X94146Y88889D01*
X94083Y88921D01*
X94025Y88962D01*
X93984Y88972D01*
X93946Y88992D01*
X93857Y89005D01*
X93808Y89018D01*
X93787Y89015D01*
X93761Y89019D01*
X92875Y89019D01*
X92833Y89012D01*
X92791Y89014D01*
X92724Y88992D01*
X92654Y88980D01*
X92618Y88958D01*
X92577Y88945D01*
X92505Y88891D01*
X92461Y88865D01*
X92448Y88849D01*
X92427Y88833D01*
X91627Y88033D01*
X91602Y87999D01*
X91571Y87970D01*
X91539Y87907D01*
X91498Y87849D01*
X91488Y87808D01*
X91468Y87770D01*
X91455Y87681D01*
X91442Y87632D01*
X91445Y87611D01*
X91441Y87585D01*
X91441Y76905D01*
X91452Y76840D01*
X91454Y76774D01*
X91472Y76731D01*
X91480Y76684D01*
X91514Y76627D01*
X91539Y76567D01*
X91570Y76532D01*
X91595Y76491D01*
X91646Y76449D01*
X91690Y76401D01*
X91732Y76379D01*
X91769Y76350D01*
X91831Y76329D01*
X91890Y76298D01*
X91944Y76290D01*
X91981Y76278D01*
X92021Y76279D01*
X92075Y76271D01*
X93426Y76271D01*
X94171Y75526D01*
X94171Y74429D01*
X94182Y74364D01*
X94184Y74298D01*
X94202Y74255D01*
X94210Y74208D01*
X94244Y74151D01*
X94269Y74091D01*
X94300Y74056D01*
X94325Y74015D01*
X94376Y73973D01*
X94420Y73925D01*
X94462Y73903D01*
X94499Y73874D01*
X94561Y73853D01*
X94620Y73822D01*
X94674Y73814D01*
X94711Y73802D01*
X94751Y73803D01*
X94805Y73795D01*
X99205Y73795D01*
X99229Y73783D01*
X99287Y73742D01*
X99328Y73732D01*
X99365Y73712D01*
X99455Y73699D01*
X99504Y73686D01*
X99525Y73689D01*
X99551Y73685D01*
X101718Y73685D01*
X106653Y68750D01*
X106726Y68699D01*
X106795Y68643D01*
X106817Y68635D01*
X106837Y68622D01*
X106923Y68600D01*
X107007Y68571D01*
X107031Y68572D01*
X107054Y68566D01*
X107143Y68575D01*
G37*
%LPC*%
G36*
X67474Y55659D02*
X67474Y55659D01*
X66729Y56404D01*
X66729Y71456D01*
X67474Y72201D01*
X78526Y72201D01*
X79271Y71456D01*
X79271Y56404D01*
X78526Y55659D01*
X67474Y55659D01*
G37*
%LPD*%
G36*
X38131Y96523D02*
X38131Y96523D01*
X38132Y96523D01*
X38210Y96546D01*
X45576Y100102D01*
X45598Y100122D01*
X45626Y100134D01*
X45650Y100168D01*
X45681Y100196D01*
X45689Y100225D01*
X45706Y100250D01*
X45719Y100330D01*
X45719Y102870D01*
X45717Y102879D01*
X45717Y102883D01*
X45712Y102896D01*
X45711Y102899D01*
X45712Y102929D01*
X45692Y102965D01*
X45680Y103005D01*
X45658Y103025D01*
X45643Y103052D01*
X45576Y103098D01*
X45575Y103099D01*
X38210Y106654D01*
X38209Y106654D01*
X38209Y106655D01*
X38138Y106666D01*
X38071Y106678D01*
X38070Y106677D01*
X38069Y106677D01*
X38004Y106649D01*
X37941Y106623D01*
X37940Y106622D01*
X37901Y106566D01*
X37860Y106508D01*
X37860Y106507D01*
X37860Y106506D01*
X37847Y106426D01*
X37847Y96774D01*
X37847Y96773D01*
X37847Y96772D01*
X37867Y96704D01*
X37886Y96639D01*
X37887Y96638D01*
X37887Y96637D01*
X37939Y96592D01*
X37991Y96545D01*
X37992Y96545D01*
X37993Y96544D01*
X38061Y96534D01*
X38131Y96523D01*
X38131Y96523D01*
G37*
%LPC*%
G36*
X45846Y91008D02*
X45846Y91008D01*
X45849Y91004D01*
X45853Y90998D01*
X45849Y90950D01*
X45851Y90930D01*
X45848Y90906D01*
X45848Y85037D01*
X45846Y85036D01*
X45846Y91008D01*
G37*
%LPD*%
%LPC*%
G36*
X45846Y118164D02*
X45846Y118164D01*
X45848Y118163D01*
X45848Y112291D01*
X45851Y112274D01*
X45849Y112253D01*
X45851Y112211D01*
X45851Y112210D01*
X45846Y112201D01*
X45846Y118164D01*
G37*
%LPD*%
D10*
X50800Y206000D03*
X50800Y175000D03*
D11*
X146050Y125850D03*
X146050Y140850D03*
D12*
X109220Y127080D03*
X109220Y137080D03*
X124460Y127080D03*
X124460Y137080D03*
D13*
X54000Y63930D03*
X73000Y63930D03*
X63500Y85930D03*
D14*
X98780Y101560D03*
X98780Y106560D03*
X98780Y96560D03*
X98780Y91560D03*
X127280Y101560D03*
X127280Y106560D03*
X127280Y96560D03*
X127280Y91560D03*
D15*
X110530Y113310D03*
X105530Y113310D03*
X115530Y113310D03*
X120530Y113310D03*
X110530Y84810D03*
X105530Y84810D03*
X115530Y84810D03*
X120530Y84810D03*
D16*
X113030Y99060D03*
D17*
X204724Y89408D03*
X204724Y113792D03*
X182626Y113792D03*
X182626Y89408D03*
D18*
X194310Y101600D03*
D19*
X193675Y109982D03*
X193675Y93218D03*
X217043Y109982D03*
X217043Y93218D03*
X170307Y93218D03*
X170307Y109982D03*
D20*
X194564Y79756D03*
X194564Y123444D03*
D21*
X22860Y68580D03*
X22860Y134620D03*
D22*
X19050Y101600D03*
D23*
X11430Y118110D03*
X11430Y85090D03*
X36830Y118110D03*
X36830Y85090D03*
X11430Y62230D03*
X36830Y62230D03*
X11430Y140970D03*
X36830Y140970D03*
X24130Y140970D03*
X24130Y62230D03*
X24130Y85090D03*
X24130Y118110D03*
D24*
X41910Y113030D03*
X41910Y90170D03*
X41910Y101600D03*
D25*
X19050Y203200D03*
X19050Y177800D03*
D26*
X121920Y156580D03*
X121920Y171080D03*
D12*
X146050Y87550D03*
X146050Y77550D03*
D26*
X122290Y57150D03*
X136790Y57150D03*
X63870Y101600D03*
X78370Y101600D03*
X78740Y117210D03*
X78740Y131710D03*
X127000Y39000D03*
X127000Y24500D03*
X107950Y24500D03*
X107950Y39000D03*
D11*
X88900Y71000D03*
X88900Y56000D03*
D23*
X127000Y113030D03*
X99060Y114300D03*
X100330Y76200D03*
X119380Y76200D03*
X127000Y85090D03*
X92710Y114300D03*
X134620Y111760D03*
X134620Y85090D03*
X97790Y85090D03*
X57150Y74930D03*
X50800Y74930D03*
X49530Y52070D03*
X57150Y52070D03*
X85090Y46990D03*
X92710Y46990D03*
X102870Y13970D03*
X111760Y13970D03*
X111760Y146050D03*
X105410Y146050D03*
X121920Y146050D03*
X128270Y146050D03*
X127000Y77470D03*
X142240Y149860D03*
X149860Y149860D03*
X138430Y77470D03*
X153670Y77470D03*
X142240Y69850D03*
X148590Y69850D03*
X157480Y91440D03*
X157480Y111760D03*
X144780Y111760D03*
X101600Y137160D03*
X132080Y137160D03*
X50800Y184150D03*
X58420Y184150D03*
X43180Y184150D03*
X41910Y163830D03*
X50800Y163830D03*
X59690Y163830D03*
X50800Y109220D03*
X50800Y93980D03*
D27*
X209550Y215900D03*
X209550Y190500D03*
X209550Y165100D03*
X184150Y215900D03*
X158750Y215900D03*
X133350Y215900D03*
X107950Y215900D03*
X82550Y215900D03*
X209550Y12700D03*
X209550Y44450D03*
X12700Y12700D03*
X12700Y44450D03*
X38100Y12700D03*
X63500Y12700D03*
X88900Y12700D03*
X184150Y12700D03*
X158750Y12700D03*
X139700Y171450D03*
X107950Y171450D03*
X12700Y158750D03*
D23*
X125730Y181610D03*
X133350Y127000D03*
X101600Y127000D03*
X93980Y127000D03*
X133350Y120650D03*
X123190Y13970D03*
X132080Y13970D03*
D28*
X123190Y13970D02*
X123190Y20690D01*
X127000Y24500D01*
X132080Y19420D02*
X132080Y13970D01*
X132080Y19420D02*
X127000Y24500D01*
D29*
X110530Y113310D02*
X110530Y125770D01*
X109220Y127080D01*
X120530Y123150D02*
X120530Y113310D01*
X120530Y123150D02*
X124460Y127080D01*
D23*
X147320Y60960D03*
X147320Y54610D03*
D28*
X147320Y60960D02*
X140600Y60960D01*
X136790Y57150D01*
X139330Y54610D02*
X147320Y54610D01*
X139330Y54610D02*
X136790Y57150D01*
D23*
X154940Y127000D03*
X154940Y120650D03*
X116840Y181610D03*
D28*
X116840Y176160D02*
X121920Y171080D01*
X116840Y176160D02*
X116840Y181610D01*
X125730Y174890D02*
X121920Y171080D01*
X125730Y174890D02*
X125730Y181610D01*
D23*
X82550Y142240D03*
X73660Y142240D03*
X68580Y132080D03*
X50800Y196850D03*
X58420Y196850D03*
X43180Y196850D03*
X43180Y217170D03*
X50800Y217170D03*
X58420Y217170D03*
D30*
X115530Y125690D02*
X115530Y113310D01*
X115530Y125690D02*
X116840Y127000D01*
X116840Y151500D02*
X121920Y156580D01*
X116840Y151500D02*
X116840Y127000D01*
D31*
X127280Y96560D02*
X137040Y96560D01*
X146050Y87550D01*
D30*
X98780Y91560D02*
X98780Y96560D01*
X98780Y91560D02*
X91560Y91560D01*
X88900Y88900D01*
X88900Y71000D01*
D29*
X107950Y63500D02*
X107950Y39000D01*
X100560Y70890D02*
X98131Y70890D01*
X98021Y71000D01*
X88900Y71000D01*
X100560Y70890D02*
X107950Y63500D01*
X107950Y39000D02*
X127000Y39000D01*
X98780Y101560D02*
X78410Y101560D01*
X78370Y101600D01*
D31*
X78370Y116840D01*
X78740Y117210D01*
D30*
X98780Y106560D02*
X98780Y101560D01*
D29*
X110530Y84810D02*
X110530Y68910D01*
X122290Y57150D01*
D31*
X165542Y101600D02*
X194310Y101600D01*
X165542Y101600D02*
X165502Y101560D01*
X127280Y101560D01*
X63870Y101600D02*
X19050Y101600D01*
X63500Y101230D02*
X63870Y101600D01*
X63500Y101230D02*
X63500Y85930D01*
M02*
