G04 EAGLE Gerber RS-274X export*
G75*
%MOMM*%
%FSLAX34Y34*%
%LPD*%
%INTop Solder Mask*%
%IPPOS*%
%AMOC8*
5,1,8,0,0,1.08239X$1,22.5*%
G01*
%ADD10R,5.842000X1.168400*%
%ADD11R,6.477000X2.667000*%
%ADD12C,0.731000*%
%ADD13R,1.077000X1.077000*%
%ADD14C,1.651000*%
%ADD15P,2.226909X8X292.500000*%
%ADD16R,1.627000X0.677000*%
%ADD17R,0.927000X0.927000*%
%ADD18R,1.027000X1.427000*%
%ADD19P,2.226909X8X202.500000*%
%ADD20C,1.027000*%

G36*
X393758Y353323D02*
X393758Y353323D01*
X393816Y353321D01*
X393898Y353343D01*
X393982Y353355D01*
X394035Y353379D01*
X394091Y353393D01*
X394164Y353436D01*
X394241Y353471D01*
X394286Y353509D01*
X394336Y353539D01*
X394394Y353600D01*
X394458Y353655D01*
X394490Y353703D01*
X394530Y353746D01*
X394569Y353821D01*
X394616Y353891D01*
X394633Y353947D01*
X394660Y353999D01*
X394671Y354067D01*
X394701Y354162D01*
X394704Y354262D01*
X394715Y354330D01*
X394715Y400050D01*
X394708Y400103D01*
X394709Y400133D01*
X394708Y400136D01*
X394709Y400166D01*
X394687Y400248D01*
X394675Y400332D01*
X394652Y400385D01*
X394637Y400441D01*
X394594Y400514D01*
X394559Y400591D01*
X394521Y400636D01*
X394492Y400686D01*
X394430Y400744D01*
X394376Y400808D01*
X394327Y400840D01*
X394284Y400880D01*
X394209Y400919D01*
X394139Y400966D01*
X394083Y400983D01*
X394031Y401010D01*
X393963Y401021D01*
X393868Y401051D01*
X393768Y401054D01*
X393700Y401065D01*
X330200Y401065D01*
X330142Y401057D01*
X330084Y401059D01*
X330002Y401037D01*
X329919Y401025D01*
X329865Y401002D01*
X329809Y400987D01*
X329736Y400944D01*
X329659Y400909D01*
X329614Y400871D01*
X329564Y400842D01*
X329506Y400780D01*
X329442Y400726D01*
X329410Y400677D01*
X329370Y400634D01*
X329331Y400559D01*
X329285Y400489D01*
X329267Y400433D01*
X329240Y400381D01*
X329229Y400313D01*
X329199Y400218D01*
X329196Y400118D01*
X329185Y400050D01*
X329185Y354330D01*
X329193Y354272D01*
X329191Y354214D01*
X329213Y354132D01*
X329225Y354049D01*
X329249Y353995D01*
X329263Y353939D01*
X329306Y353866D01*
X329341Y353789D01*
X329379Y353744D01*
X329409Y353694D01*
X329470Y353636D01*
X329525Y353572D01*
X329573Y353540D01*
X329616Y353500D01*
X329691Y353461D01*
X329761Y353415D01*
X329817Y353397D01*
X329869Y353370D01*
X329937Y353359D01*
X330032Y353329D01*
X330132Y353326D01*
X330200Y353315D01*
X393700Y353315D01*
X393758Y353323D01*
G37*
G36*
X63558Y353323D02*
X63558Y353323D01*
X63616Y353321D01*
X63698Y353343D01*
X63782Y353355D01*
X63835Y353379D01*
X63891Y353393D01*
X63964Y353436D01*
X64041Y353471D01*
X64086Y353509D01*
X64136Y353539D01*
X64194Y353600D01*
X64258Y353655D01*
X64290Y353703D01*
X64330Y353746D01*
X64369Y353821D01*
X64416Y353891D01*
X64433Y353947D01*
X64460Y353999D01*
X64471Y354067D01*
X64501Y354162D01*
X64504Y354262D01*
X64515Y354330D01*
X64515Y400050D01*
X64508Y400103D01*
X64509Y400133D01*
X64508Y400136D01*
X64509Y400166D01*
X64487Y400248D01*
X64475Y400332D01*
X64452Y400385D01*
X64437Y400441D01*
X64394Y400514D01*
X64359Y400591D01*
X64321Y400636D01*
X64292Y400686D01*
X64230Y400744D01*
X64176Y400808D01*
X64127Y400840D01*
X64084Y400880D01*
X64009Y400919D01*
X63939Y400966D01*
X63883Y400983D01*
X63831Y401010D01*
X63763Y401021D01*
X63668Y401051D01*
X63568Y401054D01*
X63500Y401065D01*
X0Y401065D01*
X-58Y401057D01*
X-116Y401059D01*
X-198Y401037D01*
X-282Y401025D01*
X-335Y401002D01*
X-391Y400987D01*
X-464Y400944D01*
X-541Y400909D01*
X-586Y400871D01*
X-636Y400842D01*
X-694Y400780D01*
X-758Y400726D01*
X-790Y400677D01*
X-830Y400634D01*
X-869Y400559D01*
X-916Y400489D01*
X-933Y400433D01*
X-960Y400381D01*
X-971Y400313D01*
X-1001Y400218D01*
X-1004Y400118D01*
X-1015Y400050D01*
X-1015Y354330D01*
X-1007Y354272D01*
X-1009Y354214D01*
X-987Y354132D01*
X-975Y354049D01*
X-952Y353995D01*
X-937Y353939D01*
X-894Y353866D01*
X-859Y353789D01*
X-821Y353744D01*
X-792Y353694D01*
X-730Y353636D01*
X-676Y353572D01*
X-627Y353540D01*
X-584Y353500D01*
X-509Y353461D01*
X-439Y353415D01*
X-383Y353397D01*
X-331Y353370D01*
X-263Y353359D01*
X-168Y353329D01*
X-68Y353326D01*
X0Y353315D01*
X63500Y353315D01*
X63558Y353323D01*
G37*
G36*
X393758Y259343D02*
X393758Y259343D01*
X393816Y259341D01*
X393898Y259363D01*
X393982Y259375D01*
X394035Y259399D01*
X394091Y259413D01*
X394164Y259456D01*
X394241Y259491D01*
X394286Y259529D01*
X394336Y259559D01*
X394394Y259620D01*
X394458Y259675D01*
X394490Y259723D01*
X394530Y259766D01*
X394569Y259841D01*
X394616Y259911D01*
X394633Y259967D01*
X394660Y260019D01*
X394671Y260087D01*
X394701Y260182D01*
X394704Y260282D01*
X394715Y260350D01*
X394715Y306070D01*
X394708Y306123D01*
X394709Y306153D01*
X394708Y306156D01*
X394709Y306186D01*
X394687Y306268D01*
X394675Y306352D01*
X394652Y306405D01*
X394637Y306461D01*
X394594Y306534D01*
X394559Y306611D01*
X394521Y306656D01*
X394492Y306706D01*
X394430Y306764D01*
X394376Y306828D01*
X394327Y306860D01*
X394284Y306900D01*
X394209Y306939D01*
X394139Y306986D01*
X394083Y307003D01*
X394031Y307030D01*
X393963Y307041D01*
X393868Y307071D01*
X393768Y307074D01*
X393700Y307085D01*
X330200Y307085D01*
X330142Y307077D01*
X330084Y307079D01*
X330002Y307057D01*
X329919Y307045D01*
X329865Y307022D01*
X329809Y307007D01*
X329736Y306964D01*
X329659Y306929D01*
X329614Y306891D01*
X329564Y306862D01*
X329506Y306800D01*
X329442Y306746D01*
X329410Y306697D01*
X329370Y306654D01*
X329331Y306579D01*
X329285Y306509D01*
X329267Y306453D01*
X329240Y306401D01*
X329229Y306333D01*
X329199Y306238D01*
X329196Y306138D01*
X329185Y306070D01*
X329185Y260350D01*
X329193Y260292D01*
X329191Y260234D01*
X329213Y260152D01*
X329225Y260069D01*
X329249Y260015D01*
X329263Y259959D01*
X329306Y259886D01*
X329341Y259809D01*
X329379Y259764D01*
X329409Y259714D01*
X329470Y259656D01*
X329525Y259592D01*
X329573Y259560D01*
X329616Y259520D01*
X329691Y259481D01*
X329761Y259435D01*
X329817Y259417D01*
X329869Y259390D01*
X329937Y259379D01*
X330032Y259349D01*
X330132Y259346D01*
X330200Y259335D01*
X393700Y259335D01*
X393758Y259343D01*
G37*
G36*
X63558Y259343D02*
X63558Y259343D01*
X63616Y259341D01*
X63698Y259363D01*
X63782Y259375D01*
X63835Y259399D01*
X63891Y259413D01*
X63964Y259456D01*
X64041Y259491D01*
X64086Y259529D01*
X64136Y259559D01*
X64194Y259620D01*
X64258Y259675D01*
X64290Y259723D01*
X64330Y259766D01*
X64369Y259841D01*
X64416Y259911D01*
X64433Y259967D01*
X64460Y260019D01*
X64471Y260087D01*
X64501Y260182D01*
X64504Y260282D01*
X64515Y260350D01*
X64515Y306070D01*
X64508Y306123D01*
X64509Y306153D01*
X64508Y306156D01*
X64509Y306186D01*
X64487Y306268D01*
X64475Y306352D01*
X64452Y306405D01*
X64437Y306461D01*
X64394Y306534D01*
X64359Y306611D01*
X64321Y306656D01*
X64292Y306706D01*
X64230Y306764D01*
X64176Y306828D01*
X64127Y306860D01*
X64084Y306900D01*
X64009Y306939D01*
X63939Y306986D01*
X63883Y307003D01*
X63831Y307030D01*
X63763Y307041D01*
X63668Y307071D01*
X63568Y307074D01*
X63500Y307085D01*
X0Y307085D01*
X-58Y307077D01*
X-116Y307079D01*
X-198Y307057D01*
X-282Y307045D01*
X-335Y307022D01*
X-391Y307007D01*
X-464Y306964D01*
X-541Y306929D01*
X-586Y306891D01*
X-636Y306862D01*
X-694Y306800D01*
X-758Y306746D01*
X-790Y306697D01*
X-830Y306654D01*
X-869Y306579D01*
X-916Y306509D01*
X-933Y306453D01*
X-960Y306401D01*
X-971Y306333D01*
X-1001Y306238D01*
X-1004Y306138D01*
X-1015Y306070D01*
X-1015Y260350D01*
X-1007Y260292D01*
X-1009Y260234D01*
X-987Y260152D01*
X-975Y260069D01*
X-952Y260015D01*
X-937Y259959D01*
X-894Y259886D01*
X-859Y259809D01*
X-821Y259764D01*
X-792Y259714D01*
X-730Y259656D01*
X-676Y259592D01*
X-627Y259560D01*
X-584Y259520D01*
X-509Y259481D01*
X-439Y259435D01*
X-383Y259417D01*
X-331Y259390D01*
X-263Y259379D01*
X-168Y259349D01*
X-68Y259346D01*
X0Y259335D01*
X63500Y259335D01*
X63558Y259343D01*
G37*
G36*
X393758Y181873D02*
X393758Y181873D01*
X393816Y181871D01*
X393898Y181893D01*
X393982Y181905D01*
X394035Y181929D01*
X394091Y181943D01*
X394164Y181986D01*
X394241Y182021D01*
X394286Y182059D01*
X394336Y182089D01*
X394394Y182150D01*
X394458Y182205D01*
X394490Y182253D01*
X394530Y182296D01*
X394569Y182371D01*
X394616Y182441D01*
X394633Y182497D01*
X394660Y182549D01*
X394671Y182617D01*
X394701Y182712D01*
X394704Y182812D01*
X394715Y182880D01*
X394715Y228600D01*
X394708Y228653D01*
X394709Y228683D01*
X394708Y228686D01*
X394709Y228716D01*
X394687Y228798D01*
X394675Y228882D01*
X394652Y228935D01*
X394637Y228991D01*
X394594Y229064D01*
X394559Y229141D01*
X394521Y229186D01*
X394492Y229236D01*
X394430Y229294D01*
X394376Y229358D01*
X394327Y229390D01*
X394284Y229430D01*
X394209Y229469D01*
X394139Y229516D01*
X394083Y229533D01*
X394031Y229560D01*
X393963Y229571D01*
X393868Y229601D01*
X393768Y229604D01*
X393700Y229615D01*
X330200Y229615D01*
X330142Y229607D01*
X330084Y229609D01*
X330002Y229587D01*
X329919Y229575D01*
X329865Y229552D01*
X329809Y229537D01*
X329736Y229494D01*
X329659Y229459D01*
X329614Y229421D01*
X329564Y229392D01*
X329506Y229330D01*
X329442Y229276D01*
X329410Y229227D01*
X329370Y229184D01*
X329331Y229109D01*
X329285Y229039D01*
X329267Y228983D01*
X329240Y228931D01*
X329229Y228863D01*
X329199Y228768D01*
X329196Y228668D01*
X329185Y228600D01*
X329185Y182880D01*
X329193Y182822D01*
X329191Y182764D01*
X329213Y182682D01*
X329225Y182599D01*
X329249Y182545D01*
X329263Y182489D01*
X329306Y182416D01*
X329341Y182339D01*
X329379Y182294D01*
X329409Y182244D01*
X329470Y182186D01*
X329525Y182122D01*
X329573Y182090D01*
X329616Y182050D01*
X329691Y182011D01*
X329761Y181965D01*
X329817Y181947D01*
X329869Y181920D01*
X329937Y181909D01*
X330032Y181879D01*
X330132Y181876D01*
X330200Y181865D01*
X393700Y181865D01*
X393758Y181873D01*
G37*
G36*
X393758Y87893D02*
X393758Y87893D01*
X393816Y87891D01*
X393898Y87913D01*
X393982Y87925D01*
X394035Y87949D01*
X394091Y87963D01*
X394164Y88006D01*
X394241Y88041D01*
X394286Y88079D01*
X394336Y88109D01*
X394394Y88170D01*
X394458Y88225D01*
X394490Y88273D01*
X394530Y88316D01*
X394569Y88391D01*
X394616Y88461D01*
X394633Y88517D01*
X394660Y88569D01*
X394671Y88637D01*
X394701Y88732D01*
X394704Y88832D01*
X394715Y88900D01*
X394715Y134620D01*
X394708Y134673D01*
X394709Y134703D01*
X394708Y134706D01*
X394709Y134736D01*
X394687Y134818D01*
X394675Y134902D01*
X394652Y134955D01*
X394637Y135011D01*
X394594Y135084D01*
X394559Y135161D01*
X394521Y135206D01*
X394492Y135256D01*
X394430Y135314D01*
X394376Y135378D01*
X394327Y135410D01*
X394284Y135450D01*
X394209Y135489D01*
X394139Y135536D01*
X394083Y135553D01*
X394031Y135580D01*
X393963Y135591D01*
X393868Y135621D01*
X393768Y135624D01*
X393700Y135635D01*
X330200Y135635D01*
X330142Y135627D01*
X330084Y135629D01*
X330002Y135607D01*
X329919Y135595D01*
X329865Y135572D01*
X329809Y135557D01*
X329736Y135514D01*
X329659Y135479D01*
X329614Y135441D01*
X329564Y135412D01*
X329506Y135350D01*
X329442Y135296D01*
X329410Y135247D01*
X329370Y135204D01*
X329331Y135129D01*
X329285Y135059D01*
X329267Y135003D01*
X329240Y134951D01*
X329229Y134883D01*
X329199Y134788D01*
X329196Y134688D01*
X329185Y134620D01*
X329185Y88900D01*
X329193Y88842D01*
X329191Y88784D01*
X329213Y88702D01*
X329225Y88619D01*
X329249Y88565D01*
X329263Y88509D01*
X329306Y88436D01*
X329341Y88359D01*
X329379Y88314D01*
X329409Y88264D01*
X329470Y88206D01*
X329525Y88142D01*
X329573Y88110D01*
X329616Y88070D01*
X329691Y88031D01*
X329761Y87985D01*
X329817Y87967D01*
X329869Y87940D01*
X329937Y87929D01*
X330032Y87899D01*
X330132Y87896D01*
X330200Y87885D01*
X393700Y87885D01*
X393758Y87893D01*
G37*
D10*
X28750Y330200D03*
D11*
X31750Y371475D03*
X31750Y288925D03*
D12*
X50800Y266700D03*
X31750Y266700D03*
X12700Y266700D03*
X50800Y393700D03*
X31750Y393700D03*
X12700Y393700D03*
D10*
X364950Y330200D03*
D11*
X361950Y288925D03*
X361950Y371475D03*
D12*
X342900Y393700D03*
X361950Y393700D03*
X381000Y393700D03*
X342900Y266700D03*
X361950Y266700D03*
X381000Y266700D03*
D13*
X115200Y330200D03*
X100700Y330200D03*
X166000Y330200D03*
X151500Y330200D03*
X133350Y297550D03*
X133350Y312050D03*
X171450Y151500D03*
X171450Y166000D03*
X171450Y107050D03*
X171450Y121550D03*
D14*
X57150Y195580D02*
X57150Y210820D01*
X57150Y83820D02*
X57150Y68580D01*
X31750Y119380D02*
X31750Y134620D01*
D10*
X364950Y158750D03*
D11*
X361950Y117475D03*
X361950Y200025D03*
D12*
X342900Y222250D03*
X361950Y222250D03*
X381000Y222250D03*
X342900Y95250D03*
X361950Y95250D03*
X381000Y95250D03*
D15*
X279400Y158750D03*
X279400Y184150D03*
X279400Y133350D03*
D16*
X195250Y165100D03*
X195250Y152400D03*
X195250Y139700D03*
X195250Y127000D03*
X249250Y127000D03*
X249250Y139700D03*
X249250Y152400D03*
X249250Y165100D03*
D13*
X96150Y76200D03*
X81650Y76200D03*
X81650Y203200D03*
X96150Y203200D03*
X240400Y57150D03*
X254900Y57150D03*
X253100Y101600D03*
X267600Y101600D03*
D17*
X267850Y82550D03*
X252850Y82550D03*
X214750Y184150D03*
X229750Y184150D03*
X214750Y107950D03*
X229750Y107950D03*
D18*
X231750Y82550D03*
X212750Y82550D03*
X231750Y209550D03*
X212750Y209550D03*
D17*
X240150Y38100D03*
X255150Y38100D03*
D13*
X303900Y158750D03*
X318400Y158750D03*
D19*
X152400Y31750D03*
X177800Y31750D03*
X127000Y31750D03*
D17*
X115450Y349250D03*
X100450Y349250D03*
X166250Y349250D03*
X151250Y349250D03*
D13*
X133350Y273950D03*
X133350Y259450D03*
D20*
X222250Y31750D03*
X196850Y69850D03*
M02*
