M48
;GenerationSoftware,Autodesk,EAGLE,9.2.2*%
;CreationDate,2018-12-21T22:38:50Z*%
FMAT,2
ICI,OFF
METRIC,TZ,000.000
T5C0.350
T4C0.600
T3C1.000
T2C1.016
%
G90
M71
T2
X5715Y20320
X5715Y7620
X3175Y12700
T3
X12700Y3175
X17780Y3175
X15240Y3175
X27940Y13335
X27940Y18415
X27940Y15875
T4
X22225Y3175
X19685Y6985
T5
X5080Y26670
X5080Y34608
X1270Y34608
X3175Y34608
X5080Y31432
X3175Y31432
X1270Y31432
X3175Y26670
X1270Y26670
X5080Y39370
X32385Y17399
X3175Y39370
X22225Y16510
X17399Y6731
X15494Y7366
X23495Y15875
X13589Y5461
X20955Y15875
X13335Y34290
X8509Y34290
X32385Y14605
X30480Y14605
X30480Y17399
X23114Y6858
X38100Y26670
X38100Y9525
X36195Y9525
X34290Y9525
X38100Y22225
X36195Y22225
X34290Y22225
X34290Y14287
X38100Y14287
X36195Y14287
X34290Y17463
X36195Y17463
X38100Y17463
X1270Y39370
X36195Y26670
X34290Y26670
X38100Y39370
X36195Y39370
X34290Y39370
X34290Y31432
X38100Y31432
X36195Y31432
X34290Y34608
X36195Y34608
X38100Y34608
X23495Y13335
X6985Y34290
X6985Y31750
X9525Y31750
X12065Y31750
X12065Y29210
X12065Y26670
X12065Y24130
X12065Y21590
X12065Y19050
X12319Y15875
X13589Y13716
X15875Y12700
X25019Y11811
X26162Y13335
X9525Y36195
X23495Y14605
X26670Y3175
X26670Y4445
X24257Y7620
X21082Y13208
X23368Y9652
X22479Y9652
X24130Y18034
X24130Y18923
X24384Y20320
X24384Y21590
X17780Y17780
X16510Y17780
X17780Y9525
X19050Y31750
X16002Y10795
X18288Y10795
X18288Y16510
X16002Y16510
X24257Y9017
X24003Y10287
X14605Y31750
X14986Y16002
X14605Y19050
X14605Y21590
X14605Y24130
X14605Y26670
X14605Y29210
X16510Y31750
X16510Y9525
X21590Y31750
X24130Y31750
X26670Y31750
X29210Y31750
X31750Y31750
X31750Y34290
X29210Y34290
X26670Y34290
X24130Y34290
X21590Y34290
X19050Y34290
X17145Y36195
X14605Y36195
X12065Y36195
M30