G04 EAGLE Gerber RS-274X export*
G75*
%MOMM*%
%FSLAX34Y34*%
%LPD*%
%INTop Solder Paste*%
%IPPOS*%
%AMOC8*
5,1,8,0,0,1.08239X$1,22.5*%
G01*
%ADD10R,5.715000X1.041400*%
%ADD11R,6.350000X2.540000*%
%ADD12R,0.950000X0.950000*%
%ADD13R,1.500000X0.550000*%
%ADD14R,0.800000X0.800000*%
%ADD15R,0.900000X1.300000*%


D10*
X28750Y330200D03*
D11*
X31750Y371475D03*
X31750Y288925D03*
D10*
X364950Y330200D03*
D11*
X361950Y288925D03*
X361950Y371475D03*
D12*
X115200Y330200D03*
X100700Y330200D03*
X166000Y330200D03*
X151500Y330200D03*
X133350Y297550D03*
X133350Y312050D03*
X171450Y151500D03*
X171450Y166000D03*
X171450Y107050D03*
X171450Y121550D03*
D10*
X364950Y158750D03*
D11*
X361950Y117475D03*
X361950Y200025D03*
D13*
X195250Y165100D03*
X195250Y152400D03*
X195250Y139700D03*
X195250Y127000D03*
X249250Y127000D03*
X249250Y139700D03*
X249250Y152400D03*
X249250Y165100D03*
D12*
X96150Y76200D03*
X81650Y76200D03*
X81650Y203200D03*
X96150Y203200D03*
X240400Y57150D03*
X254900Y57150D03*
X253100Y101600D03*
X267600Y101600D03*
D14*
X267850Y82550D03*
X252850Y82550D03*
X214750Y184150D03*
X229750Y184150D03*
X214750Y107950D03*
X229750Y107950D03*
D15*
X231750Y82550D03*
X212750Y82550D03*
X231750Y209550D03*
X212750Y209550D03*
D14*
X240150Y38100D03*
X255150Y38100D03*
D12*
X303900Y158750D03*
X318400Y158750D03*
D14*
X115450Y349250D03*
X100450Y349250D03*
X166250Y349250D03*
X151250Y349250D03*
D12*
X133350Y273950D03*
X133350Y259450D03*
M02*
