G04 EAGLE Gerber RS-274X export*
G75*
%MOMM*%
%FSLAX34Y34*%
%LPD*%
%INBottom Copper Layer*%
%IPPOS*%
%AMOC8*
5,1,8,0,0,1.08239X$1,22.5*%
G01*
%ADD10C,0.554000*%
%ADD11R,4.572000X9.144000*%
%ADD12C,1.066800*%
%ADD13C,0.604000*%

G36*
X90698Y3814D02*
X90698Y3814D01*
X90717Y3812D01*
X90819Y3834D01*
X90921Y3850D01*
X90938Y3860D01*
X90958Y3864D01*
X91047Y3917D01*
X91138Y3966D01*
X91152Y3980D01*
X91169Y3990D01*
X91236Y4069D01*
X91308Y4144D01*
X91316Y4162D01*
X91329Y4177D01*
X91368Y4273D01*
X91411Y4367D01*
X91413Y4387D01*
X91421Y4405D01*
X91439Y4572D01*
X91439Y29210D01*
X91436Y29230D01*
X91438Y29249D01*
X91416Y29351D01*
X91400Y29453D01*
X91390Y29470D01*
X91386Y29490D01*
X91333Y29579D01*
X91284Y29670D01*
X91270Y29684D01*
X91260Y29701D01*
X91181Y29768D01*
X91106Y29840D01*
X91088Y29848D01*
X91073Y29861D01*
X90977Y29900D01*
X90883Y29943D01*
X90863Y29945D01*
X90845Y29953D01*
X90678Y29971D01*
X45211Y29971D01*
X45211Y135129D01*
X90678Y135129D01*
X90698Y135132D01*
X90717Y135130D01*
X90819Y135152D01*
X90921Y135169D01*
X90938Y135178D01*
X90958Y135182D01*
X91047Y135235D01*
X91138Y135284D01*
X91152Y135298D01*
X91169Y135308D01*
X91236Y135387D01*
X91308Y135462D01*
X91316Y135480D01*
X91329Y135495D01*
X91368Y135591D01*
X91411Y135685D01*
X91413Y135705D01*
X91421Y135723D01*
X91439Y135890D01*
X91439Y160528D01*
X91436Y160548D01*
X91438Y160567D01*
X91416Y160669D01*
X91400Y160771D01*
X91390Y160788D01*
X91386Y160808D01*
X91333Y160897D01*
X91284Y160988D01*
X91270Y161002D01*
X91260Y161019D01*
X91181Y161086D01*
X91106Y161158D01*
X91088Y161166D01*
X91073Y161179D01*
X90977Y161218D01*
X90883Y161261D01*
X90863Y161263D01*
X90845Y161271D01*
X90678Y161289D01*
X4572Y161289D01*
X4552Y161286D01*
X4533Y161288D01*
X4431Y161266D01*
X4329Y161250D01*
X4312Y161240D01*
X4292Y161236D01*
X4203Y161183D01*
X4112Y161134D01*
X4098Y161120D01*
X4081Y161110D01*
X4014Y161031D01*
X3942Y160956D01*
X3934Y160938D01*
X3921Y160923D01*
X3882Y160827D01*
X3839Y160733D01*
X3837Y160713D01*
X3829Y160695D01*
X3811Y160528D01*
X3811Y4572D01*
X3814Y4552D01*
X3812Y4533D01*
X3834Y4431D01*
X3850Y4329D01*
X3860Y4312D01*
X3864Y4292D01*
X3917Y4203D01*
X3966Y4112D01*
X3980Y4098D01*
X3990Y4081D01*
X4069Y4014D01*
X4144Y3942D01*
X4162Y3934D01*
X4177Y3921D01*
X4273Y3882D01*
X4367Y3839D01*
X4387Y3837D01*
X4405Y3829D01*
X4572Y3811D01*
X90678Y3811D01*
X90698Y3814D01*
G37*
G36*
X90698Y44962D02*
X90698Y44962D01*
X90717Y44960D01*
X90819Y44982D01*
X90921Y44999D01*
X90938Y45008D01*
X90958Y45012D01*
X91047Y45065D01*
X91138Y45114D01*
X91152Y45128D01*
X91169Y45138D01*
X91236Y45217D01*
X91308Y45292D01*
X91316Y45310D01*
X91329Y45325D01*
X91368Y45421D01*
X91411Y45515D01*
X91413Y45535D01*
X91421Y45553D01*
X91439Y45720D01*
X91439Y119380D01*
X91436Y119400D01*
X91438Y119419D01*
X91416Y119521D01*
X91400Y119623D01*
X91390Y119640D01*
X91386Y119660D01*
X91333Y119749D01*
X91284Y119840D01*
X91270Y119854D01*
X91260Y119871D01*
X91181Y119938D01*
X91106Y120010D01*
X91088Y120018D01*
X91073Y120031D01*
X90977Y120070D01*
X90883Y120113D01*
X90863Y120115D01*
X90845Y120123D01*
X90678Y120141D01*
X57150Y120141D01*
X57130Y120138D01*
X57111Y120140D01*
X57009Y120118D01*
X56907Y120102D01*
X56890Y120092D01*
X56870Y120088D01*
X56781Y120035D01*
X56690Y119986D01*
X56676Y119972D01*
X56659Y119962D01*
X56592Y119883D01*
X56521Y119808D01*
X56512Y119790D01*
X56499Y119775D01*
X56460Y119679D01*
X56417Y119585D01*
X56415Y119565D01*
X56407Y119547D01*
X56389Y119380D01*
X56389Y45720D01*
X56392Y45700D01*
X56390Y45681D01*
X56412Y45579D01*
X56429Y45477D01*
X56438Y45460D01*
X56442Y45440D01*
X56495Y45351D01*
X56544Y45260D01*
X56558Y45246D01*
X56568Y45229D01*
X56647Y45162D01*
X56722Y45091D01*
X56740Y45082D01*
X56755Y45069D01*
X56851Y45030D01*
X56945Y44987D01*
X56965Y44985D01*
X56983Y44977D01*
X57150Y44959D01*
X90678Y44959D01*
X90698Y44962D01*
G37*
D10*
X11430Y99060D03*
X11430Y66040D03*
X36830Y99060D03*
X36830Y66040D03*
X11430Y43180D03*
X36830Y43180D03*
X11430Y121920D03*
X36830Y121920D03*
X24130Y121920D03*
X24130Y43180D03*
X24130Y66040D03*
X24130Y99060D03*
D11*
X22860Y82550D03*
D12*
X63500Y148590D03*
X63500Y16510D03*
D13*
X12700Y146050D03*
X31750Y146050D03*
X12700Y133350D03*
X31750Y133350D03*
X12700Y31750D03*
X31750Y31750D03*
X31750Y19050D03*
X12700Y19050D03*
X50800Y146050D03*
X50800Y19050D03*
X69850Y82550D03*
X82550Y82550D03*
X69850Y101600D03*
X82550Y101600D03*
X69850Y63500D03*
X82550Y63500D03*
D12*
X63500Y107950D03*
X63500Y57150D03*
D13*
X63500Y91440D03*
X63500Y73660D03*
X69850Y114300D03*
X82550Y114300D03*
X82550Y50800D03*
X69850Y50800D03*
M02*
