G04 EAGLE Gerber RS-274X export*
G75*
%MOMM*%
%FSLAX34Y34*%
%LPD*%
%INBottom Solder Mask*%
%IPPOS*%
%AMOC8*
5,1,8,0,0,1.08239X$1,22.5*%
G01*
%ADD10C,0.681000*%
%ADD11R,4.699000X9.271000*%
%ADD12C,1.193800*%

G36*
X95270Y98302D02*
X95270Y98302D01*
X95289Y98300D01*
X95391Y98322D01*
X95493Y98339D01*
X95510Y98348D01*
X95530Y98352D01*
X95619Y98405D01*
X95710Y98454D01*
X95724Y98468D01*
X95741Y98478D01*
X95808Y98557D01*
X95880Y98632D01*
X95888Y98650D01*
X95901Y98665D01*
X95940Y98761D01*
X95983Y98855D01*
X95985Y98875D01*
X95993Y98893D01*
X96011Y99060D01*
X96011Y118110D01*
X96009Y118122D01*
X96010Y118131D01*
X96009Y118137D01*
X96010Y118149D01*
X95988Y118251D01*
X95972Y118353D01*
X95962Y118370D01*
X95958Y118390D01*
X95905Y118479D01*
X95856Y118570D01*
X95842Y118584D01*
X95832Y118601D01*
X95753Y118668D01*
X95678Y118740D01*
X95660Y118748D01*
X95645Y118761D01*
X95549Y118800D01*
X95455Y118843D01*
X95435Y118845D01*
X95417Y118853D01*
X95250Y118871D01*
X63500Y118871D01*
X63480Y118868D01*
X63461Y118870D01*
X63359Y118848D01*
X63257Y118832D01*
X63240Y118822D01*
X63220Y118818D01*
X63131Y118765D01*
X63040Y118716D01*
X63026Y118702D01*
X63009Y118692D01*
X62942Y118613D01*
X62871Y118538D01*
X62862Y118520D01*
X62849Y118505D01*
X62810Y118409D01*
X62767Y118315D01*
X62765Y118295D01*
X62757Y118277D01*
X62739Y118110D01*
X62739Y99060D01*
X62742Y99040D01*
X62740Y99021D01*
X62762Y98919D01*
X62779Y98817D01*
X62788Y98800D01*
X62792Y98780D01*
X62845Y98691D01*
X62894Y98600D01*
X62908Y98586D01*
X62918Y98569D01*
X62997Y98502D01*
X63072Y98431D01*
X63090Y98422D01*
X63105Y98409D01*
X63201Y98370D01*
X63295Y98327D01*
X63315Y98325D01*
X63333Y98317D01*
X63500Y98299D01*
X95250Y98299D01*
X95270Y98302D01*
G37*
G36*
X95270Y46232D02*
X95270Y46232D01*
X95289Y46230D01*
X95391Y46252D01*
X95493Y46269D01*
X95510Y46278D01*
X95530Y46282D01*
X95619Y46335D01*
X95710Y46384D01*
X95724Y46398D01*
X95741Y46408D01*
X95808Y46487D01*
X95880Y46562D01*
X95888Y46580D01*
X95901Y46595D01*
X95940Y46691D01*
X95983Y46785D01*
X95985Y46805D01*
X95993Y46823D01*
X96011Y46990D01*
X96011Y66040D01*
X96009Y66052D01*
X96010Y66061D01*
X96009Y66067D01*
X96010Y66079D01*
X95988Y66181D01*
X95972Y66283D01*
X95962Y66300D01*
X95958Y66320D01*
X95905Y66409D01*
X95856Y66500D01*
X95842Y66514D01*
X95832Y66531D01*
X95753Y66598D01*
X95678Y66670D01*
X95660Y66678D01*
X95645Y66691D01*
X95549Y66730D01*
X95455Y66773D01*
X95435Y66775D01*
X95417Y66783D01*
X95250Y66801D01*
X63500Y66801D01*
X63480Y66798D01*
X63461Y66800D01*
X63359Y66778D01*
X63257Y66762D01*
X63240Y66752D01*
X63220Y66748D01*
X63131Y66695D01*
X63040Y66646D01*
X63026Y66632D01*
X63009Y66622D01*
X62942Y66543D01*
X62871Y66468D01*
X62862Y66450D01*
X62849Y66435D01*
X62810Y66339D01*
X62767Y66245D01*
X62765Y66225D01*
X62757Y66207D01*
X62739Y66040D01*
X62739Y46990D01*
X62742Y46970D01*
X62740Y46951D01*
X62762Y46849D01*
X62779Y46747D01*
X62788Y46730D01*
X62792Y46710D01*
X62845Y46621D01*
X62894Y46530D01*
X62908Y46516D01*
X62918Y46499D01*
X62997Y46432D01*
X63072Y46361D01*
X63090Y46352D01*
X63105Y46339D01*
X63201Y46300D01*
X63295Y46257D01*
X63315Y46255D01*
X63333Y46247D01*
X63500Y46229D01*
X95250Y46229D01*
X95270Y46232D01*
G37*
G36*
X95270Y138942D02*
X95270Y138942D01*
X95289Y138940D01*
X95391Y138962D01*
X95493Y138979D01*
X95510Y138988D01*
X95530Y138992D01*
X95619Y139045D01*
X95710Y139094D01*
X95724Y139108D01*
X95741Y139118D01*
X95808Y139197D01*
X95880Y139272D01*
X95888Y139290D01*
X95901Y139305D01*
X95940Y139401D01*
X95983Y139495D01*
X95985Y139515D01*
X95993Y139533D01*
X96011Y139700D01*
X96011Y157480D01*
X96008Y157500D01*
X96010Y157519D01*
X95988Y157621D01*
X95972Y157723D01*
X95962Y157740D01*
X95958Y157760D01*
X95905Y157849D01*
X95856Y157940D01*
X95842Y157954D01*
X95832Y157971D01*
X95753Y158038D01*
X95678Y158110D01*
X95660Y158118D01*
X95645Y158131D01*
X95549Y158170D01*
X95455Y158213D01*
X95435Y158215D01*
X95417Y158223D01*
X95250Y158241D01*
X63500Y158241D01*
X63480Y158238D01*
X63461Y158240D01*
X63359Y158218D01*
X63257Y158202D01*
X63240Y158192D01*
X63220Y158188D01*
X63131Y158135D01*
X63040Y158086D01*
X63026Y158072D01*
X63009Y158062D01*
X62942Y157983D01*
X62871Y157908D01*
X62862Y157890D01*
X62849Y157875D01*
X62810Y157779D01*
X62767Y157685D01*
X62765Y157665D01*
X62757Y157647D01*
X62739Y157480D01*
X62739Y139700D01*
X62742Y139680D01*
X62740Y139661D01*
X62762Y139559D01*
X62779Y139457D01*
X62788Y139440D01*
X62792Y139420D01*
X62845Y139331D01*
X62894Y139240D01*
X62908Y139226D01*
X62918Y139209D01*
X62997Y139142D01*
X63072Y139071D01*
X63090Y139062D01*
X63105Y139049D01*
X63201Y139010D01*
X63295Y138967D01*
X63315Y138965D01*
X63333Y138957D01*
X63500Y138939D01*
X95250Y138939D01*
X95270Y138942D01*
G37*
G36*
X95270Y6862D02*
X95270Y6862D01*
X95289Y6860D01*
X95391Y6882D01*
X95493Y6899D01*
X95510Y6908D01*
X95530Y6912D01*
X95619Y6965D01*
X95710Y7014D01*
X95724Y7028D01*
X95741Y7038D01*
X95808Y7117D01*
X95880Y7192D01*
X95888Y7210D01*
X95901Y7225D01*
X95940Y7321D01*
X95983Y7415D01*
X95985Y7435D01*
X95993Y7453D01*
X96011Y7620D01*
X96011Y25400D01*
X96008Y25420D01*
X96010Y25439D01*
X95988Y25541D01*
X95972Y25643D01*
X95962Y25660D01*
X95958Y25680D01*
X95905Y25769D01*
X95856Y25860D01*
X95842Y25874D01*
X95832Y25891D01*
X95753Y25958D01*
X95678Y26030D01*
X95660Y26038D01*
X95645Y26051D01*
X95549Y26090D01*
X95455Y26133D01*
X95435Y26135D01*
X95417Y26143D01*
X95250Y26161D01*
X63500Y26161D01*
X63480Y26158D01*
X63461Y26160D01*
X63359Y26138D01*
X63257Y26122D01*
X63240Y26112D01*
X63220Y26108D01*
X63131Y26055D01*
X63040Y26006D01*
X63026Y25992D01*
X63009Y25982D01*
X62942Y25903D01*
X62871Y25828D01*
X62862Y25810D01*
X62849Y25795D01*
X62810Y25699D01*
X62767Y25605D01*
X62765Y25585D01*
X62757Y25567D01*
X62739Y25400D01*
X62739Y7620D01*
X62742Y7600D01*
X62740Y7581D01*
X62762Y7479D01*
X62779Y7377D01*
X62788Y7360D01*
X62792Y7340D01*
X62845Y7251D01*
X62894Y7160D01*
X62908Y7146D01*
X62918Y7129D01*
X62997Y7062D01*
X63072Y6991D01*
X63090Y6982D01*
X63105Y6969D01*
X63201Y6930D01*
X63295Y6887D01*
X63315Y6885D01*
X63333Y6877D01*
X63500Y6859D01*
X95250Y6859D01*
X95270Y6862D01*
G37*
D10*
X11430Y43180D03*
X36830Y43180D03*
X11430Y121920D03*
X36830Y121920D03*
X24130Y121920D03*
X24130Y43180D03*
D11*
X22860Y82550D03*
D12*
X63500Y148590D03*
X63500Y16510D03*
X63500Y107950D03*
X63500Y57150D03*
M02*
