M48
;GenerationSoftware,Autodesk,EAGLE,9.2.2*%
;CreationDate,2018-12-20T21:34:57Z*%
FMAT,2
ICI,OFF
METRIC,TZ,000.000
T4C0.350
T3C0.650
T2C1.000
%
G90
M71
T2
X30353Y24257
X27813Y24257
T3
X30480Y16510
X19685Y13335
T4
X34925Y20955
X1270Y6667
X37338Y20066
X37084Y18796
X37084Y17653
X34417Y22860
X36830Y25654
X24257Y22098
X25273Y22098
X25273Y20828
X24892Y18415
X30988Y20193
X26035Y6350
X27940Y15875
X32385Y17780
X25400Y12065
X28448Y12700
X19177Y5080
X26670Y12065
X25527Y15494
X32258Y15494
X33147Y14605
X33147Y13335
X27305Y6858
X27305Y5842
X32512Y19177
X29210Y12700
X32258Y12446
X25654Y7239
X36957Y23876
X36322Y22860
X37592Y28067
X38608Y28067
X31750Y19177
X37465Y6667
X3175Y16510
X1270Y16510
X5080Y29210
X3175Y29210
X1270Y29210
X39370Y9843
X37465Y9843
X35560Y9843
X5080Y16510
X39370Y6667
X35560Y6667
X35560Y14605
X37465Y14605
X39370Y14605
X35560Y1905
X37465Y1905
X39370Y1905
X3175Y14605
X5080Y6667
X3175Y9843
X1270Y9843
X5080Y9843
X5080Y1905
X3175Y1905
X1270Y1905
X5080Y14605
X3175Y6667
X1270Y14605
X1270Y21273
X3175Y21273
X5080Y21273
X3175Y24447
X1270Y24447
X5080Y24447
X7112Y12319
X6350Y24130
X15367Y24638
X19812Y24638
X11557Y24511
X17145Y19939
X13970Y21209
X18669Y8255
X19558Y8255
X9652Y8255
X6350Y21590
X8001Y12319
X7112Y4191
X8001Y4191
X6477Y6985
X6477Y9525
X6477Y10795
X6477Y5715
X9144Y13335
X19812Y25654
X21590Y19050
X21590Y20955
X24130Y17145
X24130Y15240
X24130Y19050
X24130Y20955
X11557Y25400
X15367Y25654
X9906Y13335
X17145Y22860
X9525Y22860
X21590Y22860
X20320Y20955
X17145Y21844
X14986Y22225
X9525Y20955
X8255Y20955
X21590Y11430
X9017Y9525
X9017Y6985
X16002Y9525
X16002Y6985
X17272Y9652
X17272Y6858
X21590Y15240
X21590Y13335
X21336Y5969
X24130Y11430
X24130Y13335
X24130Y9525
X22606Y5969
X23876Y5969
X23876Y6985
X20447Y8255
X19177Y11557
X20701Y9525
X9144Y3175
X10033Y3175
X13081Y12065
X14351Y12065
X15621Y12065
X16891Y12065
X18161Y12065
X19431Y10541
X21590Y17145
X21336Y10541
X13081Y4445
X14351Y4445
X15621Y4445
X16891Y4445
X18161Y4445
X19431Y5969
X20701Y6985
M30