G04 EAGLE Gerber RS-274X export*
G75*
%MOMM*%
%FSLAX34Y34*%
%LPD*%
%INTop Copper*%
%IPPOS*%
%AMOC8*
5,1,8,0,0,1.08239X$1,22.5*%
G01*
%ADD10R,0.900000X1.600000*%
%ADD11R,0.800000X0.800000*%
%ADD12R,2.000000X0.600000*%
%ADD13P,1.924489X8X22.500000*%
%ADD14P,1.924489X8X112.500000*%
%ADD15P,2.089446X8X202.500000*%
%ADD16R,0.950000X0.950000*%
%ADD17C,0.406400*%
%ADD18C,0.654000*%
%ADD19C,0.609600*%
%ADD20C,0.812800*%
%ADD21C,0.304800*%

G36*
X389148Y3814D02*
X389148Y3814D01*
X389167Y3812D01*
X389269Y3834D01*
X389371Y3850D01*
X389388Y3860D01*
X389408Y3864D01*
X389497Y3917D01*
X389588Y3966D01*
X389602Y3980D01*
X389619Y3990D01*
X389686Y4069D01*
X389758Y4144D01*
X389766Y4162D01*
X389779Y4177D01*
X389818Y4273D01*
X389861Y4367D01*
X389863Y4387D01*
X389871Y4405D01*
X389889Y4572D01*
X389889Y331978D01*
X389886Y331998D01*
X389888Y332017D01*
X389866Y332119D01*
X389850Y332221D01*
X389840Y332238D01*
X389836Y332258D01*
X389783Y332347D01*
X389734Y332438D01*
X389720Y332452D01*
X389710Y332469D01*
X389631Y332536D01*
X389556Y332608D01*
X389538Y332616D01*
X389523Y332629D01*
X389427Y332668D01*
X389333Y332711D01*
X389313Y332713D01*
X389295Y332721D01*
X389128Y332739D01*
X4572Y332739D01*
X4552Y332736D01*
X4533Y332738D01*
X4431Y332716D01*
X4329Y332700D01*
X4312Y332690D01*
X4292Y332686D01*
X4203Y332633D01*
X4112Y332584D01*
X4098Y332570D01*
X4081Y332560D01*
X4014Y332481D01*
X3942Y332406D01*
X3934Y332388D01*
X3921Y332373D01*
X3882Y332277D01*
X3839Y332183D01*
X3837Y332163D01*
X3829Y332145D01*
X3811Y331978D01*
X3811Y4572D01*
X3814Y4552D01*
X3812Y4533D01*
X3834Y4431D01*
X3850Y4329D01*
X3860Y4312D01*
X3864Y4292D01*
X3917Y4203D01*
X3966Y4112D01*
X3980Y4098D01*
X3990Y4081D01*
X4069Y4014D01*
X4144Y3942D01*
X4162Y3934D01*
X4177Y3921D01*
X4273Y3882D01*
X4367Y3839D01*
X4387Y3837D01*
X4405Y3829D01*
X4572Y3811D01*
X389128Y3811D01*
X389148Y3814D01*
G37*
%LPC*%
G36*
X116583Y185927D02*
X116583Y185927D01*
X116509Y185957D01*
X116469Y185961D01*
X116446Y185968D01*
X116414Y185967D01*
X116343Y185975D01*
X107968Y185975D01*
X107075Y186868D01*
X107075Y194132D01*
X107968Y195025D01*
X116343Y195025D01*
X116433Y195039D01*
X116524Y195047D01*
X116554Y195059D01*
X116585Y195064D01*
X116601Y195073D01*
X136341Y195073D01*
X136431Y195087D01*
X136522Y195095D01*
X136551Y195107D01*
X136583Y195112D01*
X136664Y195155D01*
X136748Y195191D01*
X136780Y195217D01*
X136801Y195228D01*
X136823Y195251D01*
X136879Y195296D01*
X151788Y210205D01*
X151841Y210279D01*
X151901Y210349D01*
X151913Y210379D01*
X151932Y210405D01*
X151959Y210492D01*
X151993Y210577D01*
X151997Y210618D01*
X152004Y210640D01*
X152003Y210672D01*
X152011Y210743D01*
X152011Y234012D01*
X152862Y236066D01*
X153838Y237042D01*
X153891Y237116D01*
X153951Y237185D01*
X153963Y237216D01*
X153982Y237242D01*
X154009Y237329D01*
X154043Y237414D01*
X154047Y237454D01*
X154054Y237477D01*
X154053Y237509D01*
X154061Y237580D01*
X154061Y260317D01*
X154047Y260407D01*
X154039Y260498D01*
X154027Y260528D01*
X154022Y260560D01*
X153979Y260641D01*
X153943Y260724D01*
X153917Y260757D01*
X153906Y260777D01*
X153883Y260799D01*
X153838Y260855D01*
X153375Y261318D01*
X153375Y272082D01*
X153838Y272545D01*
X153891Y272619D01*
X153951Y272688D01*
X153963Y272718D01*
X153982Y272744D01*
X154009Y272831D01*
X154043Y272916D01*
X154047Y272957D01*
X154054Y272979D01*
X154053Y273012D01*
X154061Y273083D01*
X154061Y287762D01*
X154912Y289816D01*
X160812Y295716D01*
X160865Y295790D01*
X160925Y295859D01*
X160937Y295890D01*
X160956Y295916D01*
X160983Y296003D01*
X161017Y296088D01*
X161021Y296128D01*
X161028Y296151D01*
X161027Y296183D01*
X161035Y296254D01*
X161035Y302764D01*
X165638Y307367D01*
X165691Y307441D01*
X165751Y307510D01*
X165763Y307540D01*
X165782Y307567D01*
X165809Y307654D01*
X165843Y307738D01*
X165847Y307779D01*
X165854Y307802D01*
X165853Y307834D01*
X165861Y307905D01*
X165861Y314870D01*
X165847Y314960D01*
X165839Y315051D01*
X165827Y315081D01*
X165822Y315112D01*
X165779Y315193D01*
X165743Y315277D01*
X165717Y315309D01*
X165706Y315330D01*
X165683Y315352D01*
X165638Y315408D01*
X163008Y318038D01*
X162934Y318091D01*
X162865Y318151D01*
X162834Y318163D01*
X162808Y318182D01*
X162721Y318209D01*
X162636Y318243D01*
X162596Y318247D01*
X162573Y318254D01*
X162541Y318253D01*
X162470Y318261D01*
X97880Y318261D01*
X97790Y318247D01*
X97699Y318239D01*
X97669Y318227D01*
X97638Y318222D01*
X97557Y318179D01*
X97473Y318143D01*
X97441Y318117D01*
X97420Y318106D01*
X97398Y318083D01*
X97342Y318038D01*
X81250Y301946D01*
X81197Y301872D01*
X81137Y301803D01*
X81125Y301772D01*
X81106Y301746D01*
X81079Y301659D01*
X81045Y301574D01*
X81041Y301534D01*
X81034Y301511D01*
X81035Y301479D01*
X81027Y301408D01*
X81027Y293820D01*
X78462Y291255D01*
X78409Y291181D01*
X78349Y291112D01*
X78337Y291082D01*
X78318Y291056D01*
X78291Y290969D01*
X78257Y290884D01*
X78253Y290843D01*
X78246Y290821D01*
X78247Y290788D01*
X78239Y290717D01*
X78239Y269733D01*
X78253Y269643D01*
X78261Y269552D01*
X78273Y269522D01*
X78278Y269490D01*
X78321Y269410D01*
X78357Y269326D01*
X78383Y269293D01*
X78394Y269273D01*
X78417Y269251D01*
X78462Y269195D01*
X78675Y268982D01*
X78675Y251718D01*
X77782Y250825D01*
X67518Y250825D01*
X66625Y251718D01*
X66625Y268982D01*
X66838Y269195D01*
X66892Y269269D01*
X66951Y269338D01*
X66963Y269368D01*
X66982Y269394D01*
X67009Y269481D01*
X67043Y269566D01*
X67047Y269607D01*
X67054Y269629D01*
X67053Y269662D01*
X67061Y269733D01*
X67061Y286512D01*
X67058Y286532D01*
X67060Y286551D01*
X67038Y286653D01*
X67022Y286755D01*
X67012Y286772D01*
X67008Y286792D01*
X66955Y286881D01*
X66906Y286972D01*
X66892Y286986D01*
X66882Y287003D01*
X66803Y287070D01*
X66728Y287142D01*
X66710Y287150D01*
X66695Y287163D01*
X66599Y287202D01*
X66505Y287245D01*
X66485Y287247D01*
X66467Y287255D01*
X66300Y287273D01*
X65220Y287273D01*
X58673Y293820D01*
X58673Y303080D01*
X65220Y309627D01*
X72808Y309627D01*
X72898Y309641D01*
X72989Y309649D01*
X73019Y309661D01*
X73050Y309666D01*
X73131Y309709D01*
X73215Y309745D01*
X73247Y309771D01*
X73268Y309782D01*
X73290Y309805D01*
X73346Y309850D01*
X92084Y328588D01*
X94138Y329439D01*
X166212Y329439D01*
X168266Y328588D01*
X176188Y320666D01*
X177039Y318612D01*
X177039Y307905D01*
X177053Y307815D01*
X177061Y307724D01*
X177073Y307694D01*
X177078Y307662D01*
X177121Y307582D01*
X177157Y307498D01*
X177183Y307466D01*
X177194Y307445D01*
X177217Y307423D01*
X177262Y307367D01*
X181865Y302764D01*
X181865Y294136D01*
X175764Y288035D01*
X169254Y288035D01*
X169164Y288021D01*
X169073Y288013D01*
X169043Y288001D01*
X169012Y287996D01*
X168931Y287953D01*
X168847Y287917D01*
X168815Y287891D01*
X168794Y287880D01*
X168772Y287857D01*
X168716Y287812D01*
X165462Y284558D01*
X165409Y284484D01*
X165349Y284415D01*
X165337Y284384D01*
X165318Y284358D01*
X165291Y284271D01*
X165257Y284186D01*
X165253Y284146D01*
X165246Y284123D01*
X165247Y284091D01*
X165239Y284020D01*
X165239Y273083D01*
X165253Y272993D01*
X165261Y272902D01*
X165273Y272872D01*
X165278Y272840D01*
X165321Y272759D01*
X165357Y272676D01*
X165383Y272643D01*
X165394Y272623D01*
X165417Y272601D01*
X165462Y272545D01*
X165925Y272082D01*
X165925Y261318D01*
X165462Y260855D01*
X165414Y260790D01*
X165405Y260780D01*
X165403Y260775D01*
X165349Y260712D01*
X165337Y260682D01*
X165318Y260656D01*
X165291Y260569D01*
X165257Y260484D01*
X165253Y260443D01*
X165246Y260421D01*
X165247Y260388D01*
X165239Y260317D01*
X165239Y233838D01*
X164388Y231784D01*
X163412Y230808D01*
X163359Y230734D01*
X163299Y230665D01*
X163287Y230634D01*
X163268Y230608D01*
X163241Y230521D01*
X163207Y230436D01*
X163203Y230396D01*
X163196Y230373D01*
X163197Y230341D01*
X163189Y230270D01*
X163189Y208438D01*
X163183Y208424D01*
X163168Y208360D01*
X163143Y208299D01*
X163134Y208216D01*
X163127Y208184D01*
X163128Y208165D01*
X163125Y208132D01*
X163125Y204918D01*
X162232Y204025D01*
X159018Y204025D01*
X158953Y204015D01*
X158887Y204014D01*
X158807Y203991D01*
X158775Y203986D01*
X158765Y203980D01*
X158761Y203980D01*
X158751Y203974D01*
X158726Y203967D01*
X158670Y203944D01*
X158612Y203939D01*
X158583Y203927D01*
X158551Y203922D01*
X158470Y203879D01*
X158386Y203843D01*
X158354Y203817D01*
X158333Y203806D01*
X158311Y203783D01*
X158255Y203738D01*
X140444Y185927D01*
X116583Y185927D01*
G37*
%LPD*%
%LPC*%
G36*
X40136Y34035D02*
X40136Y34035D01*
X34035Y40136D01*
X34035Y48764D01*
X40136Y54865D01*
X48764Y54865D01*
X54866Y48763D01*
X54868Y48748D01*
X54866Y48729D01*
X54888Y48627D01*
X54904Y48525D01*
X54914Y48508D01*
X54918Y48488D01*
X54971Y48399D01*
X55020Y48308D01*
X55034Y48294D01*
X55044Y48277D01*
X55123Y48210D01*
X55198Y48138D01*
X55216Y48130D01*
X55231Y48117D01*
X55327Y48078D01*
X55421Y48035D01*
X55441Y48033D01*
X55459Y48025D01*
X55626Y48007D01*
X112511Y48007D01*
X112602Y48021D01*
X112692Y48029D01*
X112722Y48041D01*
X112754Y48046D01*
X112835Y48089D01*
X112919Y48125D01*
X112951Y48151D01*
X112972Y48162D01*
X112994Y48185D01*
X113050Y48230D01*
X115876Y51056D01*
X115918Y51114D01*
X115967Y51166D01*
X115989Y51213D01*
X116019Y51255D01*
X116040Y51324D01*
X116071Y51389D01*
X116076Y51441D01*
X116092Y51491D01*
X116090Y51562D01*
X116098Y51633D01*
X116087Y51684D01*
X116085Y51736D01*
X116061Y51804D01*
X116045Y51874D01*
X116019Y51919D01*
X116001Y51967D01*
X115956Y52023D01*
X115919Y52085D01*
X115880Y52119D01*
X115847Y52159D01*
X115787Y52198D01*
X115732Y52245D01*
X115684Y52264D01*
X115640Y52292D01*
X115571Y52310D01*
X115504Y52337D01*
X115433Y52345D01*
X115402Y52353D01*
X115378Y52351D01*
X115337Y52355D01*
X112314Y52355D01*
X109505Y55164D01*
X109505Y59136D01*
X112314Y61945D01*
X113749Y61945D01*
X113840Y61959D01*
X113930Y61967D01*
X113960Y61979D01*
X113992Y61984D01*
X114073Y62027D01*
X114157Y62063D01*
X114189Y62089D01*
X114210Y62100D01*
X114232Y62123D01*
X114288Y62168D01*
X114820Y62700D01*
X114873Y62774D01*
X114933Y62844D01*
X114945Y62874D01*
X114964Y62900D01*
X114991Y62987D01*
X115025Y63072D01*
X115029Y63113D01*
X115036Y63135D01*
X115035Y63167D01*
X115043Y63239D01*
X115043Y70914D01*
X115040Y70934D01*
X115042Y70953D01*
X115020Y71055D01*
X115004Y71157D01*
X114994Y71174D01*
X114990Y71194D01*
X114937Y71283D01*
X114888Y71374D01*
X114874Y71388D01*
X114864Y71405D01*
X114785Y71472D01*
X114710Y71544D01*
X114692Y71552D01*
X114677Y71565D01*
X114581Y71604D01*
X114487Y71647D01*
X114467Y71649D01*
X114449Y71657D01*
X114282Y71675D01*
X107968Y71675D01*
X107075Y72568D01*
X107075Y79832D01*
X107968Y80725D01*
X129232Y80725D01*
X130125Y79832D01*
X130125Y72568D01*
X129232Y71675D01*
X122918Y71675D01*
X122898Y71672D01*
X122879Y71674D01*
X122777Y71652D01*
X122675Y71636D01*
X122658Y71626D01*
X122638Y71622D01*
X122549Y71569D01*
X122458Y71520D01*
X122444Y71506D01*
X122427Y71496D01*
X122360Y71417D01*
X122288Y71342D01*
X122280Y71324D01*
X122267Y71309D01*
X122228Y71213D01*
X122185Y71119D01*
X122183Y71099D01*
X122175Y71081D01*
X122157Y70914D01*
X122157Y59977D01*
X119318Y57138D01*
X119265Y57064D01*
X119205Y56994D01*
X119193Y56964D01*
X119174Y56938D01*
X119147Y56851D01*
X119113Y56766D01*
X119109Y56725D01*
X119102Y56703D01*
X119103Y56671D01*
X119095Y56599D01*
X119095Y56113D01*
X119106Y56042D01*
X119108Y55970D01*
X119126Y55921D01*
X119134Y55870D01*
X119168Y55806D01*
X119193Y55739D01*
X119225Y55698D01*
X119250Y55652D01*
X119302Y55603D01*
X119346Y55547D01*
X119390Y55519D01*
X119428Y55483D01*
X119493Y55453D01*
X119553Y55414D01*
X119604Y55401D01*
X119651Y55379D01*
X119722Y55371D01*
X119792Y55354D01*
X119844Y55358D01*
X119895Y55352D01*
X119966Y55368D01*
X120037Y55373D01*
X120085Y55393D01*
X120136Y55405D01*
X120197Y55441D01*
X120263Y55469D01*
X120319Y55514D01*
X120347Y55531D01*
X120362Y55549D01*
X120394Y55574D01*
X148620Y83800D01*
X148673Y83874D01*
X148733Y83944D01*
X148745Y83974D01*
X148764Y84000D01*
X148791Y84087D01*
X148825Y84172D01*
X148829Y84213D01*
X148836Y84235D01*
X148835Y84267D01*
X148843Y84339D01*
X148843Y122123D01*
X169977Y143257D01*
X199685Y143257D01*
X199775Y143271D01*
X199866Y143279D01*
X199896Y143291D01*
X199928Y143296D01*
X200009Y143339D01*
X200092Y143375D01*
X200125Y143401D01*
X200145Y143412D01*
X200167Y143435D01*
X200223Y143480D01*
X200968Y144225D01*
X222232Y144225D01*
X223125Y143332D01*
X223125Y136068D01*
X222232Y135175D01*
X200968Y135175D01*
X200223Y135920D01*
X200149Y135973D01*
X200080Y136033D01*
X200050Y136045D01*
X200024Y136064D01*
X199937Y136091D01*
X199852Y136125D01*
X199811Y136129D01*
X199789Y136136D01*
X199756Y136135D01*
X199685Y136143D01*
X173239Y136143D01*
X173148Y136129D01*
X173058Y136121D01*
X173028Y136109D01*
X172996Y136104D01*
X172915Y136061D01*
X172831Y136025D01*
X172799Y135999D01*
X172778Y135988D01*
X172756Y135965D01*
X172700Y135920D01*
X156180Y119400D01*
X156127Y119326D01*
X156067Y119256D01*
X156055Y119226D01*
X156036Y119200D01*
X156009Y119113D01*
X155975Y119028D01*
X155971Y118987D01*
X155964Y118965D01*
X155965Y118933D01*
X155957Y118861D01*
X155957Y81077D01*
X115773Y40893D01*
X55626Y40893D01*
X55606Y40890D01*
X55587Y40892D01*
X55485Y40870D01*
X55383Y40854D01*
X55366Y40844D01*
X55346Y40840D01*
X55257Y40787D01*
X55166Y40738D01*
X55152Y40724D01*
X55135Y40714D01*
X55068Y40635D01*
X54996Y40560D01*
X54988Y40542D01*
X54975Y40527D01*
X54936Y40431D01*
X54893Y40337D01*
X54891Y40317D01*
X54883Y40299D01*
X54865Y40137D01*
X48764Y34035D01*
X40136Y34035D01*
G37*
%LPD*%
%LPC*%
G36*
X266398Y45425D02*
X266398Y45425D01*
X265505Y46318D01*
X265505Y51193D01*
X265491Y51283D01*
X265483Y51374D01*
X265471Y51403D01*
X265466Y51435D01*
X265423Y51516D01*
X265387Y51600D01*
X265361Y51632D01*
X265350Y51653D01*
X265327Y51675D01*
X265282Y51731D01*
X255777Y61236D01*
X255777Y110994D01*
X267302Y122519D01*
X267355Y122593D01*
X267415Y122663D01*
X267427Y122693D01*
X267446Y122719D01*
X267473Y122806D01*
X267507Y122891D01*
X267511Y122932D01*
X267518Y122954D01*
X267517Y122986D01*
X267525Y123057D01*
X267525Y126432D01*
X268418Y127325D01*
X271793Y127325D01*
X271883Y127339D01*
X271974Y127347D01*
X272003Y127359D01*
X272035Y127364D01*
X272116Y127407D01*
X272200Y127443D01*
X272232Y127469D01*
X272253Y127480D01*
X272275Y127503D01*
X272331Y127548D01*
X283945Y139162D01*
X283957Y139178D01*
X283972Y139190D01*
X284028Y139278D01*
X284088Y139361D01*
X284094Y139380D01*
X284105Y139397D01*
X284130Y139498D01*
X284161Y139597D01*
X284160Y139616D01*
X284165Y139636D01*
X284157Y139739D01*
X284154Y139842D01*
X284148Y139861D01*
X284146Y139881D01*
X284106Y139976D01*
X284070Y140073D01*
X284057Y140089D01*
X284050Y140107D01*
X283945Y140238D01*
X272331Y151852D01*
X272257Y151905D01*
X272187Y151965D01*
X272157Y151977D01*
X272131Y151996D01*
X272044Y152023D01*
X271959Y152057D01*
X271918Y152061D01*
X271896Y152068D01*
X271864Y152067D01*
X271793Y152075D01*
X268418Y152075D01*
X267525Y152968D01*
X267525Y162232D01*
X268418Y163125D01*
X277682Y163125D01*
X278575Y162232D01*
X278575Y158857D01*
X278589Y158767D01*
X278597Y158676D01*
X278609Y158647D01*
X278614Y158615D01*
X278657Y158534D01*
X278693Y158450D01*
X278719Y158418D01*
X278730Y158397D01*
X278753Y158375D01*
X278798Y158319D01*
X291669Y145448D01*
X291743Y145395D01*
X291813Y145335D01*
X291843Y145323D01*
X291869Y145304D01*
X291956Y145277D01*
X292041Y145243D01*
X292082Y145239D01*
X292104Y145232D01*
X292136Y145233D01*
X292207Y145225D01*
X295582Y145225D01*
X296475Y144332D01*
X296475Y135068D01*
X295582Y134175D01*
X292207Y134175D01*
X292117Y134161D01*
X292026Y134153D01*
X291997Y134141D01*
X291965Y134136D01*
X291884Y134093D01*
X291800Y134057D01*
X291768Y134031D01*
X291747Y134020D01*
X291725Y133997D01*
X291669Y133952D01*
X278798Y121081D01*
X278745Y121007D01*
X278685Y120937D01*
X278673Y120907D01*
X278654Y120881D01*
X278627Y120794D01*
X278593Y120709D01*
X278589Y120668D01*
X278582Y120646D01*
X278583Y120614D01*
X278575Y120543D01*
X278575Y117168D01*
X277682Y116275D01*
X274307Y116275D01*
X274217Y116261D01*
X274126Y116253D01*
X274097Y116241D01*
X274065Y116236D01*
X273984Y116193D01*
X273900Y116157D01*
X273868Y116131D01*
X273847Y116120D01*
X273825Y116097D01*
X273769Y116052D01*
X271341Y113624D01*
X271299Y113566D01*
X271250Y113514D01*
X271228Y113467D01*
X271198Y113425D01*
X271176Y113356D01*
X271146Y113291D01*
X271141Y113239D01*
X271125Y113189D01*
X271127Y113118D01*
X271119Y113047D01*
X271130Y112996D01*
X271132Y112944D01*
X271156Y112876D01*
X271171Y112806D01*
X271198Y112761D01*
X271216Y112713D01*
X271261Y112657D01*
X271298Y112595D01*
X271337Y112561D01*
X271370Y112521D01*
X271430Y112482D01*
X271484Y112435D01*
X271533Y112416D01*
X271577Y112388D01*
X271646Y112370D01*
X271713Y112343D01*
X271784Y112335D01*
X271815Y112327D01*
X271838Y112329D01*
X271879Y112325D01*
X276993Y112325D01*
X277083Y112339D01*
X277174Y112347D01*
X277203Y112359D01*
X277235Y112364D01*
X277316Y112407D01*
X277400Y112443D01*
X277432Y112469D01*
X277453Y112480D01*
X277475Y112503D01*
X277531Y112548D01*
X280732Y115749D01*
X280785Y115823D01*
X280845Y115893D01*
X280857Y115923D01*
X280876Y115949D01*
X280903Y116036D01*
X280937Y116121D01*
X280941Y116162D01*
X280948Y116184D01*
X280947Y116216D01*
X280955Y116286D01*
X283764Y119095D01*
X287736Y119095D01*
X290545Y116286D01*
X290545Y112314D01*
X287736Y109505D01*
X287647Y109491D01*
X287556Y109483D01*
X287527Y109471D01*
X287495Y109466D01*
X287414Y109423D01*
X287330Y109387D01*
X287298Y109361D01*
X287277Y109350D01*
X287255Y109327D01*
X287199Y109282D01*
X282655Y104738D01*
X282643Y104722D01*
X282628Y104710D01*
X282572Y104622D01*
X282512Y104539D01*
X282506Y104520D01*
X282495Y104503D01*
X282470Y104402D01*
X282439Y104303D01*
X282440Y104284D01*
X282435Y104264D01*
X282443Y104161D01*
X282446Y104058D01*
X282452Y104039D01*
X282454Y104019D01*
X282494Y103924D01*
X282530Y103827D01*
X282543Y103811D01*
X282550Y103793D01*
X282655Y103662D01*
X291669Y94648D01*
X291743Y94595D01*
X291813Y94535D01*
X291843Y94523D01*
X291869Y94504D01*
X291956Y94477D01*
X292041Y94443D01*
X292082Y94439D01*
X292104Y94432D01*
X292136Y94433D01*
X292207Y94425D01*
X295582Y94425D01*
X296475Y93532D01*
X296475Y84268D01*
X295746Y83539D01*
X295693Y83465D01*
X295633Y83396D01*
X295621Y83366D01*
X295602Y83340D01*
X295575Y83253D01*
X295541Y83168D01*
X295537Y83127D01*
X295530Y83105D01*
X295531Y83072D01*
X295523Y83001D01*
X295523Y57709D01*
X295537Y57619D01*
X295545Y57528D01*
X295557Y57498D01*
X295562Y57466D01*
X295605Y57385D01*
X295641Y57302D01*
X295667Y57269D01*
X295678Y57249D01*
X295701Y57227D01*
X295746Y57171D01*
X295835Y57082D01*
X295835Y46318D01*
X294942Y45425D01*
X284178Y45425D01*
X283285Y46318D01*
X283285Y57082D01*
X284178Y57975D01*
X285616Y57975D01*
X285636Y57978D01*
X285655Y57976D01*
X285757Y57998D01*
X285859Y58014D01*
X285876Y58024D01*
X285896Y58028D01*
X285985Y58081D01*
X286076Y58130D01*
X286090Y58144D01*
X286107Y58154D01*
X286174Y58233D01*
X286246Y58308D01*
X286254Y58326D01*
X286267Y58341D01*
X286306Y58437D01*
X286349Y58531D01*
X286351Y58551D01*
X286359Y58569D01*
X286377Y58736D01*
X286377Y83001D01*
X286375Y83013D01*
X286376Y83020D01*
X286368Y83059D01*
X286363Y83091D01*
X286355Y83182D01*
X286343Y83212D01*
X286338Y83244D01*
X286295Y83325D01*
X286259Y83408D01*
X286233Y83441D01*
X286222Y83461D01*
X286199Y83483D01*
X286154Y83539D01*
X285425Y84268D01*
X285425Y87643D01*
X285411Y87733D01*
X285403Y87824D01*
X285391Y87853D01*
X285386Y87885D01*
X285343Y87966D01*
X285307Y88050D01*
X285281Y88082D01*
X285270Y88103D01*
X285247Y88125D01*
X285202Y88181D01*
X272331Y101052D01*
X272257Y101105D01*
X272187Y101165D01*
X272157Y101177D01*
X272131Y101196D01*
X272044Y101223D01*
X271959Y101257D01*
X271918Y101261D01*
X271896Y101268D01*
X271864Y101267D01*
X271793Y101275D01*
X268418Y101275D01*
X267525Y102168D01*
X267525Y107971D01*
X267514Y108041D01*
X267512Y108113D01*
X267494Y108162D01*
X267486Y108213D01*
X267452Y108277D01*
X267427Y108344D01*
X267395Y108385D01*
X267370Y108431D01*
X267318Y108480D01*
X267274Y108536D01*
X267230Y108564D01*
X267192Y108600D01*
X267127Y108630D01*
X267067Y108669D01*
X267016Y108682D01*
X266969Y108704D01*
X266898Y108712D01*
X266828Y108729D01*
X266776Y108725D01*
X266725Y108731D01*
X266654Y108716D01*
X266583Y108710D01*
X266535Y108690D01*
X266484Y108679D01*
X266423Y108642D01*
X266357Y108614D01*
X266301Y108569D01*
X266273Y108552D01*
X266258Y108535D01*
X266226Y108509D01*
X265146Y107429D01*
X265093Y107355D01*
X265033Y107285D01*
X265021Y107255D01*
X265002Y107229D01*
X264975Y107142D01*
X264941Y107057D01*
X264937Y107016D01*
X264930Y106994D01*
X264931Y106962D01*
X264923Y106891D01*
X264923Y65339D01*
X264937Y65249D01*
X264945Y65158D01*
X264957Y65129D01*
X264962Y65097D01*
X265005Y65016D01*
X265041Y64932D01*
X265067Y64900D01*
X265078Y64879D01*
X265101Y64857D01*
X265146Y64801D01*
X271749Y58198D01*
X271823Y58145D01*
X271893Y58085D01*
X271923Y58073D01*
X271949Y58054D01*
X272036Y58027D01*
X272121Y57993D01*
X272162Y57989D01*
X272184Y57982D01*
X272216Y57983D01*
X272287Y57975D01*
X277162Y57975D01*
X278055Y57082D01*
X278055Y46318D01*
X277162Y45425D01*
X266398Y45425D01*
G37*
%LPD*%
%LPC*%
G36*
X301958Y45425D02*
X301958Y45425D01*
X301065Y46318D01*
X301065Y57082D01*
X301154Y57171D01*
X301207Y57245D01*
X301267Y57314D01*
X301279Y57344D01*
X301298Y57370D01*
X301325Y57457D01*
X301359Y57542D01*
X301363Y57583D01*
X301370Y57605D01*
X301369Y57638D01*
X301377Y57709D01*
X301377Y83001D01*
X301375Y83013D01*
X301376Y83020D01*
X301368Y83059D01*
X301363Y83091D01*
X301355Y83182D01*
X301343Y83212D01*
X301338Y83244D01*
X301295Y83325D01*
X301259Y83408D01*
X301233Y83441D01*
X301222Y83461D01*
X301199Y83483D01*
X301154Y83539D01*
X300425Y84268D01*
X300425Y93532D01*
X301318Y94425D01*
X304693Y94425D01*
X304783Y94439D01*
X304874Y94447D01*
X304903Y94459D01*
X304935Y94464D01*
X305016Y94507D01*
X305100Y94543D01*
X305132Y94569D01*
X305153Y94580D01*
X305175Y94603D01*
X305231Y94648D01*
X314245Y103662D01*
X314256Y103678D01*
X314272Y103690D01*
X314328Y103778D01*
X314388Y103861D01*
X314394Y103880D01*
X314405Y103897D01*
X314430Y103998D01*
X314461Y104097D01*
X314460Y104116D01*
X314465Y104136D01*
X314457Y104239D01*
X314454Y104342D01*
X314448Y104361D01*
X314446Y104381D01*
X314406Y104476D01*
X314370Y104573D01*
X314357Y104589D01*
X314350Y104607D01*
X314245Y104738D01*
X309701Y109282D01*
X309627Y109335D01*
X309557Y109395D01*
X309527Y109407D01*
X309501Y109426D01*
X309414Y109453D01*
X309329Y109487D01*
X309288Y109491D01*
X309266Y109498D01*
X309234Y109497D01*
X309164Y109505D01*
X306355Y112314D01*
X306355Y116286D01*
X309164Y119095D01*
X313136Y119095D01*
X315945Y116286D01*
X315959Y116197D01*
X315967Y116106D01*
X315979Y116077D01*
X315984Y116045D01*
X316027Y115964D01*
X316063Y115880D01*
X316089Y115848D01*
X316100Y115827D01*
X316123Y115805D01*
X316168Y115749D01*
X319369Y112548D01*
X319443Y112495D01*
X319513Y112435D01*
X319543Y112423D01*
X319569Y112404D01*
X319656Y112377D01*
X319741Y112343D01*
X319782Y112339D01*
X319804Y112332D01*
X319836Y112333D01*
X319907Y112325D01*
X325021Y112325D01*
X325091Y112336D01*
X325163Y112338D01*
X325212Y112356D01*
X325263Y112364D01*
X325327Y112398D01*
X325394Y112423D01*
X325435Y112455D01*
X325481Y112480D01*
X325530Y112532D01*
X325586Y112576D01*
X325614Y112620D01*
X325650Y112658D01*
X325680Y112723D01*
X325719Y112783D01*
X325732Y112834D01*
X325754Y112881D01*
X325762Y112952D01*
X325779Y113022D01*
X325775Y113074D01*
X325781Y113125D01*
X325766Y113196D01*
X325760Y113267D01*
X325740Y113315D01*
X325729Y113366D01*
X325692Y113427D01*
X325664Y113493D01*
X325619Y113549D01*
X325602Y113577D01*
X325585Y113592D01*
X325559Y113624D01*
X323131Y116052D01*
X323057Y116105D01*
X322987Y116165D01*
X322957Y116177D01*
X322931Y116196D01*
X322844Y116223D01*
X322759Y116257D01*
X322718Y116261D01*
X322696Y116268D01*
X322664Y116267D01*
X322593Y116275D01*
X319218Y116275D01*
X318325Y117168D01*
X318325Y120543D01*
X318311Y120633D01*
X318303Y120724D01*
X318291Y120753D01*
X318286Y120785D01*
X318243Y120866D01*
X318207Y120950D01*
X318181Y120982D01*
X318170Y121003D01*
X318147Y121025D01*
X318102Y121081D01*
X305231Y133952D01*
X305157Y134005D01*
X305087Y134065D01*
X305057Y134077D01*
X305031Y134096D01*
X304944Y134123D01*
X304859Y134157D01*
X304818Y134161D01*
X304796Y134168D01*
X304764Y134167D01*
X304693Y134175D01*
X301318Y134175D01*
X300425Y135068D01*
X300425Y144332D01*
X301318Y145225D01*
X304693Y145225D01*
X304783Y145239D01*
X304874Y145247D01*
X304903Y145259D01*
X304935Y145264D01*
X305016Y145307D01*
X305100Y145343D01*
X305132Y145369D01*
X305153Y145380D01*
X305175Y145403D01*
X305231Y145448D01*
X318102Y158319D01*
X318155Y158393D01*
X318215Y158463D01*
X318227Y158493D01*
X318246Y158519D01*
X318273Y158606D01*
X318307Y158691D01*
X318311Y158732D01*
X318318Y158754D01*
X318317Y158786D01*
X318325Y158857D01*
X318325Y162232D01*
X319218Y163125D01*
X328482Y163125D01*
X329375Y162232D01*
X329375Y152968D01*
X328482Y152075D01*
X325107Y152075D01*
X325017Y152061D01*
X324926Y152053D01*
X324897Y152041D01*
X324865Y152036D01*
X324784Y151993D01*
X324700Y151957D01*
X324668Y151931D01*
X324647Y151920D01*
X324625Y151897D01*
X324569Y151852D01*
X312955Y140238D01*
X312943Y140222D01*
X312928Y140210D01*
X312872Y140122D01*
X312812Y140039D01*
X312806Y140020D01*
X312795Y140003D01*
X312770Y139902D01*
X312739Y139803D01*
X312740Y139784D01*
X312735Y139764D01*
X312743Y139661D01*
X312746Y139558D01*
X312752Y139539D01*
X312754Y139519D01*
X312794Y139424D01*
X312830Y139327D01*
X312843Y139311D01*
X312850Y139293D01*
X312955Y139162D01*
X324569Y127548D01*
X324643Y127495D01*
X324713Y127435D01*
X324743Y127423D01*
X324769Y127404D01*
X324856Y127377D01*
X324941Y127343D01*
X324982Y127339D01*
X325004Y127332D01*
X325036Y127333D01*
X325107Y127325D01*
X328482Y127325D01*
X329375Y126432D01*
X329375Y123057D01*
X329389Y122967D01*
X329397Y122876D01*
X329409Y122847D01*
X329414Y122815D01*
X329457Y122734D01*
X329493Y122650D01*
X329519Y122618D01*
X329530Y122597D01*
X329553Y122575D01*
X329598Y122519D01*
X341123Y110994D01*
X341123Y61236D01*
X331618Y51731D01*
X331565Y51657D01*
X331505Y51587D01*
X331493Y51557D01*
X331474Y51531D01*
X331447Y51444D01*
X331413Y51359D01*
X331409Y51318D01*
X331402Y51296D01*
X331403Y51264D01*
X331395Y51193D01*
X331395Y46318D01*
X330502Y45425D01*
X319738Y45425D01*
X318845Y46318D01*
X318845Y57082D01*
X319738Y57975D01*
X324613Y57975D01*
X324703Y57989D01*
X324794Y57997D01*
X324823Y58009D01*
X324855Y58014D01*
X324936Y58057D01*
X325020Y58093D01*
X325052Y58119D01*
X325073Y58130D01*
X325095Y58153D01*
X325151Y58198D01*
X331754Y64801D01*
X331807Y64875D01*
X331867Y64945D01*
X331879Y64975D01*
X331898Y65001D01*
X331925Y65088D01*
X331959Y65173D01*
X331963Y65214D01*
X331970Y65236D01*
X331969Y65268D01*
X331977Y65339D01*
X331977Y106891D01*
X331963Y106980D01*
X331955Y107072D01*
X331943Y107101D01*
X331938Y107133D01*
X331895Y107214D01*
X331859Y107298D01*
X331833Y107330D01*
X331822Y107351D01*
X331799Y107373D01*
X331754Y107429D01*
X330674Y108509D01*
X330616Y108551D01*
X330564Y108600D01*
X330517Y108622D01*
X330475Y108652D01*
X330406Y108674D01*
X330341Y108704D01*
X330289Y108709D01*
X330239Y108725D01*
X330168Y108723D01*
X330097Y108731D01*
X330046Y108720D01*
X329994Y108718D01*
X329926Y108694D01*
X329856Y108679D01*
X329811Y108652D01*
X329763Y108634D01*
X329707Y108589D01*
X329645Y108552D01*
X329611Y108513D01*
X329571Y108480D01*
X329532Y108420D01*
X329485Y108366D01*
X329466Y108317D01*
X329438Y108273D01*
X329420Y108204D01*
X329393Y108137D01*
X329385Y108066D01*
X329377Y108035D01*
X329379Y108012D01*
X329375Y107971D01*
X329375Y102168D01*
X328482Y101275D01*
X325107Y101275D01*
X325017Y101261D01*
X324926Y101253D01*
X324897Y101241D01*
X324865Y101236D01*
X324784Y101193D01*
X324700Y101157D01*
X324668Y101131D01*
X324647Y101120D01*
X324625Y101097D01*
X324623Y101096D01*
X324620Y101093D01*
X324569Y101052D01*
X311698Y88181D01*
X311645Y88107D01*
X311585Y88037D01*
X311573Y88007D01*
X311554Y87981D01*
X311527Y87894D01*
X311493Y87809D01*
X311489Y87768D01*
X311482Y87746D01*
X311483Y87714D01*
X311475Y87643D01*
X311475Y84268D01*
X310746Y83539D01*
X310693Y83465D01*
X310633Y83396D01*
X310621Y83366D01*
X310602Y83340D01*
X310575Y83253D01*
X310541Y83168D01*
X310537Y83127D01*
X310530Y83105D01*
X310531Y83072D01*
X310523Y83001D01*
X310523Y58736D01*
X310526Y58716D01*
X310524Y58697D01*
X310546Y58595D01*
X310562Y58493D01*
X310572Y58476D01*
X310576Y58456D01*
X310629Y58367D01*
X310678Y58276D01*
X310692Y58262D01*
X310702Y58245D01*
X310781Y58178D01*
X310856Y58106D01*
X310874Y58098D01*
X310889Y58085D01*
X310985Y58046D01*
X311079Y58003D01*
X311099Y58001D01*
X311117Y57993D01*
X311284Y57975D01*
X312722Y57975D01*
X313615Y57082D01*
X313615Y46318D01*
X312722Y45425D01*
X301958Y45425D01*
G37*
%LPD*%
%LPC*%
G36*
X99614Y171767D02*
X99614Y171767D01*
X96805Y174576D01*
X96805Y178548D01*
X97820Y179563D01*
X97873Y179637D01*
X97933Y179706D01*
X97945Y179737D01*
X97964Y179763D01*
X97991Y179850D01*
X98025Y179935D01*
X98029Y179976D01*
X98036Y179998D01*
X98035Y180030D01*
X98043Y180101D01*
X98043Y211023D01*
X142270Y255250D01*
X142313Y255309D01*
X142357Y255356D01*
X142365Y255373D01*
X142383Y255394D01*
X142395Y255424D01*
X142414Y255450D01*
X142439Y255532D01*
X142461Y255579D01*
X142462Y255591D01*
X142475Y255622D01*
X142479Y255663D01*
X142486Y255685D01*
X142485Y255717D01*
X142493Y255789D01*
X142493Y259664D01*
X142490Y259684D01*
X142492Y259703D01*
X142470Y259805D01*
X142454Y259907D01*
X142444Y259924D01*
X142440Y259944D01*
X142387Y260033D01*
X142338Y260124D01*
X142324Y260138D01*
X142314Y260155D01*
X142235Y260222D01*
X142160Y260294D01*
X142142Y260302D01*
X142127Y260315D01*
X142031Y260354D01*
X141937Y260397D01*
X141917Y260399D01*
X141899Y260407D01*
X141732Y260425D01*
X139768Y260425D01*
X138875Y261318D01*
X138875Y272082D01*
X139768Y272975D01*
X141732Y272975D01*
X141752Y272978D01*
X141771Y272976D01*
X141873Y272998D01*
X141975Y273014D01*
X141992Y273024D01*
X142012Y273028D01*
X142101Y273081D01*
X142192Y273130D01*
X142206Y273144D01*
X142223Y273154D01*
X142290Y273233D01*
X142362Y273308D01*
X142370Y273326D01*
X142383Y273341D01*
X142422Y273437D01*
X142465Y273531D01*
X142467Y273551D01*
X142475Y273569D01*
X142493Y273736D01*
X142493Y287274D01*
X142490Y287294D01*
X142492Y287313D01*
X142470Y287415D01*
X142454Y287517D01*
X142444Y287534D01*
X142440Y287554D01*
X142387Y287643D01*
X142338Y287734D01*
X142324Y287748D01*
X142314Y287765D01*
X142235Y287832D01*
X142160Y287904D01*
X142142Y287912D01*
X142127Y287925D01*
X142031Y287964D01*
X141937Y288007D01*
X141917Y288009D01*
X141899Y288017D01*
X141737Y288035D01*
X135635Y294136D01*
X135635Y302764D01*
X141736Y308865D01*
X150364Y308865D01*
X156465Y302764D01*
X156465Y294136D01*
X150363Y288034D01*
X150348Y288032D01*
X150329Y288034D01*
X150227Y288012D01*
X150125Y287996D01*
X150108Y287986D01*
X150088Y287982D01*
X149999Y287929D01*
X149908Y287880D01*
X149894Y287866D01*
X149877Y287856D01*
X149810Y287777D01*
X149738Y287702D01*
X149730Y287684D01*
X149717Y287669D01*
X149678Y287573D01*
X149635Y287479D01*
X149633Y287459D01*
X149625Y287441D01*
X149607Y287274D01*
X149607Y273736D01*
X149610Y273716D01*
X149608Y273697D01*
X149630Y273595D01*
X149646Y273493D01*
X149656Y273476D01*
X149660Y273456D01*
X149713Y273367D01*
X149762Y273276D01*
X149776Y273262D01*
X149786Y273245D01*
X149865Y273178D01*
X149940Y273106D01*
X149958Y273098D01*
X149973Y273085D01*
X150069Y273046D01*
X150163Y273003D01*
X150183Y273001D01*
X150201Y272993D01*
X150368Y272975D01*
X150532Y272975D01*
X151425Y272082D01*
X151425Y261318D01*
X150532Y260425D01*
X150368Y260425D01*
X150348Y260422D01*
X150329Y260424D01*
X150227Y260402D01*
X150125Y260386D01*
X150108Y260376D01*
X150088Y260372D01*
X149999Y260319D01*
X149908Y260270D01*
X149894Y260256D01*
X149877Y260246D01*
X149810Y260167D01*
X149738Y260092D01*
X149730Y260074D01*
X149717Y260059D01*
X149678Y259963D01*
X149635Y259869D01*
X149633Y259849D01*
X149625Y259831D01*
X149607Y259664D01*
X149607Y252527D01*
X105380Y208300D01*
X105327Y208226D01*
X105267Y208156D01*
X105255Y208126D01*
X105236Y208100D01*
X105209Y208013D01*
X105175Y207928D01*
X105171Y207887D01*
X105164Y207865D01*
X105165Y207833D01*
X105157Y207761D01*
X105157Y180101D01*
X105171Y180011D01*
X105179Y179920D01*
X105191Y179891D01*
X105196Y179859D01*
X105239Y179778D01*
X105275Y179694D01*
X105301Y179662D01*
X105312Y179641D01*
X105335Y179619D01*
X105380Y179563D01*
X105776Y179167D01*
X105834Y179125D01*
X105886Y179076D01*
X105933Y179054D01*
X105975Y179023D01*
X106044Y179002D01*
X106109Y178972D01*
X106161Y178966D01*
X106211Y178951D01*
X106282Y178953D01*
X106353Y178945D01*
X106404Y178956D01*
X106456Y178957D01*
X106524Y178982D01*
X106594Y178997D01*
X106639Y179024D01*
X106687Y179042D01*
X106743Y179087D01*
X106805Y179124D01*
X106839Y179163D01*
X106879Y179196D01*
X106918Y179256D01*
X106965Y179310D01*
X106984Y179359D01*
X107012Y179403D01*
X107030Y179472D01*
X107057Y179539D01*
X107065Y179610D01*
X107073Y179641D01*
X107071Y179664D01*
X107075Y179705D01*
X107075Y181432D01*
X107968Y182325D01*
X129232Y182325D01*
X130125Y181432D01*
X130125Y174168D01*
X129232Y173275D01*
X107968Y173275D01*
X107070Y174174D01*
X107053Y174186D01*
X107041Y174201D01*
X106954Y174257D01*
X106870Y174318D01*
X106851Y174324D01*
X106834Y174334D01*
X106734Y174360D01*
X106635Y174390D01*
X106615Y174390D01*
X106595Y174394D01*
X106492Y174386D01*
X106389Y174384D01*
X106370Y174377D01*
X106350Y174375D01*
X106255Y174335D01*
X106158Y174299D01*
X106142Y174287D01*
X106124Y174279D01*
X105993Y174174D01*
X103586Y171767D01*
X99614Y171767D01*
G37*
%LPD*%
%LPC*%
G36*
X200968Y160575D02*
X200968Y160575D01*
X200075Y161468D01*
X200075Y168732D01*
X200968Y169625D01*
X222232Y169625D01*
X222977Y168880D01*
X223051Y168827D01*
X223120Y168767D01*
X223150Y168755D01*
X223176Y168736D01*
X223263Y168709D01*
X223348Y168675D01*
X223389Y168671D01*
X223411Y168664D01*
X223444Y168665D01*
X223515Y168657D01*
X233161Y168657D01*
X233252Y168671D01*
X233342Y168679D01*
X233372Y168691D01*
X233404Y168696D01*
X233485Y168739D01*
X233569Y168775D01*
X233601Y168801D01*
X233622Y168812D01*
X233644Y168835D01*
X233700Y168880D01*
X250220Y185400D01*
X250273Y185474D01*
X250333Y185544D01*
X250345Y185574D01*
X250364Y185600D01*
X250391Y185687D01*
X250425Y185772D01*
X250429Y185813D01*
X250436Y185835D01*
X250435Y185867D01*
X250443Y185939D01*
X250443Y287274D01*
X250440Y287294D01*
X250442Y287313D01*
X250420Y287415D01*
X250404Y287517D01*
X250394Y287534D01*
X250390Y287554D01*
X250337Y287643D01*
X250288Y287734D01*
X250274Y287748D01*
X250264Y287765D01*
X250185Y287832D01*
X250110Y287904D01*
X250092Y287912D01*
X250077Y287925D01*
X249981Y287964D01*
X249887Y288007D01*
X249867Y288009D01*
X249849Y288017D01*
X249682Y288035D01*
X243336Y288035D01*
X237235Y294136D01*
X237235Y302764D01*
X243336Y308865D01*
X251964Y308865D01*
X258065Y302764D01*
X258065Y294136D01*
X257780Y293851D01*
X257727Y293777D01*
X257667Y293708D01*
X257655Y293677D01*
X257636Y293651D01*
X257609Y293564D01*
X257575Y293479D01*
X257571Y293439D01*
X257564Y293416D01*
X257565Y293384D01*
X257557Y293313D01*
X257557Y182677D01*
X236423Y161543D01*
X223515Y161543D01*
X223425Y161529D01*
X223334Y161521D01*
X223304Y161509D01*
X223272Y161504D01*
X223191Y161461D01*
X223108Y161425D01*
X223075Y161399D01*
X223055Y161388D01*
X223033Y161365D01*
X222977Y161320D01*
X222232Y160575D01*
X200968Y160575D01*
G37*
%LPD*%
%LPC*%
G36*
X80564Y26955D02*
X80564Y26955D01*
X77755Y29764D01*
X77755Y33736D01*
X80564Y36545D01*
X84536Y36545D01*
X85551Y35530D01*
X85625Y35477D01*
X85694Y35417D01*
X85725Y35405D01*
X85751Y35386D01*
X85838Y35359D01*
X85923Y35325D01*
X85964Y35321D01*
X85986Y35314D01*
X86018Y35315D01*
X86089Y35307D01*
X118861Y35307D01*
X118952Y35321D01*
X119042Y35329D01*
X119072Y35341D01*
X119104Y35346D01*
X119185Y35389D01*
X119269Y35425D01*
X119301Y35451D01*
X119322Y35462D01*
X119344Y35485D01*
X119400Y35530D01*
X161320Y77450D01*
X161373Y77524D01*
X161433Y77594D01*
X161445Y77624D01*
X161464Y77650D01*
X161491Y77737D01*
X161525Y77822D01*
X161529Y77863D01*
X161536Y77885D01*
X161535Y77917D01*
X161543Y77989D01*
X161543Y120073D01*
X172027Y130557D01*
X199685Y130557D01*
X199775Y130571D01*
X199866Y130579D01*
X199896Y130591D01*
X199928Y130596D01*
X200009Y130639D01*
X200092Y130675D01*
X200125Y130701D01*
X200145Y130712D01*
X200167Y130735D01*
X200223Y130780D01*
X200968Y131525D01*
X222232Y131525D01*
X223125Y130632D01*
X223125Y123368D01*
X222232Y122475D01*
X200968Y122475D01*
X200223Y123220D01*
X200149Y123273D01*
X200080Y123333D01*
X200050Y123345D01*
X200024Y123364D01*
X199937Y123391D01*
X199852Y123425D01*
X199811Y123429D01*
X199789Y123436D01*
X199756Y123435D01*
X199685Y123443D01*
X175289Y123443D01*
X175198Y123429D01*
X175108Y123421D01*
X175078Y123409D01*
X175046Y123404D01*
X174965Y123361D01*
X174881Y123325D01*
X174849Y123299D01*
X174828Y123288D01*
X174806Y123265D01*
X174750Y123220D01*
X168880Y117350D01*
X168827Y117276D01*
X168767Y117206D01*
X168755Y117176D01*
X168736Y117150D01*
X168709Y117063D01*
X168675Y116978D01*
X168671Y116937D01*
X168664Y116915D01*
X168665Y116883D01*
X168657Y116811D01*
X168657Y74727D01*
X122123Y28193D01*
X86089Y28193D01*
X85999Y28179D01*
X85908Y28171D01*
X85879Y28159D01*
X85847Y28154D01*
X85766Y28111D01*
X85682Y28075D01*
X85650Y28049D01*
X85629Y28038D01*
X85609Y28017D01*
X85607Y28016D01*
X85602Y28011D01*
X85551Y27970D01*
X84536Y26955D01*
X80564Y26955D01*
G37*
%LPD*%
%LPC*%
G36*
X200968Y173275D02*
X200968Y173275D01*
X200075Y174168D01*
X200075Y181432D01*
X200968Y182325D01*
X222232Y182325D01*
X222977Y181580D01*
X223051Y181527D01*
X223120Y181467D01*
X223150Y181455D01*
X223176Y181436D01*
X223263Y181409D01*
X223348Y181375D01*
X223389Y181371D01*
X223411Y181364D01*
X223444Y181365D01*
X223515Y181357D01*
X226811Y181357D01*
X226902Y181371D01*
X226992Y181379D01*
X227022Y181391D01*
X227054Y181396D01*
X227135Y181439D01*
X227219Y181475D01*
X227251Y181501D01*
X227272Y181512D01*
X227294Y181535D01*
X227350Y181580D01*
X237520Y191750D01*
X237573Y191824D01*
X237633Y191894D01*
X237645Y191924D01*
X237664Y191950D01*
X237691Y192037D01*
X237725Y192122D01*
X237729Y192163D01*
X237736Y192185D01*
X237735Y192217D01*
X237743Y192289D01*
X237743Y277611D01*
X237729Y277702D01*
X237721Y277792D01*
X237709Y277822D01*
X237704Y277854D01*
X237661Y277935D01*
X237625Y278019D01*
X237599Y278051D01*
X237588Y278072D01*
X237565Y278094D01*
X237520Y278150D01*
X227638Y288032D01*
X227621Y288044D01*
X227609Y288060D01*
X227522Y288116D01*
X227438Y288176D01*
X227419Y288182D01*
X227402Y288193D01*
X227302Y288218D01*
X227203Y288248D01*
X227183Y288248D01*
X227163Y288253D01*
X227060Y288245D01*
X226957Y288242D01*
X226938Y288235D01*
X226918Y288234D01*
X226823Y288193D01*
X226726Y288158D01*
X226710Y288145D01*
X226692Y288137D01*
X226565Y288035D01*
X217936Y288035D01*
X211835Y294136D01*
X211835Y302764D01*
X217936Y308865D01*
X226564Y308865D01*
X232665Y302764D01*
X232665Y294135D01*
X232656Y294123D01*
X232640Y294110D01*
X232584Y294023D01*
X232524Y293939D01*
X232518Y293920D01*
X232507Y293903D01*
X232482Y293803D01*
X232452Y293704D01*
X232452Y293684D01*
X232447Y293665D01*
X232455Y293562D01*
X232458Y293458D01*
X232465Y293440D01*
X232466Y293420D01*
X232507Y293325D01*
X232542Y293227D01*
X232555Y293212D01*
X232563Y293193D01*
X232668Y293062D01*
X242550Y283180D01*
X244857Y280873D01*
X244857Y189027D01*
X242550Y186720D01*
X232380Y176550D01*
X230073Y174243D01*
X223515Y174243D01*
X223425Y174229D01*
X223334Y174221D01*
X223304Y174209D01*
X223272Y174204D01*
X223191Y174161D01*
X223108Y174125D01*
X223075Y174099D01*
X223055Y174088D01*
X223033Y174065D01*
X222977Y174020D01*
X222232Y173275D01*
X200968Y173275D01*
G37*
%LPD*%
%LPC*%
G36*
X107968Y109775D02*
X107968Y109775D01*
X107075Y110668D01*
X107075Y117932D01*
X107968Y118825D01*
X129232Y118825D01*
X129977Y118080D01*
X130051Y118027D01*
X130120Y117967D01*
X130150Y117955D01*
X130176Y117936D01*
X130263Y117909D01*
X130348Y117875D01*
X130389Y117871D01*
X130411Y117864D01*
X130444Y117865D01*
X130515Y117857D01*
X131561Y117857D01*
X131652Y117871D01*
X131742Y117879D01*
X131772Y117891D01*
X131804Y117896D01*
X131885Y117939D01*
X131969Y117975D01*
X132001Y118001D01*
X132022Y118012D01*
X132044Y118035D01*
X132100Y118080D01*
X135920Y121900D01*
X135973Y121974D01*
X136033Y122044D01*
X136045Y122074D01*
X136064Y122100D01*
X136091Y122187D01*
X136125Y122272D01*
X136129Y122313D01*
X136136Y122335D01*
X136135Y122367D01*
X136143Y122439D01*
X136143Y147523D01*
X169977Y181357D01*
X180611Y181357D01*
X180701Y181371D01*
X180792Y181379D01*
X180821Y181391D01*
X180853Y181396D01*
X180934Y181439D01*
X181018Y181475D01*
X181050Y181501D01*
X181071Y181512D01*
X181093Y181535D01*
X181149Y181580D01*
X182164Y182595D01*
X186136Y182595D01*
X188945Y179786D01*
X188945Y175814D01*
X186136Y173005D01*
X182164Y173005D01*
X181149Y174020D01*
X181075Y174073D01*
X181006Y174133D01*
X180975Y174145D01*
X180949Y174164D01*
X180862Y174191D01*
X180777Y174225D01*
X180736Y174229D01*
X180714Y174236D01*
X180682Y174235D01*
X180611Y174243D01*
X173239Y174243D01*
X173148Y174229D01*
X173058Y174221D01*
X173028Y174209D01*
X172996Y174204D01*
X172915Y174161D01*
X172831Y174125D01*
X172799Y174099D01*
X172778Y174088D01*
X172756Y174065D01*
X172700Y174020D01*
X157174Y158494D01*
X157132Y158436D01*
X157083Y158384D01*
X157061Y158337D01*
X157031Y158295D01*
X157010Y158226D01*
X156979Y158161D01*
X156974Y158109D01*
X156958Y158059D01*
X156960Y157988D01*
X156952Y157917D01*
X156963Y157866D01*
X156965Y157814D01*
X156989Y157746D01*
X157005Y157676D01*
X157031Y157631D01*
X157049Y157583D01*
X157094Y157527D01*
X157131Y157465D01*
X157170Y157431D01*
X157203Y157391D01*
X157263Y157352D01*
X157318Y157305D01*
X157366Y157286D01*
X157410Y157258D01*
X157479Y157240D01*
X157546Y157213D01*
X157617Y157205D01*
X157648Y157197D01*
X157672Y157199D01*
X157713Y157195D01*
X160736Y157195D01*
X161751Y156180D01*
X161825Y156127D01*
X161894Y156067D01*
X161925Y156055D01*
X161951Y156036D01*
X162038Y156009D01*
X162123Y155975D01*
X162164Y155971D01*
X162186Y155964D01*
X162218Y155965D01*
X162289Y155957D01*
X199685Y155957D01*
X199775Y155971D01*
X199866Y155979D01*
X199896Y155991D01*
X199928Y155996D01*
X200009Y156039D01*
X200092Y156075D01*
X200125Y156101D01*
X200145Y156112D01*
X200167Y156135D01*
X200223Y156180D01*
X200968Y156925D01*
X222232Y156925D01*
X223125Y156032D01*
X223125Y148768D01*
X222232Y147875D01*
X200968Y147875D01*
X200223Y148620D01*
X200149Y148673D01*
X200080Y148733D01*
X200050Y148745D01*
X200024Y148764D01*
X199937Y148791D01*
X199852Y148825D01*
X199811Y148829D01*
X199789Y148836D01*
X199756Y148835D01*
X199685Y148843D01*
X162289Y148843D01*
X162199Y148829D01*
X162108Y148821D01*
X162079Y148809D01*
X162047Y148804D01*
X161966Y148761D01*
X161882Y148725D01*
X161850Y148699D01*
X161829Y148688D01*
X161807Y148665D01*
X161751Y148620D01*
X160736Y147605D01*
X156764Y147605D01*
X153955Y150414D01*
X153955Y153437D01*
X153944Y153508D01*
X153942Y153580D01*
X153924Y153629D01*
X153916Y153680D01*
X153882Y153744D01*
X153857Y153811D01*
X153825Y153852D01*
X153800Y153898D01*
X153748Y153947D01*
X153704Y154003D01*
X153660Y154031D01*
X153622Y154067D01*
X153557Y154097D01*
X153497Y154136D01*
X153446Y154149D01*
X153399Y154171D01*
X153328Y154179D01*
X153258Y154196D01*
X153206Y154192D01*
X153155Y154198D01*
X153084Y154182D01*
X153013Y154177D01*
X152965Y154157D01*
X152914Y154145D01*
X152853Y154109D01*
X152787Y154081D01*
X152731Y154036D01*
X152703Y154019D01*
X152688Y154001D01*
X152656Y153976D01*
X143480Y144800D01*
X143427Y144726D01*
X143367Y144656D01*
X143355Y144626D01*
X143336Y144600D01*
X143309Y144513D01*
X143275Y144428D01*
X143271Y144387D01*
X143264Y144365D01*
X143265Y144333D01*
X143257Y144261D01*
X143257Y119177D01*
X134823Y110743D01*
X130515Y110743D01*
X130425Y110729D01*
X130334Y110721D01*
X130304Y110709D01*
X130272Y110704D01*
X130191Y110661D01*
X130108Y110625D01*
X130075Y110599D01*
X130055Y110588D01*
X130033Y110565D01*
X129977Y110520D01*
X129232Y109775D01*
X107968Y109775D01*
G37*
%LPD*%
%LPC*%
G36*
X40136Y135635D02*
X40136Y135635D01*
X34035Y141736D01*
X34035Y150364D01*
X40136Y156465D01*
X48765Y156465D01*
X48777Y156456D01*
X48790Y156440D01*
X48877Y156384D01*
X48961Y156324D01*
X48980Y156318D01*
X48997Y156307D01*
X49097Y156282D01*
X49196Y156252D01*
X49216Y156252D01*
X49235Y156247D01*
X49338Y156255D01*
X49442Y156258D01*
X49460Y156265D01*
X49480Y156266D01*
X49575Y156307D01*
X49673Y156342D01*
X49688Y156355D01*
X49707Y156363D01*
X49838Y156468D01*
X59720Y166350D01*
X62027Y168657D01*
X106685Y168657D01*
X106775Y168671D01*
X106866Y168679D01*
X106896Y168691D01*
X106928Y168696D01*
X107009Y168739D01*
X107092Y168775D01*
X107125Y168801D01*
X107145Y168812D01*
X107167Y168835D01*
X107223Y168880D01*
X107968Y169625D01*
X129232Y169625D01*
X130125Y168732D01*
X130125Y161468D01*
X129232Y160575D01*
X107968Y160575D01*
X107223Y161320D01*
X107149Y161373D01*
X107080Y161433D01*
X107050Y161445D01*
X107024Y161464D01*
X106937Y161491D01*
X106852Y161525D01*
X106811Y161529D01*
X106789Y161536D01*
X106756Y161535D01*
X106685Y161543D01*
X65289Y161543D01*
X65198Y161529D01*
X65108Y161521D01*
X65078Y161509D01*
X65046Y161504D01*
X64965Y161461D01*
X64881Y161425D01*
X64849Y161399D01*
X64828Y161388D01*
X64806Y161365D01*
X64750Y161320D01*
X54868Y151438D01*
X54856Y151421D01*
X54840Y151409D01*
X54784Y151322D01*
X54724Y151238D01*
X54718Y151219D01*
X54707Y151202D01*
X54682Y151102D01*
X54652Y151003D01*
X54652Y150983D01*
X54647Y150963D01*
X54655Y150860D01*
X54658Y150757D01*
X54665Y150738D01*
X54666Y150718D01*
X54707Y150623D01*
X54742Y150526D01*
X54755Y150510D01*
X54763Y150492D01*
X54865Y150365D01*
X54865Y141736D01*
X48764Y135635D01*
X40136Y135635D01*
G37*
%LPD*%
%LPC*%
G36*
X40136Y84835D02*
X40136Y84835D01*
X34035Y90936D01*
X34035Y99564D01*
X40136Y105665D01*
X48764Y105665D01*
X49049Y105380D01*
X49123Y105327D01*
X49192Y105267D01*
X49223Y105255D01*
X49249Y105236D01*
X49336Y105209D01*
X49421Y105175D01*
X49461Y105171D01*
X49484Y105164D01*
X49516Y105165D01*
X49587Y105157D01*
X106685Y105157D01*
X106775Y105171D01*
X106866Y105179D01*
X106896Y105191D01*
X106928Y105196D01*
X107009Y105239D01*
X107092Y105275D01*
X107125Y105301D01*
X107145Y105312D01*
X107167Y105335D01*
X107223Y105380D01*
X107968Y106125D01*
X129232Y106125D01*
X130125Y105232D01*
X130125Y97968D01*
X129232Y97075D01*
X107968Y97075D01*
X107223Y97820D01*
X107149Y97873D01*
X107080Y97933D01*
X107050Y97945D01*
X107024Y97964D01*
X106937Y97991D01*
X106852Y98025D01*
X106811Y98029D01*
X106789Y98036D01*
X106756Y98035D01*
X106685Y98043D01*
X55626Y98043D01*
X55606Y98040D01*
X55587Y98042D01*
X55485Y98020D01*
X55383Y98004D01*
X55366Y97994D01*
X55346Y97990D01*
X55257Y97937D01*
X55166Y97888D01*
X55152Y97874D01*
X55135Y97864D01*
X55068Y97785D01*
X54996Y97710D01*
X54988Y97692D01*
X54975Y97677D01*
X54936Y97581D01*
X54893Y97487D01*
X54891Y97467D01*
X54883Y97449D01*
X54865Y97282D01*
X54865Y90936D01*
X48764Y84835D01*
X40136Y84835D01*
G37*
%LPD*%
%LPC*%
G36*
X283764Y160305D02*
X283764Y160305D01*
X280955Y163114D01*
X280941Y163203D01*
X280933Y163294D01*
X280921Y163323D01*
X280916Y163355D01*
X280873Y163436D01*
X280837Y163520D01*
X280811Y163552D01*
X280800Y163573D01*
X280777Y163595D01*
X280732Y163651D01*
X277531Y166852D01*
X277457Y166905D01*
X277387Y166965D01*
X277357Y166977D01*
X277331Y166996D01*
X277244Y167023D01*
X277159Y167057D01*
X277118Y167061D01*
X277096Y167068D01*
X277064Y167067D01*
X276993Y167075D01*
X268418Y167075D01*
X267525Y167968D01*
X267525Y177232D01*
X268418Y178125D01*
X271793Y178125D01*
X271883Y178139D01*
X271974Y178147D01*
X272003Y178159D01*
X272035Y178164D01*
X272116Y178207D01*
X272200Y178243D01*
X272232Y178269D01*
X272253Y178280D01*
X272264Y178291D01*
X272265Y178292D01*
X272277Y178305D01*
X272331Y178348D01*
X285202Y191219D01*
X285255Y191293D01*
X285315Y191363D01*
X285327Y191393D01*
X285346Y191419D01*
X285373Y191506D01*
X285407Y191591D01*
X285411Y191632D01*
X285418Y191654D01*
X285417Y191686D01*
X285425Y191757D01*
X285425Y195132D01*
X286318Y196025D01*
X295582Y196025D01*
X296475Y195132D01*
X296475Y185868D01*
X295582Y184975D01*
X292207Y184975D01*
X292117Y184961D01*
X292026Y184953D01*
X291997Y184941D01*
X291965Y184936D01*
X291884Y184893D01*
X291800Y184857D01*
X291768Y184831D01*
X291747Y184820D01*
X291725Y184797D01*
X291669Y184752D01*
X282655Y175738D01*
X282643Y175722D01*
X282628Y175710D01*
X282572Y175622D01*
X282512Y175539D01*
X282506Y175520D01*
X282495Y175503D01*
X282470Y175402D01*
X282439Y175303D01*
X282440Y175284D01*
X282435Y175264D01*
X282443Y175161D01*
X282446Y175058D01*
X282452Y175039D01*
X282454Y175019D01*
X282494Y174924D01*
X282530Y174827D01*
X282543Y174811D01*
X282550Y174793D01*
X282655Y174662D01*
X287199Y170118D01*
X287273Y170065D01*
X287343Y170005D01*
X287373Y169993D01*
X287399Y169974D01*
X287486Y169947D01*
X287571Y169913D01*
X287612Y169909D01*
X287634Y169902D01*
X287666Y169903D01*
X287736Y169895D01*
X290545Y167086D01*
X290545Y163114D01*
X287736Y160305D01*
X283764Y160305D01*
G37*
%LPD*%
%LPC*%
G36*
X309164Y160305D02*
X309164Y160305D01*
X306355Y163114D01*
X306355Y167086D01*
X309164Y169895D01*
X309253Y169909D01*
X309344Y169917D01*
X309373Y169929D01*
X309405Y169934D01*
X309486Y169977D01*
X309570Y170013D01*
X309602Y170039D01*
X309623Y170050D01*
X309645Y170073D01*
X309701Y170118D01*
X314245Y174662D01*
X314256Y174678D01*
X314272Y174690D01*
X314328Y174778D01*
X314388Y174861D01*
X314394Y174880D01*
X314405Y174897D01*
X314430Y174998D01*
X314461Y175097D01*
X314460Y175116D01*
X314465Y175136D01*
X314457Y175239D01*
X314454Y175342D01*
X314448Y175361D01*
X314446Y175381D01*
X314406Y175476D01*
X314370Y175573D01*
X314357Y175589D01*
X314350Y175607D01*
X314245Y175738D01*
X305231Y184752D01*
X305157Y184805D01*
X305087Y184865D01*
X305057Y184877D01*
X305031Y184896D01*
X304944Y184923D01*
X304859Y184957D01*
X304818Y184961D01*
X304796Y184968D01*
X304764Y184967D01*
X304693Y184975D01*
X301318Y184975D01*
X300425Y185868D01*
X300425Y195132D01*
X301318Y196025D01*
X310582Y196025D01*
X311475Y195132D01*
X311475Y191757D01*
X311489Y191667D01*
X311497Y191576D01*
X311509Y191547D01*
X311514Y191515D01*
X311557Y191434D01*
X311593Y191350D01*
X311619Y191318D01*
X311630Y191297D01*
X311653Y191275D01*
X311698Y191219D01*
X324569Y178348D01*
X324643Y178295D01*
X324713Y178235D01*
X324743Y178223D01*
X324769Y178204D01*
X324856Y178177D01*
X324941Y178143D01*
X324982Y178139D01*
X325004Y178132D01*
X325036Y178133D01*
X325107Y178125D01*
X328482Y178125D01*
X329375Y177232D01*
X329375Y167968D01*
X328482Y167075D01*
X319907Y167075D01*
X319817Y167061D01*
X319726Y167053D01*
X319697Y167041D01*
X319665Y167036D01*
X319584Y166993D01*
X319500Y166957D01*
X319468Y166931D01*
X319447Y166920D01*
X319425Y166897D01*
X319369Y166852D01*
X316168Y163651D01*
X316115Y163577D01*
X316055Y163507D01*
X316043Y163477D01*
X316024Y163451D01*
X315997Y163364D01*
X315963Y163279D01*
X315959Y163238D01*
X315952Y163216D01*
X315953Y163184D01*
X315945Y163114D01*
X313136Y160305D01*
X309164Y160305D01*
G37*
%LPD*%
%LPC*%
G36*
X175814Y84105D02*
X175814Y84105D01*
X173005Y86914D01*
X173005Y90886D01*
X175814Y93695D01*
X179786Y93695D01*
X181309Y92172D01*
X181383Y92119D01*
X181452Y92059D01*
X181483Y92047D01*
X181509Y92028D01*
X181596Y92001D01*
X181681Y91967D01*
X181722Y91963D01*
X181744Y91956D01*
X181776Y91957D01*
X181847Y91949D01*
X199314Y91949D01*
X199334Y91952D01*
X199353Y91950D01*
X199455Y91972D01*
X199557Y91988D01*
X199574Y91998D01*
X199594Y92002D01*
X199683Y92055D01*
X199774Y92104D01*
X199788Y92118D01*
X199805Y92128D01*
X199872Y92207D01*
X199944Y92282D01*
X199952Y92300D01*
X199965Y92315D01*
X200004Y92411D01*
X200046Y92502D01*
X200968Y93425D01*
X222232Y93425D01*
X223125Y92532D01*
X223125Y85268D01*
X222232Y84375D01*
X200968Y84375D01*
X200040Y85303D01*
X200036Y85333D01*
X200026Y85350D01*
X200022Y85370D01*
X199969Y85459D01*
X199920Y85550D01*
X199906Y85564D01*
X199896Y85581D01*
X199817Y85648D01*
X199742Y85720D01*
X199724Y85728D01*
X199709Y85741D01*
X199613Y85780D01*
X199519Y85823D01*
X199499Y85825D01*
X199481Y85833D01*
X199314Y85851D01*
X181847Y85851D01*
X181757Y85837D01*
X181666Y85829D01*
X181637Y85817D01*
X181605Y85812D01*
X181524Y85769D01*
X181440Y85733D01*
X181408Y85707D01*
X181387Y85696D01*
X181365Y85673D01*
X181309Y85628D01*
X179786Y84105D01*
X175814Y84105D01*
G37*
%LPD*%
%LPC*%
G36*
X40136Y161035D02*
X40136Y161035D01*
X34035Y167136D01*
X34035Y175764D01*
X40136Y181865D01*
X48764Y181865D01*
X54865Y175764D01*
X54865Y167136D01*
X48764Y161035D01*
X40136Y161035D01*
G37*
%LPD*%
%LPC*%
G36*
X370336Y148335D02*
X370336Y148335D01*
X364235Y154436D01*
X364235Y163064D01*
X370336Y169165D01*
X378964Y169165D01*
X385065Y163064D01*
X385065Y154436D01*
X378964Y148335D01*
X370336Y148335D01*
G37*
%LPD*%
%LPC*%
G36*
X40136Y59435D02*
X40136Y59435D01*
X34035Y65536D01*
X34035Y74164D01*
X40136Y80265D01*
X48764Y80265D01*
X54865Y74164D01*
X54865Y65536D01*
X48764Y59435D01*
X40136Y59435D01*
G37*
%LPD*%
%LPC*%
G36*
X40136Y186435D02*
X40136Y186435D01*
X34035Y192536D01*
X34035Y201164D01*
X40136Y207265D01*
X48764Y207265D01*
X54865Y201164D01*
X54865Y192536D01*
X48764Y186435D01*
X40136Y186435D01*
G37*
%LPD*%
%LPC*%
G36*
X40136Y211835D02*
X40136Y211835D01*
X34035Y217936D01*
X34035Y226564D01*
X40136Y232665D01*
X48764Y232665D01*
X54865Y226564D01*
X54865Y217936D01*
X48764Y211835D01*
X40136Y211835D01*
G37*
%LPD*%
%LPC*%
G36*
X370336Y122935D02*
X370336Y122935D01*
X364235Y129036D01*
X364235Y137664D01*
X370336Y143765D01*
X378964Y143765D01*
X385065Y137664D01*
X385065Y129036D01*
X378964Y122935D01*
X370336Y122935D01*
G37*
%LPD*%
%LPC*%
G36*
X268736Y288035D02*
X268736Y288035D01*
X262635Y294136D01*
X262635Y302764D01*
X268736Y308865D01*
X277364Y308865D01*
X283465Y302764D01*
X283465Y294136D01*
X277364Y288035D01*
X268736Y288035D01*
G37*
%LPD*%
%LPC*%
G36*
X40136Y110235D02*
X40136Y110235D01*
X34035Y116336D01*
X34035Y124964D01*
X40136Y131065D01*
X48764Y131065D01*
X54865Y124964D01*
X54865Y116336D01*
X48764Y110235D01*
X40136Y110235D01*
G37*
%LPD*%
%LPC*%
G36*
X232964Y71405D02*
X232964Y71405D01*
X231949Y72420D01*
X231875Y72473D01*
X231806Y72533D01*
X231775Y72545D01*
X231749Y72564D01*
X231662Y72591D01*
X231577Y72625D01*
X231536Y72629D01*
X231514Y72636D01*
X231482Y72635D01*
X231411Y72643D01*
X223515Y72643D01*
X223425Y72629D01*
X223334Y72621D01*
X223304Y72609D01*
X223272Y72604D01*
X223191Y72561D01*
X223108Y72525D01*
X223075Y72499D01*
X223055Y72488D01*
X223033Y72465D01*
X222977Y72420D01*
X222232Y71675D01*
X200968Y71675D01*
X200075Y72568D01*
X200075Y79832D01*
X200968Y80725D01*
X222232Y80725D01*
X222977Y79980D01*
X223051Y79927D01*
X223120Y79867D01*
X223150Y79855D01*
X223176Y79836D01*
X223263Y79809D01*
X223348Y79775D01*
X223389Y79771D01*
X223411Y79764D01*
X223444Y79765D01*
X223515Y79757D01*
X231411Y79757D01*
X231501Y79771D01*
X231592Y79779D01*
X231621Y79791D01*
X231653Y79796D01*
X231734Y79839D01*
X231818Y79875D01*
X231850Y79901D01*
X231871Y79912D01*
X231893Y79935D01*
X231949Y79980D01*
X232964Y80995D01*
X236936Y80995D01*
X239745Y78186D01*
X239745Y74214D01*
X236936Y71405D01*
X232964Y71405D01*
G37*
%LPD*%
%LPC*%
G36*
X93264Y84105D02*
X93264Y84105D01*
X90455Y86914D01*
X90455Y90886D01*
X93264Y93695D01*
X97236Y93695D01*
X98251Y92680D01*
X98325Y92627D01*
X98394Y92567D01*
X98425Y92555D01*
X98451Y92536D01*
X98538Y92509D01*
X98623Y92475D01*
X98664Y92471D01*
X98686Y92464D01*
X98718Y92465D01*
X98789Y92457D01*
X106685Y92457D01*
X106775Y92471D01*
X106866Y92479D01*
X106896Y92491D01*
X106928Y92496D01*
X107009Y92539D01*
X107092Y92575D01*
X107125Y92601D01*
X107145Y92612D01*
X107167Y92635D01*
X107223Y92680D01*
X107968Y93425D01*
X129232Y93425D01*
X130125Y92532D01*
X130125Y85268D01*
X129232Y84375D01*
X107968Y84375D01*
X107223Y85120D01*
X107149Y85173D01*
X107080Y85233D01*
X107050Y85245D01*
X107024Y85264D01*
X106937Y85291D01*
X106852Y85325D01*
X106811Y85329D01*
X106789Y85336D01*
X106756Y85335D01*
X106685Y85343D01*
X98789Y85343D01*
X98699Y85329D01*
X98608Y85321D01*
X98579Y85309D01*
X98547Y85304D01*
X98466Y85261D01*
X98382Y85225D01*
X98350Y85199D01*
X98329Y85188D01*
X98307Y85165D01*
X98251Y85120D01*
X97236Y84105D01*
X93264Y84105D01*
G37*
%LPD*%
%LPC*%
G36*
X93264Y134905D02*
X93264Y134905D01*
X90455Y137714D01*
X90455Y141686D01*
X93264Y144495D01*
X97236Y144495D01*
X98251Y143480D01*
X98325Y143427D01*
X98394Y143367D01*
X98425Y143355D01*
X98451Y143336D01*
X98538Y143309D01*
X98623Y143275D01*
X98664Y143271D01*
X98686Y143264D01*
X98718Y143265D01*
X98789Y143257D01*
X106685Y143257D01*
X106775Y143271D01*
X106866Y143279D01*
X106896Y143291D01*
X106928Y143296D01*
X107009Y143339D01*
X107092Y143375D01*
X107125Y143401D01*
X107145Y143412D01*
X107167Y143435D01*
X107223Y143480D01*
X107968Y144225D01*
X129232Y144225D01*
X130125Y143332D01*
X130125Y136068D01*
X129232Y135175D01*
X107968Y135175D01*
X107223Y135920D01*
X107149Y135973D01*
X107080Y136033D01*
X107050Y136045D01*
X107024Y136064D01*
X106937Y136091D01*
X106852Y136125D01*
X106811Y136129D01*
X106789Y136136D01*
X106756Y136135D01*
X106685Y136143D01*
X98789Y136143D01*
X98699Y136129D01*
X98608Y136121D01*
X98579Y136109D01*
X98547Y136104D01*
X98466Y136061D01*
X98382Y136025D01*
X98350Y135999D01*
X98329Y135988D01*
X98307Y135965D01*
X98251Y135920D01*
X97236Y134905D01*
X93264Y134905D01*
G37*
%LPD*%
%LPC*%
G36*
X319738Y30925D02*
X319738Y30925D01*
X318845Y31818D01*
X318845Y42582D01*
X319738Y43475D01*
X330502Y43475D01*
X331395Y42582D01*
X331395Y41518D01*
X331398Y41498D01*
X331396Y41479D01*
X331418Y41377D01*
X331434Y41275D01*
X331444Y41258D01*
X331448Y41238D01*
X331501Y41149D01*
X331550Y41058D01*
X331564Y41044D01*
X331574Y41027D01*
X331653Y40960D01*
X331728Y40888D01*
X331746Y40880D01*
X331761Y40867D01*
X331857Y40828D01*
X331951Y40785D01*
X331971Y40783D01*
X331989Y40775D01*
X332156Y40757D01*
X344811Y40757D01*
X344901Y40771D01*
X344992Y40779D01*
X345021Y40791D01*
X345053Y40796D01*
X345134Y40839D01*
X345218Y40875D01*
X345250Y40901D01*
X345271Y40912D01*
X345293Y40935D01*
X345349Y40980D01*
X347264Y42895D01*
X351236Y42895D01*
X354045Y40086D01*
X354045Y36114D01*
X351236Y33305D01*
X347264Y33305D01*
X347149Y33420D01*
X347075Y33473D01*
X347006Y33533D01*
X346975Y33545D01*
X346949Y33564D01*
X346862Y33591D01*
X346777Y33625D01*
X346736Y33629D01*
X346714Y33636D01*
X346682Y33635D01*
X346611Y33643D01*
X332156Y33643D01*
X332136Y33640D01*
X332117Y33642D01*
X332015Y33620D01*
X331913Y33604D01*
X331896Y33594D01*
X331876Y33590D01*
X331787Y33537D01*
X331696Y33488D01*
X331682Y33474D01*
X331665Y33464D01*
X331598Y33385D01*
X331526Y33310D01*
X331518Y33292D01*
X331505Y33277D01*
X331466Y33181D01*
X331423Y33087D01*
X331421Y33067D01*
X331413Y33049D01*
X331395Y32882D01*
X331395Y31818D01*
X330502Y30925D01*
X319738Y30925D01*
G37*
%LPD*%
%LPC*%
G36*
X188514Y96805D02*
X188514Y96805D01*
X185705Y99614D01*
X185705Y103586D01*
X188514Y106395D01*
X192486Y106395D01*
X194009Y104872D01*
X194083Y104819D01*
X194152Y104759D01*
X194183Y104747D01*
X194209Y104728D01*
X194296Y104701D01*
X194381Y104667D01*
X194422Y104663D01*
X194444Y104656D01*
X194476Y104657D01*
X194547Y104649D01*
X199314Y104649D01*
X199334Y104652D01*
X199353Y104650D01*
X199455Y104672D01*
X199557Y104688D01*
X199574Y104698D01*
X199594Y104702D01*
X199683Y104755D01*
X199774Y104804D01*
X199788Y104818D01*
X199805Y104828D01*
X199872Y104907D01*
X199944Y104982D01*
X199952Y105000D01*
X199965Y105015D01*
X200004Y105111D01*
X200046Y105202D01*
X200968Y106125D01*
X222232Y106125D01*
X223125Y105232D01*
X223125Y97968D01*
X222232Y97075D01*
X200968Y97075D01*
X200040Y98003D01*
X200036Y98033D01*
X200026Y98050D01*
X200022Y98070D01*
X199969Y98159D01*
X199920Y98250D01*
X199906Y98264D01*
X199896Y98281D01*
X199817Y98348D01*
X199742Y98420D01*
X199724Y98428D01*
X199709Y98441D01*
X199613Y98480D01*
X199519Y98523D01*
X199499Y98525D01*
X199481Y98533D01*
X199314Y98551D01*
X194547Y98551D01*
X194457Y98537D01*
X194366Y98529D01*
X194337Y98517D01*
X194305Y98512D01*
X194224Y98469D01*
X194140Y98433D01*
X194108Y98407D01*
X194087Y98396D01*
X194065Y98373D01*
X194009Y98328D01*
X192486Y96805D01*
X188514Y96805D01*
G37*
%LPD*%
%LPC*%
G36*
X305354Y12985D02*
X305354Y12985D01*
X302545Y15794D01*
X302545Y19766D01*
X303560Y20781D01*
X303602Y20840D01*
X303652Y20891D01*
X303660Y20909D01*
X303673Y20924D01*
X303685Y20955D01*
X303704Y20981D01*
X303725Y21050D01*
X303755Y21114D01*
X303757Y21134D01*
X303765Y21153D01*
X303769Y21194D01*
X303776Y21216D01*
X303775Y21248D01*
X303783Y21319D01*
X303783Y30164D01*
X303780Y30184D01*
X303782Y30203D01*
X303760Y30305D01*
X303744Y30407D01*
X303734Y30424D01*
X303730Y30444D01*
X303677Y30533D01*
X303628Y30624D01*
X303614Y30638D01*
X303604Y30655D01*
X303525Y30722D01*
X303450Y30794D01*
X303432Y30802D01*
X303417Y30815D01*
X303321Y30854D01*
X303227Y30897D01*
X303207Y30899D01*
X303189Y30907D01*
X303022Y30925D01*
X301958Y30925D01*
X301065Y31818D01*
X301065Y42582D01*
X301958Y43475D01*
X312722Y43475D01*
X313615Y42582D01*
X313615Y31818D01*
X312722Y30925D01*
X311658Y30925D01*
X311638Y30922D01*
X311619Y30924D01*
X311517Y30902D01*
X311415Y30886D01*
X311398Y30876D01*
X311378Y30872D01*
X311289Y30819D01*
X311198Y30770D01*
X311184Y30756D01*
X311167Y30746D01*
X311100Y30667D01*
X311028Y30592D01*
X311020Y30574D01*
X311007Y30559D01*
X310968Y30463D01*
X310925Y30369D01*
X310923Y30349D01*
X310915Y30331D01*
X310897Y30164D01*
X310897Y21319D01*
X310900Y21300D01*
X310898Y21280D01*
X310913Y21210D01*
X310919Y21138D01*
X310931Y21109D01*
X310936Y21077D01*
X310946Y21059D01*
X310950Y21040D01*
X310987Y20978D01*
X311015Y20912D01*
X311041Y20880D01*
X311052Y20859D01*
X311066Y20845D01*
X311076Y20829D01*
X311094Y20814D01*
X311120Y20781D01*
X312135Y19766D01*
X312135Y15794D01*
X309326Y12985D01*
X305354Y12985D01*
G37*
%LPD*%
%LPC*%
G36*
X99614Y122205D02*
X99614Y122205D01*
X96805Y125014D01*
X96805Y128986D01*
X99614Y131795D01*
X103586Y131795D01*
X104601Y130780D01*
X104675Y130727D01*
X104744Y130667D01*
X104775Y130655D01*
X104801Y130636D01*
X104888Y130609D01*
X104973Y130575D01*
X105014Y130571D01*
X105036Y130564D01*
X105068Y130565D01*
X105139Y130557D01*
X106685Y130557D01*
X106775Y130571D01*
X106866Y130579D01*
X106896Y130591D01*
X106928Y130596D01*
X107009Y130639D01*
X107092Y130675D01*
X107125Y130701D01*
X107145Y130712D01*
X107167Y130735D01*
X107223Y130780D01*
X107968Y131525D01*
X129232Y131525D01*
X130125Y130632D01*
X130125Y123368D01*
X129232Y122475D01*
X107968Y122475D01*
X107223Y123220D01*
X107149Y123273D01*
X107080Y123333D01*
X107050Y123345D01*
X107024Y123364D01*
X106937Y123391D01*
X106852Y123425D01*
X106811Y123429D01*
X106789Y123436D01*
X106756Y123435D01*
X106685Y123443D01*
X105139Y123443D01*
X105049Y123429D01*
X104958Y123421D01*
X104929Y123409D01*
X104897Y123404D01*
X104816Y123361D01*
X104732Y123325D01*
X104700Y123299D01*
X104679Y123288D01*
X104657Y123265D01*
X104601Y123220D01*
X103586Y122205D01*
X99614Y122205D01*
G37*
%LPD*%
%LPC*%
G36*
X99614Y147605D02*
X99614Y147605D01*
X96805Y150414D01*
X96805Y154386D01*
X99614Y157195D01*
X103586Y157195D01*
X104601Y156180D01*
X104675Y156127D01*
X104744Y156067D01*
X104775Y156055D01*
X104801Y156036D01*
X104888Y156009D01*
X104973Y155975D01*
X105014Y155971D01*
X105036Y155964D01*
X105068Y155965D01*
X105139Y155957D01*
X106685Y155957D01*
X106775Y155971D01*
X106866Y155979D01*
X106896Y155991D01*
X106928Y155996D01*
X107009Y156039D01*
X107092Y156075D01*
X107125Y156101D01*
X107145Y156112D01*
X107167Y156135D01*
X107223Y156180D01*
X107968Y156925D01*
X129232Y156925D01*
X130125Y156032D01*
X130125Y148768D01*
X129232Y147875D01*
X107968Y147875D01*
X107223Y148620D01*
X107149Y148673D01*
X107080Y148733D01*
X107050Y148745D01*
X107024Y148764D01*
X106937Y148791D01*
X106852Y148825D01*
X106811Y148829D01*
X106789Y148836D01*
X106756Y148835D01*
X106685Y148843D01*
X105139Y148843D01*
X105049Y148829D01*
X104958Y148821D01*
X104929Y148809D01*
X104897Y148804D01*
X104816Y148761D01*
X104732Y148725D01*
X104700Y148699D01*
X104679Y148688D01*
X104657Y148665D01*
X104601Y148620D01*
X103586Y147605D01*
X99614Y147605D01*
G37*
%LPD*%
%LPC*%
G36*
X226614Y109505D02*
X226614Y109505D01*
X225091Y111028D01*
X225017Y111081D01*
X224948Y111141D01*
X224917Y111153D01*
X224891Y111172D01*
X224804Y111199D01*
X224719Y111233D01*
X224678Y111237D01*
X224656Y111244D01*
X224624Y111243D01*
X224553Y111251D01*
X223886Y111251D01*
X223866Y111248D01*
X223847Y111250D01*
X223745Y111228D01*
X223643Y111212D01*
X223626Y111202D01*
X223606Y111198D01*
X223517Y111145D01*
X223426Y111096D01*
X223412Y111082D01*
X223395Y111072D01*
X223328Y110993D01*
X223256Y110918D01*
X223248Y110900D01*
X223235Y110885D01*
X223196Y110789D01*
X223154Y110698D01*
X222232Y109775D01*
X200968Y109775D01*
X200075Y110668D01*
X200075Y117932D01*
X200968Y118825D01*
X222232Y118825D01*
X223160Y117897D01*
X223164Y117867D01*
X223174Y117850D01*
X223178Y117830D01*
X223231Y117741D01*
X223280Y117650D01*
X223294Y117636D01*
X223304Y117619D01*
X223383Y117552D01*
X223458Y117480D01*
X223476Y117472D01*
X223491Y117459D01*
X223587Y117420D01*
X223681Y117377D01*
X223701Y117375D01*
X223719Y117367D01*
X223886Y117349D01*
X224553Y117349D01*
X224643Y117363D01*
X224734Y117371D01*
X224763Y117383D01*
X224795Y117388D01*
X224876Y117431D01*
X224960Y117467D01*
X224992Y117493D01*
X225013Y117504D01*
X225035Y117527D01*
X225091Y117572D01*
X226614Y119095D01*
X230586Y119095D01*
X233395Y116286D01*
X233395Y112314D01*
X230586Y109505D01*
X226614Y109505D01*
G37*
%LPD*%
%LPC*%
G36*
X266398Y30925D02*
X266398Y30925D01*
X265505Y31818D01*
X265505Y32512D01*
X265502Y32532D01*
X265504Y32551D01*
X265482Y32653D01*
X265466Y32755D01*
X265456Y32772D01*
X265452Y32792D01*
X265399Y32881D01*
X265350Y32972D01*
X265336Y32986D01*
X265326Y33003D01*
X265247Y33070D01*
X265172Y33142D01*
X265154Y33150D01*
X265139Y33163D01*
X265043Y33202D01*
X264949Y33245D01*
X264929Y33247D01*
X264911Y33255D01*
X264744Y33273D01*
X261349Y33273D01*
X261259Y33259D01*
X261168Y33251D01*
X261139Y33239D01*
X261107Y33234D01*
X261026Y33191D01*
X260942Y33155D01*
X260910Y33129D01*
X260889Y33118D01*
X260867Y33095D01*
X260811Y33050D01*
X259796Y32035D01*
X255824Y32035D01*
X253015Y34844D01*
X253015Y38816D01*
X255824Y41625D01*
X259796Y41625D01*
X260811Y40610D01*
X260885Y40557D01*
X260954Y40497D01*
X260985Y40485D01*
X261011Y40466D01*
X261098Y40439D01*
X261183Y40405D01*
X261224Y40401D01*
X261246Y40394D01*
X261278Y40395D01*
X261349Y40387D01*
X264744Y40387D01*
X264764Y40390D01*
X264783Y40388D01*
X264885Y40410D01*
X264987Y40426D01*
X265004Y40436D01*
X265024Y40440D01*
X265113Y40493D01*
X265204Y40542D01*
X265218Y40556D01*
X265235Y40566D01*
X265302Y40645D01*
X265374Y40720D01*
X265382Y40738D01*
X265395Y40753D01*
X265434Y40849D01*
X265477Y40943D01*
X265479Y40963D01*
X265487Y40981D01*
X265505Y41148D01*
X265505Y42582D01*
X266398Y43475D01*
X277162Y43475D01*
X278055Y42582D01*
X278055Y31818D01*
X277162Y30925D01*
X266398Y30925D01*
G37*
%LPD*%
%LPC*%
G36*
X287574Y20605D02*
X287574Y20605D01*
X284765Y23414D01*
X284765Y27386D01*
X285780Y28401D01*
X285823Y28461D01*
X285864Y28504D01*
X285871Y28519D01*
X285893Y28544D01*
X285905Y28575D01*
X285924Y28601D01*
X285951Y28688D01*
X285957Y28705D01*
X285968Y28727D01*
X285968Y28732D01*
X285985Y28773D01*
X285989Y28814D01*
X285996Y28836D01*
X285995Y28868D01*
X286003Y28939D01*
X286003Y30164D01*
X286000Y30184D01*
X286002Y30203D01*
X285980Y30305D01*
X285964Y30407D01*
X285954Y30424D01*
X285950Y30444D01*
X285897Y30533D01*
X285848Y30624D01*
X285834Y30638D01*
X285824Y30655D01*
X285745Y30722D01*
X285670Y30794D01*
X285652Y30802D01*
X285637Y30815D01*
X285541Y30854D01*
X285447Y30897D01*
X285427Y30899D01*
X285409Y30907D01*
X285242Y30925D01*
X284178Y30925D01*
X283285Y31818D01*
X283285Y42582D01*
X284178Y43475D01*
X294942Y43475D01*
X295835Y42582D01*
X295835Y31818D01*
X294942Y30925D01*
X293878Y30925D01*
X293858Y30922D01*
X293839Y30924D01*
X293737Y30902D01*
X293635Y30886D01*
X293618Y30876D01*
X293598Y30872D01*
X293509Y30819D01*
X293418Y30770D01*
X293404Y30756D01*
X293387Y30746D01*
X293320Y30667D01*
X293248Y30592D01*
X293240Y30574D01*
X293227Y30559D01*
X293188Y30463D01*
X293145Y30369D01*
X293143Y30349D01*
X293135Y30331D01*
X293117Y30164D01*
X293117Y28939D01*
X293131Y28849D01*
X293139Y28758D01*
X293151Y28729D01*
X293156Y28697D01*
X293176Y28661D01*
X293177Y28652D01*
X293200Y28615D01*
X293235Y28532D01*
X293261Y28500D01*
X293272Y28479D01*
X293293Y28459D01*
X293304Y28441D01*
X293317Y28430D01*
X293340Y28401D01*
X294355Y27386D01*
X294355Y23414D01*
X291546Y20605D01*
X287574Y20605D01*
G37*
%LPD*%
D10*
X41650Y260350D03*
X72650Y260350D03*
D11*
X172600Y209550D03*
X157600Y209550D03*
X290950Y139700D03*
X305950Y139700D03*
X273050Y106800D03*
X273050Y121800D03*
X323850Y121800D03*
X323850Y106800D03*
X290950Y88900D03*
X305950Y88900D03*
X305950Y190500D03*
X290950Y190500D03*
X273050Y157600D03*
X273050Y172600D03*
X323850Y172600D03*
X323850Y157600D03*
D12*
X118600Y139700D03*
X118600Y152400D03*
X118600Y165100D03*
X118600Y177800D03*
X118600Y190500D03*
X118600Y127000D03*
X118600Y114300D03*
X118600Y101600D03*
X118600Y88900D03*
X118600Y76200D03*
X211600Y127000D03*
X211600Y114300D03*
X211600Y101600D03*
X211600Y88900D03*
X211600Y76200D03*
X211600Y139700D03*
X211600Y152400D03*
X211600Y165100D03*
X211600Y177800D03*
X211600Y190500D03*
D13*
X196850Y298450D03*
X171450Y298450D03*
X146050Y298450D03*
X222250Y298450D03*
X247650Y298450D03*
X273050Y298450D03*
D14*
X374650Y133350D03*
X374650Y107950D03*
X374650Y158750D03*
X374650Y184150D03*
D15*
X44450Y298450D03*
X69850Y298450D03*
D14*
X44450Y120650D03*
X44450Y95250D03*
X44450Y69850D03*
X44450Y44450D03*
X44450Y146050D03*
X44450Y171450D03*
X44450Y196850D03*
X44450Y222250D03*
X19050Y120650D03*
X19050Y95250D03*
X19050Y69850D03*
X19050Y44450D03*
X19050Y146050D03*
X19050Y171450D03*
X19050Y196850D03*
X19050Y222250D03*
D16*
X159650Y266700D03*
X145150Y266700D03*
X325120Y51700D03*
X325120Y37200D03*
X271780Y37200D03*
X271780Y51700D03*
X307340Y51700D03*
X307340Y37200D03*
X289560Y37200D03*
X289560Y51700D03*
D17*
X146050Y267600D02*
X146050Y298450D01*
X146050Y267600D02*
X145150Y266700D01*
X118600Y152400D02*
X101600Y152400D01*
D18*
X101600Y152400D03*
X101600Y176562D03*
D17*
X101600Y209550D01*
X146050Y254000D01*
X146050Y267600D01*
X228600Y177800D02*
X241300Y190500D01*
X228600Y177800D02*
X211600Y177800D01*
X241300Y279400D02*
X222250Y298450D01*
X241300Y279400D02*
X241300Y190500D01*
X234950Y165100D02*
X211600Y165100D01*
X234950Y165100D02*
X254000Y184150D01*
X254000Y292100D01*
X247650Y298450D01*
D19*
X138550Y190500D02*
X118600Y190500D01*
X138550Y190500D02*
X157600Y209550D01*
D20*
X72650Y295650D02*
X69850Y298450D01*
X72650Y295650D02*
X72650Y260350D01*
X157600Y232900D02*
X157600Y209550D01*
X157600Y232900D02*
X159650Y234950D01*
X159650Y266700D01*
X159650Y286650D01*
X171450Y298450D01*
X171450Y317500D01*
X165100Y323850D01*
X95250Y323850D01*
X69850Y298450D01*
D18*
X190500Y190500D03*
X184150Y215900D03*
X184150Y203200D03*
X228600Y190500D03*
X203200Y203200D03*
X215900Y203200D03*
X25400Y266700D03*
X25400Y254000D03*
X57150Y260350D03*
D21*
X211600Y114300D02*
X228600Y114300D01*
D18*
X228600Y114300D03*
X184150Y177800D03*
D17*
X171450Y177800D01*
X139700Y146050D02*
X139700Y120650D01*
X133350Y114300D01*
X118600Y114300D01*
X139700Y146050D02*
X171450Y177800D01*
D18*
X190500Y101600D03*
D21*
X211600Y101600D01*
D18*
X177800Y88900D03*
D21*
X211600Y88900D01*
D18*
X158750Y152400D03*
D17*
X211600Y152400D01*
X118600Y165100D02*
X63500Y165100D01*
X44450Y146050D01*
X95250Y88900D02*
X118600Y88900D01*
D18*
X95250Y88900D03*
D17*
X118600Y101600D02*
X50800Y101600D01*
X44450Y95250D01*
D18*
X82550Y31750D03*
D17*
X173500Y127000D02*
X211600Y127000D01*
X173500Y127000D02*
X165100Y118600D01*
X165100Y76200D01*
X120650Y31750D01*
X82550Y31750D01*
X114300Y44450D02*
X44450Y44450D01*
X114300Y44450D02*
X152400Y82550D01*
X152400Y120650D01*
X171450Y139700D01*
X211600Y139700D01*
D19*
X273050Y172600D02*
X290950Y190500D01*
X273050Y106800D02*
X290950Y88900D01*
X290950Y53090D01*
X289560Y51700D01*
X278250Y172600D02*
X273050Y172600D01*
X278250Y172600D02*
X285750Y165100D01*
D18*
X285750Y165100D03*
X285750Y114300D03*
D19*
X278250Y106800D01*
X273050Y106800D01*
X290950Y139700D02*
X273050Y157600D01*
X290950Y139700D02*
X273050Y121800D01*
X260350Y63130D02*
X271780Y51700D01*
X260350Y63130D02*
X260350Y109100D01*
X273050Y121800D01*
X305950Y139700D02*
X323850Y157600D01*
X305950Y139700D02*
X323850Y121800D01*
X336550Y109100D01*
X336550Y63130D02*
X325120Y51700D01*
X336550Y63130D02*
X336550Y109100D01*
X323850Y172600D02*
X305950Y190500D01*
X323850Y106800D02*
X305950Y88900D01*
X305950Y53090D01*
X307340Y51700D01*
X318650Y172600D02*
X323850Y172600D01*
X318650Y172600D02*
X311150Y165100D01*
D18*
X311150Y165100D03*
X311150Y114300D03*
D19*
X318650Y106800D01*
X323850Y106800D01*
D17*
X234950Y76200D02*
X211600Y76200D01*
D18*
X234950Y76200D03*
X349250Y38100D03*
D17*
X348350Y37200D01*
X325120Y37200D01*
X118600Y61450D02*
X118600Y76200D01*
X118600Y61450D02*
X114300Y57150D01*
D18*
X114300Y57150D03*
X307340Y17780D03*
D17*
X307340Y37200D01*
X118600Y139700D02*
X95250Y139700D01*
D18*
X95250Y139700D03*
X257810Y36830D03*
D17*
X271410Y36830D02*
X271780Y37200D01*
X271410Y36830D02*
X257810Y36830D01*
X118600Y127000D02*
X101600Y127000D01*
D18*
X101600Y127000D03*
X289560Y25400D03*
D17*
X289560Y37200D01*
M02*
