M48
;GenerationSoftware,Autodesk,EAGLE,9.4.1*%
;CreationDate,2019-08-25T14:18:43Z*%
FMAT,2
ICI,OFF
METRIC,TZ,000.000
T3C0.300
T2C0.400
%
G90
M71
T2
X40640Y31750
X22860Y1270
X20320Y1270
X17780Y1270
X15240Y1270
X12700Y1270
X10160Y1270
X7620Y1270
X43180Y31750
X25400Y1270
X38100Y31750
X35560Y31750
X33020Y31750
X30480Y31750
X27940Y31750
X25400Y31750
X22860Y31750
X20320Y31750
X5080Y31750
X7620Y22225
X45720Y1270
X45720Y11430
X45720Y22225
X45720Y31750
X5080Y1270
X5080Y11430
X5080Y22225
X10160Y22225
X43180Y1270
X40640Y1270
X38100Y1270
X35560Y1270
X33020Y1270
X30480Y1270
X27940Y1270
X27940Y22225
X10160Y11430
X7620Y11430
X43180Y22225
X40640Y22225
X38100Y22225
X35560Y22225
X33020Y22225
X30480Y22225
X15240Y31750
X25400Y22225
X22860Y22225
X20320Y22225
X17780Y22225
X15240Y22225
X12700Y22225
X17780Y31750
X15240Y11430
X12700Y11430
X12700Y31750
X10160Y31750
X7620Y31750
X43180Y11430
X40640Y11430
X38100Y11430
X35560Y11430
X33020Y11430
X30480Y11430
X27940Y11430
X25400Y11430
X22860Y11430
X20320Y11430
X17780Y11430
T3
X3683Y23368
X1143Y23368
X3683Y25654
X3683Y28956
X1143Y25654
X1143Y28956
X48387Y14859
X48387Y18161
X48387Y20447
X48387Y12573
X47117Y12573
X49657Y12573
X47117Y20447
X49657Y20447
X47117Y18161
X47117Y14859
X49657Y18161
X49657Y14859
X47117Y28956
X48387Y25654
X48387Y28956
X48387Y31242
X48387Y23368
X47117Y23368
X49657Y23368
X47117Y31242
X49657Y31242
X1143Y31242
X47117Y25654
X49657Y28956
X49657Y25654
X2413Y28956
X2413Y25654
X2413Y23368
X2413Y31242
X3683Y31242
X48387Y1778
X1143Y1778
X3683Y4064
X3683Y7366
X1143Y4064
X1143Y7366
X48387Y4064
X48387Y7366
X48387Y9652
X3683Y1778
X47117Y1778
X49657Y1778
X47117Y9652
X49657Y9652
X47117Y7366
X47117Y4064
X49657Y7366
X49657Y4064
X3683Y18161
X2413Y14859
X2413Y12573
X2413Y20447
X3683Y20447
X1143Y20447
X3683Y12573
X1143Y12573
X3683Y14859
X2413Y18161
X1143Y14859
X1143Y18161
X2413Y7366
X2413Y4064
X2413Y1778
X2413Y9652
X3683Y9652
X1143Y9652
M30