G04 EAGLE Gerber RS-274X export*
G75*
%MOMM*%
%FSLAX34Y34*%
%LPD*%
%INBottom Copper Layer*%
%IPPOS*%
%AMOC8*
5,1,8,0,0,1.08239X$1,22.5*%
G01*
%ADD10C,0.604000*%
%ADD11C,0.654000*%
%ADD12C,3.810000*%
%ADD13C,1.041400*%
%ADD14C,0.812800*%
%ADD15C,0.584200*%

G36*
X112453Y-1007D02*
X112453Y-1007D01*
X112511Y-1009D01*
X112593Y-987D01*
X112677Y-975D01*
X112730Y-952D01*
X112786Y-937D01*
X112859Y-894D01*
X112936Y-859D01*
X112981Y-821D01*
X113031Y-792D01*
X113089Y-730D01*
X113153Y-676D01*
X113185Y-627D01*
X113225Y-584D01*
X113264Y-509D01*
X113311Y-439D01*
X113328Y-383D01*
X113355Y-331D01*
X113366Y-263D01*
X113396Y-168D01*
X113399Y-68D01*
X113410Y0D01*
X113410Y3811D01*
X127890Y3811D01*
X127890Y0D01*
X127898Y-58D01*
X127896Y-116D01*
X127918Y-198D01*
X127930Y-282D01*
X127954Y-335D01*
X127968Y-391D01*
X128011Y-464D01*
X128046Y-541D01*
X128084Y-586D01*
X128114Y-636D01*
X128175Y-694D01*
X128230Y-758D01*
X128278Y-790D01*
X128321Y-830D01*
X128396Y-869D01*
X128466Y-916D01*
X128522Y-933D01*
X128574Y-960D01*
X128642Y-971D01*
X128737Y-1001D01*
X128837Y-1004D01*
X128905Y-1015D01*
X190500Y-1015D01*
X190558Y-1007D01*
X190616Y-1009D01*
X190698Y-987D01*
X190782Y-975D01*
X190835Y-952D01*
X190891Y-937D01*
X190964Y-894D01*
X191041Y-859D01*
X191086Y-821D01*
X191136Y-792D01*
X191194Y-730D01*
X191258Y-676D01*
X191290Y-627D01*
X191330Y-584D01*
X191369Y-509D01*
X191416Y-439D01*
X191433Y-383D01*
X191460Y-331D01*
X191471Y-263D01*
X191501Y-168D01*
X191504Y-68D01*
X191515Y0D01*
X191515Y3811D01*
X763778Y3811D01*
X763798Y3814D01*
X763817Y3812D01*
X763919Y3834D01*
X764021Y3850D01*
X764038Y3860D01*
X764058Y3864D01*
X764147Y3917D01*
X764238Y3966D01*
X764252Y3980D01*
X764269Y3990D01*
X764336Y4069D01*
X764408Y4144D01*
X764416Y4162D01*
X764429Y4177D01*
X764468Y4273D01*
X764511Y4367D01*
X764513Y4387D01*
X764521Y4405D01*
X764539Y4572D01*
X764539Y68835D01*
X768350Y68835D01*
X768408Y68843D01*
X768466Y68841D01*
X768548Y68863D01*
X768632Y68875D01*
X768685Y68899D01*
X768741Y68913D01*
X768814Y68956D01*
X768891Y68991D01*
X768936Y69029D01*
X768986Y69059D01*
X769044Y69120D01*
X769108Y69175D01*
X769140Y69223D01*
X769180Y69266D01*
X769219Y69341D01*
X769266Y69411D01*
X769283Y69467D01*
X769310Y69519D01*
X769321Y69587D01*
X769351Y69682D01*
X769354Y69782D01*
X769365Y69850D01*
X769365Y131445D01*
X769357Y131503D01*
X769359Y131561D01*
X769337Y131643D01*
X769325Y131727D01*
X769302Y131780D01*
X769287Y131836D01*
X769244Y131909D01*
X769209Y131986D01*
X769171Y132031D01*
X769142Y132081D01*
X769080Y132139D01*
X769026Y132203D01*
X768977Y132235D01*
X768934Y132275D01*
X768859Y132314D01*
X768789Y132361D01*
X768733Y132378D01*
X768681Y132405D01*
X768613Y132416D01*
X768518Y132446D01*
X768418Y132449D01*
X768350Y132460D01*
X764539Y132460D01*
X764539Y146940D01*
X768350Y146940D01*
X768408Y146948D01*
X768466Y146946D01*
X768548Y146968D01*
X768632Y146980D01*
X768685Y147004D01*
X768741Y147018D01*
X768814Y147061D01*
X768891Y147096D01*
X768936Y147134D01*
X768986Y147164D01*
X769044Y147225D01*
X769108Y147280D01*
X769140Y147328D01*
X769180Y147371D01*
X769219Y147446D01*
X769266Y147516D01*
X769283Y147572D01*
X769310Y147624D01*
X769321Y147692D01*
X769351Y147787D01*
X769354Y147887D01*
X769365Y147955D01*
X769365Y209550D01*
X769357Y209608D01*
X769359Y209666D01*
X769337Y209748D01*
X769325Y209832D01*
X769302Y209885D01*
X769287Y209941D01*
X769244Y210014D01*
X769209Y210091D01*
X769171Y210136D01*
X769142Y210186D01*
X769080Y210244D01*
X769026Y210308D01*
X768977Y210340D01*
X768934Y210380D01*
X768859Y210419D01*
X768789Y210466D01*
X768733Y210483D01*
X768681Y210510D01*
X768613Y210521D01*
X768518Y210551D01*
X768418Y210554D01*
X768350Y210565D01*
X764539Y210565D01*
X764539Y274828D01*
X764538Y274834D01*
X764538Y274835D01*
X764537Y274843D01*
X764538Y274855D01*
X764537Y274859D01*
X764538Y274867D01*
X764516Y274969D01*
X764500Y275071D01*
X764490Y275088D01*
X764486Y275108D01*
X764433Y275197D01*
X764384Y275288D01*
X764370Y275302D01*
X764360Y275319D01*
X764281Y275386D01*
X764206Y275458D01*
X764188Y275466D01*
X764173Y275479D01*
X764077Y275518D01*
X763983Y275561D01*
X763963Y275563D01*
X763945Y275571D01*
X763778Y275589D01*
X191515Y275589D01*
X191515Y279400D01*
X191507Y279458D01*
X191509Y279516D01*
X191487Y279598D01*
X191475Y279682D01*
X191452Y279735D01*
X191437Y279791D01*
X191394Y279864D01*
X191359Y279941D01*
X191321Y279986D01*
X191292Y280036D01*
X191230Y280094D01*
X191176Y280158D01*
X191127Y280190D01*
X191084Y280230D01*
X191009Y280269D01*
X190939Y280316D01*
X190883Y280333D01*
X190831Y280360D01*
X190763Y280371D01*
X190668Y280401D01*
X190568Y280404D01*
X190500Y280415D01*
X128905Y280415D01*
X128847Y280407D01*
X128789Y280409D01*
X128707Y280387D01*
X128624Y280375D01*
X128570Y280352D01*
X128514Y280337D01*
X128441Y280294D01*
X128364Y280259D01*
X128319Y280221D01*
X128269Y280192D01*
X128211Y280130D01*
X128147Y280076D01*
X128115Y280027D01*
X128075Y279984D01*
X128036Y279909D01*
X127990Y279839D01*
X127972Y279783D01*
X127945Y279731D01*
X127934Y279663D01*
X127904Y279568D01*
X127901Y279468D01*
X127890Y279400D01*
X127890Y275589D01*
X113410Y275589D01*
X113410Y279400D01*
X113402Y279458D01*
X113404Y279516D01*
X113382Y279598D01*
X113370Y279682D01*
X113347Y279735D01*
X113332Y279791D01*
X113289Y279864D01*
X113254Y279941D01*
X113216Y279986D01*
X113187Y280036D01*
X113125Y280094D01*
X113071Y280158D01*
X113022Y280190D01*
X112979Y280230D01*
X112904Y280269D01*
X112834Y280316D01*
X112778Y280333D01*
X112726Y280360D01*
X112658Y280371D01*
X112563Y280401D01*
X112463Y280404D01*
X112395Y280415D01*
X50800Y280415D01*
X50742Y280407D01*
X50684Y280409D01*
X50602Y280387D01*
X50519Y280375D01*
X50465Y280352D01*
X50409Y280337D01*
X50336Y280294D01*
X50259Y280259D01*
X50214Y280221D01*
X50164Y280192D01*
X50106Y280130D01*
X50042Y280076D01*
X50010Y280027D01*
X49970Y279984D01*
X49931Y279909D01*
X49885Y279839D01*
X49867Y279783D01*
X49840Y279731D01*
X49829Y279663D01*
X49799Y279568D01*
X49796Y279468D01*
X49785Y279400D01*
X49785Y275589D01*
X4572Y275589D01*
X4552Y275586D01*
X4533Y275588D01*
X4431Y275566D01*
X4329Y275550D01*
X4312Y275540D01*
X4292Y275536D01*
X4203Y275483D01*
X4112Y275434D01*
X4098Y275420D01*
X4081Y275410D01*
X4014Y275331D01*
X3942Y275256D01*
X3934Y275238D01*
X3921Y275223D01*
X3882Y275127D01*
X3839Y275033D01*
X3837Y275013D01*
X3829Y274995D01*
X3811Y274828D01*
X3811Y210565D01*
X0Y210565D01*
X-58Y210557D01*
X-116Y210559D01*
X-198Y210537D01*
X-282Y210525D01*
X-335Y210502D01*
X-391Y210487D01*
X-464Y210444D01*
X-541Y210409D01*
X-586Y210371D01*
X-636Y210342D01*
X-694Y210280D01*
X-758Y210226D01*
X-790Y210177D01*
X-830Y210134D01*
X-869Y210059D01*
X-916Y209989D01*
X-933Y209933D01*
X-960Y209881D01*
X-971Y209813D01*
X-1001Y209718D01*
X-1004Y209618D01*
X-1015Y209550D01*
X-1015Y147955D01*
X-1007Y147897D01*
X-1009Y147839D01*
X-987Y147757D01*
X-975Y147674D01*
X-952Y147620D01*
X-937Y147564D01*
X-894Y147491D01*
X-859Y147414D01*
X-821Y147369D01*
X-792Y147319D01*
X-730Y147261D01*
X-676Y147197D01*
X-627Y147165D01*
X-584Y147125D01*
X-509Y147086D01*
X-439Y147040D01*
X-383Y147022D01*
X-331Y146995D01*
X-263Y146984D01*
X-168Y146954D01*
X-68Y146951D01*
X0Y146940D01*
X3811Y146940D01*
X3811Y132460D01*
X0Y132460D01*
X-58Y132452D01*
X-116Y132454D01*
X-198Y132432D01*
X-282Y132420D01*
X-335Y132397D01*
X-391Y132382D01*
X-464Y132339D01*
X-541Y132304D01*
X-586Y132266D01*
X-636Y132237D01*
X-694Y132175D01*
X-758Y132121D01*
X-790Y132072D01*
X-830Y132029D01*
X-869Y131954D01*
X-916Y131884D01*
X-933Y131828D01*
X-960Y131776D01*
X-971Y131708D01*
X-1001Y131613D01*
X-1004Y131513D01*
X-1015Y131445D01*
X-1015Y69850D01*
X-1007Y69792D01*
X-1009Y69734D01*
X-987Y69652D01*
X-975Y69569D01*
X-952Y69515D01*
X-937Y69459D01*
X-894Y69386D01*
X-859Y69309D01*
X-821Y69264D01*
X-792Y69214D01*
X-730Y69156D01*
X-676Y69092D01*
X-627Y69060D01*
X-584Y69020D01*
X-509Y68981D01*
X-439Y68935D01*
X-383Y68917D01*
X-331Y68890D01*
X-263Y68879D01*
X-168Y68849D01*
X-68Y68846D01*
X0Y68835D01*
X3811Y68835D01*
X3811Y4572D01*
X3814Y4552D01*
X3812Y4533D01*
X3834Y4431D01*
X3850Y4329D01*
X3860Y4312D01*
X3864Y4292D01*
X3917Y4203D01*
X3966Y4112D01*
X3980Y4098D01*
X3990Y4081D01*
X4069Y4014D01*
X4144Y3942D01*
X4162Y3934D01*
X4177Y3921D01*
X4273Y3882D01*
X4367Y3839D01*
X4387Y3837D01*
X4405Y3829D01*
X4572Y3811D01*
X49785Y3811D01*
X49785Y0D01*
X49793Y-58D01*
X49791Y-116D01*
X49813Y-198D01*
X49825Y-282D01*
X49849Y-335D01*
X49863Y-391D01*
X49906Y-464D01*
X49941Y-541D01*
X49979Y-586D01*
X50009Y-636D01*
X50070Y-694D01*
X50125Y-758D01*
X50173Y-790D01*
X50216Y-830D01*
X50291Y-869D01*
X50361Y-916D01*
X50417Y-933D01*
X50469Y-960D01*
X50537Y-971D01*
X50632Y-1001D01*
X50732Y-1004D01*
X50800Y-1015D01*
X112395Y-1015D01*
X112453Y-1007D01*
G37*
%LPC*%
G36*
X191515Y38861D02*
X191515Y38861D01*
X191515Y63500D01*
X191507Y63558D01*
X191509Y63616D01*
X191487Y63698D01*
X191475Y63782D01*
X191452Y63835D01*
X191437Y63891D01*
X191394Y63964D01*
X191359Y64041D01*
X191321Y64086D01*
X191292Y64136D01*
X191230Y64194D01*
X191176Y64258D01*
X191127Y64290D01*
X191084Y64330D01*
X191009Y64369D01*
X190939Y64416D01*
X190883Y64433D01*
X190831Y64460D01*
X190763Y64471D01*
X190668Y64501D01*
X190568Y64504D01*
X190500Y64515D01*
X140461Y64515D01*
X140461Y107950D01*
X140458Y107970D01*
X140460Y107989D01*
X140438Y108091D01*
X140421Y108193D01*
X140412Y108210D01*
X140408Y108230D01*
X140355Y108319D01*
X140306Y108410D01*
X140292Y108424D01*
X140282Y108441D01*
X140203Y108508D01*
X140128Y108580D01*
X140110Y108588D01*
X140095Y108601D01*
X139999Y108640D01*
X139905Y108683D01*
X139885Y108685D01*
X139867Y108693D01*
X139700Y108711D01*
X132238Y108711D01*
X130184Y109562D01*
X128612Y111134D01*
X127761Y113188D01*
X127761Y115412D01*
X128612Y117466D01*
X130184Y119038D01*
X132238Y119889D01*
X139700Y119889D01*
X139720Y119892D01*
X139739Y119890D01*
X139841Y119912D01*
X139943Y119928D01*
X139960Y119938D01*
X139980Y119942D01*
X140069Y119995D01*
X140160Y120044D01*
X140174Y120058D01*
X140191Y120068D01*
X140258Y120147D01*
X140329Y120222D01*
X140338Y120240D01*
X140351Y120255D01*
X140390Y120351D01*
X140433Y120445D01*
X140435Y120465D01*
X140443Y120483D01*
X140461Y120650D01*
X140461Y214885D01*
X190500Y214885D01*
X190558Y214893D01*
X190616Y214891D01*
X190698Y214913D01*
X190782Y214925D01*
X190835Y214949D01*
X190891Y214963D01*
X190964Y215006D01*
X191041Y215041D01*
X191086Y215079D01*
X191136Y215109D01*
X191194Y215170D01*
X191258Y215225D01*
X191290Y215273D01*
X191330Y215316D01*
X191369Y215391D01*
X191416Y215461D01*
X191433Y215517D01*
X191460Y215569D01*
X191471Y215637D01*
X191501Y215732D01*
X191504Y215832D01*
X191515Y215900D01*
X191515Y240539D01*
X692659Y240539D01*
X692659Y38861D01*
X191515Y38861D01*
G37*
%LPD*%
%LPC*%
G36*
X131364Y160305D02*
X131364Y160305D01*
X128555Y163114D01*
X128555Y167086D01*
X131364Y169895D01*
X135336Y169895D01*
X138145Y167086D01*
X138145Y163114D01*
X135336Y160305D01*
X131364Y160305D01*
G37*
%LPD*%
D10*
X12700Y123825D03*
X31750Y123825D03*
X50800Y123825D03*
X31750Y155575D03*
X12700Y155575D03*
X50800Y155575D03*
X50800Y76200D03*
X31750Y76200D03*
X12700Y76200D03*
X50800Y203200D03*
X31750Y203200D03*
X12700Y203200D03*
X104775Y266700D03*
X104775Y247650D03*
X104775Y228600D03*
X136525Y247650D03*
X136525Y266700D03*
X136525Y228600D03*
X57150Y228600D03*
X57150Y247650D03*
X57150Y266700D03*
X184150Y228600D03*
X184150Y247650D03*
X184150Y266700D03*
X136525Y12700D03*
X136525Y31750D03*
X136525Y50800D03*
X104775Y31750D03*
X104775Y12700D03*
X104775Y50800D03*
X184150Y50800D03*
X184150Y31750D03*
X184150Y12700D03*
X57150Y50800D03*
X57150Y31750D03*
X57150Y12700D03*
X755650Y155575D03*
X736600Y155575D03*
X717550Y155575D03*
X736600Y123825D03*
X755650Y123825D03*
X717550Y123825D03*
X717550Y203200D03*
X736600Y203200D03*
X755650Y203200D03*
X717550Y76200D03*
X736600Y76200D03*
X755650Y76200D03*
D11*
X107950Y177800D03*
X107950Y196850D03*
X133350Y177800D03*
X133350Y196850D03*
X107950Y101600D03*
X133350Y101600D03*
X133350Y82550D03*
X107950Y82550D03*
X107950Y215900D03*
X133350Y215900D03*
X107950Y63500D03*
X133350Y63500D03*
X203200Y266700D03*
X203200Y12700D03*
X228600Y266700D03*
X273050Y266700D03*
X298450Y266700D03*
X323850Y266700D03*
X349250Y266700D03*
X374650Y266700D03*
X400050Y266700D03*
X425450Y266700D03*
X450850Y266700D03*
X476250Y266700D03*
X501650Y266700D03*
X527050Y266700D03*
X552450Y266700D03*
X577850Y266700D03*
X603250Y266700D03*
X628650Y266700D03*
X654050Y266700D03*
X679450Y266700D03*
X704850Y266700D03*
X730250Y266700D03*
X228600Y12700D03*
X273050Y12700D03*
X298450Y12700D03*
X323850Y12700D03*
X349250Y12700D03*
X374650Y12700D03*
X400050Y12700D03*
X425450Y12700D03*
X450850Y12700D03*
X501650Y12700D03*
X476250Y12700D03*
X527050Y12700D03*
X552450Y12700D03*
X577850Y12700D03*
X603250Y12700D03*
X628650Y12700D03*
X654050Y12700D03*
X679450Y12700D03*
X704850Y12700D03*
X730250Y12700D03*
D12*
X679450Y139700D02*
X184150Y139700D01*
D13*
X717550Y139700D02*
X717550Y203200D01*
X717550Y139700D02*
X679450Y139700D01*
D11*
X755650Y266700D03*
X755650Y12700D03*
X755650Y38100D03*
X755650Y241300D03*
X755650Y215900D03*
X755650Y63500D03*
X247650Y266700D03*
X247650Y12700D03*
X133350Y165100D03*
X133350Y114300D03*
D14*
X139700Y114300D01*
X140314Y114307D01*
X140927Y114330D01*
X141540Y114367D01*
X142151Y114419D01*
X142762Y114485D01*
X143370Y114567D01*
X143976Y114663D01*
X144580Y114773D01*
X145181Y114898D01*
X145779Y115038D01*
X146373Y115192D01*
X146963Y115361D01*
X147549Y115543D01*
X148130Y115740D01*
X148707Y115951D01*
X149278Y116175D01*
X149844Y116413D01*
X150404Y116665D01*
X150957Y116931D01*
X151504Y117209D01*
X152044Y117501D01*
X152577Y117806D01*
X153102Y118124D01*
X153620Y118454D01*
X154129Y118796D01*
X154630Y119151D01*
X155122Y119518D01*
X155605Y119896D01*
X156079Y120286D01*
X156543Y120688D01*
X156998Y121100D01*
X157442Y121524D01*
X157876Y121958D01*
X158300Y122402D01*
X158712Y122857D01*
X159114Y123321D01*
X159504Y123795D01*
X159882Y124278D01*
X160249Y124770D01*
X160604Y125271D01*
X160946Y125780D01*
X161276Y126298D01*
X161594Y126823D01*
X161899Y127356D01*
X162191Y127896D01*
X162469Y128443D01*
X162735Y128996D01*
X162987Y129556D01*
X163225Y130122D01*
X163449Y130693D01*
X163660Y131270D01*
X163857Y131851D01*
X164039Y132437D01*
X164208Y133027D01*
X164362Y133621D01*
X164502Y134219D01*
X164627Y134820D01*
X164737Y135424D01*
X164833Y136030D01*
X164915Y136638D01*
X164981Y137249D01*
X165033Y137860D01*
X165070Y138473D01*
X165093Y139086D01*
X165100Y139700D01*
D15*
X184150Y139700D01*
M02*
