M48
;GenerationSoftware,Autodesk,EAGLE,9.4.1*%
;CreationDate,2019-08-26T18:22:12Z*%
FMAT,2
ICI,OFF
METRIC,TZ,000.000
T4C0.300
T3C0.500
T2C1.000
%
G90
M71
T2
X11430Y15240
X11430Y17780
T3
X21590Y1270
X9398Y10160
X24130Y1270
X26670Y1270
X27940Y1270
X27940Y3175
X1270Y3175
X1270Y14605
X1270Y16510
X1270Y18415
X3175Y18415
X5080Y18415
X27940Y18415
X27940Y16510
X27940Y14605
X25400Y18415
X22860Y18415
X20320Y18415
X17780Y18415
X15240Y18415
X13335Y18415
X19050Y8255
X21590Y11430
X15240Y13970
X17145Y13970
X19050Y13970
X16510Y1270
X23495Y10795
X11430Y10160
X13970Y10160
X12700Y7620
X15240Y7620
X17780Y7620
X17780Y4826
X18669Y6604
X18669Y5461
X10160Y7620
X23495Y6985
X20955Y6985
X7620Y6985
X5080Y6985
X5080Y10668
X19050Y1270
X13970Y1270
X11430Y1270
X8890Y1270
X6350Y1270
X1270Y1270
X7112Y10160
X8255Y17018
X6350Y17018
X6350Y18288
X3810Y1270
T4
X1143Y10541
X1143Y7239
X3683Y10541
X3683Y7239
X1143Y4953
X3683Y4953
X1143Y12827
X3683Y12827
X2413Y12827
X2413Y4953
X2413Y7239
X2413Y10541
X26797Y7239
X26797Y10541
X26797Y12827
X26797Y4953
X25527Y4953
X28067Y4953
X25527Y12827
X28067Y12827
X25527Y10541
X25527Y7239
X28067Y10541
X28067Y7239
M30