M48
;GenerationSoftware,Autodesk,EAGLE,9.2.2*%
;CreationDate,2019-02-21T01:51:50Z*%
FMAT,2
ICI,OFF
METRIC,TZ,000.000
T4C0.350
T3C0.550
T2C1.016
%
G90
M71
T2
X169545Y5080
X174625Y7620
X161925Y7620
T3
X129540Y6350
X93980Y6350
X124460Y3810
X124460Y6350
X119380Y3810
X119380Y6350
X114300Y3810
X114300Y6350
X109220Y3810
X109220Y6350
X104140Y3810
X99060Y3810
X93980Y3810
X7620Y6350
X99060Y6350
X104140Y6350
X134620Y6350
X139700Y6350
X144780Y6350
X149860Y6350
X154940Y6350
X129540Y3810
X134620Y3810
X139700Y3810
X144780Y3810
X149860Y3810
X154940Y3810
X160020Y3810
X160020Y6350
X165100Y3810
X165100Y6350
X22860Y3810
X48260Y6350
X43180Y3810
X88900Y3810
X33020Y3810
X43180Y6350
X38100Y6350
X33020Y6350
X27940Y3810
X38100Y3810
X17780Y3810
X12700Y3810
X27940Y6350
X22860Y6350
X17780Y6350
X12700Y6350
X7620Y3810
X78740Y6350
X88900Y6350
X83820Y3810
X83820Y6350
X78740Y3810
X48260Y3810
X73660Y3810
X73660Y6350
X68580Y3810
X68580Y6350
X63500Y3810
X63500Y6350
X58420Y3810
X58420Y6350
X53340Y3810
X53340Y6350
T4
X1270Y3492
X3175Y3492
X5080Y3492
X3175Y6667
X1270Y6667
X5080Y6667
M30