G04 EAGLE Gerber RS-274X export*
G75*
%MOMM*%
%FSLAX34Y34*%
%LPD*%
%INTop Silkscreen *%
%IPPOS*%
%AMOC8*
5,1,8,0,0,1.08239X$1,22.5*%
G01*
%ADD10C,0.177800*%
%ADD11C,0.127000*%
%ADD12C,0.152400*%
%ADD13R,1.905000X0.889000*%
%ADD14R,1.397000X0.762000*%


D10*
X84201Y77089D02*
X80645Y77089D01*
X80529Y77091D01*
X80412Y77097D01*
X80296Y77106D01*
X80181Y77119D01*
X80066Y77136D01*
X79951Y77157D01*
X79838Y77182D01*
X79725Y77210D01*
X79613Y77242D01*
X79502Y77278D01*
X79392Y77317D01*
X79284Y77360D01*
X79177Y77406D01*
X79072Y77456D01*
X78969Y77509D01*
X78867Y77565D01*
X78767Y77625D01*
X78669Y77688D01*
X78574Y77755D01*
X78480Y77824D01*
X78389Y77896D01*
X78300Y77971D01*
X78214Y78050D01*
X78131Y78131D01*
X78050Y78214D01*
X77971Y78300D01*
X77896Y78389D01*
X77824Y78480D01*
X77755Y78574D01*
X77688Y78669D01*
X77625Y78767D01*
X77565Y78867D01*
X77509Y78969D01*
X77456Y79072D01*
X77406Y79177D01*
X77360Y79284D01*
X77317Y79392D01*
X77278Y79502D01*
X77242Y79613D01*
X77210Y79725D01*
X77182Y79838D01*
X77157Y79951D01*
X77136Y80066D01*
X77119Y80181D01*
X77106Y80296D01*
X77097Y80412D01*
X77091Y80529D01*
X77089Y80645D01*
X77089Y89535D01*
X77091Y89651D01*
X77097Y89768D01*
X77106Y89884D01*
X77119Y89999D01*
X77136Y90114D01*
X77157Y90229D01*
X77182Y90342D01*
X77210Y90455D01*
X77242Y90567D01*
X77278Y90678D01*
X77317Y90788D01*
X77360Y90896D01*
X77406Y91003D01*
X77456Y91108D01*
X77509Y91211D01*
X77565Y91313D01*
X77625Y91413D01*
X77688Y91511D01*
X77755Y91606D01*
X77824Y91700D01*
X77896Y91791D01*
X77971Y91880D01*
X78050Y91966D01*
X78131Y92049D01*
X78214Y92130D01*
X78300Y92209D01*
X78389Y92284D01*
X78480Y92356D01*
X78574Y92425D01*
X78669Y92492D01*
X78767Y92555D01*
X78867Y92615D01*
X78969Y92671D01*
X79072Y92724D01*
X79177Y92774D01*
X79284Y92820D01*
X79392Y92863D01*
X79502Y92902D01*
X79613Y92938D01*
X79725Y92970D01*
X79838Y92998D01*
X79951Y93023D01*
X80066Y93044D01*
X80181Y93061D01*
X80296Y93074D01*
X80412Y93083D01*
X80529Y93089D01*
X80645Y93091D01*
X84201Y93091D01*
X90005Y84201D02*
X90005Y80645D01*
X90005Y84201D02*
X90007Y84319D01*
X90013Y84436D01*
X90022Y84553D01*
X90036Y84670D01*
X90053Y84786D01*
X90075Y84902D01*
X90100Y85017D01*
X90129Y85131D01*
X90161Y85244D01*
X90198Y85356D01*
X90238Y85466D01*
X90281Y85575D01*
X90329Y85683D01*
X90379Y85789D01*
X90434Y85893D01*
X90491Y85996D01*
X90552Y86096D01*
X90617Y86195D01*
X90684Y86291D01*
X90755Y86385D01*
X90829Y86477D01*
X90905Y86566D01*
X90985Y86652D01*
X91067Y86736D01*
X91153Y86817D01*
X91240Y86895D01*
X91331Y86971D01*
X91424Y87043D01*
X91519Y87112D01*
X91616Y87178D01*
X91716Y87241D01*
X91817Y87300D01*
X91920Y87356D01*
X92026Y87408D01*
X92133Y87457D01*
X92241Y87503D01*
X92351Y87545D01*
X92462Y87583D01*
X92575Y87617D01*
X92688Y87648D01*
X92803Y87675D01*
X92918Y87698D01*
X93034Y87718D01*
X93150Y87733D01*
X93267Y87745D01*
X93385Y87753D01*
X93502Y87757D01*
X93620Y87757D01*
X93737Y87753D01*
X93855Y87745D01*
X93972Y87733D01*
X94088Y87718D01*
X94204Y87698D01*
X94319Y87675D01*
X94434Y87648D01*
X94547Y87617D01*
X94660Y87583D01*
X94771Y87545D01*
X94881Y87503D01*
X94989Y87457D01*
X95096Y87408D01*
X95202Y87356D01*
X95305Y87300D01*
X95406Y87241D01*
X95506Y87178D01*
X95603Y87112D01*
X95698Y87043D01*
X95791Y86971D01*
X95882Y86895D01*
X95969Y86817D01*
X96055Y86736D01*
X96137Y86652D01*
X96217Y86566D01*
X96293Y86477D01*
X96367Y86385D01*
X96438Y86291D01*
X96505Y86195D01*
X96570Y86096D01*
X96631Y85996D01*
X96688Y85893D01*
X96743Y85789D01*
X96793Y85683D01*
X96841Y85575D01*
X96884Y85466D01*
X96924Y85356D01*
X96961Y85244D01*
X96993Y85131D01*
X97022Y85017D01*
X97047Y84902D01*
X97069Y84786D01*
X97086Y84670D01*
X97100Y84553D01*
X97109Y84436D01*
X97115Y84319D01*
X97117Y84201D01*
X97117Y80645D01*
X97115Y80527D01*
X97109Y80410D01*
X97100Y80293D01*
X97086Y80176D01*
X97069Y80060D01*
X97047Y79944D01*
X97022Y79829D01*
X96993Y79715D01*
X96961Y79602D01*
X96924Y79490D01*
X96884Y79380D01*
X96841Y79271D01*
X96793Y79163D01*
X96743Y79057D01*
X96688Y78953D01*
X96631Y78850D01*
X96570Y78750D01*
X96505Y78651D01*
X96438Y78555D01*
X96367Y78461D01*
X96293Y78369D01*
X96217Y78280D01*
X96137Y78194D01*
X96055Y78110D01*
X95969Y78029D01*
X95882Y77951D01*
X95791Y77875D01*
X95698Y77803D01*
X95603Y77734D01*
X95506Y77668D01*
X95406Y77605D01*
X95305Y77546D01*
X95202Y77490D01*
X95096Y77438D01*
X94989Y77389D01*
X94881Y77343D01*
X94771Y77301D01*
X94660Y77263D01*
X94547Y77229D01*
X94434Y77198D01*
X94319Y77171D01*
X94204Y77148D01*
X94088Y77128D01*
X93972Y77113D01*
X93855Y77101D01*
X93737Y77093D01*
X93620Y77089D01*
X93502Y77089D01*
X93385Y77093D01*
X93267Y77101D01*
X93150Y77113D01*
X93034Y77128D01*
X92918Y77148D01*
X92803Y77171D01*
X92688Y77198D01*
X92575Y77229D01*
X92462Y77263D01*
X92351Y77301D01*
X92241Y77343D01*
X92133Y77389D01*
X92026Y77438D01*
X91920Y77490D01*
X91817Y77546D01*
X91716Y77605D01*
X91616Y77668D01*
X91519Y77734D01*
X91424Y77803D01*
X91331Y77875D01*
X91240Y77951D01*
X91153Y78029D01*
X91067Y78110D01*
X90985Y78194D01*
X90905Y78280D01*
X90829Y78369D01*
X90755Y78461D01*
X90684Y78555D01*
X90617Y78651D01*
X90552Y78750D01*
X90491Y78850D01*
X90434Y78953D01*
X90379Y79057D01*
X90329Y79163D01*
X90281Y79271D01*
X90238Y79380D01*
X90198Y79490D01*
X90161Y79602D01*
X90129Y79715D01*
X90100Y79829D01*
X90075Y79944D01*
X90053Y80060D01*
X90036Y80176D01*
X90022Y80293D01*
X90013Y80410D01*
X90007Y80527D01*
X90005Y80645D01*
X104154Y87757D02*
X104154Y71755D01*
X104154Y87757D02*
X108599Y87757D01*
X108701Y87755D01*
X108803Y87749D01*
X108905Y87739D01*
X109006Y87726D01*
X109107Y87708D01*
X109207Y87687D01*
X109306Y87662D01*
X109404Y87633D01*
X109500Y87600D01*
X109596Y87564D01*
X109690Y87524D01*
X109782Y87480D01*
X109873Y87433D01*
X109962Y87382D01*
X110049Y87329D01*
X110133Y87271D01*
X110216Y87211D01*
X110296Y87148D01*
X110373Y87081D01*
X110448Y87012D01*
X110521Y86939D01*
X110590Y86864D01*
X110657Y86787D01*
X110720Y86707D01*
X110780Y86624D01*
X110838Y86540D01*
X110891Y86453D01*
X110942Y86364D01*
X110989Y86273D01*
X111033Y86181D01*
X111073Y86087D01*
X111109Y85991D01*
X111142Y85895D01*
X111171Y85797D01*
X111196Y85698D01*
X111217Y85598D01*
X111235Y85497D01*
X111248Y85396D01*
X111258Y85294D01*
X111264Y85192D01*
X111266Y85090D01*
X111266Y79756D01*
X111264Y79654D01*
X111258Y79552D01*
X111248Y79450D01*
X111235Y79349D01*
X111217Y79248D01*
X111196Y79148D01*
X111171Y79049D01*
X111142Y78951D01*
X111109Y78855D01*
X111073Y78759D01*
X111033Y78665D01*
X110989Y78573D01*
X110942Y78482D01*
X110891Y78393D01*
X110838Y78306D01*
X110780Y78222D01*
X110720Y78139D01*
X110657Y78059D01*
X110590Y77982D01*
X110521Y77907D01*
X110448Y77834D01*
X110373Y77765D01*
X110296Y77698D01*
X110216Y77635D01*
X110133Y77575D01*
X110049Y77517D01*
X109962Y77464D01*
X109873Y77413D01*
X109782Y77366D01*
X109690Y77322D01*
X109596Y77282D01*
X109500Y77246D01*
X109404Y77213D01*
X109306Y77184D01*
X109207Y77159D01*
X109107Y77138D01*
X109006Y77120D01*
X108905Y77107D01*
X108803Y77097D01*
X108701Y77091D01*
X108599Y77089D01*
X104154Y77089D01*
X117829Y79756D02*
X117829Y93091D01*
X117829Y79756D02*
X117831Y79654D01*
X117837Y79552D01*
X117847Y79450D01*
X117860Y79349D01*
X117878Y79248D01*
X117899Y79148D01*
X117924Y79049D01*
X117953Y78951D01*
X117986Y78855D01*
X118022Y78759D01*
X118062Y78665D01*
X118106Y78573D01*
X118153Y78482D01*
X118204Y78393D01*
X118257Y78306D01*
X118315Y78222D01*
X118375Y78139D01*
X118438Y78059D01*
X118505Y77982D01*
X118574Y77907D01*
X118647Y77834D01*
X118722Y77765D01*
X118799Y77698D01*
X118879Y77635D01*
X118962Y77575D01*
X119046Y77517D01*
X119133Y77464D01*
X119222Y77413D01*
X119313Y77366D01*
X119405Y77322D01*
X119499Y77282D01*
X119595Y77246D01*
X119691Y77213D01*
X119789Y77184D01*
X119888Y77159D01*
X119988Y77138D01*
X120089Y77120D01*
X120190Y77107D01*
X120292Y77097D01*
X120394Y77091D01*
X120496Y77089D01*
X128988Y83312D02*
X132989Y83312D01*
X128988Y83313D02*
X128877Y83311D01*
X128766Y83305D01*
X128655Y83295D01*
X128545Y83281D01*
X128435Y83264D01*
X128326Y83242D01*
X128218Y83216D01*
X128111Y83187D01*
X128005Y83154D01*
X127900Y83117D01*
X127797Y83076D01*
X127695Y83032D01*
X127595Y82984D01*
X127497Y82932D01*
X127400Y82877D01*
X127306Y82819D01*
X127213Y82757D01*
X127123Y82692D01*
X127035Y82624D01*
X126950Y82553D01*
X126867Y82479D01*
X126787Y82402D01*
X126710Y82322D01*
X126636Y82239D01*
X126565Y82154D01*
X126497Y82066D01*
X126432Y81976D01*
X126370Y81883D01*
X126312Y81789D01*
X126257Y81692D01*
X126205Y81594D01*
X126157Y81494D01*
X126113Y81392D01*
X126072Y81289D01*
X126035Y81184D01*
X126002Y81078D01*
X125973Y80971D01*
X125947Y80863D01*
X125925Y80754D01*
X125908Y80644D01*
X125894Y80534D01*
X125884Y80423D01*
X125878Y80312D01*
X125876Y80201D01*
X125878Y80090D01*
X125884Y79979D01*
X125894Y79868D01*
X125908Y79758D01*
X125925Y79648D01*
X125947Y79539D01*
X125973Y79431D01*
X126002Y79324D01*
X126035Y79218D01*
X126072Y79113D01*
X126113Y79010D01*
X126157Y78908D01*
X126205Y78808D01*
X126257Y78710D01*
X126312Y78613D01*
X126370Y78519D01*
X126432Y78426D01*
X126497Y78336D01*
X126565Y78248D01*
X126636Y78163D01*
X126710Y78080D01*
X126787Y78000D01*
X126867Y77923D01*
X126950Y77849D01*
X127035Y77778D01*
X127123Y77710D01*
X127213Y77645D01*
X127306Y77583D01*
X127400Y77525D01*
X127497Y77470D01*
X127595Y77418D01*
X127695Y77370D01*
X127797Y77326D01*
X127900Y77285D01*
X128005Y77248D01*
X128111Y77215D01*
X128218Y77186D01*
X128326Y77160D01*
X128435Y77138D01*
X128545Y77121D01*
X128655Y77107D01*
X128766Y77097D01*
X128877Y77091D01*
X128988Y77089D01*
X132989Y77089D01*
X132989Y85090D01*
X132987Y85192D01*
X132981Y85294D01*
X132971Y85396D01*
X132958Y85497D01*
X132940Y85598D01*
X132919Y85698D01*
X132894Y85797D01*
X132865Y85895D01*
X132832Y85991D01*
X132796Y86087D01*
X132756Y86181D01*
X132712Y86273D01*
X132665Y86364D01*
X132614Y86453D01*
X132561Y86540D01*
X132503Y86624D01*
X132443Y86707D01*
X132380Y86787D01*
X132313Y86864D01*
X132244Y86939D01*
X132171Y87012D01*
X132096Y87081D01*
X132019Y87148D01*
X131939Y87211D01*
X131856Y87271D01*
X131772Y87329D01*
X131685Y87382D01*
X131596Y87433D01*
X131505Y87480D01*
X131413Y87524D01*
X131319Y87564D01*
X131223Y87600D01*
X131127Y87633D01*
X131029Y87662D01*
X130930Y87687D01*
X130830Y87708D01*
X130729Y87726D01*
X130628Y87739D01*
X130526Y87749D01*
X130424Y87755D01*
X130322Y87757D01*
X126766Y87757D01*
X140546Y87757D02*
X140546Y77089D01*
X140546Y87757D02*
X144991Y87757D01*
X145093Y87755D01*
X145195Y87749D01*
X145297Y87739D01*
X145398Y87726D01*
X145499Y87708D01*
X145599Y87687D01*
X145698Y87662D01*
X145796Y87633D01*
X145892Y87600D01*
X145988Y87564D01*
X146082Y87524D01*
X146174Y87480D01*
X146265Y87433D01*
X146354Y87382D01*
X146441Y87329D01*
X146525Y87271D01*
X146608Y87211D01*
X146688Y87148D01*
X146765Y87081D01*
X146840Y87012D01*
X146913Y86939D01*
X146982Y86864D01*
X147049Y86787D01*
X147112Y86707D01*
X147172Y86624D01*
X147230Y86540D01*
X147283Y86453D01*
X147334Y86364D01*
X147381Y86273D01*
X147425Y86181D01*
X147465Y86087D01*
X147501Y85991D01*
X147534Y85895D01*
X147563Y85797D01*
X147588Y85698D01*
X147609Y85598D01*
X147627Y85497D01*
X147640Y85396D01*
X147650Y85294D01*
X147656Y85192D01*
X147658Y85090D01*
X147658Y77089D01*
X157645Y83312D02*
X161646Y83312D01*
X157645Y83313D02*
X157534Y83311D01*
X157423Y83305D01*
X157312Y83295D01*
X157202Y83281D01*
X157092Y83264D01*
X156983Y83242D01*
X156875Y83216D01*
X156768Y83187D01*
X156662Y83154D01*
X156557Y83117D01*
X156454Y83076D01*
X156352Y83032D01*
X156252Y82984D01*
X156154Y82932D01*
X156057Y82877D01*
X155963Y82819D01*
X155870Y82757D01*
X155780Y82692D01*
X155692Y82624D01*
X155607Y82553D01*
X155524Y82479D01*
X155444Y82402D01*
X155367Y82322D01*
X155293Y82239D01*
X155222Y82154D01*
X155154Y82066D01*
X155089Y81976D01*
X155027Y81883D01*
X154969Y81789D01*
X154914Y81692D01*
X154862Y81594D01*
X154814Y81494D01*
X154770Y81392D01*
X154729Y81289D01*
X154692Y81184D01*
X154659Y81078D01*
X154630Y80971D01*
X154604Y80863D01*
X154582Y80754D01*
X154565Y80644D01*
X154551Y80534D01*
X154541Y80423D01*
X154535Y80312D01*
X154533Y80201D01*
X154535Y80090D01*
X154541Y79979D01*
X154551Y79868D01*
X154565Y79758D01*
X154582Y79648D01*
X154604Y79539D01*
X154630Y79431D01*
X154659Y79324D01*
X154692Y79218D01*
X154729Y79113D01*
X154770Y79010D01*
X154814Y78908D01*
X154862Y78808D01*
X154914Y78710D01*
X154969Y78613D01*
X155027Y78519D01*
X155089Y78426D01*
X155154Y78336D01*
X155222Y78248D01*
X155293Y78163D01*
X155367Y78080D01*
X155444Y78000D01*
X155524Y77923D01*
X155607Y77849D01*
X155692Y77778D01*
X155780Y77710D01*
X155870Y77645D01*
X155963Y77583D01*
X156057Y77525D01*
X156154Y77470D01*
X156252Y77418D01*
X156352Y77370D01*
X156454Y77326D01*
X156557Y77285D01*
X156662Y77248D01*
X156768Y77215D01*
X156875Y77186D01*
X156983Y77160D01*
X157092Y77138D01*
X157202Y77121D01*
X157312Y77107D01*
X157423Y77097D01*
X157534Y77091D01*
X157645Y77089D01*
X161646Y77089D01*
X161646Y85090D01*
X161644Y85192D01*
X161638Y85294D01*
X161628Y85396D01*
X161615Y85497D01*
X161597Y85598D01*
X161576Y85698D01*
X161551Y85797D01*
X161522Y85895D01*
X161489Y85991D01*
X161453Y86087D01*
X161413Y86181D01*
X161369Y86273D01*
X161322Y86364D01*
X161271Y86453D01*
X161218Y86540D01*
X161160Y86624D01*
X161100Y86707D01*
X161037Y86787D01*
X160970Y86864D01*
X160901Y86939D01*
X160828Y87012D01*
X160753Y87081D01*
X160676Y87148D01*
X160596Y87211D01*
X160513Y87271D01*
X160429Y87329D01*
X160342Y87382D01*
X160253Y87433D01*
X160162Y87480D01*
X160070Y87524D01*
X159976Y87564D01*
X159880Y87600D01*
X159784Y87633D01*
X159686Y87662D01*
X159587Y87687D01*
X159487Y87708D01*
X159386Y87726D01*
X159285Y87739D01*
X159183Y87749D01*
X159081Y87755D01*
X158979Y87757D01*
X155423Y87757D01*
X169297Y87757D02*
X169297Y77089D01*
X169297Y87757D02*
X174631Y87757D01*
X174631Y85979D01*
X187746Y87757D02*
X190413Y77089D01*
X193080Y84201D01*
X195747Y77089D01*
X198414Y87757D01*
X207665Y83312D02*
X211666Y83312D01*
X207665Y83313D02*
X207554Y83311D01*
X207443Y83305D01*
X207332Y83295D01*
X207222Y83281D01*
X207112Y83264D01*
X207003Y83242D01*
X206895Y83216D01*
X206788Y83187D01*
X206682Y83154D01*
X206577Y83117D01*
X206474Y83076D01*
X206372Y83032D01*
X206272Y82984D01*
X206174Y82932D01*
X206077Y82877D01*
X205983Y82819D01*
X205890Y82757D01*
X205800Y82692D01*
X205712Y82624D01*
X205627Y82553D01*
X205544Y82479D01*
X205464Y82402D01*
X205387Y82322D01*
X205313Y82239D01*
X205242Y82154D01*
X205174Y82066D01*
X205109Y81976D01*
X205047Y81883D01*
X204989Y81789D01*
X204934Y81692D01*
X204882Y81594D01*
X204834Y81494D01*
X204790Y81392D01*
X204749Y81289D01*
X204712Y81184D01*
X204679Y81078D01*
X204650Y80971D01*
X204624Y80863D01*
X204602Y80754D01*
X204585Y80644D01*
X204571Y80534D01*
X204561Y80423D01*
X204555Y80312D01*
X204553Y80201D01*
X204555Y80090D01*
X204561Y79979D01*
X204571Y79868D01*
X204585Y79758D01*
X204602Y79648D01*
X204624Y79539D01*
X204650Y79431D01*
X204679Y79324D01*
X204712Y79218D01*
X204749Y79113D01*
X204790Y79010D01*
X204834Y78908D01*
X204882Y78808D01*
X204934Y78710D01*
X204989Y78613D01*
X205047Y78519D01*
X205109Y78426D01*
X205174Y78336D01*
X205242Y78248D01*
X205313Y78163D01*
X205387Y78080D01*
X205464Y78000D01*
X205544Y77923D01*
X205627Y77849D01*
X205712Y77778D01*
X205800Y77710D01*
X205890Y77645D01*
X205983Y77583D01*
X206077Y77525D01*
X206174Y77470D01*
X206272Y77418D01*
X206372Y77370D01*
X206474Y77326D01*
X206577Y77285D01*
X206682Y77248D01*
X206788Y77215D01*
X206895Y77186D01*
X207003Y77160D01*
X207112Y77138D01*
X207222Y77121D01*
X207332Y77107D01*
X207443Y77097D01*
X207554Y77091D01*
X207665Y77089D01*
X211666Y77089D01*
X211666Y85090D01*
X211664Y85192D01*
X211658Y85294D01*
X211648Y85396D01*
X211635Y85497D01*
X211617Y85598D01*
X211596Y85698D01*
X211571Y85797D01*
X211542Y85895D01*
X211509Y85991D01*
X211473Y86087D01*
X211433Y86181D01*
X211389Y86273D01*
X211342Y86364D01*
X211291Y86453D01*
X211238Y86540D01*
X211180Y86624D01*
X211120Y86707D01*
X211057Y86787D01*
X210990Y86864D01*
X210921Y86939D01*
X210848Y87012D01*
X210773Y87081D01*
X210696Y87148D01*
X210616Y87211D01*
X210533Y87271D01*
X210449Y87329D01*
X210362Y87382D01*
X210273Y87433D01*
X210182Y87480D01*
X210090Y87524D01*
X209996Y87564D01*
X209900Y87600D01*
X209804Y87633D01*
X209706Y87662D01*
X209607Y87687D01*
X209507Y87708D01*
X209406Y87726D01*
X209305Y87739D01*
X209203Y87749D01*
X209101Y87755D01*
X208999Y87757D01*
X205443Y87757D01*
X218181Y87757D02*
X221737Y77089D01*
X225293Y87757D01*
X233874Y77089D02*
X238319Y77089D01*
X233874Y77089D02*
X233772Y77091D01*
X233670Y77097D01*
X233568Y77107D01*
X233467Y77120D01*
X233366Y77138D01*
X233266Y77159D01*
X233167Y77184D01*
X233069Y77213D01*
X232973Y77246D01*
X232877Y77282D01*
X232783Y77322D01*
X232691Y77366D01*
X232600Y77413D01*
X232511Y77464D01*
X232424Y77517D01*
X232340Y77575D01*
X232257Y77635D01*
X232177Y77698D01*
X232100Y77765D01*
X232025Y77834D01*
X231952Y77907D01*
X231883Y77982D01*
X231816Y78059D01*
X231753Y78139D01*
X231693Y78222D01*
X231635Y78306D01*
X231582Y78393D01*
X231531Y78482D01*
X231484Y78573D01*
X231440Y78665D01*
X231400Y78759D01*
X231364Y78855D01*
X231331Y78951D01*
X231302Y79049D01*
X231277Y79148D01*
X231256Y79248D01*
X231238Y79349D01*
X231225Y79450D01*
X231215Y79552D01*
X231209Y79654D01*
X231207Y79756D01*
X231207Y84201D01*
X231209Y84319D01*
X231215Y84436D01*
X231224Y84553D01*
X231238Y84670D01*
X231255Y84786D01*
X231277Y84902D01*
X231302Y85017D01*
X231331Y85131D01*
X231363Y85244D01*
X231400Y85356D01*
X231440Y85466D01*
X231483Y85575D01*
X231531Y85683D01*
X231581Y85789D01*
X231636Y85893D01*
X231693Y85996D01*
X231754Y86096D01*
X231819Y86195D01*
X231886Y86291D01*
X231957Y86385D01*
X232031Y86477D01*
X232107Y86566D01*
X232187Y86652D01*
X232269Y86736D01*
X232355Y86817D01*
X232442Y86895D01*
X232533Y86971D01*
X232626Y87043D01*
X232721Y87112D01*
X232818Y87178D01*
X232918Y87241D01*
X233019Y87300D01*
X233122Y87356D01*
X233228Y87408D01*
X233335Y87457D01*
X233443Y87503D01*
X233553Y87545D01*
X233664Y87583D01*
X233777Y87617D01*
X233890Y87648D01*
X234005Y87675D01*
X234120Y87698D01*
X234236Y87718D01*
X234352Y87733D01*
X234469Y87745D01*
X234587Y87753D01*
X234704Y87757D01*
X234822Y87757D01*
X234939Y87753D01*
X235057Y87745D01*
X235174Y87733D01*
X235290Y87718D01*
X235406Y87698D01*
X235521Y87675D01*
X235636Y87648D01*
X235749Y87617D01*
X235862Y87583D01*
X235973Y87545D01*
X236083Y87503D01*
X236191Y87457D01*
X236298Y87408D01*
X236404Y87356D01*
X236507Y87300D01*
X236608Y87241D01*
X236708Y87178D01*
X236805Y87112D01*
X236900Y87043D01*
X236993Y86971D01*
X237084Y86895D01*
X237171Y86817D01*
X237257Y86736D01*
X237339Y86652D01*
X237419Y86566D01*
X237495Y86477D01*
X237569Y86385D01*
X237640Y86291D01*
X237707Y86195D01*
X237772Y86096D01*
X237833Y85996D01*
X237890Y85893D01*
X237945Y85789D01*
X237995Y85683D01*
X238043Y85575D01*
X238086Y85466D01*
X238126Y85356D01*
X238163Y85244D01*
X238195Y85131D01*
X238224Y85017D01*
X238249Y84902D01*
X238271Y84786D01*
X238288Y84670D01*
X238302Y84553D01*
X238311Y84436D01*
X238317Y84319D01*
X238319Y84201D01*
X238319Y82423D01*
X231207Y82423D01*
X247341Y77089D02*
X251786Y77089D01*
X247341Y77089D02*
X247239Y77091D01*
X247137Y77097D01*
X247035Y77107D01*
X246934Y77120D01*
X246833Y77138D01*
X246733Y77159D01*
X246634Y77184D01*
X246536Y77213D01*
X246440Y77246D01*
X246344Y77282D01*
X246250Y77322D01*
X246158Y77366D01*
X246067Y77413D01*
X245978Y77464D01*
X245891Y77517D01*
X245807Y77575D01*
X245724Y77635D01*
X245644Y77698D01*
X245567Y77765D01*
X245492Y77834D01*
X245419Y77907D01*
X245350Y77982D01*
X245283Y78059D01*
X245220Y78139D01*
X245160Y78222D01*
X245102Y78306D01*
X245049Y78393D01*
X244998Y78482D01*
X244951Y78573D01*
X244907Y78665D01*
X244867Y78759D01*
X244831Y78855D01*
X244798Y78951D01*
X244769Y79049D01*
X244744Y79148D01*
X244723Y79248D01*
X244705Y79349D01*
X244692Y79450D01*
X244682Y79552D01*
X244676Y79654D01*
X244674Y79756D01*
X244674Y85090D01*
X244676Y85192D01*
X244682Y85294D01*
X244692Y85396D01*
X244705Y85497D01*
X244723Y85598D01*
X244744Y85698D01*
X244769Y85797D01*
X244798Y85895D01*
X244831Y85991D01*
X244867Y86087D01*
X244907Y86181D01*
X244951Y86273D01*
X244998Y86364D01*
X245049Y86453D01*
X245102Y86540D01*
X245160Y86624D01*
X245220Y86707D01*
X245283Y86787D01*
X245350Y86864D01*
X245419Y86939D01*
X245492Y87012D01*
X245567Y87081D01*
X245644Y87148D01*
X245724Y87211D01*
X245807Y87271D01*
X245891Y87329D01*
X245978Y87382D01*
X246067Y87433D01*
X246158Y87480D01*
X246250Y87524D01*
X246344Y87564D01*
X246440Y87600D01*
X246536Y87633D01*
X246634Y87662D01*
X246733Y87687D01*
X246833Y87708D01*
X246934Y87726D01*
X247035Y87739D01*
X247137Y87749D01*
X247239Y87755D01*
X247341Y87757D01*
X251786Y87757D01*
X251786Y74422D01*
X251784Y74320D01*
X251778Y74218D01*
X251768Y74116D01*
X251755Y74015D01*
X251737Y73914D01*
X251716Y73814D01*
X251691Y73715D01*
X251662Y73617D01*
X251629Y73521D01*
X251593Y73425D01*
X251553Y73331D01*
X251509Y73239D01*
X251462Y73148D01*
X251411Y73059D01*
X251358Y72972D01*
X251300Y72888D01*
X251240Y72805D01*
X251177Y72725D01*
X251110Y72648D01*
X251041Y72573D01*
X250968Y72500D01*
X250893Y72431D01*
X250816Y72364D01*
X250736Y72301D01*
X250653Y72241D01*
X250569Y72183D01*
X250482Y72130D01*
X250393Y72079D01*
X250302Y72032D01*
X250210Y71988D01*
X250116Y71948D01*
X250020Y71912D01*
X249924Y71879D01*
X249826Y71850D01*
X249727Y71825D01*
X249627Y71804D01*
X249526Y71786D01*
X249425Y71773D01*
X249323Y71763D01*
X249221Y71757D01*
X249119Y71755D01*
X245563Y71755D01*
X259344Y79756D02*
X259344Y87757D01*
X259344Y79756D02*
X259346Y79654D01*
X259352Y79552D01*
X259362Y79450D01*
X259375Y79349D01*
X259393Y79248D01*
X259414Y79148D01*
X259439Y79049D01*
X259468Y78951D01*
X259501Y78855D01*
X259537Y78759D01*
X259577Y78665D01*
X259621Y78573D01*
X259668Y78482D01*
X259719Y78393D01*
X259772Y78306D01*
X259830Y78222D01*
X259890Y78139D01*
X259953Y78059D01*
X260020Y77982D01*
X260089Y77907D01*
X260162Y77834D01*
X260237Y77765D01*
X260314Y77698D01*
X260394Y77635D01*
X260477Y77575D01*
X260561Y77517D01*
X260648Y77464D01*
X260737Y77413D01*
X260828Y77366D01*
X260920Y77322D01*
X261014Y77282D01*
X261110Y77246D01*
X261206Y77213D01*
X261304Y77184D01*
X261403Y77159D01*
X261503Y77138D01*
X261604Y77120D01*
X261705Y77107D01*
X261807Y77097D01*
X261909Y77091D01*
X262011Y77089D01*
X266456Y77089D01*
X266456Y87757D01*
X273320Y87757D02*
X273320Y77089D01*
X272876Y92202D02*
X272876Y93091D01*
X273765Y93091D01*
X273765Y92202D01*
X272876Y92202D01*
X286695Y93091D02*
X286695Y77089D01*
X282250Y77089D01*
X282148Y77091D01*
X282046Y77097D01*
X281944Y77107D01*
X281843Y77120D01*
X281742Y77138D01*
X281642Y77159D01*
X281543Y77184D01*
X281445Y77213D01*
X281349Y77246D01*
X281253Y77282D01*
X281159Y77322D01*
X281067Y77366D01*
X280976Y77413D01*
X280887Y77464D01*
X280800Y77517D01*
X280716Y77575D01*
X280633Y77635D01*
X280553Y77698D01*
X280476Y77765D01*
X280401Y77834D01*
X280328Y77907D01*
X280259Y77982D01*
X280192Y78059D01*
X280129Y78139D01*
X280069Y78222D01*
X280011Y78306D01*
X279958Y78393D01*
X279907Y78482D01*
X279860Y78573D01*
X279816Y78665D01*
X279776Y78759D01*
X279740Y78855D01*
X279707Y78951D01*
X279678Y79049D01*
X279653Y79148D01*
X279632Y79248D01*
X279614Y79349D01*
X279601Y79450D01*
X279591Y79552D01*
X279585Y79654D01*
X279583Y79756D01*
X279583Y85090D01*
X279585Y85192D01*
X279591Y85294D01*
X279601Y85396D01*
X279614Y85497D01*
X279632Y85598D01*
X279653Y85698D01*
X279678Y85797D01*
X279707Y85895D01*
X279740Y85991D01*
X279776Y86087D01*
X279816Y86181D01*
X279860Y86273D01*
X279907Y86364D01*
X279958Y86453D01*
X280011Y86540D01*
X280069Y86624D01*
X280129Y86707D01*
X280192Y86787D01*
X280259Y86864D01*
X280328Y86939D01*
X280401Y87012D01*
X280476Y87081D01*
X280553Y87148D01*
X280633Y87211D01*
X280716Y87271D01*
X280800Y87329D01*
X280887Y87382D01*
X280976Y87433D01*
X281067Y87480D01*
X281159Y87524D01*
X281253Y87564D01*
X281349Y87600D01*
X281445Y87633D01*
X281543Y87662D01*
X281642Y87687D01*
X281742Y87708D01*
X281843Y87726D01*
X281944Y87739D01*
X282046Y87749D01*
X282148Y87755D01*
X282250Y87757D01*
X286695Y87757D01*
X296399Y77089D02*
X300844Y77089D01*
X296399Y77089D02*
X296297Y77091D01*
X296195Y77097D01*
X296093Y77107D01*
X295992Y77120D01*
X295891Y77138D01*
X295791Y77159D01*
X295692Y77184D01*
X295594Y77213D01*
X295498Y77246D01*
X295402Y77282D01*
X295308Y77322D01*
X295216Y77366D01*
X295125Y77413D01*
X295036Y77464D01*
X294949Y77517D01*
X294865Y77575D01*
X294782Y77635D01*
X294702Y77698D01*
X294625Y77765D01*
X294550Y77834D01*
X294477Y77907D01*
X294408Y77982D01*
X294341Y78059D01*
X294278Y78139D01*
X294218Y78222D01*
X294160Y78306D01*
X294107Y78393D01*
X294056Y78482D01*
X294009Y78573D01*
X293965Y78665D01*
X293925Y78759D01*
X293889Y78855D01*
X293856Y78951D01*
X293827Y79049D01*
X293802Y79148D01*
X293781Y79248D01*
X293763Y79349D01*
X293750Y79450D01*
X293740Y79552D01*
X293734Y79654D01*
X293732Y79756D01*
X293732Y84201D01*
X293734Y84319D01*
X293740Y84436D01*
X293749Y84553D01*
X293763Y84670D01*
X293780Y84786D01*
X293802Y84902D01*
X293827Y85017D01*
X293856Y85131D01*
X293888Y85244D01*
X293925Y85356D01*
X293965Y85466D01*
X294008Y85575D01*
X294056Y85683D01*
X294106Y85789D01*
X294161Y85893D01*
X294218Y85996D01*
X294279Y86096D01*
X294344Y86195D01*
X294411Y86291D01*
X294482Y86385D01*
X294556Y86477D01*
X294632Y86566D01*
X294712Y86652D01*
X294794Y86736D01*
X294880Y86817D01*
X294967Y86895D01*
X295058Y86971D01*
X295151Y87043D01*
X295246Y87112D01*
X295343Y87178D01*
X295443Y87241D01*
X295544Y87300D01*
X295647Y87356D01*
X295753Y87408D01*
X295860Y87457D01*
X295968Y87503D01*
X296078Y87545D01*
X296189Y87583D01*
X296302Y87617D01*
X296415Y87648D01*
X296530Y87675D01*
X296645Y87698D01*
X296761Y87718D01*
X296877Y87733D01*
X296994Y87745D01*
X297112Y87753D01*
X297229Y87757D01*
X297347Y87757D01*
X297464Y87753D01*
X297582Y87745D01*
X297699Y87733D01*
X297815Y87718D01*
X297931Y87698D01*
X298046Y87675D01*
X298161Y87648D01*
X298274Y87617D01*
X298387Y87583D01*
X298498Y87545D01*
X298608Y87503D01*
X298716Y87457D01*
X298823Y87408D01*
X298929Y87356D01*
X299032Y87300D01*
X299133Y87241D01*
X299233Y87178D01*
X299330Y87112D01*
X299425Y87043D01*
X299518Y86971D01*
X299609Y86895D01*
X299696Y86817D01*
X299782Y86736D01*
X299864Y86652D01*
X299944Y86566D01*
X300020Y86477D01*
X300094Y86385D01*
X300165Y86291D01*
X300232Y86195D01*
X300297Y86096D01*
X300358Y85996D01*
X300415Y85893D01*
X300470Y85789D01*
X300520Y85683D01*
X300568Y85575D01*
X300611Y85466D01*
X300651Y85356D01*
X300688Y85244D01*
X300720Y85131D01*
X300749Y85017D01*
X300774Y84902D01*
X300796Y84786D01*
X300813Y84670D01*
X300827Y84553D01*
X300836Y84436D01*
X300842Y84319D01*
X300844Y84201D01*
X300844Y82423D01*
X293732Y82423D01*
X315616Y80645D02*
X315616Y84201D01*
X315618Y84319D01*
X315624Y84436D01*
X315633Y84553D01*
X315647Y84670D01*
X315664Y84786D01*
X315686Y84902D01*
X315711Y85017D01*
X315740Y85131D01*
X315772Y85244D01*
X315809Y85356D01*
X315849Y85466D01*
X315892Y85575D01*
X315940Y85683D01*
X315990Y85789D01*
X316045Y85893D01*
X316102Y85996D01*
X316163Y86096D01*
X316228Y86195D01*
X316295Y86291D01*
X316366Y86385D01*
X316440Y86477D01*
X316516Y86566D01*
X316596Y86652D01*
X316678Y86736D01*
X316764Y86817D01*
X316851Y86895D01*
X316942Y86971D01*
X317035Y87043D01*
X317130Y87112D01*
X317227Y87178D01*
X317327Y87241D01*
X317428Y87300D01*
X317531Y87356D01*
X317637Y87408D01*
X317744Y87457D01*
X317852Y87503D01*
X317962Y87545D01*
X318073Y87583D01*
X318186Y87617D01*
X318299Y87648D01*
X318414Y87675D01*
X318529Y87698D01*
X318645Y87718D01*
X318761Y87733D01*
X318878Y87745D01*
X318996Y87753D01*
X319113Y87757D01*
X319231Y87757D01*
X319348Y87753D01*
X319466Y87745D01*
X319583Y87733D01*
X319699Y87718D01*
X319815Y87698D01*
X319930Y87675D01*
X320045Y87648D01*
X320158Y87617D01*
X320271Y87583D01*
X320382Y87545D01*
X320492Y87503D01*
X320600Y87457D01*
X320707Y87408D01*
X320813Y87356D01*
X320916Y87300D01*
X321017Y87241D01*
X321117Y87178D01*
X321214Y87112D01*
X321309Y87043D01*
X321402Y86971D01*
X321493Y86895D01*
X321580Y86817D01*
X321666Y86736D01*
X321748Y86652D01*
X321828Y86566D01*
X321904Y86477D01*
X321978Y86385D01*
X322049Y86291D01*
X322116Y86195D01*
X322181Y86096D01*
X322242Y85996D01*
X322299Y85893D01*
X322354Y85789D01*
X322404Y85683D01*
X322452Y85575D01*
X322495Y85466D01*
X322535Y85356D01*
X322572Y85244D01*
X322604Y85131D01*
X322633Y85017D01*
X322658Y84902D01*
X322680Y84786D01*
X322697Y84670D01*
X322711Y84553D01*
X322720Y84436D01*
X322726Y84319D01*
X322728Y84201D01*
X322728Y80645D01*
X322726Y80527D01*
X322720Y80410D01*
X322711Y80293D01*
X322697Y80176D01*
X322680Y80060D01*
X322658Y79944D01*
X322633Y79829D01*
X322604Y79715D01*
X322572Y79602D01*
X322535Y79490D01*
X322495Y79380D01*
X322452Y79271D01*
X322404Y79163D01*
X322354Y79057D01*
X322299Y78953D01*
X322242Y78850D01*
X322181Y78750D01*
X322116Y78651D01*
X322049Y78555D01*
X321978Y78461D01*
X321904Y78369D01*
X321828Y78280D01*
X321748Y78194D01*
X321666Y78110D01*
X321580Y78029D01*
X321493Y77951D01*
X321402Y77875D01*
X321309Y77803D01*
X321214Y77734D01*
X321117Y77668D01*
X321017Y77605D01*
X320916Y77546D01*
X320813Y77490D01*
X320707Y77438D01*
X320600Y77389D01*
X320492Y77343D01*
X320382Y77301D01*
X320271Y77263D01*
X320158Y77229D01*
X320045Y77198D01*
X319930Y77171D01*
X319815Y77148D01*
X319699Y77128D01*
X319583Y77113D01*
X319466Y77101D01*
X319348Y77093D01*
X319231Y77089D01*
X319113Y77089D01*
X318996Y77093D01*
X318878Y77101D01*
X318761Y77113D01*
X318645Y77128D01*
X318529Y77148D01*
X318414Y77171D01*
X318299Y77198D01*
X318186Y77229D01*
X318073Y77263D01*
X317962Y77301D01*
X317852Y77343D01*
X317744Y77389D01*
X317637Y77438D01*
X317531Y77490D01*
X317428Y77546D01*
X317327Y77605D01*
X317227Y77668D01*
X317130Y77734D01*
X317035Y77803D01*
X316942Y77875D01*
X316851Y77951D01*
X316764Y78029D01*
X316678Y78110D01*
X316596Y78194D01*
X316516Y78280D01*
X316440Y78369D01*
X316366Y78461D01*
X316295Y78555D01*
X316228Y78651D01*
X316163Y78750D01*
X316102Y78850D01*
X316045Y78953D01*
X315990Y79057D01*
X315940Y79163D01*
X315892Y79271D01*
X315849Y79380D01*
X315809Y79490D01*
X315772Y79602D01*
X315740Y79715D01*
X315711Y79829D01*
X315686Y79944D01*
X315664Y80060D01*
X315647Y80176D01*
X315633Y80293D01*
X315624Y80410D01*
X315618Y80527D01*
X315616Y80645D01*
X328642Y87757D02*
X332198Y77089D01*
X335754Y87757D01*
X344335Y77089D02*
X348780Y77089D01*
X344335Y77089D02*
X344233Y77091D01*
X344131Y77097D01*
X344029Y77107D01*
X343928Y77120D01*
X343827Y77138D01*
X343727Y77159D01*
X343628Y77184D01*
X343530Y77213D01*
X343434Y77246D01*
X343338Y77282D01*
X343244Y77322D01*
X343152Y77366D01*
X343061Y77413D01*
X342972Y77464D01*
X342885Y77517D01*
X342801Y77575D01*
X342718Y77635D01*
X342638Y77698D01*
X342561Y77765D01*
X342486Y77834D01*
X342413Y77907D01*
X342344Y77982D01*
X342277Y78059D01*
X342214Y78139D01*
X342154Y78222D01*
X342096Y78306D01*
X342043Y78393D01*
X341992Y78482D01*
X341945Y78573D01*
X341901Y78665D01*
X341861Y78759D01*
X341825Y78855D01*
X341792Y78951D01*
X341763Y79049D01*
X341738Y79148D01*
X341717Y79248D01*
X341699Y79349D01*
X341686Y79450D01*
X341676Y79552D01*
X341670Y79654D01*
X341668Y79756D01*
X341668Y84201D01*
X341670Y84319D01*
X341676Y84436D01*
X341685Y84553D01*
X341699Y84670D01*
X341716Y84786D01*
X341738Y84902D01*
X341763Y85017D01*
X341792Y85131D01*
X341824Y85244D01*
X341861Y85356D01*
X341901Y85466D01*
X341944Y85575D01*
X341992Y85683D01*
X342042Y85789D01*
X342097Y85893D01*
X342154Y85996D01*
X342215Y86096D01*
X342280Y86195D01*
X342347Y86291D01*
X342418Y86385D01*
X342492Y86477D01*
X342568Y86566D01*
X342648Y86652D01*
X342730Y86736D01*
X342816Y86817D01*
X342903Y86895D01*
X342994Y86971D01*
X343087Y87043D01*
X343182Y87112D01*
X343279Y87178D01*
X343379Y87241D01*
X343480Y87300D01*
X343583Y87356D01*
X343689Y87408D01*
X343796Y87457D01*
X343904Y87503D01*
X344014Y87545D01*
X344125Y87583D01*
X344238Y87617D01*
X344351Y87648D01*
X344466Y87675D01*
X344581Y87698D01*
X344697Y87718D01*
X344813Y87733D01*
X344930Y87745D01*
X345048Y87753D01*
X345165Y87757D01*
X345283Y87757D01*
X345400Y87753D01*
X345518Y87745D01*
X345635Y87733D01*
X345751Y87718D01*
X345867Y87698D01*
X345982Y87675D01*
X346097Y87648D01*
X346210Y87617D01*
X346323Y87583D01*
X346434Y87545D01*
X346544Y87503D01*
X346652Y87457D01*
X346759Y87408D01*
X346865Y87356D01*
X346968Y87300D01*
X347069Y87241D01*
X347169Y87178D01*
X347266Y87112D01*
X347361Y87043D01*
X347454Y86971D01*
X347545Y86895D01*
X347632Y86817D01*
X347718Y86736D01*
X347800Y86652D01*
X347880Y86566D01*
X347956Y86477D01*
X348030Y86385D01*
X348101Y86291D01*
X348168Y86195D01*
X348233Y86096D01*
X348294Y85996D01*
X348351Y85893D01*
X348406Y85789D01*
X348456Y85683D01*
X348504Y85575D01*
X348547Y85466D01*
X348587Y85356D01*
X348624Y85244D01*
X348656Y85131D01*
X348685Y85017D01*
X348710Y84902D01*
X348732Y84786D01*
X348749Y84670D01*
X348763Y84553D01*
X348772Y84436D01*
X348778Y84319D01*
X348780Y84201D01*
X348780Y82423D01*
X341668Y82423D01*
X355829Y77089D02*
X355829Y87757D01*
X361163Y87757D01*
X361163Y85979D01*
X377080Y77089D02*
X381525Y77089D01*
X377080Y77089D02*
X376978Y77091D01*
X376876Y77097D01*
X376774Y77107D01*
X376673Y77120D01*
X376572Y77138D01*
X376472Y77159D01*
X376373Y77184D01*
X376275Y77213D01*
X376179Y77246D01*
X376083Y77282D01*
X375989Y77322D01*
X375897Y77366D01*
X375806Y77413D01*
X375717Y77464D01*
X375630Y77517D01*
X375546Y77575D01*
X375463Y77635D01*
X375383Y77698D01*
X375306Y77765D01*
X375231Y77834D01*
X375158Y77907D01*
X375089Y77982D01*
X375022Y78059D01*
X374959Y78139D01*
X374899Y78222D01*
X374841Y78306D01*
X374788Y78393D01*
X374737Y78482D01*
X374690Y78573D01*
X374646Y78665D01*
X374606Y78759D01*
X374570Y78855D01*
X374537Y78951D01*
X374508Y79049D01*
X374483Y79148D01*
X374462Y79248D01*
X374444Y79349D01*
X374431Y79450D01*
X374421Y79552D01*
X374415Y79654D01*
X374413Y79756D01*
X374413Y85090D01*
X374415Y85192D01*
X374421Y85294D01*
X374431Y85396D01*
X374444Y85497D01*
X374462Y85598D01*
X374483Y85698D01*
X374508Y85797D01*
X374537Y85895D01*
X374570Y85991D01*
X374606Y86087D01*
X374646Y86181D01*
X374690Y86273D01*
X374737Y86364D01*
X374788Y86453D01*
X374841Y86540D01*
X374899Y86624D01*
X374959Y86707D01*
X375022Y86787D01*
X375089Y86864D01*
X375158Y86939D01*
X375231Y87012D01*
X375306Y87081D01*
X375383Y87148D01*
X375463Y87211D01*
X375546Y87271D01*
X375630Y87329D01*
X375717Y87382D01*
X375806Y87433D01*
X375897Y87480D01*
X375989Y87524D01*
X376083Y87564D01*
X376179Y87600D01*
X376275Y87633D01*
X376373Y87662D01*
X376472Y87687D01*
X376572Y87708D01*
X376673Y87726D01*
X376774Y87739D01*
X376876Y87749D01*
X376978Y87755D01*
X377080Y87757D01*
X381525Y87757D01*
X381525Y74422D01*
X381523Y74320D01*
X381517Y74218D01*
X381507Y74116D01*
X381494Y74015D01*
X381476Y73914D01*
X381455Y73814D01*
X381430Y73715D01*
X381401Y73617D01*
X381368Y73521D01*
X381332Y73425D01*
X381292Y73331D01*
X381248Y73239D01*
X381201Y73148D01*
X381150Y73059D01*
X381097Y72972D01*
X381039Y72888D01*
X380979Y72805D01*
X380916Y72725D01*
X380849Y72648D01*
X380780Y72573D01*
X380707Y72500D01*
X380632Y72431D01*
X380555Y72364D01*
X380475Y72301D01*
X380392Y72241D01*
X380308Y72183D01*
X380221Y72130D01*
X380132Y72079D01*
X380041Y72032D01*
X379949Y71988D01*
X379855Y71948D01*
X379759Y71912D01*
X379663Y71879D01*
X379565Y71850D01*
X379466Y71825D01*
X379366Y71804D01*
X379265Y71786D01*
X379164Y71773D01*
X379062Y71763D01*
X378960Y71757D01*
X378858Y71755D01*
X375302Y71755D01*
X389176Y77089D02*
X389176Y87757D01*
X394510Y87757D01*
X394510Y85979D01*
X399503Y84201D02*
X399503Y80645D01*
X399503Y84201D02*
X399505Y84319D01*
X399511Y84436D01*
X399520Y84553D01*
X399534Y84670D01*
X399551Y84786D01*
X399573Y84902D01*
X399598Y85017D01*
X399627Y85131D01*
X399659Y85244D01*
X399696Y85356D01*
X399736Y85466D01*
X399779Y85575D01*
X399827Y85683D01*
X399877Y85789D01*
X399932Y85893D01*
X399989Y85996D01*
X400050Y86096D01*
X400115Y86195D01*
X400182Y86291D01*
X400253Y86385D01*
X400327Y86477D01*
X400403Y86566D01*
X400483Y86652D01*
X400565Y86736D01*
X400651Y86817D01*
X400738Y86895D01*
X400829Y86971D01*
X400922Y87043D01*
X401017Y87112D01*
X401114Y87178D01*
X401214Y87241D01*
X401315Y87300D01*
X401418Y87356D01*
X401524Y87408D01*
X401631Y87457D01*
X401739Y87503D01*
X401849Y87545D01*
X401960Y87583D01*
X402073Y87617D01*
X402186Y87648D01*
X402301Y87675D01*
X402416Y87698D01*
X402532Y87718D01*
X402648Y87733D01*
X402765Y87745D01*
X402883Y87753D01*
X403000Y87757D01*
X403118Y87757D01*
X403235Y87753D01*
X403353Y87745D01*
X403470Y87733D01*
X403586Y87718D01*
X403702Y87698D01*
X403817Y87675D01*
X403932Y87648D01*
X404045Y87617D01*
X404158Y87583D01*
X404269Y87545D01*
X404379Y87503D01*
X404487Y87457D01*
X404594Y87408D01*
X404700Y87356D01*
X404803Y87300D01*
X404904Y87241D01*
X405004Y87178D01*
X405101Y87112D01*
X405196Y87043D01*
X405289Y86971D01*
X405380Y86895D01*
X405467Y86817D01*
X405553Y86736D01*
X405635Y86652D01*
X405715Y86566D01*
X405791Y86477D01*
X405865Y86385D01*
X405936Y86291D01*
X406003Y86195D01*
X406068Y86096D01*
X406129Y85996D01*
X406186Y85893D01*
X406241Y85789D01*
X406291Y85683D01*
X406339Y85575D01*
X406382Y85466D01*
X406422Y85356D01*
X406459Y85244D01*
X406491Y85131D01*
X406520Y85017D01*
X406545Y84902D01*
X406567Y84786D01*
X406584Y84670D01*
X406598Y84553D01*
X406607Y84436D01*
X406613Y84319D01*
X406615Y84201D01*
X406615Y80645D01*
X406613Y80527D01*
X406607Y80410D01*
X406598Y80293D01*
X406584Y80176D01*
X406567Y80060D01*
X406545Y79944D01*
X406520Y79829D01*
X406491Y79715D01*
X406459Y79602D01*
X406422Y79490D01*
X406382Y79380D01*
X406339Y79271D01*
X406291Y79163D01*
X406241Y79057D01*
X406186Y78953D01*
X406129Y78850D01*
X406068Y78750D01*
X406003Y78651D01*
X405936Y78555D01*
X405865Y78461D01*
X405791Y78369D01*
X405715Y78280D01*
X405635Y78194D01*
X405553Y78110D01*
X405467Y78029D01*
X405380Y77951D01*
X405289Y77875D01*
X405196Y77803D01*
X405101Y77734D01*
X405004Y77668D01*
X404904Y77605D01*
X404803Y77546D01*
X404700Y77490D01*
X404594Y77438D01*
X404487Y77389D01*
X404379Y77343D01*
X404269Y77301D01*
X404158Y77263D01*
X404045Y77229D01*
X403932Y77198D01*
X403817Y77171D01*
X403702Y77148D01*
X403586Y77128D01*
X403470Y77113D01*
X403353Y77101D01*
X403235Y77093D01*
X403118Y77089D01*
X403000Y77089D01*
X402883Y77093D01*
X402765Y77101D01*
X402648Y77113D01*
X402532Y77128D01*
X402416Y77148D01*
X402301Y77171D01*
X402186Y77198D01*
X402073Y77229D01*
X401960Y77263D01*
X401849Y77301D01*
X401739Y77343D01*
X401631Y77389D01*
X401524Y77438D01*
X401418Y77490D01*
X401315Y77546D01*
X401214Y77605D01*
X401114Y77668D01*
X401017Y77734D01*
X400922Y77803D01*
X400829Y77875D01*
X400738Y77951D01*
X400651Y78029D01*
X400565Y78110D01*
X400483Y78194D01*
X400403Y78280D01*
X400327Y78369D01*
X400253Y78461D01*
X400182Y78555D01*
X400115Y78651D01*
X400050Y78750D01*
X399989Y78850D01*
X399932Y78953D01*
X399877Y79057D01*
X399827Y79163D01*
X399779Y79271D01*
X399736Y79380D01*
X399696Y79490D01*
X399659Y79602D01*
X399627Y79715D01*
X399598Y79829D01*
X399573Y79944D01*
X399551Y80060D01*
X399534Y80176D01*
X399520Y80293D01*
X399511Y80410D01*
X399505Y80527D01*
X399503Y80645D01*
X413571Y79756D02*
X413571Y87757D01*
X413571Y79756D02*
X413573Y79654D01*
X413579Y79552D01*
X413589Y79450D01*
X413602Y79349D01*
X413620Y79248D01*
X413641Y79148D01*
X413666Y79049D01*
X413695Y78951D01*
X413728Y78855D01*
X413764Y78759D01*
X413804Y78665D01*
X413848Y78573D01*
X413895Y78482D01*
X413946Y78393D01*
X413999Y78306D01*
X414057Y78222D01*
X414117Y78139D01*
X414180Y78059D01*
X414247Y77982D01*
X414316Y77907D01*
X414389Y77834D01*
X414464Y77765D01*
X414541Y77698D01*
X414621Y77635D01*
X414704Y77575D01*
X414788Y77517D01*
X414875Y77464D01*
X414964Y77413D01*
X415055Y77366D01*
X415147Y77322D01*
X415241Y77282D01*
X415337Y77246D01*
X415433Y77213D01*
X415531Y77184D01*
X415630Y77159D01*
X415730Y77138D01*
X415831Y77120D01*
X415932Y77107D01*
X416034Y77097D01*
X416136Y77091D01*
X416238Y77089D01*
X420683Y77089D01*
X420683Y87757D01*
X428161Y87757D02*
X428161Y77089D01*
X428161Y87757D02*
X432606Y87757D01*
X432708Y87755D01*
X432810Y87749D01*
X432912Y87739D01*
X433013Y87726D01*
X433114Y87708D01*
X433214Y87687D01*
X433313Y87662D01*
X433411Y87633D01*
X433507Y87600D01*
X433603Y87564D01*
X433697Y87524D01*
X433789Y87480D01*
X433880Y87433D01*
X433969Y87382D01*
X434056Y87329D01*
X434140Y87271D01*
X434223Y87211D01*
X434303Y87148D01*
X434380Y87081D01*
X434455Y87012D01*
X434528Y86939D01*
X434597Y86864D01*
X434664Y86787D01*
X434727Y86707D01*
X434787Y86624D01*
X434845Y86540D01*
X434898Y86453D01*
X434949Y86364D01*
X434996Y86273D01*
X435040Y86181D01*
X435080Y86087D01*
X435116Y85991D01*
X435149Y85895D01*
X435178Y85797D01*
X435203Y85698D01*
X435224Y85598D01*
X435242Y85497D01*
X435255Y85396D01*
X435265Y85294D01*
X435271Y85192D01*
X435273Y85090D01*
X435273Y77089D01*
X449260Y77089D02*
X449260Y93091D01*
X449260Y77089D02*
X444815Y77089D01*
X444713Y77091D01*
X444611Y77097D01*
X444509Y77107D01*
X444408Y77120D01*
X444307Y77138D01*
X444207Y77159D01*
X444108Y77184D01*
X444010Y77213D01*
X443914Y77246D01*
X443818Y77282D01*
X443724Y77322D01*
X443632Y77366D01*
X443541Y77413D01*
X443452Y77464D01*
X443365Y77517D01*
X443281Y77575D01*
X443198Y77635D01*
X443118Y77698D01*
X443041Y77765D01*
X442966Y77834D01*
X442893Y77907D01*
X442824Y77982D01*
X442757Y78059D01*
X442694Y78139D01*
X442634Y78222D01*
X442576Y78306D01*
X442523Y78393D01*
X442472Y78482D01*
X442425Y78573D01*
X442381Y78665D01*
X442341Y78759D01*
X442305Y78855D01*
X442272Y78951D01*
X442243Y79049D01*
X442218Y79148D01*
X442197Y79248D01*
X442179Y79349D01*
X442166Y79450D01*
X442156Y79552D01*
X442150Y79654D01*
X442148Y79756D01*
X442148Y85090D01*
X442150Y85192D01*
X442156Y85294D01*
X442166Y85396D01*
X442179Y85497D01*
X442197Y85598D01*
X442218Y85698D01*
X442243Y85797D01*
X442272Y85895D01*
X442305Y85991D01*
X442341Y86087D01*
X442381Y86181D01*
X442425Y86273D01*
X442472Y86364D01*
X442523Y86453D01*
X442576Y86540D01*
X442634Y86624D01*
X442694Y86707D01*
X442757Y86787D01*
X442824Y86864D01*
X442893Y86939D01*
X442966Y87012D01*
X443041Y87081D01*
X443118Y87148D01*
X443198Y87211D01*
X443281Y87271D01*
X443365Y87329D01*
X443452Y87382D01*
X443541Y87433D01*
X443632Y87480D01*
X443724Y87524D01*
X443818Y87564D01*
X443914Y87600D01*
X444010Y87633D01*
X444108Y87662D01*
X444207Y87687D01*
X444307Y87708D01*
X444408Y87726D01*
X444509Y87739D01*
X444611Y87749D01*
X444713Y87755D01*
X444815Y87757D01*
X449260Y87757D01*
X465235Y87757D02*
X465235Y71755D01*
X465235Y87757D02*
X469680Y87757D01*
X469782Y87755D01*
X469884Y87749D01*
X469986Y87739D01*
X470087Y87726D01*
X470188Y87708D01*
X470288Y87687D01*
X470387Y87662D01*
X470485Y87633D01*
X470581Y87600D01*
X470677Y87564D01*
X470771Y87524D01*
X470863Y87480D01*
X470954Y87433D01*
X471043Y87382D01*
X471130Y87329D01*
X471214Y87271D01*
X471297Y87211D01*
X471377Y87148D01*
X471454Y87081D01*
X471529Y87012D01*
X471602Y86939D01*
X471671Y86864D01*
X471738Y86787D01*
X471801Y86707D01*
X471861Y86624D01*
X471919Y86540D01*
X471972Y86453D01*
X472023Y86364D01*
X472070Y86273D01*
X472114Y86181D01*
X472154Y86087D01*
X472190Y85991D01*
X472223Y85895D01*
X472252Y85797D01*
X472277Y85698D01*
X472298Y85598D01*
X472316Y85497D01*
X472329Y85396D01*
X472339Y85294D01*
X472345Y85192D01*
X472347Y85090D01*
X472347Y79756D01*
X472345Y79654D01*
X472339Y79552D01*
X472329Y79450D01*
X472316Y79349D01*
X472298Y79248D01*
X472277Y79148D01*
X472252Y79049D01*
X472223Y78951D01*
X472190Y78855D01*
X472154Y78759D01*
X472114Y78665D01*
X472070Y78573D01*
X472023Y78482D01*
X471972Y78393D01*
X471919Y78306D01*
X471861Y78222D01*
X471801Y78139D01*
X471738Y78059D01*
X471671Y77982D01*
X471602Y77907D01*
X471529Y77834D01*
X471454Y77765D01*
X471377Y77698D01*
X471297Y77635D01*
X471214Y77575D01*
X471130Y77517D01*
X471043Y77464D01*
X470954Y77413D01*
X470863Y77366D01*
X470771Y77322D01*
X470677Y77282D01*
X470581Y77246D01*
X470485Y77213D01*
X470387Y77184D01*
X470288Y77159D01*
X470188Y77138D01*
X470087Y77120D01*
X469986Y77107D01*
X469884Y77097D01*
X469782Y77091D01*
X469680Y77089D01*
X465235Y77089D01*
X478910Y79756D02*
X478910Y93091D01*
X478910Y79756D02*
X478912Y79654D01*
X478918Y79552D01*
X478928Y79450D01*
X478941Y79349D01*
X478959Y79248D01*
X478980Y79148D01*
X479005Y79049D01*
X479034Y78951D01*
X479067Y78855D01*
X479103Y78759D01*
X479143Y78665D01*
X479187Y78573D01*
X479234Y78482D01*
X479285Y78393D01*
X479338Y78306D01*
X479396Y78222D01*
X479456Y78139D01*
X479519Y78059D01*
X479586Y77982D01*
X479655Y77907D01*
X479728Y77834D01*
X479803Y77765D01*
X479880Y77698D01*
X479960Y77635D01*
X480043Y77575D01*
X480127Y77517D01*
X480214Y77464D01*
X480303Y77413D01*
X480394Y77366D01*
X480486Y77322D01*
X480580Y77282D01*
X480676Y77246D01*
X480772Y77213D01*
X480870Y77184D01*
X480969Y77159D01*
X481069Y77138D01*
X481170Y77120D01*
X481271Y77107D01*
X481373Y77097D01*
X481475Y77091D01*
X481577Y77089D01*
X490069Y83312D02*
X494069Y83312D01*
X490069Y83313D02*
X489958Y83311D01*
X489847Y83305D01*
X489736Y83295D01*
X489626Y83281D01*
X489516Y83264D01*
X489407Y83242D01*
X489299Y83216D01*
X489192Y83187D01*
X489086Y83154D01*
X488981Y83117D01*
X488878Y83076D01*
X488776Y83032D01*
X488676Y82984D01*
X488578Y82932D01*
X488481Y82877D01*
X488387Y82819D01*
X488294Y82757D01*
X488204Y82692D01*
X488116Y82624D01*
X488031Y82553D01*
X487948Y82479D01*
X487868Y82402D01*
X487791Y82322D01*
X487717Y82239D01*
X487646Y82154D01*
X487578Y82066D01*
X487513Y81976D01*
X487451Y81883D01*
X487393Y81789D01*
X487338Y81692D01*
X487286Y81594D01*
X487238Y81494D01*
X487194Y81392D01*
X487153Y81289D01*
X487116Y81184D01*
X487083Y81078D01*
X487054Y80971D01*
X487028Y80863D01*
X487006Y80754D01*
X486989Y80644D01*
X486975Y80534D01*
X486965Y80423D01*
X486959Y80312D01*
X486957Y80201D01*
X486959Y80090D01*
X486965Y79979D01*
X486975Y79868D01*
X486989Y79758D01*
X487006Y79648D01*
X487028Y79539D01*
X487054Y79431D01*
X487083Y79324D01*
X487116Y79218D01*
X487153Y79113D01*
X487194Y79010D01*
X487238Y78908D01*
X487286Y78808D01*
X487338Y78710D01*
X487393Y78613D01*
X487451Y78519D01*
X487513Y78426D01*
X487578Y78336D01*
X487646Y78248D01*
X487717Y78163D01*
X487791Y78080D01*
X487868Y78000D01*
X487948Y77923D01*
X488031Y77849D01*
X488116Y77778D01*
X488204Y77710D01*
X488294Y77645D01*
X488387Y77583D01*
X488481Y77525D01*
X488578Y77470D01*
X488676Y77418D01*
X488776Y77370D01*
X488878Y77326D01*
X488981Y77285D01*
X489086Y77248D01*
X489192Y77215D01*
X489299Y77186D01*
X489407Y77160D01*
X489516Y77138D01*
X489626Y77121D01*
X489736Y77107D01*
X489847Y77097D01*
X489958Y77091D01*
X490069Y77089D01*
X494069Y77089D01*
X494069Y85090D01*
X494067Y85192D01*
X494061Y85294D01*
X494051Y85396D01*
X494038Y85497D01*
X494020Y85598D01*
X493999Y85698D01*
X493974Y85797D01*
X493945Y85895D01*
X493912Y85991D01*
X493876Y86087D01*
X493836Y86181D01*
X493792Y86273D01*
X493745Y86364D01*
X493694Y86453D01*
X493641Y86540D01*
X493583Y86624D01*
X493523Y86707D01*
X493460Y86787D01*
X493393Y86864D01*
X493324Y86939D01*
X493251Y87012D01*
X493176Y87081D01*
X493099Y87148D01*
X493019Y87211D01*
X492936Y87271D01*
X492852Y87329D01*
X492765Y87382D01*
X492676Y87433D01*
X492585Y87480D01*
X492493Y87524D01*
X492399Y87564D01*
X492303Y87600D01*
X492207Y87633D01*
X492109Y87662D01*
X492010Y87687D01*
X491910Y87708D01*
X491809Y87726D01*
X491708Y87739D01*
X491606Y87749D01*
X491504Y87755D01*
X491402Y87757D01*
X487846Y87757D01*
X501627Y87757D02*
X501627Y77089D01*
X501627Y87757D02*
X506072Y87757D01*
X506174Y87755D01*
X506276Y87749D01*
X506378Y87739D01*
X506479Y87726D01*
X506580Y87708D01*
X506680Y87687D01*
X506779Y87662D01*
X506877Y87633D01*
X506973Y87600D01*
X507069Y87564D01*
X507163Y87524D01*
X507255Y87480D01*
X507346Y87433D01*
X507435Y87382D01*
X507522Y87329D01*
X507606Y87271D01*
X507689Y87211D01*
X507769Y87148D01*
X507846Y87081D01*
X507921Y87012D01*
X507994Y86939D01*
X508063Y86864D01*
X508130Y86787D01*
X508193Y86707D01*
X508253Y86624D01*
X508311Y86540D01*
X508364Y86453D01*
X508415Y86364D01*
X508462Y86273D01*
X508506Y86181D01*
X508546Y86087D01*
X508582Y85991D01*
X508615Y85895D01*
X508644Y85797D01*
X508669Y85698D01*
X508690Y85598D01*
X508708Y85497D01*
X508721Y85396D01*
X508731Y85294D01*
X508737Y85192D01*
X508739Y85090D01*
X508739Y77089D01*
X518362Y77089D02*
X522807Y77089D01*
X518362Y77089D02*
X518260Y77091D01*
X518158Y77097D01*
X518056Y77107D01*
X517955Y77120D01*
X517854Y77138D01*
X517754Y77159D01*
X517655Y77184D01*
X517557Y77213D01*
X517461Y77246D01*
X517365Y77282D01*
X517271Y77322D01*
X517179Y77366D01*
X517088Y77413D01*
X516999Y77464D01*
X516912Y77517D01*
X516828Y77575D01*
X516745Y77635D01*
X516665Y77698D01*
X516588Y77765D01*
X516513Y77834D01*
X516440Y77907D01*
X516371Y77982D01*
X516304Y78059D01*
X516241Y78139D01*
X516181Y78222D01*
X516123Y78306D01*
X516070Y78393D01*
X516019Y78482D01*
X515972Y78573D01*
X515928Y78665D01*
X515888Y78759D01*
X515852Y78855D01*
X515819Y78951D01*
X515790Y79049D01*
X515765Y79148D01*
X515744Y79248D01*
X515726Y79349D01*
X515713Y79450D01*
X515703Y79552D01*
X515697Y79654D01*
X515695Y79756D01*
X515695Y84201D01*
X515697Y84319D01*
X515703Y84436D01*
X515712Y84553D01*
X515726Y84670D01*
X515743Y84786D01*
X515765Y84902D01*
X515790Y85017D01*
X515819Y85131D01*
X515851Y85244D01*
X515888Y85356D01*
X515928Y85466D01*
X515971Y85575D01*
X516019Y85683D01*
X516069Y85789D01*
X516124Y85893D01*
X516181Y85996D01*
X516242Y86096D01*
X516307Y86195D01*
X516374Y86291D01*
X516445Y86385D01*
X516519Y86477D01*
X516595Y86566D01*
X516675Y86652D01*
X516757Y86736D01*
X516843Y86817D01*
X516930Y86895D01*
X517021Y86971D01*
X517114Y87043D01*
X517209Y87112D01*
X517306Y87178D01*
X517406Y87241D01*
X517507Y87300D01*
X517610Y87356D01*
X517716Y87408D01*
X517823Y87457D01*
X517931Y87503D01*
X518041Y87545D01*
X518152Y87583D01*
X518265Y87617D01*
X518378Y87648D01*
X518493Y87675D01*
X518608Y87698D01*
X518724Y87718D01*
X518840Y87733D01*
X518957Y87745D01*
X519075Y87753D01*
X519192Y87757D01*
X519310Y87757D01*
X519427Y87753D01*
X519545Y87745D01*
X519662Y87733D01*
X519778Y87718D01*
X519894Y87698D01*
X520009Y87675D01*
X520124Y87648D01*
X520237Y87617D01*
X520350Y87583D01*
X520461Y87545D01*
X520571Y87503D01*
X520679Y87457D01*
X520786Y87408D01*
X520892Y87356D01*
X520995Y87300D01*
X521096Y87241D01*
X521196Y87178D01*
X521293Y87112D01*
X521388Y87043D01*
X521481Y86971D01*
X521572Y86895D01*
X521659Y86817D01*
X521745Y86736D01*
X521827Y86652D01*
X521907Y86566D01*
X521983Y86477D01*
X522057Y86385D01*
X522128Y86291D01*
X522195Y86195D01*
X522260Y86096D01*
X522321Y85996D01*
X522378Y85893D01*
X522433Y85789D01*
X522483Y85683D01*
X522531Y85575D01*
X522574Y85466D01*
X522614Y85356D01*
X522651Y85244D01*
X522683Y85131D01*
X522712Y85017D01*
X522737Y84902D01*
X522759Y84786D01*
X522776Y84670D01*
X522790Y84553D01*
X522799Y84436D01*
X522805Y84319D01*
X522807Y84201D01*
X522807Y82423D01*
X515695Y82423D01*
X79756Y13589D02*
X77089Y24257D01*
X82423Y20701D02*
X79756Y13589D01*
X85090Y13589D02*
X82423Y20701D01*
X87757Y24257D02*
X85090Y13589D01*
X93886Y13589D02*
X93886Y24257D01*
X93441Y28702D02*
X93441Y29591D01*
X94330Y29591D01*
X94330Y28702D01*
X93441Y28702D01*
X107261Y29591D02*
X107261Y13589D01*
X102816Y13589D01*
X102714Y13591D01*
X102612Y13597D01*
X102510Y13607D01*
X102409Y13620D01*
X102308Y13638D01*
X102208Y13659D01*
X102109Y13684D01*
X102011Y13713D01*
X101915Y13746D01*
X101819Y13782D01*
X101725Y13822D01*
X101633Y13866D01*
X101542Y13913D01*
X101453Y13964D01*
X101366Y14017D01*
X101282Y14075D01*
X101199Y14135D01*
X101119Y14198D01*
X101042Y14265D01*
X100967Y14334D01*
X100894Y14407D01*
X100825Y14482D01*
X100758Y14559D01*
X100695Y14639D01*
X100635Y14722D01*
X100577Y14806D01*
X100524Y14893D01*
X100473Y14982D01*
X100426Y15073D01*
X100382Y15165D01*
X100342Y15259D01*
X100306Y15355D01*
X100273Y15451D01*
X100244Y15549D01*
X100219Y15648D01*
X100198Y15748D01*
X100180Y15849D01*
X100167Y15950D01*
X100157Y16052D01*
X100151Y16154D01*
X100149Y16256D01*
X100149Y21590D01*
X100151Y21692D01*
X100157Y21794D01*
X100167Y21896D01*
X100180Y21997D01*
X100198Y22098D01*
X100219Y22198D01*
X100244Y22297D01*
X100273Y22395D01*
X100306Y22491D01*
X100342Y22587D01*
X100382Y22681D01*
X100426Y22773D01*
X100473Y22864D01*
X100524Y22953D01*
X100577Y23040D01*
X100635Y23124D01*
X100695Y23207D01*
X100758Y23287D01*
X100825Y23364D01*
X100894Y23439D01*
X100967Y23512D01*
X101042Y23581D01*
X101119Y23648D01*
X101199Y23711D01*
X101282Y23771D01*
X101366Y23829D01*
X101453Y23882D01*
X101542Y23933D01*
X101633Y23980D01*
X101725Y24024D01*
X101819Y24064D01*
X101915Y24100D01*
X102011Y24133D01*
X102109Y24162D01*
X102208Y24187D01*
X102308Y24208D01*
X102409Y24226D01*
X102510Y24239D01*
X102612Y24249D01*
X102714Y24255D01*
X102816Y24257D01*
X107261Y24257D01*
X112975Y24257D02*
X118309Y24257D01*
X114753Y29591D02*
X114753Y16256D01*
X114755Y16154D01*
X114761Y16052D01*
X114771Y15950D01*
X114784Y15849D01*
X114802Y15748D01*
X114823Y15648D01*
X114848Y15549D01*
X114877Y15451D01*
X114910Y15355D01*
X114946Y15259D01*
X114986Y15165D01*
X115030Y15073D01*
X115077Y14982D01*
X115128Y14893D01*
X115181Y14806D01*
X115239Y14722D01*
X115299Y14639D01*
X115362Y14559D01*
X115429Y14482D01*
X115498Y14407D01*
X115571Y14334D01*
X115646Y14265D01*
X115723Y14198D01*
X115803Y14135D01*
X115886Y14075D01*
X115970Y14017D01*
X116057Y13964D01*
X116146Y13913D01*
X116237Y13866D01*
X116329Y13822D01*
X116423Y13782D01*
X116519Y13746D01*
X116615Y13713D01*
X116713Y13684D01*
X116812Y13659D01*
X116912Y13638D01*
X117013Y13620D01*
X117114Y13607D01*
X117216Y13597D01*
X117318Y13591D01*
X117420Y13589D01*
X118309Y13589D01*
X124719Y13589D02*
X124719Y29591D01*
X124719Y24257D02*
X129164Y24257D01*
X129266Y24255D01*
X129368Y24249D01*
X129470Y24239D01*
X129571Y24226D01*
X129672Y24208D01*
X129772Y24187D01*
X129871Y24162D01*
X129969Y24133D01*
X130065Y24100D01*
X130161Y24064D01*
X130255Y24024D01*
X130347Y23980D01*
X130438Y23933D01*
X130527Y23882D01*
X130614Y23829D01*
X130698Y23771D01*
X130781Y23711D01*
X130861Y23648D01*
X130938Y23581D01*
X131013Y23512D01*
X131086Y23439D01*
X131155Y23364D01*
X131222Y23287D01*
X131285Y23207D01*
X131345Y23124D01*
X131403Y23040D01*
X131456Y22953D01*
X131507Y22864D01*
X131554Y22773D01*
X131598Y22681D01*
X131638Y22587D01*
X131674Y22491D01*
X131707Y22395D01*
X131736Y22297D01*
X131761Y22198D01*
X131782Y22098D01*
X131800Y21997D01*
X131813Y21896D01*
X131823Y21794D01*
X131829Y21692D01*
X131831Y21590D01*
X131831Y13589D01*
X147429Y17145D02*
X158097Y17145D01*
X158097Y22479D02*
X147429Y22479D01*
X173328Y17145D02*
X176884Y29591D01*
X173328Y17145D02*
X182218Y17145D01*
X179551Y20701D02*
X179551Y13589D01*
X188960Y26035D02*
X193405Y29591D01*
X193405Y13589D01*
X188960Y13589D02*
X197850Y13589D01*
X213602Y13589D02*
X213602Y24257D01*
X221603Y24257D01*
X221705Y24255D01*
X221807Y24249D01*
X221909Y24239D01*
X222010Y24226D01*
X222111Y24208D01*
X222211Y24187D01*
X222310Y24162D01*
X222408Y24133D01*
X222504Y24100D01*
X222600Y24064D01*
X222694Y24024D01*
X222786Y23980D01*
X222877Y23933D01*
X222966Y23882D01*
X223053Y23829D01*
X223137Y23771D01*
X223220Y23711D01*
X223300Y23648D01*
X223377Y23581D01*
X223452Y23512D01*
X223525Y23439D01*
X223594Y23364D01*
X223661Y23287D01*
X223724Y23207D01*
X223784Y23124D01*
X223842Y23040D01*
X223895Y22953D01*
X223946Y22864D01*
X223993Y22773D01*
X224037Y22681D01*
X224077Y22587D01*
X224113Y22491D01*
X224146Y22395D01*
X224175Y22297D01*
X224200Y22198D01*
X224221Y22098D01*
X224239Y21997D01*
X224252Y21896D01*
X224262Y21794D01*
X224268Y21692D01*
X224270Y21590D01*
X224270Y13589D01*
X218936Y13589D02*
X218936Y24257D01*
X231441Y24257D02*
X231441Y13589D01*
X230996Y28702D02*
X230996Y29591D01*
X231885Y29591D01*
X231885Y28702D01*
X230996Y28702D01*
X237992Y29591D02*
X237992Y16256D01*
X237994Y16154D01*
X238000Y16052D01*
X238010Y15950D01*
X238023Y15849D01*
X238041Y15748D01*
X238062Y15648D01*
X238087Y15549D01*
X238116Y15451D01*
X238149Y15355D01*
X238185Y15259D01*
X238225Y15165D01*
X238269Y15073D01*
X238316Y14982D01*
X238367Y14893D01*
X238420Y14806D01*
X238478Y14722D01*
X238538Y14639D01*
X238601Y14559D01*
X238668Y14482D01*
X238737Y14407D01*
X238810Y14334D01*
X238885Y14265D01*
X238962Y14198D01*
X239042Y14135D01*
X239125Y14075D01*
X239209Y14017D01*
X239296Y13964D01*
X239385Y13913D01*
X239476Y13866D01*
X239568Y13822D01*
X239662Y13782D01*
X239758Y13746D01*
X239854Y13713D01*
X239952Y13684D01*
X240051Y13659D01*
X240151Y13638D01*
X240252Y13620D01*
X240353Y13607D01*
X240455Y13597D01*
X240557Y13591D01*
X240659Y13589D01*
X245526Y13589D02*
X246415Y13589D01*
X245526Y13589D02*
X245526Y14478D01*
X246415Y14478D01*
X246415Y13589D01*
X245082Y10033D01*
X263296Y13589D02*
X267741Y13589D01*
X263296Y13589D02*
X263194Y13591D01*
X263092Y13597D01*
X262990Y13607D01*
X262889Y13620D01*
X262788Y13638D01*
X262688Y13659D01*
X262589Y13684D01*
X262491Y13713D01*
X262395Y13746D01*
X262299Y13782D01*
X262205Y13822D01*
X262113Y13866D01*
X262022Y13913D01*
X261933Y13964D01*
X261846Y14017D01*
X261762Y14075D01*
X261679Y14135D01*
X261599Y14198D01*
X261522Y14265D01*
X261447Y14334D01*
X261374Y14407D01*
X261305Y14482D01*
X261238Y14559D01*
X261175Y14639D01*
X261115Y14722D01*
X261057Y14806D01*
X261004Y14893D01*
X260953Y14982D01*
X260906Y15073D01*
X260862Y15165D01*
X260822Y15259D01*
X260786Y15355D01*
X260753Y15451D01*
X260724Y15549D01*
X260699Y15648D01*
X260678Y15748D01*
X260660Y15849D01*
X260647Y15950D01*
X260637Y16052D01*
X260631Y16154D01*
X260629Y16256D01*
X260629Y21590D01*
X260631Y21692D01*
X260637Y21794D01*
X260647Y21896D01*
X260660Y21997D01*
X260678Y22098D01*
X260699Y22198D01*
X260724Y22297D01*
X260753Y22395D01*
X260786Y22491D01*
X260822Y22587D01*
X260862Y22681D01*
X260906Y22773D01*
X260953Y22864D01*
X261004Y22953D01*
X261057Y23040D01*
X261115Y23124D01*
X261175Y23207D01*
X261238Y23287D01*
X261305Y23364D01*
X261374Y23439D01*
X261447Y23512D01*
X261522Y23581D01*
X261599Y23648D01*
X261679Y23711D01*
X261762Y23771D01*
X261846Y23829D01*
X261933Y23882D01*
X262022Y23933D01*
X262113Y23980D01*
X262205Y24024D01*
X262299Y24064D01*
X262395Y24100D01*
X262491Y24133D01*
X262589Y24162D01*
X262688Y24187D01*
X262788Y24208D01*
X262889Y24226D01*
X262990Y24239D01*
X263092Y24249D01*
X263194Y24255D01*
X263296Y24257D01*
X267741Y24257D01*
X267741Y10922D01*
X267739Y10820D01*
X267733Y10718D01*
X267723Y10616D01*
X267710Y10515D01*
X267692Y10414D01*
X267671Y10314D01*
X267646Y10215D01*
X267617Y10117D01*
X267584Y10021D01*
X267548Y9925D01*
X267508Y9831D01*
X267464Y9739D01*
X267417Y9648D01*
X267366Y9559D01*
X267313Y9472D01*
X267255Y9388D01*
X267195Y9305D01*
X267132Y9225D01*
X267065Y9148D01*
X266996Y9073D01*
X266923Y9000D01*
X266848Y8931D01*
X266771Y8864D01*
X266691Y8801D01*
X266608Y8741D01*
X266524Y8683D01*
X266437Y8630D01*
X266348Y8579D01*
X266257Y8532D01*
X266165Y8488D01*
X266071Y8448D01*
X265975Y8412D01*
X265879Y8379D01*
X265781Y8350D01*
X265682Y8325D01*
X265582Y8304D01*
X265481Y8286D01*
X265380Y8273D01*
X265278Y8263D01*
X265176Y8257D01*
X265074Y8255D01*
X261518Y8255D01*
X277809Y19812D02*
X281809Y19812D01*
X277809Y19813D02*
X277698Y19811D01*
X277587Y19805D01*
X277476Y19795D01*
X277366Y19781D01*
X277256Y19764D01*
X277147Y19742D01*
X277039Y19716D01*
X276932Y19687D01*
X276826Y19654D01*
X276721Y19617D01*
X276618Y19576D01*
X276516Y19532D01*
X276416Y19484D01*
X276318Y19432D01*
X276221Y19377D01*
X276127Y19319D01*
X276034Y19257D01*
X275944Y19192D01*
X275856Y19124D01*
X275771Y19053D01*
X275688Y18979D01*
X275608Y18902D01*
X275531Y18822D01*
X275457Y18739D01*
X275386Y18654D01*
X275318Y18566D01*
X275253Y18476D01*
X275191Y18383D01*
X275133Y18289D01*
X275078Y18192D01*
X275026Y18094D01*
X274978Y17994D01*
X274934Y17892D01*
X274893Y17789D01*
X274856Y17684D01*
X274823Y17578D01*
X274794Y17471D01*
X274768Y17363D01*
X274746Y17254D01*
X274729Y17144D01*
X274715Y17034D01*
X274705Y16923D01*
X274699Y16812D01*
X274697Y16701D01*
X274699Y16590D01*
X274705Y16479D01*
X274715Y16368D01*
X274729Y16258D01*
X274746Y16148D01*
X274768Y16039D01*
X274794Y15931D01*
X274823Y15824D01*
X274856Y15718D01*
X274893Y15613D01*
X274934Y15510D01*
X274978Y15408D01*
X275026Y15308D01*
X275078Y15210D01*
X275133Y15113D01*
X275191Y15019D01*
X275253Y14926D01*
X275318Y14836D01*
X275386Y14748D01*
X275457Y14663D01*
X275531Y14580D01*
X275608Y14500D01*
X275688Y14423D01*
X275771Y14349D01*
X275856Y14278D01*
X275944Y14210D01*
X276034Y14145D01*
X276127Y14083D01*
X276221Y14025D01*
X276318Y13970D01*
X276416Y13918D01*
X276516Y13870D01*
X276618Y13826D01*
X276721Y13785D01*
X276826Y13748D01*
X276932Y13715D01*
X277039Y13686D01*
X277147Y13660D01*
X277256Y13638D01*
X277366Y13621D01*
X277476Y13607D01*
X277587Y13597D01*
X277698Y13591D01*
X277809Y13589D01*
X281809Y13589D01*
X281809Y21590D01*
X281807Y21692D01*
X281801Y21794D01*
X281791Y21896D01*
X281778Y21997D01*
X281760Y22098D01*
X281739Y22198D01*
X281714Y22297D01*
X281685Y22395D01*
X281652Y22491D01*
X281616Y22587D01*
X281576Y22681D01*
X281532Y22773D01*
X281485Y22864D01*
X281434Y22953D01*
X281381Y23040D01*
X281323Y23124D01*
X281263Y23207D01*
X281200Y23287D01*
X281133Y23364D01*
X281064Y23439D01*
X280991Y23512D01*
X280916Y23581D01*
X280839Y23648D01*
X280759Y23711D01*
X280676Y23771D01*
X280592Y23829D01*
X280505Y23882D01*
X280416Y23933D01*
X280325Y23980D01*
X280233Y24024D01*
X280139Y24064D01*
X280043Y24100D01*
X279947Y24133D01*
X279849Y24162D01*
X279750Y24187D01*
X279650Y24208D01*
X279549Y24226D01*
X279448Y24239D01*
X279346Y24249D01*
X279244Y24255D01*
X279142Y24257D01*
X275586Y24257D01*
X289448Y24257D02*
X289448Y8255D01*
X289448Y24257D02*
X293893Y24257D01*
X293995Y24255D01*
X294097Y24249D01*
X294199Y24239D01*
X294300Y24226D01*
X294401Y24208D01*
X294501Y24187D01*
X294600Y24162D01*
X294698Y24133D01*
X294794Y24100D01*
X294890Y24064D01*
X294984Y24024D01*
X295076Y23980D01*
X295167Y23933D01*
X295256Y23882D01*
X295343Y23829D01*
X295427Y23771D01*
X295510Y23711D01*
X295590Y23648D01*
X295667Y23581D01*
X295742Y23512D01*
X295815Y23439D01*
X295884Y23364D01*
X295951Y23287D01*
X296014Y23207D01*
X296074Y23124D01*
X296132Y23040D01*
X296185Y22953D01*
X296236Y22864D01*
X296283Y22773D01*
X296327Y22681D01*
X296367Y22587D01*
X296403Y22491D01*
X296436Y22395D01*
X296465Y22297D01*
X296490Y22198D01*
X296511Y22098D01*
X296529Y21997D01*
X296542Y21896D01*
X296552Y21794D01*
X296558Y21692D01*
X296560Y21590D01*
X296560Y16256D01*
X296558Y16154D01*
X296552Y16052D01*
X296542Y15950D01*
X296529Y15849D01*
X296511Y15748D01*
X296490Y15648D01*
X296465Y15549D01*
X296436Y15451D01*
X296403Y15355D01*
X296367Y15259D01*
X296327Y15165D01*
X296283Y15073D01*
X296236Y14982D01*
X296185Y14893D01*
X296132Y14806D01*
X296074Y14722D01*
X296014Y14639D01*
X295951Y14559D01*
X295884Y14482D01*
X295815Y14407D01*
X295742Y14334D01*
X295667Y14265D01*
X295590Y14198D01*
X295510Y14135D01*
X295427Y14075D01*
X295343Y14017D01*
X295256Y13964D01*
X295167Y13913D01*
X295076Y13866D01*
X294984Y13822D01*
X294890Y13782D01*
X294794Y13746D01*
X294698Y13713D01*
X294600Y13684D01*
X294501Y13659D01*
X294401Y13638D01*
X294300Y13620D01*
X294199Y13607D01*
X294097Y13597D01*
X293995Y13591D01*
X293893Y13589D01*
X289448Y13589D01*
X311557Y17145D02*
X322225Y17145D01*
X322225Y22479D02*
X311557Y22479D01*
X337456Y18034D02*
X337458Y18166D01*
X337464Y18297D01*
X337474Y18429D01*
X337487Y18560D01*
X337505Y18690D01*
X337526Y18820D01*
X337551Y18950D01*
X337580Y19078D01*
X337613Y19206D01*
X337650Y19332D01*
X337690Y19458D01*
X337734Y19582D01*
X337782Y19705D01*
X337833Y19826D01*
X337888Y19946D01*
X337946Y20064D01*
X338008Y20180D01*
X338074Y20294D01*
X338142Y20407D01*
X338214Y20517D01*
X338289Y20625D01*
X338368Y20731D01*
X338449Y20835D01*
X338534Y20936D01*
X338621Y21034D01*
X338712Y21130D01*
X338805Y21223D01*
X338901Y21314D01*
X338999Y21401D01*
X339100Y21486D01*
X339204Y21567D01*
X339310Y21646D01*
X339418Y21721D01*
X339528Y21793D01*
X339641Y21861D01*
X339755Y21927D01*
X339871Y21989D01*
X339989Y22047D01*
X340109Y22102D01*
X340230Y22153D01*
X340353Y22201D01*
X340477Y22245D01*
X340603Y22285D01*
X340729Y22322D01*
X340857Y22355D01*
X340985Y22384D01*
X341115Y22409D01*
X341245Y22430D01*
X341375Y22448D01*
X341506Y22461D01*
X341638Y22471D01*
X341769Y22477D01*
X341901Y22479D01*
X342033Y22477D01*
X342164Y22471D01*
X342296Y22461D01*
X342427Y22448D01*
X342557Y22430D01*
X342687Y22409D01*
X342817Y22384D01*
X342945Y22355D01*
X343073Y22322D01*
X343199Y22285D01*
X343325Y22245D01*
X343449Y22201D01*
X343572Y22153D01*
X343693Y22102D01*
X343813Y22047D01*
X343931Y21989D01*
X344047Y21927D01*
X344161Y21861D01*
X344274Y21793D01*
X344384Y21721D01*
X344492Y21646D01*
X344598Y21567D01*
X344702Y21486D01*
X344803Y21401D01*
X344901Y21314D01*
X344997Y21223D01*
X345090Y21130D01*
X345181Y21034D01*
X345268Y20936D01*
X345353Y20835D01*
X345434Y20731D01*
X345513Y20625D01*
X345588Y20517D01*
X345660Y20407D01*
X345728Y20294D01*
X345794Y20180D01*
X345856Y20064D01*
X345914Y19946D01*
X345969Y19826D01*
X346020Y19705D01*
X346068Y19582D01*
X346112Y19458D01*
X346152Y19332D01*
X346189Y19206D01*
X346222Y19078D01*
X346251Y18950D01*
X346276Y18820D01*
X346297Y18690D01*
X346315Y18560D01*
X346328Y18429D01*
X346338Y18297D01*
X346344Y18166D01*
X346346Y18034D01*
X346344Y17902D01*
X346338Y17771D01*
X346328Y17639D01*
X346315Y17508D01*
X346297Y17378D01*
X346276Y17248D01*
X346251Y17118D01*
X346222Y16990D01*
X346189Y16862D01*
X346152Y16736D01*
X346112Y16610D01*
X346068Y16486D01*
X346020Y16363D01*
X345969Y16242D01*
X345914Y16122D01*
X345856Y16004D01*
X345794Y15888D01*
X345728Y15774D01*
X345660Y15661D01*
X345588Y15551D01*
X345513Y15443D01*
X345434Y15337D01*
X345353Y15233D01*
X345268Y15132D01*
X345181Y15034D01*
X345090Y14938D01*
X344997Y14845D01*
X344901Y14754D01*
X344803Y14667D01*
X344702Y14582D01*
X344598Y14501D01*
X344492Y14422D01*
X344384Y14347D01*
X344274Y14275D01*
X344161Y14207D01*
X344047Y14141D01*
X343931Y14079D01*
X343813Y14021D01*
X343693Y13966D01*
X343572Y13915D01*
X343449Y13867D01*
X343325Y13823D01*
X343199Y13783D01*
X343073Y13746D01*
X342945Y13713D01*
X342817Y13684D01*
X342687Y13659D01*
X342557Y13638D01*
X342427Y13620D01*
X342296Y13607D01*
X342164Y13597D01*
X342033Y13591D01*
X341901Y13589D01*
X341769Y13591D01*
X341638Y13597D01*
X341506Y13607D01*
X341375Y13620D01*
X341245Y13638D01*
X341115Y13659D01*
X340985Y13684D01*
X340857Y13713D01*
X340729Y13746D01*
X340603Y13783D01*
X340477Y13823D01*
X340353Y13867D01*
X340230Y13915D01*
X340109Y13966D01*
X339989Y14021D01*
X339871Y14079D01*
X339755Y14141D01*
X339641Y14207D01*
X339528Y14275D01*
X339418Y14347D01*
X339310Y14422D01*
X339204Y14501D01*
X339100Y14582D01*
X338999Y14667D01*
X338901Y14754D01*
X338805Y14845D01*
X338712Y14938D01*
X338621Y15034D01*
X338534Y15132D01*
X338449Y15233D01*
X338368Y15337D01*
X338289Y15443D01*
X338214Y15551D01*
X338142Y15661D01*
X338074Y15774D01*
X338008Y15888D01*
X337946Y16004D01*
X337888Y16122D01*
X337833Y16242D01*
X337782Y16363D01*
X337734Y16486D01*
X337690Y16610D01*
X337650Y16736D01*
X337613Y16862D01*
X337580Y16990D01*
X337551Y17118D01*
X337526Y17248D01*
X337505Y17378D01*
X337487Y17508D01*
X337474Y17639D01*
X337464Y17771D01*
X337458Y17902D01*
X337456Y18034D01*
X338345Y26035D02*
X338347Y26153D01*
X338353Y26270D01*
X338362Y26387D01*
X338376Y26504D01*
X338393Y26620D01*
X338415Y26736D01*
X338440Y26851D01*
X338469Y26965D01*
X338501Y27078D01*
X338538Y27190D01*
X338578Y27300D01*
X338621Y27409D01*
X338669Y27517D01*
X338719Y27623D01*
X338774Y27727D01*
X338831Y27830D01*
X338892Y27930D01*
X338957Y28029D01*
X339024Y28125D01*
X339095Y28219D01*
X339169Y28311D01*
X339245Y28400D01*
X339325Y28486D01*
X339407Y28570D01*
X339493Y28651D01*
X339580Y28729D01*
X339671Y28805D01*
X339764Y28877D01*
X339859Y28946D01*
X339956Y29012D01*
X340056Y29075D01*
X340157Y29134D01*
X340260Y29190D01*
X340366Y29242D01*
X340473Y29291D01*
X340581Y29337D01*
X340691Y29379D01*
X340802Y29417D01*
X340915Y29451D01*
X341028Y29482D01*
X341143Y29509D01*
X341258Y29532D01*
X341374Y29552D01*
X341490Y29567D01*
X341607Y29579D01*
X341725Y29587D01*
X341842Y29591D01*
X341960Y29591D01*
X342077Y29587D01*
X342195Y29579D01*
X342312Y29567D01*
X342428Y29552D01*
X342544Y29532D01*
X342659Y29509D01*
X342774Y29482D01*
X342887Y29451D01*
X343000Y29417D01*
X343111Y29379D01*
X343221Y29337D01*
X343329Y29291D01*
X343436Y29242D01*
X343542Y29190D01*
X343645Y29134D01*
X343746Y29075D01*
X343846Y29012D01*
X343943Y28946D01*
X344038Y28877D01*
X344131Y28805D01*
X344222Y28729D01*
X344309Y28651D01*
X344395Y28570D01*
X344477Y28486D01*
X344557Y28400D01*
X344633Y28311D01*
X344707Y28219D01*
X344778Y28125D01*
X344845Y28029D01*
X344910Y27930D01*
X344971Y27830D01*
X345028Y27727D01*
X345083Y27623D01*
X345133Y27517D01*
X345181Y27409D01*
X345224Y27300D01*
X345264Y27190D01*
X345301Y27078D01*
X345333Y26965D01*
X345362Y26851D01*
X345387Y26736D01*
X345409Y26620D01*
X345426Y26504D01*
X345440Y26387D01*
X345449Y26270D01*
X345455Y26153D01*
X345457Y26035D01*
X345455Y25917D01*
X345449Y25800D01*
X345440Y25683D01*
X345426Y25566D01*
X345409Y25450D01*
X345387Y25334D01*
X345362Y25219D01*
X345333Y25105D01*
X345301Y24992D01*
X345264Y24880D01*
X345224Y24770D01*
X345181Y24661D01*
X345133Y24553D01*
X345083Y24447D01*
X345028Y24343D01*
X344971Y24240D01*
X344910Y24140D01*
X344845Y24041D01*
X344778Y23945D01*
X344707Y23851D01*
X344633Y23759D01*
X344557Y23670D01*
X344477Y23584D01*
X344395Y23500D01*
X344309Y23419D01*
X344222Y23341D01*
X344131Y23265D01*
X344038Y23193D01*
X343943Y23124D01*
X343846Y23058D01*
X343746Y22995D01*
X343645Y22936D01*
X343542Y22880D01*
X343436Y22828D01*
X343329Y22779D01*
X343221Y22733D01*
X343111Y22691D01*
X343000Y22653D01*
X342887Y22619D01*
X342774Y22588D01*
X342659Y22561D01*
X342544Y22538D01*
X342428Y22518D01*
X342312Y22503D01*
X342195Y22491D01*
X342077Y22483D01*
X341960Y22479D01*
X341842Y22479D01*
X341725Y22483D01*
X341607Y22491D01*
X341490Y22503D01*
X341374Y22518D01*
X341258Y22538D01*
X341143Y22561D01*
X341028Y22588D01*
X340915Y22619D01*
X340802Y22653D01*
X340691Y22691D01*
X340581Y22733D01*
X340473Y22779D01*
X340366Y22828D01*
X340260Y22880D01*
X340157Y22936D01*
X340056Y22995D01*
X339956Y23058D01*
X339859Y23124D01*
X339764Y23193D01*
X339671Y23265D01*
X339580Y23341D01*
X339493Y23419D01*
X339407Y23500D01*
X339325Y23584D01*
X339245Y23670D01*
X339169Y23759D01*
X339095Y23851D01*
X339024Y23945D01*
X338957Y24041D01*
X338892Y24140D01*
X338831Y24240D01*
X338774Y24343D01*
X338719Y24447D01*
X338669Y24553D01*
X338621Y24661D01*
X338578Y24770D01*
X338538Y24880D01*
X338501Y24992D01*
X338469Y25105D01*
X338440Y25219D01*
X338415Y25334D01*
X338393Y25450D01*
X338376Y25566D01*
X338362Y25683D01*
X338353Y25800D01*
X338347Y25917D01*
X338345Y26035D01*
X362098Y24257D02*
X362098Y13589D01*
X362098Y24257D02*
X370099Y24257D01*
X370201Y24255D01*
X370303Y24249D01*
X370405Y24239D01*
X370506Y24226D01*
X370607Y24208D01*
X370707Y24187D01*
X370806Y24162D01*
X370904Y24133D01*
X371000Y24100D01*
X371096Y24064D01*
X371190Y24024D01*
X371282Y23980D01*
X371373Y23933D01*
X371462Y23882D01*
X371549Y23829D01*
X371633Y23771D01*
X371716Y23711D01*
X371796Y23648D01*
X371873Y23581D01*
X371948Y23512D01*
X372021Y23439D01*
X372090Y23364D01*
X372157Y23287D01*
X372220Y23207D01*
X372280Y23124D01*
X372338Y23040D01*
X372391Y22953D01*
X372442Y22864D01*
X372489Y22773D01*
X372533Y22681D01*
X372573Y22587D01*
X372609Y22491D01*
X372642Y22395D01*
X372671Y22297D01*
X372696Y22198D01*
X372717Y22098D01*
X372735Y21997D01*
X372748Y21896D01*
X372758Y21794D01*
X372764Y21692D01*
X372766Y21590D01*
X372766Y13589D01*
X367432Y13589D02*
X367432Y24257D01*
X379937Y24257D02*
X379937Y13589D01*
X379493Y28702D02*
X379493Y29591D01*
X380382Y29591D01*
X380382Y28702D01*
X379493Y28702D01*
X386489Y29591D02*
X386489Y16256D01*
X386491Y16154D01*
X386497Y16052D01*
X386507Y15950D01*
X386520Y15849D01*
X386538Y15748D01*
X386559Y15648D01*
X386584Y15549D01*
X386613Y15451D01*
X386646Y15355D01*
X386682Y15259D01*
X386722Y15165D01*
X386766Y15073D01*
X386813Y14982D01*
X386864Y14893D01*
X386917Y14806D01*
X386975Y14722D01*
X387035Y14639D01*
X387098Y14559D01*
X387165Y14482D01*
X387234Y14407D01*
X387307Y14334D01*
X387382Y14265D01*
X387459Y14198D01*
X387539Y14135D01*
X387622Y14075D01*
X387706Y14017D01*
X387793Y13964D01*
X387882Y13913D01*
X387973Y13866D01*
X388065Y13822D01*
X388159Y13782D01*
X388255Y13746D01*
X388351Y13713D01*
X388449Y13684D01*
X388548Y13659D01*
X388648Y13638D01*
X388749Y13620D01*
X388850Y13607D01*
X388952Y13597D01*
X389054Y13591D01*
X389156Y13589D01*
X1505839Y93091D02*
X1511173Y85535D01*
X1516507Y93091D01*
X1511173Y85535D02*
X1511173Y77089D01*
X1525237Y83312D02*
X1529237Y83312D01*
X1525237Y83313D02*
X1525126Y83311D01*
X1525015Y83305D01*
X1524904Y83295D01*
X1524794Y83281D01*
X1524684Y83264D01*
X1524575Y83242D01*
X1524467Y83216D01*
X1524360Y83187D01*
X1524254Y83154D01*
X1524149Y83117D01*
X1524046Y83076D01*
X1523944Y83032D01*
X1523844Y82984D01*
X1523746Y82932D01*
X1523649Y82877D01*
X1523555Y82819D01*
X1523462Y82757D01*
X1523372Y82692D01*
X1523284Y82624D01*
X1523199Y82553D01*
X1523116Y82479D01*
X1523036Y82402D01*
X1522959Y82322D01*
X1522885Y82239D01*
X1522814Y82154D01*
X1522746Y82066D01*
X1522681Y81976D01*
X1522619Y81883D01*
X1522561Y81789D01*
X1522506Y81692D01*
X1522454Y81594D01*
X1522406Y81494D01*
X1522362Y81392D01*
X1522321Y81289D01*
X1522284Y81184D01*
X1522251Y81078D01*
X1522222Y80971D01*
X1522196Y80863D01*
X1522174Y80754D01*
X1522157Y80644D01*
X1522143Y80534D01*
X1522133Y80423D01*
X1522127Y80312D01*
X1522125Y80201D01*
X1522127Y80090D01*
X1522133Y79979D01*
X1522143Y79868D01*
X1522157Y79758D01*
X1522174Y79648D01*
X1522196Y79539D01*
X1522222Y79431D01*
X1522251Y79324D01*
X1522284Y79218D01*
X1522321Y79113D01*
X1522362Y79010D01*
X1522406Y78908D01*
X1522454Y78808D01*
X1522506Y78710D01*
X1522561Y78613D01*
X1522619Y78519D01*
X1522681Y78426D01*
X1522746Y78336D01*
X1522814Y78248D01*
X1522885Y78163D01*
X1522959Y78080D01*
X1523036Y78000D01*
X1523116Y77923D01*
X1523199Y77849D01*
X1523284Y77778D01*
X1523372Y77710D01*
X1523462Y77645D01*
X1523555Y77583D01*
X1523649Y77525D01*
X1523746Y77470D01*
X1523844Y77418D01*
X1523944Y77370D01*
X1524046Y77326D01*
X1524149Y77285D01*
X1524254Y77248D01*
X1524360Y77215D01*
X1524467Y77186D01*
X1524575Y77160D01*
X1524684Y77138D01*
X1524794Y77121D01*
X1524904Y77107D01*
X1525015Y77097D01*
X1525126Y77091D01*
X1525237Y77089D01*
X1529237Y77089D01*
X1529237Y85090D01*
X1529235Y85192D01*
X1529229Y85294D01*
X1529219Y85396D01*
X1529206Y85497D01*
X1529188Y85598D01*
X1529167Y85698D01*
X1529142Y85797D01*
X1529113Y85895D01*
X1529080Y85991D01*
X1529044Y86087D01*
X1529004Y86181D01*
X1528960Y86273D01*
X1528913Y86364D01*
X1528862Y86453D01*
X1528809Y86540D01*
X1528751Y86624D01*
X1528691Y86707D01*
X1528628Y86787D01*
X1528561Y86864D01*
X1528492Y86939D01*
X1528419Y87012D01*
X1528344Y87081D01*
X1528267Y87148D01*
X1528187Y87211D01*
X1528104Y87271D01*
X1528020Y87329D01*
X1527933Y87382D01*
X1527844Y87433D01*
X1527753Y87480D01*
X1527661Y87524D01*
X1527567Y87564D01*
X1527471Y87600D01*
X1527375Y87633D01*
X1527277Y87662D01*
X1527178Y87687D01*
X1527078Y87708D01*
X1526977Y87726D01*
X1526876Y87739D01*
X1526774Y87749D01*
X1526672Y87755D01*
X1526570Y87757D01*
X1523014Y87757D01*
X1536876Y87757D02*
X1536876Y71755D01*
X1536876Y87757D02*
X1541321Y87757D01*
X1541423Y87755D01*
X1541525Y87749D01*
X1541627Y87739D01*
X1541728Y87726D01*
X1541829Y87708D01*
X1541929Y87687D01*
X1542028Y87662D01*
X1542126Y87633D01*
X1542222Y87600D01*
X1542318Y87564D01*
X1542412Y87524D01*
X1542504Y87480D01*
X1542595Y87433D01*
X1542684Y87382D01*
X1542771Y87329D01*
X1542855Y87271D01*
X1542938Y87211D01*
X1543018Y87148D01*
X1543095Y87081D01*
X1543170Y87012D01*
X1543243Y86939D01*
X1543312Y86864D01*
X1543379Y86787D01*
X1543442Y86707D01*
X1543502Y86624D01*
X1543560Y86540D01*
X1543613Y86453D01*
X1543664Y86364D01*
X1543711Y86273D01*
X1543755Y86181D01*
X1543795Y86087D01*
X1543831Y85991D01*
X1543864Y85895D01*
X1543893Y85797D01*
X1543918Y85698D01*
X1543939Y85598D01*
X1543957Y85497D01*
X1543970Y85396D01*
X1543980Y85294D01*
X1543986Y85192D01*
X1543988Y85090D01*
X1543988Y79756D01*
X1543986Y79654D01*
X1543980Y79552D01*
X1543970Y79450D01*
X1543957Y79349D01*
X1543939Y79248D01*
X1543918Y79148D01*
X1543893Y79049D01*
X1543864Y78951D01*
X1543831Y78855D01*
X1543795Y78759D01*
X1543755Y78665D01*
X1543711Y78573D01*
X1543664Y78482D01*
X1543613Y78393D01*
X1543560Y78306D01*
X1543502Y78222D01*
X1543442Y78139D01*
X1543379Y78059D01*
X1543312Y77982D01*
X1543243Y77907D01*
X1543170Y77834D01*
X1543095Y77765D01*
X1543018Y77698D01*
X1542938Y77635D01*
X1542855Y77575D01*
X1542771Y77517D01*
X1542684Y77464D01*
X1542595Y77413D01*
X1542504Y77366D01*
X1542412Y77322D01*
X1542318Y77282D01*
X1542222Y77246D01*
X1542126Y77213D01*
X1542028Y77184D01*
X1541929Y77159D01*
X1541829Y77138D01*
X1541728Y77120D01*
X1541627Y77107D01*
X1541525Y77097D01*
X1541423Y77091D01*
X1541321Y77089D01*
X1536876Y77089D01*
X1550342Y80645D02*
X1550342Y84201D01*
X1550344Y84319D01*
X1550350Y84436D01*
X1550359Y84553D01*
X1550373Y84670D01*
X1550390Y84786D01*
X1550412Y84902D01*
X1550437Y85017D01*
X1550466Y85131D01*
X1550498Y85244D01*
X1550535Y85356D01*
X1550575Y85466D01*
X1550618Y85575D01*
X1550666Y85683D01*
X1550716Y85789D01*
X1550771Y85893D01*
X1550828Y85996D01*
X1550889Y86096D01*
X1550954Y86195D01*
X1551021Y86291D01*
X1551092Y86385D01*
X1551166Y86477D01*
X1551242Y86566D01*
X1551322Y86652D01*
X1551404Y86736D01*
X1551490Y86817D01*
X1551577Y86895D01*
X1551668Y86971D01*
X1551761Y87043D01*
X1551856Y87112D01*
X1551953Y87178D01*
X1552053Y87241D01*
X1552154Y87300D01*
X1552257Y87356D01*
X1552363Y87408D01*
X1552470Y87457D01*
X1552578Y87503D01*
X1552688Y87545D01*
X1552799Y87583D01*
X1552912Y87617D01*
X1553025Y87648D01*
X1553140Y87675D01*
X1553255Y87698D01*
X1553371Y87718D01*
X1553487Y87733D01*
X1553604Y87745D01*
X1553722Y87753D01*
X1553839Y87757D01*
X1553957Y87757D01*
X1554074Y87753D01*
X1554192Y87745D01*
X1554309Y87733D01*
X1554425Y87718D01*
X1554541Y87698D01*
X1554656Y87675D01*
X1554771Y87648D01*
X1554884Y87617D01*
X1554997Y87583D01*
X1555108Y87545D01*
X1555218Y87503D01*
X1555326Y87457D01*
X1555433Y87408D01*
X1555539Y87356D01*
X1555642Y87300D01*
X1555743Y87241D01*
X1555843Y87178D01*
X1555940Y87112D01*
X1556035Y87043D01*
X1556128Y86971D01*
X1556219Y86895D01*
X1556306Y86817D01*
X1556392Y86736D01*
X1556474Y86652D01*
X1556554Y86566D01*
X1556630Y86477D01*
X1556704Y86385D01*
X1556775Y86291D01*
X1556842Y86195D01*
X1556907Y86096D01*
X1556968Y85996D01*
X1557025Y85893D01*
X1557080Y85789D01*
X1557130Y85683D01*
X1557178Y85575D01*
X1557221Y85466D01*
X1557261Y85356D01*
X1557298Y85244D01*
X1557330Y85131D01*
X1557359Y85017D01*
X1557384Y84902D01*
X1557406Y84786D01*
X1557423Y84670D01*
X1557437Y84553D01*
X1557446Y84436D01*
X1557452Y84319D01*
X1557454Y84201D01*
X1557454Y80645D01*
X1557452Y80527D01*
X1557446Y80410D01*
X1557437Y80293D01*
X1557423Y80176D01*
X1557406Y80060D01*
X1557384Y79944D01*
X1557359Y79829D01*
X1557330Y79715D01*
X1557298Y79602D01*
X1557261Y79490D01*
X1557221Y79380D01*
X1557178Y79271D01*
X1557130Y79163D01*
X1557080Y79057D01*
X1557025Y78953D01*
X1556968Y78850D01*
X1556907Y78750D01*
X1556842Y78651D01*
X1556775Y78555D01*
X1556704Y78461D01*
X1556630Y78369D01*
X1556554Y78280D01*
X1556474Y78194D01*
X1556392Y78110D01*
X1556306Y78029D01*
X1556219Y77951D01*
X1556128Y77875D01*
X1556035Y77803D01*
X1555940Y77734D01*
X1555843Y77668D01*
X1555743Y77605D01*
X1555642Y77546D01*
X1555539Y77490D01*
X1555433Y77438D01*
X1555326Y77389D01*
X1555218Y77343D01*
X1555108Y77301D01*
X1554997Y77263D01*
X1554884Y77229D01*
X1554771Y77198D01*
X1554656Y77171D01*
X1554541Y77148D01*
X1554425Y77128D01*
X1554309Y77113D01*
X1554192Y77101D01*
X1554074Y77093D01*
X1553957Y77089D01*
X1553839Y77089D01*
X1553722Y77093D01*
X1553604Y77101D01*
X1553487Y77113D01*
X1553371Y77128D01*
X1553255Y77148D01*
X1553140Y77171D01*
X1553025Y77198D01*
X1552912Y77229D01*
X1552799Y77263D01*
X1552688Y77301D01*
X1552578Y77343D01*
X1552470Y77389D01*
X1552363Y77438D01*
X1552257Y77490D01*
X1552154Y77546D01*
X1552053Y77605D01*
X1551953Y77668D01*
X1551856Y77734D01*
X1551761Y77803D01*
X1551668Y77875D01*
X1551577Y77951D01*
X1551490Y78029D01*
X1551404Y78110D01*
X1551322Y78194D01*
X1551242Y78280D01*
X1551166Y78369D01*
X1551092Y78461D01*
X1551021Y78555D01*
X1550954Y78651D01*
X1550889Y78750D01*
X1550828Y78850D01*
X1550771Y78953D01*
X1550716Y79057D01*
X1550666Y79163D01*
X1550618Y79271D01*
X1550575Y79380D01*
X1550535Y79490D01*
X1550498Y79602D01*
X1550466Y79715D01*
X1550437Y79829D01*
X1550412Y79944D01*
X1550390Y80060D01*
X1550373Y80176D01*
X1550359Y80293D01*
X1550350Y80410D01*
X1550344Y80527D01*
X1550342Y80645D01*
X1510729Y29592D02*
X1510855Y29590D01*
X1510980Y29584D01*
X1511106Y29574D01*
X1511230Y29560D01*
X1511355Y29543D01*
X1511479Y29521D01*
X1511602Y29496D01*
X1511724Y29466D01*
X1511845Y29433D01*
X1511965Y29396D01*
X1512084Y29355D01*
X1512202Y29311D01*
X1512318Y29263D01*
X1512433Y29211D01*
X1512545Y29156D01*
X1512656Y29097D01*
X1512766Y29035D01*
X1512873Y28969D01*
X1512978Y28900D01*
X1513081Y28828D01*
X1513181Y28752D01*
X1513279Y28674D01*
X1513375Y28592D01*
X1513468Y28508D01*
X1513558Y28420D01*
X1513646Y28330D01*
X1513730Y28237D01*
X1513812Y28141D01*
X1513890Y28043D01*
X1513966Y27943D01*
X1514038Y27840D01*
X1514107Y27735D01*
X1514173Y27628D01*
X1514235Y27518D01*
X1514294Y27407D01*
X1514349Y27295D01*
X1514401Y27180D01*
X1514449Y27064D01*
X1514493Y26946D01*
X1514534Y26827D01*
X1514571Y26707D01*
X1514604Y26586D01*
X1514634Y26464D01*
X1514659Y26341D01*
X1514681Y26217D01*
X1514698Y26092D01*
X1514712Y25968D01*
X1514722Y25842D01*
X1514728Y25717D01*
X1514730Y25591D01*
X1510729Y29591D02*
X1510588Y29589D01*
X1510448Y29583D01*
X1510308Y29574D01*
X1510168Y29560D01*
X1510029Y29543D01*
X1509890Y29522D01*
X1509751Y29497D01*
X1509614Y29469D01*
X1509477Y29436D01*
X1509341Y29400D01*
X1509206Y29360D01*
X1509073Y29317D01*
X1508940Y29270D01*
X1508809Y29219D01*
X1508680Y29165D01*
X1508552Y29107D01*
X1508425Y29046D01*
X1508300Y28981D01*
X1508178Y28913D01*
X1508057Y28842D01*
X1507937Y28767D01*
X1507821Y28689D01*
X1507706Y28608D01*
X1507593Y28524D01*
X1507483Y28436D01*
X1507375Y28346D01*
X1507270Y28253D01*
X1507168Y28157D01*
X1507068Y28058D01*
X1506970Y27957D01*
X1506876Y27853D01*
X1506784Y27746D01*
X1506696Y27637D01*
X1506610Y27526D01*
X1506528Y27412D01*
X1506448Y27296D01*
X1506372Y27178D01*
X1506299Y27058D01*
X1506230Y26936D01*
X1506163Y26812D01*
X1506100Y26686D01*
X1506041Y26559D01*
X1505985Y26430D01*
X1505933Y26300D01*
X1505884Y26168D01*
X1505839Y26035D01*
X1513395Y22479D02*
X1513487Y22570D01*
X1513577Y22663D01*
X1513663Y22758D01*
X1513747Y22856D01*
X1513827Y22957D01*
X1513905Y23060D01*
X1513979Y23165D01*
X1514050Y23273D01*
X1514118Y23382D01*
X1514182Y23494D01*
X1514244Y23607D01*
X1514301Y23722D01*
X1514356Y23839D01*
X1514407Y23958D01*
X1514454Y24078D01*
X1514497Y24199D01*
X1514537Y24321D01*
X1514573Y24445D01*
X1514606Y24570D01*
X1514635Y24695D01*
X1514660Y24822D01*
X1514681Y24949D01*
X1514698Y25077D01*
X1514712Y25205D01*
X1514721Y25333D01*
X1514727Y25462D01*
X1514729Y25591D01*
X1513396Y22479D02*
X1505839Y13589D01*
X1514729Y13589D01*
X1521470Y21590D02*
X1521474Y21905D01*
X1521485Y22219D01*
X1521504Y22534D01*
X1521530Y22847D01*
X1521564Y23160D01*
X1521605Y23472D01*
X1521654Y23783D01*
X1521710Y24093D01*
X1521773Y24402D01*
X1521844Y24708D01*
X1521922Y25013D01*
X1522007Y25316D01*
X1522100Y25617D01*
X1522200Y25916D01*
X1522307Y26212D01*
X1522420Y26506D01*
X1522541Y26796D01*
X1522669Y27084D01*
X1522804Y27369D01*
X1522842Y27475D01*
X1522885Y27580D01*
X1522930Y27684D01*
X1522980Y27786D01*
X1523033Y27886D01*
X1523089Y27985D01*
X1523149Y28081D01*
X1523212Y28175D01*
X1523278Y28267D01*
X1523347Y28357D01*
X1523419Y28444D01*
X1523495Y28529D01*
X1523573Y28611D01*
X1523654Y28690D01*
X1523737Y28767D01*
X1523824Y28840D01*
X1523912Y28911D01*
X1524003Y28978D01*
X1524097Y29043D01*
X1524192Y29104D01*
X1524290Y29161D01*
X1524389Y29216D01*
X1524490Y29266D01*
X1524593Y29314D01*
X1524698Y29358D01*
X1524804Y29398D01*
X1524911Y29434D01*
X1525020Y29467D01*
X1525129Y29496D01*
X1525240Y29521D01*
X1525351Y29542D01*
X1525463Y29560D01*
X1525576Y29573D01*
X1525689Y29583D01*
X1525802Y29589D01*
X1525915Y29591D01*
X1526028Y29589D01*
X1526141Y29583D01*
X1526254Y29573D01*
X1526367Y29560D01*
X1526479Y29542D01*
X1526590Y29521D01*
X1526701Y29496D01*
X1526810Y29467D01*
X1526919Y29434D01*
X1527026Y29398D01*
X1527132Y29358D01*
X1527237Y29314D01*
X1527340Y29266D01*
X1527441Y29216D01*
X1527540Y29161D01*
X1527638Y29104D01*
X1527733Y29043D01*
X1527827Y28978D01*
X1527918Y28911D01*
X1528006Y28840D01*
X1528093Y28767D01*
X1528176Y28690D01*
X1528257Y28611D01*
X1528335Y28529D01*
X1528411Y28444D01*
X1528483Y28357D01*
X1528552Y28267D01*
X1528618Y28175D01*
X1528681Y28081D01*
X1528741Y27985D01*
X1528797Y27886D01*
X1528850Y27786D01*
X1528900Y27684D01*
X1528945Y27580D01*
X1528988Y27475D01*
X1529026Y27369D01*
X1529161Y27084D01*
X1529289Y26796D01*
X1529410Y26506D01*
X1529523Y26212D01*
X1529630Y25916D01*
X1529730Y25617D01*
X1529823Y25316D01*
X1529908Y25013D01*
X1529986Y24708D01*
X1530057Y24402D01*
X1530120Y24093D01*
X1530176Y23783D01*
X1530225Y23472D01*
X1530266Y23160D01*
X1530300Y22847D01*
X1530326Y22534D01*
X1530345Y22219D01*
X1530356Y21905D01*
X1530360Y21590D01*
X1521470Y21590D02*
X1521474Y21275D01*
X1521485Y20961D01*
X1521504Y20646D01*
X1521530Y20333D01*
X1521564Y20020D01*
X1521605Y19708D01*
X1521654Y19397D01*
X1521710Y19087D01*
X1521773Y18778D01*
X1521844Y18472D01*
X1521922Y18167D01*
X1522007Y17864D01*
X1522100Y17563D01*
X1522200Y17264D01*
X1522307Y16968D01*
X1522420Y16674D01*
X1522541Y16384D01*
X1522669Y16096D01*
X1522804Y15811D01*
X1522842Y15705D01*
X1522885Y15600D01*
X1522930Y15496D01*
X1522980Y15394D01*
X1523033Y15294D01*
X1523089Y15195D01*
X1523149Y15099D01*
X1523212Y15005D01*
X1523278Y14913D01*
X1523347Y14823D01*
X1523419Y14736D01*
X1523495Y14651D01*
X1523573Y14569D01*
X1523654Y14490D01*
X1523737Y14413D01*
X1523824Y14340D01*
X1523912Y14269D01*
X1524003Y14202D01*
X1524097Y14137D01*
X1524192Y14076D01*
X1524290Y14019D01*
X1524389Y13964D01*
X1524490Y13914D01*
X1524593Y13866D01*
X1524698Y13822D01*
X1524804Y13782D01*
X1524911Y13746D01*
X1525020Y13713D01*
X1525129Y13684D01*
X1525240Y13659D01*
X1525351Y13638D01*
X1525463Y13620D01*
X1525576Y13607D01*
X1525689Y13597D01*
X1525802Y13591D01*
X1525915Y13589D01*
X1529026Y15811D02*
X1529161Y16096D01*
X1529289Y16384D01*
X1529410Y16674D01*
X1529523Y16968D01*
X1529630Y17264D01*
X1529730Y17563D01*
X1529823Y17864D01*
X1529908Y18167D01*
X1529986Y18472D01*
X1530057Y18778D01*
X1530120Y19087D01*
X1530176Y19397D01*
X1530225Y19708D01*
X1530266Y20020D01*
X1530300Y20333D01*
X1530326Y20646D01*
X1530345Y20961D01*
X1530356Y21275D01*
X1530360Y21590D01*
X1529026Y15811D02*
X1528988Y15705D01*
X1528945Y15600D01*
X1528900Y15496D01*
X1528850Y15394D01*
X1528797Y15294D01*
X1528741Y15195D01*
X1528681Y15099D01*
X1528618Y15005D01*
X1528552Y14913D01*
X1528483Y14823D01*
X1528411Y14736D01*
X1528335Y14651D01*
X1528257Y14569D01*
X1528176Y14490D01*
X1528093Y14413D01*
X1528006Y14340D01*
X1527918Y14269D01*
X1527827Y14202D01*
X1527733Y14137D01*
X1527638Y14076D01*
X1527540Y14019D01*
X1527441Y13964D01*
X1527340Y13914D01*
X1527237Y13866D01*
X1527132Y13822D01*
X1527026Y13782D01*
X1526919Y13746D01*
X1526810Y13713D01*
X1526701Y13684D01*
X1526590Y13659D01*
X1526479Y13638D01*
X1526367Y13620D01*
X1526254Y13607D01*
X1526141Y13597D01*
X1526028Y13591D01*
X1525915Y13589D01*
X1522359Y17145D02*
X1529471Y26035D01*
X1537102Y26035D02*
X1541547Y29591D01*
X1541547Y13589D01*
X1537102Y13589D02*
X1545992Y13589D01*
X1556289Y20701D02*
X1561623Y20701D01*
X1556289Y20701D02*
X1556173Y20703D01*
X1556056Y20709D01*
X1555940Y20718D01*
X1555825Y20731D01*
X1555710Y20748D01*
X1555595Y20769D01*
X1555482Y20794D01*
X1555369Y20822D01*
X1555257Y20854D01*
X1555146Y20890D01*
X1555036Y20929D01*
X1554928Y20972D01*
X1554821Y21018D01*
X1554716Y21068D01*
X1554613Y21121D01*
X1554511Y21177D01*
X1554411Y21237D01*
X1554313Y21300D01*
X1554218Y21367D01*
X1554124Y21436D01*
X1554033Y21508D01*
X1553944Y21583D01*
X1553858Y21662D01*
X1553775Y21743D01*
X1553694Y21826D01*
X1553615Y21912D01*
X1553540Y22001D01*
X1553468Y22092D01*
X1553399Y22186D01*
X1553332Y22281D01*
X1553269Y22379D01*
X1553209Y22479D01*
X1553153Y22581D01*
X1553100Y22684D01*
X1553050Y22789D01*
X1553004Y22896D01*
X1552961Y23004D01*
X1552922Y23114D01*
X1552886Y23225D01*
X1552854Y23337D01*
X1552826Y23450D01*
X1552801Y23563D01*
X1552780Y23678D01*
X1552763Y23793D01*
X1552750Y23908D01*
X1552741Y24024D01*
X1552735Y24141D01*
X1552733Y24257D01*
X1552733Y25146D01*
X1552735Y25278D01*
X1552741Y25409D01*
X1552751Y25541D01*
X1552764Y25672D01*
X1552782Y25802D01*
X1552803Y25932D01*
X1552828Y26062D01*
X1552857Y26190D01*
X1552890Y26318D01*
X1552927Y26444D01*
X1552967Y26570D01*
X1553011Y26694D01*
X1553059Y26817D01*
X1553110Y26938D01*
X1553165Y27058D01*
X1553223Y27176D01*
X1553285Y27292D01*
X1553351Y27406D01*
X1553419Y27519D01*
X1553491Y27629D01*
X1553566Y27737D01*
X1553645Y27843D01*
X1553726Y27947D01*
X1553811Y28048D01*
X1553898Y28146D01*
X1553989Y28242D01*
X1554082Y28335D01*
X1554178Y28426D01*
X1554276Y28513D01*
X1554377Y28598D01*
X1554481Y28679D01*
X1554587Y28758D01*
X1554695Y28833D01*
X1554805Y28905D01*
X1554918Y28973D01*
X1555032Y29039D01*
X1555148Y29101D01*
X1555266Y29159D01*
X1555386Y29214D01*
X1555507Y29265D01*
X1555630Y29313D01*
X1555754Y29357D01*
X1555880Y29397D01*
X1556006Y29434D01*
X1556134Y29467D01*
X1556262Y29496D01*
X1556392Y29521D01*
X1556522Y29542D01*
X1556652Y29560D01*
X1556783Y29573D01*
X1556915Y29583D01*
X1557046Y29589D01*
X1557178Y29591D01*
X1557310Y29589D01*
X1557441Y29583D01*
X1557573Y29573D01*
X1557704Y29560D01*
X1557834Y29542D01*
X1557964Y29521D01*
X1558094Y29496D01*
X1558222Y29467D01*
X1558350Y29434D01*
X1558476Y29397D01*
X1558602Y29357D01*
X1558726Y29313D01*
X1558849Y29265D01*
X1558970Y29214D01*
X1559090Y29159D01*
X1559208Y29101D01*
X1559324Y29039D01*
X1559438Y28973D01*
X1559551Y28905D01*
X1559661Y28833D01*
X1559769Y28758D01*
X1559875Y28679D01*
X1559979Y28598D01*
X1560080Y28513D01*
X1560178Y28426D01*
X1560274Y28335D01*
X1560367Y28242D01*
X1560458Y28146D01*
X1560545Y28048D01*
X1560630Y27947D01*
X1560711Y27843D01*
X1560790Y27737D01*
X1560865Y27629D01*
X1560937Y27519D01*
X1561005Y27406D01*
X1561071Y27292D01*
X1561133Y27176D01*
X1561191Y27058D01*
X1561246Y26938D01*
X1561297Y26817D01*
X1561345Y26694D01*
X1561389Y26570D01*
X1561429Y26444D01*
X1561466Y26318D01*
X1561499Y26190D01*
X1561528Y26062D01*
X1561553Y25932D01*
X1561574Y25802D01*
X1561592Y25672D01*
X1561605Y25541D01*
X1561615Y25409D01*
X1561621Y25278D01*
X1561623Y25146D01*
X1561623Y20701D01*
X1561621Y20529D01*
X1561615Y20357D01*
X1561604Y20186D01*
X1561590Y20015D01*
X1561571Y19844D01*
X1561548Y19673D01*
X1561521Y19504D01*
X1561491Y19335D01*
X1561455Y19166D01*
X1561416Y18999D01*
X1561373Y18833D01*
X1561326Y18667D01*
X1561275Y18503D01*
X1561220Y18340D01*
X1561161Y18179D01*
X1561098Y18019D01*
X1561031Y17861D01*
X1560961Y17704D01*
X1560886Y17549D01*
X1560808Y17396D01*
X1560727Y17245D01*
X1560641Y17096D01*
X1560552Y16948D01*
X1560460Y16804D01*
X1560364Y16661D01*
X1560265Y16521D01*
X1560162Y16383D01*
X1560056Y16248D01*
X1559947Y16115D01*
X1559834Y15985D01*
X1559719Y15858D01*
X1559600Y15733D01*
X1559479Y15612D01*
X1559354Y15493D01*
X1559227Y15378D01*
X1559097Y15265D01*
X1558964Y15156D01*
X1558829Y15050D01*
X1558691Y14947D01*
X1558551Y14848D01*
X1558408Y14752D01*
X1558264Y14660D01*
X1558116Y14571D01*
X1557967Y14485D01*
X1557816Y14404D01*
X1557663Y14326D01*
X1557508Y14251D01*
X1557351Y14181D01*
X1557193Y14114D01*
X1557033Y14051D01*
X1556872Y13992D01*
X1556709Y13937D01*
X1556545Y13886D01*
X1556379Y13839D01*
X1556213Y13796D01*
X1556046Y13757D01*
X1555877Y13721D01*
X1555708Y13691D01*
X1555539Y13664D01*
X1555368Y13641D01*
X1555197Y13622D01*
X1555026Y13608D01*
X1554855Y13597D01*
X1554683Y13591D01*
X1554511Y13589D01*
D11*
X0Y3300D02*
X-15000Y3300D01*
X-15000Y24550D01*
X-15000Y77050D01*
X-15000Y98300D01*
X0Y98300D01*
X0Y3300D01*
X-15000Y24550D02*
X-90000Y24550D01*
X-78750Y77050D02*
X-15000Y77050D01*
X-90000Y77050D02*
X-90000Y24550D01*
X-90000Y77050D02*
X-80000Y77050D01*
X-47500Y79550D02*
X-43750Y22050D01*
X-50000Y22050D02*
X-53750Y79550D01*
X-60000Y79550D02*
X-56250Y22050D01*
X-62500Y22050D02*
X-66250Y79550D01*
X-72500Y79550D02*
X-68750Y22050D01*
X-75000Y22050D02*
X-78750Y79550D01*
D12*
X1581150Y87630D02*
X1778000Y87630D01*
X1581150Y87630D02*
X1581150Y36830D01*
X1778000Y36830D01*
X1778000Y87630D01*
X1624330Y50800D02*
X1620520Y50800D01*
X1621790Y52070D01*
X1620520Y50800D02*
X1621790Y49530D01*
X1623060Y48260D02*
X1623060Y53340D01*
X1624330Y54610D01*
X1623060Y48260D02*
X1624330Y46990D01*
X1621790Y49530D02*
X1621790Y52070D01*
X1623060Y53340D01*
X1621790Y49530D02*
X1623060Y48260D01*
X1624330Y46990D02*
X1624330Y50800D01*
X1624330Y54610D01*
X1625600Y55880D01*
X1624330Y46990D02*
X1625600Y45720D01*
X1625600Y55880D01*
X1624330Y50800D02*
X1644650Y50800D01*
D11*
X1602740Y81915D02*
X1599565Y79375D01*
X1602740Y81915D02*
X1602740Y70485D01*
X1599565Y70485D02*
X1605915Y70485D01*
X1764665Y70485D02*
X1767840Y70485D01*
X1767951Y70487D01*
X1768061Y70493D01*
X1768172Y70502D01*
X1768282Y70516D01*
X1768391Y70533D01*
X1768500Y70554D01*
X1768608Y70579D01*
X1768715Y70608D01*
X1768821Y70640D01*
X1768926Y70676D01*
X1769029Y70716D01*
X1769131Y70759D01*
X1769232Y70806D01*
X1769331Y70857D01*
X1769428Y70910D01*
X1769522Y70967D01*
X1769615Y71028D01*
X1769706Y71091D01*
X1769795Y71158D01*
X1769881Y71228D01*
X1769964Y71301D01*
X1770046Y71376D01*
X1770124Y71454D01*
X1770199Y71536D01*
X1770272Y71619D01*
X1770342Y71705D01*
X1770409Y71794D01*
X1770472Y71885D01*
X1770533Y71978D01*
X1770590Y72072D01*
X1770643Y72169D01*
X1770694Y72268D01*
X1770741Y72369D01*
X1770784Y72471D01*
X1770824Y72574D01*
X1770860Y72679D01*
X1770892Y72785D01*
X1770921Y72892D01*
X1770946Y73000D01*
X1770967Y73109D01*
X1770984Y73218D01*
X1770998Y73328D01*
X1771007Y73439D01*
X1771013Y73549D01*
X1771015Y73660D01*
X1771013Y73771D01*
X1771007Y73881D01*
X1770998Y73992D01*
X1770984Y74102D01*
X1770967Y74211D01*
X1770946Y74320D01*
X1770921Y74428D01*
X1770892Y74535D01*
X1770860Y74641D01*
X1770824Y74746D01*
X1770784Y74849D01*
X1770741Y74951D01*
X1770694Y75052D01*
X1770643Y75151D01*
X1770590Y75247D01*
X1770533Y75342D01*
X1770472Y75435D01*
X1770409Y75526D01*
X1770342Y75615D01*
X1770272Y75701D01*
X1770199Y75784D01*
X1770124Y75866D01*
X1770046Y75944D01*
X1769964Y76019D01*
X1769881Y76092D01*
X1769795Y76162D01*
X1769706Y76229D01*
X1769615Y76292D01*
X1769522Y76353D01*
X1769428Y76410D01*
X1769331Y76463D01*
X1769232Y76514D01*
X1769131Y76561D01*
X1769029Y76604D01*
X1768926Y76644D01*
X1768821Y76680D01*
X1768715Y76712D01*
X1768608Y76741D01*
X1768500Y76766D01*
X1768391Y76787D01*
X1768282Y76804D01*
X1768172Y76818D01*
X1768061Y76827D01*
X1767951Y76833D01*
X1767840Y76835D01*
X1768475Y81915D02*
X1764665Y81915D01*
X1768475Y81915D02*
X1768575Y81913D01*
X1768674Y81907D01*
X1768774Y81897D01*
X1768872Y81884D01*
X1768971Y81866D01*
X1769068Y81845D01*
X1769164Y81820D01*
X1769260Y81791D01*
X1769354Y81758D01*
X1769447Y81722D01*
X1769538Y81682D01*
X1769628Y81638D01*
X1769716Y81591D01*
X1769802Y81541D01*
X1769886Y81487D01*
X1769968Y81430D01*
X1770047Y81370D01*
X1770125Y81306D01*
X1770199Y81240D01*
X1770271Y81171D01*
X1770340Y81099D01*
X1770406Y81025D01*
X1770470Y80947D01*
X1770530Y80868D01*
X1770587Y80786D01*
X1770641Y80702D01*
X1770691Y80616D01*
X1770738Y80528D01*
X1770782Y80438D01*
X1770822Y80347D01*
X1770858Y80254D01*
X1770891Y80160D01*
X1770920Y80064D01*
X1770945Y79968D01*
X1770966Y79871D01*
X1770984Y79772D01*
X1770997Y79674D01*
X1771007Y79574D01*
X1771013Y79475D01*
X1771015Y79375D01*
X1771013Y79275D01*
X1771007Y79176D01*
X1770997Y79076D01*
X1770984Y78978D01*
X1770966Y78879D01*
X1770945Y78782D01*
X1770920Y78686D01*
X1770891Y78590D01*
X1770858Y78496D01*
X1770822Y78403D01*
X1770782Y78312D01*
X1770738Y78222D01*
X1770691Y78134D01*
X1770641Y78048D01*
X1770587Y77964D01*
X1770530Y77882D01*
X1770470Y77803D01*
X1770406Y77725D01*
X1770340Y77651D01*
X1770271Y77579D01*
X1770199Y77510D01*
X1770125Y77444D01*
X1770047Y77380D01*
X1769968Y77320D01*
X1769886Y77263D01*
X1769802Y77209D01*
X1769716Y77159D01*
X1769628Y77112D01*
X1769538Y77068D01*
X1769447Y77028D01*
X1769354Y76992D01*
X1769260Y76959D01*
X1769164Y76930D01*
X1769068Y76905D01*
X1768971Y76884D01*
X1768872Y76866D01*
X1768774Y76853D01*
X1768674Y76843D01*
X1768575Y76837D01*
X1768475Y76835D01*
X1765935Y76835D01*
X1721486Y53658D02*
X1721484Y53762D01*
X1721478Y53867D01*
X1721469Y53971D01*
X1721456Y54074D01*
X1721438Y54177D01*
X1721418Y54279D01*
X1721393Y54381D01*
X1721365Y54481D01*
X1721333Y54581D01*
X1721297Y54679D01*
X1721258Y54776D01*
X1721216Y54871D01*
X1721170Y54965D01*
X1721120Y55057D01*
X1721068Y55147D01*
X1721012Y55235D01*
X1720952Y55321D01*
X1720890Y55405D01*
X1720825Y55486D01*
X1720757Y55565D01*
X1720685Y55642D01*
X1720612Y55715D01*
X1720535Y55787D01*
X1720456Y55855D01*
X1720375Y55920D01*
X1720291Y55982D01*
X1720205Y56042D01*
X1720117Y56098D01*
X1720027Y56150D01*
X1719935Y56200D01*
X1719841Y56246D01*
X1719746Y56288D01*
X1719649Y56327D01*
X1719551Y56363D01*
X1719451Y56395D01*
X1719351Y56423D01*
X1719249Y56448D01*
X1719147Y56468D01*
X1719044Y56486D01*
X1718941Y56499D01*
X1718837Y56508D01*
X1718732Y56514D01*
X1718628Y56516D01*
X1718628Y56515D02*
X1718510Y56513D01*
X1718391Y56507D01*
X1718273Y56498D01*
X1718156Y56485D01*
X1718039Y56467D01*
X1717922Y56447D01*
X1717806Y56422D01*
X1717691Y56394D01*
X1717578Y56361D01*
X1717465Y56326D01*
X1717353Y56286D01*
X1717243Y56244D01*
X1717134Y56197D01*
X1717026Y56147D01*
X1716921Y56094D01*
X1716817Y56037D01*
X1716715Y55977D01*
X1716615Y55914D01*
X1716517Y55847D01*
X1716421Y55778D01*
X1716328Y55705D01*
X1716237Y55629D01*
X1716148Y55551D01*
X1716062Y55469D01*
X1715979Y55385D01*
X1715898Y55299D01*
X1715821Y55209D01*
X1715746Y55118D01*
X1715674Y55024D01*
X1715605Y54927D01*
X1715540Y54829D01*
X1715477Y54728D01*
X1715418Y54625D01*
X1715362Y54521D01*
X1715310Y54415D01*
X1715261Y54307D01*
X1715216Y54198D01*
X1715174Y54087D01*
X1715136Y53975D01*
X1720533Y51436D02*
X1720609Y51511D01*
X1720684Y51590D01*
X1720755Y51671D01*
X1720824Y51755D01*
X1720889Y51841D01*
X1720951Y51929D01*
X1721011Y52019D01*
X1721067Y52111D01*
X1721120Y52206D01*
X1721169Y52302D01*
X1721215Y52400D01*
X1721258Y52499D01*
X1721297Y52600D01*
X1721332Y52702D01*
X1721364Y52805D01*
X1721392Y52909D01*
X1721417Y53014D01*
X1721438Y53121D01*
X1721455Y53227D01*
X1721468Y53334D01*
X1721477Y53442D01*
X1721483Y53550D01*
X1721485Y53658D01*
X1720533Y51435D02*
X1715135Y45085D01*
X1721485Y45085D01*
X1614932Y45085D02*
X1611757Y45085D01*
X1614932Y45085D02*
X1615043Y45087D01*
X1615153Y45093D01*
X1615264Y45102D01*
X1615374Y45116D01*
X1615483Y45133D01*
X1615592Y45154D01*
X1615700Y45179D01*
X1615807Y45208D01*
X1615913Y45240D01*
X1616018Y45276D01*
X1616121Y45316D01*
X1616223Y45359D01*
X1616324Y45406D01*
X1616423Y45457D01*
X1616520Y45510D01*
X1616614Y45567D01*
X1616707Y45628D01*
X1616798Y45691D01*
X1616887Y45758D01*
X1616973Y45828D01*
X1617056Y45901D01*
X1617138Y45976D01*
X1617216Y46054D01*
X1617291Y46136D01*
X1617364Y46219D01*
X1617434Y46305D01*
X1617501Y46394D01*
X1617564Y46485D01*
X1617625Y46578D01*
X1617682Y46672D01*
X1617735Y46769D01*
X1617786Y46868D01*
X1617833Y46969D01*
X1617876Y47071D01*
X1617916Y47174D01*
X1617952Y47279D01*
X1617984Y47385D01*
X1618013Y47492D01*
X1618038Y47600D01*
X1618059Y47709D01*
X1618076Y47818D01*
X1618090Y47928D01*
X1618099Y48039D01*
X1618105Y48149D01*
X1618107Y48260D01*
X1618105Y48371D01*
X1618099Y48481D01*
X1618090Y48592D01*
X1618076Y48702D01*
X1618059Y48811D01*
X1618038Y48920D01*
X1618013Y49028D01*
X1617984Y49135D01*
X1617952Y49241D01*
X1617916Y49346D01*
X1617876Y49449D01*
X1617833Y49551D01*
X1617786Y49652D01*
X1617735Y49751D01*
X1617682Y49847D01*
X1617625Y49942D01*
X1617564Y50035D01*
X1617501Y50126D01*
X1617434Y50215D01*
X1617364Y50301D01*
X1617291Y50384D01*
X1617216Y50466D01*
X1617138Y50544D01*
X1617056Y50619D01*
X1616973Y50692D01*
X1616887Y50762D01*
X1616798Y50829D01*
X1616707Y50892D01*
X1616614Y50953D01*
X1616520Y51010D01*
X1616423Y51063D01*
X1616324Y51114D01*
X1616223Y51161D01*
X1616121Y51204D01*
X1616018Y51244D01*
X1615913Y51280D01*
X1615807Y51312D01*
X1615700Y51341D01*
X1615592Y51366D01*
X1615483Y51387D01*
X1615374Y51404D01*
X1615264Y51418D01*
X1615153Y51427D01*
X1615043Y51433D01*
X1614932Y51435D01*
X1615567Y56515D02*
X1611757Y56515D01*
X1615567Y56515D02*
X1615667Y56513D01*
X1615766Y56507D01*
X1615866Y56497D01*
X1615964Y56484D01*
X1616063Y56466D01*
X1616160Y56445D01*
X1616256Y56420D01*
X1616352Y56391D01*
X1616446Y56358D01*
X1616539Y56322D01*
X1616630Y56282D01*
X1616720Y56238D01*
X1616808Y56191D01*
X1616894Y56141D01*
X1616978Y56087D01*
X1617060Y56030D01*
X1617139Y55970D01*
X1617217Y55906D01*
X1617291Y55840D01*
X1617363Y55771D01*
X1617432Y55699D01*
X1617498Y55625D01*
X1617562Y55547D01*
X1617622Y55468D01*
X1617679Y55386D01*
X1617733Y55302D01*
X1617783Y55216D01*
X1617830Y55128D01*
X1617874Y55038D01*
X1617914Y54947D01*
X1617950Y54854D01*
X1617983Y54760D01*
X1618012Y54664D01*
X1618037Y54568D01*
X1618058Y54471D01*
X1618076Y54372D01*
X1618089Y54274D01*
X1618099Y54174D01*
X1618105Y54075D01*
X1618107Y53975D01*
X1618105Y53875D01*
X1618099Y53776D01*
X1618089Y53676D01*
X1618076Y53578D01*
X1618058Y53479D01*
X1618037Y53382D01*
X1618012Y53286D01*
X1617983Y53190D01*
X1617950Y53096D01*
X1617914Y53003D01*
X1617874Y52912D01*
X1617830Y52822D01*
X1617783Y52734D01*
X1617733Y52648D01*
X1617679Y52564D01*
X1617622Y52482D01*
X1617562Y52403D01*
X1617498Y52325D01*
X1617432Y52251D01*
X1617363Y52179D01*
X1617291Y52110D01*
X1617217Y52044D01*
X1617139Y51980D01*
X1617060Y51920D01*
X1616978Y51863D01*
X1616894Y51809D01*
X1616808Y51759D01*
X1616720Y51712D01*
X1616630Y51668D01*
X1616539Y51628D01*
X1616446Y51592D01*
X1616352Y51559D01*
X1616256Y51530D01*
X1616160Y51505D01*
X1616063Y51484D01*
X1615964Y51466D01*
X1615866Y51453D01*
X1615766Y51443D01*
X1615667Y51437D01*
X1615567Y51435D01*
X1613027Y51435D01*
X1653667Y53975D02*
X1656842Y56515D01*
X1656842Y45085D01*
X1653667Y45085D02*
X1660017Y45085D01*
D13*
X1787525Y71755D03*
X1787525Y55245D03*
D14*
X1784985Y63500D03*
D11*
X1656700Y71150D02*
X1656700Y43150D01*
X1656700Y71150D02*
X1670700Y71150D01*
X1670700Y43150D01*
X1656700Y43150D01*
M02*
