G04 EAGLE Gerber RS-274X export*
G75*
%MOMM*%
%FSLAX34Y34*%
%LPD*%
%INTop Solder Mask*%
%IPPOS*%
%AMOC8*
5,1,8,0,0,1.08239X$1,22.5*%
G01*
%ADD10R,0.427000X0.927000*%
%ADD11R,0.927000X0.427000*%
%ADD12R,1.357000X1.357000*%
%ADD13R,1.397000X1.397000*%
%ADD14C,0.681000*%


D10*
X57190Y46710D03*
X52190Y46710D03*
X62190Y46710D03*
X67190Y46710D03*
X57190Y75210D03*
X52190Y75210D03*
X62190Y75210D03*
X67190Y75210D03*
D11*
X45440Y58460D03*
X45440Y53460D03*
X45440Y63460D03*
X45440Y68460D03*
X73940Y58460D03*
X73940Y53460D03*
X73940Y63460D03*
X73940Y68460D03*
D12*
X59690Y60960D03*
D13*
X88900Y12700D03*
X69850Y12700D03*
X50800Y12700D03*
X31750Y12700D03*
X12700Y31750D03*
X12700Y50800D03*
X12700Y69850D03*
X12700Y88900D03*
X12700Y12700D03*
X107950Y12700D03*
X31750Y107950D03*
X12700Y107950D03*
X107950Y107950D03*
X50800Y107950D03*
X69850Y107950D03*
X88900Y107950D03*
X107950Y88900D03*
X107950Y69850D03*
X107950Y50800D03*
X107950Y31750D03*
D14*
X59690Y60960D03*
X12700Y107950D03*
X107950Y107950D03*
X107950Y12700D03*
X12700Y12700D03*
M02*
