M48
;GenerationSoftware,Autodesk,EAGLE,9.4.1*%
;CreationDate,2019-07-15T17:46:45Z*%
FMAT,2
ICI,OFF
METRIC,TZ,000.000
T3C0.300
T2C0.350
%
G90
M71
T2
X11557Y1143
X26797Y1143
X25527Y1143
X24257Y1143
X22987Y1143
X21717Y1143
X20447Y1143
X19177Y1143
X17907Y1143
X16637Y1143
X15367Y1143
X14097Y1143
X12827Y1143
X28067Y1143
X29337Y9017
X28067Y9017
X26797Y9017
X25527Y9017
X24257Y9017
X22987Y9017
X21717Y9017
X20447Y9017
X19177Y9017
X17907Y9017
X16637Y9017
X15367Y9017
X6477Y1143
X30480Y3937
X30480Y6248
X28194Y4064
X28956Y6096
X10287Y4064
X9017Y4064
X7747Y4064
X6477Y4064
X5207Y4064
X10287Y1143
X9017Y1143
X7747Y1143
X32639Y7112
X5207Y1143
X10287Y9017
X9017Y9017
X7747Y9017
X6477Y9017
X5207Y9017
X10287Y6096
X9017Y6096
X7747Y6096
X6477Y6096
X5207Y6096
X29337Y1143
X36449Y3048
X15367Y6096
X14097Y6096
X12827Y6096
X11557Y6096
X42291Y3683
X42291Y6477
X29718Y3429
X29718Y6731
X41529Y3048
X40259Y3048
X38989Y3048
X37719Y3048
X12827Y9017
X35179Y3048
X33909Y3048
X32639Y3048
X31369Y3048
X41529Y7112
X40259Y7112
X38989Y7112
X37719Y7112
X36449Y7112
X35179Y7112
X33909Y7112
X31369Y7112
X17907Y6096
X14097Y9017
X11557Y9017
X28956Y4064
X27305Y4064
X25908Y4064
X24511Y4064
X23114Y4064
X21717Y4064
X20447Y4064
X19177Y4064
X17907Y4064
X16637Y4064
X14097Y4064
X16637Y6096
X19177Y6096
X20447Y6096
X21717Y6096
X23114Y6096
X24511Y6096
X27305Y6096
X28194Y6096
X11557Y4064
X12827Y4064
X15367Y4064
X25908Y6096
T3
X2413Y6731
X2413Y3429
X2413Y1143
X2413Y9017
X3683Y9017
X1143Y9017
X3683Y1143
X1143Y1143
X3683Y3429
X3683Y6731
X1143Y3429
X1143Y6731
M30