G04 EAGLE Gerber RS-274X export*
G75*
%MOMM*%
%FSLAX34Y34*%
%LPD*%
%INTop Solder Mask*%
%IPPOS*%
%AMOC8*
5,1,8,0,0,1.08239X$1,22.5*%
G01*
%ADD10R,4.699000X2.667000*%
%ADD11R,3.937000X1.143000*%
%ADD12C,0.681000*%
%ADD13R,0.427000X0.677000*%
%ADD14R,0.677000X0.427000*%

G36*
X469902Y44325D02*
X469902Y44325D01*
X469904Y44324D01*
X469947Y44344D01*
X469991Y44362D01*
X469991Y44364D01*
X469993Y44365D01*
X470026Y44450D01*
X470026Y57150D01*
X470025Y57152D01*
X470026Y57154D01*
X470006Y57197D01*
X469988Y57241D01*
X469986Y57241D01*
X469985Y57243D01*
X469900Y57276D01*
X426720Y57276D01*
X426718Y57275D01*
X426716Y57276D01*
X426673Y57256D01*
X426629Y57238D01*
X426629Y57236D01*
X426627Y57235D01*
X426594Y57150D01*
X426594Y44450D01*
X426595Y44448D01*
X426594Y44446D01*
X426614Y44403D01*
X426632Y44359D01*
X426634Y44359D01*
X426635Y44357D01*
X426720Y44324D01*
X469900Y44324D01*
X469902Y44325D01*
G37*
D10*
X22860Y17780D03*
X22860Y83820D03*
D11*
X19050Y50800D03*
D12*
X11430Y11430D03*
X36830Y11430D03*
X11430Y90170D03*
X36830Y90170D03*
X24130Y90170D03*
X24130Y11430D03*
D13*
X417262Y50800D03*
X409762Y50800D03*
D14*
X297180Y53400D03*
X297180Y60900D03*
X297180Y40700D03*
X297180Y48200D03*
D13*
X393894Y50800D03*
X386394Y50800D03*
X382210Y50800D03*
X374710Y50800D03*
X370526Y50800D03*
X363026Y50800D03*
X358842Y50800D03*
X351342Y50800D03*
X347158Y50800D03*
X339658Y50800D03*
X335474Y50800D03*
X327974Y50800D03*
X323790Y50800D03*
X316290Y50800D03*
X312106Y50800D03*
X304606Y50800D03*
X405578Y50800D03*
X398078Y50800D03*
M02*
