G04 EAGLE Gerber RS-274X export*
G75*
%MOMM*%
%FSLAX34Y34*%
%LPD*%
%INBoard Outline*%
%IPPOS*%
%AMOC8*
5,1,8,0,0,1.08239X$1,22.5*%
G01*
%ADD10C,0.254000*%


D10*
X0Y0D02*
X260350Y0D01*
X260350Y260350D01*
X0Y260350D01*
X0Y0D01*
X41275Y24880D02*
X41207Y23843D01*
X41071Y22813D01*
X40869Y21793D01*
X40600Y20789D01*
X40265Y19805D01*
X39868Y18845D01*
X39408Y17913D01*
X38888Y17012D01*
X38311Y16148D01*
X37678Y15324D01*
X36993Y14542D01*
X36258Y13807D01*
X35476Y13122D01*
X34652Y12489D01*
X33788Y11912D01*
X32887Y11392D01*
X31955Y10932D01*
X30995Y10535D01*
X30011Y10200D01*
X29007Y9931D01*
X27987Y9729D01*
X26957Y9593D01*
X25920Y9525D01*
X24880Y9525D01*
X23843Y9593D01*
X22813Y9729D01*
X21793Y9931D01*
X20789Y10200D01*
X19805Y10535D01*
X18845Y10932D01*
X17913Y11392D01*
X17012Y11912D01*
X16148Y12489D01*
X15324Y13122D01*
X14542Y13807D01*
X13807Y14542D01*
X13122Y15324D01*
X12489Y16148D01*
X11912Y17012D01*
X11392Y17913D01*
X10932Y18845D01*
X10535Y19805D01*
X10200Y20789D01*
X9931Y21793D01*
X9729Y22813D01*
X9593Y23843D01*
X9525Y24880D01*
X9525Y25920D01*
X9593Y26957D01*
X9729Y27987D01*
X9931Y29007D01*
X10200Y30011D01*
X10535Y30995D01*
X10932Y31955D01*
X11392Y32887D01*
X11912Y33788D01*
X12489Y34652D01*
X13122Y35476D01*
X13807Y36258D01*
X14542Y36993D01*
X15324Y37678D01*
X16148Y38311D01*
X17012Y38888D01*
X17913Y39408D01*
X18845Y39868D01*
X19805Y40265D01*
X20789Y40600D01*
X21793Y40869D01*
X22813Y41071D01*
X23843Y41207D01*
X24880Y41275D01*
X25920Y41275D01*
X26957Y41207D01*
X27987Y41071D01*
X29007Y40869D01*
X30011Y40600D01*
X30995Y40265D01*
X31955Y39868D01*
X32887Y39408D01*
X33788Y38888D01*
X34652Y38311D01*
X35476Y37678D01*
X36258Y36993D01*
X36993Y36258D01*
X37678Y35476D01*
X38311Y34652D01*
X38888Y33788D01*
X39408Y32887D01*
X39868Y31955D01*
X40265Y30995D01*
X40600Y30011D01*
X40869Y29007D01*
X41071Y27987D01*
X41207Y26957D01*
X41275Y25920D01*
X41275Y24880D01*
X41275Y234430D02*
X41207Y233393D01*
X41071Y232363D01*
X40869Y231343D01*
X40600Y230339D01*
X40265Y229355D01*
X39868Y228395D01*
X39408Y227463D01*
X38888Y226562D01*
X38311Y225698D01*
X37678Y224874D01*
X36993Y224092D01*
X36258Y223357D01*
X35476Y222672D01*
X34652Y222039D01*
X33788Y221462D01*
X32887Y220942D01*
X31955Y220482D01*
X30995Y220085D01*
X30011Y219750D01*
X29007Y219481D01*
X27987Y219279D01*
X26957Y219143D01*
X25920Y219075D01*
X24880Y219075D01*
X23843Y219143D01*
X22813Y219279D01*
X21793Y219481D01*
X20789Y219750D01*
X19805Y220085D01*
X18845Y220482D01*
X17913Y220942D01*
X17012Y221462D01*
X16148Y222039D01*
X15324Y222672D01*
X14542Y223357D01*
X13807Y224092D01*
X13122Y224874D01*
X12489Y225698D01*
X11912Y226562D01*
X11392Y227463D01*
X10932Y228395D01*
X10535Y229355D01*
X10200Y230339D01*
X9931Y231343D01*
X9729Y232363D01*
X9593Y233393D01*
X9525Y234430D01*
X9525Y235470D01*
X9593Y236507D01*
X9729Y237537D01*
X9931Y238557D01*
X10200Y239561D01*
X10535Y240545D01*
X10932Y241505D01*
X11392Y242437D01*
X11912Y243338D01*
X12489Y244202D01*
X13122Y245026D01*
X13807Y245808D01*
X14542Y246543D01*
X15324Y247228D01*
X16148Y247861D01*
X17012Y248438D01*
X17913Y248958D01*
X18845Y249418D01*
X19805Y249815D01*
X20789Y250150D01*
X21793Y250419D01*
X22813Y250621D01*
X23843Y250757D01*
X24880Y250825D01*
X25920Y250825D01*
X26957Y250757D01*
X27987Y250621D01*
X29007Y250419D01*
X30011Y250150D01*
X30995Y249815D01*
X31955Y249418D01*
X32887Y248958D01*
X33788Y248438D01*
X34652Y247861D01*
X35476Y247228D01*
X36258Y246543D01*
X36993Y245808D01*
X37678Y245026D01*
X38311Y244202D01*
X38888Y243338D01*
X39408Y242437D01*
X39868Y241505D01*
X40265Y240545D01*
X40600Y239561D01*
X40869Y238557D01*
X41071Y237537D01*
X41207Y236507D01*
X41275Y235470D01*
X41275Y234430D01*
X250825Y234430D02*
X250757Y233393D01*
X250621Y232363D01*
X250419Y231343D01*
X250150Y230339D01*
X249815Y229355D01*
X249418Y228395D01*
X248958Y227463D01*
X248438Y226562D01*
X247861Y225698D01*
X247228Y224874D01*
X246543Y224092D01*
X245808Y223357D01*
X245026Y222672D01*
X244202Y222039D01*
X243338Y221462D01*
X242437Y220942D01*
X241505Y220482D01*
X240545Y220085D01*
X239561Y219750D01*
X238557Y219481D01*
X237537Y219279D01*
X236507Y219143D01*
X235470Y219075D01*
X234430Y219075D01*
X233393Y219143D01*
X232363Y219279D01*
X231343Y219481D01*
X230339Y219750D01*
X229355Y220085D01*
X228395Y220482D01*
X227463Y220942D01*
X226562Y221462D01*
X225698Y222039D01*
X224874Y222672D01*
X224092Y223357D01*
X223357Y224092D01*
X222672Y224874D01*
X222039Y225698D01*
X221462Y226562D01*
X220942Y227463D01*
X220482Y228395D01*
X220085Y229355D01*
X219750Y230339D01*
X219481Y231343D01*
X219279Y232363D01*
X219143Y233393D01*
X219075Y234430D01*
X219075Y235470D01*
X219143Y236507D01*
X219279Y237537D01*
X219481Y238557D01*
X219750Y239561D01*
X220085Y240545D01*
X220482Y241505D01*
X220942Y242437D01*
X221462Y243338D01*
X222039Y244202D01*
X222672Y245026D01*
X223357Y245808D01*
X224092Y246543D01*
X224874Y247228D01*
X225698Y247861D01*
X226562Y248438D01*
X227463Y248958D01*
X228395Y249418D01*
X229355Y249815D01*
X230339Y250150D01*
X231343Y250419D01*
X232363Y250621D01*
X233393Y250757D01*
X234430Y250825D01*
X235470Y250825D01*
X236507Y250757D01*
X237537Y250621D01*
X238557Y250419D01*
X239561Y250150D01*
X240545Y249815D01*
X241505Y249418D01*
X242437Y248958D01*
X243338Y248438D01*
X244202Y247861D01*
X245026Y247228D01*
X245808Y246543D01*
X246543Y245808D01*
X247228Y245026D01*
X247861Y244202D01*
X248438Y243338D01*
X248958Y242437D01*
X249418Y241505D01*
X249815Y240545D01*
X250150Y239561D01*
X250419Y238557D01*
X250621Y237537D01*
X250757Y236507D01*
X250825Y235470D01*
X250825Y234430D01*
X250825Y24880D02*
X250757Y23843D01*
X250621Y22813D01*
X250419Y21793D01*
X250150Y20789D01*
X249815Y19805D01*
X249418Y18845D01*
X248958Y17913D01*
X248438Y17012D01*
X247861Y16148D01*
X247228Y15324D01*
X246543Y14542D01*
X245808Y13807D01*
X245026Y13122D01*
X244202Y12489D01*
X243338Y11912D01*
X242437Y11392D01*
X241505Y10932D01*
X240545Y10535D01*
X239561Y10200D01*
X238557Y9931D01*
X237537Y9729D01*
X236507Y9593D01*
X235470Y9525D01*
X234430Y9525D01*
X233393Y9593D01*
X232363Y9729D01*
X231343Y9931D01*
X230339Y10200D01*
X229355Y10535D01*
X228395Y10932D01*
X227463Y11392D01*
X226562Y11912D01*
X225698Y12489D01*
X224874Y13122D01*
X224092Y13807D01*
X223357Y14542D01*
X222672Y15324D01*
X222039Y16148D01*
X221462Y17012D01*
X220942Y17913D01*
X220482Y18845D01*
X220085Y19805D01*
X219750Y20789D01*
X219481Y21793D01*
X219279Y22813D01*
X219143Y23843D01*
X219075Y24880D01*
X219075Y25920D01*
X219143Y26957D01*
X219279Y27987D01*
X219481Y29007D01*
X219750Y30011D01*
X220085Y30995D01*
X220482Y31955D01*
X220942Y32887D01*
X221462Y33788D01*
X222039Y34652D01*
X222672Y35476D01*
X223357Y36258D01*
X224092Y36993D01*
X224874Y37678D01*
X225698Y38311D01*
X226562Y38888D01*
X227463Y39408D01*
X228395Y39868D01*
X229355Y40265D01*
X230339Y40600D01*
X231343Y40869D01*
X232363Y41071D01*
X233393Y41207D01*
X234430Y41275D01*
X235470Y41275D01*
X236507Y41207D01*
X237537Y41071D01*
X238557Y40869D01*
X239561Y40600D01*
X240545Y40265D01*
X241505Y39868D01*
X242437Y39408D01*
X243338Y38888D01*
X244202Y38311D01*
X245026Y37678D01*
X245808Y36993D01*
X246543Y36258D01*
X247228Y35476D01*
X247861Y34652D01*
X248438Y33788D01*
X248958Y32887D01*
X249418Y31955D01*
X249815Y30995D01*
X250150Y30011D01*
X250419Y29007D01*
X250621Y27987D01*
X250757Y26957D01*
X250825Y25920D01*
X250825Y24880D01*
M02*
