M48
;GenerationSoftware,Autodesk,EAGLE,9.6.1*%
;CreationDate,2020-06-09T17:18:08Z*%
FMAT,2
ICI,OFF
METRIC,TZ,000.000
T4C0.500
T3C1.000
T2C3.175
%
G90
M71
T2
X23495Y2540
X23495Y23495
X2540Y23495
X2540Y2540
T3
X15799Y24409
X10719Y24409
X13259Y24409
X15799Y1549
X10719Y1549
X13259Y1549
T4
X5131Y11709
X22784Y14072
X3988Y11709
X13589Y20549
X5131Y12852
X3988Y12852
X5131Y14122
X3988Y14122
X10719Y17424
X16434Y18059
X17526Y15291
X20011Y10147
X21336Y7087
X11786Y8661
X8865Y12624
X8966Y11608
X18720Y16739
X18720Y15773
X14630Y8280
X14630Y7290
X20066Y8661
X20066Y7722
X19990Y15138
X10820Y9195
X15900Y6655
X14757Y17170
X17882Y21742
X17882Y20472
X17882Y19202
X21514Y11582
X22784Y11582
X21514Y12852
X22784Y12852
X21514Y14072
M30