G04 EAGLE Gerber RS-274X export*
G75*
%MOMM*%
%FSLAX34Y34*%
%LPD*%
%INSilkscreen Bottom*%
%IPPOS*%
%AMOC8*
5,1,8,0,0,1.08239X$1,22.5*%
G01*
%ADD10C,0.152400*%
%ADD11C,0.127000*%


D10*
X32512Y129794D02*
X32542Y132250D01*
X32633Y134704D01*
X32783Y137156D01*
X32994Y139603D01*
X33265Y142044D01*
X33595Y144478D01*
X33985Y146903D01*
X34435Y149318D01*
X34944Y151721D01*
X35511Y154110D01*
X36137Y156486D01*
X36821Y158845D01*
X37563Y161186D01*
X38362Y163509D01*
X39218Y165811D01*
X40130Y168091D01*
X41098Y170349D01*
X42120Y172582D01*
X43198Y174789D01*
X44329Y176969D01*
X45513Y179121D01*
X46750Y181243D01*
X48038Y183334D01*
X49378Y185393D01*
X50767Y187419D01*
X52206Y189409D01*
X53693Y191364D01*
X55228Y193282D01*
X56810Y195161D01*
X58437Y197001D01*
X60108Y198800D01*
X61824Y200558D01*
X63582Y202274D01*
X65381Y203945D01*
X67221Y205572D01*
X69100Y207154D01*
X71018Y208689D01*
X72973Y210176D01*
X74963Y211615D01*
X76989Y213004D01*
X79048Y214344D01*
X81139Y215632D01*
X83261Y216869D01*
X85413Y218053D01*
X87593Y219184D01*
X89800Y220262D01*
X92033Y221284D01*
X94291Y222252D01*
X96571Y223164D01*
X98873Y224020D01*
X101196Y224819D01*
X103537Y225561D01*
X105896Y226245D01*
X108272Y226871D01*
X110661Y227438D01*
X113064Y227947D01*
X115479Y228397D01*
X117904Y228787D01*
X120338Y229117D01*
X122779Y229388D01*
X125226Y229599D01*
X127678Y229749D01*
X130132Y229840D01*
X132588Y229870D01*
X135044Y229840D01*
X137498Y229749D01*
X139950Y229599D01*
X142397Y229388D01*
X144838Y229117D01*
X147272Y228787D01*
X149697Y228397D01*
X152112Y227947D01*
X154515Y227438D01*
X156904Y226871D01*
X159280Y226245D01*
X161639Y225561D01*
X163980Y224819D01*
X166303Y224020D01*
X168605Y223164D01*
X170885Y222252D01*
X173143Y221284D01*
X175376Y220262D01*
X177583Y219184D01*
X179763Y218053D01*
X181915Y216869D01*
X184037Y215632D01*
X186128Y214344D01*
X188187Y213004D01*
X190213Y211615D01*
X192203Y210176D01*
X194158Y208689D01*
X196076Y207154D01*
X197955Y205572D01*
X199795Y203945D01*
X201594Y202274D01*
X203352Y200558D01*
X205068Y198800D01*
X206739Y197001D01*
X208366Y195161D01*
X209948Y193282D01*
X211483Y191364D01*
X212970Y189409D01*
X214409Y187419D01*
X215798Y185393D01*
X217138Y183334D01*
X218426Y181243D01*
X219663Y179121D01*
X220847Y176969D01*
X221978Y174789D01*
X223056Y172582D01*
X224078Y170349D01*
X225046Y168091D01*
X225958Y165811D01*
X226814Y163509D01*
X227613Y161186D01*
X228355Y158845D01*
X229039Y156486D01*
X229665Y154110D01*
X230232Y151721D01*
X230741Y149318D01*
X231191Y146903D01*
X231581Y144478D01*
X231911Y142044D01*
X232182Y139603D01*
X232393Y137156D01*
X232543Y134704D01*
X232634Y132250D01*
X232664Y129794D01*
X232634Y127338D01*
X232543Y124884D01*
X232393Y122432D01*
X232182Y119985D01*
X231911Y117544D01*
X231581Y115110D01*
X231191Y112685D01*
X230741Y110270D01*
X230232Y107867D01*
X229665Y105478D01*
X229039Y103102D01*
X228355Y100743D01*
X227613Y98402D01*
X226814Y96079D01*
X225958Y93777D01*
X225046Y91497D01*
X224078Y89239D01*
X223056Y87006D01*
X221978Y84799D01*
X220847Y82619D01*
X219663Y80467D01*
X218426Y78345D01*
X217138Y76254D01*
X215798Y74195D01*
X214409Y72169D01*
X212970Y70179D01*
X211483Y68224D01*
X209948Y66306D01*
X208366Y64427D01*
X206739Y62587D01*
X205068Y60788D01*
X203352Y59030D01*
X201594Y57314D01*
X199795Y55643D01*
X197955Y54016D01*
X196076Y52434D01*
X194158Y50899D01*
X192203Y49412D01*
X190213Y47973D01*
X188187Y46584D01*
X186128Y45244D01*
X184037Y43956D01*
X181915Y42719D01*
X179763Y41535D01*
X177583Y40404D01*
X175376Y39326D01*
X173143Y38304D01*
X170885Y37336D01*
X168605Y36424D01*
X166303Y35568D01*
X163980Y34769D01*
X161639Y34027D01*
X159280Y33343D01*
X156904Y32717D01*
X154515Y32150D01*
X152112Y31641D01*
X149697Y31191D01*
X147272Y30801D01*
X144838Y30471D01*
X142397Y30200D01*
X139950Y29989D01*
X137498Y29839D01*
X135044Y29748D01*
X132588Y29718D01*
X130132Y29748D01*
X127678Y29839D01*
X125226Y29989D01*
X122779Y30200D01*
X120338Y30471D01*
X117904Y30801D01*
X115479Y31191D01*
X113064Y31641D01*
X110661Y32150D01*
X108272Y32717D01*
X105896Y33343D01*
X103537Y34027D01*
X101196Y34769D01*
X98873Y35568D01*
X96571Y36424D01*
X94291Y37336D01*
X92033Y38304D01*
X89800Y39326D01*
X87593Y40404D01*
X85413Y41535D01*
X83261Y42719D01*
X81139Y43956D01*
X79048Y45244D01*
X76989Y46584D01*
X74963Y47973D01*
X72973Y49412D01*
X71018Y50899D01*
X69100Y52434D01*
X67221Y54016D01*
X65381Y55643D01*
X63582Y57314D01*
X61824Y59030D01*
X60108Y60788D01*
X58437Y62587D01*
X56810Y64427D01*
X55228Y66306D01*
X53693Y68224D01*
X52206Y70179D01*
X50767Y72169D01*
X49378Y74195D01*
X48038Y76254D01*
X46750Y78345D01*
X45513Y80467D01*
X44329Y82619D01*
X43198Y84799D01*
X42120Y87006D01*
X41098Y89239D01*
X40130Y91497D01*
X39218Y93777D01*
X38362Y96079D01*
X37563Y98402D01*
X36821Y100743D01*
X36137Y103102D01*
X35511Y105478D01*
X34944Y107867D01*
X34435Y110270D01*
X33985Y112685D01*
X33595Y115110D01*
X33265Y117544D01*
X32994Y119985D01*
X32783Y122432D01*
X32633Y124884D01*
X32542Y127338D01*
X32512Y129794D01*
X182513Y217182D02*
X182513Y219891D01*
X173482Y219891D01*
X173482Y214473D01*
X173484Y214355D01*
X173490Y214237D01*
X173499Y214119D01*
X173513Y214002D01*
X173530Y213885D01*
X173551Y213768D01*
X173576Y213653D01*
X173605Y213538D01*
X173638Y213424D01*
X173674Y213312D01*
X173714Y213201D01*
X173757Y213091D01*
X173804Y212982D01*
X173854Y212875D01*
X173909Y212770D01*
X173966Y212667D01*
X174027Y212566D01*
X174091Y212466D01*
X174158Y212369D01*
X174228Y212274D01*
X174302Y212182D01*
X174378Y212091D01*
X174458Y212004D01*
X174540Y211919D01*
X174625Y211837D01*
X174712Y211757D01*
X174803Y211681D01*
X174895Y211607D01*
X174990Y211537D01*
X175087Y211470D01*
X175187Y211406D01*
X175288Y211345D01*
X175391Y211288D01*
X175496Y211233D01*
X175603Y211183D01*
X175712Y211136D01*
X175822Y211093D01*
X175933Y211053D01*
X176045Y211017D01*
X176159Y210984D01*
X176274Y210955D01*
X176389Y210930D01*
X176506Y210909D01*
X176623Y210892D01*
X176740Y210878D01*
X176858Y210869D01*
X176976Y210863D01*
X177094Y210861D01*
X177094Y210860D02*
X186126Y210860D01*
X186126Y210861D02*
X186244Y210863D01*
X186362Y210869D01*
X186480Y210878D01*
X186597Y210892D01*
X186714Y210909D01*
X186831Y210930D01*
X186946Y210955D01*
X187061Y210984D01*
X187175Y211017D01*
X187287Y211053D01*
X187398Y211093D01*
X187508Y211136D01*
X187617Y211183D01*
X187724Y211233D01*
X187829Y211287D01*
X187932Y211345D01*
X188033Y211406D01*
X188133Y211470D01*
X188230Y211537D01*
X188325Y211607D01*
X188417Y211681D01*
X188508Y211757D01*
X188595Y211837D01*
X188680Y211919D01*
X188762Y212004D01*
X188842Y212091D01*
X188918Y212182D01*
X188992Y212274D01*
X189062Y212369D01*
X189129Y212466D01*
X189193Y212566D01*
X189254Y212667D01*
X189311Y212770D01*
X189365Y212875D01*
X189416Y212982D01*
X189463Y213091D01*
X189506Y213201D01*
X189546Y213312D01*
X189582Y213424D01*
X189615Y213538D01*
X189644Y213653D01*
X189669Y213768D01*
X189690Y213885D01*
X189707Y214002D01*
X189721Y214119D01*
X189730Y214237D01*
X189736Y214355D01*
X189738Y214473D01*
X189738Y219891D01*
X189738Y227534D02*
X173482Y227534D01*
X173482Y236565D02*
X189738Y227534D01*
X189738Y236565D02*
X173482Y236565D01*
X173482Y244207D02*
X189738Y244207D01*
X189738Y248722D01*
X189736Y248853D01*
X189730Y248985D01*
X189721Y249116D01*
X189707Y249246D01*
X189690Y249377D01*
X189669Y249506D01*
X189645Y249635D01*
X189616Y249763D01*
X189584Y249891D01*
X189548Y250017D01*
X189509Y250142D01*
X189466Y250267D01*
X189419Y250389D01*
X189369Y250511D01*
X189315Y250631D01*
X189258Y250749D01*
X189197Y250865D01*
X189133Y250980D01*
X189066Y251093D01*
X188995Y251204D01*
X188921Y251312D01*
X188844Y251419D01*
X188764Y251523D01*
X188681Y251625D01*
X188596Y251724D01*
X188507Y251821D01*
X188415Y251915D01*
X188321Y252007D01*
X188224Y252096D01*
X188125Y252181D01*
X188023Y252264D01*
X187919Y252344D01*
X187812Y252421D01*
X187704Y252495D01*
X187593Y252566D01*
X187480Y252633D01*
X187365Y252697D01*
X187249Y252758D01*
X187131Y252815D01*
X187011Y252869D01*
X186889Y252919D01*
X186767Y252966D01*
X186642Y253009D01*
X186517Y253048D01*
X186391Y253084D01*
X186263Y253116D01*
X186135Y253145D01*
X186006Y253169D01*
X185877Y253190D01*
X185746Y253207D01*
X185616Y253221D01*
X185485Y253230D01*
X185353Y253236D01*
X185222Y253238D01*
X177998Y253238D01*
X177867Y253236D01*
X177735Y253230D01*
X177604Y253221D01*
X177474Y253207D01*
X177343Y253190D01*
X177214Y253169D01*
X177085Y253145D01*
X176957Y253116D01*
X176829Y253084D01*
X176703Y253048D01*
X176578Y253009D01*
X176453Y252966D01*
X176331Y252919D01*
X176209Y252869D01*
X176089Y252815D01*
X175971Y252758D01*
X175855Y252697D01*
X175740Y252633D01*
X175627Y252566D01*
X175516Y252495D01*
X175408Y252421D01*
X175301Y252344D01*
X175197Y252264D01*
X175095Y252181D01*
X174996Y252096D01*
X174899Y252007D01*
X174805Y251915D01*
X174713Y251821D01*
X174624Y251724D01*
X174539Y251625D01*
X174456Y251523D01*
X174376Y251419D01*
X174299Y251312D01*
X174225Y251204D01*
X174154Y251093D01*
X174087Y250980D01*
X174023Y250865D01*
X173962Y250749D01*
X173905Y250631D01*
X173851Y250511D01*
X173801Y250389D01*
X173754Y250267D01*
X173711Y250142D01*
X173672Y250017D01*
X173636Y249891D01*
X173604Y249763D01*
X173575Y249635D01*
X173551Y249506D01*
X173530Y249377D01*
X173513Y249246D01*
X173499Y249116D01*
X173490Y248985D01*
X173484Y248853D01*
X173482Y248722D01*
X173482Y244207D01*
X78204Y236565D02*
X78204Y225727D01*
X83622Y231146D02*
X72785Y231146D01*
X71882Y247819D02*
X88138Y242401D01*
X88138Y253238D02*
X71882Y247819D01*
X84554Y14315D02*
X84554Y3477D01*
X89972Y8896D02*
X79135Y8896D01*
X78232Y25569D02*
X94488Y20151D01*
X94488Y30988D02*
X78232Y25569D01*
X182513Y16691D02*
X182513Y13982D01*
X182513Y16691D02*
X173482Y16691D01*
X173482Y11273D01*
X173484Y11155D01*
X173490Y11037D01*
X173499Y10919D01*
X173513Y10802D01*
X173530Y10685D01*
X173551Y10568D01*
X173576Y10453D01*
X173605Y10338D01*
X173638Y10224D01*
X173674Y10112D01*
X173714Y10001D01*
X173757Y9891D01*
X173804Y9782D01*
X173854Y9675D01*
X173909Y9570D01*
X173966Y9467D01*
X174027Y9366D01*
X174091Y9266D01*
X174158Y9169D01*
X174228Y9074D01*
X174302Y8982D01*
X174378Y8891D01*
X174458Y8804D01*
X174540Y8719D01*
X174625Y8637D01*
X174712Y8557D01*
X174803Y8481D01*
X174895Y8407D01*
X174990Y8337D01*
X175087Y8270D01*
X175187Y8206D01*
X175288Y8145D01*
X175391Y8088D01*
X175496Y8033D01*
X175603Y7983D01*
X175712Y7936D01*
X175822Y7893D01*
X175933Y7853D01*
X176045Y7817D01*
X176159Y7784D01*
X176274Y7755D01*
X176389Y7730D01*
X176506Y7709D01*
X176623Y7692D01*
X176740Y7678D01*
X176858Y7669D01*
X176976Y7663D01*
X177094Y7661D01*
X177094Y7660D02*
X186126Y7660D01*
X186126Y7661D02*
X186244Y7663D01*
X186362Y7669D01*
X186480Y7678D01*
X186597Y7692D01*
X186714Y7709D01*
X186831Y7730D01*
X186946Y7755D01*
X187061Y7784D01*
X187175Y7817D01*
X187287Y7853D01*
X187398Y7893D01*
X187508Y7936D01*
X187617Y7983D01*
X187724Y8033D01*
X187829Y8087D01*
X187932Y8145D01*
X188033Y8206D01*
X188133Y8270D01*
X188230Y8337D01*
X188325Y8407D01*
X188417Y8481D01*
X188508Y8557D01*
X188595Y8637D01*
X188680Y8719D01*
X188762Y8804D01*
X188842Y8891D01*
X188918Y8982D01*
X188992Y9074D01*
X189062Y9169D01*
X189129Y9266D01*
X189193Y9366D01*
X189254Y9467D01*
X189311Y9570D01*
X189365Y9675D01*
X189416Y9782D01*
X189463Y9891D01*
X189506Y10001D01*
X189546Y10112D01*
X189582Y10224D01*
X189615Y10338D01*
X189644Y10453D01*
X189669Y10568D01*
X189690Y10685D01*
X189707Y10802D01*
X189721Y10919D01*
X189730Y11037D01*
X189736Y11155D01*
X189738Y11273D01*
X189738Y16691D01*
X189738Y24334D02*
X173482Y24334D01*
X173482Y33365D02*
X189738Y24334D01*
X189738Y33365D02*
X173482Y33365D01*
X173482Y41007D02*
X189738Y41007D01*
X189738Y45522D01*
X189736Y45653D01*
X189730Y45785D01*
X189721Y45916D01*
X189707Y46046D01*
X189690Y46177D01*
X189669Y46306D01*
X189645Y46435D01*
X189616Y46563D01*
X189584Y46691D01*
X189548Y46817D01*
X189509Y46942D01*
X189466Y47067D01*
X189419Y47189D01*
X189369Y47311D01*
X189315Y47431D01*
X189258Y47549D01*
X189197Y47665D01*
X189133Y47780D01*
X189066Y47893D01*
X188995Y48004D01*
X188921Y48112D01*
X188844Y48219D01*
X188764Y48323D01*
X188681Y48425D01*
X188596Y48524D01*
X188507Y48621D01*
X188415Y48715D01*
X188321Y48807D01*
X188224Y48896D01*
X188125Y48981D01*
X188023Y49064D01*
X187919Y49144D01*
X187812Y49221D01*
X187704Y49295D01*
X187593Y49366D01*
X187480Y49433D01*
X187365Y49497D01*
X187249Y49558D01*
X187131Y49615D01*
X187011Y49669D01*
X186889Y49719D01*
X186767Y49766D01*
X186642Y49809D01*
X186517Y49848D01*
X186391Y49884D01*
X186263Y49916D01*
X186135Y49945D01*
X186006Y49969D01*
X185877Y49990D01*
X185746Y50007D01*
X185616Y50021D01*
X185485Y50030D01*
X185353Y50036D01*
X185222Y50038D01*
X177998Y50038D01*
X177867Y50036D01*
X177735Y50030D01*
X177604Y50021D01*
X177474Y50007D01*
X177343Y49990D01*
X177214Y49969D01*
X177085Y49945D01*
X176957Y49916D01*
X176829Y49884D01*
X176703Y49848D01*
X176578Y49809D01*
X176453Y49766D01*
X176331Y49719D01*
X176209Y49669D01*
X176089Y49615D01*
X175971Y49558D01*
X175855Y49497D01*
X175740Y49433D01*
X175627Y49366D01*
X175516Y49295D01*
X175408Y49221D01*
X175301Y49144D01*
X175197Y49064D01*
X175095Y48981D01*
X174996Y48896D01*
X174899Y48807D01*
X174805Y48715D01*
X174713Y48621D01*
X174624Y48524D01*
X174539Y48425D01*
X174456Y48323D01*
X174376Y48219D01*
X174299Y48112D01*
X174225Y48004D01*
X174154Y47893D01*
X174087Y47780D01*
X174023Y47665D01*
X173962Y47549D01*
X173905Y47431D01*
X173851Y47311D01*
X173801Y47189D01*
X173754Y47067D01*
X173711Y46942D01*
X173672Y46817D01*
X173636Y46691D01*
X173604Y46563D01*
X173575Y46435D01*
X173551Y46306D01*
X173530Y46177D01*
X173513Y46046D01*
X173499Y45916D01*
X173490Y45785D01*
X173484Y45653D01*
X173482Y45522D01*
X173482Y41007D01*
X198318Y10760D02*
X205542Y10760D01*
X205675Y10762D01*
X205807Y10768D01*
X205939Y10778D01*
X206071Y10791D01*
X206203Y10809D01*
X206333Y10830D01*
X206464Y10855D01*
X206593Y10884D01*
X206721Y10917D01*
X206849Y10953D01*
X206975Y10993D01*
X207100Y11037D01*
X207224Y11085D01*
X207346Y11136D01*
X207467Y11191D01*
X207586Y11249D01*
X207704Y11311D01*
X207819Y11376D01*
X207933Y11445D01*
X208044Y11516D01*
X208153Y11592D01*
X208260Y11670D01*
X208365Y11751D01*
X208467Y11836D01*
X208567Y11923D01*
X208664Y12013D01*
X208759Y12106D01*
X208850Y12202D01*
X208939Y12300D01*
X209025Y12401D01*
X209108Y12505D01*
X209188Y12611D01*
X209264Y12719D01*
X209338Y12829D01*
X209408Y12942D01*
X209475Y13056D01*
X209538Y13173D01*
X209598Y13291D01*
X209655Y13411D01*
X209708Y13533D01*
X209757Y13656D01*
X209803Y13780D01*
X209845Y13906D01*
X209883Y14033D01*
X209918Y14161D01*
X209949Y14290D01*
X209976Y14419D01*
X209999Y14550D01*
X210019Y14681D01*
X210034Y14813D01*
X210046Y14945D01*
X210054Y15077D01*
X210058Y15210D01*
X210058Y15342D01*
X210054Y15475D01*
X210046Y15607D01*
X210034Y15739D01*
X210019Y15871D01*
X209999Y16002D01*
X209976Y16133D01*
X209949Y16262D01*
X209918Y16391D01*
X209883Y16519D01*
X209845Y16646D01*
X209803Y16772D01*
X209757Y16896D01*
X209708Y17019D01*
X209655Y17141D01*
X209598Y17261D01*
X209538Y17379D01*
X209475Y17496D01*
X209408Y17610D01*
X209338Y17723D01*
X209264Y17833D01*
X209188Y17941D01*
X209108Y18047D01*
X209025Y18151D01*
X208939Y18252D01*
X208850Y18350D01*
X208759Y18446D01*
X208664Y18539D01*
X208567Y18629D01*
X208467Y18716D01*
X208365Y18801D01*
X208260Y18882D01*
X208153Y18960D01*
X208044Y19036D01*
X207933Y19107D01*
X207819Y19176D01*
X207704Y19241D01*
X207586Y19303D01*
X207467Y19361D01*
X207346Y19416D01*
X207224Y19467D01*
X207100Y19515D01*
X206975Y19559D01*
X206849Y19599D01*
X206721Y19635D01*
X206593Y19668D01*
X206464Y19697D01*
X206333Y19722D01*
X206203Y19743D01*
X206071Y19761D01*
X205939Y19774D01*
X205807Y19784D01*
X205675Y19790D01*
X205542Y19792D01*
X198318Y19792D01*
X198185Y19790D01*
X198053Y19784D01*
X197921Y19774D01*
X197789Y19761D01*
X197657Y19743D01*
X197527Y19722D01*
X197396Y19697D01*
X197267Y19668D01*
X197139Y19635D01*
X197011Y19599D01*
X196885Y19559D01*
X196760Y19515D01*
X196636Y19467D01*
X196514Y19416D01*
X196393Y19361D01*
X196274Y19303D01*
X196156Y19241D01*
X196041Y19176D01*
X195927Y19107D01*
X195816Y19036D01*
X195707Y18960D01*
X195600Y18882D01*
X195495Y18801D01*
X195393Y18716D01*
X195293Y18629D01*
X195196Y18539D01*
X195101Y18446D01*
X195010Y18350D01*
X194921Y18252D01*
X194835Y18151D01*
X194752Y18047D01*
X194672Y17941D01*
X194596Y17833D01*
X194522Y17723D01*
X194452Y17610D01*
X194385Y17496D01*
X194322Y17379D01*
X194262Y17261D01*
X194205Y17141D01*
X194152Y17019D01*
X194103Y16896D01*
X194057Y16772D01*
X194015Y16646D01*
X193977Y16519D01*
X193942Y16391D01*
X193911Y16262D01*
X193884Y16133D01*
X193861Y16002D01*
X193841Y15871D01*
X193826Y15739D01*
X193814Y15607D01*
X193806Y15475D01*
X193802Y15342D01*
X193802Y15210D01*
X193806Y15077D01*
X193814Y14945D01*
X193826Y14813D01*
X193841Y14681D01*
X193861Y14550D01*
X193884Y14419D01*
X193911Y14290D01*
X193942Y14161D01*
X193977Y14033D01*
X194015Y13906D01*
X194057Y13780D01*
X194103Y13656D01*
X194152Y13533D01*
X194205Y13411D01*
X194262Y13291D01*
X194322Y13173D01*
X194385Y13056D01*
X194452Y12942D01*
X194522Y12829D01*
X194596Y12719D01*
X194672Y12611D01*
X194752Y12505D01*
X194835Y12401D01*
X194921Y12300D01*
X195010Y12202D01*
X195101Y12106D01*
X195196Y12013D01*
X195293Y11923D01*
X195393Y11836D01*
X195495Y11751D01*
X195600Y11670D01*
X195707Y11592D01*
X195816Y11516D01*
X195927Y11445D01*
X196041Y11376D01*
X196156Y11311D01*
X196274Y11249D01*
X196393Y11191D01*
X196514Y11136D01*
X196636Y11085D01*
X196760Y11037D01*
X196885Y10993D01*
X197011Y10953D01*
X197139Y10917D01*
X197267Y10884D01*
X197396Y10855D01*
X197527Y10830D01*
X197657Y10809D01*
X197789Y10791D01*
X197921Y10778D01*
X198053Y10768D01*
X198185Y10762D01*
X198318Y10760D01*
X198318Y26913D02*
X210058Y26913D01*
X198318Y26912D02*
X198185Y26914D01*
X198053Y26920D01*
X197921Y26930D01*
X197789Y26943D01*
X197657Y26961D01*
X197527Y26982D01*
X197396Y27007D01*
X197267Y27036D01*
X197139Y27069D01*
X197011Y27105D01*
X196885Y27145D01*
X196760Y27189D01*
X196636Y27237D01*
X196514Y27288D01*
X196393Y27343D01*
X196274Y27401D01*
X196156Y27463D01*
X196041Y27528D01*
X195927Y27597D01*
X195816Y27668D01*
X195707Y27744D01*
X195600Y27822D01*
X195495Y27903D01*
X195393Y27988D01*
X195293Y28075D01*
X195196Y28165D01*
X195101Y28258D01*
X195010Y28354D01*
X194921Y28452D01*
X194835Y28553D01*
X194752Y28657D01*
X194672Y28763D01*
X194596Y28871D01*
X194522Y28981D01*
X194452Y29094D01*
X194385Y29208D01*
X194322Y29325D01*
X194262Y29443D01*
X194205Y29563D01*
X194152Y29685D01*
X194103Y29808D01*
X194057Y29932D01*
X194015Y30058D01*
X193977Y30185D01*
X193942Y30313D01*
X193911Y30442D01*
X193884Y30571D01*
X193861Y30702D01*
X193841Y30833D01*
X193826Y30965D01*
X193814Y31097D01*
X193806Y31229D01*
X193802Y31362D01*
X193802Y31494D01*
X193806Y31627D01*
X193814Y31759D01*
X193826Y31891D01*
X193841Y32023D01*
X193861Y32154D01*
X193884Y32285D01*
X193911Y32414D01*
X193942Y32543D01*
X193977Y32671D01*
X194015Y32798D01*
X194057Y32924D01*
X194103Y33048D01*
X194152Y33171D01*
X194205Y33293D01*
X194262Y33413D01*
X194322Y33531D01*
X194385Y33648D01*
X194452Y33762D01*
X194522Y33875D01*
X194596Y33985D01*
X194672Y34093D01*
X194752Y34199D01*
X194835Y34303D01*
X194921Y34404D01*
X195010Y34502D01*
X195101Y34598D01*
X195196Y34691D01*
X195293Y34781D01*
X195393Y34868D01*
X195495Y34953D01*
X195600Y35034D01*
X195707Y35112D01*
X195816Y35188D01*
X195927Y35259D01*
X196041Y35328D01*
X196156Y35393D01*
X196274Y35455D01*
X196393Y35513D01*
X196514Y35568D01*
X196636Y35619D01*
X196760Y35667D01*
X196885Y35711D01*
X197011Y35751D01*
X197139Y35787D01*
X197267Y35820D01*
X197396Y35849D01*
X197527Y35874D01*
X197657Y35895D01*
X197789Y35913D01*
X197921Y35926D01*
X198053Y35936D01*
X198185Y35942D01*
X198318Y35944D01*
X210058Y35944D01*
X210058Y46538D02*
X193802Y46538D01*
X210058Y42023D02*
X210058Y51054D01*
X212090Y226044D02*
X195834Y226044D01*
X195834Y224238D02*
X195834Y227851D01*
X212090Y227851D02*
X212090Y224238D01*
X212090Y234555D02*
X195834Y234555D01*
X195834Y243586D02*
X212090Y234555D01*
X212090Y243586D02*
X195834Y243586D01*
X236982Y73154D02*
X253238Y73154D01*
X253238Y77670D01*
X253236Y77803D01*
X253230Y77935D01*
X253220Y78067D01*
X253207Y78199D01*
X253189Y78331D01*
X253168Y78461D01*
X253143Y78592D01*
X253114Y78721D01*
X253081Y78849D01*
X253045Y78977D01*
X253005Y79103D01*
X252961Y79228D01*
X252913Y79352D01*
X252862Y79474D01*
X252807Y79595D01*
X252749Y79714D01*
X252687Y79832D01*
X252622Y79947D01*
X252553Y80061D01*
X252482Y80172D01*
X252406Y80281D01*
X252328Y80388D01*
X252247Y80493D01*
X252162Y80595D01*
X252075Y80695D01*
X251985Y80792D01*
X251892Y80887D01*
X251796Y80978D01*
X251698Y81067D01*
X251597Y81153D01*
X251493Y81236D01*
X251387Y81316D01*
X251279Y81392D01*
X251169Y81466D01*
X251056Y81536D01*
X250942Y81603D01*
X250825Y81666D01*
X250707Y81726D01*
X250587Y81783D01*
X250465Y81836D01*
X250342Y81885D01*
X250218Y81931D01*
X250092Y81973D01*
X249965Y82011D01*
X249837Y82046D01*
X249708Y82077D01*
X249579Y82104D01*
X249448Y82127D01*
X249317Y82147D01*
X249185Y82162D01*
X249053Y82174D01*
X248921Y82182D01*
X248788Y82186D01*
X248656Y82186D01*
X248523Y82182D01*
X248391Y82174D01*
X248259Y82162D01*
X248127Y82147D01*
X247996Y82127D01*
X247865Y82104D01*
X247736Y82077D01*
X247607Y82046D01*
X247479Y82011D01*
X247352Y81973D01*
X247226Y81931D01*
X247102Y81885D01*
X246979Y81836D01*
X246857Y81783D01*
X246737Y81726D01*
X246619Y81666D01*
X246502Y81603D01*
X246388Y81536D01*
X246275Y81466D01*
X246165Y81392D01*
X246057Y81316D01*
X245951Y81236D01*
X245847Y81153D01*
X245746Y81067D01*
X245648Y80978D01*
X245552Y80887D01*
X245459Y80792D01*
X245369Y80695D01*
X245282Y80595D01*
X245197Y80493D01*
X245116Y80388D01*
X245038Y80281D01*
X244962Y80172D01*
X244891Y80061D01*
X244822Y79947D01*
X244757Y79832D01*
X244695Y79714D01*
X244637Y79595D01*
X244582Y79474D01*
X244531Y79352D01*
X244483Y79228D01*
X244439Y79103D01*
X244399Y78977D01*
X244363Y78849D01*
X244330Y78721D01*
X244301Y78592D01*
X244276Y78461D01*
X244255Y78331D01*
X244237Y78199D01*
X244224Y78067D01*
X244214Y77935D01*
X244208Y77803D01*
X244206Y77670D01*
X244207Y77670D02*
X244207Y73154D01*
X244207Y78573D02*
X236982Y82185D01*
X246013Y95537D02*
X246013Y98246D01*
X236982Y98246D01*
X236982Y92827D01*
X236984Y92709D01*
X236990Y92591D01*
X236999Y92473D01*
X237013Y92356D01*
X237030Y92239D01*
X237051Y92122D01*
X237076Y92007D01*
X237105Y91892D01*
X237138Y91778D01*
X237174Y91666D01*
X237214Y91555D01*
X237257Y91445D01*
X237304Y91336D01*
X237354Y91229D01*
X237409Y91124D01*
X237466Y91021D01*
X237527Y90920D01*
X237591Y90820D01*
X237658Y90723D01*
X237728Y90628D01*
X237802Y90536D01*
X237878Y90445D01*
X237958Y90358D01*
X238040Y90273D01*
X238125Y90191D01*
X238212Y90111D01*
X238303Y90035D01*
X238395Y89961D01*
X238490Y89891D01*
X238587Y89824D01*
X238687Y89760D01*
X238788Y89699D01*
X238891Y89642D01*
X238996Y89587D01*
X239103Y89537D01*
X239212Y89490D01*
X239322Y89447D01*
X239433Y89407D01*
X239545Y89371D01*
X239659Y89338D01*
X239774Y89309D01*
X239889Y89284D01*
X240006Y89263D01*
X240123Y89246D01*
X240240Y89232D01*
X240358Y89223D01*
X240476Y89217D01*
X240594Y89215D01*
X249626Y89215D01*
X249744Y89217D01*
X249862Y89223D01*
X249980Y89232D01*
X250097Y89246D01*
X250214Y89263D01*
X250331Y89284D01*
X250446Y89309D01*
X250561Y89338D01*
X250675Y89371D01*
X250787Y89407D01*
X250898Y89447D01*
X251008Y89490D01*
X251117Y89537D01*
X251224Y89587D01*
X251329Y89641D01*
X251432Y89699D01*
X251533Y89760D01*
X251633Y89824D01*
X251730Y89891D01*
X251825Y89961D01*
X251917Y90035D01*
X252008Y90111D01*
X252095Y90191D01*
X252180Y90273D01*
X252262Y90358D01*
X252342Y90445D01*
X252418Y90536D01*
X252492Y90628D01*
X252562Y90723D01*
X252629Y90820D01*
X252693Y90920D01*
X252754Y91021D01*
X252811Y91124D01*
X252865Y91229D01*
X252916Y91336D01*
X252963Y91445D01*
X253006Y91555D01*
X253046Y91666D01*
X253082Y91778D01*
X253115Y91892D01*
X253144Y92007D01*
X253169Y92122D01*
X253190Y92239D01*
X253207Y92356D01*
X253221Y92473D01*
X253230Y92591D01*
X253236Y92709D01*
X253238Y92827D01*
X253238Y98246D01*
X246013Y106099D02*
X246013Y110615D01*
X246014Y110615D02*
X246012Y110748D01*
X246006Y110880D01*
X245996Y111012D01*
X245983Y111144D01*
X245965Y111276D01*
X245944Y111406D01*
X245919Y111537D01*
X245890Y111666D01*
X245857Y111794D01*
X245821Y111922D01*
X245781Y112048D01*
X245737Y112173D01*
X245689Y112297D01*
X245638Y112419D01*
X245583Y112540D01*
X245525Y112659D01*
X245463Y112777D01*
X245398Y112892D01*
X245329Y113006D01*
X245258Y113117D01*
X245182Y113226D01*
X245104Y113333D01*
X245023Y113438D01*
X244938Y113540D01*
X244851Y113640D01*
X244761Y113737D01*
X244668Y113832D01*
X244572Y113923D01*
X244474Y114012D01*
X244373Y114098D01*
X244269Y114181D01*
X244163Y114261D01*
X244055Y114337D01*
X243945Y114411D01*
X243832Y114481D01*
X243718Y114548D01*
X243601Y114611D01*
X243483Y114671D01*
X243363Y114728D01*
X243241Y114781D01*
X243118Y114830D01*
X242994Y114876D01*
X242868Y114918D01*
X242741Y114956D01*
X242613Y114991D01*
X242484Y115022D01*
X242355Y115049D01*
X242224Y115072D01*
X242093Y115092D01*
X241961Y115107D01*
X241829Y115119D01*
X241697Y115127D01*
X241564Y115131D01*
X241432Y115131D01*
X241299Y115127D01*
X241167Y115119D01*
X241035Y115107D01*
X240903Y115092D01*
X240772Y115072D01*
X240641Y115049D01*
X240512Y115022D01*
X240383Y114991D01*
X240255Y114956D01*
X240128Y114918D01*
X240002Y114876D01*
X239878Y114830D01*
X239755Y114781D01*
X239633Y114728D01*
X239513Y114671D01*
X239395Y114611D01*
X239278Y114548D01*
X239164Y114481D01*
X239051Y114411D01*
X238941Y114337D01*
X238833Y114261D01*
X238727Y114181D01*
X238623Y114098D01*
X238522Y114012D01*
X238424Y113923D01*
X238328Y113832D01*
X238235Y113737D01*
X238145Y113640D01*
X238058Y113540D01*
X237973Y113438D01*
X237892Y113333D01*
X237814Y113226D01*
X237738Y113117D01*
X237667Y113006D01*
X237598Y112892D01*
X237533Y112777D01*
X237471Y112659D01*
X237413Y112540D01*
X237358Y112419D01*
X237307Y112297D01*
X237259Y112173D01*
X237215Y112048D01*
X237175Y111922D01*
X237139Y111794D01*
X237106Y111666D01*
X237077Y111537D01*
X237052Y111406D01*
X237031Y111276D01*
X237013Y111144D01*
X237000Y111012D01*
X236990Y110880D01*
X236984Y110748D01*
X236982Y110615D01*
X236982Y106099D01*
X253238Y106099D01*
X253238Y110615D01*
X253236Y110734D01*
X253230Y110854D01*
X253220Y110973D01*
X253206Y111091D01*
X253189Y111210D01*
X253167Y111327D01*
X253142Y111444D01*
X253112Y111559D01*
X253079Y111674D01*
X253042Y111788D01*
X253002Y111900D01*
X252957Y112011D01*
X252909Y112120D01*
X252858Y112228D01*
X252803Y112334D01*
X252744Y112438D01*
X252682Y112540D01*
X252617Y112640D01*
X252548Y112738D01*
X252476Y112834D01*
X252401Y112927D01*
X252324Y113017D01*
X252243Y113105D01*
X252159Y113190D01*
X252072Y113272D01*
X251983Y113352D01*
X251891Y113428D01*
X251797Y113502D01*
X251700Y113572D01*
X251602Y113639D01*
X251501Y113703D01*
X251397Y113763D01*
X251292Y113820D01*
X251185Y113873D01*
X251077Y113923D01*
X250967Y113969D01*
X250855Y114011D01*
X250742Y114050D01*
X250628Y114085D01*
X250513Y114116D01*
X250396Y114144D01*
X250279Y114167D01*
X250162Y114187D01*
X250043Y114203D01*
X249924Y114215D01*
X249805Y114223D01*
X249686Y114227D01*
X249566Y114227D01*
X249447Y114223D01*
X249328Y114215D01*
X249209Y114203D01*
X249090Y114187D01*
X248973Y114167D01*
X248856Y114144D01*
X248739Y114116D01*
X248624Y114085D01*
X248510Y114050D01*
X248397Y114011D01*
X248285Y113969D01*
X248175Y113923D01*
X248067Y113873D01*
X247960Y113820D01*
X247855Y113763D01*
X247751Y113703D01*
X247650Y113639D01*
X247552Y113572D01*
X247455Y113502D01*
X247361Y113428D01*
X247269Y113352D01*
X247180Y113272D01*
X247093Y113190D01*
X247009Y113105D01*
X246928Y113017D01*
X246851Y112927D01*
X246776Y112834D01*
X246704Y112738D01*
X246635Y112640D01*
X246570Y112540D01*
X246508Y112438D01*
X246449Y112334D01*
X246394Y112228D01*
X246343Y112120D01*
X246295Y112011D01*
X246250Y111900D01*
X246210Y111788D01*
X246173Y111674D01*
X246140Y111559D01*
X246110Y111444D01*
X246085Y111327D01*
X246063Y111210D01*
X246046Y111091D01*
X246032Y110973D01*
X246022Y110854D01*
X246016Y110734D01*
X246014Y110615D01*
X253238Y129886D02*
X236982Y129886D01*
X236982Y137111D01*
X243304Y145831D02*
X243304Y149895D01*
X243304Y145831D02*
X243302Y145719D01*
X243296Y145608D01*
X243286Y145497D01*
X243273Y145386D01*
X243255Y145276D01*
X243233Y145167D01*
X243208Y145058D01*
X243179Y144950D01*
X243146Y144844D01*
X243109Y144738D01*
X243069Y144634D01*
X243025Y144532D01*
X242977Y144431D01*
X242926Y144332D01*
X242871Y144234D01*
X242813Y144139D01*
X242752Y144046D01*
X242687Y143955D01*
X242619Y143866D01*
X242548Y143780D01*
X242475Y143697D01*
X242398Y143616D01*
X242318Y143537D01*
X242236Y143462D01*
X242151Y143390D01*
X242064Y143320D01*
X241974Y143254D01*
X241882Y143191D01*
X241787Y143131D01*
X241691Y143075D01*
X241593Y143022D01*
X241493Y142973D01*
X241391Y142927D01*
X241288Y142885D01*
X241183Y142846D01*
X241077Y142811D01*
X240970Y142780D01*
X240862Y142753D01*
X240753Y142729D01*
X240643Y142710D01*
X240533Y142694D01*
X240422Y142682D01*
X240310Y142674D01*
X240199Y142670D01*
X240087Y142670D01*
X239976Y142674D01*
X239864Y142682D01*
X239753Y142694D01*
X239643Y142710D01*
X239533Y142729D01*
X239424Y142753D01*
X239316Y142780D01*
X239209Y142811D01*
X239103Y142846D01*
X238998Y142885D01*
X238895Y142927D01*
X238793Y142973D01*
X238693Y143022D01*
X238595Y143075D01*
X238499Y143131D01*
X238404Y143191D01*
X238312Y143254D01*
X238222Y143320D01*
X238135Y143390D01*
X238050Y143462D01*
X237968Y143537D01*
X237888Y143616D01*
X237811Y143697D01*
X237738Y143780D01*
X237667Y143866D01*
X237599Y143955D01*
X237534Y144046D01*
X237473Y144139D01*
X237415Y144234D01*
X237360Y144332D01*
X237309Y144431D01*
X237261Y144532D01*
X237217Y144634D01*
X237177Y144738D01*
X237140Y144844D01*
X237107Y144950D01*
X237078Y145058D01*
X237053Y145167D01*
X237031Y145276D01*
X237013Y145386D01*
X237000Y145497D01*
X236990Y145608D01*
X236984Y145719D01*
X236982Y145831D01*
X236982Y149895D01*
X245110Y149895D01*
X245110Y149894D02*
X245211Y149892D01*
X245312Y149886D01*
X245413Y149877D01*
X245514Y149864D01*
X245614Y149847D01*
X245713Y149826D01*
X245811Y149802D01*
X245908Y149774D01*
X246005Y149742D01*
X246100Y149707D01*
X246193Y149668D01*
X246285Y149626D01*
X246376Y149580D01*
X246465Y149531D01*
X246551Y149479D01*
X246636Y149423D01*
X246719Y149365D01*
X246799Y149303D01*
X246877Y149238D01*
X246953Y149171D01*
X247026Y149101D01*
X247096Y149028D01*
X247163Y148952D01*
X247228Y148874D01*
X247290Y148794D01*
X247348Y148711D01*
X247404Y148626D01*
X247456Y148540D01*
X247505Y148451D01*
X247551Y148360D01*
X247593Y148268D01*
X247632Y148175D01*
X247667Y148080D01*
X247699Y147983D01*
X247727Y147886D01*
X247751Y147788D01*
X247772Y147689D01*
X247789Y147589D01*
X247802Y147488D01*
X247811Y147387D01*
X247817Y147286D01*
X247819Y147185D01*
X247819Y143573D01*
X247819Y157610D02*
X236982Y157610D01*
X247819Y157610D02*
X247819Y165738D01*
X247817Y165839D01*
X247811Y165940D01*
X247802Y166041D01*
X247789Y166142D01*
X247772Y166242D01*
X247751Y166341D01*
X247727Y166439D01*
X247699Y166536D01*
X247667Y166633D01*
X247632Y166728D01*
X247593Y166821D01*
X247551Y166913D01*
X247505Y167004D01*
X247456Y167093D01*
X247404Y167179D01*
X247348Y167264D01*
X247290Y167347D01*
X247228Y167427D01*
X247163Y167505D01*
X247096Y167581D01*
X247026Y167654D01*
X246953Y167724D01*
X246877Y167791D01*
X246799Y167856D01*
X246719Y167918D01*
X246636Y167976D01*
X246551Y168032D01*
X246465Y168084D01*
X246376Y168133D01*
X246285Y168179D01*
X246193Y168221D01*
X246100Y168260D01*
X246005Y168295D01*
X245908Y168327D01*
X245811Y168355D01*
X245713Y168379D01*
X245614Y168400D01*
X245514Y168417D01*
X245413Y168430D01*
X245312Y168439D01*
X245211Y168445D01*
X245110Y168447D01*
X245110Y168448D02*
X236982Y168448D01*
X236982Y163029D02*
X247819Y163029D01*
X247819Y176163D02*
X231563Y176163D01*
X247819Y176163D02*
X247819Y180679D01*
X247817Y180780D01*
X247811Y180881D01*
X247802Y180982D01*
X247789Y181083D01*
X247772Y181183D01*
X247751Y181282D01*
X247727Y181380D01*
X247699Y181477D01*
X247667Y181574D01*
X247632Y181669D01*
X247593Y181762D01*
X247551Y181854D01*
X247505Y181945D01*
X247456Y182034D01*
X247404Y182120D01*
X247348Y182205D01*
X247290Y182288D01*
X247228Y182368D01*
X247163Y182446D01*
X247096Y182522D01*
X247026Y182595D01*
X246953Y182665D01*
X246877Y182732D01*
X246799Y182797D01*
X246719Y182859D01*
X246636Y182917D01*
X246551Y182973D01*
X246465Y183025D01*
X246376Y183074D01*
X246285Y183120D01*
X246193Y183162D01*
X246100Y183201D01*
X246005Y183236D01*
X245908Y183268D01*
X245811Y183296D01*
X245713Y183320D01*
X245614Y183341D01*
X245514Y183358D01*
X245413Y183371D01*
X245312Y183380D01*
X245211Y183386D01*
X245110Y183388D01*
X239691Y183388D01*
X239590Y183386D01*
X239489Y183380D01*
X239388Y183371D01*
X239287Y183358D01*
X239187Y183341D01*
X239088Y183320D01*
X238990Y183296D01*
X238893Y183268D01*
X238796Y183236D01*
X238701Y183201D01*
X238608Y183162D01*
X238516Y183120D01*
X238425Y183074D01*
X238337Y183025D01*
X238250Y182973D01*
X238165Y182917D01*
X238082Y182859D01*
X238002Y182797D01*
X237924Y182732D01*
X237848Y182665D01*
X237775Y182595D01*
X237705Y182522D01*
X237638Y182446D01*
X237573Y182368D01*
X237511Y182288D01*
X237453Y182205D01*
X237397Y182120D01*
X237345Y182034D01*
X237296Y181945D01*
X237250Y181854D01*
X237208Y181762D01*
X237169Y181669D01*
X237134Y181574D01*
X237102Y181477D01*
X237074Y181380D01*
X237050Y181282D01*
X237029Y181183D01*
X237012Y181083D01*
X236999Y180982D01*
X236990Y180881D01*
X236984Y180780D01*
X236982Y180679D01*
X236982Y176163D01*
X25654Y58115D02*
X17978Y63534D01*
X25654Y68952D01*
X17978Y63534D02*
X9398Y63534D01*
X15720Y77598D02*
X15720Y81662D01*
X15720Y77598D02*
X15718Y77486D01*
X15712Y77375D01*
X15702Y77264D01*
X15689Y77153D01*
X15671Y77043D01*
X15649Y76934D01*
X15624Y76825D01*
X15595Y76717D01*
X15562Y76611D01*
X15525Y76505D01*
X15485Y76401D01*
X15441Y76299D01*
X15393Y76198D01*
X15342Y76099D01*
X15287Y76001D01*
X15229Y75906D01*
X15168Y75813D01*
X15103Y75722D01*
X15035Y75633D01*
X14964Y75547D01*
X14891Y75464D01*
X14814Y75383D01*
X14734Y75304D01*
X14652Y75229D01*
X14567Y75157D01*
X14480Y75087D01*
X14390Y75021D01*
X14298Y74958D01*
X14203Y74898D01*
X14107Y74842D01*
X14009Y74789D01*
X13909Y74740D01*
X13807Y74694D01*
X13704Y74652D01*
X13599Y74613D01*
X13493Y74578D01*
X13386Y74547D01*
X13278Y74520D01*
X13169Y74496D01*
X13059Y74477D01*
X12949Y74461D01*
X12838Y74449D01*
X12726Y74441D01*
X12615Y74437D01*
X12503Y74437D01*
X12392Y74441D01*
X12280Y74449D01*
X12169Y74461D01*
X12059Y74477D01*
X11949Y74496D01*
X11840Y74520D01*
X11732Y74547D01*
X11625Y74578D01*
X11519Y74613D01*
X11414Y74652D01*
X11311Y74694D01*
X11209Y74740D01*
X11109Y74789D01*
X11011Y74842D01*
X10915Y74898D01*
X10820Y74958D01*
X10728Y75021D01*
X10638Y75087D01*
X10551Y75157D01*
X10466Y75229D01*
X10384Y75304D01*
X10304Y75383D01*
X10227Y75464D01*
X10154Y75547D01*
X10083Y75633D01*
X10015Y75722D01*
X9950Y75813D01*
X9889Y75906D01*
X9831Y76001D01*
X9776Y76099D01*
X9725Y76198D01*
X9677Y76299D01*
X9633Y76401D01*
X9593Y76505D01*
X9556Y76611D01*
X9523Y76717D01*
X9494Y76825D01*
X9469Y76934D01*
X9447Y77043D01*
X9429Y77153D01*
X9416Y77264D01*
X9406Y77375D01*
X9400Y77486D01*
X9398Y77598D01*
X9398Y81662D01*
X17526Y81662D01*
X17627Y81660D01*
X17728Y81654D01*
X17829Y81645D01*
X17930Y81632D01*
X18030Y81615D01*
X18129Y81594D01*
X18227Y81570D01*
X18324Y81542D01*
X18421Y81510D01*
X18516Y81475D01*
X18609Y81436D01*
X18701Y81394D01*
X18792Y81348D01*
X18881Y81299D01*
X18967Y81247D01*
X19052Y81191D01*
X19135Y81133D01*
X19215Y81071D01*
X19293Y81006D01*
X19369Y80939D01*
X19442Y80869D01*
X19512Y80796D01*
X19579Y80720D01*
X19644Y80642D01*
X19706Y80562D01*
X19764Y80479D01*
X19820Y80394D01*
X19872Y80308D01*
X19921Y80219D01*
X19967Y80128D01*
X20009Y80036D01*
X20048Y79943D01*
X20083Y79848D01*
X20115Y79751D01*
X20143Y79654D01*
X20167Y79556D01*
X20188Y79457D01*
X20205Y79357D01*
X20218Y79256D01*
X20227Y79155D01*
X20233Y79054D01*
X20235Y78953D01*
X20235Y75340D01*
X20235Y89173D02*
X3979Y89173D01*
X20235Y89173D02*
X20235Y93688D01*
X20233Y93789D01*
X20227Y93890D01*
X20218Y93991D01*
X20205Y94092D01*
X20188Y94192D01*
X20167Y94291D01*
X20143Y94389D01*
X20115Y94486D01*
X20083Y94583D01*
X20048Y94678D01*
X20009Y94771D01*
X19967Y94863D01*
X19921Y94954D01*
X19872Y95043D01*
X19820Y95129D01*
X19764Y95214D01*
X19706Y95297D01*
X19644Y95377D01*
X19579Y95455D01*
X19512Y95531D01*
X19442Y95604D01*
X19369Y95674D01*
X19293Y95741D01*
X19215Y95806D01*
X19135Y95868D01*
X19052Y95926D01*
X18967Y95982D01*
X18881Y96034D01*
X18792Y96083D01*
X18701Y96129D01*
X18609Y96171D01*
X18516Y96210D01*
X18421Y96245D01*
X18324Y96277D01*
X18227Y96305D01*
X18129Y96329D01*
X18030Y96350D01*
X17930Y96367D01*
X17829Y96380D01*
X17728Y96389D01*
X17627Y96395D01*
X17526Y96397D01*
X17526Y96398D02*
X12107Y96398D01*
X12107Y96397D02*
X12006Y96395D01*
X11905Y96389D01*
X11804Y96380D01*
X11703Y96367D01*
X11603Y96350D01*
X11504Y96329D01*
X11406Y96305D01*
X11309Y96277D01*
X11212Y96245D01*
X11117Y96210D01*
X11024Y96171D01*
X10932Y96129D01*
X10841Y96083D01*
X10753Y96034D01*
X10666Y95982D01*
X10581Y95926D01*
X10498Y95868D01*
X10418Y95806D01*
X10340Y95741D01*
X10264Y95674D01*
X10191Y95604D01*
X10121Y95531D01*
X10054Y95455D01*
X9989Y95377D01*
X9927Y95297D01*
X9869Y95214D01*
X9813Y95129D01*
X9761Y95043D01*
X9712Y94954D01*
X9666Y94863D01*
X9624Y94771D01*
X9585Y94678D01*
X9550Y94583D01*
X9518Y94486D01*
X9490Y94389D01*
X9466Y94291D01*
X9445Y94192D01*
X9428Y94092D01*
X9415Y93991D01*
X9406Y93890D01*
X9400Y93789D01*
X9398Y93688D01*
X9398Y89173D01*
X13010Y102647D02*
X16623Y102647D01*
X16742Y102649D01*
X16862Y102655D01*
X16981Y102665D01*
X17099Y102679D01*
X17218Y102696D01*
X17335Y102718D01*
X17452Y102743D01*
X17567Y102773D01*
X17682Y102806D01*
X17796Y102843D01*
X17908Y102883D01*
X18019Y102928D01*
X18128Y102976D01*
X18236Y103027D01*
X18342Y103082D01*
X18446Y103141D01*
X18548Y103203D01*
X18648Y103268D01*
X18746Y103337D01*
X18842Y103409D01*
X18935Y103484D01*
X19025Y103561D01*
X19113Y103642D01*
X19198Y103726D01*
X19280Y103813D01*
X19360Y103902D01*
X19436Y103994D01*
X19510Y104088D01*
X19580Y104185D01*
X19647Y104283D01*
X19711Y104384D01*
X19771Y104488D01*
X19828Y104593D01*
X19881Y104700D01*
X19931Y104808D01*
X19977Y104918D01*
X20019Y105030D01*
X20058Y105143D01*
X20093Y105257D01*
X20124Y105372D01*
X20152Y105489D01*
X20175Y105606D01*
X20195Y105723D01*
X20211Y105842D01*
X20223Y105961D01*
X20231Y106080D01*
X20235Y106199D01*
X20235Y106319D01*
X20231Y106438D01*
X20223Y106557D01*
X20211Y106676D01*
X20195Y106795D01*
X20175Y106912D01*
X20152Y107029D01*
X20124Y107146D01*
X20093Y107261D01*
X20058Y107375D01*
X20019Y107488D01*
X19977Y107600D01*
X19931Y107710D01*
X19881Y107818D01*
X19828Y107925D01*
X19771Y108030D01*
X19711Y108134D01*
X19647Y108235D01*
X19580Y108333D01*
X19510Y108430D01*
X19436Y108524D01*
X19360Y108616D01*
X19280Y108705D01*
X19198Y108792D01*
X19113Y108876D01*
X19025Y108957D01*
X18935Y109034D01*
X18842Y109109D01*
X18746Y109181D01*
X18648Y109250D01*
X18548Y109315D01*
X18446Y109377D01*
X18342Y109436D01*
X18236Y109491D01*
X18128Y109542D01*
X18019Y109590D01*
X17908Y109635D01*
X17796Y109675D01*
X17682Y109712D01*
X17567Y109745D01*
X17452Y109775D01*
X17335Y109800D01*
X17218Y109822D01*
X17099Y109839D01*
X16981Y109853D01*
X16862Y109863D01*
X16742Y109869D01*
X16623Y109871D01*
X13010Y109871D01*
X12891Y109869D01*
X12771Y109863D01*
X12652Y109853D01*
X12534Y109839D01*
X12415Y109822D01*
X12298Y109800D01*
X12181Y109775D01*
X12066Y109745D01*
X11951Y109712D01*
X11837Y109675D01*
X11725Y109635D01*
X11614Y109590D01*
X11505Y109542D01*
X11397Y109491D01*
X11291Y109436D01*
X11187Y109377D01*
X11085Y109315D01*
X10985Y109250D01*
X10887Y109181D01*
X10791Y109109D01*
X10698Y109034D01*
X10608Y108957D01*
X10520Y108876D01*
X10435Y108792D01*
X10353Y108705D01*
X10273Y108616D01*
X10197Y108524D01*
X10123Y108430D01*
X10053Y108333D01*
X9986Y108235D01*
X9922Y108134D01*
X9862Y108030D01*
X9805Y107925D01*
X9752Y107818D01*
X9702Y107710D01*
X9656Y107600D01*
X9614Y107488D01*
X9575Y107375D01*
X9540Y107261D01*
X9509Y107146D01*
X9481Y107029D01*
X9458Y106912D01*
X9438Y106795D01*
X9422Y106676D01*
X9410Y106557D01*
X9402Y106438D01*
X9398Y106319D01*
X9398Y106199D01*
X9402Y106080D01*
X9410Y105961D01*
X9422Y105842D01*
X9438Y105723D01*
X9458Y105606D01*
X9481Y105489D01*
X9509Y105372D01*
X9540Y105257D01*
X9575Y105143D01*
X9614Y105030D01*
X9656Y104918D01*
X9702Y104808D01*
X9752Y104700D01*
X9805Y104593D01*
X9862Y104488D01*
X9922Y104384D01*
X9986Y104283D01*
X10053Y104185D01*
X10123Y104088D01*
X10197Y103994D01*
X10273Y103902D01*
X10353Y103813D01*
X10435Y103726D01*
X10520Y103642D01*
X10608Y103561D01*
X10698Y103484D01*
X10791Y103409D01*
X10887Y103337D01*
X10985Y103268D01*
X11085Y103203D01*
X11187Y103141D01*
X11291Y103082D01*
X11397Y103027D01*
X11505Y102976D01*
X11614Y102928D01*
X11725Y102883D01*
X11837Y102843D01*
X11951Y102806D01*
X12066Y102773D01*
X12181Y102743D01*
X12298Y102718D01*
X12415Y102696D01*
X12534Y102679D01*
X12652Y102665D01*
X12771Y102655D01*
X12891Y102649D01*
X13010Y102647D01*
X25654Y129636D02*
X25652Y129761D01*
X25646Y129886D01*
X25637Y130011D01*
X25623Y130135D01*
X25606Y130259D01*
X25585Y130383D01*
X25560Y130505D01*
X25531Y130627D01*
X25499Y130748D01*
X25463Y130868D01*
X25423Y130987D01*
X25380Y131104D01*
X25333Y131220D01*
X25282Y131335D01*
X25228Y131447D01*
X25170Y131559D01*
X25110Y131668D01*
X25045Y131775D01*
X24978Y131881D01*
X24907Y131984D01*
X24833Y132085D01*
X24756Y132184D01*
X24676Y132280D01*
X24593Y132374D01*
X24508Y132465D01*
X24419Y132554D01*
X24328Y132639D01*
X24234Y132722D01*
X24138Y132802D01*
X24039Y132879D01*
X23938Y132953D01*
X23835Y133024D01*
X23729Y133091D01*
X23622Y133156D01*
X23513Y133216D01*
X23401Y133274D01*
X23289Y133328D01*
X23174Y133379D01*
X23058Y133426D01*
X22941Y133469D01*
X22822Y133509D01*
X22702Y133545D01*
X22581Y133577D01*
X22459Y133606D01*
X22337Y133631D01*
X22213Y133652D01*
X22089Y133669D01*
X21965Y133683D01*
X21840Y133692D01*
X21715Y133698D01*
X21590Y133700D01*
X25654Y129636D02*
X25652Y129493D01*
X25646Y129351D01*
X25636Y129208D01*
X25623Y129066D01*
X25605Y128925D01*
X25584Y128783D01*
X25559Y128643D01*
X25530Y128503D01*
X25497Y128364D01*
X25460Y128226D01*
X25420Y128089D01*
X25376Y127954D01*
X25328Y127819D01*
X25276Y127686D01*
X25221Y127554D01*
X25162Y127424D01*
X25100Y127296D01*
X25034Y127169D01*
X24965Y127044D01*
X24893Y126921D01*
X24817Y126801D01*
X24738Y126682D01*
X24655Y126565D01*
X24570Y126451D01*
X24481Y126339D01*
X24390Y126230D01*
X24295Y126123D01*
X24198Y126018D01*
X24097Y125917D01*
X23994Y125818D01*
X23889Y125722D01*
X23780Y125629D01*
X23669Y125539D01*
X23556Y125452D01*
X23441Y125368D01*
X23323Y125288D01*
X23203Y125210D01*
X23081Y125136D01*
X22957Y125066D01*
X22831Y124998D01*
X22703Y124935D01*
X22574Y124874D01*
X22443Y124817D01*
X22311Y124764D01*
X22177Y124715D01*
X22042Y124669D01*
X18429Y132345D02*
X18521Y132439D01*
X18615Y132529D01*
X18712Y132617D01*
X18812Y132702D01*
X18914Y132784D01*
X19019Y132863D01*
X19126Y132938D01*
X19235Y133010D01*
X19346Y133079D01*
X19460Y133145D01*
X19575Y133207D01*
X19692Y133266D01*
X19811Y133321D01*
X19931Y133372D01*
X20053Y133420D01*
X20176Y133465D01*
X20300Y133505D01*
X20426Y133542D01*
X20553Y133575D01*
X20680Y133604D01*
X20809Y133630D01*
X20938Y133651D01*
X21068Y133669D01*
X21198Y133682D01*
X21328Y133692D01*
X21459Y133698D01*
X21590Y133700D01*
X18429Y132346D02*
X9398Y124669D01*
X9398Y133700D01*
X17526Y140301D02*
X17846Y140305D01*
X18165Y140316D01*
X18485Y140335D01*
X18803Y140362D01*
X19121Y140396D01*
X19438Y140438D01*
X19754Y140488D01*
X20069Y140545D01*
X20382Y140609D01*
X20694Y140681D01*
X21004Y140760D01*
X21311Y140847D01*
X21617Y140941D01*
X21920Y141042D01*
X22221Y141151D01*
X22519Y141266D01*
X22815Y141389D01*
X23107Y141519D01*
X23396Y141656D01*
X23397Y141655D02*
X23505Y141694D01*
X23612Y141737D01*
X23717Y141783D01*
X23821Y141834D01*
X23923Y141887D01*
X24023Y141944D01*
X24121Y142005D01*
X24216Y142069D01*
X24310Y142136D01*
X24401Y142207D01*
X24490Y142280D01*
X24576Y142357D01*
X24659Y142436D01*
X24740Y142518D01*
X24818Y142603D01*
X24892Y142691D01*
X24964Y142781D01*
X25032Y142873D01*
X25098Y142968D01*
X25160Y143065D01*
X25218Y143164D01*
X25274Y143266D01*
X25325Y143368D01*
X25373Y143473D01*
X25418Y143579D01*
X25459Y143687D01*
X25496Y143796D01*
X25529Y143906D01*
X25558Y144018D01*
X25584Y144130D01*
X25606Y144243D01*
X25623Y144357D01*
X25637Y144471D01*
X25647Y144586D01*
X25653Y144701D01*
X25655Y144816D01*
X25654Y144816D02*
X25652Y144931D01*
X25646Y145046D01*
X25636Y145161D01*
X25622Y145275D01*
X25605Y145389D01*
X25583Y145502D01*
X25557Y145614D01*
X25528Y145726D01*
X25495Y145836D01*
X25458Y145945D01*
X25417Y146053D01*
X25372Y146159D01*
X25324Y146264D01*
X25273Y146366D01*
X25217Y146467D01*
X25159Y146567D01*
X25097Y146664D01*
X25032Y146758D01*
X24963Y146851D01*
X24891Y146941D01*
X24817Y147029D01*
X24739Y147114D01*
X24658Y147196D01*
X24575Y147275D01*
X24489Y147352D01*
X24400Y147425D01*
X24309Y147496D01*
X24215Y147563D01*
X24120Y147627D01*
X24022Y147688D01*
X23922Y147745D01*
X23820Y147798D01*
X23716Y147849D01*
X23611Y147895D01*
X23504Y147938D01*
X23396Y147977D01*
X23396Y147976D02*
X23107Y148113D01*
X22815Y148243D01*
X22519Y148366D01*
X22221Y148481D01*
X21920Y148590D01*
X21617Y148691D01*
X21311Y148785D01*
X21004Y148872D01*
X20694Y148951D01*
X20382Y149023D01*
X20069Y149087D01*
X19754Y149144D01*
X19438Y149194D01*
X19121Y149236D01*
X18803Y149270D01*
X18485Y149297D01*
X18165Y149316D01*
X17846Y149327D01*
X17526Y149331D01*
X17526Y140301D02*
X17206Y140305D01*
X16887Y140316D01*
X16567Y140335D01*
X16249Y140362D01*
X15931Y140396D01*
X15614Y140438D01*
X15298Y140488D01*
X14983Y140545D01*
X14670Y140609D01*
X14358Y140681D01*
X14048Y140760D01*
X13741Y140847D01*
X13435Y140941D01*
X13132Y141042D01*
X12831Y141151D01*
X12533Y141266D01*
X12237Y141389D01*
X11945Y141519D01*
X11656Y141656D01*
X11656Y141655D02*
X11548Y141694D01*
X11441Y141737D01*
X11336Y141783D01*
X11232Y141834D01*
X11130Y141887D01*
X11030Y141944D01*
X10932Y142005D01*
X10837Y142069D01*
X10743Y142136D01*
X10652Y142207D01*
X10563Y142280D01*
X10477Y142357D01*
X10394Y142436D01*
X10313Y142518D01*
X10235Y142603D01*
X10161Y142691D01*
X10089Y142781D01*
X10020Y142874D01*
X9955Y142968D01*
X9893Y143065D01*
X9835Y143165D01*
X9779Y143266D01*
X9728Y143368D01*
X9680Y143473D01*
X9635Y143579D01*
X9594Y143687D01*
X9557Y143796D01*
X9524Y143906D01*
X9495Y144018D01*
X9469Y144130D01*
X9447Y144243D01*
X9430Y144357D01*
X9416Y144471D01*
X9406Y144586D01*
X9400Y144701D01*
X9398Y144816D01*
X11656Y147976D02*
X11945Y148113D01*
X12237Y148243D01*
X12533Y148366D01*
X12831Y148481D01*
X13132Y148590D01*
X13435Y148691D01*
X13741Y148785D01*
X14048Y148872D01*
X14358Y148951D01*
X14670Y149023D01*
X14983Y149087D01*
X15298Y149144D01*
X15614Y149194D01*
X15931Y149236D01*
X16249Y149270D01*
X16567Y149297D01*
X16887Y149316D01*
X17206Y149327D01*
X17526Y149331D01*
X11656Y147977D02*
X11548Y147938D01*
X11441Y147895D01*
X11336Y147849D01*
X11232Y147798D01*
X11130Y147745D01*
X11030Y147688D01*
X10932Y147627D01*
X10837Y147563D01*
X10743Y147496D01*
X10652Y147425D01*
X10563Y147352D01*
X10477Y147275D01*
X10394Y147196D01*
X10313Y147114D01*
X10235Y147029D01*
X10161Y146941D01*
X10089Y146851D01*
X10020Y146758D01*
X9955Y146664D01*
X9893Y146567D01*
X9835Y146467D01*
X9779Y146366D01*
X9728Y146263D01*
X9680Y146159D01*
X9635Y146053D01*
X9594Y145945D01*
X9557Y145836D01*
X9524Y145726D01*
X9495Y145614D01*
X9469Y145502D01*
X9447Y145389D01*
X9430Y145275D01*
X9416Y145161D01*
X9406Y145046D01*
X9400Y144931D01*
X9398Y144816D01*
X13010Y141204D02*
X22042Y148428D01*
X25654Y160899D02*
X25652Y161024D01*
X25646Y161149D01*
X25637Y161274D01*
X25623Y161398D01*
X25606Y161522D01*
X25585Y161646D01*
X25560Y161768D01*
X25531Y161890D01*
X25499Y162011D01*
X25463Y162131D01*
X25423Y162250D01*
X25380Y162367D01*
X25333Y162483D01*
X25282Y162598D01*
X25228Y162710D01*
X25170Y162822D01*
X25110Y162931D01*
X25045Y163038D01*
X24978Y163144D01*
X24907Y163247D01*
X24833Y163348D01*
X24756Y163447D01*
X24676Y163543D01*
X24593Y163637D01*
X24508Y163728D01*
X24419Y163817D01*
X24328Y163902D01*
X24234Y163985D01*
X24138Y164065D01*
X24039Y164142D01*
X23938Y164216D01*
X23835Y164287D01*
X23729Y164354D01*
X23622Y164419D01*
X23513Y164479D01*
X23401Y164537D01*
X23289Y164591D01*
X23174Y164642D01*
X23058Y164689D01*
X22941Y164732D01*
X22822Y164772D01*
X22702Y164808D01*
X22581Y164840D01*
X22459Y164869D01*
X22337Y164894D01*
X22213Y164915D01*
X22089Y164932D01*
X21965Y164946D01*
X21840Y164955D01*
X21715Y164961D01*
X21590Y164963D01*
X25654Y160899D02*
X25652Y160756D01*
X25646Y160614D01*
X25636Y160471D01*
X25623Y160329D01*
X25605Y160188D01*
X25584Y160046D01*
X25559Y159906D01*
X25530Y159766D01*
X25497Y159627D01*
X25460Y159489D01*
X25420Y159352D01*
X25376Y159217D01*
X25328Y159082D01*
X25276Y158949D01*
X25221Y158817D01*
X25162Y158687D01*
X25100Y158559D01*
X25034Y158432D01*
X24965Y158307D01*
X24893Y158184D01*
X24817Y158064D01*
X24738Y157945D01*
X24655Y157828D01*
X24570Y157714D01*
X24481Y157602D01*
X24390Y157493D01*
X24295Y157386D01*
X24198Y157281D01*
X24097Y157180D01*
X23994Y157081D01*
X23889Y156985D01*
X23780Y156892D01*
X23669Y156802D01*
X23556Y156715D01*
X23441Y156631D01*
X23323Y156551D01*
X23203Y156473D01*
X23081Y156399D01*
X22957Y156329D01*
X22831Y156261D01*
X22703Y156198D01*
X22574Y156137D01*
X22443Y156080D01*
X22311Y156027D01*
X22177Y155978D01*
X22042Y155932D01*
X18429Y163608D02*
X18521Y163702D01*
X18615Y163792D01*
X18712Y163880D01*
X18812Y163965D01*
X18914Y164047D01*
X19019Y164126D01*
X19126Y164201D01*
X19235Y164273D01*
X19346Y164342D01*
X19460Y164408D01*
X19575Y164470D01*
X19692Y164529D01*
X19811Y164584D01*
X19931Y164635D01*
X20053Y164683D01*
X20176Y164728D01*
X20300Y164768D01*
X20426Y164805D01*
X20553Y164838D01*
X20680Y164867D01*
X20809Y164893D01*
X20938Y164914D01*
X21068Y164932D01*
X21198Y164945D01*
X21328Y164955D01*
X21459Y164961D01*
X21590Y164963D01*
X18429Y163608D02*
X9398Y155932D01*
X9398Y164963D01*
X17526Y171563D02*
X17846Y171567D01*
X18165Y171578D01*
X18485Y171597D01*
X18803Y171624D01*
X19121Y171658D01*
X19438Y171700D01*
X19754Y171750D01*
X20069Y171807D01*
X20382Y171871D01*
X20694Y171943D01*
X21004Y172022D01*
X21311Y172109D01*
X21617Y172203D01*
X21920Y172304D01*
X22221Y172413D01*
X22519Y172528D01*
X22815Y172651D01*
X23107Y172781D01*
X23396Y172918D01*
X23397Y172917D02*
X23505Y172956D01*
X23612Y172999D01*
X23717Y173045D01*
X23821Y173096D01*
X23923Y173149D01*
X24023Y173206D01*
X24121Y173267D01*
X24216Y173331D01*
X24310Y173398D01*
X24401Y173469D01*
X24490Y173542D01*
X24576Y173619D01*
X24659Y173698D01*
X24740Y173780D01*
X24818Y173865D01*
X24892Y173953D01*
X24964Y174043D01*
X25032Y174135D01*
X25098Y174230D01*
X25160Y174327D01*
X25218Y174426D01*
X25274Y174528D01*
X25325Y174630D01*
X25373Y174735D01*
X25418Y174841D01*
X25459Y174949D01*
X25496Y175058D01*
X25529Y175168D01*
X25558Y175280D01*
X25584Y175392D01*
X25606Y175505D01*
X25623Y175619D01*
X25637Y175733D01*
X25647Y175848D01*
X25653Y175963D01*
X25655Y176078D01*
X25654Y176078D02*
X25652Y176193D01*
X25646Y176308D01*
X25636Y176423D01*
X25622Y176537D01*
X25605Y176651D01*
X25583Y176764D01*
X25557Y176876D01*
X25528Y176988D01*
X25495Y177098D01*
X25458Y177207D01*
X25417Y177315D01*
X25372Y177421D01*
X25324Y177526D01*
X25273Y177628D01*
X25217Y177729D01*
X25159Y177829D01*
X25097Y177926D01*
X25032Y178020D01*
X24963Y178113D01*
X24891Y178203D01*
X24817Y178291D01*
X24739Y178376D01*
X24658Y178458D01*
X24575Y178537D01*
X24489Y178614D01*
X24400Y178687D01*
X24309Y178758D01*
X24215Y178825D01*
X24120Y178889D01*
X24022Y178950D01*
X23922Y179007D01*
X23820Y179060D01*
X23716Y179111D01*
X23611Y179157D01*
X23504Y179200D01*
X23396Y179239D01*
X23107Y179376D01*
X22815Y179506D01*
X22519Y179629D01*
X22221Y179744D01*
X21920Y179853D01*
X21617Y179954D01*
X21311Y180048D01*
X21004Y180135D01*
X20694Y180214D01*
X20382Y180286D01*
X20069Y180350D01*
X19754Y180407D01*
X19438Y180457D01*
X19121Y180499D01*
X18803Y180533D01*
X18485Y180560D01*
X18165Y180579D01*
X17846Y180590D01*
X17526Y180594D01*
X17526Y171563D02*
X17206Y171567D01*
X16887Y171578D01*
X16567Y171597D01*
X16249Y171624D01*
X15931Y171658D01*
X15614Y171700D01*
X15298Y171750D01*
X14983Y171807D01*
X14670Y171871D01*
X14358Y171943D01*
X14048Y172022D01*
X13741Y172109D01*
X13435Y172203D01*
X13132Y172304D01*
X12831Y172413D01*
X12533Y172528D01*
X12237Y172651D01*
X11945Y172781D01*
X11656Y172918D01*
X11656Y172917D02*
X11548Y172956D01*
X11441Y172999D01*
X11336Y173045D01*
X11232Y173096D01*
X11130Y173149D01*
X11030Y173206D01*
X10932Y173267D01*
X10837Y173331D01*
X10743Y173398D01*
X10652Y173469D01*
X10563Y173542D01*
X10477Y173619D01*
X10394Y173698D01*
X10313Y173780D01*
X10235Y173865D01*
X10161Y173953D01*
X10089Y174043D01*
X10020Y174136D01*
X9955Y174230D01*
X9893Y174327D01*
X9835Y174427D01*
X9779Y174528D01*
X9728Y174630D01*
X9680Y174735D01*
X9635Y174841D01*
X9594Y174949D01*
X9557Y175058D01*
X9524Y175168D01*
X9495Y175280D01*
X9469Y175392D01*
X9447Y175505D01*
X9430Y175619D01*
X9416Y175733D01*
X9406Y175848D01*
X9400Y175963D01*
X9398Y176078D01*
X11656Y179239D02*
X11945Y179376D01*
X12237Y179506D01*
X12533Y179629D01*
X12831Y179744D01*
X13132Y179853D01*
X13435Y179954D01*
X13741Y180048D01*
X14048Y180135D01*
X14358Y180214D01*
X14670Y180286D01*
X14983Y180350D01*
X15298Y180407D01*
X15614Y180457D01*
X15931Y180499D01*
X16249Y180533D01*
X16567Y180560D01*
X16887Y180579D01*
X17206Y180590D01*
X17526Y180594D01*
X11656Y179239D02*
X11548Y179200D01*
X11441Y179157D01*
X11336Y179111D01*
X11232Y179060D01*
X11130Y179007D01*
X11030Y178950D01*
X10932Y178889D01*
X10837Y178825D01*
X10743Y178758D01*
X10652Y178687D01*
X10563Y178614D01*
X10477Y178537D01*
X10394Y178458D01*
X10313Y178376D01*
X10235Y178291D01*
X10161Y178203D01*
X10089Y178113D01*
X10020Y178020D01*
X9955Y177926D01*
X9893Y177829D01*
X9835Y177729D01*
X9779Y177628D01*
X9728Y177525D01*
X9680Y177421D01*
X9635Y177315D01*
X9594Y177207D01*
X9557Y177098D01*
X9524Y176988D01*
X9495Y176876D01*
X9469Y176764D01*
X9447Y176651D01*
X9430Y176537D01*
X9416Y176423D01*
X9406Y176308D01*
X9400Y176193D01*
X9398Y176078D01*
X13010Y172466D02*
X22042Y179691D01*
D11*
X97028Y113284D02*
X97028Y112014D01*
X97028Y113284D02*
X97028Y120904D01*
X97028Y124714D01*
X97028Y132334D01*
X97028Y147574D01*
X168148Y112776D02*
X168148Y112014D01*
X168148Y112776D02*
X168148Y124460D01*
X168148Y144526D01*
X168148Y147574D01*
X168148Y112014D02*
X167705Y111154D01*
X167241Y110305D01*
X166756Y109468D01*
X166252Y108643D01*
X165727Y107830D01*
X165183Y107030D01*
X164619Y106244D01*
X164037Y105471D01*
X163436Y104713D01*
X162816Y103970D01*
X162179Y103242D01*
X161524Y102530D01*
X160852Y101834D01*
X160164Y101155D01*
X159459Y100493D01*
X158738Y99847D01*
X158002Y99220D01*
X157250Y98611D01*
X156484Y98020D01*
X155704Y97448D01*
X154910Y96895D01*
X154103Y96362D01*
X153283Y95848D01*
X152451Y95355D01*
X151608Y94882D01*
X150752Y94429D01*
X149887Y93998D01*
X149011Y93587D01*
X148125Y93199D01*
X147230Y92831D01*
X146326Y92486D01*
X145414Y92163D01*
X144495Y91862D01*
X143569Y91583D01*
X142636Y91328D01*
X141697Y91095D01*
X140752Y90884D01*
X139803Y90697D01*
X138850Y90533D01*
X137893Y90393D01*
X136933Y90275D01*
X135970Y90181D01*
X135005Y90111D01*
X134039Y90063D01*
X133072Y90040D01*
X132104Y90040D01*
X131137Y90063D01*
X130171Y90111D01*
X129206Y90181D01*
X128243Y90275D01*
X127283Y90393D01*
X126326Y90533D01*
X125373Y90697D01*
X124424Y90884D01*
X123479Y91095D01*
X122540Y91328D01*
X121607Y91583D01*
X120681Y91862D01*
X119762Y92163D01*
X118850Y92486D01*
X117946Y92831D01*
X117051Y93199D01*
X116165Y93587D01*
X115289Y93998D01*
X114424Y94429D01*
X113568Y94882D01*
X112725Y95355D01*
X111893Y95848D01*
X111073Y96362D01*
X110266Y96895D01*
X109472Y97448D01*
X108692Y98020D01*
X107926Y98611D01*
X107174Y99220D01*
X106438Y99847D01*
X105717Y100493D01*
X105012Y101155D01*
X104324Y101834D01*
X103652Y102530D01*
X102997Y103242D01*
X102360Y103970D01*
X101740Y104713D01*
X101139Y105471D01*
X100557Y106244D01*
X99993Y107030D01*
X99449Y107830D01*
X98924Y108643D01*
X98420Y109468D01*
X97935Y110305D01*
X97471Y111154D01*
X97028Y112014D01*
X97028Y147574D02*
X97471Y148434D01*
X97935Y149283D01*
X98420Y150120D01*
X98924Y150945D01*
X99449Y151758D01*
X99993Y152558D01*
X100557Y153344D01*
X101139Y154117D01*
X101740Y154875D01*
X102360Y155618D01*
X102997Y156346D01*
X103652Y157058D01*
X104324Y157754D01*
X105012Y158433D01*
X105717Y159095D01*
X106438Y159741D01*
X107174Y160368D01*
X107926Y160977D01*
X108692Y161568D01*
X109472Y162140D01*
X110266Y162693D01*
X111073Y163226D01*
X111893Y163740D01*
X112725Y164233D01*
X113568Y164706D01*
X114424Y165159D01*
X115289Y165590D01*
X116165Y166001D01*
X117051Y166389D01*
X117946Y166757D01*
X118850Y167102D01*
X119762Y167425D01*
X120681Y167726D01*
X121607Y168005D01*
X122540Y168260D01*
X123479Y168493D01*
X124424Y168704D01*
X125373Y168891D01*
X126326Y169055D01*
X127283Y169195D01*
X128243Y169313D01*
X129206Y169407D01*
X130171Y169477D01*
X131137Y169525D01*
X132104Y169548D01*
X133072Y169548D01*
X134039Y169525D01*
X135005Y169477D01*
X135970Y169407D01*
X136933Y169313D01*
X137893Y169195D01*
X138850Y169055D01*
X139803Y168891D01*
X140752Y168704D01*
X141697Y168493D01*
X142636Y168260D01*
X143569Y168005D01*
X144495Y167726D01*
X145414Y167425D01*
X146326Y167102D01*
X147230Y166757D01*
X148125Y166389D01*
X149011Y166001D01*
X149887Y165590D01*
X150752Y165159D01*
X151608Y164706D01*
X152451Y164233D01*
X153283Y163740D01*
X154103Y163226D01*
X154910Y162693D01*
X155704Y162140D01*
X156484Y161568D01*
X157250Y160977D01*
X158002Y160368D01*
X158738Y159741D01*
X159459Y159095D01*
X160164Y158433D01*
X160852Y157754D01*
X161524Y157058D01*
X162179Y156346D01*
X162816Y155618D01*
X163436Y154875D01*
X164037Y154117D01*
X164619Y153344D01*
X165183Y152558D01*
X165727Y151758D01*
X166252Y150945D01*
X166756Y150120D01*
X167241Y149283D01*
X167705Y148434D01*
X168148Y147574D01*
X97028Y113284D02*
X84328Y113284D01*
X84328Y120904D01*
X97028Y120904D01*
X97028Y124714D02*
X84328Y124714D01*
X84328Y132334D01*
X97028Y132334D01*
X96774Y136652D02*
X84582Y136652D01*
X84582Y144272D01*
X96774Y144272D01*
X168148Y112776D02*
X181610Y112776D01*
X181610Y120650D01*
X168402Y120650D01*
X168148Y124460D02*
X181356Y124460D01*
X181356Y132588D01*
X168402Y132588D01*
X168402Y136652D02*
X181356Y136652D01*
X181356Y144526D01*
X168148Y144526D01*
X88138Y110744D02*
X88138Y98044D01*
X81788Y104394D02*
X94488Y104394D01*
M02*
