G04 EAGLE Gerber RS-274X export*
G75*
%MOMM*%
%FSLAX34Y34*%
%LPD*%
%INTop Copper*%
%IPPOS*%
%AMOC8*
5,1,8,0,0,1.08239X$1,22.5*%
G01*
%ADD10R,0.800000X0.800000*%
%ADD11R,1.500000X0.550000*%
%ADD12R,1.400000X1.000000*%
%ADD13R,1.900000X1.600000*%
%ADD14P,2.089446X8X22.500000*%
%ADD15R,2.387600X2.997200*%
%ADD16R,0.950000X0.950000*%
%ADD17C,0.754000*%
%ADD18C,0.812800*%
%ADD19C,0.609600*%
%ADD20C,1.270000*%

G36*
X255798Y3814D02*
X255798Y3814D01*
X255817Y3812D01*
X255919Y3834D01*
X256021Y3850D01*
X256038Y3860D01*
X256058Y3864D01*
X256147Y3917D01*
X256238Y3966D01*
X256252Y3980D01*
X256269Y3990D01*
X256336Y4069D01*
X256408Y4144D01*
X256416Y4162D01*
X256429Y4177D01*
X256468Y4273D01*
X256511Y4367D01*
X256513Y4387D01*
X256521Y4405D01*
X256539Y4572D01*
X256539Y255778D01*
X256536Y255798D01*
X256538Y255817D01*
X256516Y255919D01*
X256500Y256021D01*
X256490Y256038D01*
X256486Y256058D01*
X256433Y256147D01*
X256384Y256238D01*
X256370Y256252D01*
X256360Y256269D01*
X256281Y256336D01*
X256206Y256408D01*
X256188Y256416D01*
X256173Y256429D01*
X256077Y256468D01*
X255983Y256511D01*
X255963Y256513D01*
X255945Y256521D01*
X255778Y256539D01*
X137787Y256539D01*
X137716Y256528D01*
X137644Y256526D01*
X137595Y256508D01*
X137544Y256500D01*
X137481Y256466D01*
X137413Y256441D01*
X137373Y256409D01*
X137327Y256384D01*
X137277Y256332D01*
X137221Y256288D01*
X137193Y256244D01*
X137157Y256206D01*
X137127Y256141D01*
X137088Y256081D01*
X137076Y256030D01*
X137054Y255983D01*
X137046Y255912D01*
X137028Y255842D01*
X137032Y255790D01*
X137027Y255739D01*
X137042Y255668D01*
X137047Y255597D01*
X137068Y255549D01*
X137079Y255498D01*
X137116Y255436D01*
X137144Y255371D01*
X137188Y255315D01*
X137205Y255287D01*
X137223Y255272D01*
X137249Y255240D01*
X143802Y248687D01*
X143804Y248670D01*
X143847Y248589D01*
X143883Y248505D01*
X143909Y248473D01*
X143920Y248452D01*
X143943Y248430D01*
X143988Y248374D01*
X144527Y247835D01*
X144527Y236543D01*
X131034Y223050D01*
X130981Y222976D01*
X130921Y222906D01*
X130909Y222876D01*
X130890Y222850D01*
X130863Y222763D01*
X130829Y222678D01*
X130825Y222637D01*
X130818Y222615D01*
X130819Y222583D01*
X130811Y222511D01*
X130811Y209732D01*
X130822Y209662D01*
X130824Y209590D01*
X130842Y209541D01*
X130850Y209490D01*
X130884Y209426D01*
X130909Y209359D01*
X130941Y209318D01*
X130966Y209272D01*
X131018Y209223D01*
X131062Y209167D01*
X131106Y209139D01*
X131144Y209103D01*
X131209Y209073D01*
X131269Y209034D01*
X131320Y209021D01*
X131367Y208999D01*
X131438Y208991D01*
X131508Y208974D01*
X131560Y208978D01*
X131611Y208972D01*
X131682Y208987D01*
X131753Y208993D01*
X131801Y209013D01*
X131852Y209024D01*
X131913Y209061D01*
X131979Y209089D01*
X132035Y209134D01*
X132063Y209151D01*
X132078Y209168D01*
X132110Y209194D01*
X133697Y210781D01*
X138083Y210781D01*
X141185Y207679D01*
X141185Y203293D01*
X140726Y202834D01*
X140673Y202760D01*
X140613Y202690D01*
X140601Y202660D01*
X140582Y202634D01*
X140555Y202547D01*
X140521Y202462D01*
X140517Y202421D01*
X140510Y202399D01*
X140511Y202367D01*
X140503Y202296D01*
X140503Y113113D01*
X140514Y113043D01*
X140516Y112971D01*
X140534Y112922D01*
X140542Y112871D01*
X140576Y112807D01*
X140601Y112740D01*
X140633Y112699D01*
X140658Y112653D01*
X140710Y112604D01*
X140754Y112548D01*
X140798Y112520D01*
X140836Y112484D01*
X140901Y112454D01*
X140961Y112415D01*
X141012Y112402D01*
X141059Y112380D01*
X141130Y112372D01*
X141200Y112355D01*
X141252Y112359D01*
X141303Y112353D01*
X141374Y112368D01*
X141445Y112374D01*
X141493Y112394D01*
X141544Y112405D01*
X141605Y112442D01*
X141671Y112470D01*
X141727Y112515D01*
X141755Y112532D01*
X141770Y112549D01*
X141802Y112575D01*
X150340Y121113D01*
X150393Y121187D01*
X150453Y121257D01*
X150465Y121287D01*
X150484Y121313D01*
X150511Y121400D01*
X150545Y121485D01*
X150549Y121526D01*
X150556Y121548D01*
X150555Y121580D01*
X150563Y121651D01*
X150563Y126826D01*
X151456Y127719D01*
X156631Y127719D01*
X156721Y127733D01*
X156812Y127741D01*
X156841Y127753D01*
X156873Y127758D01*
X156954Y127801D01*
X157038Y127837D01*
X157070Y127863D01*
X157091Y127874D01*
X157113Y127897D01*
X157169Y127942D01*
X157244Y128017D01*
X161482Y128017D01*
X161557Y127942D01*
X161631Y127889D01*
X161701Y127829D01*
X161731Y127817D01*
X161757Y127798D01*
X161844Y127771D01*
X161929Y127737D01*
X161970Y127733D01*
X161992Y127726D01*
X162024Y127727D01*
X162095Y127719D01*
X167132Y127719D01*
X167152Y127722D01*
X167171Y127720D01*
X167273Y127742D01*
X167375Y127758D01*
X167392Y127768D01*
X167412Y127772D01*
X167501Y127825D01*
X167592Y127874D01*
X167606Y127888D01*
X167623Y127898D01*
X167690Y127977D01*
X167762Y128052D01*
X167770Y128070D01*
X167783Y128085D01*
X167822Y128181D01*
X167865Y128275D01*
X167867Y128295D01*
X167875Y128313D01*
X167893Y128480D01*
X167893Y130810D01*
X167890Y130830D01*
X167892Y130849D01*
X167870Y130951D01*
X167854Y131053D01*
X167844Y131070D01*
X167840Y131090D01*
X167787Y131179D01*
X167738Y131270D01*
X167724Y131284D01*
X167714Y131301D01*
X167635Y131368D01*
X167560Y131440D01*
X167542Y131448D01*
X167527Y131461D01*
X167431Y131500D01*
X167337Y131543D01*
X167317Y131545D01*
X167299Y131553D01*
X167132Y131571D01*
X157694Y131571D01*
X157619Y131646D01*
X157545Y131699D01*
X157475Y131759D01*
X157445Y131771D01*
X157419Y131790D01*
X157332Y131817D01*
X157247Y131851D01*
X157206Y131855D01*
X157184Y131862D01*
X157152Y131861D01*
X157081Y131869D01*
X151456Y131869D01*
X150563Y132762D01*
X150563Y139526D01*
X151456Y140419D01*
X157081Y140419D01*
X157171Y140433D01*
X157262Y140441D01*
X157291Y140453D01*
X157323Y140458D01*
X157404Y140501D01*
X157488Y140537D01*
X157520Y140563D01*
X157541Y140574D01*
X157563Y140597D01*
X157619Y140642D01*
X157694Y140717D01*
X171312Y140717D01*
X177039Y134990D01*
X177039Y115708D01*
X166031Y104700D01*
X165989Y104642D01*
X165940Y104590D01*
X165918Y104543D01*
X165888Y104501D01*
X165866Y104432D01*
X165836Y104367D01*
X165831Y104315D01*
X165815Y104265D01*
X165817Y104194D01*
X165809Y104123D01*
X165820Y104072D01*
X165822Y104020D01*
X165846Y103952D01*
X165861Y103882D01*
X165888Y103837D01*
X165906Y103789D01*
X165951Y103733D01*
X165988Y103671D01*
X166027Y103637D01*
X166060Y103597D01*
X166120Y103558D01*
X166174Y103511D01*
X166223Y103492D01*
X166267Y103464D01*
X166336Y103446D01*
X166403Y103419D01*
X166474Y103411D01*
X166505Y103403D01*
X166528Y103405D01*
X166569Y103401D01*
X166812Y103401D01*
X167705Y102508D01*
X167705Y91244D01*
X166812Y90351D01*
X151548Y90351D01*
X150655Y91244D01*
X150655Y102508D01*
X151548Y103401D01*
X153846Y103401D01*
X153866Y103404D01*
X153885Y103402D01*
X153987Y103424D01*
X154089Y103440D01*
X154106Y103450D01*
X154126Y103454D01*
X154215Y103507D01*
X154306Y103556D01*
X154320Y103570D01*
X154337Y103580D01*
X154404Y103659D01*
X154476Y103734D01*
X154484Y103752D01*
X154497Y103767D01*
X154536Y103863D01*
X154579Y103957D01*
X154581Y103977D01*
X154589Y103995D01*
X154607Y104162D01*
X154607Y106210D01*
X166267Y117870D01*
X166309Y117928D01*
X166358Y117980D01*
X166380Y118027D01*
X166410Y118069D01*
X166432Y118138D01*
X166462Y118203D01*
X166467Y118255D01*
X166483Y118305D01*
X166481Y118376D01*
X166489Y118447D01*
X166478Y118498D01*
X166476Y118550D01*
X166452Y118618D01*
X166437Y118688D01*
X166410Y118733D01*
X166392Y118781D01*
X166347Y118837D01*
X166310Y118899D01*
X166271Y118933D01*
X166238Y118973D01*
X166178Y119012D01*
X166124Y119059D01*
X166075Y119078D01*
X166031Y119106D01*
X165962Y119124D01*
X165895Y119151D01*
X165824Y119159D01*
X165793Y119167D01*
X165770Y119165D01*
X165729Y119169D01*
X162095Y119169D01*
X162005Y119155D01*
X161914Y119147D01*
X161885Y119135D01*
X161853Y119130D01*
X161772Y119087D01*
X161688Y119051D01*
X161656Y119025D01*
X161635Y119014D01*
X161613Y118991D01*
X161557Y118946D01*
X161482Y118871D01*
X161347Y118871D01*
X161257Y118857D01*
X161166Y118849D01*
X161137Y118837D01*
X161105Y118832D01*
X161024Y118789D01*
X160940Y118753D01*
X160908Y118727D01*
X160887Y118716D01*
X160865Y118693D01*
X160809Y118648D01*
X145836Y103675D01*
X145783Y103601D01*
X145723Y103531D01*
X145711Y103501D01*
X145692Y103475D01*
X145665Y103388D01*
X145631Y103303D01*
X145627Y103262D01*
X145620Y103240D01*
X145621Y103208D01*
X145613Y103137D01*
X145613Y99762D01*
X144720Y98869D01*
X135456Y98869D01*
X134563Y99762D01*
X134563Y103137D01*
X134549Y103227D01*
X134541Y103318D01*
X134529Y103347D01*
X134524Y103379D01*
X134481Y103460D01*
X134445Y103544D01*
X134419Y103576D01*
X134408Y103597D01*
X134385Y103619D01*
X134340Y103675D01*
X131357Y106658D01*
X131357Y152009D01*
X131346Y152079D01*
X131344Y152151D01*
X131326Y152200D01*
X131318Y152251D01*
X131284Y152315D01*
X131259Y152382D01*
X131227Y152423D01*
X131202Y152469D01*
X131150Y152518D01*
X131106Y152574D01*
X131062Y152602D01*
X131024Y152638D01*
X130959Y152668D01*
X130899Y152707D01*
X130848Y152720D01*
X130801Y152742D01*
X130730Y152750D01*
X130660Y152767D01*
X130608Y152763D01*
X130557Y152769D01*
X130486Y152754D01*
X130415Y152748D01*
X130367Y152728D01*
X130316Y152717D01*
X130255Y152680D01*
X130189Y152652D01*
X130133Y152607D01*
X130105Y152590D01*
X130090Y152573D01*
X130058Y152547D01*
X127909Y150398D01*
X124684Y147173D01*
X121782Y144271D01*
X103694Y144271D01*
X103619Y144346D01*
X103545Y144399D01*
X103475Y144459D01*
X103445Y144471D01*
X103419Y144490D01*
X103332Y144517D01*
X103247Y144551D01*
X103206Y144555D01*
X103184Y144562D01*
X103152Y144561D01*
X103081Y144569D01*
X97456Y144569D01*
X96563Y145462D01*
X96563Y152226D01*
X97456Y153119D01*
X103081Y153119D01*
X103171Y153133D01*
X103262Y153141D01*
X103291Y153153D01*
X103323Y153158D01*
X103404Y153201D01*
X103488Y153237D01*
X103520Y153263D01*
X103541Y153274D01*
X103563Y153297D01*
X103619Y153342D01*
X103694Y153417D01*
X117679Y153417D01*
X117769Y153431D01*
X117860Y153439D01*
X117889Y153451D01*
X117921Y153456D01*
X118002Y153499D01*
X118086Y153535D01*
X118118Y153561D01*
X118139Y153572D01*
X118161Y153595D01*
X118217Y153640D01*
X121442Y156865D01*
X121495Y156939D01*
X121555Y157009D01*
X121567Y157039D01*
X121586Y157065D01*
X121613Y157152D01*
X121647Y157237D01*
X121651Y157278D01*
X121658Y157300D01*
X121657Y157332D01*
X121665Y157403D01*
X121665Y223019D01*
X121651Y223109D01*
X121643Y223200D01*
X121631Y223230D01*
X121626Y223262D01*
X121583Y223343D01*
X121547Y223427D01*
X121521Y223459D01*
X121510Y223480D01*
X121487Y223502D01*
X121442Y223558D01*
X121188Y223812D01*
X121130Y223854D01*
X121078Y223903D01*
X121031Y223925D01*
X120989Y223955D01*
X120920Y223976D01*
X120855Y224007D01*
X120803Y224012D01*
X120753Y224028D01*
X120682Y224026D01*
X120611Y224034D01*
X120560Y224023D01*
X120508Y224021D01*
X120440Y223997D01*
X120370Y223982D01*
X120325Y223955D01*
X120277Y223937D01*
X120221Y223892D01*
X120159Y223855D01*
X120125Y223816D01*
X120085Y223783D01*
X120046Y223723D01*
X119999Y223668D01*
X119980Y223620D01*
X119952Y223576D01*
X119934Y223507D01*
X119907Y223440D01*
X119899Y223369D01*
X119891Y223338D01*
X119893Y223314D01*
X119889Y223274D01*
X119889Y186505D01*
X111690Y178306D01*
X111679Y178290D01*
X111663Y178278D01*
X111607Y178191D01*
X111547Y178107D01*
X111541Y178087D01*
X111530Y178071D01*
X111505Y177970D01*
X111474Y177871D01*
X111475Y177852D01*
X111470Y177832D01*
X111478Y177729D01*
X111481Y177626D01*
X111488Y177607D01*
X111489Y177587D01*
X111529Y177492D01*
X111565Y177395D01*
X111578Y177379D01*
X111585Y177361D01*
X111690Y177230D01*
X112483Y176437D01*
X112483Y172051D01*
X111984Y171552D01*
X111931Y171478D01*
X111871Y171408D01*
X111859Y171378D01*
X111840Y171352D01*
X111813Y171265D01*
X111779Y171180D01*
X111775Y171139D01*
X111768Y171117D01*
X111769Y171085D01*
X111761Y171014D01*
X111761Y166580D01*
X111764Y166560D01*
X111762Y166541D01*
X111784Y166439D01*
X111800Y166337D01*
X111810Y166320D01*
X111814Y166300D01*
X111867Y166211D01*
X111916Y166120D01*
X111930Y166106D01*
X111940Y166089D01*
X112019Y166022D01*
X112094Y165950D01*
X112112Y165942D01*
X112127Y165929D01*
X112223Y165890D01*
X112317Y165847D01*
X112337Y165845D01*
X112355Y165837D01*
X112522Y165819D01*
X113720Y165819D01*
X114613Y164926D01*
X114613Y158162D01*
X113720Y157269D01*
X108095Y157269D01*
X108005Y157255D01*
X107914Y157247D01*
X107885Y157235D01*
X107853Y157230D01*
X107772Y157187D01*
X107688Y157151D01*
X107656Y157125D01*
X107635Y157114D01*
X107613Y157091D01*
X107557Y157046D01*
X107482Y156971D01*
X103694Y156971D01*
X103619Y157046D01*
X103545Y157099D01*
X103475Y157159D01*
X103445Y157171D01*
X103419Y157190D01*
X103332Y157217D01*
X103247Y157251D01*
X103206Y157255D01*
X103184Y157262D01*
X103152Y157261D01*
X103081Y157269D01*
X97456Y157269D01*
X96563Y158162D01*
X96563Y164926D01*
X97456Y165819D01*
X101854Y165819D01*
X101874Y165822D01*
X101893Y165820D01*
X101995Y165842D01*
X102097Y165858D01*
X102114Y165868D01*
X102134Y165872D01*
X102223Y165925D01*
X102314Y165974D01*
X102328Y165988D01*
X102345Y165998D01*
X102412Y166077D01*
X102484Y166152D01*
X102492Y166170D01*
X102505Y166185D01*
X102544Y166281D01*
X102587Y166375D01*
X102589Y166395D01*
X102597Y166413D01*
X102615Y166580D01*
X102615Y168402D01*
X102612Y168422D01*
X102614Y168441D01*
X102592Y168543D01*
X102576Y168645D01*
X102566Y168662D01*
X102562Y168682D01*
X102509Y168771D01*
X102460Y168862D01*
X102446Y168876D01*
X102436Y168893D01*
X102357Y168960D01*
X102282Y169032D01*
X102264Y169040D01*
X102249Y169053D01*
X102153Y169092D01*
X102059Y169135D01*
X102039Y169137D01*
X102021Y169145D01*
X101854Y169163D01*
X86513Y169163D01*
X86442Y169152D01*
X86370Y169150D01*
X86321Y169132D01*
X86270Y169124D01*
X86207Y169090D01*
X86139Y169065D01*
X86099Y169033D01*
X86053Y169008D01*
X86003Y168956D01*
X85947Y168912D01*
X85919Y168868D01*
X85883Y168830D01*
X85853Y168765D01*
X85814Y168705D01*
X85802Y168654D01*
X85780Y168607D01*
X85772Y168536D01*
X85754Y168466D01*
X85758Y168414D01*
X85753Y168363D01*
X85768Y168292D01*
X85773Y168221D01*
X85794Y168173D01*
X85805Y168122D01*
X85842Y168061D01*
X85870Y167995D01*
X85915Y167939D01*
X85931Y167911D01*
X85949Y167896D01*
X85975Y167864D01*
X86463Y167376D01*
X86463Y150112D01*
X85570Y149219D01*
X81788Y149219D01*
X81768Y149216D01*
X81749Y149218D01*
X81647Y149196D01*
X81545Y149180D01*
X81528Y149170D01*
X81508Y149166D01*
X81419Y149113D01*
X81328Y149064D01*
X81314Y149050D01*
X81297Y149040D01*
X81230Y148961D01*
X81158Y148886D01*
X81150Y148868D01*
X81137Y148853D01*
X81098Y148757D01*
X81055Y148663D01*
X81053Y148643D01*
X81045Y148625D01*
X81027Y148458D01*
X81027Y140131D01*
X81038Y140061D01*
X81040Y139989D01*
X81058Y139940D01*
X81066Y139889D01*
X81100Y139825D01*
X81125Y139758D01*
X81157Y139717D01*
X81182Y139671D01*
X81234Y139622D01*
X81278Y139566D01*
X81322Y139538D01*
X81360Y139502D01*
X81425Y139472D01*
X81485Y139433D01*
X81536Y139420D01*
X81583Y139398D01*
X81654Y139390D01*
X81724Y139373D01*
X81776Y139377D01*
X81827Y139371D01*
X81898Y139386D01*
X81969Y139392D01*
X82017Y139412D01*
X82068Y139423D01*
X82129Y139460D01*
X82195Y139488D01*
X82251Y139533D01*
X82279Y139550D01*
X82294Y139567D01*
X82326Y139593D01*
X83450Y140717D01*
X107482Y140717D01*
X107557Y140642D01*
X107631Y140589D01*
X107701Y140529D01*
X107731Y140517D01*
X107757Y140498D01*
X107844Y140471D01*
X107929Y140437D01*
X107970Y140433D01*
X107992Y140426D01*
X108024Y140427D01*
X108095Y140419D01*
X113720Y140419D01*
X114613Y139526D01*
X114613Y132762D01*
X113720Y131869D01*
X108095Y131869D01*
X108005Y131855D01*
X107914Y131847D01*
X107885Y131835D01*
X107853Y131830D01*
X107772Y131787D01*
X107688Y131751D01*
X107656Y131725D01*
X107635Y131714D01*
X107613Y131691D01*
X107557Y131646D01*
X107482Y131571D01*
X87553Y131571D01*
X87463Y131557D01*
X87372Y131549D01*
X87343Y131537D01*
X87311Y131532D01*
X87230Y131489D01*
X87146Y131453D01*
X87114Y131427D01*
X87093Y131416D01*
X87071Y131393D01*
X87015Y131348D01*
X80996Y125329D01*
X80943Y125255D01*
X80883Y125185D01*
X80871Y125155D01*
X80852Y125129D01*
X80825Y125042D01*
X80791Y124957D01*
X80787Y124916D01*
X80780Y124894D01*
X80781Y124862D01*
X80773Y124791D01*
X80773Y117409D01*
X80787Y117319D01*
X80795Y117228D01*
X80807Y117199D01*
X80812Y117167D01*
X80855Y117086D01*
X80891Y117002D01*
X80917Y116970D01*
X80928Y116949D01*
X80951Y116927D01*
X80996Y116871D01*
X97029Y100838D01*
X97029Y98360D01*
X97032Y98340D01*
X97030Y98321D01*
X97052Y98219D01*
X97068Y98117D01*
X97078Y98100D01*
X97082Y98080D01*
X97135Y97991D01*
X97184Y97900D01*
X97198Y97886D01*
X97208Y97869D01*
X97287Y97802D01*
X97362Y97730D01*
X97380Y97722D01*
X97395Y97709D01*
X97491Y97670D01*
X97585Y97627D01*
X97605Y97625D01*
X97623Y97617D01*
X97790Y97599D01*
X97838Y97599D01*
X98731Y96706D01*
X98731Y85942D01*
X97838Y85049D01*
X87074Y85049D01*
X86181Y85942D01*
X86181Y96706D01*
X86666Y97190D01*
X86678Y97207D01*
X86693Y97219D01*
X86749Y97306D01*
X86810Y97390D01*
X86816Y97409D01*
X86826Y97426D01*
X86852Y97526D01*
X86882Y97625D01*
X86882Y97645D01*
X86886Y97665D01*
X86878Y97767D01*
X86876Y97871D01*
X86869Y97890D01*
X86867Y97910D01*
X86827Y98005D01*
X86791Y98102D01*
X86779Y98118D01*
X86771Y98136D01*
X86666Y98267D01*
X81412Y103521D01*
X81354Y103563D01*
X81302Y103612D01*
X81255Y103634D01*
X81213Y103664D01*
X81144Y103686D01*
X81079Y103716D01*
X81027Y103722D01*
X80977Y103737D01*
X80906Y103735D01*
X80835Y103743D01*
X80784Y103732D01*
X80732Y103730D01*
X80664Y103706D01*
X80594Y103691D01*
X80550Y103664D01*
X80501Y103646D01*
X80445Y103601D01*
X80383Y103564D01*
X80349Y103525D01*
X80309Y103492D01*
X80270Y103432D01*
X80223Y103378D01*
X80204Y103329D01*
X80176Y103285D01*
X80158Y103216D01*
X80131Y103149D01*
X80123Y103078D01*
X80115Y103047D01*
X80117Y103024D01*
X80113Y102983D01*
X80113Y85862D01*
X79220Y84969D01*
X62342Y84969D01*
X62272Y84958D01*
X62200Y84956D01*
X62151Y84938D01*
X62100Y84930D01*
X62036Y84896D01*
X61969Y84871D01*
X61928Y84839D01*
X61882Y84814D01*
X61833Y84763D01*
X61777Y84718D01*
X61749Y84674D01*
X61713Y84636D01*
X61683Y84571D01*
X61644Y84511D01*
X61631Y84460D01*
X61609Y84413D01*
X61601Y84342D01*
X61584Y84272D01*
X61588Y84220D01*
X61582Y84169D01*
X61597Y84098D01*
X61603Y84027D01*
X61623Y83979D01*
X61634Y83928D01*
X61671Y83867D01*
X61699Y83801D01*
X61744Y83745D01*
X61761Y83717D01*
X61778Y83702D01*
X61804Y83670D01*
X63462Y82012D01*
X63536Y81959D01*
X63606Y81899D01*
X63636Y81887D01*
X63662Y81868D01*
X63749Y81841D01*
X63834Y81807D01*
X63875Y81803D01*
X63897Y81796D01*
X63929Y81797D01*
X64000Y81789D01*
X71559Y81789D01*
X119889Y33459D01*
X119889Y29710D01*
X119900Y29640D01*
X119902Y29568D01*
X119920Y29519D01*
X119928Y29468D01*
X119962Y29404D01*
X119987Y29337D01*
X120019Y29296D01*
X120044Y29250D01*
X120096Y29201D01*
X120140Y29145D01*
X120184Y29117D01*
X120222Y29081D01*
X120287Y29051D01*
X120347Y29012D01*
X120398Y28999D01*
X120445Y28977D01*
X120516Y28969D01*
X120586Y28952D01*
X120638Y28956D01*
X120689Y28950D01*
X120760Y28965D01*
X120831Y28971D01*
X120879Y28991D01*
X120930Y29002D01*
X120991Y29039D01*
X121057Y29067D01*
X121113Y29112D01*
X121141Y29129D01*
X121156Y29146D01*
X121188Y29172D01*
X122720Y30704D01*
X127792Y35776D01*
X127845Y35850D01*
X127905Y35920D01*
X127917Y35950D01*
X127936Y35976D01*
X127963Y36063D01*
X127997Y36148D01*
X128001Y36189D01*
X128008Y36211D01*
X128007Y36243D01*
X128015Y36315D01*
X128015Y36653D01*
X128001Y36743D01*
X127993Y36834D01*
X127981Y36863D01*
X127976Y36895D01*
X127933Y36976D01*
X127897Y37060D01*
X127871Y37092D01*
X127860Y37113D01*
X127837Y37135D01*
X127792Y37191D01*
X94657Y70326D01*
X94583Y70379D01*
X94513Y70439D01*
X94483Y70451D01*
X94457Y70470D01*
X94370Y70497D01*
X94285Y70531D01*
X94244Y70535D01*
X94222Y70542D01*
X94190Y70541D01*
X94119Y70549D01*
X87074Y70549D01*
X86181Y71442D01*
X86181Y82206D01*
X87074Y83099D01*
X97838Y83099D01*
X98731Y82206D01*
X98731Y79501D01*
X98745Y79411D01*
X98753Y79320D01*
X98765Y79291D01*
X98770Y79259D01*
X98813Y79178D01*
X98849Y79094D01*
X98875Y79062D01*
X98886Y79041D01*
X98909Y79019D01*
X98954Y78963D01*
X137161Y40756D01*
X137161Y36315D01*
X137175Y36224D01*
X137183Y36134D01*
X137195Y36104D01*
X137200Y36072D01*
X137243Y35991D01*
X137279Y35907D01*
X137305Y35875D01*
X137316Y35854D01*
X137339Y35832D01*
X137384Y35776D01*
X144019Y29141D01*
X144019Y11753D01*
X143988Y11722D01*
X143935Y11648D01*
X143875Y11578D01*
X143863Y11548D01*
X143844Y11522D01*
X143817Y11435D01*
X143783Y11350D01*
X143779Y11309D01*
X143772Y11287D01*
X143773Y11255D01*
X143765Y11183D01*
X143765Y10864D01*
X138011Y5110D01*
X137969Y5052D01*
X137919Y5000D01*
X137897Y4953D01*
X137867Y4911D01*
X137846Y4842D01*
X137816Y4777D01*
X137810Y4725D01*
X137795Y4675D01*
X137796Y4604D01*
X137789Y4533D01*
X137800Y4482D01*
X137801Y4430D01*
X137826Y4362D01*
X137841Y4292D01*
X137868Y4247D01*
X137885Y4199D01*
X137930Y4143D01*
X137967Y4081D01*
X138007Y4047D01*
X138039Y4007D01*
X138099Y3968D01*
X138154Y3921D01*
X138202Y3902D01*
X138246Y3874D01*
X138316Y3856D01*
X138382Y3829D01*
X138453Y3821D01*
X138485Y3813D01*
X138508Y3815D01*
X138549Y3811D01*
X255778Y3811D01*
X255798Y3814D01*
G37*
G36*
X117622Y3814D02*
X117622Y3814D01*
X117641Y3812D01*
X117743Y3834D01*
X117845Y3850D01*
X117862Y3860D01*
X117882Y3864D01*
X117971Y3917D01*
X118062Y3966D01*
X118076Y3980D01*
X118093Y3990D01*
X118160Y4069D01*
X118232Y4144D01*
X118240Y4162D01*
X118253Y4177D01*
X118292Y4273D01*
X118335Y4367D01*
X118337Y4387D01*
X118345Y4405D01*
X118363Y4572D01*
X118363Y32512D01*
X118349Y32602D01*
X118341Y32693D01*
X118329Y32723D01*
X118324Y32755D01*
X118281Y32835D01*
X118245Y32919D01*
X118219Y32951D01*
X118208Y32972D01*
X118185Y32994D01*
X118140Y33050D01*
X71150Y80040D01*
X71076Y80093D01*
X71007Y80153D01*
X70977Y80165D01*
X70951Y80184D01*
X70864Y80211D01*
X70779Y80245D01*
X70738Y80249D01*
X70715Y80256D01*
X70683Y80255D01*
X70612Y80263D01*
X63053Y80263D01*
X29463Y113853D01*
X29463Y168087D01*
X32065Y170689D01*
X101418Y170689D01*
X101488Y170700D01*
X101560Y170702D01*
X101609Y170720D01*
X101660Y170729D01*
X101724Y170762D01*
X101791Y170787D01*
X101832Y170819D01*
X101878Y170844D01*
X101927Y170896D01*
X101983Y170940D01*
X102011Y170984D01*
X102047Y171022D01*
X102077Y171087D01*
X102116Y171147D01*
X102129Y171198D01*
X102151Y171245D01*
X102159Y171316D01*
X102176Y171386D01*
X102172Y171438D01*
X102178Y171489D01*
X102163Y171560D01*
X102157Y171631D01*
X102137Y171679D01*
X102126Y171730D01*
X102089Y171791D01*
X102061Y171857D01*
X102016Y171913D01*
X101999Y171941D01*
X101982Y171956D01*
X101956Y171988D01*
X101893Y172051D01*
X101893Y176437D01*
X104995Y179539D01*
X109381Y179539D01*
X109535Y179385D01*
X109551Y179373D01*
X109564Y179358D01*
X109651Y179302D01*
X109735Y179241D01*
X109754Y179236D01*
X109770Y179225D01*
X109871Y179199D01*
X109970Y179169D01*
X109990Y179170D01*
X110009Y179165D01*
X110112Y179173D01*
X110216Y179175D01*
X110234Y179182D01*
X110254Y179184D01*
X110349Y179224D01*
X110447Y179260D01*
X110462Y179272D01*
X110481Y179280D01*
X110612Y179385D01*
X118140Y186914D01*
X118193Y186988D01*
X118253Y187057D01*
X118265Y187087D01*
X118284Y187113D01*
X118311Y187200D01*
X118345Y187285D01*
X118349Y187326D01*
X118356Y187349D01*
X118355Y187381D01*
X118363Y187452D01*
X118363Y255778D01*
X118360Y255798D01*
X118362Y255817D01*
X118340Y255919D01*
X118324Y256021D01*
X118314Y256038D01*
X118310Y256058D01*
X118257Y256147D01*
X118208Y256238D01*
X118194Y256252D01*
X118184Y256269D01*
X118105Y256336D01*
X118030Y256408D01*
X118012Y256416D01*
X117997Y256429D01*
X117901Y256468D01*
X117807Y256511D01*
X117787Y256513D01*
X117769Y256521D01*
X117602Y256539D01*
X4572Y256539D01*
X4552Y256536D01*
X4533Y256538D01*
X4431Y256516D01*
X4329Y256500D01*
X4312Y256490D01*
X4292Y256486D01*
X4203Y256433D01*
X4112Y256384D01*
X4098Y256370D01*
X4081Y256360D01*
X4014Y256281D01*
X3942Y256206D01*
X3934Y256188D01*
X3921Y256173D01*
X3882Y256077D01*
X3839Y255983D01*
X3837Y255963D01*
X3829Y255945D01*
X3811Y255778D01*
X3811Y4572D01*
X3814Y4552D01*
X3812Y4533D01*
X3834Y4431D01*
X3850Y4329D01*
X3860Y4312D01*
X3864Y4292D01*
X3917Y4203D01*
X3966Y4112D01*
X3980Y4098D01*
X3990Y4081D01*
X4069Y4014D01*
X4144Y3942D01*
X4162Y3934D01*
X4177Y3921D01*
X4273Y3882D01*
X4367Y3839D01*
X4387Y3837D01*
X4405Y3829D01*
X4572Y3811D01*
X117602Y3811D01*
X117622Y3814D01*
G37*
%LPC*%
G36*
X173548Y80851D02*
X173548Y80851D01*
X172655Y81744D01*
X172655Y93008D01*
X173548Y93901D01*
X179486Y93901D01*
X179576Y93915D01*
X179667Y93923D01*
X179697Y93935D01*
X179729Y93940D01*
X179809Y93983D01*
X179893Y94019D01*
X179925Y94045D01*
X179946Y94056D01*
X179968Y94079D01*
X180024Y94124D01*
X180624Y94724D01*
X180677Y94798D01*
X180737Y94867D01*
X180749Y94898D01*
X180768Y94924D01*
X180795Y95011D01*
X180829Y95096D01*
X180833Y95136D01*
X180840Y95159D01*
X180839Y95191D01*
X180847Y95262D01*
X180847Y103220D01*
X181698Y105274D01*
X195307Y118883D01*
X196986Y120562D01*
X199040Y121413D01*
X213008Y121413D01*
X213104Y121428D01*
X213201Y121438D01*
X213225Y121448D01*
X213251Y121452D01*
X213337Y121498D01*
X213426Y121538D01*
X213445Y121555D01*
X213468Y121568D01*
X213535Y121638D01*
X213607Y121704D01*
X213619Y121727D01*
X213637Y121746D01*
X213678Y121834D01*
X213725Y121920D01*
X213730Y121945D01*
X213741Y121969D01*
X213752Y122066D01*
X213769Y122162D01*
X213765Y122188D01*
X213768Y122213D01*
X213747Y122309D01*
X213733Y122405D01*
X213721Y122428D01*
X213716Y122454D01*
X213666Y122537D01*
X213622Y122624D01*
X213603Y122643D01*
X213590Y122665D01*
X213516Y122728D01*
X213446Y122796D01*
X213418Y122812D01*
X213403Y122825D01*
X213372Y122837D01*
X213299Y122877D01*
X211718Y123532D01*
X210146Y125104D01*
X209295Y127158D01*
X209295Y129382D01*
X209785Y130565D01*
X209800Y130629D01*
X209825Y130689D01*
X209828Y130718D01*
X209829Y130719D01*
X209869Y130792D01*
X209889Y130819D01*
X209894Y130837D01*
X209910Y130866D01*
X210146Y131436D01*
X211972Y133262D01*
X212542Y133498D01*
X212598Y133533D01*
X212658Y133558D01*
X212723Y133610D01*
X212751Y133628D01*
X212764Y133643D01*
X212789Y133663D01*
X212945Y133819D01*
X213165Y133819D01*
X213230Y133829D01*
X213295Y133830D01*
X213375Y133853D01*
X213408Y133858D01*
X213425Y133868D01*
X213456Y133877D01*
X213553Y133917D01*
X213614Y133954D01*
X213680Y133984D01*
X213718Y134019D01*
X213762Y134046D01*
X213808Y134101D01*
X213861Y134150D01*
X213886Y134196D01*
X213919Y134236D01*
X213945Y134303D01*
X213979Y134366D01*
X213988Y134417D01*
X214007Y134465D01*
X214010Y134537D01*
X214023Y134608D01*
X214015Y134659D01*
X214018Y134711D01*
X213998Y134780D01*
X213987Y134851D01*
X213964Y134897D01*
X213949Y134947D01*
X213908Y135006D01*
X213876Y135070D01*
X213839Y135107D01*
X213809Y135149D01*
X213751Y135192D01*
X213700Y135242D01*
X213637Y135277D01*
X213612Y135296D01*
X213589Y135303D01*
X213553Y135323D01*
X213456Y135363D01*
X213393Y135378D01*
X213332Y135403D01*
X213249Y135412D01*
X213217Y135419D01*
X213198Y135418D01*
X213165Y135421D01*
X212945Y135421D01*
X212789Y135577D01*
X212736Y135615D01*
X212689Y135661D01*
X212616Y135701D01*
X212589Y135721D01*
X212571Y135726D01*
X212542Y135742D01*
X211972Y135978D01*
X210400Y137550D01*
X210164Y138120D01*
X210129Y138176D01*
X210104Y138236D01*
X210052Y138301D01*
X210034Y138329D01*
X210019Y138342D01*
X209999Y138367D01*
X209843Y138523D01*
X209843Y138743D01*
X209833Y138808D01*
X209832Y138873D01*
X209809Y138953D01*
X209804Y138986D01*
X209794Y139003D01*
X209785Y139034D01*
X209549Y139604D01*
X209549Y141828D01*
X209785Y142398D01*
X209800Y142461D01*
X209825Y142522D01*
X209834Y142605D01*
X209841Y142637D01*
X209840Y142656D01*
X209843Y142689D01*
X209843Y142909D01*
X209999Y143065D01*
X210037Y143118D01*
X210083Y143165D01*
X210123Y143238D01*
X210143Y143265D01*
X210148Y143283D01*
X210164Y143312D01*
X210400Y143882D01*
X216770Y150252D01*
X216823Y150326D01*
X216883Y150395D01*
X216895Y150426D01*
X216914Y150452D01*
X216941Y150539D01*
X216975Y150624D01*
X216979Y150664D01*
X216986Y150687D01*
X216985Y150719D01*
X216993Y150790D01*
X216993Y164926D01*
X216990Y164946D01*
X216992Y164965D01*
X216970Y165067D01*
X216954Y165169D01*
X216944Y165186D01*
X216940Y165206D01*
X216887Y165295D01*
X216838Y165386D01*
X216824Y165400D01*
X216814Y165417D01*
X216735Y165484D01*
X216660Y165556D01*
X216642Y165564D01*
X216627Y165577D01*
X216531Y165616D01*
X216437Y165659D01*
X216417Y165661D01*
X216399Y165669D01*
X216232Y165687D01*
X214950Y165687D01*
X214057Y166580D01*
X214057Y177844D01*
X214950Y178737D01*
X230214Y178737D01*
X231107Y177844D01*
X231107Y166580D01*
X230214Y165687D01*
X228932Y165687D01*
X228912Y165684D01*
X228893Y165686D01*
X228791Y165664D01*
X228689Y165648D01*
X228672Y165638D01*
X228652Y165634D01*
X228563Y165581D01*
X228472Y165532D01*
X228458Y165518D01*
X228441Y165508D01*
X228374Y165429D01*
X228302Y165354D01*
X228294Y165336D01*
X228281Y165321D01*
X228242Y165225D01*
X228199Y165131D01*
X228197Y165111D01*
X228189Y165093D01*
X228171Y164926D01*
X228171Y147031D01*
X228190Y146916D01*
X228207Y146800D01*
X228209Y146794D01*
X228210Y146788D01*
X228265Y146685D01*
X228318Y146581D01*
X228323Y146576D01*
X228326Y146571D01*
X228410Y146491D01*
X228494Y146408D01*
X228500Y146405D01*
X228504Y146401D01*
X228521Y146394D01*
X228641Y146328D01*
X229266Y146069D01*
X229329Y146054D01*
X229390Y146029D01*
X229473Y146020D01*
X229505Y146013D01*
X229524Y146014D01*
X229557Y146011D01*
X230031Y146011D01*
X230366Y145675D01*
X230420Y145637D01*
X230467Y145591D01*
X230539Y145551D01*
X230566Y145532D01*
X230585Y145526D01*
X230614Y145510D01*
X230750Y145454D01*
X232322Y143882D01*
X232378Y143746D01*
X232413Y143690D01*
X232439Y143629D01*
X232490Y143565D01*
X232508Y143536D01*
X232523Y143524D01*
X232543Y143499D01*
X233133Y142909D01*
X233133Y142076D01*
X233143Y142011D01*
X233144Y141945D01*
X233167Y141866D01*
X233172Y141833D01*
X233173Y141832D01*
X233173Y139576D01*
X233151Y139523D01*
X233142Y139440D01*
X233135Y139408D01*
X233136Y139389D01*
X233133Y139356D01*
X233133Y138523D01*
X232543Y137933D01*
X232505Y137880D01*
X232459Y137833D01*
X232419Y137761D01*
X232400Y137734D01*
X232394Y137715D01*
X232378Y137686D01*
X232322Y137550D01*
X230750Y135978D01*
X230614Y135922D01*
X230558Y135887D01*
X230497Y135861D01*
X230433Y135810D01*
X230404Y135792D01*
X230392Y135777D01*
X230367Y135757D01*
X230022Y135412D01*
X229980Y135354D01*
X229931Y135302D01*
X229909Y135255D01*
X229879Y135213D01*
X229858Y135144D01*
X229827Y135079D01*
X229822Y135027D01*
X229806Y134977D01*
X229808Y134906D01*
X229800Y134835D01*
X229811Y134784D01*
X229813Y134732D01*
X229837Y134664D01*
X229852Y134594D01*
X229879Y134550D01*
X229897Y134501D01*
X229942Y134445D01*
X229979Y134383D01*
X230018Y134349D01*
X230051Y134309D01*
X230111Y134270D01*
X230166Y134223D01*
X230214Y134204D01*
X230258Y134176D01*
X230327Y134158D01*
X230394Y134131D01*
X230465Y134123D01*
X230496Y134115D01*
X230519Y134117D01*
X230560Y134113D01*
X234284Y134113D01*
X236338Y133262D01*
X245276Y124324D01*
X246127Y122270D01*
X246127Y95838D01*
X245276Y93784D01*
X244030Y92538D01*
X243977Y92464D01*
X243917Y92395D01*
X243905Y92365D01*
X243886Y92338D01*
X243859Y92251D01*
X243825Y92166D01*
X243821Y92126D01*
X243814Y92103D01*
X243815Y92071D01*
X243807Y92000D01*
X243807Y86062D01*
X242914Y85169D01*
X227650Y85169D01*
X226757Y86062D01*
X226757Y97326D01*
X227650Y98219D01*
X233588Y98219D01*
X233678Y98233D01*
X233769Y98241D01*
X233799Y98253D01*
X233831Y98258D01*
X233911Y98301D01*
X233995Y98337D01*
X234027Y98363D01*
X234048Y98374D01*
X234070Y98397D01*
X234126Y98442D01*
X234726Y99042D01*
X234780Y99116D01*
X234839Y99185D01*
X234851Y99215D01*
X234870Y99242D01*
X234897Y99329D01*
X234931Y99414D01*
X234935Y99455D01*
X234942Y99477D01*
X234941Y99509D01*
X234949Y99580D01*
X234949Y118528D01*
X234935Y118618D01*
X234927Y118709D01*
X234915Y118739D01*
X234910Y118770D01*
X234867Y118851D01*
X234831Y118935D01*
X234805Y118967D01*
X234794Y118988D01*
X234771Y119010D01*
X234726Y119066D01*
X231080Y122712D01*
X231006Y122765D01*
X230937Y122825D01*
X230906Y122837D01*
X230880Y122856D01*
X230793Y122883D01*
X230708Y122917D01*
X230668Y122921D01*
X230645Y122928D01*
X230613Y122927D01*
X230542Y122935D01*
X216760Y122935D01*
X216751Y122934D01*
X216742Y122935D01*
X216576Y122913D01*
X216548Y122900D01*
X216518Y122896D01*
X216517Y122895D01*
X216435Y122852D01*
X216350Y122815D01*
X216327Y122795D01*
X216300Y122780D01*
X216236Y122713D01*
X216167Y122651D01*
X216152Y122624D01*
X216131Y122602D01*
X216091Y122518D01*
X216046Y122437D01*
X216040Y122407D01*
X216027Y122379D01*
X216017Y122287D01*
X215999Y122195D01*
X216003Y122165D01*
X216000Y122135D01*
X216020Y122044D01*
X216032Y121951D01*
X216046Y121924D01*
X216052Y121894D01*
X216100Y121814D01*
X216141Y121731D01*
X216163Y121709D01*
X216178Y121683D01*
X216249Y121623D01*
X216315Y121557D01*
X216342Y121543D01*
X216365Y121523D01*
X216452Y121488D01*
X216535Y121447D01*
X216565Y121443D01*
X216593Y121431D01*
X216760Y121413D01*
X228950Y121413D01*
X229520Y121177D01*
X229583Y121162D01*
X229644Y121137D01*
X229727Y121128D01*
X229759Y121121D01*
X229778Y121122D01*
X229811Y121119D01*
X230031Y121119D01*
X230187Y120963D01*
X230240Y120925D01*
X230287Y120879D01*
X230360Y120839D01*
X230387Y120819D01*
X230405Y120814D01*
X230434Y120798D01*
X231004Y120562D01*
X232576Y118990D01*
X232812Y118420D01*
X232846Y118364D01*
X232872Y118304D01*
X232924Y118239D01*
X232942Y118211D01*
X232957Y118198D01*
X232977Y118173D01*
X233133Y118017D01*
X233133Y117797D01*
X233143Y117732D01*
X233144Y117667D01*
X233167Y117587D01*
X233172Y117554D01*
X233182Y117537D01*
X233191Y117506D01*
X233427Y116936D01*
X233427Y114712D01*
X233191Y114142D01*
X233176Y114079D01*
X233151Y114018D01*
X233142Y113935D01*
X233135Y113903D01*
X233136Y113884D01*
X233133Y113851D01*
X233133Y113631D01*
X232977Y113475D01*
X232939Y113422D01*
X232893Y113375D01*
X232853Y113302D01*
X232833Y113275D01*
X232828Y113257D01*
X232812Y113228D01*
X232576Y112658D01*
X231004Y111086D01*
X230434Y110850D01*
X230378Y110816D01*
X230318Y110790D01*
X230253Y110738D01*
X230225Y110720D01*
X230212Y110705D01*
X230187Y110685D01*
X230031Y110529D01*
X229811Y110529D01*
X229746Y110519D01*
X229681Y110518D01*
X229601Y110495D01*
X229568Y110490D01*
X229551Y110480D01*
X229520Y110471D01*
X228950Y110235D01*
X202782Y110235D01*
X202692Y110221D01*
X202601Y110213D01*
X202571Y110201D01*
X202540Y110196D01*
X202459Y110153D01*
X202375Y110117D01*
X202343Y110091D01*
X202322Y110080D01*
X202300Y110057D01*
X202244Y110012D01*
X200298Y108066D01*
X200256Y108008D01*
X200207Y107956D01*
X200185Y107909D01*
X200155Y107867D01*
X200133Y107798D01*
X200103Y107733D01*
X200097Y107681D01*
X200082Y107632D01*
X200084Y107560D01*
X200076Y107489D01*
X200087Y107438D01*
X200089Y107386D01*
X200113Y107318D01*
X200128Y107248D01*
X200155Y107204D01*
X200173Y107155D01*
X200218Y107099D01*
X200255Y107037D01*
X200294Y107003D01*
X200327Y106963D01*
X200387Y106924D01*
X200441Y106877D01*
X200490Y106858D01*
X200534Y106830D01*
X200603Y106812D01*
X200670Y106785D01*
X200741Y106777D01*
X200772Y106770D01*
X200795Y106771D01*
X200836Y106767D01*
X202305Y106767D01*
X203082Y105990D01*
X203156Y105937D01*
X203226Y105877D01*
X203256Y105865D01*
X203282Y105846D01*
X203369Y105819D01*
X203454Y105785D01*
X203495Y105781D01*
X203517Y105774D01*
X203549Y105775D01*
X203621Y105767D01*
X203996Y105767D01*
X204016Y105770D01*
X204035Y105768D01*
X204137Y105790D01*
X204239Y105806D01*
X204256Y105816D01*
X204276Y105820D01*
X204365Y105873D01*
X204456Y105922D01*
X204470Y105936D01*
X204487Y105946D01*
X204554Y106025D01*
X204626Y106100D01*
X204634Y106118D01*
X204647Y106133D01*
X204686Y106229D01*
X204729Y106323D01*
X204731Y106343D01*
X204739Y106361D01*
X204757Y106528D01*
X204757Y106826D01*
X205650Y107719D01*
X220914Y107719D01*
X221807Y106826D01*
X221807Y95562D01*
X220914Y94669D01*
X205650Y94669D01*
X204757Y95562D01*
X204757Y95860D01*
X204754Y95880D01*
X204756Y95899D01*
X204734Y96001D01*
X204718Y96103D01*
X204708Y96120D01*
X204704Y96140D01*
X204651Y96229D01*
X204602Y96320D01*
X204588Y96334D01*
X204578Y96351D01*
X204499Y96418D01*
X204424Y96490D01*
X204406Y96498D01*
X204391Y96511D01*
X204295Y96550D01*
X204201Y96593D01*
X204181Y96595D01*
X204163Y96603D01*
X203996Y96621D01*
X203064Y96621D01*
X202974Y96607D01*
X202883Y96599D01*
X202854Y96587D01*
X202822Y96582D01*
X202741Y96539D01*
X202657Y96503D01*
X202625Y96477D01*
X202604Y96466D01*
X202582Y96443D01*
X202526Y96398D01*
X202305Y96177D01*
X197919Y96177D01*
X194817Y99279D01*
X194817Y100748D01*
X194806Y100819D01*
X194804Y100890D01*
X194786Y100939D01*
X194778Y100991D01*
X194744Y101054D01*
X194719Y101121D01*
X194687Y101162D01*
X194662Y101208D01*
X194610Y101257D01*
X194566Y101313D01*
X194522Y101341D01*
X194484Y101377D01*
X194419Y101407D01*
X194359Y101446D01*
X194308Y101459D01*
X194261Y101481D01*
X194190Y101489D01*
X194120Y101506D01*
X194068Y101502D01*
X194017Y101508D01*
X193946Y101493D01*
X193875Y101487D01*
X193827Y101467D01*
X193776Y101456D01*
X193715Y101419D01*
X193649Y101391D01*
X193593Y101346D01*
X193565Y101330D01*
X193550Y101312D01*
X193518Y101286D01*
X192248Y100016D01*
X192195Y99942D01*
X192135Y99873D01*
X192123Y99843D01*
X192104Y99816D01*
X192077Y99729D01*
X192043Y99644D01*
X192039Y99604D01*
X192032Y99581D01*
X192033Y99549D01*
X192025Y99478D01*
X192025Y91520D01*
X191174Y89466D01*
X189928Y88220D01*
X189875Y88146D01*
X189815Y88077D01*
X189803Y88047D01*
X189784Y88020D01*
X189757Y87933D01*
X189723Y87848D01*
X189719Y87808D01*
X189712Y87785D01*
X189713Y87753D01*
X189705Y87682D01*
X189705Y81744D01*
X188812Y80851D01*
X173548Y80851D01*
G37*
%LPD*%
%LPC*%
G36*
X231034Y215264D02*
X231034Y215264D01*
X223799Y218261D01*
X218261Y223799D01*
X215264Y231034D01*
X215264Y238866D01*
X218261Y246101D01*
X223799Y251639D01*
X231034Y254636D01*
X238866Y254636D01*
X246101Y251639D01*
X251639Y246101D01*
X254636Y238866D01*
X254636Y231034D01*
X251639Y223799D01*
X246101Y218261D01*
X238866Y215264D01*
X231034Y215264D01*
G37*
%LPD*%
%LPC*%
G36*
X21484Y215264D02*
X21484Y215264D01*
X14249Y218261D01*
X8711Y223799D01*
X5714Y231034D01*
X5714Y238866D01*
X8711Y246101D01*
X14249Y251639D01*
X21484Y254636D01*
X29316Y254636D01*
X36551Y251639D01*
X42089Y246101D01*
X45086Y238866D01*
X45086Y231034D01*
X42089Y223799D01*
X36551Y218261D01*
X29316Y215264D01*
X21484Y215264D01*
G37*
%LPD*%
%LPC*%
G36*
X21484Y5714D02*
X21484Y5714D01*
X14249Y8711D01*
X8711Y14249D01*
X5714Y21484D01*
X5714Y29316D01*
X8711Y36551D01*
X14249Y42089D01*
X21484Y45086D01*
X29316Y45086D01*
X36551Y42089D01*
X42089Y36551D01*
X45086Y29316D01*
X45086Y21484D01*
X42089Y14249D01*
X36551Y8711D01*
X29316Y5714D01*
X21484Y5714D01*
G37*
%LPD*%
%LPC*%
G36*
X231034Y5714D02*
X231034Y5714D01*
X223799Y8711D01*
X218261Y14249D01*
X215264Y21484D01*
X215264Y29316D01*
X218261Y36551D01*
X223799Y42089D01*
X231034Y45086D01*
X238866Y45086D01*
X246101Y42089D01*
X251639Y36551D01*
X254636Y29316D01*
X254636Y21484D01*
X251639Y14249D01*
X246101Y8711D01*
X238866Y5714D01*
X231034Y5714D01*
G37*
%LPD*%
%LPC*%
G36*
X192950Y175187D02*
X192950Y175187D01*
X192339Y175798D01*
X192265Y175851D01*
X192196Y175911D01*
X192166Y175923D01*
X192140Y175942D01*
X192053Y175969D01*
X191968Y176003D01*
X191927Y176007D01*
X191905Y176014D01*
X191872Y176013D01*
X191801Y176021D01*
X167568Y176021D01*
X167478Y176007D01*
X167387Y175999D01*
X167358Y175987D01*
X167326Y175982D01*
X167245Y175939D01*
X167161Y175903D01*
X167129Y175877D01*
X167108Y175866D01*
X167086Y175843D01*
X167030Y175798D01*
X166531Y175299D01*
X162145Y175299D01*
X159043Y178401D01*
X159043Y182787D01*
X162145Y185889D01*
X166531Y185889D01*
X167030Y185390D01*
X167104Y185337D01*
X167174Y185277D01*
X167204Y185265D01*
X167230Y185246D01*
X167317Y185219D01*
X167402Y185185D01*
X167443Y185181D01*
X167465Y185174D01*
X167497Y185175D01*
X167568Y185167D01*
X191296Y185167D01*
X191316Y185170D01*
X191335Y185168D01*
X191437Y185190D01*
X191539Y185206D01*
X191556Y185216D01*
X191576Y185220D01*
X191665Y185273D01*
X191756Y185322D01*
X191770Y185336D01*
X191787Y185346D01*
X191854Y185425D01*
X191926Y185500D01*
X191934Y185518D01*
X191947Y185533D01*
X191986Y185629D01*
X192029Y185723D01*
X192031Y185743D01*
X192039Y185761D01*
X192057Y185928D01*
X192057Y187344D01*
X192950Y188237D01*
X208214Y188237D01*
X209107Y187344D01*
X209107Y176080D01*
X208214Y175187D01*
X192950Y175187D01*
G37*
%LPD*%
G36*
X141752Y11942D02*
X141752Y11942D01*
X141771Y11940D01*
X141873Y11962D01*
X141975Y11979D01*
X141992Y11988D01*
X142012Y11992D01*
X142101Y12045D01*
X142192Y12094D01*
X142206Y12108D01*
X142223Y12118D01*
X142290Y12197D01*
X142362Y12272D01*
X142370Y12290D01*
X142383Y12305D01*
X142422Y12401D01*
X142465Y12495D01*
X142467Y12515D01*
X142475Y12533D01*
X142493Y12700D01*
X142493Y28194D01*
X142479Y28284D01*
X142471Y28375D01*
X142459Y28405D01*
X142454Y28437D01*
X142411Y28517D01*
X142375Y28601D01*
X142349Y28633D01*
X142338Y28654D01*
X142315Y28676D01*
X142270Y28732D01*
X133126Y37876D01*
X133110Y37888D01*
X133098Y37903D01*
X133010Y37960D01*
X132927Y38020D01*
X132908Y38026D01*
X132891Y38036D01*
X132790Y38062D01*
X132691Y38092D01*
X132672Y38092D01*
X132652Y38097D01*
X132549Y38089D01*
X132446Y38086D01*
X132427Y38079D01*
X132407Y38077D01*
X132312Y38037D01*
X132215Y38001D01*
X132199Y37989D01*
X132181Y37981D01*
X132050Y37876D01*
X122906Y28732D01*
X122853Y28658D01*
X122793Y28589D01*
X122781Y28559D01*
X122762Y28533D01*
X122735Y28446D01*
X122701Y28361D01*
X122697Y28320D01*
X122690Y28297D01*
X122691Y28265D01*
X122683Y28194D01*
X122683Y12700D01*
X122686Y12680D01*
X122684Y12661D01*
X122706Y12559D01*
X122723Y12457D01*
X122732Y12440D01*
X122736Y12420D01*
X122789Y12331D01*
X122838Y12240D01*
X122852Y12226D01*
X122862Y12209D01*
X122941Y12142D01*
X123016Y12071D01*
X123034Y12062D01*
X123049Y12049D01*
X123145Y12010D01*
X123239Y11967D01*
X123259Y11965D01*
X123277Y11957D01*
X123444Y11939D01*
X141732Y11939D01*
X141752Y11942D01*
G37*
G36*
X126531Y220992D02*
X126531Y220992D01*
X126634Y220994D01*
X126653Y221001D01*
X126673Y221003D01*
X126768Y221043D01*
X126865Y221079D01*
X126881Y221091D01*
X126899Y221099D01*
X127030Y221204D01*
X142778Y236952D01*
X142831Y237026D01*
X142891Y237095D01*
X142903Y237125D01*
X142922Y237151D01*
X142949Y237238D01*
X142983Y237323D01*
X142987Y237364D01*
X142994Y237387D01*
X142993Y237419D01*
X143001Y237490D01*
X143001Y246888D01*
X143000Y246898D01*
X143000Y246903D01*
X142995Y246928D01*
X142987Y246978D01*
X142979Y247069D01*
X142967Y247099D01*
X142962Y247131D01*
X142919Y247211D01*
X142883Y247295D01*
X142857Y247327D01*
X142846Y247348D01*
X142823Y247370D01*
X142778Y247426D01*
X141762Y248442D01*
X141688Y248495D01*
X141619Y248555D01*
X141589Y248567D01*
X141563Y248586D01*
X141476Y248613D01*
X141391Y248647D01*
X141350Y248651D01*
X141327Y248658D01*
X141295Y248657D01*
X141224Y248665D01*
X123444Y248665D01*
X123424Y248662D01*
X123405Y248664D01*
X123303Y248642D01*
X123201Y248626D01*
X123184Y248616D01*
X123164Y248612D01*
X123075Y248559D01*
X122984Y248510D01*
X122970Y248496D01*
X122953Y248486D01*
X122886Y248407D01*
X122815Y248332D01*
X122806Y248314D01*
X122793Y248299D01*
X122754Y248203D01*
X122711Y248109D01*
X122709Y248089D01*
X122701Y248071D01*
X122683Y247904D01*
X122683Y224790D01*
X122688Y224758D01*
X122687Y224748D01*
X122698Y224697D01*
X122705Y224609D01*
X122717Y224579D01*
X122723Y224547D01*
X122736Y224522D01*
X122739Y224507D01*
X122770Y224456D01*
X122801Y224383D01*
X122827Y224351D01*
X122838Y224330D01*
X122855Y224314D01*
X122865Y224296D01*
X122881Y224282D01*
X122906Y224252D01*
X125954Y221204D01*
X125970Y221192D01*
X125982Y221177D01*
X126070Y221120D01*
X126153Y221060D01*
X126172Y221054D01*
X126189Y221044D01*
X126290Y221018D01*
X126389Y220988D01*
X126408Y220988D01*
X126428Y220983D01*
X126531Y220992D01*
G37*
%LPC*%
G36*
X157694Y144271D02*
X157694Y144271D01*
X157619Y144346D01*
X157545Y144399D01*
X157475Y144459D01*
X157445Y144471D01*
X157419Y144490D01*
X157332Y144517D01*
X157247Y144551D01*
X157206Y144555D01*
X157184Y144562D01*
X157152Y144561D01*
X157081Y144569D01*
X151456Y144569D01*
X150563Y145462D01*
X150563Y152226D01*
X151456Y153119D01*
X157081Y153119D01*
X157171Y153133D01*
X157262Y153141D01*
X157291Y153153D01*
X157323Y153158D01*
X157404Y153201D01*
X157488Y153237D01*
X157520Y153263D01*
X157541Y153274D01*
X157563Y153297D01*
X157619Y153342D01*
X157694Y153417D01*
X169204Y153417D01*
X169224Y153420D01*
X169243Y153418D01*
X169345Y153440D01*
X169447Y153456D01*
X169464Y153466D01*
X169484Y153470D01*
X169573Y153523D01*
X169664Y153572D01*
X169678Y153586D01*
X169695Y153596D01*
X169762Y153675D01*
X169834Y153750D01*
X169842Y153768D01*
X169855Y153783D01*
X169894Y153879D01*
X169937Y153973D01*
X169939Y153993D01*
X169947Y154011D01*
X169965Y154178D01*
X169965Y155101D01*
X173067Y158203D01*
X177453Y158203D01*
X180555Y155101D01*
X180555Y150715D01*
X177250Y147411D01*
X177225Y147390D01*
X174106Y144271D01*
X157694Y144271D01*
G37*
%LPD*%
%LPC*%
G36*
X151456Y157269D02*
X151456Y157269D01*
X150563Y158162D01*
X150563Y164926D01*
X151456Y165819D01*
X167720Y165819D01*
X168613Y164926D01*
X168613Y158162D01*
X167720Y157269D01*
X151456Y157269D01*
G37*
%LPD*%
D10*
X125088Y104394D03*
X140088Y104394D03*
D11*
X159588Y123444D03*
X159588Y136144D03*
X159588Y148844D03*
X159588Y161544D03*
X105588Y161544D03*
X105588Y148844D03*
X105588Y136144D03*
X105588Y123444D03*
D12*
X159180Y96876D03*
X159180Y77876D03*
X181180Y87376D03*
X213282Y101194D03*
X213282Y82194D03*
X235282Y91694D03*
X200582Y181712D03*
X200582Y162712D03*
X222582Y172212D03*
D13*
X69088Y63494D03*
X69088Y94494D03*
X75438Y189744D03*
X75438Y158744D03*
X43688Y189744D03*
X43688Y158744D03*
D14*
X132588Y15494D03*
X107188Y15494D03*
X157988Y15494D03*
X132588Y244094D03*
X107188Y244094D03*
X157988Y244094D03*
D15*
X105664Y205994D03*
X159512Y205994D03*
D16*
X92456Y76824D03*
X92456Y91324D03*
D17*
X108204Y91948D03*
X117856Y86614D03*
X88646Y126238D03*
X89662Y116078D03*
X187198Y167386D03*
X187198Y157734D03*
X146304Y82804D03*
X146304Y72898D03*
X200660Y86614D03*
X200660Y77216D03*
X199898Y151384D03*
X213360Y70866D03*
X159004Y66548D03*
X147574Y171704D03*
X178816Y217424D03*
X178816Y204724D03*
X178816Y192024D03*
X215138Y115824D03*
X227838Y115824D03*
D18*
X186436Y92632D02*
X181180Y87376D01*
X186436Y92632D02*
X186436Y102108D01*
X200152Y115824D01*
X227838Y115824D01*
D17*
X215138Y128524D03*
X227838Y128524D03*
D18*
X215138Y128524D02*
X214884Y128270D01*
X215138Y128524D02*
X227838Y128524D01*
X240538Y96950D02*
X235282Y91694D01*
X240538Y96950D02*
X240538Y121158D01*
X233172Y128524D02*
X227838Y128524D01*
X233172Y128524D02*
X240538Y121158D01*
D17*
X215138Y140716D03*
X227838Y140716D03*
D18*
X227584Y140716D02*
X215138Y140716D01*
X222582Y148160D01*
X222582Y172212D01*
D17*
X51308Y117094D03*
X39878Y117094D03*
D18*
X69088Y104394D02*
X69088Y94494D01*
X69088Y104394D02*
X56388Y117094D01*
X51308Y117094D01*
X39878Y117094D01*
D19*
X159138Y123444D02*
X159588Y123444D01*
X159138Y123444D02*
X140088Y104394D01*
D20*
X107188Y207518D02*
X107188Y244094D01*
X107188Y207518D02*
X105664Y205994D01*
X69088Y63494D02*
X59188Y63494D01*
X11938Y110744D02*
X11938Y157994D01*
X11938Y110744D02*
X59188Y63494D01*
X69088Y63494D02*
X107188Y25394D01*
X107188Y15494D01*
D17*
X135890Y205486D03*
D19*
X135930Y205446D01*
X135930Y108552D01*
X140088Y104394D01*
D20*
X89414Y189744D02*
X105664Y205994D01*
X89414Y189744D02*
X75438Y189744D01*
X43688Y189744D01*
X11938Y157994D01*
D17*
X51308Y128524D03*
X39878Y128524D03*
D18*
X51308Y128524D01*
X75438Y140208D02*
X75438Y158744D01*
X75438Y140208D02*
X63754Y128524D01*
X51308Y128524D01*
D17*
X51308Y141224D03*
X39878Y141224D03*
D18*
X51308Y141224D01*
X43688Y145034D02*
X43688Y158744D01*
X43688Y145034D02*
X39878Y141224D01*
D19*
X94626Y76824D02*
X132588Y38862D01*
X94626Y76824D02*
X92456Y76824D01*
X132588Y38862D02*
X132588Y15494D01*
X119888Y148844D02*
X105588Y148844D01*
X119888Y148844D02*
X126238Y155194D01*
X126238Y237744D01*
X132588Y244094D01*
X107188Y163144D02*
X105588Y161544D01*
X107188Y163144D02*
X107188Y174244D01*
D17*
X107188Y174244D03*
X164338Y180594D03*
D19*
X199464Y180594D01*
X200582Y181712D01*
X172212Y148844D02*
X159588Y148844D01*
X172212Y148844D02*
X175260Y151892D01*
X175260Y152908D01*
D17*
X175260Y152908D03*
X200112Y101472D03*
D19*
X200390Y101194D01*
X213282Y101194D01*
X169418Y136144D02*
X159588Y136144D01*
X169418Y136144D02*
X172466Y133096D01*
X172466Y117602D01*
X159180Y104316D02*
X159180Y96876D01*
X159180Y104316D02*
X172466Y117602D01*
X105588Y136144D02*
X85344Y136144D01*
X76200Y127000D01*
X76200Y115200D01*
X92456Y98944D02*
X92456Y91324D01*
X92456Y98944D02*
X76200Y115200D01*
M02*
