M48
;GenerationSoftware,Autodesk,EAGLE,9.6.1*%
;CreationDate,2020-07-15T18:26:30Z*%
FMAT,2
ICI,OFF
METRIC,TZ,000.000
T3C0.300
T2C0.400
%
G90
M71
T2
X35878Y3810
X58102Y3810
X58102Y6350
X56197Y3810
X53657Y3810
X51117Y3810
X48577Y3810
X46037Y3810
X43498Y3810
X40958Y3810
X38418Y3810
X5398Y762
X33338Y3810
X30797Y3810
X28257Y3810
X25717Y3810
X23177Y3810
X20638Y3810
X18098Y3810
X15557Y3810
X13017Y3810
X10478Y3810
X33338Y762
X58102Y762
X56197Y762
X53657Y762
X51117Y762
X48577Y762
X46037Y762
X43498Y762
X40958Y762
X38418Y762
X35878Y762
X7937Y9398
X30797Y762
X28257Y762
X25717Y762
X23177Y762
X20638Y762
X18098Y762
X15557Y762
X13017Y762
X10478Y762
X7937Y762
X33338Y9398
X58102Y9398
X56197Y9398
X53657Y9398
X51117Y9398
X48577Y9398
X46037Y9398
X43498Y9398
X40958Y9398
X38418Y9398
X35878Y9398
X5398Y3810
X30797Y9398
X28257Y9398
X25717Y9398
X23177Y9398
X20638Y9398
X18098Y9398
X15557Y9398
X13017Y9398
X10478Y9398
X5398Y9398
X7937Y6350
X5398Y6350
X7937Y3810
X56197Y6350
X53657Y6350
X51117Y6350
X48577Y6350
X46037Y6350
X43498Y6350
X40958Y6350
X38418Y6350
X35878Y6350
X30797Y6350
X28257Y6350
X25717Y6350
X23177Y6350
X20638Y6350
X18098Y6350
X15557Y6350
X13017Y6350
X10478Y6350
X33338Y6350
T3
X1143Y6731
X1143Y3429
X3683Y6731
X3683Y3429
X1143Y1143
X3683Y1143
X1143Y9017
X3683Y9017
X2413Y9017
X2413Y1143
X2413Y3429
X2413Y6731
X61087Y3429
X61087Y6731
X61087Y9017
X61087Y1143
X59817Y1143
X62357Y1143
X59817Y9017
X62357Y9017
X59817Y6731
X59817Y3429
X62357Y6731
X62357Y3429
M30