M48
;GenerationSoftware,Autodesk,EAGLE,9.4.2*%
;CreationDate,2019-08-15T16:36:33Z*%
FMAT,2
ICI,OFF
METRIC,TZ,000.000
T5C0.300
T4C0.350
T3C0.450
T2C1.000
%
G90
M71
T2
X19685Y6985
X24765Y22225
X24765Y14605
X24765Y12065
X24765Y9525
X6985Y17145
X6985Y19685
X6985Y22225
X6985Y14605
X6985Y12065
X6985Y9525
X14605Y6985
X12065Y6985
X9525Y6985
X6985Y6985
X17145Y6985
X24765Y19685
X22225Y6985
X24765Y6985
X9525Y24765
X6985Y24765
X12065Y24765
X1905Y6985
X1905Y4445
X4445Y1905
X1905Y1905
X6985Y1905
X29845Y6985
X29845Y4445
X27305Y1905
X24765Y1905
X29845Y1905
X24765Y17145
X14605Y24765
X17145Y24765
X24765Y24765
X22225Y24765
X19685Y24765
T3
X9525Y14859
X9525Y17145
X22098Y17907
X13589Y21209
X22098Y14859
X17145Y9906
X11303Y19304
X22987Y16891
X18542Y18415
X13208Y18669
X18542Y13335
X13335Y13081
X9906Y13843
X18288Y10922
X21082Y18796
T4
X10414Y20193
X9398Y20193
X16190Y21336
X15621Y20574
X13335Y19685
X12319Y18034
T5
X14986Y14986
X16764Y14986
X16764Y16764
X14986Y16764
M30