G04 EAGLE Gerber RS-274X export*
G75*
%MOMM*%
%FSLAX34Y34*%
%LPD*%
%INTop Copper Layer*%
%IPPOS*%
%AMOC8*
5,1,8,0,0,1.08239X$1,22.5*%
G01*
%ADD10R,0.600000X0.700000*%
%ADD11R,0.700000X0.600000*%
%ADD12R,0.600000X0.240000*%
%ADD13C,0.240000*%
%ADD14R,0.240000X0.600000*%
%ADD15C,0.405000*%
%ADD16P,2.089446X8X202.500000*%
%ADD17P,1.924489X8X292.500000*%
%ADD18P,1.924489X8X22.500000*%
%ADD19P,2.089446X8X22.500000*%
%ADD20R,1.600000X0.900000*%
%ADD21P,2.089446X8X112.500000*%
%ADD22C,0.704000*%
%ADD23C,0.554000*%
%ADD24C,0.604000*%
%ADD25C,0.254000*%
%ADD26C,0.228600*%
%ADD27C,1.016000*%
%ADD28C,0.406400*%

G36*
X313120Y3822D02*
X313120Y3822D01*
X313186Y3824D01*
X313229Y3842D01*
X313276Y3850D01*
X313333Y3884D01*
X313393Y3909D01*
X313428Y3940D01*
X313469Y3965D01*
X313511Y4016D01*
X313559Y4060D01*
X313581Y4102D01*
X313610Y4139D01*
X313631Y4201D01*
X313662Y4260D01*
X313670Y4314D01*
X313682Y4351D01*
X313681Y4391D01*
X313689Y4445D01*
X313689Y300355D01*
X313678Y300420D01*
X313676Y300486D01*
X313658Y300529D01*
X313650Y300576D01*
X313616Y300633D01*
X313591Y300693D01*
X313560Y300728D01*
X313535Y300769D01*
X313484Y300811D01*
X313440Y300859D01*
X313398Y300881D01*
X313361Y300910D01*
X313299Y300931D01*
X313240Y300962D01*
X313186Y300970D01*
X313149Y300982D01*
X313109Y300981D01*
X313055Y300989D01*
X4445Y300989D01*
X4380Y300978D01*
X4314Y300976D01*
X4271Y300958D01*
X4224Y300950D01*
X4167Y300916D01*
X4107Y300891D01*
X4072Y300860D01*
X4031Y300835D01*
X3989Y300784D01*
X3941Y300740D01*
X3919Y300698D01*
X3890Y300661D01*
X3869Y300599D01*
X3838Y300540D01*
X3830Y300486D01*
X3818Y300449D01*
X3819Y300409D01*
X3811Y300355D01*
X3811Y4445D01*
X3822Y4380D01*
X3824Y4314D01*
X3842Y4271D01*
X3850Y4224D01*
X3884Y4167D01*
X3909Y4107D01*
X3940Y4072D01*
X3965Y4031D01*
X4016Y3989D01*
X4060Y3941D01*
X4102Y3919D01*
X4139Y3890D01*
X4201Y3869D01*
X4260Y3838D01*
X4314Y3830D01*
X4351Y3818D01*
X4391Y3819D01*
X4445Y3811D01*
X313055Y3811D01*
X313120Y3822D01*
G37*
%LPC*%
G36*
X49486Y44195D02*
X49486Y44195D01*
X47059Y45201D01*
X45201Y47059D01*
X44195Y49486D01*
X44195Y229914D01*
X45201Y232341D01*
X47148Y234288D01*
X58487Y245628D01*
X58512Y245663D01*
X58543Y245691D01*
X58575Y245754D01*
X58616Y245812D01*
X58626Y245853D01*
X58646Y245891D01*
X58658Y245977D01*
X58666Y246001D01*
X58666Y246008D01*
X58672Y246029D01*
X58669Y246050D01*
X58673Y246076D01*
X58673Y252280D01*
X65220Y258827D01*
X71424Y258827D01*
X71465Y258834D01*
X71508Y258832D01*
X71575Y258854D01*
X71644Y258866D01*
X71681Y258888D01*
X71721Y258901D01*
X71794Y258955D01*
X71838Y258981D01*
X71851Y258997D01*
X71872Y259013D01*
X85159Y272299D01*
X87586Y273305D01*
X268014Y273305D01*
X270441Y272299D01*
X272299Y270441D01*
X273305Y268014D01*
X273305Y49486D01*
X272299Y47059D01*
X270441Y45201D01*
X268014Y44195D01*
X49486Y44195D01*
G37*
%LPD*%
G36*
X230824Y57416D02*
X230824Y57416D01*
X230890Y57418D01*
X230933Y57436D01*
X230980Y57444D01*
X231037Y57478D01*
X231097Y57503D01*
X231132Y57534D01*
X231173Y57559D01*
X231215Y57610D01*
X231263Y57654D01*
X231285Y57696D01*
X231314Y57733D01*
X231335Y57795D01*
X231366Y57854D01*
X231374Y57908D01*
X231386Y57945D01*
X231385Y57985D01*
X231393Y58039D01*
X231393Y62733D01*
X231377Y62821D01*
X231368Y62910D01*
X231358Y62931D01*
X231354Y62954D01*
X231308Y63031D01*
X231269Y63111D01*
X231252Y63127D01*
X231239Y63147D01*
X231170Y63204D01*
X231106Y63265D01*
X231084Y63274D01*
X231065Y63289D01*
X230981Y63317D01*
X230899Y63352D01*
X230875Y63353D01*
X230853Y63361D01*
X230764Y63358D01*
X230675Y63362D01*
X230652Y63355D01*
X230628Y63354D01*
X230546Y63321D01*
X230461Y63293D01*
X230440Y63278D01*
X230421Y63270D01*
X230383Y63236D01*
X230311Y63182D01*
X226564Y59435D01*
X217936Y59435D01*
X211835Y65536D01*
X211835Y74164D01*
X212551Y74879D01*
X212588Y74934D01*
X212634Y74981D01*
X212652Y75025D01*
X212679Y75064D01*
X212695Y75127D01*
X212721Y75188D01*
X212723Y75235D01*
X212735Y75281D01*
X212728Y75346D01*
X212731Y75412D01*
X212717Y75457D01*
X212712Y75504D01*
X212683Y75563D01*
X212662Y75626D01*
X212630Y75670D01*
X212612Y75705D01*
X212583Y75732D01*
X212551Y75776D01*
X198471Y89856D01*
X198436Y89881D01*
X198407Y89912D01*
X198344Y89944D01*
X198287Y89985D01*
X198245Y89995D01*
X198208Y90015D01*
X198118Y90028D01*
X198069Y90041D01*
X198048Y90038D01*
X198022Y90042D01*
X181962Y90042D01*
X181874Y90026D01*
X181786Y90017D01*
X181764Y90007D01*
X181741Y90003D01*
X181664Y89957D01*
X181584Y89918D01*
X181568Y89901D01*
X181548Y89888D01*
X181492Y89819D01*
X181430Y89755D01*
X181421Y89733D01*
X181406Y89714D01*
X181378Y89630D01*
X181343Y89548D01*
X181342Y89524D01*
X181334Y89502D01*
X181337Y89413D01*
X181333Y89324D01*
X181340Y89301D01*
X181341Y89277D01*
X181374Y89195D01*
X181402Y89110D01*
X181417Y89089D01*
X181425Y89070D01*
X181459Y89032D01*
X181513Y88960D01*
X190924Y79549D01*
X190978Y79512D01*
X191025Y79466D01*
X191069Y79448D01*
X191108Y79421D01*
X191171Y79405D01*
X191232Y79379D01*
X191279Y79377D01*
X191325Y79365D01*
X191390Y79372D01*
X191456Y79369D01*
X191501Y79383D01*
X191548Y79388D01*
X191607Y79418D01*
X191670Y79438D01*
X191714Y79470D01*
X191749Y79488D01*
X191776Y79516D01*
X191821Y79549D01*
X192536Y80265D01*
X201164Y80265D01*
X207265Y74164D01*
X207265Y65536D01*
X201164Y59435D01*
X192536Y59435D01*
X186435Y65536D01*
X186435Y74164D01*
X187151Y74879D01*
X187188Y74934D01*
X187234Y74981D01*
X187252Y75025D01*
X187279Y75064D01*
X187295Y75127D01*
X187321Y75188D01*
X187323Y75235D01*
X187335Y75281D01*
X187328Y75346D01*
X187331Y75412D01*
X187317Y75457D01*
X187312Y75504D01*
X187283Y75563D01*
X187262Y75626D01*
X187230Y75670D01*
X187212Y75705D01*
X187183Y75732D01*
X187151Y75776D01*
X176881Y86046D01*
X176846Y86071D01*
X176817Y86102D01*
X176754Y86134D01*
X176697Y86175D01*
X176655Y86185D01*
X176618Y86205D01*
X176528Y86218D01*
X176479Y86231D01*
X176458Y86228D01*
X176432Y86232D01*
X173072Y86232D01*
X172984Y86216D01*
X172895Y86207D01*
X172874Y86197D01*
X172851Y86193D01*
X172774Y86147D01*
X172694Y86108D01*
X172678Y86091D01*
X172658Y86078D01*
X172601Y86009D01*
X172540Y85945D01*
X172531Y85923D01*
X172516Y85904D01*
X172488Y85820D01*
X172453Y85738D01*
X172452Y85714D01*
X172444Y85692D01*
X172447Y85603D01*
X172443Y85514D01*
X172450Y85491D01*
X172451Y85467D01*
X172484Y85385D01*
X172512Y85300D01*
X172527Y85279D01*
X172535Y85260D01*
X172569Y85222D01*
X172623Y85150D01*
X174118Y83655D01*
X174118Y80899D01*
X174129Y80834D01*
X174131Y80768D01*
X174149Y80725D01*
X174157Y80678D01*
X174191Y80621D01*
X174216Y80561D01*
X174247Y80526D01*
X174272Y80485D01*
X174323Y80443D01*
X174367Y80395D01*
X174409Y80373D01*
X174446Y80344D01*
X174508Y80323D01*
X174567Y80292D01*
X174621Y80284D01*
X174658Y80272D01*
X174698Y80273D01*
X174752Y80265D01*
X175764Y80265D01*
X181865Y74164D01*
X181865Y65536D01*
X175764Y59435D01*
X167136Y59435D01*
X161035Y65536D01*
X161035Y74164D01*
X167136Y80265D01*
X168148Y80265D01*
X168213Y80276D01*
X168279Y80278D01*
X168322Y80296D01*
X168369Y80304D01*
X168426Y80338D01*
X168486Y80363D01*
X168521Y80394D01*
X168562Y80419D01*
X168604Y80470D01*
X168652Y80514D01*
X168674Y80556D01*
X168703Y80593D01*
X168724Y80655D01*
X168755Y80714D01*
X168763Y80768D01*
X168775Y80805D01*
X168774Y80845D01*
X168782Y80899D01*
X168782Y81182D01*
X168775Y81224D01*
X168777Y81266D01*
X168762Y81312D01*
X168762Y81320D01*
X168754Y81338D01*
X168743Y81403D01*
X168721Y81440D01*
X168708Y81480D01*
X168683Y81514D01*
X168677Y81528D01*
X168654Y81554D01*
X168628Y81596D01*
X168612Y81610D01*
X168596Y81631D01*
X167991Y82236D01*
X167956Y82261D01*
X167927Y82292D01*
X167864Y82324D01*
X167807Y82365D01*
X167765Y82375D01*
X167728Y82395D01*
X167638Y82408D01*
X167589Y82421D01*
X167568Y82418D01*
X167542Y82422D01*
X163379Y82422D01*
X161630Y84171D01*
X155291Y90510D01*
X155000Y90800D01*
X154927Y90851D01*
X154858Y90907D01*
X154836Y90915D01*
X154816Y90929D01*
X154730Y90951D01*
X154646Y90979D01*
X154622Y90979D01*
X154599Y90984D01*
X154510Y90975D01*
X154421Y90973D01*
X154400Y90964D01*
X154376Y90961D01*
X154296Y90922D01*
X154214Y90888D01*
X154196Y90872D01*
X154175Y90862D01*
X154114Y90797D01*
X154048Y90737D01*
X154037Y90716D01*
X154021Y90699D01*
X153986Y90617D01*
X153945Y90537D01*
X153942Y90511D01*
X153933Y90492D01*
X153931Y90442D01*
X153918Y90352D01*
X153918Y76974D01*
X153925Y76932D01*
X153923Y76889D01*
X153945Y76822D01*
X153957Y76753D01*
X153979Y76716D01*
X153992Y76676D01*
X154046Y76603D01*
X154072Y76560D01*
X154088Y76546D01*
X154104Y76525D01*
X156465Y74164D01*
X156465Y65536D01*
X150364Y59435D01*
X141736Y59435D01*
X135635Y65536D01*
X135635Y74164D01*
X141736Y80265D01*
X147948Y80265D01*
X148013Y80276D01*
X148079Y80278D01*
X148122Y80296D01*
X148169Y80304D01*
X148226Y80338D01*
X148286Y80363D01*
X148321Y80394D01*
X148362Y80419D01*
X148404Y80470D01*
X148452Y80514D01*
X148474Y80556D01*
X148503Y80593D01*
X148524Y80655D01*
X148555Y80714D01*
X148563Y80768D01*
X148575Y80805D01*
X148574Y80845D01*
X148582Y80899D01*
X148582Y92478D01*
X148566Y92566D01*
X148557Y92654D01*
X148547Y92676D01*
X148543Y92699D01*
X148497Y92776D01*
X148458Y92856D01*
X148441Y92872D01*
X148428Y92892D01*
X148359Y92948D01*
X148295Y93010D01*
X148273Y93019D01*
X148254Y93034D01*
X148170Y93062D01*
X148088Y93097D01*
X148064Y93098D01*
X148042Y93106D01*
X147953Y93103D01*
X147864Y93107D01*
X147841Y93100D01*
X147817Y93099D01*
X147735Y93066D01*
X147650Y93038D01*
X147629Y93023D01*
X147610Y93015D01*
X147572Y92981D01*
X147500Y92927D01*
X130349Y75776D01*
X130312Y75722D01*
X130266Y75675D01*
X130248Y75631D01*
X130221Y75592D01*
X130205Y75529D01*
X130179Y75468D01*
X130177Y75421D01*
X130165Y75375D01*
X130172Y75310D01*
X130169Y75244D01*
X130183Y75199D01*
X130188Y75152D01*
X130218Y75093D01*
X130238Y75030D01*
X130270Y74986D01*
X130288Y74951D01*
X130316Y74924D01*
X130349Y74879D01*
X131065Y74164D01*
X131065Y65536D01*
X124964Y59435D01*
X116336Y59435D01*
X110235Y65536D01*
X110235Y74164D01*
X116336Y80265D01*
X124964Y80265D01*
X125679Y79549D01*
X125734Y79512D01*
X125781Y79466D01*
X125825Y79448D01*
X125864Y79421D01*
X125927Y79405D01*
X125988Y79379D01*
X126035Y79377D01*
X126081Y79365D01*
X126146Y79372D01*
X126212Y79369D01*
X126257Y79383D01*
X126304Y79388D01*
X126363Y79417D01*
X126426Y79438D01*
X126470Y79470D01*
X126505Y79488D01*
X126532Y79517D01*
X126576Y79549D01*
X143396Y96369D01*
X143421Y96404D01*
X143452Y96433D01*
X143484Y96496D01*
X143525Y96553D01*
X143535Y96595D01*
X143555Y96632D01*
X143568Y96722D01*
X143581Y96771D01*
X143578Y96792D01*
X143582Y96818D01*
X143582Y112878D01*
X143566Y112966D01*
X143557Y113054D01*
X143547Y113076D01*
X143543Y113099D01*
X143497Y113176D01*
X143458Y113256D01*
X143441Y113272D01*
X143428Y113292D01*
X143359Y113348D01*
X143295Y113410D01*
X143273Y113419D01*
X143254Y113434D01*
X143170Y113462D01*
X143088Y113497D01*
X143064Y113498D01*
X143042Y113506D01*
X142953Y113503D01*
X142864Y113507D01*
X142841Y113500D01*
X142817Y113499D01*
X142735Y113466D01*
X142650Y113438D01*
X142629Y113423D01*
X142610Y113415D01*
X142572Y113381D01*
X142500Y113327D01*
X104949Y75776D01*
X104912Y75722D01*
X104866Y75675D01*
X104848Y75631D01*
X104821Y75592D01*
X104805Y75529D01*
X104779Y75468D01*
X104777Y75421D01*
X104765Y75375D01*
X104772Y75310D01*
X104769Y75244D01*
X104783Y75199D01*
X104788Y75152D01*
X104818Y75093D01*
X104838Y75030D01*
X104870Y74986D01*
X104888Y74951D01*
X104916Y74924D01*
X104949Y74879D01*
X105665Y74164D01*
X105665Y65536D01*
X99564Y59435D01*
X90936Y59435D01*
X84835Y65536D01*
X84835Y74164D01*
X90936Y80265D01*
X99564Y80265D01*
X100279Y79549D01*
X100334Y79512D01*
X100381Y79466D01*
X100425Y79448D01*
X100464Y79421D01*
X100527Y79405D01*
X100588Y79379D01*
X100635Y79377D01*
X100681Y79365D01*
X100746Y79372D01*
X100812Y79369D01*
X100857Y79383D01*
X100904Y79388D01*
X100963Y79417D01*
X101026Y79438D01*
X101070Y79470D01*
X101105Y79488D01*
X101132Y79517D01*
X101176Y79549D01*
X138396Y116769D01*
X138421Y116804D01*
X138452Y116833D01*
X138484Y116896D01*
X138525Y116953D01*
X138535Y116995D01*
X138555Y117032D01*
X138568Y117122D01*
X138581Y117171D01*
X138578Y117192D01*
X138582Y117218D01*
X138582Y128861D01*
X138575Y128903D01*
X138577Y128945D01*
X138555Y129012D01*
X138543Y129082D01*
X138525Y129111D01*
X138525Y137254D01*
X140121Y138850D01*
X142379Y138850D01*
X143302Y137927D01*
X143356Y137889D01*
X143403Y137844D01*
X143447Y137826D01*
X143486Y137799D01*
X143549Y137782D01*
X143610Y137757D01*
X143657Y137755D01*
X143703Y137743D01*
X143768Y137750D01*
X143834Y137747D01*
X143879Y137761D01*
X143926Y137766D01*
X143985Y137795D01*
X144048Y137815D01*
X144092Y137848D01*
X144127Y137865D01*
X144154Y137894D01*
X144199Y137927D01*
X145121Y138850D01*
X147379Y138850D01*
X148302Y137927D01*
X148356Y137889D01*
X148403Y137844D01*
X148447Y137826D01*
X148486Y137799D01*
X148549Y137782D01*
X148610Y137757D01*
X148657Y137755D01*
X148703Y137743D01*
X148768Y137750D01*
X148834Y137747D01*
X148879Y137761D01*
X148926Y137766D01*
X148985Y137795D01*
X149048Y137815D01*
X149092Y137848D01*
X149127Y137865D01*
X149154Y137894D01*
X149199Y137927D01*
X150121Y138850D01*
X152379Y138850D01*
X153302Y137927D01*
X153356Y137889D01*
X153403Y137844D01*
X153447Y137826D01*
X153486Y137799D01*
X153549Y137782D01*
X153610Y137757D01*
X153657Y137755D01*
X153703Y137743D01*
X153768Y137750D01*
X153834Y137747D01*
X153879Y137761D01*
X153926Y137766D01*
X153985Y137795D01*
X154048Y137815D01*
X154092Y137848D01*
X154127Y137865D01*
X154154Y137894D01*
X154199Y137927D01*
X155121Y138850D01*
X157379Y138850D01*
X158302Y137927D01*
X158356Y137889D01*
X158403Y137844D01*
X158447Y137826D01*
X158486Y137799D01*
X158549Y137782D01*
X158610Y137757D01*
X158657Y137755D01*
X158703Y137743D01*
X158768Y137750D01*
X158834Y137747D01*
X158879Y137761D01*
X158926Y137766D01*
X158985Y137795D01*
X159048Y137815D01*
X159092Y137848D01*
X159127Y137865D01*
X159154Y137894D01*
X159199Y137927D01*
X160121Y138850D01*
X162379Y138850D01*
X163301Y137927D01*
X163356Y137889D01*
X163403Y137844D01*
X163447Y137826D01*
X163486Y137799D01*
X163549Y137782D01*
X163610Y137757D01*
X163657Y137755D01*
X163703Y137743D01*
X163768Y137750D01*
X163834Y137747D01*
X163879Y137761D01*
X163926Y137766D01*
X163985Y137795D01*
X164048Y137815D01*
X164092Y137848D01*
X164127Y137865D01*
X164154Y137894D01*
X164198Y137927D01*
X165121Y138850D01*
X167379Y138850D01*
X168301Y137927D01*
X168356Y137889D01*
X168403Y137844D01*
X168447Y137826D01*
X168486Y137799D01*
X168549Y137782D01*
X168610Y137757D01*
X168657Y137755D01*
X168703Y137743D01*
X168768Y137750D01*
X168834Y137747D01*
X168879Y137761D01*
X168926Y137766D01*
X168985Y137795D01*
X169048Y137815D01*
X169092Y137848D01*
X169127Y137865D01*
X169154Y137894D01*
X169198Y137927D01*
X170121Y138850D01*
X172379Y138850D01*
X173301Y137927D01*
X173356Y137889D01*
X173403Y137844D01*
X173447Y137826D01*
X173486Y137799D01*
X173549Y137782D01*
X173610Y137757D01*
X173657Y137755D01*
X173703Y137743D01*
X173768Y137750D01*
X173834Y137747D01*
X173879Y137761D01*
X173926Y137766D01*
X173985Y137795D01*
X174048Y137815D01*
X174092Y137848D01*
X174127Y137865D01*
X174154Y137894D01*
X174198Y137927D01*
X175121Y138850D01*
X177379Y138850D01*
X178975Y137254D01*
X178975Y130302D01*
X178986Y130237D01*
X178988Y130171D01*
X179006Y130128D01*
X179014Y130081D01*
X179048Y130024D01*
X179073Y129964D01*
X179104Y129929D01*
X179129Y129888D01*
X179180Y129846D01*
X179224Y129798D01*
X179266Y129776D01*
X179303Y129747D01*
X179365Y129726D01*
X179424Y129695D01*
X179478Y129687D01*
X179515Y129675D01*
X179555Y129676D01*
X179609Y129668D01*
X201578Y129668D01*
X201666Y129684D01*
X201755Y129693D01*
X201776Y129703D01*
X201799Y129707D01*
X201876Y129753D01*
X201956Y129792D01*
X201972Y129809D01*
X201992Y129822D01*
X202048Y129891D01*
X202110Y129955D01*
X202119Y129977D01*
X202134Y129996D01*
X202162Y130080D01*
X202197Y130162D01*
X202198Y130186D01*
X202206Y130208D01*
X202203Y130297D01*
X202207Y130386D01*
X202200Y130409D01*
X202199Y130433D01*
X202166Y130515D01*
X202138Y130600D01*
X202123Y130621D01*
X202115Y130640D01*
X202081Y130678D01*
X202027Y130750D01*
X194381Y138396D01*
X194346Y138421D01*
X194317Y138452D01*
X194254Y138484D01*
X194197Y138525D01*
X194155Y138535D01*
X194118Y138555D01*
X194028Y138568D01*
X193979Y138581D01*
X193958Y138578D01*
X193932Y138582D01*
X188639Y138582D01*
X188597Y138575D01*
X188555Y138577D01*
X188488Y138555D01*
X188418Y138543D01*
X188389Y138525D01*
X180496Y138525D01*
X178900Y140121D01*
X178900Y142379D01*
X179823Y143302D01*
X179861Y143356D01*
X179906Y143403D01*
X179924Y143447D01*
X179951Y143486D01*
X179968Y143549D01*
X179993Y143610D01*
X179995Y143657D01*
X180007Y143703D01*
X180000Y143768D01*
X180003Y143834D01*
X179989Y143879D01*
X179984Y143926D01*
X179955Y143985D01*
X179935Y144048D01*
X179902Y144092D01*
X179885Y144127D01*
X179856Y144154D01*
X179823Y144199D01*
X178900Y145121D01*
X178900Y147379D01*
X179823Y148302D01*
X179861Y148356D01*
X179906Y148403D01*
X179924Y148447D01*
X179951Y148486D01*
X179968Y148549D01*
X179993Y148610D01*
X179995Y148657D01*
X180007Y148703D01*
X180000Y148768D01*
X180003Y148834D01*
X179989Y148879D01*
X179984Y148926D01*
X179955Y148985D01*
X179935Y149048D01*
X179902Y149092D01*
X179885Y149127D01*
X179856Y149154D01*
X179823Y149199D01*
X178900Y150121D01*
X178900Y152379D01*
X179823Y153302D01*
X179861Y153356D01*
X179906Y153403D01*
X179924Y153447D01*
X179951Y153486D01*
X179968Y153549D01*
X179993Y153610D01*
X179995Y153657D01*
X180007Y153703D01*
X180000Y153768D01*
X180003Y153834D01*
X179989Y153879D01*
X179984Y153926D01*
X179955Y153985D01*
X179935Y154048D01*
X179902Y154092D01*
X179885Y154127D01*
X179856Y154154D01*
X179823Y154199D01*
X178900Y155121D01*
X178900Y157379D01*
X179823Y158302D01*
X179861Y158356D01*
X179906Y158403D01*
X179924Y158447D01*
X179951Y158486D01*
X179968Y158549D01*
X179993Y158610D01*
X179995Y158657D01*
X180007Y158703D01*
X180000Y158768D01*
X180003Y158834D01*
X179989Y158879D01*
X179984Y158926D01*
X179955Y158985D01*
X179935Y159048D01*
X179902Y159092D01*
X179885Y159127D01*
X179856Y159154D01*
X179823Y159199D01*
X178900Y160121D01*
X178900Y162379D01*
X179823Y163301D01*
X179861Y163356D01*
X179906Y163403D01*
X179924Y163447D01*
X179951Y163486D01*
X179968Y163549D01*
X179993Y163610D01*
X179995Y163657D01*
X180007Y163703D01*
X180000Y163768D01*
X180003Y163834D01*
X179989Y163879D01*
X179984Y163926D01*
X179955Y163985D01*
X179935Y164048D01*
X179902Y164092D01*
X179885Y164127D01*
X179856Y164154D01*
X179823Y164198D01*
X178900Y165121D01*
X178900Y167379D01*
X179823Y168301D01*
X179861Y168356D01*
X179906Y168403D01*
X179924Y168447D01*
X179951Y168486D01*
X179968Y168549D01*
X179993Y168610D01*
X179995Y168657D01*
X180007Y168703D01*
X180000Y168768D01*
X180003Y168834D01*
X179989Y168879D01*
X179984Y168926D01*
X179955Y168985D01*
X179935Y169048D01*
X179902Y169092D01*
X179885Y169127D01*
X179856Y169154D01*
X179823Y169198D01*
X178900Y170121D01*
X178900Y172379D01*
X179823Y173302D01*
X179861Y173356D01*
X179906Y173403D01*
X179924Y173447D01*
X179951Y173486D01*
X179968Y173549D01*
X179993Y173610D01*
X179995Y173657D01*
X180007Y173703D01*
X180000Y173768D01*
X180003Y173834D01*
X179989Y173879D01*
X179984Y173926D01*
X179955Y173985D01*
X179935Y174048D01*
X179902Y174092D01*
X179885Y174127D01*
X179856Y174154D01*
X179823Y174199D01*
X178900Y175121D01*
X178900Y177379D01*
X180496Y178975D01*
X188378Y178975D01*
X188416Y178965D01*
X188454Y178945D01*
X188544Y178932D01*
X188592Y178919D01*
X188613Y178922D01*
X188639Y178918D01*
X195581Y178918D01*
X195646Y178929D01*
X195712Y178931D01*
X195755Y178949D01*
X195802Y178957D01*
X195859Y178991D01*
X195919Y179016D01*
X195954Y179047D01*
X195995Y179072D01*
X196037Y179123D01*
X196085Y179167D01*
X196107Y179209D01*
X196136Y179246D01*
X196157Y179308D01*
X196188Y179367D01*
X196196Y179421D01*
X196208Y179458D01*
X196207Y179498D01*
X196215Y179552D01*
X196215Y181932D01*
X196997Y182714D01*
X197022Y182749D01*
X197053Y182777D01*
X197085Y182840D01*
X197126Y182898D01*
X197136Y182939D01*
X197156Y182977D01*
X197169Y183067D01*
X197182Y183115D01*
X197179Y183136D01*
X197183Y183162D01*
X197183Y195863D01*
X214427Y213107D01*
X240533Y213107D01*
X240621Y213123D01*
X240710Y213132D01*
X240731Y213142D01*
X240754Y213146D01*
X240831Y213192D01*
X240911Y213231D01*
X240927Y213248D01*
X240947Y213261D01*
X241004Y213330D01*
X241065Y213394D01*
X241074Y213416D01*
X241089Y213435D01*
X241117Y213519D01*
X241152Y213601D01*
X241153Y213625D01*
X241161Y213647D01*
X241158Y213736D01*
X241162Y213825D01*
X241155Y213848D01*
X241154Y213872D01*
X241121Y213954D01*
X241093Y214039D01*
X241078Y214060D01*
X241070Y214079D01*
X241036Y214117D01*
X240982Y214189D01*
X237235Y217936D01*
X237235Y218948D01*
X237224Y219013D01*
X237222Y219079D01*
X237204Y219122D01*
X237196Y219169D01*
X237162Y219226D01*
X237137Y219286D01*
X237106Y219321D01*
X237081Y219362D01*
X237030Y219404D01*
X236986Y219452D01*
X236944Y219474D01*
X236907Y219503D01*
X236845Y219524D01*
X236786Y219555D01*
X236732Y219563D01*
X236695Y219575D01*
X236655Y219574D01*
X236601Y219582D01*
X212188Y219582D01*
X212146Y219575D01*
X212104Y219577D01*
X212036Y219555D01*
X211967Y219543D01*
X211930Y219521D01*
X211890Y219508D01*
X211817Y219454D01*
X211774Y219428D01*
X211760Y219412D01*
X211739Y219396D01*
X179161Y186818D01*
X179136Y186783D01*
X179105Y186754D01*
X179073Y186691D01*
X179032Y186634D01*
X179022Y186592D01*
X179002Y186555D01*
X178989Y186465D01*
X178976Y186416D01*
X178979Y186396D01*
X178975Y186369D01*
X178975Y180246D01*
X177379Y178650D01*
X175121Y178650D01*
X174198Y179573D01*
X174144Y179611D01*
X174097Y179656D01*
X174053Y179674D01*
X174014Y179701D01*
X173951Y179718D01*
X173890Y179743D01*
X173843Y179745D01*
X173797Y179757D01*
X173732Y179750D01*
X173666Y179753D01*
X173621Y179739D01*
X173574Y179734D01*
X173515Y179705D01*
X173452Y179685D01*
X173408Y179652D01*
X173373Y179635D01*
X173346Y179606D01*
X173301Y179573D01*
X172379Y178650D01*
X170121Y178650D01*
X169198Y179573D01*
X169144Y179611D01*
X169097Y179656D01*
X169053Y179674D01*
X169014Y179701D01*
X168951Y179718D01*
X168890Y179743D01*
X168843Y179745D01*
X168797Y179757D01*
X168732Y179750D01*
X168666Y179753D01*
X168621Y179739D01*
X168574Y179734D01*
X168515Y179705D01*
X168452Y179685D01*
X168408Y179652D01*
X168373Y179635D01*
X168346Y179606D01*
X168301Y179573D01*
X167379Y178650D01*
X165121Y178650D01*
X164198Y179573D01*
X164144Y179611D01*
X164097Y179656D01*
X164053Y179674D01*
X164014Y179701D01*
X163951Y179718D01*
X163890Y179743D01*
X163843Y179745D01*
X163797Y179757D01*
X163732Y179750D01*
X163666Y179753D01*
X163621Y179739D01*
X163574Y179734D01*
X163515Y179705D01*
X163452Y179685D01*
X163408Y179652D01*
X163373Y179635D01*
X163346Y179606D01*
X163301Y179573D01*
X162379Y178650D01*
X160121Y178650D01*
X159198Y179573D01*
X159144Y179611D01*
X159097Y179656D01*
X159053Y179674D01*
X159014Y179701D01*
X158951Y179718D01*
X158890Y179743D01*
X158843Y179745D01*
X158797Y179757D01*
X158732Y179750D01*
X158666Y179753D01*
X158621Y179739D01*
X158574Y179734D01*
X158515Y179705D01*
X158452Y179685D01*
X158408Y179652D01*
X158373Y179635D01*
X158346Y179606D01*
X158301Y179573D01*
X157379Y178650D01*
X155121Y178650D01*
X154199Y179573D01*
X154144Y179611D01*
X154097Y179656D01*
X154053Y179674D01*
X154014Y179701D01*
X153951Y179718D01*
X153890Y179743D01*
X153843Y179745D01*
X153797Y179757D01*
X153732Y179750D01*
X153666Y179753D01*
X153621Y179739D01*
X153574Y179734D01*
X153515Y179705D01*
X153452Y179685D01*
X153408Y179652D01*
X153373Y179635D01*
X153346Y179606D01*
X153302Y179573D01*
X152379Y178650D01*
X150121Y178650D01*
X149199Y179573D01*
X149144Y179611D01*
X149097Y179656D01*
X149053Y179674D01*
X149014Y179701D01*
X148951Y179718D01*
X148890Y179743D01*
X148843Y179745D01*
X148797Y179757D01*
X148732Y179750D01*
X148666Y179753D01*
X148621Y179739D01*
X148574Y179734D01*
X148515Y179705D01*
X148452Y179685D01*
X148408Y179652D01*
X148373Y179635D01*
X148346Y179606D01*
X148302Y179573D01*
X147379Y178650D01*
X145121Y178650D01*
X144199Y179573D01*
X144144Y179611D01*
X144097Y179656D01*
X144053Y179674D01*
X144014Y179701D01*
X143951Y179718D01*
X143890Y179743D01*
X143843Y179745D01*
X143797Y179757D01*
X143732Y179750D01*
X143666Y179753D01*
X143621Y179739D01*
X143574Y179734D01*
X143515Y179705D01*
X143452Y179685D01*
X143408Y179652D01*
X143373Y179635D01*
X143346Y179606D01*
X143302Y179573D01*
X142379Y178650D01*
X140121Y178650D01*
X138525Y180246D01*
X138525Y187639D01*
X138518Y187681D01*
X138520Y187723D01*
X138498Y187791D01*
X138486Y187860D01*
X138464Y187897D01*
X138451Y187937D01*
X138397Y188010D01*
X138371Y188053D01*
X138355Y188067D01*
X138339Y188088D01*
X134308Y192119D01*
X134273Y192144D01*
X134244Y192175D01*
X134181Y192207D01*
X134124Y192248D01*
X134082Y192258D01*
X134045Y192278D01*
X133955Y192291D01*
X133906Y192304D01*
X133885Y192301D01*
X133859Y192305D01*
X131467Y192305D01*
X128805Y194967D01*
X128805Y195904D01*
X128789Y195992D01*
X128780Y196080D01*
X128770Y196102D01*
X128766Y196125D01*
X128720Y196202D01*
X128681Y196281D01*
X128664Y196298D01*
X128651Y196318D01*
X128582Y196374D01*
X128518Y196435D01*
X128496Y196445D01*
X128477Y196459D01*
X128393Y196488D01*
X128311Y196523D01*
X128287Y196524D01*
X128265Y196531D01*
X128176Y196529D01*
X128087Y196533D01*
X128064Y196525D01*
X128040Y196525D01*
X127958Y196491D01*
X127873Y196464D01*
X127852Y196448D01*
X127833Y196440D01*
X127795Y196406D01*
X127723Y196353D01*
X125662Y194292D01*
X125638Y194258D01*
X125607Y194229D01*
X125575Y194166D01*
X125534Y194108D01*
X125524Y194067D01*
X125504Y194029D01*
X125491Y193940D01*
X125478Y193891D01*
X125481Y193870D01*
X125477Y193844D01*
X125477Y187757D01*
X123687Y185967D01*
X123637Y185894D01*
X123581Y185825D01*
X123573Y185803D01*
X123559Y185783D01*
X123537Y185697D01*
X123509Y185613D01*
X123509Y185589D01*
X123503Y185566D01*
X123513Y185477D01*
X123515Y185388D01*
X123524Y185366D01*
X123527Y185343D01*
X123566Y185263D01*
X123600Y185181D01*
X123616Y185163D01*
X123626Y185142D01*
X123691Y185081D01*
X123751Y185015D01*
X123772Y185004D01*
X123789Y184988D01*
X123871Y184953D01*
X123951Y184912D01*
X123977Y184909D01*
X123996Y184900D01*
X124046Y184898D01*
X124136Y184885D01*
X125073Y184885D01*
X127735Y182223D01*
X127735Y179831D01*
X127742Y179789D01*
X127740Y179747D01*
X127762Y179679D01*
X127774Y179610D01*
X127796Y179573D01*
X127809Y179533D01*
X127863Y179460D01*
X127889Y179417D01*
X127905Y179403D01*
X127921Y179382D01*
X128199Y179104D01*
X128234Y179079D01*
X128263Y179048D01*
X128326Y179016D01*
X128383Y178975D01*
X128425Y178965D01*
X128462Y178945D01*
X128552Y178932D01*
X128601Y178919D01*
X128622Y178922D01*
X128648Y178918D01*
X128861Y178918D01*
X128903Y178925D01*
X128945Y178923D01*
X129012Y178945D01*
X129082Y178957D01*
X129111Y178975D01*
X137004Y178975D01*
X138600Y177379D01*
X138600Y175121D01*
X137677Y174198D01*
X137639Y174144D01*
X137594Y174097D01*
X137576Y174053D01*
X137549Y174014D01*
X137532Y173951D01*
X137507Y173890D01*
X137505Y173843D01*
X137493Y173797D01*
X137500Y173732D01*
X137497Y173666D01*
X137511Y173621D01*
X137516Y173574D01*
X137545Y173515D01*
X137565Y173452D01*
X137598Y173408D01*
X137615Y173373D01*
X137644Y173346D01*
X137677Y173301D01*
X138600Y172379D01*
X138600Y170121D01*
X137677Y169198D01*
X137639Y169144D01*
X137594Y169097D01*
X137576Y169053D01*
X137549Y169014D01*
X137532Y168951D01*
X137507Y168890D01*
X137505Y168843D01*
X137493Y168797D01*
X137500Y168732D01*
X137497Y168666D01*
X137511Y168621D01*
X137516Y168574D01*
X137545Y168515D01*
X137565Y168452D01*
X137598Y168408D01*
X137615Y168373D01*
X137644Y168346D01*
X137677Y168301D01*
X138600Y167379D01*
X138600Y165121D01*
X137677Y164198D01*
X137639Y164144D01*
X137594Y164097D01*
X137576Y164053D01*
X137549Y164014D01*
X137532Y163951D01*
X137507Y163890D01*
X137505Y163843D01*
X137493Y163797D01*
X137500Y163732D01*
X137497Y163666D01*
X137511Y163621D01*
X137516Y163574D01*
X137545Y163515D01*
X137565Y163452D01*
X137598Y163408D01*
X137615Y163373D01*
X137644Y163346D01*
X137677Y163301D01*
X138600Y162379D01*
X138600Y160121D01*
X137677Y159198D01*
X137639Y159144D01*
X137594Y159097D01*
X137576Y159053D01*
X137549Y159014D01*
X137532Y158951D01*
X137507Y158890D01*
X137505Y158843D01*
X137493Y158797D01*
X137500Y158732D01*
X137497Y158666D01*
X137511Y158621D01*
X137516Y158574D01*
X137545Y158515D01*
X137565Y158452D01*
X137598Y158408D01*
X137615Y158373D01*
X137644Y158346D01*
X137677Y158301D01*
X138600Y157379D01*
X138600Y155121D01*
X137677Y154199D01*
X137639Y154144D01*
X137594Y154097D01*
X137576Y154053D01*
X137549Y154014D01*
X137532Y153951D01*
X137507Y153890D01*
X137505Y153843D01*
X137493Y153797D01*
X137500Y153732D01*
X137497Y153666D01*
X137511Y153621D01*
X137516Y153574D01*
X137545Y153515D01*
X137565Y153452D01*
X137598Y153408D01*
X137615Y153373D01*
X137644Y153346D01*
X137677Y153302D01*
X138600Y152379D01*
X138600Y150121D01*
X137677Y149199D01*
X137639Y149144D01*
X137594Y149097D01*
X137576Y149053D01*
X137549Y149014D01*
X137532Y148951D01*
X137507Y148890D01*
X137505Y148843D01*
X137493Y148797D01*
X137500Y148732D01*
X137497Y148666D01*
X137511Y148621D01*
X137516Y148574D01*
X137545Y148515D01*
X137565Y148452D01*
X137598Y148408D01*
X137615Y148373D01*
X137644Y148346D01*
X137677Y148302D01*
X138600Y147379D01*
X138600Y145121D01*
X137677Y144199D01*
X137639Y144144D01*
X137594Y144097D01*
X137576Y144053D01*
X137549Y144014D01*
X137532Y143951D01*
X137507Y143890D01*
X137505Y143843D01*
X137493Y143797D01*
X137500Y143732D01*
X137497Y143666D01*
X137511Y143621D01*
X137516Y143574D01*
X137545Y143515D01*
X137565Y143452D01*
X137598Y143408D01*
X137615Y143373D01*
X137644Y143346D01*
X137677Y143302D01*
X138600Y142379D01*
X138600Y140121D01*
X137004Y138525D01*
X134123Y138525D01*
X134081Y138518D01*
X134039Y138520D01*
X133971Y138498D01*
X133902Y138486D01*
X133865Y138464D01*
X133825Y138451D01*
X133752Y138397D01*
X133709Y138371D01*
X133695Y138355D01*
X133674Y138339D01*
X89666Y94331D01*
X87917Y92582D01*
X80899Y92582D01*
X80834Y92571D01*
X80768Y92569D01*
X80725Y92551D01*
X80678Y92543D01*
X80621Y92509D01*
X80561Y92484D01*
X80526Y92453D01*
X80485Y92428D01*
X80443Y92377D01*
X80395Y92333D01*
X80373Y92291D01*
X80344Y92254D01*
X80323Y92192D01*
X80292Y92133D01*
X80284Y92079D01*
X80272Y92042D01*
X80273Y92002D01*
X80265Y91948D01*
X80265Y90936D01*
X74164Y84835D01*
X65536Y84835D01*
X59435Y90936D01*
X59435Y99564D01*
X63182Y103311D01*
X63233Y103384D01*
X63289Y103453D01*
X63296Y103475D01*
X63310Y103495D01*
X63332Y103581D01*
X63361Y103665D01*
X63360Y103689D01*
X63366Y103712D01*
X63357Y103801D01*
X63354Y103890D01*
X63345Y103912D01*
X63343Y103935D01*
X63303Y104015D01*
X63270Y104097D01*
X63254Y104115D01*
X63243Y104136D01*
X63178Y104197D01*
X63118Y104263D01*
X63097Y104274D01*
X63080Y104290D01*
X62998Y104325D01*
X62919Y104366D01*
X62893Y104369D01*
X62873Y104378D01*
X62823Y104380D01*
X62733Y104393D01*
X58039Y104393D01*
X57974Y104382D01*
X57908Y104380D01*
X57865Y104362D01*
X57818Y104354D01*
X57761Y104320D01*
X57701Y104295D01*
X57666Y104264D01*
X57625Y104239D01*
X57583Y104188D01*
X57535Y104144D01*
X57513Y104102D01*
X57484Y104065D01*
X57463Y104003D01*
X57432Y103944D01*
X57424Y103890D01*
X57412Y103853D01*
X57413Y103813D01*
X57405Y103759D01*
X57405Y58039D01*
X57416Y57974D01*
X57418Y57908D01*
X57436Y57865D01*
X57444Y57818D01*
X57478Y57761D01*
X57503Y57701D01*
X57534Y57666D01*
X57559Y57625D01*
X57610Y57583D01*
X57654Y57535D01*
X57696Y57513D01*
X57733Y57484D01*
X57795Y57463D01*
X57854Y57432D01*
X57908Y57424D01*
X57945Y57412D01*
X57985Y57413D01*
X58039Y57405D01*
X230759Y57405D01*
X230824Y57416D01*
G37*
G36*
X189899Y205270D02*
X189899Y205270D01*
X189923Y205271D01*
X190005Y205304D01*
X190090Y205332D01*
X190111Y205347D01*
X190130Y205355D01*
X190168Y205389D01*
X190240Y205443D01*
X209715Y224918D01*
X236601Y224918D01*
X236666Y224929D01*
X236732Y224931D01*
X236775Y224949D01*
X236822Y224957D01*
X236879Y224991D01*
X236939Y225016D01*
X236974Y225047D01*
X237015Y225072D01*
X237057Y225123D01*
X237105Y225167D01*
X237127Y225209D01*
X237156Y225246D01*
X237177Y225308D01*
X237208Y225367D01*
X237216Y225421D01*
X237228Y225458D01*
X237227Y225498D01*
X237235Y225552D01*
X237235Y226564D01*
X243336Y232665D01*
X251964Y232665D01*
X258065Y226564D01*
X258065Y217936D01*
X254318Y214189D01*
X254267Y214116D01*
X254211Y214047D01*
X254204Y214025D01*
X254190Y214005D01*
X254168Y213919D01*
X254139Y213835D01*
X254140Y213811D01*
X254134Y213788D01*
X254143Y213699D01*
X254146Y213610D01*
X254155Y213588D01*
X254157Y213565D01*
X254197Y213485D01*
X254230Y213403D01*
X254246Y213385D01*
X254257Y213364D01*
X254322Y213303D01*
X254382Y213237D01*
X254403Y213226D01*
X254420Y213210D01*
X254502Y213175D01*
X254581Y213134D01*
X254607Y213131D01*
X254627Y213122D01*
X254677Y213120D01*
X254767Y213107D01*
X259461Y213107D01*
X259526Y213118D01*
X259592Y213120D01*
X259635Y213138D01*
X259682Y213146D01*
X259739Y213180D01*
X259799Y213205D01*
X259834Y213236D01*
X259875Y213261D01*
X259917Y213312D01*
X259965Y213356D01*
X259987Y213398D01*
X260016Y213435D01*
X260037Y213497D01*
X260068Y213556D01*
X260076Y213610D01*
X260088Y213647D01*
X260088Y213653D01*
X260088Y213654D01*
X260087Y213688D01*
X260095Y213741D01*
X260095Y259461D01*
X260084Y259526D01*
X260082Y259592D01*
X260064Y259635D01*
X260056Y259682D01*
X260022Y259739D01*
X259997Y259799D01*
X259966Y259834D01*
X259941Y259875D01*
X259890Y259917D01*
X259846Y259965D01*
X259804Y259987D01*
X259767Y260016D01*
X259705Y260037D01*
X259646Y260068D01*
X259592Y260076D01*
X259555Y260088D01*
X259515Y260087D01*
X259461Y260095D01*
X91898Y260095D01*
X91857Y260088D01*
X91814Y260090D01*
X91747Y260068D01*
X91678Y260056D01*
X91641Y260034D01*
X91601Y260021D01*
X91528Y259967D01*
X91484Y259941D01*
X91471Y259925D01*
X91450Y259909D01*
X81213Y249672D01*
X81188Y249637D01*
X81157Y249608D01*
X81125Y249546D01*
X81084Y249488D01*
X81074Y249447D01*
X81054Y249409D01*
X81041Y249319D01*
X81028Y249271D01*
X81031Y249250D01*
X81027Y249224D01*
X81027Y246076D01*
X81034Y246035D01*
X81032Y245992D01*
X81040Y245968D01*
X81040Y245964D01*
X81046Y245949D01*
X81054Y245925D01*
X81066Y245856D01*
X81088Y245819D01*
X81101Y245779D01*
X81155Y245706D01*
X81181Y245662D01*
X81197Y245649D01*
X81213Y245628D01*
X96270Y230571D01*
X96305Y230546D01*
X96334Y230515D01*
X96396Y230483D01*
X96454Y230442D01*
X96495Y230432D01*
X96533Y230412D01*
X96623Y230399D01*
X96671Y230386D01*
X96692Y230389D01*
X96718Y230385D01*
X100374Y230385D01*
X101657Y229853D01*
X101687Y229846D01*
X101715Y229832D01*
X101832Y229815D01*
X101877Y229805D01*
X101887Y229807D01*
X101900Y229805D01*
X107692Y229805D01*
X108585Y228912D01*
X108585Y219202D01*
X108596Y219137D01*
X108598Y219071D01*
X108616Y219028D01*
X108624Y218981D01*
X108658Y218924D01*
X108683Y218864D01*
X108714Y218829D01*
X108739Y218788D01*
X108790Y218746D01*
X108834Y218698D01*
X108876Y218676D01*
X108913Y218647D01*
X108975Y218626D01*
X109034Y218595D01*
X109088Y218587D01*
X109125Y218575D01*
X109165Y218576D01*
X109219Y218568D01*
X112932Y218568D01*
X112974Y218575D01*
X113016Y218573D01*
X113084Y218595D01*
X113153Y218607D01*
X113190Y218629D01*
X113230Y218642D01*
X113303Y218696D01*
X113346Y218722D01*
X113360Y218738D01*
X113381Y218754D01*
X129705Y235078D01*
X172555Y235078D01*
X189158Y218475D01*
X189158Y205892D01*
X189174Y205804D01*
X189183Y205716D01*
X189193Y205694D01*
X189197Y205671D01*
X189243Y205594D01*
X189282Y205514D01*
X189299Y205498D01*
X189312Y205478D01*
X189381Y205422D01*
X189445Y205360D01*
X189467Y205351D01*
X189486Y205336D01*
X189570Y205308D01*
X189652Y205273D01*
X189676Y205272D01*
X189698Y205264D01*
X189787Y205267D01*
X189876Y205263D01*
X189899Y205270D01*
G37*
G36*
X259526Y57416D02*
X259526Y57416D01*
X259592Y57418D01*
X259635Y57436D01*
X259682Y57444D01*
X259739Y57478D01*
X259799Y57503D01*
X259834Y57534D01*
X259875Y57559D01*
X259917Y57610D01*
X259965Y57654D01*
X259987Y57696D01*
X260016Y57733D01*
X260037Y57795D01*
X260068Y57854D01*
X260076Y57908D01*
X260088Y57945D01*
X260087Y57985D01*
X260095Y58039D01*
X260095Y129159D01*
X260084Y129224D01*
X260082Y129290D01*
X260064Y129333D01*
X260056Y129380D01*
X260022Y129437D01*
X259997Y129497D01*
X259966Y129532D01*
X259941Y129573D01*
X259890Y129615D01*
X259846Y129663D01*
X259804Y129685D01*
X259767Y129714D01*
X259705Y129735D01*
X259646Y129766D01*
X259592Y129774D01*
X259555Y129786D01*
X259515Y129785D01*
X259461Y129793D01*
X254767Y129793D01*
X254679Y129777D01*
X254590Y129768D01*
X254569Y129758D01*
X254546Y129754D01*
X254469Y129708D01*
X254389Y129669D01*
X254373Y129652D01*
X254353Y129639D01*
X254296Y129570D01*
X254235Y129506D01*
X254226Y129484D01*
X254211Y129465D01*
X254183Y129381D01*
X254148Y129299D01*
X254147Y129275D01*
X254139Y129253D01*
X254142Y129164D01*
X254138Y129075D01*
X254145Y129052D01*
X254146Y129028D01*
X254179Y128946D01*
X254207Y128861D01*
X254222Y128840D01*
X254230Y128821D01*
X254264Y128783D01*
X254318Y128711D01*
X258065Y124964D01*
X258065Y116336D01*
X251964Y110235D01*
X243336Y110235D01*
X237235Y116336D01*
X237235Y117348D01*
X237224Y117413D01*
X237222Y117479D01*
X237204Y117522D01*
X237196Y117569D01*
X237162Y117626D01*
X237137Y117686D01*
X237106Y117721D01*
X237081Y117762D01*
X237030Y117804D01*
X236986Y117852D01*
X236944Y117874D01*
X236907Y117903D01*
X236845Y117924D01*
X236786Y117955D01*
X236732Y117963D01*
X236695Y117975D01*
X236655Y117974D01*
X236601Y117982D01*
X217522Y117982D01*
X217434Y117966D01*
X217346Y117957D01*
X217324Y117947D01*
X217301Y117943D01*
X217224Y117897D01*
X217144Y117858D01*
X217128Y117841D01*
X217108Y117828D01*
X217052Y117759D01*
X216990Y117695D01*
X216981Y117673D01*
X216966Y117654D01*
X216938Y117570D01*
X216903Y117488D01*
X216902Y117464D01*
X216894Y117442D01*
X216897Y117353D01*
X216893Y117264D01*
X216900Y117241D01*
X216901Y117217D01*
X216934Y117135D01*
X216962Y117050D01*
X216977Y117029D01*
X216985Y117010D01*
X217019Y116972D01*
X217073Y116900D01*
X235869Y98104D01*
X235904Y98079D01*
X235933Y98048D01*
X235996Y98016D01*
X236053Y97975D01*
X236095Y97965D01*
X236132Y97945D01*
X236222Y97932D01*
X236271Y97919D01*
X236292Y97922D01*
X236318Y97918D01*
X236601Y97918D01*
X236666Y97929D01*
X236732Y97931D01*
X236775Y97949D01*
X236822Y97957D01*
X236879Y97991D01*
X236939Y98016D01*
X236974Y98047D01*
X237015Y98072D01*
X237057Y98123D01*
X237105Y98167D01*
X237127Y98209D01*
X237156Y98246D01*
X237177Y98308D01*
X237208Y98367D01*
X237216Y98421D01*
X237228Y98458D01*
X237227Y98498D01*
X237235Y98552D01*
X237235Y99564D01*
X243336Y105665D01*
X251964Y105665D01*
X258065Y99564D01*
X258065Y90936D01*
X251964Y84835D01*
X243336Y84835D01*
X237235Y90936D01*
X237235Y91948D01*
X237224Y92013D01*
X237222Y92079D01*
X237204Y92122D01*
X237196Y92169D01*
X237162Y92226D01*
X237137Y92286D01*
X237106Y92321D01*
X237081Y92362D01*
X237030Y92404D01*
X236986Y92452D01*
X236944Y92474D01*
X236907Y92503D01*
X236845Y92524D01*
X236786Y92555D01*
X236732Y92563D01*
X236695Y92575D01*
X236655Y92574D01*
X236601Y92582D01*
X233845Y92582D01*
X202281Y124146D01*
X202249Y124168D01*
X202231Y124188D01*
X202229Y124189D01*
X202217Y124202D01*
X202154Y124234D01*
X202097Y124275D01*
X202055Y124285D01*
X202018Y124305D01*
X201928Y124318D01*
X201879Y124331D01*
X201858Y124328D01*
X201832Y124332D01*
X176605Y124332D01*
X176518Y124317D01*
X176429Y124307D01*
X176408Y124297D01*
X176384Y124293D01*
X176308Y124247D01*
X176228Y124208D01*
X176212Y124191D01*
X176191Y124178D01*
X176135Y124109D01*
X176074Y124045D01*
X176065Y124023D01*
X176050Y124004D01*
X176021Y123920D01*
X175987Y123838D01*
X175986Y123814D01*
X175978Y123792D01*
X175981Y123703D01*
X175977Y123614D01*
X175984Y123591D01*
X175985Y123567D01*
X176018Y123485D01*
X176045Y123400D01*
X176061Y123379D01*
X176069Y123360D01*
X176103Y123322D01*
X176157Y123249D01*
X176364Y123042D01*
X176399Y123018D01*
X176427Y122987D01*
X176490Y122955D01*
X176548Y122914D01*
X176589Y122904D01*
X176627Y122884D01*
X176717Y122871D01*
X176765Y122858D01*
X176786Y122861D01*
X176812Y122857D01*
X193323Y122857D01*
X236237Y79943D01*
X236238Y79942D01*
X238507Y77673D01*
X238507Y58039D01*
X238518Y57974D01*
X238520Y57908D01*
X238538Y57865D01*
X238546Y57818D01*
X238580Y57761D01*
X238605Y57701D01*
X238636Y57666D01*
X238661Y57625D01*
X238712Y57583D01*
X238756Y57535D01*
X238798Y57513D01*
X238835Y57484D01*
X238897Y57463D01*
X238956Y57432D01*
X239010Y57424D01*
X239047Y57412D01*
X239087Y57413D01*
X239141Y57405D01*
X259461Y57405D01*
X259526Y57416D01*
G37*
G36*
X77038Y162313D02*
X77038Y162313D01*
X77051Y162312D01*
X77055Y162314D01*
X77088Y162312D01*
X77155Y162334D01*
X77225Y162346D01*
X77261Y162368D01*
X77302Y162381D01*
X77375Y162435D01*
X77418Y162461D01*
X77431Y162477D01*
X77452Y162493D01*
X82617Y167658D01*
X82642Y167692D01*
X82673Y167721D01*
X82705Y167784D01*
X82746Y167842D01*
X82756Y167883D01*
X82776Y167921D01*
X82789Y168010D01*
X82802Y168059D01*
X82799Y168080D01*
X82803Y168106D01*
X82803Y175463D01*
X92507Y185167D01*
X112564Y185167D01*
X112606Y185174D01*
X112648Y185172D01*
X112715Y185194D01*
X112785Y185206D01*
X112821Y185228D01*
X112862Y185241D01*
X112935Y185295D01*
X112978Y185321D01*
X112991Y185337D01*
X113012Y185353D01*
X114282Y186622D01*
X114283Y186623D01*
X118177Y190518D01*
X118202Y190552D01*
X118233Y190581D01*
X118265Y190644D01*
X118306Y190702D01*
X118316Y190743D01*
X118336Y190781D01*
X118349Y190870D01*
X118362Y190919D01*
X118359Y190940D01*
X118363Y190966D01*
X118363Y197053D01*
X129337Y208027D01*
X139903Y208027D01*
X141210Y206721D01*
X141244Y206696D01*
X141273Y206665D01*
X141336Y206633D01*
X141394Y206592D01*
X141435Y206582D01*
X141473Y206562D01*
X141562Y206549D01*
X141611Y206536D01*
X141632Y206539D01*
X141658Y206535D01*
X150182Y206535D01*
X150583Y206134D01*
X150656Y206083D01*
X150725Y206027D01*
X150747Y206019D01*
X150767Y206006D01*
X150853Y205983D01*
X150937Y205955D01*
X150961Y205956D01*
X150984Y205950D01*
X151073Y205959D01*
X151162Y205962D01*
X151184Y205970D01*
X151207Y205973D01*
X151287Y206012D01*
X151369Y206046D01*
X151387Y206062D01*
X151408Y206072D01*
X151469Y206137D01*
X151535Y206197D01*
X151546Y206218D01*
X151562Y206236D01*
X151597Y206318D01*
X151638Y206397D01*
X151641Y206423D01*
X151650Y206442D01*
X151652Y206493D01*
X151665Y206582D01*
X151665Y207623D01*
X154327Y210285D01*
X157014Y210285D01*
X157102Y210300D01*
X157190Y210310D01*
X157211Y210320D01*
X157235Y210324D01*
X157311Y210370D01*
X157391Y210409D01*
X157407Y210426D01*
X157428Y210439D01*
X157484Y210508D01*
X157545Y210572D01*
X157554Y210594D01*
X157569Y210613D01*
X157598Y210697D01*
X157632Y210779D01*
X157634Y210803D01*
X157641Y210825D01*
X157639Y210914D01*
X157642Y211003D01*
X157635Y211026D01*
X157635Y211050D01*
X157601Y211132D01*
X157574Y211217D01*
X157558Y211238D01*
X157550Y211257D01*
X157516Y211295D01*
X157462Y211367D01*
X157352Y211478D01*
X157352Y215242D01*
X159339Y217230D01*
X159390Y217303D01*
X159446Y217372D01*
X159454Y217394D01*
X159467Y217414D01*
X159490Y217500D01*
X159518Y217584D01*
X159517Y217608D01*
X159523Y217631D01*
X159514Y217720D01*
X159512Y217809D01*
X159503Y217831D01*
X159500Y217854D01*
X159461Y217934D01*
X159427Y218016D01*
X159411Y218034D01*
X159401Y218055D01*
X159336Y218116D01*
X159276Y218182D01*
X159255Y218193D01*
X159237Y218209D01*
X159156Y218244D01*
X159076Y218285D01*
X159050Y218288D01*
X159031Y218297D01*
X158980Y218299D01*
X158891Y218312D01*
X135988Y218312D01*
X135946Y218305D01*
X135904Y218307D01*
X135836Y218285D01*
X135767Y218273D01*
X135730Y218251D01*
X135690Y218238D01*
X135617Y218184D01*
X135574Y218158D01*
X135560Y218142D01*
X135539Y218126D01*
X123025Y205612D01*
X90268Y205612D01*
X90226Y205605D01*
X90184Y205607D01*
X90116Y205585D01*
X90047Y205573D01*
X90010Y205551D01*
X89970Y205538D01*
X89897Y205484D01*
X89854Y205458D01*
X89840Y205442D01*
X89819Y205426D01*
X85404Y201011D01*
X85379Y200976D01*
X85348Y200947D01*
X85316Y200884D01*
X85275Y200827D01*
X85265Y200785D01*
X85245Y200748D01*
X85232Y200658D01*
X85219Y200609D01*
X85222Y200588D01*
X85218Y200562D01*
X85218Y183045D01*
X79549Y177376D01*
X79512Y177322D01*
X79466Y177275D01*
X79448Y177231D01*
X79421Y177192D01*
X79405Y177129D01*
X79379Y177068D01*
X79377Y177021D01*
X79365Y176975D01*
X79372Y176910D01*
X79369Y176844D01*
X79383Y176799D01*
X79388Y176752D01*
X79418Y176693D01*
X79438Y176630D01*
X79470Y176586D01*
X79488Y176551D01*
X79516Y176524D01*
X79549Y176479D01*
X80265Y175764D01*
X80265Y167136D01*
X76518Y163389D01*
X76467Y163316D01*
X76411Y163247D01*
X76404Y163225D01*
X76390Y163205D01*
X76368Y163119D01*
X76339Y163035D01*
X76340Y163011D01*
X76334Y162988D01*
X76343Y162899D01*
X76346Y162810D01*
X76355Y162788D01*
X76357Y162765D01*
X76397Y162685D01*
X76430Y162603D01*
X76446Y162585D01*
X76457Y162564D01*
X76522Y162503D01*
X76582Y162437D01*
X76603Y162426D01*
X76620Y162410D01*
X76702Y162375D01*
X76781Y162334D01*
X76807Y162331D01*
X76827Y162322D01*
X76877Y162320D01*
X76967Y162307D01*
X77004Y162307D01*
X77038Y162313D01*
G37*
G36*
X218384Y171585D02*
X218384Y171585D01*
X218426Y171583D01*
X218494Y171605D01*
X218563Y171617D01*
X218600Y171639D01*
X218640Y171652D01*
X218713Y171706D01*
X218756Y171732D01*
X218770Y171748D01*
X218791Y171764D01*
X237951Y190924D01*
X237988Y190978D01*
X238034Y191025D01*
X238052Y191069D01*
X238079Y191108D01*
X238095Y191171D01*
X238121Y191232D01*
X238123Y191279D01*
X238135Y191325D01*
X238128Y191390D01*
X238131Y191456D01*
X238117Y191501D01*
X238112Y191548D01*
X238082Y191607D01*
X238062Y191670D01*
X238030Y191714D01*
X238012Y191749D01*
X237984Y191776D01*
X237951Y191821D01*
X237235Y192536D01*
X237235Y201164D01*
X240982Y204911D01*
X241033Y204984D01*
X241089Y205053D01*
X241096Y205075D01*
X241110Y205095D01*
X241132Y205181D01*
X241161Y205265D01*
X241160Y205289D01*
X241166Y205312D01*
X241157Y205401D01*
X241154Y205490D01*
X241145Y205512D01*
X241143Y205535D01*
X241103Y205615D01*
X241070Y205697D01*
X241054Y205715D01*
X241043Y205736D01*
X240978Y205797D01*
X240918Y205863D01*
X240897Y205874D01*
X240880Y205890D01*
X240798Y205925D01*
X240719Y205966D01*
X240693Y205969D01*
X240673Y205978D01*
X240623Y205980D01*
X240533Y205993D01*
X217636Y205993D01*
X217594Y205986D01*
X217552Y205988D01*
X217485Y205966D01*
X217415Y205954D01*
X217379Y205932D01*
X217338Y205919D01*
X217265Y205865D01*
X217222Y205839D01*
X217209Y205823D01*
X217188Y205807D01*
X204483Y193102D01*
X204458Y193068D01*
X204427Y193039D01*
X204395Y192976D01*
X204354Y192918D01*
X204344Y192877D01*
X204324Y192839D01*
X204311Y192750D01*
X204298Y192701D01*
X204301Y192680D01*
X204297Y192654D01*
X204297Y183162D01*
X204304Y183120D01*
X204302Y183078D01*
X204324Y183011D01*
X204336Y182941D01*
X204358Y182905D01*
X204371Y182864D01*
X204425Y182792D01*
X204451Y182748D01*
X204467Y182735D01*
X204483Y182714D01*
X205265Y181932D01*
X205265Y173668D01*
X204257Y172660D01*
X204206Y172587D01*
X204150Y172518D01*
X204142Y172496D01*
X204129Y172476D01*
X204106Y172390D01*
X204078Y172306D01*
X204079Y172282D01*
X204073Y172259D01*
X204082Y172170D01*
X204085Y172081D01*
X204093Y172059D01*
X204096Y172036D01*
X204135Y171956D01*
X204169Y171874D01*
X204185Y171856D01*
X204195Y171835D01*
X204260Y171774D01*
X204320Y171708D01*
X204341Y171697D01*
X204359Y171681D01*
X204441Y171646D01*
X204520Y171605D01*
X204546Y171602D01*
X204565Y171593D01*
X204616Y171591D01*
X204705Y171578D01*
X218342Y171578D01*
X218384Y171585D01*
G37*
G36*
X216790Y79372D02*
X216790Y79372D01*
X216856Y79369D01*
X216901Y79383D01*
X216948Y79388D01*
X217007Y79418D01*
X217070Y79438D01*
X217114Y79470D01*
X217149Y79488D01*
X217176Y79516D01*
X217221Y79549D01*
X217936Y80265D01*
X224324Y80265D01*
X224412Y80281D01*
X224500Y80290D01*
X224521Y80300D01*
X224545Y80304D01*
X224622Y80350D01*
X224701Y80389D01*
X224718Y80406D01*
X224738Y80419D01*
X224794Y80488D01*
X224855Y80552D01*
X224865Y80574D01*
X224879Y80593D01*
X224908Y80677D01*
X224943Y80759D01*
X224944Y80783D01*
X224951Y80805D01*
X224949Y80894D01*
X224953Y80983D01*
X224945Y81006D01*
X224945Y81030D01*
X224911Y81112D01*
X224884Y81197D01*
X224868Y81218D01*
X224860Y81237D01*
X224826Y81275D01*
X224773Y81347D01*
X190562Y115557D01*
X190528Y115582D01*
X190499Y115613D01*
X190436Y115645D01*
X190378Y115686D01*
X190337Y115696D01*
X190299Y115716D01*
X190210Y115729D01*
X190161Y115742D01*
X190140Y115739D01*
X190114Y115743D01*
X176812Y115743D01*
X176770Y115736D01*
X176728Y115738D01*
X176661Y115716D01*
X176591Y115704D01*
X176555Y115682D01*
X176514Y115669D01*
X176442Y115615D01*
X176398Y115589D01*
X176385Y115573D01*
X176364Y115557D01*
X175582Y114775D01*
X167132Y114775D01*
X167067Y114764D01*
X167001Y114762D01*
X166958Y114744D01*
X166911Y114736D01*
X166854Y114702D01*
X166794Y114677D01*
X166759Y114646D01*
X166718Y114621D01*
X166676Y114570D01*
X166628Y114526D01*
X166606Y114484D01*
X166577Y114447D01*
X166556Y114385D01*
X166525Y114326D01*
X166517Y114272D01*
X166505Y114235D01*
X166506Y114195D01*
X166498Y114141D01*
X166498Y97888D01*
X166505Y97846D01*
X166503Y97804D01*
X166525Y97736D01*
X166537Y97667D01*
X166559Y97630D01*
X166572Y97590D01*
X166626Y97517D01*
X166652Y97474D01*
X166668Y97460D01*
X166684Y97439D01*
X168559Y95564D01*
X168594Y95539D01*
X168623Y95508D01*
X168686Y95476D01*
X168743Y95435D01*
X168785Y95425D01*
X168822Y95405D01*
X168912Y95392D01*
X168961Y95379D01*
X168982Y95382D01*
X169008Y95378D01*
X200495Y95378D01*
X202244Y93629D01*
X216324Y79549D01*
X216378Y79512D01*
X216425Y79466D01*
X216469Y79448D01*
X216508Y79421D01*
X216571Y79405D01*
X216632Y79379D01*
X216679Y79377D01*
X216725Y79365D01*
X216790Y79372D01*
G37*
G36*
X259526Y136918D02*
X259526Y136918D01*
X259592Y136920D01*
X259635Y136938D01*
X259682Y136946D01*
X259739Y136980D01*
X259799Y137005D01*
X259834Y137036D01*
X259875Y137061D01*
X259917Y137112D01*
X259965Y137156D01*
X259987Y137198D01*
X260016Y137235D01*
X260037Y137297D01*
X260068Y137356D01*
X260076Y137410D01*
X260088Y137447D01*
X260087Y137487D01*
X260095Y137541D01*
X260095Y205359D01*
X260084Y205424D01*
X260082Y205490D01*
X260064Y205533D01*
X260056Y205580D01*
X260022Y205637D01*
X259997Y205697D01*
X259966Y205732D01*
X259941Y205773D01*
X259890Y205815D01*
X259846Y205863D01*
X259804Y205885D01*
X259767Y205914D01*
X259705Y205935D01*
X259646Y205966D01*
X259592Y205974D01*
X259555Y205986D01*
X259515Y205985D01*
X259461Y205993D01*
X254767Y205993D01*
X254679Y205977D01*
X254590Y205968D01*
X254569Y205958D01*
X254546Y205954D01*
X254469Y205908D01*
X254389Y205869D01*
X254373Y205852D01*
X254353Y205839D01*
X254296Y205770D01*
X254235Y205706D01*
X254226Y205684D01*
X254211Y205665D01*
X254183Y205581D01*
X254148Y205499D01*
X254147Y205475D01*
X254139Y205453D01*
X254142Y205364D01*
X254138Y205275D01*
X254145Y205252D01*
X254146Y205228D01*
X254179Y205146D01*
X254207Y205061D01*
X254222Y205040D01*
X254230Y205021D01*
X254264Y204983D01*
X254318Y204911D01*
X258065Y201164D01*
X258065Y192536D01*
X251964Y186435D01*
X243336Y186435D01*
X242621Y187151D01*
X242566Y187188D01*
X242519Y187234D01*
X242475Y187252D01*
X242436Y187279D01*
X242373Y187295D01*
X242312Y187321D01*
X242265Y187323D01*
X242219Y187335D01*
X242154Y187328D01*
X242088Y187331D01*
X242043Y187317D01*
X241996Y187312D01*
X241937Y187283D01*
X241874Y187262D01*
X241830Y187230D01*
X241795Y187212D01*
X241768Y187183D01*
X241724Y187151D01*
X220815Y166242D01*
X193205Y166242D01*
X191583Y167864D01*
X191510Y167915D01*
X191441Y167971D01*
X191419Y167978D01*
X191399Y167992D01*
X191313Y168014D01*
X191229Y168043D01*
X191205Y168042D01*
X191182Y168048D01*
X191093Y168039D01*
X191004Y168036D01*
X190982Y168027D01*
X190959Y168025D01*
X190879Y167985D01*
X190797Y167952D01*
X190779Y167936D01*
X190758Y167925D01*
X190697Y167860D01*
X190631Y167800D01*
X190620Y167779D01*
X190604Y167762D01*
X190569Y167680D01*
X190528Y167601D01*
X190525Y167575D01*
X190516Y167555D01*
X190514Y167505D01*
X190501Y167415D01*
X190501Y164552D01*
X190512Y164487D01*
X190514Y164421D01*
X190532Y164378D01*
X190540Y164331D01*
X190574Y164274D01*
X190599Y164214D01*
X190630Y164179D01*
X190655Y164138D01*
X190706Y164096D01*
X190750Y164048D01*
X190792Y164026D01*
X190829Y163997D01*
X190891Y163976D01*
X190950Y163945D01*
X191004Y163937D01*
X191041Y163925D01*
X191081Y163926D01*
X191135Y163918D01*
X236082Y163918D01*
X236124Y163925D01*
X236166Y163923D01*
X236234Y163945D01*
X236303Y163957D01*
X236340Y163979D01*
X236380Y163992D01*
X236453Y164046D01*
X236496Y164072D01*
X236509Y164088D01*
X236531Y164103D01*
X237951Y165524D01*
X237988Y165578D01*
X238034Y165625D01*
X238052Y165669D01*
X238079Y165708D01*
X238095Y165771D01*
X238121Y165832D01*
X238123Y165879D01*
X238135Y165925D01*
X238128Y165990D01*
X238131Y166056D01*
X238117Y166101D01*
X238112Y166148D01*
X238082Y166207D01*
X238062Y166270D01*
X238030Y166314D01*
X238012Y166349D01*
X237984Y166376D01*
X237951Y166421D01*
X237235Y167136D01*
X237235Y175764D01*
X243336Y181865D01*
X251964Y181865D01*
X258065Y175764D01*
X258065Y167136D01*
X251964Y161035D01*
X243336Y161035D01*
X242621Y161751D01*
X242566Y161788D01*
X242519Y161834D01*
X242475Y161852D01*
X242436Y161879D01*
X242373Y161895D01*
X242312Y161921D01*
X242265Y161923D01*
X242219Y161935D01*
X242154Y161928D01*
X242088Y161931D01*
X242043Y161917D01*
X241996Y161912D01*
X241937Y161882D01*
X241874Y161862D01*
X241830Y161830D01*
X241795Y161812D01*
X241768Y161784D01*
X241724Y161751D01*
X239171Y159198D01*
X239134Y159144D01*
X239089Y159097D01*
X239070Y159053D01*
X239043Y159014D01*
X239027Y158951D01*
X239001Y158890D01*
X238999Y158843D01*
X238987Y158797D01*
X238994Y158732D01*
X238991Y158666D01*
X239006Y158621D01*
X239010Y158574D01*
X239040Y158515D01*
X239060Y158452D01*
X239092Y158408D01*
X239110Y158373D01*
X239139Y158346D01*
X239171Y158302D01*
X241724Y155749D01*
X241778Y155712D01*
X241825Y155666D01*
X241869Y155648D01*
X241908Y155621D01*
X241971Y155605D01*
X242032Y155579D01*
X242079Y155577D01*
X242125Y155565D01*
X242190Y155572D01*
X242256Y155569D01*
X242301Y155583D01*
X242348Y155588D01*
X242407Y155618D01*
X242470Y155638D01*
X242514Y155670D01*
X242549Y155688D01*
X242576Y155716D01*
X242621Y155749D01*
X243336Y156465D01*
X251964Y156465D01*
X258065Y150364D01*
X258065Y141736D01*
X254318Y137989D01*
X254267Y137916D01*
X254211Y137847D01*
X254204Y137825D01*
X254190Y137805D01*
X254168Y137719D01*
X254139Y137635D01*
X254140Y137611D01*
X254134Y137588D01*
X254143Y137499D01*
X254146Y137410D01*
X254155Y137388D01*
X254157Y137365D01*
X254197Y137285D01*
X254230Y137203D01*
X254246Y137185D01*
X254257Y137164D01*
X254322Y137103D01*
X254382Y137037D01*
X254403Y137026D01*
X254420Y137010D01*
X254502Y136975D01*
X254581Y136934D01*
X254607Y136931D01*
X254627Y136922D01*
X254677Y136920D01*
X254767Y136907D01*
X259461Y136907D01*
X259526Y136918D01*
G37*
G36*
X79586Y111514D02*
X79586Y111514D01*
X79628Y111512D01*
X79695Y111534D01*
X79765Y111546D01*
X79801Y111568D01*
X79842Y111581D01*
X79915Y111635D01*
X79958Y111661D01*
X79971Y111677D01*
X79992Y111693D01*
X111413Y143113D01*
X111451Y143167D01*
X111496Y143215D01*
X111514Y143259D01*
X111541Y143298D01*
X111558Y143361D01*
X111584Y143422D01*
X111586Y143469D01*
X111597Y143515D01*
X111591Y143580D01*
X111594Y143646D01*
X111579Y143691D01*
X111574Y143738D01*
X111545Y143797D01*
X111525Y143860D01*
X111492Y143904D01*
X111475Y143939D01*
X111446Y143966D01*
X111413Y144010D01*
X110965Y144458D01*
X110965Y152948D01*
X110954Y153013D01*
X110952Y153079D01*
X110934Y153122D01*
X110926Y153169D01*
X110892Y153226D01*
X110867Y153286D01*
X110836Y153321D01*
X110811Y153362D01*
X110760Y153403D01*
X110716Y153452D01*
X110674Y153474D01*
X110637Y153503D01*
X110575Y153524D01*
X110516Y153555D01*
X110462Y153563D01*
X110425Y153575D01*
X110385Y153574D01*
X110331Y153582D01*
X94118Y153582D01*
X94076Y153575D01*
X94034Y153577D01*
X93966Y153555D01*
X93897Y153543D01*
X93860Y153521D01*
X93820Y153508D01*
X93747Y153454D01*
X93704Y153428D01*
X93690Y153412D01*
X93669Y153396D01*
X91754Y151481D01*
X91729Y151446D01*
X91698Y151417D01*
X91666Y151354D01*
X91625Y151297D01*
X91615Y151255D01*
X91595Y151218D01*
X91582Y151128D01*
X91569Y151079D01*
X91572Y151058D01*
X91568Y151032D01*
X91568Y138595D01*
X79549Y126576D01*
X79512Y126522D01*
X79466Y126475D01*
X79448Y126431D01*
X79421Y126392D01*
X79405Y126329D01*
X79379Y126268D01*
X79377Y126221D01*
X79365Y126175D01*
X79372Y126110D01*
X79369Y126044D01*
X79383Y125999D01*
X79388Y125952D01*
X79418Y125893D01*
X79438Y125830D01*
X79470Y125786D01*
X79488Y125751D01*
X79516Y125724D01*
X79549Y125679D01*
X80265Y124964D01*
X80265Y116336D01*
X76518Y112589D01*
X76467Y112516D01*
X76411Y112447D01*
X76404Y112425D01*
X76390Y112405D01*
X76368Y112319D01*
X76339Y112235D01*
X76340Y112211D01*
X76334Y112188D01*
X76343Y112099D01*
X76346Y112010D01*
X76355Y111988D01*
X76357Y111965D01*
X76397Y111885D01*
X76430Y111803D01*
X76446Y111785D01*
X76457Y111764D01*
X76522Y111703D01*
X76582Y111637D01*
X76603Y111626D01*
X76620Y111610D01*
X76702Y111575D01*
X76781Y111534D01*
X76807Y111531D01*
X76827Y111522D01*
X76877Y111520D01*
X76967Y111507D01*
X79544Y111507D01*
X79586Y111514D01*
G37*
G36*
X240621Y136923D02*
X240621Y136923D01*
X240710Y136932D01*
X240731Y136942D01*
X240754Y136946D01*
X240831Y136992D01*
X240911Y137031D01*
X240927Y137048D01*
X240947Y137061D01*
X241004Y137130D01*
X241065Y137194D01*
X241074Y137216D01*
X241089Y137235D01*
X241117Y137319D01*
X241152Y137401D01*
X241153Y137425D01*
X241161Y137447D01*
X241158Y137536D01*
X241162Y137625D01*
X241155Y137648D01*
X241154Y137672D01*
X241121Y137754D01*
X241093Y137839D01*
X241078Y137860D01*
X241070Y137879D01*
X241036Y137917D01*
X240982Y137989D01*
X237235Y141736D01*
X237235Y150364D01*
X237951Y151079D01*
X237988Y151134D01*
X238034Y151181D01*
X238052Y151225D01*
X238079Y151264D01*
X238095Y151327D01*
X238121Y151388D01*
X238123Y151435D01*
X238135Y151481D01*
X238128Y151546D01*
X238131Y151612D01*
X238117Y151657D01*
X238112Y151704D01*
X238082Y151763D01*
X238062Y151826D01*
X238030Y151870D01*
X238012Y151905D01*
X237984Y151932D01*
X237951Y151976D01*
X236531Y153397D01*
X236496Y153421D01*
X236467Y153452D01*
X236404Y153484D01*
X236347Y153525D01*
X236305Y153535D01*
X236268Y153555D01*
X236178Y153568D01*
X236129Y153581D01*
X236108Y153578D01*
X236082Y153582D01*
X205899Y153582D01*
X205834Y153571D01*
X205768Y153569D01*
X205725Y153551D01*
X205678Y153543D01*
X205621Y153509D01*
X205561Y153484D01*
X205526Y153453D01*
X205485Y153428D01*
X205443Y153377D01*
X205395Y153333D01*
X205373Y153291D01*
X205344Y153254D01*
X205323Y153192D01*
X205292Y153133D01*
X205284Y153079D01*
X205272Y153042D01*
X205273Y153002D01*
X205265Y152948D01*
X205265Y145289D01*
X205272Y145247D01*
X205270Y145205D01*
X205292Y145138D01*
X205304Y145068D01*
X205326Y145032D01*
X205339Y144991D01*
X205393Y144918D01*
X205419Y144875D01*
X205435Y144862D01*
X205451Y144841D01*
X213199Y137093D01*
X213233Y137068D01*
X213262Y137037D01*
X213325Y137005D01*
X213383Y136964D01*
X213424Y136954D01*
X213462Y136934D01*
X213551Y136921D01*
X213600Y136908D01*
X213621Y136911D01*
X213647Y136907D01*
X240533Y136907D01*
X240621Y136923D01*
G37*
%LPC*%
G36*
X217620Y236473D02*
X217620Y236473D01*
X211073Y243020D01*
X211073Y252280D01*
X217620Y258827D01*
X226880Y258827D01*
X233427Y252280D01*
X233427Y243020D01*
X226880Y236473D01*
X217620Y236473D01*
G37*
%LPD*%
%LPC*%
G36*
X192220Y236473D02*
X192220Y236473D01*
X185673Y243020D01*
X185673Y252280D01*
X192220Y258827D01*
X201480Y258827D01*
X208027Y252280D01*
X208027Y243020D01*
X201480Y236473D01*
X192220Y236473D01*
G37*
%LPD*%
%LPC*%
G36*
X141420Y236473D02*
X141420Y236473D01*
X134873Y243020D01*
X134873Y252280D01*
X141420Y258827D01*
X150680Y258827D01*
X157227Y252280D01*
X157227Y243020D01*
X150680Y236473D01*
X141420Y236473D01*
G37*
%LPD*%
%LPC*%
G36*
X243020Y236473D02*
X243020Y236473D01*
X236473Y243020D01*
X236473Y252280D01*
X243020Y258827D01*
X252280Y258827D01*
X258827Y252280D01*
X258827Y243020D01*
X252280Y236473D01*
X243020Y236473D01*
G37*
%LPD*%
G36*
X126430Y163929D02*
X126430Y163929D01*
X126496Y163931D01*
X126539Y163949D01*
X126586Y163957D01*
X126643Y163991D01*
X126703Y164016D01*
X126738Y164047D01*
X126779Y164072D01*
X126821Y164123D01*
X126869Y164167D01*
X126891Y164209D01*
X126920Y164246D01*
X126941Y164308D01*
X126972Y164367D01*
X126980Y164421D01*
X126992Y164458D01*
X126991Y164498D01*
X126999Y164552D01*
X126999Y168148D01*
X126988Y168213D01*
X126986Y168279D01*
X126968Y168322D01*
X126960Y168369D01*
X126926Y168426D01*
X126901Y168486D01*
X126870Y168521D01*
X126845Y168562D01*
X126794Y168604D01*
X126750Y168652D01*
X126708Y168674D01*
X126671Y168703D01*
X126609Y168724D01*
X126550Y168755D01*
X126496Y168763D01*
X126459Y168775D01*
X126419Y168774D01*
X126365Y168782D01*
X120649Y168782D01*
X120584Y168771D01*
X120518Y168769D01*
X120475Y168751D01*
X120428Y168743D01*
X120371Y168709D01*
X120311Y168684D01*
X120276Y168653D01*
X120235Y168628D01*
X120193Y168577D01*
X120145Y168533D01*
X120123Y168491D01*
X120094Y168454D01*
X120073Y168392D01*
X120042Y168333D01*
X120034Y168279D01*
X120022Y168242D01*
X120023Y168202D01*
X120015Y168148D01*
X120015Y167318D01*
X119122Y166425D01*
X111858Y166425D01*
X110965Y167318D01*
X110965Y175582D01*
X111747Y176364D01*
X111772Y176399D01*
X111803Y176427D01*
X111835Y176490D01*
X111876Y176548D01*
X111886Y176589D01*
X111906Y176627D01*
X111919Y176717D01*
X111932Y176765D01*
X111929Y176786D01*
X111933Y176812D01*
X111933Y177419D01*
X111922Y177484D01*
X111920Y177550D01*
X111902Y177593D01*
X111894Y177640D01*
X111860Y177697D01*
X111835Y177757D01*
X111804Y177792D01*
X111779Y177833D01*
X111728Y177875D01*
X111684Y177923D01*
X111642Y177945D01*
X111605Y177974D01*
X111543Y177995D01*
X111484Y178026D01*
X111430Y178034D01*
X111393Y178046D01*
X111353Y178045D01*
X111299Y178053D01*
X95716Y178053D01*
X95674Y178046D01*
X95632Y178048D01*
X95565Y178026D01*
X95495Y178014D01*
X95459Y177992D01*
X95418Y177979D01*
X95345Y177925D01*
X95302Y177899D01*
X95289Y177883D01*
X95268Y177867D01*
X90103Y172702D01*
X90078Y172668D01*
X90047Y172639D01*
X90015Y172576D01*
X89974Y172518D01*
X89964Y172477D01*
X89944Y172439D01*
X89931Y172350D01*
X89918Y172301D01*
X89921Y172280D01*
X89917Y172254D01*
X89917Y164862D01*
X89914Y164858D01*
X89906Y164836D01*
X89892Y164816D01*
X89870Y164730D01*
X89842Y164646D01*
X89842Y164622D01*
X89836Y164599D01*
X89846Y164510D01*
X89848Y164421D01*
X89857Y164400D01*
X89860Y164376D01*
X89899Y164296D01*
X89933Y164214D01*
X89949Y164196D01*
X89959Y164175D01*
X90024Y164114D01*
X90084Y164048D01*
X90105Y164037D01*
X90122Y164021D01*
X90204Y163986D01*
X90284Y163945D01*
X90310Y163942D01*
X90329Y163933D01*
X90379Y163931D01*
X90469Y163918D01*
X126365Y163918D01*
X126430Y163929D01*
G37*
D10*
X105490Y148590D03*
X115490Y148590D03*
X105490Y171450D03*
X115490Y171450D03*
X210740Y177800D03*
X200740Y177800D03*
D11*
X146050Y212010D03*
X146050Y202010D03*
D12*
X132812Y156250D03*
D13*
X135875Y156250D03*
D12*
X132812Y161250D03*
D13*
X135875Y161250D03*
D12*
X132812Y166250D03*
D13*
X135875Y166250D03*
D12*
X132812Y151250D03*
D13*
X135875Y151250D03*
D12*
X132812Y171250D03*
D13*
X135875Y171250D03*
D12*
X132812Y146250D03*
D13*
X135875Y146250D03*
D12*
X132812Y176250D03*
D13*
X135875Y176250D03*
D12*
X132812Y141250D03*
D13*
X135875Y141250D03*
D12*
X184688Y161250D03*
D13*
X181625Y161250D03*
D12*
X184688Y156250D03*
D13*
X181625Y156250D03*
D12*
X184688Y151250D03*
D13*
X181625Y151250D03*
D12*
X184688Y166250D03*
D13*
X181625Y166250D03*
D12*
X184688Y146250D03*
D13*
X181625Y146250D03*
D12*
X184688Y171250D03*
D13*
X181625Y171250D03*
D12*
X184688Y141250D03*
D13*
X181625Y141250D03*
D12*
X184688Y176250D03*
D13*
X181625Y176250D03*
D14*
X161250Y132812D03*
D13*
X161250Y136125D03*
D14*
X156250Y132812D03*
D13*
X156250Y136125D03*
D14*
X151250Y132812D03*
D13*
X151250Y136125D03*
D14*
X166250Y132812D03*
D13*
X166250Y136125D03*
D14*
X146250Y132812D03*
D13*
X146250Y136125D03*
D14*
X171250Y132812D03*
D13*
X171250Y136125D03*
D14*
X141250Y132812D03*
D13*
X141250Y136125D03*
D14*
X176250Y132812D03*
D13*
X176250Y136125D03*
D14*
X156250Y184688D03*
D13*
X156250Y181375D03*
D14*
X161250Y184688D03*
D13*
X161250Y181375D03*
D14*
X166250Y184688D03*
D13*
X166250Y181375D03*
D14*
X151250Y184688D03*
D13*
X151250Y181375D03*
D14*
X171250Y184688D03*
D13*
X171250Y181375D03*
D14*
X146250Y184688D03*
D13*
X146250Y181375D03*
D14*
X176250Y184688D03*
D13*
X176250Y181375D03*
D14*
X141250Y184688D03*
D13*
X141250Y181375D03*
D15*
X147275Y147275D02*
X170225Y147275D01*
X147275Y147275D02*
X147275Y170225D01*
X170225Y170225D01*
X170225Y147275D01*
X170225Y151122D02*
X147275Y151122D01*
X147275Y154969D02*
X170225Y154969D01*
X170225Y158816D02*
X147275Y158816D01*
X147275Y162663D02*
X170225Y162663D01*
X170225Y166510D02*
X147275Y166510D01*
D16*
X196850Y247650D03*
X222250Y247650D03*
X247650Y247650D03*
X171450Y247650D03*
X146050Y247650D03*
D17*
X247650Y171450D03*
X247650Y196850D03*
X247650Y222250D03*
X247650Y146050D03*
X247650Y120650D03*
X247650Y95250D03*
X69850Y171450D03*
X69850Y196850D03*
X69850Y222250D03*
X69850Y146050D03*
X69850Y120650D03*
X69850Y95250D03*
D10*
X210740Y148590D03*
X200740Y148590D03*
D11*
X171450Y109300D03*
X171450Y119300D03*
D18*
X146050Y69850D03*
X120650Y69850D03*
X95250Y69850D03*
X69850Y69850D03*
X171450Y69850D03*
X196850Y69850D03*
X222250Y69850D03*
X247650Y69850D03*
D19*
X95250Y247650D03*
X69850Y247650D03*
X120650Y247650D03*
D20*
X99060Y192780D03*
X99060Y223780D03*
D21*
X19050Y69850D03*
X19050Y44450D03*
D19*
X44450Y19050D03*
X19050Y19050D03*
X69850Y19050D03*
D21*
X298450Y69850D03*
X298450Y44450D03*
D19*
X273050Y19050D03*
X247650Y19050D03*
X298450Y19050D03*
D22*
X95250Y171450D03*
X95250Y148590D03*
X220980Y179070D03*
X135890Y212090D03*
X220980Y148590D03*
X171450Y99060D03*
D23*
X149860Y167640D03*
X167640Y167640D03*
X167640Y149860D03*
X149860Y149860D03*
D24*
X93980Y201930D03*
X104140Y201930D03*
D22*
X113030Y193040D03*
D25*
X169030Y166250D02*
X184688Y166250D01*
X169030Y166250D02*
X167640Y167640D01*
X148470Y166250D02*
X132812Y166250D01*
X148470Y166250D02*
X149860Y167640D01*
D22*
X229870Y168910D03*
X185420Y184150D03*
X132080Y186690D03*
X185420Y133350D03*
X133350Y130810D03*
D25*
X132812Y166250D02*
X124580Y166250D01*
X124460Y166370D01*
D22*
X99060Y138430D03*
X182880Y109220D03*
X210820Y187960D03*
D25*
X190380Y166250D02*
X184688Y166250D01*
D26*
X146250Y184688D02*
X146250Y201810D01*
X146050Y202010D01*
X132612Y171450D02*
X132812Y171250D01*
X132612Y171450D02*
X115490Y171450D01*
X184688Y176250D02*
X199190Y176250D01*
X200740Y177800D01*
X198400Y146250D02*
X184688Y146250D01*
X198400Y146250D02*
X200740Y148590D01*
X132812Y151250D02*
X118150Y151250D01*
X115490Y148590D01*
X117830Y146250D02*
X132812Y146250D01*
X117830Y146250D02*
X115490Y148590D01*
X184688Y151250D02*
X198080Y151250D01*
X200740Y148590D01*
X171450Y132612D02*
X171250Y132812D01*
X171450Y132612D02*
X171450Y119300D01*
D27*
X93720Y223780D02*
X69850Y247650D01*
X93720Y223780D02*
X99060Y223780D01*
X69850Y247650D02*
X50800Y228600D01*
X50800Y158750D01*
X50800Y107950D01*
X50800Y50800D01*
X234950Y50800D01*
X266700Y50800D01*
X266700Y133350D01*
X266700Y209550D01*
X266700Y266700D01*
X88900Y266700D02*
X69850Y247650D01*
X88900Y266700D02*
X266700Y266700D01*
D28*
X115490Y182800D02*
X115490Y171450D01*
X115490Y182800D02*
X115570Y182880D01*
X114300Y181610D01*
X115570Y182880D02*
X116840Y184150D01*
X114300Y181610D02*
X93980Y181610D01*
X86360Y173990D02*
X86360Y166370D01*
X78740Y158750D01*
X50800Y158750D01*
X86360Y173990D02*
X93980Y181610D01*
X115490Y148590D02*
X115490Y142160D01*
X81280Y107950D01*
X50800Y107950D01*
X171450Y119300D02*
X191850Y119300D01*
X234950Y76200D01*
X234950Y50800D01*
X200740Y144521D02*
X200740Y148590D01*
X200740Y144521D02*
X211911Y133350D01*
X266700Y133350D01*
X200740Y177800D02*
X200740Y194390D01*
X215900Y209550D01*
X266700Y209550D01*
X146050Y202010D02*
X140890Y202010D01*
X138430Y204470D02*
X130810Y204470D01*
X121920Y195580D01*
X121920Y189230D01*
X116840Y184150D01*
X138430Y204470D02*
X140890Y202010D01*
D24*
X161897Y213360D03*
D26*
X161897Y197149D01*
X156250Y191502D01*
X156250Y184688D01*
D24*
X156210Y205740D03*
D26*
X156210Y198120D01*
X151130Y193040D01*
X151130Y184808D01*
X151250Y184688D01*
D24*
X133350Y196850D03*
D26*
X141250Y188950D02*
X141250Y184688D01*
X141250Y188950D02*
X133350Y196850D01*
X132812Y176250D02*
X127280Y176250D01*
X123190Y180340D01*
D24*
X123190Y180340D03*
D26*
X141250Y132812D02*
X141250Y115850D01*
X95250Y69850D01*
X146250Y95450D02*
X146250Y132812D01*
X146250Y95450D02*
X120650Y69850D01*
X151250Y75050D02*
X151250Y132812D01*
X151250Y75050D02*
X146050Y69850D01*
X171450Y69850D02*
X171450Y82550D01*
X164484Y85090D02*
X156210Y93364D01*
X156210Y128578D01*
X168910Y85090D02*
X171450Y82550D01*
X168910Y85090D02*
X164484Y85090D01*
X156210Y128578D02*
X156250Y128618D01*
X156250Y132812D01*
X177800Y88900D02*
X196850Y69850D01*
X177800Y88900D02*
X166062Y88900D01*
X160020Y94942D01*
X161250Y128230D02*
X161250Y132812D01*
X161250Y128230D02*
X160020Y127000D01*
X160020Y94942D01*
X166250Y126880D02*
X166250Y132812D01*
X163830Y124460D02*
X163830Y96520D01*
X167640Y92710D01*
X199390Y92710D02*
X222250Y69850D01*
X166250Y126880D02*
X163830Y124460D01*
X167640Y92710D02*
X199390Y92710D01*
X176250Y128550D02*
X176250Y132812D01*
X176250Y128550D02*
X177800Y127000D01*
X203200Y127000D02*
X234950Y95250D01*
X247650Y95250D01*
X203200Y127000D02*
X177800Y127000D01*
X184688Y141250D02*
X195300Y141250D01*
X215900Y120650D02*
X247650Y120650D01*
X215900Y120650D02*
X195300Y141250D01*
X184688Y156250D02*
X237450Y156250D01*
X247650Y146050D01*
X237450Y161250D02*
X184688Y161250D01*
X237450Y161250D02*
X247650Y171450D01*
X191970Y171250D02*
X184688Y171250D01*
X191970Y171250D02*
X194310Y168910D01*
X219710Y168910D01*
X247650Y196850D01*
X176250Y187680D02*
X176250Y184688D01*
X210820Y222250D02*
X247650Y222250D01*
X210820Y222250D02*
X176250Y187680D01*
X132812Y141250D02*
X86812Y95250D01*
X69850Y95250D01*
X92750Y156250D02*
X132812Y156250D01*
X92750Y156250D02*
X88900Y152400D01*
X88900Y139700D01*
X69850Y120650D01*
X91400Y161250D02*
X132812Y161250D01*
X91400Y161250D02*
X76200Y146050D01*
X69850Y146050D01*
X161250Y184688D02*
X161250Y190460D01*
X173990Y203200D01*
X173990Y210820D01*
X163830Y220980D01*
X134620Y220980D01*
X121920Y208280D01*
X88900Y208280D01*
X82550Y201930D01*
X82550Y184150D01*
X69850Y171450D01*
X69850Y196850D02*
X85090Y212090D01*
X133658Y227330D02*
X166370Y227330D01*
X180340Y213360D01*
X118418Y212090D02*
X85090Y212090D01*
X118418Y212090D02*
X133658Y227330D01*
X180340Y213360D02*
X180340Y203200D01*
X166250Y189110D01*
X166250Y184688D01*
X82550Y222250D02*
X69850Y222250D01*
X82550Y222250D02*
X88900Y215900D01*
X114300Y215900D01*
X130810Y232410D01*
X171450Y232410D01*
X186490Y217370D01*
X186490Y203738D01*
X171250Y188498D01*
X171250Y184688D01*
M02*
