G04 EAGLE Gerber RS-274X export*
G75*
%MOMM*%
%FSLAX34Y34*%
%LPD*%
%INBottom Copper Layer*%
%IPPOS*%
%AMOC8*
5,1,8,0,0,1.08239X$1,22.5*%
G01*
%ADD10C,0.554000*%
%ADD11R,4.572000X9.144000*%
%ADD12C,0.654000*%

G36*
X1011448Y3814D02*
X1011448Y3814D01*
X1011467Y3812D01*
X1011569Y3834D01*
X1011671Y3850D01*
X1011688Y3860D01*
X1011708Y3864D01*
X1011797Y3917D01*
X1011888Y3966D01*
X1011902Y3980D01*
X1011919Y3990D01*
X1011986Y4069D01*
X1012058Y4144D01*
X1012066Y4162D01*
X1012079Y4177D01*
X1012118Y4273D01*
X1012161Y4367D01*
X1012163Y4387D01*
X1012171Y4405D01*
X1012189Y4572D01*
X1012189Y97028D01*
X1012186Y97048D01*
X1012188Y97067D01*
X1012166Y97169D01*
X1012150Y97271D01*
X1012140Y97288D01*
X1012136Y97308D01*
X1012083Y97397D01*
X1012034Y97488D01*
X1012020Y97502D01*
X1012010Y97519D01*
X1011931Y97586D01*
X1011856Y97658D01*
X1011838Y97666D01*
X1011823Y97679D01*
X1011727Y97718D01*
X1011633Y97761D01*
X1011613Y97763D01*
X1011595Y97771D01*
X1011428Y97789D01*
X4572Y97789D01*
X4552Y97786D01*
X4533Y97788D01*
X4431Y97766D01*
X4329Y97750D01*
X4312Y97740D01*
X4292Y97736D01*
X4203Y97683D01*
X4112Y97634D01*
X4098Y97620D01*
X4081Y97610D01*
X4014Y97531D01*
X3942Y97456D01*
X3934Y97438D01*
X3921Y97423D01*
X3882Y97327D01*
X3839Y97233D01*
X3837Y97213D01*
X3829Y97195D01*
X3811Y97028D01*
X3811Y4572D01*
X3814Y4552D01*
X3812Y4533D01*
X3834Y4431D01*
X3850Y4329D01*
X3860Y4312D01*
X3864Y4292D01*
X3917Y4203D01*
X3966Y4112D01*
X3980Y4098D01*
X3990Y4081D01*
X4069Y4014D01*
X4144Y3942D01*
X4162Y3934D01*
X4177Y3921D01*
X4273Y3882D01*
X4367Y3839D01*
X4387Y3837D01*
X4405Y3829D01*
X4572Y3811D01*
X1011428Y3811D01*
X1011448Y3814D01*
G37*
D10*
X1004570Y34290D03*
X1004570Y67310D03*
X979170Y34290D03*
X979170Y67310D03*
X1004570Y90170D03*
X979170Y90170D03*
X1004570Y11430D03*
X979170Y11430D03*
X991870Y11430D03*
X991870Y90170D03*
X991870Y67310D03*
X991870Y34290D03*
D11*
X993140Y50800D03*
D10*
X11430Y67310D03*
X11430Y34290D03*
X36830Y67310D03*
X36830Y34290D03*
X11430Y11430D03*
X36830Y11430D03*
X11430Y90170D03*
X36830Y90170D03*
X24130Y90170D03*
X24130Y11430D03*
X24130Y34290D03*
X24130Y67310D03*
D11*
X22860Y50800D03*
D12*
X57150Y63500D03*
X82550Y63500D03*
X107950Y63500D03*
X133350Y63500D03*
X158750Y63500D03*
X184150Y63500D03*
X209550Y63500D03*
X234950Y63500D03*
X260350Y63500D03*
X285750Y63500D03*
X311150Y63500D03*
X336550Y63500D03*
X361950Y63500D03*
X387350Y63500D03*
X412750Y63500D03*
X438150Y63500D03*
X463550Y63500D03*
X488950Y63500D03*
X514350Y63500D03*
X539750Y63500D03*
X565150Y63500D03*
X590550Y63500D03*
X615950Y63500D03*
X641350Y63500D03*
X666750Y63500D03*
X692150Y63500D03*
X717550Y63500D03*
X742950Y63500D03*
X768350Y63500D03*
X793750Y63500D03*
X819150Y63500D03*
X844550Y63500D03*
X869950Y63500D03*
X895350Y63500D03*
X920750Y63500D03*
X946150Y63500D03*
X965200Y63500D03*
X57150Y38100D03*
X82550Y38100D03*
X107950Y38100D03*
X133350Y38100D03*
X158750Y38100D03*
X184150Y38100D03*
X209550Y38100D03*
X234950Y38100D03*
X260350Y38100D03*
X285750Y38100D03*
X311150Y38100D03*
X336550Y38100D03*
X361950Y38100D03*
X387350Y38100D03*
X412750Y38100D03*
X438150Y38100D03*
X463550Y38100D03*
X488950Y38100D03*
X514350Y38100D03*
X539750Y38100D03*
X565150Y38100D03*
X590550Y38100D03*
X615950Y38100D03*
X641350Y38100D03*
X666750Y38100D03*
X692150Y38100D03*
X717550Y38100D03*
X742950Y38100D03*
X768350Y38100D03*
X793750Y38100D03*
X819150Y38100D03*
X844550Y38100D03*
X869950Y38100D03*
X895350Y38100D03*
X920750Y38100D03*
X946150Y38100D03*
X965200Y38100D03*
M02*
