G04 EAGLE Gerber RS-274X export*
G75*
%MOMM*%
%FSLAX34Y34*%
%LPD*%
%INInner Layer 2*%
%IPPOS*%
%AMOC8*
5,1,8,0,0,1.08239X$1,22.5*%
G01*
%ADD10C,1.500000*%
%ADD11C,0.503200*%
%ADD12C,0.457200*%

G36*
X287720Y3822D02*
X287720Y3822D01*
X287786Y3824D01*
X287829Y3842D01*
X287876Y3850D01*
X287933Y3884D01*
X287993Y3909D01*
X288028Y3940D01*
X288069Y3965D01*
X288111Y4016D01*
X288159Y4060D01*
X288181Y4102D01*
X288210Y4139D01*
X288231Y4201D01*
X288262Y4260D01*
X288270Y4314D01*
X288282Y4351D01*
X288281Y4391D01*
X288289Y4445D01*
X288289Y36068D01*
X288278Y36133D01*
X288276Y36199D01*
X288258Y36242D01*
X288250Y36289D01*
X288216Y36346D01*
X288191Y36406D01*
X288160Y36441D01*
X288135Y36482D01*
X288084Y36524D01*
X288040Y36572D01*
X287998Y36594D01*
X287961Y36623D01*
X287899Y36644D01*
X287840Y36675D01*
X287786Y36683D01*
X287749Y36695D01*
X287709Y36694D01*
X287655Y36702D01*
X243279Y36702D01*
X243204Y36777D01*
X243204Y39521D01*
X243193Y39586D01*
X243191Y39652D01*
X243173Y39695D01*
X243165Y39742D01*
X243131Y39799D01*
X243106Y39859D01*
X243075Y39894D01*
X243050Y39935D01*
X242999Y39977D01*
X242955Y40025D01*
X242913Y40047D01*
X242876Y40076D01*
X242814Y40097D01*
X242755Y40128D01*
X242701Y40136D01*
X242664Y40148D01*
X242624Y40147D01*
X242570Y40155D01*
X239521Y40155D01*
X237005Y42671D01*
X237005Y46229D01*
X239521Y48745D01*
X242570Y48745D01*
X242635Y48756D01*
X242701Y48758D01*
X242744Y48776D01*
X242791Y48784D01*
X242848Y48818D01*
X242908Y48843D01*
X242943Y48874D01*
X242984Y48899D01*
X243026Y48950D01*
X243074Y48994D01*
X243096Y49036D01*
X243125Y49073D01*
X243146Y49135D01*
X243177Y49194D01*
X243185Y49248D01*
X243197Y49285D01*
X243196Y49325D01*
X243204Y49379D01*
X243204Y64921D01*
X243193Y64986D01*
X243191Y65052D01*
X243173Y65095D01*
X243165Y65142D01*
X243131Y65199D01*
X243106Y65259D01*
X243075Y65294D01*
X243050Y65335D01*
X242999Y65377D01*
X242955Y65425D01*
X242913Y65447D01*
X242876Y65476D01*
X242814Y65497D01*
X242755Y65528D01*
X242701Y65536D01*
X242664Y65548D01*
X242624Y65547D01*
X242570Y65555D01*
X239521Y65555D01*
X237005Y68071D01*
X237005Y71629D01*
X239521Y74145D01*
X242570Y74145D01*
X242635Y74156D01*
X242701Y74158D01*
X242744Y74176D01*
X242791Y74184D01*
X242848Y74218D01*
X242908Y74243D01*
X242943Y74274D01*
X242984Y74299D01*
X243026Y74350D01*
X243074Y74394D01*
X243096Y74436D01*
X243125Y74473D01*
X243146Y74535D01*
X243177Y74594D01*
X243185Y74648D01*
X243197Y74685D01*
X243196Y74725D01*
X243204Y74779D01*
X243204Y77523D01*
X243279Y77598D01*
X287655Y77598D01*
X287720Y77609D01*
X287786Y77611D01*
X287829Y77629D01*
X287876Y77637D01*
X287933Y77671D01*
X287993Y77696D01*
X288028Y77727D01*
X288069Y77752D01*
X288111Y77803D01*
X288159Y77847D01*
X288181Y77889D01*
X288210Y77926D01*
X288231Y77988D01*
X288262Y78047D01*
X288270Y78101D01*
X288282Y78138D01*
X288281Y78178D01*
X288289Y78232D01*
X288289Y137668D01*
X288278Y137733D01*
X288276Y137799D01*
X288258Y137842D01*
X288250Y137889D01*
X288216Y137946D01*
X288191Y138006D01*
X288160Y138041D01*
X288135Y138082D01*
X288084Y138124D01*
X288040Y138172D01*
X287998Y138194D01*
X287961Y138223D01*
X287899Y138244D01*
X287840Y138275D01*
X287786Y138283D01*
X287749Y138295D01*
X287709Y138294D01*
X287655Y138302D01*
X243279Y138302D01*
X243204Y138377D01*
X243204Y141121D01*
X243193Y141186D01*
X243191Y141252D01*
X243173Y141295D01*
X243165Y141342D01*
X243131Y141399D01*
X243106Y141459D01*
X243075Y141494D01*
X243050Y141535D01*
X242999Y141577D01*
X242955Y141625D01*
X242913Y141647D01*
X242876Y141676D01*
X242814Y141697D01*
X242755Y141728D01*
X242701Y141736D01*
X242664Y141748D01*
X242624Y141747D01*
X242570Y141755D01*
X239521Y141755D01*
X237005Y144271D01*
X237005Y147829D01*
X239521Y150345D01*
X242570Y150345D01*
X242635Y150356D01*
X242701Y150358D01*
X242744Y150376D01*
X242791Y150384D01*
X242848Y150418D01*
X242908Y150443D01*
X242943Y150474D01*
X242984Y150499D01*
X243026Y150550D01*
X243074Y150594D01*
X243096Y150636D01*
X243125Y150673D01*
X243146Y150735D01*
X243177Y150794D01*
X243185Y150848D01*
X243197Y150885D01*
X243196Y150925D01*
X243204Y150979D01*
X243204Y166521D01*
X243193Y166586D01*
X243191Y166652D01*
X243173Y166695D01*
X243165Y166742D01*
X243131Y166799D01*
X243106Y166859D01*
X243075Y166894D01*
X243050Y166935D01*
X242999Y166977D01*
X242955Y167025D01*
X242913Y167047D01*
X242876Y167076D01*
X242814Y167097D01*
X242755Y167128D01*
X242701Y167136D01*
X242664Y167148D01*
X242624Y167147D01*
X242570Y167155D01*
X239521Y167155D01*
X237005Y169671D01*
X237005Y173229D01*
X239521Y175745D01*
X242570Y175745D01*
X242635Y175756D01*
X242701Y175758D01*
X242744Y175776D01*
X242791Y175784D01*
X242848Y175818D01*
X242908Y175843D01*
X242943Y175874D01*
X242984Y175899D01*
X243026Y175950D01*
X243074Y175994D01*
X243096Y176036D01*
X243125Y176073D01*
X243146Y176135D01*
X243177Y176194D01*
X243185Y176248D01*
X243197Y176285D01*
X243196Y176325D01*
X243204Y176379D01*
X243204Y179123D01*
X243279Y179198D01*
X287655Y179198D01*
X287720Y179209D01*
X287786Y179211D01*
X287829Y179229D01*
X287876Y179237D01*
X287933Y179271D01*
X287993Y179296D01*
X288028Y179327D01*
X288069Y179352D01*
X288111Y179403D01*
X288159Y179447D01*
X288181Y179489D01*
X288210Y179526D01*
X288231Y179588D01*
X288262Y179647D01*
X288270Y179701D01*
X288282Y179738D01*
X288281Y179778D01*
X288289Y179832D01*
X288289Y255905D01*
X288278Y255970D01*
X288276Y256036D01*
X288258Y256079D01*
X288250Y256126D01*
X288216Y256183D01*
X288191Y256243D01*
X288160Y256278D01*
X288135Y256319D01*
X288084Y256361D01*
X288040Y256409D01*
X287998Y256431D01*
X287961Y256460D01*
X287899Y256481D01*
X287840Y256512D01*
X287786Y256520D01*
X287749Y256532D01*
X287709Y256531D01*
X287655Y256539D01*
X4445Y256539D01*
X4380Y256528D01*
X4314Y256526D01*
X4271Y256508D01*
X4224Y256500D01*
X4167Y256466D01*
X4107Y256441D01*
X4072Y256410D01*
X4031Y256385D01*
X3989Y256334D01*
X3941Y256290D01*
X3919Y256248D01*
X3890Y256211D01*
X3869Y256149D01*
X3838Y256090D01*
X3830Y256036D01*
X3818Y255999D01*
X3819Y255959D01*
X3811Y255905D01*
X3811Y123952D01*
X3822Y123887D01*
X3824Y123821D01*
X3842Y123778D01*
X3850Y123731D01*
X3884Y123674D01*
X3909Y123614D01*
X3940Y123579D01*
X3965Y123538D01*
X4016Y123496D01*
X4060Y123448D01*
X4102Y123426D01*
X4139Y123397D01*
X4201Y123376D01*
X4260Y123345D01*
X4314Y123337D01*
X4351Y123325D01*
X4391Y123326D01*
X4445Y123318D01*
X50091Y123318D01*
X50166Y123243D01*
X50166Y120499D01*
X50177Y120434D01*
X50179Y120368D01*
X50197Y120325D01*
X50205Y120278D01*
X50239Y120221D01*
X50264Y120161D01*
X50295Y120126D01*
X50320Y120085D01*
X50371Y120043D01*
X50415Y119995D01*
X50457Y119973D01*
X50494Y119944D01*
X50556Y119923D01*
X50615Y119892D01*
X50669Y119884D01*
X50706Y119872D01*
X50746Y119873D01*
X50800Y119865D01*
X53849Y119865D01*
X56365Y117349D01*
X56365Y113791D01*
X53849Y111275D01*
X50800Y111275D01*
X50735Y111264D01*
X50669Y111262D01*
X50626Y111244D01*
X50579Y111236D01*
X50522Y111202D01*
X50462Y111177D01*
X50427Y111146D01*
X50386Y111121D01*
X50344Y111070D01*
X50296Y111026D01*
X50274Y110984D01*
X50245Y110947D01*
X50224Y110885D01*
X50193Y110826D01*
X50185Y110772D01*
X50173Y110735D01*
X50174Y110695D01*
X50166Y110641D01*
X50166Y95099D01*
X50177Y95034D01*
X50179Y94968D01*
X50197Y94925D01*
X50205Y94878D01*
X50239Y94821D01*
X50264Y94761D01*
X50295Y94726D01*
X50320Y94685D01*
X50371Y94643D01*
X50415Y94595D01*
X50457Y94573D01*
X50494Y94544D01*
X50556Y94523D01*
X50615Y94492D01*
X50669Y94484D01*
X50706Y94472D01*
X50746Y94473D01*
X50800Y94465D01*
X53849Y94465D01*
X56365Y91949D01*
X56365Y88391D01*
X53849Y85875D01*
X50800Y85875D01*
X50735Y85864D01*
X50669Y85862D01*
X50626Y85844D01*
X50579Y85836D01*
X50522Y85802D01*
X50462Y85777D01*
X50427Y85746D01*
X50386Y85721D01*
X50344Y85670D01*
X50296Y85626D01*
X50274Y85584D01*
X50245Y85547D01*
X50224Y85485D01*
X50193Y85426D01*
X50185Y85372D01*
X50173Y85335D01*
X50174Y85295D01*
X50166Y85241D01*
X50166Y82497D01*
X50091Y82422D01*
X4445Y82422D01*
X4380Y82411D01*
X4314Y82409D01*
X4271Y82391D01*
X4224Y82383D01*
X4167Y82349D01*
X4107Y82324D01*
X4072Y82293D01*
X4031Y82268D01*
X3989Y82217D01*
X3941Y82173D01*
X3919Y82131D01*
X3890Y82094D01*
X3869Y82032D01*
X3838Y81973D01*
X3830Y81919D01*
X3818Y81882D01*
X3819Y81842D01*
X3811Y81788D01*
X3811Y4445D01*
X3822Y4380D01*
X3824Y4314D01*
X3842Y4271D01*
X3850Y4224D01*
X3884Y4167D01*
X3909Y4107D01*
X3940Y4072D01*
X3965Y4031D01*
X4016Y3989D01*
X4060Y3941D01*
X4102Y3919D01*
X4139Y3890D01*
X4201Y3869D01*
X4260Y3838D01*
X4314Y3830D01*
X4351Y3818D01*
X4391Y3819D01*
X4445Y3811D01*
X287655Y3811D01*
X287720Y3822D01*
G37*
%LPC*%
G36*
X163416Y218185D02*
X163416Y218185D01*
X161035Y220566D01*
X161035Y223934D01*
X163416Y226315D01*
X165432Y226315D01*
X165520Y226331D01*
X165608Y226340D01*
X165629Y226350D01*
X165653Y226354D01*
X165729Y226400D01*
X165809Y226439D01*
X165826Y226456D01*
X165846Y226469D01*
X165902Y226538D01*
X165963Y226602D01*
X165972Y226624D01*
X165987Y226643D01*
X166016Y226727D01*
X166051Y226809D01*
X166052Y226833D01*
X166059Y226855D01*
X166057Y226944D01*
X166061Y227033D01*
X166053Y227056D01*
X166053Y227080D01*
X166019Y227162D01*
X165992Y227247D01*
X165976Y227268D01*
X165968Y227287D01*
X165934Y227325D01*
X165880Y227397D01*
X163584Y229694D01*
X162171Y233104D01*
X162171Y236796D01*
X163584Y240206D01*
X165880Y242503D01*
X165931Y242576D01*
X165987Y242645D01*
X165995Y242667D01*
X166009Y242687D01*
X166031Y242773D01*
X166059Y242857D01*
X166059Y242881D01*
X166064Y242904D01*
X166055Y242993D01*
X166053Y243082D01*
X166044Y243104D01*
X166041Y243127D01*
X166002Y243207D01*
X165968Y243289D01*
X165952Y243307D01*
X165942Y243328D01*
X165877Y243389D01*
X165817Y243455D01*
X165796Y243466D01*
X165779Y243482D01*
X165697Y243517D01*
X165617Y243558D01*
X165591Y243561D01*
X165572Y243570D01*
X165522Y243572D01*
X165432Y243585D01*
X163416Y243585D01*
X161035Y245966D01*
X161035Y249334D01*
X163416Y251715D01*
X166784Y251715D01*
X169165Y249334D01*
X169165Y245966D01*
X168142Y244944D01*
X168085Y244861D01*
X168024Y244781D01*
X168021Y244769D01*
X168014Y244760D01*
X167989Y244662D01*
X167960Y244566D01*
X167961Y244554D01*
X167958Y244542D01*
X167969Y244443D01*
X167975Y244342D01*
X167980Y244331D01*
X167981Y244319D01*
X168026Y244229D01*
X168067Y244137D01*
X168076Y244129D01*
X168081Y244118D01*
X168154Y244049D01*
X168225Y243977D01*
X168236Y243972D01*
X168244Y243964D01*
X168337Y243925D01*
X168428Y243882D01*
X168440Y243881D01*
X168451Y243877D01*
X168552Y243872D01*
X168652Y243864D01*
X168664Y243867D01*
X168675Y243867D01*
X168718Y243881D01*
X168833Y243909D01*
X169604Y244229D01*
X173296Y244229D01*
X174067Y243909D01*
X174165Y243888D01*
X174262Y243863D01*
X174274Y243864D01*
X174286Y243862D01*
X174386Y243876D01*
X174485Y243886D01*
X174496Y243891D01*
X174508Y243893D01*
X174597Y243941D01*
X174687Y243986D01*
X174695Y243994D01*
X174705Y244000D01*
X174772Y244076D01*
X174840Y244149D01*
X174845Y244160D01*
X174853Y244169D01*
X174889Y244263D01*
X174928Y244355D01*
X174928Y244367D01*
X174933Y244378D01*
X174933Y244479D01*
X174938Y244580D01*
X174934Y244591D01*
X174934Y244603D01*
X174900Y244698D01*
X174869Y244793D01*
X174861Y244804D01*
X174858Y244814D01*
X174828Y244849D01*
X174758Y244944D01*
X173735Y245966D01*
X173735Y249334D01*
X176116Y251715D01*
X179484Y251715D01*
X181865Y249334D01*
X181865Y245999D01*
X181876Y245934D01*
X181878Y245868D01*
X181896Y245825D01*
X181904Y245778D01*
X181938Y245721D01*
X181963Y245661D01*
X181994Y245626D01*
X182019Y245585D01*
X182070Y245543D01*
X182114Y245495D01*
X182156Y245473D01*
X182193Y245444D01*
X182255Y245423D01*
X182314Y245392D01*
X182368Y245384D01*
X182405Y245372D01*
X182445Y245373D01*
X182499Y245365D01*
X185834Y245365D01*
X188215Y242984D01*
X188215Y239616D01*
X185834Y237235D01*
X182466Y237235D01*
X181444Y238258D01*
X181361Y238315D01*
X181281Y238376D01*
X181269Y238379D01*
X181260Y238386D01*
X181162Y238411D01*
X181066Y238440D01*
X181054Y238439D01*
X181042Y238442D01*
X180943Y238431D01*
X180842Y238425D01*
X180831Y238420D01*
X180819Y238419D01*
X180729Y238374D01*
X180637Y238333D01*
X180629Y238324D01*
X180618Y238319D01*
X180549Y238246D01*
X180477Y238175D01*
X180472Y238164D01*
X180464Y238156D01*
X180425Y238063D01*
X180382Y237972D01*
X180381Y237960D01*
X180377Y237949D01*
X180372Y237848D01*
X180364Y237748D01*
X180367Y237736D01*
X180367Y237725D01*
X180381Y237682D01*
X180409Y237567D01*
X180729Y236796D01*
X180729Y233104D01*
X180409Y232333D01*
X180388Y232235D01*
X180363Y232138D01*
X180364Y232126D01*
X180362Y232114D01*
X180376Y232014D01*
X180386Y231915D01*
X180391Y231904D01*
X180393Y231892D01*
X180441Y231803D01*
X180486Y231713D01*
X180494Y231705D01*
X180500Y231695D01*
X180576Y231628D01*
X180649Y231560D01*
X180660Y231555D01*
X180669Y231547D01*
X180763Y231511D01*
X180855Y231472D01*
X180867Y231472D01*
X180878Y231467D01*
X180979Y231467D01*
X181080Y231462D01*
X181091Y231466D01*
X181103Y231466D01*
X181198Y231500D01*
X181293Y231531D01*
X181304Y231538D01*
X181314Y231542D01*
X181349Y231572D01*
X181444Y231642D01*
X182466Y232665D01*
X185834Y232665D01*
X188215Y230284D01*
X188215Y226916D01*
X185834Y224535D01*
X182499Y224535D01*
X182434Y224524D01*
X182368Y224522D01*
X182325Y224504D01*
X182278Y224496D01*
X182221Y224462D01*
X182161Y224437D01*
X182126Y224406D01*
X182085Y224381D01*
X182043Y224330D01*
X181995Y224286D01*
X181973Y224244D01*
X181944Y224207D01*
X181923Y224145D01*
X181892Y224086D01*
X181884Y224032D01*
X181872Y223995D01*
X181872Y223990D01*
X181872Y223989D01*
X181873Y223955D01*
X181865Y223901D01*
X181865Y220566D01*
X179484Y218185D01*
X176116Y218185D01*
X173735Y220566D01*
X173735Y223934D01*
X174758Y224956D01*
X174815Y225039D01*
X174876Y225119D01*
X174879Y225131D01*
X174886Y225140D01*
X174911Y225238D01*
X174940Y225334D01*
X174939Y225346D01*
X174942Y225358D01*
X174931Y225457D01*
X174925Y225558D01*
X174920Y225569D01*
X174919Y225581D01*
X174874Y225671D01*
X174833Y225763D01*
X174824Y225771D01*
X174819Y225782D01*
X174746Y225851D01*
X174675Y225923D01*
X174664Y225928D01*
X174656Y225936D01*
X174563Y225975D01*
X174472Y226018D01*
X174460Y226019D01*
X174449Y226023D01*
X174348Y226028D01*
X174248Y226036D01*
X174236Y226033D01*
X174225Y226033D01*
X174182Y226019D01*
X174067Y225991D01*
X173296Y225671D01*
X169604Y225671D01*
X168833Y225991D01*
X168735Y226012D01*
X168638Y226037D01*
X168626Y226036D01*
X168614Y226038D01*
X168514Y226024D01*
X168415Y226014D01*
X168404Y226009D01*
X168392Y226007D01*
X168303Y225959D01*
X168213Y225914D01*
X168205Y225906D01*
X168195Y225900D01*
X168128Y225824D01*
X168060Y225751D01*
X168055Y225740D01*
X168047Y225731D01*
X168011Y225637D01*
X167972Y225545D01*
X167972Y225533D01*
X167967Y225522D01*
X167967Y225421D01*
X167962Y225320D01*
X167966Y225309D01*
X167966Y225297D01*
X168000Y225202D01*
X168031Y225107D01*
X168038Y225096D01*
X168042Y225086D01*
X168072Y225051D01*
X168142Y224956D01*
X169165Y223934D01*
X169165Y220566D01*
X166784Y218185D01*
X163416Y218185D01*
G37*
%LPD*%
%LPC*%
G36*
X144204Y225671D02*
X144204Y225671D01*
X140794Y227084D01*
X138184Y229694D01*
X136771Y233104D01*
X136771Y236796D01*
X138184Y240206D01*
X140794Y242816D01*
X144204Y244229D01*
X147896Y244229D01*
X151306Y242816D01*
X153916Y240206D01*
X155329Y236796D01*
X155329Y233104D01*
X153916Y229694D01*
X151306Y227084D01*
X147896Y225671D01*
X144204Y225671D01*
G37*
%LPD*%
%LPC*%
G36*
X226916Y63245D02*
X226916Y63245D01*
X224535Y65626D01*
X224535Y68994D01*
X226848Y71306D01*
X226886Y71360D01*
X226931Y71408D01*
X226949Y71452D01*
X226976Y71491D01*
X226993Y71554D01*
X227018Y71615D01*
X227020Y71662D01*
X227032Y71708D01*
X227025Y71773D01*
X227028Y71839D01*
X227014Y71884D01*
X227009Y71931D01*
X226980Y71990D01*
X226960Y72053D01*
X226927Y72097D01*
X226909Y72132D01*
X226881Y72159D01*
X226848Y72203D01*
X225874Y73178D01*
X225819Y73216D01*
X225772Y73261D01*
X225728Y73279D01*
X225689Y73306D01*
X225626Y73323D01*
X225565Y73348D01*
X225518Y73350D01*
X225472Y73362D01*
X225407Y73355D01*
X225341Y73358D01*
X225296Y73344D01*
X225249Y73339D01*
X225190Y73310D01*
X225127Y73290D01*
X225083Y73257D01*
X225048Y73239D01*
X225021Y73211D01*
X224977Y73178D01*
X223934Y72135D01*
X220566Y72135D01*
X218185Y74516D01*
X218185Y77884D01*
X220566Y80265D01*
X223934Y80265D01*
X224977Y79222D01*
X225031Y79184D01*
X225078Y79139D01*
X225122Y79121D01*
X225161Y79094D01*
X225224Y79077D01*
X225285Y79052D01*
X225332Y79050D01*
X225378Y79038D01*
X225443Y79045D01*
X225509Y79042D01*
X225554Y79056D01*
X225601Y79061D01*
X225660Y79090D01*
X225723Y79110D01*
X225767Y79143D01*
X225802Y79161D01*
X225829Y79189D01*
X225874Y79222D01*
X226916Y80265D01*
X230251Y80265D01*
X230316Y80276D01*
X230382Y80278D01*
X230425Y80296D01*
X230472Y80304D01*
X230529Y80338D01*
X230589Y80363D01*
X230624Y80394D01*
X230665Y80419D01*
X230707Y80470D01*
X230755Y80514D01*
X230777Y80556D01*
X230806Y80593D01*
X230827Y80655D01*
X230858Y80714D01*
X230866Y80768D01*
X230878Y80805D01*
X230877Y80845D01*
X230885Y80899D01*
X230885Y84234D01*
X233198Y86547D01*
X233236Y86601D01*
X233281Y86648D01*
X233299Y86692D01*
X233326Y86731D01*
X233343Y86794D01*
X233368Y86855D01*
X233370Y86902D01*
X233382Y86948D01*
X233375Y87013D01*
X233378Y87079D01*
X233364Y87124D01*
X233359Y87171D01*
X233330Y87230D01*
X233310Y87293D01*
X233277Y87337D01*
X233259Y87372D01*
X233231Y87399D01*
X233198Y87444D01*
X230885Y89756D01*
X230885Y93124D01*
X233266Y95505D01*
X236634Y95505D01*
X239015Y93124D01*
X239015Y89756D01*
X236702Y87444D01*
X236664Y87389D01*
X236619Y87342D01*
X236601Y87298D01*
X236574Y87259D01*
X236557Y87196D01*
X236532Y87135D01*
X236530Y87088D01*
X236518Y87042D01*
X236525Y86977D01*
X236522Y86911D01*
X236536Y86866D01*
X236541Y86819D01*
X236570Y86760D01*
X236590Y86697D01*
X236623Y86653D01*
X236641Y86618D01*
X236669Y86591D01*
X236702Y86547D01*
X239015Y84234D01*
X239015Y80866D01*
X236634Y78485D01*
X233299Y78485D01*
X233234Y78474D01*
X233168Y78472D01*
X233125Y78454D01*
X233078Y78446D01*
X233021Y78412D01*
X232961Y78387D01*
X232926Y78356D01*
X232885Y78331D01*
X232843Y78280D01*
X232795Y78236D01*
X232773Y78194D01*
X232744Y78157D01*
X232723Y78095D01*
X232692Y78036D01*
X232684Y77982D01*
X232672Y77945D01*
X232673Y77905D01*
X232665Y77851D01*
X232665Y74516D01*
X230352Y72203D01*
X230314Y72149D01*
X230269Y72102D01*
X230251Y72058D01*
X230224Y72019D01*
X230207Y71956D01*
X230182Y71895D01*
X230180Y71848D01*
X230168Y71802D01*
X230175Y71737D01*
X230172Y71671D01*
X230186Y71626D01*
X230191Y71579D01*
X230220Y71520D01*
X230240Y71457D01*
X230273Y71413D01*
X230291Y71378D01*
X230319Y71351D01*
X230352Y71306D01*
X232665Y68994D01*
X232665Y65626D01*
X230284Y63245D01*
X226916Y63245D01*
G37*
%LPD*%
%LPC*%
G36*
X150716Y100075D02*
X150716Y100075D01*
X148335Y102456D01*
X148335Y105824D01*
X150013Y107502D01*
X150051Y107556D01*
X150096Y107603D01*
X150114Y107647D01*
X150141Y107686D01*
X150158Y107749D01*
X150183Y107810D01*
X150185Y107857D01*
X150197Y107903D01*
X150190Y107968D01*
X150193Y108034D01*
X150179Y108079D01*
X150174Y108126D01*
X150145Y108185D01*
X150125Y108248D01*
X150092Y108292D01*
X150074Y108327D01*
X150046Y108354D01*
X150013Y108399D01*
X148335Y110076D01*
X148335Y113444D01*
X150716Y115825D01*
X154084Y115825D01*
X155761Y114147D01*
X155816Y114109D01*
X155863Y114064D01*
X155907Y114046D01*
X155946Y114019D01*
X156009Y114002D01*
X156070Y113977D01*
X156117Y113975D01*
X156163Y113963D01*
X156228Y113970D01*
X156294Y113967D01*
X156339Y113981D01*
X156386Y113986D01*
X156445Y114015D01*
X156508Y114035D01*
X156552Y114068D01*
X156587Y114086D01*
X156614Y114114D01*
X156658Y114147D01*
X158336Y115825D01*
X161704Y115825D01*
X164085Y113444D01*
X164085Y110076D01*
X162407Y108399D01*
X162369Y108344D01*
X162324Y108297D01*
X162306Y108253D01*
X162279Y108214D01*
X162262Y108151D01*
X162237Y108090D01*
X162235Y108043D01*
X162223Y107997D01*
X162230Y107932D01*
X162227Y107866D01*
X162241Y107821D01*
X162246Y107774D01*
X162275Y107715D01*
X162295Y107652D01*
X162328Y107608D01*
X162346Y107573D01*
X162374Y107546D01*
X162407Y107502D01*
X164085Y105824D01*
X164085Y102456D01*
X161704Y100075D01*
X158336Y100075D01*
X156658Y101753D01*
X156604Y101791D01*
X156557Y101836D01*
X156513Y101854D01*
X156474Y101881D01*
X156411Y101898D01*
X156350Y101923D01*
X156303Y101925D01*
X156257Y101937D01*
X156192Y101930D01*
X156126Y101933D01*
X156081Y101919D01*
X156034Y101914D01*
X155975Y101885D01*
X155912Y101865D01*
X155868Y101832D01*
X155833Y101814D01*
X155806Y101786D01*
X155761Y101753D01*
X154084Y100075D01*
X150716Y100075D01*
G37*
%LPD*%
%LPC*%
G36*
X233266Y120395D02*
X233266Y120395D01*
X230885Y122776D01*
X230885Y126144D01*
X233198Y128456D01*
X233236Y128511D01*
X233281Y128558D01*
X233299Y128602D01*
X233326Y128641D01*
X233343Y128704D01*
X233368Y128765D01*
X233370Y128812D01*
X233382Y128858D01*
X233375Y128923D01*
X233378Y128989D01*
X233364Y129034D01*
X233359Y129081D01*
X233330Y129140D01*
X233310Y129203D01*
X233277Y129247D01*
X233259Y129282D01*
X233231Y129309D01*
X233198Y129353D01*
X230885Y131666D01*
X230885Y135001D01*
X230874Y135066D01*
X230872Y135132D01*
X230854Y135175D01*
X230846Y135222D01*
X230812Y135279D01*
X230787Y135339D01*
X230756Y135374D01*
X230731Y135415D01*
X230680Y135457D01*
X230636Y135505D01*
X230594Y135527D01*
X230557Y135556D01*
X230495Y135577D01*
X230436Y135608D01*
X230382Y135616D01*
X230345Y135628D01*
X230305Y135627D01*
X230251Y135635D01*
X226916Y135635D01*
X225874Y136678D01*
X225819Y136716D01*
X225772Y136761D01*
X225728Y136779D01*
X225689Y136806D01*
X225626Y136823D01*
X225565Y136848D01*
X225518Y136850D01*
X225472Y136862D01*
X225407Y136855D01*
X225341Y136858D01*
X225296Y136844D01*
X225249Y136839D01*
X225190Y136810D01*
X225127Y136790D01*
X225083Y136757D01*
X225048Y136739D01*
X225021Y136711D01*
X224977Y136678D01*
X223934Y135635D01*
X220566Y135635D01*
X218185Y138016D01*
X218185Y141384D01*
X220566Y143765D01*
X223934Y143765D01*
X224977Y142722D01*
X225031Y142684D01*
X225078Y142639D01*
X225122Y142621D01*
X225161Y142594D01*
X225224Y142577D01*
X225285Y142552D01*
X225332Y142550D01*
X225378Y142538D01*
X225443Y142545D01*
X225509Y142542D01*
X225554Y142556D01*
X225601Y142561D01*
X225660Y142590D01*
X225723Y142610D01*
X225767Y142643D01*
X225802Y142661D01*
X225829Y142689D01*
X225874Y142722D01*
X226916Y143765D01*
X230284Y143765D01*
X232665Y141384D01*
X232665Y138049D01*
X232676Y137984D01*
X232678Y137918D01*
X232696Y137875D01*
X232704Y137828D01*
X232738Y137771D01*
X232763Y137711D01*
X232794Y137676D01*
X232819Y137635D01*
X232870Y137593D01*
X232914Y137545D01*
X232956Y137523D01*
X232993Y137494D01*
X233055Y137473D01*
X233114Y137442D01*
X233168Y137434D01*
X233205Y137422D01*
X233245Y137423D01*
X233299Y137415D01*
X236634Y137415D01*
X239015Y135034D01*
X239015Y131666D01*
X236702Y129353D01*
X236664Y129299D01*
X236619Y129252D01*
X236601Y129208D01*
X236574Y129169D01*
X236557Y129106D01*
X236532Y129045D01*
X236530Y128998D01*
X236518Y128952D01*
X236525Y128887D01*
X236522Y128821D01*
X236536Y128776D01*
X236541Y128729D01*
X236570Y128670D01*
X236590Y128607D01*
X236623Y128563D01*
X236641Y128528D01*
X236669Y128501D01*
X236702Y128456D01*
X239015Y126144D01*
X239015Y122776D01*
X236634Y120395D01*
X233266Y120395D01*
G37*
%LPD*%
%LPC*%
G36*
X111346Y53085D02*
X111346Y53085D01*
X108965Y55466D01*
X108965Y58834D01*
X111346Y61215D01*
X114714Y61215D01*
X116391Y59537D01*
X116446Y59499D01*
X116493Y59454D01*
X116537Y59436D01*
X116576Y59409D01*
X116639Y59392D01*
X116700Y59367D01*
X116747Y59365D01*
X116793Y59353D01*
X116858Y59360D01*
X116924Y59357D01*
X116969Y59371D01*
X117016Y59376D01*
X117075Y59405D01*
X117138Y59425D01*
X117182Y59458D01*
X117217Y59476D01*
X117244Y59504D01*
X117288Y59537D01*
X118966Y61215D01*
X122334Y61215D01*
X124011Y59537D01*
X124066Y59499D01*
X124113Y59454D01*
X124157Y59436D01*
X124196Y59409D01*
X124259Y59392D01*
X124320Y59367D01*
X124367Y59365D01*
X124413Y59353D01*
X124478Y59360D01*
X124544Y59357D01*
X124589Y59371D01*
X124636Y59376D01*
X124695Y59405D01*
X124758Y59425D01*
X124802Y59458D01*
X124837Y59476D01*
X124864Y59504D01*
X124908Y59537D01*
X126586Y61215D01*
X129954Y61215D01*
X131631Y59537D01*
X131686Y59499D01*
X131733Y59454D01*
X131777Y59436D01*
X131816Y59409D01*
X131879Y59392D01*
X131940Y59367D01*
X131987Y59365D01*
X132033Y59353D01*
X132098Y59360D01*
X132164Y59357D01*
X132209Y59371D01*
X132256Y59376D01*
X132315Y59405D01*
X132378Y59425D01*
X132422Y59458D01*
X132457Y59476D01*
X132484Y59504D01*
X132528Y59537D01*
X134206Y61215D01*
X137574Y61215D01*
X139955Y58834D01*
X139955Y55466D01*
X137574Y53085D01*
X134206Y53085D01*
X132528Y54763D01*
X132474Y54801D01*
X132427Y54846D01*
X132383Y54864D01*
X132344Y54891D01*
X132281Y54908D01*
X132220Y54933D01*
X132173Y54935D01*
X132127Y54947D01*
X132062Y54940D01*
X131996Y54943D01*
X131951Y54929D01*
X131904Y54924D01*
X131845Y54895D01*
X131782Y54875D01*
X131738Y54842D01*
X131703Y54824D01*
X131676Y54796D01*
X131631Y54763D01*
X129954Y53085D01*
X126586Y53085D01*
X124908Y54763D01*
X124854Y54801D01*
X124807Y54846D01*
X124763Y54864D01*
X124724Y54891D01*
X124661Y54908D01*
X124600Y54933D01*
X124553Y54935D01*
X124507Y54947D01*
X124442Y54940D01*
X124376Y54943D01*
X124331Y54929D01*
X124284Y54924D01*
X124225Y54895D01*
X124162Y54875D01*
X124118Y54842D01*
X124083Y54824D01*
X124056Y54796D01*
X124011Y54763D01*
X122334Y53085D01*
X118966Y53085D01*
X117288Y54763D01*
X117234Y54801D01*
X117187Y54846D01*
X117143Y54864D01*
X117104Y54891D01*
X117041Y54908D01*
X116980Y54933D01*
X116933Y54935D01*
X116887Y54947D01*
X116822Y54940D01*
X116756Y54943D01*
X116711Y54929D01*
X116664Y54924D01*
X116605Y54895D01*
X116542Y54875D01*
X116498Y54842D01*
X116463Y54824D01*
X116436Y54796D01*
X116391Y54763D01*
X114714Y53085D01*
X111346Y53085D01*
G37*
%LPD*%
%LPC*%
G36*
X81120Y61467D02*
X81120Y61467D01*
X80459Y62129D01*
X80404Y62167D01*
X80357Y62212D01*
X80313Y62230D01*
X80274Y62257D01*
X80211Y62274D01*
X80150Y62299D01*
X80103Y62301D01*
X80057Y62313D01*
X79992Y62306D01*
X79926Y62309D01*
X79881Y62295D01*
X79834Y62290D01*
X79775Y62261D01*
X79712Y62241D01*
X79668Y62208D01*
X79633Y62190D01*
X79606Y62162D01*
X79562Y62129D01*
X79154Y61721D01*
X75786Y61721D01*
X73405Y64102D01*
X73405Y67470D01*
X74956Y69021D01*
X75007Y69094D01*
X75063Y69163D01*
X75071Y69185D01*
X75084Y69205D01*
X75106Y69291D01*
X75135Y69375D01*
X75134Y69399D01*
X75140Y69422D01*
X75131Y69511D01*
X75128Y69600D01*
X75119Y69622D01*
X75117Y69645D01*
X75077Y69725D01*
X75044Y69807D01*
X75028Y69825D01*
X75018Y69846D01*
X74953Y69907D01*
X74893Y69973D01*
X74871Y69984D01*
X74854Y70000D01*
X74772Y70035D01*
X74693Y70076D01*
X74667Y70079D01*
X74648Y70088D01*
X74597Y70090D01*
X74508Y70103D01*
X71214Y70103D01*
X68833Y72484D01*
X68833Y75852D01*
X71214Y78233D01*
X74582Y78233D01*
X76963Y75852D01*
X76963Y72484D01*
X75412Y70933D01*
X75361Y70860D01*
X75305Y70791D01*
X75297Y70769D01*
X75284Y70749D01*
X75262Y70663D01*
X75233Y70579D01*
X75234Y70555D01*
X75228Y70532D01*
X75237Y70443D01*
X75240Y70354D01*
X75249Y70332D01*
X75251Y70309D01*
X75291Y70229D01*
X75324Y70147D01*
X75340Y70129D01*
X75350Y70108D01*
X75415Y70047D01*
X75475Y69981D01*
X75497Y69970D01*
X75514Y69954D01*
X75596Y69919D01*
X75675Y69878D01*
X75701Y69875D01*
X75720Y69866D01*
X75771Y69864D01*
X75860Y69851D01*
X79154Y69851D01*
X79816Y69189D01*
X79870Y69151D01*
X79917Y69106D01*
X79961Y69088D01*
X80000Y69061D01*
X80063Y69044D01*
X80124Y69019D01*
X80171Y69017D01*
X80217Y69005D01*
X80282Y69012D01*
X80348Y69009D01*
X80393Y69023D01*
X80440Y69028D01*
X80499Y69057D01*
X80562Y69077D01*
X80606Y69110D01*
X80641Y69128D01*
X80668Y69156D01*
X80713Y69189D01*
X81120Y69597D01*
X84488Y69597D01*
X86869Y67216D01*
X86869Y63848D01*
X84488Y61467D01*
X81120Y61467D01*
G37*
%LPD*%
%LPC*%
G36*
X150716Y179069D02*
X150716Y179069D01*
X148335Y181450D01*
X148335Y184818D01*
X150716Y187199D01*
X154084Y187199D01*
X155000Y186283D01*
X155054Y186245D01*
X155101Y186200D01*
X155145Y186182D01*
X155184Y186155D01*
X155247Y186138D01*
X155308Y186113D01*
X155355Y186111D01*
X155401Y186099D01*
X155466Y186106D01*
X155532Y186103D01*
X155577Y186117D01*
X155624Y186122D01*
X155683Y186151D01*
X155746Y186171D01*
X155790Y186204D01*
X155825Y186222D01*
X155852Y186250D01*
X155897Y186283D01*
X157066Y187453D01*
X160434Y187453D01*
X161730Y186156D01*
X161785Y186118D01*
X161832Y186073D01*
X161876Y186055D01*
X161915Y186028D01*
X161978Y186011D01*
X162039Y185986D01*
X162086Y185984D01*
X162132Y185972D01*
X162197Y185979D01*
X162263Y185976D01*
X162308Y185990D01*
X162355Y185995D01*
X162414Y186024D01*
X162477Y186044D01*
X162521Y186077D01*
X162556Y186095D01*
X162583Y186123D01*
X162627Y186156D01*
X163670Y187199D01*
X167038Y187199D01*
X169419Y184818D01*
X169419Y181450D01*
X167038Y179069D01*
X163670Y179069D01*
X162373Y180366D01*
X162319Y180404D01*
X162272Y180449D01*
X162228Y180467D01*
X162189Y180494D01*
X162126Y180511D01*
X162065Y180536D01*
X162018Y180538D01*
X161972Y180550D01*
X161907Y180543D01*
X161841Y180546D01*
X161796Y180532D01*
X161749Y180527D01*
X161690Y180498D01*
X161627Y180478D01*
X161583Y180445D01*
X161548Y180427D01*
X161521Y180399D01*
X161476Y180366D01*
X160434Y179323D01*
X157066Y179323D01*
X156151Y180239D01*
X156096Y180277D01*
X156049Y180322D01*
X156005Y180340D01*
X155966Y180367D01*
X155903Y180384D01*
X155842Y180409D01*
X155795Y180411D01*
X155749Y180423D01*
X155684Y180416D01*
X155618Y180419D01*
X155573Y180405D01*
X155526Y180400D01*
X155467Y180371D01*
X155404Y180351D01*
X155360Y180318D01*
X155325Y180300D01*
X155298Y180272D01*
X155254Y180239D01*
X154084Y179069D01*
X150716Y179069D01*
G37*
%LPD*%
%LPC*%
G36*
X113124Y153161D02*
X113124Y153161D01*
X110743Y155542D01*
X110743Y158910D01*
X112929Y161096D01*
X112967Y161150D01*
X113012Y161197D01*
X113030Y161241D01*
X113057Y161280D01*
X113074Y161343D01*
X113099Y161404D01*
X113101Y161451D01*
X113113Y161497D01*
X113106Y161562D01*
X113109Y161628D01*
X113095Y161673D01*
X113090Y161720D01*
X113061Y161779D01*
X113041Y161842D01*
X113008Y161886D01*
X112990Y161921D01*
X112962Y161948D01*
X112929Y161993D01*
X111505Y163416D01*
X111505Y166784D01*
X113886Y169165D01*
X117254Y169165D01*
X119635Y166784D01*
X119635Y163416D01*
X117449Y161231D01*
X117411Y161176D01*
X117366Y161129D01*
X117348Y161085D01*
X117321Y161046D01*
X117304Y160983D01*
X117279Y160922D01*
X117277Y160875D01*
X117265Y160829D01*
X117272Y160764D01*
X117269Y160698D01*
X117283Y160653D01*
X117288Y160606D01*
X117317Y160547D01*
X117337Y160484D01*
X117370Y160440D01*
X117388Y160405D01*
X117416Y160378D01*
X117449Y160334D01*
X118873Y158910D01*
X118873Y155542D01*
X116492Y153161D01*
X113124Y153161D01*
G37*
%LPD*%
%LPC*%
G36*
X51656Y208025D02*
X51656Y208025D01*
X49275Y210406D01*
X49275Y213774D01*
X50953Y215452D01*
X50991Y215506D01*
X51036Y215553D01*
X51054Y215597D01*
X51081Y215636D01*
X51098Y215699D01*
X51123Y215760D01*
X51125Y215807D01*
X51137Y215853D01*
X51130Y215918D01*
X51133Y215984D01*
X51119Y216029D01*
X51114Y216076D01*
X51085Y216135D01*
X51065Y216198D01*
X51032Y216242D01*
X51014Y216277D01*
X50986Y216304D01*
X50953Y216349D01*
X49275Y218026D01*
X49275Y221394D01*
X51656Y223775D01*
X55024Y223775D01*
X57405Y221394D01*
X57405Y218026D01*
X55727Y216349D01*
X55689Y216294D01*
X55644Y216247D01*
X55626Y216203D01*
X55599Y216164D01*
X55582Y216101D01*
X55557Y216040D01*
X55555Y215993D01*
X55543Y215947D01*
X55550Y215882D01*
X55547Y215816D01*
X55561Y215771D01*
X55566Y215724D01*
X55595Y215665D01*
X55615Y215602D01*
X55648Y215558D01*
X55666Y215523D01*
X55694Y215496D01*
X55727Y215452D01*
X57405Y213774D01*
X57405Y210406D01*
X55024Y208025D01*
X51656Y208025D01*
G37*
%LPD*%
%LPC*%
G36*
X36416Y152145D02*
X36416Y152145D01*
X34035Y154526D01*
X34035Y157894D01*
X35713Y159571D01*
X35751Y159626D01*
X35796Y159673D01*
X35814Y159717D01*
X35841Y159756D01*
X35858Y159819D01*
X35883Y159880D01*
X35885Y159927D01*
X35897Y159973D01*
X35890Y160038D01*
X35893Y160104D01*
X35879Y160149D01*
X35874Y160196D01*
X35845Y160255D01*
X35825Y160318D01*
X35792Y160362D01*
X35774Y160397D01*
X35746Y160424D01*
X35713Y160468D01*
X34035Y162146D01*
X34035Y165514D01*
X36416Y167895D01*
X39784Y167895D01*
X42165Y165514D01*
X42165Y162146D01*
X40487Y160468D01*
X40449Y160414D01*
X40404Y160367D01*
X40386Y160323D01*
X40359Y160284D01*
X40342Y160221D01*
X40317Y160160D01*
X40315Y160113D01*
X40303Y160067D01*
X40310Y160002D01*
X40307Y159936D01*
X40321Y159891D01*
X40326Y159844D01*
X40355Y159785D01*
X40375Y159722D01*
X40408Y159678D01*
X40426Y159643D01*
X40454Y159616D01*
X40487Y159571D01*
X42165Y157894D01*
X42165Y154526D01*
X39784Y152145D01*
X36416Y152145D01*
G37*
%LPD*%
%LPC*%
G36*
X85946Y169925D02*
X85946Y169925D01*
X83565Y172306D01*
X83565Y175674D01*
X85243Y177352D01*
X85281Y177406D01*
X85326Y177453D01*
X85344Y177497D01*
X85371Y177536D01*
X85388Y177599D01*
X85413Y177660D01*
X85415Y177707D01*
X85427Y177753D01*
X85420Y177818D01*
X85423Y177884D01*
X85409Y177929D01*
X85404Y177976D01*
X85375Y178035D01*
X85355Y178098D01*
X85322Y178142D01*
X85304Y178177D01*
X85276Y178204D01*
X85243Y178249D01*
X83565Y179926D01*
X83565Y183294D01*
X85946Y185675D01*
X89314Y185675D01*
X91695Y183294D01*
X91695Y179926D01*
X90017Y178249D01*
X89979Y178194D01*
X89934Y178147D01*
X89916Y178103D01*
X89889Y178064D01*
X89872Y178001D01*
X89847Y177940D01*
X89845Y177893D01*
X89833Y177847D01*
X89840Y177782D01*
X89837Y177716D01*
X89851Y177671D01*
X89856Y177624D01*
X89885Y177565D01*
X89905Y177502D01*
X89938Y177458D01*
X89956Y177423D01*
X89984Y177396D01*
X90017Y177352D01*
X91695Y175674D01*
X91695Y172306D01*
X89314Y169925D01*
X85946Y169925D01*
G37*
%LPD*%
%LPC*%
G36*
X172306Y59435D02*
X172306Y59435D01*
X169925Y61816D01*
X169925Y63881D01*
X169914Y63946D01*
X169912Y64012D01*
X169894Y64055D01*
X169886Y64102D01*
X169852Y64159D01*
X169827Y64219D01*
X169796Y64254D01*
X169771Y64295D01*
X169720Y64337D01*
X169676Y64385D01*
X169634Y64407D01*
X169597Y64436D01*
X169535Y64457D01*
X169476Y64488D01*
X169422Y64496D01*
X169385Y64508D01*
X169345Y64507D01*
X169291Y64515D01*
X167226Y64515D01*
X164845Y66896D01*
X164845Y70264D01*
X167226Y72645D01*
X170594Y72645D01*
X172975Y70264D01*
X172975Y68199D01*
X172986Y68134D01*
X172988Y68068D01*
X173006Y68025D01*
X173014Y67978D01*
X173048Y67921D01*
X173073Y67861D01*
X173104Y67826D01*
X173129Y67785D01*
X173180Y67743D01*
X173224Y67695D01*
X173266Y67673D01*
X173303Y67644D01*
X173365Y67623D01*
X173424Y67592D01*
X173478Y67584D01*
X173515Y67572D01*
X173555Y67573D01*
X173609Y67565D01*
X175674Y67565D01*
X178055Y65184D01*
X178055Y61816D01*
X175674Y59435D01*
X172306Y59435D01*
G37*
%LPD*%
%LPC*%
G36*
X28701Y60475D02*
X28701Y60475D01*
X26185Y62991D01*
X26185Y66549D01*
X28701Y69065D01*
X32259Y69065D01*
X34775Y66549D01*
X34775Y62991D01*
X32259Y60475D01*
X28701Y60475D01*
G37*
%LPD*%
%LPC*%
G36*
X46481Y60475D02*
X46481Y60475D01*
X43965Y62991D01*
X43965Y66549D01*
X46481Y69065D01*
X50039Y69065D01*
X52555Y66549D01*
X52555Y62991D01*
X50039Y60475D01*
X46481Y60475D01*
G37*
%LPD*%
%LPC*%
G36*
X9651Y136675D02*
X9651Y136675D01*
X7135Y139191D01*
X7135Y142749D01*
X9651Y145265D01*
X13209Y145265D01*
X15725Y142749D01*
X15725Y139191D01*
X13209Y136675D01*
X9651Y136675D01*
G37*
%LPD*%
%LPC*%
G36*
X46481Y136675D02*
X46481Y136675D01*
X43965Y139191D01*
X43965Y142749D01*
X46481Y145265D01*
X50039Y145265D01*
X52555Y142749D01*
X52555Y139191D01*
X50039Y136675D01*
X46481Y136675D01*
G37*
%LPD*%
%LPC*%
G36*
X27431Y136675D02*
X27431Y136675D01*
X24915Y139191D01*
X24915Y142749D01*
X27431Y145265D01*
X30989Y145265D01*
X33505Y142749D01*
X33505Y139191D01*
X30989Y136675D01*
X27431Y136675D01*
G37*
%LPD*%
%LPC*%
G36*
X280161Y192555D02*
X280161Y192555D01*
X277645Y195071D01*
X277645Y198629D01*
X280161Y201145D01*
X283719Y201145D01*
X286235Y198629D01*
X286235Y195071D01*
X283719Y192555D01*
X280161Y192555D01*
G37*
%LPD*%
%LPC*%
G36*
X243331Y90955D02*
X243331Y90955D01*
X240815Y93471D01*
X240815Y97029D01*
X243331Y99545D01*
X246889Y99545D01*
X249405Y97029D01*
X249405Y93471D01*
X246889Y90955D01*
X243331Y90955D01*
G37*
%LPD*%
%LPC*%
G36*
X261111Y192555D02*
X261111Y192555D01*
X258595Y195071D01*
X258595Y198629D01*
X261111Y201145D01*
X264669Y201145D01*
X267185Y198629D01*
X267185Y195071D01*
X264669Y192555D01*
X261111Y192555D01*
G37*
%LPD*%
%LPC*%
G36*
X243331Y192555D02*
X243331Y192555D01*
X240815Y195071D01*
X240815Y198629D01*
X243331Y201145D01*
X246889Y201145D01*
X249405Y198629D01*
X249405Y195071D01*
X246889Y192555D01*
X243331Y192555D01*
G37*
%LPD*%
%LPC*%
G36*
X280161Y14755D02*
X280161Y14755D01*
X277645Y17271D01*
X277645Y20829D01*
X280161Y23345D01*
X283719Y23345D01*
X286235Y20829D01*
X286235Y17271D01*
X283719Y14755D01*
X280161Y14755D01*
G37*
%LPD*%
%LPC*%
G36*
X262381Y14755D02*
X262381Y14755D01*
X259865Y17271D01*
X259865Y20829D01*
X262381Y23345D01*
X265939Y23345D01*
X268455Y20829D01*
X268455Y17271D01*
X265939Y14755D01*
X262381Y14755D01*
G37*
%LPD*%
%LPC*%
G36*
X243331Y14755D02*
X243331Y14755D01*
X240815Y17271D01*
X240815Y20829D01*
X243331Y23345D01*
X246889Y23345D01*
X249405Y20829D01*
X249405Y17271D01*
X246889Y14755D01*
X243331Y14755D01*
G37*
%LPD*%
%LPC*%
G36*
X261111Y90955D02*
X261111Y90955D01*
X258595Y93471D01*
X258595Y97029D01*
X261111Y99545D01*
X264669Y99545D01*
X267185Y97029D01*
X267185Y93471D01*
X264669Y90955D01*
X261111Y90955D01*
G37*
%LPD*%
%LPC*%
G36*
X280161Y90955D02*
X280161Y90955D01*
X277645Y93471D01*
X277645Y97029D01*
X280161Y99545D01*
X283719Y99545D01*
X286235Y97029D01*
X286235Y93471D01*
X283719Y90955D01*
X280161Y90955D01*
G37*
%LPD*%
%LPC*%
G36*
X9651Y60475D02*
X9651Y60475D01*
X7135Y62991D01*
X7135Y66549D01*
X9651Y69065D01*
X13209Y69065D01*
X15725Y66549D01*
X15725Y62991D01*
X13209Y60475D01*
X9651Y60475D01*
G37*
%LPD*%
%LPC*%
G36*
X280161Y116355D02*
X280161Y116355D01*
X277645Y118871D01*
X277645Y122429D01*
X280161Y124945D01*
X283719Y124945D01*
X286235Y122429D01*
X286235Y118871D01*
X283719Y116355D01*
X280161Y116355D01*
G37*
%LPD*%
%LPC*%
G36*
X262381Y116355D02*
X262381Y116355D01*
X259865Y118871D01*
X259865Y122429D01*
X262381Y124945D01*
X265939Y124945D01*
X268455Y122429D01*
X268455Y118871D01*
X265939Y116355D01*
X262381Y116355D01*
G37*
%LPD*%
%LPC*%
G36*
X243331Y116355D02*
X243331Y116355D01*
X240815Y118871D01*
X240815Y122429D01*
X243331Y124945D01*
X246889Y124945D01*
X249405Y122429D01*
X249405Y118871D01*
X246889Y116355D01*
X243331Y116355D01*
G37*
%LPD*%
%LPC*%
G36*
X201516Y63245D02*
X201516Y63245D01*
X199135Y65626D01*
X199135Y68994D01*
X201516Y71375D01*
X204884Y71375D01*
X207265Y68994D01*
X207265Y65626D01*
X204884Y63245D01*
X201516Y63245D01*
G37*
%LPD*%
%LPC*%
G36*
X144366Y58165D02*
X144366Y58165D01*
X141985Y60546D01*
X141985Y63914D01*
X144366Y66295D01*
X147734Y66295D01*
X150115Y63914D01*
X150115Y60546D01*
X147734Y58165D01*
X144366Y58165D01*
G37*
%LPD*%
%LPC*%
G36*
X191356Y65785D02*
X191356Y65785D01*
X188975Y68166D01*
X188975Y71534D01*
X191356Y73915D01*
X194724Y73915D01*
X197105Y71534D01*
X197105Y68166D01*
X194724Y65785D01*
X191356Y65785D01*
G37*
%LPD*%
%LPC*%
G36*
X183736Y73405D02*
X183736Y73405D01*
X181355Y75786D01*
X181355Y79154D01*
X183736Y81535D01*
X187104Y81535D01*
X189485Y79154D01*
X189485Y75786D01*
X187104Y73405D01*
X183736Y73405D01*
G37*
%LPD*%
%LPC*%
G36*
X168496Y89915D02*
X168496Y89915D01*
X166115Y92296D01*
X166115Y95664D01*
X168496Y98045D01*
X171864Y98045D01*
X174245Y95664D01*
X174245Y92296D01*
X171864Y89915D01*
X168496Y89915D01*
G37*
%LPD*%
%LPC*%
G36*
X131412Y94487D02*
X131412Y94487D01*
X129031Y96868D01*
X129031Y100236D01*
X131412Y102617D01*
X134780Y102617D01*
X137161Y100236D01*
X137161Y96868D01*
X134780Y94487D01*
X131412Y94487D01*
G37*
%LPD*%
%LPC*%
G36*
X228186Y97535D02*
X228186Y97535D01*
X225805Y99916D01*
X225805Y103284D01*
X228186Y105665D01*
X231554Y105665D01*
X233935Y103284D01*
X233935Y99916D01*
X231554Y97535D01*
X228186Y97535D01*
G37*
%LPD*%
%LPC*%
G36*
X228186Y110235D02*
X228186Y110235D01*
X225805Y112616D01*
X225805Y115984D01*
X228186Y118365D01*
X231554Y118365D01*
X233935Y115984D01*
X233935Y112616D01*
X231554Y110235D01*
X228186Y110235D01*
G37*
%LPD*%
%LPC*%
G36*
X11016Y34035D02*
X11016Y34035D01*
X8635Y36416D01*
X8635Y39784D01*
X11016Y42165D01*
X14384Y42165D01*
X16765Y39784D01*
X16765Y36416D01*
X14384Y34035D01*
X11016Y34035D01*
G37*
%LPD*%
%LPC*%
G36*
X11016Y8635D02*
X11016Y8635D01*
X8635Y11016D01*
X8635Y14384D01*
X11016Y16765D01*
X14384Y16765D01*
X16765Y14384D01*
X16765Y11016D01*
X14384Y8635D01*
X11016Y8635D01*
G37*
%LPD*%
%LPC*%
G36*
X36416Y8635D02*
X36416Y8635D01*
X34035Y11016D01*
X34035Y14384D01*
X36416Y16765D01*
X39784Y16765D01*
X42165Y14384D01*
X42165Y11016D01*
X39784Y8635D01*
X36416Y8635D01*
G37*
%LPD*%
%LPC*%
G36*
X61816Y8635D02*
X61816Y8635D01*
X59435Y11016D01*
X59435Y14384D01*
X61816Y16765D01*
X65184Y16765D01*
X67565Y14384D01*
X67565Y11016D01*
X65184Y8635D01*
X61816Y8635D01*
G37*
%LPD*%
%LPC*%
G36*
X87216Y8635D02*
X87216Y8635D01*
X84835Y11016D01*
X84835Y14384D01*
X87216Y16765D01*
X90584Y16765D01*
X92965Y14384D01*
X92965Y11016D01*
X90584Y8635D01*
X87216Y8635D01*
G37*
%LPD*%
%LPC*%
G36*
X112616Y8635D02*
X112616Y8635D01*
X110235Y11016D01*
X110235Y14384D01*
X112616Y16765D01*
X115984Y16765D01*
X118365Y14384D01*
X118365Y11016D01*
X115984Y8635D01*
X112616Y8635D01*
G37*
%LPD*%
%LPC*%
G36*
X138016Y8635D02*
X138016Y8635D01*
X135635Y11016D01*
X135635Y14384D01*
X138016Y16765D01*
X141384Y16765D01*
X143765Y14384D01*
X143765Y11016D01*
X141384Y8635D01*
X138016Y8635D01*
G37*
%LPD*%
%LPC*%
G36*
X163416Y8635D02*
X163416Y8635D01*
X161035Y11016D01*
X161035Y14384D01*
X163416Y16765D01*
X166784Y16765D01*
X169165Y14384D01*
X169165Y11016D01*
X166784Y8635D01*
X163416Y8635D01*
G37*
%LPD*%
%LPC*%
G36*
X188816Y8635D02*
X188816Y8635D01*
X186435Y11016D01*
X186435Y14384D01*
X188816Y16765D01*
X192184Y16765D01*
X194565Y14384D01*
X194565Y11016D01*
X192184Y8635D01*
X188816Y8635D01*
G37*
%LPD*%
%LPC*%
G36*
X214216Y8635D02*
X214216Y8635D01*
X211835Y11016D01*
X211835Y14384D01*
X214216Y16765D01*
X217584Y16765D01*
X219965Y14384D01*
X219965Y11016D01*
X217584Y8635D01*
X214216Y8635D01*
G37*
%LPD*%
%LPC*%
G36*
X92042Y30225D02*
X92042Y30225D01*
X89661Y32606D01*
X89661Y35974D01*
X92042Y38355D01*
X95410Y38355D01*
X97791Y35974D01*
X97791Y32606D01*
X95410Y30225D01*
X92042Y30225D01*
G37*
%LPD*%
%LPC*%
G36*
X214216Y63245D02*
X214216Y63245D01*
X211835Y65626D01*
X211835Y68994D01*
X214216Y71375D01*
X217584Y71375D01*
X219965Y68994D01*
X219965Y65626D01*
X217584Y63245D01*
X214216Y63245D01*
G37*
%LPD*%
%LPC*%
G36*
X82136Y39877D02*
X82136Y39877D01*
X79755Y42258D01*
X79755Y45626D01*
X82136Y48007D01*
X85504Y48007D01*
X87885Y45626D01*
X87885Y42258D01*
X85504Y39877D01*
X82136Y39877D01*
G37*
%LPD*%
%LPC*%
G36*
X102456Y39877D02*
X102456Y39877D01*
X100075Y42258D01*
X100075Y45626D01*
X102456Y48007D01*
X105824Y48007D01*
X108205Y45626D01*
X108205Y42258D01*
X105824Y39877D01*
X102456Y39877D01*
G37*
%LPD*%
%LPC*%
G36*
X201516Y42925D02*
X201516Y42925D01*
X199135Y45306D01*
X199135Y48674D01*
X201516Y51055D01*
X204884Y51055D01*
X207265Y48674D01*
X207265Y45306D01*
X204884Y42925D01*
X201516Y42925D01*
G37*
%LPD*%
%LPC*%
G36*
X214216Y42925D02*
X214216Y42925D01*
X211835Y45306D01*
X211835Y48674D01*
X214216Y51055D01*
X217584Y51055D01*
X219965Y48674D01*
X219965Y45306D01*
X217584Y42925D01*
X214216Y42925D01*
G37*
%LPD*%
%LPC*%
G36*
X226916Y42925D02*
X226916Y42925D01*
X224535Y45306D01*
X224535Y48674D01*
X226916Y51055D01*
X230284Y51055D01*
X232665Y48674D01*
X232665Y45306D01*
X230284Y42925D01*
X226916Y42925D01*
G37*
%LPD*%
%LPC*%
G36*
X190086Y45465D02*
X190086Y45465D01*
X187705Y47846D01*
X187705Y51214D01*
X190086Y53595D01*
X193454Y53595D01*
X195835Y51214D01*
X195835Y47846D01*
X193454Y45465D01*
X190086Y45465D01*
G37*
%LPD*%
%LPC*%
G36*
X179926Y50545D02*
X179926Y50545D01*
X177545Y52926D01*
X177545Y56294D01*
X179926Y58675D01*
X183294Y58675D01*
X185675Y56294D01*
X185675Y52926D01*
X183294Y50545D01*
X179926Y50545D01*
G37*
%LPD*%
%LPC*%
G36*
X183736Y130555D02*
X183736Y130555D01*
X181355Y132936D01*
X181355Y136304D01*
X183736Y138685D01*
X187104Y138685D01*
X189485Y136304D01*
X189485Y132936D01*
X187104Y130555D01*
X183736Y130555D01*
G37*
%LPD*%
%LPC*%
G36*
X157066Y58165D02*
X157066Y58165D01*
X154685Y60546D01*
X154685Y63914D01*
X157066Y66295D01*
X160434Y66295D01*
X162815Y63914D01*
X162815Y60546D01*
X160434Y58165D01*
X157066Y58165D01*
G37*
%LPD*%
%LPC*%
G36*
X104996Y61975D02*
X104996Y61975D01*
X102615Y64356D01*
X102615Y67724D01*
X104996Y70105D01*
X108364Y70105D01*
X110745Y67724D01*
X110745Y64356D01*
X108364Y61975D01*
X104996Y61975D01*
G37*
%LPD*%
%LPC*%
G36*
X195166Y218185D02*
X195166Y218185D01*
X192785Y220566D01*
X192785Y223934D01*
X195166Y226315D01*
X198534Y226315D01*
X200915Y223934D01*
X200915Y220566D01*
X198534Y218185D01*
X195166Y218185D01*
G37*
%LPD*%
%LPC*%
G36*
X214216Y163575D02*
X214216Y163575D01*
X211835Y165956D01*
X211835Y169324D01*
X214216Y171705D01*
X217584Y171705D01*
X219965Y169324D01*
X219965Y165956D01*
X217584Y163575D01*
X214216Y163575D01*
G37*
%LPD*%
%LPC*%
G36*
X226916Y163575D02*
X226916Y163575D01*
X224535Y165956D01*
X224535Y169324D01*
X226916Y171705D01*
X230284Y171705D01*
X232665Y169324D01*
X232665Y165956D01*
X230284Y163575D01*
X226916Y163575D01*
G37*
%LPD*%
%LPC*%
G36*
X11016Y167385D02*
X11016Y167385D01*
X8635Y169766D01*
X8635Y173134D01*
X11016Y175515D01*
X14384Y175515D01*
X16765Y173134D01*
X16765Y169766D01*
X14384Y167385D01*
X11016Y167385D01*
G37*
%LPD*%
%LPC*%
G36*
X133698Y167385D02*
X133698Y167385D01*
X131317Y169766D01*
X131317Y173134D01*
X133698Y175515D01*
X137066Y175515D01*
X139447Y173134D01*
X139447Y169766D01*
X137066Y167385D01*
X133698Y167385D01*
G37*
%LPD*%
%LPC*%
G36*
X103726Y167639D02*
X103726Y167639D01*
X101345Y170020D01*
X101345Y173388D01*
X103726Y175769D01*
X107094Y175769D01*
X109475Y173388D01*
X109475Y170020D01*
X107094Y167639D01*
X103726Y167639D01*
G37*
%LPD*%
%LPC*%
G36*
X103726Y177037D02*
X103726Y177037D01*
X101345Y179418D01*
X101345Y182786D01*
X103726Y185167D01*
X107094Y185167D01*
X109475Y182786D01*
X109475Y179418D01*
X107094Y177037D01*
X103726Y177037D01*
G37*
%LPD*%
%LPC*%
G36*
X133952Y178053D02*
X133952Y178053D01*
X131571Y180434D01*
X131571Y183802D01*
X133952Y186183D01*
X137320Y186183D01*
X139701Y183802D01*
X139701Y180434D01*
X137320Y178053D01*
X133952Y178053D01*
G37*
%LPD*%
%LPC*%
G36*
X11016Y192785D02*
X11016Y192785D01*
X8635Y195166D01*
X8635Y198534D01*
X11016Y200915D01*
X14384Y200915D01*
X16765Y198534D01*
X16765Y195166D01*
X14384Y192785D01*
X11016Y192785D01*
G37*
%LPD*%
%LPC*%
G36*
X214216Y205485D02*
X214216Y205485D01*
X211835Y207866D01*
X211835Y211234D01*
X214216Y213615D01*
X217584Y213615D01*
X219965Y211234D01*
X219965Y207866D01*
X217584Y205485D01*
X214216Y205485D01*
G37*
%LPD*%
%LPC*%
G36*
X207866Y218185D02*
X207866Y218185D01*
X205485Y220566D01*
X205485Y223934D01*
X207866Y226315D01*
X211234Y226315D01*
X213615Y223934D01*
X213615Y220566D01*
X211234Y218185D01*
X207866Y218185D01*
G37*
%LPD*%
%LPC*%
G36*
X201516Y163575D02*
X201516Y163575D01*
X199135Y165956D01*
X199135Y169324D01*
X201516Y171705D01*
X204884Y171705D01*
X207265Y169324D01*
X207265Y165956D01*
X204884Y163575D01*
X201516Y163575D01*
G37*
%LPD*%
%LPC*%
G36*
X277716Y218185D02*
X277716Y218185D01*
X275335Y220566D01*
X275335Y223934D01*
X277716Y226315D01*
X281084Y226315D01*
X283465Y223934D01*
X283465Y220566D01*
X281084Y218185D01*
X277716Y218185D01*
G37*
%LPD*%
%LPC*%
G36*
X11016Y218185D02*
X11016Y218185D01*
X8635Y220566D01*
X8635Y223934D01*
X11016Y226315D01*
X14384Y226315D01*
X16765Y223934D01*
X16765Y220566D01*
X14384Y218185D01*
X11016Y218185D01*
G37*
%LPD*%
%LPC*%
G36*
X36416Y243585D02*
X36416Y243585D01*
X34035Y245966D01*
X34035Y249334D01*
X36416Y251715D01*
X39784Y251715D01*
X42165Y249334D01*
X42165Y245966D01*
X39784Y243585D01*
X36416Y243585D01*
G37*
%LPD*%
%LPC*%
G36*
X201516Y243585D02*
X201516Y243585D01*
X199135Y245966D01*
X199135Y249334D01*
X201516Y251715D01*
X204884Y251715D01*
X207265Y249334D01*
X207265Y245966D01*
X204884Y243585D01*
X201516Y243585D01*
G37*
%LPD*%
%LPC*%
G36*
X277716Y243585D02*
X277716Y243585D01*
X275335Y245966D01*
X275335Y249334D01*
X277716Y251715D01*
X281084Y251715D01*
X283465Y249334D01*
X283465Y245966D01*
X281084Y243585D01*
X277716Y243585D01*
G37*
%LPD*%
%LPC*%
G36*
X252316Y243585D02*
X252316Y243585D01*
X249935Y245966D01*
X249935Y249334D01*
X252316Y251715D01*
X255684Y251715D01*
X258065Y249334D01*
X258065Y245966D01*
X255684Y243585D01*
X252316Y243585D01*
G37*
%LPD*%
%LPC*%
G36*
X226916Y243585D02*
X226916Y243585D01*
X224535Y245966D01*
X224535Y249334D01*
X226916Y251715D01*
X230284Y251715D01*
X232665Y249334D01*
X232665Y245966D01*
X230284Y243585D01*
X226916Y243585D01*
G37*
%LPD*%
%LPC*%
G36*
X87216Y243585D02*
X87216Y243585D01*
X84835Y245966D01*
X84835Y249334D01*
X87216Y251715D01*
X90584Y251715D01*
X92965Y249334D01*
X92965Y245966D01*
X90584Y243585D01*
X87216Y243585D01*
G37*
%LPD*%
%LPC*%
G36*
X61816Y243585D02*
X61816Y243585D01*
X59435Y245966D01*
X59435Y249334D01*
X61816Y251715D01*
X65184Y251715D01*
X67565Y249334D01*
X67565Y245966D01*
X65184Y243585D01*
X61816Y243585D01*
G37*
%LPD*%
%LPC*%
G36*
X11016Y243585D02*
X11016Y243585D01*
X8635Y245966D01*
X8635Y249334D01*
X11016Y251715D01*
X14384Y251715D01*
X16765Y249334D01*
X16765Y245966D01*
X14384Y243585D01*
X11016Y243585D01*
G37*
%LPD*%
%LPC*%
G36*
X121252Y145541D02*
X121252Y145541D01*
X118871Y147922D01*
X118871Y151290D01*
X121252Y153671D01*
X124620Y153671D01*
X127001Y151290D01*
X127001Y147922D01*
X124620Y145541D01*
X121252Y145541D01*
G37*
%LPD*%
%LPC*%
G36*
X139286Y119125D02*
X139286Y119125D01*
X136905Y121506D01*
X136905Y124874D01*
X139286Y127255D01*
X142654Y127255D01*
X145035Y124874D01*
X145035Y121506D01*
X142654Y119125D01*
X139286Y119125D01*
G37*
%LPD*%
%LPC*%
G36*
X168496Y119125D02*
X168496Y119125D01*
X166115Y121506D01*
X166115Y124874D01*
X168496Y127255D01*
X171864Y127255D01*
X174245Y124874D01*
X174245Y121506D01*
X171864Y119125D01*
X168496Y119125D01*
G37*
%LPD*%
%LPC*%
G36*
X116426Y121411D02*
X116426Y121411D01*
X114045Y123792D01*
X114045Y127160D01*
X116426Y129541D01*
X119794Y129541D01*
X122175Y127160D01*
X122175Y123792D01*
X119794Y121411D01*
X116426Y121411D01*
G37*
%LPD*%
%LPC*%
G36*
X91788Y126999D02*
X91788Y126999D01*
X89407Y129380D01*
X89407Y132748D01*
X91788Y135129D01*
X95156Y135129D01*
X97537Y132748D01*
X97537Y129380D01*
X95156Y126999D01*
X91788Y126999D01*
G37*
%LPD*%
%LPC*%
G36*
X162146Y127761D02*
X162146Y127761D01*
X159765Y130142D01*
X159765Y133510D01*
X162146Y135891D01*
X165514Y135891D01*
X167895Y133510D01*
X167895Y130142D01*
X165514Y127761D01*
X162146Y127761D01*
G37*
%LPD*%
%LPC*%
G36*
X102202Y131317D02*
X102202Y131317D01*
X99821Y133698D01*
X99821Y137066D01*
X102202Y139447D01*
X105570Y139447D01*
X107951Y137066D01*
X107951Y133698D01*
X105570Y131317D01*
X102202Y131317D01*
G37*
%LPD*%
%LPC*%
G36*
X69436Y138683D02*
X69436Y138683D01*
X67055Y141064D01*
X67055Y144432D01*
X69436Y146813D01*
X72804Y146813D01*
X75185Y144432D01*
X75185Y141064D01*
X72804Y138683D01*
X69436Y138683D01*
G37*
%LPD*%
%LPC*%
G36*
X190086Y141985D02*
X190086Y141985D01*
X187705Y144366D01*
X187705Y147734D01*
X190086Y150115D01*
X193454Y150115D01*
X195835Y147734D01*
X195835Y144366D01*
X193454Y141985D01*
X190086Y141985D01*
G37*
%LPD*%
%LPC*%
G36*
X169766Y143255D02*
X169766Y143255D01*
X167385Y145636D01*
X167385Y149004D01*
X169766Y151385D01*
X173134Y151385D01*
X175515Y149004D01*
X175515Y145636D01*
X173134Y143255D01*
X169766Y143255D01*
G37*
%LPD*%
%LPC*%
G36*
X105504Y145541D02*
X105504Y145541D01*
X103123Y147922D01*
X103123Y151290D01*
X105504Y153671D01*
X108872Y153671D01*
X111253Y151290D01*
X111253Y147922D01*
X108872Y145541D01*
X105504Y145541D01*
G37*
%LPD*%
%LPC*%
G36*
X131412Y113283D02*
X131412Y113283D01*
X129031Y115664D01*
X129031Y119032D01*
X131412Y121413D01*
X134780Y121413D01*
X137161Y119032D01*
X137161Y115664D01*
X134780Y113283D01*
X131412Y113283D01*
G37*
%LPD*%
%LPC*%
G36*
X214216Y145795D02*
X214216Y145795D01*
X211835Y148176D01*
X211835Y151544D01*
X214216Y153925D01*
X217584Y153925D01*
X219965Y151544D01*
X219965Y148176D01*
X217584Y145795D01*
X214216Y145795D01*
G37*
%LPD*%
%LPC*%
G36*
X226916Y145795D02*
X226916Y145795D01*
X224535Y148176D01*
X224535Y151544D01*
X226916Y153925D01*
X230284Y153925D01*
X232665Y151544D01*
X232665Y148176D01*
X230284Y145795D01*
X226916Y145795D01*
G37*
%LPD*%
%LPC*%
G36*
X201516Y145795D02*
X201516Y145795D01*
X199135Y148176D01*
X199135Y151544D01*
X201516Y153925D01*
X204884Y153925D01*
X207265Y151544D01*
X207265Y148176D01*
X204884Y145795D01*
X201516Y145795D01*
G37*
%LPD*%
%LPC*%
G36*
X78326Y147573D02*
X78326Y147573D01*
X75945Y149954D01*
X75945Y153322D01*
X78326Y155703D01*
X81694Y155703D01*
X84075Y153322D01*
X84075Y149954D01*
X81694Y147573D01*
X78326Y147573D01*
G37*
%LPD*%
%LPC*%
G36*
X177386Y154685D02*
X177386Y154685D01*
X175005Y157066D01*
X175005Y160434D01*
X177386Y162815D01*
X180754Y162815D01*
X183135Y160434D01*
X183135Y157066D01*
X180754Y154685D01*
X177386Y154685D01*
G37*
%LPD*%
%LPC*%
G36*
X101948Y157733D02*
X101948Y157733D01*
X99567Y160114D01*
X99567Y163482D01*
X101948Y165863D01*
X105316Y165863D01*
X107697Y163482D01*
X107697Y160114D01*
X105316Y157733D01*
X101948Y157733D01*
G37*
%LPD*%
%LPC*%
G36*
X82390Y157987D02*
X82390Y157987D01*
X80009Y160368D01*
X80009Y163736D01*
X82390Y166117D01*
X85758Y166117D01*
X88139Y163736D01*
X88139Y160368D01*
X85758Y157987D01*
X82390Y157987D01*
G37*
%LPD*%
%LPC*%
G36*
X124300Y161035D02*
X124300Y161035D01*
X121919Y163416D01*
X121919Y166784D01*
X124300Y169165D01*
X127668Y169165D01*
X130049Y166784D01*
X130049Y163416D01*
X127668Y161035D01*
X124300Y161035D01*
G37*
%LPD*%
%LPC*%
G36*
X190086Y162305D02*
X190086Y162305D01*
X187705Y164686D01*
X187705Y168054D01*
X190086Y170435D01*
X193454Y170435D01*
X195835Y168054D01*
X195835Y164686D01*
X193454Y162305D01*
X190086Y162305D01*
G37*
%LPD*%
D10*
X146050Y234950D03*
X171450Y234950D03*
X120650Y234950D03*
D11*
X281940Y143510D03*
X281940Y173990D03*
X241300Y146050D03*
X241300Y171450D03*
X281940Y196850D03*
X245110Y196850D03*
X281940Y120650D03*
X245110Y120650D03*
X264160Y120650D03*
X262890Y196850D03*
X262890Y173990D03*
X262890Y143510D03*
X281940Y41910D03*
X281940Y72390D03*
X241300Y44450D03*
X241300Y69850D03*
X281940Y95250D03*
X245110Y95250D03*
X281940Y19050D03*
X245110Y19050D03*
X264160Y19050D03*
X262890Y95250D03*
X262890Y72390D03*
X262890Y41910D03*
X11430Y118110D03*
X11430Y87630D03*
X52070Y115570D03*
X52070Y90170D03*
X11430Y64770D03*
X48260Y64770D03*
X11430Y140970D03*
X48260Y140970D03*
X29210Y140970D03*
X30480Y64770D03*
X30480Y87630D03*
X30480Y118110D03*
D12*
X228600Y139700D03*
X228600Y76200D03*
X222250Y76200D03*
X222250Y139700D03*
X234950Y124460D03*
X229870Y114300D03*
X229870Y101600D03*
X234950Y91440D03*
X234950Y133350D03*
X234950Y82550D03*
X53340Y219710D03*
X53340Y212090D03*
X87630Y181610D03*
X87630Y173990D03*
X38100Y156210D03*
X38100Y163830D03*
X107188Y149606D03*
X122936Y149606D03*
X114808Y157226D03*
X118110Y125476D03*
X80010Y151638D03*
X83820Y43942D03*
X93726Y34290D03*
X104140Y43942D03*
X228600Y167640D03*
X215900Y167640D03*
X203200Y167640D03*
X228600Y149860D03*
X215900Y149860D03*
X203200Y149860D03*
X191770Y146050D03*
X185420Y134620D03*
X170180Y123190D03*
X140970Y123190D03*
X170180Y93980D03*
X152400Y111760D03*
X160020Y111760D03*
X152400Y104140D03*
X160020Y104140D03*
X106680Y66040D03*
X113030Y57150D03*
X120650Y57150D03*
X128270Y57150D03*
X135890Y57150D03*
X146050Y62230D03*
X158750Y62230D03*
X168910Y68580D03*
X105410Y181102D03*
X105410Y171704D03*
X115570Y165100D03*
X125984Y165100D03*
X135382Y171450D03*
X135636Y182118D03*
X191770Y166370D03*
X179070Y158750D03*
X171450Y147320D03*
X163830Y131826D03*
X228600Y67310D03*
X215900Y67310D03*
X203200Y67310D03*
X193040Y69850D03*
X185420Y77470D03*
X173990Y63500D03*
X228600Y46990D03*
X215900Y46990D03*
X203200Y46990D03*
X191770Y49530D03*
X181610Y54610D03*
X12700Y12700D03*
X12700Y38100D03*
X38100Y12700D03*
X63500Y12700D03*
X88900Y12700D03*
X114300Y12700D03*
X139700Y12700D03*
X165100Y12700D03*
X190500Y12700D03*
X215900Y12700D03*
X12700Y247650D03*
X12700Y222250D03*
X12700Y196850D03*
X12700Y171450D03*
X38100Y247650D03*
X63500Y247650D03*
X88900Y247650D03*
X279400Y247650D03*
X279400Y222250D03*
X254000Y247650D03*
X228600Y247650D03*
X203200Y247650D03*
X177800Y247650D03*
X165100Y247650D03*
X165100Y222250D03*
X177800Y222250D03*
X184150Y241300D03*
X184150Y228600D03*
X196850Y222250D03*
X209550Y222250D03*
X215900Y209550D03*
X158750Y183388D03*
X165354Y183134D03*
X152400Y183134D03*
X93472Y131064D03*
X103886Y135382D03*
X71120Y142748D03*
X82804Y65532D03*
X72898Y74168D03*
X77470Y65786D03*
X84074Y162052D03*
X103632Y161798D03*
X133096Y98552D03*
X133096Y117348D03*
X193040Y134620D03*
X193040Y81280D03*
X200660Y134620D03*
X200660Y81280D03*
X203200Y120650D03*
X203200Y107950D03*
X203200Y95250D03*
X209550Y137160D03*
X209550Y78740D03*
X88900Y219710D03*
X88900Y193040D03*
X88900Y210820D03*
X88900Y201930D03*
X77470Y122174D03*
X83058Y122174D03*
X119126Y118110D03*
X111252Y125476D03*
X143336Y89742D03*
X106760Y85170D03*
X106760Y77550D03*
X167720Y83900D03*
X167720Y76280D03*
X135462Y89996D03*
X114300Y219710D03*
X120650Y219710D03*
X127000Y219710D03*
X101600Y245110D03*
X101600Y238760D03*
X101600Y232410D03*
X101600Y226060D03*
X101600Y213360D03*
X101600Y207010D03*
X101600Y200660D03*
X171450Y213360D03*
X171450Y207010D03*
X83566Y93726D03*
X77978Y93726D03*
X114126Y89996D03*
X120476Y89996D03*
X128858Y89996D03*
M02*
