G04 EAGLE Gerber RS-274X export*
G75*
%MOMM*%
%FSLAX34Y34*%
%LPD*%
%INComponent side*%
%IPPOS*%
%AMOC8*
5,1,8,0,0,1.08239X$1,22.5*%
G01*
%ADD10R,0.800000X0.800000*%
%ADD11R,0.600000X0.700000*%
%ADD12R,1.600000X0.900000*%
%ADD13R,0.950000X0.950000*%
%ADD14R,1.230000X1.230000*%
%ADD15R,0.800000X0.300000*%
%ADD16R,0.300000X0.800000*%
%ADD17P,2.089446X8X202.500000*%
%ADD18R,5.588000X2.540000*%
%ADD19R,4.572000X0.965200*%
%ADD20R,1.016000X0.330200*%
%ADD21C,0.503200*%
%ADD22R,0.700000X0.600000*%
%ADD23C,0.457200*%
%ADD24C,0.330200*%
%ADD25C,0.304800*%
%ADD26C,0.254000*%
%ADD27C,0.152400*%

G36*
X173778Y90301D02*
X173778Y90301D01*
X173867Y90304D01*
X173889Y90313D01*
X173912Y90315D01*
X173992Y90355D01*
X174074Y90388D01*
X174092Y90404D01*
X174113Y90415D01*
X174174Y90480D01*
X174240Y90539D01*
X174251Y90561D01*
X174267Y90578D01*
X174302Y90660D01*
X174343Y90739D01*
X174346Y90765D01*
X174355Y90785D01*
X174357Y90835D01*
X174370Y90924D01*
X174370Y96537D01*
X174359Y96602D01*
X174357Y96668D01*
X174339Y96711D01*
X174331Y96758D01*
X174297Y96815D01*
X174272Y96875D01*
X174241Y96910D01*
X174216Y96951D01*
X174165Y96993D01*
X174121Y97041D01*
X174079Y97063D01*
X174042Y97092D01*
X173980Y97113D01*
X173921Y97144D01*
X173867Y97152D01*
X173830Y97164D01*
X173790Y97163D01*
X173736Y97171D01*
X165723Y97171D01*
X164681Y98213D01*
X164681Y102950D01*
X164681Y107950D01*
X164681Y112950D01*
X164681Y117687D01*
X165723Y118729D01*
X173736Y118729D01*
X173801Y118740D01*
X173867Y118742D01*
X173910Y118760D01*
X173957Y118768D01*
X174014Y118802D01*
X174074Y118827D01*
X174109Y118858D01*
X174150Y118883D01*
X174192Y118934D01*
X174240Y118978D01*
X174262Y119020D01*
X174291Y119057D01*
X174312Y119119D01*
X174343Y119178D01*
X174351Y119232D01*
X174363Y119269D01*
X174362Y119309D01*
X174370Y119363D01*
X174370Y137916D01*
X177192Y146602D01*
X182560Y153990D01*
X189948Y159358D01*
X198634Y162180D01*
X211837Y162180D01*
X211902Y162191D01*
X211968Y162193D01*
X212011Y162211D01*
X212058Y162219D01*
X212115Y162253D01*
X212175Y162278D01*
X212210Y162309D01*
X212251Y162334D01*
X212293Y162385D01*
X212341Y162429D01*
X212363Y162471D01*
X212392Y162508D01*
X212413Y162570D01*
X212444Y162629D01*
X212452Y162683D01*
X212464Y162720D01*
X212463Y162760D01*
X212471Y162814D01*
X212471Y162987D01*
X213513Y164029D01*
X220987Y164029D01*
X221802Y163214D01*
X221856Y163176D01*
X221903Y163131D01*
X221947Y163113D01*
X221986Y163086D01*
X222049Y163070D01*
X222110Y163044D01*
X222157Y163042D01*
X222203Y163030D01*
X222268Y163037D01*
X222334Y163034D01*
X222379Y163048D01*
X222426Y163053D01*
X222485Y163082D01*
X222548Y163103D01*
X222592Y163135D01*
X222627Y163153D01*
X222654Y163181D01*
X222699Y163214D01*
X223513Y164029D01*
X230987Y164029D01*
X232029Y162987D01*
X232029Y162814D01*
X232040Y162749D01*
X232042Y162683D01*
X232060Y162640D01*
X232068Y162593D01*
X232102Y162536D01*
X232127Y162476D01*
X232158Y162441D01*
X232183Y162400D01*
X232234Y162358D01*
X232278Y162310D01*
X232320Y162288D01*
X232357Y162259D01*
X232419Y162238D01*
X232478Y162207D01*
X232532Y162199D01*
X232569Y162187D01*
X232609Y162188D01*
X232663Y162180D01*
X235712Y162180D01*
X235777Y162191D01*
X235843Y162193D01*
X235886Y162211D01*
X235933Y162219D01*
X235990Y162253D01*
X236050Y162278D01*
X236085Y162309D01*
X236094Y162314D01*
X236094Y162306D01*
X236095Y162304D01*
X236094Y162302D01*
X236114Y162259D01*
X236132Y162215D01*
X236134Y162215D01*
X236135Y162213D01*
X236220Y162180D01*
X237998Y162180D01*
X238001Y162181D01*
X238004Y162180D01*
X238087Y162217D01*
X245416Y169546D01*
X292100Y169546D01*
X292102Y169547D01*
X292104Y169546D01*
X292147Y169566D01*
X292191Y169584D01*
X292191Y169586D01*
X292193Y169587D01*
X292226Y169672D01*
X292226Y179070D01*
X292225Y179072D01*
X292226Y179074D01*
X292206Y179117D01*
X292188Y179161D01*
X292186Y179161D01*
X292185Y179163D01*
X292100Y179196D01*
X288289Y179196D01*
X288289Y255905D01*
X288278Y255970D01*
X288276Y256036D01*
X288258Y256079D01*
X288250Y256126D01*
X288216Y256183D01*
X288191Y256243D01*
X288160Y256278D01*
X288135Y256319D01*
X288084Y256361D01*
X288040Y256409D01*
X287998Y256431D01*
X287961Y256460D01*
X287899Y256481D01*
X287840Y256512D01*
X287786Y256520D01*
X287749Y256532D01*
X287709Y256531D01*
X287655Y256539D01*
X4445Y256539D01*
X4380Y256528D01*
X4314Y256526D01*
X4271Y256508D01*
X4224Y256500D01*
X4167Y256466D01*
X4107Y256441D01*
X4072Y256410D01*
X4031Y256385D01*
X3989Y256334D01*
X3941Y256290D01*
X3919Y256248D01*
X3890Y256211D01*
X3869Y256149D01*
X3838Y256090D01*
X3830Y256036D01*
X3818Y255999D01*
X3819Y255959D01*
X3811Y255905D01*
X3811Y123316D01*
X1270Y123316D01*
X1268Y123315D01*
X1266Y123316D01*
X1223Y123296D01*
X1179Y123278D01*
X1179Y123276D01*
X1177Y123275D01*
X1144Y123190D01*
X1144Y113792D01*
X1145Y113790D01*
X1144Y113788D01*
X1164Y113745D01*
X1182Y113701D01*
X1184Y113701D01*
X1185Y113699D01*
X1270Y113666D01*
X47954Y113666D01*
X55283Y106337D01*
X55286Y106336D01*
X55287Y106333D01*
X55372Y106300D01*
X57150Y106300D01*
X57152Y106301D01*
X57154Y106300D01*
X57197Y106320D01*
X57241Y106338D01*
X57241Y106340D01*
X57243Y106341D01*
X57276Y106426D01*
X57276Y106428D01*
X57315Y106408D01*
X57352Y106379D01*
X57414Y106358D01*
X57473Y106327D01*
X57527Y106319D01*
X57564Y106307D01*
X57604Y106308D01*
X57658Y106300D01*
X61309Y106300D01*
X61350Y106307D01*
X61393Y106305D01*
X61460Y106327D01*
X61529Y106339D01*
X61566Y106361D01*
X61606Y106374D01*
X61679Y106428D01*
X61723Y106454D01*
X61736Y106470D01*
X61757Y106486D01*
X64151Y108880D01*
X67004Y108880D01*
X67060Y108851D01*
X67118Y108810D01*
X67159Y108800D01*
X67197Y108780D01*
X67287Y108767D01*
X67335Y108754D01*
X67356Y108757D01*
X67382Y108753D01*
X68508Y108753D01*
X68595Y108769D01*
X68684Y108778D01*
X68705Y108788D01*
X68729Y108792D01*
X68805Y108838D01*
X68885Y108877D01*
X68901Y108894D01*
X68922Y108907D01*
X68978Y108976D01*
X69039Y109040D01*
X69048Y109062D01*
X69063Y109081D01*
X69092Y109165D01*
X69126Y109247D01*
X69127Y109271D01*
X69135Y109293D01*
X69132Y109382D01*
X69136Y109471D01*
X69129Y109494D01*
X69128Y109518D01*
X69095Y109600D01*
X69068Y109685D01*
X69052Y109706D01*
X69044Y109725D01*
X69010Y109763D01*
X68956Y109835D01*
X58680Y120111D01*
X58680Y153607D01*
X58669Y153672D01*
X58667Y153738D01*
X58649Y153781D01*
X58641Y153828D01*
X58607Y153885D01*
X58582Y153945D01*
X58551Y153980D01*
X58526Y154021D01*
X58475Y154063D01*
X58431Y154111D01*
X58389Y154133D01*
X58352Y154162D01*
X58290Y154183D01*
X58231Y154214D01*
X58177Y154222D01*
X58140Y154234D01*
X58100Y154233D01*
X58046Y154241D01*
X57373Y154241D01*
X56331Y155283D01*
X56331Y164757D01*
X57373Y165799D01*
X58536Y165799D01*
X58601Y165810D01*
X58667Y165812D01*
X58710Y165830D01*
X58757Y165838D01*
X58814Y165872D01*
X58874Y165897D01*
X58909Y165928D01*
X58950Y165953D01*
X58992Y166004D01*
X59040Y166048D01*
X59062Y166090D01*
X59091Y166127D01*
X59112Y166189D01*
X59143Y166248D01*
X59151Y166302D01*
X59163Y166339D01*
X59162Y166379D01*
X59170Y166433D01*
X59170Y170637D01*
X59159Y170702D01*
X59157Y170768D01*
X59139Y170811D01*
X59131Y170858D01*
X59097Y170915D01*
X59072Y170975D01*
X59041Y171010D01*
X59016Y171051D01*
X58965Y171093D01*
X58921Y171141D01*
X58879Y171163D01*
X58842Y171192D01*
X58780Y171213D01*
X58721Y171244D01*
X58667Y171252D01*
X58630Y171264D01*
X58590Y171263D01*
X58536Y171271D01*
X57113Y171271D01*
X56071Y172313D01*
X56071Y183287D01*
X57113Y184329D01*
X58536Y184329D01*
X58601Y184340D01*
X58667Y184342D01*
X58710Y184360D01*
X58757Y184368D01*
X58814Y184402D01*
X58874Y184427D01*
X58909Y184458D01*
X58950Y184483D01*
X58992Y184534D01*
X59040Y184578D01*
X59062Y184620D01*
X59091Y184657D01*
X59112Y184719D01*
X59143Y184778D01*
X59151Y184832D01*
X59163Y184869D01*
X59162Y184909D01*
X59170Y184963D01*
X59170Y189687D01*
X59159Y189752D01*
X59157Y189818D01*
X59139Y189861D01*
X59131Y189908D01*
X59097Y189965D01*
X59072Y190025D01*
X59041Y190060D01*
X59016Y190101D01*
X58965Y190143D01*
X58921Y190191D01*
X58879Y190213D01*
X58842Y190242D01*
X58780Y190263D01*
X58721Y190294D01*
X58667Y190302D01*
X58630Y190314D01*
X58590Y190313D01*
X58536Y190321D01*
X57113Y190321D01*
X56071Y191363D01*
X56071Y202337D01*
X57113Y203379D01*
X66802Y203379D01*
X66867Y203390D01*
X66933Y203392D01*
X66976Y203410D01*
X67023Y203418D01*
X67080Y203452D01*
X67140Y203477D01*
X67175Y203508D01*
X67216Y203533D01*
X67258Y203584D01*
X67306Y203628D01*
X67328Y203670D01*
X67357Y203707D01*
X67378Y203769D01*
X67409Y203828D01*
X67417Y203882D01*
X67429Y203919D01*
X67428Y203959D01*
X67436Y204013D01*
X67436Y223250D01*
X68850Y224664D01*
X92202Y224664D01*
X92267Y224675D01*
X92333Y224677D01*
X92376Y224695D01*
X92423Y224703D01*
X92480Y224737D01*
X92540Y224762D01*
X92575Y224793D01*
X92616Y224818D01*
X92658Y224869D01*
X92706Y224913D01*
X92728Y224955D01*
X92757Y224992D01*
X92778Y225054D01*
X92809Y225113D01*
X92817Y225167D01*
X92829Y225204D01*
X92828Y225244D01*
X92836Y225298D01*
X92836Y248650D01*
X94250Y250064D01*
X134350Y250064D01*
X135764Y248650D01*
X135764Y242360D01*
X135780Y242273D01*
X135789Y242184D01*
X135799Y242163D01*
X135803Y242140D01*
X135849Y242063D01*
X135888Y241983D01*
X135905Y241967D01*
X135918Y241946D01*
X135987Y241890D01*
X136051Y241829D01*
X136073Y241820D01*
X136092Y241805D01*
X136176Y241777D01*
X136258Y241742D01*
X136282Y241741D01*
X136304Y241733D01*
X136393Y241736D01*
X136482Y241732D01*
X136505Y241739D01*
X136529Y241740D01*
X136611Y241773D01*
X136696Y241800D01*
X136717Y241816D01*
X136736Y241824D01*
X136774Y241858D01*
X136846Y241912D01*
X141315Y246381D01*
X150785Y246381D01*
X157481Y239685D01*
X157481Y230215D01*
X150785Y223519D01*
X149733Y223519D01*
X149668Y223508D01*
X149602Y223506D01*
X149559Y223488D01*
X149512Y223480D01*
X149455Y223446D01*
X149395Y223421D01*
X149360Y223390D01*
X149319Y223365D01*
X149277Y223314D01*
X149229Y223270D01*
X149207Y223228D01*
X149178Y223191D01*
X149157Y223129D01*
X149126Y223070D01*
X149118Y223016D01*
X149106Y222979D01*
X149107Y222939D01*
X149099Y222885D01*
X149099Y153926D01*
X149106Y153884D01*
X149104Y153841D01*
X149126Y153774D01*
X149138Y153705D01*
X149160Y153668D01*
X149173Y153628D01*
X149227Y153555D01*
X149253Y153512D01*
X149269Y153498D01*
X149285Y153477D01*
X151759Y151003D01*
X151759Y144901D01*
X151775Y144814D01*
X151784Y144725D01*
X151794Y144704D01*
X151798Y144681D01*
X151844Y144604D01*
X151883Y144524D01*
X151900Y144508D01*
X151913Y144487D01*
X151982Y144431D01*
X152046Y144370D01*
X152068Y144361D01*
X152087Y144346D01*
X152171Y144318D01*
X152253Y144283D01*
X152277Y144282D01*
X152299Y144274D01*
X152388Y144277D01*
X152477Y144273D01*
X152500Y144280D01*
X152524Y144281D01*
X152606Y144314D01*
X152691Y144342D01*
X152712Y144357D01*
X152731Y144365D01*
X152769Y144399D01*
X152841Y144453D01*
X155516Y147127D01*
X155540Y147162D01*
X155571Y147191D01*
X155603Y147253D01*
X155644Y147311D01*
X155654Y147352D01*
X155674Y147390D01*
X155687Y147480D01*
X155700Y147529D01*
X155697Y147549D01*
X155701Y147576D01*
X155701Y151187D01*
X155690Y151252D01*
X155688Y151318D01*
X155670Y151361D01*
X155662Y151408D01*
X155628Y151465D01*
X155603Y151525D01*
X155572Y151560D01*
X155547Y151601D01*
X155496Y151643D01*
X155452Y151691D01*
X155410Y151713D01*
X155373Y151742D01*
X155311Y151763D01*
X155252Y151794D01*
X155198Y151802D01*
X155161Y151814D01*
X155121Y151813D01*
X155067Y151821D01*
X154013Y151821D01*
X152971Y152863D01*
X152971Y162337D01*
X154013Y163379D01*
X163487Y163379D01*
X164003Y162862D01*
X164058Y162824D01*
X164105Y162779D01*
X164149Y162761D01*
X164188Y162734D01*
X164251Y162718D01*
X164312Y162692D01*
X164359Y162690D01*
X164405Y162678D01*
X164470Y162685D01*
X164536Y162682D01*
X164581Y162696D01*
X164628Y162701D01*
X164687Y162730D01*
X164750Y162750D01*
X164794Y162783D01*
X164829Y162801D01*
X164856Y162829D01*
X164900Y162862D01*
X180915Y178877D01*
X180940Y178912D01*
X180971Y178941D01*
X181003Y179003D01*
X181044Y179061D01*
X181054Y179102D01*
X181074Y179140D01*
X181087Y179230D01*
X181100Y179279D01*
X181097Y179299D01*
X181101Y179326D01*
X181101Y188787D01*
X181090Y188852D01*
X181088Y188918D01*
X181070Y188961D01*
X181062Y189008D01*
X181028Y189065D01*
X181003Y189125D01*
X180972Y189160D01*
X180947Y189201D01*
X180896Y189243D01*
X180852Y189291D01*
X180810Y189313D01*
X180773Y189342D01*
X180711Y189363D01*
X180652Y189394D01*
X180598Y189402D01*
X180561Y189414D01*
X180521Y189413D01*
X180467Y189421D01*
X178663Y189421D01*
X177621Y190463D01*
X177621Y200152D01*
X177610Y200217D01*
X177608Y200283D01*
X177590Y200326D01*
X177582Y200373D01*
X177548Y200430D01*
X177523Y200490D01*
X177492Y200525D01*
X177467Y200566D01*
X177416Y200608D01*
X177372Y200656D01*
X177330Y200678D01*
X177293Y200707D01*
X177231Y200728D01*
X177172Y200759D01*
X177118Y200767D01*
X177081Y200779D01*
X177041Y200778D01*
X176987Y200786D01*
X167910Y200786D01*
X166496Y202200D01*
X166496Y216900D01*
X167910Y218314D01*
X191500Y218314D01*
X192914Y216900D01*
X192914Y202200D01*
X191500Y200786D01*
X191313Y200786D01*
X191248Y200775D01*
X191182Y200773D01*
X191139Y200755D01*
X191092Y200747D01*
X191035Y200713D01*
X190975Y200688D01*
X190940Y200657D01*
X190899Y200632D01*
X190857Y200581D01*
X190809Y200537D01*
X190787Y200495D01*
X190758Y200458D01*
X190737Y200396D01*
X190706Y200337D01*
X190698Y200283D01*
X190686Y200246D01*
X190687Y200206D01*
X190679Y200152D01*
X190679Y199633D01*
X190690Y199568D01*
X190692Y199502D01*
X190710Y199459D01*
X190718Y199412D01*
X190752Y199355D01*
X190777Y199295D01*
X190808Y199260D01*
X190833Y199219D01*
X190884Y199177D01*
X190928Y199129D01*
X190970Y199107D01*
X191007Y199078D01*
X191069Y199057D01*
X191128Y199026D01*
X191182Y199018D01*
X191219Y199006D01*
X191259Y199007D01*
X191313Y198999D01*
X196037Y198999D01*
X196102Y199010D01*
X196168Y199012D01*
X196211Y199030D01*
X196258Y199038D01*
X196315Y199072D01*
X196375Y199097D01*
X196410Y199128D01*
X196451Y199153D01*
X196493Y199204D01*
X196541Y199248D01*
X196563Y199290D01*
X196592Y199327D01*
X196613Y199389D01*
X196644Y199448D01*
X196652Y199502D01*
X196664Y199539D01*
X196663Y199579D01*
X196671Y199633D01*
X196671Y201437D01*
X197713Y202479D01*
X208687Y202479D01*
X209729Y201437D01*
X209729Y190463D01*
X208687Y189421D01*
X197713Y189421D01*
X196671Y190463D01*
X196671Y192267D01*
X196660Y192332D01*
X196658Y192398D01*
X196640Y192441D01*
X196632Y192488D01*
X196598Y192545D01*
X196573Y192605D01*
X196542Y192640D01*
X196517Y192681D01*
X196466Y192723D01*
X196422Y192771D01*
X196380Y192793D01*
X196343Y192822D01*
X196281Y192843D01*
X196222Y192874D01*
X196168Y192882D01*
X196131Y192894D01*
X196091Y192893D01*
X196037Y192901D01*
X191313Y192901D01*
X191248Y192890D01*
X191182Y192888D01*
X191139Y192870D01*
X191092Y192862D01*
X191035Y192828D01*
X190975Y192803D01*
X190940Y192772D01*
X190899Y192747D01*
X190857Y192696D01*
X190809Y192652D01*
X190787Y192610D01*
X190758Y192573D01*
X190737Y192511D01*
X190706Y192452D01*
X190698Y192398D01*
X190686Y192361D01*
X190687Y192321D01*
X190679Y192267D01*
X190679Y190463D01*
X189637Y189421D01*
X187833Y189421D01*
X187768Y189410D01*
X187702Y189408D01*
X187659Y189390D01*
X187612Y189382D01*
X187555Y189348D01*
X187495Y189323D01*
X187460Y189292D01*
X187419Y189267D01*
X187377Y189216D01*
X187329Y189172D01*
X187307Y189130D01*
X187278Y189093D01*
X187257Y189031D01*
X187226Y188972D01*
X187218Y188918D01*
X187206Y188881D01*
X187207Y188841D01*
X187199Y188787D01*
X187199Y176537D01*
X165213Y154551D01*
X165163Y154551D01*
X165098Y154540D01*
X165032Y154538D01*
X164989Y154520D01*
X164942Y154512D01*
X164885Y154478D01*
X164825Y154453D01*
X164790Y154422D01*
X164749Y154397D01*
X164707Y154346D01*
X164659Y154302D01*
X164637Y154260D01*
X164608Y154223D01*
X164587Y154161D01*
X164556Y154102D01*
X164548Y154048D01*
X164536Y154011D01*
X164537Y153971D01*
X164529Y153917D01*
X164529Y152863D01*
X163487Y151821D01*
X162433Y151821D01*
X162368Y151810D01*
X162302Y151808D01*
X162259Y151790D01*
X162212Y151782D01*
X162155Y151748D01*
X162095Y151723D01*
X162060Y151692D01*
X162019Y151667D01*
X161977Y151616D01*
X161929Y151572D01*
X161907Y151530D01*
X161878Y151493D01*
X161857Y151431D01*
X161826Y151372D01*
X161818Y151318D01*
X161806Y151281D01*
X161807Y151241D01*
X161799Y151187D01*
X161799Y144787D01*
X156945Y139933D01*
X156920Y139898D01*
X156889Y139869D01*
X156857Y139807D01*
X156816Y139749D01*
X156806Y139708D01*
X156786Y139670D01*
X156773Y139580D01*
X156760Y139531D01*
X156763Y139511D01*
X156759Y139484D01*
X156759Y128613D01*
X156770Y128548D01*
X156772Y128482D01*
X156790Y128439D01*
X156798Y128392D01*
X156832Y128335D01*
X156857Y128275D01*
X156888Y128240D01*
X156913Y128199D01*
X156964Y128157D01*
X157008Y128109D01*
X157050Y128087D01*
X157087Y128058D01*
X157149Y128037D01*
X157208Y128006D01*
X157262Y127998D01*
X157299Y127986D01*
X157339Y127987D01*
X157393Y127979D01*
X160947Y127979D01*
X161989Y126937D01*
X161989Y117463D01*
X160947Y116421D01*
X156210Y116421D01*
X151210Y116421D01*
X146473Y116421D01*
X145431Y117463D01*
X145431Y126937D01*
X145475Y126981D01*
X145500Y127016D01*
X145531Y127045D01*
X145563Y127107D01*
X145604Y127165D01*
X145614Y127206D01*
X145634Y127244D01*
X145647Y127334D01*
X145660Y127383D01*
X145657Y127403D01*
X145661Y127430D01*
X145661Y148214D01*
X145654Y148256D01*
X145656Y148299D01*
X145634Y148366D01*
X145622Y148435D01*
X145600Y148472D01*
X145587Y148512D01*
X145533Y148585D01*
X145507Y148628D01*
X145491Y148642D01*
X145475Y148663D01*
X143001Y151137D01*
X143001Y222885D01*
X142990Y222950D01*
X142988Y223016D01*
X142970Y223059D01*
X142962Y223106D01*
X142928Y223163D01*
X142903Y223223D01*
X142872Y223258D01*
X142847Y223299D01*
X142796Y223341D01*
X142752Y223389D01*
X142710Y223411D01*
X142673Y223440D01*
X142611Y223461D01*
X142552Y223492D01*
X142498Y223500D01*
X142461Y223512D01*
X142421Y223511D01*
X142367Y223519D01*
X141315Y223519D01*
X136846Y227988D01*
X136773Y228039D01*
X136704Y228095D01*
X136682Y228103D01*
X136662Y228116D01*
X136576Y228138D01*
X136492Y228167D01*
X136468Y228166D01*
X136445Y228172D01*
X136356Y228163D01*
X136267Y228160D01*
X136245Y228151D01*
X136222Y228149D01*
X136142Y228109D01*
X136060Y228076D01*
X136042Y228060D01*
X136021Y228049D01*
X135960Y227985D01*
X135894Y227925D01*
X135883Y227903D01*
X135867Y227886D01*
X135832Y227804D01*
X135791Y227725D01*
X135788Y227699D01*
X135779Y227680D01*
X135777Y227629D01*
X135764Y227540D01*
X135764Y189500D01*
X134350Y188086D01*
X68850Y188086D01*
X67436Y189500D01*
X67436Y189687D01*
X67425Y189752D01*
X67423Y189818D01*
X67405Y189861D01*
X67397Y189908D01*
X67363Y189965D01*
X67338Y190025D01*
X67307Y190060D01*
X67282Y190101D01*
X67231Y190143D01*
X67187Y190191D01*
X67145Y190213D01*
X67108Y190242D01*
X67046Y190263D01*
X66987Y190294D01*
X66933Y190302D01*
X66896Y190314D01*
X66856Y190313D01*
X66802Y190321D01*
X66664Y190321D01*
X66599Y190310D01*
X66533Y190308D01*
X66490Y190290D01*
X66443Y190282D01*
X66386Y190248D01*
X66326Y190223D01*
X66291Y190192D01*
X66250Y190167D01*
X66208Y190116D01*
X66160Y190072D01*
X66138Y190030D01*
X66109Y189993D01*
X66088Y189931D01*
X66057Y189872D01*
X66049Y189818D01*
X66037Y189781D01*
X66038Y189743D01*
X66037Y189740D01*
X66037Y189735D01*
X66030Y189687D01*
X66030Y184963D01*
X66041Y184898D01*
X66043Y184832D01*
X66061Y184789D01*
X66069Y184742D01*
X66103Y184685D01*
X66128Y184625D01*
X66159Y184590D01*
X66184Y184549D01*
X66235Y184507D01*
X66279Y184459D01*
X66321Y184437D01*
X66358Y184408D01*
X66420Y184387D01*
X66479Y184356D01*
X66533Y184348D01*
X66570Y184336D01*
X66610Y184337D01*
X66664Y184329D01*
X68087Y184329D01*
X69129Y183287D01*
X69129Y172313D01*
X68087Y171271D01*
X66664Y171271D01*
X66599Y171260D01*
X66533Y171258D01*
X66490Y171240D01*
X66443Y171232D01*
X66386Y171198D01*
X66326Y171173D01*
X66291Y171142D01*
X66250Y171117D01*
X66208Y171066D01*
X66160Y171022D01*
X66138Y170980D01*
X66109Y170943D01*
X66088Y170881D01*
X66057Y170822D01*
X66049Y170768D01*
X66037Y170731D01*
X66037Y170714D01*
X66037Y170712D01*
X66037Y170688D01*
X66030Y170637D01*
X66030Y166433D01*
X66041Y166368D01*
X66043Y166302D01*
X66061Y166259D01*
X66069Y166212D01*
X66103Y166155D01*
X66128Y166095D01*
X66159Y166060D01*
X66184Y166019D01*
X66235Y165977D01*
X66279Y165929D01*
X66321Y165907D01*
X66358Y165878D01*
X66420Y165857D01*
X66479Y165826D01*
X66533Y165818D01*
X66570Y165806D01*
X66610Y165807D01*
X66664Y165799D01*
X66847Y165799D01*
X67889Y164757D01*
X67889Y155283D01*
X66847Y154241D01*
X66174Y154241D01*
X66109Y154230D01*
X66043Y154228D01*
X66000Y154210D01*
X65953Y154202D01*
X65896Y154168D01*
X65836Y154143D01*
X65801Y154112D01*
X65760Y154087D01*
X65718Y154036D01*
X65670Y153992D01*
X65648Y153950D01*
X65619Y153913D01*
X65598Y153851D01*
X65567Y153792D01*
X65559Y153738D01*
X65547Y153701D01*
X65548Y153661D01*
X65540Y153607D01*
X65540Y123215D01*
X65547Y123174D01*
X65545Y123131D01*
X65567Y123064D01*
X65579Y122995D01*
X65601Y122958D01*
X65614Y122918D01*
X65668Y122845D01*
X65694Y122801D01*
X65710Y122788D01*
X65726Y122767D01*
X74554Y113939D01*
X74589Y113914D01*
X74617Y113883D01*
X74680Y113851D01*
X74738Y113810D01*
X74779Y113800D01*
X74817Y113780D01*
X74907Y113767D01*
X74955Y113754D01*
X74976Y113757D01*
X75002Y113753D01*
X75857Y113753D01*
X75922Y113764D01*
X75988Y113766D01*
X76031Y113784D01*
X76078Y113792D01*
X76135Y113826D01*
X76195Y113851D01*
X76230Y113882D01*
X76271Y113907D01*
X76313Y113958D01*
X76361Y114002D01*
X76383Y114044D01*
X76412Y114081D01*
X76433Y114143D01*
X76464Y114202D01*
X76472Y114256D01*
X76484Y114293D01*
X76483Y114333D01*
X76491Y114387D01*
X76491Y115697D01*
X76480Y115762D01*
X76478Y115828D01*
X76460Y115871D01*
X76452Y115918D01*
X76418Y115975D01*
X76393Y116035D01*
X76362Y116070D01*
X76337Y116111D01*
X76286Y116153D01*
X76242Y116201D01*
X76200Y116223D01*
X76163Y116252D01*
X76101Y116273D01*
X76042Y116304D01*
X75988Y116312D01*
X75951Y116324D01*
X75911Y116323D01*
X75857Y116331D01*
X74386Y116331D01*
X72897Y117820D01*
X72897Y137196D01*
X74386Y138685D01*
X90551Y138685D01*
X90616Y138696D01*
X90682Y138698D01*
X90725Y138716D01*
X90772Y138724D01*
X90829Y138758D01*
X90889Y138783D01*
X90924Y138814D01*
X90965Y138839D01*
X91007Y138890D01*
X91055Y138934D01*
X91077Y138976D01*
X91106Y139013D01*
X91127Y139075D01*
X91158Y139134D01*
X91166Y139188D01*
X91178Y139225D01*
X91177Y139265D01*
X91185Y139319D01*
X91185Y140273D01*
X91174Y140338D01*
X91172Y140404D01*
X91154Y140447D01*
X91146Y140494D01*
X91112Y140551D01*
X91087Y140611D01*
X91056Y140646D01*
X91031Y140687D01*
X90980Y140729D01*
X90936Y140777D01*
X90894Y140799D01*
X90857Y140828D01*
X90795Y140849D01*
X90736Y140880D01*
X90682Y140888D01*
X90645Y140900D01*
X90605Y140899D01*
X90551Y140907D01*
X88747Y140907D01*
X87705Y141949D01*
X87705Y152923D01*
X88747Y153965D01*
X99721Y153965D01*
X100763Y152923D01*
X100763Y141949D01*
X99721Y140907D01*
X97917Y140907D01*
X97852Y140896D01*
X97786Y140894D01*
X97743Y140876D01*
X97696Y140868D01*
X97639Y140834D01*
X97579Y140809D01*
X97544Y140778D01*
X97503Y140753D01*
X97461Y140702D01*
X97413Y140658D01*
X97391Y140616D01*
X97362Y140579D01*
X97341Y140517D01*
X97310Y140458D01*
X97302Y140404D01*
X97290Y140367D01*
X97291Y140327D01*
X97283Y140273D01*
X97283Y139448D01*
X97290Y139406D01*
X97288Y139363D01*
X97310Y139296D01*
X97322Y139227D01*
X97344Y139190D01*
X97357Y139150D01*
X97411Y139077D01*
X97437Y139034D01*
X97453Y139020D01*
X97469Y138999D01*
X102069Y134399D01*
X102069Y127430D01*
X102076Y127388D01*
X102074Y127345D01*
X102096Y127278D01*
X102108Y127209D01*
X102130Y127172D01*
X102143Y127132D01*
X102197Y127059D01*
X102223Y127015D01*
X102239Y127002D01*
X102255Y126981D01*
X102299Y126937D01*
X102299Y117463D01*
X101797Y116961D01*
X101746Y116888D01*
X101690Y116819D01*
X101682Y116797D01*
X101669Y116777D01*
X101647Y116691D01*
X101618Y116607D01*
X101619Y116583D01*
X101613Y116560D01*
X101622Y116471D01*
X101625Y116382D01*
X101634Y116360D01*
X101636Y116337D01*
X101676Y116257D01*
X101709Y116175D01*
X101725Y116157D01*
X101736Y116136D01*
X101801Y116075D01*
X101860Y116009D01*
X101882Y115998D01*
X101899Y115982D01*
X101981Y115947D01*
X102060Y115906D01*
X102086Y115903D01*
X102105Y115894D01*
X102156Y115892D01*
X102245Y115879D01*
X103407Y115879D01*
X103909Y115377D01*
X103982Y115326D01*
X104051Y115270D01*
X104073Y115262D01*
X104093Y115249D01*
X104179Y115227D01*
X104263Y115198D01*
X104287Y115199D01*
X104310Y115193D01*
X104399Y115202D01*
X104488Y115205D01*
X104510Y115214D01*
X104533Y115216D01*
X104613Y115256D01*
X104695Y115289D01*
X104713Y115305D01*
X104734Y115316D01*
X104795Y115381D01*
X104861Y115440D01*
X104872Y115462D01*
X104888Y115479D01*
X104923Y115561D01*
X104964Y115640D01*
X104967Y115666D01*
X104976Y115685D01*
X104978Y115736D01*
X104991Y115825D01*
X104991Y117783D01*
X105001Y117801D01*
X105014Y117891D01*
X105027Y117940D01*
X105024Y117960D01*
X105028Y117987D01*
X105028Y141462D01*
X106442Y142876D01*
X123428Y142876D01*
X124842Y141462D01*
X124842Y114387D01*
X124853Y114322D01*
X124855Y114256D01*
X124873Y114213D01*
X124881Y114166D01*
X124915Y114109D01*
X124940Y114049D01*
X124971Y114014D01*
X124996Y113973D01*
X125047Y113931D01*
X125091Y113883D01*
X125133Y113861D01*
X125170Y113832D01*
X125232Y113811D01*
X125291Y113780D01*
X125345Y113772D01*
X125382Y113760D01*
X125422Y113761D01*
X125476Y113753D01*
X143454Y113753D01*
X143519Y113743D01*
X143568Y113730D01*
X143589Y113733D01*
X143615Y113729D01*
X146697Y113729D01*
X147739Y112687D01*
X147739Y107950D01*
X147739Y103213D01*
X146697Y102171D01*
X143615Y102171D01*
X143573Y102164D01*
X143531Y102166D01*
X143473Y102147D01*
X118364Y102147D01*
X118299Y102136D01*
X118233Y102134D01*
X118190Y102116D01*
X118143Y102108D01*
X118086Y102074D01*
X118026Y102049D01*
X117991Y102018D01*
X117950Y101993D01*
X117908Y101942D01*
X117860Y101898D01*
X117838Y101856D01*
X117809Y101819D01*
X117788Y101757D01*
X117757Y101698D01*
X117749Y101644D01*
X117737Y101607D01*
X117737Y101581D01*
X117737Y101579D01*
X117737Y101563D01*
X117730Y101513D01*
X117730Y98552D01*
X117741Y98487D01*
X117743Y98421D01*
X117761Y98378D01*
X117769Y98331D01*
X117803Y98274D01*
X117828Y98214D01*
X117859Y98179D01*
X117884Y98138D01*
X117935Y98096D01*
X117979Y98048D01*
X118021Y98026D01*
X118058Y97997D01*
X118120Y97976D01*
X118179Y97945D01*
X118233Y97937D01*
X118270Y97925D01*
X118310Y97926D01*
X118364Y97918D01*
X144787Y97918D01*
X144829Y97925D01*
X144871Y97923D01*
X144926Y97941D01*
X144928Y97941D01*
X144934Y97943D01*
X144938Y97945D01*
X145008Y97957D01*
X145044Y97979D01*
X145084Y97992D01*
X145123Y98020D01*
X145135Y98025D01*
X145158Y98046D01*
X145202Y98072D01*
X145214Y98087D01*
X145235Y98103D01*
X145245Y98112D01*
X145269Y98148D01*
X145301Y98177D01*
X145326Y98225D01*
X145343Y98246D01*
X145348Y98260D01*
X145373Y98296D01*
X145384Y98338D01*
X145404Y98376D01*
X145409Y98415D01*
X146500Y99506D01*
X146569Y99518D01*
X146606Y99540D01*
X146646Y99553D01*
X146719Y99607D01*
X146763Y99633D01*
X146776Y99649D01*
X146797Y99665D01*
X146828Y99696D01*
X155686Y99696D01*
X155717Y99665D01*
X155752Y99640D01*
X155781Y99609D01*
X155843Y99577D01*
X155862Y99564D01*
X157061Y98365D01*
X157063Y98358D01*
X157100Y98308D01*
X157100Y91948D01*
X157111Y91883D01*
X157113Y91817D01*
X157131Y91774D01*
X157139Y91727D01*
X157173Y91670D01*
X157198Y91610D01*
X157229Y91575D01*
X157254Y91534D01*
X157305Y91492D01*
X157349Y91444D01*
X157391Y91422D01*
X157428Y91393D01*
X157490Y91372D01*
X157549Y91341D01*
X157603Y91333D01*
X157640Y91321D01*
X157680Y91322D01*
X157734Y91314D01*
X172450Y91314D01*
X173288Y90476D01*
X173361Y90425D01*
X173430Y90369D01*
X173452Y90361D01*
X173472Y90348D01*
X173558Y90326D01*
X173642Y90297D01*
X173666Y90298D01*
X173689Y90292D01*
X173778Y90301D01*
G37*
G36*
X287720Y3822D02*
X287720Y3822D01*
X287786Y3824D01*
X287829Y3842D01*
X287876Y3850D01*
X287933Y3884D01*
X287993Y3909D01*
X288028Y3940D01*
X288069Y3965D01*
X288111Y4016D01*
X288159Y4060D01*
X288181Y4102D01*
X288210Y4139D01*
X288231Y4201D01*
X288262Y4260D01*
X288270Y4314D01*
X288282Y4351D01*
X288281Y4391D01*
X288289Y4445D01*
X288289Y36704D01*
X292100Y36704D01*
X292102Y36705D01*
X292104Y36704D01*
X292147Y36724D01*
X292191Y36742D01*
X292191Y36744D01*
X292193Y36745D01*
X292226Y36830D01*
X292226Y46228D01*
X292225Y46230D01*
X292226Y46232D01*
X292206Y46275D01*
X292188Y46319D01*
X292186Y46319D01*
X292185Y46321D01*
X292100Y46354D01*
X245416Y46354D01*
X238087Y53683D01*
X238084Y53685D01*
X238083Y53687D01*
X237998Y53720D01*
X236220Y53720D01*
X236218Y53719D01*
X236216Y53720D01*
X236173Y53700D01*
X236129Y53682D01*
X236129Y53680D01*
X236127Y53679D01*
X236094Y53594D01*
X236094Y53592D01*
X236055Y53612D01*
X236018Y53641D01*
X235956Y53662D01*
X235897Y53693D01*
X235843Y53701D01*
X235806Y53713D01*
X235766Y53712D01*
X235712Y53720D01*
X232663Y53720D01*
X232598Y53709D01*
X232532Y53707D01*
X232489Y53689D01*
X232442Y53681D01*
X232385Y53647D01*
X232325Y53622D01*
X232290Y53591D01*
X232249Y53566D01*
X232207Y53515D01*
X232159Y53471D01*
X232137Y53429D01*
X232108Y53392D01*
X232087Y53330D01*
X232056Y53271D01*
X232048Y53217D01*
X232036Y53180D01*
X232037Y53140D01*
X232029Y53086D01*
X232029Y52913D01*
X230987Y51871D01*
X223513Y51871D01*
X222699Y52686D01*
X222644Y52724D01*
X222597Y52769D01*
X222553Y52787D01*
X222514Y52814D01*
X222451Y52830D01*
X222390Y52856D01*
X222343Y52858D01*
X222297Y52870D01*
X222232Y52863D01*
X222166Y52866D01*
X222121Y52852D01*
X222074Y52847D01*
X222015Y52818D01*
X221952Y52798D01*
X221908Y52765D01*
X221873Y52747D01*
X221846Y52719D01*
X221802Y52686D01*
X220987Y51871D01*
X213513Y51871D01*
X212471Y52913D01*
X212471Y53086D01*
X212460Y53151D01*
X212458Y53217D01*
X212440Y53260D01*
X212432Y53307D01*
X212398Y53364D01*
X212373Y53424D01*
X212342Y53459D01*
X212317Y53500D01*
X212266Y53542D01*
X212222Y53590D01*
X212180Y53612D01*
X212143Y53641D01*
X212081Y53662D01*
X212022Y53693D01*
X211968Y53701D01*
X211931Y53713D01*
X211891Y53712D01*
X211837Y53720D01*
X198634Y53720D01*
X189948Y56542D01*
X182560Y61910D01*
X177192Y69298D01*
X175101Y75734D01*
X175095Y75746D01*
X175093Y75759D01*
X175042Y75845D01*
X174995Y75932D01*
X174985Y75941D01*
X174978Y75952D01*
X174901Y76015D01*
X174827Y76081D01*
X174815Y76085D01*
X174804Y76094D01*
X174710Y76125D01*
X174618Y76161D01*
X174604Y76161D01*
X174592Y76166D01*
X174493Y76163D01*
X174393Y76164D01*
X174381Y76159D01*
X174367Y76159D01*
X174276Y76122D01*
X174182Y76088D01*
X174172Y76080D01*
X174160Y76075D01*
X174086Y76008D01*
X174010Y75944D01*
X174004Y75932D01*
X173994Y75923D01*
X173948Y75835D01*
X173900Y75749D01*
X173898Y75736D01*
X173891Y75724D01*
X173864Y75538D01*
X173864Y73930D01*
X172450Y72516D01*
X169967Y72516D01*
X169926Y72509D01*
X169883Y72511D01*
X169816Y72489D01*
X169747Y72477D01*
X169710Y72455D01*
X169670Y72442D01*
X169597Y72388D01*
X169553Y72362D01*
X169540Y72346D01*
X169519Y72330D01*
X169404Y72215D01*
X166036Y72215D01*
X165921Y72330D01*
X165886Y72355D01*
X165858Y72386D01*
X165795Y72418D01*
X165737Y72459D01*
X165696Y72469D01*
X165658Y72489D01*
X165568Y72502D01*
X165520Y72515D01*
X165499Y72512D01*
X165473Y72516D01*
X102124Y72516D01*
X100710Y73930D01*
X100710Y87287D01*
X100699Y87352D01*
X100697Y87418D01*
X100679Y87461D01*
X100671Y87508D01*
X100637Y87565D01*
X100612Y87625D01*
X100581Y87660D01*
X100556Y87701D01*
X100505Y87743D01*
X100461Y87791D01*
X100419Y87813D01*
X100382Y87842D01*
X100320Y87863D01*
X100261Y87894D01*
X100207Y87902D01*
X100170Y87914D01*
X100130Y87913D01*
X100076Y87921D01*
X97703Y87921D01*
X97638Y87910D01*
X97572Y87908D01*
X97529Y87890D01*
X97482Y87882D01*
X97425Y87848D01*
X97365Y87823D01*
X97330Y87792D01*
X97289Y87767D01*
X97247Y87716D01*
X97199Y87672D01*
X97177Y87630D01*
X97148Y87593D01*
X97127Y87531D01*
X97096Y87472D01*
X97088Y87418D01*
X97076Y87381D01*
X97077Y87341D01*
X97069Y87287D01*
X97069Y65975D01*
X97080Y65910D01*
X97082Y65844D01*
X97100Y65801D01*
X97108Y65754D01*
X97142Y65697D01*
X97167Y65637D01*
X97198Y65602D01*
X97223Y65561D01*
X97274Y65519D01*
X97318Y65471D01*
X97360Y65449D01*
X97397Y65420D01*
X97459Y65399D01*
X97518Y65368D01*
X97572Y65360D01*
X97609Y65348D01*
X97649Y65349D01*
X97703Y65341D01*
X99721Y65341D01*
X100763Y64299D01*
X100763Y53325D01*
X99721Y52283D01*
X88747Y52283D01*
X87705Y53325D01*
X87705Y64299D01*
X88747Y65341D01*
X90337Y65341D01*
X90402Y65352D01*
X90468Y65354D01*
X90511Y65372D01*
X90558Y65380D01*
X90615Y65414D01*
X90675Y65439D01*
X90710Y65470D01*
X90751Y65495D01*
X90793Y65546D01*
X90841Y65590D01*
X90863Y65632D01*
X90892Y65669D01*
X90913Y65731D01*
X90944Y65790D01*
X90952Y65844D01*
X90964Y65881D01*
X90963Y65921D01*
X90971Y65975D01*
X90971Y76327D01*
X90960Y76392D01*
X90958Y76458D01*
X90940Y76501D01*
X90932Y76548D01*
X90898Y76605D01*
X90873Y76665D01*
X90842Y76700D01*
X90817Y76741D01*
X90766Y76783D01*
X90722Y76831D01*
X90680Y76853D01*
X90643Y76882D01*
X90581Y76903D01*
X90522Y76934D01*
X90468Y76942D01*
X90431Y76954D01*
X90391Y76953D01*
X90337Y76961D01*
X75148Y76961D01*
X73659Y78450D01*
X73659Y98080D01*
X75148Y99569D01*
X88555Y99569D01*
X88642Y99584D01*
X88731Y99594D01*
X88752Y99604D01*
X88775Y99608D01*
X88852Y99654D01*
X88932Y99693D01*
X88948Y99710D01*
X88969Y99723D01*
X89025Y99792D01*
X89086Y99856D01*
X89095Y99878D01*
X89110Y99897D01*
X89138Y99981D01*
X89173Y100063D01*
X89174Y100087D01*
X89182Y100109D01*
X89179Y100198D01*
X89183Y100287D01*
X89176Y100310D01*
X89175Y100334D01*
X89142Y100416D01*
X89115Y100501D01*
X89099Y100522D01*
X89091Y100541D01*
X89057Y100579D01*
X89003Y100651D01*
X88591Y101063D01*
X88591Y102225D01*
X88576Y102312D01*
X88566Y102401D01*
X88556Y102422D01*
X88552Y102445D01*
X88506Y102522D01*
X88467Y102602D01*
X88450Y102618D01*
X88437Y102639D01*
X88368Y102695D01*
X88304Y102756D01*
X88282Y102765D01*
X88263Y102780D01*
X88179Y102808D01*
X88097Y102843D01*
X88073Y102844D01*
X88051Y102852D01*
X87962Y102849D01*
X87873Y102853D01*
X87850Y102846D01*
X87826Y102845D01*
X87744Y102812D01*
X87659Y102785D01*
X87638Y102769D01*
X87619Y102761D01*
X87581Y102727D01*
X87509Y102673D01*
X87007Y102171D01*
X83925Y102171D01*
X83883Y102164D01*
X83841Y102166D01*
X83783Y102147D01*
X67382Y102147D01*
X67341Y102140D01*
X67298Y102142D01*
X67231Y102120D01*
X67162Y102108D01*
X67125Y102086D01*
X67085Y102073D01*
X67012Y102019D01*
X66968Y101993D01*
X66955Y101977D01*
X66934Y101961D01*
X64413Y99440D01*
X57658Y99440D01*
X57593Y99429D01*
X57527Y99427D01*
X57484Y99409D01*
X57437Y99401D01*
X57380Y99367D01*
X57320Y99342D01*
X57285Y99311D01*
X57276Y99306D01*
X57276Y99314D01*
X57275Y99316D01*
X57276Y99318D01*
X57256Y99361D01*
X57238Y99405D01*
X57236Y99405D01*
X57235Y99407D01*
X57150Y99440D01*
X55372Y99440D01*
X55369Y99439D01*
X55366Y99440D01*
X55283Y99403D01*
X47954Y92074D01*
X1270Y92074D01*
X1268Y92073D01*
X1266Y92074D01*
X1223Y92054D01*
X1179Y92036D01*
X1179Y92034D01*
X1177Y92033D01*
X1144Y91948D01*
X1144Y82550D01*
X1145Y82548D01*
X1144Y82546D01*
X1164Y82503D01*
X1182Y82459D01*
X1184Y82459D01*
X1185Y82457D01*
X1270Y82424D01*
X3811Y82424D01*
X3811Y4445D01*
X3822Y4380D01*
X3824Y4314D01*
X3842Y4271D01*
X3850Y4224D01*
X3884Y4167D01*
X3909Y4107D01*
X3940Y4072D01*
X3965Y4031D01*
X4016Y3989D01*
X4060Y3941D01*
X4102Y3919D01*
X4139Y3890D01*
X4201Y3869D01*
X4260Y3838D01*
X4314Y3830D01*
X4351Y3818D01*
X4391Y3819D01*
X4445Y3811D01*
X287655Y3811D01*
X287720Y3822D01*
G37*
G36*
X211902Y60591D02*
X211902Y60591D01*
X211968Y60593D01*
X212011Y60611D01*
X212058Y60619D01*
X212115Y60653D01*
X212175Y60678D01*
X212210Y60709D01*
X212251Y60734D01*
X212293Y60785D01*
X212341Y60829D01*
X212363Y60871D01*
X212392Y60908D01*
X212413Y60970D01*
X212444Y61029D01*
X212452Y61083D01*
X212464Y61120D01*
X212463Y61160D01*
X212471Y61214D01*
X212471Y61387D01*
X213513Y62429D01*
X220987Y62429D01*
X221802Y61614D01*
X221856Y61576D01*
X221903Y61531D01*
X221947Y61513D01*
X221986Y61486D01*
X222049Y61470D01*
X222110Y61444D01*
X222157Y61442D01*
X222203Y61430D01*
X222268Y61437D01*
X222334Y61434D01*
X222379Y61448D01*
X222426Y61453D01*
X222485Y61482D01*
X222548Y61503D01*
X222592Y61535D01*
X222627Y61553D01*
X222654Y61581D01*
X222699Y61614D01*
X223513Y62429D01*
X230987Y62429D01*
X232029Y61387D01*
X232029Y61214D01*
X232040Y61149D01*
X232042Y61083D01*
X232060Y61040D01*
X232068Y60993D01*
X232102Y60936D01*
X232127Y60876D01*
X232158Y60841D01*
X232183Y60800D01*
X232234Y60758D01*
X232278Y60710D01*
X232320Y60688D01*
X232357Y60659D01*
X232419Y60638D01*
X232478Y60607D01*
X232532Y60599D01*
X232569Y60587D01*
X232609Y60588D01*
X232663Y60580D01*
X235712Y60580D01*
X235777Y60591D01*
X235843Y60593D01*
X235886Y60611D01*
X235933Y60619D01*
X235990Y60653D01*
X236050Y60678D01*
X236085Y60709D01*
X236094Y60714D01*
X236094Y60706D01*
X236095Y60704D01*
X236094Y60702D01*
X236114Y60659D01*
X236132Y60615D01*
X236134Y60615D01*
X236135Y60613D01*
X236220Y60580D01*
X237998Y60580D01*
X238001Y60581D01*
X238004Y60580D01*
X238087Y60617D01*
X245416Y67946D01*
X292100Y67946D01*
X292102Y67947D01*
X292104Y67946D01*
X292147Y67966D01*
X292191Y67984D01*
X292191Y67986D01*
X292193Y67987D01*
X292226Y68072D01*
X292226Y77470D01*
X292225Y77472D01*
X292226Y77474D01*
X292206Y77517D01*
X292188Y77561D01*
X292186Y77561D01*
X292185Y77563D01*
X292100Y77596D01*
X288289Y77596D01*
X288289Y138304D01*
X292100Y138304D01*
X292102Y138305D01*
X292104Y138304D01*
X292147Y138324D01*
X292191Y138342D01*
X292191Y138344D01*
X292193Y138345D01*
X292226Y138430D01*
X292226Y147828D01*
X292225Y147830D01*
X292226Y147832D01*
X292206Y147875D01*
X292188Y147919D01*
X292186Y147919D01*
X292185Y147921D01*
X292100Y147954D01*
X245416Y147954D01*
X238087Y155283D01*
X238084Y155285D01*
X238083Y155287D01*
X237998Y155320D01*
X236220Y155320D01*
X236218Y155319D01*
X236216Y155320D01*
X236173Y155300D01*
X236129Y155282D01*
X236129Y155280D01*
X236127Y155279D01*
X236094Y155194D01*
X236094Y155192D01*
X236055Y155212D01*
X236018Y155241D01*
X235956Y155262D01*
X235897Y155293D01*
X235843Y155301D01*
X235806Y155313D01*
X235766Y155312D01*
X235712Y155320D01*
X232663Y155320D01*
X232598Y155309D01*
X232532Y155307D01*
X232489Y155289D01*
X232442Y155281D01*
X232385Y155247D01*
X232325Y155222D01*
X232290Y155191D01*
X232249Y155166D01*
X232207Y155115D01*
X232159Y155071D01*
X232137Y155029D01*
X232108Y154992D01*
X232087Y154930D01*
X232056Y154871D01*
X232048Y154817D01*
X232036Y154780D01*
X232037Y154740D01*
X232029Y154686D01*
X232029Y154513D01*
X230987Y153471D01*
X223513Y153471D01*
X222699Y154286D01*
X222644Y154324D01*
X222597Y154369D01*
X222553Y154387D01*
X222514Y154414D01*
X222451Y154430D01*
X222390Y154456D01*
X222343Y154458D01*
X222297Y154470D01*
X222232Y154463D01*
X222166Y154466D01*
X222121Y154452D01*
X222074Y154447D01*
X222015Y154418D01*
X221952Y154398D01*
X221908Y154365D01*
X221873Y154347D01*
X221846Y154319D01*
X221802Y154286D01*
X220987Y153471D01*
X213513Y153471D01*
X212471Y154513D01*
X212471Y154686D01*
X212460Y154751D01*
X212458Y154817D01*
X212440Y154860D01*
X212432Y154907D01*
X212398Y154964D01*
X212373Y155024D01*
X212342Y155059D01*
X212317Y155100D01*
X212266Y155142D01*
X212222Y155190D01*
X212180Y155212D01*
X212143Y155241D01*
X212081Y155262D01*
X212022Y155293D01*
X211968Y155301D01*
X211931Y155313D01*
X211891Y155312D01*
X211837Y155320D01*
X203200Y155320D01*
X203178Y155316D01*
X203150Y155318D01*
X199813Y155056D01*
X199764Y155043D01*
X199666Y155027D01*
X193318Y152964D01*
X193313Y152961D01*
X193307Y152960D01*
X193141Y152874D01*
X187740Y148950D01*
X187736Y148946D01*
X187731Y148943D01*
X187692Y148903D01*
X187687Y148900D01*
X187676Y148887D01*
X187600Y148810D01*
X183676Y143409D01*
X183674Y143404D01*
X183670Y143400D01*
X183586Y143232D01*
X181523Y136884D01*
X181517Y136834D01*
X181494Y136737D01*
X181232Y133400D01*
X181234Y133378D01*
X181230Y133350D01*
X181230Y131643D01*
X181241Y131578D01*
X181243Y131512D01*
X181261Y131469D01*
X181269Y131422D01*
X181303Y131365D01*
X181328Y131305D01*
X181359Y131270D01*
X181384Y131229D01*
X181435Y131187D01*
X181479Y131139D01*
X181521Y131117D01*
X181558Y131088D01*
X181620Y131067D01*
X181679Y131036D01*
X181733Y131028D01*
X181770Y131016D01*
X181810Y131017D01*
X181864Y131009D01*
X187452Y131009D01*
X187517Y131020D01*
X187583Y131022D01*
X187626Y131040D01*
X187673Y131048D01*
X187730Y131082D01*
X187790Y131107D01*
X187825Y131138D01*
X187866Y131163D01*
X187908Y131214D01*
X187956Y131258D01*
X187978Y131300D01*
X188007Y131337D01*
X188028Y131399D01*
X188059Y131458D01*
X188067Y131512D01*
X188079Y131549D01*
X188078Y131589D01*
X188086Y131643D01*
X188086Y140700D01*
X189500Y142114D01*
X216900Y142114D01*
X218314Y140700D01*
X218314Y75200D01*
X216900Y73786D01*
X189500Y73786D01*
X188086Y75200D01*
X188086Y84257D01*
X188075Y84322D01*
X188073Y84388D01*
X188055Y84431D01*
X188047Y84478D01*
X188013Y84535D01*
X187988Y84595D01*
X187957Y84630D01*
X187932Y84671D01*
X187881Y84713D01*
X187837Y84761D01*
X187795Y84783D01*
X187758Y84812D01*
X187696Y84833D01*
X187637Y84864D01*
X187583Y84872D01*
X187546Y84884D01*
X187506Y84883D01*
X187452Y84891D01*
X181864Y84891D01*
X181799Y84880D01*
X181733Y84878D01*
X181690Y84860D01*
X181643Y84852D01*
X181586Y84818D01*
X181526Y84793D01*
X181491Y84762D01*
X181450Y84737D01*
X181408Y84686D01*
X181360Y84642D01*
X181338Y84600D01*
X181309Y84563D01*
X181288Y84501D01*
X181257Y84442D01*
X181249Y84388D01*
X181237Y84351D01*
X181238Y84311D01*
X181230Y84257D01*
X181230Y82550D01*
X181234Y82528D01*
X181232Y82500D01*
X181494Y79163D01*
X181507Y79114D01*
X181523Y79016D01*
X183586Y72668D01*
X183589Y72663D01*
X183590Y72657D01*
X183676Y72491D01*
X187600Y67090D01*
X187604Y67086D01*
X187607Y67081D01*
X187740Y66950D01*
X193141Y63026D01*
X193146Y63024D01*
X193150Y63020D01*
X193318Y62936D01*
X199666Y60873D01*
X199716Y60867D01*
X199813Y60844D01*
X203150Y60582D01*
X203172Y60584D01*
X203200Y60580D01*
X211837Y60580D01*
X211902Y60591D01*
G37*
G36*
X133415Y189877D02*
X133415Y189877D01*
X133481Y189879D01*
X133524Y189897D01*
X133571Y189905D01*
X133628Y189939D01*
X133688Y189964D01*
X133723Y189995D01*
X133764Y190020D01*
X133806Y190071D01*
X133854Y190115D01*
X133876Y190157D01*
X133905Y190194D01*
X133926Y190256D01*
X133957Y190315D01*
X133965Y190369D01*
X133977Y190406D01*
X133976Y190446D01*
X133984Y190500D01*
X133984Y247650D01*
X133973Y247715D01*
X133971Y247781D01*
X133953Y247824D01*
X133945Y247871D01*
X133911Y247928D01*
X133886Y247988D01*
X133855Y248023D01*
X133830Y248064D01*
X133779Y248106D01*
X133735Y248154D01*
X133693Y248176D01*
X133656Y248205D01*
X133594Y248226D01*
X133535Y248257D01*
X133481Y248265D01*
X133444Y248277D01*
X133404Y248276D01*
X133350Y248284D01*
X95250Y248284D01*
X95185Y248273D01*
X95119Y248271D01*
X95076Y248253D01*
X95029Y248245D01*
X94972Y248211D01*
X94912Y248186D01*
X94877Y248155D01*
X94836Y248130D01*
X94795Y248079D01*
X94746Y248035D01*
X94724Y247993D01*
X94695Y247956D01*
X94674Y247894D01*
X94643Y247835D01*
X94635Y247781D01*
X94623Y247744D01*
X94624Y247704D01*
X94616Y247650D01*
X94616Y222884D01*
X69850Y222884D01*
X69785Y222873D01*
X69719Y222871D01*
X69676Y222853D01*
X69629Y222845D01*
X69572Y222811D01*
X69512Y222786D01*
X69477Y222755D01*
X69436Y222730D01*
X69395Y222679D01*
X69346Y222635D01*
X69324Y222593D01*
X69295Y222556D01*
X69274Y222494D01*
X69243Y222435D01*
X69235Y222381D01*
X69223Y222344D01*
X69224Y222309D01*
X69223Y222306D01*
X69223Y222298D01*
X69216Y222250D01*
X69216Y190500D01*
X69227Y190435D01*
X69229Y190369D01*
X69247Y190326D01*
X69255Y190279D01*
X69289Y190222D01*
X69314Y190162D01*
X69345Y190127D01*
X69370Y190086D01*
X69421Y190045D01*
X69465Y189996D01*
X69507Y189974D01*
X69544Y189945D01*
X69606Y189924D01*
X69665Y189893D01*
X69719Y189885D01*
X69756Y189873D01*
X69796Y189874D01*
X69850Y189866D01*
X133350Y189866D01*
X133415Y189877D01*
G37*
G36*
X215965Y75577D02*
X215965Y75577D01*
X216031Y75579D01*
X216074Y75597D01*
X216121Y75605D01*
X216178Y75639D01*
X216238Y75664D01*
X216273Y75695D01*
X216314Y75720D01*
X216356Y75771D01*
X216404Y75815D01*
X216426Y75857D01*
X216455Y75894D01*
X216476Y75956D01*
X216507Y76015D01*
X216515Y76069D01*
X216527Y76106D01*
X216526Y76146D01*
X216534Y76200D01*
X216534Y96688D01*
X216527Y96729D01*
X216529Y96772D01*
X216507Y96839D01*
X216495Y96908D01*
X216473Y96945D01*
X216460Y96985D01*
X216406Y97058D01*
X216380Y97102D01*
X216364Y97115D01*
X216348Y97136D01*
X216121Y97363D01*
X216121Y105837D01*
X216348Y106064D01*
X216373Y106099D01*
X216404Y106128D01*
X216436Y106190D01*
X216477Y106248D01*
X216487Y106289D01*
X216507Y106327D01*
X216520Y106417D01*
X216533Y106465D01*
X216530Y106486D01*
X216534Y106512D01*
X216534Y109388D01*
X216527Y109429D01*
X216529Y109472D01*
X216507Y109539D01*
X216495Y109608D01*
X216473Y109645D01*
X216460Y109685D01*
X216406Y109758D01*
X216380Y109802D01*
X216364Y109815D01*
X216348Y109836D01*
X216121Y110063D01*
X216121Y118537D01*
X216348Y118764D01*
X216373Y118799D01*
X216404Y118828D01*
X216436Y118890D01*
X216477Y118948D01*
X216487Y118989D01*
X216507Y119027D01*
X216520Y119117D01*
X216533Y119165D01*
X216530Y119186D01*
X216534Y119212D01*
X216534Y139700D01*
X216523Y139765D01*
X216521Y139831D01*
X216503Y139874D01*
X216495Y139921D01*
X216461Y139978D01*
X216436Y140038D01*
X216405Y140073D01*
X216380Y140114D01*
X216329Y140156D01*
X216285Y140204D01*
X216243Y140226D01*
X216206Y140255D01*
X216144Y140276D01*
X216085Y140307D01*
X216031Y140315D01*
X215994Y140327D01*
X215954Y140326D01*
X215900Y140334D01*
X190500Y140334D01*
X190435Y140323D01*
X190369Y140321D01*
X190326Y140303D01*
X190279Y140295D01*
X190222Y140261D01*
X190162Y140236D01*
X190127Y140205D01*
X190086Y140180D01*
X190045Y140129D01*
X189996Y140085D01*
X189974Y140043D01*
X189945Y140006D01*
X189924Y139944D01*
X189893Y139885D01*
X189885Y139831D01*
X189873Y139794D01*
X189874Y139754D01*
X189866Y139700D01*
X189866Y130642D01*
X189873Y130601D01*
X189871Y130558D01*
X189893Y130491D01*
X189905Y130422D01*
X189927Y130385D01*
X189940Y130345D01*
X189994Y130272D01*
X190020Y130228D01*
X190036Y130215D01*
X190052Y130194D01*
X190279Y129967D01*
X190279Y121493D01*
X190052Y121266D01*
X190027Y121231D01*
X189996Y121202D01*
X189964Y121140D01*
X189923Y121082D01*
X189913Y121041D01*
X189893Y121003D01*
X189880Y120913D01*
X189868Y120865D01*
X189870Y120844D01*
X189866Y120818D01*
X189866Y119212D01*
X189873Y119171D01*
X189871Y119128D01*
X189893Y119061D01*
X189905Y118992D01*
X189927Y118955D01*
X189940Y118915D01*
X189994Y118842D01*
X190020Y118798D01*
X190036Y118785D01*
X190052Y118764D01*
X190279Y118537D01*
X190279Y110063D01*
X190052Y109836D01*
X190027Y109801D01*
X189996Y109772D01*
X189964Y109710D01*
X189923Y109652D01*
X189913Y109611D01*
X189893Y109573D01*
X189880Y109483D01*
X189868Y109435D01*
X189870Y109414D01*
X189866Y109388D01*
X189866Y106512D01*
X189873Y106471D01*
X189871Y106428D01*
X189893Y106361D01*
X189905Y106292D01*
X189927Y106255D01*
X189940Y106215D01*
X189994Y106142D01*
X190020Y106098D01*
X190036Y106085D01*
X190052Y106064D01*
X190279Y105837D01*
X190279Y97363D01*
X190052Y97136D01*
X190027Y97101D01*
X189996Y97072D01*
X189964Y97010D01*
X189923Y96952D01*
X189913Y96911D01*
X189893Y96873D01*
X189880Y96783D01*
X189868Y96735D01*
X189870Y96714D01*
X189866Y96688D01*
X189866Y95082D01*
X189873Y95041D01*
X189871Y94998D01*
X189893Y94931D01*
X189905Y94862D01*
X189927Y94825D01*
X189940Y94785D01*
X189994Y94712D01*
X190020Y94668D01*
X190036Y94655D01*
X190052Y94634D01*
X190279Y94407D01*
X190279Y85933D01*
X190052Y85706D01*
X190027Y85671D01*
X189996Y85642D01*
X189964Y85580D01*
X189923Y85522D01*
X189913Y85481D01*
X189893Y85443D01*
X189880Y85353D01*
X189868Y85305D01*
X189870Y85284D01*
X189866Y85258D01*
X189866Y76200D01*
X189877Y76135D01*
X189879Y76069D01*
X189897Y76026D01*
X189905Y75979D01*
X189939Y75922D01*
X189964Y75862D01*
X189995Y75827D01*
X190020Y75786D01*
X190071Y75745D01*
X190115Y75696D01*
X190157Y75674D01*
X190194Y75645D01*
X190256Y75624D01*
X190315Y75593D01*
X190369Y75585D01*
X190406Y75573D01*
X190446Y75574D01*
X190500Y75566D01*
X215900Y75566D01*
X215965Y75577D01*
G37*
G36*
X140202Y74307D02*
X140202Y74307D01*
X140268Y74309D01*
X140311Y74327D01*
X140358Y74335D01*
X140415Y74369D01*
X140475Y74394D01*
X140510Y74425D01*
X140551Y74450D01*
X140593Y74501D01*
X140641Y74545D01*
X140663Y74587D01*
X140692Y74624D01*
X140713Y74686D01*
X140744Y74745D01*
X140752Y74799D01*
X140764Y74836D01*
X140763Y74876D01*
X140771Y74930D01*
X140771Y74937D01*
X141813Y75979D01*
X150287Y75979D01*
X151329Y74937D01*
X151329Y74930D01*
X151340Y74865D01*
X151342Y74799D01*
X151360Y74756D01*
X151368Y74709D01*
X151402Y74652D01*
X151427Y74592D01*
X151458Y74557D01*
X151483Y74516D01*
X151534Y74475D01*
X151578Y74426D01*
X151620Y74404D01*
X151657Y74375D01*
X151719Y74354D01*
X151778Y74323D01*
X151832Y74315D01*
X151869Y74303D01*
X151909Y74304D01*
X151963Y74296D01*
X152837Y74296D01*
X152902Y74307D01*
X152968Y74309D01*
X153011Y74327D01*
X153058Y74335D01*
X153115Y74369D01*
X153175Y74394D01*
X153210Y74425D01*
X153251Y74450D01*
X153293Y74501D01*
X153341Y74545D01*
X153363Y74587D01*
X153392Y74624D01*
X153413Y74686D01*
X153444Y74745D01*
X153452Y74799D01*
X153464Y74836D01*
X153463Y74876D01*
X153471Y74930D01*
X153471Y74937D01*
X154513Y75979D01*
X162987Y75979D01*
X164029Y74937D01*
X164029Y74930D01*
X164040Y74865D01*
X164042Y74799D01*
X164060Y74756D01*
X164068Y74709D01*
X164102Y74652D01*
X164127Y74592D01*
X164158Y74557D01*
X164183Y74516D01*
X164234Y74475D01*
X164278Y74426D01*
X164320Y74404D01*
X164357Y74375D01*
X164419Y74354D01*
X164478Y74323D01*
X164532Y74315D01*
X164569Y74303D01*
X164609Y74304D01*
X164663Y74296D01*
X171450Y74296D01*
X171515Y74307D01*
X171581Y74309D01*
X171624Y74327D01*
X171671Y74335D01*
X171728Y74369D01*
X171788Y74394D01*
X171823Y74425D01*
X171864Y74450D01*
X171906Y74501D01*
X171954Y74545D01*
X171976Y74587D01*
X172005Y74624D01*
X172026Y74686D01*
X172057Y74745D01*
X172065Y74799D01*
X172077Y74836D01*
X172076Y74876D01*
X172084Y74930D01*
X172084Y88900D01*
X172073Y88965D01*
X172071Y89031D01*
X172053Y89074D01*
X172045Y89121D01*
X172011Y89178D01*
X171986Y89238D01*
X171955Y89273D01*
X171930Y89314D01*
X171879Y89356D01*
X171835Y89404D01*
X171793Y89426D01*
X171756Y89455D01*
X171694Y89476D01*
X171635Y89507D01*
X171581Y89515D01*
X171544Y89527D01*
X171504Y89526D01*
X171450Y89534D01*
X167623Y89534D01*
X167558Y89523D01*
X167492Y89521D01*
X167449Y89503D01*
X167402Y89495D01*
X167345Y89461D01*
X167285Y89436D01*
X167250Y89405D01*
X167209Y89380D01*
X167167Y89329D01*
X167119Y89285D01*
X167097Y89243D01*
X167068Y89206D01*
X167047Y89144D01*
X167016Y89085D01*
X167008Y89031D01*
X166996Y88994D01*
X166996Y88979D01*
X166996Y88977D01*
X166996Y88970D01*
X165947Y87921D01*
X161210Y87921D01*
X156473Y87921D01*
X155419Y88975D01*
X155418Y89031D01*
X155400Y89074D01*
X155392Y89121D01*
X155358Y89178D01*
X155333Y89238D01*
X155320Y89253D01*
X155320Y97282D01*
X155309Y97347D01*
X155307Y97413D01*
X155289Y97456D01*
X155281Y97503D01*
X155247Y97560D01*
X155222Y97620D01*
X155191Y97655D01*
X155166Y97696D01*
X155115Y97738D01*
X155071Y97786D01*
X155029Y97808D01*
X154992Y97837D01*
X154930Y97858D01*
X154871Y97889D01*
X154817Y97897D01*
X154780Y97909D01*
X154740Y97908D01*
X154686Y97916D01*
X147828Y97916D01*
X147763Y97905D01*
X147697Y97903D01*
X147654Y97885D01*
X147607Y97877D01*
X147550Y97843D01*
X147490Y97818D01*
X147455Y97787D01*
X147414Y97762D01*
X147373Y97711D01*
X147324Y97667D01*
X147302Y97625D01*
X147273Y97588D01*
X147252Y97526D01*
X147221Y97467D01*
X147213Y97413D01*
X147201Y97376D01*
X147202Y97336D01*
X147194Y97282D01*
X147194Y96138D01*
X136693Y96138D01*
X136652Y96131D01*
X136609Y96133D01*
X136542Y96111D01*
X136473Y96099D01*
X136436Y96077D01*
X136396Y96064D01*
X136323Y96010D01*
X136279Y95984D01*
X136266Y95968D01*
X136245Y95952D01*
X134780Y94487D01*
X131412Y94487D01*
X129947Y95952D01*
X129912Y95977D01*
X129884Y96008D01*
X129821Y96040D01*
X129763Y96081D01*
X129722Y96091D01*
X129684Y96111D01*
X129594Y96124D01*
X129546Y96137D01*
X129525Y96134D01*
X129499Y96138D01*
X115950Y96138D01*
X115950Y101346D01*
X115939Y101411D01*
X115937Y101477D01*
X115919Y101520D01*
X115911Y101567D01*
X115877Y101624D01*
X115852Y101684D01*
X115821Y101719D01*
X115796Y101760D01*
X115745Y101802D01*
X115701Y101850D01*
X115659Y101872D01*
X115622Y101901D01*
X115560Y101922D01*
X115501Y101953D01*
X115447Y101961D01*
X115410Y101973D01*
X115370Y101972D01*
X115316Y101980D01*
X105083Y101980D01*
X105018Y101969D01*
X104952Y101967D01*
X104909Y101949D01*
X104862Y101941D01*
X104805Y101907D01*
X104745Y101882D01*
X104710Y101851D01*
X104669Y101826D01*
X104627Y101775D01*
X104579Y101731D01*
X104557Y101689D01*
X104528Y101652D01*
X104507Y101590D01*
X104476Y101531D01*
X104468Y101477D01*
X104456Y101440D01*
X104457Y101400D01*
X104449Y101346D01*
X104449Y101063D01*
X103407Y100021D01*
X103124Y100021D01*
X103059Y100010D01*
X102993Y100008D01*
X102950Y99990D01*
X102903Y99982D01*
X102846Y99948D01*
X102786Y99923D01*
X102751Y99892D01*
X102710Y99867D01*
X102669Y99816D01*
X102620Y99772D01*
X102598Y99730D01*
X102569Y99693D01*
X102548Y99631D01*
X102517Y99572D01*
X102509Y99518D01*
X102497Y99481D01*
X102498Y99441D01*
X102490Y99387D01*
X102490Y74930D01*
X102501Y74865D01*
X102503Y74799D01*
X102521Y74756D01*
X102529Y74709D01*
X102563Y74652D01*
X102588Y74592D01*
X102619Y74557D01*
X102644Y74516D01*
X102695Y74475D01*
X102739Y74426D01*
X102781Y74404D01*
X102818Y74375D01*
X102880Y74354D01*
X102939Y74323D01*
X102993Y74315D01*
X103030Y74303D01*
X103070Y74304D01*
X103124Y74296D01*
X140137Y74296D01*
X140202Y74307D01*
G37*
G36*
X122493Y113931D02*
X122493Y113931D01*
X122559Y113933D01*
X122602Y113951D01*
X122649Y113959D01*
X122706Y113993D01*
X122766Y114018D01*
X122801Y114049D01*
X122842Y114074D01*
X122884Y114125D01*
X122932Y114169D01*
X122954Y114211D01*
X122983Y114248D01*
X123004Y114310D01*
X123035Y114369D01*
X123043Y114423D01*
X123055Y114460D01*
X123054Y114500D01*
X123062Y114554D01*
X123062Y123149D01*
X123046Y123236D01*
X123037Y123325D01*
X123027Y123346D01*
X123023Y123369D01*
X122977Y123446D01*
X122938Y123526D01*
X122921Y123542D01*
X122908Y123563D01*
X122839Y123619D01*
X122775Y123680D01*
X122753Y123689D01*
X122734Y123704D01*
X122650Y123733D01*
X122568Y123767D01*
X122544Y123768D01*
X122522Y123776D01*
X122433Y123773D01*
X122344Y123777D01*
X122321Y123770D01*
X122297Y123769D01*
X122215Y123736D01*
X122130Y123709D01*
X122109Y123693D01*
X122090Y123685D01*
X122052Y123651D01*
X121980Y123597D01*
X119794Y121411D01*
X116426Y121411D01*
X114045Y123792D01*
X114045Y127160D01*
X116426Y129541D01*
X119794Y129541D01*
X121980Y127355D01*
X122053Y127304D01*
X122122Y127248D01*
X122144Y127240D01*
X122164Y127227D01*
X122250Y127205D01*
X122334Y127176D01*
X122358Y127177D01*
X122381Y127171D01*
X122470Y127180D01*
X122559Y127183D01*
X122581Y127192D01*
X122604Y127194D01*
X122684Y127234D01*
X122766Y127267D01*
X122784Y127283D01*
X122805Y127294D01*
X122866Y127358D01*
X122932Y127418D01*
X122943Y127440D01*
X122959Y127457D01*
X122994Y127539D01*
X123035Y127618D01*
X123038Y127644D01*
X123047Y127663D01*
X123049Y127714D01*
X123062Y127803D01*
X123062Y140462D01*
X123051Y140527D01*
X123049Y140593D01*
X123031Y140636D01*
X123023Y140683D01*
X122989Y140740D01*
X122964Y140800D01*
X122933Y140835D01*
X122908Y140876D01*
X122857Y140918D01*
X122813Y140966D01*
X122771Y140988D01*
X122734Y141017D01*
X122672Y141038D01*
X122613Y141069D01*
X122559Y141077D01*
X122522Y141089D01*
X122482Y141088D01*
X122428Y141096D01*
X107442Y141096D01*
X107377Y141085D01*
X107311Y141083D01*
X107268Y141065D01*
X107221Y141057D01*
X107164Y141023D01*
X107104Y140998D01*
X107069Y140967D01*
X107028Y140942D01*
X106987Y140891D01*
X106938Y140847D01*
X106916Y140805D01*
X106887Y140768D01*
X106866Y140706D01*
X106835Y140647D01*
X106827Y140593D01*
X106815Y140556D01*
X106816Y140516D01*
X106808Y140462D01*
X106808Y138471D01*
X106815Y138430D01*
X106813Y138387D01*
X106835Y138320D01*
X106847Y138251D01*
X106869Y138214D01*
X106882Y138174D01*
X106936Y138101D01*
X106962Y138057D01*
X106978Y138044D01*
X106994Y138023D01*
X107951Y137066D01*
X107951Y133698D01*
X106994Y132741D01*
X106969Y132706D01*
X106938Y132678D01*
X106910Y132623D01*
X106907Y132619D01*
X106905Y132614D01*
X106865Y132557D01*
X106855Y132516D01*
X106835Y132478D01*
X106822Y132388D01*
X106810Y132340D01*
X106812Y132319D01*
X106808Y132293D01*
X106808Y127690D01*
X106815Y127649D01*
X106813Y127606D01*
X106835Y127539D01*
X106847Y127470D01*
X106869Y127433D01*
X106882Y127393D01*
X106936Y127320D01*
X106962Y127276D01*
X106978Y127263D01*
X106994Y127242D01*
X107299Y126937D01*
X107299Y117463D01*
X106994Y117158D01*
X106969Y117123D01*
X106938Y117094D01*
X106906Y117032D01*
X106865Y116974D01*
X106855Y116933D01*
X106835Y116895D01*
X106822Y116805D01*
X106810Y116757D01*
X106812Y116736D01*
X106808Y116710D01*
X106808Y114554D01*
X106819Y114489D01*
X106821Y114423D01*
X106839Y114380D01*
X106847Y114333D01*
X106881Y114276D01*
X106906Y114216D01*
X106937Y114181D01*
X106962Y114140D01*
X107013Y114099D01*
X107057Y114050D01*
X107099Y114028D01*
X107136Y113999D01*
X107198Y113978D01*
X107257Y113947D01*
X107311Y113939D01*
X107348Y113927D01*
X107388Y113928D01*
X107442Y113920D01*
X122428Y113920D01*
X122493Y113931D01*
G37*
G36*
X190565Y202577D02*
X190565Y202577D01*
X190631Y202579D01*
X190674Y202597D01*
X190721Y202605D01*
X190778Y202639D01*
X190838Y202664D01*
X190873Y202695D01*
X190914Y202720D01*
X190956Y202771D01*
X191004Y202815D01*
X191026Y202857D01*
X191055Y202894D01*
X191076Y202956D01*
X191107Y203015D01*
X191115Y203069D01*
X191127Y203106D01*
X191126Y203146D01*
X191134Y203200D01*
X191134Y215900D01*
X191123Y215965D01*
X191121Y216031D01*
X191103Y216074D01*
X191095Y216121D01*
X191061Y216178D01*
X191036Y216238D01*
X191005Y216273D01*
X190980Y216314D01*
X190929Y216356D01*
X190885Y216404D01*
X190843Y216426D01*
X190806Y216455D01*
X190744Y216476D01*
X190685Y216507D01*
X190631Y216515D01*
X190594Y216527D01*
X190554Y216526D01*
X190500Y216534D01*
X168910Y216534D01*
X168845Y216523D01*
X168779Y216521D01*
X168736Y216503D01*
X168689Y216495D01*
X168632Y216461D01*
X168572Y216436D01*
X168537Y216405D01*
X168496Y216380D01*
X168455Y216329D01*
X168406Y216285D01*
X168384Y216243D01*
X168355Y216206D01*
X168334Y216144D01*
X168303Y216085D01*
X168295Y216031D01*
X168283Y215994D01*
X168283Y215980D01*
X168283Y215979D01*
X168284Y215952D01*
X168276Y215900D01*
X168276Y203200D01*
X168287Y203135D01*
X168289Y203069D01*
X168307Y203026D01*
X168315Y202979D01*
X168349Y202922D01*
X168374Y202862D01*
X168405Y202827D01*
X168430Y202786D01*
X168481Y202745D01*
X168525Y202696D01*
X168567Y202674D01*
X168604Y202645D01*
X168666Y202624D01*
X168725Y202593D01*
X168779Y202585D01*
X168816Y202573D01*
X168856Y202574D01*
X168910Y202566D01*
X190500Y202566D01*
X190565Y202577D01*
G37*
G36*
X76690Y118126D02*
X76690Y118126D01*
X76781Y118133D01*
X76811Y118145D01*
X76843Y118151D01*
X76923Y118193D01*
X77007Y118229D01*
X77039Y118255D01*
X77060Y118266D01*
X77082Y118289D01*
X77138Y118334D01*
X77533Y118729D01*
X87007Y118729D01*
X87402Y118334D01*
X87476Y118281D01*
X87545Y118221D01*
X87575Y118209D01*
X87602Y118190D01*
X87688Y118163D01*
X87773Y118129D01*
X87814Y118125D01*
X87837Y118118D01*
X87869Y118119D01*
X87940Y118111D01*
X89916Y118111D01*
X89936Y118114D01*
X89955Y118112D01*
X90057Y118134D01*
X90159Y118151D01*
X90176Y118160D01*
X90196Y118164D01*
X90285Y118217D01*
X90376Y118266D01*
X90390Y118280D01*
X90407Y118290D01*
X90474Y118369D01*
X90546Y118444D01*
X90554Y118462D01*
X90567Y118477D01*
X90606Y118573D01*
X90649Y118667D01*
X90651Y118687D01*
X90659Y118705D01*
X90677Y118872D01*
X90677Y127795D01*
X90663Y127885D01*
X90655Y127976D01*
X90643Y128006D01*
X90638Y128038D01*
X90595Y128118D01*
X90559Y128202D01*
X90533Y128235D01*
X90522Y128255D01*
X90499Y128277D01*
X90454Y128333D01*
X89407Y129380D01*
X89407Y132748D01*
X90454Y133795D01*
X90507Y133869D01*
X90567Y133938D01*
X90579Y133968D01*
X90598Y133994D01*
X90625Y134081D01*
X90659Y134166D01*
X90663Y134207D01*
X90670Y134229D01*
X90669Y134262D01*
X90677Y134333D01*
X90677Y136144D01*
X90674Y136164D01*
X90676Y136183D01*
X90654Y136285D01*
X90638Y136387D01*
X90628Y136404D01*
X90624Y136424D01*
X90571Y136513D01*
X90522Y136604D01*
X90508Y136618D01*
X90498Y136635D01*
X90419Y136702D01*
X90344Y136774D01*
X90326Y136782D01*
X90311Y136795D01*
X90215Y136834D01*
X90121Y136877D01*
X90101Y136879D01*
X90083Y136887D01*
X89916Y136905D01*
X75438Y136905D01*
X75418Y136902D01*
X75399Y136904D01*
X75297Y136882D01*
X75195Y136866D01*
X75178Y136856D01*
X75158Y136852D01*
X75069Y136799D01*
X74978Y136750D01*
X74964Y136736D01*
X74947Y136726D01*
X74880Y136647D01*
X74809Y136572D01*
X74800Y136554D01*
X74787Y136539D01*
X74748Y136443D01*
X74705Y136349D01*
X74703Y136329D01*
X74695Y136311D01*
X74677Y136144D01*
X74677Y118872D01*
X74680Y118852D01*
X74678Y118833D01*
X74700Y118731D01*
X74717Y118629D01*
X74726Y118612D01*
X74730Y118592D01*
X74783Y118503D01*
X74832Y118412D01*
X74846Y118398D01*
X74856Y118381D01*
X74935Y118314D01*
X75010Y118243D01*
X75028Y118234D01*
X75043Y118221D01*
X75139Y118182D01*
X75233Y118139D01*
X75253Y118137D01*
X75271Y118129D01*
X75438Y118111D01*
X76600Y118111D01*
X76690Y118126D01*
G37*
G36*
X89682Y78744D02*
X89682Y78744D01*
X89701Y78742D01*
X89803Y78764D01*
X89905Y78781D01*
X89922Y78790D01*
X89942Y78794D01*
X90031Y78847D01*
X90122Y78896D01*
X90136Y78910D01*
X90153Y78920D01*
X90220Y78999D01*
X90292Y79074D01*
X90300Y79092D01*
X90313Y79107D01*
X90352Y79203D01*
X90395Y79297D01*
X90397Y79317D01*
X90405Y79335D01*
X90423Y79502D01*
X90423Y97028D01*
X90421Y97041D01*
X90422Y97050D01*
X90421Y97056D01*
X90422Y97067D01*
X90400Y97169D01*
X90384Y97271D01*
X90374Y97288D01*
X90370Y97308D01*
X90317Y97397D01*
X90268Y97488D01*
X90254Y97502D01*
X90244Y97519D01*
X90165Y97586D01*
X90090Y97658D01*
X90072Y97666D01*
X90057Y97679D01*
X89961Y97718D01*
X89867Y97761D01*
X89847Y97763D01*
X89829Y97771D01*
X89662Y97789D01*
X87940Y97789D01*
X87850Y97775D01*
X87759Y97767D01*
X87729Y97755D01*
X87697Y97750D01*
X87617Y97707D01*
X87533Y97671D01*
X87501Y97645D01*
X87480Y97634D01*
X87464Y97618D01*
X87463Y97617D01*
X87454Y97608D01*
X87402Y97566D01*
X87007Y97171D01*
X77533Y97171D01*
X77138Y97566D01*
X77064Y97620D01*
X76995Y97679D01*
X76965Y97691D01*
X76938Y97710D01*
X76851Y97737D01*
X76767Y97771D01*
X76726Y97775D01*
X76703Y97782D01*
X76671Y97781D01*
X76600Y97789D01*
X76200Y97789D01*
X76180Y97786D01*
X76161Y97788D01*
X76059Y97766D01*
X75957Y97750D01*
X75940Y97740D01*
X75920Y97736D01*
X75831Y97683D01*
X75740Y97634D01*
X75726Y97620D01*
X75709Y97610D01*
X75642Y97531D01*
X75571Y97456D01*
X75562Y97438D01*
X75549Y97423D01*
X75510Y97327D01*
X75467Y97233D01*
X75465Y97213D01*
X75457Y97195D01*
X75439Y97028D01*
X75439Y79514D01*
X75450Y79443D01*
X75452Y79372D01*
X75470Y79323D01*
X75479Y79271D01*
X75512Y79208D01*
X75537Y79141D01*
X75569Y79100D01*
X75594Y79054D01*
X75646Y79005D01*
X75690Y78949D01*
X75734Y78920D01*
X75772Y78885D01*
X75837Y78854D01*
X75897Y78816D01*
X75948Y78803D01*
X75995Y78781D01*
X76066Y78773D01*
X76136Y78756D01*
X76188Y78760D01*
X76239Y78754D01*
X76310Y78769D01*
X76381Y78775D01*
X76429Y78795D01*
X76480Y78806D01*
X76541Y78843D01*
X76607Y78871D01*
X76663Y78916D01*
X76691Y78932D01*
X76706Y78950D01*
X76738Y78976D01*
X76789Y79027D01*
X85263Y79027D01*
X85326Y78964D01*
X85400Y78911D01*
X85469Y78851D01*
X85499Y78839D01*
X85526Y78820D01*
X85612Y78793D01*
X85697Y78759D01*
X85738Y78755D01*
X85761Y78748D01*
X85793Y78749D01*
X85864Y78741D01*
X89662Y78741D01*
X89682Y78744D01*
G37*
G36*
X95882Y115894D02*
X95882Y115894D01*
X95971Y115904D01*
X95992Y115914D01*
X96015Y115918D01*
X96092Y115964D01*
X96172Y116003D01*
X96188Y116020D01*
X96209Y116033D01*
X96265Y116102D01*
X96326Y116166D01*
X96335Y116188D01*
X96350Y116207D01*
X96378Y116291D01*
X96413Y116373D01*
X96414Y116397D01*
X96422Y116419D01*
X96419Y116508D01*
X96423Y116597D01*
X96416Y116620D01*
X96415Y116644D01*
X96382Y116726D01*
X96355Y116811D01*
X96339Y116832D01*
X96331Y116851D01*
X96297Y116889D01*
X96243Y116961D01*
X95741Y117463D01*
X95741Y126937D01*
X95785Y126981D01*
X95810Y127016D01*
X95841Y127045D01*
X95873Y127107D01*
X95914Y127165D01*
X95924Y127206D01*
X95944Y127244D01*
X95957Y127334D01*
X95970Y127383D01*
X95967Y127403D01*
X95971Y127430D01*
X95971Y131610D01*
X95964Y131652D01*
X95966Y131695D01*
X95944Y131762D01*
X95932Y131831D01*
X95910Y131868D01*
X95897Y131908D01*
X95843Y131981D01*
X95817Y132024D01*
X95801Y132038D01*
X95786Y132059D01*
X93539Y134305D01*
X93510Y134325D01*
X93500Y134336D01*
X93479Y134347D01*
X93466Y134356D01*
X93397Y134412D01*
X93375Y134420D01*
X93355Y134433D01*
X93269Y134455D01*
X93185Y134484D01*
X93161Y134483D01*
X93138Y134489D01*
X93049Y134480D01*
X92960Y134477D01*
X92938Y134468D01*
X92915Y134466D01*
X92835Y134426D01*
X92753Y134393D01*
X92735Y134377D01*
X92714Y134366D01*
X92653Y134302D01*
X92587Y134241D01*
X92576Y134220D01*
X92560Y134203D01*
X92525Y134121D01*
X92484Y134042D01*
X92481Y134016D01*
X92472Y133996D01*
X92470Y133946D01*
X92470Y133944D01*
X92464Y133926D01*
X92464Y133907D01*
X92457Y133857D01*
X92457Y117809D01*
X92429Y117784D01*
X92397Y117721D01*
X92356Y117663D01*
X92346Y117622D01*
X92326Y117584D01*
X92313Y117495D01*
X92307Y117472D01*
X91797Y116961D01*
X91746Y116888D01*
X91690Y116819D01*
X91682Y116797D01*
X91669Y116777D01*
X91647Y116691D01*
X91618Y116607D01*
X91619Y116583D01*
X91613Y116560D01*
X91622Y116471D01*
X91625Y116382D01*
X91634Y116360D01*
X91636Y116337D01*
X91676Y116257D01*
X91709Y116175D01*
X91725Y116157D01*
X91736Y116136D01*
X91801Y116075D01*
X91860Y116009D01*
X91882Y115998D01*
X91899Y115982D01*
X91981Y115947D01*
X92060Y115906D01*
X92086Y115903D01*
X92105Y115894D01*
X92156Y115892D01*
X92245Y115879D01*
X95795Y115879D01*
X95882Y115894D01*
G37*
G36*
X50039Y104268D02*
X50039Y104268D01*
X50040Y104268D01*
X50084Y104287D01*
X50129Y104306D01*
X50129Y104307D01*
X50130Y104308D01*
X50147Y104353D01*
X50164Y104398D01*
X50164Y104399D01*
X50164Y104400D01*
X50127Y104483D01*
X47079Y107531D01*
X47076Y107533D01*
X47075Y107535D01*
X46990Y107568D01*
X46482Y107568D01*
X46480Y107567D01*
X46478Y107568D01*
X46435Y107548D01*
X46391Y107530D01*
X46391Y107528D01*
X46389Y107527D01*
X46356Y107442D01*
X46356Y104394D01*
X46357Y104392D01*
X46356Y104390D01*
X46376Y104347D01*
X46394Y104303D01*
X46396Y104303D01*
X46397Y104301D01*
X46482Y104268D01*
X50038Y104268D01*
X50039Y104268D01*
G37*
G36*
X246890Y154053D02*
X246890Y154053D01*
X246892Y154052D01*
X246935Y154072D01*
X246979Y154090D01*
X246979Y154092D01*
X246981Y154093D01*
X247014Y154178D01*
X247014Y157226D01*
X247013Y157228D01*
X247014Y157230D01*
X246994Y157273D01*
X246976Y157317D01*
X246974Y157317D01*
X246973Y157319D01*
X246888Y157352D01*
X243332Y157352D01*
X243331Y157352D01*
X243330Y157352D01*
X243286Y157333D01*
X243241Y157314D01*
X243241Y157313D01*
X243240Y157312D01*
X243223Y157267D01*
X243206Y157222D01*
X243206Y157221D01*
X243206Y157220D01*
X243243Y157137D01*
X246291Y154089D01*
X246294Y154088D01*
X246295Y154085D01*
X246380Y154052D01*
X246888Y154052D01*
X246890Y154053D01*
G37*
G36*
X246890Y52453D02*
X246890Y52453D01*
X246892Y52452D01*
X246935Y52472D01*
X246979Y52490D01*
X246979Y52492D01*
X246981Y52493D01*
X247014Y52578D01*
X247014Y55626D01*
X247013Y55628D01*
X247014Y55630D01*
X246994Y55673D01*
X246976Y55717D01*
X246974Y55717D01*
X246973Y55719D01*
X246888Y55752D01*
X243332Y55752D01*
X243331Y55752D01*
X243330Y55752D01*
X243286Y55733D01*
X243241Y55714D01*
X243241Y55713D01*
X243240Y55712D01*
X243223Y55667D01*
X243206Y55622D01*
X243206Y55621D01*
X243206Y55620D01*
X243243Y55537D01*
X246291Y52489D01*
X246294Y52488D01*
X246295Y52485D01*
X246380Y52452D01*
X246888Y52452D01*
X246890Y52453D01*
G37*
G36*
X246890Y160149D02*
X246890Y160149D01*
X246892Y160148D01*
X246935Y160168D01*
X246979Y160186D01*
X246979Y160188D01*
X246981Y160189D01*
X247014Y160274D01*
X247014Y163322D01*
X247013Y163324D01*
X247014Y163326D01*
X246994Y163369D01*
X246976Y163413D01*
X246974Y163413D01*
X246973Y163415D01*
X246888Y163448D01*
X246380Y163448D01*
X246377Y163447D01*
X246374Y163448D01*
X246291Y163411D01*
X243243Y160363D01*
X243242Y160362D01*
X243241Y160362D01*
X243224Y160316D01*
X243206Y160272D01*
X243206Y160271D01*
X243206Y160270D01*
X243226Y160226D01*
X243246Y160182D01*
X243247Y160182D01*
X243247Y160181D01*
X243332Y160148D01*
X246888Y160148D01*
X246890Y160149D01*
G37*
G36*
X46993Y98173D02*
X46993Y98173D01*
X46996Y98172D01*
X47079Y98209D01*
X50127Y101257D01*
X50128Y101258D01*
X50129Y101258D01*
X50146Y101304D01*
X50164Y101348D01*
X50164Y101349D01*
X50164Y101350D01*
X50144Y101394D01*
X50124Y101438D01*
X50123Y101438D01*
X50123Y101439D01*
X50038Y101472D01*
X46482Y101472D01*
X46480Y101471D01*
X46478Y101472D01*
X46435Y101452D01*
X46391Y101434D01*
X46391Y101432D01*
X46389Y101431D01*
X46356Y101346D01*
X46356Y98298D01*
X46357Y98296D01*
X46356Y98294D01*
X46376Y98251D01*
X46394Y98207D01*
X46396Y98207D01*
X46397Y98205D01*
X46482Y98172D01*
X46990Y98172D01*
X46993Y98173D01*
G37*
G36*
X246890Y58549D02*
X246890Y58549D01*
X246892Y58548D01*
X246935Y58568D01*
X246979Y58586D01*
X246979Y58588D01*
X246981Y58589D01*
X247014Y58674D01*
X247014Y61722D01*
X247013Y61724D01*
X247014Y61726D01*
X246994Y61769D01*
X246976Y61813D01*
X246974Y61813D01*
X246973Y61815D01*
X246888Y61848D01*
X246380Y61848D01*
X246377Y61847D01*
X246374Y61848D01*
X246291Y61811D01*
X243243Y58763D01*
X243242Y58762D01*
X243241Y58762D01*
X243224Y58716D01*
X243206Y58672D01*
X243206Y58671D01*
X243206Y58670D01*
X243226Y58626D01*
X243246Y58582D01*
X243247Y58582D01*
X243247Y58581D01*
X243332Y58548D01*
X246888Y58548D01*
X246890Y58549D01*
G37*
D10*
X47110Y160020D03*
X62110Y160020D03*
D11*
X220900Y101600D03*
X210900Y101600D03*
D10*
X225940Y87630D03*
X210940Y87630D03*
D12*
X120650Y175000D03*
X120650Y206000D03*
D10*
X158750Y172600D03*
X158750Y157600D03*
D11*
X227250Y158750D03*
X217250Y158750D03*
X227250Y57150D03*
X217250Y57150D03*
X195500Y125730D03*
X185500Y125730D03*
X195500Y101600D03*
X185500Y101600D03*
D13*
X77100Y196850D03*
X62600Y196850D03*
X62600Y177800D03*
X77100Y177800D03*
X184150Y210450D03*
X184150Y195950D03*
X203200Y195950D03*
X203200Y210450D03*
D14*
X156210Y107950D03*
D15*
X141960Y110450D03*
X141960Y105450D03*
X141960Y115450D03*
X141960Y100450D03*
X170460Y110450D03*
X170460Y105450D03*
X170460Y115450D03*
X170460Y100450D03*
D16*
X153710Y122200D03*
X158710Y122200D03*
X148710Y122200D03*
X163710Y122200D03*
X153710Y93700D03*
X158710Y93700D03*
X148710Y93700D03*
X163710Y93700D03*
D17*
X146050Y234950D03*
X171450Y234950D03*
X120650Y234950D03*
D18*
X264160Y191770D03*
X264160Y125730D03*
D19*
X269240Y158750D03*
D20*
X241300Y158750D03*
D21*
X281940Y143510D03*
X281940Y173990D03*
X241300Y146050D03*
X241300Y171450D03*
X281940Y196850D03*
X245110Y196850D03*
X281940Y120650D03*
X245110Y120650D03*
X264160Y120650D03*
X262890Y196850D03*
X262890Y173990D03*
X262890Y143510D03*
D18*
X264160Y90170D03*
X264160Y24130D03*
D19*
X269240Y57150D03*
D20*
X241300Y57150D03*
D21*
X281940Y41910D03*
X281940Y72390D03*
X241300Y44450D03*
X241300Y69850D03*
X281940Y95250D03*
X245110Y95250D03*
X281940Y19050D03*
X245110Y19050D03*
X264160Y19050D03*
X262890Y95250D03*
X262890Y72390D03*
X262890Y41910D03*
D11*
X195500Y114300D03*
X185500Y114300D03*
X195500Y90170D03*
X185500Y90170D03*
D18*
X29210Y69850D03*
X29210Y135890D03*
D19*
X24130Y102870D03*
D20*
X52070Y102870D03*
D21*
X11430Y118110D03*
X11430Y87630D03*
X52070Y115570D03*
X52070Y90170D03*
X11430Y64770D03*
X48260Y64770D03*
X11430Y140970D03*
X48260Y140970D03*
X29210Y140970D03*
X30480Y64770D03*
X30480Y87630D03*
X30480Y118110D03*
D11*
X220900Y114300D03*
X210900Y114300D03*
D10*
X225940Y128270D03*
X210940Y128270D03*
X62350Y215900D03*
X77350Y215900D03*
D22*
X158750Y71200D03*
X158750Y81200D03*
X79756Y142922D03*
X79756Y132922D03*
D10*
X115062Y149486D03*
X115062Y134486D03*
D22*
X146050Y71200D03*
X146050Y81200D03*
D10*
X132080Y66160D03*
X132080Y81160D03*
X116840Y66160D03*
X116840Y81160D03*
D15*
X82270Y110450D03*
X82270Y115450D03*
X82270Y105450D03*
X82270Y100450D03*
X110770Y110450D03*
X110770Y115450D03*
X110770Y105450D03*
X110770Y100450D03*
D16*
X94020Y122200D03*
X89020Y122200D03*
X99020Y122200D03*
X104020Y122200D03*
X94020Y93700D03*
X89020Y93700D03*
X99020Y93700D03*
X104020Y93700D03*
D14*
X96520Y107950D03*
D13*
X94234Y147436D03*
X94234Y161936D03*
X94234Y58812D03*
X94234Y44312D03*
D22*
X81026Y74248D03*
X81026Y84248D03*
D23*
X228600Y139700D03*
X228600Y76200D03*
X222250Y76200D03*
X222250Y139700D03*
X234950Y124460D03*
X229870Y114300D03*
X229870Y101600D03*
X234950Y91440D03*
X234950Y133350D03*
X234950Y82550D03*
X53340Y219710D03*
X53340Y212090D03*
X87630Y181610D03*
X87630Y173990D03*
X38100Y156210D03*
X38100Y163830D03*
X107188Y149606D03*
X122936Y149606D03*
X114808Y157226D03*
X118110Y125476D03*
X80010Y151638D03*
X83820Y43942D03*
X93726Y34290D03*
X104140Y43942D03*
X228600Y167640D03*
X215900Y167640D03*
X203200Y167640D03*
X228600Y149860D03*
X215900Y149860D03*
X203200Y149860D03*
X191770Y146050D03*
X185420Y134620D03*
X170180Y123190D03*
X140970Y123190D03*
X170180Y93980D03*
X152400Y111760D03*
X160020Y111760D03*
X152400Y104140D03*
X160020Y104140D03*
X106680Y66040D03*
X113030Y57150D03*
X120650Y57150D03*
X128270Y57150D03*
X135890Y57150D03*
X146050Y62230D03*
X158750Y62230D03*
X168910Y68580D03*
X105410Y181102D03*
X105410Y171704D03*
X115570Y165100D03*
X125984Y165100D03*
X135382Y171450D03*
X135636Y182118D03*
X191770Y166370D03*
X179070Y158750D03*
X171450Y147320D03*
X163830Y131826D03*
X228600Y67310D03*
X215900Y67310D03*
X203200Y67310D03*
X193040Y69850D03*
X185420Y77470D03*
X173990Y63500D03*
X228600Y46990D03*
X215900Y46990D03*
X203200Y46990D03*
X191770Y49530D03*
X181610Y54610D03*
X12700Y12700D03*
X12700Y38100D03*
X38100Y12700D03*
X63500Y12700D03*
X88900Y12700D03*
X114300Y12700D03*
X139700Y12700D03*
X165100Y12700D03*
X190500Y12700D03*
X215900Y12700D03*
X12700Y247650D03*
X12700Y222250D03*
X12700Y196850D03*
X12700Y171450D03*
X38100Y247650D03*
X63500Y247650D03*
X88900Y247650D03*
X279400Y247650D03*
X279400Y222250D03*
X254000Y247650D03*
X228600Y247650D03*
X203200Y247650D03*
X177800Y247650D03*
X165100Y247650D03*
X165100Y222250D03*
X177800Y222250D03*
X184150Y241300D03*
X184150Y228600D03*
X196850Y222250D03*
X209550Y222250D03*
X215900Y209550D03*
X158750Y183388D03*
X165354Y183134D03*
X152400Y183134D03*
X93472Y131064D03*
X103886Y135382D03*
X71120Y142748D03*
X82804Y65532D03*
X72898Y74168D03*
X77470Y65786D03*
X84074Y162052D03*
X103632Y161798D03*
X133096Y98552D03*
X133096Y117348D03*
X193040Y134620D03*
X193040Y81280D03*
X200660Y134620D03*
X200660Y81280D03*
X203200Y120650D03*
X203200Y107950D03*
X203200Y95250D03*
X209550Y137160D03*
X209550Y78740D03*
X88900Y219710D03*
X88900Y193040D03*
X88900Y210820D03*
X88900Y201930D03*
X77470Y122174D03*
X83058Y122174D03*
X119126Y118110D03*
X111252Y125476D03*
X143336Y89742D03*
X106760Y85170D03*
X106760Y77550D03*
X167720Y83900D03*
X167720Y76280D03*
X135462Y89996D03*
X114300Y219710D03*
X120650Y219710D03*
X127000Y219710D03*
X101600Y245110D03*
X101600Y238760D03*
X101600Y232410D03*
X101600Y226060D03*
X101600Y213360D03*
X101600Y207010D03*
X101600Y200660D03*
X171450Y213360D03*
X171450Y207010D03*
X83566Y93726D03*
X77978Y93726D03*
X114126Y89996D03*
X120476Y89996D03*
X128858Y89996D03*
D24*
X62600Y177800D02*
X62600Y196850D01*
X62600Y177800D02*
X62600Y160510D01*
X62110Y160020D01*
X62110Y121532D01*
D25*
X73192Y110450D02*
X82270Y110450D01*
D24*
X73192Y110450D02*
X62110Y121532D01*
D26*
X148710Y122200D02*
X148710Y149740D01*
X146050Y152400D01*
X146050Y234950D01*
X153710Y141010D02*
X153710Y122200D01*
X153710Y141010D02*
X158750Y146050D01*
X158750Y157600D01*
X184150Y195950D02*
X203200Y195950D01*
X163950Y157600D02*
X158750Y157600D01*
X163950Y157600D02*
X184150Y177800D01*
X184150Y195950D01*
D24*
X177800Y133350D02*
X177800Y125730D01*
X177800Y133350D02*
X177807Y133964D01*
X177830Y134577D01*
X177867Y135190D01*
X177919Y135801D01*
X177985Y136412D01*
X178067Y137020D01*
X178163Y137626D01*
X178273Y138230D01*
X178398Y138831D01*
X178538Y139429D01*
X178692Y140023D01*
X178861Y140613D01*
X179043Y141199D01*
X179240Y141780D01*
X179451Y142357D01*
X179675Y142928D01*
X179913Y143494D01*
X180165Y144054D01*
X180431Y144607D01*
X180709Y145154D01*
X181001Y145694D01*
X181306Y146227D01*
X181624Y146752D01*
X181954Y147270D01*
X182296Y147779D01*
X182651Y148280D01*
X183018Y148772D01*
X183396Y149255D01*
X183786Y149729D01*
X184188Y150193D01*
X184600Y150648D01*
X185024Y151092D01*
X185458Y151526D01*
X185902Y151950D01*
X186357Y152362D01*
X186821Y152764D01*
X187295Y153154D01*
X187778Y153532D01*
X188270Y153899D01*
X188771Y154254D01*
X189280Y154596D01*
X189798Y154926D01*
X190323Y155244D01*
X190856Y155549D01*
X191396Y155841D01*
X191943Y156119D01*
X192496Y156385D01*
X193056Y156637D01*
X193622Y156875D01*
X194193Y157099D01*
X194770Y157310D01*
X195351Y157507D01*
X195937Y157689D01*
X196527Y157858D01*
X197121Y158012D01*
X197719Y158152D01*
X198320Y158277D01*
X198924Y158387D01*
X199530Y158483D01*
X200138Y158565D01*
X200749Y158631D01*
X201360Y158683D01*
X201973Y158720D01*
X202586Y158743D01*
X203200Y158750D01*
X217250Y158750D01*
X185500Y125730D02*
X177800Y125730D01*
D26*
X177800Y115450D02*
X170460Y115450D01*
D24*
X177800Y115450D02*
X177800Y125730D01*
D26*
X177800Y110450D02*
X170460Y110450D01*
X177800Y110450D02*
X177800Y114300D01*
X177800Y115450D01*
X177800Y114300D02*
X185500Y114300D01*
D24*
X177800Y100450D02*
X177800Y90170D01*
X177800Y82550D01*
X177807Y81936D01*
X177830Y81323D01*
X177867Y80710D01*
X177919Y80099D01*
X177985Y79488D01*
X178067Y78880D01*
X178163Y78274D01*
X178273Y77670D01*
X178398Y77069D01*
X178538Y76471D01*
X178692Y75877D01*
X178861Y75287D01*
X179043Y74701D01*
X179240Y74120D01*
X179451Y73543D01*
X179675Y72972D01*
X179913Y72406D01*
X180165Y71846D01*
X180431Y71293D01*
X180709Y70746D01*
X181001Y70206D01*
X181306Y69673D01*
X181624Y69148D01*
X181954Y68630D01*
X182296Y68121D01*
X182651Y67620D01*
X183018Y67128D01*
X183396Y66645D01*
X183786Y66171D01*
X184188Y65707D01*
X184600Y65252D01*
X185024Y64808D01*
X185458Y64374D01*
X185902Y63950D01*
X186357Y63538D01*
X186821Y63136D01*
X187295Y62746D01*
X187778Y62368D01*
X188270Y62001D01*
X188771Y61646D01*
X189280Y61304D01*
X189798Y60974D01*
X190323Y60656D01*
X190856Y60351D01*
X191396Y60059D01*
X191943Y59781D01*
X192496Y59515D01*
X193056Y59263D01*
X193622Y59025D01*
X194193Y58801D01*
X194770Y58590D01*
X195351Y58393D01*
X195937Y58211D01*
X196527Y58042D01*
X197121Y57888D01*
X197719Y57748D01*
X198320Y57623D01*
X198924Y57513D01*
X199530Y57417D01*
X200138Y57335D01*
X200749Y57269D01*
X201360Y57217D01*
X201973Y57180D01*
X202586Y57157D01*
X203200Y57150D01*
X217250Y57150D01*
X185500Y90170D02*
X177800Y90170D01*
D26*
X177800Y105450D02*
X170460Y105450D01*
X170460Y100450D02*
X177800Y100450D01*
X177800Y105450D01*
X178950Y101600D02*
X185500Y101600D01*
X178950Y101600D02*
X178883Y101598D01*
X178816Y101592D01*
X178750Y101583D01*
X178685Y101569D01*
X178620Y101552D01*
X178557Y101531D01*
X178495Y101506D01*
X178434Y101478D01*
X178375Y101446D01*
X178318Y101411D01*
X178263Y101372D01*
X178211Y101331D01*
X178161Y101286D01*
X178114Y101239D01*
X178069Y101189D01*
X178028Y101137D01*
X177989Y101082D01*
X177954Y101025D01*
X177922Y100966D01*
X177894Y100905D01*
X177869Y100843D01*
X177848Y100780D01*
X177831Y100715D01*
X177817Y100650D01*
X177808Y100584D01*
X177802Y100517D01*
X177800Y100450D01*
D24*
X227250Y158750D02*
X241300Y158750D01*
X241300Y57150D02*
X227250Y57150D01*
D25*
X141960Y110450D02*
X110770Y110450D01*
X110770Y105450D02*
X141960Y105450D01*
D26*
X99020Y122200D02*
X99020Y133136D01*
X94234Y137922D01*
X94234Y147436D01*
X94020Y93700D02*
X94020Y58812D01*
D27*
X94234Y58812D01*
D24*
X62992Y102870D02*
X52070Y102870D01*
D25*
X65572Y105450D02*
X82270Y105450D01*
D24*
X65572Y105450D02*
X62992Y102870D01*
M02*
