G04 EAGLE Gerber RS-274X export*
G75*
%MOMM*%
%FSLAX34Y34*%
%LPD*%
%INTop Silkscreen *%
%IPPOS*%
%AMOC8*
5,1,8,0,0,1.08239X$1,22.5*%
G01*
%ADD10C,0.177800*%
%ADD11C,0.127000*%


D10*
X102489Y264414D02*
X113411Y268055D01*
X102489Y271695D01*
X113411Y278134D02*
X113411Y280561D01*
X113411Y278134D02*
X113409Y278050D01*
X113403Y277966D01*
X113394Y277883D01*
X113380Y277800D01*
X113363Y277717D01*
X113342Y277636D01*
X113317Y277556D01*
X113288Y277477D01*
X113256Y277399D01*
X113220Y277323D01*
X113181Y277248D01*
X113138Y277176D01*
X113092Y277105D01*
X113043Y277037D01*
X112991Y276971D01*
X112936Y276908D01*
X112878Y276847D01*
X112817Y276789D01*
X112754Y276734D01*
X112688Y276682D01*
X112620Y276633D01*
X112549Y276587D01*
X112477Y276544D01*
X112402Y276505D01*
X112326Y276469D01*
X112248Y276437D01*
X112169Y276408D01*
X112089Y276383D01*
X112008Y276362D01*
X111925Y276345D01*
X111842Y276331D01*
X111759Y276322D01*
X111675Y276316D01*
X111591Y276314D01*
X107950Y276314D01*
X107866Y276316D01*
X107782Y276322D01*
X107699Y276331D01*
X107616Y276345D01*
X107533Y276362D01*
X107452Y276383D01*
X107372Y276408D01*
X107293Y276437D01*
X107215Y276469D01*
X107139Y276505D01*
X107064Y276544D01*
X106992Y276587D01*
X106921Y276633D01*
X106853Y276682D01*
X106787Y276734D01*
X106724Y276789D01*
X106663Y276847D01*
X106605Y276908D01*
X106550Y276971D01*
X106498Y277037D01*
X106449Y277105D01*
X106403Y277176D01*
X106360Y277248D01*
X106321Y277323D01*
X106285Y277399D01*
X106253Y277477D01*
X106224Y277556D01*
X106199Y277636D01*
X106178Y277717D01*
X106161Y277800D01*
X106147Y277883D01*
X106138Y277966D01*
X106132Y278050D01*
X106130Y278134D01*
X106130Y280561D01*
X113411Y286897D02*
X113411Y289324D01*
X113411Y286897D02*
X113409Y286813D01*
X113403Y286729D01*
X113394Y286646D01*
X113380Y286563D01*
X113363Y286480D01*
X113342Y286399D01*
X113317Y286319D01*
X113288Y286240D01*
X113256Y286162D01*
X113220Y286086D01*
X113181Y286011D01*
X113138Y285939D01*
X113092Y285868D01*
X113043Y285800D01*
X112991Y285734D01*
X112936Y285671D01*
X112878Y285610D01*
X112817Y285552D01*
X112754Y285497D01*
X112688Y285445D01*
X112620Y285396D01*
X112549Y285350D01*
X112477Y285307D01*
X112402Y285268D01*
X112326Y285232D01*
X112248Y285200D01*
X112169Y285171D01*
X112089Y285146D01*
X112008Y285125D01*
X111925Y285108D01*
X111842Y285094D01*
X111759Y285085D01*
X111675Y285079D01*
X111591Y285077D01*
X107950Y285077D01*
X107866Y285079D01*
X107782Y285085D01*
X107699Y285094D01*
X107616Y285108D01*
X107533Y285125D01*
X107452Y285146D01*
X107372Y285171D01*
X107293Y285200D01*
X107215Y285232D01*
X107139Y285268D01*
X107064Y285307D01*
X106992Y285350D01*
X106921Y285396D01*
X106853Y285445D01*
X106787Y285497D01*
X106724Y285552D01*
X106663Y285610D01*
X106605Y285671D01*
X106550Y285734D01*
X106498Y285800D01*
X106449Y285868D01*
X106403Y285939D01*
X106360Y286011D01*
X106321Y286086D01*
X106285Y286162D01*
X106253Y286240D01*
X106224Y286319D01*
X106199Y286399D01*
X106178Y286480D01*
X106161Y286563D01*
X106147Y286646D01*
X106138Y286729D01*
X106132Y286813D01*
X106130Y286897D01*
X106130Y289324D01*
X31143Y267307D02*
X31143Y265486D01*
X31143Y267307D02*
X37211Y267307D01*
X37211Y263666D01*
X37209Y263568D01*
X37203Y263471D01*
X37193Y263373D01*
X37180Y263277D01*
X37162Y263181D01*
X37140Y263085D01*
X37115Y262991D01*
X37086Y262897D01*
X37053Y262805D01*
X37017Y262715D01*
X36977Y262626D01*
X36933Y262538D01*
X36886Y262453D01*
X36835Y262369D01*
X36781Y262287D01*
X36724Y262208D01*
X36664Y262131D01*
X36601Y262057D01*
X36534Y261985D01*
X36465Y261916D01*
X36393Y261849D01*
X36319Y261786D01*
X36242Y261726D01*
X36163Y261669D01*
X36081Y261615D01*
X35998Y261564D01*
X35912Y261517D01*
X35824Y261473D01*
X35735Y261433D01*
X35645Y261397D01*
X35553Y261364D01*
X35459Y261335D01*
X35365Y261310D01*
X35269Y261288D01*
X35173Y261270D01*
X35077Y261257D01*
X34979Y261247D01*
X34882Y261241D01*
X34784Y261239D01*
X28716Y261239D01*
X28618Y261241D01*
X28521Y261247D01*
X28423Y261257D01*
X28327Y261270D01*
X28231Y261288D01*
X28135Y261310D01*
X28041Y261335D01*
X27947Y261364D01*
X27855Y261397D01*
X27765Y261433D01*
X27676Y261473D01*
X27588Y261517D01*
X27503Y261564D01*
X27419Y261615D01*
X27337Y261669D01*
X27258Y261726D01*
X27181Y261786D01*
X27107Y261849D01*
X27035Y261916D01*
X26966Y261985D01*
X26899Y262057D01*
X26836Y262131D01*
X26776Y262208D01*
X26719Y262287D01*
X26665Y262369D01*
X26614Y262452D01*
X26567Y262538D01*
X26523Y262626D01*
X26483Y262715D01*
X26447Y262805D01*
X26414Y262897D01*
X26385Y262991D01*
X26360Y263085D01*
X26338Y263181D01*
X26320Y263277D01*
X26307Y263373D01*
X26297Y263471D01*
X26291Y263568D01*
X26289Y263666D01*
X26289Y267307D01*
X26289Y273431D02*
X37211Y273431D01*
X37211Y279499D02*
X26289Y273431D01*
X26289Y279499D02*
X37211Y279499D01*
X37211Y285623D02*
X26289Y285623D01*
X26289Y288657D01*
X26291Y288765D01*
X26297Y288873D01*
X26306Y288981D01*
X26320Y289089D01*
X26337Y289196D01*
X26358Y289302D01*
X26383Y289407D01*
X26412Y289512D01*
X26444Y289615D01*
X26480Y289717D01*
X26520Y289818D01*
X26563Y289917D01*
X26610Y290015D01*
X26660Y290111D01*
X26714Y290205D01*
X26771Y290297D01*
X26831Y290387D01*
X26894Y290475D01*
X26961Y290561D01*
X27030Y290644D01*
X27102Y290724D01*
X27178Y290802D01*
X27256Y290878D01*
X27336Y290950D01*
X27419Y291019D01*
X27505Y291086D01*
X27593Y291149D01*
X27683Y291209D01*
X27775Y291266D01*
X27869Y291320D01*
X27965Y291370D01*
X28063Y291417D01*
X28162Y291460D01*
X28263Y291500D01*
X28365Y291536D01*
X28468Y291568D01*
X28573Y291597D01*
X28678Y291622D01*
X28784Y291643D01*
X28891Y291660D01*
X28999Y291674D01*
X29107Y291683D01*
X29215Y291689D01*
X29323Y291691D01*
X34177Y291691D01*
X34285Y291689D01*
X34393Y291683D01*
X34501Y291674D01*
X34609Y291660D01*
X34716Y291643D01*
X34822Y291622D01*
X34927Y291597D01*
X35032Y291568D01*
X35135Y291536D01*
X35237Y291500D01*
X35338Y291460D01*
X35437Y291417D01*
X35535Y291370D01*
X35631Y291320D01*
X35725Y291266D01*
X35817Y291209D01*
X35907Y291149D01*
X35995Y291086D01*
X36081Y291019D01*
X36164Y290950D01*
X36244Y290878D01*
X36322Y290802D01*
X36398Y290724D01*
X36470Y290644D01*
X36539Y290561D01*
X36606Y290475D01*
X36669Y290387D01*
X36729Y290297D01*
X36786Y290205D01*
X36840Y290111D01*
X36890Y290015D01*
X36937Y289917D01*
X36980Y289818D01*
X37020Y289717D01*
X37056Y289615D01*
X37088Y289512D01*
X37117Y289407D01*
X37142Y289302D01*
X37163Y289196D01*
X37180Y289089D01*
X37194Y288981D01*
X37203Y288873D01*
X37209Y288765D01*
X37211Y288657D01*
X37211Y285623D01*
X13589Y53086D02*
X13589Y42164D01*
X13589Y53086D02*
X16623Y53086D01*
X16731Y53084D01*
X16839Y53078D01*
X16947Y53069D01*
X17055Y53055D01*
X17162Y53038D01*
X17268Y53017D01*
X17373Y52992D01*
X17478Y52963D01*
X17581Y52931D01*
X17683Y52895D01*
X17784Y52855D01*
X17883Y52812D01*
X17981Y52765D01*
X18077Y52715D01*
X18171Y52661D01*
X18263Y52604D01*
X18353Y52544D01*
X18441Y52481D01*
X18527Y52414D01*
X18610Y52345D01*
X18690Y52273D01*
X18768Y52197D01*
X18844Y52119D01*
X18916Y52039D01*
X18985Y51956D01*
X19052Y51870D01*
X19115Y51782D01*
X19175Y51692D01*
X19232Y51600D01*
X19286Y51506D01*
X19336Y51410D01*
X19383Y51312D01*
X19426Y51213D01*
X19466Y51112D01*
X19502Y51010D01*
X19534Y50907D01*
X19563Y50802D01*
X19588Y50697D01*
X19609Y50591D01*
X19626Y50484D01*
X19640Y50376D01*
X19649Y50268D01*
X19655Y50160D01*
X19657Y50052D01*
X19655Y49944D01*
X19649Y49836D01*
X19640Y49728D01*
X19626Y49620D01*
X19609Y49513D01*
X19588Y49407D01*
X19563Y49302D01*
X19534Y49197D01*
X19502Y49094D01*
X19466Y48992D01*
X19426Y48891D01*
X19383Y48792D01*
X19336Y48694D01*
X19286Y48598D01*
X19232Y48504D01*
X19175Y48412D01*
X19115Y48322D01*
X19052Y48234D01*
X18985Y48148D01*
X18916Y48065D01*
X18844Y47985D01*
X18768Y47907D01*
X18690Y47831D01*
X18610Y47759D01*
X18527Y47690D01*
X18441Y47623D01*
X18353Y47560D01*
X18263Y47500D01*
X18171Y47443D01*
X18077Y47389D01*
X17981Y47339D01*
X17883Y47292D01*
X17784Y47249D01*
X17683Y47209D01*
X17581Y47173D01*
X17478Y47141D01*
X17373Y47112D01*
X17268Y47087D01*
X17162Y47066D01*
X17055Y47049D01*
X16947Y47035D01*
X16839Y47026D01*
X16731Y47020D01*
X16623Y47018D01*
X13589Y47018D01*
X17230Y47018D02*
X19657Y42164D01*
X24523Y42164D02*
X24523Y49445D01*
X24219Y52479D02*
X24219Y53086D01*
X24826Y53086D01*
X24826Y52479D01*
X24219Y52479D01*
X29716Y49445D02*
X29716Y42164D01*
X29716Y49445D02*
X32749Y49445D01*
X32833Y49443D01*
X32917Y49437D01*
X33000Y49428D01*
X33083Y49414D01*
X33166Y49397D01*
X33247Y49376D01*
X33327Y49351D01*
X33406Y49322D01*
X33484Y49290D01*
X33560Y49254D01*
X33635Y49215D01*
X33707Y49172D01*
X33778Y49127D01*
X33846Y49077D01*
X33912Y49025D01*
X33975Y48970D01*
X34036Y48912D01*
X34094Y48851D01*
X34149Y48788D01*
X34201Y48722D01*
X34250Y48654D01*
X34296Y48583D01*
X34339Y48511D01*
X34378Y48436D01*
X34414Y48360D01*
X34446Y48282D01*
X34475Y48203D01*
X34500Y48123D01*
X34521Y48042D01*
X34538Y47959D01*
X34552Y47876D01*
X34561Y47793D01*
X34567Y47709D01*
X34569Y47625D01*
X34570Y47625D02*
X34570Y42164D01*
X41742Y42164D02*
X44776Y42164D01*
X41742Y42164D02*
X41658Y42166D01*
X41574Y42172D01*
X41491Y42181D01*
X41408Y42195D01*
X41325Y42212D01*
X41244Y42233D01*
X41164Y42258D01*
X41085Y42287D01*
X41007Y42319D01*
X40931Y42355D01*
X40856Y42394D01*
X40784Y42437D01*
X40713Y42483D01*
X40645Y42532D01*
X40579Y42584D01*
X40516Y42639D01*
X40455Y42697D01*
X40397Y42758D01*
X40342Y42821D01*
X40290Y42887D01*
X40241Y42955D01*
X40195Y43026D01*
X40152Y43098D01*
X40113Y43173D01*
X40077Y43249D01*
X40045Y43327D01*
X40016Y43406D01*
X39991Y43486D01*
X39970Y43567D01*
X39953Y43650D01*
X39939Y43733D01*
X39930Y43816D01*
X39924Y43900D01*
X39922Y43984D01*
X39921Y43984D02*
X39921Y47625D01*
X39922Y47625D02*
X39924Y47709D01*
X39930Y47793D01*
X39939Y47876D01*
X39953Y47959D01*
X39970Y48042D01*
X39991Y48123D01*
X40016Y48203D01*
X40045Y48282D01*
X40077Y48360D01*
X40113Y48436D01*
X40152Y48511D01*
X40195Y48583D01*
X40241Y48654D01*
X40290Y48722D01*
X40342Y48788D01*
X40397Y48851D01*
X40455Y48912D01*
X40516Y48970D01*
X40579Y49025D01*
X40645Y49077D01*
X40713Y49126D01*
X40784Y49172D01*
X40856Y49215D01*
X40931Y49254D01*
X41007Y49290D01*
X41085Y49322D01*
X41164Y49351D01*
X41244Y49376D01*
X41325Y49397D01*
X41408Y49414D01*
X41491Y49428D01*
X41574Y49437D01*
X41658Y49443D01*
X41742Y49445D01*
X44776Y49445D01*
X44776Y40344D01*
X44775Y40344D02*
X44773Y40260D01*
X44767Y40176D01*
X44758Y40093D01*
X44744Y40010D01*
X44727Y39927D01*
X44706Y39846D01*
X44681Y39766D01*
X44652Y39687D01*
X44620Y39609D01*
X44584Y39533D01*
X44545Y39458D01*
X44502Y39386D01*
X44457Y39315D01*
X44407Y39247D01*
X44355Y39181D01*
X44300Y39118D01*
X44242Y39057D01*
X44181Y38999D01*
X44118Y38944D01*
X44052Y38892D01*
X43984Y38843D01*
X43913Y38797D01*
X43841Y38754D01*
X43766Y38715D01*
X43690Y38679D01*
X43612Y38647D01*
X43533Y38618D01*
X43453Y38593D01*
X43372Y38572D01*
X43289Y38555D01*
X43206Y38541D01*
X43123Y38532D01*
X43039Y38526D01*
X42955Y38524D01*
X42955Y38523D02*
X40528Y38523D01*
X56541Y45198D02*
X56541Y50052D01*
X56543Y50160D01*
X56549Y50268D01*
X56558Y50376D01*
X56572Y50484D01*
X56589Y50591D01*
X56610Y50697D01*
X56635Y50802D01*
X56664Y50907D01*
X56696Y51010D01*
X56732Y51112D01*
X56772Y51213D01*
X56815Y51312D01*
X56862Y51410D01*
X56912Y51506D01*
X56966Y51600D01*
X57023Y51692D01*
X57083Y51782D01*
X57146Y51870D01*
X57213Y51956D01*
X57282Y52039D01*
X57354Y52119D01*
X57430Y52197D01*
X57508Y52273D01*
X57588Y52345D01*
X57671Y52414D01*
X57757Y52481D01*
X57845Y52544D01*
X57935Y52604D01*
X58027Y52661D01*
X58121Y52715D01*
X58217Y52765D01*
X58315Y52812D01*
X58414Y52855D01*
X58515Y52895D01*
X58617Y52931D01*
X58720Y52963D01*
X58825Y52992D01*
X58930Y53017D01*
X59036Y53038D01*
X59143Y53055D01*
X59251Y53069D01*
X59359Y53078D01*
X59467Y53084D01*
X59575Y53086D01*
X59683Y53084D01*
X59791Y53078D01*
X59899Y53069D01*
X60007Y53055D01*
X60114Y53038D01*
X60220Y53017D01*
X60325Y52992D01*
X60430Y52963D01*
X60533Y52931D01*
X60635Y52895D01*
X60736Y52855D01*
X60835Y52812D01*
X60933Y52765D01*
X61029Y52715D01*
X61123Y52661D01*
X61215Y52604D01*
X61305Y52544D01*
X61393Y52481D01*
X61479Y52414D01*
X61562Y52345D01*
X61642Y52273D01*
X61720Y52197D01*
X61796Y52119D01*
X61868Y52039D01*
X61937Y51956D01*
X62004Y51870D01*
X62067Y51782D01*
X62127Y51692D01*
X62184Y51600D01*
X62238Y51506D01*
X62288Y51410D01*
X62335Y51312D01*
X62378Y51213D01*
X62418Y51112D01*
X62454Y51010D01*
X62486Y50907D01*
X62515Y50802D01*
X62540Y50697D01*
X62561Y50591D01*
X62578Y50484D01*
X62592Y50376D01*
X62601Y50268D01*
X62607Y50160D01*
X62609Y50052D01*
X62608Y50052D02*
X62608Y45198D01*
X62609Y45198D02*
X62607Y45090D01*
X62601Y44982D01*
X62592Y44874D01*
X62578Y44766D01*
X62561Y44659D01*
X62540Y44553D01*
X62515Y44448D01*
X62486Y44343D01*
X62454Y44240D01*
X62418Y44138D01*
X62378Y44037D01*
X62335Y43938D01*
X62288Y43840D01*
X62238Y43744D01*
X62184Y43650D01*
X62127Y43558D01*
X62067Y43468D01*
X62004Y43380D01*
X61937Y43294D01*
X61868Y43211D01*
X61796Y43131D01*
X61720Y43053D01*
X61642Y42977D01*
X61562Y42905D01*
X61479Y42836D01*
X61393Y42769D01*
X61305Y42706D01*
X61215Y42646D01*
X61123Y42589D01*
X61029Y42535D01*
X60933Y42485D01*
X60835Y42438D01*
X60736Y42395D01*
X60635Y42355D01*
X60533Y42319D01*
X60430Y42287D01*
X60325Y42258D01*
X60220Y42233D01*
X60114Y42212D01*
X60007Y42195D01*
X59899Y42181D01*
X59791Y42172D01*
X59683Y42166D01*
X59575Y42164D01*
X59467Y42166D01*
X59359Y42172D01*
X59251Y42181D01*
X59143Y42195D01*
X59036Y42212D01*
X58930Y42233D01*
X58825Y42258D01*
X58720Y42287D01*
X58617Y42319D01*
X58515Y42355D01*
X58414Y42395D01*
X58315Y42438D01*
X58217Y42485D01*
X58121Y42535D01*
X58027Y42589D01*
X57935Y42646D01*
X57845Y42706D01*
X57757Y42769D01*
X57671Y42836D01*
X57588Y42905D01*
X57508Y42977D01*
X57430Y43053D01*
X57354Y43131D01*
X57282Y43211D01*
X57213Y43294D01*
X57146Y43380D01*
X57083Y43468D01*
X57023Y43558D01*
X56966Y43650D01*
X56912Y43744D01*
X56862Y43840D01*
X56815Y43938D01*
X56772Y44037D01*
X56732Y44138D01*
X56696Y44240D01*
X56664Y44343D01*
X56635Y44448D01*
X56610Y44553D01*
X56589Y44659D01*
X56572Y44766D01*
X56558Y44874D01*
X56549Y44982D01*
X56543Y45090D01*
X56541Y45198D01*
X68726Y46411D02*
X71759Y45198D01*
X68726Y46412D02*
X68654Y46442D01*
X68584Y46476D01*
X68516Y46514D01*
X68450Y46555D01*
X68385Y46599D01*
X68324Y46647D01*
X68264Y46697D01*
X68207Y46750D01*
X68153Y46806D01*
X68102Y46865D01*
X68053Y46926D01*
X68008Y46990D01*
X67966Y47055D01*
X67927Y47123D01*
X67891Y47192D01*
X67860Y47263D01*
X67831Y47336D01*
X67806Y47410D01*
X67785Y47485D01*
X67768Y47561D01*
X67755Y47638D01*
X67745Y47715D01*
X67739Y47793D01*
X67737Y47871D01*
X67739Y47949D01*
X67745Y48026D01*
X67754Y48104D01*
X67768Y48180D01*
X67785Y48257D01*
X67806Y48332D01*
X67830Y48406D01*
X67859Y48478D01*
X67890Y48549D01*
X67926Y48619D01*
X67964Y48687D01*
X68006Y48752D01*
X68052Y48816D01*
X68100Y48877D01*
X68151Y48936D01*
X68205Y48992D01*
X68262Y49045D01*
X68321Y49096D01*
X68383Y49143D01*
X68447Y49187D01*
X68514Y49228D01*
X68582Y49266D01*
X68652Y49301D01*
X68723Y49332D01*
X68796Y49359D01*
X68871Y49382D01*
X68946Y49402D01*
X69022Y49418D01*
X69099Y49431D01*
X69177Y49439D01*
X69255Y49444D01*
X69332Y49445D01*
X69332Y49446D02*
X69498Y49442D01*
X69664Y49434D01*
X69829Y49421D01*
X69994Y49405D01*
X70158Y49385D01*
X70322Y49361D01*
X70485Y49332D01*
X70648Y49300D01*
X70810Y49264D01*
X70970Y49225D01*
X71130Y49181D01*
X71289Y49133D01*
X71447Y49082D01*
X71603Y49027D01*
X71758Y48968D01*
X71911Y48906D01*
X72063Y48839D01*
X71759Y45197D02*
X71831Y45167D01*
X71901Y45133D01*
X71969Y45095D01*
X72035Y45054D01*
X72100Y45010D01*
X72161Y44962D01*
X72221Y44912D01*
X72278Y44859D01*
X72332Y44803D01*
X72383Y44744D01*
X72432Y44683D01*
X72477Y44619D01*
X72519Y44554D01*
X72558Y44486D01*
X72594Y44417D01*
X72625Y44346D01*
X72654Y44273D01*
X72679Y44199D01*
X72700Y44124D01*
X72717Y44048D01*
X72730Y43971D01*
X72740Y43894D01*
X72746Y43816D01*
X72748Y43738D01*
X72746Y43660D01*
X72740Y43583D01*
X72731Y43505D01*
X72717Y43429D01*
X72700Y43352D01*
X72679Y43277D01*
X72655Y43203D01*
X72626Y43131D01*
X72595Y43060D01*
X72559Y42990D01*
X72521Y42922D01*
X72479Y42857D01*
X72433Y42793D01*
X72385Y42732D01*
X72334Y42673D01*
X72280Y42617D01*
X72223Y42564D01*
X72164Y42513D01*
X72102Y42466D01*
X72038Y42422D01*
X71971Y42381D01*
X71903Y42343D01*
X71833Y42308D01*
X71762Y42277D01*
X71689Y42250D01*
X71614Y42227D01*
X71539Y42207D01*
X71463Y42191D01*
X71386Y42178D01*
X71308Y42170D01*
X71230Y42165D01*
X71153Y42164D01*
X70910Y42170D01*
X70667Y42183D01*
X70424Y42200D01*
X70182Y42224D01*
X69940Y42253D01*
X69699Y42288D01*
X69459Y42329D01*
X69220Y42375D01*
X68982Y42427D01*
X68746Y42485D01*
X68511Y42548D01*
X68277Y42617D01*
X68046Y42691D01*
X67816Y42771D01*
X79560Y42164D02*
X81987Y42164D01*
X79560Y42164D02*
X79476Y42166D01*
X79392Y42172D01*
X79309Y42181D01*
X79226Y42195D01*
X79143Y42212D01*
X79062Y42233D01*
X78982Y42258D01*
X78903Y42287D01*
X78825Y42319D01*
X78749Y42355D01*
X78674Y42394D01*
X78602Y42437D01*
X78531Y42483D01*
X78463Y42532D01*
X78397Y42584D01*
X78334Y42639D01*
X78273Y42697D01*
X78215Y42758D01*
X78160Y42821D01*
X78108Y42887D01*
X78059Y42955D01*
X78013Y43026D01*
X77970Y43098D01*
X77931Y43173D01*
X77895Y43249D01*
X77863Y43327D01*
X77834Y43406D01*
X77809Y43486D01*
X77788Y43567D01*
X77771Y43650D01*
X77757Y43733D01*
X77748Y43816D01*
X77742Y43900D01*
X77740Y43984D01*
X77740Y47625D01*
X77742Y47709D01*
X77748Y47793D01*
X77757Y47876D01*
X77771Y47959D01*
X77788Y48042D01*
X77809Y48123D01*
X77834Y48203D01*
X77863Y48282D01*
X77895Y48360D01*
X77931Y48436D01*
X77970Y48511D01*
X78013Y48583D01*
X78059Y48654D01*
X78108Y48722D01*
X78160Y48788D01*
X78215Y48851D01*
X78273Y48912D01*
X78334Y48970D01*
X78397Y49025D01*
X78463Y49077D01*
X78531Y49126D01*
X78602Y49172D01*
X78674Y49215D01*
X78749Y49254D01*
X78825Y49290D01*
X78903Y49322D01*
X78982Y49351D01*
X79062Y49376D01*
X79143Y49397D01*
X79226Y49414D01*
X79309Y49428D01*
X79392Y49437D01*
X79476Y49443D01*
X79560Y49445D01*
X81987Y49445D01*
X17230Y25703D02*
X13589Y30861D01*
X17230Y25703D02*
X20870Y30861D01*
X17230Y25703D02*
X17230Y19939D01*
X27513Y24186D02*
X30244Y24186D01*
X27513Y24187D02*
X27422Y24185D01*
X27330Y24179D01*
X27240Y24169D01*
X27149Y24156D01*
X27059Y24138D01*
X26971Y24117D01*
X26883Y24091D01*
X26796Y24062D01*
X26711Y24030D01*
X26627Y23993D01*
X26545Y23953D01*
X26464Y23910D01*
X26386Y23863D01*
X26309Y23813D01*
X26235Y23760D01*
X26163Y23703D01*
X26094Y23643D01*
X26027Y23581D01*
X25963Y23516D01*
X25902Y23448D01*
X25844Y23377D01*
X25789Y23304D01*
X25737Y23229D01*
X25689Y23151D01*
X25644Y23072D01*
X25602Y22990D01*
X25564Y22907D01*
X25530Y22823D01*
X25499Y22737D01*
X25472Y22649D01*
X25448Y22561D01*
X25429Y22472D01*
X25413Y22382D01*
X25401Y22291D01*
X25393Y22200D01*
X25389Y22109D01*
X25389Y22017D01*
X25393Y21926D01*
X25401Y21835D01*
X25413Y21744D01*
X25429Y21654D01*
X25448Y21565D01*
X25472Y21477D01*
X25499Y21389D01*
X25530Y21303D01*
X25564Y21219D01*
X25602Y21136D01*
X25644Y21054D01*
X25689Y20975D01*
X25737Y20897D01*
X25789Y20822D01*
X25844Y20749D01*
X25902Y20678D01*
X25963Y20610D01*
X26027Y20545D01*
X26094Y20483D01*
X26163Y20423D01*
X26235Y20366D01*
X26309Y20313D01*
X26386Y20263D01*
X26464Y20216D01*
X26545Y20173D01*
X26627Y20133D01*
X26711Y20096D01*
X26796Y20064D01*
X26883Y20035D01*
X26971Y20009D01*
X27059Y19988D01*
X27149Y19970D01*
X27240Y19957D01*
X27330Y19947D01*
X27422Y19941D01*
X27513Y19939D01*
X30244Y19939D01*
X30244Y25400D01*
X30243Y25400D02*
X30241Y25484D01*
X30235Y25568D01*
X30226Y25651D01*
X30212Y25734D01*
X30195Y25817D01*
X30174Y25898D01*
X30149Y25978D01*
X30120Y26057D01*
X30088Y26135D01*
X30052Y26211D01*
X30013Y26286D01*
X29970Y26358D01*
X29924Y26429D01*
X29875Y26497D01*
X29823Y26563D01*
X29768Y26626D01*
X29710Y26687D01*
X29649Y26745D01*
X29586Y26800D01*
X29520Y26852D01*
X29452Y26901D01*
X29381Y26947D01*
X29309Y26990D01*
X29234Y27029D01*
X29158Y27065D01*
X29080Y27097D01*
X29001Y27126D01*
X28921Y27151D01*
X28840Y27172D01*
X28757Y27189D01*
X28674Y27203D01*
X28591Y27212D01*
X28507Y27218D01*
X28423Y27220D01*
X25996Y27220D01*
X36220Y27220D02*
X36220Y16298D01*
X36220Y27220D02*
X39253Y27220D01*
X39337Y27218D01*
X39421Y27212D01*
X39504Y27203D01*
X39587Y27189D01*
X39670Y27172D01*
X39751Y27151D01*
X39831Y27126D01*
X39910Y27097D01*
X39988Y27065D01*
X40064Y27029D01*
X40139Y26990D01*
X40211Y26947D01*
X40282Y26902D01*
X40350Y26852D01*
X40416Y26800D01*
X40479Y26745D01*
X40540Y26687D01*
X40598Y26626D01*
X40653Y26563D01*
X40705Y26497D01*
X40754Y26429D01*
X40800Y26358D01*
X40843Y26286D01*
X40882Y26211D01*
X40918Y26135D01*
X40950Y26057D01*
X40979Y25978D01*
X41004Y25898D01*
X41025Y25817D01*
X41042Y25734D01*
X41056Y25651D01*
X41065Y25568D01*
X41071Y25484D01*
X41073Y25400D01*
X41074Y25400D02*
X41074Y21759D01*
X41073Y21759D02*
X41071Y21675D01*
X41065Y21591D01*
X41056Y21508D01*
X41042Y21425D01*
X41025Y21342D01*
X41004Y21261D01*
X40979Y21181D01*
X40950Y21102D01*
X40918Y21024D01*
X40882Y20948D01*
X40843Y20873D01*
X40800Y20801D01*
X40754Y20730D01*
X40705Y20662D01*
X40653Y20596D01*
X40598Y20533D01*
X40540Y20472D01*
X40479Y20414D01*
X40416Y20359D01*
X40350Y20307D01*
X40282Y20258D01*
X40211Y20212D01*
X40139Y20169D01*
X40064Y20130D01*
X39988Y20094D01*
X39910Y20062D01*
X39831Y20033D01*
X39751Y20008D01*
X39670Y19987D01*
X39587Y19970D01*
X39504Y19956D01*
X39421Y19947D01*
X39337Y19941D01*
X39253Y19939D01*
X36220Y19939D01*
X46044Y22366D02*
X46044Y24793D01*
X46045Y24793D02*
X46047Y24891D01*
X46053Y24988D01*
X46063Y25086D01*
X46076Y25182D01*
X46094Y25278D01*
X46116Y25374D01*
X46141Y25468D01*
X46170Y25562D01*
X46203Y25654D01*
X46239Y25744D01*
X46279Y25833D01*
X46323Y25921D01*
X46370Y26007D01*
X46421Y26090D01*
X46475Y26172D01*
X46532Y26251D01*
X46592Y26328D01*
X46655Y26402D01*
X46722Y26474D01*
X46791Y26543D01*
X46863Y26610D01*
X46937Y26673D01*
X47014Y26733D01*
X47093Y26790D01*
X47175Y26844D01*
X47259Y26895D01*
X47344Y26942D01*
X47432Y26986D01*
X47521Y27026D01*
X47611Y27062D01*
X47703Y27095D01*
X47797Y27124D01*
X47891Y27149D01*
X47987Y27171D01*
X48083Y27189D01*
X48179Y27202D01*
X48277Y27212D01*
X48374Y27218D01*
X48472Y27220D01*
X48570Y27218D01*
X48667Y27212D01*
X48765Y27202D01*
X48861Y27189D01*
X48957Y27171D01*
X49053Y27149D01*
X49147Y27124D01*
X49241Y27095D01*
X49333Y27062D01*
X49423Y27026D01*
X49512Y26986D01*
X49600Y26942D01*
X49686Y26895D01*
X49769Y26844D01*
X49851Y26790D01*
X49930Y26733D01*
X50007Y26673D01*
X50081Y26610D01*
X50153Y26543D01*
X50222Y26474D01*
X50289Y26402D01*
X50352Y26328D01*
X50412Y26251D01*
X50469Y26172D01*
X50523Y26090D01*
X50574Y26007D01*
X50621Y25921D01*
X50665Y25833D01*
X50705Y25744D01*
X50741Y25654D01*
X50774Y25562D01*
X50803Y25468D01*
X50828Y25374D01*
X50850Y25278D01*
X50868Y25182D01*
X50881Y25086D01*
X50891Y24988D01*
X50897Y24891D01*
X50899Y24793D01*
X50899Y22366D01*
X50897Y22268D01*
X50891Y22171D01*
X50881Y22073D01*
X50868Y21977D01*
X50850Y21881D01*
X50828Y21785D01*
X50803Y21691D01*
X50774Y21597D01*
X50741Y21505D01*
X50705Y21415D01*
X50665Y21326D01*
X50621Y21238D01*
X50574Y21152D01*
X50523Y21069D01*
X50469Y20987D01*
X50412Y20908D01*
X50352Y20831D01*
X50289Y20757D01*
X50222Y20685D01*
X50153Y20616D01*
X50081Y20549D01*
X50007Y20486D01*
X49930Y20426D01*
X49851Y20369D01*
X49769Y20315D01*
X49685Y20264D01*
X49600Y20217D01*
X49512Y20173D01*
X49423Y20133D01*
X49333Y20097D01*
X49241Y20064D01*
X49147Y20035D01*
X49053Y20010D01*
X48957Y19988D01*
X48861Y19970D01*
X48765Y19957D01*
X48667Y19947D01*
X48570Y19941D01*
X48472Y19939D01*
X48374Y19941D01*
X48277Y19947D01*
X48179Y19957D01*
X48083Y19970D01*
X47987Y19988D01*
X47891Y20010D01*
X47797Y20035D01*
X47703Y20064D01*
X47611Y20097D01*
X47521Y20133D01*
X47432Y20173D01*
X47344Y20217D01*
X47258Y20264D01*
X47175Y20315D01*
X47093Y20369D01*
X47014Y20426D01*
X46937Y20486D01*
X46863Y20549D01*
X46791Y20616D01*
X46722Y20685D01*
X46655Y20757D01*
X46592Y20831D01*
X46532Y20908D01*
X46475Y20987D01*
X46421Y21069D01*
X46370Y21153D01*
X46323Y21238D01*
X46279Y21326D01*
X46239Y21415D01*
X46203Y21505D01*
X46170Y21597D01*
X46141Y21691D01*
X46116Y21785D01*
X46094Y21881D01*
X46076Y21977D01*
X46063Y22073D01*
X46053Y22171D01*
X46047Y22268D01*
X46045Y22366D01*
X55348Y19939D02*
X55955Y19939D01*
X55348Y19939D02*
X55348Y20546D01*
X55955Y20546D01*
X55955Y19939D01*
X55044Y17512D01*
X66774Y28434D02*
X69808Y30861D01*
X69808Y19939D01*
X72841Y19939D02*
X66774Y19939D01*
X81541Y30862D02*
X81643Y30860D01*
X81745Y30854D01*
X81847Y30845D01*
X81948Y30831D01*
X82049Y30814D01*
X82149Y30794D01*
X82248Y30769D01*
X82346Y30741D01*
X82443Y30709D01*
X82539Y30673D01*
X82633Y30634D01*
X82726Y30592D01*
X82817Y30546D01*
X82907Y30496D01*
X82994Y30443D01*
X83079Y30387D01*
X83163Y30328D01*
X83244Y30266D01*
X83322Y30201D01*
X83399Y30133D01*
X83472Y30062D01*
X83543Y29989D01*
X83611Y29912D01*
X83676Y29834D01*
X83738Y29753D01*
X83797Y29669D01*
X83853Y29584D01*
X83906Y29497D01*
X83956Y29407D01*
X84002Y29316D01*
X84044Y29223D01*
X84083Y29129D01*
X84119Y29033D01*
X84151Y28936D01*
X84179Y28838D01*
X84204Y28739D01*
X84224Y28639D01*
X84241Y28538D01*
X84255Y28437D01*
X84264Y28335D01*
X84270Y28233D01*
X84272Y28131D01*
X81541Y30861D02*
X81425Y30859D01*
X81309Y30853D01*
X81193Y30844D01*
X81078Y30830D01*
X80963Y30813D01*
X80849Y30792D01*
X80736Y30767D01*
X80623Y30739D01*
X80512Y30707D01*
X80401Y30671D01*
X80292Y30631D01*
X80184Y30588D01*
X80078Y30541D01*
X79973Y30491D01*
X79870Y30438D01*
X79769Y30381D01*
X79670Y30320D01*
X79573Y30257D01*
X79478Y30190D01*
X79385Y30120D01*
X79295Y30047D01*
X79207Y29972D01*
X79121Y29893D01*
X79039Y29811D01*
X78959Y29727D01*
X78881Y29641D01*
X78807Y29551D01*
X78736Y29460D01*
X78668Y29366D01*
X78603Y29269D01*
X78541Y29171D01*
X78482Y29071D01*
X78427Y28969D01*
X78375Y28865D01*
X78327Y28759D01*
X78282Y28652D01*
X78241Y28544D01*
X78204Y28434D01*
X83362Y26007D02*
X83435Y26080D01*
X83506Y26155D01*
X83574Y26232D01*
X83640Y26312D01*
X83702Y26394D01*
X83762Y26478D01*
X83819Y26565D01*
X83872Y26653D01*
X83923Y26743D01*
X83970Y26835D01*
X84014Y26928D01*
X84055Y27023D01*
X84092Y27120D01*
X84126Y27217D01*
X84156Y27316D01*
X84183Y27415D01*
X84207Y27516D01*
X84227Y27617D01*
X84243Y27719D01*
X84256Y27822D01*
X84265Y27925D01*
X84270Y28028D01*
X84272Y28131D01*
X83361Y26007D02*
X78204Y19939D01*
X84271Y19939D01*
X89097Y18725D02*
X93952Y32075D01*
X102115Y30862D02*
X102217Y30860D01*
X102319Y30854D01*
X102421Y30845D01*
X102522Y30831D01*
X102623Y30814D01*
X102723Y30794D01*
X102822Y30769D01*
X102920Y30741D01*
X103017Y30709D01*
X103113Y30673D01*
X103207Y30634D01*
X103300Y30592D01*
X103391Y30546D01*
X103481Y30496D01*
X103568Y30443D01*
X103653Y30387D01*
X103737Y30328D01*
X103818Y30266D01*
X103896Y30201D01*
X103973Y30133D01*
X104046Y30062D01*
X104117Y29989D01*
X104185Y29912D01*
X104250Y29834D01*
X104312Y29753D01*
X104371Y29669D01*
X104427Y29584D01*
X104480Y29497D01*
X104530Y29407D01*
X104576Y29316D01*
X104618Y29223D01*
X104657Y29129D01*
X104693Y29033D01*
X104725Y28936D01*
X104753Y28838D01*
X104778Y28739D01*
X104798Y28639D01*
X104815Y28538D01*
X104829Y28437D01*
X104838Y28335D01*
X104844Y28233D01*
X104846Y28131D01*
X102115Y30861D02*
X101999Y30859D01*
X101883Y30853D01*
X101767Y30844D01*
X101652Y30830D01*
X101537Y30813D01*
X101423Y30792D01*
X101310Y30767D01*
X101197Y30739D01*
X101086Y30707D01*
X100975Y30671D01*
X100866Y30631D01*
X100758Y30588D01*
X100652Y30541D01*
X100547Y30491D01*
X100444Y30438D01*
X100343Y30381D01*
X100244Y30320D01*
X100147Y30257D01*
X100052Y30190D01*
X99959Y30120D01*
X99869Y30047D01*
X99781Y29972D01*
X99695Y29893D01*
X99613Y29811D01*
X99533Y29727D01*
X99455Y29641D01*
X99381Y29551D01*
X99310Y29460D01*
X99242Y29366D01*
X99177Y29269D01*
X99115Y29171D01*
X99056Y29071D01*
X99001Y28969D01*
X98949Y28865D01*
X98901Y28759D01*
X98856Y28652D01*
X98815Y28544D01*
X98778Y28434D01*
X103935Y26007D02*
X104008Y26080D01*
X104079Y26155D01*
X104147Y26232D01*
X104213Y26312D01*
X104275Y26394D01*
X104335Y26478D01*
X104392Y26565D01*
X104445Y26653D01*
X104496Y26743D01*
X104543Y26835D01*
X104587Y26928D01*
X104628Y27023D01*
X104665Y27120D01*
X104699Y27217D01*
X104729Y27316D01*
X104756Y27415D01*
X104780Y27516D01*
X104800Y27617D01*
X104816Y27719D01*
X104829Y27822D01*
X104838Y27925D01*
X104843Y28028D01*
X104845Y28131D01*
X103935Y26007D02*
X98778Y19939D01*
X104845Y19939D01*
X110208Y25400D02*
X110211Y25615D01*
X110218Y25830D01*
X110231Y26044D01*
X110249Y26258D01*
X110272Y26472D01*
X110300Y26685D01*
X110333Y26897D01*
X110372Y27108D01*
X110415Y27319D01*
X110463Y27528D01*
X110517Y27736D01*
X110575Y27943D01*
X110638Y28149D01*
X110706Y28352D01*
X110779Y28555D01*
X110857Y28755D01*
X110939Y28953D01*
X111026Y29150D01*
X111118Y29344D01*
X111117Y29344D02*
X111149Y29431D01*
X111185Y29517D01*
X111224Y29601D01*
X111266Y29684D01*
X111312Y29765D01*
X111361Y29843D01*
X111414Y29920D01*
X111469Y29994D01*
X111527Y30066D01*
X111589Y30136D01*
X111653Y30203D01*
X111720Y30267D01*
X111790Y30329D01*
X111862Y30387D01*
X111936Y30443D01*
X112013Y30495D01*
X112091Y30544D01*
X112172Y30590D01*
X112255Y30633D01*
X112339Y30672D01*
X112425Y30707D01*
X112512Y30739D01*
X112600Y30768D01*
X112690Y30792D01*
X112780Y30813D01*
X112871Y30830D01*
X112963Y30844D01*
X113056Y30853D01*
X113148Y30859D01*
X113241Y30861D01*
X113334Y30859D01*
X113426Y30853D01*
X113519Y30844D01*
X113611Y30830D01*
X113702Y30813D01*
X113792Y30792D01*
X113882Y30768D01*
X113970Y30739D01*
X114057Y30707D01*
X114143Y30672D01*
X114227Y30633D01*
X114310Y30590D01*
X114391Y30544D01*
X114469Y30495D01*
X114546Y30443D01*
X114620Y30387D01*
X114692Y30329D01*
X114762Y30267D01*
X114829Y30203D01*
X114893Y30136D01*
X114955Y30066D01*
X115013Y29994D01*
X115069Y29920D01*
X115121Y29843D01*
X115170Y29765D01*
X115216Y29684D01*
X115258Y29601D01*
X115297Y29517D01*
X115333Y29431D01*
X115365Y29344D01*
X115457Y29150D01*
X115544Y28953D01*
X115626Y28755D01*
X115704Y28554D01*
X115777Y28352D01*
X115845Y28149D01*
X115908Y27943D01*
X115966Y27736D01*
X116020Y27528D01*
X116068Y27319D01*
X116111Y27108D01*
X116150Y26897D01*
X116183Y26685D01*
X116211Y26472D01*
X116234Y26258D01*
X116252Y26044D01*
X116265Y25830D01*
X116272Y25615D01*
X116275Y25400D01*
X110207Y25400D02*
X110210Y25185D01*
X110217Y24970D01*
X110230Y24756D01*
X110248Y24542D01*
X110271Y24328D01*
X110299Y24115D01*
X110332Y23903D01*
X110371Y23691D01*
X110414Y23481D01*
X110462Y23272D01*
X110516Y23063D01*
X110574Y22857D01*
X110637Y22651D01*
X110705Y22447D01*
X110778Y22245D01*
X110856Y22045D01*
X110938Y21846D01*
X111025Y21650D01*
X111117Y21456D01*
X111149Y21369D01*
X111185Y21283D01*
X111224Y21199D01*
X111266Y21116D01*
X111312Y21035D01*
X111361Y20957D01*
X111414Y20880D01*
X111469Y20806D01*
X111527Y20734D01*
X111589Y20664D01*
X111653Y20597D01*
X111720Y20533D01*
X111790Y20471D01*
X111862Y20413D01*
X111936Y20357D01*
X112013Y20305D01*
X112091Y20256D01*
X112172Y20210D01*
X112255Y20167D01*
X112339Y20128D01*
X112425Y20093D01*
X112512Y20061D01*
X112600Y20032D01*
X112690Y20008D01*
X112780Y19987D01*
X112871Y19970D01*
X112963Y19956D01*
X113056Y19947D01*
X113148Y19941D01*
X113241Y19939D01*
X115366Y21456D02*
X115458Y21650D01*
X115545Y21846D01*
X115627Y22045D01*
X115705Y22245D01*
X115778Y22447D01*
X115846Y22651D01*
X115909Y22857D01*
X115967Y23063D01*
X116021Y23272D01*
X116069Y23481D01*
X116112Y23691D01*
X116151Y23903D01*
X116184Y24115D01*
X116212Y24328D01*
X116235Y24542D01*
X116253Y24756D01*
X116266Y24970D01*
X116273Y25185D01*
X116276Y25400D01*
X115365Y21456D02*
X115333Y21369D01*
X115297Y21283D01*
X115258Y21199D01*
X115216Y21116D01*
X115170Y21035D01*
X115121Y20957D01*
X115068Y20880D01*
X115013Y20806D01*
X114955Y20734D01*
X114893Y20664D01*
X114829Y20597D01*
X114762Y20533D01*
X114692Y20471D01*
X114620Y20413D01*
X114546Y20357D01*
X114469Y20305D01*
X114391Y20256D01*
X114310Y20210D01*
X114227Y20167D01*
X114143Y20128D01*
X114057Y20093D01*
X113970Y20061D01*
X113882Y20032D01*
X113792Y20008D01*
X113702Y19987D01*
X113611Y19970D01*
X113519Y19956D01*
X113426Y19947D01*
X113334Y19941D01*
X113241Y19939D01*
X110814Y22366D02*
X115669Y28434D01*
X121638Y28434D02*
X124671Y30861D01*
X124671Y19939D01*
X121638Y19939D02*
X127705Y19939D01*
X133067Y22973D02*
X133069Y23081D01*
X133075Y23189D01*
X133084Y23297D01*
X133098Y23405D01*
X133115Y23512D01*
X133136Y23618D01*
X133161Y23723D01*
X133190Y23828D01*
X133222Y23931D01*
X133258Y24033D01*
X133298Y24134D01*
X133341Y24233D01*
X133388Y24331D01*
X133438Y24427D01*
X133492Y24521D01*
X133549Y24613D01*
X133609Y24703D01*
X133672Y24791D01*
X133739Y24877D01*
X133808Y24960D01*
X133880Y25040D01*
X133956Y25118D01*
X134034Y25194D01*
X134114Y25266D01*
X134197Y25335D01*
X134283Y25402D01*
X134371Y25465D01*
X134461Y25525D01*
X134553Y25582D01*
X134647Y25636D01*
X134743Y25686D01*
X134841Y25733D01*
X134940Y25776D01*
X135041Y25816D01*
X135143Y25852D01*
X135246Y25884D01*
X135351Y25913D01*
X135456Y25938D01*
X135562Y25959D01*
X135669Y25976D01*
X135777Y25990D01*
X135885Y25999D01*
X135993Y26005D01*
X136101Y26007D01*
X136209Y26005D01*
X136317Y25999D01*
X136425Y25990D01*
X136533Y25976D01*
X136640Y25959D01*
X136746Y25938D01*
X136851Y25913D01*
X136956Y25884D01*
X137059Y25852D01*
X137161Y25816D01*
X137262Y25776D01*
X137361Y25733D01*
X137459Y25686D01*
X137555Y25636D01*
X137649Y25582D01*
X137741Y25525D01*
X137831Y25465D01*
X137919Y25402D01*
X138005Y25335D01*
X138088Y25266D01*
X138168Y25194D01*
X138246Y25118D01*
X138322Y25040D01*
X138394Y24960D01*
X138463Y24877D01*
X138530Y24791D01*
X138593Y24703D01*
X138653Y24613D01*
X138710Y24521D01*
X138764Y24427D01*
X138814Y24331D01*
X138861Y24233D01*
X138904Y24134D01*
X138944Y24033D01*
X138980Y23931D01*
X139012Y23828D01*
X139041Y23723D01*
X139066Y23618D01*
X139087Y23512D01*
X139104Y23405D01*
X139118Y23297D01*
X139127Y23189D01*
X139133Y23081D01*
X139135Y22973D01*
X139133Y22865D01*
X139127Y22757D01*
X139118Y22649D01*
X139104Y22541D01*
X139087Y22434D01*
X139066Y22328D01*
X139041Y22223D01*
X139012Y22118D01*
X138980Y22015D01*
X138944Y21913D01*
X138904Y21812D01*
X138861Y21713D01*
X138814Y21615D01*
X138764Y21519D01*
X138710Y21425D01*
X138653Y21333D01*
X138593Y21243D01*
X138530Y21155D01*
X138463Y21069D01*
X138394Y20986D01*
X138322Y20906D01*
X138246Y20828D01*
X138168Y20752D01*
X138088Y20680D01*
X138005Y20611D01*
X137919Y20544D01*
X137831Y20481D01*
X137741Y20421D01*
X137649Y20364D01*
X137555Y20310D01*
X137459Y20260D01*
X137361Y20213D01*
X137262Y20170D01*
X137161Y20130D01*
X137059Y20094D01*
X136956Y20062D01*
X136851Y20033D01*
X136746Y20008D01*
X136640Y19987D01*
X136533Y19970D01*
X136425Y19956D01*
X136317Y19947D01*
X136209Y19941D01*
X136101Y19939D01*
X135993Y19941D01*
X135885Y19947D01*
X135777Y19956D01*
X135669Y19970D01*
X135562Y19987D01*
X135456Y20008D01*
X135351Y20033D01*
X135246Y20062D01*
X135143Y20094D01*
X135041Y20130D01*
X134940Y20170D01*
X134841Y20213D01*
X134743Y20260D01*
X134647Y20310D01*
X134553Y20364D01*
X134461Y20421D01*
X134371Y20481D01*
X134283Y20544D01*
X134197Y20611D01*
X134114Y20680D01*
X134034Y20752D01*
X133956Y20828D01*
X133880Y20906D01*
X133808Y20986D01*
X133739Y21069D01*
X133672Y21155D01*
X133609Y21243D01*
X133549Y21333D01*
X133492Y21425D01*
X133438Y21519D01*
X133388Y21615D01*
X133341Y21713D01*
X133298Y21812D01*
X133258Y21913D01*
X133222Y22015D01*
X133190Y22118D01*
X133161Y22223D01*
X133136Y22328D01*
X133115Y22434D01*
X133098Y22541D01*
X133084Y22649D01*
X133075Y22757D01*
X133069Y22865D01*
X133067Y22973D01*
X133674Y28434D02*
X133676Y28532D01*
X133682Y28629D01*
X133692Y28727D01*
X133705Y28823D01*
X133723Y28919D01*
X133745Y29015D01*
X133770Y29109D01*
X133799Y29203D01*
X133832Y29295D01*
X133868Y29385D01*
X133908Y29474D01*
X133952Y29562D01*
X133999Y29648D01*
X134050Y29731D01*
X134104Y29813D01*
X134161Y29892D01*
X134221Y29969D01*
X134284Y30043D01*
X134351Y30115D01*
X134420Y30184D01*
X134492Y30251D01*
X134566Y30314D01*
X134643Y30374D01*
X134722Y30431D01*
X134804Y30485D01*
X134888Y30536D01*
X134973Y30583D01*
X135061Y30627D01*
X135150Y30667D01*
X135240Y30703D01*
X135332Y30736D01*
X135426Y30765D01*
X135520Y30790D01*
X135616Y30812D01*
X135712Y30830D01*
X135808Y30843D01*
X135906Y30853D01*
X136003Y30859D01*
X136101Y30861D01*
X136199Y30859D01*
X136296Y30853D01*
X136394Y30843D01*
X136490Y30830D01*
X136586Y30812D01*
X136682Y30790D01*
X136776Y30765D01*
X136870Y30736D01*
X136962Y30703D01*
X137052Y30667D01*
X137141Y30627D01*
X137229Y30583D01*
X137315Y30536D01*
X137398Y30485D01*
X137480Y30431D01*
X137559Y30374D01*
X137636Y30314D01*
X137710Y30251D01*
X137782Y30184D01*
X137851Y30115D01*
X137918Y30043D01*
X137981Y29969D01*
X138041Y29892D01*
X138098Y29813D01*
X138152Y29731D01*
X138203Y29648D01*
X138250Y29562D01*
X138294Y29474D01*
X138334Y29385D01*
X138370Y29295D01*
X138403Y29203D01*
X138432Y29109D01*
X138457Y29015D01*
X138479Y28919D01*
X138497Y28823D01*
X138510Y28727D01*
X138520Y28629D01*
X138526Y28532D01*
X138528Y28434D01*
X138526Y28336D01*
X138520Y28239D01*
X138510Y28141D01*
X138497Y28045D01*
X138479Y27949D01*
X138457Y27853D01*
X138432Y27759D01*
X138403Y27665D01*
X138370Y27573D01*
X138334Y27483D01*
X138294Y27394D01*
X138250Y27306D01*
X138203Y27220D01*
X138152Y27137D01*
X138098Y27055D01*
X138041Y26976D01*
X137981Y26899D01*
X137918Y26825D01*
X137851Y26753D01*
X137782Y26684D01*
X137710Y26617D01*
X137636Y26554D01*
X137559Y26494D01*
X137480Y26437D01*
X137398Y26383D01*
X137314Y26332D01*
X137229Y26285D01*
X137141Y26241D01*
X137052Y26201D01*
X136962Y26165D01*
X136870Y26132D01*
X136776Y26103D01*
X136682Y26078D01*
X136586Y26056D01*
X136490Y26038D01*
X136394Y26025D01*
X136296Y26015D01*
X136199Y26009D01*
X136101Y26007D01*
X136003Y26009D01*
X135906Y26015D01*
X135808Y26025D01*
X135712Y26038D01*
X135616Y26056D01*
X135520Y26078D01*
X135426Y26103D01*
X135332Y26132D01*
X135240Y26165D01*
X135150Y26201D01*
X135061Y26241D01*
X134973Y26285D01*
X134888Y26332D01*
X134804Y26383D01*
X134722Y26437D01*
X134643Y26494D01*
X134566Y26554D01*
X134492Y26617D01*
X134420Y26684D01*
X134351Y26753D01*
X134284Y26825D01*
X134221Y26899D01*
X134161Y26976D01*
X134104Y27055D01*
X134050Y27137D01*
X133999Y27221D01*
X133952Y27306D01*
X133908Y27394D01*
X133868Y27483D01*
X133832Y27573D01*
X133799Y27665D01*
X133770Y27759D01*
X133745Y27853D01*
X133723Y27949D01*
X133705Y28045D01*
X133692Y28141D01*
X133682Y28239D01*
X133676Y28336D01*
X133674Y28434D01*
X19657Y70457D02*
X17836Y70457D01*
X19657Y70457D02*
X19657Y64389D01*
X16016Y64389D01*
X15918Y64391D01*
X15821Y64397D01*
X15723Y64407D01*
X15627Y64420D01*
X15531Y64438D01*
X15435Y64460D01*
X15341Y64485D01*
X15247Y64514D01*
X15155Y64547D01*
X15065Y64583D01*
X14976Y64623D01*
X14888Y64667D01*
X14802Y64714D01*
X14719Y64765D01*
X14637Y64819D01*
X14558Y64876D01*
X14481Y64936D01*
X14407Y64999D01*
X14335Y65066D01*
X14266Y65135D01*
X14199Y65207D01*
X14136Y65281D01*
X14076Y65358D01*
X14019Y65437D01*
X13965Y65519D01*
X13914Y65603D01*
X13867Y65688D01*
X13823Y65776D01*
X13783Y65865D01*
X13747Y65955D01*
X13714Y66047D01*
X13685Y66141D01*
X13660Y66235D01*
X13638Y66331D01*
X13620Y66427D01*
X13607Y66523D01*
X13597Y66621D01*
X13591Y66718D01*
X13589Y66816D01*
X13589Y72884D01*
X13591Y72982D01*
X13597Y73079D01*
X13607Y73177D01*
X13620Y73273D01*
X13638Y73369D01*
X13660Y73465D01*
X13685Y73559D01*
X13714Y73653D01*
X13747Y73745D01*
X13783Y73835D01*
X13823Y73924D01*
X13867Y74012D01*
X13914Y74097D01*
X13965Y74181D01*
X14019Y74263D01*
X14076Y74342D01*
X14136Y74419D01*
X14199Y74493D01*
X14266Y74565D01*
X14335Y74634D01*
X14407Y74701D01*
X14481Y74764D01*
X14558Y74824D01*
X14637Y74881D01*
X14719Y74935D01*
X14802Y74986D01*
X14888Y75033D01*
X14976Y75077D01*
X15065Y75117D01*
X15155Y75153D01*
X15247Y75186D01*
X15341Y75215D01*
X15435Y75240D01*
X15531Y75262D01*
X15627Y75280D01*
X15723Y75293D01*
X15821Y75303D01*
X15918Y75309D01*
X16016Y75311D01*
X19657Y75311D01*
X27287Y68636D02*
X30018Y68636D01*
X27287Y68637D02*
X27196Y68635D01*
X27104Y68629D01*
X27014Y68619D01*
X26923Y68606D01*
X26833Y68588D01*
X26745Y68567D01*
X26657Y68541D01*
X26570Y68512D01*
X26485Y68480D01*
X26401Y68443D01*
X26319Y68403D01*
X26238Y68360D01*
X26160Y68313D01*
X26083Y68263D01*
X26009Y68210D01*
X25937Y68153D01*
X25868Y68093D01*
X25801Y68031D01*
X25737Y67966D01*
X25676Y67898D01*
X25618Y67827D01*
X25563Y67754D01*
X25511Y67679D01*
X25463Y67601D01*
X25418Y67522D01*
X25376Y67440D01*
X25338Y67357D01*
X25304Y67273D01*
X25273Y67187D01*
X25246Y67099D01*
X25222Y67011D01*
X25203Y66922D01*
X25187Y66832D01*
X25175Y66741D01*
X25167Y66650D01*
X25163Y66559D01*
X25163Y66467D01*
X25167Y66376D01*
X25175Y66285D01*
X25187Y66194D01*
X25203Y66104D01*
X25222Y66015D01*
X25246Y65927D01*
X25273Y65839D01*
X25304Y65753D01*
X25338Y65669D01*
X25376Y65586D01*
X25418Y65504D01*
X25463Y65425D01*
X25511Y65347D01*
X25563Y65272D01*
X25618Y65199D01*
X25676Y65128D01*
X25737Y65060D01*
X25801Y64995D01*
X25868Y64933D01*
X25937Y64873D01*
X26009Y64816D01*
X26083Y64763D01*
X26160Y64713D01*
X26238Y64666D01*
X26319Y64623D01*
X26401Y64583D01*
X26485Y64546D01*
X26570Y64514D01*
X26657Y64485D01*
X26745Y64459D01*
X26833Y64438D01*
X26923Y64420D01*
X27014Y64407D01*
X27104Y64397D01*
X27196Y64391D01*
X27287Y64389D01*
X30018Y64389D01*
X30018Y69850D01*
X30016Y69934D01*
X30010Y70018D01*
X30001Y70101D01*
X29987Y70184D01*
X29970Y70267D01*
X29949Y70348D01*
X29924Y70428D01*
X29895Y70507D01*
X29863Y70585D01*
X29827Y70661D01*
X29788Y70736D01*
X29745Y70808D01*
X29699Y70879D01*
X29650Y70947D01*
X29598Y71013D01*
X29543Y71076D01*
X29485Y71137D01*
X29424Y71195D01*
X29361Y71250D01*
X29295Y71302D01*
X29227Y71351D01*
X29156Y71397D01*
X29084Y71440D01*
X29009Y71479D01*
X28933Y71515D01*
X28855Y71547D01*
X28776Y71576D01*
X28696Y71601D01*
X28615Y71622D01*
X28532Y71639D01*
X28449Y71653D01*
X28366Y71662D01*
X28282Y71668D01*
X28198Y71670D01*
X25771Y71670D01*
X34488Y71670D02*
X38128Y71670D01*
X35701Y75311D02*
X35701Y66209D01*
X35703Y66125D01*
X35709Y66041D01*
X35718Y65958D01*
X35732Y65875D01*
X35749Y65792D01*
X35770Y65711D01*
X35795Y65631D01*
X35824Y65552D01*
X35856Y65474D01*
X35892Y65398D01*
X35931Y65323D01*
X35974Y65251D01*
X36020Y65180D01*
X36069Y65112D01*
X36121Y65046D01*
X36176Y64983D01*
X36234Y64922D01*
X36295Y64864D01*
X36358Y64809D01*
X36424Y64757D01*
X36492Y64707D01*
X36563Y64662D01*
X36635Y64619D01*
X36710Y64580D01*
X36786Y64544D01*
X36864Y64512D01*
X36943Y64483D01*
X37023Y64458D01*
X37104Y64437D01*
X37187Y64420D01*
X37270Y64406D01*
X37353Y64397D01*
X37437Y64391D01*
X37521Y64389D01*
X38128Y64389D01*
X44591Y64389D02*
X47625Y64389D01*
X44591Y64389D02*
X44507Y64391D01*
X44423Y64397D01*
X44340Y64406D01*
X44257Y64420D01*
X44174Y64437D01*
X44093Y64458D01*
X44013Y64483D01*
X43934Y64512D01*
X43856Y64544D01*
X43780Y64580D01*
X43705Y64619D01*
X43633Y64662D01*
X43562Y64708D01*
X43494Y64757D01*
X43428Y64809D01*
X43365Y64864D01*
X43304Y64922D01*
X43246Y64983D01*
X43191Y65046D01*
X43139Y65112D01*
X43090Y65180D01*
X43044Y65251D01*
X43001Y65323D01*
X42962Y65398D01*
X42926Y65474D01*
X42894Y65552D01*
X42865Y65631D01*
X42840Y65711D01*
X42819Y65792D01*
X42802Y65875D01*
X42788Y65958D01*
X42779Y66041D01*
X42773Y66125D01*
X42771Y66209D01*
X42771Y69243D01*
X42773Y69341D01*
X42779Y69438D01*
X42789Y69536D01*
X42802Y69632D01*
X42820Y69728D01*
X42842Y69824D01*
X42867Y69918D01*
X42896Y70012D01*
X42929Y70104D01*
X42965Y70194D01*
X43005Y70283D01*
X43049Y70371D01*
X43096Y70457D01*
X43147Y70540D01*
X43201Y70622D01*
X43258Y70701D01*
X43318Y70778D01*
X43381Y70852D01*
X43448Y70924D01*
X43517Y70993D01*
X43589Y71060D01*
X43663Y71123D01*
X43740Y71183D01*
X43819Y71240D01*
X43901Y71294D01*
X43985Y71345D01*
X44070Y71392D01*
X44158Y71436D01*
X44247Y71476D01*
X44337Y71512D01*
X44429Y71545D01*
X44523Y71574D01*
X44617Y71599D01*
X44713Y71621D01*
X44809Y71639D01*
X44905Y71652D01*
X45003Y71662D01*
X45100Y71668D01*
X45198Y71670D01*
X45296Y71668D01*
X45393Y71662D01*
X45491Y71652D01*
X45587Y71639D01*
X45683Y71621D01*
X45779Y71599D01*
X45873Y71574D01*
X45967Y71545D01*
X46059Y71512D01*
X46149Y71476D01*
X46238Y71436D01*
X46326Y71392D01*
X46412Y71345D01*
X46495Y71294D01*
X46577Y71240D01*
X46656Y71183D01*
X46733Y71123D01*
X46807Y71060D01*
X46879Y70993D01*
X46948Y70924D01*
X47015Y70852D01*
X47078Y70778D01*
X47138Y70701D01*
X47195Y70622D01*
X47249Y70540D01*
X47300Y70457D01*
X47347Y70371D01*
X47391Y70283D01*
X47431Y70194D01*
X47467Y70104D01*
X47500Y70012D01*
X47529Y69918D01*
X47554Y69824D01*
X47576Y69728D01*
X47594Y69632D01*
X47607Y69536D01*
X47617Y69438D01*
X47623Y69341D01*
X47625Y69243D01*
X47625Y68030D01*
X42771Y68030D01*
X57450Y64389D02*
X57450Y75311D01*
X57450Y64389D02*
X54416Y64389D01*
X54332Y64391D01*
X54248Y64397D01*
X54165Y64406D01*
X54082Y64420D01*
X53999Y64437D01*
X53918Y64458D01*
X53838Y64483D01*
X53759Y64512D01*
X53681Y64544D01*
X53605Y64580D01*
X53530Y64619D01*
X53458Y64662D01*
X53387Y64708D01*
X53319Y64757D01*
X53253Y64809D01*
X53190Y64864D01*
X53129Y64922D01*
X53071Y64983D01*
X53016Y65046D01*
X52964Y65112D01*
X52915Y65180D01*
X52869Y65251D01*
X52826Y65323D01*
X52787Y65398D01*
X52751Y65474D01*
X52719Y65552D01*
X52690Y65631D01*
X52665Y65711D01*
X52644Y65792D01*
X52627Y65875D01*
X52613Y65958D01*
X52604Y66041D01*
X52598Y66125D01*
X52596Y66209D01*
X52596Y69850D01*
X52598Y69934D01*
X52604Y70018D01*
X52613Y70101D01*
X52627Y70184D01*
X52644Y70267D01*
X52665Y70348D01*
X52690Y70428D01*
X52719Y70507D01*
X52751Y70585D01*
X52787Y70661D01*
X52826Y70736D01*
X52869Y70808D01*
X52915Y70879D01*
X52964Y70947D01*
X53016Y71013D01*
X53071Y71076D01*
X53129Y71137D01*
X53190Y71195D01*
X53253Y71250D01*
X53319Y71302D01*
X53387Y71351D01*
X53458Y71397D01*
X53530Y71440D01*
X53605Y71479D01*
X53681Y71515D01*
X53759Y71547D01*
X53838Y71576D01*
X53918Y71601D01*
X53999Y71622D01*
X54082Y71639D01*
X54165Y71653D01*
X54248Y71662D01*
X54332Y71668D01*
X54416Y71670D01*
X57450Y71670D01*
D11*
X139700Y82550D02*
X165100Y82550D01*
X139700Y82550D02*
X139700Y95250D01*
X165100Y95250D01*
X165100Y82550D01*
X165100Y184150D02*
X139700Y184150D01*
X165100Y184150D02*
X165100Y171450D01*
X139700Y171450D01*
X139700Y184150D01*
X114300Y82550D02*
X88900Y82550D01*
X88900Y95250D01*
X114300Y95250D01*
X114300Y82550D01*
X101600Y196850D02*
X76200Y196850D01*
X101600Y196850D02*
X101600Y184150D01*
X76200Y184150D01*
X76200Y196850D01*
X190500Y95250D02*
X215900Y95250D01*
X215900Y82550D01*
X190500Y82550D01*
X190500Y95250D01*
X190500Y234950D02*
X215900Y234950D01*
X215900Y222250D01*
X190500Y222250D01*
X190500Y234950D01*
X136550Y214175D02*
X92050Y214175D01*
X92050Y236675D01*
X136550Y236675D01*
X136550Y214175D01*
X160400Y157400D02*
X160400Y147400D01*
X160400Y138400D02*
X160400Y137900D01*
X144400Y137900D01*
X144400Y138400D01*
X144400Y166400D02*
X144400Y166900D01*
X160400Y166900D01*
X160400Y166400D01*
X330200Y288800D02*
X345200Y288800D01*
X345200Y267550D01*
X345200Y215050D01*
X345200Y193800D01*
X330200Y193800D01*
X330200Y288800D01*
X345200Y267550D02*
X420200Y267550D01*
X408950Y215050D02*
X345200Y215050D01*
X420200Y215050D02*
X420200Y267550D01*
X420200Y215050D02*
X410200Y215050D01*
X377700Y212550D02*
X373950Y270050D01*
X380200Y270050D02*
X383950Y212550D01*
X390200Y212550D02*
X386450Y270050D01*
X392700Y270050D02*
X396450Y212550D01*
X402700Y212550D02*
X398950Y270050D01*
X405200Y270050D02*
X408950Y212550D01*
X345200Y123700D02*
X330200Y123700D01*
X345200Y123700D02*
X345200Y102450D01*
X345200Y49950D01*
X345200Y28700D01*
X330200Y28700D01*
X330200Y123700D01*
X345200Y102450D02*
X420200Y102450D01*
X408950Y49950D02*
X345200Y49950D01*
X420200Y49950D02*
X420200Y102450D01*
X420200Y49950D02*
X410200Y49950D01*
X377700Y47450D02*
X373950Y104950D01*
X380200Y104950D02*
X383950Y47450D01*
X390200Y47450D02*
X386450Y104950D01*
X392700Y104950D02*
X396450Y47450D01*
X402700Y47450D02*
X398950Y104950D01*
X405200Y104950D02*
X408950Y47450D01*
X0Y117600D02*
X-15000Y117600D01*
X-15000Y138850D01*
X-15000Y191350D01*
X-15000Y212600D01*
X0Y212600D01*
X0Y117600D01*
X-15000Y138850D02*
X-90000Y138850D01*
X-78750Y191350D02*
X-15000Y191350D01*
X-90000Y191350D02*
X-90000Y138850D01*
X-90000Y191350D02*
X-80000Y191350D01*
X-47500Y193850D02*
X-43750Y136350D01*
X-50000Y136350D02*
X-53750Y193850D01*
X-60000Y193850D02*
X-56250Y136350D01*
X-62500Y136350D02*
X-66250Y193850D01*
X-72500Y193850D02*
X-68750Y136350D01*
X-75000Y136350D02*
X-78750Y193850D01*
X228475Y250300D02*
X260475Y250300D01*
X260475Y232300D01*
X228475Y232300D01*
X228475Y250300D01*
X228475Y85200D02*
X260475Y85200D01*
X260475Y67200D01*
X228475Y67200D01*
X228475Y85200D01*
X144400Y109300D02*
X144400Y119300D01*
X144400Y128300D02*
X144400Y128800D01*
X160400Y128800D01*
X160400Y128300D01*
X160400Y100300D02*
X160400Y99800D01*
X144400Y99800D01*
X144400Y100300D01*
X211200Y198200D02*
X211200Y208200D01*
X211200Y189200D02*
X211200Y188700D01*
X195200Y188700D01*
X195200Y189200D01*
X195200Y217200D02*
X195200Y217700D01*
X211200Y217700D01*
X211200Y217200D01*
X211200Y68500D02*
X211200Y58500D01*
X211200Y49500D02*
X211200Y49000D01*
X195200Y49000D01*
X195200Y49500D01*
X195200Y77500D02*
X195200Y78000D01*
X211200Y78000D01*
X211200Y77500D01*
X93600Y109300D02*
X93600Y119300D01*
X93600Y128300D02*
X93600Y128800D01*
X109600Y128800D01*
X109600Y128300D01*
X109600Y100300D02*
X109600Y99800D01*
X93600Y99800D01*
X93600Y100300D01*
X96900Y160100D02*
X96900Y170100D01*
X96900Y151100D02*
X96900Y150600D01*
X80900Y150600D01*
X80900Y151100D01*
X80900Y179100D02*
X80900Y179600D01*
X96900Y179600D01*
X96900Y179100D01*
X188175Y241575D02*
X188175Y260075D01*
X188175Y241575D02*
X218225Y241575D01*
X218225Y260075D01*
X188175Y260075D01*
X227750Y158475D02*
X227750Y139975D01*
X227750Y158475D02*
X197700Y158475D01*
X197700Y139975D01*
X227750Y139975D01*
X139725Y39550D02*
X95225Y39550D01*
X95225Y62050D01*
X139725Y62050D01*
X139725Y39550D01*
X44450Y266700D02*
X44450Y292100D01*
X44450Y266700D02*
X95250Y266700D01*
X95250Y292100D01*
X44450Y292100D01*
M02*
