M48
;GenerationSoftware,Autodesk,EAGLE,9.5.0*%
;CreationDate,2019-09-19T00:18:54Z*%
FMAT,2
ICI,OFF
METRIC,TZ,000.000
T4C0.300
T3C0.350
T2C1.000
%
G90
M71
T2
X1905Y5080
X1905Y2540
T3
X10795Y13335
X10160Y12065
X8890Y12065
X12065Y13335
X28448Y10922
X27178Y10922
X25908Y10922
X28448Y12192
X27178Y12192
X25908Y12192
X24511Y12954
X30480Y10541
X30480Y12700
X33020Y10668
X33020Y12319
X31750Y9779
X33020Y9779
X31750Y13208
X33020Y13208
X29718Y12192
X29718Y10922
X24638Y10922
X24638Y12192
X33020Y11557
X9525Y13335
T4
X20828Y3937
X5461Y3302
X14478Y12192
X14224Y4445
X7366Y16764
X8255Y16764
X6858Y15494
X8890Y15494
X6858Y16129
X8890Y16129
X19939Y12192
X22098Y5207
X22098Y4572
X21463Y3937
X19812Y3937
X19050Y3937
X19431Y14859
X20955Y14859
X21717Y9779
X4699Y3302
X6350Y1905
X6350Y2667
X21717Y9271
X18669Y9525
X14224Y5207
X3683Y11049
X28448Y8128
X28448Y6858
X36322Y6858
X34036Y6858
X30734Y6858
X31496Y9017
X33274Y9017
X1143Y14351
X1143Y11049
X3683Y14351
X28448Y5588
X1143Y8763
X3683Y8763
X1143Y16637
X3683Y16637
X2413Y16637
X2413Y8763
X2413Y11049
X2413Y14351
X4572Y13589
X4572Y11811
X28448Y16002
X5461Y1270
X34036Y17272
X30734Y17272
X34036Y14732
X30734Y14732
X28448Y17272
X28448Y14732
X36322Y17272
X36322Y14732
X36322Y16002
X4699Y1270
X30734Y16002
X34036Y16002
X33274Y13843
X31496Y13843
X30734Y5588
X34036Y5588
X30734Y8128
X34036Y8128
X36322Y5588
X36322Y8128
X18542Y10795
X5080Y13335
X10033Y7620
X10033Y8255
X9525Y3810
X8763Y3810
X13970Y9779
X13462Y9398
X18542Y13589
X5080Y12065
X17907Y13589
X17907Y10795
X17145Y13208
X17145Y11303
X18161Y3810
X17526Y3810
X16383Y3937
X15748Y3937
X15494Y14097
X12192Y10033
X15494Y7874
X16129Y7874
X16637Y8636
X15113Y8636
X13462Y10795
X13462Y10160
X15494Y13462
X21463Y13589
X14732Y15748
X13208Y15748
X13589Y16637
X14351Y16637
X5080Y7747
X5715Y7747
X5080Y10033
X5715Y10033
X13208Y14732
X5842Y6350
X5080Y4445
X4318Y4445
X5842Y4445
X11557Y10033
X11049Y12065
X11049Y11557
X14732Y14732
X5080Y6350
X13462Y13970
X14986Y10033
X14986Y9398
X16764Y10033
X16764Y9398
X10541Y3810
X11303Y3810
X12573Y3810
X18669Y8509
X21463Y10795
X21844Y14097
X21971Y10414
X19558Y7747
X20828Y7747
X21590Y7747
X21717Y8509
X18796Y7747
X13462Y3810
X23368Y13716
X24003Y13716
X20574Y16637
X19812Y16637
X19431Y15875
X20955Y15875
X4318Y6350
M30