G04 EAGLE Gerber RS-274X export*
G75*
%MOMM*%
%FSLAX34Y34*%
%LPD*%
%INInner Layer 2*%
%IPPOS*%
%AMOC8*
5,1,8,0,0,1.08239X$1,22.5*%
G01*
%ADD10C,0.503200*%
%ADD11C,1.500000*%
%ADD12C,0.553200*%

G36*
X236920Y3822D02*
X236920Y3822D01*
X236986Y3824D01*
X237029Y3842D01*
X237076Y3850D01*
X237133Y3884D01*
X237193Y3909D01*
X237228Y3940D01*
X237269Y3965D01*
X237311Y4016D01*
X237359Y4060D01*
X237381Y4102D01*
X237410Y4139D01*
X237431Y4201D01*
X237462Y4260D01*
X237470Y4314D01*
X237482Y4351D01*
X237481Y4391D01*
X237489Y4445D01*
X237489Y46028D01*
X239722Y48261D01*
X310515Y48261D01*
X310580Y48272D01*
X310646Y48274D01*
X310689Y48292D01*
X310736Y48300D01*
X310793Y48334D01*
X310853Y48359D01*
X310888Y48390D01*
X310929Y48415D01*
X310971Y48466D01*
X311019Y48510D01*
X311041Y48552D01*
X311070Y48589D01*
X311091Y48651D01*
X311122Y48710D01*
X311130Y48764D01*
X311142Y48801D01*
X311141Y48841D01*
X311149Y48895D01*
X311149Y52803D01*
X311134Y52891D01*
X311124Y52979D01*
X311114Y53000D01*
X311110Y53024D01*
X311064Y53100D01*
X311025Y53180D01*
X311008Y53196D01*
X310995Y53217D01*
X310926Y53273D01*
X310862Y53334D01*
X310840Y53343D01*
X310821Y53358D01*
X310737Y53387D01*
X310655Y53421D01*
X310631Y53423D01*
X310609Y53430D01*
X310520Y53427D01*
X310431Y53431D01*
X310408Y53424D01*
X310384Y53423D01*
X310302Y53390D01*
X310217Y53363D01*
X310196Y53347D01*
X310177Y53339D01*
X310139Y53305D01*
X310067Y53251D01*
X308909Y52093D01*
X305771Y52093D01*
X303553Y54311D01*
X303553Y57449D01*
X305771Y59667D01*
X308909Y59667D01*
X310067Y58509D01*
X310094Y58490D01*
X310097Y58486D01*
X310104Y58483D01*
X310140Y58458D01*
X310209Y58402D01*
X310231Y58394D01*
X310251Y58381D01*
X310337Y58358D01*
X310421Y58330D01*
X310445Y58331D01*
X310468Y58325D01*
X310557Y58334D01*
X310646Y58337D01*
X310668Y58345D01*
X310691Y58348D01*
X310771Y58387D01*
X310853Y58421D01*
X310871Y58437D01*
X310892Y58447D01*
X310953Y58512D01*
X311019Y58572D01*
X311030Y58593D01*
X311046Y58611D01*
X311081Y58693D01*
X311122Y58772D01*
X311125Y58798D01*
X311134Y58817D01*
X311136Y58868D01*
X311139Y58886D01*
X311142Y58897D01*
X311142Y58908D01*
X311149Y58957D01*
X311149Y65503D01*
X311134Y65591D01*
X311124Y65679D01*
X311114Y65700D01*
X311110Y65724D01*
X311064Y65800D01*
X311025Y65880D01*
X311008Y65896D01*
X310995Y65917D01*
X310926Y65973D01*
X310862Y66034D01*
X310840Y66043D01*
X310821Y66058D01*
X310737Y66087D01*
X310655Y66121D01*
X310631Y66123D01*
X310609Y66130D01*
X310520Y66127D01*
X310431Y66131D01*
X310408Y66124D01*
X310384Y66123D01*
X310302Y66090D01*
X310217Y66063D01*
X310196Y66047D01*
X310177Y66039D01*
X310139Y66005D01*
X310067Y65951D01*
X308909Y64793D01*
X305771Y64793D01*
X303553Y67011D01*
X303553Y70149D01*
X305771Y72367D01*
X308909Y72367D01*
X310067Y71209D01*
X310097Y71187D01*
X310112Y71171D01*
X310142Y71156D01*
X310209Y71102D01*
X310231Y71094D01*
X310251Y71081D01*
X310337Y71058D01*
X310421Y71030D01*
X310445Y71031D01*
X310468Y71025D01*
X310557Y71034D01*
X310646Y71037D01*
X310668Y71045D01*
X310691Y71048D01*
X310771Y71087D01*
X310853Y71121D01*
X310871Y71137D01*
X310892Y71147D01*
X310953Y71212D01*
X311019Y71272D01*
X311030Y71293D01*
X311046Y71311D01*
X311081Y71393D01*
X311122Y71472D01*
X311125Y71498D01*
X311134Y71517D01*
X311136Y71562D01*
X311142Y71582D01*
X311142Y71606D01*
X311149Y71657D01*
X311149Y78203D01*
X311134Y78291D01*
X311124Y78379D01*
X311114Y78400D01*
X311110Y78424D01*
X311064Y78500D01*
X311025Y78580D01*
X311008Y78596D01*
X310995Y78617D01*
X310926Y78673D01*
X310862Y78734D01*
X310840Y78743D01*
X310821Y78758D01*
X310737Y78787D01*
X310655Y78821D01*
X310631Y78823D01*
X310609Y78830D01*
X310520Y78827D01*
X310431Y78831D01*
X310408Y78824D01*
X310384Y78823D01*
X310302Y78790D01*
X310217Y78763D01*
X310196Y78747D01*
X310177Y78739D01*
X310139Y78705D01*
X310067Y78651D01*
X308909Y77493D01*
X305771Y77493D01*
X303553Y79711D01*
X303553Y82849D01*
X305771Y85067D01*
X308909Y85067D01*
X310067Y83909D01*
X310101Y83885D01*
X310127Y83856D01*
X310167Y83836D01*
X310209Y83802D01*
X310231Y83794D01*
X310251Y83781D01*
X310298Y83768D01*
X310326Y83754D01*
X310369Y83748D01*
X310421Y83730D01*
X310445Y83731D01*
X310468Y83725D01*
X310500Y83728D01*
X310512Y83726D01*
X310515Y83726D01*
X310558Y83734D01*
X310646Y83737D01*
X310668Y83745D01*
X310691Y83748D01*
X310723Y83764D01*
X310736Y83766D01*
X310775Y83789D01*
X310853Y83821D01*
X310871Y83837D01*
X310892Y83847D01*
X310916Y83872D01*
X310929Y83880D01*
X310960Y83918D01*
X311019Y83972D01*
X311030Y83993D01*
X311046Y84011D01*
X311058Y84039D01*
X311070Y84054D01*
X311088Y84107D01*
X311122Y84172D01*
X311125Y84198D01*
X311134Y84217D01*
X311135Y84245D01*
X311142Y84267D01*
X311141Y84303D01*
X311149Y84357D01*
X311149Y90296D01*
X311159Y90361D01*
X311172Y90410D01*
X311169Y90431D01*
X311173Y90457D01*
X311173Y91739D01*
X313391Y93957D01*
X314093Y93957D01*
X314181Y93972D01*
X314269Y93982D01*
X314291Y93992D01*
X314314Y93996D01*
X314391Y94042D01*
X314471Y94081D01*
X314487Y94098D01*
X314507Y94111D01*
X314563Y94180D01*
X314624Y94244D01*
X314634Y94266D01*
X314649Y94285D01*
X314677Y94369D01*
X314712Y94451D01*
X314713Y94475D01*
X314721Y94497D01*
X314718Y94586D01*
X314722Y94675D01*
X314715Y94698D01*
X314714Y94722D01*
X314680Y94804D01*
X314653Y94889D01*
X314638Y94910D01*
X314630Y94929D01*
X314596Y94967D01*
X314542Y95039D01*
X313463Y96118D01*
X313463Y99462D01*
X315828Y101827D01*
X319172Y101827D01*
X321537Y99462D01*
X321537Y96118D01*
X319172Y93753D01*
X318263Y93753D01*
X318175Y93738D01*
X318087Y93728D01*
X318066Y93718D01*
X318042Y93714D01*
X317966Y93668D01*
X317886Y93629D01*
X317870Y93612D01*
X317849Y93599D01*
X317793Y93530D01*
X317732Y93466D01*
X317723Y93444D01*
X317708Y93425D01*
X317679Y93341D01*
X317645Y93259D01*
X317643Y93235D01*
X317636Y93213D01*
X317639Y93124D01*
X317635Y93035D01*
X317642Y93012D01*
X317643Y92988D01*
X317676Y92906D01*
X317703Y92821D01*
X317719Y92800D01*
X317727Y92781D01*
X317761Y92743D01*
X317815Y92671D01*
X318747Y91739D01*
X318747Y90805D01*
X318758Y90740D01*
X318760Y90674D01*
X318778Y90631D01*
X318786Y90584D01*
X318820Y90527D01*
X318845Y90467D01*
X318876Y90432D01*
X318901Y90391D01*
X318952Y90349D01*
X318996Y90301D01*
X319038Y90279D01*
X319075Y90250D01*
X319137Y90229D01*
X319196Y90198D01*
X319250Y90190D01*
X319287Y90178D01*
X319327Y90179D01*
X319381Y90171D01*
X328319Y90171D01*
X328384Y90182D01*
X328450Y90184D01*
X328493Y90202D01*
X328540Y90210D01*
X328597Y90244D01*
X328657Y90269D01*
X328692Y90300D01*
X328733Y90325D01*
X328775Y90376D01*
X328823Y90420D01*
X328845Y90462D01*
X328874Y90499D01*
X328895Y90561D01*
X328926Y90620D01*
X328934Y90674D01*
X328946Y90711D01*
X328945Y90751D01*
X328953Y90805D01*
X328953Y91739D01*
X329885Y92671D01*
X329936Y92744D01*
X329992Y92813D01*
X330000Y92835D01*
X330013Y92855D01*
X330036Y92941D01*
X330064Y93025D01*
X330063Y93049D01*
X330069Y93072D01*
X330060Y93161D01*
X330057Y93250D01*
X330049Y93272D01*
X330046Y93295D01*
X330007Y93375D01*
X329973Y93457D01*
X329957Y93475D01*
X329947Y93496D01*
X329882Y93557D01*
X329822Y93623D01*
X329801Y93634D01*
X329783Y93650D01*
X329701Y93685D01*
X329622Y93726D01*
X329596Y93729D01*
X329577Y93738D01*
X329526Y93740D01*
X329437Y93753D01*
X328528Y93753D01*
X326163Y96118D01*
X326163Y99462D01*
X328488Y101786D01*
X328525Y101841D01*
X328570Y101888D01*
X328589Y101932D01*
X328616Y101971D01*
X328632Y102034D01*
X328658Y102095D01*
X328660Y102142D01*
X328672Y102188D01*
X328665Y102253D01*
X328668Y102319D01*
X328653Y102364D01*
X328649Y102411D01*
X328619Y102470D01*
X328599Y102533D01*
X328567Y102577D01*
X328549Y102612D01*
X328520Y102639D01*
X328488Y102683D01*
X326163Y105008D01*
X326163Y108352D01*
X328488Y110676D01*
X328525Y110731D01*
X328570Y110778D01*
X328589Y110822D01*
X328616Y110861D01*
X328632Y110924D01*
X328658Y110985D01*
X328660Y111032D01*
X328672Y111078D01*
X328665Y111143D01*
X328668Y111209D01*
X328653Y111254D01*
X328649Y111301D01*
X328619Y111360D01*
X328599Y111423D01*
X328567Y111467D01*
X328549Y111502D01*
X328520Y111529D01*
X328488Y111573D01*
X326163Y113898D01*
X326163Y117242D01*
X327853Y118932D01*
X327890Y118986D01*
X327935Y119033D01*
X327954Y119077D01*
X327981Y119116D01*
X327997Y119179D01*
X328023Y119240D01*
X328025Y119287D01*
X328037Y119333D01*
X328030Y119398D01*
X328033Y119464D01*
X328018Y119509D01*
X328014Y119556D01*
X327984Y119615D01*
X327964Y119678D01*
X327932Y119722D01*
X327914Y119757D01*
X327885Y119784D01*
X327853Y119829D01*
X326163Y121518D01*
X326163Y124862D01*
X328488Y127187D01*
X328525Y127241D01*
X328570Y127288D01*
X328589Y127332D01*
X328616Y127371D01*
X328632Y127434D01*
X328658Y127495D01*
X328660Y127542D01*
X328672Y127588D01*
X328665Y127653D01*
X328668Y127719D01*
X328653Y127764D01*
X328649Y127811D01*
X328619Y127870D01*
X328599Y127933D01*
X328567Y127977D01*
X328549Y128012D01*
X328520Y128039D01*
X328488Y128084D01*
X326163Y130408D01*
X326163Y133752D01*
X328604Y136193D01*
X328657Y136215D01*
X328692Y136246D01*
X328733Y136271D01*
X328775Y136322D01*
X328823Y136366D01*
X328845Y136408D01*
X328874Y136445D01*
X328895Y136507D01*
X328926Y136566D01*
X328934Y136620D01*
X328946Y136657D01*
X328945Y136697D01*
X328953Y136751D01*
X328953Y137795D01*
X328942Y137860D01*
X328940Y137926D01*
X328922Y137969D01*
X328914Y138016D01*
X328880Y138073D01*
X328855Y138133D01*
X328824Y138168D01*
X328799Y138209D01*
X328748Y138251D01*
X328704Y138299D01*
X328662Y138321D01*
X328625Y138350D01*
X328563Y138371D01*
X328504Y138402D01*
X328450Y138410D01*
X328413Y138422D01*
X328373Y138421D01*
X328319Y138429D01*
X319381Y138429D01*
X319316Y138418D01*
X319250Y138416D01*
X319207Y138398D01*
X319160Y138390D01*
X319103Y138356D01*
X319043Y138331D01*
X319008Y138300D01*
X318967Y138275D01*
X318925Y138224D01*
X318877Y138180D01*
X318855Y138138D01*
X318826Y138101D01*
X318805Y138039D01*
X318774Y137980D01*
X318766Y137926D01*
X318754Y137889D01*
X318755Y137849D01*
X318747Y137795D01*
X318747Y136751D01*
X318758Y136686D01*
X318760Y136620D01*
X318778Y136577D01*
X318786Y136530D01*
X318820Y136473D01*
X318845Y136413D01*
X318876Y136378D01*
X318901Y136337D01*
X318952Y136295D01*
X318996Y136247D01*
X319038Y136225D01*
X319075Y136196D01*
X319103Y136186D01*
X321537Y133752D01*
X321537Y130408D01*
X319172Y128043D01*
X315828Y128043D01*
X313463Y130408D01*
X313463Y133769D01*
X313507Y133815D01*
X313526Y133859D01*
X313553Y133897D01*
X313569Y133961D01*
X313595Y134022D01*
X313597Y134069D01*
X313609Y134115D01*
X313602Y134180D01*
X313605Y134246D01*
X313590Y134291D01*
X313585Y134338D01*
X313556Y134397D01*
X313536Y134460D01*
X313503Y134504D01*
X313486Y134539D01*
X313457Y134566D01*
X313424Y134610D01*
X311173Y136861D01*
X311173Y138143D01*
X311166Y138185D01*
X311168Y138227D01*
X311149Y138284D01*
X311149Y144243D01*
X311134Y144331D01*
X311124Y144419D01*
X311114Y144440D01*
X311110Y144464D01*
X311064Y144540D01*
X311025Y144620D01*
X311008Y144636D01*
X310995Y144657D01*
X310926Y144713D01*
X310862Y144774D01*
X310840Y144783D01*
X310821Y144798D01*
X310737Y144827D01*
X310655Y144861D01*
X310631Y144863D01*
X310609Y144870D01*
X310520Y144867D01*
X310431Y144871D01*
X310408Y144864D01*
X310384Y144863D01*
X310302Y144830D01*
X310217Y144803D01*
X310196Y144787D01*
X310177Y144779D01*
X310139Y144745D01*
X310067Y144691D01*
X308909Y143533D01*
X305771Y143533D01*
X303553Y145751D01*
X303553Y148889D01*
X305771Y151107D01*
X308909Y151107D01*
X310067Y149949D01*
X310140Y149898D01*
X310209Y149842D01*
X310231Y149834D01*
X310251Y149821D01*
X310337Y149798D01*
X310421Y149770D01*
X310445Y149771D01*
X310468Y149765D01*
X310557Y149774D01*
X310646Y149777D01*
X310668Y149785D01*
X310691Y149788D01*
X310771Y149827D01*
X310853Y149861D01*
X310871Y149877D01*
X310892Y149887D01*
X310953Y149952D01*
X311019Y150012D01*
X311030Y150033D01*
X311046Y150051D01*
X311081Y150133D01*
X311122Y150212D01*
X311125Y150238D01*
X311134Y150257D01*
X311136Y150308D01*
X311149Y150397D01*
X311149Y156943D01*
X311134Y157031D01*
X311124Y157119D01*
X311114Y157140D01*
X311110Y157164D01*
X311064Y157240D01*
X311025Y157320D01*
X311008Y157336D01*
X310995Y157357D01*
X310926Y157413D01*
X310862Y157474D01*
X310840Y157483D01*
X310821Y157498D01*
X310737Y157527D01*
X310655Y157561D01*
X310631Y157563D01*
X310609Y157570D01*
X310520Y157567D01*
X310431Y157571D01*
X310408Y157564D01*
X310384Y157563D01*
X310302Y157530D01*
X310217Y157503D01*
X310196Y157487D01*
X310177Y157479D01*
X310139Y157445D01*
X310067Y157391D01*
X308909Y156233D01*
X305771Y156233D01*
X303553Y158451D01*
X303553Y161589D01*
X305771Y163807D01*
X308909Y163807D01*
X310067Y162649D01*
X310140Y162598D01*
X310209Y162542D01*
X310231Y162534D01*
X310251Y162521D01*
X310337Y162498D01*
X310421Y162470D01*
X310445Y162471D01*
X310468Y162465D01*
X310557Y162474D01*
X310646Y162477D01*
X310668Y162485D01*
X310691Y162488D01*
X310771Y162527D01*
X310853Y162561D01*
X310871Y162577D01*
X310892Y162587D01*
X310953Y162652D01*
X311019Y162712D01*
X311030Y162733D01*
X311046Y162751D01*
X311081Y162833D01*
X311122Y162912D01*
X311125Y162938D01*
X311134Y162957D01*
X311136Y163008D01*
X311149Y163097D01*
X311149Y169643D01*
X311134Y169731D01*
X311124Y169819D01*
X311114Y169840D01*
X311110Y169864D01*
X311064Y169940D01*
X311025Y170020D01*
X311008Y170036D01*
X310995Y170057D01*
X310926Y170113D01*
X310862Y170174D01*
X310840Y170183D01*
X310821Y170198D01*
X310737Y170227D01*
X310655Y170261D01*
X310631Y170263D01*
X310609Y170270D01*
X310520Y170267D01*
X310431Y170271D01*
X310408Y170264D01*
X310384Y170263D01*
X310302Y170230D01*
X310217Y170203D01*
X310196Y170187D01*
X310177Y170179D01*
X310139Y170145D01*
X310067Y170091D01*
X308909Y168933D01*
X305771Y168933D01*
X303553Y171151D01*
X303553Y174289D01*
X305771Y176507D01*
X308909Y176507D01*
X310067Y175349D01*
X310140Y175298D01*
X310209Y175242D01*
X310231Y175234D01*
X310251Y175221D01*
X310337Y175198D01*
X310421Y175170D01*
X310445Y175171D01*
X310468Y175165D01*
X310557Y175174D01*
X310646Y175177D01*
X310668Y175185D01*
X310691Y175188D01*
X310771Y175227D01*
X310853Y175261D01*
X310871Y175277D01*
X310892Y175287D01*
X310953Y175352D01*
X311019Y175412D01*
X311030Y175433D01*
X311046Y175451D01*
X311081Y175533D01*
X311122Y175612D01*
X311125Y175638D01*
X311134Y175657D01*
X311136Y175708D01*
X311149Y175797D01*
X311149Y179705D01*
X311138Y179770D01*
X311136Y179836D01*
X311118Y179879D01*
X311110Y179926D01*
X311076Y179983D01*
X311051Y180043D01*
X311020Y180078D01*
X310995Y180119D01*
X310944Y180161D01*
X310900Y180209D01*
X310858Y180231D01*
X310821Y180260D01*
X310759Y180281D01*
X310700Y180312D01*
X310646Y180320D01*
X310609Y180332D01*
X310569Y180331D01*
X310515Y180339D01*
X4445Y180339D01*
X4380Y180328D01*
X4314Y180326D01*
X4271Y180308D01*
X4224Y180300D01*
X4167Y180266D01*
X4107Y180241D01*
X4072Y180210D01*
X4031Y180185D01*
X3989Y180134D01*
X3941Y180090D01*
X3919Y180048D01*
X3890Y180011D01*
X3869Y179949D01*
X3838Y179890D01*
X3830Y179836D01*
X3818Y179799D01*
X3819Y179759D01*
X3811Y179705D01*
X3811Y140335D01*
X3822Y140270D01*
X3824Y140204D01*
X3842Y140161D01*
X3850Y140114D01*
X3884Y140057D01*
X3909Y139997D01*
X3940Y139962D01*
X3965Y139921D01*
X4016Y139879D01*
X4060Y139831D01*
X4102Y139809D01*
X4139Y139780D01*
X4201Y139759D01*
X4260Y139728D01*
X4314Y139720D01*
X4351Y139708D01*
X4391Y139709D01*
X4445Y139701D01*
X8353Y139701D01*
X8441Y139716D01*
X8529Y139726D01*
X8550Y139736D01*
X8574Y139740D01*
X8650Y139786D01*
X8730Y139825D01*
X8746Y139842D01*
X8767Y139855D01*
X8823Y139924D01*
X8884Y139988D01*
X8893Y140010D01*
X8908Y140029D01*
X8937Y140113D01*
X8971Y140195D01*
X8973Y140219D01*
X8980Y140241D01*
X8977Y140330D01*
X8981Y140419D01*
X8974Y140442D01*
X8973Y140466D01*
X8940Y140548D01*
X8913Y140633D01*
X8897Y140654D01*
X8889Y140673D01*
X8855Y140711D01*
X8801Y140783D01*
X7643Y141941D01*
X7643Y145079D01*
X9861Y147297D01*
X12999Y147297D01*
X15217Y145079D01*
X15217Y141941D01*
X14059Y140783D01*
X14008Y140710D01*
X13952Y140641D01*
X13944Y140619D01*
X13931Y140599D01*
X13908Y140513D01*
X13880Y140429D01*
X13881Y140405D01*
X13875Y140382D01*
X13884Y140293D01*
X13887Y140204D01*
X13895Y140182D01*
X13898Y140159D01*
X13937Y140079D01*
X13971Y139997D01*
X13987Y139979D01*
X13997Y139958D01*
X14062Y139897D01*
X14122Y139831D01*
X14143Y139820D01*
X14161Y139804D01*
X14243Y139769D01*
X14322Y139728D01*
X14348Y139725D01*
X14367Y139716D01*
X14418Y139714D01*
X14507Y139701D01*
X21053Y139701D01*
X21141Y139716D01*
X21229Y139726D01*
X21250Y139736D01*
X21274Y139740D01*
X21350Y139786D01*
X21430Y139825D01*
X21446Y139842D01*
X21467Y139855D01*
X21523Y139924D01*
X21584Y139988D01*
X21593Y140010D01*
X21608Y140029D01*
X21637Y140113D01*
X21671Y140195D01*
X21673Y140219D01*
X21680Y140241D01*
X21677Y140330D01*
X21681Y140419D01*
X21674Y140442D01*
X21673Y140466D01*
X21640Y140548D01*
X21613Y140633D01*
X21597Y140654D01*
X21589Y140673D01*
X21555Y140711D01*
X21501Y140783D01*
X20343Y141941D01*
X20343Y145079D01*
X22561Y147297D01*
X25699Y147297D01*
X27917Y145079D01*
X27917Y141941D01*
X26759Y140783D01*
X26708Y140710D01*
X26652Y140641D01*
X26644Y140619D01*
X26631Y140599D01*
X26608Y140513D01*
X26580Y140429D01*
X26581Y140405D01*
X26575Y140382D01*
X26584Y140293D01*
X26587Y140204D01*
X26595Y140182D01*
X26598Y140159D01*
X26637Y140079D01*
X26671Y139997D01*
X26687Y139979D01*
X26697Y139958D01*
X26762Y139897D01*
X26822Y139831D01*
X26843Y139820D01*
X26861Y139804D01*
X26943Y139769D01*
X27022Y139728D01*
X27048Y139725D01*
X27067Y139716D01*
X27118Y139714D01*
X27207Y139701D01*
X33753Y139701D01*
X33841Y139716D01*
X33929Y139726D01*
X33950Y139736D01*
X33974Y139740D01*
X34050Y139786D01*
X34130Y139825D01*
X34146Y139842D01*
X34167Y139855D01*
X34223Y139924D01*
X34284Y139988D01*
X34293Y140010D01*
X34308Y140029D01*
X34337Y140113D01*
X34371Y140195D01*
X34373Y140219D01*
X34380Y140241D01*
X34377Y140330D01*
X34381Y140419D01*
X34374Y140442D01*
X34373Y140466D01*
X34340Y140548D01*
X34313Y140633D01*
X34297Y140654D01*
X34289Y140673D01*
X34255Y140711D01*
X34201Y140783D01*
X33043Y141941D01*
X33043Y145079D01*
X35261Y147297D01*
X38399Y147297D01*
X40617Y145079D01*
X40617Y141941D01*
X39459Y140783D01*
X39408Y140710D01*
X39352Y140641D01*
X39344Y140619D01*
X39331Y140599D01*
X39308Y140513D01*
X39280Y140429D01*
X39281Y140405D01*
X39275Y140382D01*
X39284Y140293D01*
X39287Y140204D01*
X39295Y140182D01*
X39298Y140159D01*
X39337Y140079D01*
X39371Y139997D01*
X39387Y139979D01*
X39397Y139958D01*
X39462Y139897D01*
X39522Y139831D01*
X39543Y139820D01*
X39561Y139804D01*
X39643Y139769D01*
X39722Y139728D01*
X39748Y139725D01*
X39767Y139716D01*
X39818Y139714D01*
X39907Y139701D01*
X45846Y139701D01*
X45911Y139691D01*
X45960Y139678D01*
X45981Y139681D01*
X46007Y139677D01*
X47289Y139677D01*
X49643Y137323D01*
X49678Y137298D01*
X49706Y137267D01*
X49769Y137235D01*
X49827Y137194D01*
X49868Y137184D01*
X49906Y137164D01*
X49995Y137151D01*
X50044Y137138D01*
X50065Y137141D01*
X50091Y137137D01*
X52369Y137137D01*
X54587Y134919D01*
X54587Y131781D01*
X52369Y129563D01*
X49231Y129563D01*
X46877Y131917D01*
X46842Y131942D01*
X46814Y131973D01*
X46751Y132005D01*
X46693Y132046D01*
X46652Y132056D01*
X46614Y132076D01*
X46525Y132089D01*
X46476Y132102D01*
X46455Y132099D01*
X46429Y132103D01*
X46355Y132103D01*
X46290Y132092D01*
X46224Y132090D01*
X46181Y132072D01*
X46134Y132064D01*
X46077Y132030D01*
X46017Y132005D01*
X45982Y131974D01*
X45941Y131949D01*
X45899Y131898D01*
X45851Y131854D01*
X45829Y131812D01*
X45800Y131775D01*
X45779Y131713D01*
X45748Y131654D01*
X45740Y131600D01*
X45728Y131563D01*
X45729Y131523D01*
X45721Y131469D01*
X45721Y122531D01*
X45732Y122466D01*
X45734Y122400D01*
X45752Y122357D01*
X45760Y122310D01*
X45794Y122253D01*
X45819Y122193D01*
X45850Y122158D01*
X45875Y122117D01*
X45926Y122075D01*
X45970Y122027D01*
X46012Y122005D01*
X46049Y121976D01*
X46111Y121955D01*
X46170Y121924D01*
X46224Y121916D01*
X46261Y121904D01*
X46301Y121905D01*
X46355Y121897D01*
X46429Y121897D01*
X46471Y121904D01*
X46513Y121902D01*
X46580Y121924D01*
X46650Y121936D01*
X46686Y121958D01*
X46727Y121971D01*
X46799Y122025D01*
X46843Y122051D01*
X46856Y122067D01*
X46877Y122083D01*
X49231Y124437D01*
X52369Y124437D01*
X54587Y122219D01*
X54587Y119081D01*
X52369Y116863D01*
X50091Y116863D01*
X50049Y116856D01*
X50007Y116858D01*
X49940Y116836D01*
X49870Y116824D01*
X49834Y116802D01*
X49793Y116789D01*
X49721Y116735D01*
X49677Y116709D01*
X49664Y116693D01*
X49643Y116677D01*
X47289Y114323D01*
X46007Y114323D01*
X45965Y114316D01*
X45923Y114318D01*
X45866Y114299D01*
X39907Y114299D01*
X39819Y114284D01*
X39731Y114274D01*
X39710Y114264D01*
X39686Y114260D01*
X39610Y114214D01*
X39530Y114175D01*
X39514Y114158D01*
X39493Y114145D01*
X39437Y114076D01*
X39376Y114012D01*
X39367Y113990D01*
X39352Y113971D01*
X39323Y113887D01*
X39289Y113805D01*
X39287Y113781D01*
X39280Y113759D01*
X39283Y113670D01*
X39279Y113581D01*
X39286Y113558D01*
X39287Y113534D01*
X39320Y113452D01*
X39347Y113367D01*
X39363Y113346D01*
X39371Y113327D01*
X39405Y113289D01*
X39459Y113217D01*
X40617Y112059D01*
X40617Y108921D01*
X38399Y106703D01*
X35261Y106703D01*
X33043Y108921D01*
X33043Y112059D01*
X34201Y113217D01*
X34252Y113290D01*
X34308Y113359D01*
X34316Y113381D01*
X34329Y113401D01*
X34352Y113487D01*
X34380Y113571D01*
X34379Y113595D01*
X34385Y113618D01*
X34376Y113707D01*
X34373Y113796D01*
X34365Y113818D01*
X34362Y113841D01*
X34323Y113921D01*
X34289Y114003D01*
X34273Y114021D01*
X34263Y114042D01*
X34198Y114103D01*
X34138Y114169D01*
X34117Y114180D01*
X34099Y114196D01*
X34017Y114231D01*
X33938Y114272D01*
X33912Y114275D01*
X33893Y114284D01*
X33842Y114286D01*
X33753Y114299D01*
X27207Y114299D01*
X27119Y114284D01*
X27031Y114274D01*
X27010Y114264D01*
X26986Y114260D01*
X26910Y114214D01*
X26830Y114175D01*
X26814Y114158D01*
X26793Y114145D01*
X26737Y114076D01*
X26676Y114012D01*
X26667Y113990D01*
X26652Y113971D01*
X26623Y113887D01*
X26589Y113805D01*
X26587Y113781D01*
X26580Y113759D01*
X26583Y113670D01*
X26579Y113581D01*
X26586Y113558D01*
X26587Y113534D01*
X26620Y113452D01*
X26647Y113367D01*
X26663Y113346D01*
X26671Y113327D01*
X26705Y113289D01*
X26759Y113217D01*
X27917Y112059D01*
X27917Y108921D01*
X25699Y106703D01*
X22561Y106703D01*
X20343Y108921D01*
X20343Y112059D01*
X21501Y113217D01*
X21552Y113290D01*
X21608Y113359D01*
X21616Y113381D01*
X21629Y113401D01*
X21652Y113487D01*
X21680Y113571D01*
X21679Y113595D01*
X21685Y113618D01*
X21676Y113707D01*
X21673Y113796D01*
X21665Y113818D01*
X21662Y113841D01*
X21623Y113921D01*
X21589Y114003D01*
X21573Y114021D01*
X21563Y114042D01*
X21498Y114103D01*
X21438Y114169D01*
X21417Y114180D01*
X21399Y114196D01*
X21317Y114231D01*
X21238Y114272D01*
X21212Y114275D01*
X21193Y114284D01*
X21142Y114286D01*
X21053Y114299D01*
X14507Y114299D01*
X14419Y114284D01*
X14331Y114274D01*
X14310Y114264D01*
X14286Y114260D01*
X14210Y114214D01*
X14130Y114175D01*
X14114Y114158D01*
X14093Y114145D01*
X14037Y114076D01*
X13976Y114012D01*
X13967Y113990D01*
X13952Y113971D01*
X13923Y113887D01*
X13889Y113805D01*
X13887Y113781D01*
X13880Y113759D01*
X13883Y113670D01*
X13879Y113581D01*
X13886Y113558D01*
X13887Y113534D01*
X13920Y113452D01*
X13947Y113367D01*
X13963Y113346D01*
X13971Y113327D01*
X14005Y113289D01*
X14059Y113217D01*
X15217Y112059D01*
X15217Y108921D01*
X12999Y106703D01*
X9861Y106703D01*
X7643Y108921D01*
X7643Y112059D01*
X8801Y113217D01*
X8852Y113290D01*
X8908Y113359D01*
X8916Y113381D01*
X8929Y113401D01*
X8952Y113487D01*
X8980Y113571D01*
X8979Y113595D01*
X8985Y113618D01*
X8976Y113707D01*
X8973Y113796D01*
X8965Y113818D01*
X8962Y113841D01*
X8923Y113921D01*
X8889Y114003D01*
X8873Y114021D01*
X8863Y114042D01*
X8798Y114103D01*
X8738Y114169D01*
X8717Y114180D01*
X8699Y114196D01*
X8617Y114231D01*
X8538Y114272D01*
X8512Y114275D01*
X8493Y114284D01*
X8442Y114286D01*
X8353Y114299D01*
X4445Y114299D01*
X4380Y114288D01*
X4314Y114286D01*
X4271Y114268D01*
X4224Y114260D01*
X4167Y114226D01*
X4107Y114201D01*
X4072Y114170D01*
X4031Y114145D01*
X3989Y114094D01*
X3941Y114050D01*
X3919Y114008D01*
X3890Y113971D01*
X3869Y113909D01*
X3838Y113850D01*
X3830Y113796D01*
X3818Y113759D01*
X3819Y113719D01*
X3811Y113665D01*
X3811Y4445D01*
X3822Y4380D01*
X3824Y4314D01*
X3842Y4271D01*
X3850Y4224D01*
X3884Y4167D01*
X3909Y4107D01*
X3940Y4072D01*
X3965Y4031D01*
X4016Y3989D01*
X4060Y3941D01*
X4102Y3919D01*
X4139Y3890D01*
X4201Y3869D01*
X4260Y3838D01*
X4314Y3830D01*
X4351Y3818D01*
X4391Y3819D01*
X4445Y3811D01*
X236855Y3811D01*
X236920Y3822D01*
G37*
%LPC*%
G36*
X17305Y42029D02*
X17305Y42029D01*
X14082Y43365D01*
X11615Y45832D01*
X10279Y49055D01*
X10279Y52545D01*
X11615Y55768D01*
X14082Y58235D01*
X17305Y59571D01*
X20795Y59571D01*
X24018Y58235D01*
X26485Y55768D01*
X27821Y52545D01*
X27821Y49055D01*
X26485Y45832D01*
X24018Y43365D01*
X20795Y42029D01*
X17305Y42029D01*
G37*
%LPD*%
%LPC*%
G36*
X244708Y117883D02*
X244708Y117883D01*
X242343Y120248D01*
X242343Y123592D01*
X243398Y124646D01*
X243435Y124701D01*
X243480Y124748D01*
X243499Y124792D01*
X243526Y124831D01*
X243542Y124894D01*
X243568Y124955D01*
X243570Y125002D01*
X243582Y125048D01*
X243575Y125113D01*
X243578Y125179D01*
X243563Y125224D01*
X243559Y125271D01*
X243529Y125330D01*
X243509Y125393D01*
X243477Y125437D01*
X243459Y125472D01*
X243430Y125499D01*
X243398Y125543D01*
X241073Y127868D01*
X241073Y131212D01*
X242152Y132291D01*
X242203Y132364D01*
X242259Y132433D01*
X242266Y132455D01*
X242280Y132475D01*
X242302Y132561D01*
X242331Y132645D01*
X242330Y132669D01*
X242336Y132692D01*
X242327Y132781D01*
X242324Y132870D01*
X242315Y132891D01*
X242313Y132915D01*
X242273Y132995D01*
X242240Y133077D01*
X242224Y133095D01*
X242213Y133116D01*
X242148Y133177D01*
X242088Y133243D01*
X242067Y133254D01*
X242050Y133270D01*
X241968Y133305D01*
X241889Y133346D01*
X241862Y133349D01*
X241843Y133358D01*
X241793Y133360D01*
X241703Y133373D01*
X238461Y133373D01*
X237303Y134531D01*
X237249Y134569D01*
X237202Y134614D01*
X237158Y134632D01*
X237119Y134659D01*
X237056Y134676D01*
X236995Y134701D01*
X236948Y134704D01*
X236902Y134715D01*
X236837Y134708D01*
X236771Y134711D01*
X236726Y134697D01*
X236679Y134692D01*
X236620Y134663D01*
X236557Y134643D01*
X236513Y134610D01*
X236478Y134593D01*
X236451Y134564D01*
X236406Y134531D01*
X235249Y133373D01*
X232111Y133373D01*
X229893Y135591D01*
X229893Y138729D01*
X232111Y140947D01*
X235249Y140947D01*
X236406Y139789D01*
X236461Y139751D01*
X236508Y139706D01*
X236552Y139688D01*
X236591Y139661D01*
X236654Y139644D01*
X236715Y139619D01*
X236762Y139616D01*
X236808Y139605D01*
X236873Y139612D01*
X236939Y139609D01*
X236984Y139623D01*
X237031Y139628D01*
X237090Y139657D01*
X237153Y139677D01*
X237197Y139710D01*
X237232Y139727D01*
X237259Y139756D01*
X237303Y139789D01*
X238461Y140947D01*
X241599Y140947D01*
X243817Y138729D01*
X243817Y135591D01*
X242885Y134659D01*
X242834Y134586D01*
X242778Y134517D01*
X242770Y134495D01*
X242757Y134475D01*
X242734Y134389D01*
X242706Y134305D01*
X242707Y134281D01*
X242701Y134258D01*
X242710Y134169D01*
X242713Y134080D01*
X242721Y134058D01*
X242724Y134035D01*
X242763Y133955D01*
X242797Y133873D01*
X242813Y133855D01*
X242823Y133834D01*
X242888Y133773D01*
X242948Y133707D01*
X242969Y133696D01*
X242987Y133680D01*
X243069Y133645D01*
X243148Y133604D01*
X243174Y133601D01*
X243193Y133592D01*
X243244Y133590D01*
X243333Y133577D01*
X246782Y133577D01*
X249147Y131212D01*
X249147Y127868D01*
X248092Y126813D01*
X248055Y126759D01*
X248010Y126712D01*
X247991Y126668D01*
X247964Y126629D01*
X247948Y126566D01*
X247922Y126505D01*
X247920Y126458D01*
X247908Y126412D01*
X247915Y126347D01*
X247912Y126281D01*
X247927Y126236D01*
X247931Y126189D01*
X247961Y126130D01*
X247981Y126067D01*
X248013Y126023D01*
X248031Y125988D01*
X248060Y125961D01*
X248092Y125916D01*
X250417Y123592D01*
X250417Y120248D01*
X248052Y117883D01*
X244708Y117883D01*
G37*
%LPD*%
%LPC*%
G36*
X192741Y154963D02*
X192741Y154963D01*
X190523Y157181D01*
X190523Y160319D01*
X192741Y162537D01*
X195067Y162537D01*
X195155Y162552D01*
X195243Y162562D01*
X195264Y162572D01*
X195288Y162576D01*
X195364Y162622D01*
X195444Y162661D01*
X195460Y162678D01*
X195481Y162691D01*
X195537Y162760D01*
X195598Y162824D01*
X195607Y162846D01*
X195622Y162865D01*
X195651Y162949D01*
X195685Y163031D01*
X195687Y163055D01*
X195694Y163077D01*
X195691Y163166D01*
X195695Y163255D01*
X195688Y163278D01*
X195687Y163302D01*
X195654Y163384D01*
X195627Y163469D01*
X195611Y163490D01*
X195603Y163509D01*
X195569Y163547D01*
X195515Y163619D01*
X194333Y164801D01*
X194333Y167939D01*
X196551Y170157D01*
X199689Y170157D01*
X201482Y168364D01*
X201536Y168326D01*
X201583Y168281D01*
X201627Y168263D01*
X201666Y168236D01*
X201729Y168219D01*
X201790Y168194D01*
X201837Y168191D01*
X201883Y168180D01*
X201948Y168187D01*
X202014Y168184D01*
X202059Y168198D01*
X202106Y168203D01*
X202165Y168232D01*
X202228Y168252D01*
X202272Y168285D01*
X202307Y168302D01*
X202334Y168331D01*
X202379Y168364D01*
X204171Y170157D01*
X207309Y170157D01*
X209527Y167939D01*
X209527Y164801D01*
X208345Y163619D01*
X208294Y163546D01*
X208238Y163477D01*
X208230Y163455D01*
X208217Y163435D01*
X208194Y163349D01*
X208166Y163265D01*
X208167Y163241D01*
X208161Y163218D01*
X208170Y163129D01*
X208173Y163040D01*
X208181Y163018D01*
X208184Y162995D01*
X208223Y162915D01*
X208257Y162833D01*
X208273Y162815D01*
X208283Y162794D01*
X208348Y162733D01*
X208408Y162667D01*
X208429Y162656D01*
X208447Y162640D01*
X208529Y162605D01*
X208608Y162564D01*
X208634Y162561D01*
X208653Y162552D01*
X208704Y162550D01*
X208793Y162537D01*
X211119Y162537D01*
X213337Y160319D01*
X213337Y157181D01*
X211119Y154963D01*
X207981Y154963D01*
X205763Y157181D01*
X205763Y160319D01*
X206945Y161501D01*
X206996Y161574D01*
X207052Y161643D01*
X207060Y161665D01*
X207073Y161685D01*
X207096Y161771D01*
X207124Y161855D01*
X207123Y161879D01*
X207129Y161902D01*
X207120Y161991D01*
X207117Y162080D01*
X207109Y162102D01*
X207106Y162125D01*
X207067Y162205D01*
X207033Y162287D01*
X207017Y162305D01*
X207007Y162326D01*
X206942Y162387D01*
X206882Y162453D01*
X206861Y162464D01*
X206843Y162480D01*
X206761Y162515D01*
X206682Y162556D01*
X206656Y162559D01*
X206637Y162568D01*
X206586Y162570D01*
X206497Y162583D01*
X204171Y162583D01*
X202379Y164376D01*
X202324Y164414D01*
X202277Y164459D01*
X202233Y164477D01*
X202194Y164504D01*
X202131Y164521D01*
X202070Y164546D01*
X202023Y164549D01*
X201977Y164560D01*
X201912Y164553D01*
X201846Y164556D01*
X201801Y164542D01*
X201754Y164537D01*
X201695Y164508D01*
X201632Y164488D01*
X201588Y164455D01*
X201553Y164438D01*
X201526Y164409D01*
X201482Y164376D01*
X199689Y162583D01*
X197363Y162583D01*
X197275Y162568D01*
X197187Y162558D01*
X197166Y162548D01*
X197142Y162544D01*
X197066Y162498D01*
X196986Y162459D01*
X196970Y162442D01*
X196949Y162429D01*
X196893Y162360D01*
X196832Y162296D01*
X196823Y162274D01*
X196808Y162255D01*
X196779Y162171D01*
X196745Y162089D01*
X196743Y162065D01*
X196736Y162043D01*
X196739Y161954D01*
X196735Y161865D01*
X196742Y161842D01*
X196743Y161818D01*
X196776Y161736D01*
X196803Y161651D01*
X196819Y161630D01*
X196827Y161611D01*
X196861Y161573D01*
X196915Y161501D01*
X198097Y160319D01*
X198097Y157181D01*
X195879Y154963D01*
X192741Y154963D01*
G37*
%LPD*%
%LPC*%
G36*
X133051Y90193D02*
X133051Y90193D01*
X130833Y92411D01*
X130833Y95549D01*
X132626Y97341D01*
X132664Y97396D01*
X132709Y97443D01*
X132727Y97487D01*
X132754Y97526D01*
X132771Y97589D01*
X132796Y97650D01*
X132799Y97697D01*
X132810Y97743D01*
X132803Y97808D01*
X132806Y97874D01*
X132792Y97919D01*
X132787Y97966D01*
X132758Y98025D01*
X132738Y98088D01*
X132705Y98132D01*
X132688Y98167D01*
X132659Y98194D01*
X132626Y98238D01*
X130833Y100031D01*
X130833Y103169D01*
X131991Y104327D01*
X132029Y104381D01*
X132074Y104428D01*
X132092Y104472D01*
X132119Y104511D01*
X132136Y104574D01*
X132161Y104635D01*
X132164Y104682D01*
X132175Y104728D01*
X132168Y104793D01*
X132171Y104859D01*
X132157Y104904D01*
X132152Y104951D01*
X132123Y105010D01*
X132103Y105073D01*
X132070Y105117D01*
X132053Y105152D01*
X132024Y105179D01*
X131991Y105224D01*
X130833Y106381D01*
X130833Y109519D01*
X133051Y111737D01*
X136189Y111737D01*
X138407Y109519D01*
X138407Y106381D01*
X137249Y105224D01*
X137211Y105169D01*
X137166Y105122D01*
X137148Y105078D01*
X137121Y105039D01*
X137104Y104976D01*
X137079Y104915D01*
X137076Y104868D01*
X137065Y104822D01*
X137072Y104757D01*
X137069Y104691D01*
X137083Y104646D01*
X137088Y104599D01*
X137117Y104540D01*
X137137Y104477D01*
X137170Y104433D01*
X137187Y104398D01*
X137216Y104371D01*
X137249Y104327D01*
X138407Y103169D01*
X138407Y102211D01*
X138418Y102146D01*
X138420Y102080D01*
X138438Y102037D01*
X138446Y101990D01*
X138480Y101933D01*
X138505Y101873D01*
X138536Y101838D01*
X138561Y101797D01*
X138612Y101755D01*
X138656Y101707D01*
X138698Y101685D01*
X138735Y101656D01*
X138797Y101635D01*
X138856Y101604D01*
X138910Y101596D01*
X138947Y101584D01*
X138987Y101585D01*
X139041Y101577D01*
X141269Y101577D01*
X143487Y99359D01*
X143487Y96221D01*
X141269Y94003D01*
X139041Y94003D01*
X138976Y93992D01*
X138910Y93990D01*
X138867Y93972D01*
X138820Y93964D01*
X138763Y93930D01*
X138703Y93905D01*
X138668Y93874D01*
X138627Y93849D01*
X138585Y93798D01*
X138537Y93754D01*
X138515Y93712D01*
X138486Y93675D01*
X138465Y93613D01*
X138434Y93554D01*
X138426Y93500D01*
X138414Y93463D01*
X138415Y93423D01*
X138407Y93369D01*
X138407Y92411D01*
X136189Y90193D01*
X133051Y90193D01*
G37*
%LPD*%
%LPC*%
G36*
X186391Y73683D02*
X186391Y73683D01*
X184173Y75901D01*
X184173Y79039D01*
X185355Y80221D01*
X185406Y80294D01*
X185462Y80363D01*
X185470Y80385D01*
X185483Y80405D01*
X185506Y80491D01*
X185534Y80575D01*
X185533Y80599D01*
X185539Y80622D01*
X185530Y80711D01*
X185527Y80800D01*
X185519Y80822D01*
X185516Y80845D01*
X185477Y80925D01*
X185443Y81007D01*
X185427Y81025D01*
X185417Y81046D01*
X185352Y81107D01*
X185292Y81173D01*
X185271Y81184D01*
X185253Y81200D01*
X185203Y81221D01*
X182903Y83521D01*
X182903Y86659D01*
X185121Y88877D01*
X188259Y88877D01*
X190477Y86659D01*
X190477Y83521D01*
X189295Y82339D01*
X189244Y82266D01*
X189188Y82197D01*
X189180Y82175D01*
X189167Y82155D01*
X189144Y82069D01*
X189116Y81985D01*
X189117Y81961D01*
X189111Y81938D01*
X189120Y81849D01*
X189123Y81760D01*
X189131Y81738D01*
X189134Y81715D01*
X189173Y81635D01*
X189207Y81553D01*
X189223Y81535D01*
X189233Y81514D01*
X189298Y81453D01*
X189358Y81387D01*
X189379Y81376D01*
X189397Y81360D01*
X189447Y81339D01*
X191321Y79464D01*
X191354Y79441D01*
X191377Y79417D01*
X191396Y79406D01*
X191423Y79381D01*
X191467Y79363D01*
X191506Y79336D01*
X191563Y79321D01*
X191576Y79314D01*
X191584Y79313D01*
X191630Y79294D01*
X191677Y79291D01*
X191723Y79280D01*
X191788Y79287D01*
X191854Y79284D01*
X191899Y79298D01*
X191946Y79303D01*
X191990Y79324D01*
X191999Y79326D01*
X192014Y79335D01*
X192068Y79352D01*
X192112Y79385D01*
X192147Y79402D01*
X192171Y79428D01*
X192193Y79440D01*
X192201Y79451D01*
X192218Y79464D01*
X194011Y81257D01*
X197149Y81257D01*
X199367Y79039D01*
X199367Y75901D01*
X197149Y73683D01*
X194011Y73683D01*
X192218Y75476D01*
X192164Y75514D01*
X192117Y75559D01*
X192073Y75577D01*
X192034Y75604D01*
X191971Y75621D01*
X191910Y75646D01*
X191863Y75649D01*
X191817Y75660D01*
X191752Y75653D01*
X191686Y75656D01*
X191641Y75642D01*
X191594Y75637D01*
X191535Y75608D01*
X191472Y75588D01*
X191428Y75555D01*
X191393Y75538D01*
X191366Y75509D01*
X191321Y75476D01*
X189529Y73683D01*
X186391Y73683D01*
G37*
%LPD*%
%LPC*%
G36*
X206711Y73683D02*
X206711Y73683D01*
X204493Y75901D01*
X204493Y79039D01*
X206711Y81257D01*
X209849Y81257D01*
X211641Y79464D01*
X211674Y79441D01*
X211697Y79417D01*
X211716Y79406D01*
X211743Y79381D01*
X211787Y79363D01*
X211826Y79336D01*
X211883Y79321D01*
X211896Y79314D01*
X211904Y79313D01*
X211950Y79294D01*
X211997Y79291D01*
X212043Y79280D01*
X212108Y79287D01*
X212174Y79284D01*
X212219Y79298D01*
X212266Y79303D01*
X212310Y79324D01*
X212319Y79326D01*
X212334Y79335D01*
X212388Y79352D01*
X212432Y79385D01*
X212467Y79402D01*
X212491Y79428D01*
X212513Y79440D01*
X212521Y79451D01*
X212538Y79464D01*
X214418Y81344D01*
X214494Y81381D01*
X214510Y81398D01*
X214531Y81411D01*
X214587Y81480D01*
X214648Y81544D01*
X214657Y81566D01*
X214672Y81585D01*
X214701Y81669D01*
X214735Y81751D01*
X214737Y81775D01*
X214744Y81797D01*
X214741Y81886D01*
X214745Y81975D01*
X214738Y81998D01*
X214737Y82022D01*
X214704Y82104D01*
X214677Y82189D01*
X214661Y82210D01*
X214653Y82229D01*
X214619Y82267D01*
X214565Y82339D01*
X213383Y83521D01*
X213383Y86659D01*
X215601Y88877D01*
X218739Y88877D01*
X220957Y86659D01*
X220957Y83521D01*
X218652Y81216D01*
X218576Y81179D01*
X218560Y81162D01*
X218539Y81149D01*
X218483Y81080D01*
X218422Y81016D01*
X218413Y80994D01*
X218398Y80975D01*
X218369Y80891D01*
X218335Y80809D01*
X218333Y80785D01*
X218326Y80763D01*
X218329Y80674D01*
X218325Y80585D01*
X218332Y80562D01*
X218333Y80538D01*
X218366Y80456D01*
X218393Y80371D01*
X218409Y80350D01*
X218417Y80331D01*
X218451Y80293D01*
X218505Y80221D01*
X219687Y79039D01*
X219687Y75901D01*
X217469Y73683D01*
X214331Y73683D01*
X212538Y75476D01*
X212484Y75514D01*
X212437Y75559D01*
X212393Y75577D01*
X212354Y75604D01*
X212291Y75621D01*
X212230Y75646D01*
X212183Y75649D01*
X212137Y75660D01*
X212072Y75653D01*
X212006Y75656D01*
X211961Y75642D01*
X211914Y75637D01*
X211855Y75608D01*
X211792Y75588D01*
X211748Y75555D01*
X211713Y75538D01*
X211686Y75509D01*
X211641Y75476D01*
X209849Y73683D01*
X206711Y73683D01*
G37*
%LPD*%
%LPC*%
G36*
X41611Y40663D02*
X41611Y40663D01*
X39393Y42881D01*
X39393Y46019D01*
X41611Y48237D01*
X44749Y48237D01*
X46542Y46444D01*
X46596Y46406D01*
X46643Y46361D01*
X46687Y46343D01*
X46726Y46316D01*
X46789Y46299D01*
X46850Y46274D01*
X46897Y46271D01*
X46943Y46260D01*
X47008Y46267D01*
X47074Y46264D01*
X47119Y46278D01*
X47166Y46283D01*
X47225Y46312D01*
X47288Y46332D01*
X47332Y46365D01*
X47367Y46382D01*
X47394Y46411D01*
X47439Y46444D01*
X49231Y48237D01*
X52369Y48237D01*
X54161Y46444D01*
X54216Y46406D01*
X54263Y46361D01*
X54307Y46343D01*
X54346Y46316D01*
X54409Y46299D01*
X54470Y46274D01*
X54517Y46271D01*
X54563Y46260D01*
X54628Y46267D01*
X54694Y46264D01*
X54739Y46278D01*
X54786Y46283D01*
X54845Y46312D01*
X54908Y46332D01*
X54952Y46365D01*
X54987Y46382D01*
X55014Y46411D01*
X55058Y46444D01*
X56851Y48237D01*
X59989Y48237D01*
X62207Y46019D01*
X62207Y42881D01*
X59989Y40663D01*
X56851Y40663D01*
X55058Y42456D01*
X55004Y42494D01*
X54957Y42539D01*
X54913Y42557D01*
X54874Y42584D01*
X54811Y42601D01*
X54750Y42626D01*
X54703Y42629D01*
X54657Y42640D01*
X54592Y42633D01*
X54526Y42636D01*
X54481Y42622D01*
X54434Y42617D01*
X54375Y42588D01*
X54312Y42568D01*
X54268Y42535D01*
X54233Y42518D01*
X54206Y42489D01*
X54161Y42456D01*
X52369Y40663D01*
X49231Y40663D01*
X47439Y42456D01*
X47384Y42494D01*
X47337Y42539D01*
X47293Y42557D01*
X47254Y42584D01*
X47191Y42601D01*
X47130Y42626D01*
X47083Y42629D01*
X47037Y42640D01*
X46972Y42633D01*
X46906Y42636D01*
X46861Y42622D01*
X46814Y42617D01*
X46755Y42588D01*
X46692Y42568D01*
X46648Y42535D01*
X46613Y42518D01*
X46586Y42489D01*
X46542Y42456D01*
X44749Y40663D01*
X41611Y40663D01*
G37*
%LPD*%
%LPC*%
G36*
X41611Y59713D02*
X41611Y59713D01*
X39393Y61931D01*
X39393Y65069D01*
X41611Y67287D01*
X44749Y67287D01*
X46541Y65494D01*
X46571Y65474D01*
X46580Y65463D01*
X46598Y65454D01*
X46643Y65411D01*
X46687Y65393D01*
X46726Y65366D01*
X46789Y65349D01*
X46850Y65324D01*
X46897Y65321D01*
X46943Y65310D01*
X47008Y65317D01*
X47074Y65314D01*
X47119Y65328D01*
X47166Y65333D01*
X47225Y65362D01*
X47288Y65382D01*
X47332Y65415D01*
X47367Y65432D01*
X47394Y65461D01*
X47438Y65494D01*
X49231Y67287D01*
X52369Y67287D01*
X54161Y65494D01*
X54191Y65474D01*
X54200Y65463D01*
X54218Y65454D01*
X54263Y65411D01*
X54307Y65393D01*
X54346Y65366D01*
X54409Y65349D01*
X54470Y65324D01*
X54517Y65321D01*
X54563Y65310D01*
X54628Y65317D01*
X54694Y65314D01*
X54739Y65328D01*
X54786Y65333D01*
X54845Y65362D01*
X54908Y65382D01*
X54952Y65415D01*
X54987Y65432D01*
X55014Y65461D01*
X55058Y65494D01*
X56851Y67287D01*
X59989Y67287D01*
X62207Y65069D01*
X62207Y61931D01*
X59989Y59713D01*
X56851Y59713D01*
X55058Y61506D01*
X55004Y61544D01*
X54957Y61589D01*
X54913Y61607D01*
X54874Y61634D01*
X54811Y61651D01*
X54750Y61676D01*
X54703Y61679D01*
X54657Y61690D01*
X54592Y61683D01*
X54526Y61686D01*
X54481Y61672D01*
X54434Y61667D01*
X54375Y61638D01*
X54312Y61618D01*
X54268Y61585D01*
X54233Y61568D01*
X54206Y61539D01*
X54161Y61506D01*
X52369Y59713D01*
X49231Y59713D01*
X47438Y61506D01*
X47384Y61544D01*
X47337Y61589D01*
X47293Y61607D01*
X47254Y61634D01*
X47191Y61651D01*
X47130Y61676D01*
X47083Y61679D01*
X47037Y61690D01*
X46972Y61683D01*
X46906Y61686D01*
X46861Y61672D01*
X46814Y61667D01*
X46755Y61638D01*
X46692Y61618D01*
X46648Y61585D01*
X46613Y61568D01*
X46586Y61539D01*
X46541Y61506D01*
X44749Y59713D01*
X41611Y59713D01*
G37*
%LPD*%
%LPC*%
G36*
X169881Y128293D02*
X169881Y128293D01*
X167663Y130511D01*
X167663Y133649D01*
X169881Y135867D01*
X173019Y135867D01*
X174201Y134685D01*
X174274Y134634D01*
X174343Y134578D01*
X174365Y134570D01*
X174385Y134557D01*
X174471Y134534D01*
X174555Y134506D01*
X174579Y134507D01*
X174602Y134501D01*
X174691Y134510D01*
X174780Y134513D01*
X174802Y134521D01*
X174825Y134524D01*
X174905Y134563D01*
X174987Y134597D01*
X175005Y134613D01*
X175026Y134623D01*
X175087Y134688D01*
X175153Y134748D01*
X175164Y134769D01*
X175180Y134787D01*
X175215Y134869D01*
X175256Y134948D01*
X175259Y134974D01*
X175268Y134993D01*
X175270Y135044D01*
X175283Y135133D01*
X175283Y137459D01*
X177501Y139677D01*
X180639Y139677D01*
X181797Y138519D01*
X181851Y138481D01*
X181898Y138436D01*
X181942Y138418D01*
X181981Y138391D01*
X182044Y138374D01*
X182105Y138349D01*
X182152Y138346D01*
X182198Y138335D01*
X182263Y138342D01*
X182329Y138339D01*
X182374Y138353D01*
X182421Y138358D01*
X182480Y138387D01*
X182543Y138407D01*
X182587Y138440D01*
X182622Y138457D01*
X182649Y138486D01*
X182694Y138519D01*
X183851Y139677D01*
X186989Y139677D01*
X189207Y137459D01*
X189207Y134321D01*
X186989Y132103D01*
X183851Y132103D01*
X182694Y133261D01*
X182639Y133299D01*
X182592Y133344D01*
X182548Y133362D01*
X182509Y133389D01*
X182446Y133406D01*
X182385Y133431D01*
X182338Y133434D01*
X182292Y133445D01*
X182227Y133438D01*
X182161Y133441D01*
X182116Y133427D01*
X182069Y133422D01*
X182010Y133393D01*
X181947Y133373D01*
X181903Y133340D01*
X181868Y133323D01*
X181841Y133294D01*
X181797Y133261D01*
X180639Y132103D01*
X177501Y132103D01*
X176319Y133285D01*
X176246Y133336D01*
X176177Y133392D01*
X176155Y133400D01*
X176135Y133413D01*
X176049Y133436D01*
X175965Y133464D01*
X175941Y133463D01*
X175918Y133469D01*
X175829Y133460D01*
X175740Y133457D01*
X175718Y133449D01*
X175695Y133446D01*
X175615Y133407D01*
X175533Y133373D01*
X175515Y133357D01*
X175494Y133347D01*
X175433Y133282D01*
X175367Y133222D01*
X175356Y133201D01*
X175340Y133183D01*
X175305Y133101D01*
X175264Y133022D01*
X175261Y132996D01*
X175252Y132977D01*
X175250Y132926D01*
X175237Y132837D01*
X175237Y130511D01*
X173019Y128293D01*
X169881Y128293D01*
G37*
%LPD*%
%LPC*%
G36*
X153371Y74953D02*
X153371Y74953D01*
X151153Y77171D01*
X151153Y80309D01*
X152335Y81491D01*
X152386Y81564D01*
X152442Y81633D01*
X152450Y81655D01*
X152463Y81675D01*
X152486Y81761D01*
X152514Y81845D01*
X152513Y81869D01*
X152519Y81892D01*
X152510Y81981D01*
X152507Y82070D01*
X152499Y82092D01*
X152496Y82115D01*
X152457Y82195D01*
X152423Y82277D01*
X152407Y82295D01*
X152397Y82316D01*
X152332Y82377D01*
X152272Y82443D01*
X152251Y82454D01*
X152233Y82470D01*
X152151Y82505D01*
X152072Y82546D01*
X152046Y82549D01*
X152027Y82558D01*
X151976Y82560D01*
X151887Y82573D01*
X149561Y82573D01*
X147343Y84791D01*
X147343Y87929D01*
X149561Y90147D01*
X152699Y90147D01*
X154917Y87929D01*
X154917Y84791D01*
X153735Y83609D01*
X153684Y83536D01*
X153628Y83467D01*
X153620Y83445D01*
X153607Y83425D01*
X153584Y83339D01*
X153556Y83255D01*
X153557Y83231D01*
X153551Y83208D01*
X153560Y83119D01*
X153563Y83030D01*
X153571Y83008D01*
X153574Y82985D01*
X153613Y82905D01*
X153647Y82823D01*
X153663Y82805D01*
X153673Y82784D01*
X153738Y82723D01*
X153798Y82657D01*
X153819Y82646D01*
X153837Y82630D01*
X153919Y82595D01*
X153998Y82554D01*
X154024Y82551D01*
X154043Y82542D01*
X154094Y82540D01*
X154183Y82527D01*
X156509Y82527D01*
X157666Y81369D01*
X157700Y81345D01*
X157724Y81319D01*
X157744Y81309D01*
X157768Y81286D01*
X157812Y81268D01*
X157851Y81241D01*
X157904Y81227D01*
X157923Y81217D01*
X157936Y81215D01*
X157975Y81199D01*
X158022Y81196D01*
X158068Y81185D01*
X158112Y81189D01*
X158121Y81189D01*
X158134Y81191D01*
X158199Y81189D01*
X158244Y81203D01*
X158291Y81208D01*
X158329Y81227D01*
X158342Y81229D01*
X158363Y81241D01*
X158413Y81257D01*
X158457Y81290D01*
X158492Y81307D01*
X158514Y81330D01*
X158535Y81343D01*
X158545Y81355D01*
X158563Y81369D01*
X159721Y82527D01*
X162859Y82527D01*
X165077Y80309D01*
X165077Y77171D01*
X162859Y74953D01*
X159721Y74953D01*
X158563Y76111D01*
X158509Y76149D01*
X158462Y76194D01*
X158418Y76212D01*
X158379Y76239D01*
X158316Y76256D01*
X158255Y76281D01*
X158208Y76284D01*
X158162Y76295D01*
X158097Y76288D01*
X158031Y76291D01*
X157986Y76277D01*
X157939Y76272D01*
X157880Y76243D01*
X157817Y76223D01*
X157773Y76190D01*
X157738Y76173D01*
X157711Y76144D01*
X157666Y76111D01*
X156509Y74953D01*
X153371Y74953D01*
G37*
%LPD*%
%LPC*%
G36*
X295508Y117883D02*
X295508Y117883D01*
X293143Y120248D01*
X293143Y123592D01*
X295508Y125957D01*
X298852Y125957D01*
X299681Y125128D01*
X299713Y125106D01*
X299734Y125083D01*
X299770Y125064D01*
X299823Y125021D01*
X299845Y125014D01*
X299865Y125000D01*
X299925Y124985D01*
X299934Y124980D01*
X299953Y124977D01*
X300035Y124949D01*
X300059Y124950D01*
X300082Y124944D01*
X300171Y124953D01*
X300260Y124956D01*
X300282Y124965D01*
X300305Y124967D01*
X300385Y125007D01*
X300467Y125040D01*
X300485Y125056D01*
X300506Y125067D01*
X300567Y125132D01*
X300633Y125192D01*
X300644Y125213D01*
X300660Y125230D01*
X300678Y125273D01*
X300684Y125280D01*
X300696Y125313D01*
X300736Y125391D01*
X300739Y125418D01*
X300748Y125437D01*
X300749Y125472D01*
X300756Y125493D01*
X300755Y125524D01*
X300763Y125577D01*
X300763Y128672D01*
X303128Y131037D01*
X306472Y131037D01*
X308837Y128672D01*
X308837Y125328D01*
X306472Y122963D01*
X303128Y122963D01*
X302299Y123792D01*
X302226Y123843D01*
X302157Y123899D01*
X302135Y123906D01*
X302115Y123920D01*
X302029Y123942D01*
X301945Y123971D01*
X301921Y123970D01*
X301898Y123976D01*
X301809Y123967D01*
X301720Y123964D01*
X301698Y123955D01*
X301675Y123953D01*
X301595Y123913D01*
X301513Y123880D01*
X301495Y123864D01*
X301474Y123853D01*
X301413Y123788D01*
X301347Y123728D01*
X301336Y123707D01*
X301320Y123690D01*
X301285Y123608D01*
X301244Y123529D01*
X301241Y123502D01*
X301232Y123483D01*
X301230Y123433D01*
X301217Y123343D01*
X301217Y120248D01*
X298852Y117883D01*
X295508Y117883D01*
G37*
%LPD*%
%LPC*%
G36*
X303128Y101373D02*
X303128Y101373D01*
X300763Y103738D01*
X300763Y105563D01*
X300748Y105651D01*
X300738Y105739D01*
X300728Y105761D01*
X300724Y105784D01*
X300678Y105861D01*
X300639Y105941D01*
X300622Y105957D01*
X300609Y105977D01*
X300540Y106033D01*
X300476Y106094D01*
X300454Y106104D01*
X300435Y106119D01*
X300351Y106147D01*
X300269Y106182D01*
X300245Y106183D01*
X300223Y106191D01*
X300134Y106188D01*
X300045Y106192D01*
X300022Y106185D01*
X299998Y106184D01*
X299916Y106150D01*
X299831Y106123D01*
X299810Y106108D01*
X299791Y106100D01*
X299753Y106066D01*
X299681Y106012D01*
X298852Y105183D01*
X295508Y105183D01*
X293143Y107548D01*
X293143Y110892D01*
X295508Y113257D01*
X298852Y113257D01*
X301217Y110892D01*
X301217Y109067D01*
X301229Y108996D01*
X301230Y108966D01*
X301235Y108954D01*
X301242Y108891D01*
X301252Y108869D01*
X301256Y108846D01*
X301302Y108769D01*
X301341Y108689D01*
X301358Y108673D01*
X301371Y108653D01*
X301440Y108597D01*
X301504Y108536D01*
X301526Y108526D01*
X301545Y108511D01*
X301629Y108483D01*
X301711Y108448D01*
X301735Y108447D01*
X301757Y108439D01*
X301846Y108442D01*
X301935Y108438D01*
X301958Y108445D01*
X301982Y108446D01*
X302064Y108480D01*
X302149Y108507D01*
X302170Y108522D01*
X302189Y108530D01*
X302227Y108564D01*
X302299Y108618D01*
X303128Y109447D01*
X306472Y109447D01*
X308837Y107082D01*
X308837Y103738D01*
X306472Y101373D01*
X303128Y101373D01*
G37*
%LPD*%
%LPC*%
G36*
X86061Y34313D02*
X86061Y34313D01*
X83843Y36531D01*
X83843Y39669D01*
X86061Y41887D01*
X89199Y41887D01*
X90992Y40094D01*
X91046Y40056D01*
X91093Y40011D01*
X91137Y39993D01*
X91176Y39966D01*
X91239Y39949D01*
X91300Y39924D01*
X91347Y39921D01*
X91393Y39910D01*
X91458Y39917D01*
X91524Y39914D01*
X91569Y39928D01*
X91616Y39933D01*
X91675Y39962D01*
X91738Y39982D01*
X91782Y40015D01*
X91817Y40032D01*
X91844Y40061D01*
X91889Y40094D01*
X93681Y41887D01*
X96819Y41887D01*
X99037Y39669D01*
X99037Y36531D01*
X96819Y34313D01*
X93681Y34313D01*
X91889Y36106D01*
X91834Y36144D01*
X91787Y36189D01*
X91743Y36207D01*
X91704Y36234D01*
X91641Y36251D01*
X91580Y36276D01*
X91533Y36279D01*
X91487Y36290D01*
X91422Y36283D01*
X91356Y36286D01*
X91311Y36272D01*
X91264Y36267D01*
X91205Y36238D01*
X91142Y36218D01*
X91098Y36185D01*
X91063Y36168D01*
X91036Y36139D01*
X90992Y36106D01*
X89199Y34313D01*
X86061Y34313D01*
G37*
%LPD*%
%LPC*%
G36*
X134321Y162583D02*
X134321Y162583D01*
X132103Y164801D01*
X132103Y167939D01*
X134321Y170157D01*
X137459Y170157D01*
X139251Y168364D01*
X139306Y168326D01*
X139353Y168281D01*
X139397Y168263D01*
X139436Y168236D01*
X139499Y168219D01*
X139560Y168194D01*
X139607Y168191D01*
X139653Y168180D01*
X139718Y168187D01*
X139784Y168184D01*
X139829Y168198D01*
X139876Y168203D01*
X139935Y168232D01*
X139998Y168252D01*
X140042Y168285D01*
X140077Y168302D01*
X140104Y168331D01*
X140148Y168364D01*
X141941Y170157D01*
X145079Y170157D01*
X147297Y167939D01*
X147297Y164801D01*
X145079Y162583D01*
X141941Y162583D01*
X140148Y164376D01*
X140094Y164414D01*
X140047Y164459D01*
X140003Y164477D01*
X139964Y164504D01*
X139901Y164521D01*
X139840Y164546D01*
X139793Y164549D01*
X139747Y164560D01*
X139682Y164553D01*
X139616Y164556D01*
X139571Y164542D01*
X139524Y164537D01*
X139465Y164508D01*
X139402Y164488D01*
X139358Y164455D01*
X139323Y164438D01*
X139296Y164409D01*
X139251Y164376D01*
X137459Y162583D01*
X134321Y162583D01*
G37*
%LPD*%
%LPC*%
G36*
X213061Y132103D02*
X213061Y132103D01*
X210843Y134321D01*
X210843Y137459D01*
X213061Y139677D01*
X214019Y139677D01*
X214084Y139688D01*
X214150Y139690D01*
X214193Y139708D01*
X214240Y139716D01*
X214297Y139750D01*
X214357Y139775D01*
X214392Y139806D01*
X214433Y139831D01*
X214475Y139882D01*
X214523Y139926D01*
X214545Y139968D01*
X214574Y140005D01*
X214595Y140067D01*
X214626Y140126D01*
X214634Y140180D01*
X214646Y140217D01*
X214645Y140257D01*
X214653Y140311D01*
X214653Y142539D01*
X216871Y144757D01*
X220009Y144757D01*
X222227Y142539D01*
X222227Y139401D01*
X220009Y137183D01*
X219051Y137183D01*
X218986Y137172D01*
X218920Y137170D01*
X218877Y137152D01*
X218830Y137144D01*
X218773Y137110D01*
X218713Y137085D01*
X218678Y137054D01*
X218637Y137029D01*
X218595Y136978D01*
X218547Y136934D01*
X218525Y136892D01*
X218496Y136855D01*
X218475Y136793D01*
X218444Y136734D01*
X218436Y136680D01*
X218424Y136643D01*
X218425Y136603D01*
X218417Y136549D01*
X218417Y134321D01*
X216199Y132103D01*
X213061Y132103D01*
G37*
%LPD*%
%LPC*%
G36*
X218141Y100353D02*
X218141Y100353D01*
X215923Y102571D01*
X215923Y103529D01*
X215912Y103594D01*
X215910Y103660D01*
X215892Y103703D01*
X215884Y103750D01*
X215850Y103807D01*
X215825Y103867D01*
X215794Y103902D01*
X215769Y103943D01*
X215718Y103985D01*
X215674Y104033D01*
X215632Y104055D01*
X215595Y104084D01*
X215533Y104105D01*
X215474Y104136D01*
X215420Y104144D01*
X215383Y104156D01*
X215343Y104155D01*
X215289Y104163D01*
X213061Y104163D01*
X210843Y106381D01*
X210843Y109519D01*
X213061Y111737D01*
X216199Y111737D01*
X218417Y109519D01*
X218417Y108561D01*
X218428Y108496D01*
X218430Y108430D01*
X218448Y108387D01*
X218456Y108340D01*
X218490Y108283D01*
X218515Y108223D01*
X218546Y108188D01*
X218571Y108147D01*
X218622Y108105D01*
X218666Y108057D01*
X218708Y108035D01*
X218745Y108006D01*
X218807Y107985D01*
X218866Y107954D01*
X218920Y107946D01*
X218957Y107934D01*
X218997Y107935D01*
X219051Y107927D01*
X221279Y107927D01*
X223497Y105709D01*
X223497Y102571D01*
X221279Y100353D01*
X218141Y100353D01*
G37*
%LPD*%
%LPC*%
G36*
X153371Y130833D02*
X153371Y130833D01*
X151153Y133051D01*
X151153Y136189D01*
X152311Y137346D01*
X152349Y137401D01*
X152394Y137448D01*
X152412Y137492D01*
X152439Y137531D01*
X152456Y137594D01*
X152481Y137655D01*
X152484Y137702D01*
X152495Y137748D01*
X152488Y137813D01*
X152491Y137879D01*
X152477Y137924D01*
X152472Y137971D01*
X152443Y138030D01*
X152423Y138093D01*
X152390Y138137D01*
X152373Y138172D01*
X152344Y138199D01*
X152311Y138243D01*
X151153Y139401D01*
X151153Y142539D01*
X153371Y144757D01*
X156509Y144757D01*
X158727Y142539D01*
X158727Y139401D01*
X157569Y138243D01*
X157531Y138189D01*
X157486Y138142D01*
X157468Y138098D01*
X157441Y138059D01*
X157424Y137996D01*
X157399Y137935D01*
X157396Y137888D01*
X157385Y137842D01*
X157392Y137777D01*
X157389Y137711D01*
X157403Y137666D01*
X157408Y137619D01*
X157437Y137560D01*
X157457Y137497D01*
X157490Y137453D01*
X157507Y137418D01*
X157536Y137391D01*
X157569Y137346D01*
X158727Y136189D01*
X158727Y133051D01*
X156509Y130833D01*
X153371Y130833D01*
G37*
%LPD*%
%LPC*%
G36*
X98761Y72413D02*
X98761Y72413D01*
X96543Y74631D01*
X96543Y77769D01*
X97701Y78926D01*
X97739Y78981D01*
X97784Y79028D01*
X97802Y79072D01*
X97829Y79111D01*
X97846Y79174D01*
X97871Y79235D01*
X97874Y79282D01*
X97885Y79328D01*
X97878Y79393D01*
X97881Y79459D01*
X97867Y79504D01*
X97862Y79551D01*
X97833Y79610D01*
X97813Y79673D01*
X97780Y79717D01*
X97763Y79752D01*
X97734Y79779D01*
X97701Y79823D01*
X96543Y80981D01*
X96543Y84119D01*
X98761Y86337D01*
X101899Y86337D01*
X104117Y84119D01*
X104117Y80981D01*
X102959Y79823D01*
X102921Y79769D01*
X102876Y79722D01*
X102858Y79678D01*
X102831Y79639D01*
X102814Y79576D01*
X102789Y79515D01*
X102786Y79468D01*
X102775Y79422D01*
X102782Y79357D01*
X102779Y79291D01*
X102793Y79246D01*
X102798Y79199D01*
X102827Y79140D01*
X102847Y79077D01*
X102880Y79033D01*
X102897Y78998D01*
X102926Y78971D01*
X102959Y78926D01*
X104117Y77769D01*
X104117Y74631D01*
X101899Y72413D01*
X98761Y72413D01*
G37*
%LPD*%
%LPC*%
G36*
X155911Y35583D02*
X155911Y35583D01*
X153693Y37801D01*
X153693Y40939D01*
X155911Y43157D01*
X159049Y43157D01*
X160207Y41999D01*
X160261Y41961D01*
X160308Y41916D01*
X160352Y41898D01*
X160391Y41871D01*
X160454Y41854D01*
X160515Y41829D01*
X160562Y41826D01*
X160608Y41815D01*
X160673Y41822D01*
X160739Y41819D01*
X160784Y41833D01*
X160831Y41838D01*
X160890Y41867D01*
X160953Y41887D01*
X160997Y41920D01*
X161032Y41937D01*
X161059Y41966D01*
X161104Y41999D01*
X162261Y43157D01*
X165399Y43157D01*
X167617Y40939D01*
X167617Y37801D01*
X165399Y35583D01*
X162261Y35583D01*
X161104Y36741D01*
X161049Y36779D01*
X161002Y36824D01*
X160958Y36842D01*
X160919Y36869D01*
X160856Y36886D01*
X160795Y36911D01*
X160748Y36914D01*
X160702Y36925D01*
X160637Y36918D01*
X160571Y36921D01*
X160526Y36907D01*
X160479Y36902D01*
X160420Y36873D01*
X160357Y36853D01*
X160313Y36820D01*
X160278Y36803D01*
X160251Y36774D01*
X160207Y36741D01*
X159049Y35583D01*
X155911Y35583D01*
G37*
%LPD*%
%LPC*%
G36*
X114001Y96543D02*
X114001Y96543D01*
X111783Y98761D01*
X111783Y101899D01*
X114001Y104117D01*
X117139Y104117D01*
X118296Y102959D01*
X118351Y102921D01*
X118398Y102876D01*
X118442Y102858D01*
X118481Y102831D01*
X118544Y102814D01*
X118605Y102789D01*
X118652Y102786D01*
X118698Y102775D01*
X118763Y102782D01*
X118829Y102779D01*
X118874Y102793D01*
X118921Y102798D01*
X118980Y102827D01*
X119043Y102847D01*
X119087Y102880D01*
X119122Y102897D01*
X119149Y102926D01*
X119193Y102959D01*
X120351Y104117D01*
X123489Y104117D01*
X125707Y101899D01*
X125707Y98761D01*
X123489Y96543D01*
X120351Y96543D01*
X119193Y97701D01*
X119139Y97739D01*
X119092Y97784D01*
X119048Y97802D01*
X119009Y97829D01*
X118946Y97846D01*
X118885Y97871D01*
X118838Y97874D01*
X118792Y97885D01*
X118727Y97878D01*
X118661Y97881D01*
X118616Y97867D01*
X118569Y97862D01*
X118510Y97833D01*
X118447Y97813D01*
X118403Y97780D01*
X118368Y97763D01*
X118341Y97734D01*
X118296Y97701D01*
X117139Y96543D01*
X114001Y96543D01*
G37*
%LPD*%
%LPC*%
G36*
X49231Y96543D02*
X49231Y96543D01*
X47013Y98761D01*
X47013Y101899D01*
X49231Y104117D01*
X52369Y104117D01*
X53526Y102959D01*
X53581Y102921D01*
X53628Y102876D01*
X53672Y102858D01*
X53711Y102831D01*
X53774Y102814D01*
X53835Y102789D01*
X53882Y102786D01*
X53928Y102775D01*
X53993Y102782D01*
X54059Y102779D01*
X54104Y102793D01*
X54151Y102798D01*
X54210Y102827D01*
X54273Y102847D01*
X54317Y102880D01*
X54352Y102897D01*
X54379Y102926D01*
X54423Y102959D01*
X55581Y104117D01*
X58719Y104117D01*
X60937Y101899D01*
X60937Y98761D01*
X58719Y96543D01*
X55581Y96543D01*
X54423Y97701D01*
X54369Y97739D01*
X54322Y97784D01*
X54278Y97802D01*
X54239Y97829D01*
X54176Y97846D01*
X54115Y97871D01*
X54068Y97874D01*
X54022Y97885D01*
X53957Y97878D01*
X53891Y97881D01*
X53846Y97867D01*
X53799Y97862D01*
X53740Y97833D01*
X53677Y97813D01*
X53633Y97780D01*
X53598Y97763D01*
X53571Y97734D01*
X53526Y97701D01*
X52369Y96543D01*
X49231Y96543D01*
G37*
%LPD*%
%LPC*%
G36*
X177501Y104163D02*
X177501Y104163D01*
X175283Y106381D01*
X175283Y109519D01*
X177501Y111737D01*
X180639Y111737D01*
X181797Y110579D01*
X181851Y110541D01*
X181898Y110496D01*
X181942Y110478D01*
X181981Y110451D01*
X182044Y110434D01*
X182105Y110409D01*
X182152Y110406D01*
X182198Y110395D01*
X182263Y110402D01*
X182329Y110399D01*
X182374Y110413D01*
X182421Y110418D01*
X182480Y110447D01*
X182543Y110467D01*
X182587Y110500D01*
X182622Y110517D01*
X182649Y110546D01*
X182694Y110579D01*
X183851Y111737D01*
X186989Y111737D01*
X189207Y109519D01*
X189207Y106381D01*
X186989Y104163D01*
X183851Y104163D01*
X182694Y105321D01*
X182639Y105359D01*
X182592Y105404D01*
X182548Y105422D01*
X182509Y105449D01*
X182446Y105466D01*
X182385Y105491D01*
X182338Y105494D01*
X182292Y105505D01*
X182227Y105498D01*
X182161Y105501D01*
X182116Y105487D01*
X182069Y105482D01*
X182010Y105453D01*
X181947Y105433D01*
X181903Y105400D01*
X181868Y105383D01*
X181841Y105354D01*
X181797Y105321D01*
X180639Y104163D01*
X177501Y104163D01*
G37*
%LPD*%
%LPC*%
G36*
X173691Y34313D02*
X173691Y34313D01*
X171473Y36531D01*
X171473Y39669D01*
X173691Y41887D01*
X176829Y41887D01*
X177987Y40729D01*
X178041Y40691D01*
X178088Y40646D01*
X178132Y40628D01*
X178171Y40601D01*
X178234Y40584D01*
X178295Y40559D01*
X178342Y40556D01*
X178388Y40545D01*
X178453Y40552D01*
X178519Y40549D01*
X178564Y40563D01*
X178611Y40568D01*
X178670Y40597D01*
X178733Y40617D01*
X178777Y40650D01*
X178812Y40667D01*
X178839Y40696D01*
X178884Y40729D01*
X180041Y41887D01*
X183179Y41887D01*
X185397Y39669D01*
X185397Y36531D01*
X183179Y34313D01*
X180041Y34313D01*
X178884Y35471D01*
X178829Y35509D01*
X178782Y35554D01*
X178738Y35572D01*
X178699Y35599D01*
X178636Y35616D01*
X178575Y35641D01*
X178528Y35644D01*
X178482Y35655D01*
X178417Y35648D01*
X178351Y35651D01*
X178306Y35637D01*
X178259Y35632D01*
X178200Y35603D01*
X178137Y35583D01*
X178093Y35550D01*
X178058Y35533D01*
X178031Y35504D01*
X177987Y35471D01*
X176829Y34313D01*
X173691Y34313D01*
G37*
%LPD*%
%LPC*%
G36*
X49231Y73683D02*
X49231Y73683D01*
X47013Y75901D01*
X47013Y79039D01*
X49231Y81257D01*
X52369Y81257D01*
X53526Y80099D01*
X53560Y80076D01*
X53582Y80051D01*
X53602Y80041D01*
X53628Y80016D01*
X53672Y79998D01*
X53711Y79971D01*
X53767Y79956D01*
X53782Y79948D01*
X53792Y79947D01*
X53835Y79929D01*
X53882Y79926D01*
X53928Y79915D01*
X53993Y79922D01*
X54059Y79919D01*
X54104Y79933D01*
X54151Y79938D01*
X54193Y79958D01*
X54204Y79960D01*
X54221Y79970D01*
X54273Y79987D01*
X54317Y80020D01*
X54352Y80037D01*
X54375Y80062D01*
X54397Y80075D01*
X54406Y80086D01*
X54423Y80099D01*
X55581Y81257D01*
X58719Y81257D01*
X60937Y79039D01*
X60937Y75901D01*
X58719Y73683D01*
X55581Y73683D01*
X54423Y74841D01*
X54369Y74879D01*
X54322Y74924D01*
X54278Y74942D01*
X54239Y74969D01*
X54176Y74986D01*
X54115Y75011D01*
X54068Y75014D01*
X54022Y75025D01*
X53957Y75018D01*
X53891Y75021D01*
X53846Y75007D01*
X53799Y75002D01*
X53740Y74973D01*
X53677Y74953D01*
X53633Y74920D01*
X53598Y74903D01*
X53571Y74874D01*
X53526Y74841D01*
X52369Y73683D01*
X49231Y73683D01*
G37*
%LPD*%
%LPC*%
G36*
X270108Y105183D02*
X270108Y105183D01*
X267743Y107548D01*
X267743Y110892D01*
X270108Y113257D01*
X273452Y113257D01*
X275817Y110892D01*
X275817Y107548D01*
X273452Y105183D01*
X270108Y105183D01*
G37*
%LPD*%
%LPC*%
G36*
X282808Y105183D02*
X282808Y105183D01*
X280443Y107548D01*
X280443Y110892D01*
X282808Y113257D01*
X286152Y113257D01*
X288517Y110892D01*
X288517Y107548D01*
X286152Y105183D01*
X282808Y105183D01*
G37*
%LPD*%
%LPC*%
G36*
X257408Y105183D02*
X257408Y105183D01*
X255043Y107548D01*
X255043Y110892D01*
X257408Y113257D01*
X260752Y113257D01*
X263117Y110892D01*
X263117Y107548D01*
X260752Y105183D01*
X257408Y105183D01*
G37*
%LPD*%
%LPC*%
G36*
X244708Y105183D02*
X244708Y105183D01*
X242343Y107548D01*
X242343Y110892D01*
X244708Y113257D01*
X248052Y113257D01*
X250417Y110892D01*
X250417Y107548D01*
X248052Y105183D01*
X244708Y105183D01*
G37*
%LPD*%
%LPC*%
G36*
X87228Y116613D02*
X87228Y116613D01*
X84863Y118978D01*
X84863Y122322D01*
X87228Y124687D01*
X90572Y124687D01*
X92937Y122322D01*
X92937Y118978D01*
X90572Y116613D01*
X87228Y116613D01*
G37*
%LPD*%
%LPC*%
G36*
X99928Y116613D02*
X99928Y116613D01*
X97563Y118978D01*
X97563Y122322D01*
X99928Y124687D01*
X103272Y124687D01*
X105637Y122322D01*
X105637Y118978D01*
X103272Y116613D01*
X99928Y116613D01*
G37*
%LPD*%
%LPC*%
G36*
X282808Y117883D02*
X282808Y117883D01*
X280443Y120248D01*
X280443Y123592D01*
X282808Y125957D01*
X286152Y125957D01*
X288517Y123592D01*
X288517Y120248D01*
X286152Y117883D01*
X282808Y117883D01*
G37*
%LPD*%
%LPC*%
G36*
X270108Y117883D02*
X270108Y117883D01*
X267743Y120248D01*
X267743Y123592D01*
X270108Y125957D01*
X273452Y125957D01*
X275817Y123592D01*
X275817Y120248D01*
X273452Y117883D01*
X270108Y117883D01*
G37*
%LPD*%
%LPC*%
G36*
X257408Y117883D02*
X257408Y117883D01*
X255043Y120248D01*
X255043Y123592D01*
X257408Y125957D01*
X260752Y125957D01*
X263117Y123592D01*
X263117Y120248D01*
X260752Y117883D01*
X257408Y117883D01*
G37*
%LPD*%
%LPC*%
G36*
X93578Y129313D02*
X93578Y129313D01*
X91213Y131678D01*
X91213Y135022D01*
X93578Y137387D01*
X96922Y137387D01*
X99287Y135022D01*
X99287Y131678D01*
X96922Y129313D01*
X93578Y129313D01*
G37*
%LPD*%
%LPC*%
G36*
X118978Y129313D02*
X118978Y129313D01*
X116613Y131678D01*
X116613Y135022D01*
X118978Y137387D01*
X122322Y137387D01*
X124687Y135022D01*
X124687Y131678D01*
X122322Y129313D01*
X118978Y129313D01*
G37*
%LPD*%
%LPC*%
G36*
X106278Y129313D02*
X106278Y129313D01*
X103913Y131678D01*
X103913Y135022D01*
X106278Y137387D01*
X109622Y137387D01*
X111987Y135022D01*
X111987Y131678D01*
X109622Y129313D01*
X106278Y129313D01*
G37*
%LPD*%
%LPC*%
G36*
X282911Y64793D02*
X282911Y64793D01*
X280693Y67011D01*
X280693Y70149D01*
X282911Y72367D01*
X286049Y72367D01*
X288267Y70149D01*
X288267Y67011D01*
X286049Y64793D01*
X282911Y64793D01*
G37*
%LPD*%
%LPC*%
G36*
X282911Y168933D02*
X282911Y168933D01*
X280693Y171151D01*
X280693Y174289D01*
X282911Y176507D01*
X286049Y176507D01*
X288267Y174289D01*
X288267Y171151D01*
X286049Y168933D01*
X282911Y168933D01*
G37*
%LPD*%
%LPC*%
G36*
X130511Y153693D02*
X130511Y153693D01*
X128293Y155911D01*
X128293Y159049D01*
X130511Y161267D01*
X133649Y161267D01*
X135867Y159049D01*
X135867Y155911D01*
X133649Y153693D01*
X130511Y153693D01*
G37*
%LPD*%
%LPC*%
G36*
X282911Y52093D02*
X282911Y52093D01*
X280693Y54311D01*
X280693Y57449D01*
X282911Y59667D01*
X286049Y59667D01*
X288267Y57449D01*
X288267Y54311D01*
X286049Y52093D01*
X282911Y52093D01*
G37*
%LPD*%
%LPC*%
G36*
X282911Y156233D02*
X282911Y156233D01*
X280693Y158451D01*
X280693Y161589D01*
X282911Y163807D01*
X286049Y163807D01*
X288267Y161589D01*
X288267Y158451D01*
X286049Y156233D01*
X282911Y156233D01*
G37*
%LPD*%
%LPC*%
G36*
X9861Y162583D02*
X9861Y162583D01*
X7643Y164801D01*
X7643Y167939D01*
X9861Y170157D01*
X12999Y170157D01*
X15217Y167939D01*
X15217Y164801D01*
X12999Y162583D01*
X9861Y162583D01*
G37*
%LPD*%
%LPC*%
G36*
X22561Y162583D02*
X22561Y162583D01*
X20343Y164801D01*
X20343Y167939D01*
X22561Y170157D01*
X25699Y170157D01*
X27917Y167939D01*
X27917Y164801D01*
X25699Y162583D01*
X22561Y162583D01*
G37*
%LPD*%
%LPC*%
G36*
X35261Y162583D02*
X35261Y162583D01*
X33043Y164801D01*
X33043Y167939D01*
X35261Y170157D01*
X38399Y170157D01*
X40617Y167939D01*
X40617Y164801D01*
X38399Y162583D01*
X35261Y162583D01*
G37*
%LPD*%
%LPC*%
G36*
X145751Y153693D02*
X145751Y153693D01*
X143533Y155911D01*
X143533Y159049D01*
X145751Y161267D01*
X148889Y161267D01*
X151107Y159049D01*
X151107Y155911D01*
X148889Y153693D01*
X145751Y153693D01*
G37*
%LPD*%
%LPC*%
G36*
X282911Y77493D02*
X282911Y77493D01*
X280693Y79711D01*
X280693Y82849D01*
X282911Y85067D01*
X286049Y85067D01*
X288267Y82849D01*
X288267Y79711D01*
X286049Y77493D01*
X282911Y77493D01*
G37*
%LPD*%
%LPC*%
G36*
X282911Y143533D02*
X282911Y143533D01*
X280693Y145751D01*
X280693Y148889D01*
X282911Y151107D01*
X286049Y151107D01*
X288267Y148889D01*
X288267Y145751D01*
X286049Y143533D01*
X282911Y143533D01*
G37*
%LPD*%
%LPC*%
G36*
X164801Y82573D02*
X164801Y82573D01*
X162583Y84791D01*
X162583Y87929D01*
X164801Y90147D01*
X167939Y90147D01*
X170157Y87929D01*
X170157Y84791D01*
X167939Y82573D01*
X164801Y82573D01*
G37*
%LPD*%
%LPC*%
G36*
X9861Y83843D02*
X9861Y83843D01*
X7643Y86061D01*
X7643Y89199D01*
X9861Y91417D01*
X12999Y91417D01*
X15217Y89199D01*
X15217Y86061D01*
X12999Y83843D01*
X9861Y83843D01*
G37*
%LPD*%
%LPC*%
G36*
X22561Y83843D02*
X22561Y83843D01*
X20343Y86061D01*
X20343Y89199D01*
X22561Y91417D01*
X25699Y91417D01*
X27917Y89199D01*
X27917Y86061D01*
X25699Y83843D01*
X22561Y83843D01*
G37*
%LPD*%
%LPC*%
G36*
X35261Y83843D02*
X35261Y83843D01*
X33043Y86061D01*
X33043Y89199D01*
X35261Y91417D01*
X38399Y91417D01*
X40617Y89199D01*
X40617Y86061D01*
X38399Y83843D01*
X35261Y83843D01*
G37*
%LPD*%
%LPC*%
G36*
X169881Y109243D02*
X169881Y109243D01*
X167663Y111461D01*
X167663Y114599D01*
X169881Y116817D01*
X173019Y116817D01*
X175237Y114599D01*
X175237Y111461D01*
X173019Y109243D01*
X169881Y109243D01*
G37*
%LPD*%
D10*
X340360Y172720D03*
X307340Y172720D03*
X340360Y147320D03*
X307340Y147320D03*
X284480Y172720D03*
X284480Y147320D03*
X363220Y172720D03*
X363220Y147320D03*
X363220Y160020D03*
X284480Y160020D03*
X307340Y160020D03*
X340360Y160020D03*
X332740Y138430D03*
X314960Y138430D03*
X307340Y55880D03*
X340360Y55880D03*
X307340Y81280D03*
X340360Y81280D03*
X363220Y55880D03*
X363220Y81280D03*
X284480Y55880D03*
X284480Y81280D03*
X284480Y68580D03*
X363220Y68580D03*
X340360Y68580D03*
X307340Y68580D03*
X314960Y90170D03*
X332740Y90170D03*
X11430Y143510D03*
X11430Y110490D03*
X36830Y143510D03*
X36830Y110490D03*
X11430Y87630D03*
X36830Y87630D03*
X11430Y166370D03*
X36830Y166370D03*
X24130Y166370D03*
X24130Y87630D03*
X24130Y110490D03*
X24130Y143510D03*
X45720Y135890D03*
X45720Y118110D03*
D11*
X19050Y25400D03*
X19050Y50800D03*
D10*
X115570Y100330D03*
X121920Y100330D03*
X154940Y78740D03*
X161290Y78740D03*
X166370Y86360D03*
X151130Y86360D03*
X134620Y107950D03*
X134620Y101600D03*
X154940Y134620D03*
X154940Y140970D03*
X147320Y157480D03*
X132080Y157480D03*
X135890Y166370D03*
X143510Y166370D03*
X50800Y77470D03*
X57150Y77470D03*
X50800Y100330D03*
X57150Y100330D03*
X50800Y120650D03*
X50800Y133350D03*
X100330Y76200D03*
X100330Y82550D03*
X95250Y38100D03*
X87630Y38100D03*
D12*
X95250Y133350D03*
X107950Y133350D03*
X101600Y120650D03*
X88900Y120650D03*
X120650Y133350D03*
D10*
X139700Y97790D03*
X134620Y93980D03*
X185420Y135890D03*
X185420Y107950D03*
X179070Y135890D03*
X179070Y107950D03*
X171450Y132080D03*
X171450Y113030D03*
X181610Y38100D03*
X175260Y38100D03*
X163830Y39370D03*
X157480Y39370D03*
X214630Y135890D03*
X214630Y107950D03*
X218440Y140970D03*
X219710Y104140D03*
X195580Y77470D03*
X208280Y77470D03*
X215900Y77470D03*
X217170Y85090D03*
X187960Y77470D03*
X186690Y85090D03*
X233680Y137160D03*
X240030Y137160D03*
D12*
X246380Y121920D03*
X246380Y109220D03*
X297180Y109220D03*
X297180Y121920D03*
X330200Y132080D03*
X317500Y132080D03*
X330200Y97790D03*
X317500Y97790D03*
X330200Y123190D03*
X330200Y106680D03*
X304800Y127000D03*
X304800Y105410D03*
X245110Y129540D03*
X259080Y121920D03*
X271780Y121920D03*
X284480Y121920D03*
X259080Y109220D03*
X271780Y109220D03*
X284480Y109220D03*
D10*
X205740Y166370D03*
X198120Y166370D03*
X194310Y158750D03*
X209550Y158750D03*
X43180Y63500D03*
X50800Y63500D03*
X58420Y63500D03*
X50800Y44450D03*
X43180Y44450D03*
X58420Y44450D03*
D12*
X330200Y115570D03*
D10*
X144780Y121920D03*
X110490Y120650D03*
X110490Y115570D03*
X147320Y147320D03*
X132080Y147320D03*
X134620Y139700D03*
X149860Y100330D03*
X149860Y93980D03*
X167640Y100330D03*
X167640Y93980D03*
X105410Y38100D03*
X113030Y38100D03*
X125730Y38100D03*
X134620Y38100D03*
X142240Y52070D03*
X142240Y44450D03*
X73660Y167640D03*
X82550Y167640D03*
X68580Y154940D03*
X88900Y154940D03*
X68580Y161290D03*
X88900Y161290D03*
X199390Y121920D03*
X220980Y52070D03*
X220980Y45720D03*
X214630Y39370D03*
X208280Y39370D03*
X198120Y39370D03*
X190500Y39370D03*
X194310Y148590D03*
X209550Y148590D03*
X217170Y97790D03*
X217170Y92710D03*
X186690Y95250D03*
X63500Y26670D03*
X63500Y19050D03*
X46990Y33020D03*
X54610Y33020D03*
X46990Y12700D03*
X54610Y12700D03*
M02*
