G04 EAGLE Gerber RS-274X export*
G75*
%MOMM*%
%FSLAX34Y34*%
%LPD*%
%INSolder side*%
%IPPOS*%
%AMOC8*
5,1,8,0,0,1.08239X$1,22.5*%
G01*
%ADD10C,0.503200*%
%ADD11R,9.144000X4.572000*%
%ADD12R,4.572000X9.144000*%
%ADD13P,2.089446X8X292.500000*%
%ADD14C,0.553200*%

G36*
X236920Y3822D02*
X236920Y3822D01*
X236986Y3824D01*
X237029Y3842D01*
X237076Y3850D01*
X237133Y3884D01*
X237193Y3909D01*
X237228Y3940D01*
X237269Y3965D01*
X237311Y4016D01*
X237359Y4060D01*
X237381Y4102D01*
X237410Y4139D01*
X237431Y4201D01*
X237462Y4260D01*
X237470Y4314D01*
X237482Y4351D01*
X237481Y4391D01*
X237489Y4445D01*
X237489Y46028D01*
X239722Y48261D01*
X370205Y48261D01*
X370270Y48272D01*
X370336Y48274D01*
X370379Y48292D01*
X370426Y48300D01*
X370483Y48334D01*
X370543Y48359D01*
X370578Y48390D01*
X370619Y48415D01*
X370661Y48466D01*
X370709Y48510D01*
X370731Y48552D01*
X370760Y48589D01*
X370781Y48651D01*
X370812Y48710D01*
X370820Y48764D01*
X370832Y48801D01*
X370831Y48841D01*
X370839Y48895D01*
X370839Y179705D01*
X370828Y179770D01*
X370826Y179836D01*
X370808Y179879D01*
X370800Y179926D01*
X370766Y179983D01*
X370741Y180043D01*
X370710Y180078D01*
X370685Y180119D01*
X370634Y180161D01*
X370590Y180209D01*
X370548Y180231D01*
X370511Y180260D01*
X370449Y180281D01*
X370390Y180312D01*
X370336Y180320D01*
X370299Y180332D01*
X370259Y180331D01*
X370205Y180339D01*
X4445Y180339D01*
X4380Y180328D01*
X4314Y180326D01*
X4271Y180308D01*
X4224Y180300D01*
X4167Y180266D01*
X4107Y180241D01*
X4072Y180210D01*
X4031Y180185D01*
X3989Y180134D01*
X3941Y180090D01*
X3919Y180048D01*
X3890Y180011D01*
X3869Y179949D01*
X3838Y179890D01*
X3830Y179836D01*
X3818Y179799D01*
X3819Y179759D01*
X3811Y179705D01*
X3811Y4445D01*
X3822Y4380D01*
X3824Y4314D01*
X3842Y4271D01*
X3850Y4224D01*
X3884Y4167D01*
X3909Y4107D01*
X3940Y4072D01*
X3965Y4031D01*
X4016Y3989D01*
X4060Y3941D01*
X4102Y3919D01*
X4139Y3890D01*
X4201Y3869D01*
X4260Y3838D01*
X4314Y3830D01*
X4351Y3818D01*
X4391Y3819D01*
X4445Y3811D01*
X236855Y3811D01*
X236920Y3822D01*
G37*
%LPC*%
G36*
X14526Y14477D02*
X14526Y14477D01*
X8127Y20876D01*
X8127Y29924D01*
X14526Y36323D01*
X23574Y36323D01*
X29973Y29924D01*
X29973Y20876D01*
X23574Y14477D01*
X14526Y14477D01*
G37*
%LPD*%
%LPC*%
G36*
X67011Y151153D02*
X67011Y151153D01*
X64793Y153371D01*
X64793Y156509D01*
X65951Y157666D01*
X65989Y157721D01*
X66034Y157768D01*
X66052Y157812D01*
X66079Y157851D01*
X66096Y157914D01*
X66121Y157975D01*
X66124Y158022D01*
X66135Y158068D01*
X66128Y158133D01*
X66131Y158199D01*
X66117Y158244D01*
X66112Y158291D01*
X66083Y158350D01*
X66063Y158413D01*
X66030Y158457D01*
X66013Y158492D01*
X65984Y158519D01*
X65951Y158563D01*
X64793Y159721D01*
X64793Y162859D01*
X67011Y165077D01*
X69337Y165077D01*
X69425Y165093D01*
X69513Y165102D01*
X69534Y165112D01*
X69558Y165116D01*
X69634Y165162D01*
X69714Y165201D01*
X69730Y165218D01*
X69751Y165231D01*
X69807Y165300D01*
X69868Y165364D01*
X69877Y165386D01*
X69892Y165405D01*
X69921Y165489D01*
X69955Y165571D01*
X69957Y165595D01*
X69964Y165617D01*
X69961Y165706D01*
X69965Y165795D01*
X69958Y165818D01*
X69957Y165842D01*
X69924Y165924D01*
X69897Y166009D01*
X69881Y166030D01*
X69873Y166049D01*
X69873Y169209D01*
X72091Y171427D01*
X75229Y171427D01*
X77447Y169209D01*
X77447Y166071D01*
X75229Y163853D01*
X72903Y163853D01*
X72815Y163837D01*
X72727Y163828D01*
X72706Y163818D01*
X72682Y163814D01*
X72606Y163768D01*
X72526Y163729D01*
X72510Y163712D01*
X72489Y163699D01*
X72433Y163630D01*
X72372Y163566D01*
X72363Y163544D01*
X72348Y163525D01*
X72319Y163441D01*
X72285Y163359D01*
X72283Y163335D01*
X72276Y163313D01*
X72279Y163224D01*
X72275Y163135D01*
X72282Y163112D01*
X72283Y163088D01*
X72316Y163006D01*
X72343Y162921D01*
X72359Y162900D01*
X72367Y162881D01*
X72367Y159721D01*
X71209Y158563D01*
X71171Y158509D01*
X71126Y158462D01*
X71108Y158418D01*
X71081Y158379D01*
X71064Y158316D01*
X71039Y158255D01*
X71036Y158208D01*
X71025Y158162D01*
X71032Y158097D01*
X71029Y158031D01*
X71043Y157986D01*
X71048Y157939D01*
X71077Y157880D01*
X71097Y157817D01*
X71130Y157773D01*
X71147Y157738D01*
X71176Y157711D01*
X71209Y157666D01*
X72367Y156509D01*
X72367Y153371D01*
X70149Y151153D01*
X67011Y151153D01*
G37*
%LPD*%
%LPC*%
G36*
X133051Y135913D02*
X133051Y135913D01*
X130833Y138131D01*
X130833Y141269D01*
X132015Y142451D01*
X132066Y142524D01*
X132122Y142593D01*
X132130Y142615D01*
X132143Y142635D01*
X132166Y142721D01*
X132194Y142805D01*
X132193Y142829D01*
X132199Y142852D01*
X132190Y142941D01*
X132187Y143030D01*
X132179Y143052D01*
X132176Y143075D01*
X132137Y143155D01*
X132103Y143237D01*
X132087Y143255D01*
X132077Y143276D01*
X132012Y143337D01*
X131952Y143403D01*
X131931Y143414D01*
X131913Y143430D01*
X131831Y143465D01*
X131752Y143506D01*
X131726Y143509D01*
X131707Y143518D01*
X131656Y143520D01*
X131567Y143533D01*
X130511Y143533D01*
X128293Y145751D01*
X128293Y148889D01*
X130511Y151107D01*
X133649Y151107D01*
X135867Y148889D01*
X135867Y145751D01*
X134685Y144569D01*
X134634Y144496D01*
X134578Y144427D01*
X134570Y144405D01*
X134557Y144385D01*
X134534Y144299D01*
X134506Y144215D01*
X134507Y144191D01*
X134501Y144168D01*
X134510Y144079D01*
X134513Y143990D01*
X134521Y143968D01*
X134524Y143945D01*
X134563Y143865D01*
X134597Y143783D01*
X134613Y143765D01*
X134623Y143744D01*
X134688Y143683D01*
X134748Y143617D01*
X134769Y143606D01*
X134787Y143590D01*
X134869Y143555D01*
X134948Y143514D01*
X134974Y143511D01*
X134993Y143502D01*
X135044Y143500D01*
X135133Y143487D01*
X136189Y143487D01*
X138407Y141269D01*
X138407Y138131D01*
X136189Y135913D01*
X133051Y135913D01*
G37*
%LPD*%
%LPC*%
G36*
X45421Y8913D02*
X45421Y8913D01*
X43203Y11131D01*
X43203Y14269D01*
X45421Y16487D01*
X48559Y16487D01*
X50351Y14694D01*
X50406Y14656D01*
X50453Y14611D01*
X50497Y14593D01*
X50536Y14566D01*
X50599Y14549D01*
X50660Y14524D01*
X50707Y14521D01*
X50753Y14510D01*
X50818Y14517D01*
X50884Y14514D01*
X50929Y14528D01*
X50976Y14533D01*
X51035Y14562D01*
X51098Y14582D01*
X51142Y14615D01*
X51177Y14632D01*
X51204Y14661D01*
X51248Y14694D01*
X53041Y16487D01*
X56179Y16487D01*
X58397Y14269D01*
X58397Y11131D01*
X56179Y8913D01*
X53041Y8913D01*
X51248Y10706D01*
X51194Y10744D01*
X51147Y10789D01*
X51103Y10807D01*
X51064Y10834D01*
X51001Y10851D01*
X50940Y10876D01*
X50893Y10879D01*
X50847Y10890D01*
X50782Y10883D01*
X50716Y10886D01*
X50671Y10872D01*
X50624Y10867D01*
X50565Y10838D01*
X50502Y10818D01*
X50458Y10785D01*
X50423Y10768D01*
X50396Y10739D01*
X50351Y10706D01*
X48559Y8913D01*
X45421Y8913D01*
G37*
%LPD*%
%LPC*%
G36*
X61931Y15263D02*
X61931Y15263D01*
X59713Y17481D01*
X59713Y20619D01*
X61506Y22412D01*
X61544Y22466D01*
X61589Y22513D01*
X61607Y22557D01*
X61634Y22596D01*
X61651Y22659D01*
X61676Y22720D01*
X61679Y22767D01*
X61690Y22813D01*
X61683Y22878D01*
X61686Y22944D01*
X61672Y22989D01*
X61667Y23036D01*
X61638Y23095D01*
X61618Y23158D01*
X61585Y23202D01*
X61568Y23237D01*
X61539Y23264D01*
X61506Y23309D01*
X59713Y25101D01*
X59713Y28239D01*
X61931Y30457D01*
X65069Y30457D01*
X67287Y28239D01*
X67287Y25101D01*
X65494Y23309D01*
X65456Y23254D01*
X65411Y23207D01*
X65393Y23163D01*
X65366Y23124D01*
X65349Y23061D01*
X65324Y23000D01*
X65321Y22953D01*
X65310Y22907D01*
X65317Y22842D01*
X65314Y22776D01*
X65328Y22731D01*
X65333Y22684D01*
X65362Y22625D01*
X65382Y22562D01*
X65415Y22518D01*
X65432Y22483D01*
X65461Y22456D01*
X65494Y22412D01*
X67287Y20619D01*
X67287Y17481D01*
X65069Y15263D01*
X61931Y15263D01*
G37*
%LPD*%
%LPC*%
G36*
X45421Y29233D02*
X45421Y29233D01*
X43203Y31451D01*
X43203Y34589D01*
X45421Y36807D01*
X48559Y36807D01*
X50351Y35014D01*
X50406Y34976D01*
X50453Y34931D01*
X50497Y34913D01*
X50536Y34886D01*
X50599Y34869D01*
X50660Y34844D01*
X50707Y34841D01*
X50753Y34830D01*
X50818Y34837D01*
X50884Y34834D01*
X50929Y34848D01*
X50976Y34853D01*
X51035Y34882D01*
X51098Y34902D01*
X51142Y34935D01*
X51177Y34952D01*
X51204Y34981D01*
X51248Y35014D01*
X53041Y36807D01*
X56179Y36807D01*
X58397Y34589D01*
X58397Y31451D01*
X56179Y29233D01*
X53041Y29233D01*
X51248Y31026D01*
X51194Y31064D01*
X51147Y31109D01*
X51103Y31127D01*
X51064Y31154D01*
X51001Y31171D01*
X50940Y31196D01*
X50893Y31199D01*
X50847Y31210D01*
X50782Y31203D01*
X50716Y31206D01*
X50671Y31192D01*
X50624Y31187D01*
X50565Y31158D01*
X50502Y31138D01*
X50458Y31105D01*
X50423Y31088D01*
X50396Y31059D01*
X50351Y31026D01*
X48559Y29233D01*
X45421Y29233D01*
G37*
%LPD*%
%LPC*%
G36*
X103841Y34313D02*
X103841Y34313D01*
X101623Y36531D01*
X101623Y39669D01*
X103841Y41887D01*
X106979Y41887D01*
X108771Y40094D01*
X108826Y40056D01*
X108873Y40011D01*
X108917Y39993D01*
X108956Y39966D01*
X109019Y39949D01*
X109080Y39924D01*
X109127Y39921D01*
X109173Y39910D01*
X109238Y39917D01*
X109304Y39914D01*
X109349Y39928D01*
X109396Y39933D01*
X109455Y39962D01*
X109518Y39982D01*
X109562Y40015D01*
X109597Y40032D01*
X109624Y40061D01*
X109668Y40094D01*
X111461Y41887D01*
X114599Y41887D01*
X116817Y39669D01*
X116817Y36531D01*
X114599Y34313D01*
X111461Y34313D01*
X109668Y36106D01*
X109614Y36144D01*
X109567Y36189D01*
X109523Y36207D01*
X109484Y36234D01*
X109421Y36251D01*
X109360Y36276D01*
X109313Y36279D01*
X109267Y36290D01*
X109202Y36283D01*
X109136Y36286D01*
X109091Y36272D01*
X109044Y36267D01*
X108985Y36238D01*
X108922Y36218D01*
X108878Y36185D01*
X108843Y36168D01*
X108816Y36139D01*
X108771Y36106D01*
X106979Y34313D01*
X103841Y34313D01*
G37*
%LPD*%
%LPC*%
G36*
X188931Y35583D02*
X188931Y35583D01*
X186713Y37801D01*
X186713Y40939D01*
X188931Y43157D01*
X192069Y43157D01*
X193862Y41364D01*
X193916Y41326D01*
X193963Y41281D01*
X194007Y41263D01*
X194046Y41236D01*
X194109Y41219D01*
X194170Y41194D01*
X194217Y41191D01*
X194263Y41180D01*
X194328Y41187D01*
X194394Y41184D01*
X194439Y41198D01*
X194486Y41203D01*
X194545Y41232D01*
X194608Y41252D01*
X194652Y41285D01*
X194687Y41302D01*
X194714Y41331D01*
X194759Y41364D01*
X196551Y43157D01*
X199689Y43157D01*
X201907Y40939D01*
X201907Y37801D01*
X199689Y35583D01*
X196551Y35583D01*
X194759Y37376D01*
X194704Y37414D01*
X194657Y37459D01*
X194613Y37477D01*
X194574Y37504D01*
X194511Y37521D01*
X194450Y37546D01*
X194403Y37549D01*
X194357Y37560D01*
X194292Y37553D01*
X194226Y37556D01*
X194181Y37542D01*
X194134Y37537D01*
X194075Y37508D01*
X194012Y37488D01*
X193968Y37455D01*
X193933Y37438D01*
X193906Y37409D01*
X193862Y37376D01*
X192069Y35583D01*
X188931Y35583D01*
G37*
%LPD*%
%LPC*%
G36*
X140671Y40663D02*
X140671Y40663D01*
X138453Y42881D01*
X138453Y46019D01*
X140246Y47812D01*
X140284Y47866D01*
X140329Y47913D01*
X140347Y47957D01*
X140374Y47996D01*
X140391Y48059D01*
X140416Y48120D01*
X140419Y48167D01*
X140430Y48213D01*
X140423Y48278D01*
X140426Y48344D01*
X140412Y48389D01*
X140407Y48436D01*
X140378Y48495D01*
X140358Y48558D01*
X140325Y48602D01*
X140308Y48637D01*
X140279Y48664D01*
X140246Y48709D01*
X138453Y50501D01*
X138453Y53639D01*
X140671Y55857D01*
X143809Y55857D01*
X146027Y53639D01*
X146027Y50501D01*
X144234Y48709D01*
X144196Y48654D01*
X144151Y48607D01*
X144133Y48563D01*
X144106Y48524D01*
X144089Y48461D01*
X144064Y48400D01*
X144061Y48353D01*
X144050Y48307D01*
X144057Y48242D01*
X144054Y48176D01*
X144068Y48131D01*
X144073Y48084D01*
X144102Y48025D01*
X144122Y47962D01*
X144155Y47918D01*
X144172Y47883D01*
X144201Y47856D01*
X144234Y47812D01*
X146027Y46019D01*
X146027Y42881D01*
X143809Y40663D01*
X140671Y40663D01*
G37*
%LPD*%
%LPC*%
G36*
X87331Y151153D02*
X87331Y151153D01*
X85113Y153371D01*
X85113Y156509D01*
X86271Y157666D01*
X86309Y157721D01*
X86354Y157768D01*
X86372Y157812D01*
X86399Y157851D01*
X86416Y157914D01*
X86441Y157975D01*
X86444Y158022D01*
X86455Y158068D01*
X86448Y158133D01*
X86451Y158199D01*
X86437Y158244D01*
X86432Y158291D01*
X86403Y158350D01*
X86383Y158413D01*
X86350Y158457D01*
X86333Y158492D01*
X86304Y158519D01*
X86271Y158563D01*
X85113Y159721D01*
X85113Y162859D01*
X87331Y165077D01*
X90469Y165077D01*
X92687Y162859D01*
X92687Y159721D01*
X91529Y158563D01*
X91491Y158509D01*
X91446Y158462D01*
X91428Y158418D01*
X91401Y158379D01*
X91384Y158316D01*
X91359Y158255D01*
X91356Y158208D01*
X91345Y158162D01*
X91352Y158097D01*
X91349Y158031D01*
X91363Y157986D01*
X91368Y157939D01*
X91397Y157880D01*
X91417Y157817D01*
X91450Y157773D01*
X91467Y157738D01*
X91496Y157711D01*
X91529Y157666D01*
X92687Y156509D01*
X92687Y153371D01*
X90469Y151153D01*
X87331Y151153D01*
G37*
%LPD*%
%LPC*%
G36*
X206711Y35583D02*
X206711Y35583D01*
X204493Y37801D01*
X204493Y40939D01*
X206711Y43157D01*
X209849Y43157D01*
X211007Y41999D01*
X211061Y41961D01*
X211108Y41916D01*
X211152Y41898D01*
X211191Y41871D01*
X211254Y41854D01*
X211315Y41829D01*
X211362Y41826D01*
X211408Y41815D01*
X211473Y41822D01*
X211539Y41819D01*
X211584Y41833D01*
X211631Y41838D01*
X211690Y41867D01*
X211753Y41887D01*
X211797Y41920D01*
X211832Y41937D01*
X211859Y41966D01*
X211904Y41999D01*
X213061Y43157D01*
X216199Y43157D01*
X218417Y40939D01*
X218417Y37801D01*
X216199Y35583D01*
X213061Y35583D01*
X211904Y36741D01*
X211849Y36779D01*
X211802Y36824D01*
X211758Y36842D01*
X211719Y36869D01*
X211656Y36886D01*
X211595Y36911D01*
X211548Y36914D01*
X211502Y36925D01*
X211437Y36918D01*
X211371Y36921D01*
X211326Y36907D01*
X211279Y36902D01*
X211220Y36873D01*
X211157Y36853D01*
X211113Y36820D01*
X211078Y36803D01*
X211051Y36774D01*
X211007Y36741D01*
X209849Y35583D01*
X206711Y35583D01*
G37*
%LPD*%
%LPC*%
G36*
X166071Y90193D02*
X166071Y90193D01*
X163853Y92411D01*
X163853Y95549D01*
X165011Y96707D01*
X165049Y96761D01*
X165094Y96808D01*
X165112Y96852D01*
X165139Y96891D01*
X165156Y96954D01*
X165181Y97015D01*
X165184Y97062D01*
X165195Y97108D01*
X165188Y97173D01*
X165191Y97239D01*
X165177Y97284D01*
X165172Y97331D01*
X165143Y97390D01*
X165123Y97453D01*
X165090Y97497D01*
X165073Y97532D01*
X165044Y97559D01*
X165011Y97604D01*
X163853Y98761D01*
X163853Y101899D01*
X166071Y104117D01*
X169209Y104117D01*
X171427Y101899D01*
X171427Y98761D01*
X170269Y97604D01*
X170231Y97549D01*
X170186Y97502D01*
X170168Y97458D01*
X170141Y97419D01*
X170124Y97356D01*
X170099Y97295D01*
X170096Y97248D01*
X170085Y97202D01*
X170092Y97137D01*
X170089Y97071D01*
X170103Y97026D01*
X170108Y96979D01*
X170137Y96920D01*
X170157Y96857D01*
X170190Y96813D01*
X170207Y96778D01*
X170236Y96751D01*
X170269Y96707D01*
X171427Y95549D01*
X171427Y92411D01*
X169209Y90193D01*
X166071Y90193D01*
G37*
%LPD*%
%LPC*%
G36*
X148291Y90193D02*
X148291Y90193D01*
X146073Y92411D01*
X146073Y95549D01*
X147231Y96707D01*
X147269Y96761D01*
X147314Y96808D01*
X147332Y96852D01*
X147359Y96891D01*
X147376Y96954D01*
X147401Y97015D01*
X147404Y97062D01*
X147415Y97108D01*
X147408Y97173D01*
X147411Y97239D01*
X147397Y97284D01*
X147392Y97331D01*
X147363Y97390D01*
X147343Y97453D01*
X147310Y97497D01*
X147293Y97532D01*
X147264Y97559D01*
X147231Y97604D01*
X146073Y98761D01*
X146073Y101899D01*
X148291Y104117D01*
X151429Y104117D01*
X153647Y101899D01*
X153647Y98761D01*
X152489Y97604D01*
X152451Y97549D01*
X152406Y97502D01*
X152388Y97458D01*
X152361Y97419D01*
X152344Y97356D01*
X152319Y97295D01*
X152316Y97248D01*
X152305Y97202D01*
X152312Y97137D01*
X152309Y97071D01*
X152323Y97026D01*
X152328Y96979D01*
X152357Y96920D01*
X152377Y96857D01*
X152410Y96813D01*
X152427Y96778D01*
X152456Y96751D01*
X152489Y96707D01*
X153647Y95549D01*
X153647Y92411D01*
X151429Y90193D01*
X148291Y90193D01*
G37*
%LPD*%
%LPC*%
G36*
X219411Y41933D02*
X219411Y41933D01*
X217193Y44151D01*
X217193Y47289D01*
X218351Y48447D01*
X218389Y48501D01*
X218434Y48548D01*
X218452Y48592D01*
X218479Y48631D01*
X218496Y48694D01*
X218521Y48755D01*
X218524Y48802D01*
X218535Y48848D01*
X218528Y48913D01*
X218531Y48979D01*
X218517Y49024D01*
X218512Y49071D01*
X218483Y49130D01*
X218463Y49193D01*
X218430Y49237D01*
X218413Y49272D01*
X218384Y49299D01*
X218351Y49344D01*
X217193Y50501D01*
X217193Y53639D01*
X219411Y55857D01*
X222549Y55857D01*
X224767Y53639D01*
X224767Y50501D01*
X223609Y49344D01*
X223571Y49289D01*
X223526Y49242D01*
X223508Y49198D01*
X223481Y49159D01*
X223464Y49096D01*
X223439Y49035D01*
X223436Y48988D01*
X223425Y48942D01*
X223432Y48877D01*
X223429Y48811D01*
X223443Y48766D01*
X223448Y48719D01*
X223477Y48660D01*
X223497Y48597D01*
X223530Y48553D01*
X223547Y48518D01*
X223576Y48491D01*
X223609Y48447D01*
X224767Y47289D01*
X224767Y44151D01*
X222549Y41933D01*
X219411Y41933D01*
G37*
%LPD*%
%LPC*%
G36*
X215601Y88923D02*
X215601Y88923D01*
X213383Y91141D01*
X213383Y94279D01*
X213906Y94802D01*
X213944Y94856D01*
X213989Y94903D01*
X214007Y94947D01*
X214034Y94986D01*
X214051Y95049D01*
X214076Y95110D01*
X214079Y95157D01*
X214090Y95203D01*
X214083Y95268D01*
X214086Y95334D01*
X214072Y95379D01*
X214067Y95426D01*
X214038Y95485D01*
X214018Y95548D01*
X213985Y95592D01*
X213968Y95627D01*
X213939Y95654D01*
X213906Y95699D01*
X213383Y96221D01*
X213383Y99359D01*
X215601Y101577D01*
X218739Y101577D01*
X220957Y99359D01*
X220957Y96221D01*
X220434Y95699D01*
X220396Y95644D01*
X220351Y95597D01*
X220333Y95553D01*
X220306Y95514D01*
X220289Y95451D01*
X220264Y95390D01*
X220261Y95343D01*
X220250Y95297D01*
X220257Y95232D01*
X220254Y95166D01*
X220268Y95121D01*
X220273Y95074D01*
X220302Y95015D01*
X220322Y94952D01*
X220355Y94908D01*
X220372Y94873D01*
X220401Y94846D01*
X220434Y94802D01*
X220957Y94279D01*
X220957Y91141D01*
X218739Y88923D01*
X215601Y88923D01*
G37*
%LPD*%
%LPC*%
G36*
X108921Y111783D02*
X108921Y111783D01*
X106703Y114001D01*
X106703Y117139D01*
X107226Y117662D01*
X107264Y117716D01*
X107309Y117763D01*
X107327Y117807D01*
X107354Y117846D01*
X107371Y117909D01*
X107396Y117970D01*
X107399Y118017D01*
X107410Y118063D01*
X107403Y118128D01*
X107406Y118194D01*
X107392Y118239D01*
X107387Y118286D01*
X107358Y118345D01*
X107338Y118408D01*
X107305Y118452D01*
X107288Y118487D01*
X107259Y118514D01*
X107226Y118559D01*
X106703Y119081D01*
X106703Y122219D01*
X108921Y124437D01*
X112059Y124437D01*
X114277Y122219D01*
X114277Y119081D01*
X113754Y118559D01*
X113716Y118504D01*
X113671Y118457D01*
X113653Y118413D01*
X113626Y118374D01*
X113609Y118311D01*
X113584Y118250D01*
X113581Y118203D01*
X113570Y118157D01*
X113577Y118092D01*
X113574Y118026D01*
X113588Y117981D01*
X113593Y117934D01*
X113622Y117875D01*
X113642Y117812D01*
X113675Y117768D01*
X113692Y117733D01*
X113721Y117706D01*
X113754Y117662D01*
X114277Y117139D01*
X114277Y114001D01*
X112059Y111783D01*
X108921Y111783D01*
G37*
%LPD*%
%LPC*%
G36*
X185121Y91463D02*
X185121Y91463D01*
X182903Y93681D01*
X182903Y96819D01*
X185121Y99037D01*
X188259Y99037D01*
X190477Y96819D01*
X190477Y93681D01*
X188259Y91463D01*
X185121Y91463D01*
G37*
%LPD*%
%LPC*%
G36*
X143211Y118133D02*
X143211Y118133D01*
X140993Y120351D01*
X140993Y123489D01*
X143211Y125707D01*
X146349Y125707D01*
X148567Y123489D01*
X148567Y120351D01*
X146349Y118133D01*
X143211Y118133D01*
G37*
%LPD*%
%LPC*%
G36*
X133051Y34313D02*
X133051Y34313D01*
X130833Y36531D01*
X130833Y39669D01*
X133051Y41887D01*
X136189Y41887D01*
X138407Y39669D01*
X138407Y36531D01*
X136189Y34313D01*
X133051Y34313D01*
G37*
%LPD*%
%LPC*%
G36*
X124161Y34313D02*
X124161Y34313D01*
X121943Y36531D01*
X121943Y39669D01*
X124161Y41887D01*
X127299Y41887D01*
X129517Y39669D01*
X129517Y36531D01*
X127299Y34313D01*
X124161Y34313D01*
G37*
%LPD*%
%LPC*%
G36*
X197821Y118133D02*
X197821Y118133D01*
X195603Y120351D01*
X195603Y123489D01*
X197821Y125707D01*
X200959Y125707D01*
X203177Y123489D01*
X203177Y120351D01*
X200959Y118133D01*
X197821Y118133D01*
G37*
%LPD*%
%LPC*%
G36*
X145751Y143533D02*
X145751Y143533D01*
X143533Y145751D01*
X143533Y148889D01*
X145751Y151107D01*
X148889Y151107D01*
X151107Y148889D01*
X151107Y145751D01*
X148889Y143533D01*
X145751Y143533D01*
G37*
%LPD*%
%LPC*%
G36*
X192741Y144803D02*
X192741Y144803D01*
X190523Y147021D01*
X190523Y150159D01*
X192741Y152377D01*
X195879Y152377D01*
X198097Y150159D01*
X198097Y147021D01*
X195879Y144803D01*
X192741Y144803D01*
G37*
%LPD*%
%LPC*%
G36*
X207981Y144803D02*
X207981Y144803D01*
X205763Y147021D01*
X205763Y150159D01*
X207981Y152377D01*
X211119Y152377D01*
X213337Y150159D01*
X213337Y147021D01*
X211119Y144803D01*
X207981Y144803D01*
G37*
%LPD*%
%LPC*%
G36*
X80981Y163853D02*
X80981Y163853D01*
X78763Y166071D01*
X78763Y169209D01*
X80981Y171427D01*
X84119Y171427D01*
X86337Y169209D01*
X86337Y166071D01*
X84119Y163853D01*
X80981Y163853D01*
G37*
%LPD*%
D10*
X340360Y172720D03*
X307340Y172720D03*
X340360Y147320D03*
X307340Y147320D03*
X284480Y172720D03*
X284480Y147320D03*
X363220Y172720D03*
X363220Y147320D03*
X363220Y160020D03*
X284480Y160020D03*
X307340Y160020D03*
X340360Y160020D03*
D11*
X323850Y161290D03*
D10*
X332740Y138430D03*
X314960Y138430D03*
X307340Y55880D03*
X340360Y55880D03*
X307340Y81280D03*
X340360Y81280D03*
X363220Y55880D03*
X363220Y81280D03*
X284480Y55880D03*
X284480Y81280D03*
X284480Y68580D03*
X363220Y68580D03*
X340360Y68580D03*
X307340Y68580D03*
D11*
X323850Y67310D03*
D10*
X314960Y90170D03*
X332740Y90170D03*
X11430Y143510D03*
X11430Y110490D03*
X36830Y143510D03*
X36830Y110490D03*
X11430Y87630D03*
X36830Y87630D03*
X11430Y166370D03*
X36830Y166370D03*
X24130Y166370D03*
X24130Y87630D03*
X24130Y110490D03*
X24130Y143510D03*
D12*
X22860Y127000D03*
D10*
X45720Y135890D03*
X45720Y118110D03*
D13*
X19050Y25400D03*
X19050Y50800D03*
D10*
X115570Y100330D03*
X121920Y100330D03*
X154940Y78740D03*
X161290Y78740D03*
X166370Y86360D03*
X151130Y86360D03*
X134620Y107950D03*
X134620Y101600D03*
X154940Y134620D03*
X154940Y140970D03*
X147320Y157480D03*
X132080Y157480D03*
X135890Y166370D03*
X143510Y166370D03*
X50800Y77470D03*
X57150Y77470D03*
X50800Y100330D03*
X57150Y100330D03*
X50800Y120650D03*
X50800Y133350D03*
X100330Y76200D03*
X100330Y82550D03*
X95250Y38100D03*
X87630Y38100D03*
D14*
X95250Y133350D03*
X107950Y133350D03*
X101600Y120650D03*
X88900Y120650D03*
X120650Y133350D03*
D10*
X139700Y97790D03*
X134620Y93980D03*
X185420Y135890D03*
X185420Y107950D03*
X179070Y135890D03*
X179070Y107950D03*
X171450Y132080D03*
X171450Y113030D03*
X181610Y38100D03*
X175260Y38100D03*
X163830Y39370D03*
X157480Y39370D03*
X214630Y135890D03*
X214630Y107950D03*
X218440Y140970D03*
X219710Y104140D03*
X195580Y77470D03*
X208280Y77470D03*
X215900Y77470D03*
X217170Y85090D03*
X187960Y77470D03*
X186690Y85090D03*
X233680Y137160D03*
X240030Y137160D03*
D14*
X246380Y121920D03*
X246380Y109220D03*
X297180Y109220D03*
X297180Y121920D03*
X330200Y132080D03*
X317500Y132080D03*
X330200Y97790D03*
X317500Y97790D03*
X330200Y123190D03*
X330200Y106680D03*
X304800Y127000D03*
X304800Y105410D03*
X245110Y129540D03*
X259080Y121920D03*
X271780Y121920D03*
X284480Y121920D03*
X259080Y109220D03*
X271780Y109220D03*
X284480Y109220D03*
D10*
X205740Y166370D03*
X198120Y166370D03*
X194310Y158750D03*
X209550Y158750D03*
X43180Y63500D03*
X50800Y63500D03*
X58420Y63500D03*
X50800Y44450D03*
X43180Y44450D03*
X58420Y44450D03*
D14*
X330200Y115570D03*
D10*
X144780Y121920D03*
X110490Y120650D03*
X110490Y115570D03*
X147320Y147320D03*
X132080Y147320D03*
X134620Y139700D03*
X149860Y100330D03*
X149860Y93980D03*
X167640Y100330D03*
X167640Y93980D03*
X105410Y38100D03*
X113030Y38100D03*
X125730Y38100D03*
X134620Y38100D03*
X142240Y52070D03*
X142240Y44450D03*
X73660Y167640D03*
X82550Y167640D03*
X68580Y154940D03*
X88900Y154940D03*
X68580Y161290D03*
X88900Y161290D03*
X199390Y121920D03*
X220980Y52070D03*
X220980Y45720D03*
X214630Y39370D03*
X208280Y39370D03*
X198120Y39370D03*
X190500Y39370D03*
X194310Y148590D03*
X209550Y148590D03*
X217170Y97790D03*
X217170Y92710D03*
X186690Y95250D03*
X63500Y26670D03*
X63500Y19050D03*
X46990Y33020D03*
X54610Y33020D03*
X46990Y12700D03*
X54610Y12700D03*
M02*
