G04 EAGLE Gerber RS-274X export*
G75*
%MOMM*%
%FSLAX34Y34*%
%LPD*%
%INTop Solder Paste*%
%IPPOS*%
%AMOC8*
5,1,8,0,0,1.08239X$1,22.5*%
G01*
%ADD10R,0.600000X0.600000*%
%ADD11R,0.600000X0.400000*%
%ADD12R,1.600000X0.300000*%
%ADD13R,1.400000X0.760000*%
%ADD14R,4.572000X2.540000*%
%ADD15R,3.810000X1.016000*%
%ADD16R,0.950000X0.950000*%
%ADD17R,0.800000X0.800000*%
%ADD18R,1.000000X0.600000*%


D10*
X72280Y198000D03*
X72280Y183000D03*
D11*
X72280Y190500D03*
D10*
X90280Y198000D03*
X90280Y183000D03*
D11*
X90280Y190500D03*
D12*
X221470Y180900D03*
X221470Y174400D03*
X221470Y187400D03*
X221470Y193900D03*
X187470Y180900D03*
X187470Y174400D03*
X187470Y187400D03*
X187470Y193900D03*
D13*
X131440Y190500D03*
X131440Y203200D03*
X131440Y177800D03*
X165740Y203200D03*
X165740Y177800D03*
D14*
X22860Y157480D03*
X22860Y223520D03*
D15*
X19050Y190500D03*
D16*
X55880Y212990D03*
X55880Y198490D03*
X55880Y182510D03*
X55880Y168010D03*
X72760Y213360D03*
X87260Y213360D03*
X87260Y167640D03*
X72760Y167640D03*
D17*
X116720Y203200D03*
X101720Y203200D03*
X116720Y177800D03*
X101720Y177800D03*
D14*
X275590Y207010D03*
X275590Y140970D03*
D15*
X279400Y173990D03*
D17*
X213240Y156210D03*
X198240Y156210D03*
D18*
X126300Y117500D03*
X126300Y127000D03*
X126300Y136500D03*
X102300Y136500D03*
X102300Y117500D03*
D16*
X121550Y100330D03*
X107050Y100330D03*
X85990Y137160D03*
X71490Y137160D03*
D17*
X69970Y116840D03*
X84970Y116840D03*
X142360Y127000D03*
X157360Y127000D03*
X213240Y140970D03*
X198240Y140970D03*
X196970Y212090D03*
X211970Y212090D03*
M02*
