M48
;GenerationSoftware,Autodesk,EAGLE,9.4.1*%
;CreationDate,2019-08-11T17:09:56Z*%
FMAT,2
ICI,OFF
METRIC,TZ,000.000
T4C0.300
T3C0.500
T2C1.000
%
G90
M71
T2
X15240Y6350
X12700Y6350
X5080Y6350
X7620Y6350
X10160Y6350
T3
X1016Y3556
X28321Y3556
X1016Y6096
X1016Y8636
X1016Y11176
X3556Y1016
X6096Y1016
X9271Y1016
X13716Y1016
X17526Y1016
X20701Y1016
X23876Y1016
X5207Y22479
X28321Y6096
X28321Y8636
X22225Y21209
X8128Y19050
X28956Y24511
X6096Y22479
X5207Y15621
X6096Y15621
X20701Y19558
X23622Y19558
X22098Y20193
X22352Y15621
X22352Y14732
X21082Y16764
X22352Y13843
X12446Y14986
X1016Y24511
X28321Y1016
X1016Y1016
X24511Y18796
X24511Y16256
X10541Y14986
X10541Y23241
X12446Y23241
X16891Y21971
X16891Y16256
T4
X26162Y15748
X27432Y15748
X27432Y19050
X27432Y21336
X27432Y13462
X26162Y13462
X28702Y13462
X26162Y21336
X28702Y21336
X26162Y19050
X1143Y20701
X28702Y19050
X28702Y15748
X2413Y20701
X2413Y17399
X2413Y15113
X2413Y22987
X3683Y22987
X1143Y22987
X3683Y15113
X1143Y15113
X3683Y17399
X3683Y20701
X1143Y17399
M30