M48
;GenerationSoftware,Autodesk,EAGLE,9.5.0*%
;CreationDate,2019-09-18T17:16:15Z*%
FMAT,2
ICI,OFF
METRIC,TZ,000.000
T3C0.300
T2C1.000
%
G90
M71
T2
X2540Y4445
X2540Y1905
T3
X9525Y10541
X25908Y7239
X18034Y7239
X18034Y8509
X18034Y5969
X25908Y8509
X25908Y5969
X23622Y8509
X20320Y8509
X23622Y5969
X20320Y5969
X23622Y7239
X5334Y10795
X17145Y9779
X13716Y762
X14986Y5842
X16891Y5842
X27051Y5842
X27051Y8382
X27051Y10922
X27051Y13462
X27051Y16002
X27051Y18542
X16002Y18542
X23622Y16891
X2413Y13716
X2413Y10414
X2413Y8128
X2413Y16002
X3683Y16002
X1143Y16002
X3683Y8128
X1143Y8128
X3683Y10414
X3683Y13716
X1143Y10414
X1143Y13716
X13462Y18542
X20320Y16891
X18034Y16891
X25908Y16891
X25908Y15621
X25908Y18161
X18034Y15621
X18034Y18161
X20320Y15621
X23622Y15621
X20320Y18161
X23622Y18161
X20320Y7239
X13843Y12954
X16764Y7493
X14986Y7493
X16256Y6604
X15494Y6604
X5334Y14097
X5334Y16129
X5080Y3810
X6350Y3810
X6350Y5715
X5080Y5715
X11049Y2286
X11049Y2921
X13970Y9906
X11557Y10414
X9779Y7239
X9144Y7239
X7747Y4191
X7747Y4826
X5461Y6985
X6096Y6985
X11049Y8382
X13462Y15367
X11049Y9144
X14351Y14732
X11938Y7747
X23241Y14097
X10922Y18542
X8382Y18542
X23241Y12827
X23241Y11557
X23241Y10287
X20701Y10287
X16129Y10795
X18923Y10795
X17526Y10795
X18923Y13335
X17018Y13335
X15113Y13335
X14351Y13970
X20701Y14097
X762Y1397
X762Y3937
X762Y6477
X762Y18542
X3302Y18542
X5842Y18542
X8255Y10541
X10033Y13589
X5334Y13335
X14732Y9017
M30