G04 EAGLE Gerber RS-274X export*
G75*
%MOMM*%
%FSLAX34Y34*%
%LPD*%
%INTop Silkscreen *%
%IPPOS*%
%AMOC8*
5,1,8,0,0,1.08239X$1,22.5*%
G01*
%ADD10C,0.177800*%
%ADD11C,0.254000*%
%ADD12C,0.127000*%
%ADD13C,0.600000*%


D10*
X140589Y12079D02*
X148886Y12079D01*
X161763Y7239D02*
X165220Y7239D01*
X165337Y7241D01*
X165453Y7247D01*
X165570Y7257D01*
X165686Y7271D01*
X165801Y7288D01*
X165916Y7310D01*
X166030Y7335D01*
X166143Y7364D01*
X166255Y7398D01*
X166366Y7434D01*
X166475Y7475D01*
X166583Y7519D01*
X166690Y7567D01*
X166795Y7618D01*
X166898Y7673D01*
X166999Y7732D01*
X167098Y7794D01*
X167195Y7859D01*
X167290Y7927D01*
X167382Y7998D01*
X167472Y8073D01*
X167559Y8151D01*
X167644Y8231D01*
X167726Y8314D01*
X167805Y8400D01*
X167881Y8489D01*
X167954Y8580D01*
X168024Y8673D01*
X168090Y8769D01*
X168154Y8867D01*
X168214Y8967D01*
X168271Y9070D01*
X168324Y9174D01*
X168373Y9279D01*
X168419Y9387D01*
X168462Y9495D01*
X168501Y9606D01*
X168535Y9717D01*
X168567Y9829D01*
X168594Y9943D01*
X168618Y10057D01*
X168637Y10173D01*
X168653Y10288D01*
X168665Y10404D01*
X168673Y10521D01*
X168677Y10638D01*
X168677Y10754D01*
X168673Y10871D01*
X168665Y10988D01*
X168653Y11104D01*
X168637Y11219D01*
X168618Y11335D01*
X168594Y11449D01*
X168567Y11563D01*
X168535Y11675D01*
X168501Y11786D01*
X168462Y11897D01*
X168419Y12005D01*
X168373Y12113D01*
X168324Y12218D01*
X168271Y12322D01*
X168214Y12424D01*
X168154Y12525D01*
X168090Y12623D01*
X168024Y12719D01*
X167954Y12812D01*
X167881Y12903D01*
X167805Y12992D01*
X167726Y13078D01*
X167644Y13161D01*
X167559Y13241D01*
X167472Y13319D01*
X167382Y13394D01*
X167290Y13465D01*
X167195Y13533D01*
X167098Y13598D01*
X166999Y13660D01*
X166898Y13719D01*
X166795Y13774D01*
X166690Y13825D01*
X166583Y13873D01*
X166475Y13917D01*
X166366Y13958D01*
X166255Y13994D01*
X166143Y14028D01*
X166030Y14057D01*
X165916Y14082D01*
X165801Y14104D01*
X165686Y14121D01*
X165570Y14135D01*
X165453Y14145D01*
X165337Y14151D01*
X165220Y14153D01*
X165912Y19685D02*
X161763Y19685D01*
X165912Y19685D02*
X166015Y19683D01*
X166119Y19677D01*
X166222Y19668D01*
X166324Y19654D01*
X166426Y19637D01*
X166527Y19616D01*
X166628Y19591D01*
X166727Y19562D01*
X166826Y19530D01*
X166923Y19494D01*
X167018Y19454D01*
X167112Y19411D01*
X167204Y19364D01*
X167295Y19314D01*
X167384Y19261D01*
X167470Y19204D01*
X167555Y19145D01*
X167637Y19082D01*
X167716Y19016D01*
X167793Y18947D01*
X167868Y18875D01*
X167940Y18800D01*
X168009Y18723D01*
X168075Y18644D01*
X168138Y18562D01*
X168197Y18477D01*
X168254Y18391D01*
X168307Y18302D01*
X168357Y18211D01*
X168404Y18119D01*
X168447Y18025D01*
X168487Y17930D01*
X168523Y17833D01*
X168555Y17734D01*
X168584Y17635D01*
X168609Y17534D01*
X168630Y17433D01*
X168647Y17331D01*
X168661Y17229D01*
X168670Y17126D01*
X168676Y17022D01*
X168678Y16919D01*
X168676Y16816D01*
X168670Y16712D01*
X168661Y16609D01*
X168647Y16507D01*
X168630Y16405D01*
X168609Y16304D01*
X168584Y16203D01*
X168555Y16104D01*
X168523Y16005D01*
X168487Y15908D01*
X168447Y15813D01*
X168404Y15719D01*
X168357Y15627D01*
X168307Y15536D01*
X168254Y15447D01*
X168197Y15361D01*
X168138Y15276D01*
X168075Y15194D01*
X168009Y15115D01*
X167940Y15038D01*
X167868Y14963D01*
X167793Y14891D01*
X167716Y14822D01*
X167637Y14756D01*
X167555Y14693D01*
X167470Y14634D01*
X167384Y14577D01*
X167295Y14524D01*
X167204Y14474D01*
X167112Y14427D01*
X167018Y14384D01*
X166923Y14344D01*
X166826Y14308D01*
X166727Y14276D01*
X166628Y14247D01*
X166527Y14222D01*
X166426Y14201D01*
X166324Y14184D01*
X166222Y14170D01*
X166119Y14161D01*
X166015Y14155D01*
X165912Y14153D01*
X163146Y14153D01*
X173836Y7930D02*
X173836Y7239D01*
X173836Y7930D02*
X174527Y7930D01*
X174527Y7239D01*
X173836Y7239D01*
X179685Y7239D02*
X183142Y7239D01*
X183259Y7241D01*
X183375Y7247D01*
X183492Y7257D01*
X183608Y7271D01*
X183723Y7288D01*
X183838Y7310D01*
X183952Y7335D01*
X184065Y7364D01*
X184177Y7398D01*
X184288Y7434D01*
X184397Y7475D01*
X184505Y7519D01*
X184612Y7567D01*
X184717Y7618D01*
X184820Y7673D01*
X184921Y7732D01*
X185020Y7794D01*
X185117Y7859D01*
X185212Y7927D01*
X185304Y7998D01*
X185394Y8073D01*
X185481Y8151D01*
X185566Y8231D01*
X185648Y8314D01*
X185727Y8400D01*
X185803Y8489D01*
X185876Y8580D01*
X185946Y8673D01*
X186012Y8769D01*
X186076Y8867D01*
X186136Y8967D01*
X186193Y9070D01*
X186246Y9174D01*
X186295Y9279D01*
X186341Y9387D01*
X186384Y9495D01*
X186423Y9606D01*
X186457Y9717D01*
X186489Y9829D01*
X186516Y9943D01*
X186540Y10057D01*
X186559Y10173D01*
X186575Y10288D01*
X186587Y10404D01*
X186595Y10521D01*
X186599Y10638D01*
X186599Y10754D01*
X186595Y10871D01*
X186587Y10988D01*
X186575Y11104D01*
X186559Y11219D01*
X186540Y11335D01*
X186516Y11449D01*
X186489Y11563D01*
X186457Y11675D01*
X186423Y11786D01*
X186384Y11897D01*
X186341Y12005D01*
X186295Y12113D01*
X186246Y12218D01*
X186193Y12322D01*
X186136Y12424D01*
X186076Y12525D01*
X186012Y12623D01*
X185946Y12719D01*
X185876Y12812D01*
X185803Y12903D01*
X185727Y12992D01*
X185648Y13078D01*
X185566Y13161D01*
X185481Y13241D01*
X185394Y13319D01*
X185304Y13394D01*
X185212Y13465D01*
X185117Y13533D01*
X185020Y13598D01*
X184921Y13660D01*
X184820Y13719D01*
X184717Y13774D01*
X184612Y13825D01*
X184505Y13873D01*
X184397Y13917D01*
X184288Y13958D01*
X184177Y13994D01*
X184065Y14028D01*
X183952Y14057D01*
X183838Y14082D01*
X183723Y14104D01*
X183608Y14121D01*
X183492Y14135D01*
X183375Y14145D01*
X183259Y14151D01*
X183142Y14153D01*
X183834Y19685D02*
X179685Y19685D01*
X183834Y19685D02*
X183937Y19683D01*
X184041Y19677D01*
X184144Y19668D01*
X184246Y19654D01*
X184348Y19637D01*
X184449Y19616D01*
X184550Y19591D01*
X184649Y19562D01*
X184748Y19530D01*
X184845Y19494D01*
X184940Y19454D01*
X185034Y19411D01*
X185126Y19364D01*
X185217Y19314D01*
X185306Y19261D01*
X185392Y19204D01*
X185477Y19145D01*
X185559Y19082D01*
X185638Y19016D01*
X185715Y18947D01*
X185790Y18875D01*
X185862Y18800D01*
X185931Y18723D01*
X185997Y18644D01*
X186060Y18562D01*
X186119Y18477D01*
X186176Y18391D01*
X186229Y18302D01*
X186279Y18211D01*
X186326Y18119D01*
X186369Y18025D01*
X186409Y17930D01*
X186445Y17833D01*
X186477Y17734D01*
X186506Y17635D01*
X186531Y17534D01*
X186552Y17433D01*
X186569Y17331D01*
X186583Y17229D01*
X186592Y17126D01*
X186598Y17022D01*
X186600Y16919D01*
X186598Y16816D01*
X186592Y16712D01*
X186583Y16609D01*
X186569Y16507D01*
X186552Y16405D01*
X186531Y16304D01*
X186506Y16203D01*
X186477Y16104D01*
X186445Y16005D01*
X186409Y15908D01*
X186369Y15813D01*
X186326Y15719D01*
X186279Y15627D01*
X186229Y15536D01*
X186176Y15447D01*
X186119Y15361D01*
X186060Y15276D01*
X185997Y15194D01*
X185931Y15115D01*
X185862Y15038D01*
X185790Y14963D01*
X185715Y14891D01*
X185638Y14822D01*
X185559Y14756D01*
X185477Y14693D01*
X185392Y14634D01*
X185306Y14577D01*
X185217Y14524D01*
X185126Y14474D01*
X185034Y14427D01*
X184940Y14384D01*
X184845Y14344D01*
X184748Y14308D01*
X184649Y14276D01*
X184550Y14247D01*
X184449Y14222D01*
X184348Y14201D01*
X184246Y14184D01*
X184144Y14170D01*
X184041Y14161D01*
X183937Y14155D01*
X183834Y14153D01*
X181068Y14153D01*
X198623Y19685D02*
X202771Y7239D01*
X206920Y19685D01*
D11*
X133350Y6350D02*
X90170Y6350D01*
X77470Y19050D01*
X69850Y19050D01*
X44450Y19050D02*
X38100Y19050D01*
D10*
X178689Y55146D02*
X178689Y60678D01*
X178691Y60795D01*
X178697Y60911D01*
X178707Y61028D01*
X178721Y61144D01*
X178738Y61259D01*
X178760Y61374D01*
X178785Y61488D01*
X178814Y61601D01*
X178848Y61713D01*
X178884Y61824D01*
X178925Y61933D01*
X178969Y62041D01*
X179017Y62148D01*
X179068Y62253D01*
X179123Y62356D01*
X179182Y62457D01*
X179244Y62556D01*
X179309Y62653D01*
X179377Y62748D01*
X179448Y62840D01*
X179523Y62930D01*
X179601Y63017D01*
X179681Y63102D01*
X179764Y63184D01*
X179850Y63263D01*
X179939Y63339D01*
X180030Y63412D01*
X180123Y63482D01*
X180219Y63548D01*
X180317Y63612D01*
X180418Y63672D01*
X180520Y63729D01*
X180624Y63782D01*
X180729Y63831D01*
X180837Y63877D01*
X180945Y63920D01*
X181056Y63959D01*
X181167Y63993D01*
X181279Y64025D01*
X181393Y64052D01*
X181507Y64076D01*
X181623Y64095D01*
X181738Y64111D01*
X181854Y64123D01*
X181971Y64131D01*
X182088Y64135D01*
X182204Y64135D01*
X182321Y64131D01*
X182438Y64123D01*
X182554Y64111D01*
X182669Y64095D01*
X182785Y64076D01*
X182899Y64052D01*
X183013Y64025D01*
X183125Y63993D01*
X183236Y63959D01*
X183347Y63920D01*
X183455Y63877D01*
X183563Y63831D01*
X183668Y63782D01*
X183772Y63729D01*
X183875Y63672D01*
X183975Y63612D01*
X184073Y63548D01*
X184169Y63482D01*
X184262Y63412D01*
X184353Y63339D01*
X184442Y63263D01*
X184528Y63184D01*
X184611Y63102D01*
X184691Y63017D01*
X184769Y62930D01*
X184844Y62840D01*
X184915Y62748D01*
X184983Y62653D01*
X185048Y62556D01*
X185110Y62457D01*
X185169Y62356D01*
X185224Y62253D01*
X185275Y62148D01*
X185323Y62041D01*
X185367Y61933D01*
X185408Y61824D01*
X185444Y61713D01*
X185478Y61601D01*
X185507Y61488D01*
X185532Y61374D01*
X185554Y61259D01*
X185571Y61144D01*
X185585Y61028D01*
X185595Y60911D01*
X185601Y60795D01*
X185603Y60678D01*
X185603Y55146D01*
X185601Y55029D01*
X185595Y54913D01*
X185585Y54796D01*
X185571Y54680D01*
X185554Y54565D01*
X185532Y54450D01*
X185507Y54336D01*
X185478Y54223D01*
X185444Y54111D01*
X185408Y54000D01*
X185367Y53891D01*
X185323Y53783D01*
X185275Y53676D01*
X185224Y53571D01*
X185169Y53468D01*
X185110Y53367D01*
X185048Y53268D01*
X184983Y53171D01*
X184915Y53076D01*
X184844Y52984D01*
X184769Y52894D01*
X184691Y52807D01*
X184611Y52722D01*
X184528Y52640D01*
X184442Y52561D01*
X184353Y52485D01*
X184262Y52412D01*
X184169Y52342D01*
X184073Y52276D01*
X183975Y52212D01*
X183874Y52152D01*
X183772Y52095D01*
X183668Y52042D01*
X183563Y51993D01*
X183455Y51947D01*
X183347Y51904D01*
X183236Y51865D01*
X183125Y51831D01*
X183013Y51799D01*
X182899Y51772D01*
X182785Y51748D01*
X182669Y51729D01*
X182554Y51713D01*
X182438Y51701D01*
X182321Y51693D01*
X182204Y51689D01*
X182088Y51689D01*
X181971Y51693D01*
X181854Y51701D01*
X181738Y51713D01*
X181623Y51729D01*
X181507Y51748D01*
X181393Y51772D01*
X181279Y51799D01*
X181167Y51831D01*
X181056Y51865D01*
X180945Y51904D01*
X180837Y51947D01*
X180729Y51993D01*
X180624Y52042D01*
X180520Y52095D01*
X180418Y52152D01*
X180317Y52212D01*
X180219Y52276D01*
X180123Y52342D01*
X180030Y52412D01*
X179939Y52485D01*
X179850Y52561D01*
X179764Y52640D01*
X179681Y52722D01*
X179601Y52807D01*
X179523Y52894D01*
X179448Y52984D01*
X179377Y53076D01*
X179309Y53171D01*
X179244Y53268D01*
X179182Y53367D01*
X179123Y53468D01*
X179068Y53571D01*
X179017Y53676D01*
X178969Y53783D01*
X178925Y53891D01*
X178884Y54000D01*
X178848Y54111D01*
X178814Y54223D01*
X178785Y54336D01*
X178760Y54450D01*
X178738Y54565D01*
X178721Y54680D01*
X178707Y54796D01*
X178697Y54913D01*
X178691Y55029D01*
X178689Y55146D01*
X191755Y53763D02*
X191755Y59986D01*
X191756Y53763D02*
X191758Y53675D01*
X191763Y53587D01*
X191773Y53500D01*
X191786Y53412D01*
X191803Y53326D01*
X191823Y53240D01*
X191847Y53156D01*
X191874Y53072D01*
X191906Y52990D01*
X191940Y52909D01*
X191978Y52829D01*
X192019Y52752D01*
X192064Y52676D01*
X192112Y52602D01*
X192163Y52530D01*
X192216Y52460D01*
X192273Y52393D01*
X192333Y52328D01*
X192395Y52266D01*
X192460Y52206D01*
X192527Y52149D01*
X192597Y52096D01*
X192669Y52045D01*
X192743Y51997D01*
X192819Y51952D01*
X192896Y51911D01*
X192976Y51873D01*
X193057Y51839D01*
X193139Y51807D01*
X193223Y51780D01*
X193307Y51756D01*
X193393Y51736D01*
X193479Y51719D01*
X193567Y51706D01*
X193654Y51696D01*
X193742Y51691D01*
X193830Y51689D01*
X197287Y51689D01*
X197287Y59986D01*
X202129Y59986D02*
X206277Y59986D01*
X203512Y64135D02*
X203512Y53763D01*
X203514Y53675D01*
X203519Y53587D01*
X203529Y53500D01*
X203542Y53412D01*
X203559Y53326D01*
X203579Y53240D01*
X203603Y53156D01*
X203630Y53072D01*
X203662Y52990D01*
X203696Y52909D01*
X203734Y52829D01*
X203775Y52752D01*
X203820Y52676D01*
X203868Y52602D01*
X203919Y52530D01*
X203972Y52460D01*
X204029Y52393D01*
X204089Y52328D01*
X204151Y52266D01*
X204216Y52206D01*
X204283Y52149D01*
X204353Y52095D01*
X204425Y52045D01*
X204499Y51997D01*
X204575Y51952D01*
X204652Y51911D01*
X204732Y51873D01*
X204813Y51839D01*
X204895Y51807D01*
X204979Y51780D01*
X205063Y51756D01*
X205149Y51736D01*
X205236Y51719D01*
X205323Y51706D01*
X205410Y51696D01*
X205498Y51691D01*
X205586Y51689D01*
X206277Y51689D01*
X177645Y41388D02*
X177464Y41167D01*
X177289Y40943D01*
X177120Y40714D01*
X176956Y40481D01*
X176798Y40244D01*
X176645Y40004D01*
X176499Y39759D01*
X176358Y39512D01*
X176223Y39261D01*
X176094Y39007D01*
X175972Y38750D01*
X175855Y38490D01*
X175745Y38227D01*
X175641Y37962D01*
X175544Y37694D01*
X175453Y37425D01*
X175369Y37152D01*
X175291Y36879D01*
X175220Y36603D01*
X175155Y36325D01*
X175098Y36046D01*
X175046Y35766D01*
X175002Y35485D01*
X174965Y35203D01*
X174934Y34919D01*
X174910Y34636D01*
X174893Y34351D01*
X174882Y34067D01*
X174879Y33782D01*
X174882Y33497D01*
X174893Y33213D01*
X174910Y32928D01*
X174934Y32645D01*
X174965Y32361D01*
X175002Y32079D01*
X175046Y31798D01*
X175098Y31518D01*
X175155Y31239D01*
X175220Y30961D01*
X175291Y30685D01*
X175369Y30412D01*
X175453Y30139D01*
X175544Y29870D01*
X175641Y29602D01*
X175745Y29337D01*
X175855Y29074D01*
X175972Y28814D01*
X176094Y28557D01*
X176223Y28303D01*
X176358Y28052D01*
X176499Y27805D01*
X176645Y27560D01*
X176798Y27320D01*
X176956Y27083D01*
X177120Y26850D01*
X177289Y26621D01*
X177464Y26397D01*
X177645Y26176D01*
X182620Y31708D02*
X182620Y40005D01*
X182275Y28250D02*
X182275Y27559D01*
X182275Y28250D02*
X182966Y28250D01*
X182966Y27559D01*
X182275Y27559D01*
X187596Y26176D02*
X187777Y26397D01*
X187952Y26621D01*
X188121Y26850D01*
X188285Y27083D01*
X188443Y27320D01*
X188596Y27560D01*
X188742Y27805D01*
X188883Y28052D01*
X189018Y28303D01*
X189147Y28557D01*
X189269Y28814D01*
X189386Y29074D01*
X189496Y29337D01*
X189600Y29602D01*
X189697Y29870D01*
X189788Y30139D01*
X189872Y30412D01*
X189950Y30685D01*
X190021Y30961D01*
X190086Y31239D01*
X190143Y31518D01*
X190195Y31798D01*
X190239Y32079D01*
X190276Y32361D01*
X190307Y32645D01*
X190331Y32928D01*
X190348Y33213D01*
X190359Y33497D01*
X190362Y33782D01*
X190359Y34067D01*
X190348Y34351D01*
X190331Y34636D01*
X190307Y34919D01*
X190276Y35203D01*
X190239Y35485D01*
X190195Y35766D01*
X190143Y36046D01*
X190086Y36325D01*
X190021Y36603D01*
X189950Y36879D01*
X189872Y37152D01*
X189788Y37425D01*
X189697Y37694D01*
X189600Y37962D01*
X189496Y38227D01*
X189386Y38490D01*
X189269Y38750D01*
X189147Y39007D01*
X189018Y39261D01*
X188883Y39512D01*
X188742Y39759D01*
X188596Y40004D01*
X188443Y40244D01*
X188285Y40481D01*
X188121Y40714D01*
X187952Y40943D01*
X187777Y41167D01*
X187596Y41388D01*
D12*
X68400Y54000D02*
X68400Y9500D01*
X45900Y9500D01*
X45900Y54000D01*
X68400Y54000D01*
X88900Y76200D02*
X88900Y101600D01*
X101600Y101600D01*
X101600Y76200D01*
X88900Y76200D01*
X60310Y99210D02*
X52310Y99210D01*
X52310Y90210D01*
X74310Y99210D02*
X82310Y99210D01*
X82310Y90210D01*
X70310Y86210D02*
X64310Y86210D01*
D13*
X140000Y128570D03*
D12*
X112000Y130570D02*
X112000Y123570D01*
X112000Y130570D02*
X119000Y130570D01*
X112000Y107570D02*
X112000Y100570D01*
X119000Y100570D01*
X135000Y100570D02*
X142000Y100570D01*
X142000Y107570D01*
X38100Y57150D02*
X12700Y57150D01*
X12700Y6350D01*
X38100Y6350D01*
X38100Y57150D01*
X238012Y146900D02*
X313012Y146900D01*
X301762Y94400D02*
X238012Y94400D01*
X270512Y91900D02*
X266762Y149400D01*
X273012Y149400D02*
X276762Y91900D01*
X283012Y91900D02*
X279262Y149400D01*
X285512Y149400D02*
X289262Y91900D01*
X295512Y91900D02*
X291762Y149400D01*
X-15762Y94400D02*
X-90762Y94400D01*
X-79512Y146900D02*
X-15762Y146900D01*
X-48262Y149400D02*
X-44512Y91900D01*
X-50762Y91900D02*
X-54512Y149400D01*
X-60762Y149400D02*
X-57012Y91900D01*
X-63262Y91900D02*
X-67012Y149400D01*
X-73262Y149400D02*
X-69512Y91900D01*
X113000Y70500D02*
X141000Y70500D01*
X141000Y56500D01*
X113000Y56500D01*
X113000Y70500D01*
X88930Y127650D02*
X60930Y127650D01*
X88930Y127650D02*
X88930Y113650D01*
X60930Y113650D01*
X60930Y127650D01*
X75550Y129510D02*
X75550Y157510D01*
X89550Y157510D01*
X89550Y129510D01*
X75550Y129510D01*
X81250Y51450D02*
X109250Y51450D01*
X109250Y37450D01*
X81250Y37450D01*
X81250Y51450D01*
X113000Y51450D02*
X141000Y51450D01*
X141000Y37450D01*
X113000Y37450D01*
X113000Y51450D01*
X114300Y93980D02*
X139700Y93980D01*
X139700Y81280D01*
X114300Y81280D01*
X114300Y93980D01*
X114300Y137160D02*
X139700Y137160D01*
X114300Y137160D02*
X114300Y149860D01*
X139700Y149860D01*
X139700Y137160D01*
X139820Y31750D02*
X114420Y31750D01*
X139820Y31750D02*
X139820Y19050D01*
X114420Y19050D01*
X114420Y31750D01*
X73660Y157480D02*
X48260Y157480D01*
X73660Y157480D02*
X73660Y144780D01*
X48260Y144780D01*
X48260Y157480D01*
X165750Y83850D02*
X165750Y55850D01*
X151750Y55850D01*
X151750Y83850D01*
X165750Y83850D01*
M02*
