M48
;GenerationSoftware,Autodesk,EAGLE,9.4.1*%
;CreationDate,2019-08-24T17:30:50Z*%
FMAT,2
ICI,OFF
METRIC,TZ,000.000
T3C0.300
T2C1.000
%
G90
M71
T2
X2540Y4445
X2540Y1905
T3
X21082Y8128
X18542Y8128
X18542Y16002
X21082Y16002
X18542Y13716
X18542Y10414
X21082Y13716
X21082Y10414
X762Y1397
X762Y3937
X762Y6477
X9017Y16637
X11557Y16637
X13462Y16637
X15367Y762
X21082Y762
X3683Y10414
X2413Y13716
X2413Y10414
X2413Y8128
X2413Y16002
X3683Y16002
X1143Y16002
X3683Y8128
X1143Y8128
X21082Y3302
X3683Y13716
X1143Y10414
X1143Y13716
X19812Y10414
X19812Y13716
X19812Y16002
X19812Y8128
X7747Y4191
X6350Y5715
X5080Y5715
X11049Y2286
X11049Y2921
X13843Y12954
X11557Y10414
X9779Y7239
X9144Y7239
X6350Y3810
X7747Y4826
X5461Y6985
X6096Y6985
X11049Y8382
X13462Y15367
X11049Y9144
X14351Y14732
X11938Y7747
X16002Y13716
X21082Y6477
X8255Y10541
X10033Y13589
X5334Y10795
X5334Y13335
X14351Y7747
X13970Y9906
X16637Y10795
X14351Y13970
X16891Y6223
X14859Y6223
X16256Y5207
X15494Y5207
X5334Y14097
X5334Y16129
X5080Y3810
M30