G04 EAGLE Gerber RS-274X export*
G75*
%MOMM*%
%FSLAX34Y34*%
%LPD*%
%INBottom Solder Mask*%
%IPPOS*%
%AMOC8*
5,1,8,0,0,1.08239X$1,22.5*%
G01*
%ADD10C,0.731000*%
%ADD11R,1.397000X1.397000*%

G36*
X63558Y121548D02*
X63558Y121548D01*
X63616Y121546D01*
X63698Y121568D01*
X63782Y121580D01*
X63835Y121604D01*
X63891Y121618D01*
X63964Y121661D01*
X64041Y121696D01*
X64086Y121734D01*
X64136Y121764D01*
X64194Y121825D01*
X64258Y121880D01*
X64290Y121928D01*
X64330Y121971D01*
X64369Y122046D01*
X64416Y122116D01*
X64433Y122172D01*
X64460Y122224D01*
X64471Y122292D01*
X64501Y122387D01*
X64504Y122487D01*
X64515Y122555D01*
X64515Y184150D01*
X64507Y184208D01*
X64509Y184266D01*
X64487Y184348D01*
X64475Y184432D01*
X64452Y184485D01*
X64437Y184541D01*
X64394Y184614D01*
X64359Y184691D01*
X64321Y184736D01*
X64292Y184786D01*
X64230Y184844D01*
X64176Y184908D01*
X64127Y184940D01*
X64084Y184980D01*
X64009Y185019D01*
X63939Y185066D01*
X63883Y185083D01*
X63831Y185110D01*
X63763Y185121D01*
X63668Y185151D01*
X63568Y185154D01*
X63500Y185165D01*
X0Y185165D01*
X-58Y185157D01*
X-116Y185159D01*
X-198Y185137D01*
X-282Y185125D01*
X-335Y185102D01*
X-391Y185087D01*
X-464Y185044D01*
X-541Y185009D01*
X-586Y184971D01*
X-636Y184942D01*
X-694Y184880D01*
X-758Y184826D01*
X-790Y184777D01*
X-830Y184734D01*
X-869Y184659D01*
X-916Y184589D01*
X-933Y184533D01*
X-960Y184481D01*
X-971Y184413D01*
X-1001Y184318D01*
X-1004Y184218D01*
X-1015Y184150D01*
X-1015Y122555D01*
X-1007Y122497D01*
X-1009Y122439D01*
X-987Y122357D01*
X-975Y122274D01*
X-952Y122220D01*
X-937Y122164D01*
X-894Y122091D01*
X-859Y122014D01*
X-821Y121969D01*
X-792Y121919D01*
X-730Y121861D01*
X-676Y121797D01*
X-627Y121765D01*
X-584Y121725D01*
X-509Y121686D01*
X-439Y121640D01*
X-383Y121622D01*
X-331Y121595D01*
X-263Y121584D01*
X-168Y121554D01*
X-68Y121551D01*
X0Y121540D01*
X63500Y121540D01*
X63558Y121548D01*
G37*
G36*
X63558Y43443D02*
X63558Y43443D01*
X63616Y43441D01*
X63698Y43463D01*
X63782Y43475D01*
X63835Y43499D01*
X63891Y43513D01*
X63964Y43556D01*
X64041Y43591D01*
X64086Y43629D01*
X64136Y43659D01*
X64194Y43720D01*
X64258Y43775D01*
X64290Y43823D01*
X64330Y43866D01*
X64369Y43941D01*
X64416Y44011D01*
X64433Y44067D01*
X64460Y44119D01*
X64471Y44187D01*
X64501Y44282D01*
X64504Y44382D01*
X64515Y44450D01*
X64515Y106045D01*
X64507Y106103D01*
X64509Y106161D01*
X64487Y106243D01*
X64475Y106327D01*
X64452Y106380D01*
X64437Y106436D01*
X64394Y106509D01*
X64359Y106586D01*
X64321Y106631D01*
X64292Y106681D01*
X64230Y106739D01*
X64176Y106803D01*
X64127Y106835D01*
X64084Y106875D01*
X64009Y106914D01*
X63939Y106961D01*
X63883Y106978D01*
X63831Y107005D01*
X63763Y107016D01*
X63668Y107046D01*
X63568Y107049D01*
X63500Y107060D01*
X0Y107060D01*
X-58Y107052D01*
X-116Y107054D01*
X-198Y107032D01*
X-282Y107020D01*
X-335Y106997D01*
X-391Y106982D01*
X-464Y106939D01*
X-541Y106904D01*
X-586Y106866D01*
X-636Y106837D01*
X-694Y106775D01*
X-758Y106721D01*
X-790Y106672D01*
X-830Y106629D01*
X-869Y106554D01*
X-916Y106484D01*
X-933Y106428D01*
X-960Y106376D01*
X-971Y106308D01*
X-1001Y106213D01*
X-1004Y106113D01*
X-1015Y106045D01*
X-1015Y44450D01*
X-1007Y44392D01*
X-1009Y44334D01*
X-987Y44252D01*
X-975Y44169D01*
X-952Y44115D01*
X-937Y44059D01*
X-894Y43986D01*
X-859Y43909D01*
X-821Y43864D01*
X-792Y43814D01*
X-730Y43756D01*
X-676Y43692D01*
X-627Y43660D01*
X-584Y43620D01*
X-509Y43581D01*
X-439Y43535D01*
X-383Y43517D01*
X-331Y43490D01*
X-263Y43479D01*
X-168Y43449D01*
X-68Y43446D01*
X0Y43435D01*
X63500Y43435D01*
X63558Y43443D01*
G37*
D10*
X50800Y50800D03*
X31750Y50800D03*
X12700Y50800D03*
X50800Y177800D03*
X31750Y177800D03*
X12700Y177800D03*
D11*
X120650Y88900D03*
X120650Y139700D03*
M02*
