M48
;GenerationSoftware,Autodesk,EAGLE,9.2.2*%
;CreationDate,2019-04-18T13:29:15Z*%
FMAT,2
ICI,OFF
METRIC,TZ,000.000
T4C0.254
T3C0.300
T2C1.000
%
G90
M71
T2
X14605Y23495
X17145Y23495
X12065Y23495
T3
X24130Y6731
X3048Y11557
X24130Y4699
X28194Y6985
X28194Y4445
X26289Y14605
X26289Y17145
X26289Y19685
X26416Y12065
X24511Y12065
X28194Y12065
X24511Y19685
X28194Y19685
X24130Y16891
X24130Y14859
X28194Y17145
X28194Y14605
X24511Y9525
X28194Y9525
X3048Y9017
X3048Y6477
X2921Y14097
X4826Y14097
X1143Y14097
X4826Y6477
X1143Y6477
X5207Y9271
X1143Y9017
X1143Y11557
X26289Y4445
X26289Y6985
X26289Y9525
X26416Y1905
X24511Y1905
X28194Y1905
X5207Y11303
T4
X19685Y22225
X20955Y22225
X21590Y20955
X15875Y18415
X16510Y18415
X15240Y18415
X19304Y13462
X19304Y8128
X20066Y13462
X20066Y8128
X20320Y12065
X20320Y10795
X20320Y9525
X20955Y13716
X20955Y7874
X18415Y22860
X18415Y24130
X17780Y22225
X16510Y22225
X16510Y24765
X17780Y24765
X20320Y24765
X22860Y24765
X25400Y24765
X27940Y22225
X27940Y24765
X8890Y24765
X6350Y24765
X1270Y17145
X3810Y24765
X16772Y8390
X17145Y20701
X17145Y21336
X10160Y20066
X10160Y20701
X10160Y21336
X10160Y22606
X10160Y23241
X10160Y23876
X10160Y24511
X12700Y21971
X12065Y21971
X11430Y21971
X13470Y9152
X16772Y7628
X8890Y21971
X10676Y7755
X10676Y8517
X14105Y9152
X8390Y7882
X11176Y13081
X11176Y13716
X8001Y13081
X8001Y13716
X10541Y12192
X9906Y12192
X8890Y20193
X8890Y21082
X8890Y19304
X19177Y14605
X7620Y12065
X7620Y9525
X10160Y9525
X8433Y4801
X9525Y3810
X10795Y5080
X22860Y16764
X21590Y16764
X20320Y16764
X22860Y14986
X21590Y14986
X20320Y14986
X8001Y14478
X18542Y13462
X17018Y12319
X14097Y12319
X17018Y9398
X8509Y11176
X9271Y11176
X9271Y10414
X8509Y10414
X15240Y11176
X16002Y11176
X15240Y10414
X23495Y13335
X11430Y12065
X11430Y9525
X12700Y9525
X22860Y13970
X22860Y7620
X22225Y7620
X22225Y13970
X23495Y12446
X22987Y11430
X22987Y10160
X23495Y9144
X16002Y10414
X23495Y8255
X5334Y21971
X5334Y21209
X8763Y18161
X8763Y17399
X3810Y15621
X3810Y16383
X9779Y15875
X10541Y15875
X8890Y15367
X11176Y14986
X1270Y3810
X21590Y6731
X20320Y6731
X19304Y6985
X18542Y7747
X17399Y6350
X22860Y4699
X21590Y4699
X20320Y4699
X19177Y4953
X18161Y5461
X1270Y1270
X22860Y6731
X3810Y1270
X6350Y1270
X8890Y1270
X11430Y1270
X13970Y1270
X16510Y1270
X19050Y1270
X21590Y1270
X1270Y24765
X1270Y22225
X1270Y19685
X10541Y17145
X10668Y6604
X11303Y5715
X12065Y5715
X12827Y5715
X13589Y5715
X14605Y6223
X15875Y6223
X16891Y6858
X6350Y9017
X10541Y18415
X10541Y17780
X12700Y12065
X11176Y16510
X11811Y16510
X12446Y16510
X13081Y16510
X13716Y17145
X13716Y17780
X13716Y18415
X19177Y16637
X17907Y15875
X17145Y14732
X16891Y13335
M30