G04 EAGLE Gerber RS-274X export*
G75*
%MOMM*%
%FSLAX34Y34*%
%LPD*%
%INInner Layer 2*%
%IPPOS*%
%AMOC8*
5,1,8,0,0,1.08239X$1,22.5*%
G01*
%ADD10C,1.500000*%
%ADD11C,0.503200*%
%ADD12C,0.457200*%

G36*
X287720Y3822D02*
X287720Y3822D01*
X287786Y3824D01*
X287829Y3842D01*
X287876Y3850D01*
X287933Y3884D01*
X287993Y3909D01*
X288028Y3940D01*
X288069Y3965D01*
X288111Y4016D01*
X288159Y4060D01*
X288181Y4102D01*
X288210Y4139D01*
X288231Y4201D01*
X288262Y4260D01*
X288270Y4314D01*
X288282Y4351D01*
X288281Y4391D01*
X288289Y4445D01*
X288289Y36068D01*
X288278Y36133D01*
X288276Y36199D01*
X288258Y36242D01*
X288250Y36289D01*
X288216Y36346D01*
X288191Y36406D01*
X288160Y36441D01*
X288135Y36482D01*
X288084Y36524D01*
X288040Y36572D01*
X287998Y36594D01*
X287961Y36623D01*
X287899Y36644D01*
X287840Y36675D01*
X287786Y36683D01*
X287749Y36695D01*
X287709Y36694D01*
X287655Y36702D01*
X243279Y36702D01*
X243204Y36777D01*
X243204Y42061D01*
X243193Y42126D01*
X243191Y42192D01*
X243173Y42235D01*
X243165Y42282D01*
X243131Y42339D01*
X243106Y42399D01*
X243075Y42434D01*
X243050Y42475D01*
X242999Y42517D01*
X242955Y42565D01*
X242913Y42587D01*
X242876Y42616D01*
X242814Y42637D01*
X242755Y42668D01*
X242701Y42676D01*
X242664Y42688D01*
X242624Y42687D01*
X242570Y42695D01*
X239521Y42695D01*
X237005Y45211D01*
X237005Y48769D01*
X239521Y51285D01*
X242570Y51285D01*
X242635Y51296D01*
X242701Y51298D01*
X242744Y51316D01*
X242791Y51324D01*
X242848Y51358D01*
X242908Y51383D01*
X242943Y51414D01*
X242984Y51439D01*
X243026Y51490D01*
X243074Y51534D01*
X243096Y51576D01*
X243125Y51613D01*
X243146Y51675D01*
X243177Y51734D01*
X243185Y51788D01*
X243197Y51825D01*
X243196Y51865D01*
X243204Y51919D01*
X243204Y62381D01*
X243193Y62446D01*
X243191Y62512D01*
X243173Y62555D01*
X243165Y62602D01*
X243131Y62659D01*
X243106Y62719D01*
X243075Y62754D01*
X243050Y62795D01*
X242999Y62837D01*
X242955Y62885D01*
X242913Y62907D01*
X242876Y62936D01*
X242814Y62957D01*
X242755Y62988D01*
X242701Y62996D01*
X242664Y63008D01*
X242624Y63007D01*
X242570Y63015D01*
X239521Y63015D01*
X237005Y65531D01*
X237005Y69089D01*
X239521Y71605D01*
X242570Y71605D01*
X242635Y71616D01*
X242701Y71618D01*
X242744Y71636D01*
X242791Y71644D01*
X242848Y71678D01*
X242908Y71703D01*
X242943Y71734D01*
X242984Y71759D01*
X243026Y71810D01*
X243074Y71854D01*
X243096Y71896D01*
X243125Y71933D01*
X243146Y71995D01*
X243177Y72054D01*
X243185Y72108D01*
X243197Y72145D01*
X243196Y72185D01*
X243204Y72239D01*
X243204Y77523D01*
X243279Y77598D01*
X287655Y77598D01*
X287720Y77609D01*
X287786Y77611D01*
X287829Y77629D01*
X287876Y77637D01*
X287933Y77671D01*
X287993Y77696D01*
X288028Y77727D01*
X288069Y77752D01*
X288111Y77803D01*
X288159Y77847D01*
X288181Y77889D01*
X288210Y77926D01*
X288231Y77988D01*
X288262Y78047D01*
X288270Y78101D01*
X288282Y78138D01*
X288281Y78178D01*
X288289Y78232D01*
X288289Y137668D01*
X288278Y137733D01*
X288276Y137799D01*
X288258Y137842D01*
X288250Y137889D01*
X288216Y137946D01*
X288191Y138006D01*
X288160Y138041D01*
X288135Y138082D01*
X288084Y138124D01*
X288040Y138172D01*
X287998Y138194D01*
X287961Y138223D01*
X287899Y138244D01*
X287840Y138275D01*
X287786Y138283D01*
X287749Y138295D01*
X287709Y138294D01*
X287655Y138302D01*
X243279Y138302D01*
X243204Y138377D01*
X243204Y143661D01*
X243193Y143726D01*
X243191Y143792D01*
X243173Y143835D01*
X243165Y143882D01*
X243131Y143939D01*
X243106Y143999D01*
X243075Y144034D01*
X243050Y144075D01*
X242999Y144117D01*
X242955Y144165D01*
X242913Y144187D01*
X242876Y144216D01*
X242814Y144237D01*
X242755Y144268D01*
X242701Y144276D01*
X242664Y144288D01*
X242624Y144287D01*
X242570Y144295D01*
X239521Y144295D01*
X237005Y146811D01*
X237005Y150369D01*
X239521Y152885D01*
X242570Y152885D01*
X242635Y152896D01*
X242701Y152898D01*
X242744Y152916D01*
X242791Y152924D01*
X242848Y152958D01*
X242908Y152983D01*
X242943Y153014D01*
X242984Y153039D01*
X243026Y153090D01*
X243074Y153134D01*
X243096Y153176D01*
X243125Y153213D01*
X243146Y153275D01*
X243177Y153334D01*
X243185Y153388D01*
X243197Y153425D01*
X243196Y153465D01*
X243204Y153519D01*
X243204Y163981D01*
X243193Y164046D01*
X243191Y164112D01*
X243173Y164155D01*
X243165Y164202D01*
X243131Y164259D01*
X243106Y164319D01*
X243075Y164354D01*
X243050Y164395D01*
X242999Y164437D01*
X242955Y164485D01*
X242913Y164507D01*
X242876Y164536D01*
X242814Y164557D01*
X242755Y164588D01*
X242701Y164596D01*
X242664Y164608D01*
X242624Y164607D01*
X242570Y164615D01*
X239521Y164615D01*
X237005Y167131D01*
X237005Y170689D01*
X239521Y173205D01*
X242570Y173205D01*
X242635Y173216D01*
X242701Y173218D01*
X242744Y173236D01*
X242791Y173244D01*
X242848Y173278D01*
X242908Y173303D01*
X242943Y173334D01*
X242984Y173359D01*
X243026Y173410D01*
X243074Y173454D01*
X243096Y173496D01*
X243125Y173533D01*
X243146Y173595D01*
X243177Y173654D01*
X243185Y173708D01*
X243197Y173745D01*
X243196Y173785D01*
X243204Y173839D01*
X243204Y179123D01*
X243279Y179198D01*
X287655Y179198D01*
X287720Y179209D01*
X287786Y179211D01*
X287829Y179229D01*
X287876Y179237D01*
X287933Y179271D01*
X287993Y179296D01*
X288028Y179327D01*
X288069Y179352D01*
X288111Y179403D01*
X288159Y179447D01*
X288181Y179489D01*
X288210Y179526D01*
X288231Y179588D01*
X288262Y179647D01*
X288270Y179701D01*
X288282Y179738D01*
X288281Y179778D01*
X288289Y179832D01*
X288289Y255905D01*
X288278Y255970D01*
X288276Y256036D01*
X288258Y256079D01*
X288250Y256126D01*
X288216Y256183D01*
X288191Y256243D01*
X288160Y256278D01*
X288135Y256319D01*
X288084Y256361D01*
X288040Y256409D01*
X287998Y256431D01*
X287961Y256460D01*
X287899Y256481D01*
X287840Y256512D01*
X287786Y256520D01*
X287749Y256532D01*
X287709Y256531D01*
X287655Y256539D01*
X4445Y256539D01*
X4380Y256528D01*
X4314Y256526D01*
X4271Y256508D01*
X4224Y256500D01*
X4167Y256466D01*
X4107Y256441D01*
X4072Y256410D01*
X4031Y256385D01*
X3989Y256334D01*
X3941Y256290D01*
X3919Y256248D01*
X3890Y256211D01*
X3869Y256149D01*
X3838Y256090D01*
X3830Y256036D01*
X3818Y255999D01*
X3819Y255959D01*
X3811Y255905D01*
X3811Y123952D01*
X3822Y123887D01*
X3824Y123821D01*
X3842Y123778D01*
X3850Y123731D01*
X3884Y123674D01*
X3909Y123614D01*
X3940Y123579D01*
X3965Y123538D01*
X4016Y123496D01*
X4060Y123448D01*
X4102Y123426D01*
X4139Y123397D01*
X4201Y123376D01*
X4260Y123345D01*
X4314Y123337D01*
X4351Y123325D01*
X4391Y123326D01*
X4445Y123318D01*
X50091Y123318D01*
X50166Y123243D01*
X50166Y117959D01*
X50177Y117894D01*
X50179Y117828D01*
X50197Y117785D01*
X50205Y117738D01*
X50239Y117681D01*
X50264Y117621D01*
X50295Y117586D01*
X50320Y117545D01*
X50371Y117503D01*
X50415Y117455D01*
X50457Y117433D01*
X50494Y117404D01*
X50556Y117383D01*
X50615Y117352D01*
X50669Y117344D01*
X50706Y117332D01*
X50746Y117333D01*
X50800Y117325D01*
X53849Y117325D01*
X56365Y114809D01*
X56365Y111251D01*
X53849Y108735D01*
X50800Y108735D01*
X50735Y108724D01*
X50669Y108722D01*
X50626Y108704D01*
X50579Y108696D01*
X50522Y108662D01*
X50462Y108637D01*
X50427Y108606D01*
X50386Y108581D01*
X50344Y108530D01*
X50296Y108486D01*
X50274Y108444D01*
X50245Y108407D01*
X50224Y108345D01*
X50193Y108286D01*
X50185Y108232D01*
X50173Y108195D01*
X50174Y108155D01*
X50166Y108101D01*
X50166Y97639D01*
X50177Y97574D01*
X50179Y97508D01*
X50197Y97465D01*
X50205Y97418D01*
X50239Y97361D01*
X50264Y97301D01*
X50295Y97266D01*
X50320Y97225D01*
X50371Y97183D01*
X50415Y97135D01*
X50457Y97113D01*
X50494Y97084D01*
X50556Y97063D01*
X50615Y97032D01*
X50669Y97024D01*
X50706Y97012D01*
X50746Y97013D01*
X50800Y97005D01*
X53849Y97005D01*
X56365Y94489D01*
X56365Y90931D01*
X53849Y88415D01*
X50800Y88415D01*
X50735Y88404D01*
X50669Y88402D01*
X50626Y88384D01*
X50579Y88376D01*
X50522Y88342D01*
X50462Y88317D01*
X50427Y88286D01*
X50386Y88261D01*
X50344Y88210D01*
X50296Y88166D01*
X50274Y88124D01*
X50245Y88087D01*
X50224Y88025D01*
X50193Y87966D01*
X50185Y87912D01*
X50173Y87875D01*
X50174Y87835D01*
X50166Y87781D01*
X50166Y82497D01*
X50091Y82422D01*
X4445Y82422D01*
X4380Y82411D01*
X4314Y82409D01*
X4271Y82391D01*
X4224Y82383D01*
X4167Y82349D01*
X4107Y82324D01*
X4072Y82293D01*
X4031Y82268D01*
X3989Y82217D01*
X3941Y82173D01*
X3919Y82131D01*
X3890Y82094D01*
X3869Y82032D01*
X3838Y81973D01*
X3830Y81919D01*
X3818Y81882D01*
X3819Y81842D01*
X3811Y81788D01*
X3811Y4445D01*
X3822Y4380D01*
X3824Y4314D01*
X3842Y4271D01*
X3850Y4224D01*
X3884Y4167D01*
X3909Y4107D01*
X3940Y4072D01*
X3965Y4031D01*
X4016Y3989D01*
X4060Y3941D01*
X4102Y3919D01*
X4139Y3890D01*
X4201Y3869D01*
X4260Y3838D01*
X4314Y3830D01*
X4351Y3818D01*
X4391Y3819D01*
X4445Y3811D01*
X287655Y3811D01*
X287720Y3822D01*
G37*
%LPC*%
G36*
X163416Y218185D02*
X163416Y218185D01*
X161035Y220566D01*
X161035Y223934D01*
X163416Y226315D01*
X165432Y226315D01*
X165520Y226331D01*
X165608Y226340D01*
X165629Y226350D01*
X165653Y226354D01*
X165729Y226400D01*
X165809Y226439D01*
X165826Y226456D01*
X165846Y226469D01*
X165902Y226538D01*
X165963Y226602D01*
X165972Y226624D01*
X165987Y226643D01*
X166016Y226727D01*
X166051Y226809D01*
X166052Y226833D01*
X166059Y226855D01*
X166057Y226944D01*
X166061Y227033D01*
X166053Y227056D01*
X166053Y227080D01*
X166019Y227162D01*
X165992Y227247D01*
X165976Y227268D01*
X165968Y227287D01*
X165934Y227325D01*
X165880Y227397D01*
X163584Y229694D01*
X162171Y233104D01*
X162171Y236796D01*
X163584Y240206D01*
X165880Y242503D01*
X165931Y242576D01*
X165987Y242645D01*
X165995Y242667D01*
X166009Y242687D01*
X166031Y242773D01*
X166059Y242857D01*
X166059Y242881D01*
X166064Y242904D01*
X166055Y242993D01*
X166053Y243082D01*
X166044Y243104D01*
X166041Y243127D01*
X166002Y243207D01*
X165968Y243289D01*
X165952Y243307D01*
X165942Y243328D01*
X165877Y243389D01*
X165817Y243455D01*
X165796Y243466D01*
X165779Y243482D01*
X165697Y243517D01*
X165617Y243558D01*
X165591Y243561D01*
X165572Y243570D01*
X165522Y243572D01*
X165432Y243585D01*
X163416Y243585D01*
X161035Y245966D01*
X161035Y249334D01*
X163416Y251715D01*
X166784Y251715D01*
X169165Y249334D01*
X169165Y245966D01*
X168142Y244944D01*
X168085Y244861D01*
X168024Y244781D01*
X168021Y244769D01*
X168014Y244760D01*
X167989Y244662D01*
X167960Y244566D01*
X167961Y244554D01*
X167958Y244542D01*
X167969Y244443D01*
X167975Y244342D01*
X167980Y244331D01*
X167981Y244319D01*
X168026Y244229D01*
X168067Y244137D01*
X168076Y244129D01*
X168081Y244118D01*
X168154Y244049D01*
X168225Y243977D01*
X168236Y243972D01*
X168244Y243964D01*
X168337Y243925D01*
X168428Y243882D01*
X168440Y243881D01*
X168451Y243877D01*
X168552Y243872D01*
X168652Y243864D01*
X168664Y243867D01*
X168675Y243867D01*
X168718Y243881D01*
X168833Y243909D01*
X169604Y244229D01*
X173296Y244229D01*
X174067Y243909D01*
X174165Y243888D01*
X174262Y243863D01*
X174274Y243864D01*
X174286Y243862D01*
X174386Y243876D01*
X174485Y243886D01*
X174496Y243891D01*
X174508Y243893D01*
X174596Y243941D01*
X174687Y243986D01*
X174695Y243994D01*
X174705Y244000D01*
X174771Y244075D01*
X174840Y244149D01*
X174845Y244160D01*
X174853Y244169D01*
X174889Y244263D01*
X174928Y244355D01*
X174928Y244367D01*
X174933Y244378D01*
X174933Y244479D01*
X174938Y244580D01*
X174934Y244591D01*
X174934Y244603D01*
X174900Y244697D01*
X174869Y244793D01*
X174861Y244804D01*
X174858Y244814D01*
X174828Y244848D01*
X174758Y244944D01*
X173735Y245966D01*
X173735Y249334D01*
X176116Y251715D01*
X179484Y251715D01*
X181865Y249334D01*
X181865Y245999D01*
X181876Y245934D01*
X181878Y245868D01*
X181896Y245825D01*
X181904Y245778D01*
X181938Y245721D01*
X181963Y245661D01*
X181994Y245626D01*
X182019Y245585D01*
X182070Y245543D01*
X182114Y245495D01*
X182156Y245473D01*
X182193Y245444D01*
X182255Y245423D01*
X182314Y245392D01*
X182368Y245384D01*
X182405Y245372D01*
X182445Y245373D01*
X182499Y245365D01*
X185834Y245365D01*
X188215Y242984D01*
X188215Y239616D01*
X185834Y237235D01*
X182466Y237235D01*
X181444Y238258D01*
X181361Y238315D01*
X181281Y238376D01*
X181269Y238379D01*
X181260Y238386D01*
X181162Y238411D01*
X181066Y238440D01*
X181054Y238439D01*
X181042Y238442D01*
X180943Y238431D01*
X180842Y238425D01*
X180831Y238420D01*
X180819Y238419D01*
X180729Y238374D01*
X180637Y238333D01*
X180629Y238324D01*
X180618Y238319D01*
X180549Y238246D01*
X180477Y238175D01*
X180472Y238164D01*
X180464Y238156D01*
X180425Y238063D01*
X180382Y237972D01*
X180381Y237960D01*
X180377Y237949D01*
X180372Y237848D01*
X180364Y237748D01*
X180367Y237736D01*
X180367Y237725D01*
X180381Y237682D01*
X180409Y237567D01*
X180729Y236796D01*
X180729Y233104D01*
X180409Y232333D01*
X180388Y232234D01*
X180363Y232138D01*
X180364Y232126D01*
X180362Y232114D01*
X180376Y232014D01*
X180386Y231915D01*
X180391Y231904D01*
X180393Y231892D01*
X180441Y231804D01*
X180486Y231713D01*
X180494Y231705D01*
X180500Y231695D01*
X180575Y231629D01*
X180649Y231560D01*
X180660Y231555D01*
X180669Y231547D01*
X180763Y231511D01*
X180855Y231472D01*
X180867Y231472D01*
X180878Y231467D01*
X180979Y231467D01*
X181080Y231462D01*
X181091Y231466D01*
X181103Y231466D01*
X181197Y231500D01*
X181293Y231531D01*
X181304Y231539D01*
X181314Y231542D01*
X181348Y231572D01*
X181444Y231642D01*
X182466Y232665D01*
X185834Y232665D01*
X188215Y230284D01*
X188215Y226916D01*
X185834Y224535D01*
X182499Y224535D01*
X182434Y224524D01*
X182368Y224522D01*
X182325Y224504D01*
X182278Y224496D01*
X182221Y224462D01*
X182161Y224437D01*
X182126Y224406D01*
X182085Y224381D01*
X182043Y224330D01*
X181995Y224286D01*
X181973Y224244D01*
X181944Y224207D01*
X181923Y224145D01*
X181892Y224086D01*
X181884Y224032D01*
X181872Y223995D01*
X181872Y223990D01*
X181872Y223989D01*
X181873Y223955D01*
X181865Y223901D01*
X181865Y220566D01*
X179484Y218185D01*
X176116Y218185D01*
X173735Y220566D01*
X173735Y223934D01*
X174758Y224956D01*
X174815Y225039D01*
X174876Y225119D01*
X174879Y225131D01*
X174886Y225140D01*
X174911Y225238D01*
X174940Y225334D01*
X174939Y225346D01*
X174942Y225358D01*
X174931Y225457D01*
X174925Y225558D01*
X174920Y225569D01*
X174919Y225581D01*
X174874Y225671D01*
X174833Y225763D01*
X174824Y225771D01*
X174819Y225782D01*
X174746Y225851D01*
X174675Y225923D01*
X174664Y225928D01*
X174656Y225936D01*
X174563Y225975D01*
X174472Y226018D01*
X174460Y226019D01*
X174449Y226023D01*
X174348Y226028D01*
X174248Y226036D01*
X174236Y226033D01*
X174225Y226033D01*
X174182Y226019D01*
X174067Y225991D01*
X173296Y225671D01*
X169604Y225671D01*
X168833Y225991D01*
X168735Y226012D01*
X168638Y226037D01*
X168626Y226036D01*
X168614Y226038D01*
X168514Y226024D01*
X168415Y226014D01*
X168404Y226009D01*
X168392Y226007D01*
X168304Y225959D01*
X168213Y225914D01*
X168205Y225906D01*
X168195Y225900D01*
X168129Y225825D01*
X168060Y225751D01*
X168055Y225740D01*
X168047Y225731D01*
X168011Y225637D01*
X167972Y225545D01*
X167972Y225533D01*
X167967Y225522D01*
X167967Y225421D01*
X167962Y225320D01*
X167966Y225309D01*
X167966Y225297D01*
X168000Y225203D01*
X168031Y225107D01*
X168039Y225096D01*
X168042Y225086D01*
X168072Y225052D01*
X168142Y224956D01*
X169165Y223934D01*
X169165Y220566D01*
X166784Y218185D01*
X163416Y218185D01*
G37*
%LPD*%
%LPC*%
G36*
X96106Y154685D02*
X96106Y154685D01*
X93725Y157066D01*
X93725Y160434D01*
X96106Y162815D01*
X99474Y162815D01*
X101151Y161137D01*
X101206Y161099D01*
X101253Y161054D01*
X101297Y161036D01*
X101336Y161009D01*
X101399Y160992D01*
X101460Y160967D01*
X101507Y160965D01*
X101553Y160953D01*
X101618Y160960D01*
X101684Y160957D01*
X101729Y160971D01*
X101776Y160976D01*
X101835Y161005D01*
X101898Y161025D01*
X101942Y161058D01*
X101977Y161076D01*
X102004Y161104D01*
X102048Y161137D01*
X103726Y162815D01*
X107061Y162815D01*
X107126Y162826D01*
X107192Y162828D01*
X107235Y162846D01*
X107282Y162854D01*
X107339Y162888D01*
X107399Y162913D01*
X107434Y162944D01*
X107475Y162969D01*
X107517Y163020D01*
X107565Y163064D01*
X107587Y163106D01*
X107616Y163143D01*
X107637Y163205D01*
X107668Y163264D01*
X107676Y163318D01*
X107688Y163355D01*
X107687Y163395D01*
X107695Y163449D01*
X107695Y166751D01*
X107684Y166816D01*
X107682Y166882D01*
X107664Y166925D01*
X107656Y166972D01*
X107622Y167029D01*
X107597Y167089D01*
X107566Y167124D01*
X107541Y167165D01*
X107490Y167207D01*
X107446Y167255D01*
X107404Y167277D01*
X107367Y167306D01*
X107305Y167327D01*
X107246Y167358D01*
X107192Y167366D01*
X107155Y167378D01*
X107115Y167377D01*
X107061Y167385D01*
X103726Y167385D01*
X101345Y169766D01*
X101345Y173134D01*
X102388Y174177D01*
X102426Y174231D01*
X102471Y174278D01*
X102489Y174322D01*
X102516Y174361D01*
X102533Y174424D01*
X102558Y174485D01*
X102560Y174532D01*
X102572Y174578D01*
X102565Y174643D01*
X102568Y174709D01*
X102554Y174754D01*
X102549Y174801D01*
X102520Y174860D01*
X102500Y174923D01*
X102467Y174967D01*
X102449Y175002D01*
X102421Y175029D01*
X102388Y175074D01*
X101345Y176116D01*
X101345Y179484D01*
X102388Y180527D01*
X102426Y180581D01*
X102471Y180628D01*
X102489Y180672D01*
X102516Y180711D01*
X102533Y180774D01*
X102558Y180835D01*
X102560Y180882D01*
X102572Y180928D01*
X102565Y180993D01*
X102568Y181059D01*
X102554Y181104D01*
X102549Y181151D01*
X102520Y181210D01*
X102500Y181273D01*
X102467Y181317D01*
X102449Y181352D01*
X102421Y181379D01*
X102388Y181424D01*
X101345Y182466D01*
X101345Y185834D01*
X103726Y188215D01*
X107094Y188215D01*
X109475Y185834D01*
X109475Y182466D01*
X108432Y181424D01*
X108394Y181369D01*
X108349Y181322D01*
X108331Y181278D01*
X108304Y181239D01*
X108287Y181176D01*
X108262Y181115D01*
X108260Y181068D01*
X108248Y181022D01*
X108255Y180957D01*
X108252Y180891D01*
X108266Y180846D01*
X108271Y180799D01*
X108300Y180740D01*
X108320Y180677D01*
X108353Y180633D01*
X108371Y180598D01*
X108399Y180571D01*
X108432Y180527D01*
X109475Y179484D01*
X109475Y176116D01*
X108432Y175074D01*
X108394Y175019D01*
X108349Y174972D01*
X108331Y174928D01*
X108304Y174889D01*
X108287Y174826D01*
X108262Y174765D01*
X108260Y174718D01*
X108248Y174672D01*
X108255Y174607D01*
X108252Y174541D01*
X108266Y174496D01*
X108271Y174449D01*
X108300Y174390D01*
X108320Y174327D01*
X108353Y174283D01*
X108371Y174248D01*
X108399Y174221D01*
X108432Y174177D01*
X109475Y173134D01*
X109475Y169799D01*
X109486Y169734D01*
X109488Y169668D01*
X109506Y169625D01*
X109514Y169578D01*
X109548Y169521D01*
X109573Y169461D01*
X109604Y169426D01*
X109629Y169385D01*
X109680Y169343D01*
X109724Y169295D01*
X109766Y169273D01*
X109803Y169244D01*
X109865Y169223D01*
X109924Y169192D01*
X109978Y169184D01*
X110015Y169172D01*
X110055Y169173D01*
X110109Y169165D01*
X113444Y169165D01*
X114486Y168122D01*
X114541Y168084D01*
X114588Y168039D01*
X114632Y168021D01*
X114671Y167994D01*
X114734Y167977D01*
X114795Y167952D01*
X114842Y167950D01*
X114888Y167938D01*
X114953Y167945D01*
X115019Y167942D01*
X115064Y167956D01*
X115111Y167961D01*
X115170Y167990D01*
X115233Y168010D01*
X115277Y168043D01*
X115312Y168061D01*
X115339Y168089D01*
X115383Y168122D01*
X116426Y169165D01*
X119794Y169165D01*
X120836Y168122D01*
X120891Y168084D01*
X120938Y168039D01*
X120982Y168021D01*
X121021Y167994D01*
X121084Y167977D01*
X121145Y167952D01*
X121192Y167950D01*
X121238Y167938D01*
X121303Y167945D01*
X121369Y167942D01*
X121414Y167956D01*
X121461Y167961D01*
X121520Y167990D01*
X121583Y168010D01*
X121627Y168043D01*
X121662Y168061D01*
X121689Y168089D01*
X121733Y168122D01*
X122776Y169165D01*
X126144Y169165D01*
X127186Y168122D01*
X127241Y168084D01*
X127288Y168039D01*
X127332Y168021D01*
X127371Y167994D01*
X127434Y167977D01*
X127495Y167952D01*
X127542Y167950D01*
X127588Y167938D01*
X127653Y167945D01*
X127719Y167942D01*
X127764Y167956D01*
X127811Y167961D01*
X127870Y167990D01*
X127933Y168010D01*
X127977Y168043D01*
X128012Y168061D01*
X128039Y168089D01*
X128083Y168122D01*
X129126Y169165D01*
X132461Y169165D01*
X132526Y169176D01*
X132592Y169178D01*
X132635Y169196D01*
X132682Y169204D01*
X132739Y169238D01*
X132799Y169263D01*
X132834Y169294D01*
X132875Y169319D01*
X132917Y169370D01*
X132965Y169414D01*
X132987Y169456D01*
X133016Y169493D01*
X133037Y169555D01*
X133068Y169614D01*
X133076Y169668D01*
X133088Y169705D01*
X133087Y169745D01*
X133095Y169799D01*
X133095Y173134D01*
X134138Y174176D01*
X134176Y174231D01*
X134221Y174278D01*
X134239Y174322D01*
X134266Y174361D01*
X134283Y174424D01*
X134308Y174485D01*
X134310Y174532D01*
X134322Y174578D01*
X134315Y174643D01*
X134318Y174709D01*
X134304Y174754D01*
X134299Y174801D01*
X134270Y174860D01*
X134250Y174923D01*
X134217Y174967D01*
X134199Y175002D01*
X134171Y175029D01*
X134138Y175073D01*
X133095Y176116D01*
X133095Y179484D01*
X134138Y180526D01*
X134176Y180581D01*
X134221Y180628D01*
X134239Y180672D01*
X134266Y180711D01*
X134283Y180774D01*
X134308Y180835D01*
X134310Y180882D01*
X134322Y180928D01*
X134315Y180993D01*
X134318Y181059D01*
X134304Y181104D01*
X134299Y181151D01*
X134270Y181210D01*
X134250Y181273D01*
X134217Y181317D01*
X134199Y181352D01*
X134171Y181379D01*
X134138Y181423D01*
X133095Y182466D01*
X133095Y185834D01*
X135476Y188215D01*
X138844Y188215D01*
X141225Y185834D01*
X141225Y182466D01*
X140182Y181423D01*
X140144Y181369D01*
X140099Y181322D01*
X140081Y181278D01*
X140054Y181239D01*
X140037Y181176D01*
X140012Y181115D01*
X140010Y181068D01*
X139998Y181022D01*
X140005Y180957D01*
X140002Y180891D01*
X140016Y180846D01*
X140021Y180799D01*
X140050Y180740D01*
X140070Y180677D01*
X140103Y180633D01*
X140121Y180598D01*
X140149Y180571D01*
X140182Y180526D01*
X141225Y179484D01*
X141225Y176116D01*
X140182Y175073D01*
X140144Y175019D01*
X140099Y174972D01*
X140081Y174928D01*
X140054Y174889D01*
X140037Y174826D01*
X140012Y174765D01*
X140010Y174718D01*
X139998Y174672D01*
X140005Y174607D01*
X140002Y174541D01*
X140016Y174496D01*
X140021Y174449D01*
X140050Y174390D01*
X140070Y174327D01*
X140103Y174283D01*
X140121Y174248D01*
X140149Y174221D01*
X140182Y174176D01*
X141225Y173134D01*
X141225Y169766D01*
X138844Y167385D01*
X135509Y167385D01*
X135444Y167374D01*
X135378Y167372D01*
X135335Y167354D01*
X135288Y167346D01*
X135231Y167312D01*
X135171Y167287D01*
X135136Y167256D01*
X135095Y167231D01*
X135053Y167180D01*
X135005Y167136D01*
X134983Y167094D01*
X134954Y167057D01*
X134933Y166995D01*
X134902Y166936D01*
X134894Y166882D01*
X134882Y166845D01*
X134883Y166805D01*
X134875Y166751D01*
X134875Y163416D01*
X132494Y161035D01*
X129126Y161035D01*
X128083Y162078D01*
X128029Y162116D01*
X127982Y162161D01*
X127938Y162179D01*
X127899Y162206D01*
X127836Y162223D01*
X127775Y162248D01*
X127728Y162250D01*
X127682Y162262D01*
X127617Y162255D01*
X127551Y162258D01*
X127506Y162244D01*
X127459Y162239D01*
X127400Y162210D01*
X127337Y162190D01*
X127293Y162157D01*
X127258Y162139D01*
X127231Y162111D01*
X127186Y162078D01*
X126144Y161035D01*
X122776Y161035D01*
X121733Y162078D01*
X121679Y162116D01*
X121632Y162161D01*
X121588Y162179D01*
X121549Y162206D01*
X121486Y162223D01*
X121425Y162248D01*
X121378Y162250D01*
X121332Y162262D01*
X121267Y162255D01*
X121201Y162258D01*
X121156Y162244D01*
X121109Y162239D01*
X121050Y162210D01*
X120987Y162190D01*
X120943Y162157D01*
X120908Y162139D01*
X120881Y162111D01*
X120836Y162078D01*
X119794Y161035D01*
X116426Y161035D01*
X115383Y162078D01*
X115329Y162116D01*
X115282Y162161D01*
X115238Y162179D01*
X115199Y162206D01*
X115136Y162223D01*
X115075Y162248D01*
X115028Y162250D01*
X114982Y162262D01*
X114917Y162255D01*
X114851Y162258D01*
X114806Y162244D01*
X114759Y162239D01*
X114700Y162210D01*
X114637Y162190D01*
X114593Y162157D01*
X114558Y162139D01*
X114531Y162111D01*
X114486Y162078D01*
X113444Y161035D01*
X110109Y161035D01*
X110044Y161024D01*
X109978Y161022D01*
X109935Y161004D01*
X109888Y160996D01*
X109831Y160962D01*
X109771Y160937D01*
X109736Y160906D01*
X109695Y160881D01*
X109653Y160830D01*
X109605Y160786D01*
X109583Y160744D01*
X109554Y160707D01*
X109533Y160645D01*
X109502Y160586D01*
X109494Y160532D01*
X109482Y160495D01*
X109483Y160455D01*
X109475Y160401D01*
X109475Y157066D01*
X107094Y154685D01*
X103726Y154685D01*
X102048Y156363D01*
X101994Y156401D01*
X101947Y156446D01*
X101903Y156464D01*
X101864Y156491D01*
X101801Y156508D01*
X101740Y156533D01*
X101693Y156535D01*
X101647Y156547D01*
X101582Y156540D01*
X101516Y156543D01*
X101471Y156529D01*
X101424Y156524D01*
X101365Y156495D01*
X101302Y156475D01*
X101258Y156442D01*
X101223Y156424D01*
X101196Y156396D01*
X101151Y156363D01*
X99474Y154685D01*
X96106Y154685D01*
G37*
%LPD*%
%LPC*%
G36*
X144204Y225671D02*
X144204Y225671D01*
X140794Y227084D01*
X138184Y229694D01*
X136771Y233104D01*
X136771Y236796D01*
X138184Y240206D01*
X140794Y242816D01*
X144204Y244229D01*
X147896Y244229D01*
X151306Y242816D01*
X153916Y240206D01*
X155329Y236796D01*
X155329Y233104D01*
X153916Y229694D01*
X151306Y227084D01*
X147896Y225671D01*
X144204Y225671D01*
G37*
%LPD*%
%LPC*%
G36*
X226916Y63245D02*
X226916Y63245D01*
X224535Y65626D01*
X224535Y68994D01*
X226848Y71306D01*
X226886Y71360D01*
X226931Y71408D01*
X226949Y71452D01*
X226976Y71491D01*
X226993Y71554D01*
X227018Y71615D01*
X227020Y71662D01*
X227032Y71708D01*
X227025Y71773D01*
X227028Y71839D01*
X227014Y71884D01*
X227009Y71931D01*
X226980Y71990D01*
X226960Y72053D01*
X226927Y72097D01*
X226909Y72132D01*
X226881Y72159D01*
X226848Y72203D01*
X225874Y73178D01*
X225819Y73216D01*
X225772Y73261D01*
X225728Y73279D01*
X225689Y73306D01*
X225626Y73323D01*
X225565Y73348D01*
X225518Y73350D01*
X225472Y73362D01*
X225407Y73355D01*
X225341Y73358D01*
X225296Y73344D01*
X225249Y73339D01*
X225190Y73310D01*
X225127Y73290D01*
X225083Y73257D01*
X225048Y73239D01*
X225021Y73211D01*
X224977Y73178D01*
X223934Y72135D01*
X220566Y72135D01*
X218185Y74516D01*
X218185Y77884D01*
X220566Y80265D01*
X223934Y80265D01*
X224977Y79222D01*
X225031Y79184D01*
X225078Y79139D01*
X225122Y79121D01*
X225161Y79094D01*
X225224Y79077D01*
X225285Y79052D01*
X225332Y79050D01*
X225378Y79038D01*
X225443Y79045D01*
X225509Y79042D01*
X225554Y79056D01*
X225601Y79061D01*
X225660Y79090D01*
X225723Y79110D01*
X225767Y79143D01*
X225802Y79161D01*
X225829Y79189D01*
X225874Y79222D01*
X226916Y80265D01*
X230251Y80265D01*
X230316Y80276D01*
X230382Y80278D01*
X230425Y80296D01*
X230472Y80304D01*
X230529Y80338D01*
X230589Y80363D01*
X230624Y80394D01*
X230665Y80419D01*
X230707Y80470D01*
X230755Y80514D01*
X230777Y80556D01*
X230806Y80593D01*
X230827Y80655D01*
X230858Y80714D01*
X230866Y80768D01*
X230878Y80805D01*
X230877Y80845D01*
X230885Y80899D01*
X230885Y84234D01*
X233198Y86547D01*
X233236Y86601D01*
X233281Y86648D01*
X233299Y86692D01*
X233326Y86731D01*
X233343Y86794D01*
X233368Y86855D01*
X233370Y86902D01*
X233382Y86948D01*
X233375Y87013D01*
X233378Y87079D01*
X233364Y87124D01*
X233359Y87171D01*
X233330Y87230D01*
X233310Y87293D01*
X233277Y87337D01*
X233259Y87372D01*
X233231Y87399D01*
X233198Y87444D01*
X230885Y89756D01*
X230885Y93124D01*
X233266Y95505D01*
X236634Y95505D01*
X239015Y93124D01*
X239015Y89756D01*
X236702Y87444D01*
X236664Y87389D01*
X236619Y87342D01*
X236601Y87298D01*
X236574Y87259D01*
X236557Y87196D01*
X236532Y87135D01*
X236530Y87088D01*
X236518Y87042D01*
X236525Y86977D01*
X236522Y86911D01*
X236536Y86866D01*
X236541Y86819D01*
X236570Y86760D01*
X236590Y86697D01*
X236623Y86653D01*
X236641Y86618D01*
X236669Y86591D01*
X236702Y86547D01*
X239015Y84234D01*
X239015Y80866D01*
X236634Y78485D01*
X233299Y78485D01*
X233234Y78474D01*
X233168Y78472D01*
X233125Y78454D01*
X233078Y78446D01*
X233021Y78412D01*
X232961Y78387D01*
X232926Y78356D01*
X232885Y78331D01*
X232843Y78280D01*
X232795Y78236D01*
X232773Y78194D01*
X232744Y78157D01*
X232723Y78095D01*
X232692Y78036D01*
X232684Y77982D01*
X232672Y77945D01*
X232673Y77905D01*
X232665Y77851D01*
X232665Y74516D01*
X230352Y72203D01*
X230314Y72149D01*
X230269Y72102D01*
X230251Y72058D01*
X230224Y72019D01*
X230207Y71956D01*
X230182Y71895D01*
X230180Y71848D01*
X230168Y71802D01*
X230175Y71737D01*
X230172Y71671D01*
X230186Y71626D01*
X230191Y71579D01*
X230220Y71520D01*
X230240Y71457D01*
X230273Y71413D01*
X230291Y71378D01*
X230319Y71351D01*
X230352Y71306D01*
X232665Y68994D01*
X232665Y65626D01*
X230284Y63245D01*
X226916Y63245D01*
G37*
%LPD*%
%LPC*%
G36*
X106266Y46735D02*
X106266Y46735D01*
X103885Y49116D01*
X103885Y52484D01*
X106266Y54865D01*
X108331Y54865D01*
X108396Y54876D01*
X108462Y54878D01*
X108505Y54896D01*
X108552Y54904D01*
X108609Y54938D01*
X108669Y54963D01*
X108704Y54994D01*
X108745Y55019D01*
X108787Y55070D01*
X108835Y55114D01*
X108857Y55156D01*
X108886Y55193D01*
X108907Y55255D01*
X108938Y55314D01*
X108946Y55368D01*
X108958Y55405D01*
X108957Y55445D01*
X108965Y55499D01*
X108965Y58834D01*
X111346Y61215D01*
X114714Y61215D01*
X116391Y59537D01*
X116446Y59499D01*
X116493Y59454D01*
X116537Y59436D01*
X116576Y59409D01*
X116639Y59392D01*
X116700Y59367D01*
X116747Y59365D01*
X116793Y59353D01*
X116858Y59360D01*
X116924Y59357D01*
X116969Y59371D01*
X117016Y59376D01*
X117075Y59405D01*
X117138Y59425D01*
X117182Y59458D01*
X117217Y59476D01*
X117244Y59504D01*
X117288Y59537D01*
X118966Y61215D01*
X122334Y61215D01*
X124011Y59537D01*
X124066Y59499D01*
X124113Y59454D01*
X124157Y59436D01*
X124196Y59409D01*
X124259Y59392D01*
X124320Y59367D01*
X124367Y59365D01*
X124413Y59353D01*
X124478Y59360D01*
X124544Y59357D01*
X124589Y59371D01*
X124636Y59376D01*
X124695Y59405D01*
X124758Y59425D01*
X124802Y59458D01*
X124837Y59476D01*
X124864Y59504D01*
X124908Y59537D01*
X126586Y61215D01*
X129954Y61215D01*
X131631Y59537D01*
X131686Y59499D01*
X131733Y59454D01*
X131777Y59436D01*
X131816Y59409D01*
X131879Y59392D01*
X131940Y59367D01*
X131987Y59365D01*
X132033Y59353D01*
X132098Y59360D01*
X132164Y59357D01*
X132209Y59371D01*
X132256Y59376D01*
X132315Y59405D01*
X132378Y59425D01*
X132422Y59458D01*
X132457Y59476D01*
X132484Y59504D01*
X132528Y59537D01*
X134206Y61215D01*
X137574Y61215D01*
X139955Y58834D01*
X139955Y55466D01*
X137574Y53085D01*
X134206Y53085D01*
X132528Y54763D01*
X132474Y54801D01*
X132427Y54846D01*
X132383Y54864D01*
X132344Y54891D01*
X132281Y54908D01*
X132220Y54933D01*
X132173Y54935D01*
X132127Y54947D01*
X132062Y54940D01*
X131996Y54943D01*
X131951Y54929D01*
X131904Y54924D01*
X131845Y54895D01*
X131782Y54875D01*
X131738Y54842D01*
X131703Y54824D01*
X131676Y54796D01*
X131631Y54763D01*
X129954Y53085D01*
X126586Y53085D01*
X124908Y54763D01*
X124854Y54801D01*
X124807Y54846D01*
X124763Y54864D01*
X124724Y54891D01*
X124661Y54908D01*
X124600Y54933D01*
X124553Y54935D01*
X124507Y54947D01*
X124442Y54940D01*
X124376Y54943D01*
X124331Y54929D01*
X124284Y54924D01*
X124225Y54895D01*
X124162Y54875D01*
X124118Y54842D01*
X124083Y54824D01*
X124056Y54796D01*
X124011Y54763D01*
X122334Y53085D01*
X118966Y53085D01*
X117288Y54763D01*
X117234Y54801D01*
X117187Y54846D01*
X117143Y54864D01*
X117104Y54891D01*
X117041Y54908D01*
X116980Y54933D01*
X116933Y54935D01*
X116887Y54947D01*
X116822Y54940D01*
X116756Y54943D01*
X116711Y54929D01*
X116664Y54924D01*
X116605Y54895D01*
X116542Y54875D01*
X116498Y54842D01*
X116463Y54824D01*
X116436Y54796D01*
X116391Y54763D01*
X114714Y53085D01*
X112649Y53085D01*
X112584Y53074D01*
X112518Y53072D01*
X112475Y53054D01*
X112428Y53046D01*
X112371Y53012D01*
X112311Y52987D01*
X112276Y52956D01*
X112235Y52931D01*
X112193Y52880D01*
X112145Y52836D01*
X112123Y52794D01*
X112094Y52757D01*
X112073Y52695D01*
X112042Y52636D01*
X112034Y52582D01*
X112022Y52545D01*
X112023Y52505D01*
X112015Y52451D01*
X112015Y49116D01*
X109634Y46735D01*
X106266Y46735D01*
G37*
%LPD*%
%LPC*%
G36*
X150716Y100075D02*
X150716Y100075D01*
X148335Y102456D01*
X148335Y105824D01*
X150013Y107502D01*
X150051Y107556D01*
X150096Y107603D01*
X150114Y107647D01*
X150141Y107686D01*
X150158Y107749D01*
X150183Y107810D01*
X150185Y107857D01*
X150197Y107903D01*
X150190Y107968D01*
X150193Y108034D01*
X150179Y108079D01*
X150174Y108126D01*
X150145Y108185D01*
X150125Y108248D01*
X150092Y108292D01*
X150074Y108327D01*
X150046Y108354D01*
X150013Y108399D01*
X148335Y110076D01*
X148335Y113444D01*
X150716Y115825D01*
X154084Y115825D01*
X155761Y114147D01*
X155816Y114109D01*
X155863Y114064D01*
X155907Y114046D01*
X155946Y114019D01*
X156009Y114002D01*
X156070Y113977D01*
X156117Y113975D01*
X156163Y113963D01*
X156228Y113970D01*
X156294Y113967D01*
X156339Y113981D01*
X156386Y113986D01*
X156445Y114015D01*
X156508Y114035D01*
X156552Y114068D01*
X156587Y114086D01*
X156614Y114114D01*
X156658Y114147D01*
X158336Y115825D01*
X161704Y115825D01*
X164085Y113444D01*
X164085Y110076D01*
X162407Y108399D01*
X162369Y108344D01*
X162324Y108297D01*
X162306Y108253D01*
X162279Y108214D01*
X162262Y108151D01*
X162237Y108090D01*
X162235Y108043D01*
X162223Y107997D01*
X162230Y107932D01*
X162227Y107866D01*
X162241Y107821D01*
X162246Y107774D01*
X162275Y107715D01*
X162295Y107652D01*
X162328Y107608D01*
X162346Y107573D01*
X162374Y107546D01*
X162407Y107502D01*
X164085Y105824D01*
X164085Y102456D01*
X161704Y100075D01*
X158336Y100075D01*
X156658Y101753D01*
X156604Y101791D01*
X156557Y101836D01*
X156513Y101854D01*
X156474Y101881D01*
X156411Y101898D01*
X156350Y101923D01*
X156303Y101925D01*
X156257Y101937D01*
X156192Y101930D01*
X156126Y101933D01*
X156081Y101919D01*
X156034Y101914D01*
X155975Y101885D01*
X155912Y101865D01*
X155868Y101832D01*
X155833Y101814D01*
X155806Y101786D01*
X155761Y101753D01*
X154084Y100075D01*
X150716Y100075D01*
G37*
%LPD*%
%LPC*%
G36*
X83406Y100075D02*
X83406Y100075D01*
X81025Y102456D01*
X81025Y105824D01*
X82703Y107502D01*
X82741Y107556D01*
X82786Y107603D01*
X82804Y107647D01*
X82831Y107686D01*
X82848Y107749D01*
X82873Y107810D01*
X82875Y107857D01*
X82887Y107903D01*
X82880Y107968D01*
X82883Y108034D01*
X82869Y108079D01*
X82864Y108126D01*
X82835Y108185D01*
X82815Y108248D01*
X82782Y108292D01*
X82764Y108327D01*
X82736Y108354D01*
X82703Y108399D01*
X81025Y110076D01*
X81025Y113444D01*
X83406Y115825D01*
X86774Y115825D01*
X88451Y114147D01*
X88506Y114109D01*
X88553Y114064D01*
X88597Y114046D01*
X88636Y114019D01*
X88699Y114002D01*
X88760Y113977D01*
X88807Y113975D01*
X88853Y113963D01*
X88918Y113970D01*
X88984Y113967D01*
X89029Y113981D01*
X89076Y113986D01*
X89135Y114015D01*
X89198Y114035D01*
X89242Y114068D01*
X89277Y114086D01*
X89304Y114114D01*
X89348Y114147D01*
X91026Y115825D01*
X94394Y115825D01*
X96775Y113444D01*
X96775Y110076D01*
X95097Y108399D01*
X95059Y108344D01*
X95014Y108297D01*
X94996Y108253D01*
X94969Y108214D01*
X94952Y108151D01*
X94927Y108090D01*
X94925Y108043D01*
X94913Y107997D01*
X94920Y107932D01*
X94917Y107866D01*
X94931Y107821D01*
X94936Y107774D01*
X94965Y107715D01*
X94985Y107652D01*
X95018Y107608D01*
X95036Y107573D01*
X95064Y107546D01*
X95097Y107502D01*
X96775Y105824D01*
X96775Y102456D01*
X94394Y100075D01*
X91026Y100075D01*
X89349Y101753D01*
X89294Y101791D01*
X89247Y101836D01*
X89203Y101854D01*
X89164Y101881D01*
X89101Y101898D01*
X89040Y101923D01*
X88993Y101925D01*
X88947Y101937D01*
X88882Y101930D01*
X88816Y101933D01*
X88771Y101919D01*
X88724Y101914D01*
X88665Y101885D01*
X88602Y101865D01*
X88558Y101832D01*
X88523Y101814D01*
X88496Y101786D01*
X88452Y101753D01*
X86774Y100075D01*
X83406Y100075D01*
G37*
%LPD*%
%LPC*%
G36*
X233266Y120395D02*
X233266Y120395D01*
X230885Y122776D01*
X230885Y126144D01*
X233198Y128456D01*
X233236Y128511D01*
X233281Y128558D01*
X233299Y128602D01*
X233326Y128641D01*
X233343Y128704D01*
X233368Y128765D01*
X233370Y128812D01*
X233382Y128858D01*
X233375Y128923D01*
X233378Y128989D01*
X233364Y129034D01*
X233359Y129081D01*
X233330Y129140D01*
X233310Y129203D01*
X233277Y129247D01*
X233259Y129282D01*
X233231Y129309D01*
X233198Y129353D01*
X230885Y131666D01*
X230885Y135001D01*
X230874Y135066D01*
X230872Y135132D01*
X230854Y135175D01*
X230846Y135222D01*
X230812Y135279D01*
X230787Y135339D01*
X230756Y135374D01*
X230731Y135415D01*
X230680Y135457D01*
X230636Y135505D01*
X230594Y135527D01*
X230557Y135556D01*
X230495Y135577D01*
X230436Y135608D01*
X230382Y135616D01*
X230345Y135628D01*
X230305Y135627D01*
X230251Y135635D01*
X226916Y135635D01*
X225874Y136678D01*
X225819Y136716D01*
X225772Y136761D01*
X225728Y136779D01*
X225689Y136806D01*
X225626Y136823D01*
X225565Y136848D01*
X225518Y136850D01*
X225472Y136862D01*
X225407Y136855D01*
X225341Y136858D01*
X225296Y136844D01*
X225249Y136839D01*
X225190Y136810D01*
X225127Y136790D01*
X225083Y136757D01*
X225048Y136739D01*
X225021Y136711D01*
X224977Y136678D01*
X223934Y135635D01*
X220566Y135635D01*
X218185Y138016D01*
X218185Y141384D01*
X220566Y143765D01*
X223934Y143765D01*
X224977Y142722D01*
X225031Y142684D01*
X225078Y142639D01*
X225122Y142621D01*
X225161Y142594D01*
X225224Y142577D01*
X225285Y142552D01*
X225332Y142550D01*
X225378Y142538D01*
X225443Y142545D01*
X225509Y142542D01*
X225554Y142556D01*
X225601Y142561D01*
X225660Y142590D01*
X225723Y142610D01*
X225767Y142643D01*
X225802Y142661D01*
X225829Y142689D01*
X225874Y142722D01*
X226916Y143765D01*
X230284Y143765D01*
X232665Y141384D01*
X232665Y138049D01*
X232676Y137984D01*
X232678Y137918D01*
X232696Y137875D01*
X232704Y137828D01*
X232738Y137771D01*
X232763Y137711D01*
X232794Y137676D01*
X232819Y137635D01*
X232870Y137593D01*
X232914Y137545D01*
X232956Y137523D01*
X232993Y137494D01*
X233055Y137473D01*
X233114Y137442D01*
X233168Y137434D01*
X233205Y137422D01*
X233245Y137423D01*
X233299Y137415D01*
X236634Y137415D01*
X239015Y135034D01*
X239015Y131666D01*
X236702Y129353D01*
X236664Y129299D01*
X236619Y129252D01*
X236601Y129208D01*
X236574Y129169D01*
X236557Y129106D01*
X236532Y129045D01*
X236530Y128998D01*
X236518Y128952D01*
X236525Y128887D01*
X236522Y128821D01*
X236536Y128776D01*
X236541Y128729D01*
X236570Y128670D01*
X236590Y128607D01*
X236623Y128563D01*
X236641Y128528D01*
X236669Y128501D01*
X236702Y128456D01*
X239015Y126144D01*
X239015Y122776D01*
X236634Y120395D01*
X233266Y120395D01*
G37*
%LPD*%
%LPC*%
G36*
X150716Y180085D02*
X150716Y180085D01*
X148335Y182466D01*
X148335Y185834D01*
X150716Y188215D01*
X154084Y188215D01*
X155127Y187172D01*
X155181Y187134D01*
X155228Y187089D01*
X155272Y187071D01*
X155311Y187044D01*
X155374Y187027D01*
X155435Y187002D01*
X155482Y187000D01*
X155528Y186988D01*
X155593Y186995D01*
X155659Y186992D01*
X155704Y187006D01*
X155751Y187011D01*
X155810Y187040D01*
X155873Y187060D01*
X155917Y187093D01*
X155952Y187111D01*
X155979Y187139D01*
X156024Y187172D01*
X157066Y188215D01*
X160434Y188215D01*
X161476Y187172D01*
X161531Y187134D01*
X161578Y187089D01*
X161622Y187071D01*
X161661Y187044D01*
X161724Y187027D01*
X161785Y187002D01*
X161832Y187000D01*
X161878Y186988D01*
X161943Y186995D01*
X162009Y186992D01*
X162054Y187006D01*
X162101Y187011D01*
X162160Y187040D01*
X162223Y187060D01*
X162267Y187093D01*
X162302Y187111D01*
X162329Y187139D01*
X162373Y187172D01*
X163416Y188215D01*
X166784Y188215D01*
X169165Y185834D01*
X169165Y182466D01*
X166784Y180085D01*
X163416Y180085D01*
X162373Y181128D01*
X162319Y181166D01*
X162272Y181211D01*
X162228Y181229D01*
X162189Y181256D01*
X162126Y181273D01*
X162065Y181298D01*
X162018Y181300D01*
X161972Y181312D01*
X161907Y181305D01*
X161841Y181308D01*
X161796Y181294D01*
X161749Y181289D01*
X161690Y181260D01*
X161627Y181240D01*
X161583Y181207D01*
X161548Y181189D01*
X161521Y181161D01*
X161476Y181128D01*
X160434Y180085D01*
X157066Y180085D01*
X156024Y181128D01*
X155969Y181166D01*
X155922Y181211D01*
X155878Y181229D01*
X155839Y181256D01*
X155776Y181273D01*
X155715Y181298D01*
X155668Y181300D01*
X155622Y181312D01*
X155557Y181305D01*
X155491Y181308D01*
X155446Y181294D01*
X155399Y181289D01*
X155340Y181260D01*
X155277Y181240D01*
X155233Y181207D01*
X155198Y181189D01*
X155171Y181161D01*
X155127Y181128D01*
X154084Y180085D01*
X150716Y180085D01*
G37*
%LPD*%
%LPC*%
G36*
X36416Y152145D02*
X36416Y152145D01*
X34035Y154526D01*
X34035Y157894D01*
X35713Y159572D01*
X35751Y159626D01*
X35796Y159673D01*
X35814Y159717D01*
X35841Y159756D01*
X35858Y159819D01*
X35883Y159880D01*
X35885Y159927D01*
X35897Y159973D01*
X35890Y160038D01*
X35893Y160104D01*
X35879Y160149D01*
X35874Y160196D01*
X35845Y160255D01*
X35825Y160318D01*
X35792Y160362D01*
X35774Y160397D01*
X35746Y160424D01*
X35713Y160469D01*
X34035Y162146D01*
X34035Y165514D01*
X36416Y167895D01*
X39784Y167895D01*
X42165Y165514D01*
X42165Y162146D01*
X40487Y160469D01*
X40449Y160414D01*
X40404Y160367D01*
X40386Y160323D01*
X40359Y160284D01*
X40342Y160221D01*
X40317Y160160D01*
X40315Y160113D01*
X40303Y160067D01*
X40310Y160002D01*
X40307Y159936D01*
X40321Y159891D01*
X40326Y159844D01*
X40355Y159785D01*
X40375Y159722D01*
X40408Y159678D01*
X40426Y159643D01*
X40454Y159616D01*
X40487Y159572D01*
X42165Y157894D01*
X42165Y154526D01*
X39784Y152145D01*
X36416Y152145D01*
G37*
%LPD*%
%LPC*%
G36*
X85946Y169925D02*
X85946Y169925D01*
X83565Y172306D01*
X83565Y175674D01*
X85243Y177352D01*
X85281Y177406D01*
X85326Y177453D01*
X85344Y177497D01*
X85371Y177536D01*
X85388Y177599D01*
X85413Y177660D01*
X85415Y177707D01*
X85427Y177753D01*
X85420Y177818D01*
X85423Y177884D01*
X85409Y177929D01*
X85404Y177976D01*
X85375Y178035D01*
X85355Y178098D01*
X85322Y178142D01*
X85304Y178177D01*
X85276Y178204D01*
X85243Y178249D01*
X83565Y179926D01*
X83565Y183294D01*
X85946Y185675D01*
X89314Y185675D01*
X91695Y183294D01*
X91695Y179926D01*
X90017Y178249D01*
X89979Y178194D01*
X89934Y178147D01*
X89916Y178103D01*
X89889Y178064D01*
X89872Y178001D01*
X89847Y177940D01*
X89845Y177893D01*
X89833Y177847D01*
X89840Y177782D01*
X89837Y177716D01*
X89851Y177671D01*
X89856Y177624D01*
X89885Y177565D01*
X89905Y177502D01*
X89938Y177458D01*
X89956Y177423D01*
X89984Y177396D01*
X90017Y177352D01*
X91695Y175674D01*
X91695Y172306D01*
X89314Y169925D01*
X85946Y169925D01*
G37*
%LPD*%
%LPC*%
G36*
X51656Y208025D02*
X51656Y208025D01*
X49275Y210406D01*
X49275Y213774D01*
X50953Y215452D01*
X50991Y215506D01*
X51036Y215553D01*
X51054Y215597D01*
X51081Y215636D01*
X51098Y215699D01*
X51123Y215760D01*
X51125Y215807D01*
X51137Y215853D01*
X51130Y215918D01*
X51133Y215984D01*
X51119Y216029D01*
X51114Y216076D01*
X51085Y216135D01*
X51065Y216198D01*
X51032Y216242D01*
X51014Y216277D01*
X50986Y216304D01*
X50953Y216349D01*
X49275Y218026D01*
X49275Y221394D01*
X51656Y223775D01*
X55024Y223775D01*
X57405Y221394D01*
X57405Y218026D01*
X55727Y216349D01*
X55689Y216294D01*
X55644Y216247D01*
X55626Y216203D01*
X55599Y216164D01*
X55582Y216101D01*
X55557Y216040D01*
X55555Y215993D01*
X55543Y215947D01*
X55550Y215882D01*
X55547Y215816D01*
X55561Y215771D01*
X55566Y215724D01*
X55595Y215665D01*
X55615Y215602D01*
X55648Y215558D01*
X55666Y215523D01*
X55694Y215496D01*
X55727Y215452D01*
X57405Y213774D01*
X57405Y210406D01*
X55024Y208025D01*
X51656Y208025D01*
G37*
%LPD*%
%LPC*%
G36*
X172306Y59435D02*
X172306Y59435D01*
X169925Y61816D01*
X169925Y63881D01*
X169914Y63946D01*
X169912Y64012D01*
X169894Y64055D01*
X169886Y64102D01*
X169852Y64159D01*
X169827Y64219D01*
X169796Y64254D01*
X169771Y64295D01*
X169720Y64337D01*
X169676Y64385D01*
X169634Y64407D01*
X169597Y64436D01*
X169535Y64457D01*
X169476Y64488D01*
X169422Y64496D01*
X169385Y64508D01*
X169345Y64507D01*
X169291Y64515D01*
X167226Y64515D01*
X164845Y66896D01*
X164845Y70264D01*
X167226Y72645D01*
X170594Y72645D01*
X172975Y70264D01*
X172975Y68199D01*
X172986Y68134D01*
X172988Y68068D01*
X173006Y68025D01*
X173014Y67978D01*
X173048Y67921D01*
X173073Y67861D01*
X173104Y67826D01*
X173129Y67785D01*
X173180Y67743D01*
X173224Y67695D01*
X173266Y67673D01*
X173303Y67644D01*
X173365Y67623D01*
X173424Y67592D01*
X173478Y67584D01*
X173515Y67572D01*
X173555Y67573D01*
X173609Y67565D01*
X175674Y67565D01*
X178055Y65184D01*
X178055Y61816D01*
X175674Y59435D01*
X172306Y59435D01*
G37*
%LPD*%
%LPC*%
G36*
X261111Y90955D02*
X261111Y90955D01*
X258595Y93471D01*
X258595Y97029D01*
X261111Y99545D01*
X264669Y99545D01*
X267185Y97029D01*
X267185Y93471D01*
X264669Y90955D01*
X261111Y90955D01*
G37*
%LPD*%
%LPC*%
G36*
X280161Y90955D02*
X280161Y90955D01*
X277645Y93471D01*
X277645Y97029D01*
X280161Y99545D01*
X283719Y99545D01*
X286235Y97029D01*
X286235Y93471D01*
X283719Y90955D01*
X280161Y90955D01*
G37*
%LPD*%
%LPC*%
G36*
X243331Y90955D02*
X243331Y90955D01*
X240815Y93471D01*
X240815Y97029D01*
X243331Y99545D01*
X246889Y99545D01*
X249405Y97029D01*
X249405Y93471D01*
X246889Y90955D01*
X243331Y90955D01*
G37*
%LPD*%
%LPC*%
G36*
X46481Y60475D02*
X46481Y60475D01*
X43965Y62991D01*
X43965Y66549D01*
X46481Y69065D01*
X50039Y69065D01*
X52555Y66549D01*
X52555Y62991D01*
X50039Y60475D01*
X46481Y60475D01*
G37*
%LPD*%
%LPC*%
G36*
X28701Y60475D02*
X28701Y60475D01*
X26185Y62991D01*
X26185Y66549D01*
X28701Y69065D01*
X32259Y69065D01*
X34775Y66549D01*
X34775Y62991D01*
X32259Y60475D01*
X28701Y60475D01*
G37*
%LPD*%
%LPC*%
G36*
X262381Y116355D02*
X262381Y116355D01*
X259865Y118871D01*
X259865Y122429D01*
X262381Y124945D01*
X265939Y124945D01*
X268455Y122429D01*
X268455Y118871D01*
X265939Y116355D01*
X262381Y116355D01*
G37*
%LPD*%
%LPC*%
G36*
X280161Y116355D02*
X280161Y116355D01*
X277645Y118871D01*
X277645Y122429D01*
X280161Y124945D01*
X283719Y124945D01*
X286235Y122429D01*
X286235Y118871D01*
X283719Y116355D01*
X280161Y116355D01*
G37*
%LPD*%
%LPC*%
G36*
X9651Y60475D02*
X9651Y60475D01*
X7135Y62991D01*
X7135Y66549D01*
X9651Y69065D01*
X13209Y69065D01*
X15725Y66549D01*
X15725Y62991D01*
X13209Y60475D01*
X9651Y60475D01*
G37*
%LPD*%
%LPC*%
G36*
X280161Y14755D02*
X280161Y14755D01*
X277645Y17271D01*
X277645Y20829D01*
X280161Y23345D01*
X283719Y23345D01*
X286235Y20829D01*
X286235Y17271D01*
X283719Y14755D01*
X280161Y14755D01*
G37*
%LPD*%
%LPC*%
G36*
X262381Y14755D02*
X262381Y14755D01*
X259865Y17271D01*
X259865Y20829D01*
X262381Y23345D01*
X265939Y23345D01*
X268455Y20829D01*
X268455Y17271D01*
X265939Y14755D01*
X262381Y14755D01*
G37*
%LPD*%
%LPC*%
G36*
X243331Y14755D02*
X243331Y14755D01*
X240815Y17271D01*
X240815Y20829D01*
X243331Y23345D01*
X246889Y23345D01*
X249405Y20829D01*
X249405Y17271D01*
X246889Y14755D01*
X243331Y14755D01*
G37*
%LPD*%
%LPC*%
G36*
X46481Y136675D02*
X46481Y136675D01*
X43965Y139191D01*
X43965Y142749D01*
X46481Y145265D01*
X50039Y145265D01*
X52555Y142749D01*
X52555Y139191D01*
X50039Y136675D01*
X46481Y136675D01*
G37*
%LPD*%
%LPC*%
G36*
X9651Y136675D02*
X9651Y136675D01*
X7135Y139191D01*
X7135Y142749D01*
X9651Y145265D01*
X13209Y145265D01*
X15725Y142749D01*
X15725Y139191D01*
X13209Y136675D01*
X9651Y136675D01*
G37*
%LPD*%
%LPC*%
G36*
X27431Y136675D02*
X27431Y136675D01*
X24915Y139191D01*
X24915Y142749D01*
X27431Y145265D01*
X30989Y145265D01*
X33505Y142749D01*
X33505Y139191D01*
X30989Y136675D01*
X27431Y136675D01*
G37*
%LPD*%
%LPC*%
G36*
X243331Y116355D02*
X243331Y116355D01*
X240815Y118871D01*
X240815Y122429D01*
X243331Y124945D01*
X246889Y124945D01*
X249405Y122429D01*
X249405Y118871D01*
X246889Y116355D01*
X243331Y116355D01*
G37*
%LPD*%
%LPC*%
G36*
X243331Y192555D02*
X243331Y192555D01*
X240815Y195071D01*
X240815Y198629D01*
X243331Y201145D01*
X246889Y201145D01*
X249405Y198629D01*
X249405Y195071D01*
X246889Y192555D01*
X243331Y192555D01*
G37*
%LPD*%
%LPC*%
G36*
X261111Y192555D02*
X261111Y192555D01*
X258595Y195071D01*
X258595Y198629D01*
X261111Y201145D01*
X264669Y201145D01*
X267185Y198629D01*
X267185Y195071D01*
X264669Y192555D01*
X261111Y192555D01*
G37*
%LPD*%
%LPC*%
G36*
X280161Y192555D02*
X280161Y192555D01*
X277645Y195071D01*
X277645Y198629D01*
X280161Y201145D01*
X283719Y201145D01*
X286235Y198629D01*
X286235Y195071D01*
X283719Y192555D01*
X280161Y192555D01*
G37*
%LPD*%
%LPC*%
G36*
X201516Y243585D02*
X201516Y243585D01*
X199135Y245966D01*
X199135Y249334D01*
X201516Y251715D01*
X204884Y251715D01*
X207265Y249334D01*
X207265Y245966D01*
X204884Y243585D01*
X201516Y243585D01*
G37*
%LPD*%
%LPC*%
G36*
X190086Y45465D02*
X190086Y45465D01*
X187705Y47846D01*
X187705Y51214D01*
X190086Y53595D01*
X193454Y53595D01*
X195835Y51214D01*
X195835Y47846D01*
X193454Y45465D01*
X190086Y45465D01*
G37*
%LPD*%
%LPC*%
G36*
X179926Y50545D02*
X179926Y50545D01*
X177545Y52926D01*
X177545Y56294D01*
X179926Y58675D01*
X183294Y58675D01*
X185675Y56294D01*
X185675Y52926D01*
X183294Y50545D01*
X179926Y50545D01*
G37*
%LPD*%
%LPC*%
G36*
X61816Y243585D02*
X61816Y243585D01*
X59435Y245966D01*
X59435Y249334D01*
X61816Y251715D01*
X65184Y251715D01*
X67565Y249334D01*
X67565Y245966D01*
X65184Y243585D01*
X61816Y243585D01*
G37*
%LPD*%
%LPC*%
G36*
X144366Y58165D02*
X144366Y58165D01*
X141985Y60546D01*
X141985Y63914D01*
X144366Y66295D01*
X147734Y66295D01*
X150115Y63914D01*
X150115Y60546D01*
X147734Y58165D01*
X144366Y58165D01*
G37*
%LPD*%
%LPC*%
G36*
X157066Y58165D02*
X157066Y58165D01*
X154685Y60546D01*
X154685Y63914D01*
X157066Y66295D01*
X160434Y66295D01*
X162815Y63914D01*
X162815Y60546D01*
X160434Y58165D01*
X157066Y58165D01*
G37*
%LPD*%
%LPC*%
G36*
X11016Y243585D02*
X11016Y243585D01*
X8635Y245966D01*
X8635Y249334D01*
X11016Y251715D01*
X14384Y251715D01*
X16765Y249334D01*
X16765Y245966D01*
X14384Y243585D01*
X11016Y243585D01*
G37*
%LPD*%
%LPC*%
G36*
X82644Y43941D02*
X82644Y43941D01*
X80263Y46322D01*
X80263Y49690D01*
X82644Y52071D01*
X86012Y52071D01*
X88393Y49690D01*
X88393Y46322D01*
X86012Y43941D01*
X82644Y43941D01*
G37*
%LPD*%
%LPC*%
G36*
X277716Y243585D02*
X277716Y243585D01*
X275335Y245966D01*
X275335Y249334D01*
X277716Y251715D01*
X281084Y251715D01*
X283465Y249334D01*
X283465Y245966D01*
X281084Y243585D01*
X277716Y243585D01*
G37*
%LPD*%
%LPC*%
G36*
X104996Y61975D02*
X104996Y61975D01*
X102615Y64356D01*
X102615Y67724D01*
X104996Y70105D01*
X108364Y70105D01*
X110745Y67724D01*
X110745Y64356D01*
X108364Y61975D01*
X104996Y61975D01*
G37*
%LPD*%
%LPC*%
G36*
X201516Y63245D02*
X201516Y63245D01*
X199135Y65626D01*
X199135Y68994D01*
X201516Y71375D01*
X204884Y71375D01*
X207265Y68994D01*
X207265Y65626D01*
X204884Y63245D01*
X201516Y63245D01*
G37*
%LPD*%
%LPC*%
G36*
X214216Y63245D02*
X214216Y63245D01*
X211835Y65626D01*
X211835Y68994D01*
X214216Y71375D01*
X217584Y71375D01*
X219965Y68994D01*
X219965Y65626D01*
X217584Y63245D01*
X214216Y63245D01*
G37*
%LPD*%
%LPC*%
G36*
X252316Y243585D02*
X252316Y243585D01*
X249935Y245966D01*
X249935Y249334D01*
X252316Y251715D01*
X255684Y251715D01*
X258065Y249334D01*
X258065Y245966D01*
X255684Y243585D01*
X252316Y243585D01*
G37*
%LPD*%
%LPC*%
G36*
X191356Y65785D02*
X191356Y65785D01*
X188975Y68166D01*
X188975Y71534D01*
X191356Y73915D01*
X194724Y73915D01*
X197105Y71534D01*
X197105Y68166D01*
X194724Y65785D01*
X191356Y65785D01*
G37*
%LPD*%
%LPC*%
G36*
X183736Y73405D02*
X183736Y73405D01*
X181355Y75786D01*
X181355Y79154D01*
X183736Y81535D01*
X187104Y81535D01*
X189485Y79154D01*
X189485Y75786D01*
X187104Y73405D01*
X183736Y73405D01*
G37*
%LPD*%
%LPC*%
G36*
X61816Y86105D02*
X61816Y86105D01*
X59435Y88486D01*
X59435Y91854D01*
X61816Y94235D01*
X65184Y94235D01*
X67565Y91854D01*
X67565Y88486D01*
X65184Y86105D01*
X61816Y86105D01*
G37*
%LPD*%
%LPC*%
G36*
X214216Y8635D02*
X214216Y8635D01*
X211835Y11016D01*
X211835Y14384D01*
X214216Y16765D01*
X217584Y16765D01*
X219965Y14384D01*
X219965Y11016D01*
X217584Y8635D01*
X214216Y8635D01*
G37*
%LPD*%
%LPC*%
G36*
X11016Y8635D02*
X11016Y8635D01*
X8635Y11016D01*
X8635Y14384D01*
X11016Y16765D01*
X14384Y16765D01*
X16765Y14384D01*
X16765Y11016D01*
X14384Y8635D01*
X11016Y8635D01*
G37*
%LPD*%
%LPC*%
G36*
X36416Y8635D02*
X36416Y8635D01*
X34035Y11016D01*
X34035Y14384D01*
X36416Y16765D01*
X39784Y16765D01*
X42165Y14384D01*
X42165Y11016D01*
X39784Y8635D01*
X36416Y8635D01*
G37*
%LPD*%
%LPC*%
G36*
X61816Y8635D02*
X61816Y8635D01*
X59435Y11016D01*
X59435Y14384D01*
X61816Y16765D01*
X65184Y16765D01*
X67565Y14384D01*
X67565Y11016D01*
X65184Y8635D01*
X61816Y8635D01*
G37*
%LPD*%
%LPC*%
G36*
X87216Y8635D02*
X87216Y8635D01*
X84835Y11016D01*
X84835Y14384D01*
X87216Y16765D01*
X90584Y16765D01*
X92965Y14384D01*
X92965Y11016D01*
X90584Y8635D01*
X87216Y8635D01*
G37*
%LPD*%
%LPC*%
G36*
X112616Y8635D02*
X112616Y8635D01*
X110235Y11016D01*
X110235Y14384D01*
X112616Y16765D01*
X115984Y16765D01*
X118365Y14384D01*
X118365Y11016D01*
X115984Y8635D01*
X112616Y8635D01*
G37*
%LPD*%
%LPC*%
G36*
X138016Y8635D02*
X138016Y8635D01*
X135635Y11016D01*
X135635Y14384D01*
X138016Y16765D01*
X141384Y16765D01*
X143765Y14384D01*
X143765Y11016D01*
X141384Y8635D01*
X138016Y8635D01*
G37*
%LPD*%
%LPC*%
G36*
X163416Y8635D02*
X163416Y8635D01*
X161035Y11016D01*
X161035Y14384D01*
X163416Y16765D01*
X166784Y16765D01*
X169165Y14384D01*
X169165Y11016D01*
X166784Y8635D01*
X163416Y8635D01*
G37*
%LPD*%
%LPC*%
G36*
X188816Y8635D02*
X188816Y8635D01*
X186435Y11016D01*
X186435Y14384D01*
X188816Y16765D01*
X192184Y16765D01*
X194565Y14384D01*
X194565Y11016D01*
X192184Y8635D01*
X188816Y8635D01*
G37*
%LPD*%
%LPC*%
G36*
X168496Y89915D02*
X168496Y89915D01*
X166115Y92296D01*
X166115Y95664D01*
X168496Y98045D01*
X171864Y98045D01*
X174245Y95664D01*
X174245Y92296D01*
X171864Y89915D01*
X168496Y89915D01*
G37*
%LPD*%
%LPC*%
G36*
X226916Y243585D02*
X226916Y243585D01*
X224535Y245966D01*
X224535Y249334D01*
X226916Y251715D01*
X230284Y251715D01*
X232665Y249334D01*
X232665Y245966D01*
X230284Y243585D01*
X226916Y243585D01*
G37*
%LPD*%
%LPC*%
G36*
X36416Y243585D02*
X36416Y243585D01*
X34035Y245966D01*
X34035Y249334D01*
X36416Y251715D01*
X39784Y251715D01*
X42165Y249334D01*
X42165Y245966D01*
X39784Y243585D01*
X36416Y243585D01*
G37*
%LPD*%
%LPC*%
G36*
X87216Y243585D02*
X87216Y243585D01*
X84835Y245966D01*
X84835Y249334D01*
X87216Y251715D01*
X90584Y251715D01*
X92965Y249334D01*
X92965Y245966D01*
X90584Y243585D01*
X87216Y243585D01*
G37*
%LPD*%
%LPC*%
G36*
X11016Y34035D02*
X11016Y34035D01*
X8635Y36416D01*
X8635Y39784D01*
X11016Y42165D01*
X14384Y42165D01*
X16765Y39784D01*
X16765Y36416D01*
X14384Y34035D01*
X11016Y34035D01*
G37*
%LPD*%
%LPC*%
G36*
X93566Y34035D02*
X93566Y34035D01*
X91185Y36416D01*
X91185Y39784D01*
X93566Y42165D01*
X96934Y42165D01*
X99315Y39784D01*
X99315Y36416D01*
X96934Y34035D01*
X93566Y34035D01*
G37*
%LPD*%
%LPC*%
G36*
X201516Y42925D02*
X201516Y42925D01*
X199135Y45306D01*
X199135Y48674D01*
X201516Y51055D01*
X204884Y51055D01*
X207265Y48674D01*
X207265Y45306D01*
X204884Y42925D01*
X201516Y42925D01*
G37*
%LPD*%
%LPC*%
G36*
X214216Y42925D02*
X214216Y42925D01*
X211835Y45306D01*
X211835Y48674D01*
X214216Y51055D01*
X217584Y51055D01*
X219965Y48674D01*
X219965Y45306D01*
X217584Y42925D01*
X214216Y42925D01*
G37*
%LPD*%
%LPC*%
G36*
X226916Y42925D02*
X226916Y42925D01*
X224535Y45306D01*
X224535Y48674D01*
X226916Y51055D01*
X230284Y51055D01*
X232665Y48674D01*
X232665Y45306D01*
X230284Y42925D01*
X226916Y42925D01*
G37*
%LPD*%
%LPC*%
G36*
X190086Y141985D02*
X190086Y141985D01*
X187705Y144366D01*
X187705Y147734D01*
X190086Y150115D01*
X193454Y150115D01*
X195835Y147734D01*
X195835Y144366D01*
X193454Y141985D01*
X190086Y141985D01*
G37*
%LPD*%
%LPC*%
G36*
X168496Y119125D02*
X168496Y119125D01*
X166115Y121506D01*
X166115Y124874D01*
X168496Y127255D01*
X171864Y127255D01*
X174245Y124874D01*
X174245Y121506D01*
X171864Y119125D01*
X168496Y119125D01*
G37*
%LPD*%
%LPC*%
G36*
X167226Y129285D02*
X167226Y129285D01*
X164845Y131666D01*
X164845Y135034D01*
X167226Y137415D01*
X170594Y137415D01*
X172975Y135034D01*
X172975Y131666D01*
X170594Y129285D01*
X167226Y129285D01*
G37*
%LPD*%
%LPC*%
G36*
X183736Y130555D02*
X183736Y130555D01*
X181355Y132936D01*
X181355Y136304D01*
X183736Y138685D01*
X187104Y138685D01*
X189485Y136304D01*
X189485Y132936D01*
X187104Y130555D01*
X183736Y130555D01*
G37*
%LPD*%
%LPC*%
G36*
X11016Y167385D02*
X11016Y167385D01*
X8635Y169766D01*
X8635Y173134D01*
X11016Y175515D01*
X14384Y175515D01*
X16765Y173134D01*
X16765Y169766D01*
X14384Y167385D01*
X11016Y167385D01*
G37*
%LPD*%
%LPC*%
G36*
X201516Y163575D02*
X201516Y163575D01*
X199135Y165956D01*
X199135Y169324D01*
X201516Y171705D01*
X204884Y171705D01*
X207265Y169324D01*
X207265Y165956D01*
X204884Y163575D01*
X201516Y163575D01*
G37*
%LPD*%
%LPC*%
G36*
X226916Y163575D02*
X226916Y163575D01*
X224535Y165956D01*
X224535Y169324D01*
X226916Y171705D01*
X230284Y171705D01*
X232665Y169324D01*
X232665Y165956D01*
X230284Y163575D01*
X226916Y163575D01*
G37*
%LPD*%
%LPC*%
G36*
X214216Y163575D02*
X214216Y163575D01*
X211835Y165956D01*
X211835Y169324D01*
X214216Y171705D01*
X217584Y171705D01*
X219965Y169324D01*
X219965Y165956D01*
X217584Y163575D01*
X214216Y163575D01*
G37*
%LPD*%
%LPC*%
G36*
X78326Y140715D02*
X78326Y140715D01*
X75945Y143096D01*
X75945Y146464D01*
X78326Y148845D01*
X81694Y148845D01*
X84075Y146464D01*
X84075Y143096D01*
X81694Y140715D01*
X78326Y140715D01*
G37*
%LPD*%
%LPC*%
G36*
X139286Y119125D02*
X139286Y119125D01*
X136905Y121506D01*
X136905Y124874D01*
X139286Y127255D01*
X142654Y127255D01*
X145035Y124874D01*
X145035Y121506D01*
X142654Y119125D01*
X139286Y119125D01*
G37*
%LPD*%
%LPC*%
G36*
X169766Y143255D02*
X169766Y143255D01*
X167385Y145636D01*
X167385Y149004D01*
X169766Y151385D01*
X173134Y151385D01*
X175515Y149004D01*
X175515Y145636D01*
X173134Y143255D01*
X169766Y143255D01*
G37*
%LPD*%
%LPC*%
G36*
X201516Y145795D02*
X201516Y145795D01*
X199135Y148176D01*
X199135Y151544D01*
X201516Y153925D01*
X204884Y153925D01*
X207265Y151544D01*
X207265Y148176D01*
X204884Y145795D01*
X201516Y145795D01*
G37*
%LPD*%
%LPC*%
G36*
X214216Y145795D02*
X214216Y145795D01*
X211835Y148176D01*
X211835Y151544D01*
X214216Y153925D01*
X217584Y153925D01*
X219965Y151544D01*
X219965Y148176D01*
X217584Y145795D01*
X214216Y145795D01*
G37*
%LPD*%
%LPC*%
G36*
X110076Y145795D02*
X110076Y145795D01*
X107695Y148176D01*
X107695Y151544D01*
X110076Y153925D01*
X113444Y153925D01*
X115825Y151544D01*
X115825Y148176D01*
X113444Y145795D01*
X110076Y145795D01*
G37*
%LPD*%
%LPC*%
G36*
X226916Y145795D02*
X226916Y145795D01*
X224535Y148176D01*
X224535Y151544D01*
X226916Y153925D01*
X230284Y153925D01*
X232665Y151544D01*
X232665Y148176D01*
X230284Y145795D01*
X226916Y145795D01*
G37*
%LPD*%
%LPC*%
G36*
X87216Y149605D02*
X87216Y149605D01*
X84835Y151986D01*
X84835Y155354D01*
X87216Y157735D01*
X90584Y157735D01*
X92965Y155354D01*
X92965Y151986D01*
X90584Y149605D01*
X87216Y149605D01*
G37*
%LPD*%
%LPC*%
G36*
X177386Y154685D02*
X177386Y154685D01*
X175005Y157066D01*
X175005Y160434D01*
X177386Y162815D01*
X180754Y162815D01*
X183135Y160434D01*
X183135Y157066D01*
X180754Y154685D01*
X177386Y154685D01*
G37*
%LPD*%
%LPC*%
G36*
X11016Y218185D02*
X11016Y218185D01*
X8635Y220566D01*
X8635Y223934D01*
X11016Y226315D01*
X14384Y226315D01*
X16765Y223934D01*
X16765Y220566D01*
X14384Y218185D01*
X11016Y218185D01*
G37*
%LPD*%
%LPC*%
G36*
X11016Y192785D02*
X11016Y192785D01*
X8635Y195166D01*
X8635Y198534D01*
X11016Y200915D01*
X14384Y200915D01*
X16765Y198534D01*
X16765Y195166D01*
X14384Y192785D01*
X11016Y192785D01*
G37*
%LPD*%
%LPC*%
G36*
X125316Y116585D02*
X125316Y116585D01*
X122935Y118966D01*
X122935Y122334D01*
X125316Y124715D01*
X128684Y124715D01*
X131065Y122334D01*
X131065Y118966D01*
X128684Y116585D01*
X125316Y116585D01*
G37*
%LPD*%
%LPC*%
G36*
X112616Y116585D02*
X112616Y116585D01*
X110235Y118966D01*
X110235Y122334D01*
X112616Y124715D01*
X115984Y124715D01*
X118365Y122334D01*
X118365Y118966D01*
X115984Y116585D01*
X112616Y116585D01*
G37*
%LPD*%
%LPC*%
G36*
X74516Y116585D02*
X74516Y116585D01*
X72135Y118966D01*
X72135Y122334D01*
X74516Y124715D01*
X77884Y124715D01*
X80265Y122334D01*
X80265Y118966D01*
X77884Y116585D01*
X74516Y116585D01*
G37*
%LPD*%
%LPC*%
G36*
X228186Y110235D02*
X228186Y110235D01*
X225805Y112616D01*
X225805Y115984D01*
X228186Y118365D01*
X231554Y118365D01*
X233935Y115984D01*
X233935Y112616D01*
X231554Y110235D01*
X228186Y110235D01*
G37*
%LPD*%
%LPC*%
G36*
X214216Y205485D02*
X214216Y205485D01*
X211835Y207866D01*
X211835Y211234D01*
X214216Y213615D01*
X217584Y213615D01*
X219965Y211234D01*
X219965Y207866D01*
X217584Y205485D01*
X214216Y205485D01*
G37*
%LPD*%
%LPC*%
G36*
X228186Y97535D02*
X228186Y97535D01*
X225805Y99916D01*
X225805Y103284D01*
X228186Y105665D01*
X231554Y105665D01*
X233935Y103284D01*
X233935Y99916D01*
X231554Y97535D01*
X228186Y97535D01*
G37*
%LPD*%
%LPC*%
G36*
X207866Y218185D02*
X207866Y218185D01*
X205485Y220566D01*
X205485Y223934D01*
X207866Y226315D01*
X211234Y226315D01*
X213615Y223934D01*
X213615Y220566D01*
X211234Y218185D01*
X207866Y218185D01*
G37*
%LPD*%
%LPC*%
G36*
X277716Y218185D02*
X277716Y218185D01*
X275335Y220566D01*
X275335Y223934D01*
X277716Y226315D01*
X281084Y226315D01*
X283465Y223934D01*
X283465Y220566D01*
X281084Y218185D01*
X277716Y218185D01*
G37*
%LPD*%
%LPC*%
G36*
X195166Y218185D02*
X195166Y218185D01*
X192785Y220566D01*
X192785Y223934D01*
X195166Y226315D01*
X198534Y226315D01*
X200915Y223934D01*
X200915Y220566D01*
X198534Y218185D01*
X195166Y218185D01*
G37*
%LPD*%
%LPC*%
G36*
X125316Y91185D02*
X125316Y91185D01*
X122935Y93566D01*
X122935Y96934D01*
X125316Y99315D01*
X128684Y99315D01*
X131065Y96934D01*
X131065Y93566D01*
X128684Y91185D01*
X125316Y91185D01*
G37*
%LPD*%
%LPC*%
G36*
X112616Y91185D02*
X112616Y91185D01*
X110235Y93566D01*
X110235Y96934D01*
X112616Y99315D01*
X115984Y99315D01*
X118365Y96934D01*
X118365Y93566D01*
X115984Y91185D01*
X112616Y91185D01*
G37*
%LPD*%
%LPC*%
G36*
X99916Y91185D02*
X99916Y91185D01*
X97535Y93566D01*
X97535Y96934D01*
X99916Y99315D01*
X103284Y99315D01*
X105665Y96934D01*
X105665Y93566D01*
X103284Y91185D01*
X99916Y91185D01*
G37*
%LPD*%
%LPC*%
G36*
X74516Y91185D02*
X74516Y91185D01*
X72135Y93566D01*
X72135Y96934D01*
X74516Y99315D01*
X77884Y99315D01*
X80265Y96934D01*
X80265Y93566D01*
X77884Y91185D01*
X74516Y91185D01*
G37*
%LPD*%
%LPC*%
G36*
X190086Y162305D02*
X190086Y162305D01*
X187705Y164686D01*
X187705Y168054D01*
X190086Y170435D01*
X193454Y170435D01*
X195835Y168054D01*
X195835Y164686D01*
X193454Y162305D01*
X190086Y162305D01*
G37*
%LPD*%
D10*
X146050Y234950D03*
X171450Y234950D03*
X120650Y234950D03*
D11*
X281940Y146050D03*
X281940Y171450D03*
X241300Y148590D03*
X241300Y168910D03*
X281940Y196850D03*
X245110Y196850D03*
X281940Y120650D03*
X245110Y120650D03*
X264160Y120650D03*
X262890Y196850D03*
X262890Y171450D03*
X262890Y146050D03*
X281940Y44450D03*
X281940Y69850D03*
X241300Y46990D03*
X241300Y67310D03*
X281940Y95250D03*
X245110Y95250D03*
X281940Y19050D03*
X245110Y19050D03*
X264160Y19050D03*
X262890Y95250D03*
X262890Y69850D03*
X262890Y44450D03*
X11430Y115570D03*
X11430Y90170D03*
X52070Y113030D03*
X52070Y92710D03*
X11430Y64770D03*
X48260Y64770D03*
X11430Y140970D03*
X48260Y140970D03*
X29210Y140970D03*
X30480Y64770D03*
X30480Y90170D03*
X30480Y115570D03*
D12*
X127000Y120650D03*
X114300Y120650D03*
X114300Y95250D03*
X127000Y95250D03*
X228600Y139700D03*
X228600Y76200D03*
X222250Y76200D03*
X222250Y139700D03*
X234950Y124460D03*
X229870Y114300D03*
X229870Y101600D03*
X234950Y91440D03*
X234950Y133350D03*
X234950Y82550D03*
X53340Y219710D03*
X53340Y212090D03*
X87630Y181610D03*
X87630Y173990D03*
X38100Y156210D03*
X38100Y163830D03*
X97790Y158750D03*
X105410Y158750D03*
X88900Y153670D03*
X111760Y149860D03*
X80010Y144780D03*
X76200Y120650D03*
X76200Y95250D03*
X101600Y95250D03*
X84328Y48006D03*
X95250Y38100D03*
X107950Y50800D03*
X228600Y167640D03*
X215900Y167640D03*
X203200Y167640D03*
X228600Y149860D03*
X215900Y149860D03*
X203200Y149860D03*
X191770Y146050D03*
X185420Y134620D03*
X170180Y123190D03*
X140970Y123190D03*
X170180Y93980D03*
X85090Y111760D03*
X92710Y111760D03*
X92710Y104140D03*
X85090Y104140D03*
X152400Y111760D03*
X160020Y111760D03*
X152400Y104140D03*
X160020Y104140D03*
X106680Y66040D03*
X113030Y57150D03*
X120650Y57150D03*
X128270Y57150D03*
X135890Y57150D03*
X146050Y62230D03*
X158750Y62230D03*
X168910Y68580D03*
X63500Y90170D03*
X105410Y184150D03*
X105410Y177800D03*
X105410Y171450D03*
X111760Y165100D03*
X118110Y165100D03*
X124460Y165100D03*
X130810Y165100D03*
X137160Y171450D03*
X137160Y177800D03*
X137160Y184150D03*
X191770Y166370D03*
X179070Y158750D03*
X171450Y147320D03*
X168910Y133350D03*
X228600Y67310D03*
X215900Y67310D03*
X203200Y67310D03*
X193040Y69850D03*
X185420Y77470D03*
X173990Y63500D03*
X228600Y46990D03*
X215900Y46990D03*
X203200Y46990D03*
X191770Y49530D03*
X181610Y54610D03*
X12700Y12700D03*
X12700Y38100D03*
X38100Y12700D03*
X63500Y12700D03*
X88900Y12700D03*
X114300Y12700D03*
X139700Y12700D03*
X165100Y12700D03*
X190500Y12700D03*
X215900Y12700D03*
X12700Y247650D03*
X12700Y222250D03*
X12700Y196850D03*
X12700Y171450D03*
X38100Y247650D03*
X63500Y247650D03*
X88900Y247650D03*
X279400Y247650D03*
X279400Y222250D03*
X254000Y247650D03*
X228600Y247650D03*
X203200Y247650D03*
X177800Y247650D03*
X165100Y247650D03*
X165100Y222250D03*
X177800Y222250D03*
X184150Y241300D03*
X184150Y228600D03*
X196850Y222250D03*
X209550Y222250D03*
X215900Y209550D03*
X158750Y184150D03*
X165100Y184150D03*
X152400Y184150D03*
X193040Y134620D03*
X193040Y81280D03*
X200660Y134620D03*
X200660Y81280D03*
X203200Y120650D03*
X203200Y107950D03*
X203200Y95250D03*
X209550Y137160D03*
X209550Y78740D03*
X88900Y219710D03*
X88900Y193040D03*
X88900Y210820D03*
X88900Y201930D03*
X99060Y121920D03*
X105410Y121920D03*
X80010Y137160D03*
X80010Y130810D03*
X111760Y137160D03*
X111760Y130810D03*
X83900Y78820D03*
X141050Y91520D03*
X106760Y85170D03*
X106760Y77550D03*
X167720Y83900D03*
X167720Y76280D03*
X134700Y91520D03*
X114300Y219710D03*
X120650Y219710D03*
X127000Y219710D03*
X101600Y245110D03*
X101600Y238760D03*
X101600Y232410D03*
X101600Y226060D03*
X101600Y213360D03*
X101600Y207010D03*
X101600Y200660D03*
X171450Y213360D03*
X171450Y207010D03*
M02*
