G04 EAGLE Gerber RS-274X export*
G75*
%MOMM*%
%FSLAX34Y34*%
%LPD*%
%INInner Layer 1*%
%IPPOS*%
%AMOC8*
5,1,8,0,0,1.08239X$1,22.5*%
G01*
%ADD10C,1.500000*%
%ADD11C,0.503200*%
%ADD12C,0.457200*%

G36*
X287720Y3822D02*
X287720Y3822D01*
X287786Y3824D01*
X287829Y3842D01*
X287876Y3850D01*
X287933Y3884D01*
X287993Y3909D01*
X288028Y3940D01*
X288069Y3965D01*
X288111Y4016D01*
X288159Y4060D01*
X288181Y4102D01*
X288210Y4139D01*
X288231Y4201D01*
X288262Y4260D01*
X288270Y4314D01*
X288282Y4351D01*
X288281Y4391D01*
X288289Y4445D01*
X288289Y36068D01*
X288278Y36133D01*
X288276Y36199D01*
X288258Y36242D01*
X288250Y36289D01*
X288216Y36346D01*
X288191Y36406D01*
X288160Y36441D01*
X288135Y36482D01*
X288084Y36524D01*
X288040Y36572D01*
X287998Y36594D01*
X287961Y36623D01*
X287899Y36644D01*
X287840Y36675D01*
X287786Y36683D01*
X287749Y36695D01*
X287709Y36694D01*
X287655Y36702D01*
X259281Y36702D01*
X242442Y53541D01*
X242442Y60759D01*
X259281Y77598D01*
X287655Y77598D01*
X287720Y77609D01*
X287786Y77611D01*
X287829Y77629D01*
X287876Y77637D01*
X287933Y77671D01*
X287993Y77696D01*
X288028Y77727D01*
X288069Y77752D01*
X288111Y77803D01*
X288159Y77847D01*
X288181Y77889D01*
X288210Y77926D01*
X288231Y77988D01*
X288262Y78047D01*
X288270Y78101D01*
X288282Y78138D01*
X288281Y78178D01*
X288289Y78232D01*
X288289Y137668D01*
X288278Y137733D01*
X288276Y137799D01*
X288258Y137842D01*
X288250Y137889D01*
X288216Y137946D01*
X288191Y138006D01*
X288160Y138041D01*
X288135Y138082D01*
X288084Y138124D01*
X288040Y138172D01*
X287998Y138194D01*
X287961Y138223D01*
X287899Y138244D01*
X287840Y138275D01*
X287786Y138283D01*
X287749Y138295D01*
X287709Y138294D01*
X287655Y138302D01*
X259281Y138302D01*
X242442Y155141D01*
X242442Y162359D01*
X259281Y179198D01*
X287655Y179198D01*
X287720Y179209D01*
X287786Y179211D01*
X287829Y179229D01*
X287876Y179237D01*
X287933Y179271D01*
X287993Y179296D01*
X288028Y179327D01*
X288069Y179352D01*
X288111Y179403D01*
X288159Y179447D01*
X288181Y179489D01*
X288210Y179526D01*
X288231Y179588D01*
X288262Y179647D01*
X288270Y179701D01*
X288282Y179738D01*
X288281Y179778D01*
X288289Y179832D01*
X288289Y255905D01*
X288278Y255970D01*
X288276Y256036D01*
X288258Y256079D01*
X288250Y256126D01*
X288216Y256183D01*
X288191Y256243D01*
X288160Y256278D01*
X288135Y256319D01*
X288084Y256361D01*
X288040Y256409D01*
X287998Y256431D01*
X287961Y256460D01*
X287899Y256481D01*
X287840Y256512D01*
X287786Y256520D01*
X287749Y256532D01*
X287709Y256531D01*
X287655Y256539D01*
X4445Y256539D01*
X4380Y256528D01*
X4314Y256526D01*
X4271Y256508D01*
X4224Y256500D01*
X4167Y256466D01*
X4107Y256441D01*
X4072Y256410D01*
X4031Y256385D01*
X3989Y256334D01*
X3941Y256290D01*
X3919Y256248D01*
X3890Y256211D01*
X3869Y256149D01*
X3838Y256090D01*
X3830Y256036D01*
X3818Y255999D01*
X3819Y255959D01*
X3811Y255905D01*
X3811Y123952D01*
X3822Y123887D01*
X3824Y123821D01*
X3842Y123778D01*
X3850Y123731D01*
X3884Y123674D01*
X3909Y123614D01*
X3940Y123579D01*
X3965Y123538D01*
X4016Y123496D01*
X4060Y123448D01*
X4102Y123426D01*
X4139Y123397D01*
X4201Y123376D01*
X4260Y123345D01*
X4314Y123337D01*
X4351Y123325D01*
X4391Y123326D01*
X4445Y123318D01*
X34089Y123318D01*
X50928Y106479D01*
X50928Y99261D01*
X34089Y82422D01*
X4445Y82422D01*
X4380Y82411D01*
X4314Y82409D01*
X4271Y82391D01*
X4224Y82383D01*
X4167Y82349D01*
X4107Y82324D01*
X4072Y82293D01*
X4031Y82268D01*
X3989Y82217D01*
X3941Y82173D01*
X3919Y82131D01*
X3890Y82094D01*
X3869Y82032D01*
X3838Y81973D01*
X3830Y81919D01*
X3818Y81882D01*
X3819Y81842D01*
X3811Y81788D01*
X3811Y4445D01*
X3822Y4380D01*
X3824Y4314D01*
X3842Y4271D01*
X3850Y4224D01*
X3884Y4167D01*
X3909Y4107D01*
X3940Y4072D01*
X3965Y4031D01*
X4016Y3989D01*
X4060Y3941D01*
X4102Y3919D01*
X4139Y3890D01*
X4201Y3869D01*
X4260Y3838D01*
X4314Y3830D01*
X4351Y3818D01*
X4391Y3819D01*
X4445Y3811D01*
X287655Y3811D01*
X287720Y3822D01*
G37*
%LPC*%
G36*
X144204Y225671D02*
X144204Y225671D01*
X140794Y227084D01*
X138184Y229694D01*
X136771Y233104D01*
X136771Y236796D01*
X138184Y240206D01*
X140794Y242816D01*
X144204Y244229D01*
X147896Y244229D01*
X151306Y242816D01*
X153916Y240206D01*
X155329Y236796D01*
X155329Y233104D01*
X153916Y229694D01*
X151306Y227084D01*
X147896Y225671D01*
X144204Y225671D01*
G37*
%LPD*%
%LPC*%
G36*
X118804Y225671D02*
X118804Y225671D01*
X115394Y227084D01*
X112784Y229694D01*
X111371Y233104D01*
X111371Y236796D01*
X112784Y240206D01*
X115394Y242816D01*
X118804Y244229D01*
X122496Y244229D01*
X125906Y242816D01*
X128516Y240206D01*
X129929Y236796D01*
X129929Y233104D01*
X128516Y229694D01*
X125906Y227084D01*
X122496Y225671D01*
X118804Y225671D01*
G37*
%LPD*%
%LPC*%
G36*
X87216Y188975D02*
X87216Y188975D01*
X84835Y191356D01*
X84835Y194724D01*
X87148Y197036D01*
X87186Y197091D01*
X87231Y197138D01*
X87249Y197182D01*
X87276Y197221D01*
X87293Y197284D01*
X87318Y197345D01*
X87320Y197392D01*
X87332Y197438D01*
X87325Y197503D01*
X87328Y197569D01*
X87314Y197614D01*
X87309Y197661D01*
X87280Y197720D01*
X87260Y197783D01*
X87227Y197827D01*
X87209Y197862D01*
X87181Y197889D01*
X87148Y197933D01*
X84835Y200246D01*
X84835Y203614D01*
X87148Y205927D01*
X87186Y205981D01*
X87231Y206028D01*
X87249Y206072D01*
X87276Y206111D01*
X87293Y206174D01*
X87318Y206235D01*
X87320Y206282D01*
X87332Y206328D01*
X87325Y206393D01*
X87328Y206459D01*
X87314Y206504D01*
X87309Y206551D01*
X87280Y206610D01*
X87260Y206673D01*
X87227Y206717D01*
X87209Y206752D01*
X87181Y206779D01*
X87148Y206824D01*
X84835Y209136D01*
X84835Y212504D01*
X87148Y214817D01*
X87186Y214871D01*
X87231Y214918D01*
X87249Y214962D01*
X87276Y215001D01*
X87293Y215064D01*
X87318Y215125D01*
X87320Y215172D01*
X87332Y215218D01*
X87325Y215283D01*
X87328Y215349D01*
X87314Y215394D01*
X87309Y215441D01*
X87280Y215500D01*
X87260Y215563D01*
X87227Y215607D01*
X87209Y215642D01*
X87181Y215669D01*
X87148Y215714D01*
X84835Y218026D01*
X84835Y221394D01*
X87216Y223775D01*
X90584Y223775D01*
X92965Y221394D01*
X92965Y218026D01*
X90652Y215714D01*
X90614Y215659D01*
X90569Y215612D01*
X90551Y215568D01*
X90524Y215529D01*
X90507Y215466D01*
X90482Y215405D01*
X90480Y215358D01*
X90468Y215312D01*
X90475Y215247D01*
X90472Y215181D01*
X90486Y215136D01*
X90491Y215089D01*
X90520Y215030D01*
X90540Y214967D01*
X90573Y214923D01*
X90591Y214888D01*
X90619Y214861D01*
X90652Y214817D01*
X92965Y212504D01*
X92965Y209136D01*
X90652Y206824D01*
X90614Y206769D01*
X90569Y206722D01*
X90551Y206678D01*
X90524Y206639D01*
X90507Y206576D01*
X90482Y206515D01*
X90480Y206468D01*
X90468Y206422D01*
X90475Y206357D01*
X90472Y206291D01*
X90486Y206246D01*
X90491Y206199D01*
X90520Y206140D01*
X90540Y206077D01*
X90573Y206033D01*
X90591Y205998D01*
X90619Y205971D01*
X90652Y205927D01*
X92965Y203614D01*
X92965Y200246D01*
X90652Y197933D01*
X90614Y197879D01*
X90569Y197832D01*
X90551Y197788D01*
X90524Y197749D01*
X90507Y197686D01*
X90482Y197625D01*
X90480Y197578D01*
X90468Y197532D01*
X90475Y197467D01*
X90472Y197401D01*
X90486Y197356D01*
X90491Y197309D01*
X90520Y197250D01*
X90540Y197187D01*
X90573Y197143D01*
X90591Y197108D01*
X90619Y197081D01*
X90652Y197036D01*
X92965Y194724D01*
X92965Y191356D01*
X90584Y188975D01*
X87216Y188975D01*
G37*
%LPD*%
%LPC*%
G36*
X99916Y221995D02*
X99916Y221995D01*
X97535Y224376D01*
X97535Y227744D01*
X98578Y228787D01*
X98616Y228841D01*
X98661Y228888D01*
X98679Y228932D01*
X98706Y228971D01*
X98723Y229034D01*
X98748Y229095D01*
X98750Y229142D01*
X98762Y229188D01*
X98755Y229253D01*
X98758Y229319D01*
X98744Y229364D01*
X98739Y229411D01*
X98710Y229470D01*
X98690Y229533D01*
X98657Y229577D01*
X98639Y229612D01*
X98611Y229639D01*
X98578Y229684D01*
X97535Y230726D01*
X97535Y234094D01*
X98578Y235137D01*
X98616Y235191D01*
X98661Y235238D01*
X98679Y235282D01*
X98706Y235321D01*
X98723Y235384D01*
X98748Y235445D01*
X98750Y235492D01*
X98762Y235538D01*
X98755Y235603D01*
X98758Y235669D01*
X98744Y235714D01*
X98739Y235761D01*
X98710Y235820D01*
X98690Y235883D01*
X98657Y235927D01*
X98639Y235962D01*
X98611Y235989D01*
X98578Y236034D01*
X97535Y237076D01*
X97535Y240444D01*
X98578Y241487D01*
X98616Y241541D01*
X98661Y241588D01*
X98679Y241632D01*
X98706Y241671D01*
X98723Y241734D01*
X98748Y241795D01*
X98750Y241842D01*
X98762Y241888D01*
X98755Y241953D01*
X98758Y242019D01*
X98744Y242064D01*
X98739Y242111D01*
X98710Y242170D01*
X98690Y242233D01*
X98657Y242277D01*
X98639Y242312D01*
X98611Y242339D01*
X98578Y242384D01*
X97535Y243426D01*
X97535Y246794D01*
X99916Y249175D01*
X103284Y249175D01*
X105665Y246794D01*
X105665Y243426D01*
X104622Y242384D01*
X104584Y242329D01*
X104539Y242282D01*
X104521Y242238D01*
X104494Y242199D01*
X104477Y242136D01*
X104452Y242075D01*
X104450Y242028D01*
X104438Y241982D01*
X104445Y241917D01*
X104442Y241851D01*
X104456Y241806D01*
X104461Y241759D01*
X104490Y241700D01*
X104510Y241637D01*
X104543Y241593D01*
X104561Y241558D01*
X104589Y241531D01*
X104622Y241487D01*
X105665Y240444D01*
X105665Y237076D01*
X104622Y236034D01*
X104584Y235979D01*
X104539Y235932D01*
X104521Y235888D01*
X104494Y235849D01*
X104477Y235786D01*
X104452Y235725D01*
X104450Y235678D01*
X104438Y235632D01*
X104445Y235567D01*
X104442Y235501D01*
X104456Y235456D01*
X104461Y235409D01*
X104490Y235350D01*
X104510Y235287D01*
X104543Y235243D01*
X104561Y235208D01*
X104589Y235181D01*
X104622Y235137D01*
X105665Y234094D01*
X105665Y230726D01*
X104622Y229684D01*
X104584Y229629D01*
X104539Y229582D01*
X104521Y229538D01*
X104494Y229499D01*
X104477Y229436D01*
X104452Y229375D01*
X104450Y229328D01*
X104438Y229282D01*
X104445Y229217D01*
X104442Y229151D01*
X104456Y229106D01*
X104461Y229059D01*
X104490Y229000D01*
X104510Y228937D01*
X104543Y228893D01*
X104561Y228858D01*
X104589Y228831D01*
X104622Y228787D01*
X105665Y227744D01*
X105665Y224376D01*
X103284Y221995D01*
X99916Y221995D01*
G37*
%LPD*%
%LPC*%
G36*
X207866Y74675D02*
X207866Y74675D01*
X205485Y77056D01*
X205485Y78826D01*
X205469Y78913D01*
X205460Y79002D01*
X205450Y79023D01*
X205446Y79047D01*
X205400Y79123D01*
X205361Y79203D01*
X205344Y79219D01*
X205331Y79240D01*
X205262Y79296D01*
X205198Y79357D01*
X205176Y79366D01*
X205157Y79381D01*
X205073Y79410D01*
X204991Y79444D01*
X204967Y79445D01*
X204945Y79453D01*
X204856Y79450D01*
X204767Y79454D01*
X204744Y79447D01*
X204720Y79446D01*
X204638Y79413D01*
X204553Y79386D01*
X204532Y79370D01*
X204513Y79362D01*
X204475Y79328D01*
X204403Y79274D01*
X202344Y77215D01*
X198976Y77215D01*
X197298Y78893D01*
X197244Y78931D01*
X197197Y78976D01*
X197153Y78994D01*
X197114Y79021D01*
X197051Y79038D01*
X196990Y79063D01*
X196943Y79065D01*
X196897Y79077D01*
X196832Y79070D01*
X196766Y79073D01*
X196721Y79059D01*
X196674Y79054D01*
X196615Y79025D01*
X196552Y79005D01*
X196508Y78972D01*
X196473Y78954D01*
X196446Y78926D01*
X196401Y78893D01*
X194724Y77215D01*
X191356Y77215D01*
X188975Y79596D01*
X188975Y82964D01*
X191356Y85345D01*
X194724Y85345D01*
X196401Y83667D01*
X196456Y83629D01*
X196503Y83584D01*
X196547Y83566D01*
X196586Y83539D01*
X196649Y83522D01*
X196710Y83497D01*
X196757Y83495D01*
X196803Y83483D01*
X196868Y83490D01*
X196934Y83487D01*
X196979Y83501D01*
X197026Y83506D01*
X197085Y83535D01*
X197148Y83555D01*
X197192Y83588D01*
X197227Y83606D01*
X197254Y83634D01*
X197298Y83667D01*
X198976Y85345D01*
X202344Y85345D01*
X204725Y82964D01*
X204725Y81194D01*
X204741Y81107D01*
X204750Y81018D01*
X204760Y80997D01*
X204764Y80973D01*
X204810Y80897D01*
X204849Y80817D01*
X204866Y80801D01*
X204879Y80780D01*
X204948Y80724D01*
X205012Y80663D01*
X205034Y80654D01*
X205053Y80639D01*
X205137Y80610D01*
X205219Y80576D01*
X205243Y80575D01*
X205265Y80567D01*
X205354Y80570D01*
X205443Y80566D01*
X205466Y80573D01*
X205490Y80574D01*
X205572Y80607D01*
X205657Y80634D01*
X205678Y80650D01*
X205697Y80658D01*
X205735Y80692D01*
X205807Y80746D01*
X207866Y82805D01*
X211234Y82805D01*
X213615Y80424D01*
X213615Y77056D01*
X211234Y74675D01*
X207866Y74675D01*
G37*
%LPD*%
%LPC*%
G36*
X191356Y130555D02*
X191356Y130555D01*
X188975Y132936D01*
X188975Y136304D01*
X191356Y138685D01*
X194724Y138685D01*
X196401Y137007D01*
X196456Y136969D01*
X196503Y136924D01*
X196547Y136906D01*
X196586Y136879D01*
X196649Y136862D01*
X196710Y136837D01*
X196757Y136835D01*
X196803Y136823D01*
X196868Y136830D01*
X196934Y136827D01*
X196979Y136841D01*
X197026Y136846D01*
X197085Y136875D01*
X197148Y136895D01*
X197192Y136928D01*
X197227Y136946D01*
X197254Y136974D01*
X197298Y137007D01*
X198976Y138685D01*
X202344Y138685D01*
X204403Y136626D01*
X204476Y136575D01*
X204545Y136519D01*
X204567Y136511D01*
X204587Y136498D01*
X204673Y136476D01*
X204757Y136447D01*
X204781Y136448D01*
X204804Y136442D01*
X204893Y136451D01*
X204982Y136454D01*
X205004Y136463D01*
X205027Y136465D01*
X205107Y136505D01*
X205189Y136538D01*
X205207Y136554D01*
X205228Y136564D01*
X205289Y136629D01*
X205355Y136689D01*
X205366Y136711D01*
X205382Y136728D01*
X205417Y136810D01*
X205458Y136889D01*
X205461Y136915D01*
X205470Y136934D01*
X205472Y136985D01*
X205485Y137074D01*
X205485Y138844D01*
X207866Y141225D01*
X211234Y141225D01*
X213615Y138844D01*
X213615Y135476D01*
X211234Y133095D01*
X207866Y133095D01*
X205807Y135154D01*
X205734Y135205D01*
X205665Y135261D01*
X205643Y135269D01*
X205623Y135282D01*
X205537Y135304D01*
X205453Y135333D01*
X205429Y135332D01*
X205406Y135338D01*
X205317Y135329D01*
X205228Y135326D01*
X205206Y135317D01*
X205183Y135315D01*
X205103Y135275D01*
X205021Y135242D01*
X205003Y135226D01*
X204982Y135216D01*
X204921Y135151D01*
X204855Y135091D01*
X204844Y135069D01*
X204828Y135052D01*
X204793Y134970D01*
X204752Y134891D01*
X204749Y134865D01*
X204740Y134846D01*
X204738Y134795D01*
X204725Y134706D01*
X204725Y132936D01*
X202344Y130555D01*
X198976Y130555D01*
X197298Y132233D01*
X197244Y132271D01*
X197197Y132316D01*
X197153Y132334D01*
X197114Y132361D01*
X197051Y132378D01*
X196990Y132403D01*
X196943Y132405D01*
X196897Y132417D01*
X196832Y132410D01*
X196766Y132413D01*
X196721Y132399D01*
X196674Y132394D01*
X196615Y132365D01*
X196552Y132345D01*
X196508Y132312D01*
X196473Y132294D01*
X196446Y132266D01*
X196401Y132233D01*
X194724Y130555D01*
X191356Y130555D01*
G37*
%LPD*%
%LPC*%
G36*
X99916Y196595D02*
X99916Y196595D01*
X97535Y198976D01*
X97535Y202344D01*
X98578Y203387D01*
X98616Y203441D01*
X98661Y203488D01*
X98679Y203532D01*
X98706Y203571D01*
X98723Y203634D01*
X98748Y203695D01*
X98750Y203742D01*
X98762Y203788D01*
X98755Y203853D01*
X98758Y203919D01*
X98744Y203964D01*
X98739Y204011D01*
X98710Y204070D01*
X98690Y204133D01*
X98657Y204177D01*
X98639Y204212D01*
X98611Y204239D01*
X98578Y204284D01*
X97535Y205326D01*
X97535Y208694D01*
X98578Y209737D01*
X98616Y209791D01*
X98661Y209838D01*
X98679Y209882D01*
X98706Y209921D01*
X98723Y209984D01*
X98748Y210045D01*
X98750Y210092D01*
X98762Y210138D01*
X98755Y210203D01*
X98758Y210269D01*
X98744Y210314D01*
X98739Y210361D01*
X98710Y210420D01*
X98690Y210483D01*
X98657Y210527D01*
X98639Y210562D01*
X98611Y210589D01*
X98578Y210634D01*
X97535Y211676D01*
X97535Y215044D01*
X99916Y217425D01*
X103284Y217425D01*
X105665Y215044D01*
X105665Y211676D01*
X104622Y210634D01*
X104584Y210579D01*
X104539Y210532D01*
X104521Y210488D01*
X104494Y210449D01*
X104477Y210386D01*
X104452Y210325D01*
X104450Y210278D01*
X104438Y210232D01*
X104445Y210167D01*
X104442Y210101D01*
X104456Y210056D01*
X104461Y210009D01*
X104490Y209950D01*
X104510Y209887D01*
X104543Y209843D01*
X104561Y209808D01*
X104589Y209781D01*
X104622Y209737D01*
X105665Y208694D01*
X105665Y205326D01*
X104622Y204284D01*
X104584Y204229D01*
X104539Y204182D01*
X104521Y204138D01*
X104494Y204099D01*
X104477Y204036D01*
X104452Y203975D01*
X104450Y203928D01*
X104438Y203882D01*
X104445Y203817D01*
X104442Y203751D01*
X104456Y203706D01*
X104461Y203659D01*
X104490Y203600D01*
X104510Y203537D01*
X104543Y203493D01*
X104561Y203458D01*
X104589Y203431D01*
X104622Y203387D01*
X105665Y202344D01*
X105665Y198976D01*
X103284Y196595D01*
X99916Y196595D01*
G37*
%LPD*%
%LPC*%
G36*
X112616Y215645D02*
X112616Y215645D01*
X110235Y218026D01*
X110235Y221394D01*
X112616Y223775D01*
X115984Y223775D01*
X117026Y222732D01*
X117081Y222694D01*
X117128Y222649D01*
X117172Y222631D01*
X117211Y222604D01*
X117274Y222587D01*
X117335Y222562D01*
X117382Y222560D01*
X117428Y222548D01*
X117493Y222555D01*
X117559Y222552D01*
X117604Y222566D01*
X117651Y222571D01*
X117710Y222600D01*
X117773Y222620D01*
X117817Y222653D01*
X117852Y222671D01*
X117879Y222699D01*
X117923Y222732D01*
X118966Y223775D01*
X122334Y223775D01*
X123376Y222732D01*
X123431Y222694D01*
X123478Y222649D01*
X123522Y222631D01*
X123561Y222604D01*
X123624Y222587D01*
X123685Y222562D01*
X123732Y222560D01*
X123778Y222548D01*
X123843Y222555D01*
X123909Y222552D01*
X123954Y222566D01*
X124001Y222571D01*
X124060Y222600D01*
X124123Y222620D01*
X124167Y222653D01*
X124202Y222671D01*
X124229Y222699D01*
X124273Y222732D01*
X125316Y223775D01*
X128684Y223775D01*
X131065Y221394D01*
X131065Y218026D01*
X128684Y215645D01*
X125316Y215645D01*
X124273Y216688D01*
X124219Y216726D01*
X124172Y216771D01*
X124128Y216789D01*
X124089Y216816D01*
X124026Y216833D01*
X123965Y216858D01*
X123918Y216860D01*
X123872Y216872D01*
X123807Y216865D01*
X123741Y216868D01*
X123696Y216854D01*
X123649Y216849D01*
X123590Y216820D01*
X123527Y216800D01*
X123483Y216767D01*
X123448Y216749D01*
X123421Y216721D01*
X123376Y216688D01*
X122334Y215645D01*
X118966Y215645D01*
X117923Y216688D01*
X117869Y216726D01*
X117822Y216771D01*
X117778Y216789D01*
X117739Y216816D01*
X117676Y216833D01*
X117615Y216858D01*
X117568Y216860D01*
X117522Y216872D01*
X117457Y216865D01*
X117391Y216868D01*
X117346Y216854D01*
X117299Y216849D01*
X117240Y216820D01*
X117177Y216800D01*
X117133Y216767D01*
X117098Y216749D01*
X117071Y216721D01*
X117026Y216688D01*
X115984Y215645D01*
X112616Y215645D01*
G37*
%LPD*%
%LPC*%
G36*
X105076Y73485D02*
X105076Y73485D01*
X102695Y75866D01*
X102695Y79234D01*
X104373Y80912D01*
X104411Y80966D01*
X104456Y81013D01*
X104474Y81057D01*
X104501Y81096D01*
X104518Y81159D01*
X104543Y81220D01*
X104545Y81267D01*
X104557Y81313D01*
X104550Y81378D01*
X104553Y81444D01*
X104539Y81489D01*
X104534Y81536D01*
X104505Y81595D01*
X104485Y81658D01*
X104452Y81702D01*
X104434Y81737D01*
X104406Y81764D01*
X104373Y81809D01*
X102695Y83486D01*
X102695Y86854D01*
X105076Y89235D01*
X108444Y89235D01*
X110825Y86854D01*
X110825Y83486D01*
X109147Y81809D01*
X109109Y81754D01*
X109064Y81707D01*
X109046Y81663D01*
X109019Y81624D01*
X109002Y81561D01*
X108977Y81500D01*
X108975Y81453D01*
X108963Y81407D01*
X108970Y81342D01*
X108967Y81276D01*
X108981Y81231D01*
X108986Y81184D01*
X109015Y81125D01*
X109035Y81062D01*
X109068Y81018D01*
X109086Y80983D01*
X109114Y80956D01*
X109147Y80912D01*
X110825Y79234D01*
X110825Y75866D01*
X108444Y73485D01*
X105076Y73485D01*
G37*
%LPD*%
%LPC*%
G36*
X166036Y72215D02*
X166036Y72215D01*
X163655Y74596D01*
X163655Y77964D01*
X165333Y79642D01*
X165371Y79696D01*
X165416Y79743D01*
X165434Y79787D01*
X165461Y79826D01*
X165478Y79889D01*
X165503Y79950D01*
X165505Y79997D01*
X165517Y80043D01*
X165510Y80108D01*
X165513Y80174D01*
X165499Y80219D01*
X165494Y80266D01*
X165465Y80325D01*
X165445Y80388D01*
X165412Y80432D01*
X165394Y80467D01*
X165366Y80494D01*
X165333Y80539D01*
X163655Y82216D01*
X163655Y85584D01*
X166036Y87965D01*
X169404Y87965D01*
X171785Y85584D01*
X171785Y82216D01*
X170107Y80539D01*
X170069Y80484D01*
X170024Y80437D01*
X170006Y80393D01*
X169979Y80354D01*
X169962Y80291D01*
X169937Y80230D01*
X169935Y80183D01*
X169923Y80137D01*
X169930Y80072D01*
X169927Y80006D01*
X169941Y79961D01*
X169946Y79914D01*
X169975Y79855D01*
X169995Y79792D01*
X170028Y79748D01*
X170046Y79713D01*
X170074Y79686D01*
X170107Y79642D01*
X171785Y77964D01*
X171785Y74596D01*
X169404Y72215D01*
X166036Y72215D01*
G37*
%LPD*%
%LPC*%
G36*
X110076Y126745D02*
X110076Y126745D01*
X107695Y129126D01*
X107695Y132494D01*
X108738Y133537D01*
X108776Y133591D01*
X108821Y133638D01*
X108839Y133682D01*
X108866Y133721D01*
X108883Y133784D01*
X108908Y133845D01*
X108910Y133892D01*
X108922Y133938D01*
X108915Y134003D01*
X108918Y134069D01*
X108904Y134114D01*
X108899Y134161D01*
X108870Y134220D01*
X108850Y134283D01*
X108817Y134327D01*
X108799Y134362D01*
X108771Y134389D01*
X108738Y134434D01*
X107695Y135476D01*
X107695Y138844D01*
X110076Y141225D01*
X113444Y141225D01*
X115825Y138844D01*
X115825Y135476D01*
X114782Y134434D01*
X114744Y134379D01*
X114699Y134332D01*
X114681Y134288D01*
X114654Y134249D01*
X114637Y134186D01*
X114612Y134125D01*
X114610Y134078D01*
X114598Y134032D01*
X114605Y133967D01*
X114602Y133901D01*
X114616Y133856D01*
X114621Y133809D01*
X114650Y133750D01*
X114670Y133687D01*
X114703Y133643D01*
X114721Y133608D01*
X114749Y133581D01*
X114782Y133537D01*
X115825Y132494D01*
X115825Y129126D01*
X113444Y126745D01*
X110076Y126745D01*
G37*
%LPD*%
%LPC*%
G36*
X78326Y126745D02*
X78326Y126745D01*
X75945Y129126D01*
X75945Y132494D01*
X76988Y133537D01*
X77026Y133591D01*
X77071Y133638D01*
X77089Y133682D01*
X77116Y133721D01*
X77133Y133784D01*
X77158Y133845D01*
X77160Y133892D01*
X77172Y133938D01*
X77165Y134003D01*
X77168Y134069D01*
X77154Y134114D01*
X77149Y134161D01*
X77120Y134220D01*
X77100Y134283D01*
X77067Y134327D01*
X77049Y134362D01*
X77021Y134389D01*
X76988Y134434D01*
X75945Y135476D01*
X75945Y138844D01*
X78326Y141225D01*
X81694Y141225D01*
X84075Y138844D01*
X84075Y135476D01*
X83032Y134434D01*
X82994Y134379D01*
X82949Y134332D01*
X82931Y134288D01*
X82904Y134249D01*
X82887Y134186D01*
X82862Y134125D01*
X82860Y134078D01*
X82848Y134032D01*
X82855Y133967D01*
X82852Y133901D01*
X82866Y133856D01*
X82871Y133809D01*
X82900Y133750D01*
X82920Y133687D01*
X82953Y133643D01*
X82971Y133608D01*
X82999Y133581D01*
X83032Y133537D01*
X84075Y132494D01*
X84075Y129126D01*
X81694Y126745D01*
X78326Y126745D01*
G37*
%LPD*%
%LPC*%
G36*
X169766Y202945D02*
X169766Y202945D01*
X167385Y205326D01*
X167385Y208694D01*
X168428Y209737D01*
X168466Y209791D01*
X168511Y209838D01*
X168529Y209882D01*
X168556Y209921D01*
X168573Y209984D01*
X168598Y210045D01*
X168600Y210092D01*
X168612Y210138D01*
X168605Y210203D01*
X168608Y210269D01*
X168594Y210314D01*
X168589Y210361D01*
X168560Y210420D01*
X168540Y210483D01*
X168507Y210527D01*
X168489Y210562D01*
X168461Y210589D01*
X168428Y210634D01*
X167385Y211676D01*
X167385Y215044D01*
X169766Y217425D01*
X173134Y217425D01*
X175515Y215044D01*
X175515Y211676D01*
X174472Y210634D01*
X174434Y210579D01*
X174389Y210532D01*
X174371Y210488D01*
X174344Y210449D01*
X174327Y210386D01*
X174302Y210325D01*
X174300Y210278D01*
X174288Y210232D01*
X174295Y210167D01*
X174292Y210101D01*
X174306Y210056D01*
X174311Y210009D01*
X174340Y209950D01*
X174360Y209887D01*
X174393Y209843D01*
X174411Y209808D01*
X174439Y209781D01*
X174472Y209737D01*
X175515Y208694D01*
X175515Y205326D01*
X173134Y202945D01*
X169766Y202945D01*
G37*
%LPD*%
%LPC*%
G36*
X97376Y117855D02*
X97376Y117855D01*
X94995Y120236D01*
X94995Y123604D01*
X97376Y125985D01*
X100744Y125985D01*
X101786Y124942D01*
X101841Y124904D01*
X101888Y124859D01*
X101932Y124841D01*
X101971Y124814D01*
X102034Y124797D01*
X102095Y124772D01*
X102142Y124770D01*
X102188Y124758D01*
X102253Y124765D01*
X102319Y124762D01*
X102364Y124776D01*
X102411Y124781D01*
X102470Y124810D01*
X102533Y124830D01*
X102577Y124863D01*
X102612Y124881D01*
X102639Y124909D01*
X102683Y124942D01*
X103726Y125985D01*
X107094Y125985D01*
X109475Y123604D01*
X109475Y120236D01*
X107094Y117855D01*
X103726Y117855D01*
X102683Y118898D01*
X102629Y118936D01*
X102582Y118981D01*
X102538Y118999D01*
X102499Y119026D01*
X102436Y119043D01*
X102375Y119068D01*
X102328Y119070D01*
X102282Y119082D01*
X102217Y119075D01*
X102151Y119078D01*
X102106Y119064D01*
X102059Y119059D01*
X102000Y119030D01*
X101937Y119010D01*
X101893Y118977D01*
X101858Y118959D01*
X101831Y118931D01*
X101786Y118898D01*
X100744Y117855D01*
X97376Y117855D01*
G37*
%LPD*%
%LPC*%
G36*
X133016Y87455D02*
X133016Y87455D01*
X130635Y89836D01*
X130635Y93204D01*
X133016Y95585D01*
X136384Y95585D01*
X137427Y94542D01*
X137481Y94504D01*
X137528Y94459D01*
X137572Y94441D01*
X137611Y94414D01*
X137674Y94397D01*
X137735Y94372D01*
X137782Y94370D01*
X137828Y94358D01*
X137893Y94365D01*
X137959Y94362D01*
X138004Y94376D01*
X138051Y94381D01*
X138110Y94410D01*
X138173Y94430D01*
X138217Y94463D01*
X138252Y94481D01*
X138279Y94509D01*
X138324Y94542D01*
X139366Y95585D01*
X142734Y95585D01*
X145115Y93204D01*
X145115Y89836D01*
X142734Y87455D01*
X139366Y87455D01*
X138324Y88498D01*
X138269Y88536D01*
X138222Y88581D01*
X138178Y88599D01*
X138139Y88626D01*
X138076Y88643D01*
X138015Y88668D01*
X137968Y88670D01*
X137922Y88682D01*
X137857Y88675D01*
X137791Y88678D01*
X137746Y88664D01*
X137699Y88659D01*
X137640Y88630D01*
X137577Y88610D01*
X137533Y88577D01*
X137498Y88559D01*
X137471Y88531D01*
X137427Y88498D01*
X136384Y87455D01*
X133016Y87455D01*
G37*
%LPD*%
%LPC*%
G36*
X201516Y116585D02*
X201516Y116585D01*
X199135Y118966D01*
X199135Y122334D01*
X201516Y124715D01*
X204884Y124715D01*
X207265Y122334D01*
X207265Y118966D01*
X204884Y116585D01*
X201516Y116585D01*
G37*
%LPD*%
%LPC*%
G36*
X201516Y103885D02*
X201516Y103885D01*
X199135Y106266D01*
X199135Y109634D01*
X201516Y112015D01*
X204884Y112015D01*
X207265Y109634D01*
X207265Y106266D01*
X204884Y103885D01*
X201516Y103885D01*
G37*
%LPD*%
%LPC*%
G36*
X201516Y91185D02*
X201516Y91185D01*
X199135Y93566D01*
X199135Y96934D01*
X201516Y99315D01*
X204884Y99315D01*
X207265Y96934D01*
X207265Y93566D01*
X204884Y91185D01*
X201516Y91185D01*
G37*
%LPD*%
%LPC*%
G36*
X82216Y74755D02*
X82216Y74755D01*
X79835Y77136D01*
X79835Y80504D01*
X82216Y82885D01*
X85584Y82885D01*
X87965Y80504D01*
X87965Y77136D01*
X85584Y74755D01*
X82216Y74755D01*
G37*
%LPD*%
D10*
X146050Y234950D03*
X171450Y234950D03*
X120650Y234950D03*
D11*
X281940Y146050D03*
X281940Y171450D03*
X241300Y148590D03*
X241300Y168910D03*
X281940Y196850D03*
X245110Y196850D03*
X281940Y120650D03*
X245110Y120650D03*
X264160Y120650D03*
X262890Y196850D03*
X262890Y171450D03*
X262890Y146050D03*
X281940Y44450D03*
X281940Y69850D03*
X241300Y46990D03*
X241300Y67310D03*
X281940Y95250D03*
X245110Y95250D03*
X281940Y19050D03*
X245110Y19050D03*
X264160Y19050D03*
X262890Y95250D03*
X262890Y69850D03*
X262890Y44450D03*
X11430Y115570D03*
X11430Y90170D03*
X52070Y113030D03*
X52070Y92710D03*
X11430Y64770D03*
X48260Y64770D03*
X11430Y140970D03*
X48260Y140970D03*
X29210Y140970D03*
X30480Y64770D03*
X30480Y90170D03*
X30480Y115570D03*
D12*
X127000Y120650D03*
X114300Y120650D03*
X114300Y95250D03*
X127000Y95250D03*
X228600Y139700D03*
X228600Y76200D03*
X222250Y76200D03*
X222250Y139700D03*
X234950Y124460D03*
X229870Y114300D03*
X229870Y101600D03*
X234950Y91440D03*
X234950Y133350D03*
X234950Y82550D03*
X53340Y219710D03*
X53340Y212090D03*
X87630Y181610D03*
X87630Y173990D03*
X38100Y156210D03*
X38100Y163830D03*
X97790Y158750D03*
X105410Y158750D03*
X88900Y153670D03*
X111760Y149860D03*
X80010Y144780D03*
X76200Y120650D03*
X76200Y95250D03*
X101600Y95250D03*
X84328Y48006D03*
X95250Y38100D03*
X107950Y50800D03*
X228600Y167640D03*
X215900Y167640D03*
X203200Y167640D03*
X228600Y149860D03*
X215900Y149860D03*
X203200Y149860D03*
X191770Y146050D03*
X185420Y134620D03*
X170180Y123190D03*
X140970Y123190D03*
X170180Y93980D03*
X85090Y111760D03*
X92710Y111760D03*
X92710Y104140D03*
X85090Y104140D03*
X152400Y111760D03*
X160020Y111760D03*
X152400Y104140D03*
X160020Y104140D03*
X106680Y66040D03*
X113030Y57150D03*
X120650Y57150D03*
X128270Y57150D03*
X135890Y57150D03*
X146050Y62230D03*
X158750Y62230D03*
X168910Y68580D03*
X63500Y90170D03*
X105410Y184150D03*
X105410Y177800D03*
X105410Y171450D03*
X111760Y165100D03*
X118110Y165100D03*
X124460Y165100D03*
X130810Y165100D03*
X137160Y171450D03*
X137160Y177800D03*
X137160Y184150D03*
X191770Y166370D03*
X179070Y158750D03*
X171450Y147320D03*
X168910Y133350D03*
X228600Y67310D03*
X215900Y67310D03*
X203200Y67310D03*
X193040Y69850D03*
X185420Y77470D03*
X173990Y63500D03*
X228600Y46990D03*
X215900Y46990D03*
X203200Y46990D03*
X191770Y49530D03*
X181610Y54610D03*
X12700Y12700D03*
X12700Y38100D03*
X38100Y12700D03*
X63500Y12700D03*
X88900Y12700D03*
X114300Y12700D03*
X139700Y12700D03*
X165100Y12700D03*
X190500Y12700D03*
X215900Y12700D03*
X12700Y247650D03*
X12700Y222250D03*
X12700Y196850D03*
X12700Y171450D03*
X38100Y247650D03*
X63500Y247650D03*
X88900Y247650D03*
X279400Y247650D03*
X279400Y222250D03*
X254000Y247650D03*
X228600Y247650D03*
X203200Y247650D03*
X177800Y247650D03*
X165100Y247650D03*
X165100Y222250D03*
X177800Y222250D03*
X184150Y241300D03*
X184150Y228600D03*
X196850Y222250D03*
X209550Y222250D03*
X215900Y209550D03*
X158750Y184150D03*
X165100Y184150D03*
X152400Y184150D03*
X193040Y134620D03*
X193040Y81280D03*
X200660Y134620D03*
X200660Y81280D03*
X203200Y120650D03*
X203200Y107950D03*
X203200Y95250D03*
X209550Y137160D03*
X209550Y78740D03*
X88900Y219710D03*
X88900Y193040D03*
X88900Y210820D03*
X88900Y201930D03*
X99060Y121920D03*
X105410Y121920D03*
X80010Y137160D03*
X80010Y130810D03*
X111760Y137160D03*
X111760Y130810D03*
X83900Y78820D03*
X141050Y91520D03*
X106760Y85170D03*
X106760Y77550D03*
X167720Y83900D03*
X167720Y76280D03*
X134700Y91520D03*
X114300Y219710D03*
X120650Y219710D03*
X127000Y219710D03*
X101600Y245110D03*
X101600Y238760D03*
X101600Y232410D03*
X101600Y226060D03*
X101600Y213360D03*
X101600Y207010D03*
X101600Y200660D03*
X171450Y213360D03*
X171450Y207010D03*
M02*
