G04 EAGLE Gerber RS-274X export*
G75*
%MOMM*%
%FSLAX34Y34*%
%LPD*%
%INTop Solder Mask*%
%IPPOS*%
%AMOC8*
5,1,8,0,0,1.08239X$1,22.5*%
G01*
%ADD10R,1.027000X1.427000*%
%ADD11R,0.927000X0.927000*%
%ADD12C,2.032000*%
%ADD13P,2.886734X8X22.500000*%
%ADD14R,5.842000X1.168400*%
%ADD15R,6.477000X2.667000*%
%ADD16C,0.731000*%
%ADD17R,1.077000X1.077000*%
%ADD18R,1.127000X0.727000*%
%ADD19P,2.226909X8X22.500000*%

G36*
X66098Y103133D02*
X66098Y103133D01*
X66156Y103131D01*
X66238Y103153D01*
X66322Y103165D01*
X66375Y103189D01*
X66431Y103203D01*
X66504Y103246D01*
X66581Y103281D01*
X66626Y103319D01*
X66676Y103349D01*
X66734Y103410D01*
X66798Y103465D01*
X66830Y103513D01*
X66870Y103556D01*
X66909Y103631D01*
X66956Y103701D01*
X66973Y103757D01*
X67000Y103809D01*
X67011Y103877D01*
X67041Y103972D01*
X67044Y104072D01*
X67055Y104140D01*
X67055Y149860D01*
X67048Y149913D01*
X67049Y149943D01*
X67048Y149946D01*
X67049Y149976D01*
X67027Y150058D01*
X67015Y150142D01*
X66992Y150195D01*
X66977Y150251D01*
X66934Y150324D01*
X66899Y150401D01*
X66861Y150446D01*
X66832Y150496D01*
X66770Y150554D01*
X66716Y150618D01*
X66667Y150650D01*
X66624Y150690D01*
X66549Y150729D01*
X66479Y150776D01*
X66423Y150793D01*
X66371Y150820D01*
X66303Y150831D01*
X66208Y150861D01*
X66108Y150864D01*
X66040Y150875D01*
X2540Y150875D01*
X2482Y150867D01*
X2424Y150869D01*
X2342Y150847D01*
X2259Y150835D01*
X2205Y150812D01*
X2149Y150797D01*
X2076Y150754D01*
X1999Y150719D01*
X1954Y150681D01*
X1904Y150652D01*
X1846Y150590D01*
X1782Y150536D01*
X1750Y150487D01*
X1710Y150444D01*
X1671Y150369D01*
X1625Y150299D01*
X1607Y150243D01*
X1580Y150191D01*
X1569Y150123D01*
X1539Y150028D01*
X1536Y149928D01*
X1525Y149860D01*
X1525Y104140D01*
X1533Y104082D01*
X1531Y104024D01*
X1553Y103942D01*
X1565Y103859D01*
X1589Y103805D01*
X1603Y103749D01*
X1646Y103676D01*
X1681Y103599D01*
X1719Y103554D01*
X1749Y103504D01*
X1810Y103446D01*
X1865Y103382D01*
X1913Y103350D01*
X1956Y103310D01*
X2031Y103271D01*
X2101Y103225D01*
X2157Y103207D01*
X2209Y103180D01*
X2277Y103169D01*
X2372Y103139D01*
X2472Y103136D01*
X2540Y103125D01*
X66040Y103125D01*
X66098Y103133D01*
G37*
G36*
X66098Y9153D02*
X66098Y9153D01*
X66156Y9151D01*
X66238Y9173D01*
X66322Y9185D01*
X66375Y9209D01*
X66431Y9223D01*
X66504Y9266D01*
X66581Y9301D01*
X66626Y9339D01*
X66676Y9369D01*
X66734Y9430D01*
X66798Y9485D01*
X66830Y9533D01*
X66870Y9576D01*
X66909Y9651D01*
X66956Y9721D01*
X66973Y9777D01*
X67000Y9829D01*
X67011Y9897D01*
X67041Y9992D01*
X67044Y10092D01*
X67055Y10160D01*
X67055Y55880D01*
X67048Y55933D01*
X67049Y55963D01*
X67048Y55966D01*
X67049Y55996D01*
X67027Y56078D01*
X67015Y56162D01*
X66992Y56215D01*
X66977Y56271D01*
X66934Y56344D01*
X66899Y56421D01*
X66861Y56466D01*
X66832Y56516D01*
X66770Y56574D01*
X66716Y56638D01*
X66667Y56670D01*
X66624Y56710D01*
X66549Y56749D01*
X66479Y56796D01*
X66423Y56813D01*
X66371Y56840D01*
X66303Y56851D01*
X66208Y56881D01*
X66108Y56884D01*
X66040Y56895D01*
X2540Y56895D01*
X2482Y56887D01*
X2424Y56889D01*
X2342Y56867D01*
X2259Y56855D01*
X2205Y56832D01*
X2149Y56817D01*
X2076Y56774D01*
X1999Y56739D01*
X1954Y56701D01*
X1904Y56672D01*
X1846Y56610D01*
X1782Y56556D01*
X1750Y56507D01*
X1710Y56464D01*
X1671Y56389D01*
X1625Y56319D01*
X1607Y56263D01*
X1580Y56211D01*
X1569Y56143D01*
X1539Y56048D01*
X1536Y55948D01*
X1525Y55880D01*
X1525Y10160D01*
X1533Y10102D01*
X1531Y10044D01*
X1553Y9962D01*
X1565Y9879D01*
X1589Y9825D01*
X1603Y9769D01*
X1646Y9696D01*
X1681Y9619D01*
X1719Y9574D01*
X1749Y9524D01*
X1810Y9466D01*
X1865Y9402D01*
X1913Y9370D01*
X1956Y9330D01*
X2031Y9291D01*
X2101Y9245D01*
X2157Y9227D01*
X2209Y9200D01*
X2277Y9189D01*
X2372Y9159D01*
X2472Y9156D01*
X2540Y9145D01*
X66040Y9145D01*
X66098Y9153D01*
G37*
D10*
X236880Y135890D03*
X255880Y135890D03*
X182270Y139700D03*
X201270Y139700D03*
D11*
X186810Y119380D03*
X201810Y119380D03*
X158750Y81400D03*
X158750Y96400D03*
X124340Y45720D03*
X109340Y45720D03*
X241420Y116840D03*
X256420Y116840D03*
D12*
X304800Y82550D03*
D13*
X279400Y107950D03*
X330200Y107950D03*
X330200Y57150D03*
X279400Y57150D03*
D14*
X31290Y80010D03*
D15*
X34290Y121285D03*
X34290Y38735D03*
D16*
X53340Y16510D03*
X34290Y16510D03*
X15240Y16510D03*
X53340Y143510D03*
X34290Y143510D03*
X15240Y143510D03*
D17*
X272150Y82550D03*
X286650Y82550D03*
X183250Y63500D03*
X197750Y63500D03*
X92340Y80010D03*
X77840Y80010D03*
D18*
X233110Y102210D03*
X233110Y92710D03*
X233110Y83210D03*
X257110Y83210D03*
X257110Y102210D03*
X178500Y104750D03*
X178500Y95250D03*
X178500Y85750D03*
X202500Y85750D03*
X202500Y104750D03*
X132650Y60350D03*
X132650Y69850D03*
X132650Y79350D03*
X108650Y79350D03*
X108650Y60350D03*
D10*
X128880Y26670D03*
X109880Y26670D03*
D19*
X133350Y139700D03*
X107950Y139700D03*
M02*
