G04 EAGLE Gerber RS-274X export*
G75*
%MOMM*%
%FSLAX34Y34*%
%LPD*%
%INBottom Silk screen*%
%IPPOS*%
%AMOC8*
5,1,8,0,0,1.08239X$1,22.5*%
G01*
%ADD10C,0.177800*%
%ADD11C,0.127000*%
%ADD12C,0.254000*%


D10*
X754761Y140871D02*
X754761Y146403D01*
X754759Y146520D01*
X754753Y146636D01*
X754743Y146753D01*
X754729Y146869D01*
X754712Y146984D01*
X754690Y147099D01*
X754665Y147213D01*
X754636Y147326D01*
X754602Y147438D01*
X754566Y147549D01*
X754525Y147658D01*
X754481Y147766D01*
X754433Y147873D01*
X754382Y147978D01*
X754327Y148081D01*
X754268Y148182D01*
X754206Y148281D01*
X754141Y148378D01*
X754073Y148473D01*
X754002Y148565D01*
X753927Y148655D01*
X753849Y148742D01*
X753769Y148827D01*
X753686Y148909D01*
X753600Y148988D01*
X753511Y149064D01*
X753420Y149137D01*
X753327Y149207D01*
X753231Y149273D01*
X753133Y149337D01*
X753033Y149397D01*
X752930Y149454D01*
X752826Y149507D01*
X752721Y149556D01*
X752613Y149602D01*
X752505Y149645D01*
X752394Y149684D01*
X752283Y149718D01*
X752171Y149750D01*
X752057Y149777D01*
X751943Y149801D01*
X751827Y149820D01*
X751712Y149836D01*
X751596Y149848D01*
X751479Y149856D01*
X751362Y149860D01*
X751246Y149860D01*
X751129Y149856D01*
X751012Y149848D01*
X750896Y149836D01*
X750781Y149820D01*
X750665Y149801D01*
X750551Y149777D01*
X750437Y149750D01*
X750325Y149718D01*
X750214Y149684D01*
X750103Y149645D01*
X749995Y149602D01*
X749887Y149556D01*
X749782Y149507D01*
X749678Y149454D01*
X749576Y149397D01*
X749475Y149337D01*
X749377Y149273D01*
X749281Y149207D01*
X749188Y149137D01*
X749097Y149064D01*
X749008Y148988D01*
X748922Y148909D01*
X748839Y148827D01*
X748759Y148742D01*
X748681Y148655D01*
X748606Y148565D01*
X748535Y148473D01*
X748467Y148378D01*
X748402Y148281D01*
X748340Y148182D01*
X748281Y148081D01*
X748226Y147978D01*
X748175Y147873D01*
X748127Y147766D01*
X748083Y147658D01*
X748042Y147549D01*
X748006Y147438D01*
X747972Y147326D01*
X747943Y147213D01*
X747918Y147099D01*
X747896Y146984D01*
X747879Y146869D01*
X747865Y146753D01*
X747855Y146636D01*
X747849Y146520D01*
X747847Y146403D01*
X747847Y140871D01*
X747849Y140754D01*
X747855Y140638D01*
X747865Y140521D01*
X747879Y140405D01*
X747896Y140290D01*
X747918Y140175D01*
X747943Y140061D01*
X747972Y139948D01*
X748006Y139836D01*
X748042Y139725D01*
X748083Y139616D01*
X748127Y139508D01*
X748175Y139401D01*
X748226Y139296D01*
X748281Y139193D01*
X748340Y139092D01*
X748402Y138993D01*
X748467Y138896D01*
X748535Y138801D01*
X748606Y138709D01*
X748681Y138619D01*
X748759Y138532D01*
X748839Y138447D01*
X748922Y138365D01*
X749008Y138286D01*
X749097Y138210D01*
X749188Y138137D01*
X749281Y138067D01*
X749377Y138001D01*
X749475Y137937D01*
X749576Y137877D01*
X749678Y137820D01*
X749782Y137767D01*
X749887Y137718D01*
X749995Y137672D01*
X750103Y137629D01*
X750214Y137590D01*
X750325Y137556D01*
X750437Y137524D01*
X750551Y137497D01*
X750665Y137473D01*
X750781Y137454D01*
X750896Y137438D01*
X751012Y137426D01*
X751129Y137418D01*
X751246Y137414D01*
X751362Y137414D01*
X751479Y137418D01*
X751596Y137426D01*
X751712Y137438D01*
X751827Y137454D01*
X751943Y137473D01*
X752057Y137497D01*
X752171Y137524D01*
X752283Y137556D01*
X752394Y137590D01*
X752505Y137629D01*
X752613Y137672D01*
X752721Y137718D01*
X752826Y137767D01*
X752930Y137820D01*
X753033Y137877D01*
X753133Y137937D01*
X753231Y138001D01*
X753327Y138067D01*
X753420Y138137D01*
X753511Y138210D01*
X753600Y138286D01*
X753686Y138365D01*
X753769Y138447D01*
X753849Y138532D01*
X753927Y138619D01*
X754002Y138709D01*
X754073Y138801D01*
X754141Y138896D01*
X754206Y138993D01*
X754268Y139092D01*
X754327Y139193D01*
X754382Y139296D01*
X754433Y139401D01*
X754481Y139508D01*
X754525Y139616D01*
X754566Y139725D01*
X754602Y139836D01*
X754636Y139948D01*
X754665Y140061D01*
X754690Y140175D01*
X754712Y140290D01*
X754729Y140405D01*
X754743Y140521D01*
X754753Y140638D01*
X754759Y140754D01*
X754761Y140871D01*
X741533Y140871D02*
X741533Y149860D01*
X741533Y140871D02*
X741531Y140754D01*
X741525Y140638D01*
X741515Y140521D01*
X741501Y140405D01*
X741484Y140290D01*
X741462Y140175D01*
X741437Y140061D01*
X741408Y139948D01*
X741374Y139836D01*
X741338Y139725D01*
X741297Y139616D01*
X741253Y139508D01*
X741205Y139401D01*
X741154Y139296D01*
X741099Y139193D01*
X741040Y139092D01*
X740978Y138993D01*
X740913Y138896D01*
X740845Y138801D01*
X740774Y138709D01*
X740699Y138619D01*
X740621Y138532D01*
X740541Y138447D01*
X740458Y138365D01*
X740372Y138286D01*
X740283Y138210D01*
X740192Y138137D01*
X740099Y138067D01*
X740003Y138001D01*
X739905Y137937D01*
X739805Y137877D01*
X739702Y137820D01*
X739598Y137767D01*
X739493Y137718D01*
X739385Y137672D01*
X739277Y137629D01*
X739166Y137590D01*
X739055Y137556D01*
X738943Y137524D01*
X738829Y137497D01*
X738715Y137473D01*
X738599Y137454D01*
X738484Y137438D01*
X738368Y137426D01*
X738251Y137418D01*
X738134Y137414D01*
X738018Y137414D01*
X737901Y137418D01*
X737784Y137426D01*
X737668Y137438D01*
X737553Y137454D01*
X737437Y137473D01*
X737323Y137497D01*
X737209Y137524D01*
X737097Y137556D01*
X736986Y137590D01*
X736875Y137629D01*
X736767Y137672D01*
X736659Y137718D01*
X736554Y137767D01*
X736450Y137820D01*
X736348Y137877D01*
X736247Y137937D01*
X736149Y138001D01*
X736053Y138067D01*
X735960Y138137D01*
X735869Y138210D01*
X735780Y138286D01*
X735694Y138365D01*
X735611Y138447D01*
X735531Y138532D01*
X735453Y138619D01*
X735378Y138709D01*
X735307Y138801D01*
X735239Y138896D01*
X735174Y138993D01*
X735112Y139092D01*
X735053Y139193D01*
X734998Y139296D01*
X734947Y139401D01*
X734899Y139508D01*
X734855Y139616D01*
X734814Y139725D01*
X734778Y139836D01*
X734744Y139948D01*
X734715Y140061D01*
X734690Y140175D01*
X734668Y140290D01*
X734651Y140405D01*
X734637Y140521D01*
X734627Y140638D01*
X734621Y140754D01*
X734619Y140871D01*
X734618Y140871D02*
X734618Y149860D01*
X725701Y149860D02*
X725701Y137414D01*
X729158Y149860D02*
X722243Y149860D01*
X717048Y142254D02*
X708750Y142254D01*
X757936Y98778D02*
X757936Y93246D01*
X757936Y98778D02*
X757934Y98895D01*
X757928Y99011D01*
X757918Y99128D01*
X757904Y99244D01*
X757887Y99359D01*
X757865Y99474D01*
X757840Y99588D01*
X757811Y99701D01*
X757777Y99813D01*
X757741Y99924D01*
X757700Y100033D01*
X757656Y100141D01*
X757608Y100248D01*
X757557Y100353D01*
X757502Y100456D01*
X757443Y100557D01*
X757381Y100656D01*
X757316Y100753D01*
X757248Y100848D01*
X757177Y100940D01*
X757102Y101030D01*
X757024Y101117D01*
X756944Y101202D01*
X756861Y101284D01*
X756775Y101363D01*
X756686Y101439D01*
X756595Y101512D01*
X756502Y101582D01*
X756406Y101648D01*
X756308Y101712D01*
X756208Y101772D01*
X756105Y101829D01*
X756001Y101882D01*
X755896Y101931D01*
X755788Y101977D01*
X755680Y102020D01*
X755569Y102059D01*
X755458Y102093D01*
X755346Y102125D01*
X755232Y102152D01*
X755118Y102176D01*
X755002Y102195D01*
X754887Y102211D01*
X754771Y102223D01*
X754654Y102231D01*
X754537Y102235D01*
X754421Y102235D01*
X754304Y102231D01*
X754187Y102223D01*
X754071Y102211D01*
X753956Y102195D01*
X753840Y102176D01*
X753726Y102152D01*
X753612Y102125D01*
X753500Y102093D01*
X753389Y102059D01*
X753278Y102020D01*
X753170Y101977D01*
X753062Y101931D01*
X752957Y101882D01*
X752853Y101829D01*
X752751Y101772D01*
X752650Y101712D01*
X752552Y101648D01*
X752456Y101582D01*
X752363Y101512D01*
X752272Y101439D01*
X752183Y101363D01*
X752097Y101284D01*
X752014Y101202D01*
X751934Y101117D01*
X751856Y101030D01*
X751781Y100940D01*
X751710Y100848D01*
X751642Y100753D01*
X751577Y100656D01*
X751515Y100557D01*
X751456Y100456D01*
X751401Y100353D01*
X751350Y100248D01*
X751302Y100141D01*
X751258Y100033D01*
X751217Y99924D01*
X751181Y99813D01*
X751147Y99701D01*
X751118Y99588D01*
X751093Y99474D01*
X751071Y99359D01*
X751054Y99244D01*
X751040Y99128D01*
X751030Y99011D01*
X751024Y98895D01*
X751022Y98778D01*
X751022Y93246D01*
X751024Y93129D01*
X751030Y93013D01*
X751040Y92896D01*
X751054Y92780D01*
X751071Y92665D01*
X751093Y92550D01*
X751118Y92436D01*
X751147Y92323D01*
X751181Y92211D01*
X751217Y92100D01*
X751258Y91991D01*
X751302Y91883D01*
X751350Y91776D01*
X751401Y91671D01*
X751456Y91568D01*
X751515Y91467D01*
X751577Y91368D01*
X751642Y91271D01*
X751710Y91176D01*
X751781Y91084D01*
X751856Y90994D01*
X751934Y90907D01*
X752014Y90822D01*
X752097Y90740D01*
X752183Y90661D01*
X752272Y90585D01*
X752363Y90512D01*
X752456Y90442D01*
X752552Y90376D01*
X752650Y90312D01*
X752751Y90252D01*
X752853Y90195D01*
X752957Y90142D01*
X753062Y90093D01*
X753170Y90047D01*
X753278Y90004D01*
X753389Y89965D01*
X753500Y89931D01*
X753612Y89899D01*
X753726Y89872D01*
X753840Y89848D01*
X753956Y89829D01*
X754071Y89813D01*
X754187Y89801D01*
X754304Y89793D01*
X754421Y89789D01*
X754537Y89789D01*
X754654Y89793D01*
X754771Y89801D01*
X754887Y89813D01*
X755002Y89829D01*
X755118Y89848D01*
X755232Y89872D01*
X755346Y89899D01*
X755458Y89931D01*
X755569Y89965D01*
X755680Y90004D01*
X755788Y90047D01*
X755896Y90093D01*
X756001Y90142D01*
X756105Y90195D01*
X756208Y90252D01*
X756308Y90312D01*
X756406Y90376D01*
X756502Y90442D01*
X756595Y90512D01*
X756686Y90585D01*
X756775Y90661D01*
X756861Y90740D01*
X756944Y90822D01*
X757024Y90907D01*
X757102Y90994D01*
X757177Y91084D01*
X757248Y91176D01*
X757316Y91271D01*
X757381Y91368D01*
X757443Y91467D01*
X757502Y91568D01*
X757557Y91671D01*
X757608Y91776D01*
X757656Y91883D01*
X757700Y91991D01*
X757741Y92100D01*
X757777Y92211D01*
X757811Y92323D01*
X757840Y92436D01*
X757865Y92550D01*
X757887Y92665D01*
X757904Y92780D01*
X757918Y92896D01*
X757928Y93013D01*
X757934Y93129D01*
X757936Y93246D01*
X744708Y93246D02*
X744708Y102235D01*
X744708Y93246D02*
X744706Y93129D01*
X744700Y93013D01*
X744690Y92896D01*
X744676Y92780D01*
X744659Y92665D01*
X744637Y92550D01*
X744612Y92436D01*
X744583Y92323D01*
X744549Y92211D01*
X744513Y92100D01*
X744472Y91991D01*
X744428Y91883D01*
X744380Y91776D01*
X744329Y91671D01*
X744274Y91568D01*
X744215Y91467D01*
X744153Y91368D01*
X744088Y91271D01*
X744020Y91176D01*
X743949Y91084D01*
X743874Y90994D01*
X743796Y90907D01*
X743716Y90822D01*
X743633Y90740D01*
X743547Y90661D01*
X743458Y90585D01*
X743367Y90512D01*
X743274Y90442D01*
X743178Y90376D01*
X743080Y90312D01*
X742980Y90252D01*
X742877Y90195D01*
X742773Y90142D01*
X742668Y90093D01*
X742560Y90047D01*
X742452Y90004D01*
X742341Y89965D01*
X742230Y89931D01*
X742118Y89899D01*
X742004Y89872D01*
X741890Y89848D01*
X741774Y89829D01*
X741659Y89813D01*
X741543Y89801D01*
X741426Y89793D01*
X741309Y89789D01*
X741193Y89789D01*
X741076Y89793D01*
X740959Y89801D01*
X740843Y89813D01*
X740728Y89829D01*
X740612Y89848D01*
X740498Y89872D01*
X740384Y89899D01*
X740272Y89931D01*
X740161Y89965D01*
X740050Y90004D01*
X739942Y90047D01*
X739834Y90093D01*
X739729Y90142D01*
X739625Y90195D01*
X739523Y90252D01*
X739422Y90312D01*
X739324Y90376D01*
X739228Y90442D01*
X739135Y90512D01*
X739044Y90585D01*
X738955Y90661D01*
X738869Y90740D01*
X738786Y90822D01*
X738706Y90907D01*
X738628Y90994D01*
X738553Y91084D01*
X738482Y91176D01*
X738414Y91271D01*
X738349Y91368D01*
X738287Y91467D01*
X738228Y91568D01*
X738173Y91671D01*
X738122Y91776D01*
X738074Y91883D01*
X738030Y91991D01*
X737989Y92100D01*
X737953Y92211D01*
X737919Y92323D01*
X737890Y92436D01*
X737865Y92550D01*
X737843Y92665D01*
X737826Y92780D01*
X737812Y92896D01*
X737802Y93013D01*
X737796Y93129D01*
X737794Y93246D01*
X737793Y93246D02*
X737793Y102235D01*
X728876Y102235D02*
X728876Y89789D01*
X732333Y102235D02*
X725418Y102235D01*
X720223Y94629D02*
X711925Y94629D01*
X716074Y90480D02*
X716074Y98778D01*
D11*
X425450Y136525D02*
X400050Y136525D01*
X400050Y123825D01*
X425450Y123825D01*
X425450Y136525D01*
X713075Y113650D02*
X741075Y113650D01*
X741075Y127650D01*
X713075Y127650D01*
X713075Y113650D01*
D12*
X685800Y165100D02*
X457200Y165100D01*
X457200Y76200D02*
X685800Y76200D01*
X444500Y88900D02*
X444500Y152400D01*
X685800Y165100D02*
X686107Y165096D01*
X686414Y165085D01*
X686720Y165067D01*
X687026Y165041D01*
X687331Y165007D01*
X687635Y164967D01*
X687938Y164919D01*
X688240Y164863D01*
X688540Y164801D01*
X688839Y164731D01*
X689136Y164654D01*
X689432Y164570D01*
X689725Y164478D01*
X690015Y164380D01*
X690303Y164275D01*
X690589Y164162D01*
X690872Y164043D01*
X691152Y163917D01*
X691429Y163785D01*
X691702Y163645D01*
X691972Y163499D01*
X692238Y163347D01*
X692501Y163188D01*
X692760Y163023D01*
X693014Y162852D01*
X693265Y162675D01*
X693511Y162491D01*
X693753Y162302D01*
X693989Y162107D01*
X694222Y161906D01*
X694449Y161700D01*
X694671Y161488D01*
X694888Y161271D01*
X695100Y161049D01*
X695306Y160822D01*
X695507Y160589D01*
X695702Y160353D01*
X695891Y160111D01*
X696075Y159865D01*
X696252Y159614D01*
X696423Y159360D01*
X696588Y159101D01*
X696747Y158838D01*
X696899Y158572D01*
X697045Y158302D01*
X697185Y158029D01*
X697317Y157752D01*
X697443Y157472D01*
X697562Y157189D01*
X697675Y156903D01*
X697780Y156615D01*
X697878Y156325D01*
X697970Y156032D01*
X698054Y155736D01*
X698131Y155439D01*
X698201Y155140D01*
X698263Y154840D01*
X698319Y154538D01*
X698367Y154235D01*
X698407Y153931D01*
X698441Y153626D01*
X698467Y153320D01*
X698485Y153014D01*
X698496Y152707D01*
X698500Y152400D01*
X698500Y88900D01*
X698496Y88593D01*
X698485Y88286D01*
X698467Y87980D01*
X698441Y87674D01*
X698407Y87369D01*
X698367Y87065D01*
X698319Y86762D01*
X698263Y86460D01*
X698201Y86160D01*
X698131Y85861D01*
X698054Y85564D01*
X697970Y85268D01*
X697878Y84975D01*
X697780Y84685D01*
X697675Y84397D01*
X697562Y84111D01*
X697443Y83828D01*
X697317Y83548D01*
X697185Y83271D01*
X697045Y82998D01*
X696899Y82728D01*
X696747Y82462D01*
X696588Y82199D01*
X696423Y81940D01*
X696252Y81686D01*
X696075Y81435D01*
X695891Y81189D01*
X695702Y80947D01*
X695507Y80711D01*
X695306Y80478D01*
X695100Y80251D01*
X694888Y80029D01*
X694671Y79812D01*
X694449Y79600D01*
X694222Y79394D01*
X693989Y79193D01*
X693753Y78998D01*
X693511Y78809D01*
X693265Y78625D01*
X693014Y78448D01*
X692760Y78277D01*
X692501Y78112D01*
X692238Y77953D01*
X691972Y77801D01*
X691702Y77655D01*
X691429Y77515D01*
X691152Y77383D01*
X690872Y77257D01*
X690589Y77138D01*
X690303Y77025D01*
X690015Y76920D01*
X689725Y76822D01*
X689432Y76730D01*
X689136Y76646D01*
X688839Y76569D01*
X688540Y76499D01*
X688240Y76437D01*
X687938Y76381D01*
X687635Y76333D01*
X687331Y76293D01*
X687026Y76259D01*
X686720Y76233D01*
X686414Y76215D01*
X686107Y76204D01*
X685800Y76200D01*
X457200Y165100D02*
X456893Y165096D01*
X456586Y165085D01*
X456280Y165067D01*
X455974Y165041D01*
X455669Y165007D01*
X455365Y164967D01*
X455062Y164919D01*
X454760Y164863D01*
X454460Y164801D01*
X454161Y164731D01*
X453864Y164654D01*
X453568Y164570D01*
X453275Y164478D01*
X452985Y164380D01*
X452697Y164275D01*
X452411Y164162D01*
X452128Y164043D01*
X451848Y163917D01*
X451571Y163785D01*
X451298Y163645D01*
X451028Y163499D01*
X450762Y163347D01*
X450499Y163188D01*
X450240Y163023D01*
X449986Y162852D01*
X449735Y162675D01*
X449489Y162491D01*
X449247Y162302D01*
X449011Y162107D01*
X448778Y161906D01*
X448551Y161700D01*
X448329Y161488D01*
X448112Y161271D01*
X447900Y161049D01*
X447694Y160822D01*
X447493Y160589D01*
X447298Y160353D01*
X447109Y160111D01*
X446925Y159865D01*
X446748Y159614D01*
X446577Y159360D01*
X446412Y159101D01*
X446253Y158838D01*
X446101Y158572D01*
X445955Y158302D01*
X445815Y158029D01*
X445683Y157752D01*
X445557Y157472D01*
X445438Y157189D01*
X445325Y156903D01*
X445220Y156615D01*
X445122Y156325D01*
X445030Y156032D01*
X444946Y155736D01*
X444869Y155439D01*
X444799Y155140D01*
X444737Y154840D01*
X444681Y154538D01*
X444633Y154235D01*
X444593Y153931D01*
X444559Y153626D01*
X444533Y153320D01*
X444515Y153014D01*
X444504Y152707D01*
X444500Y152400D01*
X444500Y88900D02*
X444504Y88593D01*
X444515Y88286D01*
X444533Y87980D01*
X444559Y87674D01*
X444593Y87369D01*
X444633Y87065D01*
X444681Y86762D01*
X444737Y86460D01*
X444799Y86160D01*
X444869Y85861D01*
X444946Y85564D01*
X445030Y85268D01*
X445122Y84975D01*
X445220Y84685D01*
X445325Y84397D01*
X445438Y84111D01*
X445557Y83828D01*
X445683Y83548D01*
X445815Y83271D01*
X445955Y82998D01*
X446101Y82728D01*
X446253Y82462D01*
X446412Y82199D01*
X446577Y81940D01*
X446748Y81686D01*
X446925Y81435D01*
X447109Y81189D01*
X447298Y80947D01*
X447493Y80711D01*
X447694Y80478D01*
X447900Y80251D01*
X448112Y80029D01*
X448329Y79812D01*
X448551Y79600D01*
X448778Y79394D01*
X449011Y79193D01*
X449247Y78998D01*
X449489Y78809D01*
X449735Y78625D01*
X449986Y78448D01*
X450240Y78277D01*
X450499Y78112D01*
X450762Y77953D01*
X451028Y77801D01*
X451298Y77655D01*
X451571Y77515D01*
X451848Y77383D01*
X452128Y77257D01*
X452411Y77138D01*
X452697Y77025D01*
X452985Y76920D01*
X453275Y76822D01*
X453568Y76730D01*
X453864Y76646D01*
X454161Y76569D01*
X454460Y76499D01*
X454760Y76437D01*
X455062Y76381D01*
X455365Y76333D01*
X455669Y76293D01*
X455974Y76259D01*
X456280Y76233D01*
X456586Y76215D01*
X456893Y76204D01*
X457200Y76200D01*
D10*
X596011Y83439D02*
X596011Y95885D01*
X590479Y95885D01*
X590479Y90353D02*
X596011Y90353D01*
X583463Y83439D02*
X580006Y83439D01*
X583463Y83439D02*
X583551Y83441D01*
X583639Y83446D01*
X583726Y83456D01*
X583814Y83469D01*
X583900Y83486D01*
X583986Y83506D01*
X584070Y83530D01*
X584154Y83557D01*
X584236Y83589D01*
X584317Y83623D01*
X584397Y83661D01*
X584474Y83702D01*
X584550Y83747D01*
X584624Y83795D01*
X584696Y83846D01*
X584766Y83899D01*
X584833Y83956D01*
X584898Y84016D01*
X584960Y84078D01*
X585020Y84143D01*
X585077Y84210D01*
X585130Y84280D01*
X585181Y84352D01*
X585229Y84426D01*
X585274Y84502D01*
X585315Y84579D01*
X585353Y84659D01*
X585387Y84740D01*
X585419Y84822D01*
X585446Y84906D01*
X585470Y84990D01*
X585490Y85076D01*
X585507Y85162D01*
X585520Y85250D01*
X585530Y85337D01*
X585535Y85425D01*
X585537Y85513D01*
X585537Y88971D01*
X585538Y88971D02*
X585536Y89074D01*
X585530Y89178D01*
X585521Y89281D01*
X585507Y89383D01*
X585490Y89485D01*
X585469Y89586D01*
X585444Y89687D01*
X585415Y89786D01*
X585383Y89885D01*
X585347Y89982D01*
X585307Y90077D01*
X585264Y90171D01*
X585217Y90263D01*
X585167Y90354D01*
X585114Y90443D01*
X585057Y90529D01*
X584998Y90614D01*
X584935Y90696D01*
X584869Y90775D01*
X584800Y90852D01*
X584728Y90927D01*
X584653Y90999D01*
X584576Y91068D01*
X584497Y91134D01*
X584415Y91197D01*
X584330Y91256D01*
X584244Y91313D01*
X584155Y91366D01*
X584064Y91416D01*
X583972Y91463D01*
X583878Y91506D01*
X583783Y91546D01*
X583686Y91582D01*
X583587Y91614D01*
X583488Y91643D01*
X583387Y91668D01*
X583286Y91689D01*
X583184Y91706D01*
X583082Y91720D01*
X582979Y91729D01*
X582875Y91735D01*
X582772Y91737D01*
X582669Y91735D01*
X582565Y91729D01*
X582462Y91720D01*
X582360Y91706D01*
X582258Y91689D01*
X582157Y91668D01*
X582056Y91643D01*
X581957Y91614D01*
X581858Y91582D01*
X581761Y91546D01*
X581666Y91506D01*
X581572Y91463D01*
X581480Y91416D01*
X581389Y91366D01*
X581300Y91313D01*
X581214Y91256D01*
X581129Y91197D01*
X581047Y91134D01*
X580968Y91068D01*
X580891Y90999D01*
X580816Y90927D01*
X580744Y90852D01*
X580675Y90775D01*
X580609Y90696D01*
X580546Y90614D01*
X580487Y90529D01*
X580430Y90443D01*
X580377Y90354D01*
X580327Y90263D01*
X580280Y90171D01*
X580237Y90077D01*
X580197Y89982D01*
X580161Y89885D01*
X580129Y89786D01*
X580100Y89687D01*
X580075Y89586D01*
X580054Y89485D01*
X580037Y89383D01*
X580023Y89281D01*
X580014Y89178D01*
X580008Y89074D01*
X580006Y88971D01*
X580006Y87588D01*
X585537Y87588D01*
X573921Y83439D02*
X573921Y91736D01*
X569772Y91736D01*
X569772Y90353D01*
X564960Y91736D02*
X564960Y83439D01*
X564960Y91736D02*
X560811Y91736D01*
X560811Y90353D01*
X556742Y91736D02*
X556742Y83439D01*
X557088Y95194D02*
X557088Y95885D01*
X556396Y95885D01*
X556396Y95194D01*
X557088Y95194D01*
X552548Y91736D02*
X548399Y91736D01*
X551165Y95885D02*
X551165Y85513D01*
X551163Y85425D01*
X551158Y85337D01*
X551148Y85250D01*
X551135Y85162D01*
X551118Y85076D01*
X551098Y84990D01*
X551074Y84906D01*
X551047Y84822D01*
X551015Y84740D01*
X550981Y84659D01*
X550943Y84579D01*
X550902Y84502D01*
X550857Y84426D01*
X550809Y84352D01*
X550758Y84280D01*
X550705Y84210D01*
X550648Y84143D01*
X550588Y84078D01*
X550526Y84016D01*
X550461Y83956D01*
X550394Y83899D01*
X550324Y83846D01*
X550252Y83795D01*
X550178Y83747D01*
X550102Y83702D01*
X550025Y83661D01*
X549945Y83623D01*
X549864Y83589D01*
X549782Y83557D01*
X549698Y83530D01*
X549614Y83506D01*
X549528Y83486D01*
X549442Y83469D01*
X549354Y83456D01*
X549267Y83446D01*
X549179Y83441D01*
X549091Y83439D01*
X548399Y83439D01*
X541218Y83439D02*
X537761Y83439D01*
X541218Y83439D02*
X541306Y83441D01*
X541394Y83446D01*
X541481Y83456D01*
X541569Y83469D01*
X541655Y83486D01*
X541741Y83506D01*
X541825Y83530D01*
X541909Y83557D01*
X541991Y83589D01*
X542072Y83623D01*
X542152Y83661D01*
X542229Y83702D01*
X542305Y83747D01*
X542379Y83795D01*
X542451Y83846D01*
X542521Y83899D01*
X542588Y83956D01*
X542653Y84016D01*
X542715Y84078D01*
X542775Y84143D01*
X542832Y84210D01*
X542885Y84280D01*
X542936Y84352D01*
X542984Y84426D01*
X543029Y84502D01*
X543070Y84579D01*
X543108Y84659D01*
X543142Y84740D01*
X543174Y84822D01*
X543201Y84906D01*
X543225Y84990D01*
X543245Y85076D01*
X543262Y85162D01*
X543275Y85250D01*
X543285Y85337D01*
X543290Y85425D01*
X543292Y85513D01*
X543292Y88971D01*
X543293Y88971D02*
X543291Y89074D01*
X543285Y89178D01*
X543276Y89281D01*
X543262Y89383D01*
X543245Y89485D01*
X543224Y89586D01*
X543199Y89687D01*
X543170Y89786D01*
X543138Y89885D01*
X543102Y89982D01*
X543062Y90077D01*
X543019Y90171D01*
X542972Y90263D01*
X542922Y90354D01*
X542869Y90443D01*
X542812Y90529D01*
X542753Y90614D01*
X542690Y90696D01*
X542624Y90775D01*
X542555Y90852D01*
X542483Y90927D01*
X542408Y90999D01*
X542331Y91068D01*
X542252Y91134D01*
X542170Y91197D01*
X542085Y91256D01*
X541999Y91313D01*
X541910Y91366D01*
X541819Y91416D01*
X541727Y91463D01*
X541633Y91506D01*
X541538Y91546D01*
X541441Y91582D01*
X541342Y91614D01*
X541243Y91643D01*
X541142Y91668D01*
X541041Y91689D01*
X540939Y91706D01*
X540837Y91720D01*
X540734Y91729D01*
X540630Y91735D01*
X540527Y91737D01*
X540424Y91735D01*
X540320Y91729D01*
X540217Y91720D01*
X540115Y91706D01*
X540013Y91689D01*
X539912Y91668D01*
X539811Y91643D01*
X539712Y91614D01*
X539613Y91582D01*
X539516Y91546D01*
X539421Y91506D01*
X539327Y91463D01*
X539235Y91416D01*
X539144Y91366D01*
X539055Y91313D01*
X538969Y91256D01*
X538884Y91197D01*
X538802Y91134D01*
X538723Y91068D01*
X538646Y90999D01*
X538571Y90927D01*
X538499Y90852D01*
X538430Y90775D01*
X538364Y90696D01*
X538301Y90614D01*
X538242Y90529D01*
X538185Y90443D01*
X538132Y90354D01*
X538082Y90263D01*
X538035Y90171D01*
X537992Y90077D01*
X537952Y89982D01*
X537916Y89885D01*
X537884Y89786D01*
X537855Y89687D01*
X537830Y89586D01*
X537809Y89485D01*
X537792Y89383D01*
X537778Y89281D01*
X537769Y89178D01*
X537763Y89074D01*
X537761Y88971D01*
X537761Y87588D01*
X543292Y87588D01*
D12*
X355600Y114300D02*
X127000Y114300D01*
X127000Y25400D02*
X355600Y25400D01*
X114300Y38100D02*
X114300Y101600D01*
X355600Y114300D02*
X355907Y114296D01*
X356214Y114285D01*
X356520Y114267D01*
X356826Y114241D01*
X357131Y114207D01*
X357435Y114167D01*
X357738Y114119D01*
X358040Y114063D01*
X358340Y114001D01*
X358639Y113931D01*
X358936Y113854D01*
X359232Y113770D01*
X359525Y113678D01*
X359815Y113580D01*
X360103Y113475D01*
X360389Y113362D01*
X360672Y113243D01*
X360952Y113117D01*
X361229Y112985D01*
X361502Y112845D01*
X361772Y112699D01*
X362038Y112547D01*
X362301Y112388D01*
X362560Y112223D01*
X362814Y112052D01*
X363065Y111875D01*
X363311Y111691D01*
X363553Y111502D01*
X363789Y111307D01*
X364022Y111106D01*
X364249Y110900D01*
X364471Y110688D01*
X364688Y110471D01*
X364900Y110249D01*
X365106Y110022D01*
X365307Y109789D01*
X365502Y109553D01*
X365691Y109311D01*
X365875Y109065D01*
X366052Y108814D01*
X366223Y108560D01*
X366388Y108301D01*
X366547Y108038D01*
X366699Y107772D01*
X366845Y107502D01*
X366985Y107229D01*
X367117Y106952D01*
X367243Y106672D01*
X367362Y106389D01*
X367475Y106103D01*
X367580Y105815D01*
X367678Y105525D01*
X367770Y105232D01*
X367854Y104936D01*
X367931Y104639D01*
X368001Y104340D01*
X368063Y104040D01*
X368119Y103738D01*
X368167Y103435D01*
X368207Y103131D01*
X368241Y102826D01*
X368267Y102520D01*
X368285Y102214D01*
X368296Y101907D01*
X368300Y101600D01*
X368300Y38100D01*
X368296Y37793D01*
X368285Y37486D01*
X368267Y37180D01*
X368241Y36874D01*
X368207Y36569D01*
X368167Y36265D01*
X368119Y35962D01*
X368063Y35660D01*
X368001Y35360D01*
X367931Y35061D01*
X367854Y34764D01*
X367770Y34468D01*
X367678Y34175D01*
X367580Y33885D01*
X367475Y33597D01*
X367362Y33311D01*
X367243Y33028D01*
X367117Y32748D01*
X366985Y32471D01*
X366845Y32198D01*
X366699Y31928D01*
X366547Y31662D01*
X366388Y31399D01*
X366223Y31140D01*
X366052Y30886D01*
X365875Y30635D01*
X365691Y30389D01*
X365502Y30147D01*
X365307Y29911D01*
X365106Y29678D01*
X364900Y29451D01*
X364688Y29229D01*
X364471Y29012D01*
X364249Y28800D01*
X364022Y28594D01*
X363789Y28393D01*
X363553Y28198D01*
X363311Y28009D01*
X363065Y27825D01*
X362814Y27648D01*
X362560Y27477D01*
X362301Y27312D01*
X362038Y27153D01*
X361772Y27001D01*
X361502Y26855D01*
X361229Y26715D01*
X360952Y26583D01*
X360672Y26457D01*
X360389Y26338D01*
X360103Y26225D01*
X359815Y26120D01*
X359525Y26022D01*
X359232Y25930D01*
X358936Y25846D01*
X358639Y25769D01*
X358340Y25699D01*
X358040Y25637D01*
X357738Y25581D01*
X357435Y25533D01*
X357131Y25493D01*
X356826Y25459D01*
X356520Y25433D01*
X356214Y25415D01*
X355907Y25404D01*
X355600Y25400D01*
X127000Y114300D02*
X126693Y114296D01*
X126386Y114285D01*
X126080Y114267D01*
X125774Y114241D01*
X125469Y114207D01*
X125165Y114167D01*
X124862Y114119D01*
X124560Y114063D01*
X124260Y114001D01*
X123961Y113931D01*
X123664Y113854D01*
X123368Y113770D01*
X123075Y113678D01*
X122785Y113580D01*
X122497Y113475D01*
X122211Y113362D01*
X121928Y113243D01*
X121648Y113117D01*
X121371Y112985D01*
X121098Y112845D01*
X120828Y112699D01*
X120562Y112547D01*
X120299Y112388D01*
X120040Y112223D01*
X119786Y112052D01*
X119535Y111875D01*
X119289Y111691D01*
X119047Y111502D01*
X118811Y111307D01*
X118578Y111106D01*
X118351Y110900D01*
X118129Y110688D01*
X117912Y110471D01*
X117700Y110249D01*
X117494Y110022D01*
X117293Y109789D01*
X117098Y109553D01*
X116909Y109311D01*
X116725Y109065D01*
X116548Y108814D01*
X116377Y108560D01*
X116212Y108301D01*
X116053Y108038D01*
X115901Y107772D01*
X115755Y107502D01*
X115615Y107229D01*
X115483Y106952D01*
X115357Y106672D01*
X115238Y106389D01*
X115125Y106103D01*
X115020Y105815D01*
X114922Y105525D01*
X114830Y105232D01*
X114746Y104936D01*
X114669Y104639D01*
X114599Y104340D01*
X114537Y104040D01*
X114481Y103738D01*
X114433Y103435D01*
X114393Y103131D01*
X114359Y102826D01*
X114333Y102520D01*
X114315Y102214D01*
X114304Y101907D01*
X114300Y101600D01*
X114300Y38100D02*
X114304Y37793D01*
X114315Y37486D01*
X114333Y37180D01*
X114359Y36874D01*
X114393Y36569D01*
X114433Y36265D01*
X114481Y35962D01*
X114537Y35660D01*
X114599Y35360D01*
X114669Y35061D01*
X114746Y34764D01*
X114830Y34468D01*
X114922Y34175D01*
X115020Y33885D01*
X115125Y33597D01*
X115238Y33311D01*
X115357Y33028D01*
X115483Y32748D01*
X115615Y32471D01*
X115755Y32198D01*
X115901Y31928D01*
X116053Y31662D01*
X116212Y31399D01*
X116377Y31140D01*
X116548Y30886D01*
X116725Y30635D01*
X116909Y30389D01*
X117098Y30147D01*
X117293Y29911D01*
X117494Y29678D01*
X117700Y29451D01*
X117912Y29229D01*
X118129Y29012D01*
X118351Y28800D01*
X118578Y28594D01*
X118811Y28393D01*
X119047Y28198D01*
X119289Y28009D01*
X119535Y27825D01*
X119786Y27648D01*
X120040Y27477D01*
X120299Y27312D01*
X120562Y27153D01*
X120828Y27001D01*
X121098Y26855D01*
X121371Y26715D01*
X121648Y26583D01*
X121928Y26457D01*
X122211Y26338D01*
X122497Y26225D01*
X122785Y26120D01*
X123075Y26022D01*
X123368Y25930D01*
X123664Y25846D01*
X123961Y25769D01*
X124260Y25699D01*
X124560Y25637D01*
X124862Y25581D01*
X125165Y25533D01*
X125469Y25493D01*
X125774Y25459D01*
X126080Y25433D01*
X126386Y25415D01*
X126693Y25404D01*
X127000Y25400D01*
D10*
X265811Y32639D02*
X265811Y45085D01*
X260279Y45085D01*
X260279Y39553D02*
X265811Y39553D01*
X253263Y32639D02*
X249806Y32639D01*
X253263Y32639D02*
X253351Y32641D01*
X253439Y32646D01*
X253526Y32656D01*
X253614Y32669D01*
X253700Y32686D01*
X253786Y32706D01*
X253870Y32730D01*
X253954Y32757D01*
X254036Y32789D01*
X254117Y32823D01*
X254197Y32861D01*
X254274Y32902D01*
X254350Y32947D01*
X254424Y32995D01*
X254496Y33046D01*
X254566Y33099D01*
X254633Y33156D01*
X254698Y33216D01*
X254760Y33278D01*
X254820Y33343D01*
X254877Y33410D01*
X254930Y33480D01*
X254981Y33552D01*
X255029Y33626D01*
X255074Y33702D01*
X255115Y33779D01*
X255153Y33859D01*
X255187Y33940D01*
X255219Y34022D01*
X255246Y34106D01*
X255270Y34190D01*
X255290Y34276D01*
X255307Y34362D01*
X255320Y34450D01*
X255330Y34537D01*
X255335Y34625D01*
X255337Y34713D01*
X255337Y38171D01*
X255338Y38171D02*
X255336Y38274D01*
X255330Y38378D01*
X255321Y38481D01*
X255307Y38583D01*
X255290Y38685D01*
X255269Y38786D01*
X255244Y38887D01*
X255215Y38986D01*
X255183Y39085D01*
X255147Y39182D01*
X255107Y39277D01*
X255064Y39371D01*
X255017Y39463D01*
X254967Y39554D01*
X254914Y39643D01*
X254857Y39729D01*
X254798Y39814D01*
X254735Y39896D01*
X254669Y39975D01*
X254600Y40052D01*
X254528Y40127D01*
X254453Y40199D01*
X254376Y40268D01*
X254297Y40334D01*
X254215Y40397D01*
X254130Y40456D01*
X254044Y40513D01*
X253955Y40566D01*
X253864Y40616D01*
X253772Y40663D01*
X253678Y40706D01*
X253583Y40746D01*
X253486Y40782D01*
X253387Y40814D01*
X253288Y40843D01*
X253187Y40868D01*
X253086Y40889D01*
X252984Y40906D01*
X252882Y40920D01*
X252779Y40929D01*
X252675Y40935D01*
X252572Y40937D01*
X252469Y40935D01*
X252365Y40929D01*
X252262Y40920D01*
X252160Y40906D01*
X252058Y40889D01*
X251957Y40868D01*
X251856Y40843D01*
X251757Y40814D01*
X251658Y40782D01*
X251561Y40746D01*
X251466Y40706D01*
X251372Y40663D01*
X251280Y40616D01*
X251189Y40566D01*
X251100Y40513D01*
X251014Y40456D01*
X250929Y40397D01*
X250847Y40334D01*
X250768Y40268D01*
X250691Y40199D01*
X250616Y40127D01*
X250544Y40052D01*
X250475Y39975D01*
X250409Y39896D01*
X250346Y39814D01*
X250287Y39729D01*
X250230Y39643D01*
X250177Y39554D01*
X250127Y39463D01*
X250080Y39371D01*
X250037Y39277D01*
X249997Y39182D01*
X249961Y39085D01*
X249929Y38986D01*
X249900Y38887D01*
X249875Y38786D01*
X249854Y38685D01*
X249837Y38583D01*
X249823Y38481D01*
X249814Y38378D01*
X249808Y38274D01*
X249806Y38171D01*
X249806Y36788D01*
X255337Y36788D01*
X243721Y32639D02*
X243721Y40936D01*
X239572Y40936D01*
X239572Y39553D01*
X234760Y40936D02*
X234760Y32639D01*
X234760Y40936D02*
X230611Y40936D01*
X230611Y39553D01*
X226542Y40936D02*
X226542Y32639D01*
X226888Y44394D02*
X226888Y45085D01*
X226196Y45085D01*
X226196Y44394D01*
X226888Y44394D01*
X222348Y40936D02*
X218199Y40936D01*
X220965Y45085D02*
X220965Y34713D01*
X220963Y34625D01*
X220958Y34537D01*
X220948Y34450D01*
X220935Y34362D01*
X220918Y34276D01*
X220898Y34190D01*
X220874Y34106D01*
X220847Y34022D01*
X220815Y33940D01*
X220781Y33859D01*
X220743Y33779D01*
X220702Y33702D01*
X220657Y33626D01*
X220609Y33552D01*
X220558Y33480D01*
X220505Y33410D01*
X220448Y33343D01*
X220388Y33278D01*
X220326Y33216D01*
X220261Y33156D01*
X220194Y33099D01*
X220124Y33046D01*
X220052Y32995D01*
X219978Y32947D01*
X219902Y32902D01*
X219825Y32861D01*
X219745Y32823D01*
X219664Y32789D01*
X219582Y32757D01*
X219498Y32730D01*
X219414Y32706D01*
X219328Y32686D01*
X219242Y32669D01*
X219154Y32656D01*
X219067Y32646D01*
X218979Y32641D01*
X218891Y32639D01*
X218199Y32639D01*
X211018Y32639D02*
X207561Y32639D01*
X211018Y32639D02*
X211106Y32641D01*
X211194Y32646D01*
X211281Y32656D01*
X211369Y32669D01*
X211455Y32686D01*
X211541Y32706D01*
X211625Y32730D01*
X211709Y32757D01*
X211791Y32789D01*
X211872Y32823D01*
X211952Y32861D01*
X212029Y32902D01*
X212105Y32947D01*
X212179Y32995D01*
X212251Y33046D01*
X212321Y33099D01*
X212388Y33156D01*
X212453Y33216D01*
X212515Y33278D01*
X212575Y33343D01*
X212632Y33410D01*
X212685Y33480D01*
X212736Y33552D01*
X212784Y33626D01*
X212829Y33702D01*
X212870Y33779D01*
X212908Y33859D01*
X212942Y33940D01*
X212974Y34022D01*
X213001Y34106D01*
X213025Y34190D01*
X213045Y34276D01*
X213062Y34362D01*
X213075Y34450D01*
X213085Y34537D01*
X213090Y34625D01*
X213092Y34713D01*
X213092Y38171D01*
X213093Y38171D02*
X213091Y38274D01*
X213085Y38378D01*
X213076Y38481D01*
X213062Y38583D01*
X213045Y38685D01*
X213024Y38786D01*
X212999Y38887D01*
X212970Y38986D01*
X212938Y39085D01*
X212902Y39182D01*
X212862Y39277D01*
X212819Y39371D01*
X212772Y39463D01*
X212722Y39554D01*
X212669Y39643D01*
X212612Y39729D01*
X212553Y39814D01*
X212490Y39896D01*
X212424Y39975D01*
X212355Y40052D01*
X212283Y40127D01*
X212208Y40199D01*
X212131Y40268D01*
X212052Y40334D01*
X211970Y40397D01*
X211885Y40456D01*
X211799Y40513D01*
X211710Y40566D01*
X211619Y40616D01*
X211527Y40663D01*
X211433Y40706D01*
X211338Y40746D01*
X211241Y40782D01*
X211142Y40814D01*
X211043Y40843D01*
X210942Y40868D01*
X210841Y40889D01*
X210739Y40906D01*
X210637Y40920D01*
X210534Y40929D01*
X210430Y40935D01*
X210327Y40937D01*
X210224Y40935D01*
X210120Y40929D01*
X210017Y40920D01*
X209915Y40906D01*
X209813Y40889D01*
X209712Y40868D01*
X209611Y40843D01*
X209512Y40814D01*
X209413Y40782D01*
X209316Y40746D01*
X209221Y40706D01*
X209127Y40663D01*
X209035Y40616D01*
X208944Y40566D01*
X208855Y40513D01*
X208769Y40456D01*
X208684Y40397D01*
X208602Y40334D01*
X208523Y40268D01*
X208446Y40199D01*
X208371Y40127D01*
X208299Y40052D01*
X208230Y39975D01*
X208164Y39896D01*
X208101Y39814D01*
X208042Y39729D01*
X207985Y39643D01*
X207932Y39554D01*
X207882Y39463D01*
X207835Y39371D01*
X207792Y39277D01*
X207752Y39182D01*
X207716Y39085D01*
X207684Y38986D01*
X207655Y38887D01*
X207630Y38786D01*
X207609Y38685D01*
X207592Y38583D01*
X207578Y38481D01*
X207569Y38378D01*
X207563Y38274D01*
X207561Y38171D01*
X207561Y36788D01*
X213092Y36788D01*
D12*
X127000Y215900D02*
X355600Y215900D01*
X355600Y127000D02*
X127000Y127000D01*
X114300Y139700D02*
X114300Y203200D01*
X355600Y215900D02*
X355907Y215896D01*
X356214Y215885D01*
X356520Y215867D01*
X356826Y215841D01*
X357131Y215807D01*
X357435Y215767D01*
X357738Y215719D01*
X358040Y215663D01*
X358340Y215601D01*
X358639Y215531D01*
X358936Y215454D01*
X359232Y215370D01*
X359525Y215278D01*
X359815Y215180D01*
X360103Y215075D01*
X360389Y214962D01*
X360672Y214843D01*
X360952Y214717D01*
X361229Y214585D01*
X361502Y214445D01*
X361772Y214299D01*
X362038Y214147D01*
X362301Y213988D01*
X362560Y213823D01*
X362814Y213652D01*
X363065Y213475D01*
X363311Y213291D01*
X363553Y213102D01*
X363789Y212907D01*
X364022Y212706D01*
X364249Y212500D01*
X364471Y212288D01*
X364688Y212071D01*
X364900Y211849D01*
X365106Y211622D01*
X365307Y211389D01*
X365502Y211153D01*
X365691Y210911D01*
X365875Y210665D01*
X366052Y210414D01*
X366223Y210160D01*
X366388Y209901D01*
X366547Y209638D01*
X366699Y209372D01*
X366845Y209102D01*
X366985Y208829D01*
X367117Y208552D01*
X367243Y208272D01*
X367362Y207989D01*
X367475Y207703D01*
X367580Y207415D01*
X367678Y207125D01*
X367770Y206832D01*
X367854Y206536D01*
X367931Y206239D01*
X368001Y205940D01*
X368063Y205640D01*
X368119Y205338D01*
X368167Y205035D01*
X368207Y204731D01*
X368241Y204426D01*
X368267Y204120D01*
X368285Y203814D01*
X368296Y203507D01*
X368300Y203200D01*
X368300Y139700D01*
X368296Y139393D01*
X368285Y139086D01*
X368267Y138780D01*
X368241Y138474D01*
X368207Y138169D01*
X368167Y137865D01*
X368119Y137562D01*
X368063Y137260D01*
X368001Y136960D01*
X367931Y136661D01*
X367854Y136364D01*
X367770Y136068D01*
X367678Y135775D01*
X367580Y135485D01*
X367475Y135197D01*
X367362Y134911D01*
X367243Y134628D01*
X367117Y134348D01*
X366985Y134071D01*
X366845Y133798D01*
X366699Y133528D01*
X366547Y133262D01*
X366388Y132999D01*
X366223Y132740D01*
X366052Y132486D01*
X365875Y132235D01*
X365691Y131989D01*
X365502Y131747D01*
X365307Y131511D01*
X365106Y131278D01*
X364900Y131051D01*
X364688Y130829D01*
X364471Y130612D01*
X364249Y130400D01*
X364022Y130194D01*
X363789Y129993D01*
X363553Y129798D01*
X363311Y129609D01*
X363065Y129425D01*
X362814Y129248D01*
X362560Y129077D01*
X362301Y128912D01*
X362038Y128753D01*
X361772Y128601D01*
X361502Y128455D01*
X361229Y128315D01*
X360952Y128183D01*
X360672Y128057D01*
X360389Y127938D01*
X360103Y127825D01*
X359815Y127720D01*
X359525Y127622D01*
X359232Y127530D01*
X358936Y127446D01*
X358639Y127369D01*
X358340Y127299D01*
X358040Y127237D01*
X357738Y127181D01*
X357435Y127133D01*
X357131Y127093D01*
X356826Y127059D01*
X356520Y127033D01*
X356214Y127015D01*
X355907Y127004D01*
X355600Y127000D01*
X127000Y215900D02*
X126693Y215896D01*
X126386Y215885D01*
X126080Y215867D01*
X125774Y215841D01*
X125469Y215807D01*
X125165Y215767D01*
X124862Y215719D01*
X124560Y215663D01*
X124260Y215601D01*
X123961Y215531D01*
X123664Y215454D01*
X123368Y215370D01*
X123075Y215278D01*
X122785Y215180D01*
X122497Y215075D01*
X122211Y214962D01*
X121928Y214843D01*
X121648Y214717D01*
X121371Y214585D01*
X121098Y214445D01*
X120828Y214299D01*
X120562Y214147D01*
X120299Y213988D01*
X120040Y213823D01*
X119786Y213652D01*
X119535Y213475D01*
X119289Y213291D01*
X119047Y213102D01*
X118811Y212907D01*
X118578Y212706D01*
X118351Y212500D01*
X118129Y212288D01*
X117912Y212071D01*
X117700Y211849D01*
X117494Y211622D01*
X117293Y211389D01*
X117098Y211153D01*
X116909Y210911D01*
X116725Y210665D01*
X116548Y210414D01*
X116377Y210160D01*
X116212Y209901D01*
X116053Y209638D01*
X115901Y209372D01*
X115755Y209102D01*
X115615Y208829D01*
X115483Y208552D01*
X115357Y208272D01*
X115238Y207989D01*
X115125Y207703D01*
X115020Y207415D01*
X114922Y207125D01*
X114830Y206832D01*
X114746Y206536D01*
X114669Y206239D01*
X114599Y205940D01*
X114537Y205640D01*
X114481Y205338D01*
X114433Y205035D01*
X114393Y204731D01*
X114359Y204426D01*
X114333Y204120D01*
X114315Y203814D01*
X114304Y203507D01*
X114300Y203200D01*
X114300Y139700D02*
X114304Y139393D01*
X114315Y139086D01*
X114333Y138780D01*
X114359Y138474D01*
X114393Y138169D01*
X114433Y137865D01*
X114481Y137562D01*
X114537Y137260D01*
X114599Y136960D01*
X114669Y136661D01*
X114746Y136364D01*
X114830Y136068D01*
X114922Y135775D01*
X115020Y135485D01*
X115125Y135197D01*
X115238Y134911D01*
X115357Y134628D01*
X115483Y134348D01*
X115615Y134071D01*
X115755Y133798D01*
X115901Y133528D01*
X116053Y133262D01*
X116212Y132999D01*
X116377Y132740D01*
X116548Y132486D01*
X116725Y132235D01*
X116909Y131989D01*
X117098Y131747D01*
X117293Y131511D01*
X117494Y131278D01*
X117700Y131051D01*
X117912Y130829D01*
X118129Y130612D01*
X118351Y130400D01*
X118578Y130194D01*
X118811Y129993D01*
X119047Y129798D01*
X119289Y129609D01*
X119535Y129425D01*
X119786Y129248D01*
X120040Y129077D01*
X120299Y128912D01*
X120562Y128753D01*
X120828Y128601D01*
X121098Y128455D01*
X121371Y128315D01*
X121648Y128183D01*
X121928Y128057D01*
X122211Y127938D01*
X122497Y127825D01*
X122785Y127720D01*
X123075Y127622D01*
X123368Y127530D01*
X123664Y127446D01*
X123961Y127369D01*
X124260Y127299D01*
X124560Y127237D01*
X124862Y127181D01*
X125165Y127133D01*
X125469Y127093D01*
X125774Y127059D01*
X126080Y127033D01*
X126386Y127015D01*
X126693Y127004D01*
X127000Y127000D01*
D10*
X265811Y134239D02*
X265811Y146685D01*
X260279Y146685D01*
X260279Y141153D02*
X265811Y141153D01*
X253263Y134239D02*
X249806Y134239D01*
X253263Y134239D02*
X253351Y134241D01*
X253439Y134246D01*
X253526Y134256D01*
X253614Y134269D01*
X253700Y134286D01*
X253786Y134306D01*
X253870Y134330D01*
X253954Y134357D01*
X254036Y134389D01*
X254117Y134423D01*
X254197Y134461D01*
X254274Y134502D01*
X254350Y134547D01*
X254424Y134595D01*
X254496Y134646D01*
X254566Y134699D01*
X254633Y134756D01*
X254698Y134816D01*
X254760Y134878D01*
X254820Y134943D01*
X254877Y135010D01*
X254930Y135080D01*
X254981Y135152D01*
X255029Y135226D01*
X255074Y135302D01*
X255115Y135379D01*
X255153Y135459D01*
X255187Y135540D01*
X255219Y135622D01*
X255246Y135706D01*
X255270Y135790D01*
X255290Y135876D01*
X255307Y135962D01*
X255320Y136050D01*
X255330Y136137D01*
X255335Y136225D01*
X255337Y136313D01*
X255337Y139771D01*
X255338Y139771D02*
X255336Y139874D01*
X255330Y139978D01*
X255321Y140081D01*
X255307Y140183D01*
X255290Y140285D01*
X255269Y140386D01*
X255244Y140487D01*
X255215Y140586D01*
X255183Y140685D01*
X255147Y140782D01*
X255107Y140877D01*
X255064Y140971D01*
X255017Y141063D01*
X254967Y141154D01*
X254914Y141243D01*
X254857Y141329D01*
X254798Y141414D01*
X254735Y141496D01*
X254669Y141575D01*
X254600Y141652D01*
X254528Y141727D01*
X254453Y141799D01*
X254376Y141868D01*
X254297Y141934D01*
X254215Y141997D01*
X254130Y142056D01*
X254044Y142113D01*
X253955Y142166D01*
X253864Y142216D01*
X253772Y142263D01*
X253678Y142306D01*
X253583Y142346D01*
X253486Y142382D01*
X253387Y142414D01*
X253288Y142443D01*
X253187Y142468D01*
X253086Y142489D01*
X252984Y142506D01*
X252882Y142520D01*
X252779Y142529D01*
X252675Y142535D01*
X252572Y142537D01*
X252469Y142535D01*
X252365Y142529D01*
X252262Y142520D01*
X252160Y142506D01*
X252058Y142489D01*
X251957Y142468D01*
X251856Y142443D01*
X251757Y142414D01*
X251658Y142382D01*
X251561Y142346D01*
X251466Y142306D01*
X251372Y142263D01*
X251280Y142216D01*
X251189Y142166D01*
X251100Y142113D01*
X251014Y142056D01*
X250929Y141997D01*
X250847Y141934D01*
X250768Y141868D01*
X250691Y141799D01*
X250616Y141727D01*
X250544Y141652D01*
X250475Y141575D01*
X250409Y141496D01*
X250346Y141414D01*
X250287Y141329D01*
X250230Y141243D01*
X250177Y141154D01*
X250127Y141063D01*
X250080Y140971D01*
X250037Y140877D01*
X249997Y140782D01*
X249961Y140685D01*
X249929Y140586D01*
X249900Y140487D01*
X249875Y140386D01*
X249854Y140285D01*
X249837Y140183D01*
X249823Y140081D01*
X249814Y139978D01*
X249808Y139874D01*
X249806Y139771D01*
X249806Y138388D01*
X255337Y138388D01*
X243721Y134239D02*
X243721Y142536D01*
X239572Y142536D01*
X239572Y141153D01*
X234760Y142536D02*
X234760Y134239D01*
X234760Y142536D02*
X230611Y142536D01*
X230611Y141153D01*
X226542Y142536D02*
X226542Y134239D01*
X226888Y145994D02*
X226888Y146685D01*
X226196Y146685D01*
X226196Y145994D01*
X226888Y145994D01*
X222348Y142536D02*
X218199Y142536D01*
X220965Y146685D02*
X220965Y136313D01*
X220963Y136225D01*
X220958Y136137D01*
X220948Y136050D01*
X220935Y135962D01*
X220918Y135876D01*
X220898Y135790D01*
X220874Y135706D01*
X220847Y135622D01*
X220815Y135540D01*
X220781Y135459D01*
X220743Y135379D01*
X220702Y135302D01*
X220657Y135226D01*
X220609Y135152D01*
X220558Y135080D01*
X220505Y135010D01*
X220448Y134943D01*
X220388Y134878D01*
X220326Y134816D01*
X220261Y134756D01*
X220194Y134699D01*
X220124Y134646D01*
X220052Y134595D01*
X219978Y134547D01*
X219902Y134502D01*
X219825Y134461D01*
X219745Y134423D01*
X219664Y134389D01*
X219582Y134357D01*
X219498Y134330D01*
X219414Y134306D01*
X219328Y134286D01*
X219242Y134269D01*
X219154Y134256D01*
X219067Y134246D01*
X218979Y134241D01*
X218891Y134239D01*
X218199Y134239D01*
X211018Y134239D02*
X207561Y134239D01*
X211018Y134239D02*
X211106Y134241D01*
X211194Y134246D01*
X211281Y134256D01*
X211369Y134269D01*
X211455Y134286D01*
X211541Y134306D01*
X211625Y134330D01*
X211709Y134357D01*
X211791Y134389D01*
X211872Y134423D01*
X211952Y134461D01*
X212029Y134502D01*
X212105Y134547D01*
X212179Y134595D01*
X212251Y134646D01*
X212321Y134699D01*
X212388Y134756D01*
X212453Y134816D01*
X212515Y134878D01*
X212575Y134943D01*
X212632Y135010D01*
X212685Y135080D01*
X212736Y135152D01*
X212784Y135226D01*
X212829Y135302D01*
X212870Y135379D01*
X212908Y135459D01*
X212942Y135540D01*
X212974Y135622D01*
X213001Y135706D01*
X213025Y135790D01*
X213045Y135876D01*
X213062Y135962D01*
X213075Y136050D01*
X213085Y136137D01*
X213090Y136225D01*
X213092Y136313D01*
X213092Y139771D01*
X213093Y139771D02*
X213091Y139874D01*
X213085Y139978D01*
X213076Y140081D01*
X213062Y140183D01*
X213045Y140285D01*
X213024Y140386D01*
X212999Y140487D01*
X212970Y140586D01*
X212938Y140685D01*
X212902Y140782D01*
X212862Y140877D01*
X212819Y140971D01*
X212772Y141063D01*
X212722Y141154D01*
X212669Y141243D01*
X212612Y141329D01*
X212553Y141414D01*
X212490Y141496D01*
X212424Y141575D01*
X212355Y141652D01*
X212283Y141727D01*
X212208Y141799D01*
X212131Y141868D01*
X212052Y141934D01*
X211970Y141997D01*
X211885Y142056D01*
X211799Y142113D01*
X211710Y142166D01*
X211619Y142216D01*
X211527Y142263D01*
X211433Y142306D01*
X211338Y142346D01*
X211241Y142382D01*
X211142Y142414D01*
X211043Y142443D01*
X210942Y142468D01*
X210841Y142489D01*
X210739Y142506D01*
X210637Y142520D01*
X210534Y142529D01*
X210430Y142535D01*
X210327Y142537D01*
X210224Y142535D01*
X210120Y142529D01*
X210017Y142520D01*
X209915Y142506D01*
X209813Y142489D01*
X209712Y142468D01*
X209611Y142443D01*
X209512Y142414D01*
X209413Y142382D01*
X209316Y142346D01*
X209221Y142306D01*
X209127Y142263D01*
X209035Y142216D01*
X208944Y142166D01*
X208855Y142113D01*
X208769Y142056D01*
X208684Y141997D01*
X208602Y141934D01*
X208523Y141868D01*
X208446Y141799D01*
X208371Y141727D01*
X208299Y141652D01*
X208230Y141575D01*
X208164Y141496D01*
X208101Y141414D01*
X208042Y141329D01*
X207985Y141243D01*
X207932Y141154D01*
X207882Y141063D01*
X207835Y140971D01*
X207792Y140877D01*
X207752Y140782D01*
X207716Y140685D01*
X207684Y140586D01*
X207655Y140487D01*
X207630Y140386D01*
X207609Y140285D01*
X207592Y140183D01*
X207578Y140081D01*
X207569Y139978D01*
X207563Y139874D01*
X207561Y139771D01*
X207561Y138388D01*
X213092Y138388D01*
M02*
