G04 EAGLE Gerber RS-274X export*
G75*
%MOMM*%
%FSLAX34Y34*%
%LPD*%
%INBottom Solder Mask*%
%IPPOS*%
%AMOC8*
5,1,8,0,0,1.08239X$1,22.5*%
G01*
%ADD10R,0.927000X0.927000*%
%ADD11C,0.731000*%
%ADD12R,1.077000X1.077000*%
%ADD13R,1.397000X1.397000*%

G36*
X63558Y127898D02*
X63558Y127898D01*
X63616Y127896D01*
X63698Y127918D01*
X63782Y127930D01*
X63835Y127954D01*
X63891Y127968D01*
X63964Y128011D01*
X64041Y128046D01*
X64086Y128084D01*
X64136Y128114D01*
X64194Y128175D01*
X64258Y128230D01*
X64290Y128278D01*
X64330Y128321D01*
X64369Y128396D01*
X64416Y128466D01*
X64433Y128522D01*
X64460Y128574D01*
X64471Y128642D01*
X64501Y128737D01*
X64504Y128837D01*
X64515Y128905D01*
X64515Y190500D01*
X64507Y190558D01*
X64509Y190616D01*
X64487Y190698D01*
X64475Y190782D01*
X64452Y190835D01*
X64437Y190891D01*
X64394Y190964D01*
X64359Y191041D01*
X64321Y191086D01*
X64292Y191136D01*
X64230Y191194D01*
X64176Y191258D01*
X64127Y191290D01*
X64084Y191330D01*
X64009Y191369D01*
X63939Y191416D01*
X63883Y191433D01*
X63831Y191460D01*
X63763Y191471D01*
X63668Y191501D01*
X63568Y191504D01*
X63500Y191515D01*
X0Y191515D01*
X-58Y191507D01*
X-116Y191509D01*
X-198Y191487D01*
X-282Y191475D01*
X-335Y191452D01*
X-391Y191437D01*
X-464Y191394D01*
X-541Y191359D01*
X-586Y191321D01*
X-636Y191292D01*
X-694Y191230D01*
X-758Y191176D01*
X-790Y191127D01*
X-830Y191084D01*
X-869Y191009D01*
X-916Y190939D01*
X-933Y190883D01*
X-960Y190831D01*
X-971Y190763D01*
X-1001Y190668D01*
X-1004Y190568D01*
X-1015Y190500D01*
X-1015Y128905D01*
X-1007Y128847D01*
X-1009Y128789D01*
X-987Y128707D01*
X-975Y128624D01*
X-952Y128570D01*
X-937Y128514D01*
X-894Y128441D01*
X-859Y128364D01*
X-821Y128319D01*
X-792Y128269D01*
X-730Y128211D01*
X-676Y128147D01*
X-627Y128115D01*
X-584Y128075D01*
X-509Y128036D01*
X-439Y127990D01*
X-383Y127972D01*
X-331Y127945D01*
X-263Y127934D01*
X-168Y127904D01*
X-68Y127901D01*
X0Y127890D01*
X63500Y127890D01*
X63558Y127898D01*
G37*
G36*
X63558Y49793D02*
X63558Y49793D01*
X63616Y49791D01*
X63698Y49813D01*
X63782Y49825D01*
X63835Y49849D01*
X63891Y49863D01*
X63964Y49906D01*
X64041Y49941D01*
X64086Y49979D01*
X64136Y50009D01*
X64194Y50070D01*
X64258Y50125D01*
X64290Y50173D01*
X64330Y50216D01*
X64369Y50291D01*
X64416Y50361D01*
X64433Y50417D01*
X64460Y50469D01*
X64471Y50537D01*
X64501Y50632D01*
X64504Y50732D01*
X64515Y50800D01*
X64515Y112395D01*
X64507Y112453D01*
X64509Y112511D01*
X64487Y112593D01*
X64475Y112677D01*
X64452Y112730D01*
X64437Y112786D01*
X64394Y112859D01*
X64359Y112936D01*
X64321Y112981D01*
X64292Y113031D01*
X64230Y113089D01*
X64176Y113153D01*
X64127Y113185D01*
X64084Y113225D01*
X64009Y113264D01*
X63939Y113311D01*
X63883Y113328D01*
X63831Y113355D01*
X63763Y113366D01*
X63668Y113396D01*
X63568Y113399D01*
X63500Y113410D01*
X0Y113410D01*
X-58Y113402D01*
X-116Y113404D01*
X-198Y113382D01*
X-282Y113370D01*
X-335Y113347D01*
X-391Y113332D01*
X-464Y113289D01*
X-541Y113254D01*
X-586Y113216D01*
X-636Y113187D01*
X-694Y113125D01*
X-758Y113071D01*
X-790Y113022D01*
X-830Y112979D01*
X-869Y112904D01*
X-916Y112834D01*
X-933Y112778D01*
X-960Y112726D01*
X-971Y112658D01*
X-1001Y112563D01*
X-1004Y112463D01*
X-1015Y112395D01*
X-1015Y50800D01*
X-1007Y50742D01*
X-1009Y50684D01*
X-987Y50602D01*
X-975Y50519D01*
X-952Y50465D01*
X-937Y50409D01*
X-894Y50336D01*
X-859Y50259D01*
X-821Y50214D01*
X-792Y50164D01*
X-730Y50106D01*
X-676Y50042D01*
X-627Y50010D01*
X-584Y49970D01*
X-509Y49931D01*
X-439Y49885D01*
X-383Y49867D01*
X-331Y49840D01*
X-263Y49829D01*
X-168Y49799D01*
X-68Y49796D01*
X0Y49785D01*
X63500Y49785D01*
X63558Y49793D01*
G37*
D10*
X420250Y130175D03*
X405250Y130175D03*
D11*
X50800Y57150D03*
X31750Y57150D03*
X12700Y57150D03*
X50800Y184150D03*
X31750Y184150D03*
X12700Y184150D03*
D12*
X719825Y120650D03*
X734325Y120650D03*
D13*
X771525Y133350D03*
X771525Y107950D03*
M02*
