G04 EAGLE Gerber RS-274X export*
G75*
%MOMM*%
%FSLAX34Y34*%
%LPD*%
%INSilk screen SOL*%
%IPPOS*%
%AMOC8*
5,1,8,0,0,1.08239X$1,22.5*%
G01*
%ADD10C,0.152400*%


D10*
X240538Y38862D02*
X236305Y32865D01*
X232071Y38862D01*
X236305Y32865D02*
X236305Y26162D01*
X224786Y31101D02*
X221611Y31101D01*
X224786Y31100D02*
X224884Y31098D01*
X224982Y31092D01*
X225080Y31082D01*
X225177Y31069D01*
X225274Y31051D01*
X225370Y31030D01*
X225464Y31005D01*
X225558Y30976D01*
X225651Y30944D01*
X225742Y30907D01*
X225832Y30868D01*
X225920Y30824D01*
X226006Y30777D01*
X226091Y30727D01*
X226173Y30674D01*
X226253Y30617D01*
X226331Y30557D01*
X226406Y30494D01*
X226479Y30428D01*
X226549Y30359D01*
X226616Y30288D01*
X226681Y30214D01*
X226742Y30137D01*
X226801Y30058D01*
X226856Y29977D01*
X226908Y29894D01*
X226956Y29808D01*
X227001Y29721D01*
X227043Y29632D01*
X227081Y29542D01*
X227115Y29450D01*
X227146Y29357D01*
X227173Y29262D01*
X227196Y29167D01*
X227216Y29070D01*
X227231Y28974D01*
X227243Y28876D01*
X227251Y28778D01*
X227255Y28680D01*
X227255Y28582D01*
X227251Y28484D01*
X227243Y28386D01*
X227231Y28288D01*
X227216Y28192D01*
X227196Y28095D01*
X227173Y28000D01*
X227146Y27905D01*
X227115Y27812D01*
X227081Y27720D01*
X227043Y27630D01*
X227001Y27541D01*
X226956Y27454D01*
X226908Y27368D01*
X226856Y27285D01*
X226801Y27204D01*
X226742Y27125D01*
X226681Y27048D01*
X226616Y26974D01*
X226549Y26903D01*
X226479Y26834D01*
X226406Y26768D01*
X226331Y26705D01*
X226253Y26645D01*
X226173Y26588D01*
X226091Y26535D01*
X226006Y26485D01*
X225920Y26438D01*
X225832Y26394D01*
X225742Y26355D01*
X225651Y26318D01*
X225558Y26286D01*
X225464Y26257D01*
X225370Y26232D01*
X225274Y26211D01*
X225177Y26193D01*
X225080Y26180D01*
X224982Y26170D01*
X224884Y26164D01*
X224786Y26162D01*
X221611Y26162D01*
X221611Y32512D01*
X221613Y32602D01*
X221619Y32692D01*
X221628Y32781D01*
X221641Y32870D01*
X221659Y32958D01*
X221679Y33045D01*
X221704Y33132D01*
X221732Y33217D01*
X221764Y33301D01*
X221799Y33384D01*
X221838Y33465D01*
X221880Y33544D01*
X221925Y33622D01*
X221974Y33697D01*
X222026Y33771D01*
X222081Y33842D01*
X222139Y33911D01*
X222200Y33977D01*
X222263Y34040D01*
X222329Y34101D01*
X222398Y34159D01*
X222469Y34214D01*
X222543Y34266D01*
X222618Y34315D01*
X222696Y34360D01*
X222775Y34402D01*
X222856Y34441D01*
X222939Y34476D01*
X223023Y34508D01*
X223108Y34536D01*
X223195Y34561D01*
X223282Y34581D01*
X223370Y34599D01*
X223459Y34612D01*
X223548Y34621D01*
X223638Y34627D01*
X223728Y34629D01*
X226550Y34629D01*
X215153Y34629D02*
X215153Y21929D01*
X215153Y34629D02*
X211626Y34629D01*
X211536Y34627D01*
X211446Y34621D01*
X211357Y34612D01*
X211268Y34599D01*
X211180Y34581D01*
X211093Y34561D01*
X211006Y34536D01*
X210921Y34508D01*
X210837Y34476D01*
X210754Y34441D01*
X210673Y34402D01*
X210594Y34360D01*
X210516Y34315D01*
X210441Y34266D01*
X210367Y34214D01*
X210296Y34159D01*
X210227Y34101D01*
X210161Y34040D01*
X210098Y33977D01*
X210037Y33911D01*
X209979Y33842D01*
X209924Y33771D01*
X209872Y33697D01*
X209823Y33622D01*
X209778Y33544D01*
X209736Y33465D01*
X209697Y33384D01*
X209662Y33301D01*
X209630Y33217D01*
X209602Y33132D01*
X209577Y33045D01*
X209557Y32958D01*
X209539Y32870D01*
X209526Y32781D01*
X209517Y32692D01*
X209511Y32602D01*
X209509Y32512D01*
X209509Y28279D01*
X209511Y28189D01*
X209517Y28099D01*
X209526Y28010D01*
X209539Y27921D01*
X209557Y27833D01*
X209577Y27746D01*
X209602Y27659D01*
X209630Y27574D01*
X209662Y27490D01*
X209697Y27407D01*
X209736Y27326D01*
X209778Y27247D01*
X209823Y27169D01*
X209872Y27094D01*
X209924Y27020D01*
X209979Y26949D01*
X210037Y26880D01*
X210098Y26814D01*
X210161Y26751D01*
X210227Y26690D01*
X210296Y26632D01*
X210367Y26577D01*
X210441Y26525D01*
X210516Y26476D01*
X210594Y26431D01*
X210673Y26389D01*
X210754Y26350D01*
X210837Y26315D01*
X210921Y26283D01*
X211006Y26255D01*
X211093Y26230D01*
X211180Y26210D01*
X211268Y26192D01*
X211357Y26179D01*
X211446Y26170D01*
X211536Y26164D01*
X211626Y26162D01*
X215153Y26162D01*
X204136Y28984D02*
X204136Y31806D01*
X204134Y31912D01*
X204128Y32017D01*
X204118Y32122D01*
X204104Y32227D01*
X204087Y32331D01*
X204065Y32434D01*
X204040Y32536D01*
X204011Y32638D01*
X203978Y32738D01*
X203941Y32837D01*
X203901Y32934D01*
X203857Y33030D01*
X203809Y33125D01*
X203758Y33217D01*
X203703Y33307D01*
X203646Y33396D01*
X203585Y33482D01*
X203520Y33565D01*
X203453Y33647D01*
X203383Y33725D01*
X203309Y33801D01*
X203233Y33875D01*
X203155Y33945D01*
X203073Y34012D01*
X202990Y34077D01*
X202904Y34138D01*
X202815Y34195D01*
X202725Y34250D01*
X202633Y34301D01*
X202538Y34349D01*
X202442Y34393D01*
X202345Y34433D01*
X202246Y34470D01*
X202146Y34503D01*
X202044Y34532D01*
X201942Y34557D01*
X201839Y34579D01*
X201735Y34596D01*
X201630Y34610D01*
X201525Y34620D01*
X201420Y34626D01*
X201314Y34628D01*
X201208Y34626D01*
X201103Y34620D01*
X200998Y34610D01*
X200893Y34596D01*
X200789Y34579D01*
X200686Y34557D01*
X200584Y34532D01*
X200482Y34503D01*
X200382Y34470D01*
X200283Y34433D01*
X200186Y34393D01*
X200090Y34349D01*
X199995Y34301D01*
X199903Y34250D01*
X199813Y34195D01*
X199724Y34138D01*
X199638Y34077D01*
X199555Y34012D01*
X199473Y33945D01*
X199395Y33875D01*
X199319Y33801D01*
X199245Y33725D01*
X199175Y33647D01*
X199108Y33565D01*
X199043Y33482D01*
X198982Y33396D01*
X198925Y33307D01*
X198870Y33217D01*
X198819Y33125D01*
X198771Y33030D01*
X198727Y32934D01*
X198687Y32837D01*
X198650Y32738D01*
X198617Y32638D01*
X198588Y32536D01*
X198563Y32434D01*
X198541Y32331D01*
X198524Y32227D01*
X198510Y32122D01*
X198500Y32017D01*
X198494Y31912D01*
X198492Y31806D01*
X198492Y28984D01*
X198494Y28878D01*
X198500Y28773D01*
X198510Y28668D01*
X198524Y28563D01*
X198541Y28459D01*
X198563Y28356D01*
X198588Y28254D01*
X198617Y28152D01*
X198650Y28052D01*
X198687Y27953D01*
X198727Y27856D01*
X198771Y27760D01*
X198819Y27665D01*
X198870Y27573D01*
X198925Y27483D01*
X198982Y27394D01*
X199043Y27308D01*
X199108Y27225D01*
X199175Y27143D01*
X199245Y27065D01*
X199319Y26989D01*
X199395Y26915D01*
X199473Y26845D01*
X199555Y26778D01*
X199638Y26713D01*
X199724Y26652D01*
X199813Y26595D01*
X199903Y26540D01*
X199995Y26489D01*
X200090Y26441D01*
X200186Y26397D01*
X200283Y26357D01*
X200382Y26320D01*
X200482Y26287D01*
X200584Y26258D01*
X200686Y26233D01*
X200789Y26211D01*
X200893Y26194D01*
X200998Y26180D01*
X201103Y26170D01*
X201208Y26164D01*
X201314Y26162D01*
X201420Y26164D01*
X201525Y26170D01*
X201630Y26180D01*
X201735Y26194D01*
X201839Y26211D01*
X201942Y26233D01*
X202044Y26258D01*
X202146Y26287D01*
X202246Y26320D01*
X202345Y26357D01*
X202442Y26397D01*
X202538Y26441D01*
X202633Y26489D01*
X202725Y26540D01*
X202815Y26595D01*
X202904Y26652D01*
X202990Y26713D01*
X203073Y26778D01*
X203155Y26845D01*
X203233Y26915D01*
X203309Y26989D01*
X203383Y27065D01*
X203453Y27143D01*
X203520Y27225D01*
X203585Y27308D01*
X203646Y27394D01*
X203703Y27483D01*
X203758Y27573D01*
X203809Y27665D01*
X203857Y27760D01*
X203901Y27856D01*
X203941Y27953D01*
X203978Y28052D01*
X204011Y28152D01*
X204040Y28254D01*
X204065Y28356D01*
X204087Y28459D01*
X204104Y28563D01*
X204118Y28668D01*
X204128Y28773D01*
X204134Y28878D01*
X204136Y28984D01*
X154107Y38862D02*
X153996Y38860D01*
X153886Y38854D01*
X153775Y38845D01*
X153665Y38831D01*
X153556Y38814D01*
X153447Y38793D01*
X153339Y38768D01*
X153232Y38739D01*
X153126Y38707D01*
X153021Y38671D01*
X152918Y38631D01*
X152816Y38588D01*
X152715Y38541D01*
X152616Y38490D01*
X152520Y38437D01*
X152425Y38380D01*
X152332Y38319D01*
X152241Y38256D01*
X152152Y38189D01*
X152066Y38119D01*
X151983Y38046D01*
X151901Y37971D01*
X151823Y37893D01*
X151748Y37811D01*
X151675Y37728D01*
X151605Y37642D01*
X151538Y37553D01*
X151475Y37462D01*
X151414Y37369D01*
X151357Y37274D01*
X151304Y37178D01*
X151253Y37079D01*
X151206Y36978D01*
X151163Y36876D01*
X151123Y36773D01*
X151087Y36668D01*
X151055Y36562D01*
X151026Y36455D01*
X151001Y36347D01*
X150980Y36238D01*
X150963Y36129D01*
X150949Y36019D01*
X150940Y35908D01*
X150934Y35798D01*
X150932Y35687D01*
X154107Y38862D02*
X154232Y38860D01*
X154357Y38854D01*
X154482Y38845D01*
X154606Y38831D01*
X154730Y38814D01*
X154853Y38793D01*
X154976Y38768D01*
X155098Y38740D01*
X155219Y38708D01*
X155339Y38672D01*
X155457Y38632D01*
X155575Y38589D01*
X155691Y38542D01*
X155805Y38492D01*
X155918Y38438D01*
X156029Y38381D01*
X156139Y38320D01*
X156246Y38256D01*
X156352Y38189D01*
X156455Y38118D01*
X156556Y38045D01*
X156655Y37968D01*
X156752Y37888D01*
X156846Y37806D01*
X156937Y37720D01*
X157026Y37632D01*
X157112Y37541D01*
X157195Y37448D01*
X157275Y37352D01*
X157353Y37253D01*
X157427Y37153D01*
X157498Y37050D01*
X157566Y36945D01*
X157631Y36838D01*
X157692Y36729D01*
X157750Y36618D01*
X157805Y36505D01*
X157856Y36391D01*
X157903Y36275D01*
X157947Y36158D01*
X157988Y36040D01*
X151991Y33218D02*
X151909Y33298D01*
X151830Y33382D01*
X151754Y33468D01*
X151680Y33557D01*
X151610Y33648D01*
X151543Y33741D01*
X151479Y33837D01*
X151418Y33934D01*
X151360Y34034D01*
X151306Y34135D01*
X151256Y34239D01*
X151209Y34344D01*
X151165Y34450D01*
X151125Y34558D01*
X151089Y34667D01*
X151056Y34778D01*
X151028Y34889D01*
X151003Y35001D01*
X150981Y35114D01*
X150964Y35228D01*
X150950Y35342D01*
X150941Y35457D01*
X150935Y35572D01*
X150933Y35687D01*
X151991Y33218D02*
X157988Y26162D01*
X150932Y26162D01*
X145187Y32512D02*
X145184Y32762D01*
X145175Y33012D01*
X145160Y33261D01*
X145139Y33510D01*
X145113Y33758D01*
X145080Y34006D01*
X145041Y34253D01*
X144997Y34499D01*
X144946Y34743D01*
X144890Y34987D01*
X144828Y35229D01*
X144760Y35469D01*
X144687Y35708D01*
X144608Y35945D01*
X144523Y36180D01*
X144433Y36413D01*
X144337Y36644D01*
X144235Y36872D01*
X144129Y37098D01*
X144094Y37193D01*
X144056Y37287D01*
X144014Y37379D01*
X143968Y37469D01*
X143920Y37558D01*
X143867Y37644D01*
X143812Y37729D01*
X143753Y37811D01*
X143691Y37891D01*
X143625Y37969D01*
X143557Y38044D01*
X143487Y38116D01*
X143413Y38185D01*
X143337Y38252D01*
X143258Y38315D01*
X143177Y38376D01*
X143093Y38433D01*
X143007Y38487D01*
X142920Y38537D01*
X142830Y38585D01*
X142739Y38628D01*
X142646Y38668D01*
X142552Y38705D01*
X142456Y38737D01*
X142359Y38766D01*
X142261Y38792D01*
X142162Y38813D01*
X142062Y38831D01*
X141962Y38844D01*
X141861Y38854D01*
X141760Y38860D01*
X141659Y38862D01*
X141558Y38860D01*
X141457Y38854D01*
X141356Y38844D01*
X141256Y38831D01*
X141156Y38813D01*
X141057Y38792D01*
X140959Y38766D01*
X140862Y38737D01*
X140766Y38705D01*
X140672Y38668D01*
X140579Y38628D01*
X140488Y38585D01*
X140398Y38537D01*
X140311Y38487D01*
X140225Y38433D01*
X140141Y38376D01*
X140060Y38315D01*
X139981Y38252D01*
X139905Y38185D01*
X139831Y38116D01*
X139761Y38044D01*
X139693Y37969D01*
X139627Y37891D01*
X139565Y37811D01*
X139507Y37729D01*
X139451Y37644D01*
X139399Y37558D01*
X139350Y37469D01*
X139304Y37379D01*
X139262Y37287D01*
X139224Y37193D01*
X139189Y37098D01*
X139083Y36872D01*
X138981Y36644D01*
X138885Y36413D01*
X138795Y36180D01*
X138710Y35945D01*
X138631Y35708D01*
X138558Y35469D01*
X138490Y35229D01*
X138428Y34987D01*
X138372Y34743D01*
X138321Y34499D01*
X138277Y34253D01*
X138238Y34006D01*
X138205Y33758D01*
X138179Y33510D01*
X138158Y33261D01*
X138143Y33012D01*
X138134Y32762D01*
X138131Y32512D01*
X145186Y32512D02*
X145183Y32262D01*
X145174Y32012D01*
X145159Y31763D01*
X145138Y31514D01*
X145112Y31266D01*
X145079Y31018D01*
X145040Y30771D01*
X144996Y30525D01*
X144945Y30281D01*
X144889Y30037D01*
X144827Y29795D01*
X144759Y29555D01*
X144686Y29316D01*
X144607Y29079D01*
X144522Y28844D01*
X144432Y28611D01*
X144336Y28380D01*
X144234Y28152D01*
X144128Y27926D01*
X144129Y27926D02*
X144094Y27831D01*
X144056Y27737D01*
X144014Y27645D01*
X143968Y27555D01*
X143919Y27466D01*
X143867Y27380D01*
X143811Y27295D01*
X143753Y27213D01*
X143691Y27133D01*
X143625Y27055D01*
X143557Y26980D01*
X143487Y26908D01*
X143413Y26839D01*
X143337Y26772D01*
X143258Y26709D01*
X143177Y26648D01*
X143093Y26591D01*
X143007Y26537D01*
X142920Y26487D01*
X142830Y26439D01*
X142739Y26396D01*
X142646Y26356D01*
X142552Y26319D01*
X142456Y26287D01*
X142359Y26258D01*
X142261Y26232D01*
X142162Y26211D01*
X142062Y26193D01*
X141962Y26180D01*
X141861Y26170D01*
X141760Y26164D01*
X141659Y26162D01*
X139189Y27926D02*
X139083Y28152D01*
X138981Y28380D01*
X138885Y28611D01*
X138795Y28844D01*
X138710Y29079D01*
X138631Y29316D01*
X138558Y29555D01*
X138490Y29795D01*
X138428Y30037D01*
X138372Y30281D01*
X138321Y30525D01*
X138277Y30771D01*
X138238Y31018D01*
X138205Y31266D01*
X138179Y31514D01*
X138158Y31763D01*
X138143Y32012D01*
X138134Y32262D01*
X138131Y32512D01*
X139189Y27926D02*
X139224Y27831D01*
X139262Y27737D01*
X139304Y27645D01*
X139350Y27555D01*
X139399Y27466D01*
X139451Y27380D01*
X139507Y27295D01*
X139565Y27213D01*
X139627Y27133D01*
X139693Y27055D01*
X139761Y26980D01*
X139831Y26908D01*
X139905Y26839D01*
X139981Y26772D01*
X140060Y26709D01*
X140141Y26648D01*
X140225Y26591D01*
X140311Y26537D01*
X140398Y26487D01*
X140488Y26439D01*
X140579Y26396D01*
X140672Y26356D01*
X140766Y26319D01*
X140862Y26287D01*
X140959Y26258D01*
X141057Y26232D01*
X141156Y26211D01*
X141256Y26193D01*
X141356Y26180D01*
X141457Y26170D01*
X141558Y26164D01*
X141659Y26162D01*
X144481Y28984D02*
X138836Y36040D01*
X132385Y36040D02*
X128857Y38862D01*
X128857Y26162D01*
X132385Y26162D02*
X125329Y26162D01*
X116761Y31806D02*
X112528Y31806D01*
X116761Y31807D02*
X116867Y31809D01*
X116972Y31815D01*
X117077Y31825D01*
X117182Y31839D01*
X117286Y31856D01*
X117389Y31878D01*
X117491Y31903D01*
X117593Y31932D01*
X117693Y31965D01*
X117792Y32002D01*
X117890Y32042D01*
X117985Y32086D01*
X118080Y32134D01*
X118172Y32185D01*
X118262Y32240D01*
X118351Y32297D01*
X118437Y32358D01*
X118520Y32423D01*
X118602Y32490D01*
X118680Y32560D01*
X118756Y32634D01*
X118830Y32710D01*
X118900Y32788D01*
X118967Y32870D01*
X119032Y32953D01*
X119093Y33039D01*
X119150Y33128D01*
X119205Y33218D01*
X119256Y33310D01*
X119304Y33405D01*
X119348Y33501D01*
X119388Y33598D01*
X119425Y33697D01*
X119458Y33797D01*
X119487Y33899D01*
X119512Y34001D01*
X119534Y34104D01*
X119551Y34208D01*
X119565Y34313D01*
X119575Y34418D01*
X119581Y34524D01*
X119583Y34629D01*
X119583Y35334D01*
X119581Y35452D01*
X119575Y35570D01*
X119565Y35687D01*
X119552Y35804D01*
X119534Y35921D01*
X119512Y36037D01*
X119487Y36152D01*
X119458Y36266D01*
X119425Y36379D01*
X119388Y36491D01*
X119347Y36602D01*
X119303Y36711D01*
X119255Y36819D01*
X119204Y36925D01*
X119149Y37029D01*
X119090Y37132D01*
X119029Y37232D01*
X118964Y37331D01*
X118895Y37427D01*
X118824Y37520D01*
X118749Y37612D01*
X118672Y37701D01*
X118591Y37787D01*
X118508Y37870D01*
X118422Y37951D01*
X118333Y38028D01*
X118241Y38103D01*
X118148Y38174D01*
X118052Y38243D01*
X117953Y38308D01*
X117853Y38369D01*
X117750Y38428D01*
X117646Y38483D01*
X117540Y38534D01*
X117432Y38582D01*
X117323Y38626D01*
X117212Y38667D01*
X117100Y38704D01*
X116987Y38737D01*
X116873Y38766D01*
X116758Y38791D01*
X116642Y38813D01*
X116525Y38831D01*
X116408Y38844D01*
X116291Y38854D01*
X116173Y38860D01*
X116055Y38862D01*
X115937Y38860D01*
X115819Y38854D01*
X115702Y38844D01*
X115585Y38831D01*
X115468Y38813D01*
X115352Y38791D01*
X115237Y38766D01*
X115123Y38737D01*
X115010Y38704D01*
X114898Y38667D01*
X114787Y38626D01*
X114678Y38582D01*
X114570Y38534D01*
X114464Y38483D01*
X114360Y38428D01*
X114257Y38369D01*
X114157Y38308D01*
X114058Y38243D01*
X113962Y38174D01*
X113869Y38103D01*
X113777Y38028D01*
X113688Y37951D01*
X113602Y37870D01*
X113519Y37787D01*
X113438Y37701D01*
X113361Y37612D01*
X113286Y37520D01*
X113215Y37427D01*
X113146Y37331D01*
X113081Y37232D01*
X113020Y37132D01*
X112961Y37029D01*
X112906Y36925D01*
X112855Y36819D01*
X112807Y36711D01*
X112763Y36602D01*
X112722Y36491D01*
X112685Y36379D01*
X112652Y36266D01*
X112623Y36152D01*
X112598Y36037D01*
X112576Y35921D01*
X112558Y35804D01*
X112545Y35687D01*
X112535Y35570D01*
X112529Y35452D01*
X112527Y35334D01*
X112528Y35334D02*
X112528Y31806D01*
X112530Y31658D01*
X112536Y31511D01*
X112545Y31363D01*
X112559Y31216D01*
X112576Y31069D01*
X112597Y30923D01*
X112623Y30777D01*
X112651Y30633D01*
X112684Y30488D01*
X112720Y30345D01*
X112760Y30203D01*
X112804Y30062D01*
X112852Y29922D01*
X112903Y29783D01*
X112958Y29646D01*
X113016Y29510D01*
X113078Y29376D01*
X113143Y29244D01*
X113212Y29113D01*
X113284Y28984D01*
X113360Y28857D01*
X113439Y28732D01*
X113521Y28609D01*
X113606Y28489D01*
X113694Y28370D01*
X113786Y28254D01*
X113880Y28141D01*
X113978Y28029D01*
X114078Y27921D01*
X114181Y27815D01*
X114287Y27712D01*
X114395Y27612D01*
X114507Y27514D01*
X114620Y27420D01*
X114736Y27328D01*
X114855Y27240D01*
X114975Y27155D01*
X115098Y27073D01*
X115223Y26994D01*
X115350Y26918D01*
X115479Y26846D01*
X115610Y26777D01*
X115742Y26712D01*
X115876Y26650D01*
X116012Y26592D01*
X116149Y26537D01*
X116288Y26486D01*
X116428Y26438D01*
X116569Y26394D01*
X116711Y26354D01*
X116854Y26318D01*
X116999Y26285D01*
X117143Y26257D01*
X117289Y26231D01*
X117435Y26210D01*
X117582Y26193D01*
X117729Y26179D01*
X117877Y26170D01*
X118024Y26164D01*
X118172Y26162D01*
M02*
