G04 EAGLE Gerber RS-274X export*
G75*
%MOMM*%
%FSLAX34Y34*%
%LPD*%
%INComponent side*%
%IPPOS*%
%AMOC8*
5,1,8,0,0,1.08239X$1,22.5*%
G01*
%ADD10R,4.572000X2.540000*%
%ADD11R,3.810000X1.016000*%
%ADD12C,0.503200*%
%ADD13R,0.127000X0.127000*%
%ADD14C,0.330200*%
%ADD15C,0.603200*%
%ADD16C,0.355600*%
%ADD17C,0.381000*%

G36*
X456840Y84216D02*
X456840Y84216D01*
X456927Y84222D01*
X456972Y84237D01*
X456997Y84241D01*
X457024Y84256D01*
X457085Y84277D01*
X457868Y84655D01*
X457885Y84667D01*
X457918Y84681D01*
X459998Y85882D01*
X460855Y86112D01*
X460880Y86124D01*
X460989Y86162D01*
X461788Y86548D01*
X464148Y86997D01*
X464167Y87004D01*
X464203Y87009D01*
X466522Y87631D01*
X467410Y87631D01*
X467437Y87635D01*
X467552Y87644D01*
X468424Y87810D01*
X470820Y87633D01*
X470841Y87635D01*
X470876Y87631D01*
X503282Y87631D01*
X503301Y87634D01*
X503321Y87632D01*
X503422Y87654D01*
X503524Y87670D01*
X503542Y87680D01*
X503561Y87684D01*
X503650Y87737D01*
X503742Y87786D01*
X503755Y87800D01*
X503772Y87810D01*
X503840Y87889D01*
X503911Y87964D01*
X503919Y87982D01*
X503932Y87997D01*
X503971Y88093D01*
X504015Y88187D01*
X504017Y88207D01*
X504024Y88225D01*
X504043Y88392D01*
X504070Y133858D01*
X504067Y133877D01*
X504069Y133897D01*
X504047Y133998D01*
X504031Y134100D01*
X504021Y134118D01*
X504017Y134138D01*
X503964Y134227D01*
X503916Y134318D01*
X503901Y134332D01*
X503891Y134349D01*
X503812Y134416D01*
X503738Y134487D01*
X503719Y134496D01*
X503704Y134509D01*
X503608Y134548D01*
X503515Y134591D01*
X503495Y134593D01*
X503476Y134601D01*
X503309Y134619D01*
X470876Y134619D01*
X470855Y134616D01*
X470820Y134617D01*
X468424Y134440D01*
X467552Y134606D01*
X467525Y134607D01*
X467410Y134619D01*
X466522Y134619D01*
X464203Y135241D01*
X464182Y135243D01*
X464148Y135253D01*
X461788Y135702D01*
X460989Y136088D01*
X460962Y136096D01*
X460855Y136138D01*
X459998Y136368D01*
X457918Y137569D01*
X457898Y137576D01*
X457868Y137595D01*
X457348Y137846D01*
X457265Y137870D01*
X457184Y137903D01*
X457137Y137908D01*
X457113Y137915D01*
X457082Y137914D01*
X457018Y137921D01*
X50982Y137921D01*
X50897Y137907D01*
X50810Y137901D01*
X50765Y137886D01*
X50740Y137882D01*
X50712Y137867D01*
X50651Y137846D01*
X50132Y137595D01*
X50115Y137583D01*
X50082Y137568D01*
X48002Y136368D01*
X47145Y136138D01*
X47120Y136126D01*
X47011Y136088D01*
X46212Y135702D01*
X43852Y135253D01*
X43833Y135246D01*
X43797Y135241D01*
X41478Y134619D01*
X40590Y134619D01*
X40563Y134615D01*
X40448Y134606D01*
X39576Y134440D01*
X37180Y134617D01*
X37159Y134615D01*
X37124Y134619D01*
X4572Y134619D01*
X4552Y134616D01*
X4533Y134618D01*
X4431Y134596D01*
X4329Y134580D01*
X4312Y134570D01*
X4292Y134566D01*
X4203Y134513D01*
X4112Y134464D01*
X4098Y134450D01*
X4081Y134440D01*
X4014Y134361D01*
X3942Y134286D01*
X3934Y134268D01*
X3921Y134253D01*
X3882Y134157D01*
X3839Y134063D01*
X3837Y134043D01*
X3829Y134025D01*
X3811Y133858D01*
X3811Y88392D01*
X3814Y88372D01*
X3812Y88353D01*
X3834Y88251D01*
X3850Y88149D01*
X3860Y88132D01*
X3864Y88112D01*
X3917Y88023D01*
X3966Y87932D01*
X3980Y87918D01*
X3990Y87901D01*
X4069Y87834D01*
X4144Y87762D01*
X4162Y87754D01*
X4177Y87741D01*
X4273Y87702D01*
X4367Y87659D01*
X4387Y87657D01*
X4405Y87649D01*
X4572Y87631D01*
X37124Y87631D01*
X37145Y87634D01*
X37180Y87633D01*
X39576Y87810D01*
X40448Y87644D01*
X40475Y87643D01*
X40590Y87631D01*
X41477Y87631D01*
X43797Y87009D01*
X43818Y87007D01*
X43852Y86997D01*
X46212Y86548D01*
X47011Y86162D01*
X47038Y86154D01*
X47145Y86112D01*
X48002Y85882D01*
X50082Y84682D01*
X50102Y84674D01*
X50132Y84655D01*
X50915Y84277D01*
X50998Y84253D01*
X51079Y84220D01*
X51126Y84215D01*
X51150Y84208D01*
X51181Y84209D01*
X51246Y84202D01*
X456754Y84202D01*
X456840Y84216D01*
G37*
G36*
X457103Y192293D02*
X457103Y192293D01*
X457190Y192299D01*
X457235Y192314D01*
X457260Y192318D01*
X457288Y192333D01*
X457348Y192354D01*
X457868Y192605D01*
X457885Y192617D01*
X457918Y192631D01*
X459998Y193832D01*
X460855Y194062D01*
X460880Y194074D01*
X460989Y194112D01*
X461788Y194498D01*
X464148Y194947D01*
X464167Y194954D01*
X464203Y194959D01*
X466522Y195581D01*
X467410Y195581D01*
X467437Y195585D01*
X467552Y195594D01*
X468424Y195760D01*
X470820Y195583D01*
X470840Y195585D01*
X470876Y195581D01*
X503347Y195581D01*
X503366Y195584D01*
X503386Y195582D01*
X503487Y195604D01*
X503590Y195620D01*
X503607Y195630D01*
X503626Y195634D01*
X503715Y195687D01*
X503807Y195736D01*
X503821Y195750D01*
X503838Y195760D01*
X503905Y195839D01*
X503976Y195914D01*
X503985Y195932D01*
X503998Y195947D01*
X504036Y196043D01*
X504080Y196137D01*
X504082Y196157D01*
X504090Y196175D01*
X504108Y196342D01*
X504136Y241808D01*
X504132Y241827D01*
X504135Y241847D01*
X504113Y241948D01*
X504096Y242050D01*
X504087Y242068D01*
X504082Y242088D01*
X504029Y242177D01*
X503981Y242268D01*
X503967Y242282D01*
X503956Y242299D01*
X503878Y242366D01*
X503803Y242437D01*
X503785Y242446D01*
X503769Y242459D01*
X503673Y242498D01*
X503580Y242541D01*
X503560Y242543D01*
X503541Y242551D01*
X503374Y242569D01*
X470876Y242569D01*
X470855Y242566D01*
X470820Y242567D01*
X468424Y242390D01*
X467552Y242556D01*
X467525Y242557D01*
X467410Y242569D01*
X466522Y242569D01*
X464203Y243191D01*
X464182Y243193D01*
X464148Y243203D01*
X461788Y243652D01*
X460989Y244038D01*
X460962Y244046D01*
X460855Y244088D01*
X459998Y244318D01*
X457918Y245519D01*
X457898Y245526D01*
X457868Y245545D01*
X457612Y245669D01*
X457528Y245693D01*
X457447Y245726D01*
X457400Y245731D01*
X457376Y245738D01*
X457345Y245737D01*
X457281Y245744D01*
X50719Y245744D01*
X50633Y245730D01*
X50547Y245724D01*
X50502Y245709D01*
X50477Y245705D01*
X50449Y245690D01*
X50388Y245669D01*
X50132Y245545D01*
X50115Y245533D01*
X50082Y245518D01*
X48002Y244318D01*
X47145Y244088D01*
X47120Y244076D01*
X47011Y244038D01*
X46212Y243652D01*
X43852Y243203D01*
X43833Y243196D01*
X43797Y243191D01*
X41478Y242569D01*
X40590Y242569D01*
X40563Y242565D01*
X40448Y242556D01*
X39576Y242390D01*
X37180Y242567D01*
X37159Y242565D01*
X37124Y242569D01*
X4572Y242569D01*
X4552Y242566D01*
X4533Y242568D01*
X4431Y242546D01*
X4329Y242530D01*
X4312Y242520D01*
X4292Y242516D01*
X4203Y242463D01*
X4112Y242414D01*
X4098Y242400D01*
X4081Y242390D01*
X4014Y242311D01*
X3942Y242236D01*
X3934Y242218D01*
X3921Y242203D01*
X3882Y242107D01*
X3839Y242013D01*
X3837Y241993D01*
X3829Y241975D01*
X3811Y241808D01*
X3811Y196342D01*
X3814Y196322D01*
X3812Y196303D01*
X3834Y196201D01*
X3850Y196099D01*
X3860Y196082D01*
X3864Y196062D01*
X3917Y195973D01*
X3966Y195882D01*
X3980Y195868D01*
X3990Y195851D01*
X4069Y195784D01*
X4144Y195712D01*
X4162Y195704D01*
X4177Y195691D01*
X4273Y195652D01*
X4367Y195609D01*
X4387Y195607D01*
X4405Y195599D01*
X4572Y195581D01*
X37124Y195581D01*
X37145Y195584D01*
X37180Y195583D01*
X39576Y195760D01*
X40448Y195594D01*
X40475Y195593D01*
X40590Y195581D01*
X41478Y195581D01*
X43797Y194959D01*
X43818Y194957D01*
X43852Y194947D01*
X46212Y194498D01*
X47011Y194112D01*
X47038Y194104D01*
X47145Y194062D01*
X48002Y193832D01*
X50082Y192631D01*
X50102Y192624D01*
X50132Y192605D01*
X50652Y192354D01*
X50735Y192330D01*
X50816Y192297D01*
X50863Y192292D01*
X50887Y192285D01*
X50918Y192286D01*
X50982Y192279D01*
X457018Y192279D01*
X457103Y192293D01*
G37*
G36*
X503250Y3814D02*
X503250Y3814D01*
X503270Y3812D01*
X503371Y3834D01*
X503474Y3850D01*
X503491Y3860D01*
X503510Y3864D01*
X503599Y3917D01*
X503691Y3966D01*
X503704Y3980D01*
X503721Y3990D01*
X503789Y4069D01*
X503860Y4144D01*
X503869Y4162D01*
X503881Y4177D01*
X503920Y4273D01*
X503964Y4367D01*
X503966Y4387D01*
X503973Y4405D01*
X503992Y4572D01*
X504005Y25908D01*
X504003Y25919D01*
X504004Y25926D01*
X504002Y25934D01*
X504004Y25947D01*
X503982Y26048D01*
X503965Y26150D01*
X503956Y26168D01*
X503952Y26188D01*
X503899Y26277D01*
X503850Y26368D01*
X503836Y26382D01*
X503825Y26399D01*
X503747Y26466D01*
X503672Y26537D01*
X503654Y26546D01*
X503639Y26559D01*
X503542Y26598D01*
X503449Y26641D01*
X503429Y26643D01*
X503410Y26651D01*
X503244Y26669D01*
X470876Y26669D01*
X470855Y26666D01*
X470820Y26667D01*
X468424Y26490D01*
X467552Y26656D01*
X467525Y26657D01*
X467410Y26669D01*
X466522Y26669D01*
X464203Y27291D01*
X464182Y27293D01*
X464148Y27303D01*
X461788Y27752D01*
X460989Y28138D01*
X460962Y28146D01*
X460855Y28188D01*
X459998Y28418D01*
X457918Y29619D01*
X457898Y29626D01*
X457868Y29645D01*
X457085Y30023D01*
X457002Y30047D01*
X456921Y30080D01*
X456874Y30085D01*
X456850Y30092D01*
X456819Y30091D01*
X456754Y30098D01*
X51246Y30098D01*
X51160Y30084D01*
X51073Y30078D01*
X51028Y30063D01*
X51003Y30059D01*
X50975Y30044D01*
X50915Y30023D01*
X50132Y29645D01*
X50115Y29633D01*
X50082Y29619D01*
X48002Y28418D01*
X47145Y28188D01*
X47120Y28176D01*
X47011Y28138D01*
X46212Y27752D01*
X43852Y27303D01*
X43833Y27296D01*
X43797Y27291D01*
X41478Y26669D01*
X40590Y26669D01*
X40563Y26665D01*
X40448Y26656D01*
X39576Y26490D01*
X37180Y26667D01*
X37160Y26665D01*
X37124Y26669D01*
X4572Y26669D01*
X4552Y26666D01*
X4533Y26668D01*
X4431Y26646D01*
X4329Y26630D01*
X4312Y26620D01*
X4292Y26616D01*
X4203Y26563D01*
X4112Y26514D01*
X4098Y26500D01*
X4081Y26490D01*
X4014Y26411D01*
X3942Y26336D01*
X3934Y26318D01*
X3921Y26303D01*
X3882Y26207D01*
X3839Y26113D01*
X3837Y26093D01*
X3829Y26075D01*
X3811Y25908D01*
X3811Y4572D01*
X3814Y4552D01*
X3812Y4533D01*
X3834Y4431D01*
X3850Y4329D01*
X3860Y4312D01*
X3864Y4292D01*
X3917Y4203D01*
X3966Y4112D01*
X3980Y4098D01*
X3990Y4081D01*
X4069Y4014D01*
X4144Y3942D01*
X4162Y3934D01*
X4177Y3921D01*
X4273Y3882D01*
X4367Y3839D01*
X4387Y3837D01*
X4405Y3829D01*
X4572Y3811D01*
X503231Y3811D01*
X503250Y3814D01*
G37*
G36*
X457366Y300370D02*
X457366Y300370D01*
X457453Y300376D01*
X457498Y300391D01*
X457523Y300395D01*
X457551Y300410D01*
X457611Y300431D01*
X457868Y300555D01*
X457885Y300567D01*
X457918Y300581D01*
X459998Y301782D01*
X460855Y302012D01*
X460880Y302024D01*
X460989Y302062D01*
X461788Y302448D01*
X464148Y302897D01*
X464167Y302904D01*
X464203Y302909D01*
X466522Y303531D01*
X467410Y303531D01*
X467437Y303535D01*
X467552Y303544D01*
X468424Y303710D01*
X470820Y303533D01*
X470840Y303535D01*
X470876Y303531D01*
X503412Y303531D01*
X503432Y303534D01*
X503451Y303532D01*
X503553Y303554D01*
X503655Y303570D01*
X503672Y303580D01*
X503692Y303584D01*
X503781Y303637D01*
X503872Y303686D01*
X503886Y303700D01*
X503903Y303710D01*
X503970Y303789D01*
X504042Y303864D01*
X504050Y303882D01*
X504063Y303897D01*
X504102Y303993D01*
X504145Y304087D01*
X504148Y304107D01*
X504155Y304125D01*
X504174Y304292D01*
X504187Y325628D01*
X504183Y325647D01*
X504185Y325667D01*
X504164Y325768D01*
X504147Y325870D01*
X504138Y325888D01*
X504133Y325908D01*
X504080Y325997D01*
X504032Y326088D01*
X504017Y326102D01*
X504007Y326119D01*
X503928Y326186D01*
X503854Y326257D01*
X503835Y326266D01*
X503820Y326279D01*
X503724Y326318D01*
X503631Y326361D01*
X503611Y326363D01*
X503592Y326371D01*
X503425Y326389D01*
X4572Y326389D01*
X4552Y326386D01*
X4533Y326388D01*
X4431Y326366D01*
X4329Y326350D01*
X4312Y326340D01*
X4292Y326336D01*
X4203Y326283D01*
X4112Y326234D01*
X4098Y326220D01*
X4081Y326210D01*
X4014Y326131D01*
X3942Y326056D01*
X3934Y326038D01*
X3921Y326023D01*
X3882Y325927D01*
X3839Y325833D01*
X3837Y325813D01*
X3829Y325795D01*
X3811Y325628D01*
X3811Y304292D01*
X3814Y304272D01*
X3812Y304253D01*
X3834Y304151D01*
X3850Y304049D01*
X3860Y304032D01*
X3864Y304012D01*
X3917Y303923D01*
X3966Y303832D01*
X3980Y303818D01*
X3990Y303801D01*
X4069Y303734D01*
X4144Y303662D01*
X4162Y303654D01*
X4177Y303641D01*
X4273Y303602D01*
X4367Y303559D01*
X4387Y303557D01*
X4405Y303549D01*
X4572Y303531D01*
X37124Y303531D01*
X37145Y303534D01*
X37180Y303533D01*
X39576Y303710D01*
X40448Y303544D01*
X40475Y303543D01*
X40590Y303531D01*
X41478Y303531D01*
X43797Y302909D01*
X43818Y302907D01*
X43852Y302897D01*
X46212Y302448D01*
X47011Y302062D01*
X47038Y302054D01*
X47145Y302012D01*
X48002Y301782D01*
X50082Y300581D01*
X50102Y300574D01*
X50132Y300555D01*
X50388Y300431D01*
X50472Y300407D01*
X50553Y300374D01*
X50600Y300369D01*
X50624Y300362D01*
X50655Y300363D01*
X50719Y300356D01*
X457281Y300356D01*
X457366Y300370D01*
G37*
G36*
X508002Y283085D02*
X508002Y283085D01*
X508004Y283084D01*
X508047Y283104D01*
X508091Y283122D01*
X508091Y283124D01*
X508093Y283125D01*
X508126Y283210D01*
X508126Y293370D01*
X508125Y293372D01*
X508126Y293374D01*
X508106Y293417D01*
X508088Y293461D01*
X508086Y293461D01*
X508085Y293463D01*
X508000Y293496D01*
X462280Y293496D01*
X462278Y293495D01*
X462276Y293496D01*
X462233Y293476D01*
X462189Y293458D01*
X462189Y293456D01*
X462187Y293455D01*
X462154Y293370D01*
X462154Y283210D01*
X462155Y283208D01*
X462154Y283206D01*
X462174Y283163D01*
X462192Y283119D01*
X462194Y283119D01*
X462195Y283117D01*
X462280Y283084D01*
X508000Y283084D01*
X508002Y283085D01*
G37*
G36*
X45722Y36705D02*
X45722Y36705D01*
X45724Y36704D01*
X45767Y36724D01*
X45811Y36742D01*
X45811Y36744D01*
X45813Y36745D01*
X45846Y36830D01*
X45846Y46990D01*
X45845Y46992D01*
X45846Y46994D01*
X45826Y47037D01*
X45808Y47081D01*
X45806Y47081D01*
X45805Y47083D01*
X45720Y47116D01*
X0Y47116D01*
X-2Y47115D01*
X-4Y47116D01*
X-47Y47096D01*
X-91Y47078D01*
X-91Y47076D01*
X-93Y47075D01*
X-126Y46990D01*
X-126Y36830D01*
X-125Y36828D01*
X-126Y36826D01*
X-106Y36783D01*
X-88Y36739D01*
X-86Y36739D01*
X-85Y36737D01*
X0Y36704D01*
X45720Y36704D01*
X45722Y36705D01*
G37*
G36*
X508002Y36705D02*
X508002Y36705D01*
X508004Y36704D01*
X508047Y36724D01*
X508091Y36742D01*
X508091Y36744D01*
X508093Y36745D01*
X508126Y36830D01*
X508126Y46990D01*
X508125Y46992D01*
X508126Y46994D01*
X508106Y47037D01*
X508088Y47081D01*
X508086Y47081D01*
X508085Y47083D01*
X508000Y47116D01*
X462280Y47116D01*
X462278Y47115D01*
X462276Y47116D01*
X462233Y47096D01*
X462189Y47078D01*
X462189Y47076D01*
X462187Y47075D01*
X462154Y46990D01*
X462154Y36830D01*
X462155Y36828D01*
X462154Y36826D01*
X462174Y36783D01*
X462192Y36739D01*
X462194Y36739D01*
X462195Y36737D01*
X462280Y36704D01*
X508000Y36704D01*
X508002Y36705D01*
G37*
G36*
X45722Y67185D02*
X45722Y67185D01*
X45724Y67184D01*
X45767Y67204D01*
X45811Y67222D01*
X45811Y67224D01*
X45813Y67225D01*
X45846Y67310D01*
X45846Y77470D01*
X45845Y77472D01*
X45846Y77474D01*
X45826Y77517D01*
X45808Y77561D01*
X45806Y77561D01*
X45805Y77563D01*
X45720Y77596D01*
X0Y77596D01*
X-2Y77595D01*
X-4Y77596D01*
X-47Y77576D01*
X-91Y77558D01*
X-91Y77556D01*
X-93Y77555D01*
X-126Y77470D01*
X-126Y67310D01*
X-125Y67308D01*
X-126Y67306D01*
X-106Y67263D01*
X-88Y67219D01*
X-86Y67219D01*
X-85Y67217D01*
X0Y67184D01*
X45720Y67184D01*
X45722Y67185D01*
G37*
G36*
X508002Y67185D02*
X508002Y67185D01*
X508004Y67184D01*
X508047Y67204D01*
X508091Y67222D01*
X508091Y67224D01*
X508093Y67225D01*
X508126Y67310D01*
X508126Y77470D01*
X508125Y77472D01*
X508126Y77474D01*
X508106Y77517D01*
X508088Y77561D01*
X508086Y77561D01*
X508085Y77563D01*
X508000Y77596D01*
X462280Y77596D01*
X462278Y77595D01*
X462276Y77596D01*
X462233Y77576D01*
X462189Y77558D01*
X462189Y77556D01*
X462187Y77555D01*
X462154Y77470D01*
X462154Y67310D01*
X462155Y67308D01*
X462154Y67306D01*
X462174Y67263D01*
X462192Y67219D01*
X462194Y67219D01*
X462195Y67217D01*
X462280Y67184D01*
X508000Y67184D01*
X508002Y67185D01*
G37*
G36*
X508002Y144655D02*
X508002Y144655D01*
X508004Y144654D01*
X508047Y144674D01*
X508091Y144692D01*
X508091Y144694D01*
X508093Y144695D01*
X508126Y144780D01*
X508126Y154940D01*
X508125Y154942D01*
X508126Y154944D01*
X508106Y154987D01*
X508088Y155031D01*
X508086Y155031D01*
X508085Y155033D01*
X508000Y155066D01*
X462280Y155066D01*
X462278Y155065D01*
X462276Y155066D01*
X462233Y155046D01*
X462189Y155028D01*
X462189Y155026D01*
X462187Y155025D01*
X462154Y154940D01*
X462154Y144780D01*
X462155Y144778D01*
X462154Y144776D01*
X462174Y144733D01*
X462192Y144689D01*
X462194Y144689D01*
X462195Y144687D01*
X462280Y144654D01*
X508000Y144654D01*
X508002Y144655D01*
G37*
G36*
X45722Y144655D02*
X45722Y144655D01*
X45724Y144654D01*
X45767Y144674D01*
X45811Y144692D01*
X45811Y144694D01*
X45813Y144695D01*
X45846Y144780D01*
X45846Y154940D01*
X45845Y154942D01*
X45846Y154944D01*
X45826Y154987D01*
X45808Y155031D01*
X45806Y155031D01*
X45805Y155033D01*
X45720Y155066D01*
X0Y155066D01*
X-2Y155065D01*
X-4Y155066D01*
X-47Y155046D01*
X-91Y155028D01*
X-91Y155026D01*
X-93Y155025D01*
X-126Y154940D01*
X-126Y144780D01*
X-125Y144778D01*
X-126Y144776D01*
X-106Y144733D01*
X-88Y144689D01*
X-86Y144689D01*
X-85Y144687D01*
X0Y144654D01*
X45720Y144654D01*
X45722Y144655D01*
G37*
G36*
X508002Y175135D02*
X508002Y175135D01*
X508004Y175134D01*
X508047Y175154D01*
X508091Y175172D01*
X508091Y175174D01*
X508093Y175175D01*
X508126Y175260D01*
X508126Y185420D01*
X508125Y185422D01*
X508126Y185424D01*
X508106Y185467D01*
X508088Y185511D01*
X508086Y185511D01*
X508085Y185513D01*
X508000Y185546D01*
X462280Y185546D01*
X462278Y185545D01*
X462276Y185546D01*
X462233Y185526D01*
X462189Y185508D01*
X462189Y185506D01*
X462187Y185505D01*
X462154Y185420D01*
X462154Y175260D01*
X462155Y175258D01*
X462154Y175256D01*
X462174Y175213D01*
X462192Y175169D01*
X462194Y175169D01*
X462195Y175167D01*
X462280Y175134D01*
X508000Y175134D01*
X508002Y175135D01*
G37*
G36*
X45722Y175135D02*
X45722Y175135D01*
X45724Y175134D01*
X45767Y175154D01*
X45811Y175172D01*
X45811Y175174D01*
X45813Y175175D01*
X45846Y175260D01*
X45846Y185420D01*
X45845Y185422D01*
X45846Y185424D01*
X45826Y185467D01*
X45808Y185511D01*
X45806Y185511D01*
X45805Y185513D01*
X45720Y185546D01*
X0Y185546D01*
X-2Y185545D01*
X-4Y185546D01*
X-47Y185526D01*
X-91Y185508D01*
X-91Y185506D01*
X-93Y185505D01*
X-126Y185420D01*
X-126Y175260D01*
X-125Y175258D01*
X-126Y175256D01*
X-106Y175213D01*
X-88Y175169D01*
X-86Y175169D01*
X-85Y175167D01*
X0Y175134D01*
X45720Y175134D01*
X45722Y175135D01*
G37*
G36*
X45722Y252605D02*
X45722Y252605D01*
X45724Y252604D01*
X45767Y252624D01*
X45811Y252642D01*
X45811Y252644D01*
X45813Y252645D01*
X45846Y252730D01*
X45846Y262890D01*
X45845Y262892D01*
X45846Y262894D01*
X45826Y262937D01*
X45808Y262981D01*
X45806Y262981D01*
X45805Y262983D01*
X45720Y263016D01*
X0Y263016D01*
X-2Y263015D01*
X-4Y263016D01*
X-47Y262996D01*
X-91Y262978D01*
X-91Y262976D01*
X-93Y262975D01*
X-126Y262890D01*
X-126Y252730D01*
X-125Y252728D01*
X-126Y252726D01*
X-106Y252683D01*
X-88Y252639D01*
X-86Y252639D01*
X-85Y252637D01*
X0Y252604D01*
X45720Y252604D01*
X45722Y252605D01*
G37*
G36*
X508002Y252605D02*
X508002Y252605D01*
X508004Y252604D01*
X508047Y252624D01*
X508091Y252642D01*
X508091Y252644D01*
X508093Y252645D01*
X508126Y252730D01*
X508126Y262890D01*
X508125Y262892D01*
X508126Y262894D01*
X508106Y262937D01*
X508088Y262981D01*
X508086Y262981D01*
X508085Y262983D01*
X508000Y263016D01*
X462280Y263016D01*
X462278Y263015D01*
X462276Y263016D01*
X462233Y262996D01*
X462189Y262978D01*
X462189Y262976D01*
X462187Y262975D01*
X462154Y262890D01*
X462154Y252730D01*
X462155Y252728D01*
X462154Y252726D01*
X462174Y252683D01*
X462192Y252639D01*
X462194Y252639D01*
X462195Y252637D01*
X462280Y252604D01*
X508000Y252604D01*
X508002Y252605D01*
G37*
G36*
X45722Y283085D02*
X45722Y283085D01*
X45724Y283084D01*
X45767Y283104D01*
X45811Y283122D01*
X45811Y283124D01*
X45813Y283125D01*
X45846Y283210D01*
X45846Y293370D01*
X45845Y293372D01*
X45846Y293374D01*
X45826Y293417D01*
X45808Y293461D01*
X45806Y293461D01*
X45805Y293463D01*
X45720Y293496D01*
X0Y293496D01*
X-2Y293495D01*
X-4Y293496D01*
X-47Y293476D01*
X-91Y293458D01*
X-91Y293456D01*
X-93Y293455D01*
X-126Y293370D01*
X-126Y283210D01*
X-125Y283208D01*
X-126Y283206D01*
X-106Y283163D01*
X-88Y283119D01*
X-86Y283119D01*
X-85Y283117D01*
X0Y283084D01*
X45720Y283084D01*
X45722Y283085D01*
G37*
G36*
X38131Y160023D02*
X38131Y160023D01*
X38132Y160023D01*
X38210Y160046D01*
X45576Y163602D01*
X45598Y163622D01*
X45626Y163634D01*
X45650Y163668D01*
X45681Y163696D01*
X45689Y163725D01*
X45706Y163750D01*
X45719Y163830D01*
X45719Y166370D01*
X45717Y166379D01*
X45717Y166383D01*
X45712Y166396D01*
X45711Y166399D01*
X45712Y166429D01*
X45692Y166465D01*
X45680Y166505D01*
X45658Y166525D01*
X45643Y166552D01*
X45576Y166598D01*
X45575Y166599D01*
X38210Y170154D01*
X38209Y170154D01*
X38209Y170155D01*
X38138Y170166D01*
X38071Y170178D01*
X38070Y170177D01*
X38069Y170177D01*
X38004Y170149D01*
X37941Y170123D01*
X37940Y170122D01*
X37901Y170066D01*
X37860Y170008D01*
X37860Y170007D01*
X37860Y170006D01*
X37847Y169926D01*
X37847Y160274D01*
X37847Y160273D01*
X37847Y160272D01*
X37867Y160204D01*
X37886Y160139D01*
X37887Y160138D01*
X37887Y160137D01*
X37939Y160092D01*
X37991Y160045D01*
X37992Y160045D01*
X37993Y160044D01*
X38061Y160034D01*
X38131Y160023D01*
X38131Y160023D01*
G37*
G36*
X38131Y52073D02*
X38131Y52073D01*
X38132Y52073D01*
X38210Y52096D01*
X45576Y55652D01*
X45598Y55672D01*
X45626Y55684D01*
X45650Y55718D01*
X45681Y55746D01*
X45689Y55775D01*
X45706Y55800D01*
X45719Y55880D01*
X45719Y58420D01*
X45717Y58429D01*
X45717Y58433D01*
X45712Y58446D01*
X45711Y58449D01*
X45712Y58479D01*
X45692Y58515D01*
X45680Y58555D01*
X45658Y58575D01*
X45643Y58602D01*
X45576Y58648D01*
X45575Y58649D01*
X38210Y62204D01*
X38209Y62204D01*
X38209Y62205D01*
X38138Y62216D01*
X38071Y62228D01*
X38070Y62227D01*
X38069Y62227D01*
X38004Y62199D01*
X37941Y62173D01*
X37940Y62172D01*
X37901Y62116D01*
X37860Y62058D01*
X37860Y62057D01*
X37860Y62056D01*
X37847Y61976D01*
X37847Y52324D01*
X37847Y52323D01*
X37847Y52322D01*
X37867Y52254D01*
X37886Y52189D01*
X37887Y52188D01*
X37887Y52187D01*
X37939Y52142D01*
X37991Y52095D01*
X37992Y52095D01*
X37993Y52094D01*
X38061Y52084D01*
X38131Y52073D01*
X38131Y52073D01*
G37*
G36*
X38131Y267973D02*
X38131Y267973D01*
X38132Y267973D01*
X38210Y267996D01*
X45576Y271552D01*
X45598Y271572D01*
X45626Y271584D01*
X45650Y271618D01*
X45681Y271646D01*
X45689Y271675D01*
X45706Y271700D01*
X45719Y271780D01*
X45719Y274320D01*
X45717Y274329D01*
X45717Y274333D01*
X45712Y274346D01*
X45711Y274349D01*
X45712Y274379D01*
X45692Y274415D01*
X45680Y274455D01*
X45658Y274475D01*
X45643Y274502D01*
X45576Y274548D01*
X45575Y274549D01*
X38210Y278104D01*
X38209Y278104D01*
X38209Y278105D01*
X38138Y278116D01*
X38071Y278128D01*
X38070Y278127D01*
X38069Y278127D01*
X38004Y278099D01*
X37941Y278073D01*
X37940Y278072D01*
X37901Y278016D01*
X37860Y277958D01*
X37860Y277957D01*
X37860Y277956D01*
X37847Y277876D01*
X37847Y268224D01*
X37847Y268223D01*
X37847Y268222D01*
X37867Y268154D01*
X37886Y268089D01*
X37887Y268088D01*
X37887Y268087D01*
X37939Y268042D01*
X37991Y267995D01*
X37992Y267995D01*
X37993Y267994D01*
X38061Y267984D01*
X38131Y267973D01*
X38131Y267973D01*
G37*
G36*
X469930Y160023D02*
X469930Y160023D01*
X469931Y160023D01*
X469996Y160051D01*
X470059Y160077D01*
X470059Y160078D01*
X470060Y160078D01*
X470099Y160134D01*
X470140Y160192D01*
X470140Y160193D01*
X470140Y160194D01*
X470153Y160274D01*
X470153Y169926D01*
X470153Y169927D01*
X470153Y169928D01*
X470133Y169996D01*
X470114Y170061D01*
X470113Y170062D01*
X470113Y170063D01*
X470061Y170108D01*
X470009Y170155D01*
X470008Y170155D01*
X470007Y170156D01*
X469939Y170166D01*
X469869Y170177D01*
X469868Y170177D01*
X469790Y170154D01*
X462424Y166598D01*
X462402Y166578D01*
X462374Y166566D01*
X462350Y166532D01*
X462319Y166504D01*
X462311Y166475D01*
X462294Y166450D01*
X462281Y166370D01*
X462281Y163830D01*
X462289Y163801D01*
X462288Y163771D01*
X462308Y163735D01*
X462320Y163695D01*
X462343Y163675D01*
X462357Y163649D01*
X462424Y163602D01*
X462425Y163601D01*
X469790Y160046D01*
X469791Y160046D01*
X469791Y160045D01*
X469862Y160034D01*
X469929Y160022D01*
X469930Y160023D01*
G37*
G36*
X469930Y52073D02*
X469930Y52073D01*
X469931Y52073D01*
X469996Y52101D01*
X470059Y52127D01*
X470059Y52128D01*
X470060Y52128D01*
X470099Y52184D01*
X470140Y52242D01*
X470140Y52243D01*
X470140Y52244D01*
X470153Y52324D01*
X470153Y61976D01*
X470153Y61977D01*
X470153Y61978D01*
X470133Y62046D01*
X470114Y62111D01*
X470113Y62112D01*
X470113Y62113D01*
X470061Y62158D01*
X470009Y62205D01*
X470008Y62205D01*
X470007Y62206D01*
X469939Y62216D01*
X469869Y62227D01*
X469868Y62227D01*
X469790Y62204D01*
X462424Y58648D01*
X462402Y58628D01*
X462374Y58616D01*
X462350Y58582D01*
X462319Y58554D01*
X462311Y58525D01*
X462294Y58500D01*
X462281Y58420D01*
X462281Y55880D01*
X462289Y55851D01*
X462288Y55821D01*
X462308Y55785D01*
X462320Y55745D01*
X462343Y55725D01*
X462357Y55699D01*
X462424Y55652D01*
X462425Y55651D01*
X469790Y52096D01*
X469791Y52096D01*
X469791Y52095D01*
X469862Y52084D01*
X469929Y52072D01*
X469930Y52073D01*
G37*
G36*
X469930Y267973D02*
X469930Y267973D01*
X469931Y267973D01*
X469996Y268001D01*
X470059Y268027D01*
X470059Y268028D01*
X470060Y268028D01*
X470099Y268084D01*
X470140Y268142D01*
X470140Y268143D01*
X470140Y268144D01*
X470153Y268224D01*
X470153Y277876D01*
X470153Y277877D01*
X470153Y277878D01*
X470133Y277946D01*
X470114Y278011D01*
X470113Y278012D01*
X470113Y278013D01*
X470061Y278058D01*
X470009Y278105D01*
X470008Y278105D01*
X470007Y278106D01*
X469939Y278116D01*
X469869Y278127D01*
X469868Y278127D01*
X469790Y278104D01*
X462424Y274548D01*
X462402Y274528D01*
X462374Y274516D01*
X462350Y274482D01*
X462319Y274454D01*
X462311Y274425D01*
X462294Y274400D01*
X462281Y274320D01*
X462281Y271780D01*
X462289Y271751D01*
X462288Y271721D01*
X462308Y271685D01*
X462320Y271645D01*
X462343Y271625D01*
X462357Y271599D01*
X462424Y271552D01*
X462425Y271551D01*
X469790Y267996D01*
X469791Y267996D01*
X469791Y267995D01*
X469862Y267984D01*
X469929Y267972D01*
X469930Y267973D01*
G37*
D10*
X485140Y90170D03*
X485140Y24130D03*
D11*
X488950Y57150D03*
D12*
X496570Y40640D03*
X496570Y73660D03*
X471170Y40640D03*
X471170Y73660D03*
X496570Y96520D03*
X471170Y96520D03*
X496570Y17780D03*
X471170Y17780D03*
X483870Y17780D03*
X483870Y96520D03*
X483870Y73660D03*
X483870Y40640D03*
D13*
X466090Y45720D03*
X466090Y68580D03*
X466090Y57150D03*
D10*
X22860Y24130D03*
X22860Y90170D03*
D11*
X19050Y57150D03*
D12*
X11430Y73660D03*
X11430Y40640D03*
X36830Y73660D03*
X36830Y40640D03*
X11430Y17780D03*
X36830Y17780D03*
X11430Y96520D03*
X36830Y96520D03*
X24130Y96520D03*
X24130Y17780D03*
X24130Y40640D03*
X24130Y73660D03*
D13*
X41910Y68580D03*
X41910Y45720D03*
X41910Y57150D03*
D10*
X22860Y132080D03*
X22860Y198120D03*
D11*
X19050Y165100D03*
D12*
X11430Y181610D03*
X11430Y148590D03*
X36830Y181610D03*
X36830Y148590D03*
X11430Y125730D03*
X36830Y125730D03*
X11430Y204470D03*
X36830Y204470D03*
X24130Y204470D03*
X24130Y125730D03*
X24130Y148590D03*
X24130Y181610D03*
D13*
X41910Y176530D03*
X41910Y153670D03*
X41910Y165100D03*
D10*
X485140Y198120D03*
X485140Y132080D03*
D11*
X488950Y165100D03*
D12*
X496570Y148590D03*
X496570Y181610D03*
X471170Y148590D03*
X471170Y181610D03*
X496570Y204470D03*
X471170Y204470D03*
X496570Y125730D03*
X471170Y125730D03*
X483870Y125730D03*
X483870Y204470D03*
X483870Y181610D03*
X483870Y148590D03*
D13*
X466090Y153670D03*
X466090Y176530D03*
X466090Y165100D03*
D10*
X22860Y240030D03*
X22860Y306070D03*
D11*
X19050Y273050D03*
D12*
X11430Y289560D03*
X11430Y256540D03*
X36830Y289560D03*
X36830Y256540D03*
X11430Y233680D03*
X36830Y233680D03*
X11430Y312420D03*
X36830Y312420D03*
X24130Y312420D03*
X24130Y233680D03*
X24130Y256540D03*
X24130Y289560D03*
D13*
X41910Y284480D03*
X41910Y261620D03*
X41910Y273050D03*
D10*
X485140Y306070D03*
X485140Y240030D03*
D11*
X488950Y273050D03*
D12*
X496570Y256540D03*
X496570Y289560D03*
X471170Y256540D03*
X471170Y289560D03*
X496570Y312420D03*
X471170Y312420D03*
X496570Y233680D03*
X471170Y233680D03*
X483870Y233680D03*
X483870Y312420D03*
X483870Y289560D03*
X483870Y256540D03*
D13*
X466090Y261620D03*
X466090Y284480D03*
X466090Y273050D03*
D14*
X488950Y57150D02*
X19050Y57150D01*
D15*
X76200Y222250D03*
X101600Y222250D03*
X127000Y222250D03*
X152400Y222250D03*
X177800Y222250D03*
X203200Y222250D03*
X228600Y222250D03*
X254000Y222250D03*
X279400Y222250D03*
X304800Y222250D03*
X330200Y222250D03*
X355600Y222250D03*
X381000Y222250D03*
X406400Y222250D03*
X431800Y222250D03*
X76200Y114300D03*
X101600Y114300D03*
X127000Y114300D03*
X152400Y114300D03*
X177800Y114300D03*
X203200Y114300D03*
X228600Y114300D03*
X254000Y114300D03*
X279400Y114300D03*
X304800Y114300D03*
X330200Y114300D03*
X355600Y114300D03*
X381000Y114300D03*
X406400Y114300D03*
X431800Y114300D03*
X76200Y317500D03*
X101600Y317500D03*
X127000Y317500D03*
X152400Y317500D03*
X177800Y317500D03*
X203200Y317500D03*
X228600Y317500D03*
X254000Y317500D03*
X279400Y317500D03*
X304800Y317500D03*
X330200Y317500D03*
X355600Y317500D03*
X381000Y317500D03*
X406400Y317500D03*
X431800Y317500D03*
X76200Y12700D03*
X101600Y12700D03*
X127000Y12700D03*
X152400Y12700D03*
X177800Y12700D03*
X203200Y12700D03*
X228600Y12700D03*
X254000Y12700D03*
X279400Y12700D03*
X304800Y12700D03*
X330200Y12700D03*
X355600Y12700D03*
X381000Y12700D03*
X406400Y12700D03*
X431800Y12700D03*
X50800Y317500D03*
X50800Y222250D03*
X50800Y114300D03*
X50800Y12700D03*
X457200Y317500D03*
X457200Y222250D03*
X457200Y114300D03*
X457200Y12700D03*
D16*
X488950Y165100D02*
X19050Y165100D01*
D17*
X19050Y273050D02*
X488950Y273050D01*
M02*
