G04 EAGLE Gerber RS-274X export*
G75*
%MOMM*%
%FSLAX34Y34*%
%LPD*%
%INTop Solder Mask*%
%IPPOS*%
%AMOC8*
5,1,8,0,0,1.08239X$1,22.5*%
G01*
%ADD10R,0.927000X0.927000*%
%ADD11R,1.427000X1.027000*%
%ADD12R,0.727000X0.827000*%
%ADD13R,0.527000X0.627000*%
%ADD14C,2.032000*%
%ADD15P,2.886734X8X22.500000*%
%ADD16R,1.077000X1.077000*%
%ADD17R,1.127000X0.727000*%
%ADD18R,2.027000X1.927000*%
%ADD19R,2.027000X2.027000*%
%ADD20R,1.727000X2.227000*%
%ADD21R,1.477000X0.527000*%
%ADD22P,2.226909X8X292.500000*%
%ADD23R,1.397000X1.397000*%


D10*
X148075Y104775D03*
X163075Y104775D03*
X198875Y104775D03*
X213875Y104775D03*
X241300Y86875D03*
X241300Y71875D03*
D11*
X79375Y69875D03*
X79375Y88875D03*
D12*
X268525Y60325D03*
X258525Y60325D03*
D10*
X211575Y53975D03*
X226575Y53975D03*
X163075Y34925D03*
X148075Y34925D03*
D13*
X270025Y87375D03*
X263525Y87375D03*
X257025Y87375D03*
X257025Y71375D03*
X270025Y71375D03*
X263525Y71375D03*
D14*
X314325Y79375D03*
D15*
X288925Y104775D03*
X339725Y104775D03*
X339725Y53975D03*
X288925Y53975D03*
D16*
X258075Y44450D03*
X243575Y44450D03*
X226325Y38100D03*
X211825Y38100D03*
X148325Y50800D03*
X162825Y50800D03*
D17*
X143575Y88875D03*
X143575Y79375D03*
X143575Y69875D03*
X167575Y69875D03*
X167575Y88875D03*
D18*
X14500Y41375D03*
X14500Y117375D03*
D19*
X14500Y67375D03*
X14500Y91375D03*
D20*
X42000Y110375D03*
X42000Y48375D03*
D21*
X43250Y92375D03*
X43250Y85875D03*
X43250Y79375D03*
X43250Y66375D03*
X43250Y72875D03*
D17*
X194375Y88875D03*
X194375Y79375D03*
X194375Y69875D03*
X218375Y69875D03*
X218375Y88875D03*
D22*
X111125Y79375D03*
X111125Y104775D03*
X111125Y53975D03*
D12*
X290750Y85725D03*
X280750Y85725D03*
X280750Y73025D03*
X290750Y73025D03*
G36*
X311864Y65458D02*
X317005Y60317D01*
X311158Y54470D01*
X306017Y59611D01*
X311864Y65458D01*
G37*
G36*
X304792Y72530D02*
X309933Y67389D01*
X304086Y61542D01*
X298945Y66683D01*
X304792Y72530D01*
G37*
D23*
X76200Y139700D03*
X44450Y139700D03*
M02*
