G04 EAGLE Gerber RS-274X export*
G75*
%MOMM*%
%FSLAX34Y34*%
%LPD*%
%INTop Solder Mask*%
%IPPOS*%
%AMOC8*
5,1,8,0,0,1.08239X$1,22.5*%
G01*
%ADD10R,4.699000X2.667000*%
%ADD11R,4.699000X1.143000*%
%ADD12C,0.681000*%


D10*
X974090Y102870D03*
X974090Y36830D03*
D11*
X974090Y69850D03*
D12*
X985520Y109220D03*
X960120Y109220D03*
X985520Y30480D03*
X960120Y30480D03*
X972820Y30480D03*
X972820Y109220D03*
D10*
X22860Y36830D03*
X22860Y102870D03*
D11*
X22860Y69850D03*
D12*
X11430Y30480D03*
X36830Y30480D03*
X11430Y109220D03*
X36830Y109220D03*
X24130Y109220D03*
X24130Y30480D03*
D10*
X974090Y248920D03*
X974090Y182880D03*
D11*
X974090Y215900D03*
D12*
X985520Y255270D03*
X960120Y255270D03*
X985520Y176530D03*
X960120Y176530D03*
X972820Y176530D03*
X972820Y255270D03*
D10*
X22860Y182880D03*
X22860Y248920D03*
D11*
X22860Y215900D03*
D12*
X11430Y176530D03*
X36830Y176530D03*
X11430Y255270D03*
X36830Y255270D03*
X24130Y255270D03*
X24130Y176530D03*
D10*
X974090Y547370D03*
X974090Y481330D03*
D11*
X974090Y514350D03*
D12*
X985520Y553720D03*
X960120Y553720D03*
X985520Y474980D03*
X960120Y474980D03*
X972820Y474980D03*
X972820Y553720D03*
D10*
X22860Y481330D03*
X22860Y547370D03*
D11*
X22860Y514350D03*
D12*
X11430Y474980D03*
X36830Y474980D03*
X11430Y553720D03*
X36830Y553720D03*
X24130Y553720D03*
X24130Y474980D03*
D10*
X974090Y693420D03*
X974090Y627380D03*
D11*
X974090Y660400D03*
D12*
X985520Y699770D03*
X960120Y699770D03*
X985520Y621030D03*
X960120Y621030D03*
X972820Y621030D03*
X972820Y699770D03*
D10*
X22860Y627380D03*
X22860Y693420D03*
D11*
X22860Y660400D03*
D12*
X11430Y621030D03*
X36830Y621030D03*
X11430Y699770D03*
X36830Y699770D03*
X24130Y699770D03*
X24130Y621030D03*
D10*
X22860Y767080D03*
X22860Y833120D03*
D11*
X22860Y800100D03*
D12*
X11430Y760730D03*
X36830Y760730D03*
X11430Y839470D03*
X36830Y839470D03*
X24130Y839470D03*
X24130Y760730D03*
D10*
X974090Y833120D03*
X974090Y767080D03*
D11*
X974090Y800100D03*
D12*
X985520Y839470D03*
X960120Y839470D03*
X985520Y760730D03*
X960120Y760730D03*
X972820Y760730D03*
X972820Y839470D03*
D10*
X22860Y900430D03*
X22860Y966470D03*
D11*
X22860Y933450D03*
D12*
X11430Y894080D03*
X36830Y894080D03*
X11430Y972820D03*
X36830Y972820D03*
X24130Y972820D03*
X24130Y894080D03*
D10*
X974090Y966470D03*
X974090Y900430D03*
D11*
X974090Y933450D03*
D12*
X985520Y972820D03*
X960120Y972820D03*
X985520Y894080D03*
X960120Y894080D03*
X972820Y894080D03*
X972820Y972820D03*
D10*
X22860Y328930D03*
X22860Y394970D03*
D11*
X22860Y361950D03*
D12*
X11430Y322580D03*
X36830Y322580D03*
X11430Y401320D03*
X36830Y401320D03*
X24130Y401320D03*
X24130Y322580D03*
D10*
X974090Y394970D03*
X974090Y328930D03*
D11*
X974090Y361950D03*
D12*
X985520Y401320D03*
X960120Y401320D03*
X985520Y322580D03*
X960120Y322580D03*
X972820Y322580D03*
X972820Y401320D03*
M02*
