M48
;GenerationSoftware,Autodesk,EAGLE,9.4.1*%
;CreationDate,2019-08-11T03:24:28Z*%
FMAT,2
ICI,OFF
METRIC,TZ,000.000
T4C0.300
T3C0.450
T2C1.000
%
G90
M71
T2
X6604Y16002
X6604Y18542
T3
X8255Y14097
X8763Y9652
X6858Y10414
X8255Y14859
X9779Y10414
X7747Y9652
T4
X22987Y1778
X21717Y1778
X22987Y9652
X22987Y7366
X22987Y4064
X24257Y14224
X24257Y17526
X21717Y14224
X21717Y17526
X24257Y19812
X21717Y19812
X24257Y11938
X21717Y11938
X22987Y11938
X22987Y19812
X22987Y17526
X22987Y14224
X1016Y14478
X2286Y11176
X3556Y14478
X3556Y11176
X1016Y8890
X3556Y8890
X1016Y16764
X3556Y16764
X2286Y16764
X2286Y8890
X1016Y11176
X2286Y14478
X24257Y4064
X24257Y7366
X21717Y4064
X21717Y7366
X24257Y9652
X21717Y9652
X24257Y1778
M30