G04 EAGLE Gerber RS-274X export*
G75*
%MOMM*%
%FSLAX34Y34*%
%LPD*%
%INTop Solder Mask*%
%IPPOS*%
%AMOC8*
5,1,8,0,0,1.08239X$1,22.5*%
G01*
%ADD10R,4.699000X2.667000*%
%ADD11R,3.937000X1.143000*%
%ADD12C,0.681000*%
%ADD13R,1.143000X1.143000*%


D10*
X22860Y322580D03*
X22860Y388620D03*
D11*
X19050Y355600D03*
D12*
X11430Y316230D03*
X36830Y316230D03*
X11430Y394970D03*
X36830Y394970D03*
X24130Y394970D03*
X24130Y316230D03*
D10*
X739140Y388620D03*
X739140Y322580D03*
D13*
X756920Y355600D03*
D12*
X750570Y394970D03*
X725170Y394970D03*
X750570Y316230D03*
X725170Y316230D03*
X737870Y316230D03*
X737870Y394970D03*
D10*
X22860Y220980D03*
X22860Y287020D03*
D11*
X19050Y254000D03*
D12*
X11430Y214630D03*
X36830Y214630D03*
X11430Y293370D03*
X36830Y293370D03*
X24130Y293370D03*
X24130Y214630D03*
D10*
X739140Y287020D03*
X739140Y220980D03*
D13*
X756920Y254000D03*
D12*
X750570Y293370D03*
X725170Y293370D03*
X750570Y214630D03*
X725170Y214630D03*
X737870Y214630D03*
X737870Y293370D03*
D10*
X22860Y119380D03*
X22860Y185420D03*
D11*
X19050Y152400D03*
D12*
X11430Y113030D03*
X36830Y113030D03*
X11430Y191770D03*
X36830Y191770D03*
X24130Y191770D03*
X24130Y113030D03*
D10*
X739140Y185420D03*
X739140Y119380D03*
D13*
X756920Y152400D03*
D12*
X750570Y191770D03*
X725170Y191770D03*
X750570Y113030D03*
X725170Y113030D03*
X737870Y113030D03*
X737870Y191770D03*
D10*
X22860Y17780D03*
X22860Y83820D03*
D11*
X19050Y50800D03*
D12*
X11430Y11430D03*
X36830Y11430D03*
X11430Y90170D03*
X36830Y90170D03*
X24130Y90170D03*
X24130Y11430D03*
D10*
X739140Y83820D03*
X739140Y17780D03*
D13*
X756920Y50800D03*
D12*
X750570Y90170D03*
X725170Y90170D03*
X750570Y11430D03*
X725170Y11430D03*
X737870Y11430D03*
X737870Y90170D03*
M02*
