M48
;GenerationSoftware,Autodesk,EAGLE,9.4.1*%
;CreationDate,2019-07-31T04:03:00Z*%
FMAT,2
ICI,OFF
METRIC,TZ,000.000
T3C0.300
T2C0.400
%
G90
M71
T2
X39370Y13970
X8890Y13970
X11430Y13970
X13970Y13970
X16510Y13970
X19050Y13970
X21590Y13970
X24130Y13970
X26670Y13970
X29210Y13970
X31750Y13970
X34290Y13970
X36830Y13970
X6350Y13970
X41910Y13970
X44450Y13970
X46990Y13970
X49530Y13970
X52070Y13970
X54610Y13970
X57150Y13970
X59690Y13970
X62230Y13970
X64770Y13970
X67310Y13970
X69850Y13970
X39370Y16510
X8890Y16510
X11430Y16510
X13970Y16510
X16510Y16510
X19050Y16510
X21590Y16510
X24130Y16510
X26670Y16510
X29210Y16510
X31750Y16510
X34290Y16510
X36830Y16510
X6350Y6350
X41910Y16510
X44450Y16510
X46990Y16510
X49530Y16510
X52070Y16510
X54610Y16510
X57150Y16510
X59690Y16510
X62230Y16510
X64770Y16510
X67310Y16510
X69850Y16510
X39370Y3810
X8890Y3810
X11430Y3810
X13970Y3810
X16510Y3810
X19050Y3810
X21590Y3810
X24130Y3810
X26670Y3810
X29210Y3810
X31750Y3810
X34290Y3810
X36830Y3810
X6350Y3810
X41910Y3810
X44450Y3810
X46990Y3810
X49530Y3810
X52070Y3810
X54610Y3810
X57150Y3810
X59690Y3810
X62230Y3810
X64770Y3810
X67310Y3810
X69850Y3810
X39370Y6350
X8890Y6350
X11430Y6350
X13970Y6350
X16510Y6350
X19050Y6350
X21590Y6350
X24130Y6350
X26670Y6350
X29210Y6350
X31750Y6350
X34290Y6350
X36830Y6350
X8890Y36830
X41910Y6350
X44450Y6350
X46990Y6350
X49530Y6350
X52070Y6350
X54610Y6350
X57150Y6350
X59690Y6350
X62230Y6350
X64770Y6350
X67310Y6350
X69850Y6350
X39370Y34290
X8890Y34290
X11430Y34290
X13970Y34290
X16510Y34290
X19050Y34290
X21590Y34290
X24130Y34290
X26670Y34290
X29210Y34290
X31750Y34290
X34290Y34290
X36830Y34290
X6350Y34290
X41910Y34290
X44450Y34290
X46990Y34290
X49530Y34290
X52070Y34290
X54610Y34290
X57150Y34290
X59690Y34290
X62230Y34290
X64770Y34290
X67310Y34290
X69850Y34290
X39370Y36830
X6350Y36830
X11430Y36830
X13970Y36830
X16510Y36830
X19050Y36830
X21590Y36830
X24130Y36830
X26670Y36830
X29210Y36830
X31750Y36830
X34290Y36830
X36830Y36830
X69850Y24130
X41910Y36830
X44450Y36830
X46990Y36830
X49530Y36830
X52070Y36830
X54610Y36830
X57150Y36830
X59690Y36830
X62230Y36830
X64770Y36830
X67310Y36830
X69850Y36830
X41910Y24130
X8890Y24130
X11430Y24130
X13970Y24130
X16510Y24130
X19050Y24130
X21590Y24130
X24130Y24130
X26670Y24130
X29210Y24130
X31750Y24130
X34290Y24130
X36830Y24130
X39370Y24130
X8890Y26670
X44450Y24130
X46990Y24130
X49530Y24130
X52070Y24130
X54610Y24130
X57150Y24130
X59690Y24130
X62230Y24130
X64770Y24130
X67310Y24130
X6350Y16510
X6350Y26670
X69850Y26670
X6350Y24130
X11430Y26670
X13970Y26670
X16510Y26670
X19050Y26670
X21590Y26670
X24130Y26670
X26670Y26670
X29210Y26670
X31750Y26670
X34290Y26670
X36830Y26670
X41910Y26670
X39370Y26670
X67310Y26670
X64770Y26670
X62230Y26670
X59690Y26670
X57150Y26670
X52070Y26670
X49530Y26670
X46990Y26670
X44450Y26670
X54610Y26670
T3
X75565Y13589
X72263Y16637
X72263Y13843
X75565Y16891
X75057Y19177
X72517Y19177
X75057Y11303
X72517Y11303
X73787Y11303
X73787Y19177
X73914Y16637
X73914Y13843
X2413Y16891
X2413Y13589
X2413Y11303
X2413Y19177
X3683Y19177
X1143Y19177
X3683Y11303
X1143Y11303
X3683Y13589
X3683Y16891
X1143Y13589
X1143Y16891
X75565Y3429
X73914Y3683
X73914Y6477
X73787Y9017
X73787Y1143
X72517Y1143
X75057Y1143
X72517Y9017
X75057Y9017
X75565Y6731
X72263Y3683
X72263Y6477
X1143Y6731
X2413Y6731
X2413Y3429
X2413Y1143
X2413Y9017
X3683Y9017
X1143Y9017
X3683Y1143
X1143Y1143
X3683Y3429
X3683Y6731
X1143Y3429
X2413Y37211
X73914Y36957
X73787Y39497
X73787Y31623
X72517Y31623
X75057Y31623
X72517Y39497
X75057Y39497
X75565Y37211
X72263Y34163
X72263Y36957
X75565Y33909
X73914Y34163
X2413Y33909
X2413Y31623
X2413Y39497
X3683Y39497
X1143Y39497
X3683Y31623
X1143Y31623
X3683Y33909
X3683Y37211
X1143Y33909
X1143Y37211
X2413Y27051
X73914Y26797
X73787Y29337
X73787Y21463
X72517Y21463
X75057Y21463
X72517Y29337
X75057Y29337
X75565Y27051
X72263Y24003
X72263Y26797
X75565Y23749
X73914Y24003
X2413Y23749
X2413Y21463
X2413Y29337
X3683Y29337
X1143Y29337
X3683Y21463
X1143Y21463
X3683Y23749
X3683Y27051
X1143Y23749
X1143Y27051
M30