G04 EAGLE Gerber RS-274X export*
G75*
%MOMM*%
%FSLAX34Y34*%
%LPD*%
%INTop Solder Paste*%
%IPPOS*%
%AMOC8*
5,1,8,0,0,1.08239X$1,22.5*%
G01*
%ADD10R,0.800000X0.800000*%
%ADD11R,1.500000X0.500000*%
%ADD12R,0.500000X1.500000*%
%ADD13R,1.120000X0.580000*%
%ADD14R,0.550000X1.500000*%
%ADD15R,1.500000X0.550000*%
%ADD16R,1.600000X1.300000*%
%ADD17R,0.950000X0.950000*%
%ADD18R,1.270000X1.270000*%
%ADD19R,1.300000X1.300000*%
%ADD20R,3.600000X1.300000*%
%ADD21R,0.900000X1.600000*%
%ADD22R,1.600000X0.900000*%


D10*
X366910Y64770D03*
X351910Y64770D03*
D11*
X264610Y113220D03*
X264610Y105220D03*
X264610Y121220D03*
X264610Y129220D03*
X264610Y137220D03*
X264610Y97220D03*
X264610Y89220D03*
X264610Y81220D03*
X352610Y113220D03*
X352610Y105220D03*
X352610Y121220D03*
X352610Y129220D03*
X352610Y137220D03*
X352610Y97220D03*
X352610Y89220D03*
X352610Y81220D03*
D12*
X304610Y153220D03*
X312610Y153220D03*
X296610Y153220D03*
X288610Y153220D03*
X280610Y153220D03*
X320610Y153220D03*
X328610Y153220D03*
X336610Y153220D03*
X304610Y65220D03*
X312610Y65220D03*
X296610Y65220D03*
X288610Y65220D03*
X280610Y65220D03*
X320610Y65220D03*
X328610Y65220D03*
X336610Y65220D03*
D13*
X726710Y102870D03*
X726710Y115570D03*
X726710Y128270D03*
X726710Y140970D03*
X726710Y90170D03*
X726710Y77470D03*
X726710Y64770D03*
X726710Y52070D03*
X779510Y102870D03*
X779510Y115570D03*
X779510Y128270D03*
X779510Y140970D03*
X779510Y90170D03*
X779510Y77470D03*
X779510Y64770D03*
X779510Y52070D03*
D14*
X314960Y378310D03*
X322960Y378310D03*
X330960Y378310D03*
X338960Y378310D03*
X346960Y378310D03*
X354960Y378310D03*
X306960Y378310D03*
X298960Y378310D03*
X290960Y378310D03*
X282960Y378310D03*
X274960Y378310D03*
X314960Y264310D03*
X322960Y264310D03*
X330960Y264310D03*
X338960Y264310D03*
X346960Y264310D03*
X354960Y264310D03*
X306960Y264310D03*
X298960Y264310D03*
X290960Y264310D03*
X282960Y264310D03*
X274960Y264310D03*
D15*
X371960Y321310D03*
X371960Y329310D03*
X371960Y337310D03*
X371960Y345310D03*
X371960Y353310D03*
X371960Y361310D03*
X371960Y313310D03*
X371960Y305310D03*
X371960Y297310D03*
X371960Y289310D03*
X371960Y281310D03*
X257960Y321310D03*
X257960Y329310D03*
X257960Y337310D03*
X257960Y345310D03*
X257960Y353310D03*
X257960Y361310D03*
X257960Y313310D03*
X257960Y305310D03*
X257960Y297310D03*
X257960Y289310D03*
X257960Y281310D03*
X152070Y128270D03*
X152070Y115570D03*
X152070Y102870D03*
X152070Y90170D03*
X206070Y90170D03*
X206070Y102870D03*
X206070Y115570D03*
X206070Y128270D03*
X456260Y90170D03*
X456260Y102870D03*
X456260Y115570D03*
X456260Y128270D03*
X402260Y128270D03*
X402260Y115570D03*
X402260Y102870D03*
X402260Y90170D03*
X611810Y140970D03*
X611810Y128270D03*
X611810Y115570D03*
X611810Y102870D03*
X665810Y102870D03*
X665810Y115570D03*
X665810Y128270D03*
X665810Y140970D03*
X91770Y130810D03*
X91770Y143510D03*
X91770Y156210D03*
X91770Y168910D03*
X37770Y168910D03*
X37770Y156210D03*
X37770Y143510D03*
X37770Y130810D03*
D16*
X204150Y305870D03*
X164150Y305870D03*
X204150Y280870D03*
X164150Y280870D03*
D15*
X430200Y370840D03*
X430200Y358140D03*
X430200Y345440D03*
X430200Y332740D03*
X484200Y332740D03*
X484200Y345440D03*
X484200Y358140D03*
X484200Y370840D03*
X510210Y140970D03*
X510210Y128270D03*
X510210Y115570D03*
X510210Y102870D03*
X564210Y102870D03*
X564210Y115570D03*
X564210Y128270D03*
X564210Y140970D03*
D17*
X226060Y139330D03*
X226060Y124830D03*
X544830Y71490D03*
X544830Y85990D03*
X527050Y157850D03*
X527050Y172350D03*
X527050Y85990D03*
X527050Y71490D03*
X117740Y53340D03*
X103240Y53340D03*
X117740Y102870D03*
X103240Y102870D03*
X180340Y163460D03*
X180340Y148960D03*
X103240Y86360D03*
X117740Y86360D03*
X103240Y69850D03*
X117740Y69850D03*
X163830Y163460D03*
X163830Y148960D03*
X196850Y148960D03*
X196850Y163460D03*
X245110Y79110D03*
X245110Y93610D03*
X147320Y148960D03*
X147320Y163460D03*
X492390Y140970D03*
X477890Y140970D03*
X647700Y172350D03*
X647700Y157850D03*
X629920Y71490D03*
X629920Y85990D03*
X629920Y157850D03*
X629920Y172350D03*
X243840Y124830D03*
X243840Y139330D03*
X647700Y85990D03*
X647700Y71490D03*
X535040Y375920D03*
X549540Y375920D03*
X535040Y325120D03*
X549540Y325120D03*
X227330Y93610D03*
X227330Y79110D03*
X419100Y58790D03*
X419100Y73290D03*
X435610Y159650D03*
X435610Y145150D03*
X436880Y73290D03*
X436880Y58790D03*
X417830Y145150D03*
X417830Y159650D03*
X544830Y172350D03*
X544830Y157850D03*
D18*
X163830Y255270D03*
X215900Y419100D03*
X176530Y419100D03*
X707390Y151130D03*
X707390Y184150D03*
X205740Y255270D03*
D17*
X254370Y417830D03*
X268870Y417830D03*
X683630Y128270D03*
X698130Y128270D03*
X799200Y128270D03*
X813700Y128270D03*
X799200Y77470D03*
X813700Y77470D03*
X832220Y90170D03*
X846720Y90170D03*
X799200Y102870D03*
X813700Y102870D03*
X830950Y115570D03*
X845450Y115570D03*
X225160Y394970D03*
X239660Y394970D03*
D19*
X58420Y391140D03*
X35420Y391140D03*
X81420Y391140D03*
D20*
X58420Y452140D03*
D19*
X762000Y386060D03*
X739000Y386060D03*
X785000Y386060D03*
D20*
X762000Y447060D03*
D21*
X112020Y364490D03*
X81020Y364490D03*
X27680Y364490D03*
X58680Y364490D03*
X815600Y355600D03*
X784600Y355600D03*
X731260Y355600D03*
X762260Y355600D03*
D10*
X297300Y46990D03*
X312300Y46990D03*
X19050Y157360D03*
X19050Y142360D03*
X681870Y154940D03*
X666870Y154940D03*
X214630Y173870D03*
X214630Y158870D03*
X232410Y173870D03*
X232410Y158870D03*
X228720Y62230D03*
X243720Y62230D03*
X372110Y137040D03*
X372110Y122040D03*
X528440Y54610D03*
X543440Y54610D03*
X419220Y176530D03*
X434220Y176530D03*
X528440Y189230D03*
X543440Y189230D03*
X580270Y153670D03*
X565270Y153670D03*
X632580Y189230D03*
X647580Y189230D03*
X646310Y54610D03*
X631310Y54610D03*
X172720Y194190D03*
X172720Y179190D03*
X72510Y78740D03*
X87510Y78740D03*
X372110Y78860D03*
X372110Y93860D03*
X386200Y76200D03*
X401200Y76200D03*
X178950Y322580D03*
X163950Y322580D03*
X464700Y386080D03*
X449700Y386080D03*
X745610Y157480D03*
X760610Y157480D03*
X391160Y317620D03*
X391160Y332620D03*
X238760Y311270D03*
X238760Y326270D03*
X745610Y173990D03*
X760610Y173990D03*
D22*
X589280Y20060D03*
X589280Y51060D03*
X199390Y373640D03*
X199390Y342640D03*
M02*
