M48
;GenerationSoftware,Autodesk,EAGLE,9.4.1*%
;CreationDate,2019-06-19T17:05:27Z*%
FMAT,2
ICI,OFF
METRIC,TZ,000.000
T3C0.300
T2C0.350
%
G90
M71
T2
X14605Y11430
X22860Y1270
X25400Y1270
X27940Y1270
X30480Y1270
X33020Y1270
X4445Y11430
X6985Y11430
X9525Y11430
X12065Y11430
X7620Y20955
X17145Y11430
X19685Y11430
X22225Y11430
X24765Y11430
X27305Y11430
X29845Y11430
X32385Y11430
X5080Y20955
X17780Y1270
X20320Y1270
X10160Y20955
X12700Y20955
X15240Y20955
X17780Y20955
X20320Y20955
X22860Y20955
X25400Y20955
X30480Y20955
X33020Y20955
X5080Y1270
X7620Y1270
X10160Y1270
X12700Y1270
X15240Y1270
X27940Y20955
T3
X2413Y18161
X2413Y14859
X2413Y12573
X2413Y20447
X3683Y20447
X1143Y20447
X3683Y12573
X1143Y12573
X3683Y14859
X3683Y18161
X1143Y14859
X1143Y18161
X36957Y14859
X36957Y18161
X34417Y14859
X34417Y18161
X36957Y20447
X34417Y20447
X36957Y12573
X34417Y12573
X35687Y12573
X35687Y20447
X35687Y18161
X35687Y14859
X2413Y7366
X1143Y7366
X1143Y4064
X3683Y7366
X3683Y4064
X1143Y1778
X3683Y1778
X1143Y9652
X3683Y9652
X2413Y9652
X2413Y1778
X2413Y4064
X35687Y4064
X36957Y4064
X36957Y7366
X34417Y4064
X34417Y7366
X36957Y9652
X34417Y9652
X36957Y1778
X34417Y1778
X35687Y1778
X35687Y9652
X35687Y7366
M30