G04 EAGLE Gerber RS-274X export*
G75*
%MOMM*%
%FSLAX34Y34*%
%LPD*%
%INSolder side*%
%IPPOS*%
%AMOC8*
5,1,8,0,0,1.08239X$1,22.5*%
G01*
%ADD10C,0.503200*%
%ADD11R,4.572000X9.144000*%
%ADD12C,0.553200*%

G36*
X376448Y3814D02*
X376448Y3814D01*
X376467Y3812D01*
X376569Y3834D01*
X376671Y3850D01*
X376688Y3860D01*
X376708Y3864D01*
X376797Y3917D01*
X376888Y3966D01*
X376902Y3980D01*
X376919Y3990D01*
X376986Y4069D01*
X377058Y4144D01*
X377066Y4162D01*
X377079Y4177D01*
X377118Y4273D01*
X377161Y4367D01*
X377163Y4387D01*
X377171Y4405D01*
X377189Y4572D01*
X377189Y217678D01*
X377186Y217698D01*
X377188Y217717D01*
X377166Y217819D01*
X377150Y217921D01*
X377140Y217938D01*
X377136Y217958D01*
X377083Y218047D01*
X377034Y218138D01*
X377020Y218152D01*
X377010Y218169D01*
X376931Y218236D01*
X376856Y218308D01*
X376838Y218316D01*
X376823Y218329D01*
X376727Y218368D01*
X376633Y218411D01*
X376613Y218413D01*
X376595Y218421D01*
X376428Y218439D01*
X4572Y218439D01*
X4552Y218436D01*
X4533Y218438D01*
X4431Y218416D01*
X4329Y218400D01*
X4312Y218390D01*
X4292Y218386D01*
X4203Y218333D01*
X4112Y218284D01*
X4098Y218270D01*
X4081Y218260D01*
X4014Y218181D01*
X3942Y218106D01*
X3934Y218088D01*
X3921Y218073D01*
X3882Y217977D01*
X3839Y217883D01*
X3837Y217863D01*
X3829Y217845D01*
X3811Y217678D01*
X3811Y4572D01*
X3814Y4552D01*
X3812Y4533D01*
X3834Y4431D01*
X3850Y4329D01*
X3860Y4312D01*
X3864Y4292D01*
X3917Y4203D01*
X3966Y4112D01*
X3980Y4098D01*
X3990Y4081D01*
X4069Y4014D01*
X4144Y3942D01*
X4162Y3934D01*
X4177Y3921D01*
X4273Y3882D01*
X4367Y3839D01*
X4387Y3837D01*
X4405Y3829D01*
X4572Y3811D01*
X376428Y3811D01*
X376448Y3814D01*
G37*
D10*
X11430Y73660D03*
X11430Y40640D03*
X36830Y73660D03*
X36830Y40640D03*
X11430Y17780D03*
X36830Y17780D03*
X11430Y96520D03*
X36830Y96520D03*
X24130Y96520D03*
X24130Y17780D03*
X24130Y40640D03*
X24130Y73660D03*
D11*
X22860Y57150D03*
D10*
X369570Y40640D03*
X369570Y73660D03*
X344170Y40640D03*
X344170Y73660D03*
X369570Y96520D03*
X344170Y96520D03*
X369570Y17780D03*
X344170Y17780D03*
X356870Y17780D03*
X356870Y96520D03*
X356870Y73660D03*
X356870Y40640D03*
D11*
X358140Y57150D03*
D10*
X11430Y181610D03*
X11430Y148590D03*
X36830Y181610D03*
X36830Y148590D03*
X11430Y125730D03*
X36830Y125730D03*
X11430Y204470D03*
X36830Y204470D03*
X24130Y204470D03*
X24130Y125730D03*
X24130Y148590D03*
X24130Y181610D03*
D11*
X22860Y165100D03*
D10*
X369570Y148590D03*
X369570Y181610D03*
X344170Y148590D03*
X344170Y181610D03*
X369570Y204470D03*
X344170Y204470D03*
X369570Y125730D03*
X344170Y125730D03*
X356870Y125730D03*
X356870Y204470D03*
X356870Y181610D03*
X356870Y148590D03*
D11*
X358140Y165100D03*
D12*
X50800Y209550D03*
X76200Y209550D03*
X101600Y209550D03*
X127000Y209550D03*
X152400Y209550D03*
X177800Y209550D03*
X203200Y209550D03*
X228600Y209550D03*
X254000Y209550D03*
X279400Y209550D03*
X304800Y209550D03*
X330200Y209550D03*
X50800Y12700D03*
X76200Y12700D03*
X101600Y12700D03*
X127000Y12700D03*
X152400Y12700D03*
X177800Y12700D03*
X203200Y12700D03*
X228600Y12700D03*
X254000Y12700D03*
X279400Y12700D03*
X304800Y12700D03*
X330200Y12700D03*
X44450Y114300D03*
X69850Y114300D03*
X95250Y114300D03*
X120650Y114300D03*
X146050Y114300D03*
X171450Y114300D03*
X196850Y114300D03*
X222250Y114300D03*
X247650Y114300D03*
X273050Y114300D03*
X298450Y114300D03*
X323850Y114300D03*
M02*
