G04 EAGLE Gerber RS-274X export*
G75*
%MOMM*%
%FSLAX34Y34*%
%LPD*%
%INSilkscreen Bottom*%
%IPPOS*%
%AMOC8*
5,1,8,0,0,1.08239X$1,22.5*%
G01*
%ADD10C,0.254000*%


D10*
X137922Y76200D02*
X137944Y77958D01*
X138008Y79715D01*
X138116Y81469D01*
X138267Y83221D01*
X138461Y84968D01*
X138697Y86710D01*
X138977Y88446D01*
X139298Y90174D01*
X139662Y91894D01*
X140069Y93604D01*
X140517Y95304D01*
X141006Y96993D01*
X141537Y98668D01*
X142109Y100331D01*
X142722Y101979D01*
X143374Y103611D01*
X144067Y105227D01*
X144799Y106825D01*
X145570Y108405D01*
X146380Y109965D01*
X147227Y111505D01*
X148113Y113024D01*
X149035Y114521D01*
X149993Y115994D01*
X150988Y117444D01*
X152018Y118869D01*
X153082Y120268D01*
X154181Y121640D01*
X155313Y122985D01*
X156477Y124302D01*
X157674Y125590D01*
X158901Y126849D01*
X160160Y128076D01*
X161448Y129273D01*
X162765Y130437D01*
X164110Y131569D01*
X165482Y132668D01*
X166881Y133732D01*
X168306Y134762D01*
X169756Y135757D01*
X171229Y136715D01*
X172726Y137637D01*
X174245Y138523D01*
X175785Y139370D01*
X177345Y140180D01*
X178925Y140951D01*
X180523Y141683D01*
X182139Y142376D01*
X183771Y143028D01*
X185419Y143641D01*
X187082Y144213D01*
X188757Y144744D01*
X190446Y145233D01*
X192146Y145681D01*
X193856Y146088D01*
X195576Y146452D01*
X197304Y146773D01*
X199040Y147053D01*
X200782Y147289D01*
X202529Y147483D01*
X204281Y147634D01*
X206035Y147742D01*
X207792Y147806D01*
X209550Y147828D01*
X211308Y147806D01*
X213065Y147742D01*
X214819Y147634D01*
X216571Y147483D01*
X218318Y147289D01*
X220060Y147053D01*
X221796Y146773D01*
X223524Y146452D01*
X225244Y146088D01*
X226954Y145681D01*
X228654Y145233D01*
X230343Y144744D01*
X232018Y144213D01*
X233681Y143641D01*
X235329Y143028D01*
X236961Y142376D01*
X238577Y141683D01*
X240175Y140951D01*
X241755Y140180D01*
X243315Y139370D01*
X244855Y138523D01*
X246374Y137637D01*
X247871Y136715D01*
X249344Y135757D01*
X250794Y134762D01*
X252219Y133732D01*
X253618Y132668D01*
X254990Y131569D01*
X256335Y130437D01*
X257652Y129273D01*
X258940Y128076D01*
X260199Y126849D01*
X261426Y125590D01*
X262623Y124302D01*
X263787Y122985D01*
X264919Y121640D01*
X266018Y120268D01*
X267082Y118869D01*
X268112Y117444D01*
X269107Y115994D01*
X270065Y114521D01*
X270987Y113024D01*
X271873Y111505D01*
X272720Y109965D01*
X273530Y108405D01*
X274301Y106825D01*
X275033Y105227D01*
X275726Y103611D01*
X276378Y101979D01*
X276991Y100331D01*
X277563Y98668D01*
X278094Y96993D01*
X278583Y95304D01*
X279031Y93604D01*
X279438Y91894D01*
X279802Y90174D01*
X280123Y88446D01*
X280403Y86710D01*
X280639Y84968D01*
X280833Y83221D01*
X280984Y81469D01*
X281092Y79715D01*
X281156Y77958D01*
X281178Y76200D01*
X281156Y74442D01*
X281092Y72685D01*
X280984Y70931D01*
X280833Y69179D01*
X280639Y67432D01*
X280403Y65690D01*
X280123Y63954D01*
X279802Y62226D01*
X279438Y60506D01*
X279031Y58796D01*
X278583Y57096D01*
X278094Y55407D01*
X277563Y53732D01*
X276991Y52069D01*
X276378Y50421D01*
X275726Y48789D01*
X275033Y47173D01*
X274301Y45575D01*
X273530Y43995D01*
X272720Y42435D01*
X271873Y40895D01*
X270987Y39376D01*
X270065Y37879D01*
X269107Y36406D01*
X268112Y34956D01*
X267082Y33531D01*
X266018Y32132D01*
X264919Y30760D01*
X263787Y29415D01*
X262623Y28098D01*
X261426Y26810D01*
X260199Y25551D01*
X258940Y24324D01*
X257652Y23127D01*
X256335Y21963D01*
X254990Y20831D01*
X253618Y19732D01*
X252219Y18668D01*
X250794Y17638D01*
X249344Y16643D01*
X247871Y15685D01*
X246374Y14763D01*
X244855Y13877D01*
X243315Y13030D01*
X241755Y12220D01*
X240175Y11449D01*
X238577Y10717D01*
X236961Y10024D01*
X235329Y9372D01*
X233681Y8759D01*
X232018Y8187D01*
X230343Y7656D01*
X228654Y7167D01*
X226954Y6719D01*
X225244Y6312D01*
X223524Y5948D01*
X221796Y5627D01*
X220060Y5347D01*
X218318Y5111D01*
X216571Y4917D01*
X214819Y4766D01*
X213065Y4658D01*
X211308Y4594D01*
X209550Y4572D01*
X207792Y4594D01*
X206035Y4658D01*
X204281Y4766D01*
X202529Y4917D01*
X200782Y5111D01*
X199040Y5347D01*
X197304Y5627D01*
X195576Y5948D01*
X193856Y6312D01*
X192146Y6719D01*
X190446Y7167D01*
X188757Y7656D01*
X187082Y8187D01*
X185419Y8759D01*
X183771Y9372D01*
X182139Y10024D01*
X180523Y10717D01*
X178925Y11449D01*
X177345Y12220D01*
X175785Y13030D01*
X174245Y13877D01*
X172726Y14763D01*
X171229Y15685D01*
X169756Y16643D01*
X168306Y17638D01*
X166881Y18668D01*
X165482Y19732D01*
X164110Y20831D01*
X162765Y21963D01*
X161448Y23127D01*
X160160Y24324D01*
X158901Y25551D01*
X157674Y26810D01*
X156477Y28098D01*
X155313Y29415D01*
X154181Y30760D01*
X153082Y32132D01*
X152018Y33531D01*
X150988Y34956D01*
X149993Y36406D01*
X149035Y37879D01*
X148113Y39376D01*
X147227Y40895D01*
X146380Y42435D01*
X145570Y43995D01*
X144799Y45575D01*
X144067Y47173D01*
X143374Y48789D01*
X142722Y50421D01*
X142109Y52069D01*
X141537Y53732D01*
X141006Y55407D01*
X140517Y57096D01*
X140069Y58796D01*
X139662Y60506D01*
X139298Y62226D01*
X138977Y63954D01*
X138697Y65690D01*
X138461Y67432D01*
X138267Y69179D01*
X138116Y70931D01*
X138008Y72685D01*
X137944Y74442D01*
X137922Y76200D01*
M02*
