G04 EAGLE Gerber RS-274X export*
G75*
%MOMM*%
%FSLAX34Y34*%
%LPD*%
%INTop Silkscreen *%
%IPPOS*%
%AMOC8*
5,1,8,0,0,1.08239X$1,22.5*%
G01*
%ADD10C,0.152400*%
%ADD11C,0.101600*%
%ADD12C,0.127000*%


D10*
X59182Y71882D02*
X62286Y71882D01*
X62397Y71884D01*
X62507Y71890D01*
X62618Y71900D01*
X62728Y71914D01*
X62837Y71931D01*
X62946Y71953D01*
X63054Y71978D01*
X63160Y72008D01*
X63266Y72041D01*
X63371Y72078D01*
X63474Y72118D01*
X63575Y72163D01*
X63675Y72210D01*
X63774Y72262D01*
X63870Y72317D01*
X63964Y72375D01*
X64056Y72436D01*
X64146Y72501D01*
X64234Y72569D01*
X64319Y72640D01*
X64401Y72714D01*
X64481Y72791D01*
X64558Y72871D01*
X64632Y72953D01*
X64703Y73038D01*
X64771Y73126D01*
X64836Y73216D01*
X64897Y73308D01*
X64955Y73402D01*
X65010Y73498D01*
X65062Y73597D01*
X65109Y73697D01*
X65154Y73798D01*
X65194Y73901D01*
X65231Y74006D01*
X65264Y74112D01*
X65294Y74218D01*
X65319Y74326D01*
X65341Y74435D01*
X65358Y74544D01*
X65372Y74654D01*
X65382Y74765D01*
X65388Y74875D01*
X65390Y74986D01*
X65388Y75097D01*
X65382Y75207D01*
X65372Y75318D01*
X65358Y75428D01*
X65341Y75537D01*
X65319Y75646D01*
X65294Y75754D01*
X65264Y75860D01*
X65231Y75966D01*
X65194Y76071D01*
X65154Y76174D01*
X65109Y76275D01*
X65062Y76375D01*
X65010Y76474D01*
X64955Y76570D01*
X64897Y76664D01*
X64836Y76756D01*
X64771Y76846D01*
X64703Y76934D01*
X64632Y77019D01*
X64558Y77101D01*
X64481Y77181D01*
X64401Y77258D01*
X64319Y77332D01*
X64234Y77403D01*
X64146Y77471D01*
X64056Y77536D01*
X63964Y77597D01*
X63870Y77655D01*
X63774Y77710D01*
X63675Y77762D01*
X63575Y77809D01*
X63474Y77854D01*
X63371Y77894D01*
X63266Y77931D01*
X63160Y77964D01*
X63054Y77994D01*
X62946Y78019D01*
X62837Y78041D01*
X62728Y78058D01*
X62618Y78072D01*
X62507Y78082D01*
X62397Y78088D01*
X62286Y78090D01*
X62907Y83058D02*
X59182Y83058D01*
X62907Y83058D02*
X63006Y83056D01*
X63104Y83050D01*
X63203Y83040D01*
X63300Y83027D01*
X63398Y83009D01*
X63494Y82988D01*
X63590Y82962D01*
X63684Y82933D01*
X63777Y82901D01*
X63869Y82864D01*
X63959Y82824D01*
X64048Y82780D01*
X64135Y82733D01*
X64220Y82683D01*
X64302Y82629D01*
X64383Y82572D01*
X64461Y82512D01*
X64537Y82448D01*
X64610Y82382D01*
X64681Y82313D01*
X64749Y82241D01*
X64813Y82166D01*
X64875Y82089D01*
X64934Y82010D01*
X64989Y81928D01*
X65042Y81844D01*
X65090Y81759D01*
X65136Y81671D01*
X65178Y81581D01*
X65216Y81490D01*
X65250Y81398D01*
X65281Y81304D01*
X65308Y81209D01*
X65332Y81113D01*
X65351Y81016D01*
X65367Y80919D01*
X65379Y80821D01*
X65387Y80722D01*
X65391Y80623D01*
X65391Y80525D01*
X65387Y80426D01*
X65379Y80327D01*
X65367Y80229D01*
X65351Y80132D01*
X65332Y80035D01*
X65308Y79939D01*
X65281Y79844D01*
X65250Y79750D01*
X65216Y79658D01*
X65178Y79567D01*
X65136Y79477D01*
X65090Y79389D01*
X65042Y79304D01*
X64989Y79220D01*
X64934Y79138D01*
X64875Y79059D01*
X64813Y78982D01*
X64749Y78907D01*
X64681Y78835D01*
X64610Y78766D01*
X64537Y78700D01*
X64461Y78636D01*
X64383Y78576D01*
X64302Y78519D01*
X64220Y78465D01*
X64135Y78415D01*
X64048Y78368D01*
X63959Y78324D01*
X63869Y78284D01*
X63777Y78247D01*
X63684Y78215D01*
X63590Y78186D01*
X63494Y78160D01*
X63398Y78139D01*
X63300Y78121D01*
X63203Y78108D01*
X63104Y78098D01*
X63006Y78092D01*
X62907Y78090D01*
X62907Y78091D02*
X60424Y78091D01*
X70090Y71882D02*
X75057Y79333D01*
X70090Y79333D02*
X75057Y71882D01*
X79756Y80574D02*
X82860Y83058D01*
X82860Y71882D01*
X79756Y71882D02*
X85965Y71882D01*
X91186Y71882D02*
X94911Y71882D01*
X95009Y71884D01*
X95106Y71890D01*
X95203Y71899D01*
X95300Y71913D01*
X95396Y71930D01*
X95491Y71951D01*
X95585Y71975D01*
X95679Y72004D01*
X95771Y72036D01*
X95862Y72071D01*
X95951Y72110D01*
X96039Y72153D01*
X96125Y72199D01*
X96209Y72248D01*
X96291Y72301D01*
X96371Y72356D01*
X96449Y72415D01*
X96524Y72477D01*
X96597Y72542D01*
X96667Y72610D01*
X96735Y72680D01*
X96800Y72753D01*
X96862Y72828D01*
X96921Y72906D01*
X96976Y72986D01*
X97029Y73068D01*
X97078Y73152D01*
X97124Y73238D01*
X97167Y73326D01*
X97206Y73415D01*
X97241Y73506D01*
X97273Y73598D01*
X97302Y73692D01*
X97326Y73786D01*
X97347Y73881D01*
X97364Y73977D01*
X97378Y74074D01*
X97387Y74171D01*
X97393Y74268D01*
X97395Y74366D01*
X97395Y75607D01*
X97393Y75705D01*
X97387Y75802D01*
X97378Y75899D01*
X97364Y75996D01*
X97347Y76092D01*
X97326Y76187D01*
X97302Y76281D01*
X97273Y76375D01*
X97241Y76467D01*
X97206Y76558D01*
X97167Y76647D01*
X97124Y76735D01*
X97078Y76821D01*
X97029Y76905D01*
X96976Y76987D01*
X96921Y77067D01*
X96862Y77145D01*
X96800Y77220D01*
X96735Y77293D01*
X96667Y77363D01*
X96597Y77431D01*
X96524Y77496D01*
X96449Y77558D01*
X96371Y77617D01*
X96291Y77672D01*
X96209Y77725D01*
X96125Y77774D01*
X96039Y77820D01*
X95951Y77863D01*
X95862Y77902D01*
X95771Y77937D01*
X95679Y77969D01*
X95585Y77998D01*
X95491Y78022D01*
X95396Y78043D01*
X95300Y78060D01*
X95203Y78074D01*
X95106Y78083D01*
X95009Y78089D01*
X94911Y78091D01*
X91186Y78091D01*
X91186Y83058D01*
X97395Y83058D01*
X103547Y81506D02*
X103453Y81307D01*
X103364Y81106D01*
X103280Y80903D01*
X103200Y80698D01*
X103126Y80491D01*
X103056Y80283D01*
X102991Y80073D01*
X102932Y79861D01*
X102877Y79648D01*
X102828Y79434D01*
X102783Y79218D01*
X102744Y79002D01*
X102710Y78785D01*
X102682Y78567D01*
X102658Y78348D01*
X102640Y78129D01*
X102626Y77910D01*
X102619Y77690D01*
X102616Y77470D01*
X103547Y81506D02*
X103580Y81595D01*
X103616Y81683D01*
X103656Y81769D01*
X103699Y81854D01*
X103746Y81936D01*
X103797Y82017D01*
X103850Y82095D01*
X103907Y82171D01*
X103967Y82245D01*
X104030Y82316D01*
X104095Y82385D01*
X104164Y82451D01*
X104235Y82513D01*
X104309Y82573D01*
X104385Y82630D01*
X104463Y82684D01*
X104544Y82734D01*
X104626Y82781D01*
X104711Y82824D01*
X104797Y82864D01*
X104885Y82901D01*
X104974Y82933D01*
X105064Y82962D01*
X105156Y82988D01*
X105248Y83009D01*
X105342Y83027D01*
X105436Y83040D01*
X105530Y83050D01*
X105625Y83056D01*
X105720Y83058D01*
X105815Y83056D01*
X105910Y83050D01*
X106004Y83040D01*
X106098Y83027D01*
X106192Y83009D01*
X106284Y82988D01*
X106376Y82962D01*
X106466Y82933D01*
X106555Y82901D01*
X106643Y82864D01*
X106729Y82824D01*
X106814Y82781D01*
X106896Y82734D01*
X106977Y82684D01*
X107055Y82630D01*
X107131Y82573D01*
X107205Y82513D01*
X107276Y82451D01*
X107345Y82385D01*
X107410Y82316D01*
X107473Y82245D01*
X107533Y82171D01*
X107590Y82095D01*
X107643Y82017D01*
X107694Y81936D01*
X107741Y81853D01*
X107784Y81769D01*
X107824Y81683D01*
X107860Y81595D01*
X107893Y81506D01*
X107894Y81506D02*
X107988Y81307D01*
X108077Y81106D01*
X108161Y80903D01*
X108241Y80698D01*
X108315Y80491D01*
X108385Y80283D01*
X108450Y80073D01*
X108509Y79861D01*
X108564Y79648D01*
X108613Y79434D01*
X108658Y79218D01*
X108697Y79002D01*
X108731Y78785D01*
X108759Y78567D01*
X108783Y78348D01*
X108801Y78129D01*
X108815Y77910D01*
X108822Y77690D01*
X108825Y77470D01*
X102616Y77470D02*
X102619Y77250D01*
X102626Y77030D01*
X102640Y76811D01*
X102658Y76592D01*
X102682Y76373D01*
X102710Y76155D01*
X102744Y75938D01*
X102783Y75722D01*
X102828Y75506D01*
X102877Y75292D01*
X102932Y75079D01*
X102991Y74868D01*
X103056Y74657D01*
X103126Y74449D01*
X103200Y74242D01*
X103280Y74037D01*
X103364Y73834D01*
X103453Y73633D01*
X103547Y73434D01*
X103580Y73345D01*
X103616Y73257D01*
X103656Y73171D01*
X103699Y73086D01*
X103746Y73004D01*
X103797Y72923D01*
X103850Y72845D01*
X103907Y72769D01*
X103967Y72695D01*
X104030Y72624D01*
X104095Y72555D01*
X104164Y72489D01*
X104235Y72427D01*
X104309Y72367D01*
X104385Y72310D01*
X104463Y72256D01*
X104544Y72206D01*
X104626Y72159D01*
X104711Y72116D01*
X104797Y72076D01*
X104885Y72039D01*
X104974Y72007D01*
X105064Y71978D01*
X105156Y71952D01*
X105248Y71931D01*
X105342Y71913D01*
X105436Y71900D01*
X105530Y71890D01*
X105625Y71884D01*
X105720Y71882D01*
X107894Y73434D02*
X107988Y73633D01*
X108077Y73834D01*
X108161Y74037D01*
X108241Y74242D01*
X108315Y74449D01*
X108385Y74657D01*
X108450Y74867D01*
X108509Y75079D01*
X108564Y75292D01*
X108613Y75506D01*
X108658Y75722D01*
X108697Y75938D01*
X108731Y76155D01*
X108759Y76373D01*
X108783Y76592D01*
X108801Y76811D01*
X108815Y77030D01*
X108822Y77250D01*
X108825Y77470D01*
X107893Y73434D02*
X107860Y73345D01*
X107824Y73257D01*
X107784Y73171D01*
X107741Y73086D01*
X107694Y73004D01*
X107643Y72923D01*
X107590Y72845D01*
X107533Y72769D01*
X107473Y72695D01*
X107410Y72624D01*
X107345Y72555D01*
X107276Y72489D01*
X107205Y72427D01*
X107131Y72367D01*
X107055Y72310D01*
X106977Y72256D01*
X106896Y72206D01*
X106814Y72159D01*
X106729Y72116D01*
X106643Y72076D01*
X106555Y72039D01*
X106466Y72007D01*
X106376Y71978D01*
X106284Y71952D01*
X106192Y71931D01*
X106098Y71913D01*
X106004Y71900D01*
X105910Y71890D01*
X105815Y71884D01*
X105720Y71882D01*
X103237Y74366D02*
X108204Y80574D01*
X114519Y83058D02*
X114519Y71882D01*
X114519Y83058D02*
X117623Y83058D01*
X117734Y83056D01*
X117844Y83050D01*
X117955Y83040D01*
X118065Y83026D01*
X118174Y83009D01*
X118283Y82987D01*
X118391Y82962D01*
X118497Y82932D01*
X118603Y82899D01*
X118708Y82862D01*
X118811Y82822D01*
X118912Y82777D01*
X119012Y82730D01*
X119111Y82678D01*
X119207Y82623D01*
X119301Y82565D01*
X119393Y82504D01*
X119483Y82439D01*
X119571Y82371D01*
X119656Y82300D01*
X119738Y82226D01*
X119818Y82149D01*
X119895Y82069D01*
X119969Y81987D01*
X120040Y81902D01*
X120108Y81814D01*
X120173Y81724D01*
X120234Y81632D01*
X120292Y81538D01*
X120347Y81442D01*
X120399Y81343D01*
X120446Y81243D01*
X120491Y81142D01*
X120531Y81039D01*
X120568Y80934D01*
X120601Y80828D01*
X120631Y80722D01*
X120656Y80614D01*
X120678Y80505D01*
X120695Y80396D01*
X120709Y80286D01*
X120719Y80175D01*
X120725Y80065D01*
X120727Y79954D01*
X120725Y79843D01*
X120719Y79733D01*
X120709Y79622D01*
X120695Y79512D01*
X120678Y79403D01*
X120656Y79294D01*
X120631Y79186D01*
X120601Y79080D01*
X120568Y78974D01*
X120531Y78869D01*
X120491Y78766D01*
X120446Y78665D01*
X120399Y78565D01*
X120347Y78466D01*
X120292Y78370D01*
X120234Y78276D01*
X120173Y78184D01*
X120108Y78094D01*
X120040Y78006D01*
X119969Y77921D01*
X119895Y77839D01*
X119818Y77759D01*
X119738Y77682D01*
X119656Y77608D01*
X119571Y77537D01*
X119483Y77469D01*
X119393Y77404D01*
X119301Y77343D01*
X119207Y77285D01*
X119111Y77230D01*
X119012Y77178D01*
X118912Y77131D01*
X118811Y77086D01*
X118708Y77046D01*
X118603Y77009D01*
X118497Y76976D01*
X118391Y76946D01*
X118283Y76921D01*
X118174Y76899D01*
X118065Y76882D01*
X117955Y76868D01*
X117844Y76858D01*
X117734Y76852D01*
X117623Y76850D01*
X117623Y76849D02*
X114519Y76849D01*
X118244Y76849D02*
X120728Y71882D01*
X131572Y83058D02*
X137781Y83058D01*
X131572Y71882D01*
X137781Y71882D01*
X155126Y68157D02*
X155126Y79333D01*
X158231Y79333D01*
X158315Y79331D01*
X158398Y79326D01*
X158481Y79316D01*
X158564Y79303D01*
X158646Y79286D01*
X158727Y79266D01*
X158807Y79242D01*
X158886Y79214D01*
X158963Y79183D01*
X159039Y79149D01*
X159114Y79111D01*
X159187Y79069D01*
X159257Y79025D01*
X159326Y78977D01*
X159393Y78927D01*
X159457Y78873D01*
X159518Y78817D01*
X159578Y78757D01*
X159634Y78696D01*
X159688Y78632D01*
X159738Y78565D01*
X159786Y78496D01*
X159830Y78426D01*
X159872Y78353D01*
X159910Y78278D01*
X159944Y78202D01*
X159975Y78125D01*
X160003Y78046D01*
X160027Y77966D01*
X160047Y77885D01*
X160064Y77803D01*
X160077Y77720D01*
X160087Y77637D01*
X160092Y77554D01*
X160094Y77470D01*
X160093Y77470D02*
X160093Y73745D01*
X160094Y73745D02*
X160092Y73659D01*
X160086Y73573D01*
X160076Y73488D01*
X160062Y73403D01*
X160045Y73318D01*
X160023Y73235D01*
X159997Y73153D01*
X159968Y73072D01*
X159935Y72993D01*
X159899Y72915D01*
X159859Y72838D01*
X159815Y72764D01*
X159768Y72692D01*
X159718Y72622D01*
X159664Y72555D01*
X159608Y72490D01*
X159548Y72428D01*
X159486Y72368D01*
X159421Y72312D01*
X159354Y72258D01*
X159284Y72208D01*
X159212Y72161D01*
X159138Y72117D01*
X159061Y72077D01*
X158984Y72041D01*
X158904Y72008D01*
X158823Y71979D01*
X158741Y71953D01*
X158658Y71931D01*
X158573Y71914D01*
X158488Y71900D01*
X158403Y71890D01*
X158317Y71884D01*
X158231Y71882D01*
X155126Y71882D01*
X165423Y71882D02*
X165423Y79333D01*
X169148Y79333D01*
X169148Y78091D01*
X172960Y76849D02*
X172960Y74366D01*
X172959Y76849D02*
X172961Y76948D01*
X172967Y77046D01*
X172977Y77145D01*
X172990Y77242D01*
X173008Y77340D01*
X173029Y77436D01*
X173055Y77532D01*
X173084Y77626D01*
X173116Y77719D01*
X173153Y77811D01*
X173193Y77901D01*
X173237Y77990D01*
X173284Y78077D01*
X173334Y78162D01*
X173388Y78244D01*
X173445Y78325D01*
X173505Y78403D01*
X173569Y78479D01*
X173635Y78552D01*
X173704Y78623D01*
X173776Y78691D01*
X173851Y78755D01*
X173928Y78817D01*
X174007Y78876D01*
X174089Y78931D01*
X174173Y78984D01*
X174258Y79032D01*
X174346Y79078D01*
X174436Y79120D01*
X174527Y79158D01*
X174619Y79192D01*
X174713Y79223D01*
X174808Y79250D01*
X174904Y79274D01*
X175001Y79293D01*
X175098Y79309D01*
X175196Y79321D01*
X175295Y79329D01*
X175394Y79333D01*
X175492Y79333D01*
X175591Y79329D01*
X175690Y79321D01*
X175788Y79309D01*
X175885Y79293D01*
X175982Y79274D01*
X176078Y79250D01*
X176173Y79223D01*
X176267Y79192D01*
X176359Y79158D01*
X176450Y79120D01*
X176540Y79078D01*
X176628Y79032D01*
X176713Y78984D01*
X176797Y78931D01*
X176879Y78876D01*
X176958Y78817D01*
X177035Y78755D01*
X177110Y78691D01*
X177182Y78623D01*
X177251Y78552D01*
X177317Y78479D01*
X177381Y78403D01*
X177441Y78325D01*
X177498Y78244D01*
X177552Y78162D01*
X177602Y78077D01*
X177649Y77990D01*
X177693Y77901D01*
X177733Y77811D01*
X177770Y77719D01*
X177802Y77626D01*
X177831Y77532D01*
X177857Y77436D01*
X177878Y77340D01*
X177896Y77242D01*
X177909Y77145D01*
X177919Y77046D01*
X177925Y76948D01*
X177927Y76849D01*
X177927Y74366D01*
X177925Y74267D01*
X177919Y74169D01*
X177909Y74070D01*
X177896Y73973D01*
X177878Y73875D01*
X177857Y73779D01*
X177831Y73683D01*
X177802Y73589D01*
X177770Y73496D01*
X177733Y73404D01*
X177693Y73314D01*
X177649Y73225D01*
X177602Y73138D01*
X177552Y73053D01*
X177498Y72971D01*
X177441Y72890D01*
X177381Y72812D01*
X177317Y72736D01*
X177251Y72663D01*
X177182Y72592D01*
X177110Y72524D01*
X177035Y72460D01*
X176958Y72398D01*
X176879Y72339D01*
X176797Y72284D01*
X176713Y72231D01*
X176628Y72183D01*
X176540Y72137D01*
X176450Y72095D01*
X176359Y72057D01*
X176267Y72023D01*
X176173Y71992D01*
X176078Y71965D01*
X175982Y71941D01*
X175885Y71922D01*
X175788Y71906D01*
X175690Y71894D01*
X175591Y71886D01*
X175492Y71882D01*
X175394Y71882D01*
X175295Y71886D01*
X175196Y71894D01*
X175098Y71906D01*
X175001Y71922D01*
X174904Y71941D01*
X174808Y71965D01*
X174713Y71992D01*
X174619Y72023D01*
X174527Y72057D01*
X174436Y72095D01*
X174346Y72137D01*
X174258Y72183D01*
X174173Y72231D01*
X174089Y72284D01*
X174007Y72339D01*
X173928Y72398D01*
X173851Y72460D01*
X173776Y72524D01*
X173704Y72592D01*
X173635Y72663D01*
X173569Y72736D01*
X173505Y72812D01*
X173445Y72890D01*
X173388Y72971D01*
X173334Y73053D01*
X173284Y73138D01*
X173237Y73225D01*
X173193Y73314D01*
X173153Y73404D01*
X173116Y73496D01*
X173084Y73589D01*
X173055Y73683D01*
X173029Y73779D01*
X173008Y73875D01*
X172990Y73973D01*
X172977Y74070D01*
X172967Y74169D01*
X172961Y74267D01*
X172959Y74366D01*
X183320Y71882D02*
X183320Y83058D01*
X183320Y71882D02*
X186425Y71882D01*
X186509Y71884D01*
X186592Y71890D01*
X186675Y71899D01*
X186758Y71912D01*
X186840Y71929D01*
X186921Y71949D01*
X187001Y71973D01*
X187080Y72001D01*
X187157Y72032D01*
X187233Y72066D01*
X187308Y72104D01*
X187381Y72146D01*
X187451Y72190D01*
X187520Y72238D01*
X187587Y72288D01*
X187651Y72342D01*
X187712Y72398D01*
X187772Y72458D01*
X187828Y72519D01*
X187882Y72583D01*
X187932Y72650D01*
X187980Y72719D01*
X188024Y72789D01*
X188066Y72862D01*
X188104Y72937D01*
X188138Y73013D01*
X188169Y73090D01*
X188197Y73169D01*
X188221Y73249D01*
X188241Y73330D01*
X188258Y73412D01*
X188271Y73495D01*
X188281Y73578D01*
X188286Y73661D01*
X188288Y73745D01*
X188287Y73745D02*
X188287Y77470D01*
X188288Y77470D02*
X188286Y77554D01*
X188281Y77637D01*
X188271Y77720D01*
X188258Y77803D01*
X188241Y77885D01*
X188221Y77966D01*
X188197Y78046D01*
X188169Y78125D01*
X188138Y78202D01*
X188104Y78278D01*
X188066Y78353D01*
X188024Y78426D01*
X187980Y78496D01*
X187932Y78565D01*
X187882Y78632D01*
X187828Y78696D01*
X187772Y78757D01*
X187712Y78817D01*
X187651Y78873D01*
X187587Y78927D01*
X187520Y78977D01*
X187451Y79025D01*
X187381Y79069D01*
X187308Y79111D01*
X187233Y79149D01*
X187157Y79183D01*
X187080Y79214D01*
X187001Y79242D01*
X186921Y79266D01*
X186840Y79286D01*
X186758Y79303D01*
X186675Y79316D01*
X186592Y79326D01*
X186509Y79331D01*
X186425Y79333D01*
X183320Y79333D01*
X195015Y71882D02*
X198120Y71882D01*
X195015Y71882D02*
X194931Y71884D01*
X194848Y71889D01*
X194765Y71899D01*
X194682Y71912D01*
X194600Y71929D01*
X194519Y71949D01*
X194439Y71973D01*
X194360Y72001D01*
X194283Y72032D01*
X194207Y72066D01*
X194132Y72104D01*
X194059Y72146D01*
X193989Y72190D01*
X193920Y72238D01*
X193853Y72288D01*
X193789Y72342D01*
X193728Y72398D01*
X193668Y72458D01*
X193612Y72519D01*
X193558Y72583D01*
X193508Y72650D01*
X193460Y72719D01*
X193416Y72789D01*
X193374Y72862D01*
X193336Y72937D01*
X193302Y73013D01*
X193271Y73090D01*
X193243Y73169D01*
X193219Y73249D01*
X193199Y73330D01*
X193182Y73412D01*
X193169Y73495D01*
X193159Y73578D01*
X193154Y73661D01*
X193152Y73745D01*
X193153Y73745D02*
X193153Y76849D01*
X193152Y76849D02*
X193154Y76948D01*
X193160Y77046D01*
X193170Y77145D01*
X193183Y77242D01*
X193201Y77340D01*
X193222Y77436D01*
X193248Y77532D01*
X193277Y77626D01*
X193309Y77719D01*
X193346Y77811D01*
X193386Y77901D01*
X193430Y77990D01*
X193477Y78077D01*
X193527Y78162D01*
X193581Y78244D01*
X193638Y78325D01*
X193698Y78403D01*
X193762Y78479D01*
X193828Y78552D01*
X193897Y78623D01*
X193969Y78691D01*
X194044Y78755D01*
X194121Y78817D01*
X194200Y78876D01*
X194282Y78931D01*
X194366Y78984D01*
X194451Y79032D01*
X194539Y79078D01*
X194629Y79120D01*
X194720Y79158D01*
X194812Y79192D01*
X194906Y79223D01*
X195001Y79250D01*
X195097Y79274D01*
X195194Y79293D01*
X195291Y79309D01*
X195389Y79321D01*
X195488Y79329D01*
X195587Y79333D01*
X195685Y79333D01*
X195784Y79329D01*
X195883Y79321D01*
X195981Y79309D01*
X196078Y79293D01*
X196175Y79274D01*
X196271Y79250D01*
X196366Y79223D01*
X196460Y79192D01*
X196552Y79158D01*
X196643Y79120D01*
X196733Y79078D01*
X196821Y79032D01*
X196906Y78984D01*
X196990Y78931D01*
X197072Y78876D01*
X197151Y78817D01*
X197228Y78755D01*
X197303Y78691D01*
X197375Y78623D01*
X197444Y78552D01*
X197510Y78479D01*
X197574Y78403D01*
X197634Y78325D01*
X197691Y78244D01*
X197745Y78162D01*
X197795Y78077D01*
X197842Y77990D01*
X197886Y77901D01*
X197926Y77811D01*
X197963Y77719D01*
X197995Y77626D01*
X198024Y77532D01*
X198050Y77436D01*
X198071Y77340D01*
X198089Y77242D01*
X198102Y77145D01*
X198112Y77046D01*
X198118Y76948D01*
X198120Y76849D01*
X198120Y75607D01*
X193153Y75607D01*
D11*
X142240Y75692D02*
X142163Y75529D01*
X142090Y75365D01*
X142021Y75199D01*
X141956Y75031D01*
X141895Y74862D01*
X141838Y74691D01*
X141785Y74519D01*
X141736Y74346D01*
X141692Y74172D01*
X141651Y73997D01*
X141615Y73820D01*
X141583Y73643D01*
X141555Y73466D01*
X141532Y73287D01*
X141512Y73108D01*
X141497Y72929D01*
X141487Y72750D01*
X141480Y72570D01*
X141478Y72390D01*
X142240Y75692D02*
X142268Y75770D01*
X142301Y75847D01*
X142336Y75922D01*
X142375Y75996D01*
X142417Y76068D01*
X142462Y76137D01*
X142511Y76205D01*
X142562Y76271D01*
X142616Y76334D01*
X142673Y76395D01*
X142732Y76454D01*
X142794Y76509D01*
X142859Y76562D01*
X142925Y76612D01*
X142994Y76659D01*
X143065Y76703D01*
X143138Y76743D01*
X143212Y76780D01*
X143288Y76815D01*
X143366Y76845D01*
X143444Y76872D01*
X143524Y76896D01*
X143605Y76916D01*
X143687Y76933D01*
X143769Y76945D01*
X143852Y76955D01*
X143935Y76960D01*
X144018Y76962D01*
X144101Y76960D01*
X144184Y76955D01*
X144267Y76945D01*
X144349Y76933D01*
X144431Y76916D01*
X144512Y76896D01*
X144592Y76872D01*
X144670Y76845D01*
X144748Y76815D01*
X144824Y76780D01*
X144898Y76743D01*
X144971Y76703D01*
X145042Y76659D01*
X145111Y76612D01*
X145177Y76562D01*
X145242Y76509D01*
X145304Y76454D01*
X145363Y76395D01*
X145420Y76334D01*
X145474Y76271D01*
X145525Y76205D01*
X145574Y76137D01*
X145619Y76068D01*
X145661Y75996D01*
X145700Y75922D01*
X145735Y75847D01*
X145768Y75770D01*
X145796Y75692D01*
X145873Y75529D01*
X145946Y75365D01*
X146015Y75199D01*
X146080Y75031D01*
X146141Y74862D01*
X146198Y74691D01*
X146251Y74519D01*
X146300Y74346D01*
X146344Y74172D01*
X146385Y73997D01*
X146421Y73820D01*
X146453Y73643D01*
X146481Y73466D01*
X146504Y73287D01*
X146524Y73108D01*
X146539Y72929D01*
X146549Y72750D01*
X146556Y72570D01*
X146558Y72390D01*
X141478Y72390D02*
X141480Y72210D01*
X141487Y72030D01*
X141497Y71851D01*
X141512Y71672D01*
X141532Y71493D01*
X141555Y71314D01*
X141583Y71137D01*
X141615Y70960D01*
X141651Y70783D01*
X141692Y70608D01*
X141736Y70434D01*
X141785Y70261D01*
X141838Y70089D01*
X141895Y69918D01*
X141956Y69749D01*
X142021Y69581D01*
X142090Y69415D01*
X142163Y69251D01*
X142240Y69088D01*
X142268Y69010D01*
X142301Y68933D01*
X142336Y68858D01*
X142375Y68784D01*
X142417Y68712D01*
X142462Y68643D01*
X142511Y68575D01*
X142562Y68509D01*
X142616Y68446D01*
X142673Y68385D01*
X142732Y68326D01*
X142794Y68271D01*
X142859Y68218D01*
X142925Y68168D01*
X142994Y68121D01*
X143065Y68077D01*
X143138Y68037D01*
X143212Y68000D01*
X143288Y67965D01*
X143366Y67935D01*
X143444Y67908D01*
X143524Y67884D01*
X143605Y67864D01*
X143687Y67847D01*
X143769Y67835D01*
X143852Y67825D01*
X143935Y67820D01*
X144018Y67818D01*
X145796Y69088D02*
X145873Y69251D01*
X145946Y69415D01*
X146015Y69581D01*
X146080Y69749D01*
X146141Y69918D01*
X146198Y70089D01*
X146251Y70261D01*
X146300Y70434D01*
X146344Y70608D01*
X146385Y70783D01*
X146421Y70960D01*
X146453Y71137D01*
X146481Y71314D01*
X146504Y71493D01*
X146524Y71672D01*
X146539Y71851D01*
X146549Y72030D01*
X146556Y72210D01*
X146558Y72390D01*
X145796Y69088D02*
X145768Y69010D01*
X145735Y68933D01*
X145700Y68858D01*
X145661Y68784D01*
X145619Y68712D01*
X145574Y68643D01*
X145525Y68575D01*
X145474Y68509D01*
X145420Y68446D01*
X145363Y68385D01*
X145304Y68326D01*
X145242Y68271D01*
X145177Y68218D01*
X145111Y68168D01*
X145042Y68121D01*
X144971Y68077D01*
X144898Y68037D01*
X144824Y68000D01*
X144748Y67965D01*
X144670Y67935D01*
X144592Y67908D01*
X144512Y67884D01*
X144431Y67864D01*
X144349Y67847D01*
X144267Y67835D01*
X144184Y67825D01*
X144101Y67820D01*
X144018Y67818D01*
X141986Y69850D02*
X146050Y74930D01*
D10*
X62907Y26980D02*
X59182Y32258D01*
X62907Y26980D02*
X66633Y32258D01*
X62907Y26980D02*
X62907Y21082D01*
X73191Y25428D02*
X75985Y25428D01*
X73191Y25428D02*
X73099Y25426D01*
X73007Y25420D01*
X72915Y25410D01*
X72824Y25397D01*
X72733Y25379D01*
X72643Y25358D01*
X72555Y25333D01*
X72467Y25304D01*
X72381Y25271D01*
X72296Y25235D01*
X72213Y25195D01*
X72131Y25152D01*
X72052Y25105D01*
X71974Y25055D01*
X71899Y25002D01*
X71826Y24946D01*
X71755Y24886D01*
X71687Y24824D01*
X71622Y24759D01*
X71560Y24691D01*
X71500Y24620D01*
X71444Y24547D01*
X71391Y24472D01*
X71341Y24394D01*
X71294Y24315D01*
X71251Y24233D01*
X71211Y24150D01*
X71175Y24065D01*
X71142Y23979D01*
X71113Y23891D01*
X71088Y23803D01*
X71067Y23713D01*
X71049Y23622D01*
X71036Y23531D01*
X71026Y23439D01*
X71020Y23347D01*
X71018Y23255D01*
X71020Y23163D01*
X71026Y23071D01*
X71036Y22979D01*
X71049Y22888D01*
X71067Y22797D01*
X71088Y22707D01*
X71113Y22619D01*
X71142Y22531D01*
X71175Y22445D01*
X71211Y22360D01*
X71251Y22277D01*
X71294Y22195D01*
X71341Y22116D01*
X71391Y22038D01*
X71444Y21963D01*
X71500Y21890D01*
X71560Y21819D01*
X71622Y21751D01*
X71687Y21686D01*
X71755Y21624D01*
X71826Y21564D01*
X71899Y21508D01*
X71974Y21455D01*
X72052Y21405D01*
X72131Y21358D01*
X72213Y21315D01*
X72296Y21275D01*
X72381Y21239D01*
X72467Y21206D01*
X72555Y21177D01*
X72643Y21152D01*
X72733Y21131D01*
X72824Y21113D01*
X72915Y21100D01*
X73007Y21090D01*
X73099Y21084D01*
X73191Y21082D01*
X75985Y21082D01*
X75985Y26670D01*
X75986Y26670D02*
X75984Y26754D01*
X75979Y26837D01*
X75969Y26920D01*
X75956Y27003D01*
X75939Y27085D01*
X75919Y27166D01*
X75895Y27246D01*
X75867Y27325D01*
X75836Y27402D01*
X75802Y27478D01*
X75764Y27553D01*
X75722Y27626D01*
X75678Y27696D01*
X75630Y27765D01*
X75580Y27832D01*
X75526Y27896D01*
X75470Y27957D01*
X75410Y28017D01*
X75349Y28073D01*
X75285Y28127D01*
X75218Y28177D01*
X75149Y28225D01*
X75079Y28269D01*
X75006Y28311D01*
X74931Y28349D01*
X74855Y28383D01*
X74778Y28414D01*
X74699Y28442D01*
X74619Y28466D01*
X74538Y28486D01*
X74456Y28503D01*
X74373Y28516D01*
X74290Y28526D01*
X74207Y28531D01*
X74123Y28533D01*
X71639Y28533D01*
X81833Y28533D02*
X81833Y17357D01*
X81833Y28533D02*
X84938Y28533D01*
X85022Y28531D01*
X85105Y28526D01*
X85188Y28516D01*
X85271Y28503D01*
X85353Y28486D01*
X85434Y28466D01*
X85514Y28442D01*
X85593Y28414D01*
X85670Y28383D01*
X85746Y28349D01*
X85821Y28311D01*
X85894Y28269D01*
X85964Y28225D01*
X86033Y28177D01*
X86100Y28127D01*
X86164Y28073D01*
X86225Y28017D01*
X86285Y27957D01*
X86341Y27896D01*
X86395Y27832D01*
X86445Y27765D01*
X86493Y27696D01*
X86537Y27626D01*
X86579Y27553D01*
X86617Y27478D01*
X86651Y27402D01*
X86682Y27325D01*
X86710Y27246D01*
X86734Y27166D01*
X86754Y27085D01*
X86771Y27003D01*
X86784Y26920D01*
X86794Y26837D01*
X86799Y26754D01*
X86801Y26670D01*
X86800Y26670D02*
X86800Y22945D01*
X86801Y22945D02*
X86799Y22859D01*
X86793Y22773D01*
X86783Y22688D01*
X86769Y22603D01*
X86752Y22518D01*
X86730Y22435D01*
X86704Y22353D01*
X86675Y22272D01*
X86642Y22193D01*
X86606Y22115D01*
X86566Y22038D01*
X86522Y21964D01*
X86475Y21892D01*
X86425Y21822D01*
X86371Y21755D01*
X86315Y21690D01*
X86255Y21628D01*
X86193Y21568D01*
X86128Y21512D01*
X86061Y21458D01*
X85991Y21408D01*
X85919Y21361D01*
X85845Y21317D01*
X85768Y21277D01*
X85691Y21241D01*
X85611Y21208D01*
X85530Y21179D01*
X85448Y21153D01*
X85365Y21131D01*
X85280Y21114D01*
X85195Y21100D01*
X85110Y21090D01*
X85024Y21084D01*
X84938Y21082D01*
X81833Y21082D01*
X91666Y23566D02*
X91666Y26049D01*
X91665Y26049D02*
X91667Y26148D01*
X91673Y26246D01*
X91683Y26345D01*
X91696Y26442D01*
X91714Y26540D01*
X91735Y26636D01*
X91761Y26732D01*
X91790Y26826D01*
X91822Y26919D01*
X91859Y27011D01*
X91899Y27101D01*
X91943Y27190D01*
X91990Y27277D01*
X92040Y27362D01*
X92094Y27444D01*
X92151Y27525D01*
X92211Y27603D01*
X92275Y27679D01*
X92341Y27752D01*
X92410Y27823D01*
X92482Y27891D01*
X92557Y27955D01*
X92634Y28017D01*
X92713Y28076D01*
X92795Y28131D01*
X92879Y28184D01*
X92964Y28232D01*
X93052Y28278D01*
X93142Y28320D01*
X93233Y28358D01*
X93325Y28392D01*
X93419Y28423D01*
X93514Y28450D01*
X93610Y28474D01*
X93707Y28493D01*
X93804Y28509D01*
X93902Y28521D01*
X94001Y28529D01*
X94100Y28533D01*
X94198Y28533D01*
X94297Y28529D01*
X94396Y28521D01*
X94494Y28509D01*
X94591Y28493D01*
X94688Y28474D01*
X94784Y28450D01*
X94879Y28423D01*
X94973Y28392D01*
X95065Y28358D01*
X95156Y28320D01*
X95246Y28278D01*
X95334Y28232D01*
X95419Y28184D01*
X95503Y28131D01*
X95585Y28076D01*
X95664Y28017D01*
X95741Y27955D01*
X95816Y27891D01*
X95888Y27823D01*
X95957Y27752D01*
X96023Y27679D01*
X96087Y27603D01*
X96147Y27525D01*
X96204Y27444D01*
X96258Y27362D01*
X96308Y27277D01*
X96355Y27190D01*
X96399Y27101D01*
X96439Y27011D01*
X96476Y26919D01*
X96508Y26826D01*
X96537Y26732D01*
X96563Y26636D01*
X96584Y26540D01*
X96602Y26442D01*
X96615Y26345D01*
X96625Y26246D01*
X96631Y26148D01*
X96633Y26049D01*
X96633Y23566D01*
X96631Y23467D01*
X96625Y23369D01*
X96615Y23270D01*
X96602Y23173D01*
X96584Y23075D01*
X96563Y22979D01*
X96537Y22883D01*
X96508Y22789D01*
X96476Y22696D01*
X96439Y22604D01*
X96399Y22514D01*
X96355Y22425D01*
X96308Y22338D01*
X96258Y22253D01*
X96204Y22171D01*
X96147Y22090D01*
X96087Y22012D01*
X96023Y21936D01*
X95957Y21863D01*
X95888Y21792D01*
X95816Y21724D01*
X95741Y21660D01*
X95664Y21598D01*
X95585Y21539D01*
X95503Y21484D01*
X95419Y21431D01*
X95334Y21383D01*
X95246Y21337D01*
X95156Y21295D01*
X95065Y21257D01*
X94973Y21223D01*
X94879Y21192D01*
X94784Y21165D01*
X94688Y21141D01*
X94591Y21122D01*
X94494Y21106D01*
X94396Y21094D01*
X94297Y21086D01*
X94198Y21082D01*
X94100Y21082D01*
X94001Y21086D01*
X93902Y21094D01*
X93804Y21106D01*
X93707Y21122D01*
X93610Y21141D01*
X93514Y21165D01*
X93419Y21192D01*
X93325Y21223D01*
X93233Y21257D01*
X93142Y21295D01*
X93052Y21337D01*
X92964Y21383D01*
X92879Y21431D01*
X92795Y21484D01*
X92713Y21539D01*
X92634Y21598D01*
X92557Y21660D01*
X92482Y21724D01*
X92410Y21792D01*
X92341Y21863D01*
X92275Y21936D01*
X92211Y22012D01*
X92151Y22090D01*
X92094Y22171D01*
X92040Y22253D01*
X91990Y22338D01*
X91943Y22425D01*
X91899Y22514D01*
X91859Y22604D01*
X91822Y22696D01*
X91790Y22789D01*
X91761Y22883D01*
X91735Y22979D01*
X91714Y23075D01*
X91696Y23173D01*
X91683Y23270D01*
X91673Y23369D01*
X91667Y23467D01*
X91665Y23566D01*
X111224Y32258D02*
X111328Y32256D01*
X111433Y32250D01*
X111537Y32240D01*
X111640Y32227D01*
X111743Y32209D01*
X111846Y32188D01*
X111947Y32163D01*
X112048Y32134D01*
X112147Y32101D01*
X112245Y32065D01*
X112341Y32025D01*
X112436Y31981D01*
X112530Y31934D01*
X112621Y31884D01*
X112710Y31830D01*
X112798Y31773D01*
X112883Y31712D01*
X112966Y31648D01*
X113046Y31582D01*
X113124Y31512D01*
X113200Y31440D01*
X113272Y31364D01*
X113342Y31286D01*
X113408Y31206D01*
X113472Y31123D01*
X113533Y31038D01*
X113590Y30950D01*
X113644Y30861D01*
X113694Y30770D01*
X113741Y30676D01*
X113785Y30581D01*
X113825Y30485D01*
X113861Y30387D01*
X113894Y30288D01*
X113923Y30187D01*
X113948Y30086D01*
X113969Y29983D01*
X113987Y29880D01*
X114000Y29777D01*
X114010Y29673D01*
X114016Y29568D01*
X114018Y29464D01*
X111224Y32259D02*
X111105Y32257D01*
X110987Y32251D01*
X110868Y32241D01*
X110750Y32228D01*
X110633Y32210D01*
X110516Y32188D01*
X110400Y32163D01*
X110285Y32134D01*
X110170Y32101D01*
X110057Y32064D01*
X109946Y32024D01*
X109835Y31980D01*
X109727Y31932D01*
X109620Y31881D01*
X109514Y31826D01*
X109411Y31767D01*
X109309Y31706D01*
X109210Y31641D01*
X109112Y31572D01*
X109018Y31501D01*
X108925Y31426D01*
X108835Y31349D01*
X108748Y31268D01*
X108663Y31185D01*
X108581Y31099D01*
X108502Y31010D01*
X108426Y30919D01*
X108353Y30825D01*
X108284Y30729D01*
X108217Y30630D01*
X108154Y30530D01*
X108094Y30427D01*
X108037Y30323D01*
X107985Y30216D01*
X107935Y30108D01*
X107889Y29999D01*
X107847Y29887D01*
X107809Y29775D01*
X113087Y27291D02*
X113162Y27365D01*
X113234Y27442D01*
X113304Y27521D01*
X113371Y27603D01*
X113435Y27687D01*
X113496Y27773D01*
X113554Y27861D01*
X113609Y27952D01*
X113661Y28044D01*
X113709Y28138D01*
X113754Y28233D01*
X113796Y28331D01*
X113834Y28429D01*
X113869Y28529D01*
X113900Y28630D01*
X113927Y28732D01*
X113951Y28835D01*
X113972Y28938D01*
X113988Y29043D01*
X114001Y29148D01*
X114011Y29253D01*
X114016Y29358D01*
X114018Y29464D01*
X113086Y27291D02*
X107809Y21082D01*
X114018Y21082D01*
X119239Y26670D02*
X119242Y26890D01*
X119249Y27110D01*
X119263Y27329D01*
X119281Y27548D01*
X119305Y27767D01*
X119333Y27985D01*
X119367Y28202D01*
X119406Y28418D01*
X119451Y28634D01*
X119500Y28848D01*
X119555Y29061D01*
X119614Y29273D01*
X119679Y29483D01*
X119749Y29691D01*
X119823Y29898D01*
X119903Y30103D01*
X119987Y30306D01*
X120076Y30507D01*
X120170Y30706D01*
X120203Y30795D01*
X120239Y30883D01*
X120279Y30969D01*
X120322Y31054D01*
X120369Y31136D01*
X120420Y31217D01*
X120473Y31295D01*
X120530Y31371D01*
X120590Y31445D01*
X120653Y31516D01*
X120718Y31585D01*
X120787Y31651D01*
X120858Y31713D01*
X120932Y31773D01*
X121008Y31830D01*
X121086Y31884D01*
X121167Y31934D01*
X121249Y31981D01*
X121334Y32024D01*
X121420Y32064D01*
X121508Y32101D01*
X121597Y32133D01*
X121687Y32162D01*
X121779Y32188D01*
X121871Y32209D01*
X121965Y32227D01*
X122059Y32240D01*
X122153Y32250D01*
X122248Y32256D01*
X122343Y32258D01*
X122438Y32256D01*
X122533Y32250D01*
X122627Y32240D01*
X122721Y32227D01*
X122815Y32209D01*
X122907Y32188D01*
X122999Y32162D01*
X123089Y32133D01*
X123178Y32101D01*
X123266Y32064D01*
X123352Y32024D01*
X123437Y31981D01*
X123519Y31934D01*
X123600Y31884D01*
X123678Y31830D01*
X123754Y31773D01*
X123828Y31713D01*
X123899Y31651D01*
X123968Y31585D01*
X124033Y31516D01*
X124096Y31445D01*
X124156Y31371D01*
X124213Y31295D01*
X124266Y31217D01*
X124317Y31136D01*
X124364Y31053D01*
X124407Y30969D01*
X124447Y30883D01*
X124483Y30795D01*
X124516Y30706D01*
X124517Y30706D02*
X124611Y30507D01*
X124700Y30306D01*
X124784Y30103D01*
X124864Y29898D01*
X124938Y29691D01*
X125008Y29483D01*
X125073Y29273D01*
X125132Y29061D01*
X125187Y28848D01*
X125236Y28634D01*
X125281Y28418D01*
X125320Y28202D01*
X125354Y27985D01*
X125382Y27767D01*
X125406Y27548D01*
X125424Y27329D01*
X125438Y27110D01*
X125445Y26890D01*
X125448Y26670D01*
X119239Y26670D02*
X119242Y26450D01*
X119249Y26230D01*
X119263Y26011D01*
X119281Y25792D01*
X119305Y25573D01*
X119333Y25355D01*
X119367Y25138D01*
X119406Y24922D01*
X119451Y24706D01*
X119500Y24492D01*
X119555Y24279D01*
X119614Y24068D01*
X119679Y23857D01*
X119749Y23649D01*
X119823Y23442D01*
X119903Y23237D01*
X119987Y23034D01*
X120076Y22833D01*
X120170Y22634D01*
X120203Y22545D01*
X120239Y22457D01*
X120279Y22371D01*
X120322Y22286D01*
X120369Y22204D01*
X120420Y22123D01*
X120473Y22045D01*
X120530Y21969D01*
X120590Y21895D01*
X120653Y21824D01*
X120718Y21755D01*
X120787Y21689D01*
X120858Y21627D01*
X120932Y21567D01*
X121008Y21510D01*
X121086Y21456D01*
X121167Y21406D01*
X121249Y21359D01*
X121334Y21316D01*
X121420Y21276D01*
X121508Y21239D01*
X121597Y21207D01*
X121687Y21178D01*
X121779Y21152D01*
X121871Y21131D01*
X121965Y21113D01*
X122059Y21100D01*
X122153Y21090D01*
X122248Y21084D01*
X122343Y21082D01*
X124517Y22634D02*
X124611Y22833D01*
X124700Y23034D01*
X124784Y23237D01*
X124864Y23442D01*
X124938Y23649D01*
X125008Y23857D01*
X125073Y24067D01*
X125132Y24279D01*
X125187Y24492D01*
X125236Y24706D01*
X125281Y24922D01*
X125320Y25138D01*
X125354Y25355D01*
X125382Y25573D01*
X125406Y25792D01*
X125424Y26011D01*
X125438Y26230D01*
X125445Y26450D01*
X125448Y26670D01*
X124516Y22634D02*
X124483Y22545D01*
X124447Y22457D01*
X124407Y22371D01*
X124364Y22286D01*
X124317Y22204D01*
X124266Y22123D01*
X124213Y22045D01*
X124156Y21969D01*
X124096Y21895D01*
X124033Y21824D01*
X123968Y21755D01*
X123899Y21689D01*
X123828Y21627D01*
X123754Y21567D01*
X123678Y21510D01*
X123600Y21456D01*
X123519Y21406D01*
X123437Y21359D01*
X123352Y21316D01*
X123266Y21276D01*
X123178Y21239D01*
X123089Y21207D01*
X122999Y21178D01*
X122907Y21152D01*
X122815Y21131D01*
X122721Y21113D01*
X122627Y21100D01*
X122533Y21090D01*
X122438Y21084D01*
X122343Y21082D01*
X119860Y23566D02*
X124827Y29774D01*
X130669Y29774D02*
X133773Y32258D01*
X133773Y21082D01*
X130669Y21082D02*
X136878Y21082D01*
X144582Y26049D02*
X148308Y26049D01*
X144582Y26049D02*
X144484Y26051D01*
X144387Y26057D01*
X144290Y26066D01*
X144193Y26080D01*
X144097Y26097D01*
X144002Y26118D01*
X143908Y26142D01*
X143814Y26171D01*
X143722Y26203D01*
X143631Y26238D01*
X143542Y26277D01*
X143454Y26320D01*
X143368Y26366D01*
X143284Y26415D01*
X143202Y26468D01*
X143122Y26523D01*
X143044Y26582D01*
X142969Y26644D01*
X142896Y26709D01*
X142826Y26777D01*
X142758Y26847D01*
X142693Y26920D01*
X142631Y26995D01*
X142572Y27073D01*
X142517Y27153D01*
X142464Y27235D01*
X142415Y27319D01*
X142369Y27405D01*
X142326Y27493D01*
X142287Y27582D01*
X142252Y27673D01*
X142220Y27765D01*
X142191Y27859D01*
X142167Y27953D01*
X142146Y28048D01*
X142129Y28144D01*
X142115Y28241D01*
X142106Y28338D01*
X142100Y28435D01*
X142098Y28533D01*
X142099Y28533D02*
X142099Y29154D01*
X142101Y29265D01*
X142107Y29375D01*
X142117Y29486D01*
X142131Y29596D01*
X142148Y29705D01*
X142170Y29814D01*
X142195Y29922D01*
X142225Y30028D01*
X142258Y30134D01*
X142295Y30239D01*
X142335Y30342D01*
X142380Y30443D01*
X142427Y30543D01*
X142479Y30642D01*
X142534Y30738D01*
X142592Y30832D01*
X142653Y30924D01*
X142718Y31014D01*
X142786Y31102D01*
X142857Y31187D01*
X142931Y31269D01*
X143008Y31349D01*
X143088Y31426D01*
X143170Y31500D01*
X143255Y31571D01*
X143343Y31639D01*
X143433Y31704D01*
X143525Y31765D01*
X143619Y31823D01*
X143715Y31878D01*
X143814Y31930D01*
X143914Y31977D01*
X144015Y32022D01*
X144118Y32062D01*
X144223Y32099D01*
X144329Y32132D01*
X144435Y32162D01*
X144543Y32187D01*
X144652Y32209D01*
X144761Y32226D01*
X144871Y32240D01*
X144982Y32250D01*
X145092Y32256D01*
X145203Y32258D01*
X145314Y32256D01*
X145424Y32250D01*
X145535Y32240D01*
X145645Y32226D01*
X145754Y32209D01*
X145863Y32187D01*
X145971Y32162D01*
X146077Y32132D01*
X146183Y32099D01*
X146288Y32062D01*
X146391Y32022D01*
X146492Y31977D01*
X146592Y31930D01*
X146691Y31878D01*
X146787Y31823D01*
X146881Y31765D01*
X146973Y31704D01*
X147063Y31639D01*
X147151Y31571D01*
X147236Y31500D01*
X147318Y31426D01*
X147398Y31349D01*
X147475Y31269D01*
X147549Y31187D01*
X147620Y31102D01*
X147688Y31014D01*
X147753Y30924D01*
X147814Y30832D01*
X147872Y30738D01*
X147927Y30642D01*
X147979Y30543D01*
X148026Y30443D01*
X148071Y30342D01*
X148111Y30239D01*
X148148Y30134D01*
X148181Y30028D01*
X148211Y29922D01*
X148236Y29814D01*
X148258Y29705D01*
X148275Y29596D01*
X148289Y29486D01*
X148299Y29375D01*
X148305Y29265D01*
X148307Y29154D01*
X148308Y29154D02*
X148308Y26049D01*
X148306Y25910D01*
X148300Y25770D01*
X148290Y25632D01*
X148277Y25493D01*
X148259Y25355D01*
X148238Y25217D01*
X148213Y25080D01*
X148183Y24944D01*
X148151Y24808D01*
X148114Y24674D01*
X148073Y24541D01*
X148029Y24408D01*
X147981Y24278D01*
X147930Y24148D01*
X147875Y24020D01*
X147816Y23894D01*
X147754Y23769D01*
X147688Y23646D01*
X147619Y23525D01*
X147547Y23406D01*
X147471Y23289D01*
X147392Y23175D01*
X147310Y23062D01*
X147224Y22952D01*
X147136Y22844D01*
X147045Y22739D01*
X146950Y22637D01*
X146853Y22537D01*
X146753Y22440D01*
X146651Y22345D01*
X146546Y22254D01*
X146438Y22166D01*
X146328Y22080D01*
X146215Y21998D01*
X146101Y21919D01*
X145984Y21843D01*
X145865Y21771D01*
X145744Y21702D01*
X145621Y21636D01*
X145496Y21574D01*
X145370Y21515D01*
X145242Y21460D01*
X145112Y21409D01*
X144981Y21361D01*
X144849Y21317D01*
X144716Y21276D01*
X144582Y21239D01*
X144446Y21207D01*
X144310Y21177D01*
X144173Y21152D01*
X144035Y21131D01*
X143897Y21113D01*
X143758Y21100D01*
X143619Y21090D01*
X143480Y21084D01*
X143341Y21082D01*
X221742Y32258D02*
X225467Y21082D01*
X229193Y32258D01*
X233793Y32258D02*
X233793Y31016D01*
X233793Y32258D02*
X240002Y32258D01*
X236897Y21082D01*
D12*
X-15762Y24550D02*
X-90762Y24550D01*
X-79512Y77050D02*
X-15762Y77050D01*
X-48262Y79550D02*
X-44512Y22050D01*
X-50762Y22050D02*
X-54512Y79550D01*
X-60762Y79550D02*
X-57012Y22050D01*
X-63262Y22050D02*
X-67012Y79550D01*
X-73262Y79550D02*
X-69512Y22050D01*
X340226Y44300D02*
X355226Y44300D01*
X355226Y57300D02*
X340226Y57300D01*
X337446Y44300D02*
X322446Y44300D01*
X322446Y57300D02*
X337446Y57300D01*
X319666Y44300D02*
X304666Y44300D01*
X304666Y57300D02*
X319666Y57300D01*
M02*
