G04 EAGLE Gerber RS-274X export*
G75*
%MOMM*%
%FSLAX34Y34*%
%LPD*%
%INInner Layer 2*%
%IPPOS*%
%AMOC8*
5,1,8,0,0,1.08239X$1,22.5*%
G01*
%ADD10C,1.500000*%
%ADD11C,0.503200*%
%ADD12C,2.400000*%
%ADD13C,1.905000*%
%ADD14C,1.981200*%
%ADD15C,0.553200*%
%ADD16C,0.603200*%
%ADD17C,0.675000*%

G36*
X182922Y140343D02*
X182922Y140343D01*
X182964Y140341D01*
X183031Y140363D01*
X183101Y140375D01*
X183137Y140397D01*
X183178Y140410D01*
X183251Y140464D01*
X183294Y140490D01*
X183307Y140506D01*
X183328Y140522D01*
X196028Y153222D01*
X196053Y153256D01*
X196084Y153285D01*
X196111Y153337D01*
X196120Y153349D01*
X196124Y153358D01*
X196157Y153406D01*
X196167Y153447D01*
X196187Y153485D01*
X196200Y153574D01*
X196213Y153623D01*
X196210Y153644D01*
X196214Y153670D01*
X196214Y222659D01*
X196203Y222724D01*
X196201Y222790D01*
X196183Y222833D01*
X196175Y222880D01*
X196141Y222937D01*
X196116Y222997D01*
X196085Y223032D01*
X196060Y223073D01*
X196009Y223115D01*
X195965Y223163D01*
X195923Y223185D01*
X195886Y223214D01*
X195824Y223235D01*
X195765Y223266D01*
X195711Y223274D01*
X195674Y223286D01*
X195634Y223285D01*
X195580Y223293D01*
X193908Y223293D01*
X191543Y225658D01*
X191543Y229002D01*
X193908Y231367D01*
X195580Y231367D01*
X195645Y231378D01*
X195711Y231380D01*
X195754Y231398D01*
X195801Y231406D01*
X195858Y231440D01*
X195918Y231465D01*
X195953Y231496D01*
X195994Y231521D01*
X196036Y231572D01*
X196084Y231616D01*
X196106Y231658D01*
X196135Y231695D01*
X196156Y231757D01*
X196187Y231816D01*
X196195Y231870D01*
X196207Y231907D01*
X196206Y231947D01*
X196214Y232001D01*
X196214Y263897D01*
X259343Y327026D01*
X279809Y327026D01*
X279874Y327037D01*
X279940Y327039D01*
X279983Y327057D01*
X280030Y327065D01*
X280087Y327099D01*
X280147Y327124D01*
X280182Y327155D01*
X280223Y327180D01*
X280265Y327231D01*
X280313Y327275D01*
X280335Y327317D01*
X280364Y327354D01*
X280385Y327416D01*
X280416Y327475D01*
X280424Y327529D01*
X280436Y327566D01*
X280435Y327606D01*
X280443Y327660D01*
X280443Y330602D01*
X282808Y332967D01*
X286152Y332967D01*
X288476Y330642D01*
X288531Y330605D01*
X288578Y330560D01*
X288622Y330541D01*
X288661Y330514D01*
X288724Y330498D01*
X288785Y330472D01*
X288832Y330470D01*
X288878Y330458D01*
X288943Y330465D01*
X289009Y330462D01*
X289054Y330477D01*
X289101Y330481D01*
X289160Y330511D01*
X289223Y330531D01*
X289267Y330563D01*
X289302Y330581D01*
X289329Y330610D01*
X289373Y330642D01*
X291698Y332967D01*
X295042Y332967D01*
X297366Y330642D01*
X297421Y330605D01*
X297468Y330560D01*
X297512Y330541D01*
X297551Y330514D01*
X297614Y330498D01*
X297675Y330472D01*
X297722Y330470D01*
X297768Y330458D01*
X297833Y330465D01*
X297899Y330462D01*
X297944Y330477D01*
X297991Y330481D01*
X298050Y330511D01*
X298113Y330531D01*
X298157Y330563D01*
X298192Y330581D01*
X298219Y330610D01*
X298263Y330642D01*
X300588Y332967D01*
X303932Y332967D01*
X306031Y330868D01*
X306104Y330817D01*
X306173Y330761D01*
X306195Y330754D01*
X306215Y330740D01*
X306301Y330718D01*
X306385Y330689D01*
X306409Y330690D01*
X306432Y330684D01*
X306521Y330693D01*
X306610Y330696D01*
X306632Y330705D01*
X306655Y330707D01*
X306735Y330747D01*
X306817Y330780D01*
X306835Y330796D01*
X306856Y330807D01*
X306917Y330872D01*
X306983Y330932D01*
X306994Y330953D01*
X307010Y330970D01*
X307045Y331052D01*
X307086Y331131D01*
X307089Y331158D01*
X307098Y331177D01*
X307100Y331227D01*
X307113Y331317D01*
X307113Y331872D01*
X309478Y334237D01*
X312822Y334237D01*
X315187Y331872D01*
X315187Y328528D01*
X314767Y328109D01*
X314716Y328035D01*
X314660Y327966D01*
X314653Y327944D01*
X314639Y327924D01*
X314617Y327838D01*
X314588Y327754D01*
X314589Y327730D01*
X314583Y327707D01*
X314592Y327618D01*
X314595Y327529D01*
X314604Y327507D01*
X314606Y327484D01*
X314646Y327404D01*
X314679Y327322D01*
X314695Y327304D01*
X314706Y327283D01*
X314771Y327222D01*
X314831Y327156D01*
X314852Y327145D01*
X314869Y327129D01*
X314951Y327094D01*
X315030Y327053D01*
X315057Y327050D01*
X315076Y327041D01*
X315126Y327039D01*
X315216Y327026D01*
X343914Y327026D01*
X343956Y327033D01*
X343998Y327031D01*
X344066Y327053D01*
X344135Y327065D01*
X344172Y327087D01*
X344212Y327100D01*
X344285Y327154D01*
X344328Y327180D01*
X344341Y327196D01*
X344363Y327212D01*
X345038Y327887D01*
X348382Y327887D01*
X349057Y327212D01*
X349092Y327187D01*
X349121Y327156D01*
X349184Y327124D01*
X349241Y327083D01*
X349283Y327073D01*
X349320Y327053D01*
X349410Y327040D01*
X349459Y327028D01*
X349480Y327030D01*
X349506Y327026D01*
X369314Y327026D01*
X369356Y327033D01*
X369398Y327031D01*
X369466Y327053D01*
X369535Y327065D01*
X369572Y327087D01*
X369612Y327100D01*
X369685Y327154D01*
X369728Y327180D01*
X369741Y327196D01*
X369763Y327212D01*
X370438Y327887D01*
X373782Y327887D01*
X374457Y327212D01*
X374492Y327187D01*
X374521Y327156D01*
X374584Y327124D01*
X374641Y327083D01*
X374683Y327073D01*
X374720Y327053D01*
X374810Y327040D01*
X374859Y327028D01*
X374880Y327030D01*
X374906Y327026D01*
X403597Y327026D01*
X412711Y317913D01*
X412745Y317888D01*
X412774Y317857D01*
X412837Y317825D01*
X412895Y317784D01*
X412936Y317774D01*
X412974Y317754D01*
X413063Y317741D01*
X413112Y317728D01*
X413133Y317731D01*
X413159Y317727D01*
X414422Y317727D01*
X416111Y316037D01*
X416166Y316000D01*
X416213Y315955D01*
X416257Y315936D01*
X416296Y315909D01*
X416359Y315893D01*
X416420Y315867D01*
X416467Y315865D01*
X416513Y315853D01*
X416578Y315860D01*
X416644Y315857D01*
X416689Y315872D01*
X416736Y315876D01*
X416795Y315906D01*
X416858Y315926D01*
X416902Y315958D01*
X416937Y315976D01*
X416964Y316005D01*
X417008Y316037D01*
X418698Y317727D01*
X422042Y317727D01*
X424407Y315362D01*
X424407Y312018D01*
X421954Y309566D01*
X421917Y309512D01*
X421872Y309464D01*
X421853Y309420D01*
X421826Y309381D01*
X421810Y309318D01*
X421784Y309257D01*
X421782Y309210D01*
X421770Y309164D01*
X421777Y309099D01*
X421774Y309033D01*
X421789Y308988D01*
X421794Y308941D01*
X421823Y308882D01*
X421843Y308819D01*
X421876Y308775D01*
X421893Y308740D01*
X421922Y308713D01*
X421954Y308669D01*
X485962Y244662D01*
X485996Y244637D01*
X486025Y244606D01*
X486088Y244574D01*
X486146Y244533D01*
X486187Y244523D01*
X486225Y244503D01*
X486314Y244490D01*
X486363Y244478D01*
X486384Y244480D01*
X486410Y244476D01*
X528320Y244476D01*
X528385Y244487D01*
X528451Y244489D01*
X528494Y244507D01*
X528541Y244515D01*
X528598Y244549D01*
X528658Y244574D01*
X528693Y244605D01*
X528734Y244630D01*
X528776Y244681D01*
X528824Y244725D01*
X528846Y244767D01*
X528875Y244804D01*
X528896Y244866D01*
X528927Y244925D01*
X528935Y244979D01*
X528947Y245016D01*
X528946Y245056D01*
X528954Y245110D01*
X528954Y281079D01*
X528943Y281144D01*
X528941Y281210D01*
X528923Y281253D01*
X528915Y281300D01*
X528881Y281357D01*
X528856Y281417D01*
X528825Y281452D01*
X528800Y281493D01*
X528749Y281535D01*
X528705Y281583D01*
X528663Y281605D01*
X528626Y281634D01*
X528564Y281655D01*
X528505Y281686D01*
X528451Y281694D01*
X528414Y281706D01*
X528374Y281705D01*
X528320Y281713D01*
X526648Y281713D01*
X524283Y284078D01*
X524283Y287422D01*
X526648Y289787D01*
X528320Y289787D01*
X528385Y289798D01*
X528451Y289800D01*
X528494Y289818D01*
X528541Y289826D01*
X528598Y289860D01*
X528658Y289885D01*
X528693Y289916D01*
X528734Y289941D01*
X528776Y289992D01*
X528824Y290036D01*
X528846Y290078D01*
X528875Y290115D01*
X528896Y290177D01*
X528927Y290236D01*
X528935Y290290D01*
X528947Y290327D01*
X528946Y290367D01*
X528954Y290421D01*
X528954Y291239D01*
X528943Y291304D01*
X528941Y291370D01*
X528923Y291413D01*
X528915Y291460D01*
X528881Y291517D01*
X528856Y291577D01*
X528825Y291612D01*
X528800Y291653D01*
X528749Y291695D01*
X528705Y291743D01*
X528663Y291765D01*
X528626Y291794D01*
X528564Y291815D01*
X528505Y291846D01*
X528451Y291854D01*
X528414Y291866D01*
X528374Y291865D01*
X528320Y291873D01*
X526648Y291873D01*
X524283Y294238D01*
X524283Y297582D01*
X526648Y299947D01*
X528320Y299947D01*
X528385Y299958D01*
X528451Y299960D01*
X528494Y299978D01*
X528541Y299986D01*
X528598Y300020D01*
X528658Y300045D01*
X528693Y300076D01*
X528734Y300101D01*
X528776Y300152D01*
X528824Y300196D01*
X528846Y300238D01*
X528875Y300275D01*
X528896Y300337D01*
X528927Y300396D01*
X528935Y300450D01*
X528947Y300487D01*
X528946Y300527D01*
X528954Y300581D01*
X528954Y452529D01*
X528943Y452594D01*
X528941Y452660D01*
X528923Y452703D01*
X528915Y452750D01*
X528881Y452807D01*
X528856Y452867D01*
X528825Y452902D01*
X528800Y452943D01*
X528749Y452985D01*
X528705Y453033D01*
X528663Y453055D01*
X528626Y453084D01*
X528564Y453105D01*
X528505Y453136D01*
X528451Y453144D01*
X528414Y453156D01*
X528374Y453155D01*
X528320Y453163D01*
X525378Y453163D01*
X523013Y455528D01*
X523013Y458872D01*
X525378Y461237D01*
X528320Y461237D01*
X528385Y461248D01*
X528451Y461250D01*
X528494Y461268D01*
X528541Y461276D01*
X528598Y461310D01*
X528658Y461335D01*
X528693Y461366D01*
X528734Y461391D01*
X528776Y461442D01*
X528824Y461486D01*
X528846Y461528D01*
X528875Y461565D01*
X528896Y461627D01*
X528927Y461686D01*
X528935Y461740D01*
X528947Y461777D01*
X528946Y461804D01*
X528947Y461807D01*
X528947Y461821D01*
X528954Y461871D01*
X528954Y463959D01*
X528943Y464024D01*
X528941Y464090D01*
X528923Y464133D01*
X528915Y464180D01*
X528881Y464237D01*
X528856Y464297D01*
X528825Y464332D01*
X528800Y464373D01*
X528749Y464415D01*
X528705Y464463D01*
X528663Y464485D01*
X528626Y464514D01*
X528564Y464535D01*
X528505Y464566D01*
X528451Y464574D01*
X528414Y464586D01*
X528374Y464585D01*
X528320Y464593D01*
X525378Y464593D01*
X523013Y466958D01*
X523013Y470302D01*
X525378Y472667D01*
X528320Y472667D01*
X528385Y472678D01*
X528451Y472680D01*
X528494Y472698D01*
X528541Y472706D01*
X528598Y472740D01*
X528658Y472765D01*
X528693Y472796D01*
X528734Y472821D01*
X528776Y472872D01*
X528824Y472916D01*
X528846Y472958D01*
X528875Y472995D01*
X528896Y473057D01*
X528927Y473116D01*
X528935Y473170D01*
X528947Y473207D01*
X528947Y473222D01*
X528947Y473223D01*
X528947Y473249D01*
X528954Y473301D01*
X528954Y520444D01*
X528947Y520486D01*
X528949Y520528D01*
X528927Y520596D01*
X528915Y520665D01*
X528893Y520702D01*
X528880Y520742D01*
X528826Y520815D01*
X528800Y520858D01*
X528784Y520871D01*
X528768Y520893D01*
X528093Y521568D01*
X528093Y524912D01*
X528768Y525587D01*
X528793Y525622D01*
X528824Y525651D01*
X528856Y525714D01*
X528897Y525771D01*
X528907Y525813D01*
X528927Y525850D01*
X528940Y525940D01*
X528953Y525989D01*
X528950Y526010D01*
X528954Y526036D01*
X528954Y714149D01*
X528943Y714214D01*
X528941Y714280D01*
X528923Y714323D01*
X528915Y714370D01*
X528881Y714427D01*
X528856Y714487D01*
X528825Y714522D01*
X528800Y714563D01*
X528749Y714605D01*
X528705Y714653D01*
X528663Y714675D01*
X528626Y714704D01*
X528564Y714725D01*
X528505Y714756D01*
X528451Y714764D01*
X528414Y714776D01*
X528374Y714775D01*
X528320Y714783D01*
X527918Y714783D01*
X525553Y717148D01*
X525553Y720492D01*
X527918Y722857D01*
X528320Y722857D01*
X528385Y722868D01*
X528451Y722870D01*
X528494Y722888D01*
X528541Y722896D01*
X528598Y722930D01*
X528658Y722955D01*
X528693Y722986D01*
X528734Y723011D01*
X528776Y723062D01*
X528824Y723106D01*
X528846Y723148D01*
X528875Y723185D01*
X528896Y723247D01*
X528927Y723306D01*
X528935Y723360D01*
X528947Y723397D01*
X528946Y723437D01*
X528954Y723491D01*
X528954Y739775D01*
X528943Y739840D01*
X528941Y739906D01*
X528923Y739949D01*
X528915Y739996D01*
X528881Y740053D01*
X528856Y740113D01*
X528825Y740148D01*
X528800Y740189D01*
X528749Y740231D01*
X528705Y740279D01*
X528663Y740301D01*
X528626Y740330D01*
X528564Y740351D01*
X528505Y740382D01*
X528451Y740390D01*
X528414Y740402D01*
X528374Y740401D01*
X528320Y740409D01*
X513054Y740409D01*
X512967Y740394D01*
X512878Y740384D01*
X512857Y740374D01*
X512833Y740370D01*
X512757Y740324D01*
X512677Y740285D01*
X512661Y740268D01*
X512640Y740255D01*
X512584Y740186D01*
X512523Y740122D01*
X512514Y740100D01*
X512499Y740081D01*
X512470Y739997D01*
X512436Y739915D01*
X512435Y739891D01*
X512427Y739869D01*
X512430Y739780D01*
X512426Y739691D01*
X512433Y739668D01*
X512434Y739644D01*
X512467Y739562D01*
X512494Y739477D01*
X512510Y739456D01*
X512518Y739437D01*
X512552Y739399D01*
X512606Y739327D01*
X513557Y738376D01*
X513557Y734824D01*
X511046Y732313D01*
X507494Y732313D01*
X504983Y734824D01*
X504983Y738376D01*
X505934Y739327D01*
X505985Y739400D01*
X506041Y739469D01*
X506049Y739491D01*
X506062Y739511D01*
X506084Y739597D01*
X506113Y739681D01*
X506112Y739705D01*
X506118Y739728D01*
X506109Y739817D01*
X506106Y739906D01*
X506097Y739928D01*
X506095Y739951D01*
X506055Y740031D01*
X506022Y740113D01*
X506006Y740131D01*
X505996Y740152D01*
X505931Y740213D01*
X505871Y740279D01*
X505850Y740290D01*
X505832Y740306D01*
X505750Y740341D01*
X505671Y740382D01*
X505645Y740385D01*
X505626Y740394D01*
X505575Y740396D01*
X505486Y740409D01*
X487654Y740409D01*
X487567Y740394D01*
X487478Y740384D01*
X487457Y740374D01*
X487433Y740370D01*
X487357Y740324D01*
X487277Y740285D01*
X487261Y740268D01*
X487240Y740255D01*
X487184Y740186D01*
X487123Y740122D01*
X487114Y740100D01*
X487099Y740081D01*
X487070Y739997D01*
X487036Y739915D01*
X487035Y739891D01*
X487027Y739869D01*
X487030Y739780D01*
X487026Y739691D01*
X487033Y739668D01*
X487034Y739644D01*
X487067Y739562D01*
X487094Y739477D01*
X487110Y739456D01*
X487118Y739437D01*
X487152Y739399D01*
X487206Y739327D01*
X488157Y738376D01*
X488157Y734824D01*
X485646Y732313D01*
X482094Y732313D01*
X479583Y734824D01*
X479583Y738376D01*
X480534Y739327D01*
X480585Y739400D01*
X480641Y739469D01*
X480649Y739491D01*
X480662Y739511D01*
X480684Y739597D01*
X480713Y739681D01*
X480712Y739705D01*
X480718Y739728D01*
X480709Y739817D01*
X480706Y739906D01*
X480697Y739928D01*
X480695Y739951D01*
X480655Y740031D01*
X480622Y740113D01*
X480606Y740131D01*
X480596Y740152D01*
X480531Y740213D01*
X480471Y740279D01*
X480450Y740290D01*
X480432Y740306D01*
X480350Y740341D01*
X480271Y740382D01*
X480245Y740385D01*
X480226Y740394D01*
X480175Y740396D01*
X480086Y740409D01*
X462254Y740409D01*
X462167Y740394D01*
X462078Y740384D01*
X462057Y740374D01*
X462033Y740370D01*
X461957Y740324D01*
X461877Y740285D01*
X461861Y740268D01*
X461840Y740255D01*
X461784Y740186D01*
X461723Y740122D01*
X461714Y740100D01*
X461699Y740081D01*
X461670Y739997D01*
X461636Y739915D01*
X461635Y739891D01*
X461627Y739869D01*
X461630Y739780D01*
X461626Y739691D01*
X461633Y739668D01*
X461634Y739644D01*
X461667Y739562D01*
X461694Y739477D01*
X461710Y739456D01*
X461718Y739437D01*
X461752Y739399D01*
X461806Y739327D01*
X462757Y738376D01*
X462757Y734824D01*
X460246Y732313D01*
X456694Y732313D01*
X454183Y734824D01*
X454183Y738376D01*
X455134Y739327D01*
X455185Y739400D01*
X455241Y739469D01*
X455249Y739491D01*
X455262Y739511D01*
X455284Y739597D01*
X455313Y739681D01*
X455312Y739705D01*
X455318Y739728D01*
X455309Y739817D01*
X455306Y739906D01*
X455297Y739928D01*
X455295Y739951D01*
X455255Y740031D01*
X455222Y740113D01*
X455206Y740131D01*
X455196Y740152D01*
X455131Y740213D01*
X455071Y740279D01*
X455050Y740290D01*
X455032Y740306D01*
X454950Y740341D01*
X454871Y740382D01*
X454845Y740385D01*
X454826Y740394D01*
X454775Y740396D01*
X454686Y740409D01*
X4445Y740409D01*
X4380Y740398D01*
X4314Y740396D01*
X4271Y740378D01*
X4224Y740370D01*
X4167Y740336D01*
X4107Y740311D01*
X4072Y740280D01*
X4031Y740255D01*
X3989Y740204D01*
X3941Y740160D01*
X3919Y740118D01*
X3890Y740081D01*
X3869Y740019D01*
X3838Y739960D01*
X3830Y739906D01*
X3818Y739869D01*
X3819Y739829D01*
X3811Y739775D01*
X3811Y593471D01*
X3822Y593406D01*
X3824Y593340D01*
X3842Y593297D01*
X3850Y593250D01*
X3884Y593193D01*
X3909Y593133D01*
X3940Y593098D01*
X3965Y593057D01*
X4016Y593015D01*
X4060Y592967D01*
X4102Y592945D01*
X4139Y592916D01*
X4201Y592895D01*
X4260Y592864D01*
X4314Y592856D01*
X4351Y592844D01*
X4391Y592845D01*
X4445Y592837D01*
X8607Y592837D01*
X8695Y592853D01*
X8783Y592862D01*
X8804Y592872D01*
X8828Y592876D01*
X8904Y592922D01*
X8984Y592961D01*
X9000Y592978D01*
X9021Y592991D01*
X9077Y593060D01*
X9138Y593124D01*
X9147Y593146D01*
X9162Y593165D01*
X9191Y593249D01*
X9225Y593331D01*
X9227Y593355D01*
X9234Y593377D01*
X9231Y593466D01*
X9235Y593555D01*
X9228Y593578D01*
X9227Y593602D01*
X9194Y593684D01*
X9167Y593769D01*
X9151Y593790D01*
X9143Y593809D01*
X9109Y593847D01*
X9055Y593919D01*
X7643Y595331D01*
X7643Y598469D01*
X9861Y600687D01*
X12999Y600687D01*
X15217Y598469D01*
X15217Y595331D01*
X13805Y593919D01*
X13754Y593846D01*
X13698Y593777D01*
X13690Y593755D01*
X13677Y593735D01*
X13654Y593649D01*
X13626Y593565D01*
X13627Y593541D01*
X13621Y593518D01*
X13630Y593429D01*
X13633Y593340D01*
X13641Y593318D01*
X13644Y593295D01*
X13683Y593215D01*
X13717Y593133D01*
X13733Y593115D01*
X13743Y593094D01*
X13808Y593033D01*
X13868Y592967D01*
X13889Y592956D01*
X13907Y592940D01*
X13989Y592905D01*
X14068Y592864D01*
X14094Y592861D01*
X14113Y592852D01*
X14164Y592850D01*
X14253Y592837D01*
X21307Y592837D01*
X21395Y592853D01*
X21483Y592862D01*
X21504Y592872D01*
X21528Y592876D01*
X21604Y592922D01*
X21684Y592961D01*
X21700Y592978D01*
X21721Y592991D01*
X21777Y593060D01*
X21838Y593124D01*
X21847Y593146D01*
X21862Y593165D01*
X21891Y593249D01*
X21925Y593331D01*
X21927Y593355D01*
X21934Y593377D01*
X21931Y593466D01*
X21935Y593555D01*
X21928Y593578D01*
X21927Y593602D01*
X21894Y593684D01*
X21867Y593769D01*
X21851Y593790D01*
X21843Y593809D01*
X21809Y593847D01*
X21755Y593919D01*
X20343Y595331D01*
X20343Y598469D01*
X22561Y600687D01*
X25699Y600687D01*
X27917Y598469D01*
X27917Y595331D01*
X26505Y593919D01*
X26454Y593846D01*
X26398Y593777D01*
X26390Y593755D01*
X26377Y593735D01*
X26354Y593649D01*
X26326Y593565D01*
X26327Y593541D01*
X26321Y593518D01*
X26330Y593429D01*
X26333Y593340D01*
X26341Y593318D01*
X26344Y593295D01*
X26383Y593215D01*
X26417Y593133D01*
X26433Y593115D01*
X26443Y593094D01*
X26508Y593033D01*
X26568Y592967D01*
X26589Y592956D01*
X26607Y592940D01*
X26689Y592905D01*
X26768Y592864D01*
X26794Y592861D01*
X26813Y592852D01*
X26864Y592850D01*
X26953Y592837D01*
X34007Y592837D01*
X34095Y592853D01*
X34183Y592862D01*
X34204Y592872D01*
X34228Y592876D01*
X34304Y592922D01*
X34384Y592961D01*
X34400Y592978D01*
X34421Y592991D01*
X34477Y593060D01*
X34538Y593124D01*
X34547Y593146D01*
X34562Y593165D01*
X34591Y593249D01*
X34625Y593331D01*
X34627Y593355D01*
X34634Y593377D01*
X34631Y593466D01*
X34635Y593555D01*
X34628Y593578D01*
X34627Y593602D01*
X34594Y593684D01*
X34567Y593769D01*
X34551Y593790D01*
X34543Y593809D01*
X34509Y593847D01*
X34455Y593919D01*
X33043Y595331D01*
X33043Y598469D01*
X35261Y600687D01*
X38399Y600687D01*
X40617Y598469D01*
X40617Y595331D01*
X39205Y593919D01*
X39154Y593846D01*
X39098Y593777D01*
X39090Y593755D01*
X39077Y593735D01*
X39054Y593649D01*
X39026Y593565D01*
X39027Y593541D01*
X39021Y593518D01*
X39030Y593429D01*
X39033Y593340D01*
X39041Y593318D01*
X39044Y593295D01*
X39083Y593215D01*
X39117Y593133D01*
X39133Y593115D01*
X39143Y593094D01*
X39208Y593033D01*
X39268Y592967D01*
X39289Y592956D01*
X39307Y592940D01*
X39389Y592905D01*
X39468Y592864D01*
X39494Y592861D01*
X39513Y592852D01*
X39564Y592850D01*
X39653Y592837D01*
X45720Y592837D01*
X45721Y592836D01*
X45721Y567945D01*
X45721Y567944D01*
X45721Y567943D01*
X45720Y567943D01*
X45719Y567943D01*
X39683Y567910D01*
X39597Y567894D01*
X39511Y567885D01*
X39488Y567873D01*
X39463Y567869D01*
X39387Y567824D01*
X39309Y567785D01*
X39292Y567767D01*
X39270Y567754D01*
X39215Y567685D01*
X39156Y567622D01*
X39146Y567599D01*
X39130Y567579D01*
X39102Y567496D01*
X39068Y567415D01*
X39067Y567390D01*
X39059Y567366D01*
X39062Y567278D01*
X39058Y567191D01*
X39066Y567167D01*
X39067Y567141D01*
X39100Y567061D01*
X39127Y566978D01*
X39144Y566955D01*
X39152Y566934D01*
X39186Y566897D01*
X39238Y566827D01*
X40617Y565449D01*
X40617Y562311D01*
X38399Y560093D01*
X35261Y560093D01*
X33043Y562311D01*
X33043Y565449D01*
X34390Y566795D01*
X34442Y566870D01*
X34498Y566940D01*
X34505Y566961D01*
X34518Y566979D01*
X34541Y567067D01*
X34569Y567153D01*
X34568Y567175D01*
X34574Y567197D01*
X34565Y567287D01*
X34561Y567378D01*
X34553Y567398D01*
X34551Y567420D01*
X34510Y567501D01*
X34476Y567585D01*
X34461Y567601D01*
X34451Y567621D01*
X34385Y567683D01*
X34324Y567750D01*
X34304Y567760D01*
X34288Y567775D01*
X34204Y567810D01*
X34123Y567851D01*
X34099Y567855D01*
X34081Y567862D01*
X34031Y567864D01*
X33938Y567878D01*
X27053Y567840D01*
X26967Y567824D01*
X26881Y567815D01*
X26858Y567803D01*
X26833Y567799D01*
X26758Y567754D01*
X26680Y567715D01*
X26662Y567697D01*
X26640Y567683D01*
X26585Y567615D01*
X26526Y567552D01*
X26516Y567528D01*
X26500Y567509D01*
X26472Y567426D01*
X26438Y567345D01*
X26437Y567320D01*
X26429Y567296D01*
X26432Y567208D01*
X26428Y567121D01*
X26436Y567097D01*
X26437Y567071D01*
X26470Y566990D01*
X26497Y566908D01*
X26514Y566885D01*
X26522Y566864D01*
X26556Y566827D01*
X26608Y566757D01*
X27917Y565449D01*
X27917Y562311D01*
X25699Y560093D01*
X22561Y560093D01*
X20343Y562311D01*
X20343Y565449D01*
X21619Y566724D01*
X21671Y566798D01*
X21728Y566869D01*
X21734Y566890D01*
X21747Y566908D01*
X21770Y566996D01*
X21798Y567082D01*
X21797Y567104D01*
X21803Y567126D01*
X21794Y567215D01*
X21790Y567307D01*
X21782Y567327D01*
X21780Y567349D01*
X21740Y567430D01*
X21705Y567514D01*
X21690Y567530D01*
X21680Y567550D01*
X21614Y567612D01*
X21553Y567679D01*
X21533Y567689D01*
X21517Y567704D01*
X21433Y567739D01*
X21352Y567780D01*
X21328Y567784D01*
X21310Y567791D01*
X21260Y567794D01*
X21167Y567807D01*
X14423Y567769D01*
X14337Y567753D01*
X14251Y567744D01*
X14228Y567733D01*
X14203Y567729D01*
X14128Y567684D01*
X14050Y567645D01*
X14032Y567626D01*
X14010Y567613D01*
X13956Y567545D01*
X13896Y567482D01*
X13886Y567458D01*
X13870Y567438D01*
X13842Y567355D01*
X13808Y567275D01*
X13807Y567250D01*
X13799Y567225D01*
X13802Y567138D01*
X13798Y567051D01*
X13806Y567027D01*
X13807Y567001D01*
X13840Y566920D01*
X13867Y566837D01*
X13884Y566814D01*
X13893Y566794D01*
X13927Y566757D01*
X13979Y566687D01*
X15217Y565449D01*
X15217Y562311D01*
X12999Y560093D01*
X9861Y560093D01*
X7643Y562311D01*
X7643Y565449D01*
X8848Y566653D01*
X8900Y566728D01*
X8957Y566798D01*
X8964Y566819D01*
X8976Y566837D01*
X8999Y566925D01*
X9027Y567011D01*
X9027Y567033D01*
X9032Y567055D01*
X9023Y567145D01*
X9019Y567236D01*
X9011Y567256D01*
X9009Y567278D01*
X8969Y567359D01*
X8934Y567443D01*
X8919Y567459D01*
X8909Y567479D01*
X8843Y567541D01*
X8782Y567608D01*
X8762Y567618D01*
X8746Y567633D01*
X8662Y567668D01*
X8582Y567709D01*
X8557Y567713D01*
X8539Y567720D01*
X8489Y567723D01*
X8396Y567736D01*
X4441Y567714D01*
X4378Y567702D01*
X4314Y567700D01*
X4269Y567682D01*
X4221Y567673D01*
X4166Y567640D01*
X4107Y567616D01*
X4070Y567583D01*
X4028Y567558D01*
X3988Y567508D01*
X3941Y567465D01*
X3919Y567421D01*
X3888Y567383D01*
X3868Y567322D01*
X3838Y567265D01*
X3830Y567208D01*
X3817Y567170D01*
X3819Y567132D01*
X3811Y567080D01*
X3811Y466471D01*
X3822Y466406D01*
X3824Y466340D01*
X3842Y466297D01*
X3850Y466250D01*
X3884Y466193D01*
X3909Y466133D01*
X3940Y466098D01*
X3965Y466057D01*
X4016Y466015D01*
X4060Y465967D01*
X4102Y465945D01*
X4139Y465916D01*
X4201Y465895D01*
X4260Y465864D01*
X4314Y465856D01*
X4351Y465844D01*
X4391Y465845D01*
X4445Y465837D01*
X8607Y465837D01*
X8695Y465853D01*
X8783Y465862D01*
X8804Y465872D01*
X8828Y465876D01*
X8904Y465922D01*
X8984Y465961D01*
X9000Y465978D01*
X9021Y465991D01*
X9077Y466060D01*
X9138Y466124D01*
X9147Y466146D01*
X9162Y466165D01*
X9191Y466249D01*
X9225Y466331D01*
X9227Y466355D01*
X9234Y466377D01*
X9231Y466466D01*
X9235Y466555D01*
X9228Y466578D01*
X9227Y466602D01*
X9194Y466684D01*
X9167Y466769D01*
X9151Y466790D01*
X9143Y466809D01*
X9109Y466847D01*
X9055Y466919D01*
X7643Y468331D01*
X7643Y471469D01*
X9861Y473687D01*
X12999Y473687D01*
X15217Y471469D01*
X15217Y468331D01*
X13805Y466919D01*
X13754Y466846D01*
X13698Y466777D01*
X13690Y466755D01*
X13677Y466735D01*
X13654Y466649D01*
X13626Y466565D01*
X13627Y466541D01*
X13621Y466518D01*
X13630Y466429D01*
X13633Y466340D01*
X13641Y466318D01*
X13644Y466295D01*
X13683Y466215D01*
X13717Y466133D01*
X13733Y466115D01*
X13743Y466094D01*
X13808Y466033D01*
X13868Y465967D01*
X13889Y465956D01*
X13907Y465940D01*
X13989Y465905D01*
X14068Y465864D01*
X14094Y465861D01*
X14113Y465852D01*
X14164Y465850D01*
X14253Y465837D01*
X21307Y465837D01*
X21395Y465853D01*
X21483Y465862D01*
X21504Y465872D01*
X21528Y465876D01*
X21604Y465922D01*
X21684Y465961D01*
X21700Y465978D01*
X21721Y465991D01*
X21777Y466060D01*
X21838Y466124D01*
X21847Y466146D01*
X21862Y466165D01*
X21891Y466249D01*
X21925Y466331D01*
X21927Y466355D01*
X21934Y466377D01*
X21931Y466466D01*
X21935Y466555D01*
X21928Y466578D01*
X21927Y466602D01*
X21894Y466684D01*
X21867Y466769D01*
X21851Y466790D01*
X21843Y466809D01*
X21809Y466847D01*
X21755Y466919D01*
X20343Y468331D01*
X20343Y471469D01*
X22561Y473687D01*
X25699Y473687D01*
X27917Y471469D01*
X27917Y468331D01*
X26505Y466919D01*
X26454Y466846D01*
X26398Y466777D01*
X26390Y466755D01*
X26377Y466735D01*
X26354Y466649D01*
X26326Y466565D01*
X26327Y466541D01*
X26321Y466518D01*
X26330Y466429D01*
X26333Y466340D01*
X26341Y466318D01*
X26344Y466295D01*
X26383Y466215D01*
X26417Y466133D01*
X26433Y466115D01*
X26443Y466094D01*
X26508Y466033D01*
X26568Y465967D01*
X26589Y465956D01*
X26607Y465940D01*
X26689Y465905D01*
X26768Y465864D01*
X26794Y465861D01*
X26813Y465852D01*
X26864Y465850D01*
X26953Y465837D01*
X34007Y465837D01*
X34095Y465853D01*
X34183Y465862D01*
X34204Y465872D01*
X34228Y465876D01*
X34304Y465922D01*
X34384Y465961D01*
X34400Y465978D01*
X34421Y465991D01*
X34477Y466060D01*
X34538Y466124D01*
X34547Y466146D01*
X34562Y466165D01*
X34591Y466249D01*
X34625Y466331D01*
X34627Y466355D01*
X34634Y466377D01*
X34631Y466466D01*
X34635Y466555D01*
X34628Y466578D01*
X34627Y466602D01*
X34594Y466684D01*
X34567Y466769D01*
X34551Y466790D01*
X34543Y466809D01*
X34509Y466847D01*
X34455Y466919D01*
X33043Y468331D01*
X33043Y471469D01*
X35261Y473687D01*
X38399Y473687D01*
X40617Y471469D01*
X40617Y468331D01*
X39205Y466919D01*
X39154Y466846D01*
X39098Y466777D01*
X39090Y466755D01*
X39077Y466735D01*
X39054Y466649D01*
X39026Y466565D01*
X39027Y466541D01*
X39021Y466518D01*
X39030Y466429D01*
X39033Y466340D01*
X39041Y466318D01*
X39044Y466295D01*
X39083Y466215D01*
X39117Y466133D01*
X39133Y466115D01*
X39143Y466094D01*
X39208Y466033D01*
X39268Y465967D01*
X39289Y465956D01*
X39307Y465940D01*
X39389Y465905D01*
X39468Y465864D01*
X39494Y465861D01*
X39513Y465852D01*
X39564Y465850D01*
X39653Y465837D01*
X45720Y465837D01*
X45721Y465836D01*
X45721Y440945D01*
X45721Y440944D01*
X45721Y440943D01*
X45720Y440943D01*
X45719Y440943D01*
X39683Y440910D01*
X39597Y440894D01*
X39511Y440885D01*
X39488Y440873D01*
X39463Y440869D01*
X39387Y440824D01*
X39309Y440785D01*
X39292Y440767D01*
X39270Y440754D01*
X39215Y440685D01*
X39156Y440622D01*
X39146Y440599D01*
X39130Y440579D01*
X39102Y440496D01*
X39068Y440415D01*
X39067Y440390D01*
X39059Y440366D01*
X39062Y440278D01*
X39058Y440191D01*
X39066Y440167D01*
X39067Y440141D01*
X39100Y440061D01*
X39127Y439978D01*
X39144Y439955D01*
X39152Y439934D01*
X39186Y439897D01*
X39238Y439827D01*
X40617Y438449D01*
X40617Y435311D01*
X38399Y433093D01*
X35261Y433093D01*
X33043Y435311D01*
X33043Y438449D01*
X34390Y439795D01*
X34442Y439870D01*
X34498Y439940D01*
X34505Y439961D01*
X34518Y439979D01*
X34541Y440067D01*
X34569Y440153D01*
X34568Y440175D01*
X34574Y440197D01*
X34565Y440287D01*
X34561Y440378D01*
X34553Y440398D01*
X34551Y440420D01*
X34510Y440501D01*
X34476Y440585D01*
X34461Y440601D01*
X34451Y440621D01*
X34385Y440683D01*
X34324Y440750D01*
X34304Y440760D01*
X34288Y440775D01*
X34204Y440810D01*
X34123Y440851D01*
X34099Y440855D01*
X34081Y440862D01*
X34031Y440864D01*
X33938Y440878D01*
X27053Y440840D01*
X26967Y440824D01*
X26881Y440815D01*
X26858Y440803D01*
X26833Y440799D01*
X26758Y440754D01*
X26680Y440715D01*
X26662Y440697D01*
X26640Y440683D01*
X26585Y440615D01*
X26526Y440552D01*
X26516Y440528D01*
X26500Y440509D01*
X26472Y440426D01*
X26438Y440345D01*
X26437Y440320D01*
X26429Y440296D01*
X26432Y440208D01*
X26428Y440121D01*
X26436Y440097D01*
X26437Y440071D01*
X26470Y439990D01*
X26497Y439908D01*
X26514Y439885D01*
X26522Y439864D01*
X26556Y439827D01*
X26608Y439757D01*
X27917Y438449D01*
X27917Y435311D01*
X25699Y433093D01*
X22561Y433093D01*
X20343Y435311D01*
X20343Y438449D01*
X21619Y439724D01*
X21671Y439799D01*
X21728Y439869D01*
X21734Y439890D01*
X21747Y439908D01*
X21770Y439996D01*
X21798Y440082D01*
X21797Y440104D01*
X21803Y440126D01*
X21794Y440215D01*
X21790Y440307D01*
X21782Y440327D01*
X21780Y440349D01*
X21740Y440430D01*
X21705Y440514D01*
X21690Y440530D01*
X21680Y440550D01*
X21614Y440612D01*
X21553Y440679D01*
X21533Y440689D01*
X21517Y440704D01*
X21433Y440739D01*
X21352Y440780D01*
X21328Y440784D01*
X21310Y440791D01*
X21260Y440794D01*
X21167Y440807D01*
X14423Y440769D01*
X14337Y440753D01*
X14251Y440744D01*
X14228Y440733D01*
X14203Y440729D01*
X14128Y440684D01*
X14050Y440645D01*
X14032Y440626D01*
X14010Y440613D01*
X13956Y440545D01*
X13896Y440482D01*
X13886Y440458D01*
X13870Y440438D01*
X13842Y440355D01*
X13808Y440275D01*
X13807Y440250D01*
X13799Y440225D01*
X13802Y440138D01*
X13798Y440051D01*
X13806Y440027D01*
X13807Y440001D01*
X13840Y439920D01*
X13867Y439837D01*
X13884Y439814D01*
X13893Y439794D01*
X13927Y439757D01*
X13979Y439687D01*
X15217Y438449D01*
X15217Y435311D01*
X12999Y433093D01*
X9861Y433093D01*
X7643Y435311D01*
X7643Y438449D01*
X8848Y439653D01*
X8900Y439727D01*
X8957Y439799D01*
X8964Y439819D01*
X8976Y439837D01*
X8999Y439925D01*
X9027Y440011D01*
X9027Y440033D01*
X9032Y440055D01*
X9023Y440145D01*
X9019Y440236D01*
X9011Y440256D01*
X9009Y440278D01*
X8969Y440359D01*
X8934Y440443D01*
X8919Y440459D01*
X8909Y440479D01*
X8843Y440541D01*
X8782Y440608D01*
X8762Y440618D01*
X8746Y440633D01*
X8662Y440668D01*
X8582Y440709D01*
X8557Y440713D01*
X8539Y440720D01*
X8489Y440723D01*
X8396Y440736D01*
X4441Y440714D01*
X4378Y440702D01*
X4314Y440700D01*
X4269Y440682D01*
X4221Y440673D01*
X4166Y440640D01*
X4107Y440616D01*
X4070Y440583D01*
X4028Y440558D01*
X3988Y440508D01*
X3941Y440465D01*
X3919Y440421D01*
X3888Y440383D01*
X3868Y440322D01*
X3838Y440265D01*
X3830Y440209D01*
X3817Y440170D01*
X3819Y440132D01*
X3811Y440080D01*
X3811Y339471D01*
X3822Y339406D01*
X3824Y339340D01*
X3842Y339297D01*
X3850Y339250D01*
X3884Y339193D01*
X3909Y339133D01*
X3940Y339098D01*
X3965Y339057D01*
X4016Y339015D01*
X4060Y338967D01*
X4102Y338945D01*
X4139Y338916D01*
X4201Y338895D01*
X4260Y338864D01*
X4314Y338856D01*
X4351Y338844D01*
X4391Y338845D01*
X4445Y338837D01*
X8607Y338837D01*
X8695Y338853D01*
X8783Y338862D01*
X8804Y338872D01*
X8828Y338876D01*
X8904Y338922D01*
X8984Y338961D01*
X9000Y338978D01*
X9021Y338991D01*
X9077Y339060D01*
X9138Y339124D01*
X9147Y339146D01*
X9162Y339165D01*
X9191Y339249D01*
X9225Y339331D01*
X9227Y339355D01*
X9234Y339377D01*
X9231Y339466D01*
X9235Y339555D01*
X9228Y339578D01*
X9227Y339602D01*
X9194Y339684D01*
X9167Y339769D01*
X9151Y339790D01*
X9143Y339809D01*
X9109Y339847D01*
X9055Y339919D01*
X7643Y341331D01*
X7643Y344469D01*
X9861Y346687D01*
X12999Y346687D01*
X15217Y344469D01*
X15217Y341331D01*
X13805Y339919D01*
X13754Y339846D01*
X13698Y339777D01*
X13690Y339755D01*
X13677Y339735D01*
X13654Y339649D01*
X13626Y339565D01*
X13627Y339541D01*
X13621Y339518D01*
X13630Y339429D01*
X13633Y339340D01*
X13641Y339318D01*
X13644Y339295D01*
X13683Y339215D01*
X13717Y339133D01*
X13733Y339115D01*
X13743Y339094D01*
X13808Y339033D01*
X13868Y338967D01*
X13889Y338956D01*
X13907Y338940D01*
X13989Y338905D01*
X14068Y338864D01*
X14094Y338861D01*
X14113Y338852D01*
X14164Y338850D01*
X14253Y338837D01*
X21307Y338837D01*
X21395Y338853D01*
X21483Y338862D01*
X21504Y338872D01*
X21528Y338876D01*
X21604Y338922D01*
X21684Y338961D01*
X21700Y338978D01*
X21721Y338991D01*
X21777Y339060D01*
X21838Y339124D01*
X21847Y339146D01*
X21862Y339165D01*
X21891Y339249D01*
X21925Y339331D01*
X21927Y339355D01*
X21934Y339377D01*
X21931Y339466D01*
X21935Y339555D01*
X21928Y339578D01*
X21927Y339602D01*
X21894Y339684D01*
X21867Y339769D01*
X21851Y339790D01*
X21843Y339809D01*
X21809Y339847D01*
X21755Y339919D01*
X20343Y341331D01*
X20343Y344469D01*
X22561Y346687D01*
X25699Y346687D01*
X27917Y344469D01*
X27917Y341331D01*
X26505Y339919D01*
X26454Y339846D01*
X26398Y339777D01*
X26390Y339755D01*
X26377Y339735D01*
X26354Y339649D01*
X26326Y339565D01*
X26327Y339541D01*
X26321Y339518D01*
X26330Y339429D01*
X26333Y339340D01*
X26341Y339318D01*
X26344Y339295D01*
X26383Y339215D01*
X26417Y339133D01*
X26433Y339115D01*
X26443Y339094D01*
X26508Y339033D01*
X26568Y338967D01*
X26589Y338956D01*
X26607Y338940D01*
X26689Y338905D01*
X26768Y338864D01*
X26794Y338861D01*
X26813Y338852D01*
X26864Y338850D01*
X26953Y338837D01*
X34007Y338837D01*
X34095Y338853D01*
X34183Y338862D01*
X34204Y338872D01*
X34228Y338876D01*
X34304Y338922D01*
X34384Y338961D01*
X34400Y338978D01*
X34421Y338991D01*
X34477Y339060D01*
X34538Y339124D01*
X34547Y339146D01*
X34562Y339165D01*
X34591Y339249D01*
X34625Y339331D01*
X34627Y339355D01*
X34634Y339377D01*
X34631Y339466D01*
X34635Y339555D01*
X34628Y339578D01*
X34627Y339602D01*
X34594Y339684D01*
X34567Y339769D01*
X34551Y339790D01*
X34543Y339809D01*
X34509Y339847D01*
X34455Y339919D01*
X33043Y341331D01*
X33043Y344469D01*
X35261Y346687D01*
X38399Y346687D01*
X40617Y344469D01*
X40617Y341331D01*
X39205Y339919D01*
X39154Y339846D01*
X39098Y339777D01*
X39090Y339755D01*
X39077Y339735D01*
X39054Y339649D01*
X39026Y339565D01*
X39027Y339541D01*
X39021Y339518D01*
X39030Y339429D01*
X39033Y339340D01*
X39041Y339318D01*
X39044Y339295D01*
X39083Y339215D01*
X39117Y339133D01*
X39133Y339115D01*
X39143Y339094D01*
X39208Y339033D01*
X39268Y338967D01*
X39289Y338956D01*
X39307Y338940D01*
X39389Y338905D01*
X39468Y338864D01*
X39494Y338861D01*
X39513Y338852D01*
X39564Y338850D01*
X39653Y338837D01*
X45720Y338837D01*
X45721Y338836D01*
X45721Y313945D01*
X45721Y313944D01*
X45721Y313943D01*
X45720Y313943D01*
X45719Y313943D01*
X39683Y313910D01*
X39597Y313894D01*
X39511Y313885D01*
X39488Y313874D01*
X39463Y313869D01*
X39388Y313824D01*
X39309Y313785D01*
X39292Y313767D01*
X39270Y313754D01*
X39215Y313685D01*
X39156Y313622D01*
X39146Y313599D01*
X39130Y313579D01*
X39102Y313496D01*
X39068Y313415D01*
X39067Y313390D01*
X39059Y313366D01*
X39062Y313278D01*
X39058Y313191D01*
X39066Y313167D01*
X39067Y313142D01*
X39100Y313061D01*
X39127Y312978D01*
X39144Y312955D01*
X39152Y312934D01*
X39186Y312897D01*
X39238Y312827D01*
X40617Y311449D01*
X40617Y308311D01*
X38399Y306093D01*
X35261Y306093D01*
X33043Y308311D01*
X33043Y311449D01*
X34390Y312795D01*
X34442Y312870D01*
X34498Y312940D01*
X34505Y312961D01*
X34518Y312979D01*
X34541Y313067D01*
X34569Y313153D01*
X34568Y313175D01*
X34574Y313197D01*
X34565Y313287D01*
X34561Y313378D01*
X34553Y313398D01*
X34551Y313420D01*
X34510Y313501D01*
X34476Y313585D01*
X34461Y313601D01*
X34451Y313621D01*
X34385Y313683D01*
X34324Y313750D01*
X34304Y313760D01*
X34288Y313775D01*
X34204Y313810D01*
X34123Y313851D01*
X34099Y313855D01*
X34081Y313862D01*
X34031Y313864D01*
X33938Y313878D01*
X27053Y313840D01*
X26967Y313824D01*
X26881Y313815D01*
X26858Y313803D01*
X26833Y313799D01*
X26758Y313754D01*
X26680Y313715D01*
X26662Y313697D01*
X26640Y313683D01*
X26585Y313615D01*
X26526Y313552D01*
X26516Y313528D01*
X26500Y313509D01*
X26472Y313426D01*
X26438Y313345D01*
X26437Y313320D01*
X26429Y313296D01*
X26432Y313208D01*
X26428Y313121D01*
X26436Y313097D01*
X26437Y313071D01*
X26470Y312990D01*
X26497Y312908D01*
X26514Y312885D01*
X26522Y312864D01*
X26556Y312827D01*
X26608Y312757D01*
X27917Y311449D01*
X27917Y308311D01*
X25699Y306093D01*
X22561Y306093D01*
X20343Y308311D01*
X20343Y311449D01*
X21619Y312724D01*
X21671Y312799D01*
X21728Y312869D01*
X21734Y312890D01*
X21747Y312908D01*
X21770Y312996D01*
X21798Y313082D01*
X21797Y313104D01*
X21803Y313126D01*
X21794Y313215D01*
X21790Y313307D01*
X21782Y313327D01*
X21780Y313349D01*
X21740Y313430D01*
X21705Y313514D01*
X21690Y313530D01*
X21680Y313550D01*
X21614Y313612D01*
X21553Y313679D01*
X21533Y313689D01*
X21517Y313704D01*
X21433Y313739D01*
X21352Y313780D01*
X21328Y313784D01*
X21310Y313791D01*
X21260Y313794D01*
X21167Y313807D01*
X14423Y313769D01*
X14337Y313753D01*
X14251Y313744D01*
X14228Y313733D01*
X14203Y313729D01*
X14128Y313684D01*
X14050Y313645D01*
X14032Y313626D01*
X14010Y313613D01*
X13956Y313545D01*
X13896Y313482D01*
X13886Y313458D01*
X13870Y313438D01*
X13842Y313355D01*
X13808Y313275D01*
X13807Y313250D01*
X13799Y313225D01*
X13802Y313138D01*
X13798Y313051D01*
X13806Y313027D01*
X13807Y313001D01*
X13840Y312920D01*
X13867Y312837D01*
X13884Y312814D01*
X13893Y312794D01*
X13927Y312757D01*
X13979Y312687D01*
X15217Y311449D01*
X15217Y308311D01*
X12999Y306093D01*
X9861Y306093D01*
X7643Y308311D01*
X7643Y311449D01*
X8848Y312653D01*
X8900Y312728D01*
X8957Y312799D01*
X8964Y312819D01*
X8976Y312837D01*
X8999Y312925D01*
X9027Y313011D01*
X9027Y313033D01*
X9032Y313055D01*
X9023Y313145D01*
X9019Y313236D01*
X9011Y313256D01*
X9009Y313278D01*
X8969Y313359D01*
X8934Y313443D01*
X8919Y313459D01*
X8909Y313479D01*
X8843Y313541D01*
X8782Y313608D01*
X8762Y313618D01*
X8746Y313633D01*
X8662Y313668D01*
X8582Y313709D01*
X8557Y313713D01*
X8539Y313720D01*
X8489Y313723D01*
X8396Y313736D01*
X4441Y313714D01*
X4378Y313702D01*
X4314Y313700D01*
X4269Y313682D01*
X4221Y313673D01*
X4166Y313640D01*
X4107Y313616D01*
X4070Y313583D01*
X4028Y313558D01*
X3988Y313508D01*
X3941Y313465D01*
X3919Y313421D01*
X3888Y313383D01*
X3868Y313322D01*
X3838Y313265D01*
X3830Y313209D01*
X3817Y313170D01*
X3819Y313132D01*
X3811Y313080D01*
X3811Y213741D01*
X3822Y213676D01*
X3824Y213610D01*
X3842Y213567D01*
X3850Y213520D01*
X3884Y213463D01*
X3909Y213403D01*
X3940Y213368D01*
X3965Y213327D01*
X4016Y213285D01*
X4060Y213237D01*
X4102Y213215D01*
X4139Y213186D01*
X4201Y213165D01*
X4260Y213134D01*
X4314Y213126D01*
X4351Y213114D01*
X4391Y213115D01*
X4445Y213107D01*
X8607Y213107D01*
X8695Y213123D01*
X8783Y213132D01*
X8804Y213142D01*
X8828Y213146D01*
X8904Y213192D01*
X8984Y213231D01*
X9000Y213248D01*
X9021Y213261D01*
X9077Y213330D01*
X9138Y213394D01*
X9147Y213416D01*
X9162Y213435D01*
X9191Y213519D01*
X9225Y213601D01*
X9227Y213625D01*
X9234Y213647D01*
X9231Y213736D01*
X9235Y213825D01*
X9228Y213848D01*
X9227Y213872D01*
X9194Y213954D01*
X9167Y214039D01*
X9151Y214060D01*
X9143Y214079D01*
X9109Y214117D01*
X9055Y214189D01*
X7643Y215601D01*
X7643Y218739D01*
X9861Y220957D01*
X12999Y220957D01*
X15217Y218739D01*
X15217Y215601D01*
X13805Y214189D01*
X13754Y214116D01*
X13698Y214047D01*
X13690Y214025D01*
X13677Y214005D01*
X13654Y213919D01*
X13626Y213835D01*
X13627Y213811D01*
X13621Y213788D01*
X13630Y213699D01*
X13633Y213610D01*
X13641Y213588D01*
X13644Y213565D01*
X13683Y213485D01*
X13717Y213403D01*
X13733Y213385D01*
X13743Y213364D01*
X13808Y213303D01*
X13868Y213237D01*
X13889Y213226D01*
X13907Y213210D01*
X13989Y213175D01*
X14068Y213134D01*
X14094Y213131D01*
X14113Y213122D01*
X14164Y213120D01*
X14253Y213107D01*
X21307Y213107D01*
X21395Y213123D01*
X21483Y213132D01*
X21504Y213142D01*
X21528Y213146D01*
X21604Y213192D01*
X21684Y213231D01*
X21700Y213248D01*
X21721Y213261D01*
X21777Y213330D01*
X21838Y213394D01*
X21847Y213416D01*
X21862Y213435D01*
X21891Y213519D01*
X21925Y213601D01*
X21927Y213625D01*
X21934Y213647D01*
X21931Y213736D01*
X21935Y213825D01*
X21928Y213848D01*
X21927Y213872D01*
X21894Y213954D01*
X21867Y214039D01*
X21851Y214060D01*
X21843Y214079D01*
X21809Y214117D01*
X21755Y214189D01*
X20343Y215601D01*
X20343Y218739D01*
X22561Y220957D01*
X25699Y220957D01*
X27917Y218739D01*
X27917Y215601D01*
X26505Y214189D01*
X26454Y214116D01*
X26398Y214047D01*
X26390Y214025D01*
X26377Y214005D01*
X26354Y213919D01*
X26326Y213835D01*
X26327Y213811D01*
X26321Y213788D01*
X26330Y213699D01*
X26333Y213610D01*
X26341Y213588D01*
X26344Y213565D01*
X26383Y213485D01*
X26417Y213403D01*
X26433Y213385D01*
X26443Y213364D01*
X26508Y213303D01*
X26568Y213237D01*
X26589Y213226D01*
X26607Y213210D01*
X26689Y213175D01*
X26768Y213134D01*
X26794Y213131D01*
X26813Y213122D01*
X26864Y213120D01*
X26953Y213107D01*
X34007Y213107D01*
X34095Y213123D01*
X34183Y213132D01*
X34204Y213142D01*
X34228Y213146D01*
X34304Y213192D01*
X34384Y213231D01*
X34400Y213248D01*
X34421Y213261D01*
X34477Y213330D01*
X34538Y213394D01*
X34547Y213416D01*
X34562Y213435D01*
X34591Y213519D01*
X34625Y213601D01*
X34627Y213625D01*
X34634Y213647D01*
X34631Y213736D01*
X34635Y213825D01*
X34628Y213848D01*
X34627Y213872D01*
X34594Y213954D01*
X34567Y214039D01*
X34551Y214060D01*
X34543Y214079D01*
X34509Y214117D01*
X34455Y214189D01*
X33043Y215601D01*
X33043Y218739D01*
X35261Y220957D01*
X38399Y220957D01*
X40617Y218739D01*
X40617Y215601D01*
X39205Y214189D01*
X39154Y214116D01*
X39098Y214047D01*
X39090Y214025D01*
X39077Y214005D01*
X39054Y213919D01*
X39026Y213835D01*
X39027Y213811D01*
X39021Y213788D01*
X39030Y213699D01*
X39033Y213610D01*
X39041Y213588D01*
X39044Y213565D01*
X39083Y213485D01*
X39117Y213403D01*
X39133Y213385D01*
X39143Y213364D01*
X39208Y213303D01*
X39268Y213237D01*
X39289Y213226D01*
X39307Y213210D01*
X39389Y213175D01*
X39468Y213134D01*
X39494Y213131D01*
X39513Y213122D01*
X39564Y213120D01*
X39653Y213107D01*
X45720Y213107D01*
X45721Y213106D01*
X45721Y188215D01*
X45721Y188214D01*
X45721Y188213D01*
X45720Y188213D01*
X45719Y188213D01*
X39683Y188180D01*
X39597Y188164D01*
X39511Y188155D01*
X39488Y188144D01*
X39463Y188139D01*
X39388Y188094D01*
X39309Y188055D01*
X39292Y188037D01*
X39270Y188024D01*
X39215Y187955D01*
X39156Y187892D01*
X39146Y187869D01*
X39130Y187849D01*
X39102Y187766D01*
X39068Y187685D01*
X39067Y187660D01*
X39059Y187636D01*
X39062Y187548D01*
X39058Y187461D01*
X39066Y187437D01*
X39067Y187412D01*
X39100Y187331D01*
X39127Y187248D01*
X39144Y187225D01*
X39152Y187204D01*
X39186Y187167D01*
X39238Y187097D01*
X40617Y185719D01*
X40617Y182581D01*
X38399Y180363D01*
X35261Y180363D01*
X33043Y182581D01*
X33043Y185719D01*
X34390Y187065D01*
X34442Y187140D01*
X34498Y187210D01*
X34505Y187231D01*
X34518Y187249D01*
X34541Y187337D01*
X34569Y187423D01*
X34568Y187445D01*
X34574Y187467D01*
X34565Y187557D01*
X34561Y187648D01*
X34553Y187668D01*
X34551Y187690D01*
X34510Y187771D01*
X34476Y187855D01*
X34461Y187871D01*
X34451Y187891D01*
X34385Y187953D01*
X34324Y188020D01*
X34304Y188030D01*
X34288Y188045D01*
X34204Y188080D01*
X34123Y188121D01*
X34099Y188125D01*
X34081Y188132D01*
X34031Y188134D01*
X33938Y188148D01*
X27053Y188110D01*
X26967Y188094D01*
X26881Y188085D01*
X26858Y188073D01*
X26833Y188069D01*
X26758Y188024D01*
X26680Y187985D01*
X26662Y187967D01*
X26640Y187953D01*
X26585Y187885D01*
X26526Y187822D01*
X26516Y187798D01*
X26500Y187779D01*
X26472Y187696D01*
X26438Y187615D01*
X26437Y187590D01*
X26429Y187566D01*
X26432Y187478D01*
X26428Y187391D01*
X26436Y187367D01*
X26437Y187341D01*
X26470Y187260D01*
X26497Y187178D01*
X26514Y187155D01*
X26522Y187134D01*
X26556Y187097D01*
X26608Y187027D01*
X27917Y185719D01*
X27917Y182581D01*
X25699Y180363D01*
X22561Y180363D01*
X20343Y182581D01*
X20343Y185719D01*
X21619Y186994D01*
X21671Y187069D01*
X21728Y187139D01*
X21734Y187160D01*
X21747Y187178D01*
X21770Y187266D01*
X21798Y187352D01*
X21797Y187374D01*
X21803Y187396D01*
X21794Y187485D01*
X21790Y187577D01*
X21782Y187597D01*
X21780Y187619D01*
X21740Y187700D01*
X21705Y187784D01*
X21690Y187800D01*
X21680Y187820D01*
X21614Y187882D01*
X21553Y187949D01*
X21533Y187959D01*
X21517Y187974D01*
X21433Y188009D01*
X21352Y188050D01*
X21328Y188054D01*
X21310Y188061D01*
X21260Y188064D01*
X21167Y188077D01*
X14423Y188039D01*
X14337Y188023D01*
X14251Y188014D01*
X14228Y188003D01*
X14203Y187999D01*
X14128Y187954D01*
X14050Y187915D01*
X14032Y187896D01*
X14010Y187883D01*
X13956Y187815D01*
X13896Y187752D01*
X13886Y187728D01*
X13870Y187708D01*
X13842Y187625D01*
X13808Y187545D01*
X13807Y187520D01*
X13799Y187495D01*
X13802Y187408D01*
X13798Y187321D01*
X13806Y187297D01*
X13807Y187271D01*
X13840Y187190D01*
X13867Y187107D01*
X13884Y187084D01*
X13893Y187064D01*
X13927Y187027D01*
X13979Y186957D01*
X15217Y185719D01*
X15217Y182581D01*
X12999Y180363D01*
X9861Y180363D01*
X7643Y182581D01*
X7643Y185719D01*
X8848Y186923D01*
X8900Y186998D01*
X8957Y187069D01*
X8964Y187089D01*
X8976Y187107D01*
X8999Y187195D01*
X9027Y187281D01*
X9027Y187303D01*
X9032Y187325D01*
X9023Y187415D01*
X9019Y187506D01*
X9011Y187526D01*
X9009Y187548D01*
X8969Y187629D01*
X8934Y187713D01*
X8919Y187729D01*
X8909Y187749D01*
X8843Y187811D01*
X8782Y187878D01*
X8762Y187888D01*
X8746Y187903D01*
X8662Y187938D01*
X8582Y187979D01*
X8557Y187983D01*
X8539Y187990D01*
X8489Y187993D01*
X8396Y188006D01*
X4441Y187984D01*
X4378Y187972D01*
X4314Y187970D01*
X4269Y187952D01*
X4221Y187943D01*
X4166Y187910D01*
X4107Y187886D01*
X4070Y187853D01*
X4028Y187828D01*
X3988Y187778D01*
X3941Y187735D01*
X3919Y187691D01*
X3888Y187653D01*
X3868Y187592D01*
X3838Y187535D01*
X3830Y187479D01*
X3817Y187440D01*
X3819Y187402D01*
X3811Y187350D01*
X3811Y140970D01*
X3822Y140905D01*
X3824Y140839D01*
X3842Y140796D01*
X3850Y140749D01*
X3884Y140692D01*
X3909Y140632D01*
X3940Y140597D01*
X3965Y140556D01*
X4016Y140515D01*
X4060Y140466D01*
X4102Y140444D01*
X4139Y140415D01*
X4201Y140394D01*
X4260Y140363D01*
X4314Y140355D01*
X4351Y140343D01*
X4391Y140344D01*
X4445Y140336D01*
X182880Y140336D01*
X182922Y140343D01*
G37*
G36*
X528385Y3822D02*
X528385Y3822D01*
X528451Y3824D01*
X528494Y3842D01*
X528541Y3850D01*
X528598Y3884D01*
X528658Y3909D01*
X528693Y3940D01*
X528734Y3965D01*
X528776Y4016D01*
X528824Y4060D01*
X528846Y4102D01*
X528875Y4139D01*
X528896Y4201D01*
X528927Y4260D01*
X528935Y4314D01*
X528947Y4351D01*
X528946Y4391D01*
X528954Y4445D01*
X528954Y227330D01*
X528943Y227395D01*
X528941Y227461D01*
X528923Y227504D01*
X528915Y227551D01*
X528881Y227608D01*
X528856Y227668D01*
X528825Y227703D01*
X528800Y227744D01*
X528749Y227786D01*
X528705Y227834D01*
X528663Y227856D01*
X528626Y227885D01*
X528564Y227906D01*
X528505Y227937D01*
X528451Y227945D01*
X528414Y227957D01*
X528374Y227956D01*
X528320Y227964D01*
X476513Y227964D01*
X471209Y233267D01*
X471136Y233318D01*
X471067Y233374D01*
X471045Y233382D01*
X471025Y233396D01*
X470939Y233418D01*
X470855Y233446D01*
X470831Y233446D01*
X470808Y233452D01*
X470719Y233442D01*
X470630Y233440D01*
X470608Y233431D01*
X470585Y233428D01*
X470505Y233389D01*
X470423Y233355D01*
X470405Y233339D01*
X470384Y233329D01*
X470323Y233264D01*
X470257Y233204D01*
X470246Y233183D01*
X470230Y233166D01*
X470195Y233084D01*
X470154Y233004D01*
X470151Y232978D01*
X470142Y232959D01*
X470140Y232909D01*
X470135Y232871D01*
X470134Y232869D01*
X470134Y232866D01*
X470127Y232819D01*
X470127Y229468D01*
X467762Y227103D01*
X464418Y227103D01*
X462053Y229468D01*
X462053Y232812D01*
X464418Y235177D01*
X467769Y235177D01*
X467857Y235193D01*
X467945Y235202D01*
X467966Y235212D01*
X467990Y235216D01*
X468067Y235262D01*
X468146Y235301D01*
X468163Y235318D01*
X468183Y235331D01*
X468239Y235400D01*
X468300Y235464D01*
X468309Y235486D01*
X468324Y235505D01*
X468353Y235589D01*
X468388Y235671D01*
X468389Y235695D01*
X468396Y235717D01*
X468394Y235806D01*
X468398Y235895D01*
X468390Y235918D01*
X468390Y235942D01*
X468356Y236024D01*
X468329Y236109D01*
X468313Y236130D01*
X468305Y236149D01*
X468271Y236187D01*
X468217Y236259D01*
X392878Y311598D01*
X392844Y311623D01*
X392815Y311654D01*
X392752Y311686D01*
X392694Y311727D01*
X392653Y311737D01*
X392615Y311757D01*
X392526Y311770D01*
X392477Y311783D01*
X392456Y311780D01*
X392430Y311784D01*
X373636Y311784D01*
X373548Y311768D01*
X373460Y311759D01*
X373438Y311749D01*
X373415Y311745D01*
X373338Y311699D01*
X373258Y311660D01*
X373242Y311643D01*
X373222Y311630D01*
X373166Y311561D01*
X373105Y311497D01*
X373095Y311475D01*
X373080Y311456D01*
X373052Y311372D01*
X373017Y311290D01*
X373016Y311266D01*
X373008Y311244D01*
X373011Y311155D01*
X373007Y311066D01*
X373014Y311043D01*
X373015Y311019D01*
X373048Y310937D01*
X373076Y310852D01*
X373092Y310831D01*
X373099Y310812D01*
X373133Y310774D01*
X373187Y310702D01*
X374877Y309012D01*
X374877Y305668D01*
X372512Y303303D01*
X369168Y303303D01*
X366803Y305668D01*
X366803Y309012D01*
X368493Y310702D01*
X368543Y310775D01*
X368600Y310844D01*
X368607Y310866D01*
X368621Y310886D01*
X368643Y310972D01*
X368672Y311056D01*
X368671Y311080D01*
X368677Y311103D01*
X368668Y311192D01*
X368665Y311281D01*
X368656Y311303D01*
X368654Y311326D01*
X368614Y311406D01*
X368581Y311488D01*
X368565Y311506D01*
X368554Y311527D01*
X368489Y311588D01*
X368429Y311654D01*
X368408Y311665D01*
X368391Y311681D01*
X368309Y311716D01*
X368230Y311757D01*
X368203Y311760D01*
X368184Y311769D01*
X368134Y311771D01*
X368044Y311784D01*
X270510Y311784D01*
X270468Y311777D01*
X270426Y311779D01*
X270359Y311757D01*
X270289Y311745D01*
X270253Y311723D01*
X270212Y311710D01*
X270139Y311656D01*
X270096Y311630D01*
X270083Y311614D01*
X270062Y311598D01*
X210372Y251908D01*
X210347Y251874D01*
X210316Y251845D01*
X210284Y251782D01*
X210243Y251724D01*
X210233Y251683D01*
X210213Y251645D01*
X210200Y251556D01*
X210188Y251507D01*
X210190Y251486D01*
X210186Y251460D01*
X210186Y235206D01*
X210202Y235118D01*
X210211Y235030D01*
X210221Y235008D01*
X210225Y234985D01*
X210271Y234908D01*
X210310Y234828D01*
X210327Y234812D01*
X210340Y234792D01*
X210409Y234736D01*
X210473Y234675D01*
X210495Y234665D01*
X210514Y234650D01*
X210598Y234622D01*
X210680Y234587D01*
X210704Y234586D01*
X210726Y234578D01*
X210815Y234581D01*
X210904Y234577D01*
X210927Y234584D01*
X210951Y234585D01*
X211033Y234619D01*
X211118Y234646D01*
X211139Y234662D01*
X211158Y234669D01*
X211196Y234703D01*
X211269Y234757D01*
X212958Y236447D01*
X216302Y236447D01*
X218667Y234082D01*
X218667Y230738D01*
X216302Y228373D01*
X212958Y228373D01*
X211269Y230063D01*
X211236Y230085D01*
X211215Y230108D01*
X211180Y230126D01*
X211126Y230170D01*
X211104Y230177D01*
X211084Y230191D01*
X211023Y230207D01*
X211016Y230210D01*
X210998Y230213D01*
X210914Y230242D01*
X210890Y230241D01*
X210867Y230247D01*
X210778Y230238D01*
X210689Y230235D01*
X210667Y230226D01*
X210644Y230224D01*
X210564Y230184D01*
X210482Y230151D01*
X210464Y230135D01*
X210443Y230124D01*
X210382Y230059D01*
X210316Y229999D01*
X210305Y229978D01*
X210289Y229961D01*
X210270Y229917D01*
X210265Y229910D01*
X210254Y229878D01*
X210213Y229800D01*
X210210Y229773D01*
X210201Y229754D01*
X210200Y229718D01*
X210193Y229697D01*
X210194Y229667D01*
X210186Y229614D01*
X210186Y155203D01*
X181347Y126364D01*
X4445Y126364D01*
X4380Y126353D01*
X4314Y126351D01*
X4271Y126333D01*
X4224Y126325D01*
X4167Y126291D01*
X4107Y126266D01*
X4072Y126235D01*
X4031Y126210D01*
X3989Y126159D01*
X3941Y126115D01*
X3919Y126073D01*
X3890Y126036D01*
X3869Y125974D01*
X3838Y125915D01*
X3830Y125861D01*
X3818Y125824D01*
X3819Y125784D01*
X3811Y125730D01*
X3811Y86741D01*
X3822Y86676D01*
X3824Y86610D01*
X3842Y86567D01*
X3850Y86520D01*
X3884Y86463D01*
X3909Y86403D01*
X3940Y86368D01*
X3965Y86327D01*
X4016Y86285D01*
X4060Y86237D01*
X4102Y86215D01*
X4139Y86186D01*
X4201Y86165D01*
X4260Y86134D01*
X4314Y86126D01*
X4351Y86114D01*
X4391Y86115D01*
X4445Y86107D01*
X8607Y86107D01*
X8695Y86123D01*
X8783Y86132D01*
X8804Y86142D01*
X8828Y86146D01*
X8904Y86192D01*
X8984Y86231D01*
X9000Y86248D01*
X9021Y86261D01*
X9077Y86330D01*
X9138Y86394D01*
X9147Y86416D01*
X9162Y86435D01*
X9191Y86519D01*
X9225Y86601D01*
X9227Y86625D01*
X9234Y86647D01*
X9231Y86736D01*
X9235Y86825D01*
X9228Y86848D01*
X9227Y86872D01*
X9194Y86954D01*
X9167Y87039D01*
X9151Y87060D01*
X9143Y87079D01*
X9109Y87117D01*
X9055Y87189D01*
X7643Y88601D01*
X7643Y91739D01*
X9861Y93957D01*
X12999Y93957D01*
X15217Y91739D01*
X15217Y88601D01*
X13805Y87189D01*
X13754Y87116D01*
X13698Y87047D01*
X13690Y87025D01*
X13677Y87005D01*
X13654Y86919D01*
X13626Y86835D01*
X13627Y86811D01*
X13621Y86788D01*
X13630Y86699D01*
X13633Y86610D01*
X13641Y86588D01*
X13644Y86565D01*
X13683Y86485D01*
X13717Y86403D01*
X13733Y86385D01*
X13743Y86364D01*
X13808Y86303D01*
X13868Y86237D01*
X13889Y86226D01*
X13907Y86210D01*
X13989Y86175D01*
X14068Y86134D01*
X14094Y86131D01*
X14113Y86122D01*
X14164Y86120D01*
X14253Y86107D01*
X21307Y86107D01*
X21395Y86123D01*
X21483Y86132D01*
X21504Y86142D01*
X21528Y86146D01*
X21604Y86192D01*
X21684Y86231D01*
X21700Y86248D01*
X21721Y86261D01*
X21777Y86330D01*
X21838Y86394D01*
X21847Y86416D01*
X21862Y86435D01*
X21891Y86519D01*
X21925Y86601D01*
X21927Y86625D01*
X21934Y86647D01*
X21931Y86736D01*
X21935Y86825D01*
X21928Y86848D01*
X21927Y86872D01*
X21894Y86954D01*
X21867Y87039D01*
X21851Y87060D01*
X21843Y87079D01*
X21809Y87117D01*
X21755Y87189D01*
X20343Y88601D01*
X20343Y91739D01*
X22561Y93957D01*
X25699Y93957D01*
X27917Y91739D01*
X27917Y88601D01*
X26505Y87189D01*
X26454Y87116D01*
X26398Y87047D01*
X26390Y87025D01*
X26377Y87005D01*
X26354Y86919D01*
X26326Y86835D01*
X26327Y86811D01*
X26321Y86788D01*
X26330Y86699D01*
X26333Y86610D01*
X26341Y86588D01*
X26344Y86565D01*
X26383Y86485D01*
X26417Y86403D01*
X26433Y86385D01*
X26443Y86364D01*
X26508Y86303D01*
X26568Y86237D01*
X26589Y86226D01*
X26607Y86210D01*
X26689Y86175D01*
X26768Y86134D01*
X26794Y86131D01*
X26813Y86122D01*
X26864Y86120D01*
X26953Y86107D01*
X34007Y86107D01*
X34095Y86123D01*
X34183Y86132D01*
X34204Y86142D01*
X34228Y86146D01*
X34304Y86192D01*
X34384Y86231D01*
X34400Y86248D01*
X34421Y86261D01*
X34477Y86330D01*
X34538Y86394D01*
X34547Y86416D01*
X34562Y86435D01*
X34591Y86519D01*
X34625Y86601D01*
X34627Y86625D01*
X34634Y86647D01*
X34631Y86736D01*
X34635Y86825D01*
X34628Y86848D01*
X34627Y86872D01*
X34594Y86954D01*
X34567Y87039D01*
X34551Y87060D01*
X34543Y87079D01*
X34509Y87117D01*
X34455Y87189D01*
X33043Y88601D01*
X33043Y91739D01*
X35261Y93957D01*
X38399Y93957D01*
X40617Y91739D01*
X40617Y88601D01*
X39205Y87189D01*
X39154Y87116D01*
X39098Y87047D01*
X39090Y87025D01*
X39077Y87005D01*
X39054Y86919D01*
X39026Y86835D01*
X39027Y86811D01*
X39021Y86788D01*
X39030Y86699D01*
X39033Y86610D01*
X39041Y86588D01*
X39044Y86565D01*
X39083Y86485D01*
X39117Y86403D01*
X39133Y86385D01*
X39143Y86364D01*
X39208Y86303D01*
X39268Y86237D01*
X39289Y86226D01*
X39307Y86210D01*
X39389Y86175D01*
X39468Y86134D01*
X39494Y86131D01*
X39513Y86122D01*
X39564Y86120D01*
X39653Y86107D01*
X45720Y86107D01*
X45721Y86106D01*
X45721Y61215D01*
X45721Y61214D01*
X45721Y61213D01*
X45720Y61213D01*
X45719Y61213D01*
X39683Y61180D01*
X39597Y61164D01*
X39511Y61155D01*
X39488Y61143D01*
X39463Y61139D01*
X39387Y61094D01*
X39309Y61055D01*
X39292Y61037D01*
X39270Y61024D01*
X39215Y60955D01*
X39156Y60892D01*
X39146Y60869D01*
X39130Y60849D01*
X39102Y60766D01*
X39068Y60685D01*
X39067Y60660D01*
X39059Y60636D01*
X39062Y60548D01*
X39058Y60461D01*
X39066Y60437D01*
X39067Y60411D01*
X39100Y60331D01*
X39127Y60248D01*
X39144Y60225D01*
X39152Y60204D01*
X39186Y60167D01*
X39238Y60097D01*
X40617Y58719D01*
X40617Y55581D01*
X38399Y53363D01*
X35261Y53363D01*
X33043Y55581D01*
X33043Y58719D01*
X34390Y60065D01*
X34442Y60140D01*
X34498Y60210D01*
X34505Y60231D01*
X34518Y60249D01*
X34541Y60337D01*
X34569Y60423D01*
X34568Y60445D01*
X34574Y60467D01*
X34565Y60557D01*
X34561Y60648D01*
X34553Y60668D01*
X34551Y60690D01*
X34510Y60771D01*
X34476Y60855D01*
X34461Y60871D01*
X34451Y60891D01*
X34385Y60953D01*
X34324Y61020D01*
X34304Y61030D01*
X34288Y61045D01*
X34204Y61080D01*
X34123Y61121D01*
X34099Y61125D01*
X34081Y61132D01*
X34031Y61134D01*
X33938Y61148D01*
X27053Y61110D01*
X26967Y61094D01*
X26881Y61085D01*
X26858Y61073D01*
X26833Y61069D01*
X26758Y61024D01*
X26680Y60985D01*
X26662Y60967D01*
X26640Y60953D01*
X26585Y60885D01*
X26526Y60822D01*
X26516Y60798D01*
X26500Y60779D01*
X26472Y60696D01*
X26438Y60615D01*
X26437Y60590D01*
X26429Y60566D01*
X26432Y60478D01*
X26428Y60391D01*
X26436Y60367D01*
X26437Y60341D01*
X26470Y60260D01*
X26497Y60178D01*
X26514Y60155D01*
X26522Y60134D01*
X26556Y60097D01*
X26608Y60027D01*
X27917Y58719D01*
X27917Y55581D01*
X25699Y53363D01*
X22561Y53363D01*
X20343Y55581D01*
X20343Y58719D01*
X21619Y59994D01*
X21671Y60069D01*
X21728Y60139D01*
X21734Y60160D01*
X21747Y60178D01*
X21770Y60266D01*
X21798Y60352D01*
X21797Y60374D01*
X21803Y60396D01*
X21794Y60485D01*
X21790Y60577D01*
X21782Y60597D01*
X21780Y60619D01*
X21740Y60700D01*
X21705Y60784D01*
X21690Y60800D01*
X21680Y60820D01*
X21614Y60882D01*
X21553Y60949D01*
X21533Y60959D01*
X21517Y60974D01*
X21433Y61009D01*
X21352Y61050D01*
X21328Y61054D01*
X21310Y61061D01*
X21260Y61064D01*
X21167Y61077D01*
X14423Y61039D01*
X14337Y61023D01*
X14251Y61014D01*
X14228Y61003D01*
X14203Y60999D01*
X14128Y60954D01*
X14050Y60915D01*
X14032Y60896D01*
X14010Y60883D01*
X13956Y60815D01*
X13896Y60752D01*
X13886Y60728D01*
X13870Y60708D01*
X13842Y60625D01*
X13808Y60545D01*
X13807Y60520D01*
X13799Y60495D01*
X13802Y60408D01*
X13798Y60321D01*
X13806Y60297D01*
X13807Y60271D01*
X13840Y60190D01*
X13867Y60107D01*
X13884Y60084D01*
X13893Y60064D01*
X13927Y60027D01*
X13979Y59957D01*
X15217Y58719D01*
X15217Y55581D01*
X12999Y53363D01*
X9861Y53363D01*
X7643Y55581D01*
X7643Y58719D01*
X8848Y59923D01*
X8900Y59998D01*
X8957Y60069D01*
X8964Y60089D01*
X8976Y60107D01*
X8999Y60195D01*
X9027Y60281D01*
X9027Y60303D01*
X9032Y60325D01*
X9023Y60415D01*
X9019Y60506D01*
X9011Y60526D01*
X9009Y60548D01*
X8969Y60629D01*
X8934Y60713D01*
X8919Y60729D01*
X8909Y60749D01*
X8843Y60811D01*
X8782Y60878D01*
X8762Y60888D01*
X8746Y60903D01*
X8662Y60938D01*
X8582Y60979D01*
X8557Y60983D01*
X8539Y60990D01*
X8489Y60993D01*
X8396Y61006D01*
X4441Y60984D01*
X4378Y60972D01*
X4314Y60970D01*
X4269Y60952D01*
X4221Y60943D01*
X4166Y60910D01*
X4107Y60886D01*
X4070Y60853D01*
X4028Y60828D01*
X3988Y60778D01*
X3941Y60735D01*
X3919Y60691D01*
X3888Y60653D01*
X3868Y60592D01*
X3838Y60535D01*
X3830Y60479D01*
X3817Y60440D01*
X3819Y60402D01*
X3811Y60350D01*
X3811Y4445D01*
X3822Y4380D01*
X3824Y4314D01*
X3842Y4271D01*
X3850Y4224D01*
X3884Y4167D01*
X3909Y4107D01*
X3940Y4072D01*
X3965Y4031D01*
X4016Y3989D01*
X4060Y3941D01*
X4102Y3919D01*
X4139Y3890D01*
X4201Y3869D01*
X4260Y3838D01*
X4314Y3830D01*
X4351Y3818D01*
X4391Y3819D01*
X4445Y3811D01*
X528320Y3811D01*
X528385Y3822D01*
G37*
%LPC*%
G36*
X200977Y649223D02*
X200977Y649223D01*
X196869Y650925D01*
X193725Y654069D01*
X192023Y658177D01*
X192023Y662623D01*
X193725Y666731D01*
X196869Y669875D01*
X200977Y671577D01*
X205423Y671577D01*
X209531Y669875D01*
X212675Y666731D01*
X214377Y662623D01*
X214377Y658177D01*
X212675Y654069D01*
X209531Y650925D01*
X205423Y649223D01*
X200977Y649223D01*
G37*
%LPD*%
%LPC*%
G36*
X150177Y700023D02*
X150177Y700023D01*
X146069Y701725D01*
X142925Y704869D01*
X141223Y708977D01*
X141223Y713423D01*
X142925Y717531D01*
X146069Y720675D01*
X150177Y722377D01*
X154623Y722377D01*
X158731Y720675D01*
X161875Y717531D01*
X163577Y713423D01*
X163577Y708977D01*
X161875Y704869D01*
X158731Y701725D01*
X154623Y700023D01*
X150177Y700023D01*
G37*
%LPD*%
%LPC*%
G36*
X200977Y700023D02*
X200977Y700023D01*
X196869Y701725D01*
X193725Y704869D01*
X192023Y708977D01*
X192023Y713423D01*
X193725Y717531D01*
X196869Y720675D01*
X200977Y722377D01*
X205423Y722377D01*
X209531Y720675D01*
X212675Y717531D01*
X214377Y713423D01*
X214377Y708977D01*
X212675Y704869D01*
X209531Y701725D01*
X205423Y700023D01*
X200977Y700023D01*
G37*
%LPD*%
%LPC*%
G36*
X150177Y649223D02*
X150177Y649223D01*
X146069Y650925D01*
X142925Y654069D01*
X141223Y658177D01*
X141223Y662623D01*
X142925Y666731D01*
X146069Y669875D01*
X150177Y671577D01*
X154623Y671577D01*
X158731Y669875D01*
X161875Y666731D01*
X163577Y662623D01*
X163577Y658177D01*
X161875Y654069D01*
X158731Y650925D01*
X154623Y649223D01*
X150177Y649223D01*
G37*
%LPD*%
%LPC*%
G36*
X175653Y675004D02*
X175653Y675004D01*
X171685Y676648D01*
X168648Y679685D01*
X167004Y683653D01*
X167004Y687947D01*
X168648Y691915D01*
X171685Y694952D01*
X175653Y696596D01*
X179947Y696596D01*
X183915Y694952D01*
X186952Y691915D01*
X188596Y687947D01*
X188596Y683653D01*
X186952Y679685D01*
X183915Y676648D01*
X179947Y675004D01*
X175653Y675004D01*
G37*
%LPD*%
%LPC*%
G36*
X159545Y15359D02*
X159545Y15359D01*
X156322Y16695D01*
X153855Y19162D01*
X152519Y22385D01*
X152519Y25875D01*
X153855Y29098D01*
X156322Y31565D01*
X159545Y32901D01*
X163035Y32901D01*
X166258Y31565D01*
X168725Y29098D01*
X170061Y25875D01*
X170061Y22385D01*
X168725Y19162D01*
X166258Y16695D01*
X163035Y15359D01*
X159545Y15359D01*
G37*
%LPD*%
%LPC*%
G36*
X435135Y15359D02*
X435135Y15359D01*
X431912Y16695D01*
X429445Y19162D01*
X428109Y22385D01*
X428109Y25875D01*
X429445Y29098D01*
X431912Y31565D01*
X435135Y32901D01*
X438625Y32901D01*
X441848Y31565D01*
X444315Y29098D01*
X445651Y25875D01*
X445651Y22385D01*
X444315Y19162D01*
X441848Y16695D01*
X438625Y15359D01*
X435135Y15359D01*
G37*
%LPD*%
%LPC*%
G36*
X308135Y15359D02*
X308135Y15359D01*
X304912Y16695D01*
X302445Y19162D01*
X301109Y22385D01*
X301109Y25875D01*
X302445Y29098D01*
X304912Y31565D01*
X308135Y32901D01*
X311625Y32901D01*
X314848Y31565D01*
X317315Y29098D01*
X318651Y25875D01*
X318651Y22385D01*
X317315Y19162D01*
X314848Y16695D01*
X311625Y15359D01*
X308135Y15359D01*
G37*
%LPD*%
%LPC*%
G36*
X30005Y702429D02*
X30005Y702429D01*
X26782Y703765D01*
X24315Y706232D01*
X22979Y709455D01*
X22979Y712945D01*
X24315Y716168D01*
X26782Y718635D01*
X30005Y719971D01*
X33495Y719971D01*
X36718Y718635D01*
X39185Y716168D01*
X40521Y712945D01*
X40521Y709455D01*
X39185Y706232D01*
X36718Y703765D01*
X33495Y702429D01*
X30005Y702429D01*
G37*
%LPD*%
%LPC*%
G36*
X333535Y15359D02*
X333535Y15359D01*
X330312Y16695D01*
X327845Y19162D01*
X326509Y22385D01*
X326509Y25875D01*
X327845Y29098D01*
X330312Y31565D01*
X333535Y32901D01*
X337025Y32901D01*
X340248Y31565D01*
X342715Y29098D01*
X344051Y25875D01*
X344051Y22385D01*
X342715Y19162D01*
X340248Y16695D01*
X337025Y15359D01*
X333535Y15359D01*
G37*
%LPD*%
%LPC*%
G36*
X384335Y15359D02*
X384335Y15359D01*
X381112Y16695D01*
X378645Y19162D01*
X377309Y22385D01*
X377309Y25875D01*
X378645Y29098D01*
X381112Y31565D01*
X384335Y32901D01*
X387825Y32901D01*
X391048Y31565D01*
X393515Y29098D01*
X394851Y25875D01*
X394851Y22385D01*
X393515Y19162D01*
X391048Y16695D01*
X387825Y15359D01*
X384335Y15359D01*
G37*
%LPD*%
%LPC*%
G36*
X358935Y15359D02*
X358935Y15359D01*
X355712Y16695D01*
X353245Y19162D01*
X351909Y22385D01*
X351909Y25875D01*
X353245Y29098D01*
X355712Y31565D01*
X358935Y32901D01*
X362425Y32901D01*
X365648Y31565D01*
X368115Y29098D01*
X369451Y25875D01*
X369451Y22385D01*
X368115Y19162D01*
X365648Y16695D01*
X362425Y15359D01*
X358935Y15359D01*
G37*
%LPD*%
%LPC*%
G36*
X210345Y15359D02*
X210345Y15359D01*
X207122Y16695D01*
X204655Y19162D01*
X203319Y22385D01*
X203319Y25875D01*
X204655Y29098D01*
X207122Y31565D01*
X210345Y32901D01*
X213835Y32901D01*
X217058Y31565D01*
X219525Y29098D01*
X220861Y25875D01*
X220861Y22385D01*
X219525Y19162D01*
X217058Y16695D01*
X213835Y15359D01*
X210345Y15359D01*
G37*
%LPD*%
%LPC*%
G36*
X184945Y15359D02*
X184945Y15359D01*
X181722Y16695D01*
X179255Y19162D01*
X177919Y22385D01*
X177919Y25875D01*
X179255Y29098D01*
X181722Y31565D01*
X184945Y32901D01*
X188435Y32901D01*
X191658Y31565D01*
X194125Y29098D01*
X195461Y25875D01*
X195461Y22385D01*
X194125Y19162D01*
X191658Y16695D01*
X188435Y15359D01*
X184945Y15359D01*
G37*
%LPD*%
%LPC*%
G36*
X30005Y677029D02*
X30005Y677029D01*
X26782Y678365D01*
X24315Y680832D01*
X22979Y684055D01*
X22979Y687545D01*
X24315Y690768D01*
X26782Y693235D01*
X30005Y694571D01*
X33495Y694571D01*
X36718Y693235D01*
X39185Y690768D01*
X40521Y687545D01*
X40521Y684055D01*
X39185Y680832D01*
X36718Y678365D01*
X33495Y677029D01*
X30005Y677029D01*
G37*
%LPD*%
%LPC*%
G36*
X404655Y683379D02*
X404655Y683379D01*
X401432Y684715D01*
X398965Y687182D01*
X397629Y690405D01*
X397629Y693895D01*
X398965Y697118D01*
X401432Y699585D01*
X404655Y700921D01*
X408145Y700921D01*
X411368Y699585D01*
X413835Y697118D01*
X415171Y693895D01*
X415171Y690405D01*
X413835Y687182D01*
X411368Y684715D01*
X408145Y683379D01*
X404655Y683379D01*
G37*
%LPD*%
%LPC*%
G36*
X404655Y657979D02*
X404655Y657979D01*
X401432Y659315D01*
X398965Y661782D01*
X397629Y665005D01*
X397629Y668495D01*
X398965Y671718D01*
X401432Y674185D01*
X404655Y675521D01*
X408145Y675521D01*
X411368Y674185D01*
X413835Y671718D01*
X415171Y668495D01*
X415171Y665005D01*
X413835Y661782D01*
X411368Y659315D01*
X408145Y657979D01*
X404655Y657979D01*
G37*
%LPD*%
%LPC*%
G36*
X404655Y708779D02*
X404655Y708779D01*
X401432Y710115D01*
X398965Y712582D01*
X397629Y715805D01*
X397629Y719295D01*
X398965Y722518D01*
X401432Y724985D01*
X404655Y726321D01*
X408145Y726321D01*
X411368Y724985D01*
X413835Y722518D01*
X415171Y719295D01*
X415171Y715805D01*
X413835Y712582D01*
X411368Y710115D01*
X408145Y708779D01*
X404655Y708779D01*
G37*
%LPD*%
%LPC*%
G36*
X404655Y632579D02*
X404655Y632579D01*
X401432Y633915D01*
X398965Y636382D01*
X397629Y639605D01*
X397629Y643095D01*
X398965Y646318D01*
X401432Y648785D01*
X404655Y650121D01*
X408145Y650121D01*
X411368Y648785D01*
X413835Y646318D01*
X415171Y643095D01*
X415171Y639605D01*
X413835Y636382D01*
X411368Y633915D01*
X408145Y632579D01*
X404655Y632579D01*
G37*
%LPD*%
%LPC*%
G36*
X348744Y666273D02*
X348744Y666273D01*
X346233Y668784D01*
X346233Y672336D01*
X348744Y674847D01*
X352296Y674847D01*
X353881Y673261D01*
X353909Y673242D01*
X353914Y673236D01*
X353926Y673230D01*
X353936Y673223D01*
X353983Y673178D01*
X354027Y673160D01*
X354066Y673133D01*
X354129Y673116D01*
X354190Y673091D01*
X354237Y673089D01*
X354283Y673077D01*
X354348Y673084D01*
X354414Y673081D01*
X354459Y673095D01*
X354506Y673100D01*
X354565Y673129D01*
X354628Y673149D01*
X354672Y673182D01*
X354707Y673199D01*
X354734Y673228D01*
X354778Y673261D01*
X356364Y674847D01*
X359916Y674847D01*
X361501Y673261D01*
X361529Y673242D01*
X361534Y673236D01*
X361546Y673230D01*
X361556Y673223D01*
X361603Y673178D01*
X361647Y673160D01*
X361686Y673133D01*
X361749Y673116D01*
X361810Y673091D01*
X361857Y673089D01*
X361903Y673077D01*
X361968Y673084D01*
X362034Y673081D01*
X362079Y673095D01*
X362126Y673100D01*
X362185Y673129D01*
X362248Y673149D01*
X362292Y673182D01*
X362327Y673199D01*
X362354Y673228D01*
X362398Y673261D01*
X363984Y674847D01*
X367536Y674847D01*
X369121Y673261D01*
X369149Y673242D01*
X369154Y673236D01*
X369166Y673230D01*
X369176Y673223D01*
X369223Y673178D01*
X369267Y673160D01*
X369306Y673133D01*
X369369Y673116D01*
X369430Y673091D01*
X369477Y673089D01*
X369523Y673077D01*
X369588Y673084D01*
X369654Y673081D01*
X369699Y673095D01*
X369746Y673100D01*
X369805Y673129D01*
X369868Y673149D01*
X369912Y673182D01*
X369947Y673199D01*
X369974Y673228D01*
X370018Y673261D01*
X371604Y674847D01*
X375156Y674847D01*
X377667Y672336D01*
X377667Y668784D01*
X375156Y666273D01*
X371604Y666273D01*
X370018Y667859D01*
X369987Y667881D01*
X369968Y667902D01*
X369949Y667912D01*
X369917Y667942D01*
X369873Y667960D01*
X369834Y667987D01*
X369771Y668004D01*
X369710Y668029D01*
X369663Y668031D01*
X369617Y668043D01*
X369552Y668036D01*
X369486Y668039D01*
X369441Y668025D01*
X369394Y668020D01*
X369338Y667992D01*
X369336Y667992D01*
X369333Y667990D01*
X369272Y667971D01*
X369228Y667938D01*
X369193Y667921D01*
X369166Y667892D01*
X369163Y667890D01*
X369143Y667878D01*
X369137Y667870D01*
X369121Y667859D01*
X367536Y666273D01*
X363984Y666273D01*
X362398Y667859D01*
X362367Y667881D01*
X362348Y667902D01*
X362329Y667912D01*
X362297Y667942D01*
X362253Y667960D01*
X362214Y667987D01*
X362151Y668004D01*
X362090Y668029D01*
X362043Y668031D01*
X361997Y668043D01*
X361932Y668036D01*
X361866Y668039D01*
X361821Y668025D01*
X361774Y668020D01*
X361718Y667992D01*
X361716Y667992D01*
X361713Y667990D01*
X361652Y667971D01*
X361608Y667938D01*
X361573Y667921D01*
X361546Y667892D01*
X361543Y667890D01*
X361523Y667878D01*
X361517Y667870D01*
X361501Y667859D01*
X359916Y666273D01*
X356364Y666273D01*
X354778Y667859D01*
X354747Y667881D01*
X354728Y667902D01*
X354709Y667912D01*
X354677Y667942D01*
X354633Y667960D01*
X354594Y667987D01*
X354531Y668004D01*
X354470Y668029D01*
X354423Y668031D01*
X354377Y668043D01*
X354312Y668036D01*
X354246Y668039D01*
X354201Y668025D01*
X354154Y668020D01*
X354098Y667992D01*
X354096Y667992D01*
X354093Y667990D01*
X354032Y667971D01*
X353988Y667938D01*
X353953Y667921D01*
X353926Y667892D01*
X353923Y667890D01*
X353903Y667878D01*
X353897Y667870D01*
X353881Y667859D01*
X352296Y666273D01*
X348744Y666273D01*
G37*
%LPD*%
%LPC*%
G36*
X106532Y350039D02*
X106532Y350039D01*
X104167Y352404D01*
X104167Y352959D01*
X104151Y353047D01*
X104142Y353135D01*
X104132Y353157D01*
X104128Y353180D01*
X104082Y353257D01*
X104043Y353337D01*
X104026Y353353D01*
X104013Y353373D01*
X103944Y353429D01*
X103880Y353490D01*
X103858Y353500D01*
X103839Y353515D01*
X103755Y353543D01*
X103673Y353578D01*
X103649Y353579D01*
X103627Y353587D01*
X103538Y353584D01*
X103449Y353588D01*
X103426Y353581D01*
X103402Y353580D01*
X103320Y353546D01*
X103235Y353519D01*
X103214Y353504D01*
X103195Y353496D01*
X103157Y353462D01*
X103085Y353408D01*
X100986Y351309D01*
X97642Y351309D01*
X95277Y353674D01*
X95277Y357018D01*
X97602Y359343D01*
X97639Y359397D01*
X97684Y359444D01*
X97695Y359469D01*
X97704Y359480D01*
X97710Y359498D01*
X97730Y359527D01*
X97746Y359590D01*
X97772Y359651D01*
X97773Y359686D01*
X97776Y359693D01*
X97775Y359704D01*
X97786Y359744D01*
X97779Y359809D01*
X97782Y359875D01*
X97769Y359915D01*
X97769Y359917D01*
X97767Y359921D01*
X97763Y359967D01*
X97733Y360026D01*
X97713Y360089D01*
X97681Y360133D01*
X97663Y360168D01*
X97634Y360195D01*
X97602Y360240D01*
X95277Y362564D01*
X95277Y365908D01*
X96967Y367598D01*
X97004Y367652D01*
X97049Y367699D01*
X97068Y367743D01*
X97095Y367782D01*
X97111Y367845D01*
X97137Y367906D01*
X97139Y367953D01*
X97151Y367999D01*
X97144Y368064D01*
X97147Y368130D01*
X97132Y368175D01*
X97128Y368222D01*
X97098Y368281D01*
X97078Y368344D01*
X97046Y368388D01*
X97028Y368423D01*
X96999Y368450D01*
X96967Y368495D01*
X95277Y370184D01*
X95277Y373528D01*
X97642Y375893D01*
X100986Y375893D01*
X103351Y373528D01*
X103351Y370184D01*
X101661Y368495D01*
X101624Y368440D01*
X101579Y368393D01*
X101560Y368349D01*
X101533Y368310D01*
X101517Y368247D01*
X101491Y368186D01*
X101489Y368139D01*
X101477Y368093D01*
X101484Y368028D01*
X101481Y367962D01*
X101496Y367917D01*
X101500Y367870D01*
X101530Y367811D01*
X101550Y367748D01*
X101582Y367704D01*
X101600Y367669D01*
X101629Y367642D01*
X101661Y367598D01*
X103351Y365908D01*
X103351Y362564D01*
X101026Y360240D01*
X100989Y360185D01*
X100944Y360138D01*
X100925Y360094D01*
X100898Y360055D01*
X100882Y359992D01*
X100856Y359931D01*
X100854Y359886D01*
X100852Y359880D01*
X100852Y359877D01*
X100842Y359838D01*
X100849Y359773D01*
X100846Y359707D01*
X100858Y359668D01*
X100859Y359656D01*
X100862Y359648D01*
X100865Y359615D01*
X100895Y359556D01*
X100915Y359493D01*
X100937Y359463D01*
X100943Y359448D01*
X100954Y359436D01*
X100965Y359414D01*
X100994Y359387D01*
X101026Y359343D01*
X103351Y357018D01*
X103351Y356463D01*
X103367Y356375D01*
X103376Y356287D01*
X103386Y356265D01*
X103390Y356242D01*
X103436Y356165D01*
X103475Y356085D01*
X103492Y356069D01*
X103505Y356049D01*
X103574Y355993D01*
X103638Y355932D01*
X103660Y355922D01*
X103679Y355907D01*
X103763Y355879D01*
X103845Y355844D01*
X103869Y355843D01*
X103891Y355835D01*
X103980Y355838D01*
X104069Y355834D01*
X104092Y355841D01*
X104116Y355842D01*
X104198Y355876D01*
X104283Y355903D01*
X104304Y355918D01*
X104323Y355926D01*
X104361Y355960D01*
X104433Y356014D01*
X106532Y358113D01*
X109876Y358113D01*
X112241Y355748D01*
X112241Y352404D01*
X109876Y350039D01*
X106532Y350039D01*
G37*
%LPD*%
%LPC*%
G36*
X409808Y343943D02*
X409808Y343943D01*
X407443Y346308D01*
X407443Y349652D01*
X408498Y350707D01*
X408535Y350761D01*
X408580Y350808D01*
X408599Y350852D01*
X408626Y350891D01*
X408642Y350954D01*
X408668Y351015D01*
X408670Y351062D01*
X408682Y351108D01*
X408675Y351173D01*
X408678Y351239D01*
X408663Y351284D01*
X408659Y351331D01*
X408629Y351390D01*
X408609Y351453D01*
X408577Y351497D01*
X408559Y351532D01*
X408530Y351559D01*
X408498Y351604D01*
X407443Y352658D01*
X407443Y356205D01*
X407436Y356247D01*
X407438Y356289D01*
X407416Y356357D01*
X407404Y356426D01*
X407382Y356463D01*
X407369Y356503D01*
X407315Y356576D01*
X407289Y356619D01*
X407273Y356632D01*
X407257Y356654D01*
X405578Y358333D01*
X405544Y358357D01*
X405516Y358388D01*
X405495Y358398D01*
X405477Y358415D01*
X405433Y358434D01*
X405394Y358461D01*
X405352Y358472D01*
X405316Y358490D01*
X405291Y358494D01*
X405270Y358503D01*
X405223Y358505D01*
X405177Y358517D01*
X405154Y358514D01*
X405131Y358518D01*
X405129Y358518D01*
X405091Y358511D01*
X405046Y358513D01*
X405001Y358498D01*
X404954Y358494D01*
X404931Y358482D01*
X404908Y358478D01*
X404874Y358458D01*
X404832Y358444D01*
X404788Y358412D01*
X404753Y358394D01*
X404736Y358376D01*
X404715Y358364D01*
X404702Y358348D01*
X404681Y358333D01*
X402992Y356643D01*
X399648Y356643D01*
X397283Y359008D01*
X397283Y362352D01*
X399648Y364717D01*
X402992Y364717D01*
X404681Y363027D01*
X404736Y362990D01*
X404783Y362945D01*
X404827Y362926D01*
X404866Y362899D01*
X404929Y362883D01*
X404990Y362857D01*
X405037Y362855D01*
X405083Y362843D01*
X405148Y362850D01*
X405214Y362847D01*
X405259Y362862D01*
X405306Y362866D01*
X405365Y362896D01*
X405428Y362916D01*
X405472Y362948D01*
X405507Y362966D01*
X405534Y362995D01*
X405578Y363027D01*
X407268Y364717D01*
X410612Y364717D01*
X412977Y362352D01*
X412977Y358805D01*
X412984Y358763D01*
X412982Y358721D01*
X413004Y358653D01*
X413016Y358584D01*
X413038Y358547D01*
X413051Y358507D01*
X413105Y358434D01*
X413131Y358391D01*
X413147Y358378D01*
X413163Y358356D01*
X415517Y356002D01*
X415517Y352658D01*
X414462Y351604D01*
X414425Y351549D01*
X414380Y351502D01*
X414361Y351458D01*
X414334Y351419D01*
X414318Y351356D01*
X414292Y351295D01*
X414290Y351248D01*
X414278Y351202D01*
X414285Y351137D01*
X414282Y351071D01*
X414297Y351026D01*
X414301Y350979D01*
X414331Y350920D01*
X414351Y350857D01*
X414383Y350813D01*
X414401Y350778D01*
X414430Y350751D01*
X414462Y350707D01*
X415517Y349652D01*
X415517Y346308D01*
X413152Y343943D01*
X409808Y343943D01*
G37*
%LPD*%
%LPC*%
G36*
X107444Y516413D02*
X107444Y516413D01*
X104933Y518924D01*
X104933Y522476D01*
X107331Y524873D01*
X107368Y524927D01*
X107414Y524975D01*
X107430Y525015D01*
X107434Y525019D01*
X107436Y525024D01*
X107459Y525058D01*
X107475Y525121D01*
X107501Y525182D01*
X107503Y525223D01*
X107506Y525232D01*
X107506Y525239D01*
X107515Y525275D01*
X107508Y525340D01*
X107511Y525406D01*
X107500Y525441D01*
X107499Y525456D01*
X107495Y525467D01*
X107492Y525498D01*
X107463Y525557D01*
X107442Y525620D01*
X107422Y525648D01*
X107415Y525664D01*
X107403Y525677D01*
X107392Y525699D01*
X107364Y525726D01*
X107331Y525770D01*
X105437Y527664D01*
X105437Y531008D01*
X107802Y533373D01*
X111146Y533373D01*
X112835Y531683D01*
X112890Y531646D01*
X112937Y531601D01*
X112981Y531582D01*
X113020Y531555D01*
X113083Y531539D01*
X113144Y531513D01*
X113191Y531511D01*
X113237Y531499D01*
X113302Y531506D01*
X113368Y531503D01*
X113413Y531518D01*
X113460Y531522D01*
X113519Y531552D01*
X113582Y531572D01*
X113626Y531604D01*
X113661Y531622D01*
X113688Y531651D01*
X113732Y531683D01*
X115422Y533373D01*
X118766Y533373D01*
X121131Y531008D01*
X121131Y527664D01*
X118766Y525299D01*
X115422Y525299D01*
X113732Y526989D01*
X113678Y527026D01*
X113631Y527071D01*
X113587Y527090D01*
X113548Y527117D01*
X113485Y527133D01*
X113424Y527159D01*
X113377Y527161D01*
X113331Y527173D01*
X113266Y527166D01*
X113200Y527169D01*
X113155Y527154D01*
X113108Y527150D01*
X113049Y527120D01*
X112986Y527100D01*
X112942Y527068D01*
X112907Y527050D01*
X112880Y527021D01*
X112836Y526989D01*
X111363Y525516D01*
X111326Y525462D01*
X111280Y525414D01*
X111262Y525371D01*
X111235Y525332D01*
X111219Y525268D01*
X111193Y525208D01*
X111191Y525161D01*
X111179Y525115D01*
X111186Y525049D01*
X111183Y524984D01*
X111197Y524939D01*
X111202Y524892D01*
X111231Y524833D01*
X111252Y524770D01*
X111284Y524726D01*
X111302Y524691D01*
X111330Y524663D01*
X111363Y524619D01*
X113507Y522476D01*
X113507Y518924D01*
X110996Y516413D01*
X107444Y516413D01*
G37*
%LPD*%
%LPC*%
G36*
X312272Y412269D02*
X312272Y412269D01*
X309907Y414634D01*
X309907Y417985D01*
X309896Y418050D01*
X309894Y418116D01*
X309876Y418159D01*
X309868Y418206D01*
X309834Y418263D01*
X309809Y418323D01*
X309778Y418358D01*
X309753Y418399D01*
X309702Y418441D01*
X309658Y418489D01*
X309616Y418511D01*
X309579Y418540D01*
X309517Y418561D01*
X309458Y418592D01*
X309404Y418600D01*
X309367Y418612D01*
X309327Y418611D01*
X309273Y418619D01*
X305922Y418619D01*
X303557Y420984D01*
X303557Y424328D01*
X305922Y426693D01*
X309273Y426693D01*
X309338Y426704D01*
X309404Y426706D01*
X309447Y426724D01*
X309494Y426732D01*
X309551Y426766D01*
X309611Y426791D01*
X309646Y426822D01*
X309687Y426847D01*
X309729Y426898D01*
X309777Y426942D01*
X309799Y426984D01*
X309828Y427021D01*
X309849Y427083D01*
X309880Y427142D01*
X309888Y427196D01*
X309900Y427233D01*
X309899Y427273D01*
X309907Y427327D01*
X309907Y430678D01*
X312272Y433043D01*
X315616Y433043D01*
X317981Y430678D01*
X317981Y427334D01*
X315616Y424969D01*
X312265Y424969D01*
X312200Y424958D01*
X312134Y424956D01*
X312091Y424938D01*
X312044Y424930D01*
X311987Y424896D01*
X311927Y424871D01*
X311892Y424840D01*
X311851Y424815D01*
X311809Y424764D01*
X311761Y424720D01*
X311739Y424678D01*
X311710Y424641D01*
X311689Y424579D01*
X311658Y424520D01*
X311650Y424466D01*
X311638Y424429D01*
X311639Y424389D01*
X311631Y424335D01*
X311631Y420977D01*
X311642Y420912D01*
X311644Y420846D01*
X311662Y420803D01*
X311670Y420756D01*
X311704Y420699D01*
X311729Y420639D01*
X311760Y420604D01*
X311785Y420563D01*
X311836Y420521D01*
X311880Y420473D01*
X311922Y420451D01*
X311959Y420422D01*
X312021Y420401D01*
X312080Y420370D01*
X312134Y420362D01*
X312171Y420350D01*
X312211Y420351D01*
X312265Y420343D01*
X315616Y420343D01*
X317981Y417978D01*
X317981Y414634D01*
X315616Y412269D01*
X312272Y412269D01*
G37*
%LPD*%
%LPC*%
G36*
X516488Y246153D02*
X516488Y246153D01*
X514123Y248518D01*
X514123Y251862D01*
X516448Y254187D01*
X516485Y254241D01*
X516530Y254288D01*
X516549Y254332D01*
X516576Y254371D01*
X516592Y254434D01*
X516618Y254495D01*
X516620Y254542D01*
X516632Y254588D01*
X516625Y254653D01*
X516628Y254719D01*
X516613Y254764D01*
X516609Y254811D01*
X516579Y254870D01*
X516559Y254933D01*
X516527Y254977D01*
X516509Y255012D01*
X516480Y255039D01*
X516448Y255084D01*
X514123Y257408D01*
X514123Y260752D01*
X516448Y263077D01*
X516485Y263131D01*
X516530Y263178D01*
X516549Y263222D01*
X516576Y263261D01*
X516592Y263324D01*
X516618Y263385D01*
X516620Y263432D01*
X516632Y263478D01*
X516625Y263543D01*
X516628Y263609D01*
X516613Y263654D01*
X516609Y263701D01*
X516579Y263760D01*
X516559Y263823D01*
X516527Y263867D01*
X516509Y263902D01*
X516480Y263929D01*
X516448Y263974D01*
X514123Y266298D01*
X514123Y269642D01*
X516488Y272007D01*
X519832Y272007D01*
X522197Y269642D01*
X522197Y266298D01*
X519872Y263974D01*
X519835Y263919D01*
X519790Y263872D01*
X519771Y263828D01*
X519744Y263789D01*
X519728Y263726D01*
X519702Y263665D01*
X519700Y263618D01*
X519688Y263572D01*
X519695Y263507D01*
X519692Y263441D01*
X519707Y263396D01*
X519711Y263349D01*
X519741Y263290D01*
X519761Y263227D01*
X519793Y263183D01*
X519811Y263148D01*
X519840Y263121D01*
X519872Y263077D01*
X522197Y260752D01*
X522197Y257408D01*
X519872Y255084D01*
X519835Y255029D01*
X519790Y254982D01*
X519771Y254938D01*
X519744Y254899D01*
X519728Y254836D01*
X519702Y254775D01*
X519700Y254728D01*
X519688Y254682D01*
X519695Y254617D01*
X519692Y254551D01*
X519707Y254506D01*
X519711Y254459D01*
X519741Y254400D01*
X519761Y254337D01*
X519793Y254293D01*
X519811Y254258D01*
X519840Y254231D01*
X519872Y254187D01*
X522197Y251862D01*
X522197Y248518D01*
X519832Y246153D01*
X516488Y246153D01*
G37*
%LPD*%
%LPC*%
G36*
X507598Y354103D02*
X507598Y354103D01*
X505233Y356468D01*
X505233Y359812D01*
X507558Y362137D01*
X507595Y362191D01*
X507640Y362238D01*
X507659Y362282D01*
X507686Y362321D01*
X507702Y362384D01*
X507728Y362445D01*
X507730Y362492D01*
X507742Y362538D01*
X507735Y362603D01*
X507738Y362669D01*
X507723Y362714D01*
X507719Y362761D01*
X507689Y362820D01*
X507669Y362883D01*
X507637Y362927D01*
X507619Y362962D01*
X507590Y362989D01*
X507558Y363034D01*
X505233Y365358D01*
X505233Y368702D01*
X507558Y371027D01*
X507595Y371081D01*
X507640Y371128D01*
X507659Y371172D01*
X507686Y371211D01*
X507702Y371274D01*
X507728Y371335D01*
X507730Y371382D01*
X507742Y371428D01*
X507735Y371493D01*
X507738Y371559D01*
X507723Y371604D01*
X507719Y371651D01*
X507689Y371710D01*
X507669Y371773D01*
X507637Y371817D01*
X507619Y371852D01*
X507590Y371879D01*
X507558Y371924D01*
X505233Y374248D01*
X505233Y377592D01*
X507598Y379957D01*
X510942Y379957D01*
X513307Y377592D01*
X513307Y374248D01*
X510982Y371924D01*
X510945Y371869D01*
X510900Y371822D01*
X510881Y371778D01*
X510854Y371739D01*
X510838Y371676D01*
X510812Y371615D01*
X510810Y371568D01*
X510798Y371522D01*
X510805Y371457D01*
X510802Y371391D01*
X510817Y371346D01*
X510821Y371299D01*
X510851Y371240D01*
X510871Y371177D01*
X510903Y371133D01*
X510921Y371098D01*
X510950Y371071D01*
X510982Y371027D01*
X513307Y368702D01*
X513307Y365358D01*
X510982Y363034D01*
X510945Y362979D01*
X510900Y362932D01*
X510881Y362888D01*
X510854Y362849D01*
X510838Y362786D01*
X510812Y362725D01*
X510810Y362678D01*
X510798Y362632D01*
X510805Y362567D01*
X510802Y362501D01*
X510817Y362456D01*
X510821Y362409D01*
X510851Y362350D01*
X510871Y362287D01*
X510903Y362243D01*
X510921Y362208D01*
X510950Y362181D01*
X510982Y362137D01*
X513307Y359812D01*
X513307Y356468D01*
X510942Y354103D01*
X507598Y354103D01*
G37*
%LPD*%
%LPC*%
G36*
X474578Y200433D02*
X474578Y200433D01*
X472213Y202798D01*
X472213Y206142D01*
X474538Y208467D01*
X474575Y208521D01*
X474620Y208568D01*
X474639Y208612D01*
X474666Y208651D01*
X474682Y208714D01*
X474708Y208775D01*
X474710Y208822D01*
X474722Y208868D01*
X474715Y208933D01*
X474718Y208999D01*
X474703Y209044D01*
X474699Y209091D01*
X474669Y209150D01*
X474649Y209213D01*
X474617Y209257D01*
X474599Y209292D01*
X474570Y209319D01*
X474538Y209364D01*
X472213Y211688D01*
X472213Y215032D01*
X474538Y217357D01*
X474575Y217411D01*
X474620Y217458D01*
X474639Y217502D01*
X474666Y217541D01*
X474682Y217604D01*
X474708Y217665D01*
X474710Y217712D01*
X474722Y217758D01*
X474715Y217823D01*
X474718Y217889D01*
X474703Y217934D01*
X474699Y217981D01*
X474669Y218040D01*
X474649Y218103D01*
X474617Y218147D01*
X474599Y218182D01*
X474570Y218209D01*
X474538Y218254D01*
X472213Y220578D01*
X472213Y223922D01*
X474578Y226287D01*
X477922Y226287D01*
X480287Y223922D01*
X480287Y220578D01*
X477962Y218254D01*
X477925Y218199D01*
X477880Y218152D01*
X477861Y218108D01*
X477834Y218069D01*
X477818Y218006D01*
X477792Y217945D01*
X477790Y217898D01*
X477778Y217852D01*
X477785Y217787D01*
X477782Y217721D01*
X477797Y217676D01*
X477801Y217629D01*
X477831Y217570D01*
X477851Y217507D01*
X477883Y217463D01*
X477901Y217428D01*
X477930Y217401D01*
X477962Y217357D01*
X480287Y215032D01*
X480287Y211688D01*
X477962Y209364D01*
X477925Y209309D01*
X477880Y209262D01*
X477861Y209218D01*
X477834Y209179D01*
X477818Y209116D01*
X477792Y209055D01*
X477790Y209008D01*
X477778Y208962D01*
X477785Y208897D01*
X477782Y208831D01*
X477797Y208786D01*
X477801Y208739D01*
X477831Y208680D01*
X477851Y208617D01*
X477883Y208573D01*
X477901Y208538D01*
X477930Y208511D01*
X477962Y208467D01*
X480287Y206142D01*
X480287Y202798D01*
X477922Y200433D01*
X474578Y200433D01*
G37*
%LPD*%
%LPC*%
G36*
X259948Y328703D02*
X259948Y328703D01*
X257583Y331068D01*
X257583Y334412D01*
X259908Y336737D01*
X259945Y336791D01*
X259990Y336838D01*
X260009Y336882D01*
X260036Y336921D01*
X260052Y336984D01*
X260078Y337045D01*
X260080Y337092D01*
X260092Y337138D01*
X260085Y337203D01*
X260088Y337269D01*
X260073Y337314D01*
X260069Y337361D01*
X260039Y337420D01*
X260019Y337483D01*
X259987Y337527D01*
X259969Y337562D01*
X259940Y337589D01*
X259908Y337634D01*
X257583Y339958D01*
X257583Y343302D01*
X259948Y345667D01*
X263292Y345667D01*
X265657Y343302D01*
X265657Y339958D01*
X263332Y337634D01*
X263295Y337579D01*
X263250Y337532D01*
X263231Y337488D01*
X263204Y337449D01*
X263188Y337386D01*
X263162Y337325D01*
X263160Y337278D01*
X263148Y337232D01*
X263155Y337167D01*
X263152Y337101D01*
X263167Y337056D01*
X263171Y337009D01*
X263201Y336950D01*
X263221Y336887D01*
X263253Y336843D01*
X263271Y336808D01*
X263300Y336781D01*
X263332Y336737D01*
X265616Y334452D01*
X265671Y334415D01*
X265718Y334370D01*
X265762Y334351D01*
X265801Y334324D01*
X265864Y334308D01*
X265925Y334282D01*
X265972Y334280D01*
X266018Y334268D01*
X266083Y334275D01*
X266149Y334272D01*
X266194Y334287D01*
X266241Y334291D01*
X266300Y334321D01*
X266363Y334341D01*
X266407Y334373D01*
X266442Y334391D01*
X266469Y334420D01*
X266513Y334452D01*
X268838Y336777D01*
X272182Y336777D01*
X274547Y334412D01*
X274547Y331068D01*
X272182Y328703D01*
X268838Y328703D01*
X266513Y331028D01*
X266459Y331065D01*
X266412Y331110D01*
X266368Y331129D01*
X266329Y331156D01*
X266266Y331172D01*
X266205Y331198D01*
X266158Y331200D01*
X266112Y331212D01*
X266047Y331205D01*
X265981Y331208D01*
X265936Y331193D01*
X265889Y331189D01*
X265830Y331159D01*
X265767Y331139D01*
X265723Y331107D01*
X265688Y331089D01*
X265661Y331060D01*
X265616Y331028D01*
X263292Y328703D01*
X259948Y328703D01*
G37*
%LPD*%
%LPC*%
G36*
X498708Y547143D02*
X498708Y547143D01*
X496343Y549508D01*
X496343Y552603D01*
X496331Y552669D01*
X496330Y552729D01*
X496321Y552749D01*
X496318Y552779D01*
X496308Y552801D01*
X496304Y552824D01*
X496264Y552892D01*
X496245Y552937D01*
X496235Y552948D01*
X496219Y552981D01*
X496202Y552997D01*
X496189Y553017D01*
X496121Y553073D01*
X496094Y553102D01*
X496084Y553107D01*
X496056Y553134D01*
X496034Y553144D01*
X496015Y553159D01*
X495931Y553187D01*
X495918Y553193D01*
X495894Y553205D01*
X495886Y553206D01*
X495849Y553222D01*
X495825Y553223D01*
X495803Y553231D01*
X495735Y553229D01*
X495709Y553233D01*
X495704Y553233D01*
X495685Y553229D01*
X495625Y553232D01*
X495602Y553225D01*
X495578Y553224D01*
X495517Y553199D01*
X495483Y553193D01*
X495459Y553179D01*
X495411Y553163D01*
X495390Y553148D01*
X495371Y553140D01*
X495333Y553106D01*
X495325Y553099D01*
X495290Y553079D01*
X495279Y553066D01*
X495261Y553052D01*
X494432Y552223D01*
X491088Y552223D01*
X488723Y554588D01*
X488723Y557932D01*
X491048Y560257D01*
X491085Y560311D01*
X491130Y560358D01*
X491149Y560402D01*
X491176Y560441D01*
X491192Y560504D01*
X491218Y560565D01*
X491220Y560612D01*
X491232Y560658D01*
X491225Y560723D01*
X491228Y560789D01*
X491213Y560834D01*
X491209Y560881D01*
X491179Y560940D01*
X491159Y561003D01*
X491127Y561047D01*
X491109Y561082D01*
X491080Y561109D01*
X491048Y561154D01*
X488723Y563478D01*
X488723Y566822D01*
X491088Y569187D01*
X494432Y569187D01*
X496797Y566822D01*
X496797Y563478D01*
X494472Y561154D01*
X494435Y561099D01*
X494390Y561052D01*
X494371Y561008D01*
X494344Y560969D01*
X494328Y560906D01*
X494302Y560845D01*
X494300Y560798D01*
X494288Y560752D01*
X494295Y560687D01*
X494292Y560621D01*
X494307Y560576D01*
X494311Y560529D01*
X494341Y560470D01*
X494361Y560407D01*
X494393Y560363D01*
X494411Y560328D01*
X494440Y560301D01*
X494472Y560257D01*
X496797Y557932D01*
X496797Y554837D01*
X496812Y554749D01*
X496822Y554661D01*
X496832Y554639D01*
X496836Y554616D01*
X496882Y554539D01*
X496921Y554459D01*
X496938Y554443D01*
X496951Y554423D01*
X497020Y554367D01*
X497084Y554306D01*
X497106Y554296D01*
X497125Y554281D01*
X497209Y554253D01*
X497291Y554218D01*
X497315Y554217D01*
X497337Y554209D01*
X497426Y554212D01*
X497515Y554208D01*
X497538Y554215D01*
X497562Y554216D01*
X497644Y554250D01*
X497729Y554277D01*
X497750Y554292D01*
X497769Y554300D01*
X497807Y554334D01*
X497879Y554388D01*
X498708Y555217D01*
X502052Y555217D01*
X504417Y552852D01*
X504417Y549508D01*
X502052Y547143D01*
X498708Y547143D01*
G37*
%LPD*%
%LPC*%
G36*
X346308Y342673D02*
X346308Y342673D01*
X343943Y345038D01*
X343943Y348382D01*
X346308Y350747D01*
X348133Y350747D01*
X348221Y350763D01*
X348309Y350772D01*
X348331Y350782D01*
X348354Y350786D01*
X348431Y350832D01*
X348511Y350871D01*
X348527Y350888D01*
X348547Y350901D01*
X348603Y350970D01*
X348664Y351034D01*
X348674Y351056D01*
X348689Y351075D01*
X348717Y351159D01*
X348752Y351241D01*
X348753Y351265D01*
X348761Y351287D01*
X348758Y351376D01*
X348762Y351465D01*
X348755Y351488D01*
X348754Y351512D01*
X348720Y351594D01*
X348693Y351679D01*
X348678Y351700D01*
X348670Y351719D01*
X348636Y351757D01*
X348582Y351829D01*
X346483Y353928D01*
X346483Y357272D01*
X348848Y359637D01*
X352192Y359637D01*
X353882Y357947D01*
X353936Y357910D01*
X353983Y357865D01*
X354027Y357846D01*
X354066Y357819D01*
X354129Y357803D01*
X354190Y357777D01*
X354237Y357775D01*
X354283Y357763D01*
X354348Y357770D01*
X354414Y357767D01*
X354459Y357782D01*
X354506Y357786D01*
X354565Y357816D01*
X354628Y357836D01*
X354672Y357868D01*
X354707Y357886D01*
X354734Y357915D01*
X354779Y357947D01*
X356468Y359637D01*
X359812Y359637D01*
X362177Y357272D01*
X362177Y353928D01*
X359812Y351563D01*
X356468Y351563D01*
X354779Y353253D01*
X354724Y353290D01*
X354677Y353335D01*
X354633Y353354D01*
X354594Y353381D01*
X354531Y353397D01*
X354470Y353423D01*
X354423Y353425D01*
X354377Y353437D01*
X354312Y353430D01*
X354246Y353433D01*
X354201Y353418D01*
X354154Y353414D01*
X354095Y353384D01*
X354032Y353364D01*
X353988Y353332D01*
X353953Y353314D01*
X353926Y353285D01*
X353882Y353253D01*
X352192Y351563D01*
X350367Y351563D01*
X350279Y351547D01*
X350191Y351538D01*
X350169Y351528D01*
X350146Y351524D01*
X350069Y351478D01*
X349989Y351439D01*
X349973Y351422D01*
X349953Y351409D01*
X349897Y351340D01*
X349836Y351276D01*
X349826Y351254D01*
X349811Y351235D01*
X349783Y351151D01*
X349748Y351069D01*
X349747Y351045D01*
X349739Y351023D01*
X349742Y350934D01*
X349738Y350845D01*
X349745Y350822D01*
X349746Y350798D01*
X349780Y350716D01*
X349807Y350631D01*
X349822Y350610D01*
X349830Y350591D01*
X349864Y350553D01*
X349918Y350481D01*
X352017Y348382D01*
X352017Y345038D01*
X349652Y342673D01*
X346308Y342673D01*
G37*
%LPD*%
%LPC*%
G36*
X489818Y690653D02*
X489818Y690653D01*
X487453Y693018D01*
X487453Y696362D01*
X489143Y698052D01*
X489180Y698106D01*
X489225Y698153D01*
X489244Y698197D01*
X489271Y698236D01*
X489287Y698299D01*
X489313Y698360D01*
X489315Y698407D01*
X489327Y698453D01*
X489320Y698518D01*
X489323Y698584D01*
X489308Y698629D01*
X489304Y698676D01*
X489274Y698735D01*
X489254Y698798D01*
X489222Y698842D01*
X489204Y698877D01*
X489175Y698904D01*
X489143Y698949D01*
X487453Y700638D01*
X487453Y703982D01*
X489143Y705672D01*
X489180Y705726D01*
X489225Y705773D01*
X489244Y705817D01*
X489271Y705856D01*
X489287Y705919D01*
X489313Y705980D01*
X489315Y706027D01*
X489327Y706073D01*
X489320Y706138D01*
X489323Y706204D01*
X489308Y706249D01*
X489304Y706296D01*
X489274Y706355D01*
X489254Y706418D01*
X489222Y706462D01*
X489204Y706497D01*
X489175Y706524D01*
X489143Y706569D01*
X487453Y708258D01*
X487453Y711602D01*
X489818Y713967D01*
X493162Y713967D01*
X495527Y711602D01*
X495527Y708258D01*
X493837Y706569D01*
X493800Y706514D01*
X493755Y706467D01*
X493736Y706423D01*
X493709Y706384D01*
X493693Y706321D01*
X493667Y706260D01*
X493665Y706213D01*
X493653Y706167D01*
X493660Y706102D01*
X493657Y706036D01*
X493672Y705991D01*
X493676Y705944D01*
X493706Y705885D01*
X493726Y705822D01*
X493758Y705778D01*
X493776Y705743D01*
X493805Y705716D01*
X493837Y705672D01*
X495527Y703982D01*
X495527Y700638D01*
X493837Y698949D01*
X493800Y698894D01*
X493755Y698847D01*
X493736Y698803D01*
X493709Y698764D01*
X493693Y698701D01*
X493667Y698640D01*
X493665Y698593D01*
X493653Y698547D01*
X493660Y698482D01*
X493657Y698416D01*
X493672Y698371D01*
X493676Y698324D01*
X493706Y698265D01*
X493726Y698202D01*
X493758Y698158D01*
X493776Y698123D01*
X493805Y698096D01*
X493837Y698052D01*
X495527Y696362D01*
X495527Y693018D01*
X493162Y690653D01*
X489818Y690653D01*
G37*
%LPD*%
%LPC*%
G36*
X262236Y634164D02*
X262236Y634164D01*
X259514Y636886D01*
X259514Y640734D01*
X262236Y643456D01*
X266084Y643456D01*
X268791Y640749D01*
X268846Y640711D01*
X268893Y640666D01*
X268937Y640647D01*
X268976Y640620D01*
X269039Y640604D01*
X269100Y640578D01*
X269147Y640576D01*
X269193Y640565D01*
X269258Y640571D01*
X269324Y640568D01*
X269369Y640583D01*
X269416Y640588D01*
X269475Y640617D01*
X269538Y640637D01*
X269582Y640670D01*
X269617Y640687D01*
X269644Y640716D01*
X269688Y640749D01*
X272396Y643456D01*
X276244Y643456D01*
X278966Y640734D01*
X278966Y636886D01*
X276244Y634164D01*
X272396Y634164D01*
X269688Y636871D01*
X269634Y636909D01*
X269587Y636954D01*
X269543Y636973D01*
X269504Y637000D01*
X269441Y637016D01*
X269380Y637042D01*
X269333Y637044D01*
X269287Y637055D01*
X269222Y637049D01*
X269156Y637052D01*
X269111Y637037D01*
X269064Y637032D01*
X269005Y637003D01*
X268942Y636983D01*
X268898Y636950D01*
X268863Y636933D01*
X268836Y636904D01*
X268791Y636871D01*
X266084Y634164D01*
X262236Y634164D01*
G37*
%LPD*%
%LPC*%
G36*
X315022Y244093D02*
X315022Y244093D01*
X312511Y246604D01*
X312511Y250156D01*
X315022Y252667D01*
X318574Y252667D01*
X320417Y250823D01*
X320471Y250785D01*
X320519Y250740D01*
X320563Y250722D01*
X320601Y250695D01*
X320665Y250679D01*
X320726Y250653D01*
X320773Y250651D01*
X320819Y250639D01*
X320884Y250646D01*
X320950Y250643D01*
X320995Y250657D01*
X321042Y250662D01*
X321101Y250691D01*
X321164Y250712D01*
X321208Y250744D01*
X321243Y250762D01*
X321270Y250790D01*
X321314Y250823D01*
X323448Y252957D01*
X326792Y252957D01*
X329157Y250592D01*
X329157Y247248D01*
X326792Y244883D01*
X323448Y244883D01*
X321854Y246477D01*
X321800Y246514D01*
X321752Y246560D01*
X321709Y246578D01*
X321670Y246605D01*
X321606Y246621D01*
X321546Y246647D01*
X321498Y246649D01*
X321453Y246661D01*
X321387Y246654D01*
X321322Y246657D01*
X321277Y246643D01*
X321230Y246638D01*
X321171Y246609D01*
X321108Y246588D01*
X321064Y246556D01*
X321028Y246538D01*
X321001Y246510D01*
X320957Y246477D01*
X318574Y244093D01*
X315022Y244093D01*
G37*
%LPD*%
%LPC*%
G36*
X263758Y234723D02*
X263758Y234723D01*
X261393Y237088D01*
X261393Y240432D01*
X263718Y242756D01*
X263755Y242811D01*
X263800Y242858D01*
X263819Y242902D01*
X263846Y242941D01*
X263862Y243004D01*
X263888Y243065D01*
X263890Y243112D01*
X263902Y243158D01*
X263895Y243223D01*
X263898Y243289D01*
X263883Y243334D01*
X263879Y243381D01*
X263849Y243440D01*
X263829Y243503D01*
X263797Y243547D01*
X263779Y243582D01*
X263750Y243609D01*
X263718Y243653D01*
X261393Y245978D01*
X261393Y249322D01*
X263758Y251687D01*
X267102Y251687D01*
X269467Y249322D01*
X269467Y245978D01*
X267142Y243653D01*
X267105Y243599D01*
X267060Y243552D01*
X267041Y243508D01*
X267014Y243469D01*
X266998Y243406D01*
X266972Y243345D01*
X266970Y243298D01*
X266958Y243252D01*
X266965Y243187D01*
X266962Y243121D01*
X266977Y243076D01*
X266981Y243029D01*
X267011Y242970D01*
X267031Y242907D01*
X267063Y242863D01*
X267081Y242828D01*
X267110Y242801D01*
X267142Y242756D01*
X269467Y240432D01*
X269467Y237088D01*
X267102Y234723D01*
X263758Y234723D01*
G37*
%LPD*%
%LPC*%
G36*
X451718Y210593D02*
X451718Y210593D01*
X449353Y212958D01*
X449353Y216302D01*
X451678Y218626D01*
X451715Y218681D01*
X451760Y218728D01*
X451779Y218772D01*
X451806Y218811D01*
X451822Y218874D01*
X451848Y218935D01*
X451850Y218982D01*
X451862Y219028D01*
X451855Y219093D01*
X451858Y219159D01*
X451843Y219204D01*
X451839Y219251D01*
X451809Y219310D01*
X451789Y219373D01*
X451757Y219417D01*
X451739Y219452D01*
X451710Y219479D01*
X451678Y219523D01*
X449353Y221848D01*
X449353Y225192D01*
X451718Y227557D01*
X455062Y227557D01*
X457427Y225192D01*
X457427Y221848D01*
X455102Y219523D01*
X455065Y219469D01*
X455020Y219422D01*
X455001Y219378D01*
X454974Y219339D01*
X454958Y219276D01*
X454932Y219215D01*
X454930Y219168D01*
X454918Y219122D01*
X454925Y219057D01*
X454922Y218991D01*
X454937Y218946D01*
X454941Y218899D01*
X454971Y218840D01*
X454991Y218777D01*
X455023Y218733D01*
X455041Y218698D01*
X455070Y218671D01*
X455102Y218626D01*
X457427Y216302D01*
X457427Y212958D01*
X455062Y210593D01*
X451718Y210593D01*
G37*
%LPD*%
%LPC*%
G36*
X106532Y609119D02*
X106532Y609119D01*
X104167Y611484D01*
X104167Y614828D01*
X106532Y617193D01*
X109876Y617193D01*
X112200Y614868D01*
X112255Y614831D01*
X112302Y614786D01*
X112346Y614767D01*
X112385Y614740D01*
X112448Y614724D01*
X112509Y614698D01*
X112556Y614696D01*
X112602Y614684D01*
X112667Y614691D01*
X112733Y614688D01*
X112778Y614703D01*
X112825Y614707D01*
X112884Y614737D01*
X112947Y614757D01*
X112991Y614789D01*
X113026Y614807D01*
X113053Y614836D01*
X113097Y614868D01*
X115422Y617193D01*
X118766Y617193D01*
X121131Y614828D01*
X121131Y611484D01*
X118766Y609119D01*
X115422Y609119D01*
X113097Y611444D01*
X113043Y611481D01*
X112996Y611526D01*
X112952Y611545D01*
X112913Y611572D01*
X112850Y611588D01*
X112789Y611614D01*
X112742Y611616D01*
X112696Y611628D01*
X112631Y611621D01*
X112565Y611624D01*
X112520Y611609D01*
X112473Y611605D01*
X112414Y611575D01*
X112351Y611555D01*
X112307Y611523D01*
X112272Y611505D01*
X112245Y611476D01*
X112200Y611444D01*
X109876Y609119D01*
X106532Y609119D01*
G37*
%LPD*%
%LPC*%
G36*
X510138Y592863D02*
X510138Y592863D01*
X507773Y595228D01*
X507773Y598572D01*
X510098Y600897D01*
X510135Y600951D01*
X510180Y600998D01*
X510199Y601042D01*
X510226Y601081D01*
X510242Y601144D01*
X510268Y601205D01*
X510270Y601252D01*
X510282Y601298D01*
X510275Y601363D01*
X510278Y601429D01*
X510263Y601474D01*
X510259Y601521D01*
X510229Y601580D01*
X510209Y601643D01*
X510177Y601687D01*
X510159Y601722D01*
X510130Y601749D01*
X510098Y601794D01*
X507773Y604118D01*
X507773Y607462D01*
X510138Y609827D01*
X513482Y609827D01*
X515847Y607462D01*
X515847Y604118D01*
X513522Y601794D01*
X513485Y601739D01*
X513440Y601692D01*
X513421Y601648D01*
X513394Y601609D01*
X513378Y601546D01*
X513352Y601485D01*
X513350Y601438D01*
X513338Y601392D01*
X513345Y601327D01*
X513342Y601261D01*
X513357Y601216D01*
X513361Y601169D01*
X513391Y601110D01*
X513411Y601047D01*
X513443Y601003D01*
X513461Y600968D01*
X513490Y600941D01*
X513522Y600897D01*
X515847Y598572D01*
X515847Y595228D01*
X513482Y592863D01*
X510138Y592863D01*
G37*
%LPD*%
%LPC*%
G36*
X241152Y358929D02*
X241152Y358929D01*
X238787Y361294D01*
X238787Y364638D01*
X241152Y367003D01*
X244496Y367003D01*
X246820Y364678D01*
X246875Y364641D01*
X246922Y364596D01*
X246966Y364577D01*
X247005Y364550D01*
X247068Y364534D01*
X247129Y364508D01*
X247176Y364506D01*
X247222Y364494D01*
X247287Y364501D01*
X247353Y364498D01*
X247398Y364513D01*
X247445Y364517D01*
X247504Y364547D01*
X247567Y364567D01*
X247611Y364599D01*
X247646Y364617D01*
X247673Y364646D01*
X247717Y364678D01*
X250042Y367003D01*
X253386Y367003D01*
X255751Y364638D01*
X255751Y361294D01*
X253386Y358929D01*
X250042Y358929D01*
X247717Y361254D01*
X247663Y361291D01*
X247616Y361336D01*
X247572Y361355D01*
X247533Y361382D01*
X247470Y361398D01*
X247409Y361424D01*
X247362Y361426D01*
X247316Y361438D01*
X247251Y361431D01*
X247185Y361434D01*
X247140Y361419D01*
X247093Y361415D01*
X247034Y361385D01*
X246971Y361365D01*
X246927Y361333D01*
X246892Y361315D01*
X246865Y361286D01*
X246820Y361254D01*
X244496Y358929D01*
X241152Y358929D01*
G37*
%LPD*%
%LPC*%
G36*
X283062Y480849D02*
X283062Y480849D01*
X280697Y483214D01*
X280697Y486558D01*
X283062Y488923D01*
X286406Y488923D01*
X288730Y486598D01*
X288785Y486561D01*
X288832Y486516D01*
X288876Y486497D01*
X288915Y486470D01*
X288978Y486454D01*
X289039Y486428D01*
X289086Y486426D01*
X289132Y486414D01*
X289197Y486421D01*
X289263Y486418D01*
X289308Y486433D01*
X289355Y486437D01*
X289414Y486467D01*
X289477Y486487D01*
X289521Y486519D01*
X289556Y486537D01*
X289583Y486566D01*
X289627Y486598D01*
X291952Y488923D01*
X295296Y488923D01*
X297661Y486558D01*
X297661Y483214D01*
X295296Y480849D01*
X291952Y480849D01*
X289627Y483174D01*
X289573Y483211D01*
X289526Y483256D01*
X289482Y483275D01*
X289443Y483302D01*
X289380Y483318D01*
X289319Y483344D01*
X289272Y483346D01*
X289226Y483358D01*
X289161Y483351D01*
X289095Y483354D01*
X289050Y483339D01*
X289003Y483335D01*
X288944Y483305D01*
X288881Y483285D01*
X288837Y483253D01*
X288802Y483235D01*
X288775Y483206D01*
X288730Y483174D01*
X286406Y480849D01*
X283062Y480849D01*
G37*
%LPD*%
%LPC*%
G36*
X182732Y357659D02*
X182732Y357659D01*
X180367Y360024D01*
X180367Y363368D01*
X182692Y365693D01*
X182729Y365747D01*
X182774Y365794D01*
X182786Y365822D01*
X182786Y365823D01*
X182787Y365824D01*
X182793Y365838D01*
X182820Y365877D01*
X182836Y365940D01*
X182862Y366001D01*
X182864Y366048D01*
X182876Y366094D01*
X182869Y366159D01*
X182872Y366225D01*
X182857Y366270D01*
X182853Y366317D01*
X182823Y366376D01*
X182803Y366439D01*
X182771Y366483D01*
X182753Y366518D01*
X182724Y366545D01*
X182692Y366590D01*
X180367Y368914D01*
X180367Y372258D01*
X182732Y374623D01*
X186076Y374623D01*
X188441Y372258D01*
X188441Y368914D01*
X186116Y366590D01*
X186079Y366535D01*
X186034Y366488D01*
X186015Y366444D01*
X185988Y366405D01*
X185972Y366342D01*
X185946Y366281D01*
X185944Y366234D01*
X185932Y366188D01*
X185939Y366123D01*
X185936Y366057D01*
X185951Y366012D01*
X185955Y365965D01*
X185985Y365906D01*
X186005Y365843D01*
X186037Y365800D01*
X186041Y365790D01*
X186043Y365788D01*
X186055Y365764D01*
X186084Y365737D01*
X186116Y365693D01*
X188441Y363368D01*
X188441Y360024D01*
X186076Y357659D01*
X182732Y357659D01*
G37*
%LPD*%
%LPC*%
G36*
X350118Y293143D02*
X350118Y293143D01*
X347753Y295508D01*
X347753Y298852D01*
X350118Y301217D01*
X353462Y301217D01*
X355786Y298892D01*
X355814Y298873D01*
X355820Y298867D01*
X355831Y298861D01*
X355841Y298855D01*
X355888Y298810D01*
X355932Y298791D01*
X355971Y298764D01*
X356034Y298748D01*
X356095Y298722D01*
X356142Y298720D01*
X356188Y298708D01*
X356253Y298715D01*
X356319Y298712D01*
X356364Y298727D01*
X356411Y298731D01*
X356470Y298761D01*
X356533Y298781D01*
X356577Y298813D01*
X356612Y298831D01*
X356639Y298860D01*
X356683Y298892D01*
X359008Y301217D01*
X362352Y301217D01*
X364717Y298852D01*
X364717Y295508D01*
X362352Y293143D01*
X359008Y293143D01*
X356683Y295468D01*
X356629Y295505D01*
X356582Y295550D01*
X356538Y295569D01*
X356499Y295596D01*
X356436Y295612D01*
X356375Y295638D01*
X356328Y295640D01*
X356282Y295652D01*
X356217Y295645D01*
X356151Y295648D01*
X356106Y295633D01*
X356059Y295629D01*
X356000Y295599D01*
X355937Y295579D01*
X355893Y295547D01*
X355858Y295529D01*
X355831Y295500D01*
X355786Y295468D01*
X353462Y293143D01*
X350118Y293143D01*
G37*
%LPD*%
%LPC*%
G36*
X327512Y442749D02*
X327512Y442749D01*
X325147Y445114D01*
X325147Y448458D01*
X327246Y450557D01*
X327297Y450630D01*
X327353Y450699D01*
X327360Y450721D01*
X327374Y450741D01*
X327396Y450827D01*
X327425Y450911D01*
X327424Y450935D01*
X327430Y450958D01*
X327421Y451047D01*
X327418Y451136D01*
X327409Y451158D01*
X327407Y451181D01*
X327367Y451261D01*
X327334Y451343D01*
X327318Y451361D01*
X327307Y451382D01*
X327242Y451443D01*
X327182Y451509D01*
X327161Y451520D01*
X327144Y451536D01*
X327062Y451571D01*
X326983Y451612D01*
X326956Y451615D01*
X326937Y451624D01*
X326887Y451626D01*
X326797Y451639D01*
X324972Y451639D01*
X322607Y454004D01*
X322607Y457348D01*
X324972Y459713D01*
X328316Y459713D01*
X330681Y457348D01*
X330681Y454004D01*
X328582Y451905D01*
X328531Y451832D01*
X328475Y451763D01*
X328468Y451741D01*
X328454Y451721D01*
X328432Y451635D01*
X328403Y451551D01*
X328404Y451527D01*
X328398Y451504D01*
X328407Y451415D01*
X328410Y451326D01*
X328419Y451304D01*
X328421Y451281D01*
X328461Y451201D01*
X328494Y451119D01*
X328510Y451101D01*
X328521Y451080D01*
X328586Y451019D01*
X328646Y450953D01*
X328667Y450942D01*
X328684Y450926D01*
X328766Y450891D01*
X328845Y450850D01*
X328872Y450847D01*
X328891Y450838D01*
X328941Y450836D01*
X329031Y450823D01*
X330856Y450823D01*
X333221Y448458D01*
X333221Y445114D01*
X330856Y442749D01*
X327512Y442749D01*
G37*
%LPD*%
%LPC*%
G36*
X92562Y313209D02*
X92562Y313209D01*
X90197Y315574D01*
X90197Y318918D01*
X91887Y320608D01*
X91924Y320662D01*
X91969Y320709D01*
X91988Y320753D01*
X92015Y320792D01*
X92031Y320855D01*
X92057Y320916D01*
X92059Y320963D01*
X92071Y321009D01*
X92064Y321074D01*
X92067Y321140D01*
X92052Y321185D01*
X92048Y321232D01*
X92018Y321291D01*
X91998Y321354D01*
X91966Y321398D01*
X91948Y321433D01*
X91919Y321460D01*
X91887Y321505D01*
X90197Y323194D01*
X90197Y326538D01*
X92562Y328903D01*
X95906Y328903D01*
X98271Y326538D01*
X98271Y323194D01*
X96581Y321505D01*
X96544Y321450D01*
X96499Y321403D01*
X96480Y321359D01*
X96453Y321320D01*
X96437Y321257D01*
X96411Y321196D01*
X96409Y321149D01*
X96397Y321103D01*
X96404Y321038D01*
X96401Y320972D01*
X96416Y320927D01*
X96420Y320880D01*
X96450Y320821D01*
X96470Y320758D01*
X96502Y320714D01*
X96520Y320679D01*
X96549Y320652D01*
X96581Y320608D01*
X98271Y318918D01*
X98271Y315574D01*
X95906Y313209D01*
X92562Y313209D01*
G37*
%LPD*%
%LPC*%
G36*
X158602Y313209D02*
X158602Y313209D01*
X156237Y315574D01*
X156237Y318918D01*
X157927Y320608D01*
X157964Y320662D01*
X158009Y320709D01*
X158028Y320753D01*
X158055Y320792D01*
X158071Y320855D01*
X158097Y320916D01*
X158099Y320963D01*
X158111Y321009D01*
X158104Y321074D01*
X158107Y321140D01*
X158092Y321185D01*
X158088Y321232D01*
X158058Y321291D01*
X158038Y321354D01*
X158006Y321398D01*
X157988Y321433D01*
X157959Y321460D01*
X157927Y321505D01*
X156237Y323194D01*
X156237Y326538D01*
X158602Y328903D01*
X161946Y328903D01*
X164311Y326538D01*
X164311Y323194D01*
X162621Y321505D01*
X162584Y321450D01*
X162539Y321403D01*
X162520Y321359D01*
X162493Y321320D01*
X162477Y321257D01*
X162451Y321196D01*
X162449Y321149D01*
X162437Y321103D01*
X162444Y321038D01*
X162441Y320972D01*
X162456Y320927D01*
X162460Y320880D01*
X162490Y320821D01*
X162510Y320758D01*
X162542Y320714D01*
X162560Y320679D01*
X162589Y320652D01*
X162621Y320608D01*
X164311Y318918D01*
X164311Y315574D01*
X161946Y313209D01*
X158602Y313209D01*
G37*
%LPD*%
%LPC*%
G36*
X190352Y615469D02*
X190352Y615469D01*
X187987Y617834D01*
X187987Y621178D01*
X190352Y623543D01*
X193696Y623543D01*
X195386Y621853D01*
X195440Y621816D01*
X195487Y621771D01*
X195531Y621752D01*
X195570Y621725D01*
X195633Y621709D01*
X195694Y621683D01*
X195741Y621681D01*
X195787Y621669D01*
X195852Y621676D01*
X195918Y621673D01*
X195963Y621688D01*
X196010Y621692D01*
X196069Y621722D01*
X196132Y621742D01*
X196176Y621774D01*
X196211Y621792D01*
X196238Y621821D01*
X196283Y621853D01*
X197972Y623543D01*
X201316Y623543D01*
X203681Y621178D01*
X203681Y617834D01*
X201316Y615469D01*
X197972Y615469D01*
X196283Y617159D01*
X196228Y617196D01*
X196181Y617241D01*
X196137Y617260D01*
X196098Y617287D01*
X196035Y617303D01*
X195974Y617329D01*
X195927Y617331D01*
X195881Y617343D01*
X195816Y617336D01*
X195750Y617339D01*
X195705Y617324D01*
X195658Y617320D01*
X195599Y617290D01*
X195536Y617270D01*
X195492Y617238D01*
X195457Y617220D01*
X195430Y617191D01*
X195386Y617159D01*
X193696Y615469D01*
X190352Y615469D01*
G37*
%LPD*%
%LPC*%
G36*
X190352Y550699D02*
X190352Y550699D01*
X187987Y553064D01*
X187987Y556408D01*
X190352Y558773D01*
X193696Y558773D01*
X195385Y557083D01*
X195440Y557046D01*
X195487Y557001D01*
X195531Y556982D01*
X195570Y556955D01*
X195633Y556939D01*
X195694Y556913D01*
X195741Y556911D01*
X195787Y556899D01*
X195852Y556906D01*
X195918Y556903D01*
X195963Y556918D01*
X196010Y556922D01*
X196069Y556952D01*
X196132Y556972D01*
X196176Y557004D01*
X196211Y557022D01*
X196238Y557051D01*
X196282Y557083D01*
X197972Y558773D01*
X201316Y558773D01*
X203681Y556408D01*
X203681Y553064D01*
X201316Y550699D01*
X197972Y550699D01*
X196282Y552389D01*
X196228Y552426D01*
X196181Y552471D01*
X196137Y552490D01*
X196098Y552517D01*
X196035Y552533D01*
X195974Y552559D01*
X195927Y552561D01*
X195881Y552573D01*
X195816Y552566D01*
X195750Y552569D01*
X195705Y552554D01*
X195658Y552550D01*
X195599Y552520D01*
X195536Y552500D01*
X195492Y552468D01*
X195457Y552450D01*
X195430Y552421D01*
X195385Y552389D01*
X193696Y550699D01*
X190352Y550699D01*
G37*
%LPD*%
%LPC*%
G36*
X87482Y525299D02*
X87482Y525299D01*
X85117Y527664D01*
X85117Y531008D01*
X87482Y533373D01*
X90826Y533373D01*
X91880Y532318D01*
X91935Y532281D01*
X91982Y532236D01*
X92026Y532217D01*
X92065Y532190D01*
X92128Y532174D01*
X92189Y532148D01*
X92236Y532146D01*
X92282Y532134D01*
X92347Y532141D01*
X92413Y532138D01*
X92458Y532153D01*
X92505Y532157D01*
X92564Y532187D01*
X92627Y532207D01*
X92671Y532239D01*
X92706Y532257D01*
X92733Y532286D01*
X92777Y532318D01*
X93832Y533373D01*
X97176Y533373D01*
X99541Y531008D01*
X99541Y527664D01*
X97176Y525299D01*
X93832Y525299D01*
X92777Y526354D01*
X92723Y526391D01*
X92676Y526436D01*
X92632Y526455D01*
X92593Y526482D01*
X92530Y526498D01*
X92469Y526524D01*
X92422Y526526D01*
X92376Y526538D01*
X92311Y526531D01*
X92245Y526534D01*
X92200Y526519D01*
X92153Y526515D01*
X92094Y526485D01*
X92031Y526465D01*
X91987Y526433D01*
X91952Y526415D01*
X91925Y526386D01*
X91880Y526354D01*
X90826Y525299D01*
X87482Y525299D01*
G37*
%LPD*%
%LPC*%
G36*
X350118Y437923D02*
X350118Y437923D01*
X347753Y440288D01*
X347753Y443632D01*
X350118Y445997D01*
X353462Y445997D01*
X354517Y444942D01*
X354547Y444921D01*
X354561Y444906D01*
X354579Y444896D01*
X354618Y444860D01*
X354662Y444841D01*
X354701Y444814D01*
X354764Y444798D01*
X354825Y444772D01*
X354872Y444770D01*
X354918Y444758D01*
X354983Y444765D01*
X355049Y444762D01*
X355094Y444777D01*
X355141Y444781D01*
X355200Y444811D01*
X355263Y444831D01*
X355307Y444863D01*
X355342Y444881D01*
X355369Y444910D01*
X355388Y444924D01*
X355398Y444930D01*
X355401Y444933D01*
X355414Y444942D01*
X356468Y445997D01*
X359812Y445997D01*
X362177Y443632D01*
X362177Y440288D01*
X359812Y437923D01*
X356468Y437923D01*
X355414Y438978D01*
X355359Y439015D01*
X355312Y439060D01*
X355268Y439079D01*
X355229Y439106D01*
X355166Y439122D01*
X355105Y439148D01*
X355058Y439150D01*
X355012Y439162D01*
X354947Y439155D01*
X354881Y439158D01*
X354836Y439143D01*
X354789Y439139D01*
X354730Y439109D01*
X354667Y439089D01*
X354623Y439057D01*
X354588Y439039D01*
X354561Y439010D01*
X354517Y438978D01*
X353462Y437923D01*
X350118Y437923D01*
G37*
%LPD*%
%LPC*%
G36*
X309226Y624004D02*
X309226Y624004D01*
X306504Y626726D01*
X306504Y630574D01*
X309226Y633296D01*
X313074Y633296D01*
X315796Y630574D01*
X315796Y626726D01*
X313074Y624004D01*
X309226Y624004D01*
G37*
%LPD*%
%LPC*%
G36*
X334626Y627814D02*
X334626Y627814D01*
X331904Y630536D01*
X331904Y634384D01*
X334626Y637106D01*
X338474Y637106D01*
X341196Y634384D01*
X341196Y630536D01*
X338474Y627814D01*
X334626Y627814D01*
G37*
%LPD*%
%LPC*%
G36*
X393046Y240464D02*
X393046Y240464D01*
X390324Y243186D01*
X390324Y247034D01*
X393046Y249756D01*
X396894Y249756D01*
X399616Y247034D01*
X399616Y243186D01*
X396894Y240464D01*
X393046Y240464D01*
G37*
%LPD*%
%LPC*%
G36*
X309226Y726874D02*
X309226Y726874D01*
X306504Y729596D01*
X306504Y733444D01*
X309226Y736166D01*
X313074Y736166D01*
X315796Y733444D01*
X315796Y729596D01*
X313074Y726874D01*
X309226Y726874D01*
G37*
%LPD*%
%LPC*%
G36*
X367646Y632894D02*
X367646Y632894D01*
X364924Y635616D01*
X364924Y639464D01*
X367646Y642186D01*
X371494Y642186D01*
X374216Y639464D01*
X374216Y635616D01*
X371494Y632894D01*
X367646Y632894D01*
G37*
%LPD*%
%LPC*%
G36*
X309226Y681154D02*
X309226Y681154D01*
X306504Y683876D01*
X306504Y687724D01*
X309226Y690446D01*
X313074Y690446D01*
X315796Y687724D01*
X315796Y683876D01*
X313074Y681154D01*
X309226Y681154D01*
G37*
%LPD*%
%LPC*%
G36*
X281286Y660834D02*
X281286Y660834D01*
X278564Y663556D01*
X278564Y667404D01*
X281286Y670126D01*
X285134Y670126D01*
X287856Y667404D01*
X287856Y663556D01*
X285134Y660834D01*
X281286Y660834D01*
G37*
%LPD*%
%LPC*%
G36*
X321926Y658294D02*
X321926Y658294D01*
X319204Y661016D01*
X319204Y664864D01*
X321926Y667586D01*
X325774Y667586D01*
X328496Y664864D01*
X328496Y661016D01*
X325774Y658294D01*
X321926Y658294D01*
G37*
%LPD*%
%LPC*%
G36*
X334626Y655754D02*
X334626Y655754D01*
X331904Y658476D01*
X331904Y662324D01*
X334626Y665046D01*
X338474Y665046D01*
X341196Y662324D01*
X341196Y658476D01*
X338474Y655754D01*
X334626Y655754D01*
G37*
%LPD*%
%LPC*%
G36*
X439401Y62029D02*
X439401Y62029D01*
X436679Y64751D01*
X436679Y68599D01*
X439401Y71321D01*
X443249Y71321D01*
X445971Y68599D01*
X445971Y64751D01*
X443249Y62029D01*
X439401Y62029D01*
G37*
%LPD*%
%LPC*%
G36*
X353676Y71554D02*
X353676Y71554D01*
X350954Y74276D01*
X350954Y78124D01*
X353676Y80846D01*
X357524Y80846D01*
X360246Y78124D01*
X360246Y74276D01*
X357524Y71554D01*
X353676Y71554D01*
G37*
%LPD*%
%LPC*%
G36*
X323196Y726874D02*
X323196Y726874D01*
X320474Y729596D01*
X320474Y733444D01*
X323196Y736166D01*
X327044Y736166D01*
X329766Y733444D01*
X329766Y729596D01*
X327044Y726874D01*
X323196Y726874D01*
G37*
%LPD*%
%LPC*%
G36*
X352406Y632894D02*
X352406Y632894D01*
X349684Y635616D01*
X349684Y639464D01*
X352406Y642186D01*
X356254Y642186D01*
X358976Y639464D01*
X358976Y635616D01*
X356254Y632894D01*
X352406Y632894D01*
G37*
%LPD*%
%LPC*%
G36*
X164594Y491013D02*
X164594Y491013D01*
X162083Y493524D01*
X162083Y497076D01*
X164594Y499587D01*
X168146Y499587D01*
X170657Y497076D01*
X170657Y493524D01*
X168146Y491013D01*
X164594Y491013D01*
G37*
%LPD*%
%LPC*%
G36*
X228094Y8413D02*
X228094Y8413D01*
X225583Y10924D01*
X225583Y14476D01*
X228094Y16987D01*
X231646Y16987D01*
X234157Y14476D01*
X234157Y10924D01*
X231646Y8413D01*
X228094Y8413D01*
G37*
%LPD*%
%LPC*%
G36*
X56644Y376713D02*
X56644Y376713D01*
X54133Y379224D01*
X54133Y382776D01*
X56644Y385287D01*
X60196Y385287D01*
X62707Y382776D01*
X62707Y379224D01*
X60196Y376713D01*
X56644Y376713D01*
G37*
%LPD*%
%LPC*%
G36*
X75694Y421163D02*
X75694Y421163D01*
X73183Y423674D01*
X73183Y427226D01*
X75694Y429737D01*
X79246Y429737D01*
X81757Y427226D01*
X81757Y423674D01*
X79246Y421163D01*
X75694Y421163D01*
G37*
%LPD*%
%LPC*%
G36*
X183644Y421163D02*
X183644Y421163D01*
X181133Y423674D01*
X181133Y427226D01*
X183644Y429737D01*
X187196Y429737D01*
X189707Y427226D01*
X189707Y423674D01*
X187196Y421163D01*
X183644Y421163D01*
G37*
%LPD*%
%LPC*%
G36*
X126494Y8413D02*
X126494Y8413D01*
X123983Y10924D01*
X123983Y14476D01*
X126494Y16987D01*
X130046Y16987D01*
X132557Y14476D01*
X132557Y10924D01*
X130046Y8413D01*
X126494Y8413D01*
G37*
%LPD*%
%LPC*%
G36*
X164594Y433863D02*
X164594Y433863D01*
X162083Y436374D01*
X162083Y439926D01*
X164594Y442437D01*
X168146Y442437D01*
X170657Y439926D01*
X170657Y436374D01*
X168146Y433863D01*
X164594Y433863D01*
G37*
%LPD*%
%LPC*%
G36*
X219204Y507523D02*
X219204Y507523D01*
X216693Y510034D01*
X216693Y513586D01*
X219204Y516097D01*
X222756Y516097D01*
X225267Y513586D01*
X225267Y510034D01*
X222756Y507523D01*
X219204Y507523D01*
G37*
%LPD*%
%LPC*%
G36*
X101094Y8413D02*
X101094Y8413D01*
X98583Y10924D01*
X98583Y14476D01*
X101094Y16987D01*
X104646Y16987D01*
X107157Y14476D01*
X107157Y10924D01*
X104646Y8413D01*
X101094Y8413D01*
G37*
%LPD*%
%LPC*%
G36*
X10924Y8413D02*
X10924Y8413D01*
X8413Y10924D01*
X8413Y14476D01*
X10924Y16987D01*
X14476Y16987D01*
X16987Y14476D01*
X16987Y10924D01*
X14476Y8413D01*
X10924Y8413D01*
G37*
%LPD*%
%LPC*%
G36*
X75694Y8413D02*
X75694Y8413D01*
X73183Y10924D01*
X73183Y14476D01*
X75694Y16987D01*
X79246Y16987D01*
X81757Y14476D01*
X81757Y10924D01*
X79246Y8413D01*
X75694Y8413D01*
G37*
%LPD*%
%LPC*%
G36*
X107444Y491013D02*
X107444Y491013D01*
X104933Y493524D01*
X104933Y497076D01*
X107444Y499587D01*
X110996Y499587D01*
X113507Y497076D01*
X113507Y493524D01*
X110996Y491013D01*
X107444Y491013D01*
G37*
%LPD*%
%LPC*%
G36*
X164594Y459263D02*
X164594Y459263D01*
X162083Y461774D01*
X162083Y465326D01*
X164594Y467837D01*
X168146Y467837D01*
X170657Y465326D01*
X170657Y461774D01*
X168146Y459263D01*
X164594Y459263D01*
G37*
%LPD*%
%LPC*%
G36*
X244604Y482123D02*
X244604Y482123D01*
X242093Y484634D01*
X242093Y488186D01*
X244604Y490697D01*
X248156Y490697D01*
X250667Y488186D01*
X250667Y484634D01*
X248156Y482123D01*
X244604Y482123D01*
G37*
%LPD*%
%LPC*%
G36*
X219204Y482123D02*
X219204Y482123D01*
X216693Y484634D01*
X216693Y488186D01*
X219204Y490697D01*
X222756Y490697D01*
X225267Y488186D01*
X225267Y484634D01*
X222756Y482123D01*
X219204Y482123D01*
G37*
%LPD*%
%LPC*%
G36*
X75694Y471963D02*
X75694Y471963D01*
X73183Y474474D01*
X73183Y478026D01*
X75694Y480537D01*
X79246Y480537D01*
X81757Y478026D01*
X81757Y474474D01*
X79246Y471963D01*
X75694Y471963D01*
G37*
%LPD*%
%LPC*%
G36*
X107444Y471963D02*
X107444Y471963D01*
X104933Y474474D01*
X104933Y478026D01*
X107444Y480537D01*
X110996Y480537D01*
X113507Y478026D01*
X113507Y474474D01*
X110996Y471963D01*
X107444Y471963D01*
G37*
%LPD*%
%LPC*%
G36*
X50294Y8413D02*
X50294Y8413D01*
X47783Y10924D01*
X47783Y14476D01*
X50294Y16987D01*
X53846Y16987D01*
X56357Y14476D01*
X56357Y10924D01*
X53846Y8413D01*
X50294Y8413D01*
G37*
%LPD*%
%LPC*%
G36*
X75694Y300513D02*
X75694Y300513D01*
X73183Y303024D01*
X73183Y306576D01*
X75694Y309087D01*
X79246Y309087D01*
X81757Y306576D01*
X81757Y303024D01*
X79246Y300513D01*
X75694Y300513D01*
G37*
%LPD*%
%LPC*%
G36*
X150624Y205263D02*
X150624Y205263D01*
X148113Y207774D01*
X148113Y211326D01*
X150624Y213837D01*
X154176Y213837D01*
X156687Y211326D01*
X156687Y207774D01*
X154176Y205263D01*
X150624Y205263D01*
G37*
%LPD*%
%LPC*%
G36*
X315724Y188753D02*
X315724Y188753D01*
X313213Y191264D01*
X313213Y194816D01*
X315724Y197327D01*
X319276Y197327D01*
X321787Y194816D01*
X321787Y191264D01*
X319276Y188753D01*
X315724Y188753D01*
G37*
%LPD*%
%LPC*%
G36*
X341124Y177323D02*
X341124Y177323D01*
X338613Y179834D01*
X338613Y183386D01*
X341124Y185897D01*
X344676Y185897D01*
X347187Y183386D01*
X347187Y179834D01*
X344676Y177323D01*
X341124Y177323D01*
G37*
%LPD*%
%LPC*%
G36*
X275084Y244633D02*
X275084Y244633D01*
X272573Y247144D01*
X272573Y250696D01*
X275084Y253207D01*
X278636Y253207D01*
X281147Y250696D01*
X281147Y247144D01*
X278636Y244633D01*
X275084Y244633D01*
G37*
%LPD*%
%LPC*%
G36*
X315724Y172243D02*
X315724Y172243D01*
X313213Y174754D01*
X313213Y178306D01*
X315724Y180817D01*
X319276Y180817D01*
X321787Y178306D01*
X321787Y174754D01*
X319276Y172243D01*
X315724Y172243D01*
G37*
%LPD*%
%LPC*%
G36*
X10924Y248443D02*
X10924Y248443D01*
X8413Y250954D01*
X8413Y254506D01*
X10924Y257017D01*
X14476Y257017D01*
X16987Y254506D01*
X16987Y250954D01*
X14476Y248443D01*
X10924Y248443D01*
G37*
%LPD*%
%LPC*%
G36*
X139194Y110013D02*
X139194Y110013D01*
X136683Y112524D01*
X136683Y116076D01*
X139194Y118587D01*
X142746Y118587D01*
X145257Y116076D01*
X145257Y112524D01*
X142746Y110013D01*
X139194Y110013D01*
G37*
%LPD*%
%LPC*%
G36*
X117604Y78263D02*
X117604Y78263D01*
X115093Y80774D01*
X115093Y84326D01*
X117604Y86837D01*
X121156Y86837D01*
X123667Y84326D01*
X123667Y80774D01*
X121156Y78263D01*
X117604Y78263D01*
G37*
%LPD*%
%LPC*%
G36*
X143004Y78263D02*
X143004Y78263D01*
X140493Y80774D01*
X140493Y84326D01*
X143004Y86837D01*
X146556Y86837D01*
X149067Y84326D01*
X149067Y80774D01*
X146556Y78263D01*
X143004Y78263D01*
G37*
%LPD*%
%LPC*%
G36*
X196344Y370363D02*
X196344Y370363D01*
X193833Y372874D01*
X193833Y376426D01*
X196344Y378937D01*
X199896Y378937D01*
X202407Y376426D01*
X202407Y372874D01*
X199896Y370363D01*
X196344Y370363D01*
G37*
%LPD*%
%LPC*%
G36*
X143004Y40163D02*
X143004Y40163D01*
X140493Y42674D01*
X140493Y46226D01*
X143004Y48737D01*
X146556Y48737D01*
X149067Y46226D01*
X149067Y42674D01*
X146556Y40163D01*
X143004Y40163D01*
G37*
%LPD*%
%LPC*%
G36*
X117604Y40163D02*
X117604Y40163D01*
X115093Y42674D01*
X115093Y46226D01*
X117604Y48737D01*
X121156Y48737D01*
X123667Y46226D01*
X123667Y42674D01*
X121156Y40163D01*
X117604Y40163D01*
G37*
%LPD*%
%LPC*%
G36*
X92204Y40163D02*
X92204Y40163D01*
X89693Y42674D01*
X89693Y46226D01*
X92204Y48737D01*
X95756Y48737D01*
X98267Y46226D01*
X98267Y42674D01*
X95756Y40163D01*
X92204Y40163D01*
G37*
%LPD*%
%LPC*%
G36*
X507494Y8413D02*
X507494Y8413D01*
X504983Y10924D01*
X504983Y14476D01*
X507494Y16987D01*
X511046Y16987D01*
X513557Y14476D01*
X513557Y10924D01*
X511046Y8413D01*
X507494Y8413D01*
G37*
%LPD*%
%LPC*%
G36*
X482094Y8413D02*
X482094Y8413D01*
X479583Y10924D01*
X479583Y14476D01*
X482094Y16987D01*
X485646Y16987D01*
X488157Y14476D01*
X488157Y10924D01*
X485646Y8413D01*
X482094Y8413D01*
G37*
%LPD*%
%LPC*%
G36*
X456694Y8413D02*
X456694Y8413D01*
X454183Y10924D01*
X454183Y14476D01*
X456694Y16987D01*
X460246Y16987D01*
X462757Y14476D01*
X462757Y10924D01*
X460246Y8413D01*
X456694Y8413D01*
G37*
%LPD*%
%LPC*%
G36*
X278894Y8413D02*
X278894Y8413D01*
X276383Y10924D01*
X276383Y14476D01*
X278894Y16987D01*
X282446Y16987D01*
X284957Y14476D01*
X284957Y10924D01*
X282446Y8413D01*
X278894Y8413D01*
G37*
%LPD*%
%LPC*%
G36*
X253494Y8413D02*
X253494Y8413D01*
X250983Y10924D01*
X250983Y14476D01*
X253494Y16987D01*
X257046Y16987D01*
X259557Y14476D01*
X259557Y10924D01*
X257046Y8413D01*
X253494Y8413D01*
G37*
%LPD*%
%LPC*%
G36*
X225554Y628173D02*
X225554Y628173D01*
X223043Y630684D01*
X223043Y634236D01*
X225554Y636747D01*
X229106Y636747D01*
X231617Y634236D01*
X231617Y630684D01*
X229106Y628173D01*
X225554Y628173D01*
G37*
%LPD*%
%LPC*%
G36*
X75694Y719613D02*
X75694Y719613D01*
X73183Y722124D01*
X73183Y725676D01*
X75694Y728187D01*
X79246Y728187D01*
X81757Y725676D01*
X81757Y722124D01*
X79246Y719613D01*
X75694Y719613D01*
G37*
%LPD*%
%LPC*%
G36*
X50294Y719613D02*
X50294Y719613D01*
X47783Y722124D01*
X47783Y725676D01*
X50294Y728187D01*
X53846Y728187D01*
X56357Y725676D01*
X56357Y722124D01*
X53846Y719613D01*
X50294Y719613D01*
G37*
%LPD*%
%LPC*%
G36*
X10924Y719613D02*
X10924Y719613D01*
X8413Y722124D01*
X8413Y725676D01*
X10924Y728187D01*
X14476Y728187D01*
X16987Y725676D01*
X16987Y722124D01*
X14476Y719613D01*
X10924Y719613D01*
G37*
%LPD*%
%LPC*%
G36*
X272544Y719613D02*
X272544Y719613D01*
X270033Y722124D01*
X270033Y725676D01*
X272544Y728187D01*
X276096Y728187D01*
X278607Y725676D01*
X278607Y722124D01*
X276096Y719613D01*
X272544Y719613D01*
G37*
%LPD*%
%LPC*%
G36*
X240794Y719613D02*
X240794Y719613D01*
X238283Y722124D01*
X238283Y725676D01*
X240794Y728187D01*
X244346Y728187D01*
X246857Y725676D01*
X246857Y722124D01*
X244346Y719613D01*
X240794Y719613D01*
G37*
%LPD*%
%LPC*%
G36*
X431294Y719613D02*
X431294Y719613D01*
X428783Y722124D01*
X428783Y725676D01*
X431294Y728187D01*
X434846Y728187D01*
X437357Y725676D01*
X437357Y722124D01*
X434846Y719613D01*
X431294Y719613D01*
G37*
%LPD*%
%LPC*%
G36*
X380494Y719613D02*
X380494Y719613D01*
X377983Y722124D01*
X377983Y725676D01*
X380494Y728187D01*
X384046Y728187D01*
X386557Y725676D01*
X386557Y722124D01*
X384046Y719613D01*
X380494Y719613D01*
G37*
%LPD*%
%LPC*%
G36*
X355094Y719613D02*
X355094Y719613D01*
X352583Y722124D01*
X352583Y725676D01*
X355094Y728187D01*
X358646Y728187D01*
X361157Y725676D01*
X361157Y722124D01*
X358646Y719613D01*
X355094Y719613D01*
G37*
%LPD*%
%LPC*%
G36*
X101094Y719613D02*
X101094Y719613D01*
X98583Y722124D01*
X98583Y725676D01*
X101094Y728187D01*
X104646Y728187D01*
X107157Y725676D01*
X107157Y722124D01*
X104646Y719613D01*
X101094Y719613D01*
G37*
%LPD*%
%LPC*%
G36*
X10924Y694213D02*
X10924Y694213D01*
X8413Y696724D01*
X8413Y700276D01*
X10924Y702787D01*
X14476Y702787D01*
X16987Y700276D01*
X16987Y696724D01*
X14476Y694213D01*
X10924Y694213D01*
G37*
%LPD*%
%LPC*%
G36*
X10924Y668813D02*
X10924Y668813D01*
X8413Y671324D01*
X8413Y674876D01*
X10924Y677387D01*
X14476Y677387D01*
X16987Y674876D01*
X16987Y671324D01*
X14476Y668813D01*
X10924Y668813D01*
G37*
%LPD*%
%LPC*%
G36*
X10924Y643413D02*
X10924Y643413D01*
X8413Y645924D01*
X8413Y649476D01*
X10924Y651987D01*
X14476Y651987D01*
X16987Y649476D01*
X16987Y645924D01*
X14476Y643413D01*
X10924Y643413D01*
G37*
%LPD*%
%LPC*%
G36*
X244604Y628173D02*
X244604Y628173D01*
X242093Y630684D01*
X242093Y634236D01*
X244604Y636747D01*
X248156Y636747D01*
X250667Y634236D01*
X250667Y630684D01*
X248156Y628173D01*
X244604Y628173D01*
G37*
%LPD*%
%LPC*%
G36*
X219204Y532923D02*
X219204Y532923D01*
X216693Y535434D01*
X216693Y538986D01*
X219204Y541497D01*
X222756Y541497D01*
X225267Y538986D01*
X225267Y535434D01*
X222756Y532923D01*
X219204Y532923D01*
G37*
%LPD*%
%LPC*%
G36*
X164594Y522763D02*
X164594Y522763D01*
X162083Y525274D01*
X162083Y528826D01*
X164594Y531337D01*
X168146Y531337D01*
X170657Y528826D01*
X170657Y525274D01*
X168146Y522763D01*
X164594Y522763D01*
G37*
%LPD*%
%LPC*%
G36*
X263758Y224563D02*
X263758Y224563D01*
X261393Y226928D01*
X261393Y230272D01*
X263758Y232637D01*
X267102Y232637D01*
X269467Y230272D01*
X269467Y226928D01*
X267102Y224563D01*
X263758Y224563D01*
G37*
%LPD*%
%LPC*%
G36*
X179938Y181383D02*
X179938Y181383D01*
X177573Y183748D01*
X177573Y187092D01*
X179938Y189457D01*
X183282Y189457D01*
X185647Y187092D01*
X185647Y183748D01*
X183282Y181383D01*
X179938Y181383D01*
G37*
%LPD*%
%LPC*%
G36*
X456798Y643663D02*
X456798Y643663D01*
X454433Y646028D01*
X454433Y649372D01*
X456798Y651737D01*
X460142Y651737D01*
X462507Y649372D01*
X462507Y646028D01*
X460142Y643663D01*
X456798Y643663D01*
G37*
%LPD*%
%LPC*%
G36*
X116438Y190273D02*
X116438Y190273D01*
X114073Y192638D01*
X114073Y195982D01*
X116438Y198347D01*
X119782Y198347D01*
X122147Y195982D01*
X122147Y192638D01*
X119782Y190273D01*
X116438Y190273D01*
G37*
%LPD*%
%LPC*%
G36*
X138028Y190273D02*
X138028Y190273D01*
X135663Y192638D01*
X135663Y195982D01*
X138028Y198347D01*
X141372Y198347D01*
X143737Y195982D01*
X143737Y192638D01*
X141372Y190273D01*
X138028Y190273D01*
G37*
%LPD*%
%LPC*%
G36*
X225658Y196623D02*
X225658Y196623D01*
X223293Y198988D01*
X223293Y202332D01*
X225658Y204697D01*
X229002Y204697D01*
X231367Y202332D01*
X231367Y198988D01*
X229002Y196623D01*
X225658Y196623D01*
G37*
%LPD*%
%LPC*%
G36*
X138028Y202973D02*
X138028Y202973D01*
X135663Y205338D01*
X135663Y208682D01*
X138028Y211047D01*
X141372Y211047D01*
X143737Y208682D01*
X143737Y205338D01*
X141372Y202973D01*
X138028Y202973D01*
G37*
%LPD*%
%LPC*%
G36*
X116438Y202973D02*
X116438Y202973D01*
X114073Y205338D01*
X114073Y208682D01*
X116438Y211047D01*
X119782Y211047D01*
X122147Y208682D01*
X122147Y205338D01*
X119782Y202973D01*
X116438Y202973D01*
G37*
%LPD*%
%LPC*%
G36*
X169778Y205513D02*
X169778Y205513D01*
X167413Y207878D01*
X167413Y211222D01*
X169778Y213587D01*
X173122Y213587D01*
X175487Y211222D01*
X175487Y207878D01*
X173122Y205513D01*
X169778Y205513D01*
G37*
%LPD*%
%LPC*%
G36*
X482198Y643663D02*
X482198Y643663D01*
X479833Y646028D01*
X479833Y649372D01*
X482198Y651737D01*
X485542Y651737D01*
X487907Y649372D01*
X487907Y646028D01*
X485542Y643663D01*
X482198Y643663D01*
G37*
%LPD*%
%LPC*%
G36*
X219308Y211863D02*
X219308Y211863D01*
X216943Y214228D01*
X216943Y217572D01*
X219308Y219937D01*
X222652Y219937D01*
X225017Y217572D01*
X225017Y214228D01*
X222652Y211863D01*
X219308Y211863D01*
G37*
%LPD*%
%LPC*%
G36*
X179938Y211863D02*
X179938Y211863D01*
X177573Y214228D01*
X177573Y217572D01*
X179938Y219937D01*
X183282Y219937D01*
X185647Y217572D01*
X185647Y214228D01*
X183282Y211863D01*
X179938Y211863D01*
G37*
%LPD*%
%LPC*%
G36*
X264393Y215038D02*
X264393Y215038D01*
X262028Y217403D01*
X262028Y220747D01*
X264393Y223112D01*
X267737Y223112D01*
X270102Y220747D01*
X270102Y217403D01*
X267737Y215038D01*
X264393Y215038D01*
G37*
%LPD*%
%LPC*%
G36*
X233913Y216308D02*
X233913Y216308D01*
X231548Y218673D01*
X231548Y222017D01*
X233913Y224382D01*
X237257Y224382D01*
X239622Y222017D01*
X239622Y218673D01*
X237257Y216308D01*
X233913Y216308D01*
G37*
%LPD*%
%LPC*%
G36*
X469498Y643663D02*
X469498Y643663D01*
X467133Y646028D01*
X467133Y649372D01*
X469498Y651737D01*
X472842Y651737D01*
X475207Y649372D01*
X475207Y646028D01*
X472842Y643663D01*
X469498Y643663D01*
G37*
%LPD*%
%LPC*%
G36*
X469498Y630963D02*
X469498Y630963D01*
X467133Y633328D01*
X467133Y636672D01*
X469498Y639037D01*
X472842Y639037D01*
X475207Y636672D01*
X475207Y633328D01*
X472842Y630963D01*
X469498Y630963D01*
G37*
%LPD*%
%LPC*%
G36*
X431398Y643663D02*
X431398Y643663D01*
X429033Y646028D01*
X429033Y649372D01*
X431398Y651737D01*
X434742Y651737D01*
X437107Y649372D01*
X437107Y646028D01*
X434742Y643663D01*
X431398Y643663D01*
G37*
%LPD*%
%LPC*%
G36*
X431398Y669063D02*
X431398Y669063D01*
X429033Y671428D01*
X429033Y674772D01*
X431398Y677137D01*
X434742Y677137D01*
X437107Y674772D01*
X437107Y671428D01*
X434742Y669063D01*
X431398Y669063D01*
G37*
%LPD*%
%LPC*%
G36*
X444098Y669063D02*
X444098Y669063D01*
X441733Y671428D01*
X441733Y674772D01*
X444098Y677137D01*
X447442Y677137D01*
X449807Y674772D01*
X449807Y671428D01*
X447442Y669063D01*
X444098Y669063D01*
G37*
%LPD*%
%LPC*%
G36*
X179938Y235993D02*
X179938Y235993D01*
X177573Y238358D01*
X177573Y241702D01*
X179938Y244067D01*
X183282Y244067D01*
X185647Y241702D01*
X185647Y238358D01*
X183282Y235993D01*
X179938Y235993D01*
G37*
%LPD*%
%LPC*%
G36*
X456798Y630963D02*
X456798Y630963D01*
X454433Y633328D01*
X454433Y636672D01*
X456798Y639037D01*
X460142Y639037D01*
X462507Y636672D01*
X462507Y633328D01*
X460142Y630963D01*
X456798Y630963D01*
G37*
%LPD*%
%LPC*%
G36*
X444098Y630963D02*
X444098Y630963D01*
X441733Y633328D01*
X441733Y636672D01*
X444098Y639037D01*
X447442Y639037D01*
X449807Y636672D01*
X449807Y633328D01*
X447442Y630963D01*
X444098Y630963D01*
G37*
%LPD*%
%LPC*%
G36*
X431398Y630963D02*
X431398Y630963D01*
X429033Y633328D01*
X429033Y636672D01*
X431398Y639037D01*
X434742Y639037D01*
X437107Y636672D01*
X437107Y633328D01*
X434742Y630963D01*
X431398Y630963D01*
G37*
%LPD*%
%LPC*%
G36*
X482198Y630963D02*
X482198Y630963D01*
X479833Y633328D01*
X479833Y636672D01*
X482198Y639037D01*
X485542Y639037D01*
X487907Y636672D01*
X487907Y633328D01*
X485542Y630963D01*
X482198Y630963D01*
G37*
%LPD*%
%LPC*%
G36*
X299318Y246153D02*
X299318Y246153D01*
X296953Y248518D01*
X296953Y251862D01*
X299318Y254227D01*
X302662Y254227D01*
X305027Y251862D01*
X305027Y248518D01*
X302662Y246153D01*
X299318Y246153D01*
G37*
%LPD*%
%LPC*%
G36*
X487278Y492533D02*
X487278Y492533D01*
X484913Y494898D01*
X484913Y498242D01*
X487278Y500607D01*
X490622Y500607D01*
X492987Y498242D01*
X492987Y494898D01*
X490622Y492533D01*
X487278Y492533D01*
G37*
%LPD*%
%LPC*%
G36*
X436478Y517933D02*
X436478Y517933D01*
X434113Y520298D01*
X434113Y523642D01*
X436478Y526007D01*
X439822Y526007D01*
X442187Y523642D01*
X442187Y520298D01*
X439822Y517933D01*
X436478Y517933D01*
G37*
%LPD*%
%LPC*%
G36*
X331068Y270283D02*
X331068Y270283D01*
X328703Y272648D01*
X328703Y275992D01*
X331068Y278357D01*
X334412Y278357D01*
X336777Y275992D01*
X336777Y272648D01*
X334412Y270283D01*
X331068Y270283D01*
G37*
%LPD*%
%LPC*%
G36*
X299318Y271553D02*
X299318Y271553D01*
X296953Y273918D01*
X296953Y277262D01*
X299318Y279627D01*
X302662Y279627D01*
X305027Y277262D01*
X305027Y273918D01*
X302662Y271553D01*
X299318Y271553D01*
G37*
%LPD*%
%LPC*%
G36*
X286618Y281713D02*
X286618Y281713D01*
X284253Y284078D01*
X284253Y287422D01*
X286618Y289787D01*
X289962Y289787D01*
X292327Y287422D01*
X292327Y284078D01*
X289962Y281713D01*
X286618Y281713D01*
G37*
%LPD*%
%LPC*%
G36*
X456798Y669063D02*
X456798Y669063D01*
X454433Y671428D01*
X454433Y674772D01*
X456798Y677137D01*
X460142Y677137D01*
X462507Y674772D01*
X462507Y671428D01*
X460142Y669063D01*
X456798Y669063D01*
G37*
%LPD*%
%LPC*%
G36*
X482198Y669063D02*
X482198Y669063D01*
X479833Y671428D01*
X479833Y674772D01*
X482198Y677137D01*
X485542Y677137D01*
X487907Y674772D01*
X487907Y671428D01*
X485542Y669063D01*
X482198Y669063D01*
G37*
%LPD*%
%LPC*%
G36*
X461878Y492533D02*
X461878Y492533D01*
X459513Y494898D01*
X459513Y498242D01*
X461878Y500607D01*
X465222Y500607D01*
X467587Y498242D01*
X467587Y494898D01*
X465222Y492533D01*
X461878Y492533D01*
G37*
%LPD*%
%LPC*%
G36*
X58018Y59463D02*
X58018Y59463D01*
X55653Y61828D01*
X55653Y65172D01*
X58018Y67537D01*
X61362Y67537D01*
X63727Y65172D01*
X63727Y61828D01*
X61362Y59463D01*
X58018Y59463D01*
G37*
%LPD*%
%LPC*%
G36*
X77068Y59463D02*
X77068Y59463D01*
X74703Y61828D01*
X74703Y65172D01*
X77068Y67537D01*
X80412Y67537D01*
X82777Y65172D01*
X82777Y61828D01*
X80412Y59463D01*
X77068Y59463D01*
G37*
%LPD*%
%LPC*%
G36*
X444098Y656363D02*
X444098Y656363D01*
X441733Y658728D01*
X441733Y662072D01*
X444098Y664437D01*
X447442Y664437D01*
X449807Y662072D01*
X449807Y658728D01*
X447442Y656363D01*
X444098Y656363D01*
G37*
%LPD*%
%LPC*%
G36*
X456798Y656363D02*
X456798Y656363D01*
X454433Y658728D01*
X454433Y662072D01*
X456798Y664437D01*
X460142Y664437D01*
X462507Y662072D01*
X462507Y658728D01*
X460142Y656363D01*
X456798Y656363D01*
G37*
%LPD*%
%LPC*%
G36*
X469498Y656363D02*
X469498Y656363D01*
X467133Y658728D01*
X467133Y662072D01*
X469498Y664437D01*
X472842Y664437D01*
X475207Y662072D01*
X475207Y658728D01*
X472842Y656363D01*
X469498Y656363D01*
G37*
%LPD*%
%LPC*%
G36*
X482198Y656363D02*
X482198Y656363D01*
X479833Y658728D01*
X479833Y662072D01*
X482198Y664437D01*
X485542Y664437D01*
X487907Y662072D01*
X487907Y658728D01*
X485542Y656363D01*
X482198Y656363D01*
G37*
%LPD*%
%LPC*%
G36*
X483468Y91213D02*
X483468Y91213D01*
X481103Y93578D01*
X481103Y96922D01*
X483468Y99287D01*
X486812Y99287D01*
X489177Y96922D01*
X489177Y93578D01*
X486812Y91213D01*
X483468Y91213D01*
G37*
%LPD*%
%LPC*%
G36*
X507598Y91213D02*
X507598Y91213D01*
X505233Y93578D01*
X505233Y96922D01*
X507598Y99287D01*
X510942Y99287D01*
X513307Y96922D01*
X513307Y93578D01*
X510942Y91213D01*
X507598Y91213D01*
G37*
%LPD*%
%LPC*%
G36*
X63098Y95023D02*
X63098Y95023D01*
X60733Y97388D01*
X60733Y100732D01*
X63098Y103097D01*
X66442Y103097D01*
X68807Y100732D01*
X68807Y97388D01*
X66442Y95023D01*
X63098Y95023D01*
G37*
%LPD*%
%LPC*%
G36*
X483468Y101373D02*
X483468Y101373D01*
X481103Y103738D01*
X481103Y107082D01*
X483468Y109447D01*
X486812Y109447D01*
X489177Y107082D01*
X489177Y103738D01*
X486812Y101373D01*
X483468Y101373D01*
G37*
%LPD*%
%LPC*%
G36*
X507598Y101373D02*
X507598Y101373D01*
X505233Y103738D01*
X505233Y107082D01*
X507598Y109447D01*
X510942Y109447D01*
X513307Y107082D01*
X513307Y103738D01*
X510942Y101373D01*
X507598Y101373D01*
G37*
%LPD*%
%LPC*%
G36*
X71988Y103913D02*
X71988Y103913D01*
X69623Y106278D01*
X69623Y109622D01*
X71988Y111987D01*
X75332Y111987D01*
X77697Y109622D01*
X77697Y106278D01*
X75332Y103913D01*
X71988Y103913D01*
G37*
%LPD*%
%LPC*%
G36*
X68178Y51843D02*
X68178Y51843D01*
X65813Y54208D01*
X65813Y57552D01*
X68178Y59917D01*
X71522Y59917D01*
X73887Y57552D01*
X73887Y54208D01*
X71522Y51843D01*
X68178Y51843D01*
G37*
%LPD*%
%LPC*%
G36*
X431398Y656363D02*
X431398Y656363D01*
X429033Y658728D01*
X429033Y662072D01*
X431398Y664437D01*
X434742Y664437D01*
X437107Y662072D01*
X437107Y658728D01*
X434742Y656363D01*
X431398Y656363D01*
G37*
%LPD*%
%LPC*%
G36*
X520298Y657633D02*
X520298Y657633D01*
X517933Y659998D01*
X517933Y663342D01*
X520298Y665707D01*
X523642Y665707D01*
X526007Y663342D01*
X526007Y659998D01*
X523642Y657633D01*
X520298Y657633D01*
G37*
%LPD*%
%LPC*%
G36*
X469498Y669063D02*
X469498Y669063D01*
X467133Y671428D01*
X467133Y674772D01*
X469498Y677137D01*
X472842Y677137D01*
X475207Y674772D01*
X475207Y671428D01*
X472842Y669063D01*
X469498Y669063D01*
G37*
%LPD*%
%LPC*%
G36*
X483468Y111533D02*
X483468Y111533D01*
X481103Y113898D01*
X481103Y117242D01*
X483468Y119607D01*
X486812Y119607D01*
X489177Y117242D01*
X489177Y113898D01*
X486812Y111533D01*
X483468Y111533D01*
G37*
%LPD*%
%LPC*%
G36*
X507598Y111533D02*
X507598Y111533D01*
X505233Y113898D01*
X505233Y117242D01*
X507598Y119607D01*
X510942Y119607D01*
X513307Y117242D01*
X513307Y113898D01*
X510942Y111533D01*
X507598Y111533D01*
G37*
%LPD*%
%LPC*%
G36*
X304398Y112803D02*
X304398Y112803D01*
X302033Y115168D01*
X302033Y118512D01*
X304398Y120877D01*
X307742Y120877D01*
X310107Y118512D01*
X310107Y115168D01*
X307742Y112803D01*
X304398Y112803D01*
G37*
%LPD*%
%LPC*%
G36*
X207878Y121693D02*
X207878Y121693D01*
X205513Y124058D01*
X205513Y127402D01*
X207878Y129767D01*
X211222Y129767D01*
X213587Y127402D01*
X213587Y124058D01*
X211222Y121693D01*
X207878Y121693D01*
G37*
%LPD*%
%LPC*%
G36*
X225658Y121693D02*
X225658Y121693D01*
X223293Y124058D01*
X223293Y127402D01*
X225658Y129767D01*
X229002Y129767D01*
X231367Y127402D01*
X231367Y124058D01*
X229002Y121693D01*
X225658Y121693D01*
G37*
%LPD*%
%LPC*%
G36*
X295508Y122963D02*
X295508Y122963D01*
X293143Y125328D01*
X293143Y128672D01*
X295508Y131037D01*
X298852Y131037D01*
X301217Y128672D01*
X301217Y125328D01*
X298852Y122963D01*
X295508Y122963D01*
G37*
%LPD*%
%LPC*%
G36*
X493628Y129313D02*
X493628Y129313D01*
X491263Y131678D01*
X491263Y135022D01*
X493628Y137387D01*
X496972Y137387D01*
X499337Y135022D01*
X499337Y131678D01*
X496972Y129313D01*
X493628Y129313D01*
G37*
%LPD*%
%LPC*%
G36*
X521568Y130583D02*
X521568Y130583D01*
X519203Y132948D01*
X519203Y136292D01*
X521568Y138657D01*
X524912Y138657D01*
X527277Y136292D01*
X527277Y132948D01*
X524912Y130583D01*
X521568Y130583D01*
G37*
%LPD*%
%LPC*%
G36*
X306938Y131853D02*
X306938Y131853D01*
X304573Y134218D01*
X304573Y137562D01*
X306938Y139927D01*
X310282Y139927D01*
X312647Y137562D01*
X312647Y134218D01*
X310282Y131853D01*
X306938Y131853D01*
G37*
%LPD*%
%LPC*%
G36*
X493628Y140743D02*
X493628Y140743D01*
X491263Y143108D01*
X491263Y146452D01*
X493628Y148817D01*
X496972Y148817D01*
X499337Y146452D01*
X499337Y143108D01*
X496972Y140743D01*
X493628Y140743D01*
G37*
%LPD*%
%LPC*%
G36*
X521568Y140743D02*
X521568Y140743D01*
X519203Y143108D01*
X519203Y146452D01*
X521568Y148817D01*
X524912Y148817D01*
X527277Y146452D01*
X527277Y143108D01*
X524912Y140743D01*
X521568Y140743D01*
G37*
%LPD*%
%LPC*%
G36*
X510138Y665253D02*
X510138Y665253D01*
X507773Y667618D01*
X507773Y670962D01*
X510138Y673327D01*
X513482Y673327D01*
X515847Y670962D01*
X515847Y667618D01*
X513482Y665253D01*
X510138Y665253D01*
G37*
%LPD*%
%LPC*%
G36*
X306938Y157253D02*
X306938Y157253D01*
X304573Y159618D01*
X304573Y162962D01*
X306938Y165327D01*
X310282Y165327D01*
X312647Y162962D01*
X312647Y159618D01*
X310282Y157253D01*
X306938Y157253D01*
G37*
%LPD*%
%LPC*%
G36*
X179938Y157253D02*
X179938Y157253D01*
X177573Y159618D01*
X177573Y162962D01*
X179938Y165327D01*
X183282Y165327D01*
X185647Y162962D01*
X185647Y159618D01*
X183282Y157253D01*
X179938Y157253D01*
G37*
%LPD*%
%LPC*%
G36*
X444098Y643663D02*
X444098Y643663D01*
X441733Y646028D01*
X441733Y649372D01*
X444098Y651737D01*
X447442Y651737D01*
X449807Y649372D01*
X449807Y646028D01*
X447442Y643663D01*
X444098Y643663D01*
G37*
%LPD*%
%LPC*%
G36*
X205592Y377979D02*
X205592Y377979D01*
X203227Y380344D01*
X203227Y383688D01*
X205592Y386053D01*
X208936Y386053D01*
X211301Y383688D01*
X211301Y380344D01*
X208936Y377979D01*
X205592Y377979D01*
G37*
%LPD*%
%LPC*%
G36*
X214482Y424969D02*
X214482Y424969D01*
X212117Y427334D01*
X212117Y430678D01*
X214482Y433043D01*
X217826Y433043D01*
X220191Y430678D01*
X220191Y427334D01*
X217826Y424969D01*
X214482Y424969D01*
G37*
%LPD*%
%LPC*%
G36*
X487278Y517933D02*
X487278Y517933D01*
X484913Y520298D01*
X484913Y523642D01*
X487278Y526007D01*
X490622Y526007D01*
X492987Y523642D01*
X492987Y520298D01*
X490622Y517933D01*
X487278Y517933D01*
G37*
%LPD*%
%LPC*%
G36*
X102722Y535459D02*
X102722Y535459D01*
X100357Y537824D01*
X100357Y541168D01*
X102722Y543533D01*
X106066Y543533D01*
X108431Y541168D01*
X108431Y537824D01*
X106066Y535459D01*
X102722Y535459D01*
G37*
%LPD*%
%LPC*%
G36*
X474578Y505233D02*
X474578Y505233D01*
X472213Y507598D01*
X472213Y510942D01*
X474578Y513307D01*
X477922Y513307D01*
X480287Y510942D01*
X480287Y507598D01*
X477922Y505233D01*
X474578Y505233D01*
G37*
%LPD*%
%LPC*%
G36*
X205592Y413539D02*
X205592Y413539D01*
X203227Y415904D01*
X203227Y419248D01*
X205592Y421613D01*
X208936Y421613D01*
X211301Y419248D01*
X211301Y415904D01*
X208936Y413539D01*
X205592Y413539D01*
G37*
%LPD*%
%LPC*%
G36*
X461878Y505233D02*
X461878Y505233D01*
X459513Y507598D01*
X459513Y510942D01*
X461878Y513307D01*
X465222Y513307D01*
X467587Y510942D01*
X467587Y507598D01*
X465222Y505233D01*
X461878Y505233D01*
G37*
%LPD*%
%LPC*%
G36*
X449178Y505233D02*
X449178Y505233D01*
X446813Y507598D01*
X446813Y510942D01*
X449178Y513307D01*
X452522Y513307D01*
X454887Y510942D01*
X454887Y507598D01*
X452522Y505233D01*
X449178Y505233D01*
G37*
%LPD*%
%LPC*%
G36*
X436478Y505233D02*
X436478Y505233D01*
X434113Y507598D01*
X434113Y510942D01*
X436478Y513307D01*
X439822Y513307D01*
X442187Y510942D01*
X442187Y507598D01*
X439822Y505233D01*
X436478Y505233D01*
G37*
%LPD*%
%LPC*%
G36*
X487278Y530633D02*
X487278Y530633D01*
X484913Y532998D01*
X484913Y536342D01*
X487278Y538707D01*
X490622Y538707D01*
X492987Y536342D01*
X492987Y532998D01*
X490622Y530633D01*
X487278Y530633D01*
G37*
%LPD*%
%LPC*%
G36*
X521568Y502693D02*
X521568Y502693D01*
X519203Y505058D01*
X519203Y508402D01*
X521568Y510767D01*
X524912Y510767D01*
X527277Y508402D01*
X527277Y505058D01*
X524912Y502693D01*
X521568Y502693D01*
G37*
%LPD*%
%LPC*%
G36*
X266298Y374423D02*
X266298Y374423D01*
X263933Y376788D01*
X263933Y380132D01*
X266298Y382497D01*
X269642Y382497D01*
X272007Y380132D01*
X272007Y376788D01*
X269642Y374423D01*
X266298Y374423D01*
G37*
%LPD*%
%LPC*%
G36*
X319638Y374423D02*
X319638Y374423D01*
X317273Y376788D01*
X317273Y380132D01*
X319638Y382497D01*
X322982Y382497D01*
X325347Y380132D01*
X325347Y376788D01*
X322982Y374423D01*
X319638Y374423D01*
G37*
%LPD*%
%LPC*%
G36*
X280522Y374169D02*
X280522Y374169D01*
X278157Y376534D01*
X278157Y379878D01*
X280522Y382243D01*
X283866Y382243D01*
X286231Y379878D01*
X286231Y376534D01*
X283866Y374169D01*
X280522Y374169D01*
G37*
%LPD*%
%LPC*%
G36*
X293222Y374169D02*
X293222Y374169D01*
X290857Y376534D01*
X290857Y379878D01*
X293222Y382243D01*
X296566Y382243D01*
X298931Y379878D01*
X298931Y376534D01*
X296566Y374169D01*
X293222Y374169D01*
G37*
%LPD*%
%LPC*%
G36*
X486008Y373153D02*
X486008Y373153D01*
X483643Y375518D01*
X483643Y378862D01*
X486008Y381227D01*
X489352Y381227D01*
X491717Y378862D01*
X491717Y375518D01*
X489352Y373153D01*
X486008Y373153D01*
G37*
%LPD*%
%LPC*%
G36*
X186288Y286793D02*
X186288Y286793D01*
X183923Y289158D01*
X183923Y292502D01*
X186288Y294867D01*
X189632Y294867D01*
X191997Y292502D01*
X191997Y289158D01*
X189632Y286793D01*
X186288Y286793D01*
G37*
%LPD*%
%LPC*%
G36*
X510138Y493803D02*
X510138Y493803D01*
X507773Y496168D01*
X507773Y499512D01*
X510138Y501877D01*
X513482Y501877D01*
X515847Y499512D01*
X515847Y496168D01*
X513482Y493803D01*
X510138Y493803D01*
G37*
%LPD*%
%LPC*%
G36*
X436478Y530633D02*
X436478Y530633D01*
X434113Y532998D01*
X434113Y536342D01*
X436478Y538707D01*
X439822Y538707D01*
X442187Y536342D01*
X442187Y532998D01*
X439822Y530633D01*
X436478Y530633D01*
G37*
%LPD*%
%LPC*%
G36*
X366628Y449353D02*
X366628Y449353D01*
X364263Y451718D01*
X364263Y455062D01*
X366628Y457427D01*
X369972Y457427D01*
X372337Y455062D01*
X372337Y451718D01*
X369972Y449353D01*
X366628Y449353D01*
G37*
%LPD*%
%LPC*%
G36*
X449178Y530633D02*
X449178Y530633D01*
X446813Y532998D01*
X446813Y536342D01*
X449178Y538707D01*
X452522Y538707D01*
X454887Y536342D01*
X454887Y532998D01*
X452522Y530633D01*
X449178Y530633D01*
G37*
%LPD*%
%LPC*%
G36*
X503788Y453163D02*
X503788Y453163D01*
X501423Y455528D01*
X501423Y458872D01*
X503788Y461237D01*
X507132Y461237D01*
X509497Y458872D01*
X509497Y455528D01*
X507132Y453163D01*
X503788Y453163D01*
G37*
%LPD*%
%LPC*%
G36*
X461878Y530633D02*
X461878Y530633D01*
X459513Y532998D01*
X459513Y536342D01*
X461878Y538707D01*
X465222Y538707D01*
X467587Y536342D01*
X467587Y532998D01*
X465222Y530633D01*
X461878Y530633D01*
G37*
%LPD*%
%LPC*%
G36*
X503788Y464593D02*
X503788Y464593D01*
X501423Y466958D01*
X501423Y470302D01*
X503788Y472667D01*
X507132Y472667D01*
X509497Y470302D01*
X509497Y466958D01*
X507132Y464593D01*
X503788Y464593D01*
G37*
%LPD*%
%LPC*%
G36*
X474578Y530633D02*
X474578Y530633D01*
X472213Y532998D01*
X472213Y536342D01*
X474578Y538707D01*
X477922Y538707D01*
X480287Y536342D01*
X480287Y532998D01*
X477922Y530633D01*
X474578Y530633D01*
G37*
%LPD*%
%LPC*%
G36*
X511408Y528093D02*
X511408Y528093D01*
X509043Y530458D01*
X509043Y533802D01*
X511408Y536167D01*
X514752Y536167D01*
X517117Y533802D01*
X517117Y530458D01*
X514752Y528093D01*
X511408Y528093D01*
G37*
%LPD*%
%LPC*%
G36*
X520298Y473483D02*
X520298Y473483D01*
X517933Y475848D01*
X517933Y479192D01*
X520298Y481557D01*
X523642Y481557D01*
X526007Y479192D01*
X526007Y475848D01*
X523642Y473483D01*
X520298Y473483D01*
G37*
%LPD*%
%LPC*%
G36*
X461878Y517933D02*
X461878Y517933D01*
X459513Y520298D01*
X459513Y523642D01*
X461878Y526007D01*
X465222Y526007D01*
X467587Y523642D01*
X467587Y520298D01*
X465222Y517933D01*
X461878Y517933D01*
G37*
%LPD*%
%LPC*%
G36*
X510138Y482373D02*
X510138Y482373D01*
X507773Y484738D01*
X507773Y488082D01*
X510138Y490447D01*
X513482Y490447D01*
X515847Y488082D01*
X515847Y484738D01*
X513482Y482373D01*
X510138Y482373D01*
G37*
%LPD*%
%LPC*%
G36*
X519028Y519203D02*
X519028Y519203D01*
X516663Y521568D01*
X516663Y524912D01*
X519028Y527277D01*
X522372Y527277D01*
X524737Y524912D01*
X524737Y521568D01*
X522372Y519203D01*
X519028Y519203D01*
G37*
%LPD*%
%LPC*%
G36*
X474578Y517933D02*
X474578Y517933D01*
X472213Y520298D01*
X472213Y523642D01*
X474578Y526007D01*
X477922Y526007D01*
X480287Y523642D01*
X480287Y520298D01*
X477922Y517933D01*
X474578Y517933D01*
G37*
%LPD*%
%LPC*%
G36*
X487278Y505233D02*
X487278Y505233D01*
X484913Y507598D01*
X484913Y510942D01*
X487278Y513307D01*
X490622Y513307D01*
X492987Y510942D01*
X492987Y507598D01*
X490622Y505233D01*
X487278Y505233D01*
G37*
%LPD*%
%LPC*%
G36*
X449178Y517933D02*
X449178Y517933D01*
X446813Y520298D01*
X446813Y523642D01*
X449178Y526007D01*
X452522Y526007D01*
X454887Y523642D01*
X454887Y520298D01*
X452522Y517933D01*
X449178Y517933D01*
G37*
%LPD*%
%LPC*%
G36*
X499978Y683033D02*
X499978Y683033D01*
X497613Y685398D01*
X497613Y688742D01*
X499978Y691107D01*
X503322Y691107D01*
X505687Y688742D01*
X505687Y685398D01*
X503322Y683033D01*
X499978Y683033D01*
G37*
%LPD*%
%LPC*%
G36*
X511408Y539523D02*
X511408Y539523D01*
X509043Y541888D01*
X509043Y545232D01*
X511408Y547597D01*
X514752Y547597D01*
X517117Y545232D01*
X517117Y541888D01*
X514752Y539523D01*
X511408Y539523D01*
G37*
%LPD*%
%LPC*%
G36*
X285602Y337339D02*
X285602Y337339D01*
X283237Y339704D01*
X283237Y343048D01*
X285602Y345413D01*
X288946Y345413D01*
X291311Y343048D01*
X291311Y339704D01*
X288946Y337339D01*
X285602Y337339D01*
G37*
%LPD*%
%LPC*%
G36*
X402188Y335053D02*
X402188Y335053D01*
X399823Y337418D01*
X399823Y340762D01*
X402188Y343127D01*
X405532Y343127D01*
X407897Y340762D01*
X407897Y337418D01*
X405532Y335053D01*
X402188Y335053D01*
G37*
%LPD*%
%LPC*%
G36*
X491088Y604293D02*
X491088Y604293D01*
X488723Y606658D01*
X488723Y610002D01*
X491088Y612367D01*
X494432Y612367D01*
X496797Y610002D01*
X496797Y606658D01*
X494432Y604293D01*
X491088Y604293D01*
G37*
%LPD*%
%LPC*%
G36*
X501248Y609373D02*
X501248Y609373D01*
X498883Y611738D01*
X498883Y615082D01*
X501248Y617447D01*
X504592Y617447D01*
X506957Y615082D01*
X506957Y611738D01*
X504592Y609373D01*
X501248Y609373D01*
G37*
%LPD*%
%LPC*%
G36*
X224388Y318543D02*
X224388Y318543D01*
X222023Y320908D01*
X222023Y324252D01*
X224388Y326617D01*
X227732Y326617D01*
X230097Y324252D01*
X230097Y320908D01*
X227732Y318543D01*
X224388Y318543D01*
G37*
%LPD*%
%LPC*%
G36*
X205338Y318543D02*
X205338Y318543D01*
X202973Y320908D01*
X202973Y324252D01*
X205338Y326617D01*
X208682Y326617D01*
X211047Y324252D01*
X211047Y320908D01*
X208682Y318543D01*
X205338Y318543D01*
G37*
%LPD*%
%LPC*%
G36*
X179938Y312193D02*
X179938Y312193D01*
X177573Y314558D01*
X177573Y317902D01*
X179938Y320267D01*
X183282Y320267D01*
X185647Y317902D01*
X185647Y314558D01*
X183282Y312193D01*
X179938Y312193D01*
G37*
%LPD*%
%LPC*%
G36*
X100182Y601499D02*
X100182Y601499D01*
X97817Y603864D01*
X97817Y607208D01*
X100182Y609573D01*
X103526Y609573D01*
X105891Y607208D01*
X105891Y603864D01*
X103526Y601499D01*
X100182Y601499D01*
G37*
%LPD*%
%LPC*%
G36*
X342498Y302033D02*
X342498Y302033D01*
X340133Y304398D01*
X340133Y307742D01*
X342498Y310107D01*
X345842Y310107D01*
X348207Y307742D01*
X348207Y304398D01*
X345842Y302033D01*
X342498Y302033D01*
G37*
%LPD*%
%LPC*%
G36*
X510138Y676683D02*
X510138Y676683D01*
X507773Y679048D01*
X507773Y682392D01*
X510138Y684757D01*
X513482Y684757D01*
X515847Y682392D01*
X515847Y679048D01*
X513482Y676683D01*
X510138Y676683D01*
G37*
%LPD*%
%LPC*%
G36*
X205338Y299493D02*
X205338Y299493D01*
X202973Y301858D01*
X202973Y305202D01*
X205338Y307567D01*
X208682Y307567D01*
X211047Y305202D01*
X211047Y301858D01*
X208682Y299493D01*
X205338Y299493D01*
G37*
%LPD*%
%LPC*%
G36*
X303128Y299493D02*
X303128Y299493D01*
X300763Y301858D01*
X300763Y305202D01*
X303128Y307567D01*
X306472Y307567D01*
X308837Y305202D01*
X308837Y301858D01*
X306472Y299493D01*
X303128Y299493D01*
G37*
%LPD*%
%LPC*%
G36*
X167238Y293143D02*
X167238Y293143D01*
X164873Y295508D01*
X164873Y298852D01*
X167238Y301217D01*
X170582Y301217D01*
X172947Y298852D01*
X172947Y295508D01*
X170582Y293143D01*
X167238Y293143D01*
G37*
%LPD*%
%LPC*%
G36*
X449178Y492533D02*
X449178Y492533D01*
X446813Y494898D01*
X446813Y498242D01*
X449178Y500607D01*
X452522Y500607D01*
X454887Y498242D01*
X454887Y494898D01*
X452522Y492533D01*
X449178Y492533D01*
G37*
%LPD*%
%LPC*%
G36*
X295508Y291873D02*
X295508Y291873D01*
X293143Y294238D01*
X293143Y297582D01*
X295508Y299947D01*
X298852Y299947D01*
X301217Y297582D01*
X301217Y294238D01*
X298852Y291873D01*
X295508Y291873D01*
G37*
%LPD*%
%LPC*%
G36*
X474578Y492533D02*
X474578Y492533D01*
X472213Y494898D01*
X472213Y498242D01*
X474578Y500607D01*
X477922Y500607D01*
X480287Y498242D01*
X480287Y494898D01*
X477922Y492533D01*
X474578Y492533D01*
G37*
%LPD*%
%LPC*%
G36*
X215752Y367819D02*
X215752Y367819D01*
X213387Y370184D01*
X213387Y373528D01*
X215752Y375893D01*
X219096Y375893D01*
X221461Y373528D01*
X221461Y370184D01*
X219096Y367819D01*
X215752Y367819D01*
G37*
%LPD*%
%LPC*%
G36*
X521568Y556033D02*
X521568Y556033D01*
X519203Y558398D01*
X519203Y561742D01*
X521568Y564107D01*
X524912Y564107D01*
X527277Y561742D01*
X527277Y558398D01*
X524912Y556033D01*
X521568Y556033D01*
G37*
%LPD*%
%LPC*%
G36*
X521568Y567463D02*
X521568Y567463D01*
X519203Y569828D01*
X519203Y573172D01*
X521568Y575537D01*
X524912Y575537D01*
X527277Y573172D01*
X527277Y569828D01*
X524912Y567463D01*
X521568Y567463D01*
G37*
%LPD*%
%LPC*%
G36*
X288142Y364009D02*
X288142Y364009D01*
X285777Y366374D01*
X285777Y369718D01*
X288142Y372083D01*
X291486Y372083D01*
X293851Y369718D01*
X293851Y366374D01*
X291486Y364009D01*
X288142Y364009D01*
G37*
%LPD*%
%LPC*%
G36*
X486008Y362993D02*
X486008Y362993D01*
X483643Y365358D01*
X483643Y368702D01*
X486008Y371067D01*
X489352Y371067D01*
X491717Y368702D01*
X491717Y365358D01*
X489352Y362993D01*
X486008Y362993D01*
G37*
%LPD*%
%LPC*%
G36*
X357738Y341403D02*
X357738Y341403D01*
X355373Y343768D01*
X355373Y347112D01*
X357738Y349477D01*
X361082Y349477D01*
X363447Y347112D01*
X363447Y343768D01*
X361082Y341403D01*
X357738Y341403D01*
G37*
%LPD*%
%LPC*%
G36*
X499978Y713513D02*
X499978Y713513D01*
X497613Y715878D01*
X497613Y719222D01*
X499978Y721587D01*
X503322Y721587D01*
X505687Y719222D01*
X505687Y715878D01*
X503322Y713513D01*
X499978Y713513D01*
G37*
%LPD*%
%LPC*%
G36*
X436478Y492533D02*
X436478Y492533D01*
X434113Y494898D01*
X434113Y498242D01*
X436478Y500607D01*
X439822Y500607D01*
X442187Y498242D01*
X442187Y494898D01*
X439822Y492533D01*
X436478Y492533D01*
G37*
%LPD*%
%LPC*%
G36*
X501248Y583973D02*
X501248Y583973D01*
X498883Y586338D01*
X498883Y589682D01*
X501248Y592047D01*
X504592Y592047D01*
X506957Y589682D01*
X506957Y586338D01*
X504592Y583973D01*
X501248Y583973D01*
G37*
%LPD*%
%LPC*%
G36*
X491088Y591593D02*
X491088Y591593D01*
X488723Y593958D01*
X488723Y597302D01*
X491088Y599667D01*
X494432Y599667D01*
X496797Y597302D01*
X496797Y593958D01*
X494432Y591593D01*
X491088Y591593D01*
G37*
%LPD*%
%LPC*%
G36*
X486008Y352833D02*
X486008Y352833D01*
X483643Y355198D01*
X483643Y358542D01*
X486008Y360907D01*
X489352Y360907D01*
X491717Y358542D01*
X491717Y355198D01*
X489352Y352833D01*
X486008Y352833D01*
G37*
%LPD*%
%LPC*%
G36*
X125582Y601499D02*
X125582Y601499D01*
X123217Y603864D01*
X123217Y607208D01*
X125582Y609573D01*
X128926Y609573D01*
X131291Y607208D01*
X131291Y603864D01*
X128926Y601499D01*
X125582Y601499D01*
G37*
%LPD*%
%LPC*%
G36*
X333608Y349023D02*
X333608Y349023D01*
X331243Y351388D01*
X331243Y354732D01*
X333608Y357097D01*
X336952Y357097D01*
X339317Y354732D01*
X339317Y351388D01*
X336952Y349023D01*
X333608Y349023D01*
G37*
%LPD*%
%LPC*%
G36*
X35261Y30503D02*
X35261Y30503D01*
X33043Y32721D01*
X33043Y35859D01*
X35261Y38077D01*
X38399Y38077D01*
X40617Y35859D01*
X40617Y32721D01*
X38399Y30503D01*
X35261Y30503D01*
G37*
%LPD*%
%LPC*%
G36*
X9861Y30503D02*
X9861Y30503D01*
X7643Y32721D01*
X7643Y35859D01*
X9861Y38077D01*
X12999Y38077D01*
X15217Y35859D01*
X15217Y32721D01*
X12999Y30503D01*
X9861Y30503D01*
G37*
%LPD*%
%LPC*%
G36*
X35261Y236243D02*
X35261Y236243D01*
X33043Y238461D01*
X33043Y241599D01*
X35261Y243817D01*
X38399Y243817D01*
X40617Y241599D01*
X40617Y238461D01*
X38399Y236243D01*
X35261Y236243D01*
G37*
%LPD*%
%LPC*%
G36*
X22561Y30503D02*
X22561Y30503D01*
X20343Y32721D01*
X20343Y35859D01*
X22561Y38077D01*
X25699Y38077D01*
X27917Y35859D01*
X27917Y32721D01*
X25699Y30503D01*
X22561Y30503D01*
G37*
%LPD*%
%LPC*%
G36*
X22561Y615973D02*
X22561Y615973D01*
X20343Y618191D01*
X20343Y621329D01*
X22561Y623547D01*
X25699Y623547D01*
X27917Y621329D01*
X27917Y618191D01*
X25699Y615973D01*
X22561Y615973D01*
G37*
%LPD*%
%LPC*%
G36*
X22561Y488973D02*
X22561Y488973D01*
X20343Y491191D01*
X20343Y494329D01*
X22561Y496547D01*
X25699Y496547D01*
X27917Y494329D01*
X27917Y491191D01*
X25699Y488973D01*
X22561Y488973D01*
G37*
%LPD*%
%LPC*%
G36*
X35261Y488973D02*
X35261Y488973D01*
X33043Y491191D01*
X33043Y494329D01*
X35261Y496547D01*
X38399Y496547D01*
X40617Y494329D01*
X40617Y491191D01*
X38399Y488973D01*
X35261Y488973D01*
G37*
%LPD*%
%LPC*%
G36*
X35261Y537233D02*
X35261Y537233D01*
X33043Y539451D01*
X33043Y542589D01*
X35261Y544807D01*
X38399Y544807D01*
X40617Y542589D01*
X40617Y539451D01*
X38399Y537233D01*
X35261Y537233D01*
G37*
%LPD*%
%LPC*%
G36*
X22561Y410233D02*
X22561Y410233D01*
X20343Y412451D01*
X20343Y415589D01*
X22561Y417807D01*
X25699Y417807D01*
X27917Y415589D01*
X27917Y412451D01*
X25699Y410233D01*
X22561Y410233D01*
G37*
%LPD*%
%LPC*%
G36*
X35261Y410233D02*
X35261Y410233D01*
X33043Y412451D01*
X33043Y415589D01*
X35261Y417807D01*
X38399Y417807D01*
X40617Y415589D01*
X40617Y412451D01*
X38399Y410233D01*
X35261Y410233D01*
G37*
%LPD*%
%LPC*%
G36*
X9861Y410233D02*
X9861Y410233D01*
X7643Y412451D01*
X7643Y415589D01*
X9861Y417807D01*
X12999Y417807D01*
X15217Y415589D01*
X15217Y412451D01*
X12999Y410233D01*
X9861Y410233D01*
G37*
%LPD*%
%LPC*%
G36*
X22561Y537233D02*
X22561Y537233D01*
X20343Y539451D01*
X20343Y542589D01*
X22561Y544807D01*
X25699Y544807D01*
X27917Y542589D01*
X27917Y539451D01*
X25699Y537233D01*
X22561Y537233D01*
G37*
%LPD*%
%LPC*%
G36*
X9861Y537233D02*
X9861Y537233D01*
X7643Y539451D01*
X7643Y542589D01*
X9861Y544807D01*
X12999Y544807D01*
X15217Y542589D01*
X15217Y539451D01*
X12999Y537233D01*
X9861Y537233D01*
G37*
%LPD*%
%LPC*%
G36*
X9861Y361973D02*
X9861Y361973D01*
X7643Y364191D01*
X7643Y367329D01*
X9861Y369547D01*
X12999Y369547D01*
X15217Y367329D01*
X15217Y364191D01*
X12999Y361973D01*
X9861Y361973D01*
G37*
%LPD*%
%LPC*%
G36*
X22561Y361973D02*
X22561Y361973D01*
X20343Y364191D01*
X20343Y367329D01*
X22561Y369547D01*
X25699Y369547D01*
X27917Y367329D01*
X27917Y364191D01*
X25699Y361973D01*
X22561Y361973D01*
G37*
%LPD*%
%LPC*%
G36*
X35261Y361973D02*
X35261Y361973D01*
X33043Y364191D01*
X33043Y367329D01*
X35261Y369547D01*
X38399Y369547D01*
X40617Y367329D01*
X40617Y364191D01*
X38399Y361973D01*
X35261Y361973D01*
G37*
%LPD*%
%LPC*%
G36*
X9861Y615973D02*
X9861Y615973D01*
X7643Y618191D01*
X7643Y621329D01*
X9861Y623547D01*
X12999Y623547D01*
X15217Y621329D01*
X15217Y618191D01*
X12999Y615973D01*
X9861Y615973D01*
G37*
%LPD*%
%LPC*%
G36*
X35261Y109243D02*
X35261Y109243D01*
X33043Y111461D01*
X33043Y114599D01*
X35261Y116817D01*
X38399Y116817D01*
X40617Y114599D01*
X40617Y111461D01*
X38399Y109243D01*
X35261Y109243D01*
G37*
%LPD*%
%LPC*%
G36*
X35261Y615973D02*
X35261Y615973D01*
X33043Y618191D01*
X33043Y621329D01*
X35261Y623547D01*
X38399Y623547D01*
X40617Y621329D01*
X40617Y618191D01*
X38399Y615973D01*
X35261Y615973D01*
G37*
%LPD*%
%LPC*%
G36*
X35261Y283233D02*
X35261Y283233D01*
X33043Y285451D01*
X33043Y288589D01*
X35261Y290807D01*
X38399Y290807D01*
X40617Y288589D01*
X40617Y285451D01*
X38399Y283233D01*
X35261Y283233D01*
G37*
%LPD*%
%LPC*%
G36*
X22561Y283233D02*
X22561Y283233D01*
X20343Y285451D01*
X20343Y288589D01*
X22561Y290807D01*
X25699Y290807D01*
X27917Y288589D01*
X27917Y285451D01*
X25699Y283233D01*
X22561Y283233D01*
G37*
%LPD*%
%LPC*%
G36*
X9861Y283233D02*
X9861Y283233D01*
X7643Y285451D01*
X7643Y288589D01*
X9861Y290807D01*
X12999Y290807D01*
X15217Y288589D01*
X15217Y285451D01*
X12999Y283233D01*
X9861Y283233D01*
G37*
%LPD*%
%LPC*%
G36*
X9861Y488973D02*
X9861Y488973D01*
X7643Y491191D01*
X7643Y494329D01*
X9861Y496547D01*
X12999Y496547D01*
X15217Y494329D01*
X15217Y491191D01*
X12999Y488973D01*
X9861Y488973D01*
G37*
%LPD*%
%LPC*%
G36*
X22561Y236243D02*
X22561Y236243D01*
X20343Y238461D01*
X20343Y241599D01*
X22561Y243817D01*
X25699Y243817D01*
X27917Y241599D01*
X27917Y238461D01*
X25699Y236243D01*
X22561Y236243D01*
G37*
%LPD*%
%LPC*%
G36*
X9861Y236243D02*
X9861Y236243D01*
X7643Y238461D01*
X7643Y241599D01*
X9861Y243817D01*
X12999Y243817D01*
X15217Y241599D01*
X15217Y238461D01*
X12999Y236243D01*
X9861Y236243D01*
G37*
%LPD*%
%LPC*%
G36*
X35261Y157503D02*
X35261Y157503D01*
X33043Y159721D01*
X33043Y162859D01*
X35261Y165077D01*
X38399Y165077D01*
X40617Y162859D01*
X40617Y159721D01*
X38399Y157503D01*
X35261Y157503D01*
G37*
%LPD*%
%LPC*%
G36*
X22561Y157503D02*
X22561Y157503D01*
X20343Y159721D01*
X20343Y162859D01*
X22561Y165077D01*
X25699Y165077D01*
X27917Y162859D01*
X27917Y159721D01*
X25699Y157503D01*
X22561Y157503D01*
G37*
%LPD*%
%LPC*%
G36*
X9861Y157503D02*
X9861Y157503D01*
X7643Y159721D01*
X7643Y162859D01*
X9861Y165077D01*
X12999Y165077D01*
X15217Y162859D01*
X15217Y159721D01*
X12999Y157503D01*
X9861Y157503D01*
G37*
%LPD*%
%LPC*%
G36*
X9861Y109243D02*
X9861Y109243D01*
X7643Y111461D01*
X7643Y114599D01*
X9861Y116817D01*
X12999Y116817D01*
X15217Y114599D01*
X15217Y111461D01*
X12999Y109243D01*
X9861Y109243D01*
G37*
%LPD*%
%LPC*%
G36*
X22561Y109243D02*
X22561Y109243D01*
X20343Y111461D01*
X20343Y114599D01*
X22561Y116817D01*
X25699Y116817D01*
X27917Y114599D01*
X27917Y111461D01*
X25699Y109243D01*
X22561Y109243D01*
G37*
%LPD*%
D10*
X386080Y24130D03*
X411480Y24130D03*
X436880Y24130D03*
X360680Y24130D03*
X335280Y24130D03*
X309880Y24130D03*
D11*
X11430Y90170D03*
X11430Y57150D03*
X36830Y90170D03*
X36830Y57150D03*
X11430Y34290D03*
X36830Y34290D03*
X11430Y113030D03*
X36830Y113030D03*
X24130Y113030D03*
X24130Y34290D03*
X24130Y57150D03*
X24130Y90170D03*
X11430Y217170D03*
X11430Y184150D03*
X36830Y217170D03*
X36830Y184150D03*
X11430Y161290D03*
X36830Y161290D03*
X11430Y240030D03*
X36830Y240030D03*
X24130Y240030D03*
X24130Y161290D03*
X24130Y184150D03*
X24130Y217170D03*
D10*
X186690Y24130D03*
X161290Y24130D03*
X212090Y24130D03*
D12*
X607060Y463550D03*
X607060Y412750D03*
X607060Y628650D03*
X607060Y577850D03*
X605790Y241300D03*
X605790Y190500D03*
D11*
X11430Y596900D03*
X11430Y563880D03*
X36830Y596900D03*
X36830Y563880D03*
X11430Y541020D03*
X36830Y541020D03*
X11430Y619760D03*
X36830Y619760D03*
X24130Y619760D03*
X24130Y541020D03*
X24130Y563880D03*
X24130Y596900D03*
X11430Y342900D03*
X11430Y309880D03*
X36830Y342900D03*
X36830Y309880D03*
X11430Y287020D03*
X36830Y287020D03*
X11430Y365760D03*
X36830Y365760D03*
X24130Y365760D03*
X24130Y287020D03*
X24130Y309880D03*
X24130Y342900D03*
X11430Y469900D03*
X11430Y436880D03*
X36830Y469900D03*
X36830Y436880D03*
X11430Y414020D03*
X36830Y414020D03*
X11430Y492760D03*
X36830Y492760D03*
X24130Y492760D03*
X24130Y414020D03*
X24130Y436880D03*
X24130Y469900D03*
D10*
X31750Y711200D03*
X31750Y685800D03*
D13*
X177800Y685800D03*
D14*
X152400Y660400D03*
X152400Y711200D03*
X203200Y711200D03*
X203200Y660400D03*
D10*
X406400Y692150D03*
X406400Y717550D03*
X406400Y666750D03*
X406400Y641350D03*
D15*
X118110Y207010D03*
X118110Y194310D03*
X181610Y215900D03*
X181610Y185420D03*
X181610Y240030D03*
X181610Y161290D03*
X139700Y207010D03*
X139700Y194310D03*
X59690Y63500D03*
X78740Y63500D03*
X69850Y55880D03*
X64770Y99060D03*
X73660Y107950D03*
X297180Y127000D03*
X306070Y116840D03*
X297180Y295910D03*
X288290Y285750D03*
X300990Y275590D03*
X308610Y135890D03*
X308610Y161290D03*
X300990Y250190D03*
X358140Y355600D03*
X350520Y355600D03*
X358140Y441960D03*
X351790Y441960D03*
X368300Y453390D03*
X491490Y709930D03*
X491490Y702310D03*
X491490Y694690D03*
X501650Y717550D03*
X501650Y687070D03*
X458470Y660400D03*
X445770Y660400D03*
X471170Y660400D03*
X471170Y647700D03*
X458470Y647700D03*
X445770Y647700D03*
X445770Y635000D03*
X458470Y635000D03*
X471170Y635000D03*
X471170Y673100D03*
X458470Y673100D03*
X445770Y673100D03*
X433070Y673100D03*
X433070Y660400D03*
X433070Y647700D03*
X433070Y635000D03*
X483870Y673100D03*
X483870Y660400D03*
X483870Y647700D03*
X483870Y635000D03*
X509270Y375920D03*
X509270Y367030D03*
X509270Y358140D03*
X487680Y377190D03*
X487680Y367030D03*
X487680Y356870D03*
X539750Y267970D03*
X539750Y259080D03*
X539750Y250190D03*
X518160Y267970D03*
X518160Y259080D03*
X518160Y250190D03*
X554990Y297180D03*
X554990Y287020D03*
X528320Y295910D03*
X528320Y285750D03*
X217424Y371856D03*
X216154Y429006D03*
X207264Y382016D03*
X207264Y417576D03*
X284734Y484886D03*
X293624Y484886D03*
X242824Y362966D03*
X251714Y362966D03*
X313944Y429006D03*
X329184Y446786D03*
X326644Y455676D03*
X287274Y341376D03*
X289814Y368046D03*
X502920Y613410D03*
X511810Y605790D03*
X511810Y596900D03*
X502920Y588010D03*
X492760Y608330D03*
X492760Y595630D03*
X492760Y565150D03*
X492760Y556260D03*
X500380Y551180D03*
X553720Y496570D03*
X553720Y487680D03*
X511810Y497840D03*
X511810Y486410D03*
X523240Y506730D03*
X533400Y506730D03*
X544830Y506730D03*
X521970Y477520D03*
X533400Y477520D03*
X544830Y477520D03*
X505460Y468630D03*
X505460Y457200D03*
X527050Y468630D03*
X527050Y457200D03*
X476250Y222250D03*
X476250Y213360D03*
X476250Y204470D03*
X466090Y231140D03*
X453390Y223520D03*
X453390Y214630D03*
X523240Y144780D03*
X523240Y134620D03*
X495300Y144780D03*
X495300Y133350D03*
X509270Y115570D03*
X509270Y105410D03*
X509270Y95250D03*
X485140Y115570D03*
X485140Y105410D03*
X485140Y95250D03*
X344170Y306070D03*
X370840Y307340D03*
X351790Y297180D03*
X360680Y297180D03*
X412750Y313690D03*
X420370Y313690D03*
X209550Y125730D03*
X227330Y125730D03*
X408940Y360680D03*
X411480Y354330D03*
X411480Y347980D03*
D16*
X140970Y114300D03*
X12700Y12700D03*
X52070Y12700D03*
X77470Y12700D03*
X102870Y12700D03*
X128270Y12700D03*
X229870Y12700D03*
X255270Y12700D03*
X280670Y12700D03*
X458470Y12700D03*
X483870Y12700D03*
X509270Y12700D03*
X534670Y12700D03*
X560070Y12700D03*
X585470Y12700D03*
X610870Y12700D03*
X636270Y12700D03*
X12700Y133350D03*
X12700Y252730D03*
X12700Y647700D03*
X12700Y673100D03*
X12700Y698500D03*
X12700Y723900D03*
X52070Y723900D03*
X77470Y723900D03*
X102870Y723900D03*
X356870Y723900D03*
X382270Y723900D03*
X433070Y723900D03*
X458470Y736600D03*
X483870Y736600D03*
X509270Y736600D03*
X547370Y736600D03*
X560070Y723900D03*
X585470Y723900D03*
X610870Y723900D03*
X636270Y723900D03*
X636270Y698500D03*
X636270Y673100D03*
X636270Y546100D03*
X636270Y520700D03*
X636270Y495300D03*
X636270Y381000D03*
X636270Y355600D03*
X636270Y330200D03*
X636270Y304800D03*
X636270Y279400D03*
X636270Y152400D03*
X636270Y127000D03*
X636270Y101600D03*
X636270Y76200D03*
X636270Y50800D03*
X93980Y44450D03*
X119380Y44450D03*
X119380Y82550D03*
X144780Y82550D03*
X144780Y44450D03*
D15*
X160274Y324866D03*
X160274Y317246D03*
X94234Y324866D03*
X94234Y317246D03*
X184404Y370586D03*
X184404Y361696D03*
X192024Y554736D03*
X199644Y619506D03*
X192024Y619506D03*
X199644Y554736D03*
X104394Y539496D03*
X109474Y529336D03*
X117094Y529336D03*
X99314Y371856D03*
X99314Y364236D03*
X99314Y355346D03*
X108204Y354076D03*
X101854Y605536D03*
X127254Y605536D03*
X108204Y613156D03*
X117094Y613156D03*
X89154Y529336D03*
X95504Y529336D03*
X168910Y297180D03*
X181610Y316230D03*
X207010Y322580D03*
X207010Y303530D03*
X187960Y290830D03*
X226060Y322580D03*
X314960Y320040D03*
X304800Y303530D03*
X346710Y323850D03*
X372110Y323850D03*
X347980Y346710D03*
X359410Y345440D03*
X403860Y339090D03*
X401320Y360680D03*
D16*
X350520Y670560D03*
X358140Y670560D03*
X365760Y670560D03*
X373380Y670560D03*
X220980Y537210D03*
X220980Y511810D03*
X220980Y486410D03*
X246380Y486410D03*
X227330Y632460D03*
X246380Y632460D03*
X274320Y723900D03*
X242570Y723900D03*
X166370Y527050D03*
X166370Y495300D03*
X166370Y463550D03*
X109220Y495300D03*
X109220Y476250D03*
X77470Y476250D03*
X77470Y425450D03*
X58420Y381000D03*
X77470Y304800D03*
X166370Y438150D03*
X185420Y425450D03*
X198120Y374650D03*
X109220Y520700D03*
D15*
X307594Y422656D03*
X282194Y378206D03*
X294894Y378206D03*
X313944Y416306D03*
X520700Y523240D03*
X532130Y523240D03*
X543560Y523240D03*
X533400Y580390D03*
X523240Y571500D03*
X523240Y560070D03*
X546100Y571500D03*
X546100Y560070D03*
X553720Y542290D03*
X553720Y532130D03*
X513080Y543560D03*
X513080Y532130D03*
X533400Y551180D03*
D17*
X336550Y660400D03*
X336550Y632460D03*
X354330Y637540D03*
X369570Y637540D03*
D15*
X529590Y718820D03*
X539750Y718820D03*
X521970Y661670D03*
X533400Y661670D03*
X546100Y661670D03*
X511810Y680720D03*
X511810Y669290D03*
X546100Y708660D03*
X546100Y695960D03*
X554990Y681990D03*
X554990Y671830D03*
D17*
X311150Y731520D03*
X311150Y685800D03*
X264160Y638810D03*
X274320Y638810D03*
X325120Y731520D03*
D15*
X119380Y222250D03*
X119380Y179070D03*
X129540Y231140D03*
X128270Y170180D03*
X382270Y430530D03*
X375920Y441960D03*
X368300Y441960D03*
X368300Y355600D03*
X375920Y355600D03*
X382270Y364490D03*
X486410Y267970D03*
X486410Y259080D03*
X486410Y250190D03*
X508000Y267970D03*
X508000Y259080D03*
X508000Y250190D03*
X483870Y342900D03*
X496570Y342900D03*
X496570Y330200D03*
X496570Y317500D03*
X496570Y304800D03*
X496570Y292100D03*
X483870Y292100D03*
X471170Y292100D03*
X458470Y279400D03*
X458470Y304800D03*
X458470Y317500D03*
X458470Y330200D03*
X458470Y342900D03*
X471170Y342900D03*
X471170Y330200D03*
X471170Y317500D03*
X471170Y304800D03*
X458470Y292100D03*
X471170Y279400D03*
X483870Y279400D03*
X496570Y279400D03*
X227076Y430022D03*
X235966Y430022D03*
X227076Y371602D03*
X234696Y371602D03*
X279146Y466852D03*
X279146Y457962D03*
X447040Y360680D03*
X447040Y354330D03*
X447040Y347980D03*
X263906Y418592D03*
X271526Y418592D03*
X263906Y386842D03*
X271526Y386842D03*
X289306Y428752D03*
X289306Y421132D03*
X159766Y341122D03*
X159766Y333502D03*
X93726Y341122D03*
X93726Y333502D03*
X145796Y379222D03*
X145796Y355092D03*
X159766Y375412D03*
X159766Y356362D03*
X210566Y554482D03*
X218186Y554482D03*
X218186Y619252D03*
X210566Y619252D03*
X101346Y567182D03*
X103886Y557022D03*
X103886Y549402D03*
X88646Y563372D03*
X96266Y563372D03*
X235585Y220345D03*
X267970Y378460D03*
X261620Y341630D03*
X214630Y232410D03*
X261620Y332740D03*
X220980Y215900D03*
X270510Y332740D03*
X227330Y200660D03*
X284480Y328930D03*
X266065Y219075D03*
X293370Y328930D03*
X265430Y228600D03*
X302260Y328930D03*
X265430Y238760D03*
X311150Y330200D03*
X265430Y247650D03*
X332740Y274320D03*
X335280Y353060D03*
X321310Y378460D03*
X325120Y248920D03*
X476250Y534670D03*
X463550Y534670D03*
X450850Y534670D03*
X438150Y534670D03*
X438150Y521970D03*
X450850Y521970D03*
X463550Y521970D03*
X476250Y521970D03*
X476250Y509270D03*
X463550Y509270D03*
X450850Y509270D03*
X438150Y509270D03*
X438150Y496570D03*
X450850Y496570D03*
X463550Y496570D03*
X476250Y496570D03*
X488950Y534670D03*
X488950Y521970D03*
X488950Y509270D03*
X488950Y496570D03*
X97790Y99060D03*
X88900Y107950D03*
X82550Y83820D03*
X321310Y285750D03*
X313690Y295910D03*
X330200Y127000D03*
X431800Y177800D03*
X444500Y177800D03*
X457200Y177800D03*
X431800Y165100D03*
X444500Y165100D03*
X457200Y165100D03*
X457200Y152400D03*
X444500Y152400D03*
X431800Y152400D03*
X431800Y139700D03*
X444500Y139700D03*
X457200Y139700D03*
X457200Y190500D03*
X444500Y190500D03*
X431800Y190500D03*
X469900Y190500D03*
X469900Y177800D03*
X469900Y165100D03*
X469900Y152400D03*
X469900Y139700D03*
X431800Y127000D03*
X444500Y127000D03*
X444500Y114300D03*
X431800Y114300D03*
X466090Y123190D03*
X466090Y90170D03*
X453390Y106680D03*
X382270Y284480D03*
X382270Y274320D03*
X420370Y278130D03*
X382270Y293370D03*
X321310Y116840D03*
X412750Y278130D03*
D17*
X355600Y76200D03*
X441325Y66675D03*
D15*
X171450Y209550D03*
D16*
X342900Y181610D03*
D15*
X195580Y227330D03*
D16*
X276860Y248920D03*
X316798Y248380D03*
X317500Y193040D03*
X317500Y176530D03*
X152400Y209550D03*
D17*
X311150Y628650D03*
X394970Y245110D03*
X283210Y665480D03*
X323850Y662940D03*
M02*
