G04 EAGLE Gerber RS-274X export*
G75*
%MOMM*%
%FSLAX34Y34*%
%LPD*%
%INInner Layer 2*%
%IPPOS*%
%AMOC8*
5,1,8,0,0,1.08239X$1,22.5*%
G01*
%ADD10C,0.503200*%
%ADD11C,1.714500*%
%ADD12C,0.609600*%
%ADD13C,1.500000*%
%ADD14C,0.553200*%

G36*
X287720Y3822D02*
X287720Y3822D01*
X287786Y3824D01*
X287829Y3842D01*
X287876Y3850D01*
X287933Y3884D01*
X287993Y3909D01*
X288028Y3940D01*
X288069Y3965D01*
X288111Y4016D01*
X288159Y4060D01*
X288181Y4102D01*
X288210Y4139D01*
X288231Y4201D01*
X288262Y4260D01*
X288270Y4314D01*
X288282Y4351D01*
X288281Y4391D01*
X288289Y4445D01*
X288289Y31115D01*
X288278Y31180D01*
X288276Y31246D01*
X288258Y31289D01*
X288250Y31336D01*
X288216Y31393D01*
X288191Y31453D01*
X288160Y31488D01*
X288135Y31529D01*
X288084Y31571D01*
X288040Y31619D01*
X287998Y31641D01*
X287961Y31670D01*
X287899Y31691D01*
X287840Y31722D01*
X287786Y31730D01*
X287749Y31742D01*
X287709Y31741D01*
X287655Y31749D01*
X285051Y31749D01*
X284987Y31738D01*
X284921Y31736D01*
X284877Y31718D01*
X284831Y31710D01*
X284774Y31676D01*
X284713Y31651D01*
X284678Y31620D01*
X284637Y31595D01*
X284596Y31544D01*
X284547Y31500D01*
X284526Y31458D01*
X284496Y31421D01*
X284475Y31359D01*
X284445Y31300D01*
X284437Y31246D01*
X284424Y31209D01*
X284425Y31180D01*
X284424Y31177D01*
X284425Y31164D01*
X284417Y31115D01*
X284417Y30300D01*
X282919Y26682D01*
X280150Y23913D01*
X276532Y22415D01*
X272616Y22415D01*
X268998Y23913D01*
X266229Y26682D01*
X264731Y30300D01*
X264731Y31115D01*
X264719Y31180D01*
X264717Y31246D01*
X264699Y31289D01*
X264691Y31336D01*
X264658Y31393D01*
X264633Y31453D01*
X264601Y31488D01*
X264577Y31529D01*
X264526Y31571D01*
X264481Y31619D01*
X264439Y31641D01*
X264403Y31670D01*
X264341Y31691D01*
X264282Y31722D01*
X264227Y31730D01*
X264190Y31742D01*
X264151Y31741D01*
X264097Y31749D01*
X262953Y31749D01*
X262889Y31738D01*
X262823Y31736D01*
X262779Y31718D01*
X262733Y31710D01*
X262676Y31676D01*
X262615Y31651D01*
X262580Y31620D01*
X262539Y31595D01*
X262498Y31544D01*
X262449Y31500D01*
X262428Y31458D01*
X262398Y31421D01*
X262377Y31359D01*
X262347Y31300D01*
X262339Y31246D01*
X262326Y31209D01*
X262327Y31180D01*
X262326Y31177D01*
X262327Y31164D01*
X262319Y31115D01*
X262319Y30300D01*
X260821Y26682D01*
X258052Y23913D01*
X254434Y22415D01*
X250518Y22415D01*
X246900Y23913D01*
X244131Y26682D01*
X242633Y30300D01*
X242633Y31115D01*
X242621Y31180D01*
X242619Y31246D01*
X242601Y31289D01*
X242593Y31336D01*
X242560Y31393D01*
X242535Y31453D01*
X242503Y31488D01*
X242479Y31529D01*
X242428Y31571D01*
X242383Y31619D01*
X242341Y31641D01*
X242305Y31670D01*
X242243Y31691D01*
X242184Y31722D01*
X242129Y31730D01*
X242092Y31742D01*
X242053Y31741D01*
X241999Y31749D01*
X238368Y31749D01*
X236152Y33966D01*
X236098Y34003D01*
X236050Y34049D01*
X236006Y34067D01*
X235967Y34094D01*
X235904Y34110D01*
X235843Y34136D01*
X235796Y34138D01*
X235750Y34150D01*
X235685Y34143D01*
X235619Y34146D01*
X235574Y34131D01*
X235527Y34127D01*
X235468Y34097D01*
X235405Y34077D01*
X235361Y34045D01*
X235326Y34027D01*
X235299Y33998D01*
X235255Y33966D01*
X234082Y32793D01*
X230738Y32793D01*
X228373Y35158D01*
X228373Y38502D01*
X230738Y40867D01*
X234082Y40867D01*
X236017Y38932D01*
X236071Y38895D01*
X236119Y38849D01*
X236162Y38831D01*
X236201Y38804D01*
X236265Y38788D01*
X236325Y38762D01*
X236372Y38760D01*
X236418Y38748D01*
X236484Y38755D01*
X236549Y38752D01*
X236594Y38767D01*
X236641Y38771D01*
X236700Y38801D01*
X236763Y38821D01*
X236807Y38853D01*
X236842Y38871D01*
X236869Y38900D01*
X236914Y38932D01*
X238368Y40387D01*
X241946Y40387D01*
X243867Y38466D01*
X243921Y38428D01*
X243969Y38383D01*
X244012Y38365D01*
X244051Y38338D01*
X244114Y38322D01*
X244175Y38296D01*
X244222Y38294D01*
X244268Y38282D01*
X244334Y38289D01*
X244399Y38286D01*
X244444Y38300D01*
X244491Y38305D01*
X244550Y38334D01*
X244613Y38354D01*
X244657Y38387D01*
X244692Y38405D01*
X244719Y38433D01*
X244764Y38466D01*
X246900Y40603D01*
X250518Y42101D01*
X254434Y42101D01*
X258052Y40603D01*
X259553Y39101D01*
X259607Y39063D01*
X259655Y39018D01*
X259699Y39000D01*
X259738Y38973D01*
X259801Y38957D01*
X259862Y38931D01*
X259909Y38929D01*
X259955Y38917D01*
X260020Y38924D01*
X260086Y38921D01*
X260131Y38935D01*
X260178Y38940D01*
X260237Y38969D01*
X260300Y38990D01*
X260344Y39022D01*
X260379Y39040D01*
X260406Y39068D01*
X260450Y39101D01*
X261736Y40387D01*
X265314Y40387D01*
X266600Y39101D01*
X266654Y39063D01*
X266702Y39018D01*
X266745Y39000D01*
X266784Y38973D01*
X266848Y38957D01*
X266908Y38931D01*
X266955Y38929D01*
X267001Y38917D01*
X267067Y38924D01*
X267132Y38921D01*
X267177Y38935D01*
X267224Y38940D01*
X267283Y38969D01*
X267346Y38990D01*
X267390Y39022D01*
X267425Y39040D01*
X267452Y39068D01*
X267497Y39101D01*
X268998Y40603D01*
X272616Y42101D01*
X276532Y42101D01*
X280150Y40603D01*
X282286Y38466D01*
X282340Y38428D01*
X282388Y38383D01*
X282432Y38365D01*
X282471Y38338D01*
X282534Y38322D01*
X282595Y38296D01*
X282642Y38294D01*
X282688Y38282D01*
X282753Y38289D01*
X282819Y38286D01*
X282864Y38300D01*
X282911Y38305D01*
X282970Y38334D01*
X283033Y38355D01*
X283077Y38387D01*
X283112Y38405D01*
X283139Y38433D01*
X283183Y38466D01*
X285104Y40387D01*
X287655Y40387D01*
X287720Y40398D01*
X287786Y40400D01*
X287829Y40418D01*
X287876Y40426D01*
X287933Y40460D01*
X287993Y40485D01*
X288028Y40516D01*
X288069Y40541D01*
X288111Y40592D01*
X288159Y40636D01*
X288181Y40678D01*
X288210Y40715D01*
X288231Y40777D01*
X288262Y40836D01*
X288270Y40890D01*
X288282Y40927D01*
X288281Y40967D01*
X288289Y41021D01*
X288289Y47879D01*
X288278Y47944D01*
X288276Y48010D01*
X288258Y48053D01*
X288250Y48100D01*
X288216Y48157D01*
X288191Y48217D01*
X288160Y48252D01*
X288135Y48293D01*
X288084Y48335D01*
X288040Y48383D01*
X287998Y48405D01*
X287961Y48434D01*
X287899Y48455D01*
X287840Y48486D01*
X287786Y48494D01*
X287749Y48506D01*
X287709Y48505D01*
X287655Y48513D01*
X285104Y48513D01*
X283183Y50434D01*
X283129Y50472D01*
X283081Y50517D01*
X283038Y50535D01*
X282999Y50562D01*
X282935Y50578D01*
X282875Y50604D01*
X282828Y50606D01*
X282782Y50618D01*
X282716Y50611D01*
X282651Y50614D01*
X282606Y50600D01*
X282559Y50595D01*
X282500Y50566D01*
X282437Y50545D01*
X282393Y50513D01*
X282358Y50495D01*
X282331Y50467D01*
X282286Y50434D01*
X280150Y48297D01*
X276532Y46799D01*
X272616Y46799D01*
X268998Y48297D01*
X267497Y49799D01*
X267443Y49837D01*
X267395Y49882D01*
X267351Y49900D01*
X267312Y49927D01*
X267249Y49943D01*
X267188Y49969D01*
X267141Y49971D01*
X267095Y49983D01*
X267030Y49976D01*
X266964Y49979D01*
X266919Y49965D01*
X266872Y49960D01*
X266813Y49931D01*
X266750Y49911D01*
X266706Y49878D01*
X266671Y49860D01*
X266644Y49832D01*
X266600Y49799D01*
X265314Y48513D01*
X261736Y48513D01*
X260450Y49799D01*
X260396Y49837D01*
X260348Y49882D01*
X260305Y49900D01*
X260266Y49927D01*
X260202Y49943D01*
X260142Y49969D01*
X260095Y49971D01*
X260049Y49983D01*
X259983Y49976D01*
X259918Y49979D01*
X259873Y49965D01*
X259826Y49960D01*
X259767Y49931D01*
X259704Y49910D01*
X259660Y49878D01*
X259625Y49860D01*
X259598Y49832D01*
X259553Y49799D01*
X258052Y48297D01*
X254434Y46799D01*
X250518Y46799D01*
X246900Y48297D01*
X244764Y50434D01*
X244710Y50472D01*
X244662Y50517D01*
X244618Y50535D01*
X244579Y50562D01*
X244516Y50578D01*
X244455Y50604D01*
X244408Y50606D01*
X244362Y50618D01*
X244297Y50611D01*
X244231Y50614D01*
X244186Y50600D01*
X244139Y50595D01*
X244080Y50566D01*
X244017Y50545D01*
X243973Y50513D01*
X243938Y50495D01*
X243911Y50467D01*
X243867Y50434D01*
X241946Y48513D01*
X238368Y48513D01*
X235722Y51160D01*
X235714Y51176D01*
X235697Y51192D01*
X235684Y51212D01*
X235615Y51268D01*
X235551Y51329D01*
X235529Y51339D01*
X235510Y51354D01*
X235426Y51382D01*
X235344Y51417D01*
X235320Y51418D01*
X235298Y51426D01*
X235209Y51423D01*
X235120Y51427D01*
X235097Y51420D01*
X235073Y51419D01*
X234991Y51385D01*
X234906Y51358D01*
X234885Y51343D01*
X234866Y51335D01*
X234828Y51301D01*
X234756Y51247D01*
X232812Y49303D01*
X229468Y49303D01*
X227103Y51668D01*
X227103Y55012D01*
X229468Y57377D01*
X232812Y57377D01*
X235255Y54934D01*
X235309Y54897D01*
X235357Y54851D01*
X235400Y54833D01*
X235439Y54806D01*
X235503Y54790D01*
X235563Y54764D01*
X235610Y54762D01*
X235656Y54750D01*
X235722Y54757D01*
X235787Y54754D01*
X235832Y54769D01*
X235879Y54773D01*
X235938Y54803D01*
X236001Y54823D01*
X236045Y54855D01*
X236080Y54873D01*
X236107Y54902D01*
X236152Y54934D01*
X238368Y57151D01*
X241999Y57151D01*
X242063Y57162D01*
X242129Y57164D01*
X242173Y57182D01*
X242219Y57190D01*
X242276Y57224D01*
X242337Y57249D01*
X242372Y57280D01*
X242413Y57305D01*
X242454Y57356D01*
X242503Y57400D01*
X242524Y57442D01*
X242554Y57479D01*
X242575Y57541D01*
X242605Y57600D01*
X242613Y57654D01*
X242626Y57691D01*
X242625Y57731D01*
X242633Y57785D01*
X242633Y58600D01*
X244131Y62218D01*
X246900Y64987D01*
X250518Y66485D01*
X254434Y66485D01*
X258052Y64987D01*
X260821Y62218D01*
X262319Y58600D01*
X262319Y57785D01*
X262331Y57720D01*
X262333Y57654D01*
X262351Y57611D01*
X262359Y57564D01*
X262392Y57507D01*
X262417Y57447D01*
X262449Y57412D01*
X262473Y57371D01*
X262524Y57329D01*
X262569Y57281D01*
X262611Y57259D01*
X262647Y57230D01*
X262709Y57209D01*
X262768Y57178D01*
X262823Y57170D01*
X262860Y57158D01*
X262899Y57159D01*
X262953Y57151D01*
X264097Y57151D01*
X264161Y57162D01*
X264227Y57164D01*
X264271Y57182D01*
X264317Y57190D01*
X264374Y57224D01*
X264435Y57249D01*
X264470Y57280D01*
X264511Y57305D01*
X264552Y57356D01*
X264601Y57400D01*
X264622Y57442D01*
X264652Y57479D01*
X264673Y57541D01*
X264703Y57600D01*
X264711Y57654D01*
X264724Y57691D01*
X264723Y57731D01*
X264731Y57785D01*
X264731Y58600D01*
X266229Y62218D01*
X268998Y64987D01*
X272616Y66485D01*
X276532Y66485D01*
X280150Y64987D01*
X282919Y62218D01*
X284417Y58600D01*
X284417Y57785D01*
X284429Y57720D01*
X284431Y57654D01*
X284449Y57611D01*
X284457Y57564D01*
X284490Y57507D01*
X284515Y57447D01*
X284547Y57412D01*
X284571Y57371D01*
X284622Y57329D01*
X284667Y57281D01*
X284709Y57259D01*
X284745Y57230D01*
X284807Y57209D01*
X284866Y57178D01*
X284921Y57170D01*
X284958Y57158D01*
X284997Y57159D01*
X285051Y57151D01*
X287655Y57151D01*
X287720Y57162D01*
X287786Y57164D01*
X287829Y57182D01*
X287876Y57190D01*
X287933Y57224D01*
X287993Y57249D01*
X288028Y57280D01*
X288069Y57305D01*
X288111Y57356D01*
X288159Y57400D01*
X288181Y57442D01*
X288210Y57479D01*
X288231Y57541D01*
X288262Y57600D01*
X288270Y57654D01*
X288282Y57691D01*
X288281Y57731D01*
X288289Y57785D01*
X288289Y178435D01*
X288278Y178500D01*
X288276Y178566D01*
X288258Y178609D01*
X288250Y178656D01*
X288216Y178713D01*
X288191Y178773D01*
X288160Y178808D01*
X288135Y178849D01*
X288084Y178891D01*
X288040Y178939D01*
X287998Y178961D01*
X287961Y178990D01*
X287899Y179011D01*
X287840Y179042D01*
X287786Y179050D01*
X287749Y179062D01*
X287709Y179061D01*
X287655Y179069D01*
X285051Y179069D01*
X284987Y179058D01*
X284921Y179056D01*
X284877Y179038D01*
X284831Y179030D01*
X284774Y178996D01*
X284713Y178971D01*
X284678Y178940D01*
X284637Y178915D01*
X284596Y178864D01*
X284547Y178820D01*
X284526Y178778D01*
X284496Y178741D01*
X284475Y178679D01*
X284445Y178620D01*
X284437Y178566D01*
X284424Y178529D01*
X284425Y178489D01*
X284417Y178435D01*
X284417Y177620D01*
X282919Y174002D01*
X280150Y171233D01*
X276532Y169735D01*
X272616Y169735D01*
X268998Y171233D01*
X266229Y174002D01*
X264731Y177620D01*
X264731Y178435D01*
X264719Y178500D01*
X264717Y178566D01*
X264699Y178609D01*
X264691Y178656D01*
X264658Y178713D01*
X264633Y178773D01*
X264601Y178808D01*
X264577Y178849D01*
X264526Y178891D01*
X264481Y178939D01*
X264439Y178961D01*
X264403Y178990D01*
X264341Y179011D01*
X264282Y179042D01*
X264227Y179050D01*
X264190Y179062D01*
X264151Y179061D01*
X264097Y179069D01*
X262953Y179069D01*
X262889Y179058D01*
X262823Y179056D01*
X262779Y179038D01*
X262733Y179030D01*
X262676Y178996D01*
X262615Y178971D01*
X262580Y178940D01*
X262539Y178915D01*
X262498Y178864D01*
X262449Y178820D01*
X262428Y178778D01*
X262398Y178741D01*
X262377Y178679D01*
X262347Y178620D01*
X262339Y178566D01*
X262326Y178529D01*
X262327Y178489D01*
X262319Y178435D01*
X262319Y177620D01*
X260821Y174002D01*
X258052Y171233D01*
X254434Y169735D01*
X250518Y169735D01*
X246900Y171233D01*
X244131Y174002D01*
X242633Y177620D01*
X242633Y178435D01*
X242621Y178500D01*
X242619Y178566D01*
X242601Y178609D01*
X242593Y178656D01*
X242560Y178713D01*
X242535Y178773D01*
X242503Y178808D01*
X242479Y178849D01*
X242428Y178891D01*
X242383Y178939D01*
X242341Y178961D01*
X242305Y178990D01*
X242243Y179011D01*
X242184Y179042D01*
X242129Y179050D01*
X242092Y179062D01*
X242053Y179061D01*
X241999Y179069D01*
X238368Y179069D01*
X236152Y181286D01*
X236098Y181323D01*
X236050Y181369D01*
X236006Y181387D01*
X235967Y181414D01*
X235904Y181430D01*
X235843Y181456D01*
X235796Y181458D01*
X235750Y181470D01*
X235685Y181463D01*
X235619Y181466D01*
X235574Y181451D01*
X235527Y181447D01*
X235468Y181417D01*
X235405Y181397D01*
X235361Y181365D01*
X235326Y181347D01*
X235299Y181318D01*
X235255Y181286D01*
X232812Y178843D01*
X229468Y178843D01*
X227103Y181208D01*
X227103Y184552D01*
X229468Y186917D01*
X232812Y186917D01*
X234756Y184973D01*
X234829Y184922D01*
X234898Y184866D01*
X234920Y184859D01*
X234940Y184845D01*
X235026Y184823D01*
X235110Y184794D01*
X235134Y184795D01*
X235157Y184789D01*
X235246Y184798D01*
X235335Y184801D01*
X235357Y184810D01*
X235380Y184812D01*
X235460Y184852D01*
X235542Y184885D01*
X235560Y184901D01*
X235581Y184912D01*
X235642Y184977D01*
X235708Y185037D01*
X235719Y185057D01*
X238368Y187707D01*
X241946Y187707D01*
X243867Y185786D01*
X243921Y185748D01*
X243969Y185703D01*
X244012Y185685D01*
X244051Y185658D01*
X244115Y185642D01*
X244175Y185616D01*
X244222Y185614D01*
X244268Y185602D01*
X244334Y185609D01*
X244399Y185606D01*
X244444Y185620D01*
X244491Y185625D01*
X244550Y185654D01*
X244613Y185675D01*
X244657Y185707D01*
X244692Y185725D01*
X244719Y185753D01*
X244764Y185786D01*
X246900Y187923D01*
X250518Y189421D01*
X254434Y189421D01*
X258052Y187923D01*
X259553Y186421D01*
X259607Y186383D01*
X259655Y186338D01*
X259699Y186320D01*
X259738Y186293D01*
X259801Y186277D01*
X259862Y186251D01*
X259909Y186249D01*
X259955Y186237D01*
X260020Y186244D01*
X260086Y186241D01*
X260131Y186255D01*
X260178Y186260D01*
X260237Y186289D01*
X260300Y186309D01*
X260344Y186342D01*
X260379Y186360D01*
X260406Y186388D01*
X260450Y186421D01*
X261736Y187707D01*
X265314Y187707D01*
X266600Y186421D01*
X266654Y186383D01*
X266702Y186338D01*
X266745Y186320D01*
X266784Y186293D01*
X266848Y186277D01*
X266908Y186251D01*
X266955Y186249D01*
X267001Y186237D01*
X267067Y186244D01*
X267132Y186241D01*
X267177Y186255D01*
X267224Y186260D01*
X267283Y186289D01*
X267346Y186310D01*
X267390Y186342D01*
X267425Y186360D01*
X267452Y186388D01*
X267497Y186421D01*
X268998Y187923D01*
X272616Y189421D01*
X276532Y189421D01*
X280150Y187923D01*
X282286Y185786D01*
X282340Y185748D01*
X282388Y185703D01*
X282432Y185685D01*
X282471Y185658D01*
X282534Y185642D01*
X282595Y185616D01*
X282642Y185614D01*
X282688Y185602D01*
X282753Y185609D01*
X282819Y185606D01*
X282864Y185620D01*
X282911Y185625D01*
X282970Y185654D01*
X283033Y185674D01*
X283077Y185707D01*
X283112Y185725D01*
X283139Y185753D01*
X283183Y185786D01*
X285104Y187707D01*
X287655Y187707D01*
X287720Y187718D01*
X287786Y187720D01*
X287829Y187738D01*
X287876Y187746D01*
X287933Y187780D01*
X287993Y187805D01*
X288028Y187836D01*
X288069Y187861D01*
X288111Y187912D01*
X288159Y187956D01*
X288181Y187998D01*
X288210Y188035D01*
X288231Y188097D01*
X288262Y188156D01*
X288270Y188210D01*
X288282Y188247D01*
X288281Y188281D01*
X288282Y188284D01*
X288282Y188293D01*
X288289Y188341D01*
X288289Y195199D01*
X288278Y195264D01*
X288276Y195330D01*
X288258Y195373D01*
X288250Y195420D01*
X288216Y195477D01*
X288191Y195537D01*
X288160Y195572D01*
X288135Y195613D01*
X288084Y195655D01*
X288040Y195703D01*
X287998Y195725D01*
X287961Y195754D01*
X287899Y195775D01*
X287840Y195806D01*
X287786Y195814D01*
X287749Y195826D01*
X287709Y195825D01*
X287655Y195833D01*
X285104Y195833D01*
X283183Y197754D01*
X283129Y197792D01*
X283081Y197837D01*
X283038Y197855D01*
X282999Y197882D01*
X282935Y197898D01*
X282875Y197924D01*
X282828Y197926D01*
X282782Y197938D01*
X282716Y197931D01*
X282651Y197934D01*
X282606Y197920D01*
X282559Y197915D01*
X282500Y197886D01*
X282437Y197865D01*
X282393Y197833D01*
X282358Y197815D01*
X282331Y197787D01*
X282286Y197754D01*
X280150Y195617D01*
X276532Y194119D01*
X272616Y194119D01*
X268998Y195617D01*
X267497Y197119D01*
X267443Y197157D01*
X267395Y197202D01*
X267351Y197220D01*
X267312Y197247D01*
X267249Y197263D01*
X267188Y197289D01*
X267141Y197291D01*
X267095Y197303D01*
X267030Y197296D01*
X266964Y197299D01*
X266919Y197285D01*
X266872Y197280D01*
X266813Y197251D01*
X266750Y197231D01*
X266706Y197198D01*
X266671Y197180D01*
X266644Y197152D01*
X266600Y197119D01*
X265314Y195833D01*
X261736Y195833D01*
X260450Y197119D01*
X260396Y197157D01*
X260348Y197202D01*
X260305Y197220D01*
X260266Y197247D01*
X260202Y197263D01*
X260142Y197289D01*
X260095Y197291D01*
X260049Y197303D01*
X259983Y197296D01*
X259918Y197299D01*
X259873Y197285D01*
X259826Y197280D01*
X259767Y197251D01*
X259704Y197230D01*
X259660Y197198D01*
X259625Y197180D01*
X259598Y197152D01*
X259553Y197119D01*
X258052Y195617D01*
X254434Y194119D01*
X250518Y194119D01*
X246900Y195617D01*
X244764Y197754D01*
X244710Y197792D01*
X244662Y197837D01*
X244618Y197855D01*
X244579Y197882D01*
X244516Y197898D01*
X244455Y197924D01*
X244408Y197926D01*
X244362Y197938D01*
X244297Y197931D01*
X244231Y197934D01*
X244186Y197920D01*
X244139Y197915D01*
X244080Y197886D01*
X244017Y197866D01*
X243973Y197833D01*
X243938Y197815D01*
X243911Y197787D01*
X243867Y197754D01*
X241946Y195833D01*
X238368Y195833D01*
X235722Y198480D01*
X235714Y198496D01*
X235697Y198512D01*
X235684Y198532D01*
X235615Y198588D01*
X235551Y198649D01*
X235529Y198659D01*
X235510Y198674D01*
X235426Y198702D01*
X235344Y198737D01*
X235320Y198738D01*
X235298Y198746D01*
X235209Y198743D01*
X235120Y198747D01*
X235097Y198740D01*
X235073Y198739D01*
X234991Y198705D01*
X234906Y198678D01*
X234885Y198663D01*
X234866Y198655D01*
X234828Y198621D01*
X234756Y198567D01*
X232812Y196623D01*
X229468Y196623D01*
X227103Y198988D01*
X227103Y202332D01*
X229468Y204697D01*
X232812Y204697D01*
X235255Y202254D01*
X235309Y202217D01*
X235357Y202171D01*
X235400Y202153D01*
X235439Y202126D01*
X235502Y202110D01*
X235563Y202084D01*
X235610Y202082D01*
X235656Y202070D01*
X235722Y202077D01*
X235787Y202074D01*
X235832Y202089D01*
X235879Y202093D01*
X235938Y202123D01*
X236001Y202143D01*
X236045Y202175D01*
X236080Y202193D01*
X236107Y202222D01*
X236152Y202254D01*
X238368Y204471D01*
X241999Y204471D01*
X242063Y204482D01*
X242129Y204484D01*
X242173Y204502D01*
X242219Y204510D01*
X242276Y204544D01*
X242337Y204569D01*
X242372Y204600D01*
X242413Y204625D01*
X242454Y204676D01*
X242503Y204720D01*
X242524Y204762D01*
X242554Y204799D01*
X242575Y204861D01*
X242605Y204920D01*
X242613Y204974D01*
X242626Y205011D01*
X242625Y205051D01*
X242633Y205105D01*
X242633Y205920D01*
X244131Y209538D01*
X246900Y212307D01*
X250518Y213805D01*
X254434Y213805D01*
X258052Y212307D01*
X260821Y209538D01*
X262319Y205920D01*
X262319Y205105D01*
X262331Y205040D01*
X262333Y204974D01*
X262351Y204931D01*
X262359Y204884D01*
X262392Y204827D01*
X262417Y204767D01*
X262449Y204732D01*
X262473Y204691D01*
X262524Y204649D01*
X262569Y204601D01*
X262611Y204579D01*
X262647Y204550D01*
X262709Y204529D01*
X262768Y204498D01*
X262823Y204490D01*
X262860Y204478D01*
X262899Y204479D01*
X262953Y204471D01*
X264097Y204471D01*
X264161Y204482D01*
X264227Y204484D01*
X264271Y204502D01*
X264317Y204510D01*
X264374Y204544D01*
X264435Y204569D01*
X264470Y204600D01*
X264511Y204625D01*
X264552Y204676D01*
X264601Y204720D01*
X264622Y204762D01*
X264652Y204799D01*
X264673Y204861D01*
X264703Y204920D01*
X264711Y204974D01*
X264724Y205011D01*
X264723Y205051D01*
X264731Y205105D01*
X264731Y205920D01*
X266229Y209538D01*
X268998Y212307D01*
X272616Y213805D01*
X276532Y213805D01*
X280150Y212307D01*
X282919Y209538D01*
X284417Y205920D01*
X284417Y205105D01*
X284429Y205040D01*
X284431Y204974D01*
X284449Y204931D01*
X284457Y204884D01*
X284490Y204827D01*
X284515Y204767D01*
X284547Y204732D01*
X284571Y204691D01*
X284622Y204649D01*
X284667Y204601D01*
X284709Y204579D01*
X284745Y204550D01*
X284807Y204529D01*
X284866Y204498D01*
X284921Y204490D01*
X284958Y204478D01*
X284997Y204479D01*
X285051Y204471D01*
X287655Y204471D01*
X287720Y204482D01*
X287786Y204484D01*
X287829Y204502D01*
X287876Y204510D01*
X287933Y204544D01*
X287993Y204569D01*
X288028Y204600D01*
X288069Y204625D01*
X288111Y204676D01*
X288159Y204720D01*
X288181Y204762D01*
X288210Y204799D01*
X288231Y204861D01*
X288262Y204920D01*
X288270Y204974D01*
X288282Y205011D01*
X288281Y205051D01*
X288289Y205105D01*
X288289Y300355D01*
X288278Y300420D01*
X288276Y300486D01*
X288258Y300529D01*
X288250Y300576D01*
X288216Y300633D01*
X288191Y300693D01*
X288160Y300728D01*
X288135Y300769D01*
X288084Y300811D01*
X288040Y300859D01*
X287998Y300881D01*
X287961Y300910D01*
X287899Y300931D01*
X287840Y300962D01*
X287786Y300970D01*
X287749Y300982D01*
X287709Y300981D01*
X287655Y300989D01*
X139700Y300989D01*
X139635Y300978D01*
X139569Y300976D01*
X139526Y300958D01*
X139479Y300950D01*
X139422Y300916D01*
X139362Y300891D01*
X139327Y300860D01*
X139286Y300835D01*
X139245Y300784D01*
X139196Y300740D01*
X139174Y300698D01*
X139145Y300661D01*
X139124Y300599D01*
X139093Y300540D01*
X139085Y300486D01*
X139073Y300449D01*
X139074Y300409D01*
X139066Y300355D01*
X139066Y4445D01*
X139077Y4380D01*
X139079Y4314D01*
X139097Y4271D01*
X139105Y4224D01*
X139139Y4167D01*
X139164Y4107D01*
X139195Y4072D01*
X139220Y4031D01*
X139271Y3989D01*
X139315Y3941D01*
X139357Y3919D01*
X139394Y3890D01*
X139456Y3869D01*
X139515Y3838D01*
X139569Y3830D01*
X139606Y3818D01*
X139646Y3819D01*
X139700Y3811D01*
X287655Y3811D01*
X287720Y3822D01*
G37*
G36*
X134685Y3822D02*
X134685Y3822D01*
X134751Y3824D01*
X134794Y3842D01*
X134841Y3850D01*
X134898Y3884D01*
X134958Y3909D01*
X134993Y3940D01*
X135034Y3965D01*
X135076Y4016D01*
X135124Y4060D01*
X135146Y4102D01*
X135175Y4139D01*
X135196Y4201D01*
X135227Y4260D01*
X135235Y4314D01*
X135247Y4351D01*
X135246Y4391D01*
X135254Y4445D01*
X135254Y300355D01*
X135243Y300420D01*
X135241Y300486D01*
X135223Y300529D01*
X135215Y300576D01*
X135181Y300633D01*
X135156Y300693D01*
X135125Y300728D01*
X135100Y300769D01*
X135049Y300811D01*
X135005Y300859D01*
X134963Y300881D01*
X134926Y300910D01*
X134864Y300931D01*
X134805Y300962D01*
X134751Y300970D01*
X134714Y300982D01*
X134674Y300981D01*
X134620Y300989D01*
X4445Y300989D01*
X4380Y300978D01*
X4314Y300976D01*
X4271Y300958D01*
X4224Y300950D01*
X4167Y300916D01*
X4107Y300891D01*
X4072Y300860D01*
X4031Y300835D01*
X3989Y300784D01*
X3941Y300740D01*
X3919Y300698D01*
X3890Y300661D01*
X3869Y300599D01*
X3838Y300540D01*
X3830Y300486D01*
X3818Y300449D01*
X3819Y300409D01*
X3811Y300355D01*
X3811Y133731D01*
X3822Y133666D01*
X3824Y133600D01*
X3842Y133557D01*
X3850Y133510D01*
X3884Y133453D01*
X3909Y133393D01*
X3940Y133358D01*
X3965Y133317D01*
X4016Y133275D01*
X4060Y133227D01*
X4102Y133205D01*
X4139Y133176D01*
X4201Y133155D01*
X4260Y133124D01*
X4314Y133116D01*
X4351Y133104D01*
X4391Y133105D01*
X4445Y133097D01*
X8607Y133097D01*
X8695Y133113D01*
X8783Y133122D01*
X8804Y133132D01*
X8828Y133136D01*
X8904Y133182D01*
X8984Y133221D01*
X9000Y133238D01*
X9021Y133251D01*
X9077Y133320D01*
X9138Y133384D01*
X9147Y133406D01*
X9162Y133425D01*
X9191Y133509D01*
X9225Y133591D01*
X9227Y133615D01*
X9234Y133637D01*
X9231Y133726D01*
X9235Y133815D01*
X9228Y133838D01*
X9227Y133862D01*
X9194Y133944D01*
X9167Y134029D01*
X9151Y134050D01*
X9143Y134069D01*
X9109Y134107D01*
X9055Y134179D01*
X7643Y135591D01*
X7643Y138729D01*
X9861Y140947D01*
X12999Y140947D01*
X15217Y138729D01*
X15217Y135591D01*
X13805Y134179D01*
X13754Y134106D01*
X13698Y134037D01*
X13690Y134015D01*
X13677Y133995D01*
X13654Y133909D01*
X13626Y133825D01*
X13627Y133801D01*
X13621Y133778D01*
X13630Y133689D01*
X13633Y133600D01*
X13641Y133578D01*
X13644Y133555D01*
X13683Y133475D01*
X13717Y133393D01*
X13733Y133375D01*
X13743Y133354D01*
X13808Y133293D01*
X13868Y133227D01*
X13889Y133216D01*
X13907Y133200D01*
X13989Y133165D01*
X14068Y133124D01*
X14094Y133121D01*
X14113Y133112D01*
X14164Y133110D01*
X14253Y133097D01*
X21307Y133097D01*
X21395Y133113D01*
X21483Y133122D01*
X21504Y133132D01*
X21528Y133136D01*
X21604Y133182D01*
X21684Y133221D01*
X21700Y133238D01*
X21721Y133251D01*
X21777Y133320D01*
X21838Y133384D01*
X21847Y133406D01*
X21862Y133425D01*
X21891Y133509D01*
X21925Y133591D01*
X21927Y133615D01*
X21934Y133637D01*
X21931Y133726D01*
X21935Y133815D01*
X21928Y133838D01*
X21927Y133862D01*
X21894Y133944D01*
X21867Y134029D01*
X21851Y134050D01*
X21843Y134069D01*
X21809Y134107D01*
X21755Y134179D01*
X20343Y135591D01*
X20343Y138729D01*
X22561Y140947D01*
X25699Y140947D01*
X27917Y138729D01*
X27917Y135591D01*
X26505Y134179D01*
X26454Y134106D01*
X26398Y134037D01*
X26390Y134015D01*
X26377Y133995D01*
X26354Y133909D01*
X26326Y133825D01*
X26327Y133801D01*
X26321Y133778D01*
X26330Y133689D01*
X26333Y133600D01*
X26341Y133578D01*
X26344Y133555D01*
X26383Y133475D01*
X26417Y133393D01*
X26433Y133375D01*
X26443Y133354D01*
X26508Y133293D01*
X26568Y133227D01*
X26589Y133216D01*
X26607Y133200D01*
X26689Y133165D01*
X26768Y133124D01*
X26794Y133121D01*
X26813Y133112D01*
X26864Y133110D01*
X26953Y133097D01*
X34007Y133097D01*
X34095Y133113D01*
X34183Y133122D01*
X34204Y133132D01*
X34228Y133136D01*
X34304Y133182D01*
X34384Y133221D01*
X34400Y133238D01*
X34421Y133251D01*
X34477Y133320D01*
X34538Y133384D01*
X34547Y133406D01*
X34562Y133425D01*
X34591Y133509D01*
X34625Y133591D01*
X34627Y133615D01*
X34634Y133637D01*
X34631Y133726D01*
X34635Y133815D01*
X34628Y133838D01*
X34627Y133862D01*
X34594Y133944D01*
X34567Y134029D01*
X34551Y134050D01*
X34543Y134069D01*
X34509Y134107D01*
X34455Y134179D01*
X33043Y135591D01*
X33043Y138729D01*
X35261Y140947D01*
X38399Y140947D01*
X40617Y138729D01*
X40617Y135591D01*
X39205Y134179D01*
X39154Y134106D01*
X39098Y134037D01*
X39090Y134015D01*
X39077Y133995D01*
X39054Y133909D01*
X39026Y133825D01*
X39027Y133801D01*
X39021Y133778D01*
X39030Y133689D01*
X39033Y133600D01*
X39041Y133578D01*
X39044Y133555D01*
X39083Y133475D01*
X39117Y133393D01*
X39133Y133375D01*
X39143Y133354D01*
X39208Y133293D01*
X39268Y133227D01*
X39289Y133216D01*
X39307Y133200D01*
X39389Y133165D01*
X39468Y133124D01*
X39494Y133121D01*
X39513Y133112D01*
X39564Y133110D01*
X39653Y133097D01*
X45720Y133097D01*
X45721Y133096D01*
X45721Y108205D01*
X45721Y108204D01*
X45721Y108203D01*
X45720Y108203D01*
X45719Y108203D01*
X39683Y108170D01*
X39597Y108154D01*
X39511Y108145D01*
X39488Y108133D01*
X39463Y108129D01*
X39387Y108084D01*
X39309Y108045D01*
X39292Y108027D01*
X39270Y108014D01*
X39215Y107945D01*
X39156Y107882D01*
X39146Y107859D01*
X39130Y107839D01*
X39102Y107756D01*
X39068Y107675D01*
X39067Y107650D01*
X39059Y107626D01*
X39062Y107538D01*
X39058Y107451D01*
X39066Y107427D01*
X39067Y107401D01*
X39100Y107321D01*
X39127Y107238D01*
X39144Y107215D01*
X39152Y107194D01*
X39186Y107157D01*
X39238Y107087D01*
X40617Y105709D01*
X40617Y102571D01*
X38399Y100353D01*
X35261Y100353D01*
X33043Y102571D01*
X33043Y105709D01*
X34390Y107055D01*
X34442Y107130D01*
X34498Y107200D01*
X34505Y107221D01*
X34518Y107239D01*
X34541Y107327D01*
X34569Y107413D01*
X34568Y107435D01*
X34574Y107457D01*
X34565Y107547D01*
X34561Y107638D01*
X34553Y107658D01*
X34551Y107680D01*
X34510Y107761D01*
X34476Y107845D01*
X34461Y107861D01*
X34451Y107881D01*
X34385Y107943D01*
X34324Y108010D01*
X34304Y108020D01*
X34288Y108035D01*
X34204Y108070D01*
X34123Y108111D01*
X34099Y108115D01*
X34081Y108122D01*
X34031Y108124D01*
X33938Y108138D01*
X27053Y108100D01*
X26967Y108084D01*
X26881Y108075D01*
X26858Y108063D01*
X26833Y108059D01*
X26758Y108014D01*
X26680Y107975D01*
X26662Y107957D01*
X26640Y107943D01*
X26585Y107875D01*
X26526Y107812D01*
X26516Y107788D01*
X26500Y107769D01*
X26472Y107686D01*
X26438Y107605D01*
X26437Y107580D01*
X26429Y107556D01*
X26432Y107468D01*
X26428Y107381D01*
X26436Y107357D01*
X26437Y107331D01*
X26470Y107250D01*
X26497Y107168D01*
X26514Y107145D01*
X26522Y107124D01*
X26556Y107087D01*
X26608Y107017D01*
X27917Y105709D01*
X27917Y102571D01*
X25699Y100353D01*
X22561Y100353D01*
X20343Y102571D01*
X20343Y105709D01*
X21619Y106984D01*
X21671Y107059D01*
X21728Y107129D01*
X21734Y107150D01*
X21747Y107168D01*
X21770Y107256D01*
X21798Y107342D01*
X21797Y107364D01*
X21803Y107386D01*
X21794Y107475D01*
X21790Y107567D01*
X21782Y107587D01*
X21780Y107609D01*
X21740Y107690D01*
X21705Y107774D01*
X21690Y107790D01*
X21680Y107810D01*
X21614Y107872D01*
X21553Y107939D01*
X21533Y107949D01*
X21517Y107964D01*
X21433Y107999D01*
X21352Y108040D01*
X21328Y108044D01*
X21310Y108051D01*
X21260Y108054D01*
X21167Y108067D01*
X14423Y108029D01*
X14337Y108013D01*
X14251Y108004D01*
X14228Y107993D01*
X14203Y107989D01*
X14128Y107944D01*
X14050Y107905D01*
X14032Y107886D01*
X14010Y107873D01*
X13956Y107805D01*
X13896Y107742D01*
X13886Y107718D01*
X13870Y107698D01*
X13842Y107615D01*
X13808Y107535D01*
X13807Y107510D01*
X13799Y107485D01*
X13802Y107398D01*
X13798Y107311D01*
X13806Y107287D01*
X13807Y107261D01*
X13840Y107180D01*
X13867Y107097D01*
X13884Y107074D01*
X13893Y107054D01*
X13927Y107017D01*
X13979Y106947D01*
X15217Y105709D01*
X15217Y102571D01*
X12999Y100353D01*
X9861Y100353D01*
X7643Y102571D01*
X7643Y105709D01*
X8848Y106913D01*
X8900Y106988D01*
X8957Y107059D01*
X8964Y107079D01*
X8976Y107097D01*
X8999Y107185D01*
X9027Y107271D01*
X9027Y107293D01*
X9032Y107315D01*
X9023Y107405D01*
X9019Y107496D01*
X9011Y107516D01*
X9009Y107538D01*
X8969Y107619D01*
X8934Y107703D01*
X8919Y107719D01*
X8909Y107739D01*
X8843Y107801D01*
X8782Y107868D01*
X8762Y107878D01*
X8746Y107893D01*
X8662Y107928D01*
X8582Y107969D01*
X8557Y107973D01*
X8539Y107980D01*
X8489Y107983D01*
X8396Y107996D01*
X4441Y107974D01*
X4378Y107962D01*
X4314Y107960D01*
X4269Y107942D01*
X4221Y107933D01*
X4166Y107900D01*
X4107Y107876D01*
X4070Y107843D01*
X4028Y107818D01*
X3988Y107768D01*
X3941Y107725D01*
X3919Y107681D01*
X3888Y107643D01*
X3868Y107582D01*
X3838Y107525D01*
X3830Y107469D01*
X3817Y107430D01*
X3819Y107392D01*
X3811Y107340D01*
X3811Y4445D01*
X3822Y4380D01*
X3824Y4314D01*
X3842Y4271D01*
X3850Y4224D01*
X3884Y4167D01*
X3909Y4107D01*
X3940Y4072D01*
X3965Y4031D01*
X4016Y3989D01*
X4060Y3941D01*
X4102Y3919D01*
X4139Y3890D01*
X4201Y3869D01*
X4260Y3838D01*
X4314Y3830D01*
X4351Y3818D01*
X4391Y3819D01*
X4445Y3811D01*
X134620Y3811D01*
X134685Y3822D01*
G37*
%LPC*%
G36*
X115168Y73433D02*
X115168Y73433D01*
X112803Y75798D01*
X112803Y77623D01*
X112787Y77711D01*
X112778Y77799D01*
X112768Y77821D01*
X112764Y77844D01*
X112718Y77921D01*
X112679Y78001D01*
X112662Y78017D01*
X112649Y78037D01*
X112580Y78093D01*
X112516Y78154D01*
X112494Y78164D01*
X112475Y78179D01*
X112391Y78207D01*
X112309Y78242D01*
X112285Y78243D01*
X112263Y78251D01*
X112174Y78248D01*
X112085Y78252D01*
X112062Y78245D01*
X112038Y78244D01*
X111956Y78210D01*
X111871Y78183D01*
X111850Y78168D01*
X111831Y78160D01*
X111793Y78126D01*
X111721Y78072D01*
X109622Y75973D01*
X106278Y75973D01*
X103913Y78338D01*
X103913Y81682D01*
X104968Y82737D01*
X105005Y82791D01*
X105050Y82838D01*
X105069Y82882D01*
X105096Y82921D01*
X105112Y82984D01*
X105138Y83045D01*
X105140Y83092D01*
X105152Y83138D01*
X105145Y83203D01*
X105148Y83269D01*
X105133Y83314D01*
X105129Y83361D01*
X105099Y83420D01*
X105079Y83483D01*
X105047Y83527D01*
X105029Y83562D01*
X105000Y83589D01*
X104968Y83634D01*
X103913Y84688D01*
X103913Y88032D01*
X106278Y90397D01*
X109622Y90397D01*
X111987Y88032D01*
X111987Y84688D01*
X110932Y83634D01*
X110895Y83579D01*
X110850Y83532D01*
X110831Y83488D01*
X110804Y83449D01*
X110788Y83386D01*
X110762Y83325D01*
X110760Y83278D01*
X110748Y83232D01*
X110755Y83167D01*
X110752Y83101D01*
X110767Y83056D01*
X110771Y83009D01*
X110801Y82950D01*
X110821Y82887D01*
X110853Y82843D01*
X110871Y82808D01*
X110900Y82781D01*
X110932Y82737D01*
X111987Y81682D01*
X111987Y79857D01*
X112003Y79769D01*
X112012Y79681D01*
X112022Y79659D01*
X112026Y79636D01*
X112072Y79559D01*
X112111Y79479D01*
X112128Y79463D01*
X112141Y79443D01*
X112210Y79387D01*
X112274Y79326D01*
X112296Y79316D01*
X112315Y79301D01*
X112399Y79273D01*
X112481Y79238D01*
X112505Y79237D01*
X112527Y79229D01*
X112616Y79232D01*
X112705Y79228D01*
X112728Y79235D01*
X112752Y79236D01*
X112834Y79270D01*
X112919Y79297D01*
X112940Y79312D01*
X112959Y79320D01*
X112997Y79354D01*
X113069Y79408D01*
X115168Y81507D01*
X118512Y81507D01*
X120837Y79182D01*
X120891Y79145D01*
X120938Y79100D01*
X120982Y79081D01*
X121021Y79054D01*
X121084Y79038D01*
X121145Y79012D01*
X121192Y79010D01*
X121238Y78998D01*
X121303Y79005D01*
X121369Y79002D01*
X121414Y79017D01*
X121461Y79021D01*
X121520Y79051D01*
X121583Y79071D01*
X121627Y79103D01*
X121662Y79121D01*
X121689Y79150D01*
X121734Y79182D01*
X122748Y80197D01*
X122785Y80251D01*
X122830Y80298D01*
X122849Y80342D01*
X122876Y80381D01*
X122892Y80444D01*
X122918Y80505D01*
X122920Y80552D01*
X122932Y80598D01*
X122925Y80663D01*
X122928Y80729D01*
X122913Y80774D01*
X122909Y80821D01*
X122879Y80880D01*
X122859Y80943D01*
X122826Y80987D01*
X122809Y81022D01*
X122780Y81049D01*
X122748Y81094D01*
X121693Y82148D01*
X121693Y85492D01*
X124058Y87857D01*
X127402Y87857D01*
X129767Y85492D01*
X129767Y82148D01*
X128712Y81094D01*
X128675Y81039D01*
X128630Y80992D01*
X128611Y80948D01*
X128584Y80909D01*
X128568Y80846D01*
X128542Y80785D01*
X128540Y80738D01*
X128528Y80692D01*
X128535Y80627D01*
X128532Y80561D01*
X128547Y80516D01*
X128551Y80469D01*
X128581Y80410D01*
X128601Y80347D01*
X128633Y80303D01*
X128651Y80268D01*
X128680Y80241D01*
X128712Y80197D01*
X129767Y79142D01*
X129767Y75798D01*
X127402Y73433D01*
X124058Y73433D01*
X121734Y75758D01*
X121679Y75795D01*
X121632Y75840D01*
X121588Y75859D01*
X121549Y75886D01*
X121486Y75902D01*
X121425Y75928D01*
X121378Y75930D01*
X121332Y75942D01*
X121267Y75935D01*
X121201Y75938D01*
X121156Y75923D01*
X121109Y75919D01*
X121050Y75889D01*
X120987Y75869D01*
X120943Y75837D01*
X120908Y75819D01*
X120881Y75790D01*
X120837Y75758D01*
X118512Y73433D01*
X115168Y73433D01*
G37*
%LPD*%
%LPC*%
G36*
X195105Y238879D02*
X195105Y238879D01*
X191882Y240215D01*
X189415Y242682D01*
X188079Y245905D01*
X188079Y249395D01*
X189415Y252618D01*
X191882Y255085D01*
X195105Y256421D01*
X198595Y256421D01*
X201818Y255085D01*
X204285Y252618D01*
X205621Y249395D01*
X205621Y245905D01*
X204285Y242682D01*
X201818Y240215D01*
X198595Y238879D01*
X195105Y238879D01*
G37*
%LPD*%
%LPC*%
G36*
X105008Y136933D02*
X105008Y136933D01*
X102643Y139298D01*
X102643Y142642D01*
X104968Y144966D01*
X105005Y145021D01*
X105050Y145068D01*
X105069Y145112D01*
X105096Y145151D01*
X105112Y145214D01*
X105138Y145275D01*
X105140Y145322D01*
X105152Y145368D01*
X105145Y145433D01*
X105148Y145499D01*
X105133Y145544D01*
X105129Y145591D01*
X105099Y145650D01*
X105079Y145713D01*
X105047Y145757D01*
X105029Y145792D01*
X105000Y145819D01*
X104968Y145863D01*
X103913Y146918D01*
X103913Y150262D01*
X104968Y151316D01*
X105005Y151371D01*
X105050Y151418D01*
X105069Y151462D01*
X105096Y151501D01*
X105112Y151564D01*
X105138Y151625D01*
X105140Y151672D01*
X105152Y151718D01*
X105145Y151783D01*
X105148Y151849D01*
X105133Y151894D01*
X105129Y151941D01*
X105099Y152000D01*
X105079Y152063D01*
X105047Y152107D01*
X105029Y152142D01*
X105000Y152169D01*
X104968Y152213D01*
X103913Y153268D01*
X103913Y156612D01*
X106278Y158977D01*
X109622Y158977D01*
X110451Y158148D01*
X110524Y158097D01*
X110593Y158041D01*
X110615Y158034D01*
X110635Y158020D01*
X110721Y157998D01*
X110805Y157969D01*
X110829Y157970D01*
X110852Y157964D01*
X110941Y157973D01*
X111030Y157976D01*
X111052Y157985D01*
X111075Y157987D01*
X111155Y158027D01*
X111237Y158060D01*
X111255Y158076D01*
X111276Y158087D01*
X111337Y158152D01*
X111403Y158212D01*
X111414Y158233D01*
X111430Y158250D01*
X111465Y158332D01*
X111506Y158411D01*
X111509Y158438D01*
X111518Y158457D01*
X111520Y158507D01*
X111533Y158597D01*
X111533Y160422D01*
X113898Y162787D01*
X117242Y162787D01*
X119607Y160422D01*
X119607Y157078D01*
X117242Y154713D01*
X113898Y154713D01*
X113069Y155542D01*
X112996Y155593D01*
X112927Y155649D01*
X112905Y155656D01*
X112885Y155670D01*
X112799Y155692D01*
X112715Y155721D01*
X112691Y155720D01*
X112668Y155726D01*
X112579Y155717D01*
X112490Y155714D01*
X112468Y155705D01*
X112445Y155703D01*
X112365Y155663D01*
X112283Y155630D01*
X112265Y155614D01*
X112244Y155603D01*
X112183Y155538D01*
X112117Y155478D01*
X112106Y155457D01*
X112090Y155440D01*
X112055Y155358D01*
X112014Y155279D01*
X112011Y155252D01*
X112002Y155233D01*
X112000Y155183D01*
X111987Y155093D01*
X111987Y153268D01*
X110932Y152213D01*
X110895Y152159D01*
X110850Y152112D01*
X110831Y152068D01*
X110804Y152029D01*
X110788Y151966D01*
X110762Y151905D01*
X110760Y151858D01*
X110748Y151812D01*
X110755Y151747D01*
X110752Y151681D01*
X110767Y151636D01*
X110771Y151589D01*
X110801Y151530D01*
X110821Y151467D01*
X110853Y151423D01*
X110871Y151388D01*
X110900Y151361D01*
X110932Y151316D01*
X111987Y150262D01*
X111987Y146918D01*
X109662Y144593D01*
X109625Y144539D01*
X109580Y144492D01*
X109561Y144448D01*
X109534Y144409D01*
X109518Y144346D01*
X109492Y144285D01*
X109490Y144238D01*
X109478Y144192D01*
X109485Y144127D01*
X109482Y144061D01*
X109497Y144016D01*
X109501Y143969D01*
X109531Y143910D01*
X109551Y143847D01*
X109583Y143803D01*
X109601Y143768D01*
X109630Y143741D01*
X109662Y143696D01*
X110717Y142642D01*
X110717Y139298D01*
X108352Y136933D01*
X105008Y136933D01*
G37*
%LPD*%
%LPC*%
G36*
X94848Y136933D02*
X94848Y136933D01*
X92483Y139298D01*
X92483Y142642D01*
X93538Y143696D01*
X93575Y143751D01*
X93620Y143798D01*
X93639Y143842D01*
X93666Y143881D01*
X93682Y143944D01*
X93708Y144005D01*
X93710Y144052D01*
X93722Y144098D01*
X93715Y144163D01*
X93718Y144229D01*
X93703Y144274D01*
X93699Y144321D01*
X93669Y144380D01*
X93649Y144443D01*
X93617Y144487D01*
X93599Y144522D01*
X93570Y144549D01*
X93538Y144593D01*
X91213Y146918D01*
X91213Y147729D01*
X91202Y147794D01*
X91200Y147860D01*
X91182Y147903D01*
X91174Y147950D01*
X91140Y148007D01*
X91115Y148067D01*
X91084Y148102D01*
X91059Y148143D01*
X91008Y148185D01*
X90964Y148233D01*
X90922Y148255D01*
X90885Y148284D01*
X90823Y148305D01*
X90764Y148336D01*
X90710Y148344D01*
X90673Y148356D01*
X90633Y148355D01*
X90579Y148363D01*
X87228Y148363D01*
X84863Y150728D01*
X84863Y154072D01*
X87228Y156437D01*
X90572Y156437D01*
X92937Y154072D01*
X92937Y153261D01*
X92948Y153196D01*
X92950Y153130D01*
X92968Y153087D01*
X92976Y153040D01*
X93010Y152983D01*
X93035Y152923D01*
X93066Y152888D01*
X93091Y152847D01*
X93142Y152805D01*
X93186Y152757D01*
X93228Y152735D01*
X93265Y152706D01*
X93327Y152685D01*
X93386Y152654D01*
X93440Y152646D01*
X93477Y152634D01*
X93517Y152635D01*
X93571Y152627D01*
X96922Y152627D01*
X99287Y150262D01*
X99287Y146918D01*
X98232Y145863D01*
X98195Y145809D01*
X98150Y145762D01*
X98131Y145718D01*
X98104Y145679D01*
X98088Y145616D01*
X98062Y145555D01*
X98060Y145508D01*
X98048Y145462D01*
X98055Y145397D01*
X98052Y145331D01*
X98067Y145286D01*
X98071Y145239D01*
X98101Y145180D01*
X98121Y145117D01*
X98153Y145073D01*
X98171Y145038D01*
X98200Y145011D01*
X98232Y144966D01*
X100557Y142642D01*
X100557Y139298D01*
X98192Y136933D01*
X94848Y136933D01*
G37*
%LPD*%
%LPC*%
G36*
X79608Y224563D02*
X79608Y224563D01*
X77243Y226928D01*
X77243Y230272D01*
X79608Y232637D01*
X82952Y232637D01*
X85277Y230312D01*
X85331Y230275D01*
X85378Y230230D01*
X85422Y230211D01*
X85461Y230184D01*
X85524Y230168D01*
X85585Y230142D01*
X85632Y230140D01*
X85678Y230128D01*
X85743Y230135D01*
X85809Y230132D01*
X85854Y230147D01*
X85901Y230151D01*
X85960Y230181D01*
X86023Y230201D01*
X86067Y230233D01*
X86102Y230251D01*
X86129Y230280D01*
X86174Y230312D01*
X88498Y232637D01*
X91842Y232637D01*
X94207Y230272D01*
X94207Y226928D01*
X91842Y224563D01*
X88498Y224563D01*
X86174Y226888D01*
X86140Y226911D01*
X86117Y226937D01*
X86097Y226947D01*
X86072Y226970D01*
X86028Y226989D01*
X85989Y227016D01*
X85935Y227030D01*
X85917Y227039D01*
X85905Y227041D01*
X85865Y227058D01*
X85818Y227060D01*
X85772Y227072D01*
X85724Y227067D01*
X85718Y227067D01*
X85710Y227065D01*
X85707Y227065D01*
X85641Y227068D01*
X85596Y227053D01*
X85549Y227049D01*
X85510Y227029D01*
X85497Y227027D01*
X85478Y227016D01*
X85427Y226999D01*
X85383Y226967D01*
X85348Y226949D01*
X85326Y226926D01*
X85304Y226913D01*
X85295Y226901D01*
X85277Y226888D01*
X82952Y224563D01*
X79608Y224563D01*
G37*
%LPD*%
%LPC*%
G36*
X75798Y128043D02*
X75798Y128043D01*
X73433Y130408D01*
X73433Y133752D01*
X75798Y136117D01*
X79142Y136117D01*
X80832Y134427D01*
X80886Y134390D01*
X80933Y134345D01*
X80977Y134326D01*
X81016Y134299D01*
X81079Y134283D01*
X81140Y134257D01*
X81187Y134255D01*
X81233Y134243D01*
X81298Y134250D01*
X81364Y134247D01*
X81409Y134262D01*
X81456Y134266D01*
X81515Y134296D01*
X81578Y134316D01*
X81622Y134348D01*
X81657Y134366D01*
X81684Y134395D01*
X81729Y134427D01*
X83418Y136117D01*
X86762Y136117D01*
X89127Y133752D01*
X89127Y130408D01*
X86762Y128043D01*
X83418Y128043D01*
X81729Y129733D01*
X81674Y129770D01*
X81627Y129815D01*
X81583Y129834D01*
X81544Y129861D01*
X81481Y129877D01*
X81420Y129903D01*
X81373Y129905D01*
X81327Y129917D01*
X81262Y129910D01*
X81196Y129913D01*
X81151Y129898D01*
X81104Y129894D01*
X81045Y129864D01*
X80982Y129844D01*
X80938Y129812D01*
X80903Y129794D01*
X80876Y129765D01*
X80832Y129733D01*
X79142Y128043D01*
X75798Y128043D01*
G37*
%LPD*%
%LPC*%
G36*
X168508Y110263D02*
X168508Y110263D01*
X166143Y112628D01*
X166143Y115972D01*
X167833Y117662D01*
X167870Y117716D01*
X167915Y117763D01*
X167934Y117807D01*
X167961Y117846D01*
X167977Y117909D01*
X168003Y117970D01*
X168005Y118017D01*
X168017Y118063D01*
X168010Y118128D01*
X168013Y118194D01*
X167998Y118239D01*
X167994Y118286D01*
X167964Y118345D01*
X167944Y118408D01*
X167912Y118452D01*
X167894Y118487D01*
X167865Y118514D01*
X167833Y118559D01*
X166143Y120248D01*
X166143Y123592D01*
X168508Y125957D01*
X171852Y125957D01*
X174217Y123592D01*
X174217Y120248D01*
X172527Y118559D01*
X172490Y118504D01*
X172445Y118457D01*
X172426Y118413D01*
X172399Y118374D01*
X172383Y118311D01*
X172357Y118250D01*
X172355Y118203D01*
X172343Y118157D01*
X172350Y118092D01*
X172347Y118026D01*
X172362Y117981D01*
X172366Y117934D01*
X172396Y117875D01*
X172416Y117812D01*
X172448Y117768D01*
X172466Y117733D01*
X172495Y117706D01*
X172527Y117662D01*
X174217Y115972D01*
X174217Y112628D01*
X171852Y110263D01*
X168508Y110263D01*
G37*
%LPD*%
%LPC*%
G36*
X71988Y73433D02*
X71988Y73433D01*
X69623Y75798D01*
X69623Y79142D01*
X71988Y81507D01*
X75332Y81507D01*
X77021Y79817D01*
X77076Y79780D01*
X77123Y79735D01*
X77167Y79716D01*
X77206Y79689D01*
X77269Y79673D01*
X77330Y79647D01*
X77377Y79645D01*
X77423Y79633D01*
X77488Y79640D01*
X77554Y79637D01*
X77599Y79652D01*
X77646Y79656D01*
X77705Y79686D01*
X77768Y79706D01*
X77812Y79738D01*
X77847Y79756D01*
X77874Y79785D01*
X77918Y79817D01*
X79608Y81507D01*
X82952Y81507D01*
X85317Y79142D01*
X85317Y75798D01*
X82952Y73433D01*
X79608Y73433D01*
X77918Y75123D01*
X77864Y75160D01*
X77817Y75205D01*
X77773Y75224D01*
X77734Y75251D01*
X77671Y75267D01*
X77610Y75293D01*
X77563Y75295D01*
X77517Y75307D01*
X77452Y75300D01*
X77386Y75303D01*
X77341Y75288D01*
X77294Y75284D01*
X77235Y75254D01*
X77172Y75234D01*
X77128Y75202D01*
X77093Y75184D01*
X77066Y75155D01*
X77021Y75123D01*
X75332Y73433D01*
X71988Y73433D01*
G37*
%LPD*%
%LPC*%
G36*
X49128Y65813D02*
X49128Y65813D01*
X46763Y68178D01*
X46763Y71522D01*
X49128Y73887D01*
X52472Y73887D01*
X54161Y72197D01*
X54216Y72160D01*
X54263Y72115D01*
X54307Y72096D01*
X54346Y72069D01*
X54409Y72053D01*
X54470Y72027D01*
X54517Y72025D01*
X54563Y72013D01*
X54628Y72020D01*
X54694Y72017D01*
X54739Y72032D01*
X54786Y72036D01*
X54845Y72066D01*
X54908Y72086D01*
X54952Y72118D01*
X54987Y72136D01*
X55014Y72165D01*
X55058Y72197D01*
X56748Y73887D01*
X60092Y73887D01*
X62457Y71522D01*
X62457Y68178D01*
X60092Y65813D01*
X56748Y65813D01*
X55058Y67503D01*
X55004Y67540D01*
X54957Y67585D01*
X54913Y67604D01*
X54874Y67631D01*
X54811Y67647D01*
X54750Y67673D01*
X54703Y67675D01*
X54657Y67687D01*
X54592Y67680D01*
X54526Y67683D01*
X54481Y67668D01*
X54434Y67664D01*
X54375Y67634D01*
X54312Y67614D01*
X54268Y67582D01*
X54233Y67564D01*
X54206Y67535D01*
X54161Y67503D01*
X52472Y65813D01*
X49128Y65813D01*
G37*
%LPD*%
%LPC*%
G36*
X74528Y157253D02*
X74528Y157253D01*
X72163Y159618D01*
X72163Y162962D01*
X74528Y165327D01*
X77872Y165327D01*
X78926Y164272D01*
X78981Y164235D01*
X79028Y164190D01*
X79072Y164171D01*
X79111Y164144D01*
X79174Y164128D01*
X79235Y164102D01*
X79282Y164100D01*
X79328Y164088D01*
X79393Y164095D01*
X79459Y164092D01*
X79504Y164107D01*
X79551Y164111D01*
X79610Y164141D01*
X79673Y164161D01*
X79717Y164193D01*
X79752Y164211D01*
X79779Y164240D01*
X79823Y164272D01*
X80878Y165327D01*
X84222Y165327D01*
X86587Y162962D01*
X86587Y159618D01*
X84222Y157253D01*
X80878Y157253D01*
X79823Y158308D01*
X79769Y158345D01*
X79722Y158390D01*
X79678Y158409D01*
X79639Y158436D01*
X79576Y158452D01*
X79515Y158478D01*
X79468Y158480D01*
X79422Y158492D01*
X79357Y158485D01*
X79291Y158488D01*
X79246Y158473D01*
X79199Y158469D01*
X79140Y158439D01*
X79077Y158419D01*
X79033Y158387D01*
X78998Y158369D01*
X78971Y158340D01*
X78926Y158308D01*
X77872Y157253D01*
X74528Y157253D01*
G37*
%LPD*%
%LPC*%
G36*
X124058Y149633D02*
X124058Y149633D01*
X121693Y151998D01*
X121693Y155342D01*
X122748Y156397D01*
X122785Y156451D01*
X122830Y156498D01*
X122849Y156542D01*
X122876Y156581D01*
X122892Y156644D01*
X122918Y156705D01*
X122920Y156752D01*
X122932Y156798D01*
X122925Y156863D01*
X122928Y156929D01*
X122913Y156974D01*
X122909Y157021D01*
X122879Y157080D01*
X122859Y157143D01*
X122827Y157187D01*
X122809Y157222D01*
X122780Y157249D01*
X122748Y157294D01*
X121693Y158348D01*
X121693Y161692D01*
X124058Y164057D01*
X127402Y164057D01*
X129767Y161692D01*
X129767Y158348D01*
X128712Y157294D01*
X128675Y157239D01*
X128630Y157192D01*
X128611Y157148D01*
X128584Y157109D01*
X128568Y157046D01*
X128542Y156985D01*
X128540Y156938D01*
X128528Y156892D01*
X128535Y156827D01*
X128532Y156761D01*
X128547Y156716D01*
X128551Y156669D01*
X128581Y156610D01*
X128601Y156547D01*
X128633Y156503D01*
X128651Y156468D01*
X128680Y156441D01*
X128712Y156397D01*
X129767Y155342D01*
X129767Y151998D01*
X127402Y149633D01*
X124058Y149633D01*
G37*
%LPD*%
%LPC*%
G36*
X85958Y26443D02*
X85958Y26443D01*
X83593Y28808D01*
X83593Y32152D01*
X85958Y34517D01*
X89302Y34517D01*
X91667Y32152D01*
X91667Y28808D01*
X89302Y26443D01*
X85958Y26443D01*
G37*
%LPD*%
%LPC*%
G36*
X193908Y56923D02*
X193908Y56923D01*
X191543Y59288D01*
X191543Y62632D01*
X193908Y64997D01*
X197252Y64997D01*
X199617Y62632D01*
X199617Y59288D01*
X197252Y56923D01*
X193908Y56923D01*
G37*
%LPD*%
%LPC*%
G36*
X63098Y126773D02*
X63098Y126773D01*
X60733Y129138D01*
X60733Y132482D01*
X63098Y134847D01*
X66442Y134847D01*
X68807Y132482D01*
X68807Y129138D01*
X66442Y126773D01*
X63098Y126773D01*
G37*
%LPD*%
%LPC*%
G36*
X50398Y126773D02*
X50398Y126773D01*
X48033Y129138D01*
X48033Y132482D01*
X50398Y134847D01*
X53742Y134847D01*
X56107Y132482D01*
X56107Y129138D01*
X53742Y126773D01*
X50398Y126773D01*
G37*
%LPD*%
%LPC*%
G36*
X146918Y124233D02*
X146918Y124233D01*
X144553Y126598D01*
X144553Y129942D01*
X146918Y132307D01*
X150262Y132307D01*
X152627Y129942D01*
X152627Y126598D01*
X150262Y124233D01*
X146918Y124233D01*
G37*
%LPD*%
%LPC*%
G36*
X218038Y32793D02*
X218038Y32793D01*
X215673Y35158D01*
X215673Y38502D01*
X218038Y40867D01*
X221382Y40867D01*
X223747Y38502D01*
X223747Y35158D01*
X221382Y32793D01*
X218038Y32793D01*
G37*
%LPD*%
%LPC*%
G36*
X206608Y44223D02*
X206608Y44223D01*
X204243Y46588D01*
X204243Y49932D01*
X206608Y52297D01*
X209952Y52297D01*
X212317Y49932D01*
X212317Y46588D01*
X209952Y44223D01*
X206608Y44223D01*
G37*
%LPD*%
%LPC*%
G36*
X94848Y46763D02*
X94848Y46763D01*
X92483Y49128D01*
X92483Y52472D01*
X94848Y54837D01*
X98192Y54837D01*
X100557Y52472D01*
X100557Y49128D01*
X98192Y46763D01*
X94848Y46763D01*
G37*
%LPD*%
%LPC*%
G36*
X158348Y114073D02*
X158348Y114073D01*
X155983Y116438D01*
X155983Y119782D01*
X158348Y122147D01*
X161692Y122147D01*
X164057Y119782D01*
X164057Y116438D01*
X161692Y114073D01*
X158348Y114073D01*
G37*
%LPD*%
%LPC*%
G36*
X50398Y108993D02*
X50398Y108993D01*
X48033Y111358D01*
X48033Y114702D01*
X50398Y117067D01*
X53742Y117067D01*
X56107Y114702D01*
X56107Y111358D01*
X53742Y108993D01*
X50398Y108993D01*
G37*
%LPD*%
%LPC*%
G36*
X63098Y108993D02*
X63098Y108993D01*
X60733Y111358D01*
X60733Y114702D01*
X63098Y117067D01*
X66442Y117067D01*
X68807Y114702D01*
X68807Y111358D01*
X66442Y108993D01*
X63098Y108993D01*
G37*
%LPD*%
%LPC*%
G36*
X146918Y103913D02*
X146918Y103913D01*
X144553Y106278D01*
X144553Y109622D01*
X146918Y111987D01*
X150262Y111987D01*
X152627Y109622D01*
X152627Y106278D01*
X150262Y103913D01*
X146918Y103913D01*
G37*
%LPD*%
%LPC*%
G36*
X181208Y96293D02*
X181208Y96293D01*
X178843Y98658D01*
X178843Y102002D01*
X181208Y104367D01*
X184552Y104367D01*
X186917Y102002D01*
X186917Y98658D01*
X184552Y96293D01*
X181208Y96293D01*
G37*
%LPD*%
%LPC*%
G36*
X193908Y83593D02*
X193908Y83593D01*
X191543Y85958D01*
X191543Y89302D01*
X193908Y91667D01*
X197252Y91667D01*
X199617Y89302D01*
X199617Y85958D01*
X197252Y83593D01*
X193908Y83593D01*
G37*
%LPD*%
%LPC*%
G36*
X167238Y83593D02*
X167238Y83593D01*
X164873Y85958D01*
X164873Y89302D01*
X167238Y91667D01*
X170582Y91667D01*
X172947Y89302D01*
X172947Y85958D01*
X170582Y83593D01*
X167238Y83593D01*
G37*
%LPD*%
%LPC*%
G36*
X74528Y15013D02*
X74528Y15013D01*
X72163Y17378D01*
X72163Y20722D01*
X74528Y23087D01*
X77872Y23087D01*
X80237Y20722D01*
X80237Y17378D01*
X77872Y15013D01*
X74528Y15013D01*
G37*
%LPD*%
%LPC*%
G36*
X84688Y82323D02*
X84688Y82323D01*
X82323Y84688D01*
X82323Y88032D01*
X84688Y90397D01*
X88032Y90397D01*
X90397Y88032D01*
X90397Y84688D01*
X88032Y82323D01*
X84688Y82323D01*
G37*
%LPD*%
%LPC*%
G36*
X219308Y56923D02*
X219308Y56923D01*
X216943Y59288D01*
X216943Y62632D01*
X219308Y64997D01*
X222652Y64997D01*
X225017Y62632D01*
X225017Y59288D01*
X222652Y56923D01*
X219308Y56923D01*
G37*
%LPD*%
%LPC*%
G36*
X206608Y69623D02*
X206608Y69623D01*
X204243Y71988D01*
X204243Y75332D01*
X206608Y77697D01*
X209952Y77697D01*
X212317Y75332D01*
X212317Y71988D01*
X209952Y69623D01*
X206608Y69623D01*
G37*
%LPD*%
%LPC*%
G36*
X181208Y68353D02*
X181208Y68353D01*
X178843Y70718D01*
X178843Y74062D01*
X181208Y76427D01*
X184552Y76427D01*
X186917Y74062D01*
X186917Y70718D01*
X184552Y68353D01*
X181208Y68353D01*
G37*
%LPD*%
%LPC*%
G36*
X168508Y145823D02*
X168508Y145823D01*
X166143Y148188D01*
X166143Y151532D01*
X168508Y153897D01*
X171852Y153897D01*
X174217Y151532D01*
X174217Y148188D01*
X171852Y145823D01*
X168508Y145823D01*
G37*
%LPD*%
%LPC*%
G36*
X150728Y256313D02*
X150728Y256313D01*
X148363Y258678D01*
X148363Y262022D01*
X150728Y264387D01*
X154072Y264387D01*
X156437Y262022D01*
X156437Y258678D01*
X154072Y256313D01*
X150728Y256313D01*
G37*
%LPD*%
%LPC*%
G36*
X163428Y256313D02*
X163428Y256313D01*
X161063Y258678D01*
X161063Y262022D01*
X163428Y264387D01*
X166772Y264387D01*
X169137Y262022D01*
X169137Y258678D01*
X166772Y256313D01*
X163428Y256313D01*
G37*
%LPD*%
%LPC*%
G36*
X150728Y237263D02*
X150728Y237263D01*
X148363Y239628D01*
X148363Y242972D01*
X150728Y245337D01*
X154072Y245337D01*
X156437Y242972D01*
X156437Y239628D01*
X154072Y237263D01*
X150728Y237263D01*
G37*
%LPD*%
%LPC*%
G36*
X163428Y237263D02*
X163428Y237263D01*
X161063Y239628D01*
X161063Y242972D01*
X163428Y245337D01*
X166772Y245337D01*
X169137Y242972D01*
X169137Y239628D01*
X166772Y237263D01*
X163428Y237263D01*
G37*
%LPD*%
%LPC*%
G36*
X50398Y224563D02*
X50398Y224563D01*
X48033Y226928D01*
X48033Y230272D01*
X50398Y232637D01*
X53742Y232637D01*
X56107Y230272D01*
X56107Y226928D01*
X53742Y224563D01*
X50398Y224563D01*
G37*
%LPD*%
%LPC*%
G36*
X61828Y224563D02*
X61828Y224563D01*
X59463Y226928D01*
X59463Y230272D01*
X61828Y232637D01*
X65172Y232637D01*
X67537Y230272D01*
X67537Y226928D01*
X65172Y224563D01*
X61828Y224563D01*
G37*
%LPD*%
%LPC*%
G36*
X49128Y205513D02*
X49128Y205513D01*
X46763Y207878D01*
X46763Y211222D01*
X49128Y213587D01*
X52472Y213587D01*
X54837Y211222D01*
X54837Y207878D01*
X52472Y205513D01*
X49128Y205513D01*
G37*
%LPD*%
%LPC*%
G36*
X61828Y205513D02*
X61828Y205513D01*
X59463Y207878D01*
X59463Y211222D01*
X61828Y213587D01*
X65172Y213587D01*
X67537Y211222D01*
X67537Y207878D01*
X65172Y205513D01*
X61828Y205513D01*
G37*
%LPD*%
%LPC*%
G36*
X88498Y201703D02*
X88498Y201703D01*
X86133Y204068D01*
X86133Y207412D01*
X88498Y209777D01*
X91842Y209777D01*
X94207Y207412D01*
X94207Y204068D01*
X91842Y201703D01*
X88498Y201703D01*
G37*
%LPD*%
%LPC*%
G36*
X78338Y201703D02*
X78338Y201703D01*
X75973Y204068D01*
X75973Y207412D01*
X78338Y209777D01*
X81682Y209777D01*
X84047Y207412D01*
X84047Y204068D01*
X81682Y201703D01*
X78338Y201703D01*
G37*
%LPD*%
%LPC*%
G36*
X216768Y196623D02*
X216768Y196623D01*
X214403Y198988D01*
X214403Y202332D01*
X216768Y204697D01*
X220112Y204697D01*
X222477Y202332D01*
X222477Y198988D01*
X220112Y196623D01*
X216768Y196623D01*
G37*
%LPD*%
%LPC*%
G36*
X99928Y195353D02*
X99928Y195353D01*
X97563Y197718D01*
X97563Y201062D01*
X99928Y203427D01*
X103272Y203427D01*
X105637Y201062D01*
X105637Y197718D01*
X103272Y195353D01*
X99928Y195353D01*
G37*
%LPD*%
%LPC*%
G36*
X206608Y185193D02*
X206608Y185193D01*
X204243Y187558D01*
X204243Y190902D01*
X206608Y193267D01*
X209952Y193267D01*
X212317Y190902D01*
X212317Y187558D01*
X209952Y185193D01*
X206608Y185193D01*
G37*
%LPD*%
%LPC*%
G36*
X193908Y172493D02*
X193908Y172493D01*
X191543Y174858D01*
X191543Y178202D01*
X193908Y180567D01*
X197252Y180567D01*
X199617Y178202D01*
X199617Y174858D01*
X197252Y172493D01*
X193908Y172493D01*
G37*
%LPD*%
%LPC*%
G36*
X218038Y169953D02*
X218038Y169953D01*
X215673Y172318D01*
X215673Y175662D01*
X218038Y178027D01*
X221382Y178027D01*
X223747Y175662D01*
X223747Y172318D01*
X221382Y169953D01*
X218038Y169953D01*
G37*
%LPD*%
%LPC*%
G36*
X181208Y159793D02*
X181208Y159793D01*
X178843Y162158D01*
X178843Y165502D01*
X181208Y167867D01*
X184552Y167867D01*
X186917Y165502D01*
X186917Y162158D01*
X184552Y159793D01*
X181208Y159793D01*
G37*
%LPD*%
%LPC*%
G36*
X206608Y158523D02*
X206608Y158523D01*
X204243Y160888D01*
X204243Y164232D01*
X206608Y166597D01*
X209952Y166597D01*
X212317Y164232D01*
X212317Y160888D01*
X209952Y158523D01*
X206608Y158523D01*
G37*
%LPD*%
%LPC*%
G36*
X69448Y148363D02*
X69448Y148363D01*
X67083Y150728D01*
X67083Y154072D01*
X69448Y156437D01*
X72792Y156437D01*
X75157Y154072D01*
X75157Y150728D01*
X72792Y148363D01*
X69448Y148363D01*
G37*
%LPD*%
%LPC*%
G36*
X193908Y145823D02*
X193908Y145823D01*
X191543Y148188D01*
X191543Y151532D01*
X193908Y153897D01*
X197252Y153897D01*
X199617Y151532D01*
X199617Y148188D01*
X197252Y145823D01*
X193908Y145823D01*
G37*
%LPD*%
%LPC*%
G36*
X181208Y133123D02*
X181208Y133123D01*
X178843Y135488D01*
X178843Y138832D01*
X181208Y141197D01*
X184552Y141197D01*
X186917Y138832D01*
X186917Y135488D01*
X184552Y133123D01*
X181208Y133123D01*
G37*
%LPD*%
%LPC*%
G36*
X9861Y77493D02*
X9861Y77493D01*
X7643Y79711D01*
X7643Y82849D01*
X9861Y85067D01*
X12999Y85067D01*
X15217Y82849D01*
X15217Y79711D01*
X12999Y77493D01*
X9861Y77493D01*
G37*
%LPD*%
%LPC*%
G36*
X22561Y77493D02*
X22561Y77493D01*
X20343Y79711D01*
X20343Y82849D01*
X22561Y85067D01*
X25699Y85067D01*
X27917Y82849D01*
X27917Y79711D01*
X25699Y77493D01*
X22561Y77493D01*
G37*
%LPD*%
%LPC*%
G36*
X35261Y77493D02*
X35261Y77493D01*
X33043Y79711D01*
X33043Y82849D01*
X35261Y85067D01*
X38399Y85067D01*
X40617Y82849D01*
X40617Y79711D01*
X38399Y77493D01*
X35261Y77493D01*
G37*
%LPD*%
%LPC*%
G36*
X35261Y156233D02*
X35261Y156233D01*
X33043Y158451D01*
X33043Y161589D01*
X35261Y163807D01*
X38399Y163807D01*
X40617Y161589D01*
X40617Y158451D01*
X38399Y156233D01*
X35261Y156233D01*
G37*
%LPD*%
%LPC*%
G36*
X9861Y156233D02*
X9861Y156233D01*
X7643Y158451D01*
X7643Y161589D01*
X9861Y163807D01*
X12999Y163807D01*
X15217Y161589D01*
X15217Y158451D01*
X12999Y156233D01*
X9861Y156233D01*
G37*
%LPD*%
%LPC*%
G36*
X22561Y156233D02*
X22561Y156233D01*
X20343Y158451D01*
X20343Y161589D01*
X22561Y163807D01*
X25699Y163807D01*
X27917Y161589D01*
X27917Y158451D01*
X25699Y156233D01*
X22561Y156233D01*
G37*
%LPD*%
D10*
X11430Y137160D03*
X11430Y104140D03*
X36830Y137160D03*
X36830Y104140D03*
X11430Y81280D03*
X36830Y81280D03*
X11430Y160020D03*
X36830Y160020D03*
X24130Y160020D03*
X24130Y81280D03*
X24130Y104140D03*
X24130Y137160D03*
D11*
X274574Y179578D03*
X274574Y203962D03*
X252476Y203962D03*
X252476Y179578D03*
D12*
X263525Y200152D03*
X263525Y183388D03*
X286893Y200152D03*
X286893Y183388D03*
X240157Y183388D03*
X240157Y200152D03*
D11*
X274574Y32258D03*
X274574Y56642D03*
X252476Y56642D03*
X252476Y32258D03*
D12*
X263525Y52832D03*
X263525Y36068D03*
X286893Y52832D03*
X286893Y36068D03*
X240157Y36068D03*
X240157Y52832D03*
D13*
X196850Y247650D03*
X196850Y222250D03*
D14*
X63500Y140970D03*
X71120Y140970D03*
X88900Y140970D03*
X124460Y140970D03*
X120650Y132080D03*
X130810Y130810D03*
X88900Y95250D03*
X85090Y102870D03*
X67310Y96520D03*
X109220Y95250D03*
X113030Y132080D03*
X113030Y104140D03*
X125730Y95250D03*
X45720Y30480D03*
X57150Y19050D03*
X107950Y229870D03*
X107950Y266700D03*
X95250Y266700D03*
X120650Y266700D03*
X120650Y292100D03*
X107950Y292100D03*
X95250Y292100D03*
X82550Y292100D03*
X133350Y292100D03*
X133350Y279400D03*
X82550Y279400D03*
X82550Y266700D03*
X133350Y266700D03*
X120650Y104140D03*
X130810Y105410D03*
X114300Y242570D03*
X101600Y242570D03*
X85090Y132080D03*
X96520Y140970D03*
X106680Y140970D03*
X77470Y132080D03*
X95250Y148590D03*
X107950Y148590D03*
X88900Y152400D03*
X71120Y152400D03*
X115570Y158750D03*
X50800Y69850D03*
X58420Y69850D03*
X86360Y86360D03*
X73660Y77470D03*
X116840Y77470D03*
X107950Y86360D03*
X96520Y50800D03*
X101600Y199390D03*
X87630Y30480D03*
X76200Y19050D03*
X107950Y80010D03*
X52070Y228600D03*
X63500Y228600D03*
X50800Y209550D03*
X63500Y209550D03*
X152400Y241300D03*
X165100Y241300D03*
X165100Y260350D03*
X152400Y260350D03*
X80010Y205740D03*
X90170Y205740D03*
X81280Y228600D03*
X90170Y228600D03*
X52070Y130810D03*
X52070Y113030D03*
X64770Y130810D03*
X64770Y113030D03*
X160020Y118110D03*
X170180Y121920D03*
X170180Y114300D03*
X182880Y137160D03*
X182880Y163830D03*
X182880Y100330D03*
X182880Y72390D03*
X195580Y60960D03*
X195580Y87630D03*
X208280Y73660D03*
X208280Y48260D03*
X220980Y60960D03*
X219710Y36830D03*
X231140Y53340D03*
X232410Y36830D03*
X168910Y87630D03*
X195580Y176530D03*
X195580Y149860D03*
X208280Y189230D03*
X208280Y162560D03*
X218440Y200660D03*
X219710Y173990D03*
X231140Y182880D03*
X231140Y200660D03*
X170180Y149860D03*
X107950Y154940D03*
X76200Y161290D03*
X82550Y161290D03*
X81280Y77470D03*
X148590Y128270D03*
X148590Y107950D03*
X125730Y160020D03*
X125730Y153670D03*
X125730Y83820D03*
X125730Y77470D03*
X143510Y220980D03*
X143510Y213360D03*
X173990Y220980D03*
X173990Y213360D03*
X146050Y165100D03*
X146050Y71120D03*
X154940Y148590D03*
X153670Y80010D03*
X153670Y156210D03*
X153670Y71120D03*
X153670Y165100D03*
X154940Y87630D03*
M02*
