G04 EAGLE Gerber RS-274X export*
G75*
%MOMM*%
%FSLAX34Y34*%
%LPD*%
%INTop Copper Layer*%
%IPPOS*%
%AMOC8*
5,1,8,0,0,1.08239X$1,22.5*%
G01*
%ADD10R,5.715000X1.041400*%
%ADD11R,6.350000X2.540000*%
%ADD12C,0.604000*%
%ADD13R,1.400000X1.000000*%
%ADD14R,1.000000X1.400000*%
%ADD15R,0.950000X0.950000*%
%ADD16R,1.100000X1.400000*%
%ADD17R,0.800000X0.800000*%
%ADD18R,1.300000X0.900000*%
%ADD19P,2.089446X8X112.500000*%
%ADD20C,0.812800*%
%ADD21C,0.609600*%
%ADD22C,0.508000*%
%ADD23C,0.406400*%
%ADD24C,1.016000*%

G36*
X474673Y3814D02*
X474673Y3814D01*
X474692Y3812D01*
X474794Y3834D01*
X474896Y3850D01*
X474913Y3860D01*
X474933Y3864D01*
X475022Y3917D01*
X475113Y3966D01*
X475127Y3980D01*
X475144Y3990D01*
X475211Y4069D01*
X475283Y4144D01*
X475291Y4162D01*
X475304Y4177D01*
X475343Y4273D01*
X475386Y4367D01*
X475388Y4387D01*
X475396Y4405D01*
X475414Y4572D01*
X475414Y5335D01*
X476250Y5335D01*
X476308Y5343D01*
X476366Y5341D01*
X476448Y5363D01*
X476532Y5375D01*
X476585Y5399D01*
X476641Y5413D01*
X476714Y5456D01*
X476791Y5491D01*
X476836Y5529D01*
X476886Y5559D01*
X476944Y5620D01*
X477008Y5675D01*
X477040Y5723D01*
X477080Y5766D01*
X477119Y5841D01*
X477166Y5911D01*
X477183Y5967D01*
X477210Y6019D01*
X477221Y6087D01*
X477251Y6182D01*
X477254Y6282D01*
X477265Y6350D01*
X477265Y67945D01*
X477257Y68003D01*
X477259Y68061D01*
X477237Y68143D01*
X477225Y68227D01*
X477202Y68280D01*
X477187Y68336D01*
X477144Y68409D01*
X477109Y68486D01*
X477071Y68531D01*
X477042Y68581D01*
X476980Y68639D01*
X476926Y68703D01*
X476877Y68735D01*
X476834Y68775D01*
X476759Y68814D01*
X476689Y68861D01*
X476633Y68878D01*
X476581Y68905D01*
X476513Y68916D01*
X476418Y68946D01*
X476318Y68949D01*
X476250Y68960D01*
X475369Y68960D01*
X475365Y68967D01*
X475361Y68987D01*
X475308Y69076D01*
X475259Y69167D01*
X475245Y69181D01*
X475235Y69198D01*
X475156Y69265D01*
X475081Y69337D01*
X475063Y69345D01*
X475048Y69358D01*
X474952Y69397D01*
X474858Y69440D01*
X474838Y69442D01*
X474820Y69450D01*
X474653Y69468D01*
X418265Y69468D01*
X418246Y69485D01*
X418216Y69497D01*
X418190Y69516D01*
X418103Y69543D01*
X418018Y69577D01*
X417977Y69581D01*
X417955Y69588D01*
X417922Y69587D01*
X417851Y69595D01*
X410236Y69595D01*
X410216Y69592D01*
X410197Y69594D01*
X410095Y69572D01*
X409993Y69556D01*
X409976Y69546D01*
X409956Y69542D01*
X409867Y69489D01*
X409776Y69440D01*
X409762Y69426D01*
X409745Y69416D01*
X409678Y69337D01*
X409606Y69262D01*
X409598Y69244D01*
X409585Y69229D01*
X409546Y69133D01*
X409503Y69039D01*
X409501Y69019D01*
X409493Y69001D01*
X409475Y68834D01*
X409475Y68568D01*
X408582Y67675D01*
X396318Y67675D01*
X395425Y68568D01*
X395425Y83832D01*
X396318Y84725D01*
X408582Y84725D01*
X409475Y83832D01*
X409475Y83566D01*
X409478Y83546D01*
X409476Y83527D01*
X409498Y83425D01*
X409514Y83323D01*
X409524Y83306D01*
X409528Y83286D01*
X409581Y83197D01*
X409630Y83106D01*
X409644Y83092D01*
X409654Y83075D01*
X409733Y83008D01*
X409808Y82936D01*
X409826Y82928D01*
X409841Y82915D01*
X409937Y82876D01*
X410031Y82833D01*
X410051Y82831D01*
X410069Y82823D01*
X410236Y82805D01*
X417851Y82805D01*
X417941Y82819D01*
X418032Y82827D01*
X418062Y82839D01*
X418094Y82844D01*
X418174Y82887D01*
X418259Y82923D01*
X418270Y82932D01*
X474653Y82932D01*
X474673Y82935D01*
X474692Y82933D01*
X474794Y82955D01*
X474896Y82971D01*
X474913Y82981D01*
X474933Y82985D01*
X475022Y83038D01*
X475113Y83087D01*
X475127Y83101D01*
X475144Y83111D01*
X475211Y83190D01*
X475283Y83265D01*
X475291Y83283D01*
X475304Y83298D01*
X475343Y83394D01*
X475364Y83440D01*
X476250Y83440D01*
X476308Y83448D01*
X476366Y83446D01*
X476448Y83468D01*
X476532Y83480D01*
X476585Y83504D01*
X476641Y83518D01*
X476714Y83561D01*
X476791Y83596D01*
X476836Y83634D01*
X476886Y83664D01*
X476944Y83725D01*
X477008Y83780D01*
X477040Y83828D01*
X477080Y83871D01*
X477119Y83946D01*
X477166Y84016D01*
X477183Y84072D01*
X477210Y84124D01*
X477221Y84192D01*
X477251Y84287D01*
X477254Y84387D01*
X477265Y84455D01*
X477265Y146050D01*
X477257Y146108D01*
X477259Y146166D01*
X477237Y146248D01*
X477225Y146332D01*
X477202Y146385D01*
X477187Y146441D01*
X477144Y146514D01*
X477109Y146591D01*
X477071Y146636D01*
X477042Y146686D01*
X476980Y146744D01*
X476926Y146808D01*
X476877Y146840D01*
X476834Y146880D01*
X476759Y146919D01*
X476689Y146966D01*
X476633Y146983D01*
X476581Y147010D01*
X476513Y147021D01*
X476418Y147051D01*
X476318Y147054D01*
X476250Y147065D01*
X475414Y147065D01*
X475414Y160403D01*
X475411Y160423D01*
X475413Y160442D01*
X475391Y160544D01*
X475375Y160646D01*
X475365Y160663D01*
X475361Y160683D01*
X475308Y160772D01*
X475259Y160863D01*
X475245Y160877D01*
X475235Y160894D01*
X475156Y160961D01*
X475081Y161033D01*
X475063Y161041D01*
X475048Y161054D01*
X474952Y161093D01*
X474858Y161136D01*
X474838Y161138D01*
X474820Y161146D01*
X474653Y161164D01*
X4572Y161164D01*
X4552Y161161D01*
X4533Y161163D01*
X4431Y161141D01*
X4329Y161125D01*
X4312Y161115D01*
X4292Y161111D01*
X4203Y161058D01*
X4112Y161009D01*
X4098Y160995D01*
X4081Y160985D01*
X4014Y160906D01*
X3942Y160831D01*
X3934Y160813D01*
X3921Y160798D01*
X3882Y160702D01*
X3839Y160608D01*
X3837Y160588D01*
X3829Y160570D01*
X3811Y160403D01*
X3811Y4572D01*
X3814Y4552D01*
X3812Y4533D01*
X3834Y4431D01*
X3850Y4329D01*
X3860Y4312D01*
X3864Y4292D01*
X3917Y4203D01*
X3966Y4112D01*
X3980Y4098D01*
X3990Y4081D01*
X4069Y4014D01*
X4144Y3942D01*
X4162Y3934D01*
X4177Y3921D01*
X4273Y3882D01*
X4367Y3839D01*
X4387Y3837D01*
X4405Y3829D01*
X4572Y3811D01*
X474653Y3811D01*
X474673Y3814D01*
G37*
%LPC*%
G36*
X61068Y12225D02*
X61068Y12225D01*
X60175Y13118D01*
X60175Y28382D01*
X61068Y29275D01*
X69879Y29275D01*
X69970Y29289D01*
X70060Y29297D01*
X70090Y29309D01*
X70122Y29314D01*
X70203Y29357D01*
X70287Y29393D01*
X70319Y29419D01*
X70340Y29430D01*
X70362Y29453D01*
X70418Y29498D01*
X72420Y31500D01*
X72473Y31574D01*
X72533Y31644D01*
X72545Y31674D01*
X72564Y31700D01*
X72591Y31787D01*
X72625Y31872D01*
X72629Y31913D01*
X72636Y31935D01*
X72635Y31967D01*
X72643Y32039D01*
X72643Y33464D01*
X72640Y33484D01*
X72642Y33503D01*
X72620Y33605D01*
X72604Y33707D01*
X72594Y33724D01*
X72590Y33744D01*
X72537Y33833D01*
X72488Y33924D01*
X72474Y33938D01*
X72464Y33955D01*
X72385Y34022D01*
X72310Y34094D01*
X72292Y34102D01*
X72277Y34115D01*
X72181Y34154D01*
X72087Y34197D01*
X72067Y34199D01*
X72049Y34207D01*
X71882Y34225D01*
X70568Y34225D01*
X69675Y35118D01*
X69675Y50382D01*
X70568Y51275D01*
X71882Y51275D01*
X71902Y51278D01*
X71921Y51276D01*
X72023Y51298D01*
X72125Y51314D01*
X72142Y51324D01*
X72162Y51328D01*
X72251Y51381D01*
X72342Y51430D01*
X72356Y51444D01*
X72373Y51454D01*
X72440Y51533D01*
X72512Y51608D01*
X72520Y51626D01*
X72533Y51641D01*
X72572Y51737D01*
X72615Y51831D01*
X72617Y51851D01*
X72625Y51869D01*
X72643Y52036D01*
X72643Y61914D01*
X72640Y61934D01*
X72642Y61953D01*
X72620Y62054D01*
X72604Y62157D01*
X72594Y62174D01*
X72590Y62194D01*
X72537Y62283D01*
X72488Y62374D01*
X72474Y62388D01*
X72464Y62405D01*
X72385Y62472D01*
X72310Y62544D01*
X72292Y62552D01*
X72277Y62565D01*
X72181Y62604D01*
X72087Y62647D01*
X72067Y62649D01*
X72049Y62657D01*
X71882Y62675D01*
X70818Y62675D01*
X69925Y63568D01*
X69925Y74332D01*
X70818Y75225D01*
X81582Y75225D01*
X82475Y74332D01*
X82475Y63568D01*
X81582Y62675D01*
X80518Y62675D01*
X80498Y62672D01*
X80479Y62674D01*
X80377Y62652D01*
X80275Y62636D01*
X80258Y62626D01*
X80238Y62622D01*
X80149Y62569D01*
X80058Y62520D01*
X80044Y62506D01*
X80027Y62496D01*
X79960Y62417D01*
X79888Y62342D01*
X79880Y62324D01*
X79867Y62309D01*
X79828Y62213D01*
X79785Y62119D01*
X79783Y62099D01*
X79775Y62081D01*
X79757Y61914D01*
X79757Y52036D01*
X79760Y52016D01*
X79758Y51997D01*
X79780Y51895D01*
X79796Y51793D01*
X79806Y51776D01*
X79810Y51756D01*
X79863Y51667D01*
X79912Y51576D01*
X79926Y51562D01*
X79936Y51545D01*
X80015Y51478D01*
X80090Y51406D01*
X80108Y51398D01*
X80123Y51385D01*
X80219Y51346D01*
X80313Y51303D01*
X80333Y51301D01*
X80351Y51293D01*
X80518Y51275D01*
X81832Y51275D01*
X82725Y50382D01*
X82725Y47068D01*
X82728Y47048D01*
X82726Y47029D01*
X82748Y46927D01*
X82764Y46825D01*
X82774Y46808D01*
X82778Y46788D01*
X82831Y46699D01*
X82880Y46608D01*
X82894Y46594D01*
X82904Y46577D01*
X82983Y46510D01*
X83058Y46438D01*
X83076Y46430D01*
X83091Y46417D01*
X83187Y46378D01*
X83281Y46335D01*
X83301Y46333D01*
X83319Y46325D01*
X83486Y46307D01*
X92073Y46307D01*
X102850Y35530D01*
X102924Y35477D01*
X102994Y35417D01*
X103024Y35405D01*
X103050Y35386D01*
X103137Y35359D01*
X103222Y35325D01*
X103263Y35321D01*
X103285Y35314D01*
X103317Y35315D01*
X103389Y35307D01*
X113364Y35307D01*
X113384Y35310D01*
X113403Y35308D01*
X113505Y35330D01*
X113607Y35346D01*
X113624Y35356D01*
X113644Y35360D01*
X113733Y35413D01*
X113824Y35462D01*
X113838Y35476D01*
X113855Y35486D01*
X113922Y35565D01*
X113994Y35640D01*
X114002Y35658D01*
X114015Y35673D01*
X114054Y35769D01*
X114097Y35863D01*
X114099Y35883D01*
X114107Y35901D01*
X114125Y36068D01*
X114125Y50382D01*
X115018Y51275D01*
X115316Y51275D01*
X115336Y51278D01*
X115355Y51276D01*
X115457Y51298D01*
X115559Y51314D01*
X115576Y51324D01*
X115596Y51328D01*
X115685Y51381D01*
X115776Y51430D01*
X115790Y51444D01*
X115807Y51454D01*
X115874Y51533D01*
X115946Y51608D01*
X115954Y51626D01*
X115967Y51641D01*
X116006Y51737D01*
X116049Y51831D01*
X116051Y51851D01*
X116059Y51869D01*
X116077Y52036D01*
X116077Y54944D01*
X116074Y54964D01*
X116076Y54983D01*
X116054Y55085D01*
X116038Y55187D01*
X116028Y55204D01*
X116024Y55224D01*
X115971Y55313D01*
X115922Y55404D01*
X115908Y55418D01*
X115898Y55435D01*
X115819Y55502D01*
X115744Y55574D01*
X115726Y55582D01*
X115711Y55595D01*
X115615Y55634D01*
X115521Y55677D01*
X115501Y55679D01*
X115483Y55687D01*
X115316Y55705D01*
X111264Y55705D01*
X111201Y55725D01*
X111116Y55759D01*
X111076Y55763D01*
X111053Y55770D01*
X111021Y55769D01*
X110950Y55777D01*
X109411Y55777D01*
X109391Y55774D01*
X109372Y55776D01*
X109270Y55754D01*
X109168Y55738D01*
X109151Y55728D01*
X109131Y55724D01*
X109042Y55671D01*
X108951Y55622D01*
X108937Y55608D01*
X108920Y55598D01*
X108853Y55519D01*
X108781Y55444D01*
X108773Y55426D01*
X108760Y55411D01*
X108721Y55315D01*
X108678Y55221D01*
X108676Y55201D01*
X108668Y55183D01*
X108650Y55016D01*
X108650Y54718D01*
X107757Y53825D01*
X92493Y53825D01*
X91600Y54718D01*
X91600Y65982D01*
X92493Y66875D01*
X107757Y66875D01*
X108650Y65982D01*
X108650Y65684D01*
X108653Y65664D01*
X108651Y65645D01*
X108673Y65543D01*
X108689Y65441D01*
X108699Y65424D01*
X108703Y65404D01*
X108756Y65315D01*
X108805Y65224D01*
X108819Y65210D01*
X108829Y65193D01*
X108908Y65126D01*
X108983Y65054D01*
X109001Y65046D01*
X109016Y65033D01*
X109112Y64994D01*
X109206Y64951D01*
X109226Y64949D01*
X109244Y64941D01*
X109411Y64923D01*
X112839Y64923D01*
X112859Y64926D01*
X112878Y64924D01*
X112980Y64946D01*
X113082Y64962D01*
X113099Y64972D01*
X113119Y64976D01*
X113208Y65029D01*
X113299Y65078D01*
X113313Y65092D01*
X113330Y65102D01*
X113397Y65181D01*
X113469Y65256D01*
X113477Y65274D01*
X113490Y65289D01*
X113529Y65385D01*
X113572Y65479D01*
X113574Y65499D01*
X113582Y65517D01*
X113600Y65684D01*
X113600Y74524D01*
X113597Y74544D01*
X113599Y74563D01*
X113577Y74665D01*
X113561Y74767D01*
X113551Y74784D01*
X113547Y74804D01*
X113494Y74893D01*
X113445Y74984D01*
X113431Y74998D01*
X113421Y75015D01*
X113342Y75082D01*
X113267Y75154D01*
X113249Y75162D01*
X113234Y75175D01*
X113138Y75214D01*
X113044Y75257D01*
X113024Y75259D01*
X113006Y75267D01*
X112839Y75285D01*
X109411Y75285D01*
X109391Y75282D01*
X109372Y75284D01*
X109270Y75262D01*
X109168Y75246D01*
X109151Y75236D01*
X109131Y75232D01*
X109042Y75179D01*
X108951Y75130D01*
X108937Y75116D01*
X108920Y75106D01*
X108853Y75027D01*
X108781Y74952D01*
X108773Y74934D01*
X108760Y74919D01*
X108721Y74823D01*
X108678Y74729D01*
X108676Y74709D01*
X108668Y74691D01*
X108650Y74524D01*
X108650Y73718D01*
X107757Y72825D01*
X92493Y72825D01*
X91600Y73718D01*
X91600Y84982D01*
X92493Y85875D01*
X107757Y85875D01*
X108686Y84946D01*
X108689Y84922D01*
X108723Y84859D01*
X108748Y84791D01*
X108780Y84751D01*
X108805Y84705D01*
X108857Y84655D01*
X108901Y84599D01*
X108945Y84571D01*
X108983Y84535D01*
X109048Y84505D01*
X109108Y84466D01*
X109159Y84454D01*
X109206Y84432D01*
X109277Y84424D01*
X109347Y84406D01*
X109399Y84410D01*
X109450Y84405D01*
X109521Y84420D01*
X109592Y84425D01*
X109640Y84446D01*
X109691Y84457D01*
X109752Y84494D01*
X109818Y84522D01*
X109874Y84566D01*
X109902Y84583D01*
X109917Y84601D01*
X109949Y84626D01*
X112417Y87095D01*
X116183Y87095D01*
X116937Y86340D01*
X116995Y86299D01*
X117047Y86249D01*
X117094Y86227D01*
X117136Y86197D01*
X117205Y86176D01*
X117270Y86146D01*
X117322Y86140D01*
X117372Y86125D01*
X117443Y86126D01*
X117514Y86119D01*
X117565Y86130D01*
X117617Y86131D01*
X117685Y86156D01*
X117755Y86171D01*
X117800Y86198D01*
X117848Y86215D01*
X117904Y86260D01*
X117966Y86297D01*
X118000Y86337D01*
X118040Y86369D01*
X118079Y86429D01*
X118126Y86484D01*
X118145Y86532D01*
X118173Y86576D01*
X118191Y86646D01*
X118218Y86712D01*
X118226Y86783D01*
X118234Y86815D01*
X118232Y86838D01*
X118236Y86879D01*
X118236Y107017D01*
X118222Y107107D01*
X118214Y107198D01*
X118202Y107228D01*
X118197Y107260D01*
X118154Y107341D01*
X118118Y107424D01*
X118092Y107457D01*
X118081Y107477D01*
X118058Y107499D01*
X118013Y107555D01*
X117550Y108018D01*
X117550Y118782D01*
X118443Y119675D01*
X129207Y119675D01*
X130100Y118782D01*
X130100Y108018D01*
X129637Y107555D01*
X129584Y107481D01*
X129524Y107412D01*
X129512Y107382D01*
X129493Y107356D01*
X129466Y107269D01*
X129432Y107184D01*
X129428Y107143D01*
X129421Y107121D01*
X129422Y107088D01*
X129414Y107017D01*
X129414Y77033D01*
X129428Y76943D01*
X129436Y76852D01*
X129448Y76822D01*
X129453Y76790D01*
X129496Y76709D01*
X129532Y76626D01*
X129558Y76593D01*
X129569Y76573D01*
X129592Y76551D01*
X129637Y76495D01*
X130650Y75482D01*
X130650Y65684D01*
X130653Y65664D01*
X130651Y65645D01*
X130673Y65543D01*
X130689Y65441D01*
X130699Y65424D01*
X130703Y65404D01*
X130756Y65315D01*
X130805Y65224D01*
X130819Y65210D01*
X130829Y65193D01*
X130908Y65126D01*
X130983Y65054D01*
X131001Y65046D01*
X131016Y65033D01*
X131112Y64994D01*
X131206Y64951D01*
X131226Y64949D01*
X131244Y64941D01*
X131411Y64923D01*
X132114Y64923D01*
X132134Y64926D01*
X132153Y64924D01*
X132255Y64946D01*
X132357Y64962D01*
X132374Y64972D01*
X132394Y64976D01*
X132483Y65029D01*
X132574Y65078D01*
X132588Y65092D01*
X132605Y65102D01*
X132672Y65181D01*
X132744Y65256D01*
X132752Y65274D01*
X132765Y65289D01*
X132804Y65385D01*
X132847Y65479D01*
X132849Y65499D01*
X132857Y65517D01*
X132875Y65684D01*
X132875Y65982D01*
X133768Y66875D01*
X143979Y66875D01*
X144050Y66886D01*
X144122Y66888D01*
X144171Y66906D01*
X144222Y66914D01*
X144285Y66948D01*
X144353Y66973D01*
X144393Y67005D01*
X144439Y67030D01*
X144489Y67082D01*
X144545Y67126D01*
X144573Y67170D01*
X144609Y67208D01*
X144639Y67273D01*
X144678Y67333D01*
X144690Y67384D01*
X144712Y67431D01*
X144720Y67502D01*
X144738Y67572D01*
X144734Y67624D01*
X144739Y67675D01*
X144724Y67746D01*
X144719Y67817D01*
X144698Y67865D01*
X144687Y67916D01*
X144680Y67927D01*
X144680Y68375D01*
X144666Y68465D01*
X144658Y68556D01*
X144646Y68586D01*
X144641Y68618D01*
X144598Y68698D01*
X144562Y68782D01*
X144536Y68814D01*
X144525Y68835D01*
X144502Y68857D01*
X144457Y68913D01*
X140768Y72602D01*
X140694Y72655D01*
X140625Y72715D01*
X140595Y72727D01*
X140569Y72746D01*
X140482Y72773D01*
X140397Y72807D01*
X140356Y72811D01*
X140333Y72818D01*
X140301Y72817D01*
X140230Y72825D01*
X133768Y72825D01*
X132875Y73718D01*
X132875Y84982D01*
X133768Y85875D01*
X149032Y85875D01*
X149925Y84982D01*
X149925Y75258D01*
X149939Y75168D01*
X149947Y75077D01*
X149959Y75047D01*
X149964Y75015D01*
X150007Y74935D01*
X150043Y74851D01*
X150069Y74819D01*
X150080Y74798D01*
X150103Y74776D01*
X150148Y74720D01*
X150206Y74662D01*
X150280Y74609D01*
X150349Y74549D01*
X150379Y74537D01*
X150405Y74518D01*
X150492Y74491D01*
X150577Y74457D01*
X150618Y74453D01*
X150641Y74446D01*
X150673Y74447D01*
X150744Y74439D01*
X151108Y74439D01*
X153576Y71970D01*
X153634Y71929D01*
X153686Y71879D01*
X153733Y71857D01*
X153775Y71827D01*
X153844Y71806D01*
X153909Y71776D01*
X153961Y71770D01*
X154011Y71755D01*
X154082Y71756D01*
X154153Y71749D01*
X154204Y71760D01*
X154256Y71761D01*
X154324Y71786D01*
X154394Y71801D01*
X154439Y71828D01*
X154487Y71845D01*
X154543Y71890D01*
X154605Y71927D01*
X154639Y71967D01*
X154679Y71999D01*
X154718Y72059D01*
X154765Y72114D01*
X154784Y72162D01*
X154812Y72206D01*
X154830Y72275D01*
X154857Y72342D01*
X154865Y72413D01*
X154873Y72445D01*
X154871Y72468D01*
X154875Y72509D01*
X154875Y75482D01*
X155768Y76375D01*
X158750Y76375D01*
X158770Y76378D01*
X158789Y76376D01*
X158891Y76398D01*
X158993Y76414D01*
X159010Y76424D01*
X159030Y76428D01*
X159119Y76481D01*
X159210Y76530D01*
X159224Y76544D01*
X159241Y76554D01*
X159308Y76633D01*
X159380Y76708D01*
X159388Y76726D01*
X159401Y76741D01*
X159440Y76837D01*
X159483Y76931D01*
X159485Y76951D01*
X159493Y76969D01*
X159511Y77136D01*
X159511Y107017D01*
X159497Y107107D01*
X159489Y107198D01*
X159477Y107228D01*
X159472Y107260D01*
X159429Y107341D01*
X159393Y107424D01*
X159367Y107457D01*
X159356Y107477D01*
X159333Y107499D01*
X159288Y107555D01*
X158825Y108018D01*
X158825Y118782D01*
X159718Y119675D01*
X170482Y119675D01*
X171375Y118782D01*
X171375Y108018D01*
X170912Y107555D01*
X170859Y107481D01*
X170799Y107412D01*
X170787Y107382D01*
X170768Y107356D01*
X170741Y107269D01*
X170707Y107184D01*
X170703Y107143D01*
X170696Y107121D01*
X170697Y107088D01*
X170689Y107017D01*
X170689Y77033D01*
X170703Y76943D01*
X170711Y76852D01*
X170723Y76822D01*
X170728Y76790D01*
X170771Y76709D01*
X170807Y76626D01*
X170833Y76593D01*
X170844Y76573D01*
X170867Y76551D01*
X170912Y76495D01*
X171925Y75482D01*
X171925Y64218D01*
X171032Y63325D01*
X155768Y63325D01*
X154875Y64218D01*
X154875Y67279D01*
X154864Y67350D01*
X154862Y67422D01*
X154844Y67471D01*
X154836Y67522D01*
X154802Y67585D01*
X154777Y67653D01*
X154745Y67693D01*
X154720Y67739D01*
X154668Y67789D01*
X154624Y67845D01*
X154580Y67873D01*
X154542Y67909D01*
X154477Y67939D01*
X154417Y67978D01*
X154366Y67990D01*
X154319Y68012D01*
X154248Y68020D01*
X154178Y68038D01*
X154126Y68034D01*
X154075Y68039D01*
X154004Y68024D01*
X153933Y68019D01*
X153885Y67998D01*
X153834Y67987D01*
X153773Y67950D01*
X153707Y67922D01*
X153651Y67878D01*
X153623Y67861D01*
X153608Y67843D01*
X153576Y67818D01*
X151108Y65349D01*
X150686Y65349D01*
X150666Y65346D01*
X150647Y65348D01*
X150545Y65326D01*
X150443Y65310D01*
X150426Y65300D01*
X150406Y65296D01*
X150317Y65243D01*
X150226Y65194D01*
X150212Y65180D01*
X150195Y65170D01*
X150128Y65091D01*
X150056Y65016D01*
X150048Y64998D01*
X150035Y64983D01*
X149996Y64887D01*
X149953Y64793D01*
X149951Y64773D01*
X149943Y64755D01*
X149925Y64588D01*
X149925Y54718D01*
X149032Y53825D01*
X133768Y53825D01*
X132875Y54718D01*
X132875Y54944D01*
X132872Y54964D01*
X132874Y54983D01*
X132852Y55085D01*
X132836Y55187D01*
X132826Y55204D01*
X132822Y55224D01*
X132769Y55313D01*
X132720Y55404D01*
X132706Y55418D01*
X132696Y55435D01*
X132617Y55502D01*
X132542Y55574D01*
X132524Y55582D01*
X132509Y55595D01*
X132413Y55634D01*
X132319Y55677D01*
X132299Y55679D01*
X132281Y55687D01*
X132114Y55705D01*
X125984Y55705D01*
X125964Y55702D01*
X125945Y55704D01*
X125843Y55682D01*
X125741Y55666D01*
X125724Y55656D01*
X125704Y55652D01*
X125615Y55599D01*
X125524Y55550D01*
X125510Y55536D01*
X125493Y55526D01*
X125426Y55447D01*
X125354Y55372D01*
X125346Y55354D01*
X125333Y55339D01*
X125294Y55243D01*
X125251Y55149D01*
X125249Y55129D01*
X125241Y55111D01*
X125223Y54944D01*
X125223Y52036D01*
X125226Y52016D01*
X125224Y51997D01*
X125246Y51895D01*
X125262Y51793D01*
X125272Y51776D01*
X125276Y51756D01*
X125329Y51667D01*
X125378Y51576D01*
X125392Y51562D01*
X125402Y51545D01*
X125481Y51478D01*
X125556Y51406D01*
X125574Y51398D01*
X125589Y51385D01*
X125685Y51346D01*
X125779Y51303D01*
X125799Y51301D01*
X125817Y51293D01*
X125984Y51275D01*
X126282Y51275D01*
X127175Y50382D01*
X127175Y36068D01*
X127178Y36048D01*
X127176Y36029D01*
X127198Y35927D01*
X127214Y35825D01*
X127224Y35808D01*
X127228Y35788D01*
X127281Y35699D01*
X127330Y35608D01*
X127344Y35594D01*
X127354Y35577D01*
X127433Y35510D01*
X127508Y35438D01*
X127526Y35430D01*
X127541Y35417D01*
X127637Y35378D01*
X127731Y35335D01*
X127751Y35333D01*
X127769Y35325D01*
X127936Y35307D01*
X195914Y35307D01*
X195934Y35310D01*
X195953Y35308D01*
X196055Y35330D01*
X196157Y35346D01*
X196174Y35356D01*
X196194Y35360D01*
X196283Y35413D01*
X196374Y35462D01*
X196388Y35476D01*
X196405Y35486D01*
X196472Y35565D01*
X196544Y35640D01*
X196552Y35658D01*
X196565Y35673D01*
X196604Y35769D01*
X196647Y35863D01*
X196649Y35883D01*
X196657Y35901D01*
X196675Y36068D01*
X196675Y50382D01*
X197568Y51275D01*
X197866Y51275D01*
X197886Y51278D01*
X197905Y51276D01*
X198007Y51298D01*
X198109Y51314D01*
X198126Y51324D01*
X198146Y51328D01*
X198235Y51381D01*
X198326Y51430D01*
X198340Y51444D01*
X198357Y51454D01*
X198424Y51533D01*
X198496Y51608D01*
X198504Y51626D01*
X198517Y51641D01*
X198556Y51737D01*
X198599Y51831D01*
X198601Y51851D01*
X198609Y51869D01*
X198627Y52036D01*
X198627Y54944D01*
X198624Y54964D01*
X198626Y54983D01*
X198604Y55085D01*
X198588Y55187D01*
X198578Y55204D01*
X198574Y55224D01*
X198521Y55313D01*
X198472Y55404D01*
X198458Y55418D01*
X198448Y55435D01*
X198369Y55502D01*
X198294Y55574D01*
X198276Y55582D01*
X198261Y55595D01*
X198165Y55634D01*
X198071Y55677D01*
X198051Y55679D01*
X198033Y55687D01*
X197866Y55705D01*
X193814Y55705D01*
X193751Y55725D01*
X193667Y55759D01*
X193626Y55763D01*
X193603Y55770D01*
X193571Y55769D01*
X193500Y55777D01*
X191961Y55777D01*
X191941Y55774D01*
X191922Y55776D01*
X191820Y55754D01*
X191718Y55738D01*
X191701Y55728D01*
X191681Y55724D01*
X191592Y55671D01*
X191501Y55622D01*
X191487Y55608D01*
X191470Y55598D01*
X191403Y55519D01*
X191331Y55444D01*
X191323Y55426D01*
X191310Y55411D01*
X191271Y55315D01*
X191228Y55221D01*
X191226Y55201D01*
X191218Y55183D01*
X191200Y55016D01*
X191200Y54718D01*
X190307Y53825D01*
X175043Y53825D01*
X174150Y54718D01*
X174150Y65982D01*
X175043Y66875D01*
X190307Y66875D01*
X191200Y65982D01*
X191200Y65684D01*
X191203Y65664D01*
X191201Y65645D01*
X191223Y65543D01*
X191239Y65441D01*
X191249Y65424D01*
X191253Y65404D01*
X191306Y65315D01*
X191355Y65224D01*
X191369Y65210D01*
X191379Y65193D01*
X191458Y65126D01*
X191533Y65054D01*
X191551Y65046D01*
X191566Y65033D01*
X191662Y64994D01*
X191756Y64951D01*
X191776Y64949D01*
X191794Y64941D01*
X191961Y64923D01*
X195389Y64923D01*
X195409Y64926D01*
X195428Y64924D01*
X195530Y64946D01*
X195632Y64962D01*
X195649Y64972D01*
X195669Y64976D01*
X195758Y65029D01*
X195849Y65078D01*
X195863Y65092D01*
X195880Y65102D01*
X195947Y65181D01*
X196019Y65256D01*
X196027Y65274D01*
X196040Y65289D01*
X196079Y65385D01*
X196122Y65479D01*
X196124Y65499D01*
X196132Y65517D01*
X196150Y65684D01*
X196150Y75482D01*
X197043Y76375D01*
X200025Y76375D01*
X200045Y76378D01*
X200064Y76376D01*
X200166Y76398D01*
X200268Y76414D01*
X200285Y76424D01*
X200305Y76428D01*
X200394Y76481D01*
X200485Y76530D01*
X200499Y76544D01*
X200516Y76554D01*
X200583Y76633D01*
X200655Y76708D01*
X200663Y76726D01*
X200676Y76741D01*
X200715Y76837D01*
X200758Y76931D01*
X200760Y76951D01*
X200768Y76969D01*
X200786Y77136D01*
X200786Y107017D01*
X200772Y107107D01*
X200764Y107198D01*
X200752Y107228D01*
X200747Y107260D01*
X200704Y107341D01*
X200668Y107424D01*
X200642Y107457D01*
X200631Y107477D01*
X200608Y107499D01*
X200563Y107555D01*
X200100Y108018D01*
X200100Y118782D01*
X200993Y119675D01*
X211757Y119675D01*
X212650Y118782D01*
X212650Y108018D01*
X212187Y107555D01*
X212134Y107481D01*
X212074Y107412D01*
X212062Y107382D01*
X212043Y107356D01*
X212016Y107269D01*
X211982Y107184D01*
X211978Y107143D01*
X211971Y107121D01*
X211972Y107088D01*
X211964Y107017D01*
X211964Y77033D01*
X211978Y76943D01*
X211986Y76852D01*
X211998Y76822D01*
X212003Y76790D01*
X212046Y76709D01*
X212082Y76626D01*
X212108Y76593D01*
X212119Y76573D01*
X212142Y76551D01*
X212187Y76495D01*
X213200Y75482D01*
X213200Y65684D01*
X213203Y65664D01*
X213201Y65645D01*
X213223Y65543D01*
X213239Y65441D01*
X213249Y65424D01*
X213253Y65404D01*
X213306Y65315D01*
X213355Y65224D01*
X213369Y65210D01*
X213379Y65193D01*
X213458Y65126D01*
X213533Y65054D01*
X213551Y65046D01*
X213566Y65033D01*
X213662Y64994D01*
X213756Y64951D01*
X213776Y64949D01*
X213794Y64941D01*
X213961Y64923D01*
X214664Y64923D01*
X214684Y64926D01*
X214703Y64924D01*
X214805Y64946D01*
X214907Y64962D01*
X214924Y64972D01*
X214944Y64976D01*
X215033Y65029D01*
X215124Y65078D01*
X215138Y65092D01*
X215155Y65102D01*
X215222Y65181D01*
X215294Y65256D01*
X215302Y65274D01*
X215315Y65289D01*
X215354Y65385D01*
X215397Y65479D01*
X215399Y65499D01*
X215407Y65517D01*
X215425Y65684D01*
X215425Y65982D01*
X216318Y66875D01*
X231582Y66875D01*
X232475Y65982D01*
X232475Y54718D01*
X231582Y53825D01*
X216318Y53825D01*
X215425Y54718D01*
X215425Y54944D01*
X215422Y54964D01*
X215424Y54983D01*
X215402Y55085D01*
X215386Y55187D01*
X215376Y55204D01*
X215372Y55224D01*
X215319Y55313D01*
X215270Y55404D01*
X215256Y55418D01*
X215246Y55435D01*
X215167Y55502D01*
X215092Y55574D01*
X215074Y55582D01*
X215059Y55595D01*
X214963Y55634D01*
X214869Y55677D01*
X214849Y55679D01*
X214831Y55687D01*
X214664Y55705D01*
X208534Y55705D01*
X208514Y55702D01*
X208495Y55704D01*
X208393Y55682D01*
X208291Y55666D01*
X208274Y55656D01*
X208254Y55652D01*
X208165Y55599D01*
X208074Y55550D01*
X208060Y55536D01*
X208043Y55526D01*
X207976Y55447D01*
X207904Y55372D01*
X207896Y55354D01*
X207883Y55339D01*
X207844Y55243D01*
X207801Y55149D01*
X207799Y55129D01*
X207791Y55111D01*
X207773Y54944D01*
X207773Y52036D01*
X207776Y52016D01*
X207774Y51997D01*
X207796Y51895D01*
X207812Y51793D01*
X207822Y51776D01*
X207826Y51756D01*
X207879Y51667D01*
X207928Y51576D01*
X207942Y51562D01*
X207952Y51545D01*
X208031Y51478D01*
X208106Y51406D01*
X208124Y51398D01*
X208139Y51385D01*
X208235Y51346D01*
X208329Y51303D01*
X208349Y51301D01*
X208367Y51293D01*
X208534Y51275D01*
X208832Y51275D01*
X209725Y50382D01*
X209725Y36068D01*
X209728Y36048D01*
X209726Y36029D01*
X209748Y35927D01*
X209764Y35825D01*
X209774Y35808D01*
X209778Y35788D01*
X209831Y35699D01*
X209880Y35608D01*
X209894Y35594D01*
X209904Y35577D01*
X209983Y35510D01*
X210058Y35438D01*
X210076Y35430D01*
X210091Y35417D01*
X210187Y35378D01*
X210281Y35335D01*
X210301Y35333D01*
X210319Y35325D01*
X210486Y35307D01*
X266723Y35307D01*
X269030Y33000D01*
X272532Y29498D01*
X272606Y29445D01*
X272676Y29385D01*
X272706Y29373D01*
X272732Y29354D01*
X272819Y29327D01*
X272904Y29293D01*
X272945Y29289D01*
X272967Y29282D01*
X272999Y29283D01*
X273071Y29275D01*
X281882Y29275D01*
X282775Y28382D01*
X282775Y13118D01*
X281882Y12225D01*
X270618Y12225D01*
X269725Y13118D01*
X269725Y21929D01*
X269711Y22020D01*
X269703Y22110D01*
X269691Y22140D01*
X269686Y22172D01*
X269643Y22253D01*
X269607Y22337D01*
X269581Y22369D01*
X269570Y22390D01*
X269547Y22412D01*
X269502Y22468D01*
X264000Y27970D01*
X263926Y28023D01*
X263856Y28083D01*
X263826Y28095D01*
X263800Y28114D01*
X263713Y28141D01*
X263628Y28175D01*
X263587Y28179D01*
X263565Y28186D01*
X263533Y28185D01*
X263461Y28193D01*
X221002Y28193D01*
X220982Y28190D01*
X220963Y28192D01*
X220861Y28170D01*
X220759Y28154D01*
X220742Y28144D01*
X220722Y28140D01*
X220633Y28087D01*
X220542Y28038D01*
X220528Y28024D01*
X220511Y28014D01*
X220444Y27935D01*
X220372Y27860D01*
X220364Y27842D01*
X220351Y27827D01*
X220312Y27731D01*
X220269Y27637D01*
X220267Y27617D01*
X220259Y27599D01*
X220241Y27432D01*
X220241Y22273D01*
X213462Y22273D01*
X213442Y22270D01*
X213423Y22272D01*
X213321Y22250D01*
X213219Y22233D01*
X213202Y22224D01*
X213182Y22220D01*
X213093Y22167D01*
X213002Y22118D01*
X212988Y22104D01*
X212971Y22094D01*
X212904Y22015D01*
X212833Y21940D01*
X212824Y21922D01*
X212811Y21907D01*
X212772Y21810D01*
X212729Y21717D01*
X212727Y21697D01*
X212719Y21679D01*
X212701Y21512D01*
X212701Y20749D01*
X212699Y20749D01*
X212699Y21512D01*
X212696Y21532D01*
X212698Y21551D01*
X212676Y21653D01*
X212659Y21755D01*
X212650Y21772D01*
X212646Y21792D01*
X212593Y21881D01*
X212544Y21972D01*
X212530Y21986D01*
X212520Y22003D01*
X212441Y22070D01*
X212366Y22141D01*
X212348Y22150D01*
X212333Y22163D01*
X212237Y22202D01*
X212143Y22245D01*
X212123Y22247D01*
X212105Y22255D01*
X211938Y22273D01*
X205159Y22273D01*
X205159Y27432D01*
X205158Y27443D01*
X205158Y27449D01*
X205157Y27457D01*
X205158Y27471D01*
X205136Y27573D01*
X205120Y27675D01*
X205110Y27692D01*
X205106Y27712D01*
X205053Y27801D01*
X205004Y27892D01*
X204990Y27906D01*
X204980Y27923D01*
X204901Y27990D01*
X204826Y28062D01*
X204808Y28070D01*
X204793Y28083D01*
X204697Y28122D01*
X204603Y28165D01*
X204583Y28167D01*
X204565Y28175D01*
X204398Y28193D01*
X200986Y28193D01*
X200966Y28190D01*
X200947Y28192D01*
X200845Y28170D01*
X200743Y28154D01*
X200726Y28144D01*
X200706Y28140D01*
X200617Y28087D01*
X200526Y28038D01*
X200512Y28024D01*
X200495Y28014D01*
X200428Y27935D01*
X200356Y27860D01*
X200348Y27842D01*
X200335Y27827D01*
X200296Y27731D01*
X200253Y27637D01*
X200251Y27617D01*
X200243Y27599D01*
X200225Y27432D01*
X200225Y13118D01*
X199332Y12225D01*
X188068Y12225D01*
X187175Y13118D01*
X187175Y27432D01*
X187174Y27443D01*
X187174Y27449D01*
X187173Y27457D01*
X187174Y27471D01*
X187152Y27573D01*
X187136Y27675D01*
X187126Y27692D01*
X187122Y27712D01*
X187069Y27801D01*
X187020Y27892D01*
X187006Y27906D01*
X186996Y27923D01*
X186917Y27990D01*
X186842Y28062D01*
X186824Y28070D01*
X186809Y28083D01*
X186713Y28122D01*
X186619Y28165D01*
X186599Y28167D01*
X186581Y28175D01*
X186414Y28193D01*
X138452Y28193D01*
X138432Y28190D01*
X138413Y28192D01*
X138311Y28170D01*
X138209Y28154D01*
X138192Y28144D01*
X138172Y28140D01*
X138083Y28087D01*
X137992Y28038D01*
X137978Y28024D01*
X137961Y28014D01*
X137894Y27935D01*
X137822Y27860D01*
X137814Y27842D01*
X137801Y27827D01*
X137762Y27731D01*
X137719Y27637D01*
X137717Y27617D01*
X137709Y27599D01*
X137691Y27432D01*
X137691Y22273D01*
X130912Y22273D01*
X130892Y22270D01*
X130873Y22272D01*
X130771Y22250D01*
X130669Y22233D01*
X130652Y22224D01*
X130632Y22220D01*
X130543Y22167D01*
X130452Y22118D01*
X130438Y22104D01*
X130421Y22094D01*
X130354Y22015D01*
X130283Y21940D01*
X130274Y21922D01*
X130261Y21907D01*
X130222Y21810D01*
X130179Y21717D01*
X130177Y21697D01*
X130169Y21679D01*
X130151Y21512D01*
X130151Y20749D01*
X130149Y20749D01*
X130149Y21512D01*
X130146Y21532D01*
X130148Y21551D01*
X130126Y21653D01*
X130109Y21755D01*
X130100Y21772D01*
X130096Y21792D01*
X130043Y21881D01*
X129994Y21972D01*
X129980Y21986D01*
X129970Y22003D01*
X129891Y22070D01*
X129816Y22141D01*
X129798Y22150D01*
X129783Y22163D01*
X129687Y22202D01*
X129593Y22245D01*
X129573Y22247D01*
X129555Y22255D01*
X129388Y22273D01*
X122609Y22273D01*
X122609Y27432D01*
X122608Y27443D01*
X122608Y27449D01*
X122607Y27457D01*
X122608Y27471D01*
X122586Y27573D01*
X122570Y27675D01*
X122560Y27692D01*
X122556Y27712D01*
X122503Y27801D01*
X122454Y27892D01*
X122440Y27906D01*
X122430Y27923D01*
X122351Y27990D01*
X122276Y28062D01*
X122258Y28070D01*
X122243Y28083D01*
X122147Y28122D01*
X122053Y28165D01*
X122033Y28167D01*
X122015Y28175D01*
X121848Y28193D01*
X118436Y28193D01*
X118416Y28190D01*
X118397Y28192D01*
X118295Y28170D01*
X118193Y28154D01*
X118176Y28144D01*
X118156Y28140D01*
X118067Y28087D01*
X117976Y28038D01*
X117962Y28024D01*
X117945Y28014D01*
X117878Y27935D01*
X117806Y27860D01*
X117798Y27842D01*
X117785Y27827D01*
X117746Y27731D01*
X117703Y27637D01*
X117701Y27617D01*
X117693Y27599D01*
X117675Y27432D01*
X117675Y13118D01*
X116782Y12225D01*
X105518Y12225D01*
X104625Y13118D01*
X104625Y27432D01*
X104624Y27443D01*
X104624Y27449D01*
X104623Y27457D01*
X104624Y27471D01*
X104602Y27573D01*
X104586Y27675D01*
X104576Y27692D01*
X104572Y27712D01*
X104519Y27801D01*
X104470Y27892D01*
X104456Y27906D01*
X104446Y27923D01*
X104367Y27990D01*
X104292Y28062D01*
X104274Y28070D01*
X104259Y28083D01*
X104163Y28122D01*
X104069Y28165D01*
X104049Y28167D01*
X104031Y28175D01*
X103864Y28193D01*
X100127Y28193D01*
X89350Y38970D01*
X89276Y39023D01*
X89206Y39083D01*
X89176Y39095D01*
X89150Y39114D01*
X89063Y39141D01*
X88978Y39175D01*
X88937Y39179D01*
X88915Y39186D01*
X88883Y39185D01*
X88811Y39193D01*
X83486Y39193D01*
X83466Y39190D01*
X83447Y39192D01*
X83345Y39170D01*
X83243Y39154D01*
X83226Y39144D01*
X83206Y39140D01*
X83117Y39087D01*
X83026Y39038D01*
X83012Y39024D01*
X82995Y39014D01*
X82928Y38935D01*
X82856Y38860D01*
X82848Y38842D01*
X82835Y38827D01*
X82796Y38731D01*
X82753Y38637D01*
X82751Y38617D01*
X82743Y38599D01*
X82725Y38432D01*
X82725Y35118D01*
X81832Y34225D01*
X80518Y34225D01*
X80498Y34222D01*
X80479Y34224D01*
X80377Y34202D01*
X80275Y34186D01*
X80258Y34176D01*
X80238Y34172D01*
X80149Y34119D01*
X80058Y34070D01*
X80044Y34056D01*
X80027Y34046D01*
X79960Y33967D01*
X79888Y33892D01*
X79880Y33874D01*
X79867Y33859D01*
X79828Y33763D01*
X79785Y33669D01*
X79783Y33649D01*
X79775Y33631D01*
X79757Y33464D01*
X79757Y31052D01*
X79760Y31032D01*
X79758Y31013D01*
X79780Y30911D01*
X79796Y30809D01*
X79806Y30792D01*
X79810Y30772D01*
X79863Y30683D01*
X79912Y30592D01*
X79926Y30578D01*
X79936Y30561D01*
X80015Y30494D01*
X80090Y30422D01*
X80108Y30414D01*
X80123Y30401D01*
X80219Y30362D01*
X80313Y30319D01*
X80333Y30317D01*
X80351Y30309D01*
X80518Y30291D01*
X84177Y30291D01*
X84177Y22273D01*
X78159Y22273D01*
X78159Y25341D01*
X78148Y25412D01*
X78146Y25484D01*
X78128Y25533D01*
X78120Y25584D01*
X78086Y25648D01*
X78061Y25715D01*
X78029Y25756D01*
X78004Y25802D01*
X77952Y25851D01*
X77908Y25907D01*
X77864Y25935D01*
X77826Y25971D01*
X77761Y26001D01*
X77701Y26040D01*
X77650Y26053D01*
X77603Y26075D01*
X77532Y26083D01*
X77462Y26100D01*
X77410Y26096D01*
X77359Y26102D01*
X77288Y26086D01*
X77217Y26081D01*
X77169Y26061D01*
X77118Y26049D01*
X77057Y26013D01*
X76991Y25985D01*
X76935Y25940D01*
X76907Y25923D01*
X76892Y25905D01*
X76860Y25880D01*
X73448Y22468D01*
X73395Y22394D01*
X73335Y22324D01*
X73323Y22294D01*
X73304Y22268D01*
X73277Y22181D01*
X73243Y22096D01*
X73239Y22055D01*
X73232Y22033D01*
X73233Y22001D01*
X73225Y21929D01*
X73225Y13118D01*
X72332Y12225D01*
X61068Y12225D01*
G37*
%LPD*%
%LPC*%
G36*
X70818Y77175D02*
X70818Y77175D01*
X69925Y78068D01*
X69925Y79350D01*
X69922Y79370D01*
X69924Y79389D01*
X69902Y79491D01*
X69886Y79593D01*
X69876Y79610D01*
X69872Y79630D01*
X69819Y79719D01*
X69770Y79810D01*
X69756Y79824D01*
X69746Y79841D01*
X69667Y79908D01*
X69592Y79980D01*
X69574Y79988D01*
X69559Y80001D01*
X69463Y80040D01*
X69369Y80083D01*
X69349Y80085D01*
X69331Y80093D01*
X69164Y80111D01*
X58683Y80111D01*
X58593Y80097D01*
X58502Y80089D01*
X58472Y80077D01*
X58440Y80072D01*
X58359Y80029D01*
X58276Y79993D01*
X58243Y79967D01*
X58223Y79956D01*
X58201Y79933D01*
X58145Y79888D01*
X57932Y79675D01*
X43668Y79675D01*
X42775Y80568D01*
X42775Y82550D01*
X42772Y82570D01*
X42774Y82589D01*
X42752Y82691D01*
X42736Y82793D01*
X42726Y82810D01*
X42722Y82830D01*
X42669Y82919D01*
X42620Y83010D01*
X42606Y83024D01*
X42596Y83041D01*
X42517Y83108D01*
X42442Y83180D01*
X42424Y83188D01*
X42409Y83201D01*
X42313Y83240D01*
X42219Y83283D01*
X42199Y83285D01*
X42181Y83293D01*
X42014Y83311D01*
X29583Y83311D01*
X29493Y83297D01*
X29402Y83289D01*
X29372Y83277D01*
X29340Y83272D01*
X29259Y83229D01*
X29176Y83193D01*
X29143Y83167D01*
X29123Y83156D01*
X29101Y83133D01*
X29045Y83088D01*
X23680Y77723D01*
X14420Y77723D01*
X7873Y84270D01*
X7873Y93530D01*
X14420Y100077D01*
X23680Y100077D01*
X29045Y94712D01*
X29119Y94659D01*
X29188Y94599D01*
X29218Y94587D01*
X29244Y94568D01*
X29331Y94541D01*
X29416Y94507D01*
X29457Y94503D01*
X29479Y94496D01*
X29512Y94497D01*
X29583Y94489D01*
X48712Y94489D01*
X50766Y93638D01*
X52456Y91948D01*
X52530Y91895D01*
X52599Y91835D01*
X52629Y91823D01*
X52656Y91804D01*
X52743Y91777D01*
X52828Y91743D01*
X52868Y91739D01*
X52891Y91732D01*
X52923Y91733D01*
X52994Y91725D01*
X57932Y91725D01*
X58145Y91512D01*
X58219Y91459D01*
X58288Y91399D01*
X58318Y91387D01*
X58344Y91368D01*
X58431Y91341D01*
X58516Y91307D01*
X58557Y91303D01*
X58579Y91296D01*
X58612Y91297D01*
X58683Y91289D01*
X70632Y91289D01*
X70746Y91308D01*
X70863Y91325D01*
X70868Y91327D01*
X70874Y91328D01*
X70977Y91383D01*
X71082Y91436D01*
X71086Y91441D01*
X71092Y91444D01*
X71172Y91528D01*
X71254Y91612D01*
X71258Y91618D01*
X71261Y91622D01*
X71269Y91639D01*
X71335Y91759D01*
X71462Y92066D01*
X113159Y133763D01*
X115213Y134614D01*
X165087Y134614D01*
X166007Y134233D01*
X166070Y134218D01*
X166131Y134193D01*
X166214Y134184D01*
X166246Y134177D01*
X166265Y134178D01*
X166298Y134175D01*
X170482Y134175D01*
X170945Y133712D01*
X171019Y133659D01*
X171088Y133599D01*
X171118Y133587D01*
X171144Y133568D01*
X171231Y133541D01*
X171316Y133507D01*
X171357Y133503D01*
X171379Y133496D01*
X171412Y133497D01*
X171483Y133489D01*
X199992Y133489D01*
X200082Y133503D01*
X200173Y133511D01*
X200203Y133523D01*
X200235Y133528D01*
X200316Y133571D01*
X200399Y133607D01*
X200432Y133633D01*
X200452Y133644D01*
X200474Y133667D01*
X200530Y133712D01*
X200993Y134175D01*
X211757Y134175D01*
X212220Y133712D01*
X212294Y133659D01*
X212363Y133599D01*
X212393Y133587D01*
X212419Y133568D01*
X212506Y133541D01*
X212591Y133507D01*
X212632Y133503D01*
X212654Y133496D01*
X212687Y133497D01*
X212758Y133489D01*
X219417Y133489D01*
X219507Y133503D01*
X219598Y133511D01*
X219628Y133523D01*
X219660Y133528D01*
X219741Y133571D01*
X219824Y133607D01*
X219857Y133633D01*
X219877Y133644D01*
X219899Y133667D01*
X219955Y133712D01*
X220793Y134550D01*
X224007Y134550D01*
X224072Y134560D01*
X224138Y134561D01*
X224218Y134584D01*
X224250Y134589D01*
X224267Y134599D01*
X224299Y134608D01*
X224313Y134614D01*
X247637Y134614D01*
X248557Y134233D01*
X248620Y134218D01*
X248681Y134193D01*
X248764Y134184D01*
X248796Y134177D01*
X248815Y134178D01*
X248848Y134175D01*
X253032Y134175D01*
X253495Y133712D01*
X253569Y133659D01*
X253638Y133599D01*
X253668Y133587D01*
X253694Y133568D01*
X253781Y133541D01*
X253866Y133507D01*
X253907Y133503D01*
X253929Y133496D01*
X253962Y133497D01*
X254033Y133489D01*
X282542Y133489D01*
X282632Y133503D01*
X282723Y133511D01*
X282753Y133523D01*
X282785Y133528D01*
X282866Y133571D01*
X282949Y133607D01*
X282982Y133633D01*
X283002Y133644D01*
X283024Y133667D01*
X283080Y133712D01*
X283543Y134175D01*
X294307Y134175D01*
X294770Y133712D01*
X294844Y133659D01*
X294913Y133599D01*
X294943Y133587D01*
X294969Y133568D01*
X295056Y133541D01*
X295141Y133507D01*
X295182Y133503D01*
X295204Y133496D01*
X295237Y133497D01*
X295308Y133489D01*
X301967Y133489D01*
X302057Y133503D01*
X302148Y133511D01*
X302178Y133523D01*
X302210Y133528D01*
X302291Y133571D01*
X302374Y133607D01*
X302407Y133633D01*
X302427Y133644D01*
X302449Y133667D01*
X302505Y133712D01*
X303343Y134550D01*
X306557Y134550D01*
X306622Y134560D01*
X306688Y134561D01*
X306768Y134584D01*
X306800Y134589D01*
X306817Y134599D01*
X306849Y134608D01*
X306863Y134614D01*
X330187Y134614D01*
X331107Y134233D01*
X331170Y134218D01*
X331231Y134193D01*
X331314Y134184D01*
X331346Y134177D01*
X331365Y134178D01*
X331398Y134175D01*
X335582Y134175D01*
X336045Y133712D01*
X336119Y133659D01*
X336188Y133599D01*
X336218Y133587D01*
X336244Y133568D01*
X336331Y133541D01*
X336416Y133507D01*
X336457Y133503D01*
X336479Y133496D01*
X336512Y133497D01*
X336583Y133489D01*
X355837Y133489D01*
X356757Y133108D01*
X356820Y133093D01*
X356881Y133068D01*
X356964Y133059D01*
X356996Y133052D01*
X357015Y133053D01*
X357048Y133050D01*
X362732Y133050D01*
X363625Y132157D01*
X363625Y121893D01*
X362732Y121000D01*
X361950Y121000D01*
X361930Y120997D01*
X361911Y120999D01*
X361809Y120977D01*
X361707Y120961D01*
X361690Y120951D01*
X361670Y120947D01*
X361581Y120894D01*
X361490Y120845D01*
X361476Y120831D01*
X361459Y120821D01*
X361392Y120742D01*
X361320Y120667D01*
X361312Y120649D01*
X361299Y120634D01*
X361260Y120538D01*
X361217Y120444D01*
X361215Y120424D01*
X361207Y120406D01*
X361189Y120239D01*
X361189Y102433D01*
X361203Y102343D01*
X361211Y102252D01*
X361223Y102222D01*
X361228Y102190D01*
X361271Y102109D01*
X361307Y102026D01*
X361333Y101993D01*
X361344Y101973D01*
X361367Y101951D01*
X361412Y101895D01*
X362125Y101182D01*
X362125Y85918D01*
X361232Y85025D01*
X349968Y85025D01*
X349075Y85918D01*
X349075Y101182D01*
X349788Y101895D01*
X349841Y101969D01*
X349901Y102038D01*
X349913Y102068D01*
X349932Y102094D01*
X349959Y102181D01*
X349993Y102266D01*
X349997Y102307D01*
X350004Y102329D01*
X350003Y102362D01*
X350011Y102433D01*
X350011Y120239D01*
X350008Y120259D01*
X350010Y120278D01*
X349988Y120380D01*
X349972Y120482D01*
X349962Y120499D01*
X349958Y120519D01*
X349905Y120608D01*
X349856Y120699D01*
X349842Y120713D01*
X349832Y120730D01*
X349753Y120797D01*
X349678Y120869D01*
X349660Y120877D01*
X349645Y120890D01*
X349549Y120929D01*
X349455Y120972D01*
X349435Y120974D01*
X349417Y120982D01*
X349250Y121000D01*
X348468Y121000D01*
X347380Y122088D01*
X347306Y122141D01*
X347237Y122201D01*
X347207Y122213D01*
X347181Y122232D01*
X347094Y122259D01*
X347009Y122293D01*
X346968Y122297D01*
X346946Y122304D01*
X346913Y122303D01*
X346842Y122311D01*
X336583Y122311D01*
X336493Y122297D01*
X336402Y122289D01*
X336372Y122277D01*
X336340Y122272D01*
X336259Y122229D01*
X336176Y122193D01*
X336143Y122167D01*
X336123Y122156D01*
X336101Y122133D01*
X336045Y122088D01*
X335582Y121625D01*
X324818Y121625D01*
X323925Y122518D01*
X323925Y122675D01*
X323922Y122695D01*
X323924Y122714D01*
X323902Y122816D01*
X323886Y122918D01*
X323876Y122935D01*
X323872Y122955D01*
X323819Y123044D01*
X323770Y123135D01*
X323756Y123149D01*
X323746Y123166D01*
X323667Y123233D01*
X323592Y123305D01*
X323574Y123313D01*
X323559Y123326D01*
X323463Y123365D01*
X323369Y123408D01*
X323349Y123410D01*
X323331Y123418D01*
X323164Y123436D01*
X310605Y123436D01*
X310515Y123422D01*
X310424Y123414D01*
X310394Y123402D01*
X310363Y123397D01*
X310282Y123354D01*
X310198Y123318D01*
X310166Y123292D01*
X310145Y123281D01*
X310123Y123258D01*
X310067Y123213D01*
X310016Y123162D01*
X307962Y122311D01*
X295308Y122311D01*
X295218Y122297D01*
X295127Y122289D01*
X295097Y122277D01*
X295065Y122272D01*
X294984Y122229D01*
X294901Y122193D01*
X294868Y122167D01*
X294848Y122156D01*
X294826Y122133D01*
X294770Y122088D01*
X294307Y121625D01*
X283543Y121625D01*
X283080Y122088D01*
X283006Y122141D01*
X282937Y122201D01*
X282907Y122213D01*
X282881Y122232D01*
X282794Y122259D01*
X282709Y122293D01*
X282668Y122297D01*
X282646Y122304D01*
X282613Y122303D01*
X282542Y122311D01*
X254033Y122311D01*
X253943Y122297D01*
X253852Y122289D01*
X253822Y122277D01*
X253790Y122272D01*
X253709Y122229D01*
X253626Y122193D01*
X253593Y122167D01*
X253573Y122156D01*
X253551Y122133D01*
X253495Y122088D01*
X253032Y121625D01*
X242268Y121625D01*
X241375Y122518D01*
X241375Y122675D01*
X241372Y122695D01*
X241374Y122714D01*
X241352Y122816D01*
X241336Y122918D01*
X241326Y122935D01*
X241322Y122955D01*
X241269Y123044D01*
X241220Y123135D01*
X241206Y123149D01*
X241196Y123166D01*
X241117Y123233D01*
X241042Y123305D01*
X241024Y123313D01*
X241009Y123326D01*
X240913Y123365D01*
X240819Y123408D01*
X240799Y123410D01*
X240781Y123418D01*
X240614Y123436D01*
X228055Y123436D01*
X227965Y123422D01*
X227874Y123414D01*
X227844Y123402D01*
X227813Y123397D01*
X227732Y123354D01*
X227648Y123318D01*
X227616Y123292D01*
X227595Y123281D01*
X227573Y123258D01*
X227517Y123213D01*
X227466Y123162D01*
X225412Y122311D01*
X212758Y122311D01*
X212668Y122297D01*
X212577Y122289D01*
X212547Y122277D01*
X212515Y122272D01*
X212434Y122229D01*
X212351Y122193D01*
X212318Y122167D01*
X212298Y122156D01*
X212276Y122133D01*
X212220Y122088D01*
X211757Y121625D01*
X200993Y121625D01*
X200530Y122088D01*
X200456Y122141D01*
X200387Y122201D01*
X200357Y122213D01*
X200331Y122232D01*
X200244Y122259D01*
X200159Y122293D01*
X200118Y122297D01*
X200096Y122304D01*
X200063Y122303D01*
X199992Y122311D01*
X171483Y122311D01*
X171393Y122297D01*
X171302Y122289D01*
X171272Y122277D01*
X171240Y122272D01*
X171159Y122229D01*
X171076Y122193D01*
X171043Y122167D01*
X171023Y122156D01*
X171001Y122133D01*
X170945Y122088D01*
X170482Y121625D01*
X159718Y121625D01*
X158825Y122518D01*
X158825Y122675D01*
X158822Y122695D01*
X158824Y122714D01*
X158802Y122816D01*
X158786Y122918D01*
X158776Y122935D01*
X158772Y122955D01*
X158719Y123044D01*
X158670Y123135D01*
X158656Y123149D01*
X158646Y123166D01*
X158567Y123233D01*
X158492Y123305D01*
X158474Y123313D01*
X158459Y123326D01*
X158363Y123365D01*
X158269Y123408D01*
X158249Y123410D01*
X158231Y123418D01*
X158064Y123436D01*
X130861Y123436D01*
X130841Y123433D01*
X130822Y123435D01*
X130720Y123413D01*
X130618Y123397D01*
X130601Y123387D01*
X130581Y123383D01*
X130492Y123330D01*
X130401Y123281D01*
X130387Y123267D01*
X130370Y123257D01*
X130303Y123178D01*
X130231Y123103D01*
X130223Y123085D01*
X130210Y123070D01*
X130171Y122974D01*
X130128Y122880D01*
X130126Y122860D01*
X130118Y122842D01*
X130100Y122675D01*
X130100Y122518D01*
X129207Y121625D01*
X118443Y121625D01*
X118174Y121894D01*
X118158Y121906D01*
X118146Y121921D01*
X118058Y121978D01*
X117975Y122038D01*
X117956Y122044D01*
X117939Y122054D01*
X117838Y122080D01*
X117740Y122110D01*
X117720Y122110D01*
X117700Y122114D01*
X117597Y122106D01*
X117494Y122104D01*
X117475Y122097D01*
X117455Y122095D01*
X117360Y122055D01*
X117263Y122019D01*
X117247Y122007D01*
X117229Y121999D01*
X117098Y121894D01*
X82698Y87494D01*
X82645Y87420D01*
X82585Y87351D01*
X82573Y87320D01*
X82554Y87294D01*
X82527Y87207D01*
X82493Y87122D01*
X82489Y87082D01*
X82482Y87059D01*
X82483Y87027D01*
X82475Y86956D01*
X82475Y78068D01*
X81582Y77175D01*
X70818Y77175D01*
G37*
%LPD*%
%LPC*%
G36*
X280118Y34225D02*
X280118Y34225D01*
X279225Y35118D01*
X279225Y50382D01*
X280118Y51275D01*
X280416Y51275D01*
X280436Y51278D01*
X280455Y51276D01*
X280557Y51298D01*
X280659Y51314D01*
X280676Y51324D01*
X280696Y51328D01*
X280785Y51381D01*
X280876Y51430D01*
X280890Y51444D01*
X280907Y51454D01*
X280974Y51533D01*
X281046Y51608D01*
X281054Y51626D01*
X281067Y51641D01*
X281106Y51737D01*
X281149Y51831D01*
X281151Y51851D01*
X281159Y51869D01*
X281177Y52036D01*
X281177Y54944D01*
X281174Y54964D01*
X281176Y54983D01*
X281154Y55085D01*
X281138Y55187D01*
X281128Y55204D01*
X281124Y55224D01*
X281071Y55313D01*
X281022Y55404D01*
X281008Y55418D01*
X280998Y55435D01*
X280919Y55502D01*
X280844Y55574D01*
X280826Y55582D01*
X280811Y55595D01*
X280715Y55634D01*
X280621Y55677D01*
X280601Y55679D01*
X280583Y55687D01*
X280416Y55705D01*
X276364Y55705D01*
X276301Y55725D01*
X276216Y55759D01*
X276176Y55763D01*
X276153Y55770D01*
X276121Y55769D01*
X276050Y55777D01*
X274511Y55777D01*
X274491Y55774D01*
X274472Y55776D01*
X274370Y55754D01*
X274268Y55738D01*
X274251Y55728D01*
X274231Y55724D01*
X274142Y55671D01*
X274051Y55622D01*
X274037Y55608D01*
X274020Y55598D01*
X273953Y55519D01*
X273881Y55444D01*
X273873Y55426D01*
X273860Y55411D01*
X273821Y55315D01*
X273778Y55221D01*
X273776Y55201D01*
X273768Y55183D01*
X273750Y55016D01*
X273750Y54718D01*
X272857Y53825D01*
X257593Y53825D01*
X256700Y54718D01*
X256700Y65982D01*
X257593Y66875D01*
X272857Y66875D01*
X273750Y65982D01*
X273750Y65684D01*
X273753Y65664D01*
X273751Y65645D01*
X273773Y65543D01*
X273789Y65441D01*
X273799Y65424D01*
X273803Y65404D01*
X273856Y65315D01*
X273905Y65224D01*
X273919Y65210D01*
X273929Y65193D01*
X274008Y65126D01*
X274083Y65054D01*
X274101Y65046D01*
X274116Y65033D01*
X274212Y64994D01*
X274306Y64951D01*
X274326Y64949D01*
X274344Y64941D01*
X274511Y64923D01*
X277939Y64923D01*
X277959Y64926D01*
X277978Y64924D01*
X278080Y64946D01*
X278182Y64962D01*
X278199Y64972D01*
X278219Y64976D01*
X278308Y65029D01*
X278399Y65078D01*
X278413Y65092D01*
X278430Y65102D01*
X278497Y65181D01*
X278569Y65256D01*
X278577Y65274D01*
X278590Y65289D01*
X278629Y65385D01*
X278672Y65479D01*
X278674Y65499D01*
X278682Y65517D01*
X278700Y65684D01*
X278700Y75482D01*
X279593Y76375D01*
X282575Y76375D01*
X282595Y76378D01*
X282614Y76376D01*
X282716Y76398D01*
X282818Y76414D01*
X282835Y76424D01*
X282855Y76428D01*
X282944Y76481D01*
X283035Y76530D01*
X283049Y76544D01*
X283066Y76554D01*
X283133Y76633D01*
X283205Y76708D01*
X283213Y76726D01*
X283226Y76741D01*
X283265Y76837D01*
X283308Y76931D01*
X283310Y76951D01*
X283318Y76969D01*
X283336Y77136D01*
X283336Y107017D01*
X283322Y107107D01*
X283314Y107198D01*
X283302Y107228D01*
X283297Y107260D01*
X283254Y107341D01*
X283218Y107424D01*
X283192Y107457D01*
X283181Y107477D01*
X283158Y107499D01*
X283113Y107555D01*
X282650Y108018D01*
X282650Y118782D01*
X283543Y119675D01*
X294307Y119675D01*
X295200Y118782D01*
X295200Y108018D01*
X294737Y107555D01*
X294684Y107481D01*
X294624Y107412D01*
X294612Y107382D01*
X294593Y107356D01*
X294566Y107269D01*
X294532Y107184D01*
X294528Y107143D01*
X294521Y107121D01*
X294522Y107088D01*
X294514Y107017D01*
X294514Y77033D01*
X294528Y76943D01*
X294536Y76852D01*
X294548Y76822D01*
X294553Y76790D01*
X294596Y76709D01*
X294632Y76626D01*
X294658Y76593D01*
X294669Y76573D01*
X294692Y76551D01*
X294737Y76495D01*
X295750Y75482D01*
X295750Y65684D01*
X295753Y65664D01*
X295751Y65645D01*
X295773Y65543D01*
X295789Y65441D01*
X295799Y65424D01*
X295803Y65404D01*
X295856Y65315D01*
X295905Y65224D01*
X295919Y65210D01*
X295929Y65193D01*
X296008Y65126D01*
X296083Y65054D01*
X296101Y65046D01*
X296116Y65033D01*
X296212Y64994D01*
X296306Y64951D01*
X296326Y64949D01*
X296344Y64941D01*
X296511Y64923D01*
X297214Y64923D01*
X297234Y64926D01*
X297253Y64924D01*
X297355Y64946D01*
X297457Y64962D01*
X297474Y64972D01*
X297494Y64976D01*
X297583Y65029D01*
X297674Y65078D01*
X297688Y65092D01*
X297705Y65102D01*
X297772Y65181D01*
X297844Y65256D01*
X297852Y65274D01*
X297865Y65289D01*
X297904Y65385D01*
X297947Y65479D01*
X297949Y65499D01*
X297957Y65517D01*
X297975Y65684D01*
X297975Y65982D01*
X298868Y66875D01*
X309035Y66875D01*
X309106Y66886D01*
X309178Y66888D01*
X309227Y66906D01*
X309278Y66914D01*
X309342Y66948D01*
X309409Y66973D01*
X309450Y67005D01*
X309495Y67030D01*
X309545Y67082D01*
X309601Y67127D01*
X309629Y67170D01*
X309665Y67208D01*
X309695Y67273D01*
X309734Y67334D01*
X309747Y67384D01*
X309768Y67431D01*
X309776Y67503D01*
X309794Y67572D01*
X309790Y67624D01*
X309795Y67675D01*
X309780Y67745D01*
X309780Y71930D01*
X309789Y71960D01*
X309788Y72032D01*
X309795Y72103D01*
X309784Y72154D01*
X309783Y72206D01*
X309759Y72273D01*
X309743Y72344D01*
X309717Y72388D01*
X309699Y72437D01*
X309654Y72493D01*
X309617Y72555D01*
X309578Y72589D01*
X309545Y72629D01*
X309485Y72668D01*
X309430Y72715D01*
X309382Y72734D01*
X309339Y72762D01*
X309269Y72780D01*
X309202Y72807D01*
X309131Y72815D01*
X309100Y72822D01*
X309077Y72821D01*
X309035Y72825D01*
X298868Y72825D01*
X297975Y73718D01*
X297975Y84982D01*
X298868Y85875D01*
X299974Y85875D01*
X299994Y85878D01*
X300013Y85876D01*
X300115Y85898D01*
X300217Y85914D01*
X300234Y85924D01*
X300254Y85928D01*
X300343Y85981D01*
X300434Y86030D01*
X300448Y86044D01*
X300465Y86054D01*
X300532Y86133D01*
X300604Y86208D01*
X300612Y86226D01*
X300625Y86241D01*
X300664Y86337D01*
X300707Y86431D01*
X300709Y86451D01*
X300717Y86469D01*
X300735Y86636D01*
X300735Y98922D01*
X300721Y99012D01*
X300713Y99103D01*
X300701Y99133D01*
X300696Y99165D01*
X300653Y99246D01*
X300617Y99329D01*
X300591Y99362D01*
X300580Y99382D01*
X300557Y99404D01*
X300512Y99460D01*
X300255Y99717D01*
X300255Y103483D01*
X302917Y106145D01*
X306683Y106145D01*
X309345Y103483D01*
X309345Y99717D01*
X309088Y99460D01*
X309035Y99387D01*
X308975Y99317D01*
X308963Y99287D01*
X308944Y99261D01*
X308917Y99174D01*
X308883Y99089D01*
X308879Y99048D01*
X308872Y99026D01*
X308873Y98993D01*
X308865Y98922D01*
X308865Y86636D01*
X308868Y86616D01*
X308866Y86597D01*
X308888Y86495D01*
X308904Y86393D01*
X308914Y86376D01*
X308918Y86356D01*
X308971Y86267D01*
X309020Y86176D01*
X309034Y86162D01*
X309044Y86145D01*
X309123Y86078D01*
X309198Y86006D01*
X309216Y85998D01*
X309231Y85985D01*
X309327Y85946D01*
X309421Y85903D01*
X309441Y85901D01*
X309459Y85893D01*
X309626Y85875D01*
X314132Y85875D01*
X315025Y84982D01*
X315025Y75156D01*
X315028Y75136D01*
X315026Y75117D01*
X315048Y75015D01*
X315064Y74913D01*
X315074Y74896D01*
X315078Y74876D01*
X315131Y74787D01*
X315180Y74696D01*
X315194Y74682D01*
X315204Y74665D01*
X315283Y74598D01*
X315358Y74526D01*
X315376Y74518D01*
X315391Y74505D01*
X315487Y74466D01*
X315581Y74423D01*
X315601Y74421D01*
X315619Y74413D01*
X315786Y74395D01*
X316208Y74395D01*
X316465Y74138D01*
X316538Y74085D01*
X316608Y74025D01*
X316638Y74013D01*
X316664Y73994D01*
X316751Y73967D01*
X316836Y73933D01*
X316877Y73929D01*
X316899Y73922D01*
X316932Y73923D01*
X317003Y73915D01*
X319214Y73915D01*
X319234Y73918D01*
X319253Y73916D01*
X319355Y73938D01*
X319457Y73954D01*
X319474Y73964D01*
X319494Y73968D01*
X319583Y74021D01*
X319674Y74070D01*
X319688Y74084D01*
X319705Y74094D01*
X319772Y74173D01*
X319844Y74248D01*
X319852Y74266D01*
X319865Y74281D01*
X319904Y74377D01*
X319947Y74471D01*
X319949Y74491D01*
X319957Y74509D01*
X319975Y74676D01*
X319975Y75482D01*
X320868Y76375D01*
X323850Y76375D01*
X323870Y76378D01*
X323889Y76376D01*
X323991Y76398D01*
X324093Y76414D01*
X324110Y76424D01*
X324130Y76428D01*
X324219Y76481D01*
X324310Y76530D01*
X324324Y76544D01*
X324341Y76554D01*
X324408Y76633D01*
X324480Y76708D01*
X324488Y76726D01*
X324501Y76741D01*
X324540Y76837D01*
X324583Y76931D01*
X324585Y76951D01*
X324593Y76969D01*
X324611Y77136D01*
X324611Y107017D01*
X324597Y107107D01*
X324589Y107198D01*
X324577Y107228D01*
X324572Y107260D01*
X324529Y107341D01*
X324493Y107424D01*
X324467Y107457D01*
X324456Y107477D01*
X324433Y107499D01*
X324388Y107555D01*
X323925Y108018D01*
X323925Y118782D01*
X324818Y119675D01*
X335582Y119675D01*
X336475Y118782D01*
X336475Y108018D01*
X336012Y107555D01*
X335959Y107481D01*
X335899Y107412D01*
X335887Y107382D01*
X335868Y107356D01*
X335841Y107269D01*
X335807Y107184D01*
X335803Y107143D01*
X335796Y107121D01*
X335797Y107088D01*
X335789Y107017D01*
X335789Y77033D01*
X335803Y76943D01*
X335811Y76852D01*
X335823Y76822D01*
X335828Y76790D01*
X335871Y76709D01*
X335907Y76626D01*
X335933Y76593D01*
X335944Y76573D01*
X335967Y76551D01*
X336012Y76495D01*
X336161Y76346D01*
X336235Y76293D01*
X336304Y76233D01*
X336334Y76221D01*
X336360Y76202D01*
X336447Y76175D01*
X336532Y76141D01*
X336573Y76137D01*
X336595Y76130D01*
X336628Y76131D01*
X336699Y76123D01*
X338814Y76123D01*
X338834Y76126D01*
X338853Y76124D01*
X338955Y76146D01*
X339057Y76162D01*
X339074Y76172D01*
X339094Y76176D01*
X339183Y76229D01*
X339274Y76278D01*
X339288Y76292D01*
X339305Y76302D01*
X339372Y76381D01*
X339444Y76456D01*
X339452Y76474D01*
X339465Y76489D01*
X339504Y76585D01*
X339547Y76679D01*
X339549Y76699D01*
X339557Y76717D01*
X339575Y76884D01*
X339575Y79182D01*
X340468Y80075D01*
X351732Y80075D01*
X352625Y79182D01*
X352625Y63918D01*
X351732Y63025D01*
X340468Y63025D01*
X339575Y63918D01*
X339575Y66216D01*
X339572Y66236D01*
X339574Y66255D01*
X339552Y66357D01*
X339536Y66459D01*
X339526Y66476D01*
X339522Y66496D01*
X339469Y66585D01*
X339420Y66676D01*
X339406Y66690D01*
X339396Y66707D01*
X339317Y66774D01*
X339242Y66846D01*
X339224Y66854D01*
X339209Y66867D01*
X339113Y66906D01*
X339019Y66949D01*
X338999Y66951D01*
X338981Y66959D01*
X338814Y66977D01*
X337786Y66977D01*
X337766Y66974D01*
X337747Y66976D01*
X337645Y66954D01*
X337543Y66938D01*
X337526Y66928D01*
X337506Y66924D01*
X337417Y66871D01*
X337326Y66822D01*
X337312Y66808D01*
X337295Y66798D01*
X337228Y66719D01*
X337156Y66644D01*
X337148Y66626D01*
X337135Y66611D01*
X337096Y66515D01*
X337053Y66421D01*
X337051Y66401D01*
X337043Y66383D01*
X337025Y66216D01*
X337025Y64218D01*
X336132Y63325D01*
X320868Y63325D01*
X319975Y64218D01*
X319975Y65024D01*
X319972Y65044D01*
X319974Y65063D01*
X319952Y65165D01*
X319936Y65267D01*
X319926Y65284D01*
X319922Y65304D01*
X319869Y65393D01*
X319820Y65484D01*
X319806Y65498D01*
X319796Y65515D01*
X319717Y65582D01*
X319642Y65654D01*
X319624Y65662D01*
X319609Y65675D01*
X319513Y65714D01*
X319419Y65757D01*
X319399Y65759D01*
X319381Y65767D01*
X319214Y65785D01*
X317003Y65785D01*
X316913Y65771D01*
X316822Y65763D01*
X316792Y65751D01*
X316760Y65746D01*
X316679Y65703D01*
X316596Y65667D01*
X316563Y65641D01*
X316543Y65630D01*
X316521Y65607D01*
X316465Y65562D01*
X316208Y65305D01*
X315786Y65305D01*
X315766Y65302D01*
X315747Y65304D01*
X315645Y65282D01*
X315543Y65266D01*
X315526Y65256D01*
X315506Y65252D01*
X315417Y65199D01*
X315326Y65150D01*
X315312Y65136D01*
X315295Y65126D01*
X315228Y65047D01*
X315156Y64972D01*
X315148Y64954D01*
X315135Y64939D01*
X315096Y64843D01*
X315053Y64749D01*
X315051Y64729D01*
X315043Y64711D01*
X315025Y64544D01*
X315025Y54718D01*
X314132Y53825D01*
X298868Y53825D01*
X297975Y54718D01*
X297975Y54944D01*
X297972Y54964D01*
X297974Y54983D01*
X297952Y55085D01*
X297936Y55187D01*
X297926Y55204D01*
X297922Y55224D01*
X297869Y55313D01*
X297820Y55404D01*
X297806Y55418D01*
X297796Y55435D01*
X297717Y55502D01*
X297642Y55574D01*
X297624Y55582D01*
X297609Y55595D01*
X297513Y55634D01*
X297419Y55677D01*
X297399Y55679D01*
X297381Y55687D01*
X297214Y55705D01*
X291084Y55705D01*
X291064Y55702D01*
X291045Y55704D01*
X290943Y55682D01*
X290841Y55666D01*
X290824Y55656D01*
X290804Y55652D01*
X290715Y55599D01*
X290624Y55550D01*
X290610Y55536D01*
X290593Y55526D01*
X290526Y55447D01*
X290454Y55372D01*
X290446Y55354D01*
X290433Y55339D01*
X290394Y55243D01*
X290351Y55149D01*
X290349Y55129D01*
X290341Y55111D01*
X290323Y54944D01*
X290323Y52036D01*
X290326Y52016D01*
X290324Y51997D01*
X290346Y51895D01*
X290362Y51793D01*
X290372Y51776D01*
X290376Y51756D01*
X290429Y51667D01*
X290478Y51576D01*
X290492Y51562D01*
X290502Y51545D01*
X290581Y51478D01*
X290656Y51406D01*
X290674Y51398D01*
X290689Y51385D01*
X290785Y51346D01*
X290879Y51303D01*
X290899Y51301D01*
X290917Y51293D01*
X291084Y51275D01*
X291382Y51275D01*
X292275Y50382D01*
X292275Y35118D01*
X291382Y34225D01*
X280118Y34225D01*
G37*
%LPD*%
%LPC*%
G36*
X238318Y63325D02*
X238318Y63325D01*
X237425Y64218D01*
X237425Y75482D01*
X238318Y76375D01*
X241300Y76375D01*
X241320Y76378D01*
X241339Y76376D01*
X241441Y76398D01*
X241543Y76414D01*
X241560Y76424D01*
X241580Y76428D01*
X241669Y76481D01*
X241760Y76530D01*
X241774Y76544D01*
X241791Y76554D01*
X241858Y76633D01*
X241930Y76708D01*
X241938Y76726D01*
X241951Y76741D01*
X241990Y76837D01*
X242033Y76931D01*
X242035Y76951D01*
X242043Y76969D01*
X242061Y77136D01*
X242061Y107017D01*
X242047Y107107D01*
X242039Y107198D01*
X242027Y107228D01*
X242022Y107260D01*
X241979Y107341D01*
X241943Y107424D01*
X241917Y107457D01*
X241906Y107477D01*
X241883Y107499D01*
X241838Y107555D01*
X241375Y108018D01*
X241375Y118782D01*
X242268Y119675D01*
X253032Y119675D01*
X253925Y118782D01*
X253925Y108018D01*
X253462Y107555D01*
X253408Y107481D01*
X253349Y107412D01*
X253337Y107382D01*
X253318Y107356D01*
X253291Y107269D01*
X253257Y107184D01*
X253253Y107143D01*
X253246Y107121D01*
X253247Y107088D01*
X253239Y107017D01*
X253239Y77033D01*
X253253Y76943D01*
X253261Y76852D01*
X253273Y76822D01*
X253278Y76790D01*
X253321Y76709D01*
X253357Y76626D01*
X253383Y76593D01*
X253394Y76573D01*
X253417Y76551D01*
X253462Y76495D01*
X254475Y75482D01*
X254475Y64218D01*
X253582Y63325D01*
X238318Y63325D01*
G37*
%LPD*%
%LPC*%
G36*
X359468Y63025D02*
X359468Y63025D01*
X358575Y63918D01*
X358575Y79182D01*
X359468Y80075D01*
X366843Y80075D01*
X366933Y80089D01*
X367024Y80097D01*
X367053Y80109D01*
X367085Y80114D01*
X367166Y80157D01*
X367250Y80193D01*
X367282Y80219D01*
X367303Y80230D01*
X367325Y80253D01*
X367381Y80298D01*
X367856Y80773D01*
X377164Y80773D01*
X377184Y80776D01*
X377203Y80774D01*
X377305Y80796D01*
X377407Y80812D01*
X377424Y80822D01*
X377444Y80826D01*
X377533Y80879D01*
X377624Y80928D01*
X377638Y80942D01*
X377655Y80952D01*
X377722Y81031D01*
X377794Y81106D01*
X377802Y81124D01*
X377815Y81139D01*
X377854Y81235D01*
X377897Y81329D01*
X377899Y81349D01*
X377907Y81367D01*
X377925Y81534D01*
X377925Y83832D01*
X378818Y84725D01*
X391082Y84725D01*
X391975Y83832D01*
X391975Y68568D01*
X391082Y67675D01*
X378818Y67675D01*
X377925Y68568D01*
X377925Y70866D01*
X377922Y70886D01*
X377924Y70905D01*
X377902Y71007D01*
X377886Y71109D01*
X377876Y71126D01*
X377872Y71146D01*
X377819Y71235D01*
X377770Y71326D01*
X377756Y71340D01*
X377746Y71357D01*
X377667Y71424D01*
X377592Y71496D01*
X377574Y71504D01*
X377559Y71517D01*
X377463Y71556D01*
X377369Y71599D01*
X377349Y71601D01*
X377331Y71609D01*
X377164Y71627D01*
X372386Y71627D01*
X372366Y71624D01*
X372347Y71626D01*
X372245Y71604D01*
X372143Y71588D01*
X372126Y71578D01*
X372106Y71574D01*
X372017Y71521D01*
X371926Y71472D01*
X371912Y71458D01*
X371895Y71448D01*
X371828Y71369D01*
X371756Y71294D01*
X371748Y71276D01*
X371735Y71261D01*
X371696Y71165D01*
X371653Y71071D01*
X371651Y71051D01*
X371643Y71033D01*
X371625Y70866D01*
X371625Y63918D01*
X370732Y63025D01*
X359468Y63025D01*
G37*
%LPD*%
%LPC*%
G36*
X216318Y72825D02*
X216318Y72825D01*
X215425Y73718D01*
X215425Y84982D01*
X216318Y85875D01*
X217424Y85875D01*
X217444Y85878D01*
X217463Y85876D01*
X217565Y85898D01*
X217667Y85914D01*
X217684Y85924D01*
X217704Y85928D01*
X217793Y85981D01*
X217884Y86030D01*
X217898Y86044D01*
X217915Y86054D01*
X217982Y86133D01*
X218054Y86208D01*
X218062Y86226D01*
X218075Y86241D01*
X218114Y86337D01*
X218157Y86431D01*
X218159Y86451D01*
X218167Y86469D01*
X218185Y86636D01*
X218185Y98922D01*
X218171Y99012D01*
X218163Y99103D01*
X218151Y99133D01*
X218146Y99165D01*
X218103Y99246D01*
X218067Y99329D01*
X218041Y99362D01*
X218030Y99382D01*
X218007Y99404D01*
X217962Y99460D01*
X217705Y99717D01*
X217705Y103483D01*
X220367Y106145D01*
X224133Y106145D01*
X226795Y103483D01*
X226795Y99717D01*
X226538Y99460D01*
X226485Y99387D01*
X226425Y99317D01*
X226413Y99287D01*
X226394Y99261D01*
X226367Y99174D01*
X226333Y99089D01*
X226329Y99048D01*
X226322Y99026D01*
X226323Y98993D01*
X226315Y98922D01*
X226315Y86636D01*
X226318Y86616D01*
X226316Y86597D01*
X226338Y86495D01*
X226354Y86393D01*
X226364Y86376D01*
X226368Y86356D01*
X226421Y86267D01*
X226470Y86176D01*
X226484Y86162D01*
X226494Y86145D01*
X226573Y86078D01*
X226648Y86006D01*
X226666Y85998D01*
X226681Y85985D01*
X226777Y85946D01*
X226871Y85903D01*
X226891Y85901D01*
X226909Y85893D01*
X227076Y85875D01*
X231582Y85875D01*
X232475Y84982D01*
X232475Y73718D01*
X231582Y72825D01*
X216318Y72825D01*
G37*
%LPD*%
%LPC*%
G36*
X175043Y72825D02*
X175043Y72825D01*
X174150Y73718D01*
X174150Y84982D01*
X175043Y85875D01*
X176149Y85875D01*
X176169Y85878D01*
X176188Y85876D01*
X176290Y85898D01*
X176392Y85914D01*
X176409Y85924D01*
X176429Y85928D01*
X176518Y85981D01*
X176609Y86030D01*
X176623Y86044D01*
X176640Y86054D01*
X176707Y86133D01*
X176779Y86208D01*
X176787Y86226D01*
X176800Y86241D01*
X176839Y86337D01*
X176882Y86431D01*
X176884Y86451D01*
X176892Y86469D01*
X176910Y86636D01*
X176910Y89397D01*
X176896Y89487D01*
X176888Y89578D01*
X176876Y89608D01*
X176871Y89640D01*
X176828Y89721D01*
X176792Y89804D01*
X176766Y89837D01*
X176755Y89857D01*
X176732Y89879D01*
X176687Y89935D01*
X176430Y90192D01*
X176430Y93958D01*
X179092Y96620D01*
X182858Y96620D01*
X185520Y93958D01*
X185520Y90192D01*
X185263Y89935D01*
X185210Y89862D01*
X185150Y89792D01*
X185138Y89762D01*
X185119Y89736D01*
X185092Y89649D01*
X185058Y89564D01*
X185054Y89523D01*
X185047Y89501D01*
X185048Y89468D01*
X185040Y89397D01*
X185040Y86636D01*
X185043Y86616D01*
X185041Y86597D01*
X185063Y86495D01*
X185079Y86393D01*
X185089Y86376D01*
X185093Y86356D01*
X185146Y86267D01*
X185195Y86176D01*
X185209Y86162D01*
X185219Y86145D01*
X185298Y86078D01*
X185373Y86006D01*
X185391Y85998D01*
X185406Y85985D01*
X185502Y85946D01*
X185596Y85903D01*
X185616Y85901D01*
X185634Y85893D01*
X185801Y85875D01*
X190307Y85875D01*
X191200Y84982D01*
X191200Y73718D01*
X190307Y72825D01*
X175043Y72825D01*
G37*
%LPD*%
%LPC*%
G36*
X257593Y72825D02*
X257593Y72825D01*
X256700Y73718D01*
X256700Y84982D01*
X257593Y85875D01*
X258699Y85875D01*
X258719Y85878D01*
X258738Y85876D01*
X258840Y85898D01*
X258942Y85914D01*
X258959Y85924D01*
X258979Y85928D01*
X259068Y85981D01*
X259159Y86030D01*
X259173Y86044D01*
X259190Y86054D01*
X259257Y86133D01*
X259329Y86208D01*
X259337Y86226D01*
X259350Y86241D01*
X259389Y86337D01*
X259432Y86431D01*
X259434Y86451D01*
X259442Y86469D01*
X259460Y86636D01*
X259460Y89397D01*
X259446Y89487D01*
X259438Y89578D01*
X259426Y89608D01*
X259421Y89640D01*
X259378Y89721D01*
X259342Y89804D01*
X259316Y89837D01*
X259305Y89857D01*
X259282Y89879D01*
X259237Y89935D01*
X258980Y90192D01*
X258980Y93958D01*
X261642Y96620D01*
X265408Y96620D01*
X268070Y93958D01*
X268070Y90192D01*
X267813Y89935D01*
X267760Y89862D01*
X267700Y89792D01*
X267688Y89762D01*
X267669Y89736D01*
X267642Y89649D01*
X267608Y89564D01*
X267604Y89523D01*
X267597Y89501D01*
X267598Y89468D01*
X267590Y89397D01*
X267590Y86636D01*
X267593Y86616D01*
X267591Y86597D01*
X267613Y86495D01*
X267629Y86393D01*
X267639Y86376D01*
X267643Y86356D01*
X267696Y86267D01*
X267745Y86176D01*
X267759Y86162D01*
X267769Y86145D01*
X267848Y86078D01*
X267923Y86006D01*
X267941Y85998D01*
X267956Y85985D01*
X268052Y85946D01*
X268146Y85903D01*
X268166Y85901D01*
X268184Y85893D01*
X268351Y85875D01*
X272857Y85875D01*
X273750Y84982D01*
X273750Y73718D01*
X272857Y72825D01*
X257593Y72825D01*
G37*
%LPD*%
%LPC*%
G36*
X20573Y65023D02*
X20573Y65023D01*
X20573Y75693D01*
X24100Y75693D01*
X31243Y68550D01*
X31243Y65023D01*
X20573Y65023D01*
G37*
%LPD*%
%LPC*%
G36*
X20573Y51307D02*
X20573Y51307D01*
X20573Y61977D01*
X31243Y61977D01*
X31243Y58450D01*
X24100Y51307D01*
X20573Y51307D01*
G37*
%LPD*%
%LPC*%
G36*
X6857Y65023D02*
X6857Y65023D01*
X6857Y68550D01*
X14000Y75693D01*
X17527Y75693D01*
X17527Y65023D01*
X6857Y65023D01*
G37*
%LPD*%
%LPC*%
G36*
X14000Y51307D02*
X14000Y51307D01*
X6857Y58450D01*
X6857Y61977D01*
X17527Y61977D01*
X17527Y51307D01*
X14000Y51307D01*
G37*
%LPD*%
%LPC*%
G36*
X87223Y22273D02*
X87223Y22273D01*
X87223Y30291D01*
X91034Y30291D01*
X91681Y30118D01*
X92260Y29783D01*
X92733Y29310D01*
X93068Y28731D01*
X93241Y28084D01*
X93241Y22273D01*
X87223Y22273D01*
G37*
%LPD*%
%LPC*%
G36*
X296773Y22273D02*
X296773Y22273D01*
X296773Y30291D01*
X300584Y30291D01*
X301231Y30118D01*
X301810Y29783D01*
X302283Y29310D01*
X302618Y28731D01*
X302791Y28084D01*
X302791Y22273D01*
X296773Y22273D01*
G37*
%LPD*%
%LPC*%
G36*
X131673Y11209D02*
X131673Y11209D01*
X131673Y19227D01*
X137691Y19227D01*
X137691Y13416D01*
X137518Y12769D01*
X137183Y12190D01*
X136710Y11717D01*
X136131Y11382D01*
X135484Y11209D01*
X131673Y11209D01*
G37*
%LPD*%
%LPC*%
G36*
X87223Y11209D02*
X87223Y11209D01*
X87223Y19227D01*
X93241Y19227D01*
X93241Y13416D01*
X93068Y12769D01*
X92733Y12190D01*
X92260Y11717D01*
X91681Y11382D01*
X91034Y11209D01*
X87223Y11209D01*
G37*
%LPD*%
%LPC*%
G36*
X214223Y11209D02*
X214223Y11209D01*
X214223Y19227D01*
X220241Y19227D01*
X220241Y13416D01*
X220068Y12769D01*
X219733Y12190D01*
X219260Y11717D01*
X218681Y11382D01*
X218034Y11209D01*
X214223Y11209D01*
G37*
%LPD*%
%LPC*%
G36*
X296773Y11209D02*
X296773Y11209D01*
X296773Y19227D01*
X302791Y19227D01*
X302791Y13416D01*
X302618Y12769D01*
X302283Y12190D01*
X301810Y11717D01*
X301231Y11382D01*
X300584Y11209D01*
X296773Y11209D01*
G37*
%LPD*%
%LPC*%
G36*
X287709Y22273D02*
X287709Y22273D01*
X287709Y28084D01*
X287882Y28731D01*
X288217Y29310D01*
X288690Y29783D01*
X289269Y30118D01*
X289916Y30291D01*
X293727Y30291D01*
X293727Y22273D01*
X287709Y22273D01*
G37*
%LPD*%
%LPC*%
G36*
X289916Y11209D02*
X289916Y11209D01*
X289269Y11382D01*
X288690Y11717D01*
X288217Y12190D01*
X287882Y12769D01*
X287709Y13416D01*
X287709Y19227D01*
X293727Y19227D01*
X293727Y11209D01*
X289916Y11209D01*
G37*
%LPD*%
%LPC*%
G36*
X207366Y11209D02*
X207366Y11209D01*
X206719Y11382D01*
X206140Y11717D01*
X205667Y12190D01*
X205332Y12769D01*
X205159Y13416D01*
X205159Y19227D01*
X211177Y19227D01*
X211177Y11209D01*
X207366Y11209D01*
G37*
%LPD*%
%LPC*%
G36*
X124816Y11209D02*
X124816Y11209D01*
X124169Y11382D01*
X123590Y11717D01*
X123117Y12190D01*
X122782Y12769D01*
X122609Y13416D01*
X122609Y19227D01*
X128627Y19227D01*
X128627Y11209D01*
X124816Y11209D01*
G37*
%LPD*%
%LPC*%
G36*
X80366Y11209D02*
X80366Y11209D01*
X79719Y11382D01*
X79140Y11717D01*
X78667Y12190D01*
X78332Y12769D01*
X78159Y13416D01*
X78159Y19227D01*
X84177Y19227D01*
X84177Y11209D01*
X80366Y11209D01*
G37*
%LPD*%
%LPC*%
G36*
X357123Y147548D02*
X357123Y147548D01*
X357123Y153066D01*
X362434Y153066D01*
X363081Y152893D01*
X363660Y152558D01*
X364133Y152085D01*
X364468Y151506D01*
X364641Y150859D01*
X364641Y147548D01*
X357123Y147548D01*
G37*
%LPD*%
%LPC*%
G36*
X52323Y68223D02*
X52323Y68223D01*
X52323Y73741D01*
X57634Y73741D01*
X58281Y73568D01*
X58860Y73233D01*
X59333Y72760D01*
X59668Y72181D01*
X59841Y71534D01*
X59841Y68223D01*
X52323Y68223D01*
G37*
%LPD*%
%LPC*%
G36*
X346559Y147548D02*
X346559Y147548D01*
X346559Y150859D01*
X346732Y151506D01*
X347067Y152085D01*
X347540Y152558D01*
X348119Y152893D01*
X348766Y153066D01*
X354077Y153066D01*
X354077Y147548D01*
X346559Y147548D01*
G37*
%LPD*%
%LPC*%
G36*
X41759Y68223D02*
X41759Y68223D01*
X41759Y71534D01*
X41932Y72181D01*
X42267Y72760D01*
X42740Y73233D01*
X43319Y73568D01*
X43966Y73741D01*
X49277Y73741D01*
X49277Y68223D01*
X41759Y68223D01*
G37*
%LPD*%
%LPC*%
G36*
X52323Y59659D02*
X52323Y59659D01*
X52323Y65177D01*
X59841Y65177D01*
X59841Y61865D01*
X59668Y61219D01*
X59333Y60640D01*
X58860Y60167D01*
X58281Y59832D01*
X57634Y59659D01*
X52323Y59659D01*
G37*
%LPD*%
%LPC*%
G36*
X357123Y138984D02*
X357123Y138984D01*
X357123Y144502D01*
X364641Y144502D01*
X364641Y141190D01*
X364468Y140544D01*
X364133Y139965D01*
X363660Y139492D01*
X363081Y139157D01*
X362434Y138984D01*
X357123Y138984D01*
G37*
%LPD*%
%LPC*%
G36*
X348766Y138984D02*
X348766Y138984D01*
X348119Y139157D01*
X347540Y139492D01*
X347067Y139965D01*
X346732Y140544D01*
X346559Y141191D01*
X346559Y144502D01*
X354077Y144502D01*
X354077Y138984D01*
X348766Y138984D01*
G37*
%LPD*%
%LPC*%
G36*
X43966Y59659D02*
X43966Y59659D01*
X43319Y59832D01*
X42740Y60167D01*
X42267Y60640D01*
X41932Y61219D01*
X41759Y61866D01*
X41759Y65177D01*
X49277Y65177D01*
X49277Y59659D01*
X43966Y59659D01*
G37*
%LPD*%
%LPC*%
G36*
X309498Y145548D02*
X309498Y145548D01*
X309498Y150566D01*
X312309Y150566D01*
X312956Y150393D01*
X313535Y150058D01*
X314008Y149585D01*
X314343Y149006D01*
X314516Y148359D01*
X314516Y145548D01*
X309498Y145548D01*
G37*
%LPD*%
%LPC*%
G36*
X226948Y145548D02*
X226948Y145548D01*
X226948Y150566D01*
X229759Y150566D01*
X230406Y150393D01*
X230985Y150058D01*
X231458Y149585D01*
X231793Y149006D01*
X231966Y148359D01*
X231966Y145548D01*
X226948Y145548D01*
G37*
%LPD*%
%LPC*%
G36*
X144398Y145548D02*
X144398Y145548D01*
X144398Y150566D01*
X147209Y150566D01*
X147856Y150393D01*
X148435Y150058D01*
X148908Y149585D01*
X149243Y149006D01*
X149416Y148359D01*
X149416Y145548D01*
X144398Y145548D01*
G37*
%LPD*%
%LPC*%
G36*
X309498Y142502D02*
X309498Y142502D01*
X314516Y142502D01*
X314516Y139691D01*
X314343Y139044D01*
X314008Y138465D01*
X313535Y137992D01*
X312956Y137657D01*
X312309Y137484D01*
X309498Y137484D01*
X309498Y142502D01*
G37*
%LPD*%
%LPC*%
G36*
X226948Y142502D02*
X226948Y142502D01*
X231966Y142502D01*
X231966Y139691D01*
X231793Y139044D01*
X231458Y138465D01*
X230985Y137992D01*
X230406Y137657D01*
X229759Y137484D01*
X226948Y137484D01*
X226948Y142502D01*
G37*
%LPD*%
%LPC*%
G36*
X144398Y142502D02*
X144398Y142502D01*
X149416Y142502D01*
X149416Y139691D01*
X149243Y139044D01*
X148908Y138465D01*
X148435Y137992D01*
X147856Y137657D01*
X147209Y137484D01*
X144398Y137484D01*
X144398Y142502D01*
G37*
%LPD*%
%LPC*%
G36*
X136334Y145548D02*
X136334Y145548D01*
X136334Y148359D01*
X136507Y149006D01*
X136842Y149585D01*
X137315Y150058D01*
X137894Y150393D01*
X138541Y150566D01*
X141352Y150566D01*
X141352Y145548D01*
X136334Y145548D01*
G37*
%LPD*%
%LPC*%
G36*
X218884Y145548D02*
X218884Y145548D01*
X218884Y148359D01*
X219057Y149006D01*
X219392Y149585D01*
X219865Y150058D01*
X220444Y150393D01*
X221091Y150566D01*
X223902Y150566D01*
X223902Y145548D01*
X218884Y145548D01*
G37*
%LPD*%
%LPC*%
G36*
X301434Y145548D02*
X301434Y145548D01*
X301434Y148359D01*
X301607Y149006D01*
X301942Y149585D01*
X302415Y150058D01*
X302994Y150393D01*
X303641Y150566D01*
X306452Y150566D01*
X306452Y145548D01*
X301434Y145548D01*
G37*
%LPD*%
%LPC*%
G36*
X138541Y137484D02*
X138541Y137484D01*
X137894Y137657D01*
X137315Y137992D01*
X136842Y138465D01*
X136507Y139044D01*
X136334Y139691D01*
X136334Y142502D01*
X141352Y142502D01*
X141352Y137484D01*
X138541Y137484D01*
G37*
%LPD*%
%LPC*%
G36*
X303641Y137484D02*
X303641Y137484D01*
X302994Y137657D01*
X302415Y137992D01*
X301942Y138465D01*
X301607Y139044D01*
X301434Y139691D01*
X301434Y142502D01*
X306452Y142502D01*
X306452Y137484D01*
X303641Y137484D01*
G37*
%LPD*%
%LPC*%
G36*
X221091Y137484D02*
X221091Y137484D01*
X220444Y137657D01*
X219865Y137992D01*
X219392Y138465D01*
X219057Y139044D01*
X218884Y139691D01*
X218884Y142502D01*
X223902Y142502D01*
X223902Y137484D01*
X221091Y137484D01*
G37*
%LPD*%
%LPC*%
G36*
X19049Y63499D02*
X19049Y63499D01*
X19049Y63501D01*
X19051Y63501D01*
X19051Y63499D01*
X19049Y63499D01*
G37*
%LPD*%
%LPC*%
G36*
X225424Y144024D02*
X225424Y144024D01*
X225424Y144026D01*
X225426Y144026D01*
X225426Y144024D01*
X225424Y144024D01*
G37*
%LPD*%
%LPC*%
G36*
X295249Y20749D02*
X295249Y20749D01*
X295249Y20751D01*
X295251Y20751D01*
X295251Y20749D01*
X295249Y20749D01*
G37*
%LPD*%
%LPC*%
G36*
X85699Y20749D02*
X85699Y20749D01*
X85699Y20751D01*
X85701Y20751D01*
X85701Y20749D01*
X85699Y20749D01*
G37*
%LPD*%
%LPC*%
G36*
X307974Y144024D02*
X307974Y144024D01*
X307974Y144026D01*
X307976Y144026D01*
X307976Y144024D01*
X307974Y144024D01*
G37*
%LPD*%
%LPC*%
G36*
X50799Y66699D02*
X50799Y66699D01*
X50799Y66701D01*
X50801Y66701D01*
X50801Y66699D01*
X50799Y66699D01*
G37*
%LPD*%
%LPC*%
G36*
X142874Y144024D02*
X142874Y144024D01*
X142874Y144026D01*
X142876Y144026D01*
X142876Y144024D01*
X142874Y144024D01*
G37*
%LPD*%
%LPC*%
G36*
X355599Y146024D02*
X355599Y146024D01*
X355599Y146026D01*
X355601Y146026D01*
X355601Y146024D01*
X355599Y146024D01*
G37*
%LPD*%
D10*
X447500Y76200D03*
D11*
X444500Y34925D03*
X444500Y117475D03*
D12*
X463550Y92075D03*
X444500Y92075D03*
X425450Y92075D03*
X444500Y60325D03*
X463550Y60325D03*
X425450Y60325D03*
X425450Y139700D03*
X444500Y139700D03*
X463550Y139700D03*
X425450Y12700D03*
X444500Y12700D03*
X463550Y12700D03*
D13*
X182675Y79350D03*
X182675Y60350D03*
X204675Y69850D03*
D14*
X66700Y20750D03*
X85700Y20750D03*
X76200Y42750D03*
X346100Y71550D03*
X365100Y71550D03*
X355600Y93550D03*
X193700Y20750D03*
X212700Y20750D03*
X203200Y42750D03*
D13*
X223950Y79350D03*
X223950Y60350D03*
X245950Y69850D03*
X265225Y79350D03*
X265225Y60350D03*
X287225Y69850D03*
D14*
X276250Y20750D03*
X295250Y20750D03*
X285750Y42750D03*
D13*
X306500Y79350D03*
X306500Y60350D03*
X328500Y69850D03*
X100125Y79350D03*
X100125Y60350D03*
X122125Y69850D03*
D14*
X111150Y20750D03*
X130150Y20750D03*
X120650Y42750D03*
D13*
X141400Y79350D03*
X141400Y60350D03*
X163400Y69850D03*
D15*
X206375Y127900D03*
X206375Y113400D03*
X247650Y127900D03*
X247650Y113400D03*
X288925Y127900D03*
X288925Y113400D03*
X330200Y127900D03*
X330200Y113400D03*
X123825Y127900D03*
X123825Y113400D03*
X165100Y127900D03*
X165100Y113400D03*
X76200Y83450D03*
X76200Y68950D03*
D16*
X384950Y76200D03*
X402450Y76200D03*
D17*
X142875Y144025D03*
X142875Y129025D03*
X225425Y144025D03*
X225425Y129025D03*
X307975Y144025D03*
X307975Y129025D03*
D18*
X355600Y146025D03*
X355600Y127025D03*
D19*
X19050Y88900D03*
X19050Y63500D03*
D18*
X50800Y66700D03*
X50800Y85700D03*
D20*
X355600Y93550D02*
X355600Y127025D01*
X354725Y127900D01*
X124950Y129025D02*
X123825Y127900D01*
X124950Y129025D02*
X142875Y129025D01*
X163975Y129025D01*
X165100Y127900D01*
X206375Y127900D01*
X224300Y127900D01*
X225425Y129025D01*
X246525Y129025D01*
X247650Y127900D01*
X288925Y127900D01*
X306850Y127900D01*
X307975Y129025D01*
X329075Y129025D01*
X330200Y127900D01*
X354725Y127900D01*
X47600Y88900D02*
X19050Y88900D01*
X47600Y88900D02*
X50800Y85700D01*
X73950Y85700D01*
X76200Y83450D01*
X76200Y88900D01*
X116325Y129025D02*
X124950Y129025D01*
X116325Y129025D02*
X76200Y88900D01*
X206375Y92075D02*
X206375Y113400D01*
X206375Y92075D02*
X206375Y71550D01*
X204675Y69850D01*
D21*
X263525Y81050D02*
X265225Y79350D01*
D22*
X263525Y81050D02*
X263525Y92075D01*
D12*
X263525Y92075D03*
X206375Y92075D03*
D20*
X247650Y101600D02*
X247650Y113400D01*
X247650Y101600D02*
X247650Y71550D01*
X245950Y69850D01*
D21*
X304800Y81050D02*
X306500Y79350D01*
D22*
X304800Y81050D02*
X304800Y101600D01*
D12*
X304800Y101600D03*
X247650Y101600D03*
D21*
X195709Y60350D02*
X182675Y60350D01*
X195709Y60350D02*
X195781Y60278D01*
X203200Y60278D01*
X213569Y60278D01*
X213641Y60350D01*
X223950Y60350D01*
X203200Y60278D02*
X203200Y42750D01*
D12*
X142875Y155575D03*
X225425Y155575D03*
X307975Y155575D03*
X339725Y146050D03*
X371475Y146050D03*
X307975Y9525D03*
X285750Y9525D03*
X222250Y9525D03*
X203200Y9525D03*
X139700Y9525D03*
X120650Y9525D03*
X95250Y9525D03*
X76200Y9525D03*
X38100Y57150D03*
X50800Y53975D03*
X63500Y57150D03*
X371475Y136525D03*
X180975Y155575D03*
X263525Y155575D03*
X161925Y22225D03*
X244475Y22225D03*
X104775Y44450D03*
X104775Y95250D03*
X142875Y107950D03*
X184150Y114300D03*
X225425Y114300D03*
X266700Y114300D03*
X142875Y44450D03*
X161925Y44450D03*
X184150Y44450D03*
X228600Y44450D03*
X247650Y44450D03*
X266700Y44450D03*
X63500Y44450D03*
X298450Y44450D03*
X311150Y114300D03*
X355600Y53975D03*
X342900Y101600D03*
X371475Y111125D03*
X371475Y95250D03*
X384175Y60325D03*
X384175Y95250D03*
X41275Y101600D03*
X66675Y101600D03*
X193675Y92075D03*
D20*
X288925Y82550D02*
X288925Y113400D01*
X288925Y82550D02*
X288925Y71550D01*
X287225Y69850D01*
D22*
X111100Y79350D02*
X100125Y79350D01*
X111100Y79350D02*
X114300Y82550D01*
D12*
X114300Y82550D03*
X288925Y82550D03*
D20*
X330200Y71550D02*
X330200Y113400D01*
X330200Y71550D02*
X328500Y69850D01*
D22*
X314325Y69850D01*
D12*
X314325Y69850D03*
X149225Y69894D03*
D22*
X141400Y77719D01*
X141400Y79350D01*
D21*
X330200Y71550D02*
X346100Y71550D01*
X278259Y60350D02*
X265225Y60350D01*
X278259Y60350D02*
X278331Y60278D01*
X285750Y60278D01*
X296119Y60278D01*
X296191Y60350D01*
X306500Y60350D01*
X285750Y60278D02*
X285750Y42750D01*
D20*
X123825Y92075D02*
X123825Y113400D01*
X123825Y92075D02*
X123825Y71550D01*
X122125Y69850D01*
D21*
X180975Y81050D02*
X182675Y79350D01*
D22*
X180975Y81050D02*
X180975Y92075D01*
D12*
X180975Y92075D03*
X123825Y92075D03*
D21*
X222250Y81050D02*
X223950Y79350D01*
D20*
X165100Y101600D02*
X165100Y113400D01*
X165100Y101600D02*
X165100Y71550D01*
X163400Y69850D01*
D22*
X222250Y81050D02*
X222250Y101600D01*
D12*
X222250Y101600D03*
X165100Y101600D03*
D21*
X113159Y60350D02*
X100125Y60350D01*
X113159Y60350D02*
X113231Y60278D01*
X120650Y60278D01*
X131019Y60278D01*
X131091Y60350D01*
X141400Y60350D01*
X120650Y60278D02*
X120650Y42750D01*
D23*
X265250Y31750D02*
X276250Y20750D01*
X265250Y31750D02*
X196850Y31750D01*
X111125Y31750D01*
X101600Y31750D01*
X90600Y42750D01*
X76200Y42750D01*
X111125Y20775D02*
X111150Y20750D01*
X111125Y20775D02*
X111125Y31750D01*
X193700Y28600D02*
X193700Y20750D01*
X193700Y28600D02*
X196850Y31750D01*
X76200Y42750D02*
X76200Y68950D01*
X76200Y30250D02*
X66700Y20750D01*
X76200Y30250D02*
X76200Y42750D01*
D21*
X365100Y71550D02*
X369750Y76200D01*
X384950Y76200D01*
D24*
X402450Y76200D02*
X447500Y76200D01*
M02*
