G04 EAGLE Gerber RS-274X export*
G75*
%MOMM*%
%FSLAX34Y34*%
%LPD*%
%INBottom Copper Layer*%
%IPPOS*%
%AMOC8*
5,1,8,0,0,1.08239X$1,22.5*%
G01*
%ADD10C,0.604000*%
%ADD11P,2.089446X8X112.500000*%
%ADD12C,0.508000*%

G36*
X474673Y3814D02*
X474673Y3814D01*
X474692Y3812D01*
X474794Y3834D01*
X474896Y3850D01*
X474913Y3860D01*
X474933Y3864D01*
X475022Y3917D01*
X475113Y3966D01*
X475127Y3980D01*
X475144Y3990D01*
X475211Y4069D01*
X475283Y4144D01*
X475291Y4162D01*
X475304Y4177D01*
X475343Y4273D01*
X475386Y4367D01*
X475388Y4387D01*
X475396Y4405D01*
X475414Y4572D01*
X475414Y5335D01*
X476250Y5335D01*
X476308Y5343D01*
X476366Y5341D01*
X476448Y5363D01*
X476532Y5375D01*
X476585Y5399D01*
X476641Y5413D01*
X476714Y5456D01*
X476791Y5491D01*
X476836Y5529D01*
X476886Y5559D01*
X476944Y5620D01*
X477008Y5675D01*
X477040Y5723D01*
X477080Y5766D01*
X477119Y5841D01*
X477166Y5911D01*
X477183Y5967D01*
X477210Y6019D01*
X477221Y6087D01*
X477251Y6182D01*
X477254Y6282D01*
X477265Y6350D01*
X477265Y67945D01*
X477257Y68003D01*
X477259Y68061D01*
X477237Y68143D01*
X477225Y68227D01*
X477202Y68280D01*
X477187Y68336D01*
X477144Y68409D01*
X477109Y68486D01*
X477071Y68531D01*
X477042Y68581D01*
X476980Y68639D01*
X476926Y68703D01*
X476877Y68735D01*
X476834Y68775D01*
X476759Y68814D01*
X476689Y68861D01*
X476633Y68878D01*
X476581Y68905D01*
X476513Y68916D01*
X476418Y68946D01*
X476318Y68949D01*
X476250Y68960D01*
X475414Y68960D01*
X475414Y83440D01*
X476250Y83440D01*
X476308Y83448D01*
X476366Y83446D01*
X476448Y83468D01*
X476532Y83480D01*
X476585Y83504D01*
X476641Y83518D01*
X476714Y83561D01*
X476791Y83596D01*
X476836Y83634D01*
X476886Y83664D01*
X476944Y83725D01*
X477008Y83780D01*
X477040Y83828D01*
X477080Y83871D01*
X477119Y83946D01*
X477166Y84016D01*
X477183Y84072D01*
X477210Y84124D01*
X477221Y84192D01*
X477251Y84287D01*
X477254Y84387D01*
X477265Y84455D01*
X477265Y146050D01*
X477257Y146108D01*
X477259Y146166D01*
X477237Y146248D01*
X477225Y146332D01*
X477202Y146385D01*
X477187Y146441D01*
X477144Y146514D01*
X477109Y146591D01*
X477071Y146636D01*
X477042Y146686D01*
X476980Y146744D01*
X476926Y146808D01*
X476877Y146840D01*
X476834Y146880D01*
X476759Y146919D01*
X476689Y146966D01*
X476633Y146983D01*
X476581Y147010D01*
X476513Y147021D01*
X476418Y147051D01*
X476318Y147054D01*
X476250Y147065D01*
X475414Y147065D01*
X475414Y160403D01*
X475411Y160423D01*
X475413Y160442D01*
X475391Y160544D01*
X475375Y160646D01*
X475365Y160663D01*
X475361Y160683D01*
X475308Y160772D01*
X475259Y160863D01*
X475245Y160877D01*
X475235Y160894D01*
X475156Y160961D01*
X475081Y161033D01*
X475063Y161041D01*
X475048Y161054D01*
X474952Y161093D01*
X474858Y161136D01*
X474838Y161138D01*
X474820Y161146D01*
X474653Y161164D01*
X4572Y161164D01*
X4552Y161161D01*
X4533Y161163D01*
X4431Y161141D01*
X4329Y161125D01*
X4312Y161115D01*
X4292Y161111D01*
X4203Y161058D01*
X4112Y161009D01*
X4098Y160995D01*
X4081Y160985D01*
X4014Y160906D01*
X3942Y160831D01*
X3934Y160813D01*
X3921Y160798D01*
X3882Y160702D01*
X3839Y160608D01*
X3837Y160588D01*
X3829Y160570D01*
X3811Y160403D01*
X3811Y4572D01*
X3814Y4552D01*
X3812Y4533D01*
X3834Y4431D01*
X3850Y4329D01*
X3860Y4312D01*
X3864Y4292D01*
X3917Y4203D01*
X3966Y4112D01*
X3980Y4098D01*
X3990Y4081D01*
X4069Y4014D01*
X4144Y3942D01*
X4162Y3934D01*
X4177Y3921D01*
X4273Y3882D01*
X4367Y3839D01*
X4387Y3837D01*
X4405Y3829D01*
X4572Y3811D01*
X474653Y3811D01*
X474673Y3814D01*
G37*
%LPC*%
G36*
X112417Y78005D02*
X112417Y78005D01*
X109755Y80667D01*
X109755Y84433D01*
X112417Y87095D01*
X116183Y87095D01*
X116440Y86838D01*
X116513Y86785D01*
X116583Y86725D01*
X116613Y86713D01*
X116639Y86694D01*
X116726Y86667D01*
X116811Y86633D01*
X116852Y86629D01*
X116874Y86622D01*
X116907Y86623D01*
X116978Y86615D01*
X121020Y86615D01*
X121091Y86626D01*
X121163Y86628D01*
X121212Y86646D01*
X121263Y86654D01*
X121326Y86688D01*
X121394Y86713D01*
X121434Y86745D01*
X121480Y86770D01*
X121530Y86822D01*
X121586Y86866D01*
X121614Y86910D01*
X121650Y86948D01*
X121680Y87013D01*
X121719Y87073D01*
X121731Y87124D01*
X121753Y87171D01*
X121761Y87242D01*
X121779Y87312D01*
X121775Y87364D01*
X121780Y87415D01*
X121765Y87486D01*
X121760Y87557D01*
X121739Y87605D01*
X121728Y87656D01*
X121691Y87717D01*
X121663Y87783D01*
X121619Y87839D01*
X121602Y87867D01*
X121584Y87882D01*
X121559Y87914D01*
X119280Y90192D01*
X119280Y93958D01*
X121942Y96620D01*
X125708Y96620D01*
X125965Y96363D01*
X126038Y96310D01*
X126108Y96250D01*
X126138Y96238D01*
X126164Y96219D01*
X126251Y96192D01*
X126336Y96158D01*
X126377Y96154D01*
X126399Y96147D01*
X126432Y96148D01*
X126503Y96140D01*
X162295Y96140D01*
X162366Y96151D01*
X162438Y96153D01*
X162487Y96171D01*
X162538Y96179D01*
X162601Y96213D01*
X162669Y96238D01*
X162709Y96270D01*
X162755Y96295D01*
X162805Y96347D01*
X162861Y96391D01*
X162889Y96435D01*
X162925Y96473D01*
X162955Y96538D01*
X162994Y96598D01*
X163006Y96649D01*
X163028Y96696D01*
X163036Y96767D01*
X163054Y96837D01*
X163050Y96889D01*
X163055Y96940D01*
X163040Y97011D01*
X163035Y97082D01*
X163014Y97130D01*
X163003Y97181D01*
X162966Y97242D01*
X162938Y97308D01*
X162894Y97364D01*
X162877Y97392D01*
X162859Y97407D01*
X162834Y97439D01*
X160555Y99717D01*
X160555Y103483D01*
X163217Y106145D01*
X166983Y106145D01*
X167240Y105888D01*
X167313Y105835D01*
X167383Y105775D01*
X167413Y105763D01*
X167439Y105744D01*
X167526Y105717D01*
X167611Y105683D01*
X167652Y105679D01*
X167674Y105672D01*
X167707Y105673D01*
X167778Y105665D01*
X219572Y105665D01*
X219662Y105679D01*
X219753Y105687D01*
X219783Y105699D01*
X219815Y105704D01*
X219896Y105747D01*
X219979Y105783D01*
X220012Y105809D01*
X220032Y105820D01*
X220054Y105843D01*
X220110Y105888D01*
X220367Y106145D01*
X224133Y106145D01*
X226795Y103483D01*
X226795Y99717D01*
X224516Y97439D01*
X224475Y97381D01*
X224425Y97329D01*
X224403Y97282D01*
X224373Y97240D01*
X224352Y97171D01*
X224322Y97106D01*
X224316Y97054D01*
X224301Y97004D01*
X224302Y96933D01*
X224295Y96862D01*
X224306Y96811D01*
X224307Y96759D01*
X224332Y96691D01*
X224347Y96621D01*
X224374Y96576D01*
X224391Y96528D01*
X224436Y96472D01*
X224473Y96410D01*
X224513Y96376D01*
X224545Y96336D01*
X224605Y96297D01*
X224660Y96250D01*
X224708Y96231D01*
X224752Y96203D01*
X224821Y96185D01*
X224888Y96158D01*
X224959Y96150D01*
X224991Y96142D01*
X225014Y96144D01*
X225055Y96140D01*
X244845Y96140D01*
X244916Y96151D01*
X244988Y96153D01*
X245037Y96171D01*
X245088Y96179D01*
X245151Y96213D01*
X245219Y96238D01*
X245259Y96270D01*
X245305Y96295D01*
X245355Y96347D01*
X245411Y96391D01*
X245439Y96435D01*
X245475Y96473D01*
X245505Y96538D01*
X245544Y96598D01*
X245556Y96649D01*
X245578Y96696D01*
X245586Y96767D01*
X245604Y96837D01*
X245600Y96889D01*
X245605Y96940D01*
X245590Y97011D01*
X245585Y97082D01*
X245564Y97130D01*
X245553Y97181D01*
X245516Y97242D01*
X245488Y97308D01*
X245444Y97364D01*
X245427Y97392D01*
X245409Y97407D01*
X245384Y97439D01*
X243105Y99717D01*
X243105Y103483D01*
X245767Y106145D01*
X249533Y106145D01*
X249790Y105888D01*
X249863Y105835D01*
X249933Y105775D01*
X249963Y105763D01*
X249989Y105744D01*
X250076Y105717D01*
X250161Y105683D01*
X250202Y105679D01*
X250224Y105672D01*
X250257Y105673D01*
X250328Y105665D01*
X302122Y105665D01*
X302212Y105679D01*
X302303Y105687D01*
X302333Y105699D01*
X302365Y105704D01*
X302446Y105747D01*
X302529Y105783D01*
X302562Y105809D01*
X302582Y105820D01*
X302604Y105843D01*
X302660Y105888D01*
X302917Y106145D01*
X306683Y106145D01*
X309345Y103483D01*
X309345Y99717D01*
X306683Y97055D01*
X302917Y97055D01*
X302660Y97312D01*
X302587Y97365D01*
X302517Y97425D01*
X302487Y97437D01*
X302461Y97456D01*
X302374Y97483D01*
X302289Y97517D01*
X302248Y97521D01*
X302226Y97528D01*
X302193Y97527D01*
X302122Y97535D01*
X266330Y97535D01*
X266259Y97524D01*
X266187Y97522D01*
X266138Y97504D01*
X266087Y97496D01*
X266024Y97462D01*
X265956Y97437D01*
X265916Y97405D01*
X265870Y97380D01*
X265820Y97328D01*
X265764Y97284D01*
X265736Y97240D01*
X265700Y97202D01*
X265670Y97137D01*
X265631Y97077D01*
X265619Y97026D01*
X265597Y96979D01*
X265589Y96908D01*
X265571Y96838D01*
X265575Y96786D01*
X265570Y96735D01*
X265585Y96664D01*
X265590Y96593D01*
X265611Y96545D01*
X265622Y96494D01*
X265659Y96433D01*
X265687Y96367D01*
X265731Y96311D01*
X265748Y96283D01*
X265766Y96268D01*
X265791Y96236D01*
X268070Y93958D01*
X268070Y90192D01*
X265791Y87914D01*
X265750Y87856D01*
X265700Y87804D01*
X265678Y87757D01*
X265648Y87715D01*
X265627Y87646D01*
X265597Y87581D01*
X265591Y87529D01*
X265576Y87479D01*
X265577Y87408D01*
X265570Y87337D01*
X265581Y87286D01*
X265582Y87234D01*
X265607Y87166D01*
X265622Y87096D01*
X265649Y87051D01*
X265666Y87003D01*
X265711Y86947D01*
X265748Y86885D01*
X265788Y86851D01*
X265820Y86811D01*
X265880Y86772D01*
X265935Y86725D01*
X265983Y86706D01*
X266027Y86678D01*
X266096Y86660D01*
X266163Y86633D01*
X266234Y86625D01*
X266266Y86617D01*
X266289Y86619D01*
X266330Y86615D01*
X286247Y86615D01*
X286337Y86629D01*
X286428Y86637D01*
X286458Y86649D01*
X286490Y86654D01*
X286571Y86697D01*
X286654Y86733D01*
X286687Y86759D01*
X286707Y86770D01*
X286729Y86793D01*
X286785Y86838D01*
X287042Y87095D01*
X290808Y87095D01*
X293470Y84433D01*
X293470Y80667D01*
X290808Y78005D01*
X287042Y78005D01*
X286785Y78262D01*
X286712Y78315D01*
X286642Y78375D01*
X286612Y78387D01*
X286586Y78406D01*
X286499Y78433D01*
X286414Y78467D01*
X286373Y78471D01*
X286351Y78478D01*
X286318Y78477D01*
X286247Y78485D01*
X116978Y78485D01*
X116888Y78471D01*
X116797Y78463D01*
X116767Y78451D01*
X116735Y78446D01*
X116654Y78403D01*
X116571Y78367D01*
X116538Y78341D01*
X116518Y78330D01*
X116496Y78307D01*
X116440Y78262D01*
X116183Y78005D01*
X112417Y78005D01*
G37*
%LPD*%
%LPC*%
G36*
X312442Y65305D02*
X312442Y65305D01*
X312185Y65562D01*
X312112Y65615D01*
X312042Y65675D01*
X312012Y65687D01*
X311986Y65706D01*
X311899Y65733D01*
X311814Y65767D01*
X311773Y65771D01*
X311751Y65778D01*
X311718Y65777D01*
X311647Y65785D01*
X151859Y65785D01*
X151769Y65771D01*
X151678Y65763D01*
X151648Y65751D01*
X151616Y65746D01*
X151535Y65703D01*
X151452Y65667D01*
X151419Y65641D01*
X151399Y65630D01*
X151377Y65607D01*
X151321Y65562D01*
X151108Y65349D01*
X147342Y65349D01*
X144680Y68011D01*
X144680Y71777D01*
X147342Y74439D01*
X151108Y74439D01*
X151409Y74138D01*
X151482Y74085D01*
X151552Y74025D01*
X151582Y74013D01*
X151608Y73994D01*
X151695Y73967D01*
X151780Y73933D01*
X151821Y73929D01*
X151843Y73922D01*
X151876Y73923D01*
X151947Y73915D01*
X311647Y73915D01*
X311737Y73929D01*
X311828Y73937D01*
X311858Y73949D01*
X311890Y73954D01*
X311971Y73997D01*
X312054Y74033D01*
X312087Y74059D01*
X312107Y74070D01*
X312129Y74093D01*
X312185Y74138D01*
X312442Y74395D01*
X316208Y74395D01*
X318870Y71733D01*
X318870Y67967D01*
X316208Y65305D01*
X312442Y65305D01*
G37*
%LPD*%
%LPC*%
G36*
X14420Y77723D02*
X14420Y77723D01*
X7873Y84270D01*
X7873Y93530D01*
X14420Y100077D01*
X23680Y100077D01*
X30227Y93530D01*
X30227Y84270D01*
X23680Y77723D01*
X14420Y77723D01*
G37*
%LPD*%
G36*
X203641Y86626D02*
X203641Y86626D01*
X203713Y86628D01*
X203762Y86646D01*
X203813Y86654D01*
X203876Y86688D01*
X203944Y86713D01*
X203984Y86745D01*
X204030Y86770D01*
X204080Y86822D01*
X204136Y86866D01*
X204164Y86910D01*
X204200Y86948D01*
X204230Y87013D01*
X204269Y87073D01*
X204281Y87124D01*
X204303Y87171D01*
X204311Y87242D01*
X204329Y87312D01*
X204325Y87364D01*
X204330Y87415D01*
X204315Y87486D01*
X204310Y87557D01*
X204289Y87605D01*
X204278Y87656D01*
X204241Y87717D01*
X204213Y87783D01*
X204169Y87839D01*
X204152Y87867D01*
X204134Y87882D01*
X204109Y87914D01*
X201830Y90192D01*
X201830Y93958D01*
X204109Y96236D01*
X204150Y96294D01*
X204200Y96346D01*
X204222Y96393D01*
X204252Y96435D01*
X204273Y96504D01*
X204303Y96569D01*
X204309Y96621D01*
X204324Y96671D01*
X204323Y96742D01*
X204330Y96813D01*
X204319Y96864D01*
X204318Y96916D01*
X204293Y96984D01*
X204278Y97054D01*
X204251Y97099D01*
X204234Y97147D01*
X204189Y97203D01*
X204152Y97265D01*
X204112Y97299D01*
X204080Y97339D01*
X204020Y97378D01*
X203965Y97425D01*
X203917Y97444D01*
X203873Y97472D01*
X203804Y97490D01*
X203737Y97517D01*
X203666Y97525D01*
X203634Y97533D01*
X203611Y97531D01*
X203570Y97535D01*
X183780Y97535D01*
X183709Y97524D01*
X183637Y97522D01*
X183588Y97504D01*
X183537Y97496D01*
X183474Y97462D01*
X183406Y97437D01*
X183366Y97405D01*
X183320Y97380D01*
X183270Y97328D01*
X183214Y97284D01*
X183186Y97240D01*
X183150Y97202D01*
X183120Y97137D01*
X183081Y97077D01*
X183069Y97026D01*
X183047Y96979D01*
X183039Y96908D01*
X183021Y96838D01*
X183025Y96786D01*
X183020Y96735D01*
X183035Y96664D01*
X183040Y96593D01*
X183061Y96545D01*
X183072Y96494D01*
X183109Y96433D01*
X183137Y96367D01*
X183181Y96311D01*
X183198Y96283D01*
X183216Y96268D01*
X183241Y96236D01*
X185520Y93958D01*
X185520Y90192D01*
X183241Y87914D01*
X183200Y87856D01*
X183150Y87804D01*
X183128Y87757D01*
X183098Y87715D01*
X183077Y87646D01*
X183047Y87581D01*
X183041Y87529D01*
X183026Y87479D01*
X183027Y87408D01*
X183020Y87337D01*
X183031Y87286D01*
X183032Y87234D01*
X183057Y87166D01*
X183072Y87096D01*
X183099Y87051D01*
X183116Y87003D01*
X183161Y86947D01*
X183198Y86885D01*
X183238Y86851D01*
X183270Y86811D01*
X183330Y86772D01*
X183385Y86725D01*
X183433Y86706D01*
X183477Y86678D01*
X183546Y86660D01*
X183613Y86633D01*
X183684Y86625D01*
X183716Y86617D01*
X183739Y86619D01*
X183780Y86615D01*
X203570Y86615D01*
X203641Y86626D01*
G37*
%LPC*%
G36*
X20573Y65023D02*
X20573Y65023D01*
X20573Y75693D01*
X24100Y75693D01*
X31243Y68550D01*
X31243Y65023D01*
X20573Y65023D01*
G37*
%LPD*%
%LPC*%
G36*
X6857Y65023D02*
X6857Y65023D01*
X6857Y68550D01*
X14000Y75693D01*
X17527Y75693D01*
X17527Y65023D01*
X6857Y65023D01*
G37*
%LPD*%
%LPC*%
G36*
X20573Y51307D02*
X20573Y51307D01*
X20573Y61977D01*
X31243Y61977D01*
X31243Y58450D01*
X24100Y51307D01*
X20573Y51307D01*
G37*
%LPD*%
%LPC*%
G36*
X14000Y51307D02*
X14000Y51307D01*
X6857Y58450D01*
X6857Y61977D01*
X17527Y61977D01*
X17527Y51307D01*
X14000Y51307D01*
G37*
%LPD*%
%LPC*%
G36*
X19049Y63499D02*
X19049Y63499D01*
X19049Y63501D01*
X19051Y63501D01*
X19051Y63499D01*
X19049Y63499D01*
G37*
%LPD*%
D10*
X463550Y92075D03*
X444500Y92075D03*
X425450Y92075D03*
X444500Y60325D03*
X463550Y60325D03*
X425450Y60325D03*
X425450Y139700D03*
X444500Y139700D03*
X463550Y139700D03*
X425450Y12700D03*
X444500Y12700D03*
X463550Y12700D03*
D11*
X19050Y88900D03*
X19050Y63500D03*
D10*
X263525Y92075D03*
D12*
X206375Y92075D01*
D10*
X206375Y92075D03*
X304800Y101600D03*
D12*
X247650Y101600D01*
D10*
X247650Y101600D03*
X142875Y155575D03*
X225425Y155575D03*
X307975Y155575D03*
X339725Y146050D03*
X371475Y146050D03*
X307975Y9525D03*
X285750Y9525D03*
X222250Y9525D03*
X203200Y9525D03*
X139700Y9525D03*
X120650Y9525D03*
X95250Y9525D03*
X76200Y9525D03*
X38100Y57150D03*
X50800Y53975D03*
X63500Y57150D03*
X371475Y136525D03*
X180975Y155575D03*
X263525Y155575D03*
X161925Y22225D03*
X244475Y22225D03*
X104775Y44450D03*
X104775Y95250D03*
X142875Y107950D03*
X184150Y114300D03*
X225425Y114300D03*
X266700Y114300D03*
X142875Y44450D03*
X161925Y44450D03*
X184150Y44450D03*
X228600Y44450D03*
X247650Y44450D03*
X266700Y44450D03*
X63500Y44450D03*
X298450Y44450D03*
X311150Y114300D03*
X355600Y53975D03*
X342900Y101600D03*
X371475Y111125D03*
X371475Y95250D03*
X384175Y60325D03*
X384175Y95250D03*
X41275Y101600D03*
X66675Y101600D03*
X193675Y92075D03*
X114300Y82550D03*
D12*
X288925Y82550D01*
D10*
X288925Y82550D03*
X314325Y69850D03*
D12*
X149225Y69850D01*
X149225Y69894D01*
D10*
X149225Y69894D03*
X180975Y92075D03*
D12*
X123825Y92075D01*
D10*
X123825Y92075D03*
X222250Y101600D03*
D12*
X165100Y101600D01*
D10*
X165100Y101600D03*
M02*
