G04 EAGLE Gerber RS-274X export*
G75*
%MOMM*%
%FSLAX34Y34*%
%LPD*%
%INTop Copper Layer*%
%IPPOS*%
%AMOC8*
5,1,8,0,0,1.08239X$1,22.5*%
G01*
%ADD10R,4.572000X2.540000*%
%ADD11R,4.572000X1.041400*%
%ADD12C,0.554000*%
%ADD13R,0.050800X0.050800*%
%ADD14C,0.604000*%
%ADD15C,1.041400*%
%ADD16C,2.819400*%
%ADD17C,0.812800*%
%ADD18C,1.092200*%
%ADD19C,1.143000*%
%ADD20C,1.193800*%
%ADD21C,1.244600*%
%ADD22C,1.295400*%
%ADD23C,1.346200*%

G36*
X54959Y451750D02*
X54959Y451750D01*
X55025Y451751D01*
X55105Y451774D01*
X55138Y451779D01*
X55155Y451789D01*
X55186Y451798D01*
X55659Y451994D01*
X200894Y451994D01*
X200959Y452004D01*
X201024Y452005D01*
X201105Y452028D01*
X201137Y452033D01*
X201154Y452043D01*
X201186Y452052D01*
X201659Y452248D01*
X346894Y452248D01*
X346958Y452258D01*
X347024Y452259D01*
X347104Y452282D01*
X347136Y452287D01*
X347154Y452297D01*
X347185Y452306D01*
X347658Y452502D01*
X492893Y452502D01*
X492958Y452512D01*
X493023Y452513D01*
X493103Y452536D01*
X493136Y452541D01*
X493153Y452551D01*
X493185Y452560D01*
X493658Y452756D01*
X638893Y452756D01*
X638957Y452766D01*
X639023Y452767D01*
X639103Y452790D01*
X639135Y452795D01*
X639153Y452805D01*
X639184Y452814D01*
X639657Y453010D01*
X784892Y453010D01*
X784957Y453020D01*
X785022Y453021D01*
X785102Y453044D01*
X785135Y453049D01*
X785152Y453059D01*
X785183Y453068D01*
X785657Y453264D01*
X944083Y453264D01*
X947335Y451917D01*
X947345Y451910D01*
X947415Y451850D01*
X947445Y451838D01*
X947471Y451819D01*
X947558Y451792D01*
X947643Y451758D01*
X947684Y451754D01*
X947706Y451747D01*
X947738Y451748D01*
X947809Y451740D01*
X950468Y451740D01*
X950488Y451743D01*
X950507Y451741D01*
X950609Y451763D01*
X950711Y451779D01*
X950728Y451789D01*
X950748Y451793D01*
X950837Y451846D01*
X950928Y451895D01*
X950942Y451909D01*
X950959Y451919D01*
X951026Y451998D01*
X951098Y452073D01*
X951104Y452086D01*
X951104Y451866D01*
X951105Y451864D01*
X951104Y451862D01*
X951124Y451819D01*
X951142Y451775D01*
X951144Y451775D01*
X951145Y451773D01*
X951230Y451740D01*
X996950Y451740D01*
X996952Y451741D01*
X996954Y451740D01*
X996997Y451760D01*
X997041Y451778D01*
X997041Y451780D01*
X997043Y451781D01*
X997076Y451866D01*
X997076Y464820D01*
X997075Y464822D01*
X997076Y464824D01*
X997056Y464867D01*
X997038Y464911D01*
X997036Y464911D01*
X997035Y464913D01*
X996950Y464946D01*
X992783Y464946D01*
X992838Y464976D01*
X992852Y464990D01*
X992869Y465000D01*
X992936Y465079D01*
X993008Y465154D01*
X993016Y465172D01*
X993029Y465187D01*
X993068Y465283D01*
X993111Y465377D01*
X993113Y465397D01*
X993121Y465415D01*
X993139Y465582D01*
X993139Y550418D01*
X993138Y550426D01*
X993138Y550428D01*
X993136Y550438D01*
X993138Y550457D01*
X993116Y550559D01*
X993100Y550661D01*
X993090Y550678D01*
X993086Y550698D01*
X993033Y550787D01*
X992984Y550878D01*
X992970Y550892D01*
X992960Y550909D01*
X992881Y550976D01*
X992806Y551048D01*
X992793Y551054D01*
X996950Y551054D01*
X996952Y551055D01*
X996954Y551054D01*
X996997Y551074D01*
X997041Y551092D01*
X997041Y551094D01*
X997043Y551095D01*
X997076Y551180D01*
X997076Y564134D01*
X997075Y564136D01*
X997076Y564138D01*
X997056Y564181D01*
X997038Y564225D01*
X997036Y564225D01*
X997035Y564227D01*
X996950Y564260D01*
X951230Y564260D01*
X951228Y564259D01*
X951226Y564260D01*
X951183Y564240D01*
X951139Y564222D01*
X951139Y564220D01*
X951137Y564219D01*
X951104Y564134D01*
X951104Y563904D01*
X951074Y563959D01*
X951060Y563973D01*
X951050Y563990D01*
X950971Y564057D01*
X950896Y564129D01*
X950878Y564137D01*
X950863Y564150D01*
X950767Y564189D01*
X950673Y564232D01*
X950653Y564234D01*
X950635Y564242D01*
X950468Y564260D01*
X46482Y564260D01*
X46462Y564257D01*
X46443Y564259D01*
X46341Y564237D01*
X46239Y564221D01*
X46222Y564211D01*
X46202Y564207D01*
X46113Y564154D01*
X46022Y564105D01*
X46008Y564091D01*
X45991Y564081D01*
X45924Y564002D01*
X45852Y563927D01*
X45846Y563914D01*
X45846Y564134D01*
X45845Y564136D01*
X45846Y564138D01*
X45826Y564181D01*
X45808Y564225D01*
X45806Y564225D01*
X45805Y564227D01*
X45720Y564260D01*
X0Y564260D01*
X-2Y564259D01*
X-4Y564260D01*
X-47Y564240D01*
X-91Y564222D01*
X-91Y564220D01*
X-93Y564219D01*
X-126Y564134D01*
X-126Y551180D01*
X-125Y551178D01*
X-126Y551176D01*
X-106Y551133D01*
X-88Y551089D01*
X-86Y551089D01*
X-85Y551087D01*
X0Y551054D01*
X4167Y551054D01*
X4112Y551024D01*
X4098Y551010D01*
X4081Y551000D01*
X4014Y550921D01*
X3942Y550846D01*
X3934Y550828D01*
X3921Y550813D01*
X3882Y550717D01*
X3839Y550623D01*
X3837Y550603D01*
X3829Y550585D01*
X3811Y550418D01*
X3811Y465582D01*
X3814Y465562D01*
X3812Y465543D01*
X3834Y465441D01*
X3850Y465339D01*
X3860Y465322D01*
X3864Y465302D01*
X3917Y465213D01*
X3966Y465122D01*
X3980Y465108D01*
X3990Y465091D01*
X4069Y465024D01*
X4144Y464952D01*
X4157Y464946D01*
X0Y464946D01*
X-2Y464945D01*
X-4Y464946D01*
X-47Y464926D01*
X-91Y464908D01*
X-91Y464906D01*
X-93Y464905D01*
X-126Y464820D01*
X-126Y451866D01*
X-125Y451864D01*
X-126Y451862D01*
X-106Y451819D01*
X-88Y451775D01*
X-86Y451775D01*
X-85Y451773D01*
X0Y451740D01*
X45720Y451740D01*
X45722Y451741D01*
X45724Y451740D01*
X45767Y451760D01*
X45811Y451778D01*
X45811Y451780D01*
X45813Y451781D01*
X45846Y451866D01*
X45846Y452096D01*
X45876Y452041D01*
X45890Y452027D01*
X45900Y452010D01*
X45979Y451943D01*
X46054Y451871D01*
X46072Y451863D01*
X46087Y451850D01*
X46183Y451811D01*
X46277Y451768D01*
X46297Y451766D01*
X46315Y451758D01*
X46482Y451740D01*
X54895Y451740D01*
X54959Y451750D01*
G37*
G36*
X949230Y818403D02*
X949230Y818403D01*
X949321Y818411D01*
X949351Y818423D01*
X949383Y818428D01*
X949464Y818471D01*
X949547Y818507D01*
X949580Y818533D01*
X949600Y818544D01*
X949622Y818567D01*
X949678Y818612D01*
X950624Y819557D01*
X950711Y819571D01*
X950728Y819581D01*
X950748Y819585D01*
X950837Y819638D01*
X950928Y819687D01*
X950942Y819701D01*
X950959Y819711D01*
X951026Y819790D01*
X951098Y819865D01*
X951106Y819883D01*
X951119Y819898D01*
X951158Y819994D01*
X951187Y820057D01*
X951230Y820040D01*
X996950Y820040D01*
X996952Y820041D01*
X996954Y820040D01*
X996997Y820060D01*
X997041Y820078D01*
X997041Y820080D01*
X997043Y820081D01*
X997076Y820166D01*
X997076Y833120D01*
X997075Y833122D01*
X997076Y833124D01*
X997056Y833167D01*
X997038Y833211D01*
X997036Y833211D01*
X997035Y833213D01*
X996950Y833246D01*
X992783Y833246D01*
X992838Y833276D01*
X992852Y833290D01*
X992869Y833300D01*
X992936Y833379D01*
X993008Y833454D01*
X993016Y833472D01*
X993029Y833487D01*
X993068Y833583D01*
X993111Y833677D01*
X993113Y833697D01*
X993121Y833715D01*
X993139Y833882D01*
X993139Y912368D01*
X993136Y912388D01*
X993138Y912407D01*
X993116Y912509D01*
X993100Y912611D01*
X993090Y912628D01*
X993086Y912648D01*
X993033Y912737D01*
X992984Y912828D01*
X992970Y912842D01*
X992960Y912859D01*
X992881Y912926D01*
X992806Y912998D01*
X992793Y913004D01*
X996950Y913004D01*
X996952Y913005D01*
X996954Y913004D01*
X996997Y913024D01*
X997041Y913042D01*
X997041Y913044D01*
X997043Y913045D01*
X997076Y913130D01*
X997076Y926084D01*
X997075Y926086D01*
X997076Y926088D01*
X997056Y926131D01*
X997038Y926175D01*
X997036Y926175D01*
X997035Y926177D01*
X996950Y926210D01*
X951230Y926210D01*
X951228Y926209D01*
X951226Y926210D01*
X951190Y926194D01*
X951190Y926200D01*
X951180Y926217D01*
X951176Y926237D01*
X951123Y926326D01*
X951074Y926417D01*
X951060Y926431D01*
X951050Y926448D01*
X950971Y926515D01*
X950896Y926587D01*
X950878Y926595D01*
X950863Y926608D01*
X950767Y926647D01*
X950673Y926690D01*
X950653Y926692D01*
X950635Y926700D01*
X950615Y926702D01*
X949678Y927638D01*
X949604Y927691D01*
X949535Y927751D01*
X949505Y927763D01*
X949479Y927782D01*
X949392Y927809D01*
X949307Y927843D01*
X949266Y927847D01*
X949244Y927854D01*
X949211Y927853D01*
X949140Y927861D01*
X47810Y927861D01*
X47720Y927847D01*
X47629Y927839D01*
X47599Y927827D01*
X47567Y927822D01*
X47486Y927779D01*
X47403Y927743D01*
X47370Y927717D01*
X47350Y927706D01*
X47328Y927683D01*
X47272Y927638D01*
X46326Y926693D01*
X46239Y926679D01*
X46222Y926669D01*
X46202Y926665D01*
X46113Y926612D01*
X46022Y926563D01*
X46008Y926549D01*
X45991Y926539D01*
X45924Y926460D01*
X45852Y926385D01*
X45844Y926367D01*
X45831Y926352D01*
X45792Y926256D01*
X45763Y926193D01*
X45720Y926210D01*
X0Y926210D01*
X-2Y926209D01*
X-4Y926210D01*
X-47Y926190D01*
X-91Y926172D01*
X-91Y926170D01*
X-93Y926169D01*
X-126Y926084D01*
X-126Y913130D01*
X-125Y913128D01*
X-126Y913126D01*
X-106Y913083D01*
X-88Y913039D01*
X-86Y913039D01*
X-85Y913037D01*
X0Y913004D01*
X4167Y913004D01*
X4112Y912974D01*
X4098Y912960D01*
X4081Y912950D01*
X4014Y912871D01*
X3942Y912796D01*
X3934Y912778D01*
X3921Y912763D01*
X3882Y912667D01*
X3839Y912573D01*
X3837Y912553D01*
X3829Y912535D01*
X3811Y912368D01*
X3811Y833882D01*
X3814Y833862D01*
X3812Y833843D01*
X3834Y833741D01*
X3850Y833639D01*
X3860Y833622D01*
X3864Y833602D01*
X3917Y833513D01*
X3966Y833422D01*
X3980Y833408D01*
X3990Y833391D01*
X4069Y833324D01*
X4144Y833252D01*
X4157Y833246D01*
X0Y833246D01*
X-2Y833245D01*
X-4Y833246D01*
X-47Y833226D01*
X-91Y833208D01*
X-91Y833206D01*
X-93Y833205D01*
X-126Y833120D01*
X-126Y820166D01*
X-125Y820164D01*
X-126Y820162D01*
X-106Y820119D01*
X-88Y820075D01*
X-86Y820075D01*
X-85Y820073D01*
X0Y820040D01*
X45720Y820040D01*
X45722Y820041D01*
X45724Y820040D01*
X45760Y820056D01*
X45760Y820050D01*
X45770Y820033D01*
X45774Y820013D01*
X45827Y819924D01*
X45876Y819833D01*
X45890Y819819D01*
X45900Y819802D01*
X45979Y819735D01*
X46054Y819663D01*
X46072Y819655D01*
X46087Y819642D01*
X46183Y819603D01*
X46277Y819560D01*
X46297Y819558D01*
X46315Y819550D01*
X46335Y819548D01*
X47272Y818612D01*
X47346Y818559D01*
X47415Y818499D01*
X47445Y818487D01*
X47471Y818468D01*
X47558Y818441D01*
X47643Y818407D01*
X47684Y818403D01*
X47706Y818396D01*
X47739Y818397D01*
X47810Y818389D01*
X949140Y818389D01*
X949230Y818403D01*
G37*
G36*
X950488Y699393D02*
X950488Y699393D01*
X950507Y699391D01*
X950609Y699413D01*
X950711Y699429D01*
X950728Y699439D01*
X950748Y699443D01*
X950837Y699496D01*
X950928Y699545D01*
X950942Y699559D01*
X950959Y699569D01*
X951026Y699648D01*
X951098Y699723D01*
X951104Y699736D01*
X951104Y699516D01*
X951105Y699514D01*
X951104Y699512D01*
X951124Y699469D01*
X951142Y699425D01*
X951144Y699425D01*
X951145Y699423D01*
X951230Y699390D01*
X996950Y699390D01*
X996952Y699391D01*
X996954Y699390D01*
X996997Y699410D01*
X997041Y699428D01*
X997041Y699430D01*
X997043Y699431D01*
X997076Y699516D01*
X997076Y712470D01*
X997075Y712472D01*
X997076Y712474D01*
X997056Y712517D01*
X997038Y712561D01*
X997036Y712561D01*
X997035Y712563D01*
X996950Y712596D01*
X992783Y712596D01*
X992838Y712626D01*
X992852Y712640D01*
X992869Y712650D01*
X992936Y712729D01*
X993008Y712804D01*
X993016Y712822D01*
X993029Y712837D01*
X993068Y712933D01*
X993111Y713027D01*
X993113Y713047D01*
X993121Y713065D01*
X993139Y713232D01*
X993139Y791718D01*
X993137Y791732D01*
X993138Y791744D01*
X993137Y791749D01*
X993138Y791757D01*
X993116Y791859D01*
X993100Y791961D01*
X993090Y791978D01*
X993086Y791998D01*
X993033Y792087D01*
X992984Y792178D01*
X992970Y792192D01*
X992960Y792209D01*
X992881Y792276D01*
X992806Y792348D01*
X992793Y792354D01*
X996950Y792354D01*
X996952Y792355D01*
X996954Y792354D01*
X996997Y792374D01*
X997041Y792392D01*
X997041Y792394D01*
X997043Y792395D01*
X997076Y792480D01*
X997076Y805434D01*
X997075Y805436D01*
X997076Y805438D01*
X997056Y805481D01*
X997038Y805525D01*
X997036Y805525D01*
X997035Y805527D01*
X996950Y805560D01*
X951230Y805560D01*
X951228Y805559D01*
X951226Y805560D01*
X951190Y805544D01*
X951190Y805550D01*
X951180Y805567D01*
X951176Y805587D01*
X951123Y805676D01*
X951074Y805767D01*
X951060Y805781D01*
X951050Y805798D01*
X950971Y805865D01*
X950896Y805937D01*
X950878Y805945D01*
X950863Y805958D01*
X950767Y805997D01*
X950673Y806040D01*
X950653Y806042D01*
X950635Y806050D01*
X950615Y806052D01*
X949678Y806988D01*
X949604Y807041D01*
X949535Y807101D01*
X949505Y807113D01*
X949479Y807132D01*
X949392Y807159D01*
X949307Y807193D01*
X949266Y807197D01*
X949244Y807204D01*
X949211Y807203D01*
X949140Y807211D01*
X47810Y807211D01*
X47720Y807197D01*
X47629Y807189D01*
X47599Y807177D01*
X47567Y807172D01*
X47486Y807129D01*
X47403Y807093D01*
X47370Y807067D01*
X47350Y807056D01*
X47328Y807033D01*
X47272Y806988D01*
X46326Y806043D01*
X46239Y806029D01*
X46222Y806019D01*
X46202Y806015D01*
X46113Y805962D01*
X46022Y805913D01*
X46008Y805899D01*
X45991Y805889D01*
X45924Y805810D01*
X45852Y805735D01*
X45844Y805717D01*
X45831Y805702D01*
X45792Y805606D01*
X45763Y805543D01*
X45720Y805560D01*
X0Y805560D01*
X-2Y805559D01*
X-4Y805560D01*
X-47Y805540D01*
X-91Y805522D01*
X-91Y805520D01*
X-93Y805519D01*
X-126Y805434D01*
X-126Y792480D01*
X-125Y792478D01*
X-126Y792476D01*
X-106Y792433D01*
X-88Y792389D01*
X-86Y792389D01*
X-85Y792387D01*
X0Y792354D01*
X4167Y792354D01*
X4112Y792324D01*
X4098Y792310D01*
X4081Y792300D01*
X4014Y792221D01*
X3942Y792146D01*
X3934Y792128D01*
X3921Y792113D01*
X3882Y792017D01*
X3839Y791923D01*
X3837Y791903D01*
X3829Y791885D01*
X3811Y791718D01*
X3811Y713232D01*
X3814Y713212D01*
X3812Y713193D01*
X3834Y713091D01*
X3850Y712989D01*
X3860Y712972D01*
X3864Y712952D01*
X3917Y712863D01*
X3966Y712772D01*
X3980Y712758D01*
X3990Y712741D01*
X4069Y712674D01*
X4144Y712602D01*
X4157Y712596D01*
X0Y712596D01*
X-2Y712595D01*
X-4Y712596D01*
X-47Y712576D01*
X-91Y712558D01*
X-91Y712556D01*
X-93Y712555D01*
X-126Y712470D01*
X-126Y699516D01*
X-125Y699514D01*
X-126Y699512D01*
X-106Y699469D01*
X-88Y699425D01*
X-86Y699425D01*
X-85Y699423D01*
X0Y699390D01*
X45720Y699390D01*
X45722Y699391D01*
X45724Y699390D01*
X45767Y699410D01*
X45811Y699428D01*
X45811Y699430D01*
X45813Y699431D01*
X45846Y699516D01*
X45846Y699746D01*
X45876Y699691D01*
X45890Y699677D01*
X45900Y699660D01*
X45979Y699593D01*
X46054Y699521D01*
X46072Y699513D01*
X46087Y699500D01*
X46183Y699461D01*
X46277Y699418D01*
X46297Y699416D01*
X46315Y699408D01*
X46482Y699390D01*
X950468Y699390D01*
X950488Y699393D01*
G37*
G36*
X950488Y578743D02*
X950488Y578743D01*
X950507Y578741D01*
X950609Y578763D01*
X950711Y578779D01*
X950728Y578789D01*
X950748Y578793D01*
X950837Y578846D01*
X950928Y578895D01*
X950942Y578909D01*
X950959Y578919D01*
X951026Y578998D01*
X951098Y579073D01*
X951104Y579086D01*
X951104Y578866D01*
X951105Y578864D01*
X951104Y578862D01*
X951124Y578819D01*
X951142Y578775D01*
X951144Y578775D01*
X951145Y578773D01*
X951230Y578740D01*
X996950Y578740D01*
X996952Y578741D01*
X996954Y578740D01*
X996997Y578760D01*
X997041Y578778D01*
X997041Y578780D01*
X997043Y578781D01*
X997076Y578866D01*
X997076Y591820D01*
X997075Y591822D01*
X997076Y591824D01*
X997056Y591867D01*
X997038Y591911D01*
X997036Y591911D01*
X997035Y591913D01*
X996950Y591946D01*
X992783Y591946D01*
X992838Y591976D01*
X992852Y591990D01*
X992869Y592000D01*
X992936Y592079D01*
X993008Y592154D01*
X993016Y592172D01*
X993029Y592187D01*
X993068Y592283D01*
X993111Y592377D01*
X993113Y592397D01*
X993121Y592415D01*
X993139Y592582D01*
X993139Y671068D01*
X993136Y671088D01*
X993138Y671107D01*
X993116Y671209D01*
X993100Y671311D01*
X993090Y671328D01*
X993086Y671348D01*
X993033Y671437D01*
X992984Y671528D01*
X992970Y671542D01*
X992960Y671559D01*
X992881Y671626D01*
X992806Y671698D01*
X992793Y671704D01*
X996950Y671704D01*
X996952Y671705D01*
X996954Y671704D01*
X996997Y671724D01*
X997041Y671742D01*
X997041Y671744D01*
X997043Y671745D01*
X997076Y671830D01*
X997076Y684784D01*
X997075Y684786D01*
X997076Y684788D01*
X997056Y684831D01*
X997038Y684875D01*
X997036Y684875D01*
X997035Y684877D01*
X996950Y684910D01*
X951230Y684910D01*
X951228Y684909D01*
X951226Y684910D01*
X951183Y684890D01*
X951139Y684872D01*
X951139Y684870D01*
X951137Y684869D01*
X951104Y684784D01*
X951104Y684554D01*
X951074Y684609D01*
X951060Y684623D01*
X951050Y684640D01*
X950971Y684707D01*
X950896Y684779D01*
X950878Y684787D01*
X950863Y684800D01*
X950767Y684839D01*
X950673Y684882D01*
X950653Y684884D01*
X950635Y684892D01*
X950468Y684910D01*
X46482Y684910D01*
X46462Y684907D01*
X46443Y684909D01*
X46341Y684887D01*
X46239Y684871D01*
X46222Y684861D01*
X46202Y684857D01*
X46113Y684804D01*
X46022Y684755D01*
X46008Y684741D01*
X45991Y684731D01*
X45924Y684652D01*
X45852Y684577D01*
X45846Y684564D01*
X45846Y684784D01*
X45845Y684786D01*
X45846Y684788D01*
X45826Y684831D01*
X45808Y684875D01*
X45806Y684875D01*
X45805Y684877D01*
X45720Y684910D01*
X0Y684910D01*
X-2Y684909D01*
X-4Y684910D01*
X-47Y684890D01*
X-91Y684872D01*
X-91Y684870D01*
X-93Y684869D01*
X-126Y684784D01*
X-126Y671830D01*
X-125Y671828D01*
X-126Y671826D01*
X-106Y671783D01*
X-88Y671739D01*
X-86Y671739D01*
X-85Y671737D01*
X0Y671704D01*
X4167Y671704D01*
X4112Y671674D01*
X4098Y671660D01*
X4081Y671650D01*
X4014Y671571D01*
X3942Y671496D01*
X3934Y671478D01*
X3921Y671463D01*
X3882Y671367D01*
X3839Y671273D01*
X3837Y671253D01*
X3829Y671235D01*
X3811Y671068D01*
X3811Y592582D01*
X3814Y592562D01*
X3812Y592543D01*
X3834Y592441D01*
X3850Y592339D01*
X3860Y592322D01*
X3864Y592302D01*
X3917Y592213D01*
X3966Y592122D01*
X3980Y592108D01*
X3990Y592091D01*
X4069Y592024D01*
X4144Y591952D01*
X4157Y591946D01*
X0Y591946D01*
X-2Y591945D01*
X-4Y591946D01*
X-47Y591926D01*
X-91Y591908D01*
X-91Y591906D01*
X-93Y591905D01*
X-126Y591820D01*
X-126Y578866D01*
X-125Y578864D01*
X-126Y578862D01*
X-106Y578819D01*
X-88Y578775D01*
X-86Y578775D01*
X-85Y578773D01*
X0Y578740D01*
X45720Y578740D01*
X45722Y578741D01*
X45724Y578740D01*
X45767Y578760D01*
X45811Y578778D01*
X45811Y578780D01*
X45813Y578781D01*
X45846Y578866D01*
X45846Y579096D01*
X45876Y579041D01*
X45890Y579027D01*
X45900Y579010D01*
X45979Y578943D01*
X46054Y578871D01*
X46072Y578863D01*
X46087Y578850D01*
X46183Y578811D01*
X46277Y578768D01*
X46297Y578766D01*
X46315Y578758D01*
X46482Y578740D01*
X950468Y578740D01*
X950488Y578743D01*
G37*
G36*
X949230Y939053D02*
X949230Y939053D01*
X949321Y939061D01*
X949351Y939073D01*
X949383Y939078D01*
X949464Y939121D01*
X949547Y939157D01*
X949580Y939183D01*
X949600Y939194D01*
X949622Y939217D01*
X949678Y939262D01*
X950624Y940207D01*
X950711Y940221D01*
X950728Y940231D01*
X950748Y940235D01*
X950837Y940288D01*
X950928Y940337D01*
X950942Y940351D01*
X950959Y940361D01*
X951026Y940440D01*
X951098Y940515D01*
X951106Y940533D01*
X951119Y940548D01*
X951158Y940644D01*
X951187Y940707D01*
X951230Y940690D01*
X996950Y940690D01*
X996952Y940691D01*
X996954Y940690D01*
X996997Y940710D01*
X997041Y940728D01*
X997041Y940730D01*
X997043Y940731D01*
X997076Y940816D01*
X997076Y953770D01*
X997075Y953772D01*
X997076Y953774D01*
X997056Y953817D01*
X997038Y953861D01*
X997036Y953861D01*
X997035Y953863D01*
X996950Y953896D01*
X992783Y953896D01*
X992838Y953926D01*
X992852Y953940D01*
X992869Y953950D01*
X992936Y954029D01*
X993008Y954104D01*
X993016Y954122D01*
X993029Y954137D01*
X993068Y954233D01*
X993111Y954327D01*
X993113Y954347D01*
X993121Y954365D01*
X993139Y954532D01*
X993139Y992378D01*
X993136Y992398D01*
X993138Y992417D01*
X993116Y992519D01*
X993100Y992621D01*
X993090Y992638D01*
X993086Y992658D01*
X993033Y992747D01*
X992984Y992838D01*
X992970Y992852D01*
X992960Y992869D01*
X992881Y992936D01*
X992806Y993008D01*
X992788Y993016D01*
X992773Y993029D01*
X992677Y993068D01*
X992583Y993111D01*
X992563Y993113D01*
X992545Y993121D01*
X992378Y993139D01*
X4572Y993139D01*
X4552Y993136D01*
X4533Y993138D01*
X4431Y993116D01*
X4329Y993100D01*
X4312Y993090D01*
X4292Y993086D01*
X4203Y993033D01*
X4112Y992984D01*
X4098Y992970D01*
X4081Y992960D01*
X4014Y992881D01*
X3942Y992806D01*
X3934Y992788D01*
X3921Y992773D01*
X3882Y992677D01*
X3839Y992583D01*
X3837Y992563D01*
X3829Y992545D01*
X3811Y992378D01*
X3811Y954532D01*
X3814Y954512D01*
X3812Y954493D01*
X3834Y954391D01*
X3850Y954289D01*
X3860Y954272D01*
X3864Y954252D01*
X3917Y954163D01*
X3966Y954072D01*
X3980Y954058D01*
X3990Y954041D01*
X4069Y953974D01*
X4144Y953902D01*
X4157Y953896D01*
X0Y953896D01*
X-2Y953895D01*
X-4Y953896D01*
X-47Y953876D01*
X-91Y953858D01*
X-91Y953856D01*
X-93Y953855D01*
X-126Y953770D01*
X-126Y940816D01*
X-125Y940814D01*
X-126Y940812D01*
X-106Y940769D01*
X-88Y940725D01*
X-86Y940725D01*
X-85Y940723D01*
X0Y940690D01*
X45720Y940690D01*
X45722Y940691D01*
X45724Y940690D01*
X45760Y940706D01*
X45760Y940700D01*
X45770Y940683D01*
X45774Y940663D01*
X45827Y940574D01*
X45876Y940483D01*
X45890Y940469D01*
X45900Y940452D01*
X45979Y940385D01*
X46054Y940313D01*
X46072Y940305D01*
X46087Y940292D01*
X46183Y940253D01*
X46277Y940210D01*
X46297Y940208D01*
X46315Y940200D01*
X46335Y940198D01*
X47272Y939262D01*
X47346Y939209D01*
X47415Y939149D01*
X47445Y939137D01*
X47471Y939118D01*
X47558Y939091D01*
X47643Y939057D01*
X47684Y939053D01*
X47706Y939046D01*
X47739Y939047D01*
X47810Y939039D01*
X949140Y939039D01*
X949230Y939053D01*
G37*
G36*
X61488Y311535D02*
X61488Y311535D01*
X61507Y311533D01*
X61609Y311555D01*
X61711Y311571D01*
X61728Y311581D01*
X61748Y311585D01*
X61837Y311638D01*
X61928Y311687D01*
X61942Y311701D01*
X61959Y311711D01*
X62026Y311790D01*
X62098Y311865D01*
X62106Y311883D01*
X62119Y311898D01*
X62158Y311994D01*
X62201Y312088D01*
X62203Y312108D01*
X62211Y312126D01*
X62229Y312293D01*
X62229Y400576D01*
X62974Y401321D01*
X933976Y401321D01*
X934721Y400576D01*
X934721Y312293D01*
X934724Y312273D01*
X934722Y312254D01*
X934744Y312152D01*
X934760Y312050D01*
X934770Y312033D01*
X934774Y312013D01*
X934827Y311924D01*
X934876Y311833D01*
X934890Y311819D01*
X934900Y311802D01*
X934979Y311735D01*
X935054Y311663D01*
X935072Y311655D01*
X935087Y311642D01*
X935183Y311603D01*
X935277Y311560D01*
X935297Y311558D01*
X935315Y311550D01*
X935482Y311532D01*
X950468Y311532D01*
X950488Y311535D01*
X950507Y311533D01*
X950609Y311555D01*
X950711Y311571D01*
X950728Y311581D01*
X950748Y311585D01*
X950837Y311638D01*
X950928Y311687D01*
X950942Y311701D01*
X950959Y311711D01*
X951026Y311790D01*
X951098Y311865D01*
X951106Y311883D01*
X951119Y311898D01*
X951158Y311994D01*
X951187Y312057D01*
X951230Y312040D01*
X996950Y312040D01*
X996952Y312041D01*
X996954Y312040D01*
X996997Y312060D01*
X997041Y312078D01*
X997041Y312080D01*
X997043Y312081D01*
X997076Y312166D01*
X997076Y325120D01*
X997075Y325122D01*
X997076Y325124D01*
X997056Y325167D01*
X997038Y325211D01*
X997036Y325211D01*
X997035Y325213D01*
X996950Y325246D01*
X992783Y325246D01*
X992838Y325276D01*
X992852Y325290D01*
X992869Y325300D01*
X992936Y325379D01*
X993008Y325454D01*
X993016Y325472D01*
X993029Y325487D01*
X993068Y325583D01*
X993111Y325677D01*
X993113Y325697D01*
X993121Y325715D01*
X993139Y325882D01*
X993139Y423418D01*
X993136Y423438D01*
X993138Y423457D01*
X993116Y423559D01*
X993100Y423661D01*
X993090Y423678D01*
X993086Y423698D01*
X993033Y423787D01*
X992984Y423878D01*
X992970Y423892D01*
X992960Y423909D01*
X992881Y423976D01*
X992806Y424048D01*
X992793Y424054D01*
X996950Y424054D01*
X996952Y424055D01*
X996954Y424054D01*
X996997Y424074D01*
X997041Y424092D01*
X997041Y424094D01*
X997043Y424095D01*
X997076Y424180D01*
X997076Y437134D01*
X997075Y437136D01*
X997076Y437138D01*
X997056Y437181D01*
X997038Y437225D01*
X997036Y437225D01*
X997035Y437227D01*
X996950Y437260D01*
X951230Y437260D01*
X951228Y437259D01*
X951226Y437260D01*
X951183Y437240D01*
X951139Y437222D01*
X951139Y437220D01*
X951137Y437219D01*
X951104Y437134D01*
X951104Y436904D01*
X951074Y436959D01*
X951060Y436973D01*
X951050Y436990D01*
X950971Y437057D01*
X950896Y437129D01*
X950878Y437137D01*
X950863Y437150D01*
X950767Y437189D01*
X950673Y437232D01*
X950653Y437234D01*
X950635Y437242D01*
X950468Y437260D01*
X947809Y437260D01*
X947719Y437246D01*
X947628Y437238D01*
X947599Y437226D01*
X947567Y437221D01*
X947486Y437178D01*
X947402Y437142D01*
X947370Y437116D01*
X947349Y437105D01*
X947327Y437082D01*
X947321Y437078D01*
X944083Y435736D01*
X785657Y435736D01*
X785183Y435932D01*
X785120Y435947D01*
X785059Y435972D01*
X784976Y435981D01*
X784944Y435988D01*
X784925Y435987D01*
X784892Y435990D01*
X639657Y435990D01*
X639184Y436186D01*
X639120Y436201D01*
X639059Y436226D01*
X638977Y436235D01*
X638945Y436242D01*
X638925Y436241D01*
X638893Y436244D01*
X493658Y436244D01*
X493185Y436440D01*
X493121Y436455D01*
X493060Y436480D01*
X492977Y436489D01*
X492945Y436496D01*
X492926Y436495D01*
X492893Y436498D01*
X347658Y436498D01*
X347185Y436694D01*
X347121Y436709D01*
X347060Y436734D01*
X346978Y436743D01*
X346946Y436750D01*
X346926Y436749D01*
X346894Y436752D01*
X201659Y436752D01*
X201186Y436948D01*
X201122Y436963D01*
X201061Y436988D01*
X200978Y436997D01*
X200946Y437004D01*
X200927Y437003D01*
X200894Y437006D01*
X55659Y437006D01*
X55186Y437202D01*
X55122Y437217D01*
X55062Y437242D01*
X54979Y437251D01*
X54947Y437258D01*
X54927Y437257D01*
X54895Y437260D01*
X46482Y437260D01*
X46462Y437257D01*
X46443Y437259D01*
X46341Y437237D01*
X46239Y437221D01*
X46222Y437211D01*
X46202Y437207D01*
X46113Y437154D01*
X46022Y437105D01*
X46008Y437091D01*
X45991Y437081D01*
X45924Y437002D01*
X45852Y436927D01*
X45846Y436914D01*
X45846Y437134D01*
X45845Y437136D01*
X45846Y437138D01*
X45826Y437181D01*
X45808Y437225D01*
X45806Y437225D01*
X45805Y437227D01*
X45720Y437260D01*
X0Y437260D01*
X-2Y437259D01*
X-4Y437260D01*
X-47Y437240D01*
X-91Y437222D01*
X-91Y437220D01*
X-93Y437219D01*
X-126Y437134D01*
X-126Y424180D01*
X-125Y424178D01*
X-126Y424176D01*
X-106Y424133D01*
X-88Y424089D01*
X-86Y424089D01*
X-85Y424087D01*
X0Y424054D01*
X4167Y424054D01*
X4112Y424024D01*
X4098Y424010D01*
X4081Y424000D01*
X4014Y423921D01*
X3942Y423846D01*
X3934Y423828D01*
X3921Y423813D01*
X3882Y423717D01*
X3839Y423623D01*
X3837Y423603D01*
X3829Y423585D01*
X3811Y423418D01*
X3811Y325882D01*
X3814Y325862D01*
X3812Y325843D01*
X3834Y325741D01*
X3850Y325639D01*
X3860Y325622D01*
X3864Y325602D01*
X3917Y325513D01*
X3966Y325422D01*
X3980Y325408D01*
X3990Y325391D01*
X4069Y325324D01*
X4144Y325252D01*
X4157Y325246D01*
X0Y325246D01*
X-2Y325245D01*
X-4Y325246D01*
X-47Y325226D01*
X-91Y325208D01*
X-91Y325206D01*
X-93Y325205D01*
X-126Y325120D01*
X-126Y312166D01*
X-125Y312164D01*
X-126Y312162D01*
X-106Y312119D01*
X-88Y312075D01*
X-86Y312075D01*
X-85Y312073D01*
X0Y312040D01*
X45720Y312040D01*
X45722Y312041D01*
X45724Y312040D01*
X45760Y312056D01*
X45760Y312050D01*
X45770Y312033D01*
X45774Y312013D01*
X45827Y311924D01*
X45876Y311833D01*
X45890Y311819D01*
X45900Y311802D01*
X45979Y311735D01*
X46054Y311663D01*
X46072Y311655D01*
X46087Y311642D01*
X46183Y311603D01*
X46277Y311560D01*
X46297Y311558D01*
X46315Y311550D01*
X46482Y311532D01*
X61468Y311532D01*
X61488Y311535D01*
G37*
G36*
X992398Y3814D02*
X992398Y3814D01*
X992417Y3812D01*
X992519Y3834D01*
X992621Y3850D01*
X992638Y3860D01*
X992658Y3864D01*
X992747Y3917D01*
X992838Y3966D01*
X992852Y3980D01*
X992869Y3990D01*
X992936Y4069D01*
X993008Y4144D01*
X993016Y4162D01*
X993029Y4177D01*
X993068Y4273D01*
X993111Y4367D01*
X993113Y4387D01*
X993121Y4405D01*
X993139Y4572D01*
X993139Y105918D01*
X993136Y105938D01*
X993138Y105957D01*
X993116Y106059D01*
X993100Y106161D01*
X993090Y106178D01*
X993086Y106198D01*
X993033Y106287D01*
X992984Y106378D01*
X992970Y106392D01*
X992960Y106409D01*
X992881Y106476D01*
X992806Y106548D01*
X992793Y106554D01*
X996950Y106554D01*
X996952Y106555D01*
X996954Y106554D01*
X996997Y106574D01*
X997041Y106592D01*
X997041Y106594D01*
X997043Y106595D01*
X997076Y106680D01*
X997076Y119634D01*
X997075Y119636D01*
X997076Y119638D01*
X997056Y119681D01*
X997038Y119725D01*
X997036Y119725D01*
X997035Y119727D01*
X996950Y119760D01*
X951230Y119760D01*
X951228Y119759D01*
X951226Y119760D01*
X951190Y119744D01*
X951190Y119750D01*
X951180Y119767D01*
X951176Y119787D01*
X951123Y119876D01*
X951074Y119967D01*
X951060Y119981D01*
X951050Y119998D01*
X950971Y120065D01*
X950896Y120137D01*
X950878Y120145D01*
X950863Y120158D01*
X950767Y120197D01*
X950673Y120240D01*
X950653Y120242D01*
X950635Y120250D01*
X950468Y120268D01*
X935482Y120268D01*
X935462Y120265D01*
X935443Y120267D01*
X935341Y120245D01*
X935239Y120229D01*
X935222Y120219D01*
X935202Y120215D01*
X935113Y120162D01*
X935022Y120113D01*
X935008Y120099D01*
X934991Y120089D01*
X934924Y120010D01*
X934852Y119935D01*
X934844Y119917D01*
X934831Y119902D01*
X934792Y119806D01*
X934749Y119712D01*
X934747Y119692D01*
X934739Y119674D01*
X934721Y119507D01*
X934721Y24874D01*
X933976Y24129D01*
X62974Y24129D01*
X62229Y24874D01*
X62229Y119507D01*
X62226Y119527D01*
X62228Y119546D01*
X62206Y119648D01*
X62190Y119750D01*
X62180Y119767D01*
X62176Y119787D01*
X62123Y119876D01*
X62074Y119967D01*
X62060Y119981D01*
X62050Y119998D01*
X61971Y120065D01*
X61896Y120137D01*
X61878Y120145D01*
X61863Y120158D01*
X61767Y120197D01*
X61673Y120240D01*
X61653Y120242D01*
X61635Y120250D01*
X61468Y120268D01*
X46482Y120268D01*
X46462Y120265D01*
X46443Y120267D01*
X46341Y120245D01*
X46239Y120229D01*
X46222Y120219D01*
X46202Y120215D01*
X46113Y120162D01*
X46022Y120113D01*
X46008Y120099D01*
X45991Y120089D01*
X45924Y120010D01*
X45852Y119935D01*
X45844Y119917D01*
X45831Y119902D01*
X45792Y119806D01*
X45763Y119743D01*
X45720Y119760D01*
X0Y119760D01*
X-2Y119759D01*
X-4Y119760D01*
X-47Y119740D01*
X-91Y119722D01*
X-91Y119720D01*
X-93Y119719D01*
X-126Y119634D01*
X-126Y106680D01*
X-125Y106678D01*
X-126Y106676D01*
X-106Y106633D01*
X-88Y106589D01*
X-86Y106589D01*
X-85Y106587D01*
X0Y106554D01*
X4167Y106554D01*
X4112Y106524D01*
X4098Y106510D01*
X4081Y106500D01*
X4014Y106421D01*
X3942Y106346D01*
X3934Y106328D01*
X3921Y106313D01*
X3882Y106217D01*
X3839Y106123D01*
X3837Y106103D01*
X3829Y106085D01*
X3811Y105918D01*
X3811Y4572D01*
X3814Y4552D01*
X3812Y4533D01*
X3834Y4431D01*
X3850Y4329D01*
X3860Y4312D01*
X3864Y4292D01*
X3917Y4203D01*
X3966Y4112D01*
X3980Y4098D01*
X3990Y4081D01*
X4069Y4014D01*
X4144Y3942D01*
X4162Y3934D01*
X4177Y3921D01*
X4273Y3882D01*
X4367Y3839D01*
X4387Y3837D01*
X4405Y3829D01*
X4572Y3811D01*
X992378Y3811D01*
X992398Y3814D01*
G37*
G36*
X950488Y133735D02*
X950488Y133735D01*
X950507Y133733D01*
X950609Y133755D01*
X950711Y133771D01*
X950728Y133781D01*
X950748Y133785D01*
X950837Y133838D01*
X950928Y133887D01*
X950942Y133901D01*
X950959Y133911D01*
X951026Y133990D01*
X951098Y134065D01*
X951106Y134083D01*
X951119Y134098D01*
X951158Y134194D01*
X951187Y134257D01*
X951230Y134240D01*
X996950Y134240D01*
X996952Y134241D01*
X996954Y134240D01*
X996997Y134260D01*
X997041Y134278D01*
X997041Y134280D01*
X997043Y134281D01*
X997076Y134366D01*
X997076Y147320D01*
X997075Y147322D01*
X997076Y147324D01*
X997056Y147367D01*
X997038Y147411D01*
X997036Y147411D01*
X997035Y147413D01*
X996950Y147446D01*
X992783Y147446D01*
X992838Y147476D01*
X992852Y147490D01*
X992869Y147500D01*
X992936Y147579D01*
X993008Y147654D01*
X993016Y147672D01*
X993029Y147687D01*
X993068Y147783D01*
X993111Y147877D01*
X993113Y147897D01*
X993121Y147915D01*
X993139Y148082D01*
X993139Y283718D01*
X993136Y283738D01*
X993138Y283757D01*
X993116Y283859D01*
X993100Y283961D01*
X993090Y283978D01*
X993086Y283998D01*
X993033Y284087D01*
X992984Y284178D01*
X992970Y284192D01*
X992960Y284209D01*
X992881Y284276D01*
X992806Y284348D01*
X992793Y284354D01*
X996950Y284354D01*
X996952Y284355D01*
X996954Y284354D01*
X996997Y284374D01*
X997041Y284392D01*
X997041Y284394D01*
X997043Y284395D01*
X997076Y284480D01*
X997076Y297434D01*
X997075Y297436D01*
X997076Y297438D01*
X997056Y297481D01*
X997038Y297525D01*
X997036Y297525D01*
X997035Y297527D01*
X996950Y297560D01*
X951230Y297560D01*
X951228Y297559D01*
X951226Y297560D01*
X951190Y297544D01*
X951190Y297550D01*
X951180Y297567D01*
X951176Y297587D01*
X951123Y297676D01*
X951074Y297767D01*
X951060Y297781D01*
X951050Y297798D01*
X950971Y297865D01*
X950896Y297937D01*
X950878Y297945D01*
X950863Y297958D01*
X950767Y297997D01*
X950673Y298040D01*
X950653Y298042D01*
X950635Y298050D01*
X950468Y298068D01*
X935482Y298068D01*
X935462Y298065D01*
X935443Y298067D01*
X935341Y298045D01*
X935239Y298029D01*
X935222Y298019D01*
X935202Y298015D01*
X935113Y297962D01*
X935022Y297913D01*
X935008Y297899D01*
X934991Y297889D01*
X934924Y297810D01*
X934852Y297735D01*
X934844Y297717D01*
X934831Y297702D01*
X934792Y297606D01*
X934749Y297512D01*
X934747Y297492D01*
X934739Y297474D01*
X934721Y297307D01*
X934721Y134493D01*
X934724Y134473D01*
X934722Y134454D01*
X934744Y134352D01*
X934760Y134250D01*
X934770Y134233D01*
X934774Y134213D01*
X934827Y134124D01*
X934876Y134033D01*
X934890Y134019D01*
X934900Y134002D01*
X934979Y133935D01*
X935054Y133863D01*
X935072Y133855D01*
X935087Y133842D01*
X935183Y133803D01*
X935277Y133760D01*
X935297Y133758D01*
X935315Y133750D01*
X935482Y133732D01*
X950468Y133732D01*
X950488Y133735D01*
G37*
G36*
X61488Y133735D02*
X61488Y133735D01*
X61507Y133733D01*
X61609Y133755D01*
X61711Y133771D01*
X61728Y133781D01*
X61748Y133785D01*
X61837Y133838D01*
X61928Y133887D01*
X61942Y133901D01*
X61959Y133911D01*
X62026Y133990D01*
X62098Y134065D01*
X62106Y134083D01*
X62119Y134098D01*
X62158Y134194D01*
X62201Y134288D01*
X62203Y134308D01*
X62211Y134326D01*
X62229Y134493D01*
X62229Y297307D01*
X62226Y297327D01*
X62228Y297346D01*
X62206Y297448D01*
X62190Y297550D01*
X62180Y297567D01*
X62176Y297587D01*
X62123Y297676D01*
X62074Y297767D01*
X62060Y297781D01*
X62050Y297798D01*
X61971Y297865D01*
X61896Y297937D01*
X61878Y297945D01*
X61863Y297958D01*
X61767Y297997D01*
X61673Y298040D01*
X61653Y298042D01*
X61635Y298050D01*
X61468Y298068D01*
X46482Y298068D01*
X46462Y298065D01*
X46443Y298067D01*
X46341Y298045D01*
X46239Y298029D01*
X46222Y298019D01*
X46202Y298015D01*
X46113Y297962D01*
X46022Y297913D01*
X46008Y297899D01*
X45991Y297889D01*
X45924Y297810D01*
X45852Y297735D01*
X45844Y297717D01*
X45831Y297702D01*
X45792Y297606D01*
X45763Y297543D01*
X45720Y297560D01*
X0Y297560D01*
X-2Y297559D01*
X-4Y297560D01*
X-47Y297540D01*
X-91Y297522D01*
X-91Y297520D01*
X-93Y297519D01*
X-126Y297434D01*
X-126Y284480D01*
X-125Y284478D01*
X-126Y284476D01*
X-106Y284433D01*
X-88Y284389D01*
X-86Y284389D01*
X-85Y284387D01*
X0Y284354D01*
X4167Y284354D01*
X4112Y284324D01*
X4098Y284310D01*
X4081Y284300D01*
X4014Y284221D01*
X3942Y284146D01*
X3934Y284128D01*
X3921Y284113D01*
X3882Y284017D01*
X3839Y283923D01*
X3837Y283903D01*
X3829Y283885D01*
X3811Y283718D01*
X3811Y148082D01*
X3814Y148062D01*
X3812Y148043D01*
X3834Y147941D01*
X3850Y147839D01*
X3860Y147822D01*
X3864Y147802D01*
X3917Y147713D01*
X3966Y147622D01*
X3980Y147608D01*
X3990Y147591D01*
X4069Y147524D01*
X4144Y147452D01*
X4157Y147446D01*
X0Y147446D01*
X-2Y147445D01*
X-4Y147446D01*
X-47Y147426D01*
X-91Y147408D01*
X-91Y147406D01*
X-93Y147405D01*
X-126Y147320D01*
X-126Y134366D01*
X-125Y134364D01*
X-126Y134362D01*
X-106Y134319D01*
X-88Y134275D01*
X-86Y134275D01*
X-85Y134273D01*
X0Y134240D01*
X45720Y134240D01*
X45722Y134241D01*
X45724Y134240D01*
X45760Y134256D01*
X45760Y134250D01*
X45770Y134233D01*
X45774Y134213D01*
X45827Y134124D01*
X45876Y134033D01*
X45890Y134019D01*
X45900Y134002D01*
X45979Y133935D01*
X46054Y133863D01*
X46072Y133855D01*
X46087Y133842D01*
X46183Y133803D01*
X46277Y133760D01*
X46297Y133758D01*
X46315Y133750D01*
X46482Y133732D01*
X61468Y133732D01*
X61488Y133735D01*
G37*
D10*
X974090Y160020D03*
X974090Y93980D03*
D11*
X974090Y127000D03*
D12*
X984250Y110490D03*
X984250Y143510D03*
X956310Y110490D03*
X956310Y143510D03*
X984250Y165100D03*
X958850Y165100D03*
X984250Y88900D03*
X958850Y88900D03*
D13*
X960120Y119380D03*
X960120Y134620D03*
D12*
X971550Y88900D03*
X971550Y165100D03*
X970280Y143510D03*
X970280Y110490D03*
D10*
X22860Y93980D03*
X22860Y160020D03*
D11*
X22860Y127000D03*
D12*
X12700Y143510D03*
X12700Y110490D03*
X40640Y143510D03*
X40640Y110490D03*
X12700Y88900D03*
X38100Y88900D03*
X12700Y165100D03*
X38100Y165100D03*
D13*
X36830Y134620D03*
X36830Y119380D03*
D12*
X25400Y165100D03*
X25400Y88900D03*
X26670Y110490D03*
X26670Y143510D03*
D10*
X974090Y337820D03*
X974090Y271780D03*
D11*
X974090Y304800D03*
D12*
X984250Y288290D03*
X984250Y321310D03*
X956310Y288290D03*
X956310Y321310D03*
X984250Y342900D03*
X958850Y342900D03*
X984250Y266700D03*
X958850Y266700D03*
D13*
X960120Y297180D03*
X960120Y312420D03*
D12*
X971550Y266700D03*
X971550Y342900D03*
X970280Y321310D03*
X970280Y288290D03*
D10*
X22860Y271780D03*
X22860Y337820D03*
D11*
X22860Y304800D03*
D12*
X12700Y321310D03*
X12700Y288290D03*
X40640Y321310D03*
X40640Y288290D03*
X12700Y266700D03*
X38100Y266700D03*
X12700Y342900D03*
X38100Y342900D03*
D13*
X36830Y312420D03*
X36830Y297180D03*
D12*
X25400Y342900D03*
X25400Y266700D03*
X26670Y288290D03*
X26670Y321310D03*
D10*
X974090Y604520D03*
X974090Y538480D03*
D11*
X974090Y571500D03*
D12*
X984250Y554990D03*
X984250Y588010D03*
X956310Y554990D03*
X956310Y588010D03*
X984250Y609600D03*
X958850Y609600D03*
X984250Y533400D03*
X958850Y533400D03*
D13*
X960120Y563880D03*
X960120Y579120D03*
D12*
X971550Y533400D03*
X971550Y609600D03*
X970280Y588010D03*
X970280Y554990D03*
D10*
X22860Y538480D03*
X22860Y604520D03*
D11*
X22860Y571500D03*
D12*
X12700Y588010D03*
X12700Y554990D03*
X40640Y588010D03*
X40640Y554990D03*
X12700Y533400D03*
X38100Y533400D03*
X12700Y609600D03*
X38100Y609600D03*
D13*
X36830Y579120D03*
X36830Y563880D03*
D12*
X25400Y609600D03*
X25400Y533400D03*
X26670Y554990D03*
X26670Y588010D03*
D10*
X974090Y725170D03*
X974090Y659130D03*
D11*
X974090Y692150D03*
D12*
X984250Y675640D03*
X984250Y708660D03*
X956310Y675640D03*
X956310Y708660D03*
X984250Y730250D03*
X958850Y730250D03*
X984250Y654050D03*
X958850Y654050D03*
D13*
X960120Y684530D03*
X960120Y699770D03*
D12*
X971550Y654050D03*
X971550Y730250D03*
X970280Y708660D03*
X970280Y675640D03*
D10*
X22860Y659130D03*
X22860Y725170D03*
D11*
X22860Y692150D03*
D12*
X12700Y708660D03*
X12700Y675640D03*
X40640Y708660D03*
X40640Y675640D03*
X12700Y654050D03*
X38100Y654050D03*
X12700Y730250D03*
X38100Y730250D03*
D13*
X36830Y699770D03*
X36830Y684530D03*
D12*
X25400Y730250D03*
X25400Y654050D03*
X26670Y675640D03*
X26670Y708660D03*
D10*
X22860Y779780D03*
X22860Y845820D03*
D11*
X22860Y812800D03*
D12*
X12700Y829310D03*
X12700Y796290D03*
X40640Y829310D03*
X40640Y796290D03*
X12700Y774700D03*
X38100Y774700D03*
X12700Y850900D03*
X38100Y850900D03*
D13*
X36830Y820420D03*
X36830Y805180D03*
D12*
X25400Y850900D03*
X25400Y774700D03*
X26670Y796290D03*
X26670Y829310D03*
D10*
X974090Y845820D03*
X974090Y779780D03*
D11*
X974090Y812800D03*
D12*
X984250Y796290D03*
X984250Y829310D03*
X956310Y796290D03*
X956310Y829310D03*
X984250Y850900D03*
X958850Y850900D03*
X984250Y774700D03*
X958850Y774700D03*
D13*
X960120Y805180D03*
X960120Y820420D03*
D12*
X971550Y774700D03*
X971550Y850900D03*
X970280Y829310D03*
X970280Y796290D03*
D10*
X22860Y900430D03*
X22860Y966470D03*
D11*
X22860Y933450D03*
D12*
X12700Y949960D03*
X12700Y916940D03*
X40640Y949960D03*
X40640Y916940D03*
X12700Y895350D03*
X38100Y895350D03*
X12700Y971550D03*
X38100Y971550D03*
D13*
X36830Y941070D03*
X36830Y925830D03*
D12*
X25400Y971550D03*
X25400Y895350D03*
X26670Y916940D03*
X26670Y949960D03*
D10*
X974090Y966470D03*
X974090Y900430D03*
D11*
X974090Y933450D03*
D12*
X984250Y916940D03*
X984250Y949960D03*
X956310Y916940D03*
X956310Y949960D03*
X984250Y971550D03*
X958850Y971550D03*
X984250Y895350D03*
X958850Y895350D03*
D13*
X960120Y925830D03*
X960120Y941070D03*
D12*
X971550Y895350D03*
X971550Y971550D03*
X970280Y949960D03*
X970280Y916940D03*
D10*
X22860Y411480D03*
X22860Y477520D03*
D11*
X22860Y444500D03*
D12*
X12700Y461010D03*
X12700Y427990D03*
X40640Y461010D03*
X40640Y427990D03*
X12700Y406400D03*
X38100Y406400D03*
X12700Y482600D03*
X38100Y482600D03*
D13*
X36830Y452120D03*
X36830Y436880D03*
D12*
X25400Y482600D03*
X25400Y406400D03*
X26670Y427990D03*
X26670Y461010D03*
D10*
X974090Y477520D03*
X974090Y411480D03*
D11*
X974090Y444500D03*
D12*
X984250Y427990D03*
X984250Y461010D03*
X956310Y427990D03*
X956310Y461010D03*
X984250Y482600D03*
X958850Y482600D03*
X984250Y406400D03*
X958850Y406400D03*
D13*
X960120Y436880D03*
X960120Y452120D03*
D12*
X971550Y406400D03*
X971550Y482600D03*
X970280Y461010D03*
X970280Y427990D03*
D14*
X57150Y139700D03*
X57150Y114300D03*
X939800Y139700D03*
X939800Y114300D03*
X57150Y292100D03*
X57150Y317500D03*
X939800Y292100D03*
X939800Y317500D03*
X63500Y584200D03*
X88900Y584200D03*
X114300Y584200D03*
X139700Y584200D03*
X165100Y584200D03*
X190500Y584200D03*
X215900Y584200D03*
X241300Y584200D03*
X266700Y584200D03*
X292100Y584200D03*
X317500Y584200D03*
X342900Y584200D03*
X368300Y584200D03*
X393700Y584200D03*
X419100Y584200D03*
X444500Y584200D03*
X469900Y584200D03*
X495300Y584200D03*
X520700Y584200D03*
X546100Y584200D03*
X571500Y584200D03*
X596900Y584200D03*
X622300Y584200D03*
X647700Y584200D03*
X673100Y584200D03*
X698500Y584200D03*
X723900Y584200D03*
X749300Y584200D03*
X774700Y584200D03*
X800100Y584200D03*
X825500Y584200D03*
X850900Y584200D03*
X876300Y584200D03*
X901700Y584200D03*
X927100Y584200D03*
X63500Y558800D03*
X88900Y558800D03*
X114300Y558800D03*
X139700Y558800D03*
X165100Y558800D03*
X190500Y558800D03*
X215900Y558800D03*
X241300Y558800D03*
X266700Y558800D03*
X292100Y558800D03*
X317500Y558800D03*
X342900Y558800D03*
X368300Y558800D03*
X393700Y558800D03*
X419100Y558800D03*
X444500Y558800D03*
X469900Y558800D03*
X495300Y558800D03*
X520700Y558800D03*
X546100Y558800D03*
X571500Y558800D03*
X596900Y558800D03*
X622300Y558800D03*
X647700Y558800D03*
X673100Y558800D03*
X698500Y558800D03*
X723900Y558800D03*
X749300Y558800D03*
X774700Y558800D03*
X800100Y558800D03*
X825500Y558800D03*
X850900Y558800D03*
X876300Y558800D03*
X901700Y558800D03*
X927100Y558800D03*
X63500Y704850D03*
X88900Y704850D03*
X114300Y704850D03*
X139700Y704850D03*
X165100Y704850D03*
X190500Y704850D03*
X215900Y704850D03*
X241300Y704850D03*
X266700Y704850D03*
X292100Y704850D03*
X317500Y704850D03*
X342900Y704850D03*
X368300Y704850D03*
X393700Y704850D03*
X419100Y704850D03*
X444500Y704850D03*
X469900Y704850D03*
X495300Y704850D03*
X520700Y704850D03*
X546100Y704850D03*
X571500Y704850D03*
X596900Y704850D03*
X622300Y704850D03*
X647700Y704850D03*
X673100Y704850D03*
X698500Y704850D03*
X723900Y704850D03*
X749300Y704850D03*
X774700Y704850D03*
X800100Y704850D03*
X825500Y704850D03*
X850900Y704850D03*
X876300Y704850D03*
X901700Y704850D03*
X927100Y704850D03*
X63500Y679450D03*
X88900Y679450D03*
X114300Y679450D03*
X139700Y679450D03*
X165100Y679450D03*
X190500Y679450D03*
X215900Y679450D03*
X241300Y679450D03*
X266700Y679450D03*
X292100Y679450D03*
X317500Y679450D03*
X342900Y679450D03*
X368300Y679450D03*
X393700Y679450D03*
X419100Y679450D03*
X444500Y679450D03*
X469900Y679450D03*
X495300Y679450D03*
X520700Y679450D03*
X546100Y679450D03*
X571500Y679450D03*
X596900Y679450D03*
X622300Y679450D03*
X647700Y679450D03*
X673100Y679450D03*
X698500Y679450D03*
X723900Y679450D03*
X749300Y679450D03*
X774700Y679450D03*
X800100Y679450D03*
X825500Y679450D03*
X850900Y679450D03*
X876300Y679450D03*
X901700Y679450D03*
X927100Y679450D03*
X63500Y825500D03*
X88900Y825500D03*
X114300Y825500D03*
X139700Y825500D03*
X165100Y825500D03*
X190500Y825500D03*
X215900Y825500D03*
X241300Y825500D03*
X266700Y825500D03*
X292100Y825500D03*
X317500Y825500D03*
X342900Y825500D03*
X368300Y825500D03*
X393700Y825500D03*
X419100Y825500D03*
X444500Y825500D03*
X469900Y825500D03*
X495300Y825500D03*
X520700Y825500D03*
X546100Y825500D03*
X571500Y825500D03*
X596900Y825500D03*
X622300Y825500D03*
X647700Y825500D03*
X673100Y825500D03*
X698500Y825500D03*
X723900Y825500D03*
X749300Y825500D03*
X774700Y825500D03*
X800100Y825500D03*
X825500Y825500D03*
X850900Y825500D03*
X876300Y825500D03*
X901700Y825500D03*
X927100Y825500D03*
X63500Y800100D03*
X88900Y800100D03*
X114300Y800100D03*
X139700Y800100D03*
X165100Y800100D03*
X190500Y800100D03*
X215900Y800100D03*
X241300Y800100D03*
X266700Y800100D03*
X292100Y800100D03*
X317500Y800100D03*
X342900Y800100D03*
X368300Y800100D03*
X393700Y800100D03*
X419100Y800100D03*
X444500Y800100D03*
X469900Y800100D03*
X495300Y800100D03*
X520700Y800100D03*
X546100Y800100D03*
X571500Y800100D03*
X596900Y800100D03*
X622300Y800100D03*
X647700Y800100D03*
X673100Y800100D03*
X698500Y800100D03*
X723900Y800100D03*
X749300Y800100D03*
X774700Y800100D03*
X800100Y800100D03*
X825500Y800100D03*
X850900Y800100D03*
X876300Y800100D03*
X901700Y800100D03*
X927100Y800100D03*
X63500Y920750D03*
X88900Y920750D03*
X114300Y920750D03*
X139700Y920750D03*
X165100Y920750D03*
X190500Y920750D03*
X215900Y920750D03*
X241300Y920750D03*
X266700Y920750D03*
X292100Y920750D03*
X317500Y920750D03*
X342900Y920750D03*
X368300Y920750D03*
X393700Y920750D03*
X419100Y920750D03*
X444500Y920750D03*
X469900Y920750D03*
X495300Y920750D03*
X520700Y920750D03*
X546100Y920750D03*
X571500Y920750D03*
X596900Y920750D03*
X622300Y920750D03*
X647700Y920750D03*
X673100Y920750D03*
X698500Y920750D03*
X723900Y920750D03*
X749300Y920750D03*
X774700Y920750D03*
X800100Y920750D03*
X825500Y920750D03*
X850900Y920750D03*
X876300Y920750D03*
X901700Y920750D03*
X927100Y920750D03*
X63500Y946150D03*
X88900Y946150D03*
X114300Y946150D03*
X139700Y946150D03*
X165100Y946150D03*
X190500Y946150D03*
X215900Y946150D03*
X241300Y946150D03*
X266700Y946150D03*
X292100Y946150D03*
X317500Y946150D03*
X342900Y946150D03*
X368300Y946150D03*
X393700Y946150D03*
X419100Y946150D03*
X444500Y946150D03*
X469900Y946150D03*
X495300Y946150D03*
X520700Y946150D03*
X546100Y946150D03*
X571500Y946150D03*
X596900Y946150D03*
X622300Y946150D03*
X647700Y946150D03*
X673100Y946150D03*
X698500Y946150D03*
X723900Y946150D03*
X749300Y946150D03*
X774700Y946150D03*
X800100Y946150D03*
X825500Y946150D03*
X850900Y946150D03*
X876300Y946150D03*
X901700Y946150D03*
X927100Y946150D03*
D15*
X76200Y127000D02*
X22860Y127000D01*
X920750Y127000D02*
X974090Y127000D01*
D16*
X920750Y127000D02*
X76200Y127000D01*
D15*
X76200Y304800D02*
X22860Y304800D01*
X920750Y304800D02*
X974090Y304800D01*
D16*
X920750Y304800D02*
X76200Y304800D01*
D15*
X22860Y571500D02*
X974090Y571500D01*
X974090Y692150D02*
X22860Y692150D01*
D17*
X22860Y812800D02*
X974090Y812800D01*
X974090Y933450D02*
X22860Y933450D01*
D15*
X22860Y444500D02*
X57150Y444500D01*
D18*
X203200Y444500D01*
D19*
X349250Y444500D01*
D20*
X495300Y444500D01*
D21*
X641350Y444500D01*
D22*
X787400Y444500D01*
D23*
X942340Y444500D01*
D15*
X974090Y444500D01*
M02*
