G04 EAGLE Gerber RS-274X export*
G75*
%MOMM*%
%FSLAX34Y34*%
%LPD*%
%INBottom Copper Layer*%
%IPPOS*%
%AMOC8*
5,1,8,0,0,1.08239X$1,22.5*%
G01*
%ADD10C,0.554000*%
%ADD11R,4.572000X9.144000*%
%ADD12C,0.604000*%

G36*
X992398Y3814D02*
X992398Y3814D01*
X992417Y3812D01*
X992519Y3834D01*
X992621Y3850D01*
X992638Y3860D01*
X992658Y3864D01*
X992747Y3917D01*
X992838Y3966D01*
X992852Y3980D01*
X992869Y3990D01*
X992936Y4069D01*
X993008Y4144D01*
X993016Y4162D01*
X993029Y4177D01*
X993068Y4273D01*
X993111Y4367D01*
X993113Y4387D01*
X993121Y4405D01*
X993139Y4572D01*
X993139Y992378D01*
X993136Y992398D01*
X993138Y992417D01*
X993116Y992519D01*
X993100Y992621D01*
X993090Y992638D01*
X993086Y992658D01*
X993033Y992747D01*
X992984Y992838D01*
X992970Y992852D01*
X992960Y992869D01*
X992881Y992936D01*
X992806Y993008D01*
X992788Y993016D01*
X992773Y993029D01*
X992677Y993068D01*
X992583Y993111D01*
X992563Y993113D01*
X992545Y993121D01*
X992378Y993139D01*
X4572Y993139D01*
X4552Y993136D01*
X4533Y993138D01*
X4431Y993116D01*
X4329Y993100D01*
X4312Y993090D01*
X4292Y993086D01*
X4203Y993033D01*
X4112Y992984D01*
X4098Y992970D01*
X4081Y992960D01*
X4014Y992881D01*
X3942Y992806D01*
X3934Y992788D01*
X3921Y992773D01*
X3882Y992677D01*
X3839Y992583D01*
X3837Y992563D01*
X3829Y992545D01*
X3811Y992378D01*
X3811Y4572D01*
X3814Y4552D01*
X3812Y4533D01*
X3834Y4431D01*
X3850Y4329D01*
X3860Y4312D01*
X3864Y4292D01*
X3917Y4203D01*
X3966Y4112D01*
X3980Y4098D01*
X3990Y4081D01*
X4069Y4014D01*
X4144Y3942D01*
X4162Y3934D01*
X4177Y3921D01*
X4273Y3882D01*
X4367Y3839D01*
X4387Y3837D01*
X4405Y3829D01*
X4572Y3811D01*
X992378Y3811D01*
X992398Y3814D01*
G37*
D10*
X984250Y110490D03*
X984250Y143510D03*
X956310Y110490D03*
X956310Y143510D03*
X984250Y165100D03*
X958850Y165100D03*
X984250Y88900D03*
X958850Y88900D03*
X971550Y88900D03*
X971550Y165100D03*
X970280Y143510D03*
X970280Y110490D03*
D11*
X974090Y127000D03*
D10*
X12700Y143510D03*
X12700Y110490D03*
X40640Y143510D03*
X40640Y110490D03*
X12700Y88900D03*
X38100Y88900D03*
X12700Y165100D03*
X38100Y165100D03*
X25400Y165100D03*
X25400Y88900D03*
X26670Y110490D03*
X26670Y143510D03*
D11*
X22860Y127000D03*
D10*
X984250Y288290D03*
X984250Y321310D03*
X956310Y288290D03*
X956310Y321310D03*
X984250Y342900D03*
X958850Y342900D03*
X984250Y266700D03*
X958850Y266700D03*
X971550Y266700D03*
X971550Y342900D03*
X970280Y321310D03*
X970280Y288290D03*
D11*
X974090Y304800D03*
D10*
X12700Y321310D03*
X12700Y288290D03*
X40640Y321310D03*
X40640Y288290D03*
X12700Y266700D03*
X38100Y266700D03*
X12700Y342900D03*
X38100Y342900D03*
X25400Y342900D03*
X25400Y266700D03*
X26670Y288290D03*
X26670Y321310D03*
D11*
X22860Y304800D03*
D10*
X984250Y554990D03*
X984250Y588010D03*
X956310Y554990D03*
X956310Y588010D03*
X984250Y609600D03*
X958850Y609600D03*
X984250Y533400D03*
X958850Y533400D03*
X971550Y533400D03*
X971550Y609600D03*
X970280Y588010D03*
X970280Y554990D03*
D11*
X974090Y571500D03*
D10*
X12700Y588010D03*
X12700Y554990D03*
X40640Y588010D03*
X40640Y554990D03*
X12700Y533400D03*
X38100Y533400D03*
X12700Y609600D03*
X38100Y609600D03*
X25400Y609600D03*
X25400Y533400D03*
X26670Y554990D03*
X26670Y588010D03*
D11*
X22860Y571500D03*
D10*
X984250Y675640D03*
X984250Y708660D03*
X956310Y675640D03*
X956310Y708660D03*
X984250Y730250D03*
X958850Y730250D03*
X984250Y654050D03*
X958850Y654050D03*
X971550Y654050D03*
X971550Y730250D03*
X970280Y708660D03*
X970280Y675640D03*
D11*
X974090Y692150D03*
D10*
X12700Y708660D03*
X12700Y675640D03*
X40640Y708660D03*
X40640Y675640D03*
X12700Y654050D03*
X38100Y654050D03*
X12700Y730250D03*
X38100Y730250D03*
X25400Y730250D03*
X25400Y654050D03*
X26670Y675640D03*
X26670Y708660D03*
D11*
X22860Y692150D03*
D10*
X12700Y829310D03*
X12700Y796290D03*
X40640Y829310D03*
X40640Y796290D03*
X12700Y774700D03*
X38100Y774700D03*
X12700Y850900D03*
X38100Y850900D03*
X25400Y850900D03*
X25400Y774700D03*
X26670Y796290D03*
X26670Y829310D03*
D11*
X22860Y812800D03*
D10*
X984250Y796290D03*
X984250Y829310D03*
X956310Y796290D03*
X956310Y829310D03*
X984250Y850900D03*
X958850Y850900D03*
X984250Y774700D03*
X958850Y774700D03*
X971550Y774700D03*
X971550Y850900D03*
X970280Y829310D03*
X970280Y796290D03*
D11*
X974090Y812800D03*
D10*
X12700Y949960D03*
X12700Y916940D03*
X40640Y949960D03*
X40640Y916940D03*
X12700Y895350D03*
X38100Y895350D03*
X12700Y971550D03*
X38100Y971550D03*
X25400Y971550D03*
X25400Y895350D03*
X26670Y916940D03*
X26670Y949960D03*
D11*
X22860Y933450D03*
D10*
X984250Y916940D03*
X984250Y949960D03*
X956310Y916940D03*
X956310Y949960D03*
X984250Y971550D03*
X958850Y971550D03*
X984250Y895350D03*
X958850Y895350D03*
X971550Y895350D03*
X971550Y971550D03*
X970280Y949960D03*
X970280Y916940D03*
D11*
X974090Y933450D03*
D10*
X12700Y461010D03*
X12700Y427990D03*
X40640Y461010D03*
X40640Y427990D03*
X12700Y406400D03*
X38100Y406400D03*
X12700Y482600D03*
X38100Y482600D03*
X25400Y482600D03*
X25400Y406400D03*
X26670Y427990D03*
X26670Y461010D03*
D11*
X22860Y444500D03*
D10*
X984250Y427990D03*
X984250Y461010D03*
X956310Y427990D03*
X956310Y461010D03*
X984250Y482600D03*
X958850Y482600D03*
X984250Y406400D03*
X958850Y406400D03*
X971550Y406400D03*
X971550Y482600D03*
X970280Y461010D03*
X970280Y427990D03*
D11*
X974090Y444500D03*
D12*
X57150Y139700D03*
X57150Y114300D03*
X939800Y139700D03*
X939800Y114300D03*
X57150Y292100D03*
X57150Y317500D03*
X939800Y292100D03*
X939800Y317500D03*
X63500Y584200D03*
X88900Y584200D03*
X114300Y584200D03*
X139700Y584200D03*
X165100Y584200D03*
X190500Y584200D03*
X215900Y584200D03*
X241300Y584200D03*
X266700Y584200D03*
X292100Y584200D03*
X317500Y584200D03*
X342900Y584200D03*
X368300Y584200D03*
X393700Y584200D03*
X419100Y584200D03*
X444500Y584200D03*
X469900Y584200D03*
X495300Y584200D03*
X520700Y584200D03*
X546100Y584200D03*
X571500Y584200D03*
X596900Y584200D03*
X622300Y584200D03*
X647700Y584200D03*
X673100Y584200D03*
X698500Y584200D03*
X723900Y584200D03*
X749300Y584200D03*
X774700Y584200D03*
X800100Y584200D03*
X825500Y584200D03*
X850900Y584200D03*
X876300Y584200D03*
X901700Y584200D03*
X927100Y584200D03*
X63500Y558800D03*
X88900Y558800D03*
X114300Y558800D03*
X139700Y558800D03*
X165100Y558800D03*
X190500Y558800D03*
X215900Y558800D03*
X241300Y558800D03*
X266700Y558800D03*
X292100Y558800D03*
X317500Y558800D03*
X342900Y558800D03*
X368300Y558800D03*
X393700Y558800D03*
X419100Y558800D03*
X444500Y558800D03*
X469900Y558800D03*
X495300Y558800D03*
X520700Y558800D03*
X546100Y558800D03*
X571500Y558800D03*
X596900Y558800D03*
X622300Y558800D03*
X647700Y558800D03*
X673100Y558800D03*
X698500Y558800D03*
X723900Y558800D03*
X749300Y558800D03*
X774700Y558800D03*
X800100Y558800D03*
X825500Y558800D03*
X850900Y558800D03*
X876300Y558800D03*
X901700Y558800D03*
X927100Y558800D03*
X63500Y704850D03*
X88900Y704850D03*
X114300Y704850D03*
X139700Y704850D03*
X165100Y704850D03*
X190500Y704850D03*
X215900Y704850D03*
X241300Y704850D03*
X266700Y704850D03*
X292100Y704850D03*
X317500Y704850D03*
X342900Y704850D03*
X368300Y704850D03*
X393700Y704850D03*
X419100Y704850D03*
X444500Y704850D03*
X469900Y704850D03*
X495300Y704850D03*
X520700Y704850D03*
X546100Y704850D03*
X571500Y704850D03*
X596900Y704850D03*
X622300Y704850D03*
X647700Y704850D03*
X673100Y704850D03*
X698500Y704850D03*
X723900Y704850D03*
X749300Y704850D03*
X774700Y704850D03*
X800100Y704850D03*
X825500Y704850D03*
X850900Y704850D03*
X876300Y704850D03*
X901700Y704850D03*
X927100Y704850D03*
X63500Y679450D03*
X88900Y679450D03*
X114300Y679450D03*
X139700Y679450D03*
X165100Y679450D03*
X190500Y679450D03*
X215900Y679450D03*
X241300Y679450D03*
X266700Y679450D03*
X292100Y679450D03*
X317500Y679450D03*
X342900Y679450D03*
X368300Y679450D03*
X393700Y679450D03*
X419100Y679450D03*
X444500Y679450D03*
X469900Y679450D03*
X495300Y679450D03*
X520700Y679450D03*
X546100Y679450D03*
X571500Y679450D03*
X596900Y679450D03*
X622300Y679450D03*
X647700Y679450D03*
X673100Y679450D03*
X698500Y679450D03*
X723900Y679450D03*
X749300Y679450D03*
X774700Y679450D03*
X800100Y679450D03*
X825500Y679450D03*
X850900Y679450D03*
X876300Y679450D03*
X901700Y679450D03*
X927100Y679450D03*
X63500Y825500D03*
X88900Y825500D03*
X114300Y825500D03*
X139700Y825500D03*
X165100Y825500D03*
X190500Y825500D03*
X215900Y825500D03*
X241300Y825500D03*
X266700Y825500D03*
X292100Y825500D03*
X317500Y825500D03*
X342900Y825500D03*
X368300Y825500D03*
X393700Y825500D03*
X419100Y825500D03*
X444500Y825500D03*
X469900Y825500D03*
X495300Y825500D03*
X520700Y825500D03*
X546100Y825500D03*
X571500Y825500D03*
X596900Y825500D03*
X622300Y825500D03*
X647700Y825500D03*
X673100Y825500D03*
X698500Y825500D03*
X723900Y825500D03*
X749300Y825500D03*
X774700Y825500D03*
X800100Y825500D03*
X825500Y825500D03*
X850900Y825500D03*
X876300Y825500D03*
X901700Y825500D03*
X927100Y825500D03*
X63500Y800100D03*
X88900Y800100D03*
X114300Y800100D03*
X139700Y800100D03*
X165100Y800100D03*
X190500Y800100D03*
X215900Y800100D03*
X241300Y800100D03*
X266700Y800100D03*
X292100Y800100D03*
X317500Y800100D03*
X342900Y800100D03*
X368300Y800100D03*
X393700Y800100D03*
X419100Y800100D03*
X444500Y800100D03*
X469900Y800100D03*
X495300Y800100D03*
X520700Y800100D03*
X546100Y800100D03*
X571500Y800100D03*
X596900Y800100D03*
X622300Y800100D03*
X647700Y800100D03*
X673100Y800100D03*
X698500Y800100D03*
X723900Y800100D03*
X749300Y800100D03*
X774700Y800100D03*
X800100Y800100D03*
X825500Y800100D03*
X850900Y800100D03*
X876300Y800100D03*
X901700Y800100D03*
X927100Y800100D03*
X63500Y920750D03*
X88900Y920750D03*
X114300Y920750D03*
X139700Y920750D03*
X165100Y920750D03*
X190500Y920750D03*
X215900Y920750D03*
X241300Y920750D03*
X266700Y920750D03*
X292100Y920750D03*
X317500Y920750D03*
X342900Y920750D03*
X368300Y920750D03*
X393700Y920750D03*
X419100Y920750D03*
X444500Y920750D03*
X469900Y920750D03*
X495300Y920750D03*
X520700Y920750D03*
X546100Y920750D03*
X571500Y920750D03*
X596900Y920750D03*
X622300Y920750D03*
X647700Y920750D03*
X673100Y920750D03*
X698500Y920750D03*
X723900Y920750D03*
X749300Y920750D03*
X774700Y920750D03*
X800100Y920750D03*
X825500Y920750D03*
X850900Y920750D03*
X876300Y920750D03*
X901700Y920750D03*
X927100Y920750D03*
X63500Y946150D03*
X88900Y946150D03*
X114300Y946150D03*
X139700Y946150D03*
X165100Y946150D03*
X190500Y946150D03*
X215900Y946150D03*
X241300Y946150D03*
X266700Y946150D03*
X292100Y946150D03*
X317500Y946150D03*
X342900Y946150D03*
X368300Y946150D03*
X393700Y946150D03*
X419100Y946150D03*
X444500Y946150D03*
X469900Y946150D03*
X495300Y946150D03*
X520700Y946150D03*
X546100Y946150D03*
X571500Y946150D03*
X596900Y946150D03*
X622300Y946150D03*
X647700Y946150D03*
X673100Y946150D03*
X698500Y946150D03*
X723900Y946150D03*
X749300Y946150D03*
X774700Y946150D03*
X800100Y946150D03*
X825500Y946150D03*
X850900Y946150D03*
X876300Y946150D03*
X901700Y946150D03*
X927100Y946150D03*
M02*
