G04 EAGLE Gerber RS-274X export*
G75*
%MOMM*%
%FSLAX34Y34*%
%LPD*%
%INTop Solder Paste*%
%IPPOS*%
%AMOC8*
5,1,8,0,0,1.08239X$1,22.5*%
G01*
%ADD10C,0.045000*%
%ADD11R,1.270000X1.270000*%


D10*
X78450Y49575D02*
X93000Y49575D01*
X93000Y45525D01*
X78450Y45525D01*
X78450Y49575D01*
X78450Y45952D02*
X93000Y45952D01*
X93000Y46379D02*
X78450Y46379D01*
X78450Y46806D02*
X93000Y46806D01*
X93000Y47233D02*
X78450Y47233D01*
X78450Y47660D02*
X93000Y47660D01*
X93000Y48087D02*
X78450Y48087D01*
X78450Y48514D02*
X93000Y48514D01*
X93000Y48941D02*
X78450Y48941D01*
X78450Y49368D02*
X93000Y49368D01*
X93000Y43075D02*
X78450Y43075D01*
X93000Y43075D02*
X93000Y39025D01*
X78450Y39025D01*
X78450Y43075D01*
X78450Y39452D02*
X93000Y39452D01*
X93000Y39879D02*
X78450Y39879D01*
X78450Y40306D02*
X93000Y40306D01*
X93000Y40733D02*
X78450Y40733D01*
X78450Y41160D02*
X93000Y41160D01*
X93000Y41587D02*
X78450Y41587D01*
X78450Y42014D02*
X93000Y42014D01*
X93000Y42441D02*
X78450Y42441D01*
X78450Y42868D02*
X93000Y42868D01*
X93000Y36575D02*
X78450Y36575D01*
X93000Y36575D02*
X93000Y32525D01*
X78450Y32525D01*
X78450Y36575D01*
X78450Y32952D02*
X93000Y32952D01*
X93000Y33379D02*
X78450Y33379D01*
X78450Y33806D02*
X93000Y33806D01*
X93000Y34233D02*
X78450Y34233D01*
X78450Y34660D02*
X93000Y34660D01*
X93000Y35087D02*
X78450Y35087D01*
X78450Y35514D02*
X93000Y35514D01*
X93000Y35941D02*
X78450Y35941D01*
X78450Y36368D02*
X93000Y36368D01*
X93000Y30075D02*
X78450Y30075D01*
X93000Y30075D02*
X93000Y26025D01*
X78450Y26025D01*
X78450Y30075D01*
X78450Y26452D02*
X93000Y26452D01*
X93000Y26879D02*
X78450Y26879D01*
X78450Y27306D02*
X93000Y27306D01*
X93000Y27733D02*
X78450Y27733D01*
X78450Y28160D02*
X93000Y28160D01*
X93000Y28587D02*
X78450Y28587D01*
X78450Y29014D02*
X93000Y29014D01*
X93000Y29441D02*
X78450Y29441D01*
X78450Y29868D02*
X93000Y29868D01*
X93000Y56075D02*
X78450Y56075D01*
X93000Y56075D02*
X93000Y52025D01*
X78450Y52025D01*
X78450Y56075D01*
X78450Y52452D02*
X93000Y52452D01*
X93000Y52879D02*
X78450Y52879D01*
X78450Y53306D02*
X93000Y53306D01*
X93000Y53733D02*
X78450Y53733D01*
X78450Y54160D02*
X93000Y54160D01*
X93000Y54587D02*
X78450Y54587D01*
X78450Y55014D02*
X93000Y55014D01*
X93000Y55441D02*
X78450Y55441D01*
X78450Y55868D02*
X93000Y55868D01*
X93000Y62575D02*
X78450Y62575D01*
X93000Y62575D02*
X93000Y58525D01*
X78450Y58525D01*
X78450Y62575D01*
X78450Y58952D02*
X93000Y58952D01*
X93000Y59379D02*
X78450Y59379D01*
X78450Y59806D02*
X93000Y59806D01*
X93000Y60233D02*
X78450Y60233D01*
X78450Y60660D02*
X93000Y60660D01*
X93000Y61087D02*
X78450Y61087D01*
X78450Y61514D02*
X93000Y61514D01*
X93000Y61941D02*
X78450Y61941D01*
X78450Y62368D02*
X93000Y62368D01*
X93000Y69075D02*
X78450Y69075D01*
X93000Y69075D02*
X93000Y65025D01*
X78450Y65025D01*
X78450Y69075D01*
X78450Y65452D02*
X93000Y65452D01*
X93000Y65879D02*
X78450Y65879D01*
X78450Y66306D02*
X93000Y66306D01*
X93000Y66733D02*
X78450Y66733D01*
X78450Y67160D02*
X93000Y67160D01*
X93000Y67587D02*
X78450Y67587D01*
X78450Y68014D02*
X93000Y68014D01*
X93000Y68441D02*
X78450Y68441D01*
X78450Y68868D02*
X93000Y68868D01*
X93000Y75575D02*
X78450Y75575D01*
X93000Y75575D02*
X93000Y71525D01*
X78450Y71525D01*
X78450Y75575D01*
X78450Y71952D02*
X93000Y71952D01*
X93000Y72379D02*
X78450Y72379D01*
X78450Y72806D02*
X93000Y72806D01*
X93000Y73233D02*
X78450Y73233D01*
X78450Y73660D02*
X93000Y73660D01*
X93000Y74087D02*
X78450Y74087D01*
X78450Y74514D02*
X93000Y74514D01*
X93000Y74941D02*
X78450Y74941D01*
X78450Y75368D02*
X93000Y75368D01*
X42200Y49575D02*
X27650Y49575D01*
X42200Y49575D02*
X42200Y45525D01*
X27650Y45525D01*
X27650Y49575D01*
X27650Y45952D02*
X42200Y45952D01*
X42200Y46379D02*
X27650Y46379D01*
X27650Y46806D02*
X42200Y46806D01*
X42200Y47233D02*
X27650Y47233D01*
X27650Y47660D02*
X42200Y47660D01*
X42200Y48087D02*
X27650Y48087D01*
X27650Y48514D02*
X42200Y48514D01*
X42200Y48941D02*
X27650Y48941D01*
X27650Y49368D02*
X42200Y49368D01*
X42200Y43075D02*
X27650Y43075D01*
X42200Y43075D02*
X42200Y39025D01*
X27650Y39025D01*
X27650Y43075D01*
X27650Y39452D02*
X42200Y39452D01*
X42200Y39879D02*
X27650Y39879D01*
X27650Y40306D02*
X42200Y40306D01*
X42200Y40733D02*
X27650Y40733D01*
X27650Y41160D02*
X42200Y41160D01*
X42200Y41587D02*
X27650Y41587D01*
X27650Y42014D02*
X42200Y42014D01*
X42200Y42441D02*
X27650Y42441D01*
X27650Y42868D02*
X42200Y42868D01*
X42200Y36575D02*
X27650Y36575D01*
X42200Y36575D02*
X42200Y32525D01*
X27650Y32525D01*
X27650Y36575D01*
X27650Y32952D02*
X42200Y32952D01*
X42200Y33379D02*
X27650Y33379D01*
X27650Y33806D02*
X42200Y33806D01*
X42200Y34233D02*
X27650Y34233D01*
X27650Y34660D02*
X42200Y34660D01*
X42200Y35087D02*
X27650Y35087D01*
X27650Y35514D02*
X42200Y35514D01*
X42200Y35941D02*
X27650Y35941D01*
X27650Y36368D02*
X42200Y36368D01*
X42200Y30075D02*
X27650Y30075D01*
X42200Y30075D02*
X42200Y26025D01*
X27650Y26025D01*
X27650Y30075D01*
X27650Y26452D02*
X42200Y26452D01*
X42200Y26879D02*
X27650Y26879D01*
X27650Y27306D02*
X42200Y27306D01*
X42200Y27733D02*
X27650Y27733D01*
X27650Y28160D02*
X42200Y28160D01*
X42200Y28587D02*
X27650Y28587D01*
X27650Y29014D02*
X42200Y29014D01*
X42200Y29441D02*
X27650Y29441D01*
X27650Y29868D02*
X42200Y29868D01*
X42200Y56075D02*
X27650Y56075D01*
X42200Y56075D02*
X42200Y52025D01*
X27650Y52025D01*
X27650Y56075D01*
X27650Y52452D02*
X42200Y52452D01*
X42200Y52879D02*
X27650Y52879D01*
X27650Y53306D02*
X42200Y53306D01*
X42200Y53733D02*
X27650Y53733D01*
X27650Y54160D02*
X42200Y54160D01*
X42200Y54587D02*
X27650Y54587D01*
X27650Y55014D02*
X42200Y55014D01*
X42200Y55441D02*
X27650Y55441D01*
X27650Y55868D02*
X42200Y55868D01*
X42200Y62575D02*
X27650Y62575D01*
X42200Y62575D02*
X42200Y58525D01*
X27650Y58525D01*
X27650Y62575D01*
X27650Y58952D02*
X42200Y58952D01*
X42200Y59379D02*
X27650Y59379D01*
X27650Y59806D02*
X42200Y59806D01*
X42200Y60233D02*
X27650Y60233D01*
X27650Y60660D02*
X42200Y60660D01*
X42200Y61087D02*
X27650Y61087D01*
X27650Y61514D02*
X42200Y61514D01*
X42200Y61941D02*
X27650Y61941D01*
X27650Y62368D02*
X42200Y62368D01*
X42200Y69075D02*
X27650Y69075D01*
X42200Y69075D02*
X42200Y65025D01*
X27650Y65025D01*
X27650Y69075D01*
X27650Y65452D02*
X42200Y65452D01*
X42200Y65879D02*
X27650Y65879D01*
X27650Y66306D02*
X42200Y66306D01*
X42200Y66733D02*
X27650Y66733D01*
X27650Y67160D02*
X42200Y67160D01*
X42200Y67587D02*
X27650Y67587D01*
X27650Y68014D02*
X42200Y68014D01*
X42200Y68441D02*
X27650Y68441D01*
X27650Y68868D02*
X42200Y68868D01*
X42200Y75575D02*
X27650Y75575D01*
X42200Y75575D02*
X42200Y71525D01*
X27650Y71525D01*
X27650Y75575D01*
X27650Y71952D02*
X42200Y71952D01*
X42200Y72379D02*
X27650Y72379D01*
X27650Y72806D02*
X42200Y72806D01*
X42200Y73233D02*
X27650Y73233D01*
X27650Y73660D02*
X42200Y73660D01*
X42200Y74087D02*
X27650Y74087D01*
X27650Y74514D02*
X42200Y74514D01*
X42200Y74941D02*
X27650Y74941D01*
X27650Y75368D02*
X42200Y75368D01*
D11*
X31750Y12700D03*
X69850Y88900D03*
X107950Y79375D03*
X107950Y60325D03*
X107950Y41275D03*
X107950Y22225D03*
X69850Y12700D03*
X88900Y12700D03*
X50800Y12700D03*
X12700Y25400D03*
X12700Y42863D03*
X12700Y60325D03*
X12700Y77788D03*
X50800Y88900D03*
X31750Y88900D03*
X88900Y88900D03*
M02*
