G04 EAGLE Gerber RS-274X export*
G75*
%MOMM*%
%FSLAX34Y34*%
%LPD*%
%INBottom Copper Layer*%
%IPPOS*%
%AMOC8*
5,1,8,0,0,1.08239X$1,22.5*%
G01*
%ADD10C,0.554000*%
%ADD11R,4.572000X9.144000*%
%ADD12C,0.704000*%

G36*
X160720Y3822D02*
X160720Y3822D01*
X160786Y3824D01*
X160829Y3842D01*
X160876Y3850D01*
X160933Y3884D01*
X160993Y3909D01*
X161028Y3940D01*
X161069Y3965D01*
X161111Y4016D01*
X161159Y4060D01*
X161181Y4102D01*
X161210Y4139D01*
X161231Y4201D01*
X161262Y4260D01*
X161270Y4314D01*
X161282Y4351D01*
X161281Y4391D01*
X161289Y4445D01*
X161289Y97155D01*
X161278Y97220D01*
X161276Y97286D01*
X161258Y97329D01*
X161250Y97376D01*
X161216Y97433D01*
X161191Y97493D01*
X161160Y97528D01*
X161135Y97569D01*
X161084Y97611D01*
X161040Y97659D01*
X160998Y97681D01*
X160961Y97710D01*
X160899Y97731D01*
X160840Y97762D01*
X160786Y97770D01*
X160749Y97782D01*
X160709Y97781D01*
X160655Y97789D01*
X4445Y97789D01*
X4380Y97778D01*
X4314Y97776D01*
X4271Y97758D01*
X4224Y97750D01*
X4167Y97716D01*
X4107Y97691D01*
X4072Y97660D01*
X4031Y97635D01*
X3989Y97584D01*
X3941Y97540D01*
X3919Y97498D01*
X3890Y97461D01*
X3869Y97399D01*
X3838Y97340D01*
X3830Y97286D01*
X3818Y97249D01*
X3819Y97209D01*
X3811Y97155D01*
X3811Y4445D01*
X3822Y4380D01*
X3824Y4314D01*
X3842Y4271D01*
X3850Y4224D01*
X3884Y4167D01*
X3909Y4107D01*
X3940Y4072D01*
X3965Y4031D01*
X4016Y3989D01*
X4060Y3941D01*
X4102Y3919D01*
X4139Y3890D01*
X4201Y3869D01*
X4260Y3838D01*
X4314Y3830D01*
X4351Y3818D01*
X4391Y3819D01*
X4445Y3811D01*
X160655Y3811D01*
X160720Y3822D01*
G37*
D10*
X153670Y34290D03*
X153670Y67310D03*
X128270Y34290D03*
X128270Y67310D03*
X153670Y90170D03*
X128270Y90170D03*
X153670Y11430D03*
X128270Y11430D03*
X140970Y11430D03*
X140970Y90170D03*
X140970Y67310D03*
X140970Y34290D03*
D11*
X142240Y50800D03*
D10*
X11430Y67310D03*
X11430Y34290D03*
X36830Y67310D03*
X36830Y34290D03*
X11430Y11430D03*
X36830Y11430D03*
X11430Y90170D03*
X36830Y90170D03*
X24130Y90170D03*
X24130Y11430D03*
X24130Y34290D03*
X24130Y67310D03*
D11*
X22860Y50800D03*
D12*
X57150Y93980D03*
X82550Y93980D03*
X57150Y69850D03*
X82550Y69850D03*
X57150Y31750D03*
X82550Y31750D03*
X57150Y7620D03*
X82550Y7620D03*
X107950Y93980D03*
X107950Y69850D03*
X107950Y31750D03*
X107950Y7620D03*
M02*
