M48
;GenerationSoftware,Autodesk,EAGLE,9.6.1*%
;CreationDate,2020-06-30T18:25:56Z*%
FMAT,2
ICI,OFF
METRIC,TZ,000.000
T7C0.550
T6C0.750
T5C0.800
T4C0.850
T3C1.000
T2C3.556
%
G90
M71
T2
X49530Y53340
T3
X3175Y12065
X3175Y9525
X73660Y60325
X71120Y60325
X67945Y55880
X67945Y50800
X67945Y53340
T4
X84455Y34290
X81915Y34290
X84455Y14605
X81915Y52705
X84455Y52705
X81915Y14605
X73660Y56515
X71120Y56515
X73660Y52070
X71120Y52070
T5
X68580Y35560
X21590Y35560
X31750Y27940
X21590Y27940
X48260Y27940
X48260Y35560
X58420Y27940
X58420Y35560
X68580Y27940
X68580Y8255
X11430Y35560
X11430Y27940
X41910Y8255
X41910Y15875
X48260Y5715
X55880Y5715
X45085Y15875
X45085Y8255
X68580Y15875
X31750Y35560
X31750Y46355
X86995Y57150
X79375Y57150
X79375Y24765
X86995Y24765
X86995Y38735
X79375Y38735
X86995Y19050
X79375Y19050
X31750Y53975
X41910Y35560
X21590Y53975
X21590Y46355
X11430Y53975
X11430Y46355
X48260Y25400
X55880Y25400
X45085Y35560
X45085Y27940
X41910Y27940
X58420Y8255
X11430Y8255
X11430Y15875
X21590Y8255
X21590Y15875
X31750Y8255
X31750Y15875
X58420Y15875
X48260Y15875
X48260Y8255
T6
X24130Y46990
X34290Y13970
X34290Y52070
X39370Y52070
X36830Y52070
X34290Y46990
X39370Y46990
X36830Y46990
X24130Y52070
X29210Y52070
X26670Y52070
X39370Y13970
X29210Y46990
X26670Y46990
X13970Y52070
X19050Y52070
X16510Y52070
X13970Y47625
X19050Y47625
X16510Y47625
X71120Y13970
X76200Y13970
X73660Y13970
X26670Y13970
X16510Y9525
X19050Y9525
X13970Y9525
X16510Y13970
X80645Y46990
X85725Y46990
X83185Y46990
X19050Y13970
X13970Y13970
X26670Y8890
X29210Y8890
X24130Y8890
X76200Y8890
X80645Y28575
X85725Y28575
X83185Y28575
X29210Y13970
X24130Y13970
X36830Y8890
X39370Y8890
X80645Y8890
X85725Y8890
X83185Y8890
X34290Y8890
X36830Y13970
X29210Y33655
X60960Y8890
X63500Y13970
X66040Y13970
X60960Y13970
X73660Y8890
X34290Y33655
X39370Y33655
X36830Y33655
X34290Y28575
X39370Y28575
X36830Y28575
X24130Y33655
X55880Y9525
X26670Y33655
X24130Y28575
X29210Y28575
X26670Y28575
X13970Y33655
X19050Y33655
X16510Y33655
X13970Y29210
X19050Y29210
X16510Y29210
X71120Y8890
X53340Y29210
X53340Y9525
X50800Y9525
X53340Y13970
X55880Y13970
X50800Y13970
X63500Y8890
X66040Y8890
X71120Y33655
X76200Y33655
X73660Y33655
X71120Y28575
X76200Y28575
X60960Y33655
X55880Y29210
X50800Y29210
X53340Y33655
X55880Y33655
X50800Y33655
X63500Y28575
X66040Y28575
X60960Y28575
X63500Y33655
X66040Y33655
X73660Y28575
T7
X52705Y55245
X52705Y57150
X52705Y51435
X52705Y49530
X50800Y49530
X48895Y49530
X46990Y49530
X50800Y57150
X48895Y57150
X46990Y57150
X46990Y55245
X46990Y51435
X52705Y53340
M30