G04 EAGLE Gerber RS-274X export*
G75*
%MOMM*%
%FSLAX34Y34*%
%LPD*%
%INBottom Silk screen*%
%IPPOS*%
%AMOC8*
5,1,8,0,0,1.08239X$1,22.5*%
G01*
%ADD10C,0.177800*%
%ADD11R,17.780000X6.350000*%


D10*
X96139Y135569D02*
X96139Y130714D01*
X107061Y130714D01*
X107061Y135569D01*
X102207Y134355D02*
X102207Y130714D01*
X103420Y140434D02*
X96139Y140434D01*
X103420Y140434D02*
X103420Y143468D01*
X103418Y143552D01*
X103412Y143636D01*
X103403Y143719D01*
X103389Y143802D01*
X103372Y143885D01*
X103351Y143966D01*
X103326Y144046D01*
X103297Y144125D01*
X103265Y144203D01*
X103229Y144279D01*
X103190Y144354D01*
X103147Y144426D01*
X103101Y144497D01*
X103052Y144565D01*
X103000Y144631D01*
X102945Y144694D01*
X102887Y144755D01*
X102826Y144813D01*
X102763Y144868D01*
X102697Y144920D01*
X102629Y144969D01*
X102558Y145015D01*
X102486Y145058D01*
X102411Y145097D01*
X102335Y145133D01*
X102257Y145165D01*
X102178Y145194D01*
X102098Y145219D01*
X102017Y145240D01*
X101934Y145257D01*
X101851Y145271D01*
X101768Y145280D01*
X101684Y145286D01*
X101600Y145288D01*
X96139Y145288D01*
X100386Y152764D02*
X100386Y155494D01*
X100387Y152764D02*
X100385Y152673D01*
X100379Y152581D01*
X100369Y152491D01*
X100356Y152400D01*
X100338Y152310D01*
X100317Y152222D01*
X100291Y152134D01*
X100262Y152047D01*
X100230Y151962D01*
X100193Y151878D01*
X100153Y151796D01*
X100110Y151715D01*
X100063Y151637D01*
X100013Y151560D01*
X99960Y151486D01*
X99903Y151414D01*
X99843Y151345D01*
X99781Y151278D01*
X99716Y151214D01*
X99648Y151153D01*
X99577Y151095D01*
X99504Y151040D01*
X99429Y150988D01*
X99351Y150940D01*
X99272Y150895D01*
X99190Y150853D01*
X99107Y150815D01*
X99023Y150781D01*
X98937Y150750D01*
X98849Y150723D01*
X98761Y150699D01*
X98672Y150680D01*
X98582Y150664D01*
X98491Y150652D01*
X98400Y150644D01*
X98309Y150640D01*
X98217Y150640D01*
X98126Y150644D01*
X98035Y150652D01*
X97944Y150664D01*
X97854Y150680D01*
X97765Y150699D01*
X97677Y150723D01*
X97589Y150750D01*
X97503Y150781D01*
X97419Y150815D01*
X97336Y150853D01*
X97254Y150895D01*
X97175Y150940D01*
X97097Y150988D01*
X97022Y151040D01*
X96949Y151095D01*
X96878Y151153D01*
X96810Y151214D01*
X96745Y151278D01*
X96683Y151345D01*
X96623Y151414D01*
X96566Y151486D01*
X96513Y151560D01*
X96463Y151637D01*
X96416Y151715D01*
X96373Y151796D01*
X96333Y151878D01*
X96296Y151962D01*
X96264Y152047D01*
X96235Y152134D01*
X96209Y152222D01*
X96188Y152310D01*
X96170Y152400D01*
X96157Y152491D01*
X96147Y152581D01*
X96141Y152673D01*
X96139Y152764D01*
X96139Y155494D01*
X101600Y155494D01*
X101684Y155492D01*
X101768Y155486D01*
X101851Y155477D01*
X101934Y155463D01*
X102017Y155446D01*
X102098Y155425D01*
X102178Y155400D01*
X102257Y155371D01*
X102335Y155339D01*
X102411Y155303D01*
X102486Y155264D01*
X102558Y155221D01*
X102629Y155175D01*
X102697Y155126D01*
X102763Y155074D01*
X102826Y155019D01*
X102887Y154961D01*
X102945Y154900D01*
X103000Y154837D01*
X103052Y154771D01*
X103101Y154703D01*
X103147Y154632D01*
X103190Y154560D01*
X103229Y154485D01*
X103265Y154409D01*
X103297Y154331D01*
X103326Y154252D01*
X103351Y154172D01*
X103372Y154091D01*
X103389Y154008D01*
X103403Y153925D01*
X103412Y153842D01*
X103418Y153758D01*
X103420Y153674D01*
X103420Y151247D01*
X107061Y161470D02*
X96139Y161470D01*
X96139Y164504D01*
X96141Y164588D01*
X96147Y164672D01*
X96156Y164755D01*
X96170Y164838D01*
X96187Y164921D01*
X96208Y165002D01*
X96233Y165082D01*
X96262Y165161D01*
X96294Y165239D01*
X96330Y165315D01*
X96369Y165390D01*
X96412Y165462D01*
X96457Y165533D01*
X96507Y165601D01*
X96559Y165667D01*
X96614Y165730D01*
X96672Y165791D01*
X96733Y165849D01*
X96796Y165904D01*
X96862Y165956D01*
X96930Y166005D01*
X97001Y166051D01*
X97073Y166094D01*
X97148Y166133D01*
X97224Y166169D01*
X97302Y166201D01*
X97381Y166230D01*
X97461Y166255D01*
X97542Y166276D01*
X97625Y166293D01*
X97708Y166307D01*
X97791Y166316D01*
X97875Y166322D01*
X97959Y166324D01*
X101600Y166324D01*
X101684Y166322D01*
X101768Y166316D01*
X101851Y166307D01*
X101934Y166293D01*
X102017Y166276D01*
X102098Y166255D01*
X102178Y166230D01*
X102257Y166201D01*
X102335Y166169D01*
X102411Y166133D01*
X102486Y166094D01*
X102558Y166051D01*
X102629Y166005D01*
X102697Y165956D01*
X102763Y165904D01*
X102826Y165849D01*
X102887Y165791D01*
X102945Y165730D01*
X103000Y165667D01*
X103052Y165601D01*
X103101Y165533D01*
X103147Y165462D01*
X103190Y165390D01*
X103229Y165315D01*
X103265Y165239D01*
X103297Y165161D01*
X103326Y165082D01*
X103351Y165002D01*
X103372Y164921D01*
X103389Y164838D01*
X103403Y164755D01*
X103412Y164672D01*
X103418Y164588D01*
X103420Y164504D01*
X103420Y161470D01*
X107061Y171358D02*
X97959Y171358D01*
X97875Y171360D01*
X97791Y171366D01*
X97708Y171375D01*
X97625Y171389D01*
X97542Y171406D01*
X97461Y171427D01*
X97381Y171452D01*
X97302Y171481D01*
X97224Y171513D01*
X97148Y171549D01*
X97073Y171588D01*
X97001Y171631D01*
X96930Y171677D01*
X96862Y171726D01*
X96796Y171778D01*
X96733Y171833D01*
X96672Y171891D01*
X96614Y171952D01*
X96559Y172015D01*
X96507Y172081D01*
X96458Y172149D01*
X96412Y172220D01*
X96369Y172292D01*
X96330Y172367D01*
X96294Y172443D01*
X96262Y172521D01*
X96233Y172600D01*
X96208Y172680D01*
X96187Y172761D01*
X96170Y172844D01*
X96156Y172927D01*
X96147Y173010D01*
X96141Y173094D01*
X96139Y173178D01*
X96139Y179211D02*
X96139Y182245D01*
X96139Y179211D02*
X96141Y179127D01*
X96147Y179043D01*
X96156Y178960D01*
X96170Y178877D01*
X96187Y178794D01*
X96208Y178713D01*
X96233Y178633D01*
X96262Y178554D01*
X96294Y178476D01*
X96330Y178400D01*
X96369Y178325D01*
X96412Y178253D01*
X96458Y178182D01*
X96507Y178114D01*
X96559Y178048D01*
X96614Y177985D01*
X96672Y177924D01*
X96733Y177866D01*
X96796Y177811D01*
X96862Y177759D01*
X96930Y177710D01*
X97001Y177664D01*
X97073Y177621D01*
X97148Y177582D01*
X97224Y177546D01*
X97302Y177514D01*
X97381Y177485D01*
X97461Y177460D01*
X97542Y177439D01*
X97625Y177422D01*
X97708Y177408D01*
X97791Y177399D01*
X97875Y177393D01*
X97959Y177391D01*
X100993Y177391D01*
X101091Y177393D01*
X101188Y177399D01*
X101286Y177409D01*
X101382Y177422D01*
X101478Y177440D01*
X101574Y177462D01*
X101668Y177487D01*
X101762Y177516D01*
X101854Y177549D01*
X101944Y177585D01*
X102033Y177625D01*
X102121Y177669D01*
X102207Y177716D01*
X102290Y177767D01*
X102372Y177821D01*
X102451Y177878D01*
X102528Y177938D01*
X102602Y178001D01*
X102674Y178068D01*
X102743Y178137D01*
X102810Y178209D01*
X102873Y178283D01*
X102933Y178360D01*
X102990Y178439D01*
X103044Y178521D01*
X103095Y178605D01*
X103142Y178690D01*
X103186Y178778D01*
X103226Y178867D01*
X103262Y178957D01*
X103295Y179049D01*
X103324Y179143D01*
X103349Y179237D01*
X103371Y179333D01*
X103389Y179429D01*
X103402Y179525D01*
X103412Y179623D01*
X103418Y179720D01*
X103420Y179818D01*
X103418Y179916D01*
X103412Y180013D01*
X103402Y180111D01*
X103389Y180207D01*
X103371Y180303D01*
X103349Y180399D01*
X103324Y180493D01*
X103295Y180587D01*
X103262Y180679D01*
X103226Y180769D01*
X103186Y180858D01*
X103142Y180946D01*
X103095Y181031D01*
X103044Y181115D01*
X102990Y181197D01*
X102933Y181276D01*
X102873Y181353D01*
X102810Y181427D01*
X102743Y181499D01*
X102674Y181568D01*
X102602Y181635D01*
X102528Y181698D01*
X102451Y181758D01*
X102372Y181815D01*
X102290Y181869D01*
X102207Y181920D01*
X102121Y181967D01*
X102033Y182011D01*
X101944Y182051D01*
X101854Y182087D01*
X101762Y182120D01*
X101668Y182149D01*
X101574Y182174D01*
X101478Y182196D01*
X101382Y182214D01*
X101286Y182227D01*
X101188Y182237D01*
X101091Y182243D01*
X100993Y182245D01*
X99780Y182245D01*
X99780Y177391D01*
X96139Y194296D02*
X107061Y194296D01*
X96139Y193082D02*
X96139Y195509D01*
X107061Y195509D02*
X107061Y193082D01*
X103420Y200632D02*
X96139Y200632D01*
X103420Y200632D02*
X103420Y203666D01*
X103418Y203750D01*
X103412Y203834D01*
X103403Y203917D01*
X103389Y204000D01*
X103372Y204083D01*
X103351Y204164D01*
X103326Y204244D01*
X103297Y204323D01*
X103265Y204401D01*
X103229Y204477D01*
X103190Y204552D01*
X103147Y204624D01*
X103101Y204695D01*
X103052Y204763D01*
X103000Y204829D01*
X102945Y204892D01*
X102887Y204953D01*
X102826Y205011D01*
X102763Y205066D01*
X102697Y205118D01*
X102629Y205167D01*
X102558Y205213D01*
X102486Y205256D01*
X102411Y205295D01*
X102335Y205331D01*
X102257Y205363D01*
X102178Y205392D01*
X102098Y205417D01*
X102017Y205438D01*
X101934Y205455D01*
X101851Y205469D01*
X101768Y205478D01*
X101684Y205484D01*
X101600Y205486D01*
X96139Y205486D01*
X248539Y199167D02*
X248539Y194313D01*
X259461Y194313D01*
X259461Y199167D01*
X254607Y197954D02*
X254607Y194313D01*
X255820Y204033D02*
X248539Y204033D01*
X255820Y204033D02*
X255820Y207067D01*
X255818Y207151D01*
X255812Y207235D01*
X255803Y207318D01*
X255789Y207401D01*
X255772Y207484D01*
X255751Y207565D01*
X255726Y207645D01*
X255697Y207724D01*
X255665Y207802D01*
X255629Y207878D01*
X255590Y207953D01*
X255547Y208025D01*
X255501Y208096D01*
X255452Y208164D01*
X255400Y208230D01*
X255345Y208293D01*
X255287Y208354D01*
X255226Y208412D01*
X255163Y208467D01*
X255097Y208519D01*
X255029Y208568D01*
X254958Y208614D01*
X254886Y208657D01*
X254811Y208696D01*
X254735Y208732D01*
X254657Y208764D01*
X254578Y208793D01*
X254498Y208818D01*
X254417Y208839D01*
X254334Y208856D01*
X254251Y208870D01*
X254168Y208879D01*
X254084Y208885D01*
X254000Y208887D01*
X248539Y208887D01*
X252786Y216362D02*
X252786Y219093D01*
X252787Y216362D02*
X252785Y216271D01*
X252779Y216179D01*
X252769Y216089D01*
X252756Y215998D01*
X252738Y215908D01*
X252717Y215820D01*
X252691Y215732D01*
X252662Y215645D01*
X252630Y215560D01*
X252593Y215476D01*
X252553Y215394D01*
X252510Y215313D01*
X252463Y215235D01*
X252413Y215158D01*
X252360Y215084D01*
X252303Y215012D01*
X252243Y214943D01*
X252181Y214876D01*
X252116Y214812D01*
X252048Y214751D01*
X251977Y214693D01*
X251904Y214638D01*
X251829Y214586D01*
X251751Y214538D01*
X251672Y214493D01*
X251590Y214451D01*
X251507Y214413D01*
X251423Y214379D01*
X251337Y214348D01*
X251249Y214321D01*
X251161Y214297D01*
X251072Y214278D01*
X250982Y214262D01*
X250891Y214250D01*
X250800Y214242D01*
X250709Y214238D01*
X250617Y214238D01*
X250526Y214242D01*
X250435Y214250D01*
X250344Y214262D01*
X250254Y214278D01*
X250165Y214297D01*
X250077Y214321D01*
X249989Y214348D01*
X249903Y214379D01*
X249819Y214413D01*
X249736Y214451D01*
X249654Y214493D01*
X249575Y214538D01*
X249497Y214586D01*
X249422Y214638D01*
X249349Y214693D01*
X249278Y214751D01*
X249210Y214812D01*
X249145Y214876D01*
X249083Y214943D01*
X249023Y215012D01*
X248966Y215084D01*
X248913Y215158D01*
X248863Y215235D01*
X248816Y215313D01*
X248773Y215394D01*
X248733Y215476D01*
X248696Y215560D01*
X248664Y215645D01*
X248635Y215732D01*
X248609Y215820D01*
X248588Y215908D01*
X248570Y215998D01*
X248557Y216089D01*
X248547Y216179D01*
X248541Y216271D01*
X248539Y216362D01*
X248539Y219093D01*
X254000Y219093D01*
X254084Y219091D01*
X254168Y219085D01*
X254251Y219076D01*
X254334Y219062D01*
X254417Y219045D01*
X254498Y219024D01*
X254578Y218999D01*
X254657Y218970D01*
X254735Y218938D01*
X254811Y218902D01*
X254886Y218863D01*
X254958Y218820D01*
X255029Y218774D01*
X255097Y218725D01*
X255163Y218673D01*
X255226Y218618D01*
X255287Y218560D01*
X255345Y218499D01*
X255400Y218436D01*
X255452Y218370D01*
X255501Y218302D01*
X255547Y218231D01*
X255590Y218159D01*
X255629Y218084D01*
X255665Y218008D01*
X255697Y217930D01*
X255726Y217851D01*
X255751Y217771D01*
X255772Y217690D01*
X255789Y217607D01*
X255803Y217524D01*
X255812Y217441D01*
X255818Y217357D01*
X255820Y217273D01*
X255820Y214846D01*
X259461Y225069D02*
X248539Y225069D01*
X248539Y228103D01*
X248541Y228187D01*
X248547Y228271D01*
X248556Y228354D01*
X248570Y228437D01*
X248587Y228520D01*
X248608Y228601D01*
X248633Y228681D01*
X248662Y228760D01*
X248694Y228838D01*
X248730Y228914D01*
X248769Y228989D01*
X248812Y229061D01*
X248857Y229132D01*
X248907Y229200D01*
X248959Y229266D01*
X249014Y229329D01*
X249072Y229390D01*
X249133Y229448D01*
X249196Y229503D01*
X249262Y229555D01*
X249330Y229604D01*
X249401Y229650D01*
X249473Y229693D01*
X249548Y229732D01*
X249624Y229768D01*
X249702Y229800D01*
X249781Y229829D01*
X249861Y229854D01*
X249942Y229875D01*
X250025Y229892D01*
X250108Y229906D01*
X250191Y229915D01*
X250275Y229921D01*
X250359Y229923D01*
X254000Y229923D01*
X254084Y229921D01*
X254168Y229915D01*
X254251Y229906D01*
X254334Y229892D01*
X254417Y229875D01*
X254498Y229854D01*
X254578Y229829D01*
X254657Y229800D01*
X254735Y229768D01*
X254811Y229732D01*
X254886Y229693D01*
X254958Y229650D01*
X255029Y229604D01*
X255097Y229555D01*
X255163Y229503D01*
X255226Y229448D01*
X255287Y229390D01*
X255345Y229329D01*
X255400Y229266D01*
X255452Y229200D01*
X255501Y229132D01*
X255547Y229061D01*
X255590Y228989D01*
X255629Y228914D01*
X255665Y228838D01*
X255697Y228760D01*
X255726Y228681D01*
X255751Y228601D01*
X255772Y228520D01*
X255789Y228437D01*
X255803Y228354D01*
X255812Y228271D01*
X255818Y228187D01*
X255820Y228103D01*
X255820Y225069D01*
X259461Y234957D02*
X250359Y234957D01*
X250275Y234959D01*
X250191Y234965D01*
X250108Y234974D01*
X250025Y234988D01*
X249942Y235005D01*
X249861Y235026D01*
X249781Y235051D01*
X249702Y235080D01*
X249624Y235112D01*
X249548Y235148D01*
X249473Y235187D01*
X249401Y235230D01*
X249330Y235276D01*
X249262Y235325D01*
X249196Y235377D01*
X249133Y235432D01*
X249072Y235490D01*
X249014Y235551D01*
X248959Y235614D01*
X248907Y235680D01*
X248858Y235748D01*
X248812Y235819D01*
X248769Y235891D01*
X248730Y235966D01*
X248694Y236042D01*
X248662Y236120D01*
X248633Y236199D01*
X248608Y236279D01*
X248587Y236360D01*
X248570Y236443D01*
X248556Y236526D01*
X248547Y236609D01*
X248541Y236693D01*
X248539Y236777D01*
X248539Y242810D02*
X248539Y245844D01*
X248539Y242810D02*
X248541Y242726D01*
X248547Y242642D01*
X248556Y242559D01*
X248570Y242476D01*
X248587Y242393D01*
X248608Y242312D01*
X248633Y242232D01*
X248662Y242153D01*
X248694Y242075D01*
X248730Y241999D01*
X248769Y241924D01*
X248812Y241852D01*
X248858Y241781D01*
X248907Y241713D01*
X248959Y241647D01*
X249014Y241584D01*
X249072Y241523D01*
X249133Y241465D01*
X249196Y241410D01*
X249262Y241358D01*
X249330Y241309D01*
X249401Y241263D01*
X249473Y241220D01*
X249548Y241181D01*
X249624Y241145D01*
X249702Y241113D01*
X249781Y241084D01*
X249861Y241059D01*
X249942Y241038D01*
X250025Y241021D01*
X250108Y241007D01*
X250191Y240998D01*
X250275Y240992D01*
X250359Y240990D01*
X253393Y240990D01*
X253491Y240992D01*
X253588Y240998D01*
X253686Y241008D01*
X253782Y241021D01*
X253878Y241039D01*
X253974Y241061D01*
X254068Y241086D01*
X254162Y241115D01*
X254254Y241148D01*
X254344Y241184D01*
X254433Y241224D01*
X254521Y241268D01*
X254607Y241315D01*
X254690Y241366D01*
X254772Y241420D01*
X254851Y241477D01*
X254928Y241537D01*
X255002Y241600D01*
X255074Y241667D01*
X255143Y241736D01*
X255210Y241808D01*
X255273Y241882D01*
X255333Y241959D01*
X255390Y242038D01*
X255444Y242120D01*
X255495Y242204D01*
X255542Y242289D01*
X255586Y242377D01*
X255626Y242466D01*
X255662Y242556D01*
X255695Y242648D01*
X255724Y242742D01*
X255749Y242836D01*
X255771Y242932D01*
X255789Y243028D01*
X255802Y243124D01*
X255812Y243222D01*
X255818Y243319D01*
X255820Y243417D01*
X255818Y243515D01*
X255812Y243612D01*
X255802Y243710D01*
X255789Y243806D01*
X255771Y243902D01*
X255749Y243998D01*
X255724Y244092D01*
X255695Y244186D01*
X255662Y244278D01*
X255626Y244368D01*
X255586Y244457D01*
X255542Y244545D01*
X255495Y244630D01*
X255444Y244714D01*
X255390Y244796D01*
X255333Y244875D01*
X255273Y244952D01*
X255210Y245026D01*
X255143Y245098D01*
X255074Y245167D01*
X255002Y245234D01*
X254928Y245297D01*
X254851Y245357D01*
X254772Y245414D01*
X254690Y245468D01*
X254607Y245519D01*
X254521Y245566D01*
X254433Y245610D01*
X254344Y245650D01*
X254254Y245686D01*
X254162Y245719D01*
X254068Y245748D01*
X253974Y245773D01*
X253878Y245795D01*
X253782Y245813D01*
X253686Y245826D01*
X253588Y245836D01*
X253491Y245842D01*
X253393Y245844D01*
X252180Y245844D01*
X252180Y240990D01*
X251573Y257147D02*
X256427Y257147D01*
X256535Y257149D01*
X256643Y257155D01*
X256751Y257164D01*
X256859Y257178D01*
X256966Y257195D01*
X257072Y257216D01*
X257177Y257241D01*
X257282Y257270D01*
X257385Y257302D01*
X257487Y257338D01*
X257588Y257378D01*
X257687Y257421D01*
X257785Y257468D01*
X257881Y257518D01*
X257975Y257572D01*
X258067Y257629D01*
X258157Y257689D01*
X258245Y257752D01*
X258331Y257819D01*
X258414Y257888D01*
X258494Y257960D01*
X258572Y258036D01*
X258648Y258114D01*
X258720Y258194D01*
X258789Y258277D01*
X258856Y258363D01*
X258919Y258451D01*
X258979Y258541D01*
X259036Y258633D01*
X259090Y258727D01*
X259140Y258823D01*
X259187Y258921D01*
X259230Y259020D01*
X259270Y259121D01*
X259306Y259223D01*
X259338Y259326D01*
X259367Y259431D01*
X259392Y259536D01*
X259413Y259642D01*
X259430Y259749D01*
X259444Y259857D01*
X259453Y259965D01*
X259459Y260073D01*
X259461Y260181D01*
X259459Y260289D01*
X259453Y260397D01*
X259444Y260505D01*
X259430Y260613D01*
X259413Y260720D01*
X259392Y260826D01*
X259367Y260931D01*
X259338Y261036D01*
X259306Y261139D01*
X259270Y261241D01*
X259230Y261342D01*
X259187Y261441D01*
X259140Y261539D01*
X259090Y261635D01*
X259036Y261729D01*
X258979Y261821D01*
X258919Y261911D01*
X258856Y261999D01*
X258789Y262085D01*
X258720Y262168D01*
X258648Y262248D01*
X258572Y262326D01*
X258494Y262402D01*
X258414Y262474D01*
X258331Y262543D01*
X258245Y262610D01*
X258157Y262673D01*
X258067Y262733D01*
X257975Y262790D01*
X257881Y262844D01*
X257785Y262894D01*
X257687Y262941D01*
X257588Y262984D01*
X257487Y263024D01*
X257385Y263060D01*
X257282Y263092D01*
X257177Y263121D01*
X257072Y263146D01*
X256966Y263167D01*
X256859Y263184D01*
X256751Y263198D01*
X256643Y263207D01*
X256535Y263213D01*
X256427Y263215D01*
X251573Y263215D01*
X251465Y263213D01*
X251357Y263207D01*
X251249Y263198D01*
X251141Y263184D01*
X251034Y263167D01*
X250928Y263146D01*
X250823Y263121D01*
X250718Y263092D01*
X250615Y263060D01*
X250513Y263024D01*
X250412Y262984D01*
X250313Y262941D01*
X250215Y262894D01*
X250119Y262844D01*
X250025Y262790D01*
X249933Y262733D01*
X249843Y262673D01*
X249755Y262610D01*
X249669Y262543D01*
X249586Y262474D01*
X249506Y262402D01*
X249428Y262326D01*
X249352Y262248D01*
X249280Y262168D01*
X249211Y262085D01*
X249144Y261999D01*
X249081Y261911D01*
X249021Y261821D01*
X248964Y261729D01*
X248910Y261635D01*
X248860Y261539D01*
X248813Y261441D01*
X248770Y261342D01*
X248730Y261241D01*
X248694Y261139D01*
X248662Y261036D01*
X248633Y260931D01*
X248608Y260826D01*
X248587Y260720D01*
X248570Y260613D01*
X248556Y260505D01*
X248547Y260397D01*
X248541Y260289D01*
X248539Y260181D01*
X248541Y260073D01*
X248547Y259965D01*
X248556Y259857D01*
X248570Y259749D01*
X248587Y259642D01*
X248608Y259536D01*
X248633Y259431D01*
X248662Y259326D01*
X248694Y259223D01*
X248730Y259121D01*
X248770Y259020D01*
X248813Y258921D01*
X248860Y258823D01*
X248910Y258727D01*
X248964Y258633D01*
X249021Y258541D01*
X249081Y258451D01*
X249144Y258363D01*
X249211Y258277D01*
X249280Y258194D01*
X249352Y258114D01*
X249428Y258036D01*
X249506Y257960D01*
X249586Y257888D01*
X249669Y257819D01*
X249755Y257752D01*
X249843Y257689D01*
X249933Y257629D01*
X250025Y257572D01*
X250119Y257518D01*
X250215Y257468D01*
X250313Y257421D01*
X250412Y257378D01*
X250513Y257338D01*
X250615Y257302D01*
X250718Y257270D01*
X250823Y257241D01*
X250928Y257216D01*
X251034Y257195D01*
X251141Y257178D01*
X251249Y257164D01*
X251357Y257155D01*
X251465Y257149D01*
X251573Y257147D01*
X250359Y268803D02*
X255820Y268803D01*
X250359Y268803D02*
X250275Y268805D01*
X250191Y268811D01*
X250108Y268820D01*
X250025Y268834D01*
X249942Y268851D01*
X249861Y268872D01*
X249781Y268897D01*
X249702Y268926D01*
X249624Y268958D01*
X249548Y268994D01*
X249473Y269033D01*
X249401Y269076D01*
X249330Y269122D01*
X249262Y269171D01*
X249196Y269223D01*
X249133Y269278D01*
X249072Y269336D01*
X249014Y269397D01*
X248959Y269460D01*
X248907Y269526D01*
X248858Y269594D01*
X248812Y269665D01*
X248769Y269737D01*
X248730Y269812D01*
X248694Y269888D01*
X248662Y269966D01*
X248633Y270045D01*
X248608Y270125D01*
X248587Y270206D01*
X248570Y270289D01*
X248556Y270372D01*
X248547Y270455D01*
X248541Y270539D01*
X248539Y270623D01*
X248539Y273657D01*
X255820Y273657D01*
X255820Y278045D02*
X255820Y281686D01*
X259461Y279259D02*
X250359Y279259D01*
X250275Y279261D01*
X250191Y279267D01*
X250108Y279276D01*
X250025Y279290D01*
X249942Y279307D01*
X249861Y279328D01*
X249781Y279353D01*
X249702Y279382D01*
X249624Y279414D01*
X249548Y279450D01*
X249473Y279489D01*
X249401Y279532D01*
X249330Y279578D01*
X249262Y279627D01*
X249196Y279679D01*
X249133Y279734D01*
X249072Y279792D01*
X249014Y279853D01*
X248959Y279916D01*
X248907Y279982D01*
X248857Y280050D01*
X248812Y280121D01*
X248769Y280193D01*
X248730Y280268D01*
X248694Y280344D01*
X248662Y280422D01*
X248633Y280501D01*
X248608Y280581D01*
X248587Y280662D01*
X248570Y280745D01*
X248556Y280828D01*
X248547Y280911D01*
X248541Y280995D01*
X248539Y281079D01*
X248539Y281686D01*
X248539Y43389D02*
X248539Y40961D01*
X248541Y40863D01*
X248547Y40766D01*
X248557Y40668D01*
X248570Y40572D01*
X248588Y40476D01*
X248610Y40380D01*
X248635Y40286D01*
X248664Y40192D01*
X248697Y40100D01*
X248733Y40010D01*
X248773Y39921D01*
X248817Y39833D01*
X248864Y39748D01*
X248915Y39664D01*
X248969Y39582D01*
X249026Y39503D01*
X249086Y39426D01*
X249149Y39352D01*
X249216Y39280D01*
X249285Y39211D01*
X249357Y39144D01*
X249431Y39081D01*
X249508Y39021D01*
X249587Y38964D01*
X249669Y38910D01*
X249753Y38859D01*
X249838Y38812D01*
X249926Y38768D01*
X250015Y38728D01*
X250105Y38692D01*
X250197Y38659D01*
X250291Y38630D01*
X250385Y38605D01*
X250481Y38583D01*
X250577Y38565D01*
X250673Y38552D01*
X250771Y38542D01*
X250868Y38536D01*
X250966Y38534D01*
X257034Y38534D01*
X257132Y38536D01*
X257229Y38542D01*
X257327Y38552D01*
X257423Y38565D01*
X257519Y38583D01*
X257615Y38605D01*
X257709Y38630D01*
X257803Y38659D01*
X257895Y38692D01*
X257985Y38728D01*
X258074Y38768D01*
X258162Y38812D01*
X258247Y38859D01*
X258331Y38910D01*
X258413Y38964D01*
X258492Y39021D01*
X258569Y39081D01*
X258643Y39144D01*
X258715Y39211D01*
X258784Y39280D01*
X258851Y39352D01*
X258914Y39426D01*
X258974Y39503D01*
X259031Y39582D01*
X259085Y39664D01*
X259136Y39747D01*
X259183Y39833D01*
X259227Y39921D01*
X259267Y40010D01*
X259303Y40100D01*
X259336Y40192D01*
X259365Y40286D01*
X259390Y40380D01*
X259412Y40476D01*
X259430Y40572D01*
X259443Y40668D01*
X259453Y40766D01*
X259459Y40863D01*
X259461Y40961D01*
X259461Y43389D01*
X259461Y48013D02*
X250359Y48013D01*
X250275Y48015D01*
X250191Y48021D01*
X250108Y48030D01*
X250025Y48044D01*
X249942Y48061D01*
X249861Y48082D01*
X249781Y48107D01*
X249702Y48136D01*
X249624Y48168D01*
X249548Y48204D01*
X249473Y48243D01*
X249401Y48286D01*
X249330Y48332D01*
X249262Y48381D01*
X249196Y48433D01*
X249133Y48488D01*
X249072Y48546D01*
X249014Y48607D01*
X248959Y48670D01*
X248907Y48736D01*
X248858Y48804D01*
X248812Y48875D01*
X248769Y48947D01*
X248730Y49022D01*
X248694Y49098D01*
X248662Y49176D01*
X248633Y49255D01*
X248608Y49335D01*
X248587Y49416D01*
X248570Y49499D01*
X248556Y49582D01*
X248547Y49665D01*
X248541Y49749D01*
X248539Y49833D01*
X250966Y54046D02*
X253393Y54046D01*
X253491Y54048D01*
X253588Y54054D01*
X253686Y54064D01*
X253782Y54077D01*
X253878Y54095D01*
X253974Y54117D01*
X254068Y54142D01*
X254162Y54171D01*
X254254Y54204D01*
X254344Y54240D01*
X254433Y54280D01*
X254521Y54324D01*
X254607Y54371D01*
X254690Y54422D01*
X254772Y54476D01*
X254851Y54533D01*
X254928Y54593D01*
X255002Y54656D01*
X255074Y54723D01*
X255143Y54792D01*
X255210Y54864D01*
X255273Y54938D01*
X255333Y55015D01*
X255390Y55094D01*
X255444Y55176D01*
X255495Y55259D01*
X255542Y55345D01*
X255586Y55433D01*
X255626Y55522D01*
X255662Y55612D01*
X255695Y55704D01*
X255724Y55798D01*
X255749Y55892D01*
X255771Y55988D01*
X255789Y56084D01*
X255802Y56180D01*
X255812Y56278D01*
X255818Y56375D01*
X255820Y56473D01*
X255818Y56571D01*
X255812Y56668D01*
X255802Y56766D01*
X255789Y56862D01*
X255771Y56958D01*
X255749Y57054D01*
X255724Y57148D01*
X255695Y57242D01*
X255662Y57334D01*
X255626Y57424D01*
X255586Y57513D01*
X255542Y57601D01*
X255495Y57686D01*
X255444Y57770D01*
X255390Y57852D01*
X255333Y57931D01*
X255273Y58008D01*
X255210Y58082D01*
X255143Y58154D01*
X255074Y58223D01*
X255002Y58290D01*
X254928Y58353D01*
X254851Y58413D01*
X254772Y58470D01*
X254690Y58524D01*
X254607Y58575D01*
X254521Y58622D01*
X254433Y58666D01*
X254344Y58706D01*
X254254Y58742D01*
X254162Y58775D01*
X254068Y58804D01*
X253974Y58829D01*
X253878Y58851D01*
X253782Y58869D01*
X253686Y58882D01*
X253588Y58892D01*
X253491Y58898D01*
X253393Y58900D01*
X250966Y58900D01*
X250868Y58898D01*
X250771Y58892D01*
X250673Y58882D01*
X250577Y58869D01*
X250481Y58851D01*
X250385Y58829D01*
X250291Y58804D01*
X250197Y58775D01*
X250105Y58742D01*
X250015Y58706D01*
X249926Y58666D01*
X249838Y58622D01*
X249753Y58575D01*
X249669Y58524D01*
X249587Y58470D01*
X249508Y58413D01*
X249431Y58353D01*
X249357Y58290D01*
X249285Y58223D01*
X249216Y58154D01*
X249149Y58082D01*
X249086Y58008D01*
X249026Y57931D01*
X248969Y57852D01*
X248915Y57770D01*
X248864Y57687D01*
X248817Y57601D01*
X248773Y57513D01*
X248733Y57424D01*
X248697Y57334D01*
X248664Y57242D01*
X248635Y57148D01*
X248610Y57054D01*
X248588Y56958D01*
X248570Y56862D01*
X248557Y56766D01*
X248547Y56668D01*
X248541Y56571D01*
X248539Y56473D01*
X248541Y56375D01*
X248547Y56278D01*
X248557Y56180D01*
X248570Y56084D01*
X248588Y55988D01*
X248610Y55892D01*
X248635Y55798D01*
X248664Y55704D01*
X248697Y55612D01*
X248733Y55522D01*
X248773Y55433D01*
X248817Y55345D01*
X248864Y55260D01*
X248915Y55176D01*
X248969Y55094D01*
X249026Y55015D01*
X249086Y54938D01*
X249149Y54864D01*
X249216Y54792D01*
X249285Y54723D01*
X249357Y54656D01*
X249431Y54593D01*
X249508Y54533D01*
X249587Y54476D01*
X249669Y54422D01*
X249752Y54371D01*
X249838Y54324D01*
X249926Y54280D01*
X250015Y54240D01*
X250105Y54204D01*
X250197Y54171D01*
X250291Y54142D01*
X250385Y54117D01*
X250481Y54095D01*
X250577Y54077D01*
X250673Y54064D01*
X250771Y54054D01*
X250868Y54048D01*
X250966Y54046D01*
X248539Y65790D02*
X248539Y68217D01*
X248539Y65790D02*
X248541Y65706D01*
X248547Y65622D01*
X248556Y65539D01*
X248570Y65456D01*
X248587Y65373D01*
X248608Y65292D01*
X248633Y65212D01*
X248662Y65133D01*
X248694Y65055D01*
X248730Y64979D01*
X248769Y64904D01*
X248812Y64832D01*
X248858Y64761D01*
X248907Y64693D01*
X248959Y64627D01*
X249014Y64564D01*
X249072Y64503D01*
X249133Y64445D01*
X249196Y64390D01*
X249262Y64338D01*
X249330Y64289D01*
X249401Y64243D01*
X249473Y64200D01*
X249548Y64161D01*
X249624Y64125D01*
X249702Y64093D01*
X249781Y64064D01*
X249861Y64039D01*
X249942Y64018D01*
X250025Y64001D01*
X250108Y63987D01*
X250191Y63978D01*
X250275Y63972D01*
X250359Y63970D01*
X254000Y63970D01*
X254084Y63972D01*
X254168Y63978D01*
X254251Y63987D01*
X254334Y64001D01*
X254417Y64018D01*
X254498Y64039D01*
X254578Y64064D01*
X254657Y64093D01*
X254735Y64125D01*
X254811Y64161D01*
X254886Y64200D01*
X254958Y64243D01*
X255029Y64289D01*
X255097Y64338D01*
X255163Y64390D01*
X255226Y64445D01*
X255287Y64503D01*
X255345Y64564D01*
X255400Y64627D01*
X255452Y64693D01*
X255501Y64761D01*
X255547Y64832D01*
X255590Y64904D01*
X255629Y64979D01*
X255665Y65055D01*
X255697Y65133D01*
X255726Y65212D01*
X255751Y65292D01*
X255772Y65373D01*
X255789Y65456D01*
X255803Y65539D01*
X255812Y65622D01*
X255818Y65706D01*
X255820Y65790D01*
X255820Y68217D01*
X259461Y73282D02*
X248539Y73282D01*
X252180Y73282D02*
X255820Y78136D01*
X253697Y75406D02*
X248539Y78136D01*
X251573Y88872D02*
X256427Y88872D01*
X256535Y88874D01*
X256643Y88880D01*
X256751Y88889D01*
X256859Y88903D01*
X256966Y88920D01*
X257072Y88941D01*
X257177Y88966D01*
X257282Y88995D01*
X257385Y89027D01*
X257487Y89063D01*
X257588Y89103D01*
X257687Y89146D01*
X257785Y89193D01*
X257881Y89243D01*
X257975Y89297D01*
X258067Y89354D01*
X258157Y89414D01*
X258245Y89477D01*
X258331Y89544D01*
X258414Y89613D01*
X258494Y89685D01*
X258572Y89761D01*
X258648Y89839D01*
X258720Y89919D01*
X258789Y90002D01*
X258856Y90088D01*
X258919Y90176D01*
X258979Y90266D01*
X259036Y90358D01*
X259090Y90452D01*
X259140Y90548D01*
X259187Y90646D01*
X259230Y90745D01*
X259270Y90846D01*
X259306Y90948D01*
X259338Y91051D01*
X259367Y91156D01*
X259392Y91261D01*
X259413Y91367D01*
X259430Y91474D01*
X259444Y91582D01*
X259453Y91690D01*
X259459Y91798D01*
X259461Y91906D01*
X259459Y92014D01*
X259453Y92122D01*
X259444Y92230D01*
X259430Y92338D01*
X259413Y92445D01*
X259392Y92551D01*
X259367Y92656D01*
X259338Y92761D01*
X259306Y92864D01*
X259270Y92966D01*
X259230Y93067D01*
X259187Y93166D01*
X259140Y93264D01*
X259090Y93360D01*
X259036Y93454D01*
X258979Y93546D01*
X258919Y93636D01*
X258856Y93724D01*
X258789Y93810D01*
X258720Y93893D01*
X258648Y93973D01*
X258572Y94051D01*
X258494Y94127D01*
X258414Y94199D01*
X258331Y94268D01*
X258245Y94335D01*
X258157Y94398D01*
X258067Y94458D01*
X257975Y94515D01*
X257881Y94569D01*
X257785Y94619D01*
X257687Y94666D01*
X257588Y94709D01*
X257487Y94749D01*
X257385Y94785D01*
X257282Y94817D01*
X257177Y94846D01*
X257072Y94871D01*
X256966Y94892D01*
X256859Y94909D01*
X256751Y94923D01*
X256643Y94932D01*
X256535Y94938D01*
X256427Y94940D01*
X251573Y94940D01*
X251465Y94938D01*
X251357Y94932D01*
X251249Y94923D01*
X251141Y94909D01*
X251034Y94892D01*
X250928Y94871D01*
X250823Y94846D01*
X250718Y94817D01*
X250615Y94785D01*
X250513Y94749D01*
X250412Y94709D01*
X250313Y94666D01*
X250215Y94619D01*
X250119Y94569D01*
X250025Y94515D01*
X249933Y94458D01*
X249843Y94398D01*
X249755Y94335D01*
X249669Y94268D01*
X249586Y94199D01*
X249506Y94127D01*
X249428Y94051D01*
X249352Y93973D01*
X249280Y93893D01*
X249211Y93810D01*
X249144Y93724D01*
X249081Y93636D01*
X249021Y93546D01*
X248964Y93454D01*
X248910Y93360D01*
X248860Y93264D01*
X248813Y93166D01*
X248770Y93067D01*
X248730Y92966D01*
X248694Y92864D01*
X248662Y92761D01*
X248633Y92656D01*
X248608Y92551D01*
X248587Y92445D01*
X248570Y92338D01*
X248556Y92230D01*
X248547Y92122D01*
X248541Y92014D01*
X248539Y91906D01*
X248541Y91798D01*
X248547Y91690D01*
X248556Y91582D01*
X248570Y91474D01*
X248587Y91367D01*
X248608Y91261D01*
X248633Y91156D01*
X248662Y91051D01*
X248694Y90948D01*
X248730Y90846D01*
X248770Y90745D01*
X248813Y90646D01*
X248860Y90548D01*
X248910Y90452D01*
X248964Y90358D01*
X249021Y90266D01*
X249081Y90176D01*
X249144Y90088D01*
X249211Y90002D01*
X249280Y89919D01*
X249352Y89839D01*
X249428Y89761D01*
X249506Y89685D01*
X249586Y89613D01*
X249669Y89544D01*
X249755Y89477D01*
X249843Y89414D01*
X249933Y89354D01*
X250025Y89297D01*
X250119Y89243D01*
X250215Y89193D01*
X250313Y89146D01*
X250412Y89103D01*
X250513Y89063D01*
X250615Y89027D01*
X250718Y88995D01*
X250823Y88966D01*
X250928Y88941D01*
X251034Y88920D01*
X251141Y88903D01*
X251249Y88889D01*
X251357Y88880D01*
X251465Y88874D01*
X251573Y88872D01*
X250359Y100528D02*
X255820Y100528D01*
X250359Y100528D02*
X250275Y100530D01*
X250191Y100536D01*
X250108Y100545D01*
X250025Y100559D01*
X249942Y100576D01*
X249861Y100597D01*
X249781Y100622D01*
X249702Y100651D01*
X249624Y100683D01*
X249548Y100719D01*
X249473Y100758D01*
X249401Y100801D01*
X249330Y100847D01*
X249262Y100896D01*
X249196Y100948D01*
X249133Y101003D01*
X249072Y101061D01*
X249014Y101122D01*
X248959Y101185D01*
X248907Y101251D01*
X248858Y101319D01*
X248812Y101390D01*
X248769Y101462D01*
X248730Y101537D01*
X248694Y101613D01*
X248662Y101691D01*
X248633Y101770D01*
X248608Y101850D01*
X248587Y101931D01*
X248570Y102014D01*
X248556Y102097D01*
X248547Y102180D01*
X248541Y102264D01*
X248539Y102348D01*
X248539Y105382D01*
X255820Y105382D01*
X255820Y109770D02*
X255820Y113411D01*
X259461Y110984D02*
X250359Y110984D01*
X250275Y110986D01*
X250191Y110992D01*
X250108Y111001D01*
X250025Y111015D01*
X249942Y111032D01*
X249861Y111053D01*
X249781Y111078D01*
X249702Y111107D01*
X249624Y111139D01*
X249548Y111175D01*
X249473Y111214D01*
X249401Y111257D01*
X249330Y111303D01*
X249262Y111352D01*
X249196Y111404D01*
X249133Y111459D01*
X249072Y111517D01*
X249014Y111578D01*
X248959Y111641D01*
X248907Y111707D01*
X248857Y111775D01*
X248812Y111846D01*
X248769Y111918D01*
X248730Y111993D01*
X248694Y112069D01*
X248662Y112147D01*
X248633Y112226D01*
X248608Y112306D01*
X248587Y112387D01*
X248570Y112470D01*
X248556Y112553D01*
X248547Y112636D01*
X248541Y112720D01*
X248539Y112804D01*
X248539Y113411D01*
X110236Y266301D02*
X99314Y269941D01*
X110236Y273582D01*
X99314Y280021D02*
X99314Y282448D01*
X99314Y280021D02*
X99316Y279937D01*
X99322Y279853D01*
X99331Y279770D01*
X99345Y279687D01*
X99362Y279604D01*
X99383Y279523D01*
X99408Y279443D01*
X99437Y279364D01*
X99469Y279286D01*
X99505Y279210D01*
X99544Y279135D01*
X99587Y279063D01*
X99633Y278992D01*
X99682Y278924D01*
X99734Y278858D01*
X99789Y278795D01*
X99847Y278734D01*
X99908Y278676D01*
X99971Y278621D01*
X100037Y278569D01*
X100105Y278520D01*
X100176Y278474D01*
X100248Y278431D01*
X100323Y278392D01*
X100399Y278356D01*
X100477Y278324D01*
X100556Y278295D01*
X100636Y278270D01*
X100717Y278249D01*
X100800Y278232D01*
X100883Y278218D01*
X100966Y278209D01*
X101050Y278203D01*
X101134Y278201D01*
X104775Y278201D01*
X104859Y278203D01*
X104943Y278209D01*
X105026Y278218D01*
X105109Y278232D01*
X105192Y278249D01*
X105273Y278270D01*
X105353Y278295D01*
X105432Y278324D01*
X105510Y278356D01*
X105586Y278392D01*
X105661Y278431D01*
X105733Y278474D01*
X105804Y278520D01*
X105872Y278569D01*
X105938Y278621D01*
X106001Y278676D01*
X106062Y278734D01*
X106120Y278795D01*
X106175Y278858D01*
X106227Y278924D01*
X106276Y278992D01*
X106322Y279063D01*
X106365Y279135D01*
X106404Y279210D01*
X106440Y279286D01*
X106472Y279364D01*
X106501Y279443D01*
X106526Y279523D01*
X106547Y279604D01*
X106564Y279687D01*
X106578Y279770D01*
X106587Y279853D01*
X106593Y279937D01*
X106595Y280021D01*
X106595Y282448D01*
X99314Y288784D02*
X99314Y291211D01*
X99314Y288784D02*
X99316Y288700D01*
X99322Y288616D01*
X99331Y288533D01*
X99345Y288450D01*
X99362Y288367D01*
X99383Y288286D01*
X99408Y288206D01*
X99437Y288127D01*
X99469Y288049D01*
X99505Y287973D01*
X99544Y287898D01*
X99587Y287826D01*
X99633Y287755D01*
X99682Y287687D01*
X99734Y287621D01*
X99789Y287558D01*
X99847Y287497D01*
X99908Y287439D01*
X99971Y287384D01*
X100037Y287332D01*
X100105Y287283D01*
X100176Y287237D01*
X100248Y287194D01*
X100323Y287155D01*
X100399Y287119D01*
X100477Y287087D01*
X100556Y287058D01*
X100636Y287033D01*
X100717Y287012D01*
X100800Y286995D01*
X100883Y286981D01*
X100966Y286972D01*
X101050Y286966D01*
X101134Y286964D01*
X104775Y286964D01*
X104859Y286966D01*
X104943Y286972D01*
X105026Y286981D01*
X105109Y286995D01*
X105192Y287012D01*
X105273Y287033D01*
X105353Y287058D01*
X105432Y287087D01*
X105510Y287119D01*
X105586Y287155D01*
X105661Y287194D01*
X105733Y287237D01*
X105804Y287283D01*
X105872Y287332D01*
X105938Y287384D01*
X106001Y287439D01*
X106062Y287497D01*
X106120Y287558D01*
X106175Y287621D01*
X106227Y287687D01*
X106276Y287755D01*
X106322Y287826D01*
X106365Y287898D01*
X106404Y287973D01*
X106440Y288049D01*
X106472Y288127D01*
X106501Y288206D01*
X106526Y288286D01*
X106547Y288367D01*
X106564Y288450D01*
X106578Y288533D01*
X106587Y288616D01*
X106593Y288700D01*
X106595Y288784D01*
X106595Y291211D01*
X32357Y273177D02*
X32357Y271357D01*
X32357Y273177D02*
X26289Y273177D01*
X26289Y269536D01*
X26291Y269438D01*
X26297Y269341D01*
X26307Y269243D01*
X26320Y269147D01*
X26338Y269051D01*
X26360Y268955D01*
X26385Y268861D01*
X26414Y268767D01*
X26447Y268675D01*
X26483Y268585D01*
X26523Y268496D01*
X26567Y268408D01*
X26614Y268323D01*
X26665Y268239D01*
X26719Y268157D01*
X26776Y268078D01*
X26836Y268001D01*
X26899Y267927D01*
X26966Y267855D01*
X27035Y267786D01*
X27107Y267719D01*
X27181Y267656D01*
X27258Y267596D01*
X27337Y267539D01*
X27419Y267485D01*
X27502Y267434D01*
X27588Y267387D01*
X27676Y267343D01*
X27765Y267303D01*
X27855Y267267D01*
X27947Y267234D01*
X28041Y267205D01*
X28135Y267180D01*
X28231Y267158D01*
X28327Y267140D01*
X28423Y267127D01*
X28521Y267117D01*
X28618Y267111D01*
X28716Y267109D01*
X34784Y267109D01*
X34882Y267111D01*
X34979Y267117D01*
X35077Y267127D01*
X35173Y267140D01*
X35269Y267158D01*
X35365Y267180D01*
X35459Y267205D01*
X35553Y267234D01*
X35645Y267267D01*
X35735Y267303D01*
X35824Y267343D01*
X35912Y267387D01*
X35997Y267434D01*
X36081Y267485D01*
X36163Y267539D01*
X36242Y267596D01*
X36319Y267656D01*
X36393Y267719D01*
X36465Y267786D01*
X36534Y267855D01*
X36601Y267927D01*
X36664Y268001D01*
X36724Y268078D01*
X36781Y268157D01*
X36835Y268239D01*
X36886Y268322D01*
X36933Y268408D01*
X36977Y268496D01*
X37017Y268585D01*
X37053Y268675D01*
X37086Y268767D01*
X37115Y268861D01*
X37140Y268955D01*
X37162Y269051D01*
X37180Y269147D01*
X37193Y269243D01*
X37203Y269341D01*
X37209Y269438D01*
X37211Y269536D01*
X37211Y273177D01*
X37211Y279301D02*
X26289Y279301D01*
X26289Y285369D02*
X37211Y279301D01*
X37211Y285369D02*
X26289Y285369D01*
X26289Y291493D02*
X37211Y291493D01*
X37211Y294527D01*
X37209Y294635D01*
X37203Y294743D01*
X37194Y294851D01*
X37180Y294959D01*
X37163Y295066D01*
X37142Y295172D01*
X37117Y295277D01*
X37088Y295382D01*
X37056Y295485D01*
X37020Y295587D01*
X36980Y295688D01*
X36937Y295787D01*
X36890Y295885D01*
X36840Y295981D01*
X36786Y296075D01*
X36729Y296167D01*
X36669Y296257D01*
X36606Y296345D01*
X36539Y296431D01*
X36470Y296514D01*
X36398Y296594D01*
X36322Y296672D01*
X36244Y296748D01*
X36164Y296820D01*
X36081Y296889D01*
X35995Y296956D01*
X35907Y297019D01*
X35817Y297079D01*
X35725Y297136D01*
X35631Y297190D01*
X35535Y297240D01*
X35437Y297287D01*
X35338Y297330D01*
X35237Y297370D01*
X35135Y297406D01*
X35032Y297438D01*
X34927Y297467D01*
X34822Y297492D01*
X34716Y297513D01*
X34609Y297530D01*
X34501Y297544D01*
X34393Y297553D01*
X34285Y297559D01*
X34177Y297561D01*
X29323Y297561D01*
X29215Y297559D01*
X29107Y297553D01*
X28999Y297544D01*
X28891Y297530D01*
X28784Y297513D01*
X28678Y297492D01*
X28573Y297467D01*
X28468Y297438D01*
X28365Y297406D01*
X28263Y297370D01*
X28162Y297330D01*
X28063Y297287D01*
X27965Y297240D01*
X27869Y297190D01*
X27775Y297136D01*
X27683Y297079D01*
X27593Y297019D01*
X27505Y296956D01*
X27419Y296889D01*
X27336Y296820D01*
X27256Y296748D01*
X27178Y296672D01*
X27102Y296594D01*
X27030Y296514D01*
X26961Y296431D01*
X26894Y296345D01*
X26831Y296257D01*
X26771Y296167D01*
X26714Y296075D01*
X26660Y295981D01*
X26610Y295885D01*
X26563Y295787D01*
X26520Y295688D01*
X26480Y295587D01*
X26444Y295485D01*
X26412Y295382D01*
X26383Y295277D01*
X26358Y295172D01*
X26337Y295066D01*
X26320Y294959D01*
X26306Y294851D01*
X26297Y294743D01*
X26291Y294635D01*
X26289Y294527D01*
X26289Y291493D01*
D11*
X95250Y38100D03*
M02*
