G04 EAGLE Gerber RS-274X export*
G75*
%MOMM*%
%FSLAX34Y34*%
%LPD*%
%INTop Solder Mask*%
%IPPOS*%
%AMOC8*
5,1,8,0,0,1.08239X$1,22.5*%
G01*
%ADD10R,0.927000X0.927000*%
%ADD11R,1.027000X1.727000*%
%ADD12R,1.127000X0.727000*%
%ADD13R,5.842000X1.168400*%
%ADD14R,6.477000X2.667000*%
%ADD15C,0.731000*%
%ADD16R,1.227000X1.527000*%
%ADD17R,1.027000X1.427000*%
%ADD18P,2.226909X8X22.500000*%

G36*
X330258Y264423D02*
X330258Y264423D01*
X330316Y264421D01*
X330398Y264443D01*
X330482Y264455D01*
X330535Y264479D01*
X330591Y264493D01*
X330664Y264536D01*
X330741Y264571D01*
X330786Y264609D01*
X330836Y264639D01*
X330894Y264700D01*
X330958Y264755D01*
X330990Y264803D01*
X331030Y264846D01*
X331069Y264921D01*
X331116Y264991D01*
X331133Y265047D01*
X331160Y265099D01*
X331171Y265167D01*
X331201Y265262D01*
X331204Y265362D01*
X331215Y265430D01*
X331215Y311150D01*
X331208Y311203D01*
X331209Y311233D01*
X331208Y311236D01*
X331209Y311266D01*
X331187Y311348D01*
X331175Y311432D01*
X331152Y311485D01*
X331137Y311541D01*
X331094Y311614D01*
X331059Y311691D01*
X331021Y311736D01*
X330992Y311786D01*
X330930Y311844D01*
X330876Y311908D01*
X330827Y311940D01*
X330784Y311980D01*
X330709Y312019D01*
X330639Y312066D01*
X330583Y312083D01*
X330531Y312110D01*
X330463Y312121D01*
X330368Y312151D01*
X330268Y312154D01*
X330200Y312165D01*
X266700Y312165D01*
X266642Y312157D01*
X266584Y312159D01*
X266502Y312137D01*
X266419Y312125D01*
X266365Y312102D01*
X266309Y312087D01*
X266236Y312044D01*
X266159Y312009D01*
X266114Y311971D01*
X266064Y311942D01*
X266006Y311880D01*
X265942Y311826D01*
X265910Y311777D01*
X265870Y311734D01*
X265831Y311659D01*
X265785Y311589D01*
X265767Y311533D01*
X265740Y311481D01*
X265729Y311413D01*
X265699Y311318D01*
X265696Y311218D01*
X265685Y311150D01*
X265685Y265430D01*
X265693Y265372D01*
X265691Y265314D01*
X265713Y265232D01*
X265725Y265149D01*
X265749Y265095D01*
X265763Y265039D01*
X265806Y264966D01*
X265841Y264889D01*
X265879Y264844D01*
X265909Y264794D01*
X265970Y264736D01*
X266025Y264672D01*
X266073Y264640D01*
X266116Y264600D01*
X266191Y264561D01*
X266261Y264515D01*
X266317Y264497D01*
X266369Y264470D01*
X266437Y264459D01*
X266532Y264429D01*
X266632Y264426D01*
X266700Y264415D01*
X330200Y264415D01*
X330258Y264423D01*
G37*
G36*
X63558Y188223D02*
X63558Y188223D01*
X63616Y188221D01*
X63698Y188243D01*
X63782Y188255D01*
X63835Y188279D01*
X63891Y188293D01*
X63964Y188336D01*
X64041Y188371D01*
X64086Y188409D01*
X64136Y188439D01*
X64194Y188500D01*
X64258Y188555D01*
X64290Y188603D01*
X64330Y188646D01*
X64369Y188721D01*
X64416Y188791D01*
X64433Y188847D01*
X64460Y188899D01*
X64471Y188967D01*
X64501Y189062D01*
X64504Y189162D01*
X64515Y189230D01*
X64515Y234950D01*
X64508Y235003D01*
X64509Y235033D01*
X64508Y235036D01*
X64509Y235066D01*
X64487Y235148D01*
X64475Y235232D01*
X64452Y235285D01*
X64437Y235341D01*
X64394Y235414D01*
X64359Y235491D01*
X64321Y235536D01*
X64292Y235586D01*
X64230Y235644D01*
X64176Y235708D01*
X64127Y235740D01*
X64084Y235780D01*
X64009Y235819D01*
X63939Y235866D01*
X63883Y235883D01*
X63831Y235910D01*
X63763Y235921D01*
X63668Y235951D01*
X63568Y235954D01*
X63500Y235965D01*
X0Y235965D01*
X-58Y235957D01*
X-116Y235959D01*
X-198Y235937D01*
X-282Y235925D01*
X-335Y235902D01*
X-391Y235887D01*
X-464Y235844D01*
X-541Y235809D01*
X-586Y235771D01*
X-636Y235742D01*
X-694Y235680D01*
X-758Y235626D01*
X-790Y235577D01*
X-830Y235534D01*
X-869Y235459D01*
X-916Y235389D01*
X-933Y235333D01*
X-960Y235281D01*
X-971Y235213D01*
X-1001Y235118D01*
X-1004Y235018D01*
X-1015Y234950D01*
X-1015Y189230D01*
X-1007Y189172D01*
X-1009Y189114D01*
X-987Y189032D01*
X-975Y188949D01*
X-952Y188895D01*
X-937Y188839D01*
X-894Y188766D01*
X-859Y188689D01*
X-821Y188644D01*
X-792Y188594D01*
X-730Y188536D01*
X-676Y188472D01*
X-627Y188440D01*
X-584Y188400D01*
X-509Y188361D01*
X-439Y188315D01*
X-383Y188297D01*
X-331Y188270D01*
X-263Y188259D01*
X-168Y188229D01*
X-68Y188226D01*
X0Y188215D01*
X63500Y188215D01*
X63558Y188223D01*
G37*
G36*
X330258Y170443D02*
X330258Y170443D01*
X330316Y170441D01*
X330398Y170463D01*
X330482Y170475D01*
X330535Y170499D01*
X330591Y170513D01*
X330664Y170556D01*
X330741Y170591D01*
X330786Y170629D01*
X330836Y170659D01*
X330894Y170720D01*
X330958Y170775D01*
X330990Y170823D01*
X331030Y170866D01*
X331069Y170941D01*
X331116Y171011D01*
X331133Y171067D01*
X331160Y171119D01*
X331171Y171187D01*
X331201Y171282D01*
X331204Y171382D01*
X331215Y171450D01*
X331215Y217170D01*
X331208Y217223D01*
X331209Y217253D01*
X331208Y217256D01*
X331209Y217286D01*
X331187Y217368D01*
X331175Y217452D01*
X331152Y217505D01*
X331137Y217561D01*
X331094Y217634D01*
X331059Y217711D01*
X331021Y217756D01*
X330992Y217806D01*
X330930Y217864D01*
X330876Y217928D01*
X330827Y217960D01*
X330784Y218000D01*
X330709Y218039D01*
X330639Y218086D01*
X330583Y218103D01*
X330531Y218130D01*
X330463Y218141D01*
X330368Y218171D01*
X330268Y218174D01*
X330200Y218185D01*
X266700Y218185D01*
X266642Y218177D01*
X266584Y218179D01*
X266502Y218157D01*
X266419Y218145D01*
X266365Y218122D01*
X266309Y218107D01*
X266236Y218064D01*
X266159Y218029D01*
X266114Y217991D01*
X266064Y217962D01*
X266006Y217900D01*
X265942Y217846D01*
X265910Y217797D01*
X265870Y217754D01*
X265831Y217679D01*
X265785Y217609D01*
X265767Y217553D01*
X265740Y217501D01*
X265729Y217433D01*
X265699Y217338D01*
X265696Y217238D01*
X265685Y217170D01*
X265685Y171450D01*
X265693Y171392D01*
X265691Y171334D01*
X265713Y171252D01*
X265725Y171169D01*
X265749Y171115D01*
X265763Y171059D01*
X265806Y170986D01*
X265841Y170909D01*
X265879Y170864D01*
X265909Y170814D01*
X265970Y170756D01*
X266025Y170692D01*
X266073Y170660D01*
X266116Y170620D01*
X266191Y170581D01*
X266261Y170535D01*
X266317Y170517D01*
X266369Y170490D01*
X266437Y170479D01*
X266532Y170449D01*
X266632Y170446D01*
X266700Y170435D01*
X330200Y170435D01*
X330258Y170443D01*
G37*
G36*
X330258Y99323D02*
X330258Y99323D01*
X330316Y99321D01*
X330398Y99343D01*
X330482Y99355D01*
X330535Y99379D01*
X330591Y99393D01*
X330664Y99436D01*
X330741Y99471D01*
X330786Y99509D01*
X330836Y99539D01*
X330894Y99600D01*
X330958Y99655D01*
X330990Y99703D01*
X331030Y99746D01*
X331069Y99821D01*
X331116Y99891D01*
X331133Y99947D01*
X331160Y99999D01*
X331171Y100067D01*
X331201Y100162D01*
X331204Y100262D01*
X331215Y100330D01*
X331215Y146050D01*
X331208Y146103D01*
X331209Y146133D01*
X331208Y146136D01*
X331209Y146166D01*
X331187Y146248D01*
X331175Y146332D01*
X331152Y146385D01*
X331137Y146441D01*
X331094Y146514D01*
X331059Y146591D01*
X331021Y146636D01*
X330992Y146686D01*
X330930Y146744D01*
X330876Y146808D01*
X330827Y146840D01*
X330784Y146880D01*
X330709Y146919D01*
X330639Y146966D01*
X330583Y146983D01*
X330531Y147010D01*
X330463Y147021D01*
X330368Y147051D01*
X330268Y147054D01*
X330200Y147065D01*
X266700Y147065D01*
X266642Y147057D01*
X266584Y147059D01*
X266502Y147037D01*
X266419Y147025D01*
X266365Y147002D01*
X266309Y146987D01*
X266236Y146944D01*
X266159Y146909D01*
X266114Y146871D01*
X266064Y146842D01*
X266006Y146780D01*
X265942Y146726D01*
X265910Y146677D01*
X265870Y146634D01*
X265831Y146559D01*
X265785Y146489D01*
X265767Y146433D01*
X265740Y146381D01*
X265729Y146313D01*
X265699Y146218D01*
X265696Y146118D01*
X265685Y146050D01*
X265685Y100330D01*
X265693Y100272D01*
X265691Y100214D01*
X265713Y100132D01*
X265725Y100049D01*
X265749Y99995D01*
X265763Y99939D01*
X265806Y99866D01*
X265841Y99789D01*
X265879Y99744D01*
X265909Y99694D01*
X265970Y99636D01*
X266025Y99572D01*
X266073Y99540D01*
X266116Y99500D01*
X266191Y99461D01*
X266261Y99415D01*
X266317Y99397D01*
X266369Y99370D01*
X266437Y99359D01*
X266532Y99329D01*
X266632Y99326D01*
X266700Y99315D01*
X330200Y99315D01*
X330258Y99323D01*
G37*
G36*
X63558Y94243D02*
X63558Y94243D01*
X63616Y94241D01*
X63698Y94263D01*
X63782Y94275D01*
X63835Y94299D01*
X63891Y94313D01*
X63964Y94356D01*
X64041Y94391D01*
X64086Y94429D01*
X64136Y94459D01*
X64194Y94520D01*
X64258Y94575D01*
X64290Y94623D01*
X64330Y94666D01*
X64369Y94741D01*
X64416Y94811D01*
X64433Y94867D01*
X64460Y94919D01*
X64471Y94987D01*
X64501Y95082D01*
X64504Y95182D01*
X64515Y95250D01*
X64515Y140970D01*
X64508Y141023D01*
X64509Y141053D01*
X64508Y141056D01*
X64509Y141086D01*
X64487Y141168D01*
X64475Y141252D01*
X64452Y141305D01*
X64437Y141361D01*
X64394Y141434D01*
X64359Y141511D01*
X64321Y141556D01*
X64292Y141606D01*
X64230Y141664D01*
X64176Y141728D01*
X64127Y141760D01*
X64084Y141800D01*
X64009Y141839D01*
X63939Y141886D01*
X63883Y141903D01*
X63831Y141930D01*
X63763Y141941D01*
X63668Y141971D01*
X63568Y141974D01*
X63500Y141985D01*
X0Y141985D01*
X-58Y141977D01*
X-116Y141979D01*
X-198Y141957D01*
X-282Y141945D01*
X-335Y141922D01*
X-391Y141907D01*
X-464Y141864D01*
X-541Y141829D01*
X-586Y141791D01*
X-636Y141762D01*
X-694Y141700D01*
X-758Y141646D01*
X-790Y141597D01*
X-830Y141554D01*
X-869Y141479D01*
X-916Y141409D01*
X-933Y141353D01*
X-960Y141301D01*
X-971Y141233D01*
X-1001Y141138D01*
X-1004Y141038D01*
X-1015Y140970D01*
X-1015Y95250D01*
X-1007Y95192D01*
X-1009Y95134D01*
X-987Y95052D01*
X-975Y94969D01*
X-952Y94915D01*
X-937Y94859D01*
X-894Y94786D01*
X-859Y94709D01*
X-821Y94664D01*
X-792Y94614D01*
X-730Y94556D01*
X-676Y94492D01*
X-627Y94460D01*
X-584Y94420D01*
X-509Y94381D01*
X-439Y94335D01*
X-383Y94317D01*
X-331Y94290D01*
X-263Y94279D01*
X-168Y94249D01*
X-68Y94246D01*
X0Y94235D01*
X63500Y94235D01*
X63558Y94243D01*
G37*
G36*
X330258Y5343D02*
X330258Y5343D01*
X330316Y5341D01*
X330398Y5363D01*
X330482Y5375D01*
X330535Y5399D01*
X330591Y5413D01*
X330664Y5456D01*
X330741Y5491D01*
X330786Y5529D01*
X330836Y5559D01*
X330894Y5620D01*
X330958Y5675D01*
X330990Y5723D01*
X331030Y5766D01*
X331069Y5841D01*
X331116Y5911D01*
X331133Y5967D01*
X331160Y6019D01*
X331171Y6087D01*
X331201Y6182D01*
X331204Y6282D01*
X331215Y6350D01*
X331215Y52070D01*
X331208Y52123D01*
X331209Y52153D01*
X331208Y52156D01*
X331209Y52186D01*
X331187Y52268D01*
X331175Y52352D01*
X331152Y52405D01*
X331137Y52461D01*
X331094Y52534D01*
X331059Y52611D01*
X331021Y52656D01*
X330992Y52706D01*
X330930Y52764D01*
X330876Y52828D01*
X330827Y52860D01*
X330784Y52900D01*
X330709Y52939D01*
X330639Y52986D01*
X330583Y53003D01*
X330531Y53030D01*
X330463Y53041D01*
X330368Y53071D01*
X330268Y53074D01*
X330200Y53085D01*
X266700Y53085D01*
X266642Y53077D01*
X266584Y53079D01*
X266502Y53057D01*
X266419Y53045D01*
X266365Y53022D01*
X266309Y53007D01*
X266236Y52964D01*
X266159Y52929D01*
X266114Y52891D01*
X266064Y52862D01*
X266006Y52800D01*
X265942Y52746D01*
X265910Y52697D01*
X265870Y52654D01*
X265831Y52579D01*
X265785Y52509D01*
X265767Y52453D01*
X265740Y52401D01*
X265729Y52333D01*
X265699Y52238D01*
X265696Y52138D01*
X265685Y52070D01*
X265685Y6350D01*
X265693Y6292D01*
X265691Y6234D01*
X265713Y6152D01*
X265725Y6069D01*
X265749Y6015D01*
X265763Y5959D01*
X265806Y5886D01*
X265841Y5809D01*
X265879Y5764D01*
X265909Y5714D01*
X265970Y5656D01*
X266025Y5592D01*
X266073Y5560D01*
X266116Y5520D01*
X266191Y5481D01*
X266261Y5435D01*
X266317Y5417D01*
X266369Y5390D01*
X266437Y5379D01*
X266532Y5349D01*
X266632Y5346D01*
X266700Y5335D01*
X330200Y5335D01*
X330258Y5343D01*
G37*
D10*
X159900Y88900D03*
X144900Y88900D03*
X144900Y177800D03*
X159900Y177800D03*
X109100Y88900D03*
X94100Y88900D03*
X81400Y190500D03*
X96400Y190500D03*
X195700Y88900D03*
X210700Y88900D03*
X195700Y228600D03*
X210700Y228600D03*
D11*
X129800Y225425D03*
X98800Y225425D03*
D12*
X140400Y161900D03*
X140400Y152400D03*
X140400Y142900D03*
X164400Y142900D03*
X164400Y161900D03*
D13*
X301450Y241300D03*
D14*
X298450Y200025D03*
X298450Y282575D03*
D15*
X279400Y304800D03*
X298450Y304800D03*
X317500Y304800D03*
X279400Y177800D03*
X298450Y177800D03*
X317500Y177800D03*
D13*
X301450Y76200D03*
D14*
X298450Y34925D03*
X298450Y117475D03*
D15*
X279400Y139700D03*
X298450Y139700D03*
X317500Y139700D03*
X279400Y12700D03*
X298450Y12700D03*
X317500Y12700D03*
D13*
X28750Y165100D03*
D14*
X31750Y206375D03*
X31750Y123825D03*
D15*
X50800Y101600D03*
X31750Y101600D03*
X12700Y101600D03*
X50800Y228600D03*
X31750Y228600D03*
X12700Y228600D03*
D16*
X235725Y241300D03*
X253225Y241300D03*
X235725Y76200D03*
X253225Y76200D03*
D12*
X164400Y104800D03*
X164400Y114300D03*
X164400Y123800D03*
X140400Y123800D03*
X140400Y104800D03*
X191200Y212700D03*
X191200Y203200D03*
X191200Y193700D03*
X215200Y193700D03*
X215200Y212700D03*
X191200Y73000D03*
X191200Y63500D03*
X191200Y54000D03*
X215200Y54000D03*
X215200Y73000D03*
X113600Y104800D03*
X113600Y114300D03*
X113600Y123800D03*
X89600Y123800D03*
X89600Y104800D03*
X76900Y174600D03*
X76900Y165100D03*
X76900Y155600D03*
X100900Y155600D03*
X100900Y174600D03*
D17*
X193700Y250825D03*
X212700Y250825D03*
X222225Y149225D03*
X203225Y149225D03*
D11*
X132975Y50800D03*
X101975Y50800D03*
D18*
X82550Y279400D03*
X57150Y279400D03*
M02*
