G04 EAGLE Gerber RS-274X export*
G75*
%MOMM*%
%FSLAX34Y34*%
%LPD*%
%INInner Layer 2*%
%IPPOS*%
%AMOC8*
5,1,8,0,0,1.08239X$1,22.5*%
G01*
%ADD10C,1.714500*%
%ADD11C,0.609600*%

G36*
X1519620Y3822D02*
X1519620Y3822D01*
X1519686Y3824D01*
X1519729Y3842D01*
X1519776Y3850D01*
X1519833Y3884D01*
X1519893Y3909D01*
X1519928Y3940D01*
X1519969Y3965D01*
X1520011Y4016D01*
X1520059Y4060D01*
X1520081Y4102D01*
X1520110Y4139D01*
X1520131Y4201D01*
X1520162Y4260D01*
X1520170Y4314D01*
X1520182Y4351D01*
X1520181Y4391D01*
X1520189Y4445D01*
X1520189Y90805D01*
X1520178Y90870D01*
X1520176Y90936D01*
X1520158Y90979D01*
X1520150Y91026D01*
X1520116Y91083D01*
X1520091Y91143D01*
X1520060Y91178D01*
X1520035Y91219D01*
X1519984Y91261D01*
X1519940Y91309D01*
X1519898Y91331D01*
X1519861Y91360D01*
X1519799Y91381D01*
X1519740Y91412D01*
X1519686Y91420D01*
X1519649Y91432D01*
X1519609Y91431D01*
X1519555Y91439D01*
X4445Y91439D01*
X4380Y91428D01*
X4314Y91426D01*
X4271Y91408D01*
X4224Y91400D01*
X4167Y91366D01*
X4107Y91341D01*
X4072Y91310D01*
X4031Y91285D01*
X3989Y91234D01*
X3941Y91190D01*
X3919Y91148D01*
X3890Y91111D01*
X3869Y91049D01*
X3838Y90990D01*
X3830Y90936D01*
X3818Y90899D01*
X3819Y90859D01*
X3811Y90805D01*
X3811Y4445D01*
X3822Y4380D01*
X3824Y4314D01*
X3842Y4271D01*
X3850Y4224D01*
X3884Y4167D01*
X3909Y4107D01*
X3940Y4072D01*
X3965Y4031D01*
X4016Y3989D01*
X4060Y3941D01*
X4102Y3919D01*
X4139Y3890D01*
X4201Y3869D01*
X4260Y3838D01*
X4314Y3830D01*
X4351Y3818D01*
X4391Y3819D01*
X4445Y3811D01*
X1519555Y3811D01*
X1519620Y3822D01*
G37*
D10*
X1506474Y36068D03*
X1506474Y60452D03*
X1484376Y60452D03*
X1484376Y36068D03*
D11*
X1495425Y56642D03*
X1495425Y39878D03*
X1518793Y56642D03*
X1518793Y39878D03*
X1472057Y39878D03*
X1472057Y56642D03*
D10*
X17526Y60452D03*
X17526Y36068D03*
X39624Y36068D03*
X39624Y60452D03*
D11*
X28575Y39878D03*
X28575Y56642D03*
X5207Y39878D03*
X5207Y56642D03*
X51943Y56642D03*
X51943Y39878D03*
X63500Y57150D03*
X76200Y57150D03*
X88900Y57150D03*
X101600Y57150D03*
X114300Y57150D03*
X127000Y57150D03*
X139700Y57150D03*
X152400Y57150D03*
X165100Y57150D03*
X177800Y57150D03*
X190500Y57150D03*
X203200Y57150D03*
X215900Y57150D03*
X228600Y57150D03*
X241300Y57150D03*
X254000Y57150D03*
X266700Y57150D03*
X279400Y57150D03*
X292100Y57150D03*
X304800Y57150D03*
X317500Y57150D03*
X330200Y57150D03*
X342900Y57150D03*
X355600Y57150D03*
X368300Y57150D03*
X381000Y57150D03*
X393700Y57150D03*
X406400Y57150D03*
X419100Y57150D03*
X431800Y57150D03*
X444500Y57150D03*
X457200Y57150D03*
X469900Y57150D03*
X482600Y57150D03*
X495300Y57150D03*
X508000Y57150D03*
X520700Y57150D03*
X533400Y57150D03*
X546100Y57150D03*
X558800Y57150D03*
X571500Y57150D03*
X584200Y57150D03*
X596900Y57150D03*
X609600Y57150D03*
X622300Y57150D03*
X635000Y57150D03*
X647700Y57150D03*
X660400Y57150D03*
X673100Y57150D03*
X685800Y57150D03*
X698500Y57150D03*
X63500Y39370D03*
X76200Y39370D03*
X88900Y39370D03*
X101600Y39370D03*
X114300Y39370D03*
X127000Y39370D03*
X139700Y39370D03*
X152400Y39370D03*
X165100Y39370D03*
X177800Y39370D03*
X190500Y39370D03*
X203200Y39370D03*
X215900Y39370D03*
X228600Y39370D03*
X241300Y39370D03*
X254000Y39370D03*
X266700Y39370D03*
X279400Y39370D03*
X292100Y39370D03*
X304800Y39370D03*
X317500Y39370D03*
X330200Y39370D03*
X342900Y39370D03*
X355600Y39370D03*
X368300Y39370D03*
X381000Y39370D03*
X393700Y39370D03*
X406400Y39370D03*
X419100Y39370D03*
X431800Y39370D03*
X444500Y39370D03*
X457200Y39370D03*
X469900Y39370D03*
X482600Y39370D03*
X495300Y39370D03*
X508000Y39370D03*
X520700Y39370D03*
X533400Y39370D03*
X546100Y39370D03*
X558800Y39370D03*
X571500Y39370D03*
X584200Y39370D03*
X596900Y39370D03*
X609600Y39370D03*
X622300Y39370D03*
X635000Y39370D03*
X647700Y39370D03*
X660400Y39370D03*
X673100Y39370D03*
X685800Y39370D03*
X698500Y39370D03*
X63500Y12700D03*
X76200Y12700D03*
X88900Y12700D03*
X101600Y12700D03*
X114300Y12700D03*
X127000Y12700D03*
X139700Y12700D03*
X152400Y12700D03*
X165100Y12700D03*
X177800Y12700D03*
X190500Y12700D03*
X203200Y12700D03*
X215900Y12700D03*
X228600Y12700D03*
X241300Y12700D03*
X254000Y12700D03*
X266700Y12700D03*
X279400Y12700D03*
X292100Y12700D03*
X304800Y12700D03*
X317500Y12700D03*
X330200Y12700D03*
X342900Y12700D03*
X355600Y12700D03*
X368300Y12700D03*
X381000Y12700D03*
X393700Y12700D03*
X406400Y12700D03*
X419100Y12700D03*
X431800Y12700D03*
X444500Y12700D03*
X457200Y12700D03*
X469900Y12700D03*
X482600Y12700D03*
X495300Y12700D03*
X508000Y12700D03*
X520700Y12700D03*
X533400Y12700D03*
X546100Y12700D03*
X558800Y12700D03*
X571500Y12700D03*
X584200Y12700D03*
X596900Y12700D03*
X609600Y12700D03*
X622300Y12700D03*
X635000Y12700D03*
X647700Y12700D03*
X660400Y12700D03*
X673100Y12700D03*
X685800Y12700D03*
X698500Y12700D03*
X63500Y82550D03*
X76200Y82550D03*
X88900Y82550D03*
X101600Y82550D03*
X114300Y82550D03*
X127000Y82550D03*
X139700Y82550D03*
X152400Y82550D03*
X165100Y82550D03*
X177800Y82550D03*
X190500Y82550D03*
X203200Y82550D03*
X215900Y82550D03*
X228600Y82550D03*
X241300Y82550D03*
X254000Y82550D03*
X266700Y82550D03*
X279400Y82550D03*
X292100Y82550D03*
X304800Y82550D03*
X317500Y82550D03*
X330200Y82550D03*
X342900Y82550D03*
X355600Y82550D03*
X368300Y82550D03*
X381000Y82550D03*
X393700Y82550D03*
X406400Y82550D03*
X419100Y82550D03*
X431800Y82550D03*
X444500Y82550D03*
X457200Y82550D03*
X469900Y82550D03*
X482600Y82550D03*
X495300Y82550D03*
X508000Y82550D03*
X520700Y82550D03*
X533400Y82550D03*
X546100Y82550D03*
X558800Y82550D03*
X571500Y82550D03*
X584200Y82550D03*
X596900Y82550D03*
X609600Y82550D03*
X622300Y82550D03*
X635000Y82550D03*
X647700Y82550D03*
X660400Y82550D03*
X673100Y82550D03*
X685800Y82550D03*
X698500Y82550D03*
X711200Y82550D03*
X723900Y82550D03*
X736600Y82550D03*
X749300Y82550D03*
X762000Y82550D03*
X774700Y82550D03*
X787400Y82550D03*
X800100Y82550D03*
X812800Y82550D03*
X825500Y82550D03*
X838200Y82550D03*
X850900Y82550D03*
X863600Y82550D03*
X876300Y82550D03*
X889000Y82550D03*
X901700Y82550D03*
X914400Y82550D03*
X927100Y82550D03*
X939800Y82550D03*
X952500Y82550D03*
X965200Y82550D03*
X977900Y82550D03*
X990600Y82550D03*
X1003300Y82550D03*
X1016000Y82550D03*
X1028700Y82550D03*
X1041400Y82550D03*
X1054100Y82550D03*
X1066800Y82550D03*
X1079500Y82550D03*
X1092200Y82550D03*
X1104900Y82550D03*
X1117600Y82550D03*
X1130300Y82550D03*
X1143000Y82550D03*
X1155700Y82550D03*
X1168400Y82550D03*
X1181100Y82550D03*
X1193800Y82550D03*
X1206500Y82550D03*
X1219200Y82550D03*
X1231900Y82550D03*
X1244600Y82550D03*
X1257300Y82550D03*
X1270000Y82550D03*
X1282700Y82550D03*
X1295400Y82550D03*
X1308100Y82550D03*
X1320800Y82550D03*
X1333500Y82550D03*
X1346200Y82550D03*
X1358900Y82550D03*
X1371600Y82550D03*
X1384300Y82550D03*
X1397000Y82550D03*
X1409700Y82550D03*
X1422400Y82550D03*
X1435100Y82550D03*
X1447800Y82550D03*
X1460500Y82550D03*
X1422400Y12700D03*
X1435100Y12700D03*
X1447800Y12700D03*
X1460500Y12700D03*
X711200Y12700D03*
X723900Y12700D03*
X736600Y12700D03*
X749300Y12700D03*
X762000Y12700D03*
X774700Y12700D03*
X787400Y12700D03*
X800100Y12700D03*
X812800Y12700D03*
X825500Y12700D03*
X838200Y12700D03*
X850900Y12700D03*
X863600Y12700D03*
X876300Y12700D03*
X889000Y12700D03*
X901700Y12700D03*
X914400Y12700D03*
X927100Y12700D03*
X939800Y12700D03*
X952500Y12700D03*
X965200Y12700D03*
X977900Y12700D03*
X990600Y12700D03*
X1003300Y12700D03*
X1016000Y12700D03*
X1028700Y12700D03*
X1041400Y12700D03*
X1054100Y12700D03*
X1066800Y12700D03*
X1079500Y12700D03*
X1092200Y12700D03*
X1104900Y12700D03*
X1117600Y12700D03*
X1130300Y12700D03*
X1143000Y12700D03*
X1155700Y12700D03*
X1168400Y12700D03*
X1181100Y12700D03*
X1193800Y12700D03*
X1206500Y12700D03*
X1219200Y12700D03*
X1231900Y12700D03*
X1244600Y12700D03*
X1257300Y12700D03*
X1270000Y12700D03*
X1282700Y12700D03*
X1295400Y12700D03*
X1308100Y12700D03*
X1320800Y12700D03*
X1333500Y12700D03*
X1346200Y12700D03*
X1358900Y12700D03*
X1371600Y12700D03*
X1384300Y12700D03*
X1397000Y12700D03*
X1409700Y12700D03*
X711200Y57150D03*
X723900Y57150D03*
X736600Y57150D03*
X749300Y57150D03*
X762000Y57150D03*
X774700Y57150D03*
X787400Y57150D03*
X800100Y57150D03*
X812800Y57150D03*
X825500Y57150D03*
X838200Y57150D03*
X850900Y57150D03*
X863600Y57150D03*
X876300Y57150D03*
X889000Y57150D03*
X901700Y57150D03*
X914400Y57150D03*
X927100Y57150D03*
X939800Y57150D03*
X952500Y57150D03*
X965200Y57150D03*
X977900Y57150D03*
X990600Y57150D03*
X1003300Y57150D03*
X1016000Y57150D03*
X1028700Y57150D03*
X1041400Y57150D03*
X1054100Y57150D03*
X1066800Y57150D03*
X1079500Y57150D03*
X1092200Y57150D03*
X1104900Y57150D03*
X1117600Y57150D03*
X1130300Y57150D03*
X1143000Y57150D03*
X1155700Y57150D03*
X1168400Y57150D03*
X1181100Y57150D03*
X1193800Y57150D03*
X1206500Y57150D03*
X1219200Y57150D03*
X1231900Y57150D03*
X1244600Y57150D03*
X1257300Y57150D03*
X1270000Y57150D03*
X1282700Y57150D03*
X1295400Y57150D03*
X1308100Y57150D03*
X1320800Y57150D03*
X1333500Y57150D03*
X1346200Y57150D03*
X1358900Y57150D03*
X1371600Y57150D03*
X1384300Y57150D03*
X1397000Y57150D03*
X1409700Y57150D03*
X1422400Y57150D03*
X1435100Y57150D03*
X1447800Y57150D03*
X1460500Y57150D03*
X1104900Y39370D03*
X1117600Y39370D03*
X1130300Y39370D03*
X1143000Y39370D03*
X1155700Y39370D03*
X1168400Y39370D03*
X1181100Y39370D03*
X1193800Y39370D03*
X1206500Y39370D03*
X1219200Y39370D03*
X1231900Y39370D03*
X1244600Y39370D03*
X1257300Y39370D03*
X1270000Y39370D03*
X1282700Y39370D03*
X1295400Y39370D03*
X1308100Y39370D03*
X1320800Y39370D03*
X1333500Y39370D03*
X1346200Y39370D03*
X1358900Y39370D03*
X1371600Y39370D03*
X1384300Y39370D03*
X1397000Y39370D03*
X1409700Y39370D03*
X1422400Y39370D03*
X1435100Y39370D03*
X1447800Y39370D03*
X1460500Y39370D03*
X711200Y39370D03*
X723900Y39370D03*
X736600Y39370D03*
X749300Y39370D03*
X762000Y39370D03*
X774700Y39370D03*
X787400Y39370D03*
X800100Y39370D03*
X812800Y39370D03*
X825500Y39370D03*
X838200Y39370D03*
X850900Y39370D03*
X863600Y39370D03*
X876300Y39370D03*
X889000Y39370D03*
X901700Y39370D03*
X914400Y39370D03*
X927100Y39370D03*
X939800Y39370D03*
X952500Y39370D03*
X965200Y39370D03*
X977900Y39370D03*
X990600Y39370D03*
X1003300Y39370D03*
X1016000Y39370D03*
X1028700Y39370D03*
X1041400Y39370D03*
X1054100Y39370D03*
X1066800Y39370D03*
X1079500Y39370D03*
X1092200Y39370D03*
M02*
