G04 EAGLE Gerber RS-274X export*
G75*
%MOMM*%
%FSLAX34Y34*%
%LPD*%
%INSolder stop mask SOL*%
%IPPOS*%
%AMOC8*
5,1,8,0,0,1.08239X$1,22.5*%
G01*
%ADD10C,0.680200*%
%ADD11P,2.061953X8X112.500000*%

G36*
X63558Y375548D02*
X63558Y375548D01*
X63616Y375546D01*
X63698Y375568D01*
X63782Y375580D01*
X63835Y375604D01*
X63891Y375618D01*
X63964Y375661D01*
X64041Y375696D01*
X64086Y375734D01*
X64136Y375764D01*
X64194Y375825D01*
X64258Y375880D01*
X64290Y375928D01*
X64330Y375971D01*
X64369Y376046D01*
X64416Y376116D01*
X64433Y376172D01*
X64460Y376224D01*
X64471Y376292D01*
X64501Y376387D01*
X64504Y376487D01*
X64515Y376555D01*
X64515Y438150D01*
X64507Y438208D01*
X64509Y438266D01*
X64487Y438348D01*
X64475Y438432D01*
X64452Y438485D01*
X64437Y438541D01*
X64394Y438614D01*
X64359Y438691D01*
X64321Y438736D01*
X64292Y438786D01*
X64230Y438844D01*
X64176Y438908D01*
X64127Y438940D01*
X64084Y438980D01*
X64009Y439019D01*
X63939Y439066D01*
X63883Y439083D01*
X63831Y439110D01*
X63763Y439121D01*
X63668Y439151D01*
X63568Y439154D01*
X63500Y439165D01*
X0Y439165D01*
X-58Y439157D01*
X-116Y439159D01*
X-198Y439137D01*
X-282Y439125D01*
X-335Y439102D01*
X-391Y439087D01*
X-464Y439044D01*
X-541Y439009D01*
X-586Y438971D01*
X-636Y438942D01*
X-694Y438880D01*
X-758Y438826D01*
X-790Y438777D01*
X-830Y438734D01*
X-869Y438659D01*
X-916Y438589D01*
X-933Y438533D01*
X-960Y438481D01*
X-971Y438413D01*
X-1001Y438318D01*
X-1004Y438218D01*
X-1015Y438150D01*
X-1015Y376555D01*
X-1007Y376497D01*
X-1009Y376439D01*
X-987Y376357D01*
X-975Y376274D01*
X-952Y376220D01*
X-937Y376164D01*
X-894Y376091D01*
X-859Y376014D01*
X-821Y375969D01*
X-792Y375919D01*
X-730Y375861D01*
X-676Y375797D01*
X-627Y375765D01*
X-584Y375725D01*
X-509Y375686D01*
X-439Y375640D01*
X-383Y375622D01*
X-331Y375595D01*
X-263Y375584D01*
X-168Y375554D01*
X-68Y375551D01*
X0Y375540D01*
X63500Y375540D01*
X63558Y375548D01*
G37*
G36*
X63558Y297443D02*
X63558Y297443D01*
X63616Y297441D01*
X63698Y297463D01*
X63782Y297475D01*
X63835Y297499D01*
X63891Y297513D01*
X63964Y297556D01*
X64041Y297591D01*
X64086Y297629D01*
X64136Y297659D01*
X64194Y297720D01*
X64258Y297775D01*
X64290Y297823D01*
X64330Y297866D01*
X64369Y297941D01*
X64416Y298011D01*
X64433Y298067D01*
X64460Y298119D01*
X64471Y298187D01*
X64501Y298282D01*
X64504Y298382D01*
X64515Y298450D01*
X64515Y360045D01*
X64507Y360103D01*
X64509Y360161D01*
X64487Y360243D01*
X64475Y360327D01*
X64452Y360380D01*
X64437Y360436D01*
X64394Y360509D01*
X64359Y360586D01*
X64321Y360631D01*
X64292Y360681D01*
X64230Y360739D01*
X64176Y360803D01*
X64127Y360835D01*
X64084Y360875D01*
X64009Y360914D01*
X63939Y360961D01*
X63883Y360978D01*
X63831Y361005D01*
X63763Y361016D01*
X63668Y361046D01*
X63568Y361049D01*
X63500Y361060D01*
X0Y361060D01*
X-58Y361052D01*
X-116Y361054D01*
X-198Y361032D01*
X-282Y361020D01*
X-335Y360997D01*
X-391Y360982D01*
X-464Y360939D01*
X-541Y360904D01*
X-586Y360866D01*
X-636Y360837D01*
X-694Y360775D01*
X-758Y360721D01*
X-790Y360672D01*
X-830Y360629D01*
X-869Y360554D01*
X-916Y360484D01*
X-933Y360428D01*
X-960Y360376D01*
X-971Y360308D01*
X-1001Y360213D01*
X-1004Y360113D01*
X-1015Y360045D01*
X-1015Y298450D01*
X-1007Y298392D01*
X-1009Y298334D01*
X-987Y298252D01*
X-975Y298169D01*
X-952Y298115D01*
X-937Y298059D01*
X-894Y297986D01*
X-859Y297909D01*
X-821Y297864D01*
X-792Y297814D01*
X-730Y297756D01*
X-676Y297692D01*
X-627Y297660D01*
X-584Y297620D01*
X-509Y297581D01*
X-439Y297535D01*
X-383Y297517D01*
X-331Y297490D01*
X-263Y297479D01*
X-168Y297449D01*
X-68Y297446D01*
X0Y297435D01*
X63500Y297435D01*
X63558Y297443D01*
G37*
G36*
X63558Y229498D02*
X63558Y229498D01*
X63616Y229496D01*
X63698Y229518D01*
X63782Y229530D01*
X63835Y229554D01*
X63891Y229568D01*
X63964Y229611D01*
X64041Y229646D01*
X64086Y229684D01*
X64136Y229714D01*
X64194Y229775D01*
X64258Y229830D01*
X64290Y229878D01*
X64330Y229921D01*
X64369Y229996D01*
X64416Y230066D01*
X64433Y230122D01*
X64460Y230174D01*
X64471Y230242D01*
X64501Y230337D01*
X64504Y230437D01*
X64515Y230505D01*
X64515Y292100D01*
X64507Y292158D01*
X64509Y292216D01*
X64487Y292298D01*
X64475Y292382D01*
X64452Y292435D01*
X64437Y292491D01*
X64394Y292564D01*
X64359Y292641D01*
X64321Y292686D01*
X64292Y292736D01*
X64230Y292794D01*
X64176Y292858D01*
X64127Y292890D01*
X64084Y292930D01*
X64009Y292969D01*
X63939Y293016D01*
X63883Y293033D01*
X63831Y293060D01*
X63763Y293071D01*
X63668Y293101D01*
X63568Y293104D01*
X63500Y293115D01*
X0Y293115D01*
X-58Y293107D01*
X-116Y293109D01*
X-198Y293087D01*
X-282Y293075D01*
X-335Y293052D01*
X-391Y293037D01*
X-464Y292994D01*
X-541Y292959D01*
X-586Y292921D01*
X-636Y292892D01*
X-694Y292830D01*
X-758Y292776D01*
X-790Y292727D01*
X-830Y292684D01*
X-869Y292609D01*
X-916Y292539D01*
X-933Y292483D01*
X-960Y292431D01*
X-971Y292363D01*
X-1001Y292268D01*
X-1004Y292168D01*
X-1015Y292100D01*
X-1015Y230505D01*
X-1007Y230447D01*
X-1009Y230389D01*
X-987Y230307D01*
X-975Y230224D01*
X-952Y230170D01*
X-937Y230114D01*
X-894Y230041D01*
X-859Y229964D01*
X-821Y229919D01*
X-792Y229869D01*
X-730Y229811D01*
X-676Y229747D01*
X-627Y229715D01*
X-584Y229675D01*
X-509Y229636D01*
X-439Y229590D01*
X-383Y229572D01*
X-331Y229545D01*
X-263Y229534D01*
X-168Y229504D01*
X-68Y229501D01*
X0Y229490D01*
X63500Y229490D01*
X63558Y229498D01*
G37*
G36*
X63558Y151393D02*
X63558Y151393D01*
X63616Y151391D01*
X63698Y151413D01*
X63782Y151425D01*
X63835Y151449D01*
X63891Y151463D01*
X63964Y151506D01*
X64041Y151541D01*
X64086Y151579D01*
X64136Y151609D01*
X64194Y151670D01*
X64258Y151725D01*
X64290Y151773D01*
X64330Y151816D01*
X64369Y151891D01*
X64416Y151961D01*
X64433Y152017D01*
X64460Y152069D01*
X64471Y152137D01*
X64501Y152232D01*
X64504Y152332D01*
X64515Y152400D01*
X64515Y213995D01*
X64507Y214053D01*
X64509Y214111D01*
X64487Y214193D01*
X64475Y214277D01*
X64452Y214330D01*
X64437Y214386D01*
X64394Y214459D01*
X64359Y214536D01*
X64321Y214581D01*
X64292Y214631D01*
X64230Y214689D01*
X64176Y214753D01*
X64127Y214785D01*
X64084Y214825D01*
X64009Y214864D01*
X63939Y214911D01*
X63883Y214928D01*
X63831Y214955D01*
X63763Y214966D01*
X63668Y214996D01*
X63568Y214999D01*
X63500Y215010D01*
X0Y215010D01*
X-58Y215002D01*
X-116Y215004D01*
X-198Y214982D01*
X-282Y214970D01*
X-335Y214947D01*
X-391Y214932D01*
X-464Y214889D01*
X-541Y214854D01*
X-586Y214816D01*
X-636Y214787D01*
X-694Y214725D01*
X-758Y214671D01*
X-790Y214622D01*
X-830Y214579D01*
X-869Y214504D01*
X-916Y214434D01*
X-933Y214378D01*
X-960Y214326D01*
X-971Y214258D01*
X-1001Y214163D01*
X-1004Y214063D01*
X-1015Y213995D01*
X-1015Y152400D01*
X-1007Y152342D01*
X-1009Y152284D01*
X-987Y152202D01*
X-975Y152119D01*
X-952Y152065D01*
X-937Y152009D01*
X-894Y151936D01*
X-859Y151859D01*
X-821Y151814D01*
X-792Y151764D01*
X-730Y151706D01*
X-676Y151642D01*
X-627Y151610D01*
X-584Y151570D01*
X-509Y151531D01*
X-439Y151485D01*
X-383Y151467D01*
X-331Y151440D01*
X-263Y151429D01*
X-168Y151399D01*
X-68Y151396D01*
X0Y151385D01*
X63500Y151385D01*
X63558Y151393D01*
G37*
G36*
X63558Y83448D02*
X63558Y83448D01*
X63616Y83446D01*
X63698Y83468D01*
X63782Y83480D01*
X63835Y83504D01*
X63891Y83518D01*
X63964Y83561D01*
X64041Y83596D01*
X64086Y83634D01*
X64136Y83664D01*
X64194Y83725D01*
X64258Y83780D01*
X64290Y83828D01*
X64330Y83871D01*
X64369Y83946D01*
X64416Y84016D01*
X64433Y84072D01*
X64460Y84124D01*
X64471Y84192D01*
X64501Y84287D01*
X64504Y84387D01*
X64515Y84455D01*
X64515Y146050D01*
X64507Y146108D01*
X64509Y146166D01*
X64487Y146248D01*
X64475Y146332D01*
X64452Y146385D01*
X64437Y146441D01*
X64394Y146514D01*
X64359Y146591D01*
X64321Y146636D01*
X64292Y146686D01*
X64230Y146744D01*
X64176Y146808D01*
X64127Y146840D01*
X64084Y146880D01*
X64009Y146919D01*
X63939Y146966D01*
X63883Y146983D01*
X63831Y147010D01*
X63763Y147021D01*
X63668Y147051D01*
X63568Y147054D01*
X63500Y147065D01*
X0Y147065D01*
X-58Y147057D01*
X-116Y147059D01*
X-198Y147037D01*
X-282Y147025D01*
X-335Y147002D01*
X-391Y146987D01*
X-464Y146944D01*
X-541Y146909D01*
X-586Y146871D01*
X-636Y146842D01*
X-694Y146780D01*
X-758Y146726D01*
X-790Y146677D01*
X-830Y146634D01*
X-869Y146559D01*
X-916Y146489D01*
X-933Y146433D01*
X-960Y146381D01*
X-971Y146313D01*
X-1001Y146218D01*
X-1004Y146118D01*
X-1015Y146050D01*
X-1015Y84455D01*
X-1007Y84397D01*
X-1009Y84339D01*
X-987Y84257D01*
X-975Y84174D01*
X-952Y84120D01*
X-937Y84064D01*
X-894Y83991D01*
X-859Y83914D01*
X-821Y83869D01*
X-792Y83819D01*
X-730Y83761D01*
X-676Y83697D01*
X-627Y83665D01*
X-584Y83625D01*
X-509Y83586D01*
X-439Y83540D01*
X-383Y83522D01*
X-331Y83495D01*
X-263Y83484D01*
X-168Y83454D01*
X-68Y83451D01*
X0Y83440D01*
X63500Y83440D01*
X63558Y83448D01*
G37*
G36*
X63558Y5343D02*
X63558Y5343D01*
X63616Y5341D01*
X63698Y5363D01*
X63782Y5375D01*
X63835Y5399D01*
X63891Y5413D01*
X63964Y5456D01*
X64041Y5491D01*
X64086Y5529D01*
X64136Y5559D01*
X64194Y5620D01*
X64258Y5675D01*
X64290Y5723D01*
X64330Y5766D01*
X64369Y5841D01*
X64416Y5911D01*
X64433Y5967D01*
X64460Y6019D01*
X64471Y6087D01*
X64501Y6182D01*
X64504Y6282D01*
X64515Y6350D01*
X64515Y67945D01*
X64507Y68003D01*
X64509Y68061D01*
X64487Y68143D01*
X64475Y68227D01*
X64452Y68280D01*
X64437Y68336D01*
X64394Y68409D01*
X64359Y68486D01*
X64321Y68531D01*
X64292Y68581D01*
X64230Y68639D01*
X64176Y68703D01*
X64127Y68735D01*
X64084Y68775D01*
X64009Y68814D01*
X63939Y68861D01*
X63883Y68878D01*
X63831Y68905D01*
X63763Y68916D01*
X63668Y68946D01*
X63568Y68949D01*
X63500Y68960D01*
X0Y68960D01*
X-58Y68952D01*
X-116Y68954D01*
X-198Y68932D01*
X-282Y68920D01*
X-335Y68897D01*
X-391Y68882D01*
X-464Y68839D01*
X-541Y68804D01*
X-586Y68766D01*
X-636Y68737D01*
X-694Y68675D01*
X-758Y68621D01*
X-790Y68572D01*
X-830Y68529D01*
X-869Y68454D01*
X-916Y68384D01*
X-933Y68328D01*
X-960Y68276D01*
X-971Y68208D01*
X-1001Y68113D01*
X-1004Y68013D01*
X-1015Y67945D01*
X-1015Y6350D01*
X-1007Y6292D01*
X-1009Y6234D01*
X-987Y6152D01*
X-975Y6069D01*
X-952Y6015D01*
X-937Y5959D01*
X-894Y5886D01*
X-859Y5809D01*
X-821Y5764D01*
X-792Y5714D01*
X-730Y5656D01*
X-676Y5592D01*
X-627Y5560D01*
X-584Y5520D01*
X-509Y5481D01*
X-439Y5435D01*
X-383Y5417D01*
X-331Y5390D01*
X-263Y5379D01*
X-168Y5349D01*
X-68Y5346D01*
X0Y5335D01*
X63500Y5335D01*
X63558Y5343D01*
G37*
D10*
X50800Y304800D03*
X31750Y304800D03*
X12700Y304800D03*
X50800Y431800D03*
X31750Y431800D03*
X12700Y431800D03*
X50800Y12700D03*
X31750Y12700D03*
X12700Y12700D03*
X50800Y139700D03*
X31750Y139700D03*
X12700Y139700D03*
X50800Y158750D03*
X31750Y158750D03*
X12700Y158750D03*
X50800Y285750D03*
X31750Y285750D03*
X12700Y285750D03*
D11*
X228600Y228600D03*
X228600Y203200D03*
X228600Y177800D03*
X228600Y152400D03*
X228600Y127000D03*
X228600Y254000D03*
X228600Y279400D03*
X228600Y304800D03*
X228600Y330200D03*
X228600Y355600D03*
M02*
