G04 EAGLE Gerber RS-274X export*
G75*
%MOMM*%
%FSLAX34Y34*%
%LPD*%
%INInner Layer 1*%
%IPPOS*%
%AMOC8*
5,1,8,0,0,1.08239X$1,22.5*%
G01*
%ADD10C,1.500000*%
%ADD11C,0.503200*%
%ADD12C,0.553200*%

G36*
X281370Y3822D02*
X281370Y3822D01*
X281436Y3824D01*
X281479Y3842D01*
X281526Y3850D01*
X281583Y3884D01*
X281643Y3909D01*
X281678Y3940D01*
X281719Y3965D01*
X281761Y4016D01*
X281809Y4060D01*
X281831Y4102D01*
X281860Y4139D01*
X281881Y4201D01*
X281912Y4260D01*
X281920Y4314D01*
X281932Y4351D01*
X281931Y4391D01*
X281939Y4445D01*
X281939Y28443D01*
X281940Y28443D01*
X281945Y28447D01*
X281945Y28448D01*
X281945Y40640D01*
X281941Y40645D01*
X281940Y40645D01*
X247652Y40645D01*
X240033Y47502D01*
X240032Y47502D01*
X240031Y47503D01*
X240029Y47502D01*
X240029Y54097D01*
X240031Y54099D01*
X240033Y54098D01*
X247652Y60955D01*
X281940Y60955D01*
X281945Y60959D01*
X281945Y60960D01*
X281945Y73152D01*
X281941Y73157D01*
X281940Y73157D01*
X281939Y73157D01*
X281939Y274955D01*
X281928Y275020D01*
X281926Y275086D01*
X281908Y275129D01*
X281900Y275176D01*
X281866Y275233D01*
X281841Y275293D01*
X281810Y275328D01*
X281785Y275369D01*
X281734Y275411D01*
X281690Y275459D01*
X281648Y275481D01*
X281611Y275510D01*
X281549Y275531D01*
X281490Y275562D01*
X281436Y275570D01*
X281399Y275582D01*
X281359Y275581D01*
X281305Y275589D01*
X4445Y275589D01*
X4380Y275578D01*
X4314Y275576D01*
X4271Y275558D01*
X4224Y275550D01*
X4167Y275516D01*
X4107Y275491D01*
X4072Y275460D01*
X4031Y275435D01*
X3989Y275384D01*
X3941Y275340D01*
X3919Y275298D01*
X3890Y275261D01*
X3869Y275199D01*
X3838Y275140D01*
X3830Y275086D01*
X3818Y275049D01*
X3819Y275009D01*
X3811Y274955D01*
X3811Y212857D01*
X3810Y212857D01*
X3805Y212853D01*
X3805Y212852D01*
X3805Y200660D01*
X3809Y200655D01*
X3810Y200655D01*
X38098Y200655D01*
X45717Y193798D01*
X45718Y193798D01*
X45719Y193797D01*
X45721Y193798D01*
X45721Y187203D01*
X45719Y187201D01*
X45717Y187202D01*
X38098Y180345D01*
X3810Y180345D01*
X3805Y180341D01*
X3805Y180340D01*
X3805Y168148D01*
X3809Y168143D01*
X3810Y168143D01*
X3811Y168143D01*
X3811Y73157D01*
X3810Y73157D01*
X3805Y73153D01*
X3805Y73152D01*
X3805Y60960D01*
X3809Y60955D01*
X3810Y60955D01*
X38098Y60955D01*
X45717Y54098D01*
X45718Y54098D01*
X45719Y54097D01*
X45721Y54098D01*
X45721Y47503D01*
X45719Y47501D01*
X45717Y47502D01*
X38098Y40645D01*
X3810Y40645D01*
X3805Y40641D01*
X3805Y40640D01*
X3805Y28448D01*
X3809Y28443D01*
X3810Y28443D01*
X3811Y28443D01*
X3811Y4445D01*
X3822Y4380D01*
X3824Y4314D01*
X3842Y4271D01*
X3850Y4224D01*
X3884Y4167D01*
X3909Y4107D01*
X3940Y4072D01*
X3965Y4031D01*
X4016Y3989D01*
X4060Y3941D01*
X4102Y3919D01*
X4139Y3890D01*
X4201Y3869D01*
X4260Y3838D01*
X4314Y3830D01*
X4351Y3818D01*
X4391Y3819D01*
X4445Y3811D01*
X281305Y3811D01*
X281370Y3822D01*
G37*
%LPC*%
G36*
X258605Y213479D02*
X258605Y213479D01*
X255382Y214815D01*
X252915Y217282D01*
X251579Y220505D01*
X251579Y223995D01*
X252915Y227218D01*
X255382Y229685D01*
X258605Y231021D01*
X262095Y231021D01*
X265318Y229685D01*
X267785Y227218D01*
X269121Y223995D01*
X269121Y220505D01*
X267785Y217282D01*
X265318Y214815D01*
X262095Y213479D01*
X258605Y213479D01*
G37*
%LPD*%
%LPC*%
G36*
X258605Y137279D02*
X258605Y137279D01*
X255382Y138615D01*
X252915Y141082D01*
X251579Y144305D01*
X251579Y147795D01*
X252915Y151018D01*
X255382Y153485D01*
X258605Y154821D01*
X262095Y154821D01*
X265318Y153485D01*
X267785Y151018D01*
X269121Y147795D01*
X269121Y144305D01*
X267785Y141082D01*
X265318Y138615D01*
X262095Y137279D01*
X258605Y137279D01*
G37*
%LPD*%
%LPC*%
G36*
X148188Y195353D02*
X148188Y195353D01*
X145823Y197718D01*
X145823Y201062D01*
X146878Y202117D01*
X146915Y202171D01*
X146960Y202218D01*
X146979Y202262D01*
X147006Y202301D01*
X147022Y202364D01*
X147048Y202425D01*
X147050Y202472D01*
X147062Y202518D01*
X147055Y202583D01*
X147058Y202649D01*
X147043Y202694D01*
X147039Y202741D01*
X147009Y202800D01*
X146989Y202863D01*
X146957Y202907D01*
X146939Y202942D01*
X146910Y202969D01*
X146878Y203014D01*
X144553Y205338D01*
X144553Y207419D01*
X144542Y207484D01*
X144540Y207550D01*
X144522Y207593D01*
X144514Y207640D01*
X144480Y207697D01*
X144455Y207757D01*
X144424Y207792D01*
X144399Y207833D01*
X144348Y207875D01*
X144304Y207923D01*
X144262Y207945D01*
X144225Y207974D01*
X144163Y207995D01*
X144104Y208026D01*
X144050Y208034D01*
X144013Y208046D01*
X143973Y208045D01*
X143919Y208053D01*
X141838Y208053D01*
X139473Y210418D01*
X139473Y213762D01*
X141838Y216127D01*
X145182Y216127D01*
X147547Y213762D01*
X147547Y211681D01*
X147558Y211616D01*
X147560Y211550D01*
X147578Y211507D01*
X147586Y211460D01*
X147620Y211403D01*
X147645Y211343D01*
X147676Y211308D01*
X147701Y211267D01*
X147752Y211225D01*
X147796Y211177D01*
X147838Y211155D01*
X147875Y211126D01*
X147937Y211105D01*
X147996Y211074D01*
X148050Y211066D01*
X148087Y211054D01*
X148127Y211055D01*
X148181Y211047D01*
X150262Y211047D01*
X152627Y208682D01*
X152627Y205338D01*
X151572Y204284D01*
X151535Y204229D01*
X151490Y204182D01*
X151471Y204138D01*
X151444Y204099D01*
X151428Y204036D01*
X151402Y203975D01*
X151400Y203928D01*
X151388Y203882D01*
X151395Y203817D01*
X151392Y203751D01*
X151407Y203706D01*
X151411Y203659D01*
X151441Y203600D01*
X151461Y203537D01*
X151493Y203493D01*
X151511Y203458D01*
X151540Y203431D01*
X151572Y203387D01*
X153897Y201062D01*
X153897Y197718D01*
X151532Y195353D01*
X148188Y195353D01*
G37*
%LPD*%
%LPC*%
G36*
X172318Y133123D02*
X172318Y133123D01*
X169953Y135488D01*
X169953Y138832D01*
X171008Y139887D01*
X171045Y139941D01*
X171090Y139988D01*
X171109Y140032D01*
X171136Y140071D01*
X171152Y140134D01*
X171178Y140195D01*
X171180Y140242D01*
X171192Y140288D01*
X171185Y140353D01*
X171188Y140419D01*
X171173Y140464D01*
X171169Y140511D01*
X171139Y140570D01*
X171119Y140633D01*
X171087Y140677D01*
X171069Y140712D01*
X171040Y140739D01*
X171008Y140784D01*
X169953Y141838D01*
X169953Y145182D01*
X171008Y146237D01*
X171045Y146291D01*
X171090Y146338D01*
X171109Y146382D01*
X171136Y146421D01*
X171152Y146484D01*
X171178Y146545D01*
X171180Y146592D01*
X171192Y146638D01*
X171185Y146703D01*
X171188Y146769D01*
X171173Y146814D01*
X171169Y146861D01*
X171139Y146920D01*
X171119Y146983D01*
X171087Y147027D01*
X171069Y147062D01*
X171040Y147089D01*
X171008Y147134D01*
X169953Y148188D01*
X169953Y151532D01*
X172318Y153897D01*
X175662Y153897D01*
X178027Y151532D01*
X178027Y148188D01*
X176972Y147134D01*
X176935Y147079D01*
X176890Y147032D01*
X176871Y146988D01*
X176844Y146949D01*
X176828Y146886D01*
X176802Y146825D01*
X176800Y146778D01*
X176788Y146732D01*
X176795Y146667D01*
X176792Y146601D01*
X176807Y146556D01*
X176811Y146509D01*
X176841Y146450D01*
X176861Y146387D01*
X176893Y146343D01*
X176911Y146308D01*
X176940Y146281D01*
X176972Y146237D01*
X178027Y145182D01*
X178027Y141838D01*
X176972Y140784D01*
X176935Y140729D01*
X176890Y140682D01*
X176871Y140638D01*
X176844Y140599D01*
X176828Y140536D01*
X176802Y140475D01*
X176800Y140428D01*
X176788Y140382D01*
X176795Y140317D01*
X176792Y140251D01*
X176807Y140206D01*
X176811Y140159D01*
X176841Y140100D01*
X176861Y140037D01*
X176893Y139993D01*
X176911Y139958D01*
X176940Y139931D01*
X176972Y139887D01*
X178027Y138832D01*
X178027Y135488D01*
X175662Y133123D01*
X172318Y133123D01*
G37*
%LPD*%
%LPC*%
G36*
X65638Y263933D02*
X65638Y263933D01*
X63273Y266298D01*
X63273Y269642D01*
X65638Y272007D01*
X68982Y272007D01*
X71306Y269682D01*
X71361Y269645D01*
X71408Y269600D01*
X71452Y269581D01*
X71491Y269554D01*
X71554Y269538D01*
X71615Y269512D01*
X71662Y269510D01*
X71708Y269498D01*
X71773Y269505D01*
X71839Y269502D01*
X71884Y269517D01*
X71931Y269521D01*
X71990Y269551D01*
X72053Y269571D01*
X72097Y269603D01*
X72132Y269621D01*
X72159Y269650D01*
X72203Y269682D01*
X74528Y272007D01*
X77872Y272007D01*
X80237Y269642D01*
X80237Y266298D01*
X77872Y263933D01*
X74528Y263933D01*
X72203Y266258D01*
X72149Y266295D01*
X72102Y266340D01*
X72058Y266359D01*
X72019Y266386D01*
X71956Y266402D01*
X71895Y266428D01*
X71848Y266430D01*
X71802Y266442D01*
X71737Y266435D01*
X71671Y266438D01*
X71626Y266423D01*
X71579Y266419D01*
X71520Y266389D01*
X71457Y266369D01*
X71413Y266337D01*
X71378Y266319D01*
X71351Y266290D01*
X71306Y266258D01*
X68982Y263933D01*
X65638Y263933D01*
G37*
%LPD*%
%LPC*%
G36*
X89768Y143283D02*
X89768Y143283D01*
X87403Y145648D01*
X87403Y148992D01*
X89768Y151357D01*
X93112Y151357D01*
X94801Y149667D01*
X94856Y149630D01*
X94903Y149585D01*
X94947Y149566D01*
X94986Y149539D01*
X95049Y149523D01*
X95110Y149497D01*
X95157Y149495D01*
X95203Y149483D01*
X95268Y149490D01*
X95334Y149487D01*
X95379Y149502D01*
X95426Y149506D01*
X95485Y149536D01*
X95548Y149556D01*
X95592Y149588D01*
X95627Y149606D01*
X95654Y149635D01*
X95698Y149667D01*
X97388Y151357D01*
X100732Y151357D01*
X103097Y148992D01*
X103097Y145648D01*
X100732Y143283D01*
X97388Y143283D01*
X95698Y144973D01*
X95644Y145010D01*
X95597Y145055D01*
X95553Y145074D01*
X95514Y145101D01*
X95451Y145117D01*
X95390Y145143D01*
X95343Y145145D01*
X95297Y145157D01*
X95232Y145150D01*
X95166Y145153D01*
X95121Y145138D01*
X95074Y145134D01*
X95015Y145104D01*
X94952Y145084D01*
X94908Y145052D01*
X94873Y145034D01*
X94846Y145005D01*
X94801Y144973D01*
X93112Y143283D01*
X89768Y143283D01*
G37*
%LPD*%
%LPC*%
G36*
X159618Y171223D02*
X159618Y171223D01*
X157253Y173588D01*
X157253Y176932D01*
X159618Y179297D01*
X162962Y179297D01*
X164016Y178242D01*
X164071Y178205D01*
X164118Y178160D01*
X164162Y178141D01*
X164201Y178114D01*
X164264Y178098D01*
X164325Y178072D01*
X164372Y178070D01*
X164418Y178058D01*
X164483Y178065D01*
X164549Y178062D01*
X164594Y178077D01*
X164641Y178081D01*
X164700Y178111D01*
X164763Y178131D01*
X164807Y178163D01*
X164842Y178181D01*
X164869Y178210D01*
X164913Y178242D01*
X165968Y179297D01*
X169312Y179297D01*
X171677Y176932D01*
X171677Y173588D01*
X169312Y171223D01*
X165968Y171223D01*
X164913Y172278D01*
X164859Y172315D01*
X164812Y172360D01*
X164768Y172379D01*
X164729Y172406D01*
X164666Y172422D01*
X164605Y172448D01*
X164558Y172450D01*
X164512Y172462D01*
X164447Y172455D01*
X164381Y172458D01*
X164336Y172443D01*
X164289Y172439D01*
X164230Y172409D01*
X164167Y172389D01*
X164123Y172357D01*
X164088Y172339D01*
X164061Y172310D01*
X164016Y172278D01*
X162962Y171223D01*
X159618Y171223D01*
G37*
%LPD*%
%LPC*%
G36*
X126598Y55653D02*
X126598Y55653D01*
X124233Y58018D01*
X124233Y61362D01*
X126598Y63727D01*
X129942Y63727D01*
X130996Y62672D01*
X131051Y62635D01*
X131098Y62590D01*
X131142Y62571D01*
X131181Y62544D01*
X131244Y62528D01*
X131305Y62502D01*
X131352Y62500D01*
X131398Y62488D01*
X131463Y62495D01*
X131529Y62492D01*
X131574Y62507D01*
X131621Y62511D01*
X131680Y62541D01*
X131743Y62561D01*
X131787Y62593D01*
X131822Y62611D01*
X131849Y62640D01*
X131893Y62672D01*
X132948Y63727D01*
X136292Y63727D01*
X138657Y61362D01*
X138657Y58018D01*
X136292Y55653D01*
X132948Y55653D01*
X131893Y56708D01*
X131839Y56745D01*
X131792Y56790D01*
X131748Y56809D01*
X131709Y56836D01*
X131646Y56852D01*
X131585Y56878D01*
X131538Y56880D01*
X131492Y56892D01*
X131427Y56885D01*
X131361Y56888D01*
X131316Y56873D01*
X131269Y56869D01*
X131210Y56839D01*
X131147Y56819D01*
X131103Y56787D01*
X131068Y56769D01*
X131041Y56740D01*
X130996Y56708D01*
X129942Y55653D01*
X126598Y55653D01*
G37*
%LPD*%
%LPC*%
G36*
X59288Y211863D02*
X59288Y211863D01*
X56923Y214228D01*
X56923Y217572D01*
X59288Y219937D01*
X62632Y219937D01*
X63687Y218882D01*
X63741Y218845D01*
X63788Y218800D01*
X63832Y218781D01*
X63871Y218754D01*
X63934Y218738D01*
X63995Y218712D01*
X64042Y218710D01*
X64088Y218698D01*
X64153Y218705D01*
X64219Y218702D01*
X64264Y218717D01*
X64311Y218721D01*
X64370Y218751D01*
X64433Y218771D01*
X64477Y218803D01*
X64512Y218821D01*
X64539Y218850D01*
X64584Y218882D01*
X65638Y219937D01*
X68982Y219937D01*
X71347Y217572D01*
X71347Y214228D01*
X68982Y211863D01*
X65638Y211863D01*
X64584Y212918D01*
X64529Y212955D01*
X64482Y213000D01*
X64438Y213019D01*
X64399Y213046D01*
X64336Y213062D01*
X64275Y213088D01*
X64228Y213090D01*
X64182Y213102D01*
X64117Y213095D01*
X64051Y213098D01*
X64006Y213083D01*
X63959Y213079D01*
X63900Y213049D01*
X63837Y213029D01*
X63793Y212997D01*
X63758Y212979D01*
X63731Y212950D01*
X63687Y212918D01*
X62632Y211863D01*
X59288Y211863D01*
G37*
%LPD*%
%LPC*%
G36*
X111358Y216943D02*
X111358Y216943D01*
X108993Y219308D01*
X108993Y222652D01*
X111358Y225017D01*
X114702Y225017D01*
X115757Y223962D01*
X115811Y223925D01*
X115858Y223880D01*
X115902Y223861D01*
X115941Y223834D01*
X116004Y223818D01*
X116065Y223792D01*
X116112Y223790D01*
X116158Y223778D01*
X116223Y223785D01*
X116289Y223782D01*
X116334Y223797D01*
X116381Y223801D01*
X116440Y223831D01*
X116503Y223851D01*
X116547Y223883D01*
X116582Y223901D01*
X116609Y223930D01*
X116654Y223962D01*
X117708Y225017D01*
X121052Y225017D01*
X123417Y222652D01*
X123417Y219308D01*
X121052Y216943D01*
X117708Y216943D01*
X116654Y217998D01*
X116599Y218035D01*
X116552Y218080D01*
X116508Y218099D01*
X116469Y218126D01*
X116406Y218142D01*
X116345Y218168D01*
X116298Y218170D01*
X116252Y218182D01*
X116187Y218175D01*
X116121Y218178D01*
X116076Y218163D01*
X116029Y218159D01*
X115970Y218129D01*
X115907Y218109D01*
X115863Y218077D01*
X115828Y218059D01*
X115801Y218030D01*
X115757Y217998D01*
X114702Y216943D01*
X111358Y216943D01*
G37*
%LPD*%
%LPC*%
G36*
X102468Y209323D02*
X102468Y209323D01*
X100103Y211688D01*
X100103Y215032D01*
X102468Y217397D01*
X105812Y217397D01*
X108177Y215032D01*
X108177Y211688D01*
X105812Y209323D01*
X102468Y209323D01*
G37*
%LPD*%
%LPC*%
G36*
X155808Y216943D02*
X155808Y216943D01*
X153443Y219308D01*
X153443Y222652D01*
X155808Y225017D01*
X159152Y225017D01*
X161517Y222652D01*
X161517Y219308D01*
X159152Y216943D01*
X155808Y216943D01*
G37*
%LPD*%
%LPC*%
G36*
X165968Y216943D02*
X165968Y216943D01*
X163603Y219308D01*
X163603Y222652D01*
X165968Y225017D01*
X169312Y225017D01*
X171677Y222652D01*
X171677Y219308D01*
X169312Y216943D01*
X165968Y216943D01*
G37*
%LPD*%
%LPC*%
G36*
X181208Y87403D02*
X181208Y87403D01*
X178843Y89768D01*
X178843Y93112D01*
X181208Y95477D01*
X184552Y95477D01*
X186917Y93112D01*
X186917Y89768D01*
X184552Y87403D01*
X181208Y87403D01*
G37*
%LPD*%
%LPC*%
G36*
X118978Y87403D02*
X118978Y87403D01*
X116613Y89768D01*
X116613Y93112D01*
X118978Y95477D01*
X122322Y95477D01*
X124687Y93112D01*
X124687Y89768D01*
X122322Y87403D01*
X118978Y87403D01*
G37*
%LPD*%
%LPC*%
G36*
X66908Y73433D02*
X66908Y73433D01*
X64543Y75798D01*
X64543Y79142D01*
X66908Y81507D01*
X70252Y81507D01*
X72617Y79142D01*
X72617Y75798D01*
X70252Y73433D01*
X66908Y73433D01*
G37*
%LPD*%
%LPC*%
G36*
X115168Y21363D02*
X115168Y21363D01*
X112803Y23728D01*
X112803Y27072D01*
X115168Y29437D01*
X118512Y29437D01*
X120877Y27072D01*
X120877Y23728D01*
X118512Y21363D01*
X115168Y21363D01*
G37*
%LPD*%
%LPC*%
G36*
X66908Y20093D02*
X66908Y20093D01*
X64543Y22458D01*
X64543Y25802D01*
X66908Y28167D01*
X70252Y28167D01*
X72617Y25802D01*
X72617Y22458D01*
X70252Y20093D01*
X66908Y20093D01*
G37*
%LPD*%
D10*
X260350Y196850D03*
X260350Y222250D03*
X260350Y146050D03*
X260350Y171450D03*
D11*
X11430Y67310D03*
X11430Y34290D03*
X36830Y67310D03*
X36830Y34290D03*
X11430Y11430D03*
X36830Y11430D03*
X11430Y90170D03*
X36830Y90170D03*
X24130Y90170D03*
X24130Y11430D03*
X24130Y34290D03*
X24130Y67310D03*
X45720Y59690D03*
X45720Y41910D03*
X274320Y34290D03*
X274320Y67310D03*
X248920Y34290D03*
X248920Y67310D03*
X274320Y90170D03*
X248920Y90170D03*
X274320Y11430D03*
X248920Y11430D03*
X261620Y11430D03*
X261620Y90170D03*
X261620Y67310D03*
X261620Y34290D03*
X240030Y41910D03*
X240030Y59690D03*
X11430Y207010D03*
X11430Y173990D03*
X36830Y207010D03*
X36830Y173990D03*
X11430Y151130D03*
X36830Y151130D03*
X11430Y229870D03*
X36830Y229870D03*
X24130Y229870D03*
X24130Y151130D03*
X24130Y173990D03*
X24130Y207010D03*
X45720Y199390D03*
X45720Y181610D03*
D12*
X135890Y31750D03*
X135890Y38100D03*
X102870Y90170D03*
X101600Y82550D03*
X50800Y72390D03*
X58420Y72390D03*
X50800Y29210D03*
X58420Y29210D03*
X62230Y35560D03*
X62230Y66040D03*
X139700Y78740D03*
X146050Y78740D03*
X163830Y86360D03*
X163830Y80010D03*
X110490Y91440D03*
X171450Y91440D03*
X160020Y35560D03*
X160020Y27940D03*
X170180Y20320D03*
X48260Y267970D03*
X55880Y267970D03*
X50800Y142240D03*
X57150Y142240D03*
X107950Y156210D03*
X114300Y156210D03*
X97790Y240030D03*
X90170Y240030D03*
X106680Y240030D03*
X185420Y186690D03*
X228600Y184150D03*
X193040Y185420D03*
X199390Y181610D03*
X219710Y184150D03*
X237490Y184150D03*
X228600Y203200D03*
X220980Y203200D03*
X236220Y203200D03*
X228600Y165100D03*
X220980Y165100D03*
X236220Y165100D03*
X142240Y133350D03*
X134620Y130810D03*
X134620Y185420D03*
X140970Y185420D03*
X175260Y116840D03*
X175260Y110490D03*
X128270Y59690D03*
X134620Y59690D03*
X104140Y213360D03*
X67310Y215900D03*
X60960Y215900D03*
X91440Y147320D03*
X99060Y147320D03*
X119380Y220980D03*
X113030Y220980D03*
X67310Y267970D03*
X76200Y267970D03*
X161290Y175260D03*
X167640Y175260D03*
X173990Y149860D03*
X173990Y143510D03*
X173990Y137160D03*
X167640Y220980D03*
X157480Y220980D03*
X149860Y199390D03*
X116840Y25400D03*
X120650Y91440D03*
X182880Y91440D03*
X68580Y77470D03*
X68580Y24130D03*
X143510Y212090D03*
X148590Y207010D03*
M02*
