G04 EAGLE Gerber RS-274X export*
G75*
%MOMM*%
%FSLAX34Y34*%
%LPD*%
%INSilk screen SOL*%
%IPPOS*%
%AMOC8*
5,1,8,0,0,1.08239X$1,22.5*%
G01*
%ADD10C,0.177800*%
%ADD11C,0.127000*%


D10*
X256004Y248539D02*
X256004Y260985D01*
X259461Y260985D02*
X252547Y260985D01*
X246981Y260985D02*
X246981Y248539D01*
X246981Y260985D02*
X243523Y260985D01*
X243406Y260983D01*
X243290Y260977D01*
X243173Y260967D01*
X243057Y260953D01*
X242942Y260936D01*
X242827Y260914D01*
X242713Y260889D01*
X242600Y260860D01*
X242488Y260826D01*
X242377Y260790D01*
X242268Y260749D01*
X242160Y260705D01*
X242053Y260657D01*
X241948Y260606D01*
X241845Y260551D01*
X241744Y260492D01*
X241645Y260430D01*
X241548Y260365D01*
X241453Y260297D01*
X241361Y260226D01*
X241271Y260151D01*
X241184Y260073D01*
X241099Y259993D01*
X241017Y259910D01*
X240938Y259824D01*
X240862Y259735D01*
X240789Y259644D01*
X240719Y259551D01*
X240653Y259455D01*
X240589Y259357D01*
X240529Y259257D01*
X240472Y259154D01*
X240419Y259050D01*
X240370Y258945D01*
X240324Y258837D01*
X240281Y258729D01*
X240242Y258618D01*
X240208Y258507D01*
X240176Y258395D01*
X240149Y258281D01*
X240125Y258167D01*
X240106Y258051D01*
X240090Y257936D01*
X240078Y257820D01*
X240070Y257703D01*
X240066Y257586D01*
X240066Y257470D01*
X240070Y257353D01*
X240078Y257236D01*
X240090Y257120D01*
X240106Y257005D01*
X240125Y256889D01*
X240149Y256775D01*
X240176Y256661D01*
X240208Y256549D01*
X240242Y256438D01*
X240281Y256327D01*
X240324Y256219D01*
X240370Y256111D01*
X240419Y256006D01*
X240472Y255902D01*
X240529Y255800D01*
X240589Y255699D01*
X240653Y255601D01*
X240719Y255505D01*
X240789Y255412D01*
X240862Y255321D01*
X240938Y255232D01*
X241017Y255146D01*
X241099Y255063D01*
X241184Y254983D01*
X241271Y254905D01*
X241361Y254830D01*
X241453Y254759D01*
X241548Y254691D01*
X241645Y254626D01*
X241744Y254564D01*
X241845Y254505D01*
X241948Y254450D01*
X242053Y254399D01*
X242160Y254351D01*
X242268Y254307D01*
X242377Y254266D01*
X242488Y254230D01*
X242600Y254196D01*
X242713Y254167D01*
X242827Y254142D01*
X242942Y254120D01*
X243057Y254103D01*
X243173Y254089D01*
X243290Y254079D01*
X243406Y254073D01*
X243523Y254071D01*
X246981Y254071D01*
X242832Y254071D02*
X240066Y248539D01*
X234976Y248539D02*
X230827Y260985D01*
X226679Y248539D01*
X227716Y251651D02*
X233939Y251651D01*
X218765Y248539D02*
X215999Y248539D01*
X218765Y248539D02*
X218868Y248541D01*
X218972Y248547D01*
X219075Y248556D01*
X219177Y248570D01*
X219279Y248587D01*
X219380Y248608D01*
X219481Y248633D01*
X219580Y248662D01*
X219679Y248694D01*
X219776Y248730D01*
X219871Y248770D01*
X219965Y248813D01*
X220057Y248860D01*
X220148Y248910D01*
X220237Y248963D01*
X220323Y249020D01*
X220408Y249079D01*
X220490Y249142D01*
X220569Y249208D01*
X220646Y249277D01*
X220721Y249349D01*
X220793Y249424D01*
X220862Y249501D01*
X220928Y249580D01*
X220991Y249662D01*
X221050Y249747D01*
X221107Y249833D01*
X221160Y249922D01*
X221210Y250013D01*
X221257Y250105D01*
X221300Y250199D01*
X221340Y250294D01*
X221376Y250391D01*
X221408Y250490D01*
X221437Y250589D01*
X221462Y250690D01*
X221483Y250791D01*
X221500Y250893D01*
X221514Y250995D01*
X221523Y251098D01*
X221529Y251202D01*
X221531Y251305D01*
X221531Y258219D01*
X221529Y258322D01*
X221523Y258426D01*
X221514Y258529D01*
X221500Y258631D01*
X221483Y258733D01*
X221462Y258834D01*
X221437Y258935D01*
X221408Y259034D01*
X221376Y259133D01*
X221340Y259230D01*
X221300Y259325D01*
X221257Y259419D01*
X221210Y259511D01*
X221160Y259602D01*
X221107Y259691D01*
X221050Y259777D01*
X220991Y259862D01*
X220928Y259944D01*
X220862Y260023D01*
X220793Y260100D01*
X220721Y260175D01*
X220646Y260247D01*
X220569Y260316D01*
X220490Y260382D01*
X220408Y260445D01*
X220323Y260504D01*
X220237Y260561D01*
X220148Y260614D01*
X220057Y260664D01*
X219965Y260711D01*
X219871Y260754D01*
X219776Y260794D01*
X219679Y260830D01*
X219580Y260862D01*
X219481Y260891D01*
X219380Y260916D01*
X219279Y260937D01*
X219177Y260954D01*
X219075Y260968D01*
X218972Y260977D01*
X218868Y260983D01*
X218765Y260985D01*
X215999Y260985D01*
X210145Y260985D02*
X210145Y248539D01*
X210145Y253379D02*
X203231Y260985D01*
X207380Y256145D02*
X203231Y248539D01*
X189685Y257873D02*
X189730Y257949D01*
X189771Y258027D01*
X189810Y258107D01*
X189845Y258188D01*
X189876Y258271D01*
X189903Y258355D01*
X189927Y258440D01*
X189948Y258526D01*
X189964Y258613D01*
X189977Y258700D01*
X189986Y258788D01*
X189991Y258877D01*
X189992Y258965D01*
X189989Y259053D01*
X189983Y259141D01*
X189973Y259229D01*
X189959Y259316D01*
X189941Y259403D01*
X189919Y259489D01*
X189894Y259573D01*
X189865Y259657D01*
X189832Y259739D01*
X189796Y259820D01*
X189757Y259899D01*
X189714Y259976D01*
X189668Y260051D01*
X189618Y260125D01*
X189566Y260196D01*
X189510Y260264D01*
X189451Y260331D01*
X189390Y260394D01*
X189326Y260455D01*
X189259Y260513D01*
X189190Y260568D01*
X189119Y260620D01*
X189045Y260669D01*
X188969Y260715D01*
X188892Y260757D01*
X188812Y260796D01*
X188731Y260832D01*
X188649Y260863D01*
X188565Y260892D01*
X188480Y260916D01*
X188395Y260937D01*
X188308Y260954D01*
X188220Y260968D01*
X188133Y260977D01*
X188044Y260983D01*
X187956Y260985D01*
X189685Y257874D02*
X183807Y248539D01*
X186227Y257873D02*
X186182Y257949D01*
X186141Y258027D01*
X186102Y258107D01*
X186067Y258188D01*
X186036Y258271D01*
X186009Y258355D01*
X185985Y258440D01*
X185964Y258526D01*
X185948Y258613D01*
X185935Y258700D01*
X185926Y258788D01*
X185921Y258877D01*
X185920Y258965D01*
X185923Y259053D01*
X185929Y259141D01*
X185939Y259229D01*
X185953Y259316D01*
X185971Y259403D01*
X185993Y259489D01*
X186018Y259573D01*
X186047Y259657D01*
X186080Y259739D01*
X186116Y259820D01*
X186155Y259899D01*
X186198Y259976D01*
X186244Y260052D01*
X186294Y260125D01*
X186346Y260196D01*
X186402Y260264D01*
X186461Y260331D01*
X186522Y260394D01*
X186586Y260455D01*
X186653Y260513D01*
X186722Y260568D01*
X186793Y260620D01*
X186867Y260669D01*
X186943Y260715D01*
X187020Y260757D01*
X187100Y260796D01*
X187181Y260832D01*
X187263Y260863D01*
X187347Y260892D01*
X187432Y260916D01*
X187517Y260937D01*
X187604Y260954D01*
X187692Y260968D01*
X187779Y260977D01*
X187868Y260983D01*
X187956Y260985D01*
X190721Y250613D02*
X190719Y250525D01*
X190714Y250437D01*
X190704Y250350D01*
X190691Y250262D01*
X190674Y250176D01*
X190654Y250090D01*
X190630Y250006D01*
X190603Y249922D01*
X190571Y249840D01*
X190537Y249759D01*
X190499Y249679D01*
X190458Y249602D01*
X190413Y249526D01*
X190365Y249452D01*
X190314Y249380D01*
X190261Y249310D01*
X190204Y249243D01*
X190144Y249178D01*
X190082Y249116D01*
X190017Y249056D01*
X189950Y248999D01*
X189880Y248946D01*
X189808Y248895D01*
X189734Y248847D01*
X189658Y248802D01*
X189581Y248761D01*
X189501Y248723D01*
X189420Y248689D01*
X189338Y248657D01*
X189254Y248630D01*
X189170Y248606D01*
X189084Y248586D01*
X188998Y248569D01*
X188910Y248556D01*
X188823Y248546D01*
X188735Y248541D01*
X188647Y248539D01*
X190722Y250613D02*
X190720Y250692D01*
X190715Y250772D01*
X190706Y250851D01*
X190693Y250929D01*
X190677Y251007D01*
X190657Y251084D01*
X190633Y251160D01*
X190606Y251235D01*
X190576Y251308D01*
X190543Y251380D01*
X190506Y251450D01*
X190466Y251519D01*
X190422Y251586D01*
X190376Y251650D01*
X190376Y251651D02*
X186227Y257874D01*
X187610Y248885D02*
X187674Y248839D01*
X187741Y248795D01*
X187810Y248755D01*
X187880Y248718D01*
X187952Y248685D01*
X188025Y248655D01*
X188100Y248628D01*
X188176Y248604D01*
X188253Y248584D01*
X188331Y248568D01*
X188409Y248555D01*
X188488Y248546D01*
X188568Y248541D01*
X188647Y248539D01*
X187610Y248885D02*
X182424Y252688D01*
X171130Y248539D02*
X171130Y260985D01*
X171130Y255453D02*
X164216Y255453D01*
X164216Y260985D02*
X164216Y248539D01*
X157902Y251996D02*
X157902Y257528D01*
X157900Y257645D01*
X157894Y257761D01*
X157884Y257878D01*
X157870Y257994D01*
X157853Y258109D01*
X157831Y258224D01*
X157806Y258338D01*
X157777Y258451D01*
X157743Y258563D01*
X157707Y258674D01*
X157666Y258783D01*
X157622Y258891D01*
X157574Y258998D01*
X157523Y259103D01*
X157468Y259206D01*
X157409Y259307D01*
X157347Y259406D01*
X157282Y259503D01*
X157214Y259598D01*
X157143Y259690D01*
X157068Y259780D01*
X156990Y259867D01*
X156910Y259952D01*
X156827Y260034D01*
X156741Y260113D01*
X156652Y260189D01*
X156561Y260262D01*
X156468Y260332D01*
X156372Y260398D01*
X156274Y260462D01*
X156174Y260522D01*
X156071Y260579D01*
X155967Y260632D01*
X155862Y260681D01*
X155754Y260727D01*
X155646Y260770D01*
X155535Y260809D01*
X155424Y260843D01*
X155312Y260875D01*
X155198Y260902D01*
X155084Y260926D01*
X154968Y260945D01*
X154853Y260961D01*
X154737Y260973D01*
X154620Y260981D01*
X154503Y260985D01*
X154387Y260985D01*
X154270Y260981D01*
X154153Y260973D01*
X154037Y260961D01*
X153922Y260945D01*
X153806Y260926D01*
X153692Y260902D01*
X153578Y260875D01*
X153466Y260843D01*
X153355Y260809D01*
X153244Y260770D01*
X153136Y260727D01*
X153028Y260681D01*
X152923Y260632D01*
X152819Y260579D01*
X152717Y260522D01*
X152616Y260462D01*
X152518Y260398D01*
X152422Y260332D01*
X152329Y260262D01*
X152238Y260189D01*
X152149Y260113D01*
X152063Y260034D01*
X151980Y259952D01*
X151900Y259867D01*
X151822Y259780D01*
X151747Y259690D01*
X151676Y259598D01*
X151608Y259503D01*
X151543Y259406D01*
X151481Y259307D01*
X151422Y259206D01*
X151367Y259103D01*
X151316Y258998D01*
X151268Y258891D01*
X151224Y258783D01*
X151183Y258674D01*
X151147Y258563D01*
X151113Y258451D01*
X151084Y258338D01*
X151059Y258224D01*
X151037Y258109D01*
X151020Y257994D01*
X151006Y257878D01*
X150996Y257761D01*
X150990Y257645D01*
X150988Y257528D01*
X150987Y257528D02*
X150987Y251996D01*
X150988Y251996D02*
X150990Y251879D01*
X150996Y251763D01*
X151006Y251646D01*
X151020Y251530D01*
X151037Y251415D01*
X151059Y251300D01*
X151084Y251186D01*
X151113Y251073D01*
X151147Y250961D01*
X151183Y250850D01*
X151224Y250741D01*
X151268Y250633D01*
X151316Y250526D01*
X151367Y250421D01*
X151422Y250318D01*
X151481Y250217D01*
X151543Y250118D01*
X151608Y250021D01*
X151676Y249926D01*
X151747Y249834D01*
X151822Y249744D01*
X151900Y249657D01*
X151980Y249572D01*
X152063Y249490D01*
X152149Y249411D01*
X152238Y249335D01*
X152329Y249262D01*
X152422Y249192D01*
X152518Y249126D01*
X152616Y249062D01*
X152717Y249002D01*
X152819Y248945D01*
X152923Y248892D01*
X153028Y248843D01*
X153136Y248797D01*
X153244Y248754D01*
X153355Y248715D01*
X153466Y248681D01*
X153578Y248649D01*
X153692Y248622D01*
X153806Y248598D01*
X153922Y248579D01*
X154037Y248563D01*
X154153Y248551D01*
X154270Y248543D01*
X154387Y248539D01*
X154503Y248539D01*
X154620Y248543D01*
X154737Y248551D01*
X154853Y248563D01*
X154968Y248579D01*
X155084Y248598D01*
X155198Y248622D01*
X155312Y248649D01*
X155424Y248681D01*
X155535Y248715D01*
X155646Y248754D01*
X155754Y248797D01*
X155862Y248843D01*
X155967Y248892D01*
X156071Y248945D01*
X156173Y249002D01*
X156274Y249062D01*
X156372Y249126D01*
X156468Y249192D01*
X156561Y249262D01*
X156652Y249335D01*
X156741Y249411D01*
X156827Y249490D01*
X156910Y249572D01*
X156990Y249657D01*
X157068Y249744D01*
X157143Y249834D01*
X157214Y249926D01*
X157282Y250021D01*
X157347Y250118D01*
X157409Y250217D01*
X157468Y250318D01*
X157523Y250421D01*
X157574Y250526D01*
X157622Y250633D01*
X157666Y250741D01*
X157707Y250850D01*
X157743Y250961D01*
X157777Y251073D01*
X157806Y251186D01*
X157831Y251300D01*
X157853Y251415D01*
X157870Y251530D01*
X157884Y251646D01*
X157894Y251763D01*
X157900Y251879D01*
X157902Y251996D01*
X144641Y248539D02*
X144641Y260985D01*
X144641Y248539D02*
X139110Y248539D01*
X133579Y248539D02*
X133579Y260985D01*
X130122Y260985D01*
X130006Y260983D01*
X129891Y260977D01*
X129776Y260968D01*
X129661Y260954D01*
X129547Y260937D01*
X129433Y260916D01*
X129321Y260891D01*
X129209Y260862D01*
X129098Y260830D01*
X128988Y260794D01*
X128880Y260754D01*
X128772Y260711D01*
X128667Y260664D01*
X128563Y260613D01*
X128461Y260560D01*
X128360Y260502D01*
X128262Y260442D01*
X128166Y260378D01*
X128071Y260311D01*
X127980Y260241D01*
X127890Y260168D01*
X127803Y260092D01*
X127719Y260013D01*
X127637Y259931D01*
X127558Y259847D01*
X127482Y259760D01*
X127409Y259670D01*
X127339Y259579D01*
X127272Y259484D01*
X127208Y259388D01*
X127148Y259290D01*
X127090Y259189D01*
X127037Y259087D01*
X126986Y258983D01*
X126939Y258878D01*
X126896Y258770D01*
X126856Y258662D01*
X126820Y258552D01*
X126788Y258441D01*
X126759Y258329D01*
X126734Y258217D01*
X126713Y258103D01*
X126696Y257989D01*
X126682Y257874D01*
X126673Y257759D01*
X126667Y257644D01*
X126665Y257528D01*
X126664Y257528D02*
X126664Y251996D01*
X126665Y251996D02*
X126667Y251880D01*
X126673Y251765D01*
X126682Y251650D01*
X126696Y251535D01*
X126713Y251421D01*
X126734Y251307D01*
X126759Y251195D01*
X126788Y251083D01*
X126820Y250972D01*
X126856Y250862D01*
X126896Y250754D01*
X126939Y250646D01*
X126986Y250541D01*
X127037Y250437D01*
X127090Y250335D01*
X127148Y250234D01*
X127208Y250136D01*
X127272Y250040D01*
X127339Y249945D01*
X127409Y249854D01*
X127482Y249764D01*
X127558Y249677D01*
X127637Y249593D01*
X127719Y249511D01*
X127803Y249432D01*
X127890Y249356D01*
X127980Y249283D01*
X128071Y249213D01*
X128166Y249146D01*
X128262Y249082D01*
X128360Y249022D01*
X128461Y248964D01*
X128563Y248911D01*
X128667Y248860D01*
X128772Y248813D01*
X128880Y248770D01*
X128988Y248730D01*
X129098Y248694D01*
X129209Y248662D01*
X129321Y248633D01*
X129433Y248608D01*
X129547Y248587D01*
X129661Y248570D01*
X129776Y248556D01*
X129891Y248547D01*
X130006Y248541D01*
X130122Y248539D01*
X133579Y248539D01*
X109801Y248539D02*
X109698Y248541D01*
X109594Y248547D01*
X109491Y248556D01*
X109389Y248570D01*
X109287Y248587D01*
X109186Y248608D01*
X109085Y248633D01*
X108986Y248662D01*
X108887Y248694D01*
X108790Y248730D01*
X108695Y248770D01*
X108601Y248813D01*
X108509Y248860D01*
X108418Y248910D01*
X108329Y248963D01*
X108243Y249020D01*
X108159Y249079D01*
X108076Y249142D01*
X107997Y249208D01*
X107920Y249277D01*
X107845Y249349D01*
X107773Y249424D01*
X107704Y249501D01*
X107638Y249580D01*
X107575Y249662D01*
X107516Y249747D01*
X107459Y249833D01*
X107406Y249922D01*
X107356Y250013D01*
X107309Y250105D01*
X107266Y250199D01*
X107226Y250294D01*
X107190Y250391D01*
X107158Y250490D01*
X107129Y250589D01*
X107104Y250690D01*
X107083Y250791D01*
X107066Y250893D01*
X107052Y250995D01*
X107043Y251098D01*
X107037Y251202D01*
X107035Y251305D01*
X109801Y248539D02*
X109950Y248541D01*
X110099Y248547D01*
X110247Y248556D01*
X110395Y248569D01*
X110543Y248586D01*
X110691Y248607D01*
X110837Y248632D01*
X110983Y248660D01*
X111129Y248692D01*
X111273Y248728D01*
X111417Y248767D01*
X111559Y248810D01*
X111701Y248856D01*
X111841Y248907D01*
X111979Y248960D01*
X112117Y249018D01*
X112253Y249078D01*
X112387Y249142D01*
X112520Y249210D01*
X112650Y249281D01*
X112779Y249355D01*
X112906Y249433D01*
X113031Y249513D01*
X113154Y249597D01*
X113275Y249684D01*
X113394Y249774D01*
X113510Y249867D01*
X113624Y249963D01*
X113735Y250062D01*
X113844Y250163D01*
X113950Y250268D01*
X113604Y258219D02*
X113602Y258322D01*
X113596Y258426D01*
X113587Y258529D01*
X113573Y258631D01*
X113556Y258733D01*
X113535Y258834D01*
X113510Y258935D01*
X113481Y259034D01*
X113449Y259133D01*
X113413Y259230D01*
X113373Y259325D01*
X113330Y259419D01*
X113283Y259511D01*
X113233Y259602D01*
X113180Y259691D01*
X113123Y259777D01*
X113064Y259862D01*
X113001Y259944D01*
X112935Y260023D01*
X112866Y260100D01*
X112794Y260175D01*
X112719Y260247D01*
X112642Y260316D01*
X112563Y260382D01*
X112481Y260445D01*
X112396Y260504D01*
X112310Y260561D01*
X112221Y260614D01*
X112130Y260664D01*
X112038Y260711D01*
X111944Y260754D01*
X111849Y260794D01*
X111752Y260830D01*
X111653Y260862D01*
X111554Y260891D01*
X111453Y260916D01*
X111352Y260937D01*
X111250Y260954D01*
X111148Y260968D01*
X111045Y260977D01*
X110941Y260983D01*
X110838Y260985D01*
X110699Y260983D01*
X110560Y260978D01*
X110421Y260968D01*
X110283Y260955D01*
X110145Y260938D01*
X110007Y260918D01*
X109870Y260894D01*
X109734Y260866D01*
X109599Y260835D01*
X109464Y260800D01*
X109331Y260761D01*
X109198Y260719D01*
X109067Y260673D01*
X108937Y260624D01*
X108808Y260571D01*
X108681Y260515D01*
X108555Y260456D01*
X108431Y260393D01*
X108309Y260326D01*
X108188Y260257D01*
X108070Y260184D01*
X107953Y260109D01*
X107839Y260030D01*
X107726Y259948D01*
X112221Y255799D02*
X112310Y255853D01*
X112397Y255911D01*
X112481Y255972D01*
X112563Y256036D01*
X112643Y256103D01*
X112720Y256173D01*
X112795Y256246D01*
X112866Y256322D01*
X112935Y256400D01*
X113001Y256480D01*
X113064Y256563D01*
X113124Y256648D01*
X113181Y256736D01*
X113234Y256825D01*
X113284Y256917D01*
X113330Y257010D01*
X113374Y257105D01*
X113413Y257201D01*
X113449Y257299D01*
X113481Y257398D01*
X113510Y257498D01*
X113535Y257599D01*
X113556Y257701D01*
X113573Y257804D01*
X113587Y257907D01*
X113596Y258011D01*
X113602Y258115D01*
X113604Y258219D01*
X108418Y253725D02*
X108329Y253671D01*
X108243Y253613D01*
X108158Y253552D01*
X108076Y253488D01*
X107996Y253421D01*
X107919Y253351D01*
X107845Y253278D01*
X107773Y253202D01*
X107704Y253124D01*
X107638Y253044D01*
X107575Y252961D01*
X107515Y252876D01*
X107458Y252788D01*
X107405Y252699D01*
X107355Y252607D01*
X107309Y252514D01*
X107265Y252419D01*
X107226Y252323D01*
X107190Y252225D01*
X107158Y252126D01*
X107129Y252026D01*
X107104Y251925D01*
X107083Y251823D01*
X107066Y251720D01*
X107052Y251617D01*
X107043Y251513D01*
X107037Y251409D01*
X107035Y251305D01*
X108418Y253725D02*
X112221Y255799D01*
X102266Y248539D02*
X98118Y260985D01*
X93969Y248539D01*
X95006Y251651D02*
X101229Y251651D01*
X88185Y248539D02*
X88185Y260985D01*
X84036Y254071D01*
X79887Y260985D01*
X79887Y248539D01*
X72742Y248539D02*
X72742Y260985D01*
X69285Y260985D01*
X69168Y260983D01*
X69052Y260977D01*
X68935Y260967D01*
X68819Y260953D01*
X68704Y260936D01*
X68589Y260914D01*
X68475Y260889D01*
X68362Y260860D01*
X68250Y260826D01*
X68139Y260790D01*
X68030Y260749D01*
X67922Y260705D01*
X67815Y260657D01*
X67710Y260606D01*
X67607Y260551D01*
X67506Y260492D01*
X67407Y260430D01*
X67310Y260365D01*
X67215Y260297D01*
X67123Y260226D01*
X67033Y260151D01*
X66946Y260073D01*
X66861Y259993D01*
X66779Y259910D01*
X66700Y259824D01*
X66624Y259735D01*
X66551Y259644D01*
X66481Y259551D01*
X66415Y259455D01*
X66351Y259357D01*
X66291Y259257D01*
X66234Y259154D01*
X66181Y259050D01*
X66132Y258945D01*
X66086Y258837D01*
X66043Y258729D01*
X66004Y258618D01*
X65970Y258507D01*
X65938Y258395D01*
X65911Y258281D01*
X65887Y258167D01*
X65868Y258051D01*
X65852Y257936D01*
X65840Y257820D01*
X65832Y257703D01*
X65828Y257586D01*
X65828Y257470D01*
X65832Y257353D01*
X65840Y257236D01*
X65852Y257120D01*
X65868Y257005D01*
X65887Y256889D01*
X65911Y256775D01*
X65938Y256661D01*
X65970Y256549D01*
X66004Y256438D01*
X66043Y256327D01*
X66086Y256219D01*
X66132Y256111D01*
X66181Y256006D01*
X66234Y255902D01*
X66291Y255800D01*
X66351Y255699D01*
X66415Y255601D01*
X66481Y255505D01*
X66551Y255412D01*
X66624Y255321D01*
X66700Y255232D01*
X66779Y255146D01*
X66861Y255063D01*
X66946Y254983D01*
X67033Y254905D01*
X67123Y254830D01*
X67215Y254759D01*
X67310Y254691D01*
X67407Y254626D01*
X67506Y254564D01*
X67607Y254505D01*
X67710Y254450D01*
X67815Y254399D01*
X67922Y254351D01*
X68030Y254307D01*
X68139Y254266D01*
X68250Y254230D01*
X68362Y254196D01*
X68475Y254167D01*
X68589Y254142D01*
X68704Y254120D01*
X68819Y254103D01*
X68935Y254089D01*
X69052Y254079D01*
X69168Y254073D01*
X69285Y254071D01*
X72742Y254071D01*
X60151Y248539D02*
X60151Y260985D01*
X60151Y248539D02*
X54619Y248539D01*
X49056Y248539D02*
X43524Y248539D01*
X49056Y248539D02*
X49056Y260985D01*
X43524Y260985D01*
X44907Y255453D02*
X49056Y255453D01*
X37888Y260985D02*
X37888Y248539D01*
X37888Y260985D02*
X34431Y260985D01*
X34314Y260983D01*
X34198Y260977D01*
X34081Y260967D01*
X33965Y260953D01*
X33850Y260936D01*
X33735Y260914D01*
X33621Y260889D01*
X33508Y260860D01*
X33396Y260826D01*
X33285Y260790D01*
X33176Y260749D01*
X33068Y260705D01*
X32961Y260657D01*
X32856Y260606D01*
X32753Y260551D01*
X32652Y260492D01*
X32553Y260430D01*
X32456Y260365D01*
X32361Y260297D01*
X32269Y260226D01*
X32179Y260151D01*
X32092Y260073D01*
X32007Y259993D01*
X31925Y259910D01*
X31846Y259824D01*
X31770Y259735D01*
X31697Y259644D01*
X31627Y259551D01*
X31561Y259455D01*
X31497Y259357D01*
X31437Y259257D01*
X31380Y259154D01*
X31327Y259050D01*
X31278Y258945D01*
X31232Y258837D01*
X31189Y258729D01*
X31150Y258618D01*
X31116Y258507D01*
X31084Y258395D01*
X31057Y258281D01*
X31033Y258167D01*
X31014Y258051D01*
X30998Y257936D01*
X30986Y257820D01*
X30978Y257703D01*
X30974Y257586D01*
X30974Y257470D01*
X30978Y257353D01*
X30986Y257236D01*
X30998Y257120D01*
X31014Y257005D01*
X31033Y256889D01*
X31057Y256775D01*
X31084Y256661D01*
X31116Y256549D01*
X31150Y256438D01*
X31189Y256327D01*
X31232Y256219D01*
X31278Y256111D01*
X31327Y256006D01*
X31380Y255902D01*
X31437Y255800D01*
X31497Y255699D01*
X31561Y255601D01*
X31627Y255505D01*
X31697Y255412D01*
X31770Y255321D01*
X31846Y255232D01*
X31925Y255146D01*
X32007Y255063D01*
X32092Y254983D01*
X32179Y254905D01*
X32269Y254830D01*
X32361Y254759D01*
X32456Y254691D01*
X32553Y254626D01*
X32652Y254564D01*
X32753Y254505D01*
X32856Y254450D01*
X32961Y254399D01*
X33068Y254351D01*
X33176Y254307D01*
X33285Y254266D01*
X33396Y254230D01*
X33508Y254196D01*
X33621Y254167D01*
X33735Y254142D01*
X33850Y254120D01*
X33965Y254103D01*
X34081Y254089D01*
X34198Y254079D01*
X34314Y254073D01*
X34431Y254071D01*
X37888Y254071D01*
X33739Y254071D02*
X30974Y248539D01*
X138811Y121285D02*
X134662Y115408D01*
X130514Y121285D01*
X134662Y115408D02*
X134662Y108839D01*
X123144Y113679D02*
X120033Y113679D01*
X123144Y113679D02*
X123241Y113677D01*
X123339Y113671D01*
X123436Y113661D01*
X123532Y113648D01*
X123628Y113630D01*
X123723Y113609D01*
X123817Y113583D01*
X123910Y113554D01*
X124002Y113522D01*
X124093Y113485D01*
X124181Y113445D01*
X124269Y113402D01*
X124354Y113355D01*
X124437Y113304D01*
X124519Y113251D01*
X124598Y113194D01*
X124675Y113134D01*
X124749Y113070D01*
X124820Y113004D01*
X124889Y112935D01*
X124955Y112864D01*
X125019Y112790D01*
X125079Y112713D01*
X125136Y112634D01*
X125189Y112552D01*
X125240Y112469D01*
X125287Y112384D01*
X125330Y112296D01*
X125370Y112208D01*
X125407Y112117D01*
X125439Y112025D01*
X125468Y111932D01*
X125494Y111838D01*
X125515Y111743D01*
X125533Y111647D01*
X125546Y111551D01*
X125556Y111454D01*
X125562Y111356D01*
X125564Y111259D01*
X125562Y111162D01*
X125556Y111064D01*
X125546Y110967D01*
X125533Y110871D01*
X125515Y110775D01*
X125494Y110680D01*
X125468Y110586D01*
X125439Y110493D01*
X125407Y110401D01*
X125370Y110310D01*
X125330Y110222D01*
X125287Y110134D01*
X125240Y110049D01*
X125189Y109966D01*
X125136Y109884D01*
X125079Y109805D01*
X125019Y109728D01*
X124955Y109654D01*
X124889Y109583D01*
X124820Y109514D01*
X124749Y109448D01*
X124675Y109384D01*
X124598Y109324D01*
X124519Y109267D01*
X124437Y109214D01*
X124354Y109163D01*
X124269Y109116D01*
X124181Y109073D01*
X124093Y109033D01*
X124002Y108996D01*
X123910Y108964D01*
X123817Y108935D01*
X123723Y108909D01*
X123628Y108888D01*
X123532Y108870D01*
X123436Y108857D01*
X123339Y108847D01*
X123241Y108841D01*
X123144Y108839D01*
X120033Y108839D01*
X120033Y115062D01*
X120035Y115150D01*
X120040Y115238D01*
X120050Y115325D01*
X120063Y115413D01*
X120080Y115499D01*
X120100Y115585D01*
X120124Y115669D01*
X120151Y115753D01*
X120183Y115835D01*
X120217Y115916D01*
X120255Y115996D01*
X120296Y116073D01*
X120341Y116149D01*
X120389Y116223D01*
X120440Y116295D01*
X120493Y116365D01*
X120550Y116432D01*
X120610Y116497D01*
X120672Y116559D01*
X120737Y116619D01*
X120804Y116676D01*
X120874Y116729D01*
X120946Y116780D01*
X121020Y116828D01*
X121096Y116873D01*
X121173Y116914D01*
X121253Y116952D01*
X121334Y116986D01*
X121416Y117018D01*
X121500Y117045D01*
X121584Y117069D01*
X121670Y117089D01*
X121756Y117106D01*
X121844Y117119D01*
X121931Y117129D01*
X122019Y117134D01*
X122107Y117136D01*
X124873Y117136D01*
X113447Y117136D02*
X113447Y104690D01*
X113447Y117136D02*
X109990Y117136D01*
X109902Y117134D01*
X109814Y117129D01*
X109727Y117119D01*
X109639Y117106D01*
X109553Y117089D01*
X109467Y117069D01*
X109383Y117045D01*
X109299Y117018D01*
X109217Y116986D01*
X109136Y116952D01*
X109056Y116914D01*
X108979Y116873D01*
X108903Y116828D01*
X108829Y116780D01*
X108757Y116729D01*
X108687Y116676D01*
X108620Y116619D01*
X108555Y116559D01*
X108493Y116497D01*
X108433Y116432D01*
X108376Y116365D01*
X108323Y116295D01*
X108272Y116223D01*
X108224Y116149D01*
X108179Y116073D01*
X108138Y115996D01*
X108100Y115916D01*
X108066Y115835D01*
X108034Y115753D01*
X108007Y115669D01*
X107983Y115585D01*
X107963Y115499D01*
X107946Y115413D01*
X107933Y115325D01*
X107923Y115238D01*
X107918Y115150D01*
X107916Y115062D01*
X107916Y110913D01*
X107918Y110825D01*
X107923Y110737D01*
X107933Y110650D01*
X107946Y110562D01*
X107963Y110476D01*
X107983Y110390D01*
X108007Y110306D01*
X108034Y110222D01*
X108066Y110140D01*
X108100Y110059D01*
X108138Y109979D01*
X108179Y109902D01*
X108224Y109826D01*
X108272Y109752D01*
X108323Y109680D01*
X108376Y109610D01*
X108433Y109543D01*
X108493Y109478D01*
X108555Y109416D01*
X108620Y109356D01*
X108687Y109299D01*
X108757Y109246D01*
X108829Y109195D01*
X108903Y109147D01*
X108979Y109102D01*
X109056Y109061D01*
X109136Y109023D01*
X109217Y108989D01*
X109299Y108957D01*
X109383Y108930D01*
X109467Y108906D01*
X109553Y108886D01*
X109639Y108869D01*
X109727Y108856D01*
X109814Y108846D01*
X109902Y108841D01*
X109990Y108839D01*
X113447Y108839D01*
X102437Y111605D02*
X102437Y114371D01*
X102435Y114474D01*
X102429Y114578D01*
X102420Y114681D01*
X102406Y114783D01*
X102389Y114885D01*
X102368Y114986D01*
X102343Y115087D01*
X102314Y115186D01*
X102282Y115285D01*
X102246Y115382D01*
X102206Y115477D01*
X102163Y115571D01*
X102116Y115663D01*
X102066Y115754D01*
X102013Y115843D01*
X101956Y115929D01*
X101897Y116014D01*
X101834Y116096D01*
X101768Y116175D01*
X101699Y116252D01*
X101627Y116327D01*
X101552Y116399D01*
X101475Y116468D01*
X101396Y116534D01*
X101314Y116597D01*
X101229Y116656D01*
X101143Y116713D01*
X101054Y116766D01*
X100963Y116816D01*
X100871Y116863D01*
X100777Y116906D01*
X100682Y116946D01*
X100585Y116982D01*
X100486Y117014D01*
X100387Y117043D01*
X100286Y117068D01*
X100185Y117089D01*
X100083Y117106D01*
X99981Y117120D01*
X99878Y117129D01*
X99774Y117135D01*
X99671Y117137D01*
X99568Y117135D01*
X99464Y117129D01*
X99361Y117120D01*
X99259Y117106D01*
X99157Y117089D01*
X99056Y117068D01*
X98955Y117043D01*
X98856Y117014D01*
X98757Y116982D01*
X98660Y116946D01*
X98565Y116906D01*
X98471Y116863D01*
X98379Y116816D01*
X98288Y116766D01*
X98199Y116713D01*
X98113Y116656D01*
X98028Y116597D01*
X97946Y116534D01*
X97867Y116468D01*
X97790Y116399D01*
X97715Y116327D01*
X97643Y116252D01*
X97574Y116175D01*
X97508Y116096D01*
X97445Y116014D01*
X97386Y115929D01*
X97329Y115843D01*
X97276Y115754D01*
X97226Y115663D01*
X97179Y115571D01*
X97136Y115477D01*
X97096Y115382D01*
X97060Y115285D01*
X97028Y115186D01*
X96999Y115087D01*
X96974Y114986D01*
X96953Y114885D01*
X96936Y114783D01*
X96922Y114681D01*
X96913Y114578D01*
X96907Y114474D01*
X96905Y114371D01*
X96906Y114371D02*
X96906Y111605D01*
X96905Y111605D02*
X96907Y111502D01*
X96913Y111398D01*
X96922Y111295D01*
X96936Y111193D01*
X96953Y111091D01*
X96974Y110990D01*
X96999Y110889D01*
X97028Y110790D01*
X97060Y110691D01*
X97096Y110594D01*
X97136Y110499D01*
X97179Y110405D01*
X97226Y110313D01*
X97276Y110222D01*
X97329Y110133D01*
X97386Y110047D01*
X97445Y109962D01*
X97508Y109880D01*
X97574Y109801D01*
X97643Y109724D01*
X97715Y109649D01*
X97790Y109577D01*
X97867Y109508D01*
X97946Y109442D01*
X98028Y109379D01*
X98113Y109320D01*
X98199Y109263D01*
X98288Y109210D01*
X98379Y109160D01*
X98471Y109113D01*
X98565Y109070D01*
X98660Y109030D01*
X98757Y108994D01*
X98856Y108962D01*
X98955Y108933D01*
X99056Y108908D01*
X99157Y108887D01*
X99259Y108870D01*
X99361Y108856D01*
X99464Y108847D01*
X99568Y108841D01*
X99671Y108839D01*
X99774Y108841D01*
X99878Y108847D01*
X99981Y108856D01*
X100083Y108870D01*
X100185Y108887D01*
X100286Y108908D01*
X100387Y108933D01*
X100486Y108962D01*
X100585Y108994D01*
X100682Y109030D01*
X100777Y109070D01*
X100871Y109113D01*
X100963Y109160D01*
X101054Y109210D01*
X101143Y109263D01*
X101229Y109320D01*
X101314Y109379D01*
X101396Y109442D01*
X101475Y109508D01*
X101552Y109577D01*
X101627Y109649D01*
X101699Y109724D01*
X101768Y109801D01*
X101834Y109880D01*
X101897Y109962D01*
X101956Y110047D01*
X102013Y110133D01*
X102066Y110222D01*
X102116Y110313D01*
X102163Y110405D01*
X102206Y110499D01*
X102246Y110594D01*
X102282Y110691D01*
X102314Y110790D01*
X102343Y110889D01*
X102368Y110990D01*
X102389Y111091D01*
X102406Y111193D01*
X102420Y111295D01*
X102429Y111398D01*
X102435Y111502D01*
X102437Y111605D01*
X91971Y108839D02*
X91280Y108839D01*
X91971Y108839D02*
X91971Y109530D01*
X91280Y109530D01*
X91280Y108839D01*
X92317Y106073D01*
X76467Y114371D02*
X72318Y114371D01*
X76467Y114370D02*
X76570Y114372D01*
X76674Y114378D01*
X76777Y114387D01*
X76879Y114401D01*
X76981Y114418D01*
X77082Y114439D01*
X77183Y114464D01*
X77282Y114493D01*
X77381Y114525D01*
X77478Y114561D01*
X77573Y114601D01*
X77667Y114644D01*
X77759Y114691D01*
X77850Y114741D01*
X77939Y114794D01*
X78025Y114851D01*
X78110Y114910D01*
X78192Y114973D01*
X78271Y115039D01*
X78348Y115108D01*
X78423Y115180D01*
X78495Y115255D01*
X78564Y115332D01*
X78630Y115411D01*
X78693Y115494D01*
X78752Y115578D01*
X78809Y115664D01*
X78862Y115753D01*
X78912Y115844D01*
X78959Y115936D01*
X79002Y116030D01*
X79042Y116125D01*
X79078Y116222D01*
X79110Y116321D01*
X79139Y116420D01*
X79164Y116521D01*
X79185Y116622D01*
X79202Y116724D01*
X79216Y116826D01*
X79225Y116929D01*
X79231Y117033D01*
X79233Y117136D01*
X79232Y117136D02*
X79232Y117828D01*
X79230Y117945D01*
X79224Y118061D01*
X79214Y118178D01*
X79200Y118294D01*
X79183Y118409D01*
X79161Y118524D01*
X79136Y118638D01*
X79107Y118751D01*
X79073Y118863D01*
X79037Y118974D01*
X78996Y119083D01*
X78952Y119191D01*
X78904Y119298D01*
X78853Y119403D01*
X78798Y119506D01*
X78739Y119607D01*
X78677Y119706D01*
X78612Y119803D01*
X78544Y119898D01*
X78473Y119990D01*
X78398Y120080D01*
X78320Y120167D01*
X78240Y120252D01*
X78157Y120334D01*
X78071Y120413D01*
X77982Y120489D01*
X77891Y120562D01*
X77798Y120632D01*
X77702Y120698D01*
X77604Y120762D01*
X77504Y120822D01*
X77401Y120879D01*
X77297Y120932D01*
X77192Y120981D01*
X77084Y121027D01*
X76976Y121070D01*
X76865Y121109D01*
X76754Y121143D01*
X76642Y121175D01*
X76528Y121202D01*
X76414Y121226D01*
X76298Y121245D01*
X76183Y121261D01*
X76067Y121273D01*
X75950Y121281D01*
X75833Y121285D01*
X75717Y121285D01*
X75600Y121281D01*
X75483Y121273D01*
X75367Y121261D01*
X75252Y121245D01*
X75136Y121226D01*
X75022Y121202D01*
X74908Y121175D01*
X74796Y121143D01*
X74685Y121109D01*
X74574Y121070D01*
X74466Y121027D01*
X74358Y120981D01*
X74253Y120932D01*
X74149Y120879D01*
X74047Y120822D01*
X73946Y120762D01*
X73848Y120698D01*
X73752Y120632D01*
X73659Y120562D01*
X73568Y120489D01*
X73479Y120413D01*
X73393Y120334D01*
X73310Y120252D01*
X73230Y120167D01*
X73152Y120080D01*
X73077Y119990D01*
X73006Y119898D01*
X72938Y119803D01*
X72873Y119706D01*
X72811Y119607D01*
X72752Y119506D01*
X72697Y119403D01*
X72646Y119298D01*
X72598Y119191D01*
X72554Y119083D01*
X72513Y118974D01*
X72477Y118863D01*
X72443Y118751D01*
X72414Y118638D01*
X72389Y118524D01*
X72367Y118409D01*
X72350Y118294D01*
X72336Y118178D01*
X72326Y118061D01*
X72320Y117945D01*
X72318Y117828D01*
X72318Y114371D01*
X72317Y114371D02*
X72319Y114224D01*
X72325Y114077D01*
X72335Y113930D01*
X72348Y113783D01*
X72366Y113637D01*
X72387Y113491D01*
X72413Y113346D01*
X72442Y113202D01*
X72475Y113058D01*
X72512Y112916D01*
X72553Y112774D01*
X72597Y112634D01*
X72645Y112494D01*
X72697Y112356D01*
X72752Y112220D01*
X72811Y112085D01*
X72874Y111952D01*
X72940Y111820D01*
X73010Y111690D01*
X73083Y111563D01*
X73159Y111437D01*
X73239Y111313D01*
X73322Y111191D01*
X73408Y111072D01*
X73498Y110955D01*
X73590Y110840D01*
X73686Y110728D01*
X73784Y110619D01*
X73886Y110512D01*
X73990Y110408D01*
X74097Y110306D01*
X74206Y110208D01*
X74318Y110112D01*
X74433Y110020D01*
X74550Y109930D01*
X74669Y109844D01*
X74791Y109761D01*
X74915Y109681D01*
X75041Y109605D01*
X75168Y109532D01*
X75298Y109462D01*
X75430Y109396D01*
X75563Y109333D01*
X75698Y109274D01*
X75834Y109219D01*
X75972Y109167D01*
X76112Y109119D01*
X76252Y109075D01*
X76394Y109034D01*
X76536Y108997D01*
X76680Y108964D01*
X76824Y108935D01*
X76969Y108909D01*
X77115Y108888D01*
X77261Y108870D01*
X77408Y108857D01*
X77555Y108847D01*
X77702Y108841D01*
X77849Y108839D01*
X67019Y107456D02*
X61488Y122668D01*
X52386Y121286D02*
X52275Y121284D01*
X52164Y121278D01*
X52053Y121268D01*
X51943Y121254D01*
X51833Y121237D01*
X51724Y121215D01*
X51616Y121189D01*
X51509Y121160D01*
X51403Y121127D01*
X51298Y121090D01*
X51195Y121049D01*
X51093Y121005D01*
X50993Y120957D01*
X50895Y120905D01*
X50798Y120850D01*
X50704Y120792D01*
X50611Y120730D01*
X50521Y120665D01*
X50433Y120597D01*
X50348Y120526D01*
X50265Y120452D01*
X50185Y120375D01*
X50108Y120295D01*
X50034Y120212D01*
X49963Y120127D01*
X49895Y120039D01*
X49830Y119949D01*
X49768Y119856D01*
X49710Y119762D01*
X49655Y119665D01*
X49603Y119567D01*
X49555Y119467D01*
X49511Y119365D01*
X49470Y119262D01*
X49433Y119157D01*
X49400Y119051D01*
X49371Y118944D01*
X49345Y118836D01*
X49323Y118727D01*
X49306Y118617D01*
X49292Y118507D01*
X49282Y118396D01*
X49276Y118285D01*
X49274Y118174D01*
X52386Y121285D02*
X52512Y121283D01*
X52637Y121277D01*
X52762Y121267D01*
X52887Y121253D01*
X53012Y121236D01*
X53136Y121214D01*
X53259Y121189D01*
X53381Y121159D01*
X53502Y121126D01*
X53622Y121089D01*
X53741Y121048D01*
X53858Y121004D01*
X53975Y120956D01*
X54089Y120904D01*
X54202Y120849D01*
X54313Y120790D01*
X54422Y120728D01*
X54529Y120662D01*
X54634Y120593D01*
X54737Y120521D01*
X54837Y120445D01*
X54935Y120366D01*
X55031Y120285D01*
X55124Y120200D01*
X55214Y120113D01*
X55301Y120022D01*
X55386Y119929D01*
X55467Y119834D01*
X55546Y119736D01*
X55621Y119635D01*
X55694Y119532D01*
X55762Y119427D01*
X55828Y119320D01*
X55890Y119211D01*
X55949Y119100D01*
X56004Y118987D01*
X56056Y118872D01*
X56104Y118756D01*
X56148Y118638D01*
X56189Y118520D01*
X50312Y115754D02*
X50232Y115833D01*
X50154Y115915D01*
X50079Y115999D01*
X50008Y116086D01*
X49939Y116175D01*
X49873Y116267D01*
X49810Y116360D01*
X49750Y116456D01*
X49694Y116554D01*
X49641Y116653D01*
X49591Y116755D01*
X49545Y116857D01*
X49503Y116962D01*
X49463Y117068D01*
X49428Y117175D01*
X49396Y117283D01*
X49368Y117392D01*
X49343Y117502D01*
X49322Y117613D01*
X49305Y117724D01*
X49292Y117836D01*
X49283Y117949D01*
X49277Y118061D01*
X49275Y118174D01*
X50312Y115753D02*
X56189Y108839D01*
X49275Y108839D01*
X43387Y115062D02*
X43384Y115307D01*
X43375Y115552D01*
X43361Y115796D01*
X43340Y116040D01*
X43314Y116283D01*
X43282Y116526D01*
X43244Y116768D01*
X43201Y117009D01*
X43151Y117249D01*
X43096Y117487D01*
X43035Y117724D01*
X42969Y117960D01*
X42897Y118194D01*
X42819Y118426D01*
X42736Y118657D01*
X42648Y118885D01*
X42554Y119111D01*
X42455Y119335D01*
X42350Y119556D01*
X42351Y119557D02*
X42317Y119650D01*
X42279Y119742D01*
X42238Y119832D01*
X42194Y119920D01*
X42146Y120007D01*
X42094Y120092D01*
X42040Y120175D01*
X41982Y120255D01*
X41921Y120334D01*
X41858Y120410D01*
X41791Y120483D01*
X41721Y120554D01*
X41649Y120622D01*
X41575Y120687D01*
X41497Y120749D01*
X41418Y120809D01*
X41336Y120865D01*
X41252Y120917D01*
X41166Y120967D01*
X41078Y121013D01*
X40989Y121056D01*
X40898Y121095D01*
X40805Y121131D01*
X40712Y121163D01*
X40617Y121191D01*
X40521Y121216D01*
X40424Y121237D01*
X40326Y121254D01*
X40228Y121268D01*
X40129Y121277D01*
X40030Y121283D01*
X39931Y121285D01*
X39832Y121283D01*
X39733Y121277D01*
X39634Y121268D01*
X39536Y121254D01*
X39438Y121237D01*
X39341Y121216D01*
X39245Y121191D01*
X39150Y121163D01*
X39057Y121131D01*
X38964Y121095D01*
X38873Y121056D01*
X38783Y121013D01*
X38696Y120967D01*
X38610Y120917D01*
X38526Y120865D01*
X38444Y120809D01*
X38365Y120749D01*
X38287Y120687D01*
X38213Y120622D01*
X38141Y120554D01*
X38071Y120483D01*
X38004Y120410D01*
X37941Y120334D01*
X37880Y120255D01*
X37822Y120175D01*
X37768Y120092D01*
X37716Y120007D01*
X37668Y119920D01*
X37624Y119832D01*
X37583Y119742D01*
X37545Y119650D01*
X37511Y119557D01*
X37511Y119556D02*
X37407Y119335D01*
X37307Y119111D01*
X37213Y118885D01*
X37125Y118657D01*
X37042Y118426D01*
X36964Y118194D01*
X36892Y117960D01*
X36826Y117725D01*
X36765Y117487D01*
X36710Y117249D01*
X36660Y117009D01*
X36617Y116768D01*
X36579Y116526D01*
X36547Y116283D01*
X36521Y116040D01*
X36500Y115796D01*
X36486Y115552D01*
X36477Y115307D01*
X36474Y115062D01*
X43388Y115062D02*
X43385Y114817D01*
X43376Y114572D01*
X43362Y114328D01*
X43341Y114084D01*
X43315Y113841D01*
X43283Y113598D01*
X43245Y113356D01*
X43202Y113115D01*
X43152Y112875D01*
X43097Y112637D01*
X43036Y112399D01*
X42970Y112164D01*
X42898Y111930D01*
X42820Y111697D01*
X42737Y111467D01*
X42649Y111239D01*
X42555Y111013D01*
X42455Y110789D01*
X42351Y110567D01*
X42317Y110474D01*
X42279Y110382D01*
X42238Y110292D01*
X42194Y110204D01*
X42146Y110117D01*
X42094Y110032D01*
X42040Y109949D01*
X41982Y109869D01*
X41921Y109790D01*
X41858Y109714D01*
X41791Y109641D01*
X41721Y109570D01*
X41649Y109502D01*
X41575Y109437D01*
X41497Y109375D01*
X41418Y109315D01*
X41336Y109259D01*
X41252Y109207D01*
X41166Y109157D01*
X41078Y109111D01*
X40989Y109068D01*
X40898Y109029D01*
X40805Y108993D01*
X40712Y108961D01*
X40617Y108933D01*
X40521Y108908D01*
X40424Y108887D01*
X40326Y108870D01*
X40228Y108856D01*
X40129Y108847D01*
X40030Y108841D01*
X39931Y108839D01*
X37511Y110568D02*
X37406Y110789D01*
X37307Y111013D01*
X37213Y111239D01*
X37125Y111467D01*
X37042Y111698D01*
X36964Y111930D01*
X36892Y112164D01*
X36826Y112400D01*
X36765Y112637D01*
X36710Y112875D01*
X36660Y113115D01*
X36617Y113356D01*
X36579Y113598D01*
X36547Y113841D01*
X36521Y114084D01*
X36500Y114328D01*
X36486Y114572D01*
X36477Y114817D01*
X36474Y115062D01*
X37511Y110567D02*
X37545Y110474D01*
X37583Y110382D01*
X37624Y110292D01*
X37668Y110204D01*
X37716Y110117D01*
X37768Y110032D01*
X37822Y109949D01*
X37880Y109869D01*
X37941Y109790D01*
X38004Y109714D01*
X38071Y109641D01*
X38141Y109570D01*
X38213Y109502D01*
X38287Y109437D01*
X38365Y109375D01*
X38444Y109315D01*
X38526Y109259D01*
X38610Y109207D01*
X38696Y109157D01*
X38784Y109111D01*
X38873Y109068D01*
X38964Y109029D01*
X39057Y108993D01*
X39150Y108961D01*
X39245Y108933D01*
X39341Y108908D01*
X39438Y108887D01*
X39536Y108870D01*
X39634Y108856D01*
X39733Y108847D01*
X39832Y108841D01*
X39931Y108839D01*
X42696Y111605D02*
X37165Y118519D01*
X30586Y118519D02*
X27129Y121285D01*
X27129Y108839D01*
X30586Y108839D02*
X23672Y108839D01*
X15019Y114371D02*
X10870Y114371D01*
X15019Y114370D02*
X15122Y114372D01*
X15226Y114378D01*
X15329Y114387D01*
X15431Y114401D01*
X15533Y114418D01*
X15634Y114439D01*
X15735Y114464D01*
X15834Y114493D01*
X15933Y114525D01*
X16030Y114561D01*
X16125Y114601D01*
X16219Y114644D01*
X16311Y114691D01*
X16402Y114741D01*
X16491Y114794D01*
X16577Y114851D01*
X16662Y114910D01*
X16744Y114973D01*
X16823Y115039D01*
X16900Y115108D01*
X16975Y115180D01*
X17047Y115255D01*
X17116Y115332D01*
X17182Y115411D01*
X17245Y115494D01*
X17304Y115578D01*
X17361Y115664D01*
X17414Y115753D01*
X17464Y115844D01*
X17511Y115936D01*
X17554Y116030D01*
X17594Y116125D01*
X17630Y116222D01*
X17662Y116321D01*
X17691Y116420D01*
X17716Y116521D01*
X17737Y116622D01*
X17754Y116724D01*
X17768Y116826D01*
X17777Y116929D01*
X17783Y117033D01*
X17785Y117136D01*
X17785Y117828D01*
X17783Y117945D01*
X17777Y118061D01*
X17767Y118178D01*
X17753Y118294D01*
X17736Y118409D01*
X17714Y118524D01*
X17689Y118638D01*
X17660Y118751D01*
X17626Y118863D01*
X17590Y118974D01*
X17549Y119083D01*
X17505Y119191D01*
X17457Y119298D01*
X17406Y119403D01*
X17351Y119506D01*
X17292Y119607D01*
X17230Y119706D01*
X17165Y119803D01*
X17097Y119898D01*
X17026Y119990D01*
X16951Y120080D01*
X16873Y120167D01*
X16793Y120252D01*
X16710Y120334D01*
X16624Y120413D01*
X16535Y120489D01*
X16444Y120562D01*
X16351Y120632D01*
X16255Y120698D01*
X16157Y120762D01*
X16057Y120822D01*
X15954Y120879D01*
X15850Y120932D01*
X15745Y120981D01*
X15637Y121027D01*
X15529Y121070D01*
X15418Y121109D01*
X15307Y121143D01*
X15195Y121175D01*
X15081Y121202D01*
X14967Y121226D01*
X14851Y121245D01*
X14736Y121261D01*
X14620Y121273D01*
X14503Y121281D01*
X14386Y121285D01*
X14270Y121285D01*
X14153Y121281D01*
X14036Y121273D01*
X13920Y121261D01*
X13805Y121245D01*
X13689Y121226D01*
X13575Y121202D01*
X13461Y121175D01*
X13349Y121143D01*
X13238Y121109D01*
X13127Y121070D01*
X13019Y121027D01*
X12911Y120981D01*
X12806Y120932D01*
X12702Y120879D01*
X12599Y120822D01*
X12499Y120762D01*
X12401Y120698D01*
X12305Y120632D01*
X12212Y120562D01*
X12121Y120489D01*
X12032Y120413D01*
X11946Y120334D01*
X11863Y120252D01*
X11783Y120167D01*
X11705Y120080D01*
X11630Y119990D01*
X11559Y119898D01*
X11491Y119803D01*
X11426Y119706D01*
X11364Y119607D01*
X11305Y119506D01*
X11250Y119403D01*
X11199Y119298D01*
X11151Y119191D01*
X11107Y119083D01*
X11066Y118974D01*
X11030Y118863D01*
X10996Y118751D01*
X10967Y118638D01*
X10942Y118524D01*
X10920Y118409D01*
X10903Y118294D01*
X10889Y118178D01*
X10879Y118061D01*
X10873Y117945D01*
X10871Y117828D01*
X10870Y117828D02*
X10870Y114371D01*
X10872Y114224D01*
X10878Y114077D01*
X10888Y113930D01*
X10901Y113783D01*
X10919Y113637D01*
X10940Y113491D01*
X10966Y113346D01*
X10995Y113202D01*
X11028Y113058D01*
X11065Y112916D01*
X11106Y112774D01*
X11150Y112634D01*
X11198Y112494D01*
X11250Y112356D01*
X11305Y112220D01*
X11364Y112085D01*
X11427Y111952D01*
X11493Y111820D01*
X11563Y111690D01*
X11636Y111563D01*
X11712Y111437D01*
X11792Y111313D01*
X11875Y111191D01*
X11961Y111072D01*
X12051Y110955D01*
X12143Y110840D01*
X12239Y110728D01*
X12337Y110619D01*
X12439Y110512D01*
X12543Y110408D01*
X12650Y110306D01*
X12759Y110208D01*
X12871Y110112D01*
X12986Y110020D01*
X13103Y109930D01*
X13222Y109844D01*
X13344Y109761D01*
X13468Y109681D01*
X13594Y109605D01*
X13721Y109532D01*
X13851Y109462D01*
X13983Y109396D01*
X14116Y109333D01*
X14251Y109274D01*
X14387Y109219D01*
X14525Y109167D01*
X14665Y109119D01*
X14805Y109075D01*
X14947Y109034D01*
X15089Y108997D01*
X15233Y108964D01*
X15377Y108935D01*
X15522Y108909D01*
X15668Y108888D01*
X15814Y108870D01*
X15961Y108857D01*
X16108Y108847D01*
X16255Y108841D01*
X16402Y108839D01*
D11*
X80280Y69850D02*
X107680Y69850D01*
X107680Y31750D02*
X80280Y31750D01*
M02*
