G04 EAGLE Gerber RS-274X export*
G75*
%MOMM*%
%FSLAX34Y34*%
%LPD*%
%INComponent side*%
%IPPOS*%
%AMOC8*
5,1,8,0,0,1.08239X$1,22.5*%
G01*
%ADD10R,0.800000X0.800000*%
%ADD11R,0.800000X0.300000*%
%ADD12R,0.300000X0.800000*%
%ADD13R,1.230000X1.230000*%
%ADD14R,0.700000X0.600000*%
%ADD15R,0.950000X0.950000*%
%ADD16R,5.715000X1.041400*%
%ADD17R,6.350000X2.540000*%
%ADD18C,0.553200*%
%ADD19R,2.540000X2.540000*%
%ADD20R,0.700000X0.250000*%
%ADD21R,0.250000X0.700000*%
%ADD22R,1.270000X1.270000*%
%ADD23P,2.089446X8X22.500000*%
%ADD24R,0.900000X1.600000*%
%ADD25C,0.254000*%
%ADD26C,0.304800*%
%ADD27C,0.812800*%
%ADD28C,0.406400*%
%ADD29C,0.609600*%

G36*
X264763Y91470D02*
X264763Y91470D01*
X264689Y91523D01*
X264620Y91583D01*
X264589Y91595D01*
X264563Y91614D01*
X264476Y91641D01*
X264391Y91675D01*
X264350Y91679D01*
X264328Y91686D01*
X264296Y91685D01*
X264225Y91693D01*
X257556Y91693D01*
X257536Y91690D01*
X257517Y91692D01*
X257415Y91670D01*
X257313Y91654D01*
X257296Y91644D01*
X257276Y91640D01*
X257187Y91587D01*
X257096Y91538D01*
X257082Y91524D01*
X257065Y91514D01*
X256998Y91435D01*
X256926Y91360D01*
X256918Y91342D01*
X256905Y91327D01*
X256866Y91231D01*
X256823Y91137D01*
X256821Y91117D01*
X256813Y91099D01*
X256795Y90932D01*
X256795Y90282D01*
X255158Y88645D01*
X244856Y88645D01*
X244836Y88642D01*
X244817Y88644D01*
X244715Y88622D01*
X244613Y88606D01*
X244596Y88596D01*
X244576Y88592D01*
X244487Y88539D01*
X244396Y88490D01*
X244382Y88476D01*
X244365Y88466D01*
X244298Y88387D01*
X244226Y88312D01*
X244218Y88294D01*
X244205Y88279D01*
X244166Y88183D01*
X244123Y88089D01*
X244121Y88069D01*
X244113Y88051D01*
X244095Y87884D01*
X244095Y68692D01*
X242458Y67055D01*
X213472Y67055D01*
X211835Y68692D01*
X211835Y84675D01*
X211821Y84765D01*
X211813Y84856D01*
X211801Y84885D01*
X211796Y84917D01*
X211753Y84998D01*
X211717Y85082D01*
X211691Y85114D01*
X211680Y85135D01*
X211657Y85157D01*
X211612Y85213D01*
X211417Y85408D01*
X211417Y99275D01*
X211403Y99365D01*
X211395Y99456D01*
X211383Y99486D01*
X211378Y99518D01*
X211335Y99598D01*
X211299Y99682D01*
X211273Y99714D01*
X211262Y99735D01*
X211239Y99757D01*
X211194Y99813D01*
X210565Y100442D01*
X210565Y102706D01*
X210562Y102726D01*
X210564Y102745D01*
X210542Y102847D01*
X210526Y102949D01*
X210516Y102966D01*
X210512Y102986D01*
X210459Y103075D01*
X210410Y103166D01*
X210396Y103180D01*
X210386Y103197D01*
X210307Y103264D01*
X210232Y103336D01*
X210214Y103344D01*
X210199Y103357D01*
X210103Y103396D01*
X210009Y103439D01*
X209989Y103441D01*
X209971Y103449D01*
X209804Y103467D01*
X208358Y103467D01*
X207167Y104658D01*
X207167Y114342D01*
X208358Y115533D01*
X209804Y115533D01*
X209824Y115536D01*
X209843Y115534D01*
X209945Y115556D01*
X210047Y115572D01*
X210064Y115582D01*
X210084Y115586D01*
X210173Y115639D01*
X210264Y115688D01*
X210278Y115702D01*
X210295Y115712D01*
X210362Y115791D01*
X210434Y115866D01*
X210442Y115884D01*
X210455Y115899D01*
X210494Y115995D01*
X210537Y116089D01*
X210539Y116109D01*
X210547Y116127D01*
X210565Y116294D01*
X210565Y121808D01*
X212202Y123445D01*
X234838Y123445D01*
X236475Y121808D01*
X236475Y104608D01*
X236478Y104588D01*
X236476Y104569D01*
X236498Y104467D01*
X236514Y104365D01*
X236524Y104348D01*
X236528Y104328D01*
X236581Y104239D01*
X236630Y104148D01*
X236644Y104134D01*
X236654Y104117D01*
X236733Y104050D01*
X236808Y103978D01*
X236826Y103970D01*
X236841Y103957D01*
X236937Y103918D01*
X237031Y103875D01*
X237051Y103873D01*
X237069Y103865D01*
X237236Y103847D01*
X237824Y103847D01*
X237844Y103850D01*
X237863Y103848D01*
X237965Y103870D01*
X238067Y103886D01*
X238084Y103896D01*
X238104Y103900D01*
X238193Y103953D01*
X238284Y104002D01*
X238298Y104016D01*
X238315Y104026D01*
X238382Y104105D01*
X238454Y104180D01*
X238462Y104198D01*
X238475Y104213D01*
X238514Y104309D01*
X238557Y104403D01*
X238559Y104423D01*
X238567Y104441D01*
X238585Y104608D01*
X238585Y110084D01*
X240644Y112143D01*
X240688Y112203D01*
X240724Y112241D01*
X240730Y112255D01*
X240757Y112286D01*
X240769Y112316D01*
X240788Y112342D01*
X240815Y112429D01*
X240849Y112514D01*
X240853Y112555D01*
X240860Y112578D01*
X240859Y112610D01*
X240867Y112681D01*
X240867Y118992D01*
X241987Y120112D01*
X241999Y120128D01*
X242014Y120140D01*
X242070Y120228D01*
X242131Y120311D01*
X242136Y120330D01*
X242147Y120347D01*
X242172Y120448D01*
X242203Y120547D01*
X242202Y120566D01*
X242207Y120586D01*
X242199Y120689D01*
X242197Y120792D01*
X242190Y120811D01*
X242188Y120831D01*
X242148Y120926D01*
X242112Y121023D01*
X242100Y121039D01*
X242092Y121057D01*
X241987Y121188D01*
X240867Y122308D01*
X240867Y133492D01*
X242058Y134683D01*
X242958Y134683D01*
X242978Y134686D01*
X242997Y134684D01*
X243099Y134706D01*
X243201Y134722D01*
X243218Y134732D01*
X243238Y134736D01*
X243327Y134789D01*
X243418Y134838D01*
X243432Y134852D01*
X243449Y134862D01*
X243516Y134941D01*
X243588Y135016D01*
X243596Y135034D01*
X243609Y135049D01*
X243648Y135145D01*
X243691Y135239D01*
X243693Y135259D01*
X243701Y135277D01*
X243719Y135444D01*
X243719Y139941D01*
X243705Y140031D01*
X243697Y140122D01*
X243685Y140151D01*
X243680Y140183D01*
X243637Y140264D01*
X243601Y140348D01*
X243575Y140380D01*
X243564Y140401D01*
X243541Y140423D01*
X243496Y140479D01*
X242767Y141208D01*
X242767Y144582D01*
X242753Y144672D01*
X242745Y144763D01*
X242733Y144793D01*
X242728Y144825D01*
X242685Y144906D01*
X242649Y144989D01*
X242623Y145022D01*
X242612Y145042D01*
X242589Y145064D01*
X242569Y145089D01*
X242569Y162306D01*
X242566Y162326D01*
X242568Y162345D01*
X242546Y162447D01*
X242530Y162549D01*
X242520Y162566D01*
X242516Y162586D01*
X242463Y162675D01*
X242414Y162766D01*
X242400Y162780D01*
X242390Y162797D01*
X242311Y162864D01*
X242236Y162936D01*
X242218Y162944D01*
X242203Y162957D01*
X242107Y162996D01*
X242013Y163039D01*
X241993Y163041D01*
X241975Y163049D01*
X241808Y163067D01*
X234108Y163067D01*
X232917Y164258D01*
X232917Y191342D01*
X234108Y192533D01*
X261192Y192533D01*
X262383Y191342D01*
X262383Y164258D01*
X261192Y163067D01*
X253492Y163067D01*
X253472Y163064D01*
X253453Y163066D01*
X253351Y163044D01*
X253249Y163028D01*
X253232Y163018D01*
X253212Y163014D01*
X253123Y162961D01*
X253032Y162912D01*
X253018Y162898D01*
X253001Y162888D01*
X252934Y162809D01*
X252862Y162734D01*
X252854Y162716D01*
X252841Y162701D01*
X252802Y162605D01*
X252759Y162511D01*
X252757Y162491D01*
X252749Y162473D01*
X252731Y162306D01*
X252731Y152844D01*
X252734Y152824D01*
X252732Y152805D01*
X252754Y152703D01*
X252770Y152601D01*
X252780Y152584D01*
X252784Y152564D01*
X252837Y152475D01*
X252886Y152384D01*
X252900Y152370D01*
X252910Y152353D01*
X252989Y152286D01*
X253064Y152214D01*
X253082Y152206D01*
X253097Y152193D01*
X253193Y152154D01*
X253287Y152111D01*
X253307Y152109D01*
X253325Y152101D01*
X253492Y152083D01*
X253642Y152083D01*
X254833Y150892D01*
X254833Y141208D01*
X254104Y140479D01*
X254051Y140405D01*
X253991Y140336D01*
X253979Y140305D01*
X253960Y140279D01*
X253933Y140192D01*
X253899Y140107D01*
X253895Y140066D01*
X253888Y140044D01*
X253889Y140012D01*
X253881Y139941D01*
X253881Y134359D01*
X253895Y134269D01*
X253903Y134178D01*
X253915Y134149D01*
X253920Y134117D01*
X253963Y134036D01*
X253999Y133952D01*
X254025Y133920D01*
X254036Y133899D01*
X254059Y133877D01*
X254104Y133821D01*
X254433Y133492D01*
X254433Y122308D01*
X253313Y121188D01*
X253301Y121172D01*
X253286Y121160D01*
X253230Y121072D01*
X253169Y120989D01*
X253164Y120970D01*
X253153Y120953D01*
X253128Y120852D01*
X253097Y120753D01*
X253098Y120734D01*
X253093Y120714D01*
X253101Y120611D01*
X253103Y120508D01*
X253110Y120489D01*
X253112Y120469D01*
X253152Y120374D01*
X253188Y120277D01*
X253200Y120261D01*
X253208Y120243D01*
X253313Y120112D01*
X254433Y118992D01*
X254433Y107696D01*
X254436Y107676D01*
X254434Y107657D01*
X254456Y107555D01*
X254472Y107453D01*
X254482Y107436D01*
X254486Y107416D01*
X254539Y107327D01*
X254588Y107236D01*
X254602Y107222D01*
X254612Y107205D01*
X254691Y107138D01*
X254766Y107066D01*
X254784Y107058D01*
X254799Y107045D01*
X254895Y107006D01*
X254989Y106963D01*
X255009Y106961D01*
X255027Y106953D01*
X255153Y106939D01*
X256795Y105298D01*
X256795Y104648D01*
X256798Y104628D01*
X256796Y104609D01*
X256818Y104507D01*
X256834Y104405D01*
X256844Y104388D01*
X256848Y104368D01*
X256901Y104279D01*
X256950Y104188D01*
X256964Y104174D01*
X256974Y104157D01*
X257053Y104090D01*
X257128Y104018D01*
X257146Y104010D01*
X257161Y103997D01*
X257257Y103958D01*
X257351Y103915D01*
X257371Y103913D01*
X257389Y103905D01*
X257556Y103887D01*
X264225Y103887D01*
X264315Y103901D01*
X264406Y103909D01*
X264435Y103921D01*
X264467Y103926D01*
X264548Y103969D01*
X264632Y104005D01*
X264664Y104031D01*
X264685Y104042D01*
X264707Y104065D01*
X264763Y104110D01*
X265683Y105030D01*
X319278Y105030D01*
X323850Y105030D01*
X323908Y105038D01*
X323966Y105036D01*
X324048Y105058D01*
X324132Y105070D01*
X324185Y105094D01*
X324241Y105108D01*
X324314Y105151D01*
X324391Y105186D01*
X324436Y105224D01*
X324486Y105254D01*
X324544Y105315D01*
X324608Y105370D01*
X324640Y105418D01*
X324680Y105461D01*
X324719Y105536D01*
X324766Y105606D01*
X324783Y105662D01*
X324810Y105714D01*
X324821Y105782D01*
X324851Y105877D01*
X324854Y105977D01*
X324865Y106045D01*
X324865Y154940D01*
X324857Y154998D01*
X324859Y155056D01*
X324837Y155138D01*
X324825Y155222D01*
X324802Y155275D01*
X324787Y155331D01*
X324744Y155404D01*
X324709Y155481D01*
X324671Y155526D01*
X324642Y155576D01*
X324580Y155634D01*
X324526Y155698D01*
X324477Y155730D01*
X324434Y155770D01*
X324359Y155809D01*
X324289Y155856D01*
X324233Y155873D01*
X324181Y155900D01*
X324113Y155911D01*
X324018Y155941D01*
X323918Y155944D01*
X323850Y155955D01*
X320039Y155955D01*
X320039Y198628D01*
X320036Y198648D01*
X320038Y198667D01*
X320016Y198769D01*
X320000Y198871D01*
X319990Y198888D01*
X319986Y198908D01*
X319933Y198997D01*
X319884Y199088D01*
X319870Y199102D01*
X319860Y199119D01*
X319781Y199186D01*
X319706Y199258D01*
X319688Y199266D01*
X319673Y199279D01*
X319577Y199318D01*
X319483Y199361D01*
X319463Y199363D01*
X319445Y199371D01*
X319278Y199389D01*
X162001Y199389D01*
X161930Y199378D01*
X161858Y199376D01*
X161809Y199358D01*
X161758Y199350D01*
X161695Y199316D01*
X161627Y199291D01*
X161587Y199259D01*
X161541Y199234D01*
X161491Y199183D01*
X161435Y199138D01*
X161407Y199094D01*
X161371Y199056D01*
X161341Y198991D01*
X161302Y198931D01*
X161290Y198880D01*
X161268Y198833D01*
X161260Y198762D01*
X161242Y198692D01*
X161246Y198640D01*
X161241Y198589D01*
X161256Y198518D01*
X161261Y198447D01*
X161282Y198399D01*
X161293Y198348D01*
X161330Y198287D01*
X161358Y198221D01*
X161403Y198165D01*
X161419Y198137D01*
X161437Y198122D01*
X161463Y198090D01*
X161545Y198008D01*
X161545Y157592D01*
X159908Y155955D01*
X100442Y155955D01*
X98805Y157592D01*
X98805Y198008D01*
X98887Y198090D01*
X98929Y198148D01*
X98979Y198200D01*
X99001Y198247D01*
X99031Y198289D01*
X99052Y198358D01*
X99082Y198423D01*
X99088Y198475D01*
X99103Y198525D01*
X99101Y198596D01*
X99109Y198667D01*
X99098Y198718D01*
X99097Y198770D01*
X99072Y198838D01*
X99057Y198908D01*
X99030Y198952D01*
X99012Y199001D01*
X98968Y199057D01*
X98931Y199119D01*
X98891Y199153D01*
X98859Y199193D01*
X98799Y199232D01*
X98744Y199279D01*
X98696Y199298D01*
X98652Y199326D01*
X98582Y199344D01*
X98516Y199371D01*
X98445Y199379D01*
X98413Y199387D01*
X98390Y199385D01*
X98349Y199389D01*
X4572Y199389D01*
X4552Y199386D01*
X4533Y199388D01*
X4431Y199366D01*
X4329Y199350D01*
X4312Y199340D01*
X4292Y199336D01*
X4203Y199283D01*
X4112Y199234D01*
X4098Y199220D01*
X4081Y199210D01*
X4014Y199131D01*
X3942Y199056D01*
X3934Y199038D01*
X3921Y199023D01*
X3882Y198927D01*
X3839Y198833D01*
X3837Y198813D01*
X3829Y198795D01*
X3811Y198628D01*
X3811Y158495D01*
X-2540Y158495D01*
X-2598Y158487D01*
X-2656Y158489D01*
X-2738Y158467D01*
X-2822Y158455D01*
X-2875Y158432D01*
X-2931Y158417D01*
X-3004Y158374D01*
X-3081Y158339D01*
X-3126Y158301D01*
X-3176Y158272D01*
X-3234Y158210D01*
X-3298Y158156D01*
X-3330Y158107D01*
X-3370Y158064D01*
X-3409Y157989D01*
X-3456Y157919D01*
X-3473Y157863D01*
X-3500Y157811D01*
X-3511Y157743D01*
X-3541Y157648D01*
X-3544Y157548D01*
X-3555Y157480D01*
X-3555Y108585D01*
X-3547Y108527D01*
X-3549Y108469D01*
X-3527Y108387D01*
X-3515Y108304D01*
X-3492Y108250D01*
X-3477Y108194D01*
X-3434Y108121D01*
X-3399Y108044D01*
X-3361Y107999D01*
X-3332Y107949D01*
X-3270Y107891D01*
X-3216Y107827D01*
X-3167Y107795D01*
X-3124Y107755D01*
X-3049Y107716D01*
X-2979Y107670D01*
X-2923Y107652D01*
X-2871Y107625D01*
X-2803Y107614D01*
X-2708Y107584D01*
X-2608Y107581D01*
X-2540Y107570D01*
X4572Y107570D01*
X55627Y107570D01*
X56547Y106650D01*
X56621Y106597D01*
X56690Y106537D01*
X56721Y106525D01*
X56747Y106506D01*
X56834Y106479D01*
X56919Y106445D01*
X56960Y106441D01*
X56982Y106434D01*
X57014Y106435D01*
X57085Y106427D01*
X110433Y106427D01*
X112674Y105499D01*
X114396Y103776D01*
X114470Y103723D01*
X114540Y103663D01*
X114570Y103651D01*
X114596Y103632D01*
X114683Y103605D01*
X114768Y103571D01*
X114809Y103567D01*
X114831Y103560D01*
X114863Y103561D01*
X114935Y103553D01*
X120883Y103553D01*
X120887Y103551D01*
X120928Y103547D01*
X120950Y103540D01*
X120982Y103541D01*
X121053Y103533D01*
X123692Y103533D01*
X124883Y102342D01*
X124883Y98158D01*
X123692Y96967D01*
X121053Y96967D01*
X120963Y96953D01*
X120896Y96947D01*
X114775Y96947D01*
X114685Y96933D01*
X114594Y96925D01*
X114564Y96913D01*
X114532Y96908D01*
X114451Y96865D01*
X114367Y96829D01*
X114335Y96803D01*
X114315Y96792D01*
X114292Y96769D01*
X114236Y96724D01*
X112674Y95161D01*
X112325Y95017D01*
X112243Y94966D01*
X112157Y94920D01*
X112139Y94901D01*
X112116Y94888D01*
X112054Y94813D01*
X111987Y94742D01*
X111976Y94718D01*
X111960Y94698D01*
X111925Y94607D01*
X111884Y94519D01*
X111881Y94493D01*
X111871Y94469D01*
X111867Y94371D01*
X111857Y94275D01*
X111862Y94249D01*
X111861Y94223D01*
X111888Y94129D01*
X111909Y94034D01*
X111922Y94012D01*
X111929Y93987D01*
X111985Y93907D01*
X112035Y93823D01*
X112055Y93806D01*
X112070Y93785D01*
X112148Y93727D01*
X112222Y93663D01*
X112246Y93653D01*
X112267Y93638D01*
X112360Y93608D01*
X112450Y93571D01*
X112482Y93568D01*
X112501Y93562D01*
X112534Y93562D01*
X112617Y93553D01*
X120883Y93553D01*
X120887Y93551D01*
X120928Y93547D01*
X120950Y93540D01*
X120982Y93541D01*
X121053Y93533D01*
X123692Y93533D01*
X124883Y92342D01*
X124883Y88646D01*
X124886Y88626D01*
X124884Y88607D01*
X124906Y88505D01*
X124922Y88403D01*
X124932Y88386D01*
X124936Y88366D01*
X124989Y88277D01*
X125038Y88186D01*
X125052Y88172D01*
X125062Y88155D01*
X125141Y88088D01*
X125216Y88016D01*
X125234Y88008D01*
X125249Y87995D01*
X125345Y87956D01*
X125439Y87913D01*
X125459Y87911D01*
X125477Y87903D01*
X125644Y87885D01*
X130698Y87885D01*
X131577Y87006D01*
X131651Y86953D01*
X131720Y86893D01*
X131750Y86881D01*
X131776Y86862D01*
X131863Y86835D01*
X131948Y86801D01*
X131989Y86797D01*
X132011Y86790D01*
X132044Y86791D01*
X132115Y86783D01*
X135442Y86783D01*
X136633Y85592D01*
X136633Y82953D01*
X136634Y82945D01*
X136634Y82941D01*
X136638Y82924D01*
X136648Y82863D01*
X136653Y82797D01*
X136653Y71533D01*
X136654Y71525D01*
X136654Y71523D01*
X136657Y71509D01*
X136667Y71443D01*
X136675Y71352D01*
X136687Y71322D01*
X136692Y71291D01*
X136735Y71210D01*
X136771Y71126D01*
X136797Y71094D01*
X136808Y71073D01*
X136831Y71051D01*
X136876Y70995D01*
X138035Y69836D01*
X138051Y69824D01*
X138063Y69809D01*
X138151Y69753D01*
X138234Y69692D01*
X138253Y69687D01*
X138270Y69676D01*
X138371Y69651D01*
X138470Y69620D01*
X138489Y69621D01*
X138509Y69616D01*
X138612Y69624D01*
X138715Y69626D01*
X138734Y69633D01*
X138754Y69635D01*
X138849Y69675D01*
X138946Y69711D01*
X138962Y69723D01*
X138980Y69731D01*
X139111Y69836D01*
X140458Y71183D01*
X151642Y71183D01*
X152833Y69992D01*
X152833Y58808D01*
X151642Y57617D01*
X140458Y57617D01*
X139267Y58808D01*
X139267Y59436D01*
X139264Y59456D01*
X139266Y59475D01*
X139244Y59577D01*
X139228Y59679D01*
X139218Y59696D01*
X139214Y59716D01*
X139161Y59805D01*
X139112Y59896D01*
X139098Y59910D01*
X139088Y59927D01*
X139009Y59994D01*
X138934Y60066D01*
X138916Y60074D01*
X138901Y60087D01*
X138805Y60126D01*
X138711Y60169D01*
X138691Y60171D01*
X138673Y60179D01*
X138506Y60197D01*
X138332Y60197D01*
X136174Y62355D01*
X133634Y64895D01*
X133576Y64937D01*
X133524Y64986D01*
X133477Y65008D01*
X133435Y65039D01*
X133366Y65060D01*
X133301Y65090D01*
X133249Y65096D01*
X133199Y65111D01*
X133128Y65109D01*
X133057Y65117D01*
X133006Y65106D01*
X132954Y65105D01*
X132886Y65080D01*
X132816Y65065D01*
X132771Y65038D01*
X132723Y65020D01*
X132667Y64975D01*
X132605Y64938D01*
X132571Y64899D01*
X132531Y64866D01*
X132492Y64806D01*
X132445Y64752D01*
X132426Y64703D01*
X132398Y64659D01*
X132380Y64590D01*
X132353Y64523D01*
X132345Y64452D01*
X132337Y64421D01*
X132339Y64398D01*
X132335Y64357D01*
X132335Y62342D01*
X130698Y60705D01*
X106792Y60705D01*
X105155Y62342D01*
X105155Y84797D01*
X105144Y84867D01*
X105142Y84939D01*
X105124Y84988D01*
X105116Y85039D01*
X105082Y85103D01*
X105057Y85170D01*
X105025Y85211D01*
X105000Y85257D01*
X104949Y85306D01*
X104904Y85362D01*
X104860Y85390D01*
X104822Y85426D01*
X104757Y85456D01*
X104697Y85495D01*
X104646Y85508D01*
X104599Y85530D01*
X104528Y85538D01*
X104458Y85555D01*
X104406Y85551D01*
X104355Y85557D01*
X104284Y85542D01*
X104213Y85536D01*
X104165Y85516D01*
X104114Y85505D01*
X104053Y85468D01*
X103987Y85440D01*
X103931Y85395D01*
X103903Y85378D01*
X103888Y85361D01*
X103856Y85335D01*
X102656Y84135D01*
X102603Y84061D01*
X102543Y83992D01*
X102531Y83961D01*
X102512Y83935D01*
X102485Y83848D01*
X102451Y83763D01*
X102447Y83722D01*
X102440Y83700D01*
X102441Y83668D01*
X102433Y83597D01*
X102433Y77708D01*
X101242Y76517D01*
X100468Y76517D01*
X100448Y76514D01*
X100429Y76516D01*
X100327Y76494D01*
X100225Y76478D01*
X100208Y76468D01*
X100188Y76464D01*
X100099Y76411D01*
X100008Y76362D01*
X99994Y76348D01*
X99977Y76338D01*
X99910Y76259D01*
X99838Y76184D01*
X99830Y76166D01*
X99817Y76151D01*
X99778Y76055D01*
X99735Y75961D01*
X99733Y75941D01*
X99725Y75923D01*
X99707Y75756D01*
X99707Y39889D01*
X99721Y39798D01*
X99729Y39708D01*
X99741Y39678D01*
X99746Y39646D01*
X99789Y39565D01*
X99825Y39481D01*
X99851Y39449D01*
X99862Y39428D01*
X99885Y39406D01*
X99930Y39350D01*
X100524Y38756D01*
X100598Y38703D01*
X100668Y38643D01*
X100698Y38631D01*
X100724Y38612D01*
X100811Y38585D01*
X100896Y38551D01*
X100937Y38547D01*
X100959Y38540D01*
X100991Y38541D01*
X101063Y38533D01*
X108092Y38533D01*
X109283Y37342D01*
X109283Y36068D01*
X109286Y36048D01*
X109284Y36029D01*
X109306Y35927D01*
X109322Y35825D01*
X109332Y35808D01*
X109336Y35788D01*
X109389Y35699D01*
X109438Y35608D01*
X109452Y35594D01*
X109462Y35577D01*
X109541Y35510D01*
X109616Y35438D01*
X109634Y35430D01*
X109649Y35417D01*
X109745Y35378D01*
X109839Y35335D01*
X109859Y35333D01*
X109877Y35325D01*
X110044Y35307D01*
X112206Y35307D01*
X112226Y35310D01*
X112245Y35308D01*
X112347Y35330D01*
X112449Y35346D01*
X112466Y35356D01*
X112486Y35360D01*
X112575Y35413D01*
X112666Y35462D01*
X112680Y35476D01*
X112697Y35486D01*
X112764Y35565D01*
X112836Y35640D01*
X112844Y35658D01*
X112857Y35673D01*
X112896Y35769D01*
X112939Y35863D01*
X112941Y35883D01*
X112949Y35901D01*
X112967Y36068D01*
X112967Y37342D01*
X114158Y38533D01*
X123444Y38533D01*
X123464Y38536D01*
X123483Y38534D01*
X123585Y38556D01*
X123687Y38572D01*
X123704Y38582D01*
X123724Y38586D01*
X123813Y38639D01*
X123904Y38688D01*
X123918Y38702D01*
X123935Y38712D01*
X124002Y38791D01*
X124074Y38866D01*
X124082Y38884D01*
X124095Y38899D01*
X124134Y38995D01*
X124177Y39089D01*
X124179Y39109D01*
X124187Y39127D01*
X124201Y39253D01*
X125842Y40895D01*
X166258Y40895D01*
X167896Y39256D01*
X167896Y39255D01*
X167918Y39153D01*
X167934Y39051D01*
X167944Y39034D01*
X167948Y39014D01*
X168001Y38925D01*
X168050Y38834D01*
X168064Y38820D01*
X168074Y38803D01*
X168153Y38736D01*
X168228Y38664D01*
X168246Y38656D01*
X168261Y38643D01*
X168357Y38604D01*
X168451Y38561D01*
X168471Y38559D01*
X168489Y38551D01*
X168656Y38533D01*
X177942Y38533D01*
X179133Y37342D01*
X179133Y36068D01*
X179136Y36048D01*
X179134Y36029D01*
X179156Y35927D01*
X179172Y35825D01*
X179182Y35808D01*
X179186Y35788D01*
X179239Y35699D01*
X179288Y35608D01*
X179302Y35594D01*
X179312Y35577D01*
X179391Y35510D01*
X179466Y35438D01*
X179484Y35430D01*
X179499Y35417D01*
X179595Y35378D01*
X179689Y35335D01*
X179709Y35333D01*
X179727Y35325D01*
X179894Y35307D01*
X183706Y35307D01*
X183726Y35310D01*
X183745Y35308D01*
X183847Y35330D01*
X183949Y35346D01*
X183966Y35356D01*
X183986Y35360D01*
X184075Y35413D01*
X184166Y35462D01*
X184180Y35476D01*
X184197Y35486D01*
X184264Y35565D01*
X184336Y35640D01*
X184344Y35658D01*
X184357Y35673D01*
X184396Y35769D01*
X184439Y35863D01*
X184441Y35883D01*
X184449Y35901D01*
X184467Y36068D01*
X184467Y37742D01*
X185658Y38933D01*
X191187Y38933D01*
X191278Y38947D01*
X191369Y38955D01*
X191398Y38967D01*
X191430Y38972D01*
X191511Y39015D01*
X191595Y39051D01*
X191627Y39077D01*
X191648Y39088D01*
X191670Y39111D01*
X191726Y39156D01*
X191920Y39350D01*
X191974Y39424D01*
X192033Y39494D01*
X192045Y39524D01*
X192064Y39550D01*
X192091Y39637D01*
X192125Y39722D01*
X192129Y39763D01*
X192136Y39785D01*
X192135Y39817D01*
X192143Y39889D01*
X192143Y66294D01*
X192140Y66314D01*
X192142Y66333D01*
X192120Y66435D01*
X192104Y66537D01*
X192094Y66554D01*
X192090Y66574D01*
X192037Y66663D01*
X191988Y66754D01*
X191974Y66768D01*
X191964Y66785D01*
X191885Y66852D01*
X191810Y66924D01*
X191792Y66932D01*
X191777Y66945D01*
X191681Y66984D01*
X191587Y67027D01*
X191567Y67029D01*
X191549Y67037D01*
X191382Y67055D01*
X170292Y67055D01*
X168655Y68692D01*
X168655Y84074D01*
X168652Y84094D01*
X168654Y84113D01*
X168632Y84215D01*
X168616Y84317D01*
X168606Y84334D01*
X168602Y84354D01*
X168549Y84443D01*
X168500Y84534D01*
X168486Y84548D01*
X168476Y84565D01*
X168397Y84632D01*
X168322Y84704D01*
X168304Y84712D01*
X168289Y84725D01*
X168193Y84764D01*
X168099Y84807D01*
X168079Y84809D01*
X168061Y84817D01*
X167894Y84835D01*
X144892Y84835D01*
X143491Y86236D01*
X143417Y86289D01*
X143348Y86349D01*
X143318Y86361D01*
X143292Y86380D01*
X143205Y86407D01*
X143120Y86441D01*
X143079Y86445D01*
X143057Y86452D01*
X143024Y86451D01*
X142953Y86459D01*
X142798Y86459D01*
X141309Y87948D01*
X141309Y92552D01*
X142950Y94194D01*
X142954Y94196D01*
X142968Y94210D01*
X142985Y94220D01*
X143052Y94299D01*
X143124Y94374D01*
X143132Y94392D01*
X143145Y94407D01*
X143184Y94503D01*
X143227Y94597D01*
X143229Y94617D01*
X143237Y94635D01*
X143255Y94802D01*
X143255Y95698D01*
X143252Y95718D01*
X143254Y95737D01*
X143232Y95839D01*
X143216Y95941D01*
X143206Y95958D01*
X143202Y95978D01*
X143149Y96067D01*
X143100Y96158D01*
X143086Y96172D01*
X143076Y96189D01*
X143021Y96236D01*
X141309Y97948D01*
X141309Y101854D01*
X141306Y101874D01*
X141308Y101893D01*
X141286Y101995D01*
X141270Y102097D01*
X141260Y102114D01*
X141256Y102134D01*
X141203Y102223D01*
X141154Y102314D01*
X141140Y102328D01*
X141130Y102345D01*
X141051Y102412D01*
X140976Y102484D01*
X140958Y102492D01*
X140943Y102505D01*
X140847Y102544D01*
X140753Y102587D01*
X140733Y102589D01*
X140715Y102597D01*
X140548Y102615D01*
X132192Y102615D01*
X130534Y104273D01*
X130533Y104286D01*
X130521Y104316D01*
X130516Y104347D01*
X130473Y104428D01*
X130437Y104512D01*
X130411Y104544D01*
X130400Y104565D01*
X130377Y104587D01*
X130332Y104643D01*
X130067Y104908D01*
X130067Y110744D01*
X130064Y110764D01*
X130066Y110783D01*
X130044Y110885D01*
X130028Y110987D01*
X130018Y111004D01*
X130014Y111024D01*
X129961Y111113D01*
X129912Y111204D01*
X129898Y111218D01*
X129888Y111235D01*
X129809Y111302D01*
X129734Y111374D01*
X129716Y111382D01*
X129701Y111395D01*
X129605Y111434D01*
X129511Y111477D01*
X129491Y111479D01*
X129473Y111487D01*
X129306Y111505D01*
X125842Y111505D01*
X124205Y113142D01*
X124205Y128158D01*
X125842Y129795D01*
X170068Y129795D01*
X171705Y128158D01*
X171705Y124206D01*
X171708Y124186D01*
X171706Y124167D01*
X171728Y124065D01*
X171744Y123963D01*
X171754Y123946D01*
X171758Y123926D01*
X171811Y123837D01*
X171860Y123746D01*
X171874Y123732D01*
X171884Y123715D01*
X171963Y123648D01*
X172038Y123576D01*
X172056Y123568D01*
X172071Y123555D01*
X172167Y123516D01*
X172261Y123473D01*
X172281Y123471D01*
X172299Y123463D01*
X172466Y123445D01*
X192928Y123445D01*
X194565Y121808D01*
X194565Y105825D01*
X194579Y105735D01*
X194587Y105644D01*
X194599Y105614D01*
X194604Y105583D01*
X194623Y105547D01*
X194625Y105538D01*
X194648Y105501D01*
X194683Y105418D01*
X194709Y105386D01*
X194720Y105365D01*
X194741Y105345D01*
X194751Y105327D01*
X194765Y105316D01*
X194788Y105287D01*
X194983Y105092D01*
X194983Y101126D01*
X194997Y101036D01*
X195005Y100945D01*
X195017Y100915D01*
X195022Y100883D01*
X195065Y100802D01*
X195101Y100718D01*
X195127Y100686D01*
X195138Y100666D01*
X195161Y100643D01*
X195206Y100587D01*
X195491Y100302D01*
X195491Y90717D01*
X195505Y90627D01*
X195513Y90536D01*
X195525Y90506D01*
X195530Y90474D01*
X195573Y90394D01*
X195609Y90310D01*
X195635Y90277D01*
X195646Y90257D01*
X195669Y90235D01*
X195714Y90179D01*
X195835Y90058D01*
X195835Y87794D01*
X195838Y87774D01*
X195836Y87755D01*
X195858Y87653D01*
X195874Y87551D01*
X195884Y87534D01*
X195888Y87514D01*
X195941Y87425D01*
X195990Y87334D01*
X196004Y87320D01*
X196014Y87303D01*
X196093Y87236D01*
X196168Y87164D01*
X196186Y87156D01*
X196201Y87143D01*
X196297Y87104D01*
X196391Y87061D01*
X196411Y87059D01*
X196429Y87051D01*
X196596Y87033D01*
X198042Y87033D01*
X199233Y85842D01*
X199233Y82813D01*
X199248Y82722D01*
X199255Y82631D01*
X199257Y82626D01*
X199257Y65609D01*
X199268Y65539D01*
X199270Y65467D01*
X199288Y65418D01*
X199296Y65367D01*
X199330Y65303D01*
X199355Y65236D01*
X199387Y65195D01*
X199412Y65149D01*
X199464Y65100D01*
X199508Y65044D01*
X199552Y65016D01*
X199590Y64980D01*
X199655Y64950D01*
X199715Y64911D01*
X199766Y64898D01*
X199813Y64876D01*
X199884Y64868D01*
X199954Y64851D01*
X200006Y64855D01*
X200057Y64849D01*
X200128Y64864D01*
X200199Y64870D01*
X200247Y64890D01*
X200298Y64901D01*
X200359Y64938D01*
X200425Y64966D01*
X200481Y65011D01*
X200509Y65027D01*
X200524Y65045D01*
X200556Y65071D01*
X201401Y65916D01*
X201402Y65916D01*
X201421Y65914D01*
X201523Y65936D01*
X201625Y65952D01*
X201642Y65962D01*
X201662Y65966D01*
X201751Y66019D01*
X201842Y66068D01*
X201856Y66082D01*
X201873Y66092D01*
X201940Y66171D01*
X202012Y66246D01*
X202020Y66264D01*
X202033Y66279D01*
X202072Y66375D01*
X202115Y66469D01*
X202117Y66489D01*
X202125Y66507D01*
X202143Y66674D01*
X202143Y82632D01*
X202149Y82646D01*
X202153Y82686D01*
X202160Y82709D01*
X202159Y82741D01*
X202167Y82813D01*
X202167Y85842D01*
X203358Y87033D01*
X208042Y87033D01*
X209233Y85842D01*
X209233Y82813D01*
X209248Y82722D01*
X209255Y82631D01*
X209257Y82626D01*
X209257Y66674D01*
X209260Y66654D01*
X209258Y66635D01*
X209280Y66533D01*
X209296Y66431D01*
X209306Y66414D01*
X209310Y66394D01*
X209363Y66305D01*
X209412Y66214D01*
X209426Y66200D01*
X209436Y66183D01*
X209515Y66116D01*
X209590Y66044D01*
X209608Y66036D01*
X209623Y66023D01*
X209719Y65984D01*
X209813Y65941D01*
X209833Y65939D01*
X209851Y65931D01*
X210018Y65913D01*
X210082Y65913D01*
X211273Y64722D01*
X211273Y57038D01*
X210082Y55847D01*
X201398Y55847D01*
X200556Y56689D01*
X200498Y56731D01*
X200446Y56780D01*
X200399Y56802D01*
X200357Y56833D01*
X200288Y56854D01*
X200223Y56884D01*
X200171Y56890D01*
X200121Y56905D01*
X200050Y56903D01*
X199979Y56911D01*
X199928Y56900D01*
X199876Y56899D01*
X199808Y56874D01*
X199738Y56859D01*
X199693Y56832D01*
X199645Y56814D01*
X199589Y56769D01*
X199527Y56733D01*
X199493Y56693D01*
X199453Y56660D01*
X199414Y56600D01*
X199367Y56546D01*
X199348Y56497D01*
X199320Y56453D01*
X199302Y56384D01*
X199275Y56317D01*
X199267Y56246D01*
X199259Y56215D01*
X199261Y56192D01*
X199257Y56151D01*
X199257Y36627D01*
X199236Y36606D01*
X199194Y36548D01*
X199145Y36496D01*
X199123Y36449D01*
X199093Y36407D01*
X199072Y36338D01*
X199041Y36273D01*
X199036Y36221D01*
X199020Y36171D01*
X199022Y36100D01*
X199014Y36029D01*
X199025Y35978D01*
X199027Y35926D01*
X199051Y35858D01*
X199067Y35788D01*
X199093Y35743D01*
X199111Y35695D01*
X199156Y35639D01*
X199193Y35577D01*
X199232Y35543D01*
X199265Y35503D01*
X199325Y35464D01*
X199380Y35417D01*
X199428Y35398D01*
X199472Y35370D01*
X199541Y35352D01*
X199608Y35325D01*
X199679Y35317D01*
X199710Y35309D01*
X199734Y35311D01*
X199775Y35307D01*
X201106Y35307D01*
X201126Y35310D01*
X201145Y35308D01*
X201247Y35330D01*
X201349Y35346D01*
X201366Y35356D01*
X201386Y35360D01*
X201475Y35413D01*
X201566Y35462D01*
X201580Y35476D01*
X201597Y35486D01*
X201664Y35565D01*
X201736Y35640D01*
X201744Y35658D01*
X201757Y35673D01*
X201796Y35769D01*
X201839Y35863D01*
X201841Y35883D01*
X201849Y35901D01*
X201867Y36068D01*
X201867Y37342D01*
X203058Y38533D01*
X214242Y38533D01*
X215433Y37342D01*
X215433Y26158D01*
X214242Y24967D01*
X203058Y24967D01*
X201867Y26158D01*
X201867Y27432D01*
X201866Y27443D01*
X201866Y27449D01*
X201865Y27457D01*
X201866Y27471D01*
X201844Y27573D01*
X201828Y27675D01*
X201818Y27692D01*
X201814Y27712D01*
X201761Y27801D01*
X201712Y27892D01*
X201698Y27906D01*
X201688Y27923D01*
X201609Y27990D01*
X201534Y28062D01*
X201516Y28070D01*
X201501Y28083D01*
X201405Y28122D01*
X201311Y28165D01*
X201291Y28167D01*
X201273Y28175D01*
X201106Y28193D01*
X196983Y28193D01*
X196893Y28179D01*
X196802Y28171D01*
X196773Y28159D01*
X196741Y28154D01*
X196660Y28111D01*
X196576Y28075D01*
X196544Y28049D01*
X196523Y28038D01*
X196503Y28017D01*
X196501Y28016D01*
X196496Y28011D01*
X196445Y27970D01*
X195342Y26867D01*
X185658Y26867D01*
X184555Y27970D01*
X184481Y28023D01*
X184412Y28083D01*
X184381Y28095D01*
X184355Y28114D01*
X184268Y28141D01*
X184183Y28175D01*
X184142Y28179D01*
X184120Y28186D01*
X184088Y28185D01*
X184017Y28193D01*
X179894Y28193D01*
X179874Y28190D01*
X179855Y28192D01*
X179753Y28170D01*
X179651Y28154D01*
X179634Y28144D01*
X179614Y28140D01*
X179525Y28087D01*
X179434Y28038D01*
X179420Y28024D01*
X179403Y28014D01*
X179336Y27935D01*
X179264Y27860D01*
X179256Y27842D01*
X179243Y27827D01*
X179204Y27731D01*
X179161Y27637D01*
X179159Y27617D01*
X179151Y27599D01*
X179133Y27432D01*
X179133Y26158D01*
X177942Y24967D01*
X168656Y24967D01*
X168636Y24964D01*
X168617Y24966D01*
X168515Y24944D01*
X168413Y24928D01*
X168396Y24918D01*
X168376Y24914D01*
X168287Y24861D01*
X168196Y24812D01*
X168182Y24798D01*
X168165Y24788D01*
X168098Y24709D01*
X168026Y24634D01*
X168018Y24616D01*
X168005Y24601D01*
X167966Y24505D01*
X167923Y24411D01*
X167921Y24391D01*
X167913Y24373D01*
X167895Y24206D01*
X167895Y11542D01*
X166258Y9905D01*
X125842Y9905D01*
X124205Y11542D01*
X124205Y24206D01*
X124202Y24226D01*
X124204Y24245D01*
X124182Y24347D01*
X124166Y24449D01*
X124156Y24466D01*
X124152Y24486D01*
X124099Y24575D01*
X124050Y24666D01*
X124036Y24680D01*
X124026Y24697D01*
X123947Y24764D01*
X123872Y24836D01*
X123854Y24844D01*
X123839Y24857D01*
X123743Y24896D01*
X123649Y24939D01*
X123629Y24941D01*
X123611Y24949D01*
X123444Y24967D01*
X114158Y24967D01*
X112967Y26158D01*
X112967Y27432D01*
X112966Y27443D01*
X112966Y27449D01*
X112965Y27457D01*
X112966Y27471D01*
X112944Y27573D01*
X112928Y27675D01*
X112918Y27692D01*
X112914Y27712D01*
X112861Y27801D01*
X112812Y27892D01*
X112798Y27906D01*
X112788Y27923D01*
X112709Y27990D01*
X112634Y28062D01*
X112616Y28070D01*
X112601Y28083D01*
X112505Y28122D01*
X112411Y28165D01*
X112391Y28167D01*
X112373Y28175D01*
X112206Y28193D01*
X110044Y28193D01*
X110024Y28190D01*
X110005Y28192D01*
X109903Y28170D01*
X109801Y28154D01*
X109784Y28144D01*
X109764Y28140D01*
X109675Y28087D01*
X109584Y28038D01*
X109570Y28024D01*
X109553Y28014D01*
X109486Y27935D01*
X109414Y27860D01*
X109406Y27842D01*
X109393Y27827D01*
X109354Y27731D01*
X109311Y27637D01*
X109309Y27617D01*
X109301Y27599D01*
X109283Y27432D01*
X109283Y26158D01*
X108092Y24967D01*
X96908Y24967D01*
X95717Y26158D01*
X95717Y33187D01*
X95703Y33278D01*
X95695Y33368D01*
X95683Y33398D01*
X95678Y33430D01*
X95635Y33511D01*
X95599Y33595D01*
X95573Y33627D01*
X95562Y33648D01*
X95539Y33670D01*
X95494Y33726D01*
X92593Y36627D01*
X92593Y75756D01*
X92590Y75776D01*
X92592Y75795D01*
X92570Y75897D01*
X92554Y75999D01*
X92544Y76016D01*
X92540Y76036D01*
X92487Y76125D01*
X92438Y76216D01*
X92424Y76230D01*
X92414Y76247D01*
X92335Y76314D01*
X92260Y76386D01*
X92242Y76394D01*
X92227Y76407D01*
X92131Y76446D01*
X92037Y76489D01*
X92017Y76491D01*
X91999Y76499D01*
X91832Y76517D01*
X91558Y76517D01*
X90367Y77708D01*
X90367Y87392D01*
X91558Y88583D01*
X97447Y88583D01*
X97537Y88597D01*
X97628Y88605D01*
X97657Y88617D01*
X97689Y88622D01*
X97770Y88665D01*
X97854Y88701D01*
X97886Y88727D01*
X97907Y88738D01*
X97929Y88761D01*
X97985Y88806D01*
X102113Y92934D01*
X102155Y92992D01*
X102204Y93044D01*
X102226Y93091D01*
X102257Y93133D01*
X102278Y93202D01*
X102308Y93267D01*
X102314Y93319D01*
X102329Y93369D01*
X102327Y93440D01*
X102335Y93511D01*
X102324Y93562D01*
X102323Y93614D01*
X102298Y93682D01*
X102283Y93752D01*
X102256Y93796D01*
X102238Y93845D01*
X102193Y93901D01*
X102156Y93963D01*
X102117Y93997D01*
X102084Y94037D01*
X102024Y94076D01*
X101970Y94123D01*
X101921Y94142D01*
X101877Y94170D01*
X101808Y94188D01*
X101741Y94215D01*
X101670Y94223D01*
X101639Y94231D01*
X101616Y94229D01*
X101575Y94233D01*
X57085Y94233D01*
X56995Y94219D01*
X56904Y94211D01*
X56875Y94199D01*
X56843Y94194D01*
X56762Y94151D01*
X56678Y94115D01*
X56646Y94089D01*
X56625Y94078D01*
X56603Y94055D01*
X56547Y94010D01*
X55627Y93090D01*
X-2540Y93090D01*
X-2598Y93082D01*
X-2656Y93084D01*
X-2738Y93062D01*
X-2822Y93050D01*
X-2875Y93027D01*
X-2931Y93012D01*
X-3004Y92969D01*
X-3081Y92934D01*
X-3126Y92896D01*
X-3176Y92867D01*
X-3234Y92805D01*
X-3298Y92751D01*
X-3330Y92702D01*
X-3370Y92659D01*
X-3409Y92584D01*
X-3456Y92514D01*
X-3473Y92458D01*
X-3500Y92406D01*
X-3511Y92338D01*
X-3541Y92243D01*
X-3544Y92143D01*
X-3555Y92075D01*
X-3555Y43180D01*
X-3547Y43122D01*
X-3549Y43064D01*
X-3527Y42982D01*
X-3515Y42899D01*
X-3492Y42845D01*
X-3477Y42789D01*
X-3434Y42716D01*
X-3399Y42639D01*
X-3361Y42594D01*
X-3332Y42544D01*
X-3270Y42486D01*
X-3216Y42422D01*
X-3167Y42390D01*
X-3124Y42350D01*
X-3049Y42311D01*
X-2979Y42265D01*
X-2923Y42247D01*
X-2871Y42220D01*
X-2803Y42209D01*
X-2708Y42179D01*
X-2608Y42176D01*
X-2540Y42165D01*
X3811Y42165D01*
X3811Y4572D01*
X3814Y4552D01*
X3812Y4533D01*
X3834Y4431D01*
X3850Y4329D01*
X3860Y4312D01*
X3864Y4292D01*
X3917Y4203D01*
X3966Y4112D01*
X3980Y4098D01*
X3990Y4081D01*
X4069Y4014D01*
X4144Y3942D01*
X4162Y3934D01*
X4177Y3921D01*
X4273Y3882D01*
X4367Y3839D01*
X4387Y3837D01*
X4405Y3829D01*
X4572Y3811D01*
X319278Y3811D01*
X319298Y3814D01*
X319317Y3812D01*
X319419Y3834D01*
X319521Y3850D01*
X319538Y3860D01*
X319558Y3864D01*
X319647Y3917D01*
X319738Y3966D01*
X319752Y3980D01*
X319769Y3990D01*
X319836Y4069D01*
X319908Y4144D01*
X319916Y4162D01*
X319929Y4177D01*
X319968Y4273D01*
X320011Y4367D01*
X320013Y4387D01*
X320021Y4405D01*
X320039Y4572D01*
X320039Y39625D01*
X323850Y39625D01*
X323908Y39633D01*
X323966Y39631D01*
X324048Y39653D01*
X324132Y39665D01*
X324185Y39689D01*
X324241Y39703D01*
X324314Y39746D01*
X324391Y39781D01*
X324436Y39819D01*
X324486Y39849D01*
X324544Y39910D01*
X324608Y39965D01*
X324640Y40013D01*
X324680Y40056D01*
X324719Y40131D01*
X324766Y40201D01*
X324783Y40257D01*
X324810Y40309D01*
X324821Y40377D01*
X324851Y40472D01*
X324854Y40572D01*
X324865Y40640D01*
X324865Y89535D01*
X324857Y89593D01*
X324859Y89651D01*
X324837Y89733D01*
X324825Y89817D01*
X324802Y89870D01*
X324787Y89926D01*
X324744Y89999D01*
X324709Y90076D01*
X324671Y90121D01*
X324642Y90171D01*
X324580Y90229D01*
X324526Y90293D01*
X324477Y90325D01*
X324434Y90365D01*
X324359Y90404D01*
X324289Y90451D01*
X324233Y90468D01*
X324181Y90495D01*
X324113Y90506D01*
X324018Y90536D01*
X323918Y90539D01*
X323850Y90550D01*
X265683Y90550D01*
X264763Y91470D01*
G37*
G36*
X158770Y157992D02*
X158770Y157992D01*
X158789Y157990D01*
X158891Y158012D01*
X158993Y158029D01*
X159010Y158038D01*
X159030Y158042D01*
X159119Y158095D01*
X159210Y158144D01*
X159224Y158158D01*
X159241Y158168D01*
X159308Y158247D01*
X159380Y158322D01*
X159388Y158340D01*
X159401Y158355D01*
X159440Y158451D01*
X159483Y158545D01*
X159485Y158565D01*
X159493Y158583D01*
X159511Y158750D01*
X159511Y196850D01*
X159508Y196870D01*
X159510Y196889D01*
X159488Y196991D01*
X159472Y197093D01*
X159462Y197110D01*
X159458Y197130D01*
X159405Y197219D01*
X159356Y197310D01*
X159342Y197324D01*
X159332Y197341D01*
X159253Y197408D01*
X159178Y197480D01*
X159160Y197488D01*
X159145Y197501D01*
X159049Y197540D01*
X158955Y197583D01*
X158935Y197585D01*
X158917Y197593D01*
X158750Y197611D01*
X101600Y197611D01*
X101580Y197608D01*
X101561Y197610D01*
X101459Y197588D01*
X101357Y197572D01*
X101340Y197562D01*
X101320Y197558D01*
X101231Y197505D01*
X101140Y197456D01*
X101126Y197442D01*
X101109Y197432D01*
X101042Y197353D01*
X100971Y197278D01*
X100962Y197260D01*
X100949Y197245D01*
X100910Y197149D01*
X100867Y197055D01*
X100865Y197035D01*
X100857Y197017D01*
X100839Y196850D01*
X100839Y158750D01*
X100842Y158730D01*
X100840Y158711D01*
X100862Y158609D01*
X100879Y158507D01*
X100888Y158490D01*
X100892Y158470D01*
X100945Y158381D01*
X100994Y158290D01*
X101008Y158276D01*
X101018Y158259D01*
X101097Y158192D01*
X101172Y158121D01*
X101190Y158112D01*
X101205Y158099D01*
X101301Y158060D01*
X101395Y158017D01*
X101415Y158015D01*
X101433Y158007D01*
X101600Y157989D01*
X158750Y157989D01*
X158770Y157992D01*
G37*
G36*
X191790Y101794D02*
X191790Y101794D01*
X191809Y101792D01*
X191911Y101814D01*
X192013Y101830D01*
X192030Y101840D01*
X192050Y101844D01*
X192139Y101897D01*
X192230Y101946D01*
X192244Y101960D01*
X192261Y101970D01*
X192328Y102049D01*
X192400Y102124D01*
X192408Y102142D01*
X192421Y102157D01*
X192460Y102253D01*
X192503Y102347D01*
X192505Y102367D01*
X192513Y102385D01*
X192531Y102552D01*
X192531Y120650D01*
X192528Y120670D01*
X192530Y120689D01*
X192508Y120791D01*
X192492Y120893D01*
X192482Y120910D01*
X192478Y120930D01*
X192425Y121019D01*
X192376Y121110D01*
X192362Y121124D01*
X192352Y121141D01*
X192273Y121208D01*
X192198Y121280D01*
X192180Y121288D01*
X192165Y121301D01*
X192069Y121340D01*
X191975Y121383D01*
X191955Y121385D01*
X191937Y121393D01*
X191770Y121411D01*
X169671Y121411D01*
X169671Y127000D01*
X169668Y127020D01*
X169670Y127039D01*
X169648Y127141D01*
X169632Y127243D01*
X169622Y127260D01*
X169618Y127280D01*
X169565Y127369D01*
X169516Y127460D01*
X169502Y127474D01*
X169492Y127491D01*
X169413Y127558D01*
X169338Y127630D01*
X169320Y127638D01*
X169305Y127651D01*
X169209Y127690D01*
X169115Y127733D01*
X169095Y127735D01*
X169077Y127743D01*
X168910Y127761D01*
X127000Y127761D01*
X126980Y127758D01*
X126961Y127760D01*
X126859Y127738D01*
X126757Y127722D01*
X126740Y127712D01*
X126720Y127708D01*
X126631Y127655D01*
X126540Y127606D01*
X126526Y127592D01*
X126509Y127582D01*
X126442Y127503D01*
X126371Y127428D01*
X126362Y127410D01*
X126349Y127395D01*
X126310Y127299D01*
X126267Y127205D01*
X126265Y127185D01*
X126257Y127167D01*
X126239Y127000D01*
X126239Y114782D01*
X126242Y114762D01*
X126240Y114743D01*
X126262Y114641D01*
X126279Y114539D01*
X126288Y114522D01*
X126292Y114502D01*
X126345Y114413D01*
X126394Y114322D01*
X126408Y114308D01*
X126418Y114291D01*
X126497Y114224D01*
X126572Y114152D01*
X126590Y114144D01*
X126605Y114131D01*
X126701Y114092D01*
X126795Y114049D01*
X126815Y114047D01*
X126833Y114039D01*
X127000Y114021D01*
X130126Y114021D01*
X130385Y113762D01*
X130459Y113709D01*
X130529Y113649D01*
X130559Y113637D01*
X130585Y113618D01*
X130672Y113591D01*
X130757Y113557D01*
X130798Y113553D01*
X130820Y113546D01*
X130852Y113547D01*
X130924Y113539D01*
X132589Y113539D01*
X132589Y105410D01*
X132592Y105390D01*
X132590Y105371D01*
X132612Y105269D01*
X132629Y105167D01*
X132638Y105150D01*
X132642Y105130D01*
X132695Y105041D01*
X132744Y104950D01*
X132758Y104936D01*
X132768Y104919D01*
X132847Y104852D01*
X132922Y104781D01*
X132940Y104772D01*
X132955Y104759D01*
X133051Y104720D01*
X133145Y104677D01*
X133165Y104675D01*
X133183Y104667D01*
X133350Y104649D01*
X180025Y104649D01*
X180818Y103856D01*
X180892Y103803D01*
X180961Y103743D01*
X180991Y103731D01*
X181017Y103712D01*
X181104Y103685D01*
X181189Y103651D01*
X181230Y103647D01*
X181253Y103640D01*
X181285Y103641D01*
X181356Y103633D01*
X184466Y103633D01*
X184913Y103186D01*
X184913Y102552D01*
X184916Y102532D01*
X184914Y102513D01*
X184936Y102411D01*
X184952Y102309D01*
X184962Y102292D01*
X184966Y102272D01*
X185019Y102183D01*
X185068Y102092D01*
X185082Y102078D01*
X185092Y102061D01*
X185171Y101994D01*
X185246Y101922D01*
X185264Y101914D01*
X185279Y101901D01*
X185375Y101862D01*
X185469Y101819D01*
X185489Y101817D01*
X185507Y101809D01*
X185674Y101791D01*
X191770Y101791D01*
X191790Y101794D01*
G37*
G36*
X165120Y11942D02*
X165120Y11942D01*
X165139Y11940D01*
X165241Y11962D01*
X165343Y11979D01*
X165360Y11988D01*
X165380Y11992D01*
X165469Y12045D01*
X165560Y12094D01*
X165574Y12108D01*
X165591Y12118D01*
X165658Y12197D01*
X165730Y12272D01*
X165738Y12290D01*
X165751Y12305D01*
X165790Y12401D01*
X165833Y12495D01*
X165835Y12515D01*
X165843Y12533D01*
X165861Y12700D01*
X165861Y38100D01*
X165858Y38120D01*
X165860Y38139D01*
X165838Y38241D01*
X165822Y38343D01*
X165812Y38360D01*
X165808Y38380D01*
X165755Y38469D01*
X165706Y38560D01*
X165692Y38574D01*
X165682Y38591D01*
X165603Y38658D01*
X165528Y38730D01*
X165510Y38738D01*
X165495Y38751D01*
X165399Y38790D01*
X165305Y38833D01*
X165285Y38835D01*
X165267Y38843D01*
X165100Y38861D01*
X127000Y38861D01*
X126980Y38858D01*
X126961Y38860D01*
X126859Y38838D01*
X126757Y38822D01*
X126740Y38812D01*
X126720Y38808D01*
X126631Y38755D01*
X126540Y38706D01*
X126526Y38692D01*
X126509Y38682D01*
X126442Y38603D01*
X126371Y38528D01*
X126362Y38510D01*
X126349Y38495D01*
X126310Y38399D01*
X126267Y38305D01*
X126265Y38285D01*
X126257Y38267D01*
X126239Y38100D01*
X126239Y12700D01*
X126242Y12680D01*
X126240Y12661D01*
X126262Y12559D01*
X126279Y12457D01*
X126288Y12440D01*
X126292Y12420D01*
X126345Y12331D01*
X126394Y12240D01*
X126408Y12226D01*
X126418Y12209D01*
X126497Y12142D01*
X126572Y12071D01*
X126590Y12062D01*
X126605Y12049D01*
X126701Y12010D01*
X126795Y11967D01*
X126815Y11965D01*
X126833Y11957D01*
X127000Y11939D01*
X165100Y11939D01*
X165120Y11942D01*
G37*
G36*
X241320Y69092D02*
X241320Y69092D01*
X241339Y69090D01*
X241441Y69112D01*
X241543Y69129D01*
X241560Y69138D01*
X241580Y69142D01*
X241669Y69195D01*
X241760Y69244D01*
X241774Y69258D01*
X241791Y69268D01*
X241858Y69347D01*
X241930Y69422D01*
X241938Y69440D01*
X241951Y69455D01*
X241990Y69551D01*
X242033Y69645D01*
X242035Y69665D01*
X242043Y69683D01*
X242061Y69850D01*
X242061Y88900D01*
X242059Y88912D01*
X242060Y88921D01*
X242059Y88927D01*
X242060Y88939D01*
X242038Y89041D01*
X242022Y89143D01*
X242012Y89160D01*
X242008Y89180D01*
X241955Y89269D01*
X241906Y89360D01*
X241892Y89374D01*
X241882Y89391D01*
X241803Y89458D01*
X241728Y89530D01*
X241710Y89538D01*
X241695Y89551D01*
X241599Y89590D01*
X241505Y89633D01*
X241485Y89635D01*
X241467Y89643D01*
X241300Y89661D01*
X214630Y89661D01*
X214610Y89658D01*
X214591Y89660D01*
X214489Y89638D01*
X214387Y89622D01*
X214370Y89612D01*
X214350Y89608D01*
X214261Y89555D01*
X214170Y89506D01*
X214156Y89492D01*
X214139Y89482D01*
X214072Y89403D01*
X214001Y89328D01*
X213992Y89310D01*
X213979Y89295D01*
X213940Y89199D01*
X213897Y89105D01*
X213895Y89085D01*
X213887Y89067D01*
X213869Y88900D01*
X213869Y69850D01*
X213872Y69830D01*
X213870Y69811D01*
X213892Y69709D01*
X213909Y69607D01*
X213918Y69590D01*
X213922Y69570D01*
X213975Y69481D01*
X214024Y69390D01*
X214038Y69376D01*
X214048Y69359D01*
X214127Y69292D01*
X214202Y69221D01*
X214220Y69212D01*
X214235Y69199D01*
X214331Y69160D01*
X214425Y69117D01*
X214445Y69115D01*
X214463Y69107D01*
X214630Y69089D01*
X241300Y69089D01*
X241320Y69092D01*
G37*
G36*
X129560Y62742D02*
X129560Y62742D01*
X129579Y62740D01*
X129681Y62762D01*
X129783Y62779D01*
X129800Y62788D01*
X129820Y62792D01*
X129909Y62845D01*
X130000Y62894D01*
X130014Y62908D01*
X130031Y62918D01*
X130098Y62997D01*
X130170Y63072D01*
X130178Y63090D01*
X130191Y63105D01*
X130230Y63201D01*
X130273Y63295D01*
X130275Y63315D01*
X130283Y63333D01*
X130301Y63500D01*
X130301Y85090D01*
X130298Y85110D01*
X130300Y85129D01*
X130278Y85231D01*
X130262Y85333D01*
X130252Y85350D01*
X130248Y85370D01*
X130195Y85459D01*
X130146Y85550D01*
X130132Y85564D01*
X130122Y85581D01*
X130043Y85648D01*
X129968Y85720D01*
X129950Y85728D01*
X129935Y85741D01*
X129839Y85780D01*
X129745Y85823D01*
X129725Y85825D01*
X129707Y85833D01*
X129540Y85851D01*
X107950Y85851D01*
X107930Y85848D01*
X107911Y85850D01*
X107809Y85828D01*
X107707Y85812D01*
X107690Y85802D01*
X107670Y85798D01*
X107581Y85745D01*
X107490Y85696D01*
X107476Y85682D01*
X107459Y85672D01*
X107392Y85593D01*
X107321Y85518D01*
X107312Y85500D01*
X107299Y85485D01*
X107260Y85389D01*
X107217Y85295D01*
X107215Y85275D01*
X107207Y85257D01*
X107189Y85090D01*
X107189Y63500D01*
X107192Y63480D01*
X107190Y63461D01*
X107212Y63359D01*
X107229Y63257D01*
X107238Y63240D01*
X107242Y63220D01*
X107295Y63131D01*
X107344Y63040D01*
X107358Y63026D01*
X107368Y63009D01*
X107447Y62942D01*
X107522Y62871D01*
X107540Y62862D01*
X107555Y62849D01*
X107651Y62810D01*
X107745Y62767D01*
X107765Y62765D01*
X107783Y62757D01*
X107950Y62739D01*
X129540Y62739D01*
X129560Y62742D01*
G37*
G36*
X222609Y100854D02*
X222609Y100854D01*
X222700Y100861D01*
X222730Y100873D01*
X222762Y100879D01*
X222842Y100921D01*
X222926Y100957D01*
X222958Y100983D01*
X222979Y100994D01*
X223001Y101017D01*
X223057Y101062D01*
X224268Y102273D01*
X226229Y103085D01*
X233680Y103085D01*
X233700Y103088D01*
X233719Y103086D01*
X233821Y103108D01*
X233923Y103124D01*
X233940Y103134D01*
X233960Y103138D01*
X234049Y103191D01*
X234140Y103240D01*
X234154Y103254D01*
X234171Y103264D01*
X234238Y103343D01*
X234310Y103418D01*
X234318Y103436D01*
X234331Y103451D01*
X234370Y103547D01*
X234413Y103641D01*
X234415Y103661D01*
X234423Y103679D01*
X234441Y103846D01*
X234441Y120650D01*
X234439Y120662D01*
X234440Y120671D01*
X234439Y120677D01*
X234440Y120689D01*
X234418Y120791D01*
X234402Y120893D01*
X234392Y120910D01*
X234388Y120930D01*
X234335Y121019D01*
X234286Y121110D01*
X234272Y121124D01*
X234262Y121141D01*
X234183Y121208D01*
X234108Y121280D01*
X234090Y121288D01*
X234075Y121301D01*
X233979Y121340D01*
X233885Y121383D01*
X233865Y121385D01*
X233847Y121393D01*
X233680Y121411D01*
X213360Y121411D01*
X213340Y121408D01*
X213321Y121410D01*
X213219Y121388D01*
X213117Y121372D01*
X213100Y121362D01*
X213080Y121358D01*
X212991Y121305D01*
X212900Y121256D01*
X212886Y121242D01*
X212869Y121232D01*
X212802Y121153D01*
X212731Y121078D01*
X212722Y121060D01*
X212709Y121045D01*
X212670Y120949D01*
X212627Y120855D01*
X212625Y120835D01*
X212617Y120817D01*
X212599Y120650D01*
X212599Y115214D01*
X212614Y115124D01*
X212621Y115033D01*
X212633Y115003D01*
X212639Y114971D01*
X212681Y114890D01*
X212717Y114806D01*
X212743Y114774D01*
X212754Y114754D01*
X212777Y114731D01*
X212822Y114675D01*
X213471Y114026D01*
X213471Y104974D01*
X212822Y104325D01*
X212769Y104251D01*
X212709Y104181D01*
X212697Y104151D01*
X212678Y104125D01*
X212651Y104038D01*
X212617Y103953D01*
X212613Y103912D01*
X212606Y103890D01*
X212607Y103858D01*
X212599Y103786D01*
X212599Y101600D01*
X212602Y101580D01*
X212600Y101561D01*
X212622Y101459D01*
X212639Y101357D01*
X212648Y101340D01*
X212652Y101320D01*
X212705Y101231D01*
X212754Y101140D01*
X212768Y101126D01*
X212778Y101109D01*
X212857Y101042D01*
X212932Y100971D01*
X212950Y100962D01*
X212965Y100949D01*
X213061Y100910D01*
X213155Y100867D01*
X213175Y100865D01*
X213193Y100857D01*
X213360Y100839D01*
X222519Y100839D01*
X222609Y100854D01*
G37*
G36*
X192164Y69092D02*
X192164Y69092D01*
X192183Y69090D01*
X192285Y69112D01*
X192387Y69129D01*
X192404Y69138D01*
X192424Y69142D01*
X192513Y69195D01*
X192604Y69244D01*
X192618Y69258D01*
X192635Y69268D01*
X192702Y69347D01*
X192774Y69422D01*
X192782Y69440D01*
X192795Y69455D01*
X192834Y69551D01*
X192877Y69645D01*
X192879Y69665D01*
X192887Y69683D01*
X192905Y69850D01*
X192905Y82316D01*
X192911Y82330D01*
X192915Y82371D01*
X192922Y82393D01*
X192921Y82425D01*
X192929Y82497D01*
X192929Y85526D01*
X193578Y86175D01*
X193631Y86249D01*
X193691Y86319D01*
X193703Y86349D01*
X193722Y86375D01*
X193749Y86462D01*
X193783Y86547D01*
X193787Y86588D01*
X193794Y86610D01*
X193793Y86642D01*
X193801Y86714D01*
X193801Y87948D01*
X193798Y87968D01*
X193800Y87987D01*
X193778Y88089D01*
X193762Y88191D01*
X193752Y88208D01*
X193748Y88228D01*
X193695Y88317D01*
X193646Y88408D01*
X193632Y88422D01*
X193622Y88439D01*
X193543Y88506D01*
X193468Y88578D01*
X193450Y88586D01*
X193435Y88599D01*
X193339Y88638D01*
X193245Y88681D01*
X193225Y88683D01*
X193207Y88691D01*
X193040Y88709D01*
X185674Y88709D01*
X185654Y88706D01*
X185635Y88708D01*
X185533Y88686D01*
X185431Y88670D01*
X185414Y88660D01*
X185394Y88656D01*
X185305Y88603D01*
X185214Y88554D01*
X185200Y88540D01*
X185183Y88530D01*
X185116Y88451D01*
X185044Y88376D01*
X185036Y88358D01*
X185023Y88343D01*
X184984Y88247D01*
X184941Y88153D01*
X184939Y88133D01*
X184931Y88115D01*
X184913Y87948D01*
X184913Y87314D01*
X184466Y86867D01*
X171450Y86867D01*
X171430Y86864D01*
X171411Y86866D01*
X171309Y86844D01*
X171207Y86828D01*
X171190Y86818D01*
X171170Y86814D01*
X171081Y86761D01*
X170990Y86712D01*
X170976Y86698D01*
X170959Y86688D01*
X170892Y86609D01*
X170821Y86534D01*
X170812Y86516D01*
X170799Y86501D01*
X170760Y86405D01*
X170717Y86311D01*
X170715Y86291D01*
X170707Y86273D01*
X170689Y86106D01*
X170689Y69850D01*
X170692Y69830D01*
X170690Y69811D01*
X170712Y69709D01*
X170729Y69607D01*
X170738Y69590D01*
X170742Y69570D01*
X170795Y69481D01*
X170844Y69390D01*
X170858Y69376D01*
X170868Y69359D01*
X170947Y69292D01*
X171022Y69221D01*
X171040Y69212D01*
X171055Y69199D01*
X171151Y69160D01*
X171245Y69117D01*
X171265Y69115D01*
X171283Y69107D01*
X171450Y69089D01*
X192144Y69089D01*
X192164Y69092D01*
G37*
%LPC*%
G36*
X198358Y103467D02*
X198358Y103467D01*
X197167Y104658D01*
X197167Y114342D01*
X198358Y115533D01*
X203042Y115533D01*
X204233Y114342D01*
X204233Y104658D01*
X203042Y103467D01*
X198358Y103467D01*
G37*
%LPD*%
D10*
X177800Y128150D03*
X177800Y113150D03*
X228600Y128150D03*
X228600Y113150D03*
X177800Y62350D03*
X177800Y77350D03*
X228600Y62350D03*
X228600Y77350D03*
D11*
X188950Y97750D03*
X188950Y102750D03*
X188950Y92750D03*
X188950Y87750D03*
X217450Y97750D03*
X217450Y102750D03*
X217450Y92750D03*
X217450Y87750D03*
D12*
X200700Y109500D03*
X195700Y109500D03*
X205700Y109500D03*
X210700Y109500D03*
X200700Y81000D03*
X195700Y81000D03*
X205700Y81000D03*
X210700Y81000D03*
D13*
X203200Y95250D03*
D14*
X205740Y60880D03*
X205740Y50880D03*
D15*
X157850Y31750D03*
X172350Y31750D03*
X208650Y31750D03*
X223150Y31750D03*
D10*
X190500Y17900D03*
X190500Y32900D03*
D16*
X295100Y97790D03*
D17*
X292100Y56515D03*
X292100Y139065D03*
D18*
X311150Y113665D03*
X292100Y113665D03*
X273050Y113665D03*
X292100Y81915D03*
X311150Y81915D03*
X273050Y81915D03*
D15*
X247650Y127900D03*
X247650Y113400D03*
D10*
X233800Y146050D03*
X248800Y146050D03*
D19*
X247650Y177800D03*
D20*
X119350Y95250D03*
X119350Y90250D03*
X119350Y100250D03*
X147350Y95250D03*
X147350Y90250D03*
X147350Y100250D03*
D21*
X133350Y109250D03*
X138350Y109250D03*
X128350Y109250D03*
X133350Y81250D03*
X138350Y81250D03*
X128350Y81250D03*
D22*
X133350Y95250D03*
D15*
X146050Y64400D03*
X146050Y49900D03*
X102500Y31750D03*
X88000Y31750D03*
X134250Y31750D03*
X119750Y31750D03*
D10*
X81400Y82550D03*
X96400Y82550D03*
D16*
X26210Y100330D03*
D17*
X29210Y141605D03*
X29210Y59055D03*
D18*
X10160Y84455D03*
X29210Y84455D03*
X48260Y84455D03*
X29210Y116205D03*
X10160Y116205D03*
X48260Y116205D03*
D10*
X152400Y134500D03*
X152400Y119500D03*
X133350Y134500D03*
X133350Y119500D03*
D23*
X114300Y177800D03*
X88900Y177800D03*
D19*
X285750Y177800D03*
D24*
X174250Y177800D03*
X143250Y177800D03*
D10*
X118110Y54730D03*
X118110Y69730D03*
X257690Y97790D03*
X242690Y97790D03*
D18*
X165100Y109220D03*
X227330Y86360D03*
X217170Y116840D03*
X189230Y73660D03*
X133350Y19050D03*
X146050Y19050D03*
X158750Y19050D03*
X121920Y80010D03*
X152400Y190500D03*
X152400Y177800D03*
X152400Y165100D03*
X133350Y190500D03*
X133350Y177800D03*
X133350Y165100D03*
X165100Y123190D03*
X189230Y116840D03*
X152400Y109220D03*
X189230Y81280D03*
X217170Y109220D03*
X218440Y81280D03*
X143510Y119380D03*
X113030Y80010D03*
X236220Y86360D03*
X146050Y31750D03*
X121920Y106680D03*
X114300Y107950D03*
X96520Y91440D03*
X146050Y82550D03*
X146050Y76200D03*
X198120Y119380D03*
X207010Y119380D03*
X214630Y64770D03*
X80010Y72390D03*
X71120Y87630D03*
X71120Y78740D03*
X128270Y144780D03*
X138430Y144780D03*
X147320Y144780D03*
X157480Y144780D03*
X173990Y138430D03*
X182880Y138430D03*
X223520Y140970D03*
X223520Y149860D03*
X217170Y127000D03*
X217170Y134620D03*
X121920Y133350D03*
X165100Y133350D03*
X240030Y60960D03*
X232410Y52070D03*
X222250Y52070D03*
X234950Y38100D03*
X234950Y25400D03*
X200660Y19050D03*
X180340Y19050D03*
X194310Y8890D03*
X87630Y20320D03*
X76200Y27940D03*
X76200Y38100D03*
X87630Y44450D03*
X185420Y8890D03*
X123190Y44450D03*
X111760Y44450D03*
X105410Y54610D03*
X157480Y48260D03*
X129540Y53340D03*
X165100Y63500D03*
X173990Y52070D03*
X181610Y52070D03*
X189230Y63500D03*
X170180Y163830D03*
X179070Y163830D03*
X170180Y191770D03*
X179070Y191770D03*
X184150Y186690D03*
X184150Y177800D03*
X184150Y168910D03*
X120650Y114300D03*
X128270Y90170D03*
X128270Y100330D03*
X138430Y90170D03*
X138430Y100330D03*
X198120Y100330D03*
X198120Y90170D03*
X208280Y90170D03*
X208280Y100330D03*
D25*
X147350Y95250D02*
X139700Y95250D01*
X138430Y93980D01*
X138430Y90170D01*
D26*
X205700Y81000D02*
X205700Y60920D01*
X205740Y60880D01*
X208650Y31750D02*
X191650Y31750D01*
X190500Y32900D01*
X191650Y31750D02*
X172350Y31750D01*
X190500Y32900D02*
X195700Y38100D01*
X195700Y81000D01*
X217450Y97750D02*
X227290Y97750D01*
X227300Y97751D01*
X227310Y97755D01*
X227318Y97762D01*
X227325Y97770D01*
X227329Y97780D01*
X227330Y97790D01*
D27*
X227290Y97750D02*
X242650Y97750D01*
X242690Y97790D01*
D28*
X242650Y108400D02*
X247650Y113400D01*
X242650Y108400D02*
X242650Y97750D01*
D29*
X247650Y147200D02*
X247650Y177800D01*
X247650Y147200D02*
X248800Y146050D01*
X248800Y129050D01*
X247650Y127900D01*
D25*
X152480Y100250D02*
X147350Y100250D01*
X152480Y100250D02*
X154940Y97790D01*
X188910Y97790D01*
X188950Y97750D01*
X152480Y90250D02*
X147350Y90250D01*
X152480Y90250D02*
X154940Y92710D01*
X188910Y92710D02*
X188950Y92750D01*
X188910Y92710D02*
X154940Y92710D01*
X133350Y81250D02*
X133350Y69850D01*
X139700Y63500D01*
X145150Y63500D01*
X146050Y64400D01*
X119350Y90250D02*
X104100Y90250D01*
X96400Y82550D01*
D26*
X102500Y31750D02*
X119750Y31750D01*
X96150Y82300D02*
X96400Y82550D01*
X96150Y82300D02*
X96150Y38100D01*
X102500Y31750D01*
D27*
X101600Y100330D02*
X26210Y100330D01*
X101600Y100330D02*
X109220Y100330D01*
D25*
X101680Y100250D02*
X119350Y100250D01*
X101680Y100250D02*
X101664Y100252D01*
X101649Y100256D01*
X101636Y100263D01*
X101623Y100273D01*
X101613Y100286D01*
X101606Y100299D01*
X101602Y100314D01*
X101600Y100330D01*
D27*
X257690Y97790D02*
X295100Y97790D01*
M02*
