M48
;GenerationSoftware,Autodesk,EAGLE,9.2.2*%
;CreationDate,2019-03-13T21:05:43Z*%
FMAT,2
ICI,OFF
METRIC,TZ,000.000
T3C0.350
T2C1.000
%
G90
M71
T2
X8890Y17780
X11430Y17780
T3
X17907Y19177
X23495Y3810
X17018Y19177
X17907Y16383
X17018Y16383
X18923Y6350
X18161Y5207
X17399Y5207
X16510Y6350
X12954Y5334
X15748Y4826
X10541Y5461
X11176Y4445
X12319Y4445
X18542Y889
X8763Y4445
X7620Y3810
X7620Y2794
X8763Y2032
X19431Y889
X18034Y1905
X20066Y1905
X23495Y2540
X22225Y5207
X31115Y11366
X4826Y11620
X1016Y11620
X2921Y11620
X4826Y8446
X2921Y8446
X1016Y8446
X27305Y8191
X31115Y8191
X29210Y8191
X27305Y11366
X29210Y11366
X18415Y18669
X20828Y10033
X20828Y9017
X19812Y9017
X19812Y10033
X13843Y10033
X13843Y9017
X12827Y10033
X12827Y9017
X12065Y11430
X18415Y16891
X18415Y17780
X13335Y17780
X12192Y10668
X14605Y3175
X23622Y8636
X11303Y8001
X14351Y11938
X21844Y8128
X21717Y10922
X18923Y8128
X15240Y10922
X18923Y11684
X16510Y12319
X13335Y16510
X11430Y10795
X13335Y19050
X15240Y16510
X15240Y17780
X15240Y19050
X12192Y8001
X15875Y1905
X14605Y1905
X13335Y1905
X18923Y7366
X21717Y11684
X22733Y8636
X14732Y14478
X23241Y5207
X24003Y6096
X16510Y13335
X12192Y13335
X21717Y13462
X21717Y12700
X22352Y14986
X22352Y14097
X18288Y13843
X17399Y13843
X15748Y14478
X16510Y10922
X13843Y14478
X12827Y14478
X7112Y7874
X7112Y8763
X8001Y7239
X21463Y6477
X20701Y11938
X19812Y11938
X14605Y7620
X14605Y8255
X9652Y9144
M30