G04 EAGLE Gerber RS-274X export*
G75*
%MOMM*%
%FSLAX34Y34*%
%LPD*%
%INSolder stop mask SOL*%
%IPPOS*%
%AMOC8*
5,1,8,0,0,1.08239X$1,22.5*%
G01*
%ADD10P,2.226909X8X22.500000*%

G36*
X61018Y107578D02*
X61018Y107578D01*
X61076Y107576D01*
X61158Y107598D01*
X61242Y107610D01*
X61295Y107634D01*
X61351Y107648D01*
X61424Y107691D01*
X61501Y107726D01*
X61546Y107764D01*
X61596Y107794D01*
X61654Y107855D01*
X61718Y107910D01*
X61750Y107958D01*
X61790Y108001D01*
X61829Y108076D01*
X61876Y108146D01*
X61893Y108202D01*
X61920Y108254D01*
X61931Y108322D01*
X61961Y108417D01*
X61964Y108517D01*
X61975Y108585D01*
X61975Y157480D01*
X61967Y157538D01*
X61969Y157596D01*
X61947Y157678D01*
X61935Y157762D01*
X61912Y157815D01*
X61897Y157871D01*
X61854Y157944D01*
X61819Y158021D01*
X61781Y158066D01*
X61752Y158116D01*
X61690Y158174D01*
X61636Y158238D01*
X61587Y158270D01*
X61544Y158310D01*
X61469Y158349D01*
X61399Y158396D01*
X61343Y158413D01*
X61291Y158440D01*
X61223Y158451D01*
X61128Y158481D01*
X61028Y158484D01*
X60960Y158495D01*
X-2540Y158495D01*
X-2598Y158487D01*
X-2656Y158489D01*
X-2738Y158467D01*
X-2822Y158455D01*
X-2875Y158432D01*
X-2931Y158417D01*
X-3004Y158374D01*
X-3081Y158339D01*
X-3126Y158301D01*
X-3176Y158272D01*
X-3234Y158210D01*
X-3298Y158156D01*
X-3330Y158107D01*
X-3370Y158064D01*
X-3409Y157989D01*
X-3456Y157919D01*
X-3473Y157863D01*
X-3500Y157811D01*
X-3511Y157743D01*
X-3541Y157648D01*
X-3544Y157548D01*
X-3555Y157480D01*
X-3555Y108585D01*
X-3547Y108527D01*
X-3549Y108469D01*
X-3527Y108387D01*
X-3515Y108304D01*
X-3492Y108250D01*
X-3477Y108194D01*
X-3434Y108121D01*
X-3399Y108044D01*
X-3361Y107999D01*
X-3332Y107949D01*
X-3270Y107891D01*
X-3216Y107827D01*
X-3167Y107795D01*
X-3124Y107755D01*
X-3049Y107716D01*
X-2979Y107670D01*
X-2923Y107652D01*
X-2871Y107625D01*
X-2803Y107614D01*
X-2708Y107584D01*
X-2608Y107581D01*
X-2540Y107570D01*
X60960Y107570D01*
X61018Y107578D01*
G37*
G36*
X323908Y105038D02*
X323908Y105038D01*
X323966Y105036D01*
X324048Y105058D01*
X324132Y105070D01*
X324185Y105094D01*
X324241Y105108D01*
X324314Y105151D01*
X324391Y105186D01*
X324436Y105224D01*
X324486Y105254D01*
X324544Y105315D01*
X324608Y105370D01*
X324640Y105418D01*
X324680Y105461D01*
X324719Y105536D01*
X324766Y105606D01*
X324783Y105662D01*
X324810Y105714D01*
X324821Y105782D01*
X324851Y105877D01*
X324854Y105977D01*
X324865Y106045D01*
X324865Y154940D01*
X324857Y154998D01*
X324859Y155056D01*
X324837Y155138D01*
X324825Y155222D01*
X324802Y155275D01*
X324787Y155331D01*
X324744Y155404D01*
X324709Y155481D01*
X324671Y155526D01*
X324642Y155576D01*
X324580Y155634D01*
X324526Y155698D01*
X324477Y155730D01*
X324434Y155770D01*
X324359Y155809D01*
X324289Y155856D01*
X324233Y155873D01*
X324181Y155900D01*
X324113Y155911D01*
X324018Y155941D01*
X323918Y155944D01*
X323850Y155955D01*
X260350Y155955D01*
X260292Y155947D01*
X260234Y155949D01*
X260152Y155927D01*
X260069Y155915D01*
X260015Y155892D01*
X259959Y155877D01*
X259886Y155834D01*
X259809Y155799D01*
X259764Y155761D01*
X259714Y155732D01*
X259656Y155670D01*
X259592Y155616D01*
X259560Y155567D01*
X259520Y155524D01*
X259481Y155449D01*
X259435Y155379D01*
X259417Y155323D01*
X259390Y155271D01*
X259379Y155203D01*
X259349Y155108D01*
X259346Y155008D01*
X259335Y154940D01*
X259335Y106045D01*
X259343Y105987D01*
X259341Y105929D01*
X259363Y105847D01*
X259375Y105764D01*
X259399Y105710D01*
X259413Y105654D01*
X259456Y105581D01*
X259491Y105504D01*
X259529Y105459D01*
X259559Y105409D01*
X259620Y105351D01*
X259675Y105287D01*
X259723Y105255D01*
X259766Y105215D01*
X259841Y105176D01*
X259911Y105130D01*
X259967Y105112D01*
X260019Y105085D01*
X260087Y105074D01*
X260182Y105044D01*
X260282Y105041D01*
X260350Y105030D01*
X323850Y105030D01*
X323908Y105038D01*
G37*
G36*
X61018Y42173D02*
X61018Y42173D01*
X61076Y42171D01*
X61158Y42193D01*
X61242Y42205D01*
X61295Y42229D01*
X61351Y42243D01*
X61424Y42286D01*
X61501Y42321D01*
X61546Y42359D01*
X61596Y42389D01*
X61654Y42450D01*
X61718Y42505D01*
X61750Y42553D01*
X61790Y42596D01*
X61829Y42671D01*
X61876Y42741D01*
X61893Y42797D01*
X61920Y42849D01*
X61931Y42917D01*
X61961Y43012D01*
X61964Y43112D01*
X61975Y43180D01*
X61975Y92075D01*
X61967Y92133D01*
X61969Y92191D01*
X61947Y92273D01*
X61935Y92357D01*
X61912Y92410D01*
X61897Y92466D01*
X61854Y92539D01*
X61819Y92616D01*
X61781Y92661D01*
X61752Y92711D01*
X61690Y92769D01*
X61636Y92833D01*
X61587Y92865D01*
X61544Y92905D01*
X61469Y92944D01*
X61399Y92991D01*
X61343Y93008D01*
X61291Y93035D01*
X61223Y93046D01*
X61128Y93076D01*
X61028Y93079D01*
X60960Y93090D01*
X-2540Y93090D01*
X-2598Y93082D01*
X-2656Y93084D01*
X-2738Y93062D01*
X-2822Y93050D01*
X-2875Y93027D01*
X-2931Y93012D01*
X-3004Y92969D01*
X-3081Y92934D01*
X-3126Y92896D01*
X-3176Y92867D01*
X-3234Y92805D01*
X-3298Y92751D01*
X-3330Y92702D01*
X-3370Y92659D01*
X-3409Y92584D01*
X-3456Y92514D01*
X-3473Y92458D01*
X-3500Y92406D01*
X-3511Y92338D01*
X-3541Y92243D01*
X-3544Y92143D01*
X-3555Y92075D01*
X-3555Y43180D01*
X-3547Y43122D01*
X-3549Y43064D01*
X-3527Y42982D01*
X-3515Y42899D01*
X-3492Y42845D01*
X-3477Y42789D01*
X-3434Y42716D01*
X-3399Y42639D01*
X-3361Y42594D01*
X-3332Y42544D01*
X-3270Y42486D01*
X-3216Y42422D01*
X-3167Y42390D01*
X-3124Y42350D01*
X-3049Y42311D01*
X-2979Y42265D01*
X-2923Y42247D01*
X-2871Y42220D01*
X-2803Y42209D01*
X-2708Y42179D01*
X-2608Y42176D01*
X-2540Y42165D01*
X60960Y42165D01*
X61018Y42173D01*
G37*
G36*
X323908Y39633D02*
X323908Y39633D01*
X323966Y39631D01*
X324048Y39653D01*
X324132Y39665D01*
X324185Y39689D01*
X324241Y39703D01*
X324314Y39746D01*
X324391Y39781D01*
X324436Y39819D01*
X324486Y39849D01*
X324544Y39910D01*
X324608Y39965D01*
X324640Y40013D01*
X324680Y40056D01*
X324719Y40131D01*
X324766Y40201D01*
X324783Y40257D01*
X324810Y40309D01*
X324821Y40377D01*
X324851Y40472D01*
X324854Y40572D01*
X324865Y40640D01*
X324865Y89535D01*
X324857Y89593D01*
X324859Y89651D01*
X324837Y89733D01*
X324825Y89817D01*
X324802Y89870D01*
X324787Y89926D01*
X324744Y89999D01*
X324709Y90076D01*
X324671Y90121D01*
X324642Y90171D01*
X324580Y90229D01*
X324526Y90293D01*
X324477Y90325D01*
X324434Y90365D01*
X324359Y90404D01*
X324289Y90451D01*
X324233Y90468D01*
X324181Y90495D01*
X324113Y90506D01*
X324018Y90536D01*
X323918Y90539D01*
X323850Y90550D01*
X260350Y90550D01*
X260292Y90542D01*
X260234Y90544D01*
X260152Y90522D01*
X260069Y90510D01*
X260015Y90487D01*
X259959Y90472D01*
X259886Y90429D01*
X259809Y90394D01*
X259764Y90356D01*
X259714Y90327D01*
X259656Y90265D01*
X259592Y90211D01*
X259560Y90162D01*
X259520Y90119D01*
X259481Y90044D01*
X259435Y89974D01*
X259417Y89918D01*
X259390Y89866D01*
X259379Y89798D01*
X259349Y89703D01*
X259346Y89603D01*
X259335Y89535D01*
X259335Y40640D01*
X259343Y40582D01*
X259341Y40524D01*
X259363Y40442D01*
X259375Y40359D01*
X259399Y40305D01*
X259413Y40249D01*
X259456Y40176D01*
X259491Y40099D01*
X259529Y40054D01*
X259559Y40004D01*
X259620Y39946D01*
X259675Y39882D01*
X259723Y39850D01*
X259766Y39810D01*
X259841Y39771D01*
X259911Y39725D01*
X259967Y39707D01*
X260019Y39680D01*
X260087Y39669D01*
X260182Y39639D01*
X260282Y39636D01*
X260350Y39625D01*
X323850Y39625D01*
X323908Y39633D01*
G37*
D10*
X114300Y177800D03*
X88900Y177800D03*
M02*
