G04 EAGLE Gerber RS-274X export*
G75*
%MOMM*%
%FSLAX34Y34*%
%LPD*%
%INTop Silkscreen *%
%IPPOS*%
%AMOC8*
5,1,8,0,0,1.08239X$1,22.5*%
G01*
%ADD10C,0.101600*%
%ADD11C,0.127000*%
%ADD12C,0.800000*%

G36*
X7727Y226074D02*
X7727Y226074D01*
X7751Y226074D01*
X7833Y226108D01*
X7918Y226135D01*
X7939Y226151D01*
X7958Y226159D01*
X7996Y226193D01*
X8068Y226247D01*
X17593Y235772D01*
X17644Y235845D01*
X17700Y235914D01*
X17708Y235936D01*
X17722Y235956D01*
X17744Y236042D01*
X17772Y236126D01*
X17772Y236150D01*
X17778Y236173D01*
X17768Y236262D01*
X17766Y236351D01*
X17757Y236373D01*
X17754Y236396D01*
X17715Y236476D01*
X17681Y236558D01*
X17665Y236576D01*
X17655Y236597D01*
X17590Y236658D01*
X17530Y236724D01*
X17509Y236735D01*
X17492Y236751D01*
X17410Y236786D01*
X17330Y236827D01*
X17304Y236830D01*
X17285Y236839D01*
X17235Y236841D01*
X17145Y236854D01*
X7620Y236854D01*
X7555Y236843D01*
X7489Y236841D01*
X7446Y236823D01*
X7399Y236815D01*
X7342Y236781D01*
X7282Y236756D01*
X7247Y236725D01*
X7206Y236700D01*
X7165Y236649D01*
X7116Y236605D01*
X7094Y236563D01*
X7065Y236526D01*
X7044Y236464D01*
X7013Y236405D01*
X7005Y236351D01*
X6993Y236314D01*
X6993Y236303D01*
X6993Y236302D01*
X6994Y236273D01*
X6986Y236220D01*
X6986Y226695D01*
X7002Y226607D01*
X7011Y226519D01*
X7021Y226498D01*
X7025Y226474D01*
X7071Y226397D01*
X7110Y226318D01*
X7127Y226301D01*
X7140Y226281D01*
X7209Y226225D01*
X7273Y226164D01*
X7295Y226155D01*
X7314Y226140D01*
X7398Y226111D01*
X7480Y226076D01*
X7504Y226075D01*
X7526Y226068D01*
X7615Y226070D01*
X7704Y226066D01*
X7727Y226074D01*
G37*
G36*
X287127Y226074D02*
X287127Y226074D01*
X287151Y226074D01*
X287233Y226108D01*
X287318Y226135D01*
X287339Y226151D01*
X287358Y226159D01*
X287396Y226193D01*
X287468Y226247D01*
X296993Y235772D01*
X297044Y235845D01*
X297100Y235914D01*
X297108Y235936D01*
X297122Y235956D01*
X297144Y236042D01*
X297172Y236126D01*
X297172Y236150D01*
X297178Y236173D01*
X297168Y236262D01*
X297166Y236351D01*
X297157Y236373D01*
X297154Y236396D01*
X297115Y236476D01*
X297081Y236558D01*
X297065Y236576D01*
X297055Y236597D01*
X296990Y236658D01*
X296930Y236724D01*
X296909Y236735D01*
X296892Y236751D01*
X296810Y236786D01*
X296730Y236827D01*
X296704Y236830D01*
X296685Y236839D01*
X296635Y236841D01*
X296545Y236854D01*
X287020Y236854D01*
X286955Y236843D01*
X286889Y236841D01*
X286846Y236823D01*
X286799Y236815D01*
X286742Y236781D01*
X286682Y236756D01*
X286647Y236725D01*
X286606Y236700D01*
X286565Y236649D01*
X286516Y236605D01*
X286494Y236563D01*
X286465Y236526D01*
X286444Y236464D01*
X286413Y236405D01*
X286405Y236351D01*
X286393Y236314D01*
X286393Y236303D01*
X286393Y236302D01*
X286394Y236273D01*
X286386Y236220D01*
X286386Y226695D01*
X286402Y226607D01*
X286411Y226519D01*
X286421Y226498D01*
X286425Y226474D01*
X286471Y226397D01*
X286510Y226318D01*
X286527Y226301D01*
X286540Y226281D01*
X286609Y226225D01*
X286673Y226164D01*
X286695Y226155D01*
X286714Y226140D01*
X286798Y226111D01*
X286880Y226076D01*
X286904Y226075D01*
X286926Y226068D01*
X287015Y226070D01*
X287104Y226066D01*
X287127Y226074D01*
G37*
G36*
X210862Y251472D02*
X210862Y251472D01*
X210951Y251474D01*
X210973Y251483D01*
X210996Y251486D01*
X211076Y251525D01*
X211158Y251559D01*
X211176Y251575D01*
X211197Y251585D01*
X211258Y251650D01*
X211324Y251710D01*
X211335Y251731D01*
X211351Y251748D01*
X211386Y251830D01*
X211427Y251910D01*
X211430Y251936D01*
X211439Y251955D01*
X211441Y252005D01*
X211454Y252095D01*
X211454Y261620D01*
X211443Y261685D01*
X211441Y261751D01*
X211423Y261794D01*
X211415Y261841D01*
X211381Y261898D01*
X211356Y261958D01*
X211325Y261993D01*
X211300Y262034D01*
X211249Y262076D01*
X211205Y262124D01*
X211163Y262146D01*
X211126Y262175D01*
X211064Y262196D01*
X211005Y262227D01*
X210951Y262235D01*
X210914Y262247D01*
X210874Y262246D01*
X210820Y262254D01*
X201295Y262254D01*
X201207Y262238D01*
X201119Y262229D01*
X201098Y262219D01*
X201074Y262215D01*
X200997Y262169D01*
X200918Y262130D01*
X200901Y262113D01*
X200881Y262100D01*
X200825Y262031D01*
X200764Y261967D01*
X200755Y261945D01*
X200740Y261926D01*
X200711Y261842D01*
X200676Y261760D01*
X200675Y261736D01*
X200668Y261714D01*
X200670Y261625D01*
X200666Y261536D01*
X200674Y261513D01*
X200674Y261489D01*
X200708Y261407D01*
X200735Y261322D01*
X200751Y261301D01*
X200759Y261282D01*
X200793Y261244D01*
X200847Y261172D01*
X210372Y251647D01*
X210445Y251596D01*
X210514Y251540D01*
X210536Y251532D01*
X210556Y251518D01*
X210642Y251496D01*
X210726Y251468D01*
X210750Y251468D01*
X210773Y251463D01*
X210862Y251472D01*
G37*
G36*
X160062Y22872D02*
X160062Y22872D01*
X160151Y22874D01*
X160173Y22883D01*
X160196Y22886D01*
X160276Y22925D01*
X160358Y22959D01*
X160376Y22975D01*
X160397Y22985D01*
X160458Y23050D01*
X160524Y23110D01*
X160535Y23131D01*
X160551Y23148D01*
X160586Y23230D01*
X160627Y23310D01*
X160630Y23336D01*
X160639Y23355D01*
X160641Y23405D01*
X160654Y23495D01*
X160654Y33020D01*
X160643Y33085D01*
X160641Y33151D01*
X160623Y33194D01*
X160615Y33241D01*
X160581Y33298D01*
X160556Y33358D01*
X160525Y33393D01*
X160500Y33434D01*
X160449Y33476D01*
X160405Y33524D01*
X160363Y33546D01*
X160326Y33575D01*
X160264Y33596D01*
X160205Y33627D01*
X160151Y33635D01*
X160114Y33647D01*
X160074Y33646D01*
X160020Y33654D01*
X150495Y33654D01*
X150407Y33638D01*
X150319Y33629D01*
X150298Y33619D01*
X150274Y33615D01*
X150197Y33569D01*
X150118Y33530D01*
X150101Y33513D01*
X150081Y33500D01*
X150025Y33431D01*
X149964Y33367D01*
X149955Y33345D01*
X149940Y33326D01*
X149911Y33242D01*
X149876Y33160D01*
X149875Y33136D01*
X149868Y33114D01*
X149870Y33025D01*
X149866Y32936D01*
X149874Y32913D01*
X149874Y32889D01*
X149908Y32807D01*
X149935Y32722D01*
X149951Y32701D01*
X149959Y32682D01*
X149993Y32644D01*
X150047Y32572D01*
X159572Y23047D01*
X159645Y22996D01*
X159714Y22940D01*
X159736Y22932D01*
X159756Y22918D01*
X159842Y22896D01*
X159926Y22868D01*
X159950Y22868D01*
X159973Y22863D01*
X160062Y22872D01*
G37*
G36*
X312462Y22872D02*
X312462Y22872D01*
X312551Y22874D01*
X312573Y22883D01*
X312596Y22886D01*
X312676Y22925D01*
X312758Y22959D01*
X312776Y22975D01*
X312797Y22985D01*
X312858Y23050D01*
X312924Y23110D01*
X312935Y23131D01*
X312951Y23148D01*
X312986Y23230D01*
X313027Y23310D01*
X313030Y23336D01*
X313039Y23355D01*
X313041Y23405D01*
X313054Y23495D01*
X313054Y33020D01*
X313043Y33085D01*
X313041Y33151D01*
X313023Y33194D01*
X313015Y33241D01*
X312981Y33298D01*
X312956Y33358D01*
X312925Y33393D01*
X312900Y33434D01*
X312849Y33476D01*
X312805Y33524D01*
X312763Y33546D01*
X312726Y33575D01*
X312664Y33596D01*
X312605Y33627D01*
X312551Y33635D01*
X312514Y33647D01*
X312474Y33646D01*
X312420Y33654D01*
X302895Y33654D01*
X302807Y33638D01*
X302719Y33629D01*
X302698Y33619D01*
X302674Y33615D01*
X302597Y33569D01*
X302518Y33530D01*
X302501Y33513D01*
X302481Y33500D01*
X302425Y33431D01*
X302364Y33367D01*
X302355Y33345D01*
X302340Y33326D01*
X302311Y33242D01*
X302276Y33160D01*
X302275Y33136D01*
X302268Y33114D01*
X302270Y33025D01*
X302266Y32936D01*
X302274Y32913D01*
X302274Y32889D01*
X302308Y32807D01*
X302335Y32722D01*
X302351Y32701D01*
X302359Y32682D01*
X302393Y32644D01*
X302447Y32572D01*
X311972Y23047D01*
X312045Y22996D01*
X312114Y22940D01*
X312136Y22932D01*
X312156Y22918D01*
X312242Y22896D01*
X312326Y22868D01*
X312350Y22868D01*
X312373Y22863D01*
X312462Y22872D01*
G37*
D10*
X226568Y69144D02*
X235373Y69144D01*
X230971Y64742D02*
X230971Y73547D01*
X240223Y77216D02*
X244626Y64008D01*
X249028Y77216D01*
X265769Y75381D02*
X265658Y75147D01*
X265552Y74909D01*
X265452Y74669D01*
X265358Y74427D01*
X265270Y74182D01*
X265188Y73936D01*
X265112Y73688D01*
X265041Y73438D01*
X264977Y73186D01*
X264918Y72933D01*
X264866Y72678D01*
X264820Y72422D01*
X264779Y72166D01*
X264745Y71908D01*
X264718Y71650D01*
X264696Y71391D01*
X264680Y71131D01*
X264671Y70872D01*
X264668Y70612D01*
X265769Y75382D02*
X265804Y75477D01*
X265842Y75572D01*
X265884Y75665D01*
X265930Y75756D01*
X265979Y75846D01*
X266031Y75934D01*
X266086Y76019D01*
X266145Y76103D01*
X266207Y76184D01*
X266271Y76263D01*
X266339Y76339D01*
X266410Y76413D01*
X266483Y76484D01*
X266559Y76552D01*
X266637Y76618D01*
X266718Y76680D01*
X266801Y76740D01*
X266886Y76796D01*
X266973Y76849D01*
X267062Y76898D01*
X267153Y76944D01*
X267246Y76987D01*
X267340Y77026D01*
X267436Y77062D01*
X267533Y77094D01*
X267631Y77123D01*
X267730Y77147D01*
X267830Y77168D01*
X267930Y77185D01*
X268031Y77199D01*
X268133Y77208D01*
X268235Y77214D01*
X268337Y77216D01*
X268439Y77214D01*
X268541Y77208D01*
X268643Y77199D01*
X268744Y77185D01*
X268844Y77168D01*
X268944Y77147D01*
X269043Y77123D01*
X269141Y77094D01*
X269238Y77062D01*
X269334Y77026D01*
X269428Y76987D01*
X269521Y76944D01*
X269612Y76898D01*
X269701Y76849D01*
X269788Y76796D01*
X269873Y76740D01*
X269956Y76680D01*
X270037Y76618D01*
X270115Y76552D01*
X270191Y76484D01*
X270264Y76413D01*
X270335Y76339D01*
X270403Y76263D01*
X270467Y76184D01*
X270529Y76103D01*
X270588Y76019D01*
X270643Y75934D01*
X270695Y75846D01*
X270744Y75756D01*
X270790Y75665D01*
X270832Y75572D01*
X270870Y75477D01*
X270905Y75382D01*
X270904Y75381D02*
X271015Y75146D01*
X271121Y74909D01*
X271221Y74669D01*
X271315Y74427D01*
X271403Y74182D01*
X271485Y73936D01*
X271561Y73688D01*
X271632Y73437D01*
X271696Y73186D01*
X271755Y72933D01*
X271807Y72678D01*
X271853Y72422D01*
X271894Y72166D01*
X271928Y71908D01*
X271955Y71650D01*
X271977Y71391D01*
X271993Y71131D01*
X272002Y70872D01*
X272005Y70612D01*
X264668Y70612D02*
X264671Y70352D01*
X264680Y70093D01*
X264696Y69833D01*
X264718Y69574D01*
X264745Y69316D01*
X264779Y69058D01*
X264820Y68802D01*
X264866Y68546D01*
X264918Y68291D01*
X264977Y68038D01*
X265041Y67787D01*
X265112Y67536D01*
X265188Y67288D01*
X265270Y67042D01*
X265358Y66797D01*
X265452Y66555D01*
X265552Y66315D01*
X265658Y66078D01*
X265769Y65843D01*
X265769Y65842D02*
X265804Y65747D01*
X265842Y65652D01*
X265884Y65559D01*
X265930Y65468D01*
X265979Y65378D01*
X266031Y65290D01*
X266086Y65205D01*
X266145Y65121D01*
X266207Y65040D01*
X266271Y64961D01*
X266339Y64885D01*
X266410Y64811D01*
X266483Y64740D01*
X266559Y64672D01*
X266637Y64606D01*
X266718Y64544D01*
X266801Y64484D01*
X266886Y64428D01*
X266973Y64375D01*
X267062Y64326D01*
X267153Y64280D01*
X267246Y64237D01*
X267340Y64198D01*
X267436Y64162D01*
X267533Y64130D01*
X267631Y64101D01*
X267730Y64077D01*
X267830Y64056D01*
X267930Y64039D01*
X268031Y64025D01*
X268133Y64016D01*
X268235Y64010D01*
X268337Y64008D01*
X270905Y65842D02*
X271016Y66077D01*
X271122Y66315D01*
X271222Y66555D01*
X271316Y66797D01*
X271404Y67041D01*
X271486Y67288D01*
X271562Y67536D01*
X271633Y67786D01*
X271697Y68038D01*
X271756Y68291D01*
X271808Y68546D01*
X271854Y68801D01*
X271895Y69058D01*
X271929Y69316D01*
X271956Y69574D01*
X271978Y69833D01*
X271994Y70092D01*
X272003Y70352D01*
X272006Y70612D01*
X270905Y65842D02*
X270870Y65747D01*
X270832Y65652D01*
X270790Y65559D01*
X270744Y65468D01*
X270695Y65378D01*
X270643Y65290D01*
X270588Y65205D01*
X270529Y65121D01*
X270467Y65040D01*
X270403Y64961D01*
X270335Y64885D01*
X270264Y64811D01*
X270191Y64740D01*
X270115Y64672D01*
X270037Y64606D01*
X269956Y64544D01*
X269873Y64484D01*
X269788Y64428D01*
X269701Y64375D01*
X269612Y64326D01*
X269521Y64280D01*
X269428Y64237D01*
X269334Y64198D01*
X269238Y64162D01*
X269141Y64130D01*
X269043Y64101D01*
X268944Y64077D01*
X268844Y64056D01*
X268744Y64039D01*
X268643Y64025D01*
X268541Y64016D01*
X268439Y64010D01*
X268337Y64008D01*
X265402Y66943D02*
X271272Y74281D01*
X75692Y36068D02*
X64008Y36068D01*
X64008Y39314D01*
X64010Y39427D01*
X64016Y39540D01*
X64026Y39653D01*
X64040Y39766D01*
X64057Y39878D01*
X64079Y39989D01*
X64104Y40099D01*
X64134Y40209D01*
X64167Y40317D01*
X64204Y40424D01*
X64244Y40530D01*
X64289Y40634D01*
X64337Y40737D01*
X64388Y40838D01*
X64443Y40937D01*
X64501Y41034D01*
X64563Y41129D01*
X64628Y41222D01*
X64696Y41312D01*
X64767Y41400D01*
X64842Y41486D01*
X64919Y41569D01*
X64999Y41649D01*
X65082Y41726D01*
X65168Y41801D01*
X65256Y41872D01*
X65346Y41940D01*
X65439Y42005D01*
X65534Y42067D01*
X65631Y42125D01*
X65730Y42180D01*
X65831Y42231D01*
X65934Y42279D01*
X66038Y42324D01*
X66144Y42364D01*
X66251Y42401D01*
X66359Y42434D01*
X66469Y42464D01*
X66579Y42489D01*
X66690Y42511D01*
X66802Y42528D01*
X66915Y42542D01*
X67028Y42552D01*
X67141Y42558D01*
X67254Y42560D01*
X67367Y42558D01*
X67480Y42552D01*
X67593Y42542D01*
X67706Y42528D01*
X67818Y42511D01*
X67929Y42489D01*
X68039Y42464D01*
X68149Y42434D01*
X68257Y42401D01*
X68364Y42364D01*
X68470Y42324D01*
X68574Y42279D01*
X68677Y42231D01*
X68778Y42180D01*
X68877Y42125D01*
X68974Y42067D01*
X69069Y42005D01*
X69162Y41940D01*
X69252Y41872D01*
X69340Y41801D01*
X69426Y41726D01*
X69509Y41649D01*
X69589Y41569D01*
X69666Y41486D01*
X69741Y41400D01*
X69812Y41312D01*
X69880Y41222D01*
X69945Y41129D01*
X70007Y41034D01*
X70065Y40937D01*
X70120Y40838D01*
X70171Y40737D01*
X70219Y40634D01*
X70264Y40530D01*
X70304Y40424D01*
X70341Y40317D01*
X70374Y40209D01*
X70404Y40099D01*
X70429Y39989D01*
X70451Y39878D01*
X70468Y39766D01*
X70482Y39653D01*
X70492Y39540D01*
X70498Y39427D01*
X70500Y39314D01*
X70499Y39314D02*
X70499Y36068D01*
X70499Y39963D02*
X75692Y42559D01*
X69201Y47975D02*
X69201Y51220D01*
X69200Y51220D02*
X69202Y51333D01*
X69208Y51446D01*
X69218Y51559D01*
X69232Y51672D01*
X69249Y51784D01*
X69271Y51895D01*
X69296Y52005D01*
X69326Y52115D01*
X69359Y52223D01*
X69396Y52330D01*
X69436Y52436D01*
X69481Y52540D01*
X69529Y52643D01*
X69580Y52744D01*
X69635Y52843D01*
X69693Y52940D01*
X69755Y53035D01*
X69820Y53128D01*
X69888Y53218D01*
X69959Y53306D01*
X70034Y53392D01*
X70111Y53475D01*
X70191Y53555D01*
X70274Y53632D01*
X70360Y53707D01*
X70448Y53778D01*
X70538Y53846D01*
X70631Y53911D01*
X70726Y53973D01*
X70823Y54031D01*
X70922Y54086D01*
X71023Y54137D01*
X71126Y54185D01*
X71230Y54230D01*
X71336Y54270D01*
X71443Y54307D01*
X71551Y54340D01*
X71661Y54370D01*
X71771Y54395D01*
X71882Y54417D01*
X71994Y54434D01*
X72107Y54448D01*
X72220Y54458D01*
X72333Y54464D01*
X72446Y54466D01*
X72559Y54464D01*
X72672Y54458D01*
X72785Y54448D01*
X72898Y54434D01*
X73010Y54417D01*
X73121Y54395D01*
X73231Y54370D01*
X73341Y54340D01*
X73449Y54307D01*
X73556Y54270D01*
X73662Y54230D01*
X73766Y54185D01*
X73869Y54137D01*
X73970Y54086D01*
X74069Y54031D01*
X74166Y53973D01*
X74261Y53911D01*
X74354Y53846D01*
X74444Y53778D01*
X74532Y53707D01*
X74618Y53632D01*
X74701Y53555D01*
X74781Y53475D01*
X74858Y53392D01*
X74933Y53306D01*
X75004Y53218D01*
X75072Y53128D01*
X75137Y53035D01*
X75199Y52940D01*
X75257Y52843D01*
X75312Y52744D01*
X75363Y52643D01*
X75411Y52540D01*
X75456Y52436D01*
X75496Y52330D01*
X75533Y52223D01*
X75566Y52115D01*
X75596Y52005D01*
X75621Y51895D01*
X75643Y51784D01*
X75660Y51672D01*
X75674Y51559D01*
X75684Y51446D01*
X75690Y51333D01*
X75692Y51220D01*
X75692Y47975D01*
X64008Y47975D01*
X64008Y51220D01*
X64010Y51321D01*
X64016Y51421D01*
X64026Y51521D01*
X64039Y51621D01*
X64057Y51720D01*
X64078Y51819D01*
X64103Y51916D01*
X64132Y52013D01*
X64165Y52108D01*
X64201Y52202D01*
X64241Y52294D01*
X64284Y52385D01*
X64331Y52474D01*
X64381Y52561D01*
X64435Y52647D01*
X64492Y52730D01*
X64552Y52810D01*
X64615Y52889D01*
X64682Y52965D01*
X64751Y53038D01*
X64823Y53108D01*
X64897Y53176D01*
X64974Y53241D01*
X65054Y53302D01*
X65136Y53361D01*
X65220Y53416D01*
X65306Y53468D01*
X65394Y53517D01*
X65484Y53562D01*
X65576Y53604D01*
X65669Y53642D01*
X65764Y53676D01*
X65859Y53707D01*
X65956Y53734D01*
X66054Y53757D01*
X66153Y53777D01*
X66253Y53792D01*
X66353Y53804D01*
X66453Y53812D01*
X66554Y53816D01*
X66654Y53816D01*
X66755Y53812D01*
X66855Y53804D01*
X66955Y53792D01*
X67055Y53777D01*
X67154Y53757D01*
X67252Y53734D01*
X67349Y53707D01*
X67444Y53676D01*
X67539Y53642D01*
X67632Y53604D01*
X67724Y53562D01*
X67814Y53517D01*
X67902Y53468D01*
X67988Y53416D01*
X68072Y53361D01*
X68154Y53302D01*
X68234Y53241D01*
X68311Y53176D01*
X68385Y53108D01*
X68457Y53038D01*
X68526Y52965D01*
X68593Y52889D01*
X68656Y52810D01*
X68716Y52730D01*
X68773Y52647D01*
X68827Y52561D01*
X68877Y52474D01*
X68924Y52385D01*
X68967Y52294D01*
X69007Y52202D01*
X69043Y52108D01*
X69076Y52013D01*
X69105Y51916D01*
X69130Y51819D01*
X69151Y51720D01*
X69169Y51621D01*
X69182Y51521D01*
X69192Y51421D01*
X69198Y51321D01*
X69200Y51220D01*
X64008Y62424D02*
X64010Y62531D01*
X64016Y62637D01*
X64026Y62743D01*
X64039Y62849D01*
X64057Y62955D01*
X64078Y63059D01*
X64103Y63163D01*
X64132Y63266D01*
X64164Y63367D01*
X64201Y63467D01*
X64241Y63566D01*
X64284Y63664D01*
X64331Y63760D01*
X64382Y63854D01*
X64436Y63946D01*
X64493Y64036D01*
X64553Y64124D01*
X64617Y64209D01*
X64684Y64292D01*
X64754Y64373D01*
X64826Y64451D01*
X64902Y64527D01*
X64980Y64599D01*
X65061Y64669D01*
X65144Y64736D01*
X65229Y64800D01*
X65317Y64860D01*
X65407Y64917D01*
X65499Y64971D01*
X65593Y65022D01*
X65689Y65069D01*
X65787Y65112D01*
X65886Y65152D01*
X65986Y65189D01*
X66087Y65221D01*
X66190Y65250D01*
X66294Y65275D01*
X66398Y65296D01*
X66504Y65314D01*
X66610Y65327D01*
X66716Y65337D01*
X66822Y65343D01*
X66929Y65345D01*
X64008Y62424D02*
X64010Y62303D01*
X64016Y62182D01*
X64026Y62062D01*
X64039Y61941D01*
X64057Y61822D01*
X64078Y61702D01*
X64103Y61584D01*
X64132Y61467D01*
X64165Y61350D01*
X64201Y61235D01*
X64242Y61121D01*
X64285Y61008D01*
X64333Y60896D01*
X64384Y60787D01*
X64439Y60679D01*
X64497Y60572D01*
X64558Y60468D01*
X64623Y60366D01*
X64691Y60266D01*
X64762Y60168D01*
X64836Y60072D01*
X64913Y59979D01*
X64994Y59889D01*
X65077Y59801D01*
X65163Y59716D01*
X65252Y59633D01*
X65343Y59554D01*
X65437Y59477D01*
X65533Y59404D01*
X65631Y59334D01*
X65732Y59267D01*
X65835Y59203D01*
X65940Y59143D01*
X66047Y59085D01*
X66155Y59032D01*
X66265Y58982D01*
X66377Y58936D01*
X66490Y58893D01*
X66605Y58854D01*
X69201Y64371D02*
X69123Y64450D01*
X69043Y64526D01*
X68960Y64599D01*
X68874Y64669D01*
X68787Y64736D01*
X68696Y64800D01*
X68604Y64860D01*
X68510Y64918D01*
X68413Y64972D01*
X68315Y65022D01*
X68215Y65069D01*
X68114Y65113D01*
X68011Y65153D01*
X67906Y65189D01*
X67801Y65221D01*
X67694Y65250D01*
X67587Y65275D01*
X67478Y65297D01*
X67369Y65314D01*
X67260Y65328D01*
X67150Y65337D01*
X67039Y65343D01*
X66929Y65345D01*
X69201Y64372D02*
X75692Y58854D01*
X75692Y65345D01*
X89408Y36068D02*
X101092Y36068D01*
X89408Y36068D02*
X89408Y39314D01*
X89410Y39427D01*
X89416Y39540D01*
X89426Y39653D01*
X89440Y39766D01*
X89457Y39878D01*
X89479Y39989D01*
X89504Y40099D01*
X89534Y40209D01*
X89567Y40317D01*
X89604Y40424D01*
X89644Y40530D01*
X89689Y40634D01*
X89737Y40737D01*
X89788Y40838D01*
X89843Y40937D01*
X89901Y41034D01*
X89963Y41129D01*
X90028Y41222D01*
X90096Y41312D01*
X90167Y41400D01*
X90242Y41486D01*
X90319Y41569D01*
X90399Y41649D01*
X90482Y41726D01*
X90568Y41801D01*
X90656Y41872D01*
X90746Y41940D01*
X90839Y42005D01*
X90934Y42067D01*
X91031Y42125D01*
X91130Y42180D01*
X91231Y42231D01*
X91334Y42279D01*
X91438Y42324D01*
X91544Y42364D01*
X91651Y42401D01*
X91759Y42434D01*
X91869Y42464D01*
X91979Y42489D01*
X92090Y42511D01*
X92202Y42528D01*
X92315Y42542D01*
X92428Y42552D01*
X92541Y42558D01*
X92654Y42560D01*
X92767Y42558D01*
X92880Y42552D01*
X92993Y42542D01*
X93106Y42528D01*
X93218Y42511D01*
X93329Y42489D01*
X93439Y42464D01*
X93549Y42434D01*
X93657Y42401D01*
X93764Y42364D01*
X93870Y42324D01*
X93974Y42279D01*
X94077Y42231D01*
X94178Y42180D01*
X94277Y42125D01*
X94374Y42067D01*
X94469Y42005D01*
X94562Y41940D01*
X94652Y41872D01*
X94740Y41801D01*
X94826Y41726D01*
X94909Y41649D01*
X94989Y41569D01*
X95066Y41486D01*
X95141Y41400D01*
X95212Y41312D01*
X95280Y41222D01*
X95345Y41129D01*
X95407Y41034D01*
X95465Y40937D01*
X95520Y40838D01*
X95571Y40737D01*
X95619Y40634D01*
X95664Y40530D01*
X95704Y40424D01*
X95741Y40317D01*
X95774Y40209D01*
X95804Y40099D01*
X95829Y39989D01*
X95851Y39878D01*
X95868Y39766D01*
X95882Y39653D01*
X95892Y39540D01*
X95898Y39427D01*
X95900Y39314D01*
X95899Y39314D02*
X95899Y36068D01*
X95899Y39963D02*
X101092Y42559D01*
X94601Y47975D02*
X94601Y51220D01*
X94600Y51220D02*
X94602Y51333D01*
X94608Y51446D01*
X94618Y51559D01*
X94632Y51672D01*
X94649Y51784D01*
X94671Y51895D01*
X94696Y52005D01*
X94726Y52115D01*
X94759Y52223D01*
X94796Y52330D01*
X94836Y52436D01*
X94881Y52540D01*
X94929Y52643D01*
X94980Y52744D01*
X95035Y52843D01*
X95093Y52940D01*
X95155Y53035D01*
X95220Y53128D01*
X95288Y53218D01*
X95359Y53306D01*
X95434Y53392D01*
X95511Y53475D01*
X95591Y53555D01*
X95674Y53632D01*
X95760Y53707D01*
X95848Y53778D01*
X95938Y53846D01*
X96031Y53911D01*
X96126Y53973D01*
X96223Y54031D01*
X96322Y54086D01*
X96423Y54137D01*
X96526Y54185D01*
X96630Y54230D01*
X96736Y54270D01*
X96843Y54307D01*
X96951Y54340D01*
X97061Y54370D01*
X97171Y54395D01*
X97282Y54417D01*
X97394Y54434D01*
X97507Y54448D01*
X97620Y54458D01*
X97733Y54464D01*
X97846Y54466D01*
X97959Y54464D01*
X98072Y54458D01*
X98185Y54448D01*
X98298Y54434D01*
X98410Y54417D01*
X98521Y54395D01*
X98631Y54370D01*
X98741Y54340D01*
X98849Y54307D01*
X98956Y54270D01*
X99062Y54230D01*
X99166Y54185D01*
X99269Y54137D01*
X99370Y54086D01*
X99469Y54031D01*
X99566Y53973D01*
X99661Y53911D01*
X99754Y53846D01*
X99844Y53778D01*
X99932Y53707D01*
X100018Y53632D01*
X100101Y53555D01*
X100181Y53475D01*
X100258Y53392D01*
X100333Y53306D01*
X100404Y53218D01*
X100472Y53128D01*
X100537Y53035D01*
X100599Y52940D01*
X100657Y52843D01*
X100712Y52744D01*
X100763Y52643D01*
X100811Y52540D01*
X100856Y52436D01*
X100896Y52330D01*
X100933Y52223D01*
X100966Y52115D01*
X100996Y52005D01*
X101021Y51895D01*
X101043Y51784D01*
X101060Y51672D01*
X101074Y51559D01*
X101084Y51446D01*
X101090Y51333D01*
X101092Y51220D01*
X101092Y47975D01*
X89408Y47975D01*
X89408Y51220D01*
X89410Y51321D01*
X89416Y51421D01*
X89426Y51521D01*
X89439Y51621D01*
X89457Y51720D01*
X89478Y51819D01*
X89503Y51916D01*
X89532Y52013D01*
X89565Y52108D01*
X89601Y52202D01*
X89641Y52294D01*
X89684Y52385D01*
X89731Y52474D01*
X89781Y52561D01*
X89835Y52647D01*
X89892Y52730D01*
X89952Y52810D01*
X90015Y52889D01*
X90082Y52965D01*
X90151Y53038D01*
X90223Y53108D01*
X90297Y53176D01*
X90374Y53241D01*
X90454Y53302D01*
X90536Y53361D01*
X90620Y53416D01*
X90706Y53468D01*
X90794Y53517D01*
X90884Y53562D01*
X90976Y53604D01*
X91069Y53642D01*
X91164Y53676D01*
X91259Y53707D01*
X91356Y53734D01*
X91454Y53757D01*
X91553Y53777D01*
X91653Y53792D01*
X91753Y53804D01*
X91853Y53812D01*
X91954Y53816D01*
X92054Y53816D01*
X92155Y53812D01*
X92255Y53804D01*
X92355Y53792D01*
X92455Y53777D01*
X92554Y53757D01*
X92652Y53734D01*
X92749Y53707D01*
X92844Y53676D01*
X92939Y53642D01*
X93032Y53604D01*
X93124Y53562D01*
X93214Y53517D01*
X93302Y53468D01*
X93388Y53416D01*
X93472Y53361D01*
X93554Y53302D01*
X93634Y53241D01*
X93711Y53176D01*
X93785Y53108D01*
X93857Y53038D01*
X93926Y52965D01*
X93993Y52889D01*
X94056Y52810D01*
X94116Y52730D01*
X94173Y52647D01*
X94227Y52561D01*
X94277Y52474D01*
X94324Y52385D01*
X94367Y52294D01*
X94407Y52202D01*
X94443Y52108D01*
X94476Y52013D01*
X94505Y51916D01*
X94530Y51819D01*
X94551Y51720D01*
X94569Y51621D01*
X94582Y51521D01*
X94592Y51421D01*
X94598Y51321D01*
X94600Y51220D01*
X101092Y58854D02*
X101092Y62100D01*
X101090Y62213D01*
X101084Y62326D01*
X101074Y62439D01*
X101060Y62552D01*
X101043Y62664D01*
X101021Y62775D01*
X100996Y62885D01*
X100966Y62995D01*
X100933Y63103D01*
X100896Y63210D01*
X100856Y63316D01*
X100811Y63420D01*
X100763Y63523D01*
X100712Y63624D01*
X100657Y63723D01*
X100599Y63820D01*
X100537Y63915D01*
X100472Y64008D01*
X100404Y64098D01*
X100333Y64186D01*
X100258Y64272D01*
X100181Y64355D01*
X100101Y64435D01*
X100018Y64512D01*
X99932Y64587D01*
X99844Y64658D01*
X99754Y64726D01*
X99661Y64791D01*
X99566Y64853D01*
X99469Y64911D01*
X99370Y64966D01*
X99269Y65017D01*
X99166Y65065D01*
X99062Y65110D01*
X98956Y65150D01*
X98849Y65187D01*
X98741Y65220D01*
X98631Y65250D01*
X98521Y65275D01*
X98410Y65297D01*
X98298Y65314D01*
X98185Y65328D01*
X98072Y65338D01*
X97959Y65344D01*
X97846Y65346D01*
X97733Y65344D01*
X97620Y65338D01*
X97507Y65328D01*
X97394Y65314D01*
X97282Y65297D01*
X97171Y65275D01*
X97061Y65250D01*
X96951Y65220D01*
X96843Y65187D01*
X96736Y65150D01*
X96630Y65110D01*
X96526Y65065D01*
X96423Y65017D01*
X96322Y64966D01*
X96223Y64911D01*
X96126Y64853D01*
X96031Y64791D01*
X95938Y64726D01*
X95848Y64658D01*
X95760Y64587D01*
X95674Y64512D01*
X95591Y64435D01*
X95511Y64355D01*
X95434Y64272D01*
X95359Y64186D01*
X95288Y64098D01*
X95220Y64008D01*
X95155Y63915D01*
X95093Y63820D01*
X95035Y63723D01*
X94980Y63624D01*
X94929Y63523D01*
X94881Y63420D01*
X94836Y63316D01*
X94796Y63210D01*
X94759Y63103D01*
X94726Y62995D01*
X94696Y62885D01*
X94671Y62775D01*
X94649Y62664D01*
X94632Y62552D01*
X94618Y62439D01*
X94608Y62326D01*
X94602Y62213D01*
X94600Y62100D01*
X89408Y62749D02*
X89408Y58854D01*
X89408Y62749D02*
X89410Y62850D01*
X89416Y62950D01*
X89426Y63050D01*
X89439Y63150D01*
X89457Y63249D01*
X89478Y63348D01*
X89503Y63445D01*
X89532Y63542D01*
X89565Y63637D01*
X89601Y63731D01*
X89641Y63823D01*
X89684Y63914D01*
X89731Y64003D01*
X89781Y64090D01*
X89835Y64176D01*
X89892Y64259D01*
X89952Y64339D01*
X90015Y64418D01*
X90082Y64494D01*
X90151Y64567D01*
X90223Y64637D01*
X90297Y64705D01*
X90374Y64770D01*
X90454Y64831D01*
X90536Y64890D01*
X90620Y64945D01*
X90706Y64997D01*
X90794Y65046D01*
X90884Y65091D01*
X90976Y65133D01*
X91069Y65171D01*
X91164Y65205D01*
X91259Y65236D01*
X91356Y65263D01*
X91454Y65286D01*
X91553Y65306D01*
X91653Y65321D01*
X91753Y65333D01*
X91853Y65341D01*
X91954Y65345D01*
X92054Y65345D01*
X92155Y65341D01*
X92255Y65333D01*
X92355Y65321D01*
X92455Y65306D01*
X92554Y65286D01*
X92652Y65263D01*
X92749Y65236D01*
X92844Y65205D01*
X92939Y65171D01*
X93032Y65133D01*
X93124Y65091D01*
X93214Y65046D01*
X93302Y64997D01*
X93388Y64945D01*
X93472Y64890D01*
X93554Y64831D01*
X93634Y64770D01*
X93711Y64705D01*
X93785Y64637D01*
X93857Y64567D01*
X93926Y64494D01*
X93993Y64418D01*
X94056Y64339D01*
X94116Y64259D01*
X94173Y64176D01*
X94227Y64090D01*
X94277Y64003D01*
X94324Y63914D01*
X94367Y63823D01*
X94407Y63731D01*
X94443Y63637D01*
X94476Y63542D01*
X94505Y63445D01*
X94530Y63348D01*
X94551Y63249D01*
X94569Y63150D01*
X94582Y63050D01*
X94592Y62950D01*
X94598Y62850D01*
X94600Y62749D01*
X94601Y62749D02*
X94601Y60153D01*
X116078Y36068D02*
X127762Y36068D01*
X116078Y36068D02*
X116078Y39314D01*
X116080Y39427D01*
X116086Y39540D01*
X116096Y39653D01*
X116110Y39766D01*
X116127Y39878D01*
X116149Y39989D01*
X116174Y40099D01*
X116204Y40209D01*
X116237Y40317D01*
X116274Y40424D01*
X116314Y40530D01*
X116359Y40634D01*
X116407Y40737D01*
X116458Y40838D01*
X116513Y40937D01*
X116571Y41034D01*
X116633Y41129D01*
X116698Y41222D01*
X116766Y41312D01*
X116837Y41400D01*
X116912Y41486D01*
X116989Y41569D01*
X117069Y41649D01*
X117152Y41726D01*
X117238Y41801D01*
X117326Y41872D01*
X117416Y41940D01*
X117509Y42005D01*
X117604Y42067D01*
X117701Y42125D01*
X117800Y42180D01*
X117901Y42231D01*
X118004Y42279D01*
X118108Y42324D01*
X118214Y42364D01*
X118321Y42401D01*
X118429Y42434D01*
X118539Y42464D01*
X118649Y42489D01*
X118760Y42511D01*
X118872Y42528D01*
X118985Y42542D01*
X119098Y42552D01*
X119211Y42558D01*
X119324Y42560D01*
X119437Y42558D01*
X119550Y42552D01*
X119663Y42542D01*
X119776Y42528D01*
X119888Y42511D01*
X119999Y42489D01*
X120109Y42464D01*
X120219Y42434D01*
X120327Y42401D01*
X120434Y42364D01*
X120540Y42324D01*
X120644Y42279D01*
X120747Y42231D01*
X120848Y42180D01*
X120947Y42125D01*
X121044Y42067D01*
X121139Y42005D01*
X121232Y41940D01*
X121322Y41872D01*
X121410Y41801D01*
X121496Y41726D01*
X121579Y41649D01*
X121659Y41569D01*
X121736Y41486D01*
X121811Y41400D01*
X121882Y41312D01*
X121950Y41222D01*
X122015Y41129D01*
X122077Y41034D01*
X122135Y40937D01*
X122190Y40838D01*
X122241Y40737D01*
X122289Y40634D01*
X122334Y40530D01*
X122374Y40424D01*
X122411Y40317D01*
X122444Y40209D01*
X122474Y40099D01*
X122499Y39989D01*
X122521Y39878D01*
X122538Y39766D01*
X122552Y39653D01*
X122562Y39540D01*
X122568Y39427D01*
X122570Y39314D01*
X122569Y39314D02*
X122569Y36068D01*
X122569Y39963D02*
X127762Y42559D01*
X121271Y47975D02*
X121271Y51220D01*
X121270Y51220D02*
X121272Y51333D01*
X121278Y51446D01*
X121288Y51559D01*
X121302Y51672D01*
X121319Y51784D01*
X121341Y51895D01*
X121366Y52005D01*
X121396Y52115D01*
X121429Y52223D01*
X121466Y52330D01*
X121506Y52436D01*
X121551Y52540D01*
X121599Y52643D01*
X121650Y52744D01*
X121705Y52843D01*
X121763Y52940D01*
X121825Y53035D01*
X121890Y53128D01*
X121958Y53218D01*
X122029Y53306D01*
X122104Y53392D01*
X122181Y53475D01*
X122261Y53555D01*
X122344Y53632D01*
X122430Y53707D01*
X122518Y53778D01*
X122608Y53846D01*
X122701Y53911D01*
X122796Y53973D01*
X122893Y54031D01*
X122992Y54086D01*
X123093Y54137D01*
X123196Y54185D01*
X123300Y54230D01*
X123406Y54270D01*
X123513Y54307D01*
X123621Y54340D01*
X123731Y54370D01*
X123841Y54395D01*
X123952Y54417D01*
X124064Y54434D01*
X124177Y54448D01*
X124290Y54458D01*
X124403Y54464D01*
X124516Y54466D01*
X124629Y54464D01*
X124742Y54458D01*
X124855Y54448D01*
X124968Y54434D01*
X125080Y54417D01*
X125191Y54395D01*
X125301Y54370D01*
X125411Y54340D01*
X125519Y54307D01*
X125626Y54270D01*
X125732Y54230D01*
X125836Y54185D01*
X125939Y54137D01*
X126040Y54086D01*
X126139Y54031D01*
X126236Y53973D01*
X126331Y53911D01*
X126424Y53846D01*
X126514Y53778D01*
X126602Y53707D01*
X126688Y53632D01*
X126771Y53555D01*
X126851Y53475D01*
X126928Y53392D01*
X127003Y53306D01*
X127074Y53218D01*
X127142Y53128D01*
X127207Y53035D01*
X127269Y52940D01*
X127327Y52843D01*
X127382Y52744D01*
X127433Y52643D01*
X127481Y52540D01*
X127526Y52436D01*
X127566Y52330D01*
X127603Y52223D01*
X127636Y52115D01*
X127666Y52005D01*
X127691Y51895D01*
X127713Y51784D01*
X127730Y51672D01*
X127744Y51559D01*
X127754Y51446D01*
X127760Y51333D01*
X127762Y51220D01*
X127762Y47975D01*
X116078Y47975D01*
X116078Y51220D01*
X116080Y51321D01*
X116086Y51421D01*
X116096Y51521D01*
X116109Y51621D01*
X116127Y51720D01*
X116148Y51819D01*
X116173Y51916D01*
X116202Y52013D01*
X116235Y52108D01*
X116271Y52202D01*
X116311Y52294D01*
X116354Y52385D01*
X116401Y52474D01*
X116451Y52561D01*
X116505Y52647D01*
X116562Y52730D01*
X116622Y52810D01*
X116685Y52889D01*
X116752Y52965D01*
X116821Y53038D01*
X116893Y53108D01*
X116967Y53176D01*
X117044Y53241D01*
X117124Y53302D01*
X117206Y53361D01*
X117290Y53416D01*
X117376Y53468D01*
X117464Y53517D01*
X117554Y53562D01*
X117646Y53604D01*
X117739Y53642D01*
X117834Y53676D01*
X117929Y53707D01*
X118026Y53734D01*
X118124Y53757D01*
X118223Y53777D01*
X118323Y53792D01*
X118423Y53804D01*
X118523Y53812D01*
X118624Y53816D01*
X118724Y53816D01*
X118825Y53812D01*
X118925Y53804D01*
X119025Y53792D01*
X119125Y53777D01*
X119224Y53757D01*
X119322Y53734D01*
X119419Y53707D01*
X119514Y53676D01*
X119609Y53642D01*
X119702Y53604D01*
X119794Y53562D01*
X119884Y53517D01*
X119972Y53468D01*
X120058Y53416D01*
X120142Y53361D01*
X120224Y53302D01*
X120304Y53241D01*
X120381Y53176D01*
X120455Y53108D01*
X120527Y53038D01*
X120596Y52965D01*
X120663Y52889D01*
X120726Y52810D01*
X120786Y52730D01*
X120843Y52647D01*
X120897Y52561D01*
X120947Y52474D01*
X120994Y52385D01*
X121037Y52294D01*
X121077Y52202D01*
X121113Y52108D01*
X121146Y52013D01*
X121175Y51916D01*
X121200Y51819D01*
X121221Y51720D01*
X121239Y51621D01*
X121252Y51521D01*
X121262Y51421D01*
X121268Y51321D01*
X121270Y51220D01*
X125166Y58854D02*
X116078Y61451D01*
X125166Y58854D02*
X125166Y65345D01*
X122569Y63398D02*
X127762Y63398D01*
X141478Y37338D02*
X153162Y37338D01*
X141478Y37338D02*
X141478Y40584D01*
X141480Y40697D01*
X141486Y40810D01*
X141496Y40923D01*
X141510Y41036D01*
X141527Y41148D01*
X141549Y41259D01*
X141574Y41369D01*
X141604Y41479D01*
X141637Y41587D01*
X141674Y41694D01*
X141714Y41800D01*
X141759Y41904D01*
X141807Y42007D01*
X141858Y42108D01*
X141913Y42207D01*
X141971Y42304D01*
X142033Y42399D01*
X142098Y42492D01*
X142166Y42582D01*
X142237Y42670D01*
X142312Y42756D01*
X142389Y42839D01*
X142469Y42919D01*
X142552Y42996D01*
X142638Y43071D01*
X142726Y43142D01*
X142816Y43210D01*
X142909Y43275D01*
X143004Y43337D01*
X143101Y43395D01*
X143200Y43450D01*
X143301Y43501D01*
X143404Y43549D01*
X143508Y43594D01*
X143614Y43634D01*
X143721Y43671D01*
X143829Y43704D01*
X143939Y43734D01*
X144049Y43759D01*
X144160Y43781D01*
X144272Y43798D01*
X144385Y43812D01*
X144498Y43822D01*
X144611Y43828D01*
X144724Y43830D01*
X144837Y43828D01*
X144950Y43822D01*
X145063Y43812D01*
X145176Y43798D01*
X145288Y43781D01*
X145399Y43759D01*
X145509Y43734D01*
X145619Y43704D01*
X145727Y43671D01*
X145834Y43634D01*
X145940Y43594D01*
X146044Y43549D01*
X146147Y43501D01*
X146248Y43450D01*
X146347Y43395D01*
X146444Y43337D01*
X146539Y43275D01*
X146632Y43210D01*
X146722Y43142D01*
X146810Y43071D01*
X146896Y42996D01*
X146979Y42919D01*
X147059Y42839D01*
X147136Y42756D01*
X147211Y42670D01*
X147282Y42582D01*
X147350Y42492D01*
X147415Y42399D01*
X147477Y42304D01*
X147535Y42207D01*
X147590Y42108D01*
X147641Y42007D01*
X147689Y41904D01*
X147734Y41800D01*
X147774Y41694D01*
X147811Y41587D01*
X147844Y41479D01*
X147874Y41369D01*
X147899Y41259D01*
X147921Y41148D01*
X147938Y41036D01*
X147952Y40923D01*
X147962Y40810D01*
X147968Y40697D01*
X147970Y40584D01*
X147969Y40584D02*
X147969Y37338D01*
X147969Y41233D02*
X153162Y43829D01*
X146671Y49245D02*
X146671Y52490D01*
X146670Y52490D02*
X146672Y52603D01*
X146678Y52716D01*
X146688Y52829D01*
X146702Y52942D01*
X146719Y53054D01*
X146741Y53165D01*
X146766Y53275D01*
X146796Y53385D01*
X146829Y53493D01*
X146866Y53600D01*
X146906Y53706D01*
X146951Y53810D01*
X146999Y53913D01*
X147050Y54014D01*
X147105Y54113D01*
X147163Y54210D01*
X147225Y54305D01*
X147290Y54398D01*
X147358Y54488D01*
X147429Y54576D01*
X147504Y54662D01*
X147581Y54745D01*
X147661Y54825D01*
X147744Y54902D01*
X147830Y54977D01*
X147918Y55048D01*
X148008Y55116D01*
X148101Y55181D01*
X148196Y55243D01*
X148293Y55301D01*
X148392Y55356D01*
X148493Y55407D01*
X148596Y55455D01*
X148700Y55500D01*
X148806Y55540D01*
X148913Y55577D01*
X149021Y55610D01*
X149131Y55640D01*
X149241Y55665D01*
X149352Y55687D01*
X149464Y55704D01*
X149577Y55718D01*
X149690Y55728D01*
X149803Y55734D01*
X149916Y55736D01*
X150029Y55734D01*
X150142Y55728D01*
X150255Y55718D01*
X150368Y55704D01*
X150480Y55687D01*
X150591Y55665D01*
X150701Y55640D01*
X150811Y55610D01*
X150919Y55577D01*
X151026Y55540D01*
X151132Y55500D01*
X151236Y55455D01*
X151339Y55407D01*
X151440Y55356D01*
X151539Y55301D01*
X151636Y55243D01*
X151731Y55181D01*
X151824Y55116D01*
X151914Y55048D01*
X152002Y54977D01*
X152088Y54902D01*
X152171Y54825D01*
X152251Y54745D01*
X152328Y54662D01*
X152403Y54576D01*
X152474Y54488D01*
X152542Y54398D01*
X152607Y54305D01*
X152669Y54210D01*
X152727Y54113D01*
X152782Y54014D01*
X152833Y53913D01*
X152881Y53810D01*
X152926Y53706D01*
X152966Y53600D01*
X153003Y53493D01*
X153036Y53385D01*
X153066Y53275D01*
X153091Y53165D01*
X153113Y53054D01*
X153130Y52942D01*
X153144Y52829D01*
X153154Y52716D01*
X153160Y52603D01*
X153162Y52490D01*
X153162Y49245D01*
X141478Y49245D01*
X141478Y52490D01*
X141480Y52591D01*
X141486Y52691D01*
X141496Y52791D01*
X141509Y52891D01*
X141527Y52990D01*
X141548Y53089D01*
X141573Y53186D01*
X141602Y53283D01*
X141635Y53378D01*
X141671Y53472D01*
X141711Y53564D01*
X141754Y53655D01*
X141801Y53744D01*
X141851Y53831D01*
X141905Y53917D01*
X141962Y54000D01*
X142022Y54080D01*
X142085Y54159D01*
X142152Y54235D01*
X142221Y54308D01*
X142293Y54378D01*
X142367Y54446D01*
X142444Y54511D01*
X142524Y54572D01*
X142606Y54631D01*
X142690Y54686D01*
X142776Y54738D01*
X142864Y54787D01*
X142954Y54832D01*
X143046Y54874D01*
X143139Y54912D01*
X143234Y54946D01*
X143329Y54977D01*
X143426Y55004D01*
X143524Y55027D01*
X143623Y55047D01*
X143723Y55062D01*
X143823Y55074D01*
X143923Y55082D01*
X144024Y55086D01*
X144124Y55086D01*
X144225Y55082D01*
X144325Y55074D01*
X144425Y55062D01*
X144525Y55047D01*
X144624Y55027D01*
X144722Y55004D01*
X144819Y54977D01*
X144914Y54946D01*
X145009Y54912D01*
X145102Y54874D01*
X145194Y54832D01*
X145284Y54787D01*
X145372Y54738D01*
X145458Y54686D01*
X145542Y54631D01*
X145624Y54572D01*
X145704Y54511D01*
X145781Y54446D01*
X145855Y54378D01*
X145927Y54308D01*
X145996Y54235D01*
X146063Y54159D01*
X146126Y54080D01*
X146186Y54000D01*
X146243Y53917D01*
X146297Y53831D01*
X146347Y53744D01*
X146394Y53655D01*
X146437Y53564D01*
X146477Y53472D01*
X146513Y53378D01*
X146546Y53283D01*
X146575Y53186D01*
X146600Y53089D01*
X146621Y52990D01*
X146639Y52891D01*
X146652Y52791D01*
X146662Y52691D01*
X146668Y52591D01*
X146670Y52490D01*
X153162Y60124D02*
X153162Y64019D01*
X153160Y64118D01*
X153154Y64218D01*
X153145Y64317D01*
X153132Y64415D01*
X153115Y64513D01*
X153094Y64611D01*
X153069Y64707D01*
X153041Y64802D01*
X153009Y64896D01*
X152974Y64989D01*
X152935Y65081D01*
X152892Y65171D01*
X152847Y65259D01*
X152797Y65346D01*
X152745Y65430D01*
X152689Y65513D01*
X152631Y65593D01*
X152569Y65671D01*
X152504Y65746D01*
X152436Y65819D01*
X152366Y65889D01*
X152293Y65957D01*
X152218Y66022D01*
X152140Y66084D01*
X152060Y66142D01*
X151977Y66198D01*
X151893Y66250D01*
X151806Y66300D01*
X151718Y66345D01*
X151628Y66388D01*
X151536Y66427D01*
X151443Y66462D01*
X151349Y66494D01*
X151254Y66522D01*
X151158Y66547D01*
X151060Y66568D01*
X150962Y66585D01*
X150864Y66598D01*
X150765Y66607D01*
X150665Y66613D01*
X150566Y66615D01*
X149267Y66615D01*
X149168Y66613D01*
X149068Y66607D01*
X148969Y66598D01*
X148871Y66585D01*
X148773Y66568D01*
X148675Y66547D01*
X148579Y66522D01*
X148484Y66494D01*
X148390Y66462D01*
X148297Y66427D01*
X148205Y66388D01*
X148115Y66345D01*
X148027Y66300D01*
X147940Y66250D01*
X147856Y66198D01*
X147773Y66142D01*
X147693Y66084D01*
X147615Y66022D01*
X147540Y65957D01*
X147467Y65889D01*
X147397Y65819D01*
X147329Y65746D01*
X147264Y65671D01*
X147202Y65593D01*
X147144Y65513D01*
X147088Y65430D01*
X147036Y65346D01*
X146986Y65259D01*
X146941Y65171D01*
X146898Y65081D01*
X146859Y64989D01*
X146824Y64896D01*
X146792Y64802D01*
X146764Y64707D01*
X146739Y64611D01*
X146718Y64513D01*
X146701Y64415D01*
X146688Y64317D01*
X146679Y64218D01*
X146673Y64118D01*
X146671Y64019D01*
X146671Y60124D01*
X141478Y60124D01*
X141478Y66615D01*
X37338Y66548D02*
X37338Y78232D01*
X40584Y78232D01*
X40697Y78230D01*
X40810Y78224D01*
X40923Y78214D01*
X41036Y78200D01*
X41148Y78183D01*
X41259Y78161D01*
X41369Y78136D01*
X41479Y78106D01*
X41587Y78073D01*
X41694Y78036D01*
X41800Y77996D01*
X41904Y77951D01*
X42007Y77903D01*
X42108Y77852D01*
X42207Y77797D01*
X42304Y77739D01*
X42399Y77677D01*
X42492Y77612D01*
X42582Y77544D01*
X42670Y77473D01*
X42756Y77398D01*
X42839Y77321D01*
X42919Y77241D01*
X42996Y77158D01*
X43071Y77072D01*
X43142Y76984D01*
X43210Y76894D01*
X43275Y76801D01*
X43337Y76706D01*
X43395Y76609D01*
X43450Y76510D01*
X43501Y76409D01*
X43549Y76306D01*
X43594Y76202D01*
X43634Y76096D01*
X43671Y75989D01*
X43704Y75881D01*
X43734Y75771D01*
X43759Y75661D01*
X43781Y75550D01*
X43798Y75438D01*
X43812Y75325D01*
X43822Y75212D01*
X43828Y75099D01*
X43830Y74986D01*
X43828Y74873D01*
X43822Y74760D01*
X43812Y74647D01*
X43798Y74534D01*
X43781Y74422D01*
X43759Y74311D01*
X43734Y74201D01*
X43704Y74091D01*
X43671Y73983D01*
X43634Y73876D01*
X43594Y73770D01*
X43549Y73666D01*
X43501Y73563D01*
X43450Y73462D01*
X43395Y73363D01*
X43337Y73266D01*
X43275Y73171D01*
X43210Y73078D01*
X43142Y72988D01*
X43071Y72900D01*
X42996Y72814D01*
X42919Y72731D01*
X42839Y72651D01*
X42756Y72574D01*
X42670Y72499D01*
X42582Y72428D01*
X42492Y72360D01*
X42399Y72295D01*
X42304Y72233D01*
X42207Y72175D01*
X42108Y72120D01*
X42007Y72069D01*
X41904Y72021D01*
X41800Y71976D01*
X41694Y71936D01*
X41587Y71899D01*
X41479Y71866D01*
X41369Y71836D01*
X41259Y71811D01*
X41148Y71789D01*
X41036Y71772D01*
X40923Y71758D01*
X40810Y71748D01*
X40697Y71742D01*
X40584Y71740D01*
X40584Y71741D02*
X37338Y71741D01*
X41233Y71741D02*
X43829Y66548D01*
X49075Y66548D02*
X49075Y78232D01*
X52321Y78232D01*
X52434Y78230D01*
X52547Y78224D01*
X52660Y78214D01*
X52773Y78200D01*
X52885Y78183D01*
X52996Y78161D01*
X53106Y78136D01*
X53216Y78106D01*
X53324Y78073D01*
X53431Y78036D01*
X53537Y77996D01*
X53641Y77951D01*
X53744Y77903D01*
X53845Y77852D01*
X53944Y77797D01*
X54041Y77739D01*
X54136Y77677D01*
X54229Y77612D01*
X54319Y77544D01*
X54407Y77473D01*
X54493Y77398D01*
X54576Y77321D01*
X54656Y77241D01*
X54733Y77158D01*
X54808Y77072D01*
X54879Y76984D01*
X54947Y76894D01*
X55012Y76801D01*
X55074Y76706D01*
X55132Y76609D01*
X55187Y76510D01*
X55238Y76409D01*
X55286Y76306D01*
X55331Y76202D01*
X55371Y76096D01*
X55408Y75989D01*
X55441Y75881D01*
X55471Y75771D01*
X55496Y75661D01*
X55518Y75550D01*
X55535Y75438D01*
X55549Y75325D01*
X55559Y75212D01*
X55565Y75099D01*
X55567Y74986D01*
X55566Y74986D02*
X55566Y69794D01*
X55567Y69794D02*
X55565Y69681D01*
X55559Y69568D01*
X55549Y69455D01*
X55535Y69342D01*
X55518Y69230D01*
X55496Y69119D01*
X55471Y69009D01*
X55441Y68899D01*
X55408Y68791D01*
X55371Y68684D01*
X55331Y68578D01*
X55286Y68474D01*
X55238Y68371D01*
X55187Y68270D01*
X55132Y68171D01*
X55074Y68074D01*
X55012Y67979D01*
X54947Y67886D01*
X54879Y67796D01*
X54808Y67708D01*
X54733Y67622D01*
X54656Y67539D01*
X54576Y67459D01*
X54493Y67382D01*
X54407Y67307D01*
X54319Y67236D01*
X54229Y67168D01*
X54136Y67103D01*
X54041Y67041D01*
X53944Y66983D01*
X53845Y66928D01*
X53744Y66877D01*
X53641Y66829D01*
X53537Y66784D01*
X53431Y66744D01*
X53324Y66707D01*
X53216Y66674D01*
X53106Y66644D01*
X52996Y66619D01*
X52885Y66597D01*
X52773Y66580D01*
X52660Y66566D01*
X52547Y66556D01*
X52434Y66550D01*
X52321Y66548D01*
X49075Y66548D01*
X60886Y73039D02*
X64781Y73039D01*
X64880Y73037D01*
X64980Y73031D01*
X65079Y73022D01*
X65177Y73009D01*
X65275Y72992D01*
X65373Y72971D01*
X65469Y72946D01*
X65564Y72918D01*
X65658Y72886D01*
X65751Y72851D01*
X65843Y72812D01*
X65933Y72769D01*
X66021Y72724D01*
X66108Y72674D01*
X66192Y72622D01*
X66275Y72566D01*
X66355Y72508D01*
X66433Y72446D01*
X66508Y72381D01*
X66581Y72313D01*
X66651Y72243D01*
X66719Y72170D01*
X66784Y72095D01*
X66846Y72017D01*
X66904Y71937D01*
X66960Y71854D01*
X67012Y71770D01*
X67062Y71683D01*
X67107Y71595D01*
X67150Y71505D01*
X67189Y71413D01*
X67224Y71320D01*
X67256Y71226D01*
X67284Y71131D01*
X67309Y71035D01*
X67330Y70937D01*
X67347Y70839D01*
X67360Y70741D01*
X67369Y70642D01*
X67375Y70542D01*
X67377Y70443D01*
X67377Y69794D01*
X67378Y69794D02*
X67376Y69681D01*
X67370Y69568D01*
X67360Y69455D01*
X67346Y69342D01*
X67329Y69230D01*
X67307Y69119D01*
X67282Y69009D01*
X67252Y68899D01*
X67219Y68791D01*
X67182Y68684D01*
X67142Y68578D01*
X67097Y68474D01*
X67049Y68371D01*
X66998Y68270D01*
X66943Y68171D01*
X66885Y68074D01*
X66823Y67979D01*
X66758Y67886D01*
X66690Y67796D01*
X66619Y67708D01*
X66544Y67622D01*
X66467Y67539D01*
X66387Y67459D01*
X66304Y67382D01*
X66218Y67307D01*
X66130Y67236D01*
X66040Y67168D01*
X65947Y67103D01*
X65852Y67041D01*
X65755Y66983D01*
X65656Y66928D01*
X65555Y66877D01*
X65452Y66829D01*
X65348Y66784D01*
X65242Y66744D01*
X65135Y66707D01*
X65027Y66674D01*
X64917Y66644D01*
X64807Y66619D01*
X64696Y66597D01*
X64584Y66580D01*
X64471Y66566D01*
X64358Y66556D01*
X64245Y66550D01*
X64132Y66548D01*
X64019Y66550D01*
X63906Y66556D01*
X63793Y66566D01*
X63680Y66580D01*
X63568Y66597D01*
X63457Y66619D01*
X63347Y66644D01*
X63237Y66674D01*
X63129Y66707D01*
X63022Y66744D01*
X62916Y66784D01*
X62812Y66829D01*
X62709Y66877D01*
X62608Y66928D01*
X62509Y66983D01*
X62412Y67041D01*
X62317Y67103D01*
X62224Y67168D01*
X62134Y67236D01*
X62046Y67307D01*
X61960Y67382D01*
X61877Y67459D01*
X61797Y67539D01*
X61720Y67622D01*
X61645Y67708D01*
X61574Y67796D01*
X61506Y67886D01*
X61441Y67979D01*
X61379Y68074D01*
X61321Y68171D01*
X61266Y68270D01*
X61215Y68371D01*
X61167Y68474D01*
X61122Y68578D01*
X61082Y68684D01*
X61045Y68791D01*
X61012Y68899D01*
X60982Y69009D01*
X60957Y69119D01*
X60935Y69230D01*
X60918Y69342D01*
X60904Y69455D01*
X60894Y69568D01*
X60888Y69681D01*
X60886Y69794D01*
X60886Y73039D01*
X60888Y73182D01*
X60894Y73325D01*
X60904Y73468D01*
X60918Y73610D01*
X60935Y73752D01*
X60957Y73894D01*
X60982Y74035D01*
X61012Y74175D01*
X61045Y74314D01*
X61082Y74452D01*
X61123Y74589D01*
X61167Y74725D01*
X61216Y74860D01*
X61268Y74993D01*
X61323Y75125D01*
X61383Y75255D01*
X61446Y75384D01*
X61512Y75511D01*
X61582Y75635D01*
X61655Y75758D01*
X61732Y75879D01*
X61812Y75998D01*
X61895Y76114D01*
X61981Y76229D01*
X62070Y76340D01*
X62163Y76450D01*
X62258Y76556D01*
X62357Y76660D01*
X62458Y76761D01*
X62562Y76860D01*
X62668Y76955D01*
X62778Y77048D01*
X62889Y77137D01*
X63004Y77223D01*
X63120Y77306D01*
X63239Y77386D01*
X63360Y77463D01*
X63482Y77536D01*
X63607Y77606D01*
X63734Y77672D01*
X63863Y77735D01*
X63993Y77795D01*
X64125Y77850D01*
X64258Y77902D01*
X64393Y77951D01*
X64529Y77995D01*
X64666Y78036D01*
X64804Y78073D01*
X64943Y78106D01*
X65083Y78136D01*
X65224Y78161D01*
X65366Y78183D01*
X65508Y78200D01*
X65650Y78214D01*
X65793Y78224D01*
X65936Y78230D01*
X66079Y78232D01*
X37338Y90678D02*
X37338Y102362D01*
X40584Y102362D01*
X40697Y102360D01*
X40810Y102354D01*
X40923Y102344D01*
X41036Y102330D01*
X41148Y102313D01*
X41259Y102291D01*
X41369Y102266D01*
X41479Y102236D01*
X41587Y102203D01*
X41694Y102166D01*
X41800Y102126D01*
X41904Y102081D01*
X42007Y102033D01*
X42108Y101982D01*
X42207Y101927D01*
X42304Y101869D01*
X42399Y101807D01*
X42492Y101742D01*
X42582Y101674D01*
X42670Y101603D01*
X42756Y101528D01*
X42839Y101451D01*
X42919Y101371D01*
X42996Y101288D01*
X43071Y101202D01*
X43142Y101114D01*
X43210Y101024D01*
X43275Y100931D01*
X43337Y100836D01*
X43395Y100739D01*
X43450Y100640D01*
X43501Y100539D01*
X43549Y100436D01*
X43594Y100332D01*
X43634Y100226D01*
X43671Y100119D01*
X43704Y100011D01*
X43734Y99901D01*
X43759Y99791D01*
X43781Y99680D01*
X43798Y99568D01*
X43812Y99455D01*
X43822Y99342D01*
X43828Y99229D01*
X43830Y99116D01*
X43828Y99003D01*
X43822Y98890D01*
X43812Y98777D01*
X43798Y98664D01*
X43781Y98552D01*
X43759Y98441D01*
X43734Y98331D01*
X43704Y98221D01*
X43671Y98113D01*
X43634Y98006D01*
X43594Y97900D01*
X43549Y97796D01*
X43501Y97693D01*
X43450Y97592D01*
X43395Y97493D01*
X43337Y97396D01*
X43275Y97301D01*
X43210Y97208D01*
X43142Y97118D01*
X43071Y97030D01*
X42996Y96944D01*
X42919Y96861D01*
X42839Y96781D01*
X42756Y96704D01*
X42670Y96629D01*
X42582Y96558D01*
X42492Y96490D01*
X42399Y96425D01*
X42304Y96363D01*
X42207Y96305D01*
X42108Y96250D01*
X42007Y96199D01*
X41904Y96151D01*
X41800Y96106D01*
X41694Y96066D01*
X41587Y96029D01*
X41479Y95996D01*
X41369Y95966D01*
X41259Y95941D01*
X41148Y95919D01*
X41036Y95902D01*
X40923Y95888D01*
X40810Y95878D01*
X40697Y95872D01*
X40584Y95870D01*
X40584Y95871D02*
X37338Y95871D01*
X41233Y95871D02*
X43829Y90678D01*
X49075Y90678D02*
X49075Y102362D01*
X52321Y102362D01*
X52434Y102360D01*
X52547Y102354D01*
X52660Y102344D01*
X52773Y102330D01*
X52885Y102313D01*
X52996Y102291D01*
X53106Y102266D01*
X53216Y102236D01*
X53324Y102203D01*
X53431Y102166D01*
X53537Y102126D01*
X53641Y102081D01*
X53744Y102033D01*
X53845Y101982D01*
X53944Y101927D01*
X54041Y101869D01*
X54136Y101807D01*
X54229Y101742D01*
X54319Y101674D01*
X54407Y101603D01*
X54493Y101528D01*
X54576Y101451D01*
X54656Y101371D01*
X54733Y101288D01*
X54808Y101202D01*
X54879Y101114D01*
X54947Y101024D01*
X55012Y100931D01*
X55074Y100836D01*
X55132Y100739D01*
X55187Y100640D01*
X55238Y100539D01*
X55286Y100436D01*
X55331Y100332D01*
X55371Y100226D01*
X55408Y100119D01*
X55441Y100011D01*
X55471Y99901D01*
X55496Y99791D01*
X55518Y99680D01*
X55535Y99568D01*
X55549Y99455D01*
X55559Y99342D01*
X55565Y99229D01*
X55567Y99116D01*
X55566Y99116D02*
X55566Y93924D01*
X55567Y93924D02*
X55565Y93811D01*
X55559Y93698D01*
X55549Y93585D01*
X55535Y93472D01*
X55518Y93360D01*
X55496Y93249D01*
X55471Y93139D01*
X55441Y93029D01*
X55408Y92921D01*
X55371Y92814D01*
X55331Y92708D01*
X55286Y92604D01*
X55238Y92501D01*
X55187Y92400D01*
X55132Y92301D01*
X55074Y92204D01*
X55012Y92109D01*
X54947Y92016D01*
X54879Y91926D01*
X54808Y91838D01*
X54733Y91752D01*
X54656Y91669D01*
X54576Y91589D01*
X54493Y91512D01*
X54407Y91437D01*
X54319Y91366D01*
X54229Y91298D01*
X54136Y91233D01*
X54041Y91171D01*
X53944Y91113D01*
X53845Y91058D01*
X53744Y91007D01*
X53641Y90959D01*
X53537Y90914D01*
X53431Y90874D01*
X53324Y90837D01*
X53216Y90804D01*
X53106Y90774D01*
X52996Y90749D01*
X52885Y90727D01*
X52773Y90710D01*
X52660Y90696D01*
X52547Y90686D01*
X52434Y90680D01*
X52321Y90678D01*
X49075Y90678D01*
X60886Y90678D02*
X64781Y90678D01*
X64880Y90680D01*
X64980Y90686D01*
X65079Y90695D01*
X65177Y90708D01*
X65275Y90725D01*
X65373Y90746D01*
X65469Y90771D01*
X65564Y90799D01*
X65658Y90831D01*
X65751Y90866D01*
X65843Y90905D01*
X65933Y90948D01*
X66021Y90993D01*
X66108Y91043D01*
X66192Y91095D01*
X66275Y91151D01*
X66355Y91209D01*
X66433Y91271D01*
X66508Y91336D01*
X66581Y91404D01*
X66651Y91474D01*
X66719Y91547D01*
X66784Y91622D01*
X66846Y91700D01*
X66904Y91780D01*
X66960Y91863D01*
X67012Y91947D01*
X67062Y92034D01*
X67107Y92122D01*
X67150Y92212D01*
X67189Y92304D01*
X67224Y92397D01*
X67256Y92491D01*
X67284Y92586D01*
X67309Y92682D01*
X67330Y92780D01*
X67347Y92878D01*
X67360Y92976D01*
X67369Y93075D01*
X67375Y93175D01*
X67377Y93274D01*
X67377Y94573D01*
X67375Y94672D01*
X67369Y94772D01*
X67360Y94871D01*
X67347Y94969D01*
X67330Y95067D01*
X67309Y95165D01*
X67284Y95261D01*
X67256Y95356D01*
X67224Y95450D01*
X67189Y95543D01*
X67150Y95635D01*
X67107Y95725D01*
X67062Y95813D01*
X67012Y95900D01*
X66960Y95984D01*
X66904Y96067D01*
X66846Y96147D01*
X66784Y96225D01*
X66719Y96300D01*
X66651Y96373D01*
X66581Y96443D01*
X66508Y96511D01*
X66433Y96576D01*
X66355Y96638D01*
X66275Y96696D01*
X66192Y96752D01*
X66108Y96804D01*
X66021Y96854D01*
X65933Y96899D01*
X65843Y96942D01*
X65751Y96981D01*
X65658Y97016D01*
X65564Y97048D01*
X65469Y97076D01*
X65373Y97101D01*
X65275Y97122D01*
X65177Y97139D01*
X65079Y97152D01*
X64980Y97161D01*
X64880Y97167D01*
X64781Y97169D01*
X60886Y97169D01*
X60886Y102362D01*
X67377Y102362D01*
X36068Y116078D02*
X36068Y127762D01*
X39314Y127762D01*
X39427Y127760D01*
X39540Y127754D01*
X39653Y127744D01*
X39766Y127730D01*
X39878Y127713D01*
X39989Y127691D01*
X40099Y127666D01*
X40209Y127636D01*
X40317Y127603D01*
X40424Y127566D01*
X40530Y127526D01*
X40634Y127481D01*
X40737Y127433D01*
X40838Y127382D01*
X40937Y127327D01*
X41034Y127269D01*
X41129Y127207D01*
X41222Y127142D01*
X41312Y127074D01*
X41400Y127003D01*
X41486Y126928D01*
X41569Y126851D01*
X41649Y126771D01*
X41726Y126688D01*
X41801Y126602D01*
X41872Y126514D01*
X41940Y126424D01*
X42005Y126331D01*
X42067Y126236D01*
X42125Y126139D01*
X42180Y126040D01*
X42231Y125939D01*
X42279Y125836D01*
X42324Y125732D01*
X42364Y125626D01*
X42401Y125519D01*
X42434Y125411D01*
X42464Y125301D01*
X42489Y125191D01*
X42511Y125080D01*
X42528Y124968D01*
X42542Y124855D01*
X42552Y124742D01*
X42558Y124629D01*
X42560Y124516D01*
X42558Y124403D01*
X42552Y124290D01*
X42542Y124177D01*
X42528Y124064D01*
X42511Y123952D01*
X42489Y123841D01*
X42464Y123731D01*
X42434Y123621D01*
X42401Y123513D01*
X42364Y123406D01*
X42324Y123300D01*
X42279Y123196D01*
X42231Y123093D01*
X42180Y122992D01*
X42125Y122893D01*
X42067Y122796D01*
X42005Y122701D01*
X41940Y122608D01*
X41872Y122518D01*
X41801Y122430D01*
X41726Y122344D01*
X41649Y122261D01*
X41569Y122181D01*
X41486Y122104D01*
X41400Y122029D01*
X41312Y121958D01*
X41222Y121890D01*
X41129Y121825D01*
X41034Y121763D01*
X40937Y121705D01*
X40838Y121650D01*
X40737Y121599D01*
X40634Y121551D01*
X40530Y121506D01*
X40424Y121466D01*
X40317Y121429D01*
X40209Y121396D01*
X40099Y121366D01*
X39989Y121341D01*
X39878Y121319D01*
X39766Y121302D01*
X39653Y121288D01*
X39540Y121278D01*
X39427Y121272D01*
X39314Y121270D01*
X39314Y121271D02*
X36068Y121271D01*
X39963Y121271D02*
X42559Y116078D01*
X47805Y116078D02*
X47805Y127762D01*
X51051Y127762D01*
X51164Y127760D01*
X51277Y127754D01*
X51390Y127744D01*
X51503Y127730D01*
X51615Y127713D01*
X51726Y127691D01*
X51836Y127666D01*
X51946Y127636D01*
X52054Y127603D01*
X52161Y127566D01*
X52267Y127526D01*
X52371Y127481D01*
X52474Y127433D01*
X52575Y127382D01*
X52674Y127327D01*
X52771Y127269D01*
X52866Y127207D01*
X52959Y127142D01*
X53049Y127074D01*
X53137Y127003D01*
X53223Y126928D01*
X53306Y126851D01*
X53386Y126771D01*
X53463Y126688D01*
X53538Y126602D01*
X53609Y126514D01*
X53677Y126424D01*
X53742Y126331D01*
X53804Y126236D01*
X53862Y126139D01*
X53917Y126040D01*
X53968Y125939D01*
X54016Y125836D01*
X54061Y125732D01*
X54101Y125626D01*
X54138Y125519D01*
X54171Y125411D01*
X54201Y125301D01*
X54226Y125191D01*
X54248Y125080D01*
X54265Y124968D01*
X54279Y124855D01*
X54289Y124742D01*
X54295Y124629D01*
X54297Y124516D01*
X54296Y124516D02*
X54296Y119324D01*
X54297Y119324D02*
X54295Y119211D01*
X54289Y119098D01*
X54279Y118985D01*
X54265Y118872D01*
X54248Y118760D01*
X54226Y118649D01*
X54201Y118539D01*
X54171Y118429D01*
X54138Y118321D01*
X54101Y118214D01*
X54061Y118108D01*
X54016Y118004D01*
X53968Y117901D01*
X53917Y117800D01*
X53862Y117701D01*
X53804Y117604D01*
X53742Y117509D01*
X53677Y117416D01*
X53609Y117326D01*
X53538Y117238D01*
X53463Y117152D01*
X53386Y117069D01*
X53306Y116989D01*
X53223Y116912D01*
X53137Y116837D01*
X53049Y116766D01*
X52959Y116698D01*
X52866Y116633D01*
X52771Y116571D01*
X52674Y116513D01*
X52575Y116458D01*
X52474Y116407D01*
X52371Y116359D01*
X52267Y116314D01*
X52161Y116274D01*
X52054Y116237D01*
X51946Y116204D01*
X51836Y116174D01*
X51726Y116149D01*
X51615Y116127D01*
X51503Y116110D01*
X51390Y116096D01*
X51277Y116086D01*
X51164Y116080D01*
X51051Y116078D01*
X47805Y116078D01*
X59616Y118674D02*
X62213Y127762D01*
X59616Y118674D02*
X66107Y118674D01*
X64160Y121271D02*
X64160Y116078D01*
X36068Y141478D02*
X36068Y153162D01*
X39314Y153162D01*
X39427Y153160D01*
X39540Y153154D01*
X39653Y153144D01*
X39766Y153130D01*
X39878Y153113D01*
X39989Y153091D01*
X40099Y153066D01*
X40209Y153036D01*
X40317Y153003D01*
X40424Y152966D01*
X40530Y152926D01*
X40634Y152881D01*
X40737Y152833D01*
X40838Y152782D01*
X40937Y152727D01*
X41034Y152669D01*
X41129Y152607D01*
X41222Y152542D01*
X41312Y152474D01*
X41400Y152403D01*
X41486Y152328D01*
X41569Y152251D01*
X41649Y152171D01*
X41726Y152088D01*
X41801Y152002D01*
X41872Y151914D01*
X41940Y151824D01*
X42005Y151731D01*
X42067Y151636D01*
X42125Y151539D01*
X42180Y151440D01*
X42231Y151339D01*
X42279Y151236D01*
X42324Y151132D01*
X42364Y151026D01*
X42401Y150919D01*
X42434Y150811D01*
X42464Y150701D01*
X42489Y150591D01*
X42511Y150480D01*
X42528Y150368D01*
X42542Y150255D01*
X42552Y150142D01*
X42558Y150029D01*
X42560Y149916D01*
X42558Y149803D01*
X42552Y149690D01*
X42542Y149577D01*
X42528Y149464D01*
X42511Y149352D01*
X42489Y149241D01*
X42464Y149131D01*
X42434Y149021D01*
X42401Y148913D01*
X42364Y148806D01*
X42324Y148700D01*
X42279Y148596D01*
X42231Y148493D01*
X42180Y148392D01*
X42125Y148293D01*
X42067Y148196D01*
X42005Y148101D01*
X41940Y148008D01*
X41872Y147918D01*
X41801Y147830D01*
X41726Y147744D01*
X41649Y147661D01*
X41569Y147581D01*
X41486Y147504D01*
X41400Y147429D01*
X41312Y147358D01*
X41222Y147290D01*
X41129Y147225D01*
X41034Y147163D01*
X40937Y147105D01*
X40838Y147050D01*
X40737Y146999D01*
X40634Y146951D01*
X40530Y146906D01*
X40424Y146866D01*
X40317Y146829D01*
X40209Y146796D01*
X40099Y146766D01*
X39989Y146741D01*
X39878Y146719D01*
X39766Y146702D01*
X39653Y146688D01*
X39540Y146678D01*
X39427Y146672D01*
X39314Y146670D01*
X39314Y146671D02*
X36068Y146671D01*
X39963Y146671D02*
X42559Y141478D01*
X47805Y141478D02*
X47805Y153162D01*
X51051Y153162D01*
X51164Y153160D01*
X51277Y153154D01*
X51390Y153144D01*
X51503Y153130D01*
X51615Y153113D01*
X51726Y153091D01*
X51836Y153066D01*
X51946Y153036D01*
X52054Y153003D01*
X52161Y152966D01*
X52267Y152926D01*
X52371Y152881D01*
X52474Y152833D01*
X52575Y152782D01*
X52674Y152727D01*
X52771Y152669D01*
X52866Y152607D01*
X52959Y152542D01*
X53049Y152474D01*
X53137Y152403D01*
X53223Y152328D01*
X53306Y152251D01*
X53386Y152171D01*
X53463Y152088D01*
X53538Y152002D01*
X53609Y151914D01*
X53677Y151824D01*
X53742Y151731D01*
X53804Y151636D01*
X53862Y151539D01*
X53917Y151440D01*
X53968Y151339D01*
X54016Y151236D01*
X54061Y151132D01*
X54101Y151026D01*
X54138Y150919D01*
X54171Y150811D01*
X54201Y150701D01*
X54226Y150591D01*
X54248Y150480D01*
X54265Y150368D01*
X54279Y150255D01*
X54289Y150142D01*
X54295Y150029D01*
X54297Y149916D01*
X54296Y149916D02*
X54296Y144724D01*
X54297Y144724D02*
X54295Y144611D01*
X54289Y144498D01*
X54279Y144385D01*
X54265Y144272D01*
X54248Y144160D01*
X54226Y144049D01*
X54201Y143939D01*
X54171Y143829D01*
X54138Y143721D01*
X54101Y143614D01*
X54061Y143508D01*
X54016Y143404D01*
X53968Y143301D01*
X53917Y143200D01*
X53862Y143101D01*
X53804Y143004D01*
X53742Y142909D01*
X53677Y142816D01*
X53609Y142726D01*
X53538Y142638D01*
X53463Y142552D01*
X53386Y142469D01*
X53306Y142389D01*
X53223Y142312D01*
X53137Y142237D01*
X53049Y142166D01*
X52959Y142098D01*
X52866Y142033D01*
X52771Y141971D01*
X52674Y141913D01*
X52575Y141858D01*
X52474Y141807D01*
X52371Y141759D01*
X52267Y141714D01*
X52161Y141674D01*
X52054Y141637D01*
X51946Y141604D01*
X51836Y141574D01*
X51726Y141549D01*
X51615Y141527D01*
X51503Y141510D01*
X51390Y141496D01*
X51277Y141486D01*
X51164Y141480D01*
X51051Y141478D01*
X47805Y141478D01*
X59616Y141478D02*
X62862Y141478D01*
X62975Y141480D01*
X63088Y141486D01*
X63201Y141496D01*
X63314Y141510D01*
X63426Y141527D01*
X63537Y141549D01*
X63647Y141574D01*
X63757Y141604D01*
X63865Y141637D01*
X63972Y141674D01*
X64078Y141714D01*
X64182Y141759D01*
X64285Y141807D01*
X64386Y141858D01*
X64485Y141913D01*
X64582Y141971D01*
X64677Y142033D01*
X64770Y142098D01*
X64860Y142166D01*
X64948Y142237D01*
X65034Y142312D01*
X65117Y142389D01*
X65197Y142469D01*
X65274Y142552D01*
X65349Y142638D01*
X65420Y142726D01*
X65488Y142816D01*
X65553Y142909D01*
X65615Y143004D01*
X65673Y143101D01*
X65728Y143200D01*
X65779Y143301D01*
X65827Y143404D01*
X65872Y143508D01*
X65912Y143614D01*
X65949Y143721D01*
X65982Y143829D01*
X66012Y143939D01*
X66037Y144049D01*
X66059Y144160D01*
X66076Y144272D01*
X66090Y144385D01*
X66100Y144498D01*
X66106Y144611D01*
X66108Y144724D01*
X66106Y144837D01*
X66100Y144950D01*
X66090Y145063D01*
X66076Y145176D01*
X66059Y145288D01*
X66037Y145399D01*
X66012Y145509D01*
X65982Y145619D01*
X65949Y145727D01*
X65912Y145834D01*
X65872Y145940D01*
X65827Y146044D01*
X65779Y146147D01*
X65728Y146248D01*
X65673Y146347D01*
X65615Y146444D01*
X65553Y146539D01*
X65488Y146632D01*
X65420Y146722D01*
X65349Y146810D01*
X65274Y146896D01*
X65197Y146979D01*
X65117Y147059D01*
X65034Y147136D01*
X64948Y147211D01*
X64860Y147282D01*
X64770Y147350D01*
X64677Y147415D01*
X64582Y147477D01*
X64485Y147535D01*
X64386Y147590D01*
X64285Y147641D01*
X64182Y147689D01*
X64078Y147734D01*
X63972Y147774D01*
X63865Y147811D01*
X63757Y147844D01*
X63647Y147874D01*
X63537Y147899D01*
X63426Y147921D01*
X63314Y147938D01*
X63201Y147952D01*
X63088Y147962D01*
X62975Y147968D01*
X62862Y147970D01*
X63511Y153162D02*
X59616Y153162D01*
X63511Y153162D02*
X63612Y153160D01*
X63712Y153154D01*
X63812Y153144D01*
X63912Y153131D01*
X64011Y153113D01*
X64110Y153092D01*
X64207Y153067D01*
X64304Y153038D01*
X64399Y153005D01*
X64493Y152969D01*
X64585Y152929D01*
X64676Y152886D01*
X64765Y152839D01*
X64852Y152789D01*
X64938Y152735D01*
X65021Y152678D01*
X65101Y152618D01*
X65180Y152555D01*
X65256Y152488D01*
X65329Y152419D01*
X65399Y152347D01*
X65467Y152273D01*
X65532Y152196D01*
X65593Y152116D01*
X65652Y152034D01*
X65707Y151950D01*
X65759Y151864D01*
X65808Y151776D01*
X65853Y151686D01*
X65895Y151594D01*
X65933Y151501D01*
X65967Y151406D01*
X65998Y151311D01*
X66025Y151214D01*
X66048Y151116D01*
X66068Y151017D01*
X66083Y150917D01*
X66095Y150817D01*
X66103Y150717D01*
X66107Y150616D01*
X66107Y150516D01*
X66103Y150415D01*
X66095Y150315D01*
X66083Y150215D01*
X66068Y150115D01*
X66048Y150016D01*
X66025Y149918D01*
X65998Y149821D01*
X65967Y149726D01*
X65933Y149631D01*
X65895Y149538D01*
X65853Y149446D01*
X65808Y149356D01*
X65759Y149268D01*
X65707Y149182D01*
X65652Y149098D01*
X65593Y149016D01*
X65532Y148936D01*
X65467Y148859D01*
X65399Y148785D01*
X65329Y148713D01*
X65256Y148644D01*
X65180Y148577D01*
X65101Y148514D01*
X65021Y148454D01*
X64938Y148397D01*
X64852Y148343D01*
X64765Y148293D01*
X64676Y148246D01*
X64585Y148203D01*
X64493Y148163D01*
X64399Y148127D01*
X64304Y148094D01*
X64207Y148065D01*
X64110Y148040D01*
X64011Y148019D01*
X63912Y148001D01*
X63812Y147988D01*
X63712Y147978D01*
X63612Y147972D01*
X63511Y147970D01*
X63511Y147969D02*
X60915Y147969D01*
X36068Y166878D02*
X36068Y178562D01*
X39314Y178562D01*
X39427Y178560D01*
X39540Y178554D01*
X39653Y178544D01*
X39766Y178530D01*
X39878Y178513D01*
X39989Y178491D01*
X40099Y178466D01*
X40209Y178436D01*
X40317Y178403D01*
X40424Y178366D01*
X40530Y178326D01*
X40634Y178281D01*
X40737Y178233D01*
X40838Y178182D01*
X40937Y178127D01*
X41034Y178069D01*
X41129Y178007D01*
X41222Y177942D01*
X41312Y177874D01*
X41400Y177803D01*
X41486Y177728D01*
X41569Y177651D01*
X41649Y177571D01*
X41726Y177488D01*
X41801Y177402D01*
X41872Y177314D01*
X41940Y177224D01*
X42005Y177131D01*
X42067Y177036D01*
X42125Y176939D01*
X42180Y176840D01*
X42231Y176739D01*
X42279Y176636D01*
X42324Y176532D01*
X42364Y176426D01*
X42401Y176319D01*
X42434Y176211D01*
X42464Y176101D01*
X42489Y175991D01*
X42511Y175880D01*
X42528Y175768D01*
X42542Y175655D01*
X42552Y175542D01*
X42558Y175429D01*
X42560Y175316D01*
X42558Y175203D01*
X42552Y175090D01*
X42542Y174977D01*
X42528Y174864D01*
X42511Y174752D01*
X42489Y174641D01*
X42464Y174531D01*
X42434Y174421D01*
X42401Y174313D01*
X42364Y174206D01*
X42324Y174100D01*
X42279Y173996D01*
X42231Y173893D01*
X42180Y173792D01*
X42125Y173693D01*
X42067Y173596D01*
X42005Y173501D01*
X41940Y173408D01*
X41872Y173318D01*
X41801Y173230D01*
X41726Y173144D01*
X41649Y173061D01*
X41569Y172981D01*
X41486Y172904D01*
X41400Y172829D01*
X41312Y172758D01*
X41222Y172690D01*
X41129Y172625D01*
X41034Y172563D01*
X40937Y172505D01*
X40838Y172450D01*
X40737Y172399D01*
X40634Y172351D01*
X40530Y172306D01*
X40424Y172266D01*
X40317Y172229D01*
X40209Y172196D01*
X40099Y172166D01*
X39989Y172141D01*
X39878Y172119D01*
X39766Y172102D01*
X39653Y172088D01*
X39540Y172078D01*
X39427Y172072D01*
X39314Y172070D01*
X39314Y172071D02*
X36068Y172071D01*
X39963Y172071D02*
X42559Y166878D01*
X47805Y166878D02*
X47805Y178562D01*
X51051Y178562D01*
X51164Y178560D01*
X51277Y178554D01*
X51390Y178544D01*
X51503Y178530D01*
X51615Y178513D01*
X51726Y178491D01*
X51836Y178466D01*
X51946Y178436D01*
X52054Y178403D01*
X52161Y178366D01*
X52267Y178326D01*
X52371Y178281D01*
X52474Y178233D01*
X52575Y178182D01*
X52674Y178127D01*
X52771Y178069D01*
X52866Y178007D01*
X52959Y177942D01*
X53049Y177874D01*
X53137Y177803D01*
X53223Y177728D01*
X53306Y177651D01*
X53386Y177571D01*
X53463Y177488D01*
X53538Y177402D01*
X53609Y177314D01*
X53677Y177224D01*
X53742Y177131D01*
X53804Y177036D01*
X53862Y176939D01*
X53917Y176840D01*
X53968Y176739D01*
X54016Y176636D01*
X54061Y176532D01*
X54101Y176426D01*
X54138Y176319D01*
X54171Y176211D01*
X54201Y176101D01*
X54226Y175991D01*
X54248Y175880D01*
X54265Y175768D01*
X54279Y175655D01*
X54289Y175542D01*
X54295Y175429D01*
X54297Y175316D01*
X54296Y175316D02*
X54296Y170124D01*
X54297Y170124D02*
X54295Y170011D01*
X54289Y169898D01*
X54279Y169785D01*
X54265Y169672D01*
X54248Y169560D01*
X54226Y169449D01*
X54201Y169339D01*
X54171Y169229D01*
X54138Y169121D01*
X54101Y169014D01*
X54061Y168908D01*
X54016Y168804D01*
X53968Y168701D01*
X53917Y168600D01*
X53862Y168501D01*
X53804Y168404D01*
X53742Y168309D01*
X53677Y168216D01*
X53609Y168126D01*
X53538Y168038D01*
X53463Y167952D01*
X53386Y167869D01*
X53306Y167789D01*
X53223Y167712D01*
X53137Y167637D01*
X53049Y167566D01*
X52959Y167498D01*
X52866Y167433D01*
X52771Y167371D01*
X52674Y167313D01*
X52575Y167258D01*
X52474Y167207D01*
X52371Y167159D01*
X52267Y167114D01*
X52161Y167074D01*
X52054Y167037D01*
X51946Y167004D01*
X51836Y166974D01*
X51726Y166949D01*
X51615Y166927D01*
X51503Y166910D01*
X51390Y166896D01*
X51277Y166886D01*
X51164Y166880D01*
X51051Y166878D01*
X47805Y166878D01*
X63186Y178562D02*
X63293Y178560D01*
X63399Y178554D01*
X63505Y178544D01*
X63611Y178531D01*
X63717Y178513D01*
X63821Y178492D01*
X63925Y178467D01*
X64028Y178438D01*
X64129Y178406D01*
X64229Y178369D01*
X64328Y178329D01*
X64426Y178286D01*
X64522Y178239D01*
X64616Y178188D01*
X64708Y178134D01*
X64798Y178077D01*
X64886Y178017D01*
X64971Y177953D01*
X65054Y177886D01*
X65135Y177816D01*
X65213Y177744D01*
X65289Y177668D01*
X65361Y177590D01*
X65431Y177509D01*
X65498Y177426D01*
X65562Y177341D01*
X65622Y177253D01*
X65679Y177163D01*
X65733Y177071D01*
X65784Y176977D01*
X65831Y176881D01*
X65874Y176783D01*
X65914Y176684D01*
X65951Y176584D01*
X65983Y176483D01*
X66012Y176380D01*
X66037Y176276D01*
X66058Y176172D01*
X66076Y176066D01*
X66089Y175960D01*
X66099Y175854D01*
X66105Y175748D01*
X66107Y175641D01*
X63186Y178562D02*
X63065Y178560D01*
X62944Y178554D01*
X62824Y178544D01*
X62703Y178531D01*
X62584Y178513D01*
X62464Y178492D01*
X62346Y178467D01*
X62229Y178438D01*
X62112Y178405D01*
X61997Y178369D01*
X61883Y178328D01*
X61770Y178285D01*
X61658Y178237D01*
X61549Y178186D01*
X61441Y178131D01*
X61334Y178073D01*
X61230Y178012D01*
X61128Y177947D01*
X61028Y177879D01*
X60930Y177808D01*
X60834Y177734D01*
X60741Y177657D01*
X60651Y177576D01*
X60563Y177493D01*
X60478Y177407D01*
X60395Y177318D01*
X60316Y177227D01*
X60239Y177133D01*
X60166Y177037D01*
X60096Y176939D01*
X60029Y176838D01*
X59965Y176735D01*
X59905Y176630D01*
X59848Y176523D01*
X59794Y176415D01*
X59744Y176305D01*
X59698Y176193D01*
X59655Y176080D01*
X59616Y175965D01*
X65134Y173369D02*
X65213Y173446D01*
X65289Y173527D01*
X65362Y173610D01*
X65432Y173695D01*
X65499Y173783D01*
X65563Y173873D01*
X65623Y173965D01*
X65680Y174060D01*
X65734Y174156D01*
X65785Y174254D01*
X65832Y174354D01*
X65876Y174456D01*
X65916Y174559D01*
X65952Y174663D01*
X65984Y174769D01*
X66013Y174875D01*
X66038Y174983D01*
X66060Y175091D01*
X66077Y175201D01*
X66091Y175310D01*
X66100Y175420D01*
X66106Y175531D01*
X66108Y175641D01*
X65134Y173369D02*
X59616Y166878D01*
X66107Y166878D01*
X36068Y191008D02*
X36068Y202692D01*
X39314Y202692D01*
X39427Y202690D01*
X39540Y202684D01*
X39653Y202674D01*
X39766Y202660D01*
X39878Y202643D01*
X39989Y202621D01*
X40099Y202596D01*
X40209Y202566D01*
X40317Y202533D01*
X40424Y202496D01*
X40530Y202456D01*
X40634Y202411D01*
X40737Y202363D01*
X40838Y202312D01*
X40937Y202257D01*
X41034Y202199D01*
X41129Y202137D01*
X41222Y202072D01*
X41312Y202004D01*
X41400Y201933D01*
X41486Y201858D01*
X41569Y201781D01*
X41649Y201701D01*
X41726Y201618D01*
X41801Y201532D01*
X41872Y201444D01*
X41940Y201354D01*
X42005Y201261D01*
X42067Y201166D01*
X42125Y201069D01*
X42180Y200970D01*
X42231Y200869D01*
X42279Y200766D01*
X42324Y200662D01*
X42364Y200556D01*
X42401Y200449D01*
X42434Y200341D01*
X42464Y200231D01*
X42489Y200121D01*
X42511Y200010D01*
X42528Y199898D01*
X42542Y199785D01*
X42552Y199672D01*
X42558Y199559D01*
X42560Y199446D01*
X42558Y199333D01*
X42552Y199220D01*
X42542Y199107D01*
X42528Y198994D01*
X42511Y198882D01*
X42489Y198771D01*
X42464Y198661D01*
X42434Y198551D01*
X42401Y198443D01*
X42364Y198336D01*
X42324Y198230D01*
X42279Y198126D01*
X42231Y198023D01*
X42180Y197922D01*
X42125Y197823D01*
X42067Y197726D01*
X42005Y197631D01*
X41940Y197538D01*
X41872Y197448D01*
X41801Y197360D01*
X41726Y197274D01*
X41649Y197191D01*
X41569Y197111D01*
X41486Y197034D01*
X41400Y196959D01*
X41312Y196888D01*
X41222Y196820D01*
X41129Y196755D01*
X41034Y196693D01*
X40937Y196635D01*
X40838Y196580D01*
X40737Y196529D01*
X40634Y196481D01*
X40530Y196436D01*
X40424Y196396D01*
X40317Y196359D01*
X40209Y196326D01*
X40099Y196296D01*
X39989Y196271D01*
X39878Y196249D01*
X39766Y196232D01*
X39653Y196218D01*
X39540Y196208D01*
X39427Y196202D01*
X39314Y196200D01*
X39314Y196201D02*
X36068Y196201D01*
X39963Y196201D02*
X42559Y191008D01*
X47805Y191008D02*
X47805Y202692D01*
X51051Y202692D01*
X51164Y202690D01*
X51277Y202684D01*
X51390Y202674D01*
X51503Y202660D01*
X51615Y202643D01*
X51726Y202621D01*
X51836Y202596D01*
X51946Y202566D01*
X52054Y202533D01*
X52161Y202496D01*
X52267Y202456D01*
X52371Y202411D01*
X52474Y202363D01*
X52575Y202312D01*
X52674Y202257D01*
X52771Y202199D01*
X52866Y202137D01*
X52959Y202072D01*
X53049Y202004D01*
X53137Y201933D01*
X53223Y201858D01*
X53306Y201781D01*
X53386Y201701D01*
X53463Y201618D01*
X53538Y201532D01*
X53609Y201444D01*
X53677Y201354D01*
X53742Y201261D01*
X53804Y201166D01*
X53862Y201069D01*
X53917Y200970D01*
X53968Y200869D01*
X54016Y200766D01*
X54061Y200662D01*
X54101Y200556D01*
X54138Y200449D01*
X54171Y200341D01*
X54201Y200231D01*
X54226Y200121D01*
X54248Y200010D01*
X54265Y199898D01*
X54279Y199785D01*
X54289Y199672D01*
X54295Y199559D01*
X54297Y199446D01*
X54296Y199446D02*
X54296Y194254D01*
X54297Y194254D02*
X54295Y194141D01*
X54289Y194028D01*
X54279Y193915D01*
X54265Y193802D01*
X54248Y193690D01*
X54226Y193579D01*
X54201Y193469D01*
X54171Y193359D01*
X54138Y193251D01*
X54101Y193144D01*
X54061Y193038D01*
X54016Y192934D01*
X53968Y192831D01*
X53917Y192730D01*
X53862Y192631D01*
X53804Y192534D01*
X53742Y192439D01*
X53677Y192346D01*
X53609Y192256D01*
X53538Y192168D01*
X53463Y192082D01*
X53386Y191999D01*
X53306Y191919D01*
X53223Y191842D01*
X53137Y191767D01*
X53049Y191696D01*
X52959Y191628D01*
X52866Y191563D01*
X52771Y191501D01*
X52674Y191443D01*
X52575Y191388D01*
X52474Y191337D01*
X52371Y191289D01*
X52267Y191244D01*
X52161Y191204D01*
X52054Y191167D01*
X51946Y191134D01*
X51836Y191104D01*
X51726Y191079D01*
X51615Y191057D01*
X51503Y191040D01*
X51390Y191026D01*
X51277Y191016D01*
X51164Y191010D01*
X51051Y191008D01*
X47805Y191008D01*
X59616Y200096D02*
X62862Y202692D01*
X62862Y191008D01*
X66107Y191008D02*
X59616Y191008D01*
X36068Y216408D02*
X36068Y228092D01*
X39314Y228092D01*
X39427Y228090D01*
X39540Y228084D01*
X39653Y228074D01*
X39766Y228060D01*
X39878Y228043D01*
X39989Y228021D01*
X40099Y227996D01*
X40209Y227966D01*
X40317Y227933D01*
X40424Y227896D01*
X40530Y227856D01*
X40634Y227811D01*
X40737Y227763D01*
X40838Y227712D01*
X40937Y227657D01*
X41034Y227599D01*
X41129Y227537D01*
X41222Y227472D01*
X41312Y227404D01*
X41400Y227333D01*
X41486Y227258D01*
X41569Y227181D01*
X41649Y227101D01*
X41726Y227018D01*
X41801Y226932D01*
X41872Y226844D01*
X41940Y226754D01*
X42005Y226661D01*
X42067Y226566D01*
X42125Y226469D01*
X42180Y226370D01*
X42231Y226269D01*
X42279Y226166D01*
X42324Y226062D01*
X42364Y225956D01*
X42401Y225849D01*
X42434Y225741D01*
X42464Y225631D01*
X42489Y225521D01*
X42511Y225410D01*
X42528Y225298D01*
X42542Y225185D01*
X42552Y225072D01*
X42558Y224959D01*
X42560Y224846D01*
X42558Y224733D01*
X42552Y224620D01*
X42542Y224507D01*
X42528Y224394D01*
X42511Y224282D01*
X42489Y224171D01*
X42464Y224061D01*
X42434Y223951D01*
X42401Y223843D01*
X42364Y223736D01*
X42324Y223630D01*
X42279Y223526D01*
X42231Y223423D01*
X42180Y223322D01*
X42125Y223223D01*
X42067Y223126D01*
X42005Y223031D01*
X41940Y222938D01*
X41872Y222848D01*
X41801Y222760D01*
X41726Y222674D01*
X41649Y222591D01*
X41569Y222511D01*
X41486Y222434D01*
X41400Y222359D01*
X41312Y222288D01*
X41222Y222220D01*
X41129Y222155D01*
X41034Y222093D01*
X40937Y222035D01*
X40838Y221980D01*
X40737Y221929D01*
X40634Y221881D01*
X40530Y221836D01*
X40424Y221796D01*
X40317Y221759D01*
X40209Y221726D01*
X40099Y221696D01*
X39989Y221671D01*
X39878Y221649D01*
X39766Y221632D01*
X39653Y221618D01*
X39540Y221608D01*
X39427Y221602D01*
X39314Y221600D01*
X39314Y221601D02*
X36068Y221601D01*
X39963Y221601D02*
X42559Y216408D01*
X47805Y216408D02*
X47805Y228092D01*
X51051Y228092D01*
X51164Y228090D01*
X51277Y228084D01*
X51390Y228074D01*
X51503Y228060D01*
X51615Y228043D01*
X51726Y228021D01*
X51836Y227996D01*
X51946Y227966D01*
X52054Y227933D01*
X52161Y227896D01*
X52267Y227856D01*
X52371Y227811D01*
X52474Y227763D01*
X52575Y227712D01*
X52674Y227657D01*
X52771Y227599D01*
X52866Y227537D01*
X52959Y227472D01*
X53049Y227404D01*
X53137Y227333D01*
X53223Y227258D01*
X53306Y227181D01*
X53386Y227101D01*
X53463Y227018D01*
X53538Y226932D01*
X53609Y226844D01*
X53677Y226754D01*
X53742Y226661D01*
X53804Y226566D01*
X53862Y226469D01*
X53917Y226370D01*
X53968Y226269D01*
X54016Y226166D01*
X54061Y226062D01*
X54101Y225956D01*
X54138Y225849D01*
X54171Y225741D01*
X54201Y225631D01*
X54226Y225521D01*
X54248Y225410D01*
X54265Y225298D01*
X54279Y225185D01*
X54289Y225072D01*
X54295Y224959D01*
X54297Y224846D01*
X54296Y224846D02*
X54296Y219654D01*
X54297Y219654D02*
X54295Y219541D01*
X54289Y219428D01*
X54279Y219315D01*
X54265Y219202D01*
X54248Y219090D01*
X54226Y218979D01*
X54201Y218869D01*
X54171Y218759D01*
X54138Y218651D01*
X54101Y218544D01*
X54061Y218438D01*
X54016Y218334D01*
X53968Y218231D01*
X53917Y218130D01*
X53862Y218031D01*
X53804Y217934D01*
X53742Y217839D01*
X53677Y217746D01*
X53609Y217656D01*
X53538Y217568D01*
X53463Y217482D01*
X53386Y217399D01*
X53306Y217319D01*
X53223Y217242D01*
X53137Y217167D01*
X53049Y217096D01*
X52959Y217028D01*
X52866Y216963D01*
X52771Y216901D01*
X52674Y216843D01*
X52575Y216788D01*
X52474Y216737D01*
X52371Y216689D01*
X52267Y216644D01*
X52161Y216604D01*
X52054Y216567D01*
X51946Y216534D01*
X51836Y216504D01*
X51726Y216479D01*
X51615Y216457D01*
X51503Y216440D01*
X51390Y216426D01*
X51277Y216416D01*
X51164Y216410D01*
X51051Y216408D01*
X47805Y216408D01*
X59617Y222250D02*
X59620Y222480D01*
X59628Y222710D01*
X59642Y222939D01*
X59661Y223168D01*
X59686Y223397D01*
X59716Y223624D01*
X59751Y223852D01*
X59792Y224078D01*
X59838Y224303D01*
X59890Y224527D01*
X59947Y224749D01*
X60009Y224971D01*
X60077Y225190D01*
X60150Y225408D01*
X60228Y225625D01*
X60311Y225839D01*
X60399Y226051D01*
X60492Y226261D01*
X60591Y226469D01*
X60590Y226469D02*
X60623Y226559D01*
X60659Y226648D01*
X60699Y226736D01*
X60743Y226821D01*
X60790Y226905D01*
X60840Y226987D01*
X60894Y227067D01*
X60950Y227144D01*
X61010Y227220D01*
X61073Y227293D01*
X61138Y227363D01*
X61207Y227431D01*
X61278Y227495D01*
X61351Y227557D01*
X61427Y227616D01*
X61505Y227672D01*
X61586Y227725D01*
X61668Y227774D01*
X61752Y227820D01*
X61839Y227863D01*
X61926Y227902D01*
X62016Y227938D01*
X62106Y227970D01*
X62198Y227998D01*
X62291Y228023D01*
X62385Y228044D01*
X62479Y228061D01*
X62574Y228075D01*
X62670Y228084D01*
X62766Y228090D01*
X62862Y228092D01*
X62958Y228090D01*
X63054Y228084D01*
X63150Y228075D01*
X63245Y228061D01*
X63339Y228044D01*
X63433Y228023D01*
X63526Y227998D01*
X63618Y227970D01*
X63708Y227938D01*
X63798Y227902D01*
X63885Y227863D01*
X63972Y227820D01*
X64056Y227774D01*
X64138Y227725D01*
X64219Y227672D01*
X64297Y227616D01*
X64373Y227557D01*
X64446Y227495D01*
X64517Y227431D01*
X64586Y227363D01*
X64651Y227293D01*
X64714Y227220D01*
X64774Y227144D01*
X64830Y227067D01*
X64884Y226987D01*
X64934Y226905D01*
X64981Y226821D01*
X65025Y226736D01*
X65065Y226648D01*
X65101Y226559D01*
X65134Y226469D01*
X65233Y226262D01*
X65326Y226052D01*
X65414Y225839D01*
X65497Y225625D01*
X65575Y225409D01*
X65648Y225191D01*
X65716Y224971D01*
X65778Y224750D01*
X65835Y224527D01*
X65887Y224303D01*
X65933Y224078D01*
X65974Y223852D01*
X66009Y223625D01*
X66039Y223397D01*
X66064Y223168D01*
X66083Y222939D01*
X66097Y222710D01*
X66105Y222480D01*
X66108Y222250D01*
X59616Y222250D02*
X59619Y222020D01*
X59627Y221790D01*
X59641Y221561D01*
X59660Y221332D01*
X59685Y221103D01*
X59715Y220875D01*
X59750Y220648D01*
X59791Y220422D01*
X59837Y220197D01*
X59889Y219973D01*
X59946Y219750D01*
X60008Y219529D01*
X60076Y219309D01*
X60149Y219091D01*
X60227Y218875D01*
X60310Y218661D01*
X60398Y218449D01*
X60491Y218238D01*
X60590Y218031D01*
X60623Y217941D01*
X60659Y217852D01*
X60700Y217764D01*
X60743Y217679D01*
X60790Y217595D01*
X60840Y217513D01*
X60894Y217433D01*
X60950Y217356D01*
X61010Y217280D01*
X61073Y217207D01*
X61138Y217137D01*
X61207Y217069D01*
X61278Y217005D01*
X61351Y216943D01*
X61427Y216884D01*
X61505Y216828D01*
X61586Y216775D01*
X61668Y216726D01*
X61752Y216680D01*
X61839Y216637D01*
X61926Y216598D01*
X62016Y216562D01*
X62106Y216530D01*
X62198Y216502D01*
X62291Y216477D01*
X62385Y216456D01*
X62479Y216439D01*
X62574Y216425D01*
X62670Y216416D01*
X62766Y216410D01*
X62862Y216408D01*
X65134Y218031D02*
X65233Y218238D01*
X65326Y218449D01*
X65414Y218661D01*
X65497Y218875D01*
X65575Y219091D01*
X65648Y219309D01*
X65716Y219529D01*
X65778Y219750D01*
X65835Y219973D01*
X65887Y220197D01*
X65933Y220422D01*
X65974Y220648D01*
X66009Y220875D01*
X66039Y221103D01*
X66064Y221332D01*
X66083Y221561D01*
X66097Y221790D01*
X66105Y222020D01*
X66108Y222250D01*
X65134Y218031D02*
X65101Y217941D01*
X65065Y217852D01*
X65025Y217764D01*
X64981Y217679D01*
X64934Y217595D01*
X64884Y217513D01*
X64830Y217433D01*
X64774Y217356D01*
X64714Y217280D01*
X64651Y217207D01*
X64586Y217137D01*
X64517Y217069D01*
X64446Y217005D01*
X64373Y216943D01*
X64297Y216884D01*
X64219Y216828D01*
X64138Y216775D01*
X64056Y216726D01*
X63972Y216680D01*
X63885Y216637D01*
X63798Y216598D01*
X63708Y216562D01*
X63618Y216530D01*
X63526Y216502D01*
X63433Y216477D01*
X63339Y216456D01*
X63245Y216439D01*
X63150Y216425D01*
X63054Y216416D01*
X62958Y216410D01*
X62862Y216408D01*
X60265Y219004D02*
X65458Y225496D01*
X69088Y207518D02*
X80772Y207518D01*
X69088Y207518D02*
X69088Y210764D01*
X69090Y210877D01*
X69096Y210990D01*
X69106Y211103D01*
X69120Y211216D01*
X69137Y211328D01*
X69159Y211439D01*
X69184Y211549D01*
X69214Y211659D01*
X69247Y211767D01*
X69284Y211874D01*
X69324Y211980D01*
X69369Y212084D01*
X69417Y212187D01*
X69468Y212288D01*
X69523Y212387D01*
X69581Y212484D01*
X69643Y212579D01*
X69708Y212672D01*
X69776Y212762D01*
X69847Y212850D01*
X69922Y212936D01*
X69999Y213019D01*
X70079Y213099D01*
X70162Y213176D01*
X70248Y213251D01*
X70336Y213322D01*
X70426Y213390D01*
X70519Y213455D01*
X70614Y213517D01*
X70711Y213575D01*
X70810Y213630D01*
X70911Y213681D01*
X71014Y213729D01*
X71118Y213774D01*
X71224Y213814D01*
X71331Y213851D01*
X71439Y213884D01*
X71549Y213914D01*
X71659Y213939D01*
X71770Y213961D01*
X71882Y213978D01*
X71995Y213992D01*
X72108Y214002D01*
X72221Y214008D01*
X72334Y214010D01*
X72447Y214008D01*
X72560Y214002D01*
X72673Y213992D01*
X72786Y213978D01*
X72898Y213961D01*
X73009Y213939D01*
X73119Y213914D01*
X73229Y213884D01*
X73337Y213851D01*
X73444Y213814D01*
X73550Y213774D01*
X73654Y213729D01*
X73757Y213681D01*
X73858Y213630D01*
X73957Y213575D01*
X74054Y213517D01*
X74149Y213455D01*
X74242Y213390D01*
X74332Y213322D01*
X74420Y213251D01*
X74506Y213176D01*
X74589Y213099D01*
X74669Y213019D01*
X74746Y212936D01*
X74821Y212850D01*
X74892Y212762D01*
X74960Y212672D01*
X75025Y212579D01*
X75087Y212484D01*
X75145Y212387D01*
X75200Y212288D01*
X75251Y212187D01*
X75299Y212084D01*
X75344Y211980D01*
X75384Y211874D01*
X75421Y211767D01*
X75454Y211659D01*
X75484Y211549D01*
X75509Y211439D01*
X75531Y211328D01*
X75548Y211216D01*
X75562Y211103D01*
X75572Y210990D01*
X75578Y210877D01*
X75580Y210764D01*
X75579Y210764D02*
X75579Y207518D01*
X75579Y211413D02*
X80772Y214009D01*
X80772Y221438D02*
X80772Y224034D01*
X80772Y221438D02*
X80770Y221339D01*
X80764Y221239D01*
X80755Y221140D01*
X80742Y221042D01*
X80725Y220944D01*
X80704Y220846D01*
X80679Y220750D01*
X80651Y220655D01*
X80619Y220561D01*
X80584Y220468D01*
X80545Y220376D01*
X80502Y220286D01*
X80457Y220198D01*
X80407Y220111D01*
X80355Y220027D01*
X80299Y219944D01*
X80241Y219864D01*
X80179Y219786D01*
X80114Y219711D01*
X80046Y219638D01*
X79976Y219568D01*
X79903Y219500D01*
X79828Y219435D01*
X79750Y219373D01*
X79670Y219315D01*
X79587Y219259D01*
X79503Y219207D01*
X79416Y219157D01*
X79328Y219112D01*
X79238Y219069D01*
X79146Y219030D01*
X79053Y218995D01*
X78959Y218963D01*
X78864Y218935D01*
X78768Y218910D01*
X78670Y218889D01*
X78572Y218872D01*
X78474Y218859D01*
X78375Y218850D01*
X78275Y218844D01*
X78176Y218842D01*
X78176Y218841D02*
X71684Y218841D01*
X71585Y218843D01*
X71485Y218849D01*
X71386Y218858D01*
X71288Y218871D01*
X71190Y218889D01*
X71092Y218909D01*
X70996Y218934D01*
X70900Y218962D01*
X70806Y218994D01*
X70713Y219029D01*
X70622Y219068D01*
X70532Y219111D01*
X70443Y219156D01*
X70357Y219206D01*
X70272Y219258D01*
X70190Y219314D01*
X70110Y219373D01*
X70032Y219434D01*
X69956Y219499D01*
X69883Y219567D01*
X69813Y219637D01*
X69745Y219710D01*
X69680Y219786D01*
X69619Y219864D01*
X69560Y219944D01*
X69504Y220026D01*
X69452Y220111D01*
X69403Y220197D01*
X69357Y220286D01*
X69314Y220376D01*
X69275Y220467D01*
X69240Y220560D01*
X69208Y220654D01*
X69180Y220750D01*
X69155Y220846D01*
X69135Y220944D01*
X69117Y221042D01*
X69104Y221140D01*
X69095Y221239D01*
X69089Y221338D01*
X69087Y221438D01*
X69088Y221438D02*
X69088Y224034D01*
X80772Y228399D02*
X80772Y232294D01*
X80770Y232393D01*
X80764Y232493D01*
X80755Y232592D01*
X80742Y232690D01*
X80725Y232788D01*
X80704Y232886D01*
X80679Y232982D01*
X80651Y233077D01*
X80619Y233171D01*
X80584Y233264D01*
X80545Y233356D01*
X80502Y233446D01*
X80457Y233534D01*
X80407Y233621D01*
X80355Y233705D01*
X80299Y233788D01*
X80241Y233868D01*
X80179Y233946D01*
X80114Y234021D01*
X80046Y234094D01*
X79976Y234164D01*
X79903Y234232D01*
X79828Y234297D01*
X79750Y234359D01*
X79670Y234417D01*
X79587Y234473D01*
X79503Y234525D01*
X79416Y234575D01*
X79328Y234620D01*
X79238Y234663D01*
X79146Y234702D01*
X79053Y234737D01*
X78959Y234769D01*
X78864Y234797D01*
X78768Y234822D01*
X78670Y234843D01*
X78572Y234860D01*
X78474Y234873D01*
X78375Y234882D01*
X78275Y234888D01*
X78176Y234890D01*
X76877Y234890D01*
X76778Y234888D01*
X76678Y234882D01*
X76579Y234873D01*
X76481Y234860D01*
X76383Y234843D01*
X76285Y234822D01*
X76189Y234797D01*
X76094Y234769D01*
X76000Y234737D01*
X75907Y234702D01*
X75815Y234663D01*
X75725Y234620D01*
X75637Y234575D01*
X75550Y234525D01*
X75466Y234473D01*
X75383Y234417D01*
X75303Y234359D01*
X75225Y234297D01*
X75150Y234232D01*
X75077Y234164D01*
X75007Y234094D01*
X74939Y234021D01*
X74874Y233946D01*
X74812Y233868D01*
X74754Y233788D01*
X74698Y233705D01*
X74646Y233621D01*
X74596Y233534D01*
X74551Y233446D01*
X74508Y233356D01*
X74469Y233264D01*
X74434Y233171D01*
X74402Y233077D01*
X74374Y232982D01*
X74349Y232886D01*
X74328Y232788D01*
X74311Y232690D01*
X74298Y232592D01*
X74289Y232493D01*
X74283Y232393D01*
X74281Y232294D01*
X74281Y228399D01*
X69088Y228399D01*
X69088Y234890D01*
X91948Y208788D02*
X103632Y208788D01*
X91948Y208788D02*
X91948Y212034D01*
X91950Y212147D01*
X91956Y212260D01*
X91966Y212373D01*
X91980Y212486D01*
X91997Y212598D01*
X92019Y212709D01*
X92044Y212819D01*
X92074Y212929D01*
X92107Y213037D01*
X92144Y213144D01*
X92184Y213250D01*
X92229Y213354D01*
X92277Y213457D01*
X92328Y213558D01*
X92383Y213657D01*
X92441Y213754D01*
X92503Y213849D01*
X92568Y213942D01*
X92636Y214032D01*
X92707Y214120D01*
X92782Y214206D01*
X92859Y214289D01*
X92939Y214369D01*
X93022Y214446D01*
X93108Y214521D01*
X93196Y214592D01*
X93286Y214660D01*
X93379Y214725D01*
X93474Y214787D01*
X93571Y214845D01*
X93670Y214900D01*
X93771Y214951D01*
X93874Y214999D01*
X93978Y215044D01*
X94084Y215084D01*
X94191Y215121D01*
X94299Y215154D01*
X94409Y215184D01*
X94519Y215209D01*
X94630Y215231D01*
X94742Y215248D01*
X94855Y215262D01*
X94968Y215272D01*
X95081Y215278D01*
X95194Y215280D01*
X95307Y215278D01*
X95420Y215272D01*
X95533Y215262D01*
X95646Y215248D01*
X95758Y215231D01*
X95869Y215209D01*
X95979Y215184D01*
X96089Y215154D01*
X96197Y215121D01*
X96304Y215084D01*
X96410Y215044D01*
X96514Y214999D01*
X96617Y214951D01*
X96718Y214900D01*
X96817Y214845D01*
X96914Y214787D01*
X97009Y214725D01*
X97102Y214660D01*
X97192Y214592D01*
X97280Y214521D01*
X97366Y214446D01*
X97449Y214369D01*
X97529Y214289D01*
X97606Y214206D01*
X97681Y214120D01*
X97752Y214032D01*
X97820Y213942D01*
X97885Y213849D01*
X97947Y213754D01*
X98005Y213657D01*
X98060Y213558D01*
X98111Y213457D01*
X98159Y213354D01*
X98204Y213250D01*
X98244Y213144D01*
X98281Y213037D01*
X98314Y212929D01*
X98344Y212819D01*
X98369Y212709D01*
X98391Y212598D01*
X98408Y212486D01*
X98422Y212373D01*
X98432Y212260D01*
X98438Y212147D01*
X98440Y212034D01*
X98439Y212034D02*
X98439Y208788D01*
X98439Y212683D02*
X103632Y215279D01*
X103632Y222708D02*
X103632Y225304D01*
X103632Y222708D02*
X103630Y222609D01*
X103624Y222509D01*
X103615Y222410D01*
X103602Y222312D01*
X103585Y222214D01*
X103564Y222116D01*
X103539Y222020D01*
X103511Y221925D01*
X103479Y221831D01*
X103444Y221738D01*
X103405Y221646D01*
X103362Y221556D01*
X103317Y221468D01*
X103267Y221381D01*
X103215Y221297D01*
X103159Y221214D01*
X103101Y221134D01*
X103039Y221056D01*
X102974Y220981D01*
X102906Y220908D01*
X102836Y220838D01*
X102763Y220770D01*
X102688Y220705D01*
X102610Y220643D01*
X102530Y220585D01*
X102447Y220529D01*
X102363Y220477D01*
X102276Y220427D01*
X102188Y220382D01*
X102098Y220339D01*
X102006Y220300D01*
X101913Y220265D01*
X101819Y220233D01*
X101724Y220205D01*
X101628Y220180D01*
X101530Y220159D01*
X101432Y220142D01*
X101334Y220129D01*
X101235Y220120D01*
X101135Y220114D01*
X101036Y220112D01*
X101036Y220111D02*
X94544Y220111D01*
X94445Y220113D01*
X94345Y220119D01*
X94246Y220128D01*
X94148Y220141D01*
X94050Y220159D01*
X93952Y220179D01*
X93856Y220204D01*
X93760Y220232D01*
X93666Y220264D01*
X93573Y220299D01*
X93482Y220338D01*
X93392Y220381D01*
X93303Y220426D01*
X93217Y220476D01*
X93132Y220528D01*
X93050Y220584D01*
X92970Y220643D01*
X92892Y220704D01*
X92816Y220769D01*
X92743Y220837D01*
X92673Y220907D01*
X92605Y220980D01*
X92540Y221056D01*
X92479Y221134D01*
X92420Y221214D01*
X92364Y221296D01*
X92312Y221381D01*
X92263Y221467D01*
X92217Y221556D01*
X92174Y221646D01*
X92135Y221737D01*
X92100Y221830D01*
X92068Y221924D01*
X92040Y222020D01*
X92015Y222116D01*
X91995Y222214D01*
X91977Y222312D01*
X91964Y222410D01*
X91955Y222509D01*
X91949Y222608D01*
X91947Y222708D01*
X91948Y222708D02*
X91948Y225304D01*
X91948Y232266D02*
X101036Y229669D01*
X101036Y236160D01*
X98439Y234213D02*
X103632Y234213D01*
X116078Y207518D02*
X127762Y207518D01*
X116078Y207518D02*
X116078Y210764D01*
X116080Y210877D01*
X116086Y210990D01*
X116096Y211103D01*
X116110Y211216D01*
X116127Y211328D01*
X116149Y211439D01*
X116174Y211549D01*
X116204Y211659D01*
X116237Y211767D01*
X116274Y211874D01*
X116314Y211980D01*
X116359Y212084D01*
X116407Y212187D01*
X116458Y212288D01*
X116513Y212387D01*
X116571Y212484D01*
X116633Y212579D01*
X116698Y212672D01*
X116766Y212762D01*
X116837Y212850D01*
X116912Y212936D01*
X116989Y213019D01*
X117069Y213099D01*
X117152Y213176D01*
X117238Y213251D01*
X117326Y213322D01*
X117416Y213390D01*
X117509Y213455D01*
X117604Y213517D01*
X117701Y213575D01*
X117800Y213630D01*
X117901Y213681D01*
X118004Y213729D01*
X118108Y213774D01*
X118214Y213814D01*
X118321Y213851D01*
X118429Y213884D01*
X118539Y213914D01*
X118649Y213939D01*
X118760Y213961D01*
X118872Y213978D01*
X118985Y213992D01*
X119098Y214002D01*
X119211Y214008D01*
X119324Y214010D01*
X119437Y214008D01*
X119550Y214002D01*
X119663Y213992D01*
X119776Y213978D01*
X119888Y213961D01*
X119999Y213939D01*
X120109Y213914D01*
X120219Y213884D01*
X120327Y213851D01*
X120434Y213814D01*
X120540Y213774D01*
X120644Y213729D01*
X120747Y213681D01*
X120848Y213630D01*
X120947Y213575D01*
X121044Y213517D01*
X121139Y213455D01*
X121232Y213390D01*
X121322Y213322D01*
X121410Y213251D01*
X121496Y213176D01*
X121579Y213099D01*
X121659Y213019D01*
X121736Y212936D01*
X121811Y212850D01*
X121882Y212762D01*
X121950Y212672D01*
X122015Y212579D01*
X122077Y212484D01*
X122135Y212387D01*
X122190Y212288D01*
X122241Y212187D01*
X122289Y212084D01*
X122334Y211980D01*
X122374Y211874D01*
X122411Y211767D01*
X122444Y211659D01*
X122474Y211549D01*
X122499Y211439D01*
X122521Y211328D01*
X122538Y211216D01*
X122552Y211103D01*
X122562Y210990D01*
X122568Y210877D01*
X122570Y210764D01*
X122569Y210764D02*
X122569Y207518D01*
X122569Y211413D02*
X127762Y214009D01*
X127762Y221438D02*
X127762Y224034D01*
X127762Y221438D02*
X127760Y221339D01*
X127754Y221239D01*
X127745Y221140D01*
X127732Y221042D01*
X127715Y220944D01*
X127694Y220846D01*
X127669Y220750D01*
X127641Y220655D01*
X127609Y220561D01*
X127574Y220468D01*
X127535Y220376D01*
X127492Y220286D01*
X127447Y220198D01*
X127397Y220111D01*
X127345Y220027D01*
X127289Y219944D01*
X127231Y219864D01*
X127169Y219786D01*
X127104Y219711D01*
X127036Y219638D01*
X126966Y219568D01*
X126893Y219500D01*
X126818Y219435D01*
X126740Y219373D01*
X126660Y219315D01*
X126577Y219259D01*
X126493Y219207D01*
X126406Y219157D01*
X126318Y219112D01*
X126228Y219069D01*
X126136Y219030D01*
X126043Y218995D01*
X125949Y218963D01*
X125854Y218935D01*
X125758Y218910D01*
X125660Y218889D01*
X125562Y218872D01*
X125464Y218859D01*
X125365Y218850D01*
X125265Y218844D01*
X125166Y218842D01*
X125166Y218841D02*
X118674Y218841D01*
X118575Y218843D01*
X118475Y218849D01*
X118376Y218858D01*
X118278Y218871D01*
X118180Y218889D01*
X118082Y218909D01*
X117986Y218934D01*
X117890Y218962D01*
X117796Y218994D01*
X117703Y219029D01*
X117612Y219068D01*
X117522Y219111D01*
X117433Y219156D01*
X117347Y219206D01*
X117262Y219258D01*
X117180Y219314D01*
X117100Y219373D01*
X117022Y219434D01*
X116946Y219499D01*
X116873Y219567D01*
X116803Y219637D01*
X116735Y219710D01*
X116670Y219786D01*
X116609Y219864D01*
X116550Y219944D01*
X116494Y220026D01*
X116442Y220111D01*
X116393Y220197D01*
X116347Y220286D01*
X116304Y220376D01*
X116265Y220467D01*
X116230Y220560D01*
X116198Y220654D01*
X116170Y220750D01*
X116145Y220846D01*
X116125Y220944D01*
X116107Y221042D01*
X116094Y221140D01*
X116085Y221239D01*
X116079Y221338D01*
X116077Y221438D01*
X116078Y221438D02*
X116078Y224034D01*
X127762Y228399D02*
X127762Y231645D01*
X127760Y231758D01*
X127754Y231871D01*
X127744Y231984D01*
X127730Y232097D01*
X127713Y232209D01*
X127691Y232320D01*
X127666Y232430D01*
X127636Y232540D01*
X127603Y232648D01*
X127566Y232755D01*
X127526Y232861D01*
X127481Y232965D01*
X127433Y233068D01*
X127382Y233169D01*
X127327Y233268D01*
X127269Y233365D01*
X127207Y233460D01*
X127142Y233553D01*
X127074Y233643D01*
X127003Y233731D01*
X126928Y233817D01*
X126851Y233900D01*
X126771Y233980D01*
X126688Y234057D01*
X126602Y234132D01*
X126514Y234203D01*
X126424Y234271D01*
X126331Y234336D01*
X126236Y234398D01*
X126139Y234456D01*
X126040Y234511D01*
X125939Y234562D01*
X125836Y234610D01*
X125732Y234655D01*
X125626Y234695D01*
X125519Y234732D01*
X125411Y234765D01*
X125301Y234795D01*
X125191Y234820D01*
X125080Y234842D01*
X124968Y234859D01*
X124855Y234873D01*
X124742Y234883D01*
X124629Y234889D01*
X124516Y234891D01*
X124403Y234889D01*
X124290Y234883D01*
X124177Y234873D01*
X124064Y234859D01*
X123952Y234842D01*
X123841Y234820D01*
X123731Y234795D01*
X123621Y234765D01*
X123513Y234732D01*
X123406Y234695D01*
X123300Y234655D01*
X123196Y234610D01*
X123093Y234562D01*
X122992Y234511D01*
X122893Y234456D01*
X122796Y234398D01*
X122701Y234336D01*
X122608Y234271D01*
X122518Y234203D01*
X122430Y234132D01*
X122344Y234057D01*
X122261Y233980D01*
X122181Y233900D01*
X122104Y233817D01*
X122029Y233731D01*
X121958Y233643D01*
X121890Y233553D01*
X121825Y233460D01*
X121763Y233365D01*
X121705Y233268D01*
X121650Y233169D01*
X121599Y233068D01*
X121551Y232965D01*
X121506Y232861D01*
X121466Y232755D01*
X121429Y232648D01*
X121396Y232540D01*
X121366Y232430D01*
X121341Y232320D01*
X121319Y232209D01*
X121302Y232097D01*
X121288Y231984D01*
X121278Y231871D01*
X121272Y231758D01*
X121270Y231645D01*
X116078Y232294D02*
X116078Y228399D01*
X116078Y232294D02*
X116080Y232395D01*
X116086Y232495D01*
X116096Y232595D01*
X116109Y232695D01*
X116127Y232794D01*
X116148Y232893D01*
X116173Y232990D01*
X116202Y233087D01*
X116235Y233182D01*
X116271Y233276D01*
X116311Y233368D01*
X116354Y233459D01*
X116401Y233548D01*
X116451Y233635D01*
X116505Y233721D01*
X116562Y233804D01*
X116622Y233884D01*
X116685Y233963D01*
X116752Y234039D01*
X116821Y234112D01*
X116893Y234182D01*
X116967Y234250D01*
X117044Y234315D01*
X117124Y234376D01*
X117206Y234435D01*
X117290Y234490D01*
X117376Y234542D01*
X117464Y234591D01*
X117554Y234636D01*
X117646Y234678D01*
X117739Y234716D01*
X117834Y234750D01*
X117929Y234781D01*
X118026Y234808D01*
X118124Y234831D01*
X118223Y234851D01*
X118323Y234866D01*
X118423Y234878D01*
X118523Y234886D01*
X118624Y234890D01*
X118724Y234890D01*
X118825Y234886D01*
X118925Y234878D01*
X119025Y234866D01*
X119125Y234851D01*
X119224Y234831D01*
X119322Y234808D01*
X119419Y234781D01*
X119514Y234750D01*
X119609Y234716D01*
X119702Y234678D01*
X119794Y234636D01*
X119884Y234591D01*
X119972Y234542D01*
X120058Y234490D01*
X120142Y234435D01*
X120224Y234376D01*
X120304Y234315D01*
X120381Y234250D01*
X120455Y234182D01*
X120527Y234112D01*
X120596Y234039D01*
X120663Y233963D01*
X120726Y233884D01*
X120786Y233804D01*
X120843Y233721D01*
X120897Y233635D01*
X120947Y233548D01*
X120994Y233459D01*
X121037Y233368D01*
X121077Y233276D01*
X121113Y233182D01*
X121146Y233087D01*
X121175Y232990D01*
X121200Y232893D01*
X121221Y232794D01*
X121239Y232695D01*
X121252Y232595D01*
X121262Y232495D01*
X121268Y232395D01*
X121270Y232294D01*
X121271Y232294D02*
X121271Y229698D01*
X140208Y207518D02*
X151892Y207518D01*
X140208Y207518D02*
X140208Y210764D01*
X140210Y210877D01*
X140216Y210990D01*
X140226Y211103D01*
X140240Y211216D01*
X140257Y211328D01*
X140279Y211439D01*
X140304Y211549D01*
X140334Y211659D01*
X140367Y211767D01*
X140404Y211874D01*
X140444Y211980D01*
X140489Y212084D01*
X140537Y212187D01*
X140588Y212288D01*
X140643Y212387D01*
X140701Y212484D01*
X140763Y212579D01*
X140828Y212672D01*
X140896Y212762D01*
X140967Y212850D01*
X141042Y212936D01*
X141119Y213019D01*
X141199Y213099D01*
X141282Y213176D01*
X141368Y213251D01*
X141456Y213322D01*
X141546Y213390D01*
X141639Y213455D01*
X141734Y213517D01*
X141831Y213575D01*
X141930Y213630D01*
X142031Y213681D01*
X142134Y213729D01*
X142238Y213774D01*
X142344Y213814D01*
X142451Y213851D01*
X142559Y213884D01*
X142669Y213914D01*
X142779Y213939D01*
X142890Y213961D01*
X143002Y213978D01*
X143115Y213992D01*
X143228Y214002D01*
X143341Y214008D01*
X143454Y214010D01*
X143567Y214008D01*
X143680Y214002D01*
X143793Y213992D01*
X143906Y213978D01*
X144018Y213961D01*
X144129Y213939D01*
X144239Y213914D01*
X144349Y213884D01*
X144457Y213851D01*
X144564Y213814D01*
X144670Y213774D01*
X144774Y213729D01*
X144877Y213681D01*
X144978Y213630D01*
X145077Y213575D01*
X145174Y213517D01*
X145269Y213455D01*
X145362Y213390D01*
X145452Y213322D01*
X145540Y213251D01*
X145626Y213176D01*
X145709Y213099D01*
X145789Y213019D01*
X145866Y212936D01*
X145941Y212850D01*
X146012Y212762D01*
X146080Y212672D01*
X146145Y212579D01*
X146207Y212484D01*
X146265Y212387D01*
X146320Y212288D01*
X146371Y212187D01*
X146419Y212084D01*
X146464Y211980D01*
X146504Y211874D01*
X146541Y211767D01*
X146574Y211659D01*
X146604Y211549D01*
X146629Y211439D01*
X146651Y211328D01*
X146668Y211216D01*
X146682Y211103D01*
X146692Y210990D01*
X146698Y210877D01*
X146700Y210764D01*
X146699Y210764D02*
X146699Y207518D01*
X146699Y211413D02*
X151892Y214009D01*
X151892Y221438D02*
X151892Y224034D01*
X151892Y221438D02*
X151890Y221339D01*
X151884Y221239D01*
X151875Y221140D01*
X151862Y221042D01*
X151845Y220944D01*
X151824Y220846D01*
X151799Y220750D01*
X151771Y220655D01*
X151739Y220561D01*
X151704Y220468D01*
X151665Y220376D01*
X151622Y220286D01*
X151577Y220198D01*
X151527Y220111D01*
X151475Y220027D01*
X151419Y219944D01*
X151361Y219864D01*
X151299Y219786D01*
X151234Y219711D01*
X151166Y219638D01*
X151096Y219568D01*
X151023Y219500D01*
X150948Y219435D01*
X150870Y219373D01*
X150790Y219315D01*
X150707Y219259D01*
X150623Y219207D01*
X150536Y219157D01*
X150448Y219112D01*
X150358Y219069D01*
X150266Y219030D01*
X150173Y218995D01*
X150079Y218963D01*
X149984Y218935D01*
X149888Y218910D01*
X149790Y218889D01*
X149692Y218872D01*
X149594Y218859D01*
X149495Y218850D01*
X149395Y218844D01*
X149296Y218842D01*
X149296Y218841D02*
X142804Y218841D01*
X142705Y218843D01*
X142605Y218849D01*
X142506Y218858D01*
X142408Y218871D01*
X142310Y218889D01*
X142212Y218909D01*
X142116Y218934D01*
X142020Y218962D01*
X141926Y218994D01*
X141833Y219029D01*
X141742Y219068D01*
X141652Y219111D01*
X141563Y219156D01*
X141477Y219206D01*
X141392Y219258D01*
X141310Y219314D01*
X141230Y219373D01*
X141152Y219434D01*
X141076Y219499D01*
X141003Y219567D01*
X140933Y219637D01*
X140865Y219710D01*
X140800Y219786D01*
X140739Y219864D01*
X140680Y219944D01*
X140624Y220026D01*
X140572Y220111D01*
X140523Y220197D01*
X140477Y220286D01*
X140434Y220376D01*
X140395Y220467D01*
X140360Y220560D01*
X140328Y220654D01*
X140300Y220750D01*
X140275Y220846D01*
X140255Y220944D01*
X140237Y221042D01*
X140224Y221140D01*
X140215Y221239D01*
X140209Y221338D01*
X140207Y221438D01*
X140208Y221438D02*
X140208Y224034D01*
X140208Y231969D02*
X140210Y232076D01*
X140216Y232182D01*
X140226Y232288D01*
X140239Y232394D01*
X140257Y232500D01*
X140278Y232604D01*
X140303Y232708D01*
X140332Y232811D01*
X140364Y232912D01*
X140401Y233012D01*
X140441Y233111D01*
X140484Y233209D01*
X140531Y233305D01*
X140582Y233399D01*
X140636Y233491D01*
X140693Y233581D01*
X140753Y233669D01*
X140817Y233754D01*
X140884Y233837D01*
X140954Y233918D01*
X141026Y233996D01*
X141102Y234072D01*
X141180Y234144D01*
X141261Y234214D01*
X141344Y234281D01*
X141429Y234345D01*
X141517Y234405D01*
X141607Y234462D01*
X141699Y234516D01*
X141793Y234567D01*
X141889Y234614D01*
X141987Y234657D01*
X142086Y234697D01*
X142186Y234734D01*
X142287Y234766D01*
X142390Y234795D01*
X142494Y234820D01*
X142598Y234841D01*
X142704Y234859D01*
X142810Y234872D01*
X142916Y234882D01*
X143022Y234888D01*
X143129Y234890D01*
X140208Y231969D02*
X140210Y231848D01*
X140216Y231727D01*
X140226Y231607D01*
X140239Y231486D01*
X140257Y231367D01*
X140278Y231247D01*
X140303Y231129D01*
X140332Y231012D01*
X140365Y230895D01*
X140401Y230780D01*
X140442Y230666D01*
X140485Y230553D01*
X140533Y230441D01*
X140584Y230332D01*
X140639Y230224D01*
X140697Y230117D01*
X140758Y230013D01*
X140823Y229911D01*
X140891Y229811D01*
X140962Y229713D01*
X141036Y229617D01*
X141113Y229524D01*
X141194Y229434D01*
X141277Y229346D01*
X141363Y229261D01*
X141452Y229178D01*
X141543Y229099D01*
X141637Y229022D01*
X141733Y228949D01*
X141831Y228879D01*
X141932Y228812D01*
X142035Y228748D01*
X142140Y228688D01*
X142247Y228630D01*
X142355Y228577D01*
X142465Y228527D01*
X142577Y228481D01*
X142690Y228438D01*
X142805Y228399D01*
X145401Y233916D02*
X145323Y233995D01*
X145243Y234071D01*
X145160Y234144D01*
X145074Y234214D01*
X144987Y234281D01*
X144896Y234345D01*
X144804Y234405D01*
X144710Y234463D01*
X144613Y234517D01*
X144515Y234567D01*
X144415Y234614D01*
X144314Y234658D01*
X144211Y234698D01*
X144106Y234734D01*
X144001Y234766D01*
X143894Y234795D01*
X143787Y234820D01*
X143678Y234842D01*
X143569Y234859D01*
X143460Y234873D01*
X143350Y234882D01*
X143239Y234888D01*
X143129Y234890D01*
X145401Y233917D02*
X151892Y228399D01*
X151892Y234890D01*
X165608Y208788D02*
X177292Y208788D01*
X165608Y208788D02*
X165608Y212034D01*
X165610Y212147D01*
X165616Y212260D01*
X165626Y212373D01*
X165640Y212486D01*
X165657Y212598D01*
X165679Y212709D01*
X165704Y212819D01*
X165734Y212929D01*
X165767Y213037D01*
X165804Y213144D01*
X165844Y213250D01*
X165889Y213354D01*
X165937Y213457D01*
X165988Y213558D01*
X166043Y213657D01*
X166101Y213754D01*
X166163Y213849D01*
X166228Y213942D01*
X166296Y214032D01*
X166367Y214120D01*
X166442Y214206D01*
X166519Y214289D01*
X166599Y214369D01*
X166682Y214446D01*
X166768Y214521D01*
X166856Y214592D01*
X166946Y214660D01*
X167039Y214725D01*
X167134Y214787D01*
X167231Y214845D01*
X167330Y214900D01*
X167431Y214951D01*
X167534Y214999D01*
X167638Y215044D01*
X167744Y215084D01*
X167851Y215121D01*
X167959Y215154D01*
X168069Y215184D01*
X168179Y215209D01*
X168290Y215231D01*
X168402Y215248D01*
X168515Y215262D01*
X168628Y215272D01*
X168741Y215278D01*
X168854Y215280D01*
X168967Y215278D01*
X169080Y215272D01*
X169193Y215262D01*
X169306Y215248D01*
X169418Y215231D01*
X169529Y215209D01*
X169639Y215184D01*
X169749Y215154D01*
X169857Y215121D01*
X169964Y215084D01*
X170070Y215044D01*
X170174Y214999D01*
X170277Y214951D01*
X170378Y214900D01*
X170477Y214845D01*
X170574Y214787D01*
X170669Y214725D01*
X170762Y214660D01*
X170852Y214592D01*
X170940Y214521D01*
X171026Y214446D01*
X171109Y214369D01*
X171189Y214289D01*
X171266Y214206D01*
X171341Y214120D01*
X171412Y214032D01*
X171480Y213942D01*
X171545Y213849D01*
X171607Y213754D01*
X171665Y213657D01*
X171720Y213558D01*
X171771Y213457D01*
X171819Y213354D01*
X171864Y213250D01*
X171904Y213144D01*
X171941Y213037D01*
X171974Y212929D01*
X172004Y212819D01*
X172029Y212709D01*
X172051Y212598D01*
X172068Y212486D01*
X172082Y212373D01*
X172092Y212260D01*
X172098Y212147D01*
X172100Y212034D01*
X172099Y212034D02*
X172099Y208788D01*
X172099Y212683D02*
X177292Y215279D01*
X177292Y222708D02*
X177292Y225304D01*
X177292Y222708D02*
X177290Y222609D01*
X177284Y222509D01*
X177275Y222410D01*
X177262Y222312D01*
X177245Y222214D01*
X177224Y222116D01*
X177199Y222020D01*
X177171Y221925D01*
X177139Y221831D01*
X177104Y221738D01*
X177065Y221646D01*
X177022Y221556D01*
X176977Y221468D01*
X176927Y221381D01*
X176875Y221297D01*
X176819Y221214D01*
X176761Y221134D01*
X176699Y221056D01*
X176634Y220981D01*
X176566Y220908D01*
X176496Y220838D01*
X176423Y220770D01*
X176348Y220705D01*
X176270Y220643D01*
X176190Y220585D01*
X176107Y220529D01*
X176023Y220477D01*
X175936Y220427D01*
X175848Y220382D01*
X175758Y220339D01*
X175666Y220300D01*
X175573Y220265D01*
X175479Y220233D01*
X175384Y220205D01*
X175288Y220180D01*
X175190Y220159D01*
X175092Y220142D01*
X174994Y220129D01*
X174895Y220120D01*
X174795Y220114D01*
X174696Y220112D01*
X174696Y220111D02*
X168204Y220111D01*
X168105Y220113D01*
X168005Y220119D01*
X167906Y220128D01*
X167808Y220141D01*
X167710Y220159D01*
X167612Y220179D01*
X167516Y220204D01*
X167420Y220232D01*
X167326Y220264D01*
X167233Y220299D01*
X167142Y220338D01*
X167052Y220381D01*
X166963Y220426D01*
X166877Y220476D01*
X166792Y220528D01*
X166710Y220584D01*
X166630Y220643D01*
X166552Y220704D01*
X166476Y220769D01*
X166403Y220837D01*
X166333Y220907D01*
X166265Y220980D01*
X166200Y221056D01*
X166139Y221134D01*
X166080Y221214D01*
X166024Y221296D01*
X165972Y221381D01*
X165923Y221467D01*
X165877Y221556D01*
X165834Y221646D01*
X165795Y221737D01*
X165760Y221830D01*
X165728Y221924D01*
X165700Y222020D01*
X165675Y222116D01*
X165655Y222214D01*
X165637Y222312D01*
X165624Y222410D01*
X165615Y222509D01*
X165609Y222608D01*
X165607Y222708D01*
X165608Y222708D02*
X165608Y225304D01*
X168204Y229669D02*
X165608Y232915D01*
X177292Y232915D01*
X177292Y236160D02*
X177292Y229669D01*
X191008Y204978D02*
X202692Y204978D01*
X191008Y204978D02*
X191008Y208224D01*
X191010Y208337D01*
X191016Y208450D01*
X191026Y208563D01*
X191040Y208676D01*
X191057Y208788D01*
X191079Y208899D01*
X191104Y209009D01*
X191134Y209119D01*
X191167Y209227D01*
X191204Y209334D01*
X191244Y209440D01*
X191289Y209544D01*
X191337Y209647D01*
X191388Y209748D01*
X191443Y209847D01*
X191501Y209944D01*
X191563Y210039D01*
X191628Y210132D01*
X191696Y210222D01*
X191767Y210310D01*
X191842Y210396D01*
X191919Y210479D01*
X191999Y210559D01*
X192082Y210636D01*
X192168Y210711D01*
X192256Y210782D01*
X192346Y210850D01*
X192439Y210915D01*
X192534Y210977D01*
X192631Y211035D01*
X192730Y211090D01*
X192831Y211141D01*
X192934Y211189D01*
X193038Y211234D01*
X193144Y211274D01*
X193251Y211311D01*
X193359Y211344D01*
X193469Y211374D01*
X193579Y211399D01*
X193690Y211421D01*
X193802Y211438D01*
X193915Y211452D01*
X194028Y211462D01*
X194141Y211468D01*
X194254Y211470D01*
X194367Y211468D01*
X194480Y211462D01*
X194593Y211452D01*
X194706Y211438D01*
X194818Y211421D01*
X194929Y211399D01*
X195039Y211374D01*
X195149Y211344D01*
X195257Y211311D01*
X195364Y211274D01*
X195470Y211234D01*
X195574Y211189D01*
X195677Y211141D01*
X195778Y211090D01*
X195877Y211035D01*
X195974Y210977D01*
X196069Y210915D01*
X196162Y210850D01*
X196252Y210782D01*
X196340Y210711D01*
X196426Y210636D01*
X196509Y210559D01*
X196589Y210479D01*
X196666Y210396D01*
X196741Y210310D01*
X196812Y210222D01*
X196880Y210132D01*
X196945Y210039D01*
X197007Y209944D01*
X197065Y209847D01*
X197120Y209748D01*
X197171Y209647D01*
X197219Y209544D01*
X197264Y209440D01*
X197304Y209334D01*
X197341Y209227D01*
X197374Y209119D01*
X197404Y209009D01*
X197429Y208899D01*
X197451Y208788D01*
X197468Y208676D01*
X197482Y208563D01*
X197492Y208450D01*
X197498Y208337D01*
X197500Y208224D01*
X197499Y208224D02*
X197499Y204978D01*
X197499Y208873D02*
X202692Y211469D01*
X202692Y218898D02*
X202692Y221494D01*
X202692Y218898D02*
X202690Y218799D01*
X202684Y218699D01*
X202675Y218600D01*
X202662Y218502D01*
X202645Y218404D01*
X202624Y218306D01*
X202599Y218210D01*
X202571Y218115D01*
X202539Y218021D01*
X202504Y217928D01*
X202465Y217836D01*
X202422Y217746D01*
X202377Y217658D01*
X202327Y217571D01*
X202275Y217487D01*
X202219Y217404D01*
X202161Y217324D01*
X202099Y217246D01*
X202034Y217171D01*
X201966Y217098D01*
X201896Y217028D01*
X201823Y216960D01*
X201748Y216895D01*
X201670Y216833D01*
X201590Y216775D01*
X201507Y216719D01*
X201423Y216667D01*
X201336Y216617D01*
X201248Y216572D01*
X201158Y216529D01*
X201066Y216490D01*
X200973Y216455D01*
X200879Y216423D01*
X200784Y216395D01*
X200688Y216370D01*
X200590Y216349D01*
X200492Y216332D01*
X200394Y216319D01*
X200295Y216310D01*
X200195Y216304D01*
X200096Y216302D01*
X200096Y216301D02*
X193604Y216301D01*
X193505Y216303D01*
X193405Y216309D01*
X193306Y216318D01*
X193208Y216331D01*
X193110Y216349D01*
X193012Y216369D01*
X192916Y216394D01*
X192820Y216422D01*
X192726Y216454D01*
X192633Y216489D01*
X192542Y216528D01*
X192452Y216571D01*
X192363Y216616D01*
X192277Y216666D01*
X192192Y216718D01*
X192110Y216774D01*
X192030Y216833D01*
X191952Y216894D01*
X191876Y216959D01*
X191803Y217027D01*
X191733Y217097D01*
X191665Y217170D01*
X191600Y217246D01*
X191539Y217324D01*
X191480Y217404D01*
X191424Y217486D01*
X191372Y217571D01*
X191323Y217657D01*
X191277Y217746D01*
X191234Y217836D01*
X191195Y217927D01*
X191160Y218020D01*
X191128Y218114D01*
X191100Y218210D01*
X191075Y218306D01*
X191055Y218404D01*
X191037Y218502D01*
X191024Y218600D01*
X191015Y218699D01*
X191009Y218798D01*
X191007Y218898D01*
X191008Y218898D02*
X191008Y221494D01*
X192631Y226833D02*
X192838Y226734D01*
X193049Y226641D01*
X193261Y226553D01*
X193475Y226470D01*
X193691Y226392D01*
X193909Y226319D01*
X194129Y226251D01*
X194350Y226189D01*
X194573Y226132D01*
X194797Y226080D01*
X195022Y226034D01*
X195248Y225993D01*
X195475Y225958D01*
X195703Y225928D01*
X195932Y225903D01*
X196161Y225884D01*
X196390Y225870D01*
X196620Y225862D01*
X196850Y225859D01*
X192631Y226833D02*
X192541Y226866D01*
X192452Y226902D01*
X192364Y226942D01*
X192279Y226986D01*
X192195Y227033D01*
X192113Y227083D01*
X192033Y227137D01*
X191956Y227193D01*
X191880Y227253D01*
X191807Y227316D01*
X191737Y227381D01*
X191669Y227450D01*
X191605Y227521D01*
X191543Y227594D01*
X191484Y227670D01*
X191428Y227748D01*
X191375Y227829D01*
X191326Y227911D01*
X191280Y227995D01*
X191237Y228082D01*
X191198Y228169D01*
X191162Y228259D01*
X191130Y228349D01*
X191102Y228441D01*
X191077Y228534D01*
X191056Y228628D01*
X191039Y228722D01*
X191025Y228817D01*
X191016Y228913D01*
X191010Y229009D01*
X191008Y229105D01*
X191010Y229201D01*
X191016Y229297D01*
X191025Y229393D01*
X191039Y229488D01*
X191056Y229582D01*
X191077Y229676D01*
X191102Y229769D01*
X191130Y229861D01*
X191162Y229951D01*
X191198Y230041D01*
X191237Y230129D01*
X191280Y230215D01*
X191326Y230299D01*
X191375Y230381D01*
X191428Y230462D01*
X191484Y230540D01*
X191543Y230616D01*
X191605Y230689D01*
X191669Y230760D01*
X191737Y230829D01*
X191807Y230894D01*
X191880Y230957D01*
X191956Y231017D01*
X192033Y231073D01*
X192113Y231127D01*
X192195Y231177D01*
X192279Y231224D01*
X192364Y231268D01*
X192452Y231308D01*
X192541Y231344D01*
X192631Y231377D01*
X192838Y231476D01*
X193049Y231569D01*
X193261Y231657D01*
X193475Y231740D01*
X193691Y231818D01*
X193909Y231891D01*
X194129Y231959D01*
X194350Y232021D01*
X194573Y232078D01*
X194797Y232130D01*
X195022Y232176D01*
X195248Y232217D01*
X195475Y232252D01*
X195703Y232282D01*
X195932Y232307D01*
X196161Y232326D01*
X196390Y232340D01*
X196620Y232348D01*
X196850Y232351D01*
X196850Y225859D02*
X197080Y225862D01*
X197310Y225870D01*
X197539Y225884D01*
X197768Y225903D01*
X197997Y225928D01*
X198225Y225958D01*
X198452Y225993D01*
X198678Y226034D01*
X198903Y226080D01*
X199127Y226132D01*
X199350Y226189D01*
X199571Y226251D01*
X199791Y226319D01*
X200009Y226392D01*
X200225Y226470D01*
X200439Y226553D01*
X200651Y226641D01*
X200862Y226734D01*
X201069Y226833D01*
X201159Y226866D01*
X201248Y226902D01*
X201336Y226943D01*
X201421Y226986D01*
X201505Y227033D01*
X201587Y227083D01*
X201667Y227137D01*
X201744Y227193D01*
X201820Y227253D01*
X201893Y227316D01*
X201963Y227381D01*
X202031Y227450D01*
X202095Y227521D01*
X202157Y227594D01*
X202216Y227670D01*
X202272Y227748D01*
X202325Y227829D01*
X202374Y227911D01*
X202420Y227995D01*
X202463Y228082D01*
X202502Y228169D01*
X202538Y228259D01*
X202570Y228349D01*
X202598Y228441D01*
X202623Y228534D01*
X202644Y228628D01*
X202661Y228722D01*
X202675Y228817D01*
X202684Y228913D01*
X202690Y229009D01*
X202692Y229105D01*
X201069Y231377D02*
X200862Y231476D01*
X200651Y231569D01*
X200439Y231657D01*
X200225Y231740D01*
X200009Y231818D01*
X199791Y231891D01*
X199571Y231959D01*
X199350Y232021D01*
X199127Y232078D01*
X198903Y232130D01*
X198678Y232176D01*
X198452Y232217D01*
X198225Y232252D01*
X197997Y232282D01*
X197768Y232307D01*
X197539Y232326D01*
X197310Y232340D01*
X197080Y232348D01*
X196850Y232351D01*
X201069Y231377D02*
X201159Y231344D01*
X201248Y231308D01*
X201336Y231268D01*
X201421Y231224D01*
X201505Y231177D01*
X201587Y231127D01*
X201667Y231073D01*
X201744Y231017D01*
X201820Y230957D01*
X201893Y230894D01*
X201963Y230829D01*
X202031Y230760D01*
X202095Y230689D01*
X202157Y230616D01*
X202216Y230540D01*
X202272Y230462D01*
X202325Y230381D01*
X202374Y230299D01*
X202420Y230215D01*
X202463Y230128D01*
X202502Y230041D01*
X202538Y229951D01*
X202570Y229861D01*
X202598Y229769D01*
X202623Y229676D01*
X202644Y229582D01*
X202661Y229488D01*
X202675Y229393D01*
X202684Y229297D01*
X202690Y229201D01*
X202692Y229105D01*
X200096Y226508D02*
X193604Y231701D01*
X244348Y207518D02*
X256032Y207518D01*
X244348Y207518D02*
X244348Y210764D01*
X244350Y210877D01*
X244356Y210990D01*
X244366Y211103D01*
X244380Y211216D01*
X244397Y211328D01*
X244419Y211439D01*
X244444Y211549D01*
X244474Y211659D01*
X244507Y211767D01*
X244544Y211874D01*
X244584Y211980D01*
X244629Y212084D01*
X244677Y212187D01*
X244728Y212288D01*
X244783Y212387D01*
X244841Y212484D01*
X244903Y212579D01*
X244968Y212672D01*
X245036Y212762D01*
X245107Y212850D01*
X245182Y212936D01*
X245259Y213019D01*
X245339Y213099D01*
X245422Y213176D01*
X245508Y213251D01*
X245596Y213322D01*
X245686Y213390D01*
X245779Y213455D01*
X245874Y213517D01*
X245971Y213575D01*
X246070Y213630D01*
X246171Y213681D01*
X246274Y213729D01*
X246378Y213774D01*
X246484Y213814D01*
X246591Y213851D01*
X246699Y213884D01*
X246809Y213914D01*
X246919Y213939D01*
X247030Y213961D01*
X247142Y213978D01*
X247255Y213992D01*
X247368Y214002D01*
X247481Y214008D01*
X247594Y214010D01*
X247707Y214008D01*
X247820Y214002D01*
X247933Y213992D01*
X248046Y213978D01*
X248158Y213961D01*
X248269Y213939D01*
X248379Y213914D01*
X248489Y213884D01*
X248597Y213851D01*
X248704Y213814D01*
X248810Y213774D01*
X248914Y213729D01*
X249017Y213681D01*
X249118Y213630D01*
X249217Y213575D01*
X249314Y213517D01*
X249409Y213455D01*
X249502Y213390D01*
X249592Y213322D01*
X249680Y213251D01*
X249766Y213176D01*
X249849Y213099D01*
X249929Y213019D01*
X250006Y212936D01*
X250081Y212850D01*
X250152Y212762D01*
X250220Y212672D01*
X250285Y212579D01*
X250347Y212484D01*
X250405Y212387D01*
X250460Y212288D01*
X250511Y212187D01*
X250559Y212084D01*
X250604Y211980D01*
X250644Y211874D01*
X250681Y211767D01*
X250714Y211659D01*
X250744Y211549D01*
X250769Y211439D01*
X250791Y211328D01*
X250808Y211216D01*
X250822Y211103D01*
X250832Y210990D01*
X250838Y210877D01*
X250840Y210764D01*
X250839Y210764D02*
X250839Y207518D01*
X250839Y211413D02*
X256032Y214009D01*
X256032Y219278D02*
X256032Y224471D01*
X256032Y219278D02*
X244348Y219278D01*
X244348Y224471D01*
X249541Y223173D02*
X249541Y219278D01*
X250190Y228780D02*
X249960Y228783D01*
X249730Y228791D01*
X249501Y228805D01*
X249272Y228824D01*
X249043Y228849D01*
X248815Y228879D01*
X248588Y228914D01*
X248362Y228955D01*
X248137Y229001D01*
X247913Y229053D01*
X247690Y229110D01*
X247469Y229172D01*
X247249Y229240D01*
X247031Y229313D01*
X246815Y229391D01*
X246601Y229474D01*
X246389Y229562D01*
X246178Y229655D01*
X245971Y229754D01*
X245881Y229787D01*
X245792Y229823D01*
X245704Y229863D01*
X245619Y229907D01*
X245535Y229954D01*
X245453Y230004D01*
X245373Y230058D01*
X245296Y230114D01*
X245220Y230174D01*
X245147Y230237D01*
X245077Y230302D01*
X245009Y230371D01*
X244945Y230442D01*
X244883Y230515D01*
X244824Y230591D01*
X244768Y230669D01*
X244715Y230750D01*
X244666Y230832D01*
X244620Y230916D01*
X244577Y231003D01*
X244538Y231090D01*
X244502Y231180D01*
X244470Y231270D01*
X244442Y231362D01*
X244417Y231455D01*
X244396Y231549D01*
X244379Y231643D01*
X244365Y231738D01*
X244356Y231834D01*
X244350Y231930D01*
X244348Y232026D01*
X244350Y232122D01*
X244356Y232218D01*
X244365Y232314D01*
X244379Y232409D01*
X244396Y232503D01*
X244417Y232597D01*
X244442Y232690D01*
X244470Y232782D01*
X244502Y232872D01*
X244538Y232962D01*
X244577Y233050D01*
X244620Y233136D01*
X244666Y233220D01*
X244715Y233302D01*
X244768Y233383D01*
X244824Y233461D01*
X244883Y233537D01*
X244945Y233610D01*
X245009Y233681D01*
X245077Y233750D01*
X245147Y233815D01*
X245220Y233878D01*
X245296Y233938D01*
X245373Y233994D01*
X245453Y234048D01*
X245535Y234098D01*
X245619Y234145D01*
X245704Y234189D01*
X245792Y234229D01*
X245881Y234265D01*
X245971Y234298D01*
X246178Y234397D01*
X246389Y234490D01*
X246601Y234578D01*
X246815Y234661D01*
X247031Y234739D01*
X247249Y234812D01*
X247469Y234880D01*
X247690Y234942D01*
X247913Y234999D01*
X248137Y235051D01*
X248362Y235097D01*
X248588Y235138D01*
X248815Y235173D01*
X249043Y235203D01*
X249272Y235228D01*
X249501Y235247D01*
X249730Y235261D01*
X249960Y235269D01*
X250190Y235272D01*
X250190Y228780D02*
X250420Y228783D01*
X250650Y228791D01*
X250879Y228805D01*
X251108Y228824D01*
X251337Y228849D01*
X251565Y228879D01*
X251792Y228914D01*
X252018Y228955D01*
X252243Y229001D01*
X252467Y229053D01*
X252690Y229110D01*
X252911Y229172D01*
X253131Y229240D01*
X253349Y229313D01*
X253565Y229391D01*
X253779Y229474D01*
X253991Y229562D01*
X254202Y229655D01*
X254409Y229754D01*
X254499Y229787D01*
X254588Y229823D01*
X254676Y229864D01*
X254761Y229907D01*
X254845Y229954D01*
X254927Y230004D01*
X255007Y230058D01*
X255084Y230114D01*
X255160Y230174D01*
X255233Y230237D01*
X255303Y230302D01*
X255371Y230371D01*
X255435Y230442D01*
X255497Y230515D01*
X255556Y230591D01*
X255612Y230669D01*
X255665Y230750D01*
X255714Y230832D01*
X255760Y230916D01*
X255803Y231003D01*
X255842Y231090D01*
X255878Y231180D01*
X255910Y231270D01*
X255938Y231362D01*
X255963Y231455D01*
X255984Y231549D01*
X256001Y231643D01*
X256015Y231738D01*
X256024Y231834D01*
X256030Y231930D01*
X256032Y232026D01*
X254409Y234298D02*
X254202Y234397D01*
X253991Y234490D01*
X253779Y234578D01*
X253565Y234661D01*
X253349Y234739D01*
X253131Y234812D01*
X252911Y234880D01*
X252690Y234942D01*
X252467Y234999D01*
X252243Y235051D01*
X252018Y235097D01*
X251792Y235138D01*
X251565Y235173D01*
X251337Y235203D01*
X251108Y235228D01*
X250879Y235247D01*
X250650Y235261D01*
X250420Y235269D01*
X250190Y235272D01*
X254409Y234298D02*
X254499Y234265D01*
X254588Y234229D01*
X254676Y234189D01*
X254761Y234145D01*
X254845Y234098D01*
X254927Y234048D01*
X255007Y233994D01*
X255084Y233938D01*
X255160Y233878D01*
X255233Y233815D01*
X255303Y233750D01*
X255371Y233681D01*
X255435Y233610D01*
X255497Y233537D01*
X255556Y233461D01*
X255612Y233383D01*
X255665Y233302D01*
X255714Y233220D01*
X255760Y233136D01*
X255803Y233049D01*
X255842Y232962D01*
X255878Y232872D01*
X255910Y232782D01*
X255938Y232690D01*
X255963Y232597D01*
X255984Y232503D01*
X256001Y232409D01*
X256015Y232314D01*
X256024Y232218D01*
X256030Y232122D01*
X256032Y232026D01*
X253436Y229429D02*
X246944Y234622D01*
X267208Y208788D02*
X278892Y208788D01*
X267208Y208788D02*
X267208Y212034D01*
X267210Y212147D01*
X267216Y212260D01*
X267226Y212373D01*
X267240Y212486D01*
X267257Y212598D01*
X267279Y212709D01*
X267304Y212819D01*
X267334Y212929D01*
X267367Y213037D01*
X267404Y213144D01*
X267444Y213250D01*
X267489Y213354D01*
X267537Y213457D01*
X267588Y213558D01*
X267643Y213657D01*
X267701Y213754D01*
X267763Y213849D01*
X267828Y213942D01*
X267896Y214032D01*
X267967Y214120D01*
X268042Y214206D01*
X268119Y214289D01*
X268199Y214369D01*
X268282Y214446D01*
X268368Y214521D01*
X268456Y214592D01*
X268546Y214660D01*
X268639Y214725D01*
X268734Y214787D01*
X268831Y214845D01*
X268930Y214900D01*
X269031Y214951D01*
X269134Y214999D01*
X269238Y215044D01*
X269344Y215084D01*
X269451Y215121D01*
X269559Y215154D01*
X269669Y215184D01*
X269779Y215209D01*
X269890Y215231D01*
X270002Y215248D01*
X270115Y215262D01*
X270228Y215272D01*
X270341Y215278D01*
X270454Y215280D01*
X270567Y215278D01*
X270680Y215272D01*
X270793Y215262D01*
X270906Y215248D01*
X271018Y215231D01*
X271129Y215209D01*
X271239Y215184D01*
X271349Y215154D01*
X271457Y215121D01*
X271564Y215084D01*
X271670Y215044D01*
X271774Y214999D01*
X271877Y214951D01*
X271978Y214900D01*
X272077Y214845D01*
X272174Y214787D01*
X272269Y214725D01*
X272362Y214660D01*
X272452Y214592D01*
X272540Y214521D01*
X272626Y214446D01*
X272709Y214369D01*
X272789Y214289D01*
X272866Y214206D01*
X272941Y214120D01*
X273012Y214032D01*
X273080Y213942D01*
X273145Y213849D01*
X273207Y213754D01*
X273265Y213657D01*
X273320Y213558D01*
X273371Y213457D01*
X273419Y213354D01*
X273464Y213250D01*
X273504Y213144D01*
X273541Y213037D01*
X273574Y212929D01*
X273604Y212819D01*
X273629Y212709D01*
X273651Y212598D01*
X273668Y212486D01*
X273682Y212373D01*
X273692Y212260D01*
X273698Y212147D01*
X273700Y212034D01*
X273699Y212034D02*
X273699Y208788D01*
X273699Y212683D02*
X278892Y215279D01*
X278892Y220548D02*
X278892Y225741D01*
X278892Y220548D02*
X267208Y220548D01*
X267208Y225741D01*
X272401Y224443D02*
X272401Y220548D01*
X269804Y230050D02*
X267208Y233296D01*
X278892Y233296D01*
X278892Y236541D02*
X278892Y230050D01*
X257048Y202692D02*
X257048Y191008D01*
X257048Y202692D02*
X260294Y202692D01*
X260407Y202690D01*
X260520Y202684D01*
X260633Y202674D01*
X260746Y202660D01*
X260858Y202643D01*
X260969Y202621D01*
X261079Y202596D01*
X261189Y202566D01*
X261297Y202533D01*
X261404Y202496D01*
X261510Y202456D01*
X261614Y202411D01*
X261717Y202363D01*
X261818Y202312D01*
X261917Y202257D01*
X262014Y202199D01*
X262109Y202137D01*
X262202Y202072D01*
X262292Y202004D01*
X262380Y201933D01*
X262466Y201858D01*
X262549Y201781D01*
X262629Y201701D01*
X262706Y201618D01*
X262781Y201532D01*
X262852Y201444D01*
X262920Y201354D01*
X262985Y201261D01*
X263047Y201166D01*
X263105Y201069D01*
X263160Y200970D01*
X263211Y200869D01*
X263259Y200766D01*
X263304Y200662D01*
X263344Y200556D01*
X263381Y200449D01*
X263414Y200341D01*
X263444Y200231D01*
X263469Y200121D01*
X263491Y200010D01*
X263508Y199898D01*
X263522Y199785D01*
X263532Y199672D01*
X263538Y199559D01*
X263540Y199446D01*
X263538Y199333D01*
X263532Y199220D01*
X263522Y199107D01*
X263508Y198994D01*
X263491Y198882D01*
X263469Y198771D01*
X263444Y198661D01*
X263414Y198551D01*
X263381Y198443D01*
X263344Y198336D01*
X263304Y198230D01*
X263259Y198126D01*
X263211Y198023D01*
X263160Y197922D01*
X263105Y197823D01*
X263047Y197726D01*
X262985Y197631D01*
X262920Y197538D01*
X262852Y197448D01*
X262781Y197360D01*
X262706Y197274D01*
X262629Y197191D01*
X262549Y197111D01*
X262466Y197034D01*
X262380Y196959D01*
X262292Y196888D01*
X262202Y196820D01*
X262109Y196755D01*
X262014Y196693D01*
X261917Y196635D01*
X261818Y196580D01*
X261717Y196529D01*
X261614Y196481D01*
X261510Y196436D01*
X261404Y196396D01*
X261297Y196359D01*
X261189Y196326D01*
X261079Y196296D01*
X260969Y196271D01*
X260858Y196249D01*
X260746Y196232D01*
X260633Y196218D01*
X260520Y196208D01*
X260407Y196202D01*
X260294Y196200D01*
X260294Y196201D02*
X257048Y196201D01*
X260943Y196201D02*
X263539Y191008D01*
X267755Y191008D02*
X271650Y202692D01*
X275545Y191008D01*
X274571Y193929D02*
X268729Y193929D01*
X279834Y197499D02*
X283729Y197499D01*
X283828Y197497D01*
X283928Y197491D01*
X284027Y197482D01*
X284125Y197469D01*
X284223Y197452D01*
X284321Y197431D01*
X284417Y197406D01*
X284512Y197378D01*
X284606Y197346D01*
X284699Y197311D01*
X284791Y197272D01*
X284881Y197229D01*
X284969Y197184D01*
X285056Y197134D01*
X285140Y197082D01*
X285223Y197026D01*
X285303Y196968D01*
X285381Y196906D01*
X285456Y196841D01*
X285529Y196773D01*
X285599Y196703D01*
X285667Y196630D01*
X285732Y196555D01*
X285794Y196477D01*
X285852Y196397D01*
X285908Y196314D01*
X285960Y196230D01*
X286010Y196143D01*
X286055Y196055D01*
X286098Y195965D01*
X286137Y195873D01*
X286172Y195780D01*
X286204Y195686D01*
X286232Y195591D01*
X286257Y195495D01*
X286278Y195397D01*
X286295Y195299D01*
X286308Y195201D01*
X286317Y195102D01*
X286323Y195002D01*
X286325Y194903D01*
X286325Y194254D01*
X286326Y194254D02*
X286324Y194141D01*
X286318Y194028D01*
X286308Y193915D01*
X286294Y193802D01*
X286277Y193690D01*
X286255Y193579D01*
X286230Y193469D01*
X286200Y193359D01*
X286167Y193251D01*
X286130Y193144D01*
X286090Y193038D01*
X286045Y192934D01*
X285997Y192831D01*
X285946Y192730D01*
X285891Y192631D01*
X285833Y192534D01*
X285771Y192439D01*
X285706Y192346D01*
X285638Y192256D01*
X285567Y192168D01*
X285492Y192082D01*
X285415Y191999D01*
X285335Y191919D01*
X285252Y191842D01*
X285166Y191767D01*
X285078Y191696D01*
X284988Y191628D01*
X284895Y191563D01*
X284800Y191501D01*
X284703Y191443D01*
X284604Y191388D01*
X284503Y191337D01*
X284400Y191289D01*
X284296Y191244D01*
X284190Y191204D01*
X284083Y191167D01*
X283975Y191134D01*
X283865Y191104D01*
X283755Y191079D01*
X283644Y191057D01*
X283532Y191040D01*
X283419Y191026D01*
X283306Y191016D01*
X283193Y191010D01*
X283080Y191008D01*
X282967Y191010D01*
X282854Y191016D01*
X282741Y191026D01*
X282628Y191040D01*
X282516Y191057D01*
X282405Y191079D01*
X282295Y191104D01*
X282185Y191134D01*
X282077Y191167D01*
X281970Y191204D01*
X281864Y191244D01*
X281760Y191289D01*
X281657Y191337D01*
X281556Y191388D01*
X281457Y191443D01*
X281360Y191501D01*
X281265Y191563D01*
X281172Y191628D01*
X281082Y191696D01*
X280994Y191767D01*
X280908Y191842D01*
X280825Y191919D01*
X280745Y191999D01*
X280668Y192082D01*
X280593Y192168D01*
X280522Y192256D01*
X280454Y192346D01*
X280389Y192439D01*
X280327Y192534D01*
X280269Y192631D01*
X280214Y192730D01*
X280163Y192831D01*
X280115Y192934D01*
X280070Y193038D01*
X280030Y193144D01*
X279993Y193251D01*
X279960Y193359D01*
X279930Y193469D01*
X279905Y193579D01*
X279883Y193690D01*
X279866Y193802D01*
X279852Y193915D01*
X279842Y194028D01*
X279836Y194141D01*
X279834Y194254D01*
X279834Y197499D01*
X279836Y197642D01*
X279842Y197785D01*
X279852Y197928D01*
X279866Y198070D01*
X279883Y198212D01*
X279905Y198354D01*
X279930Y198495D01*
X279960Y198635D01*
X279993Y198774D01*
X280030Y198912D01*
X280071Y199049D01*
X280115Y199185D01*
X280164Y199320D01*
X280216Y199453D01*
X280271Y199585D01*
X280331Y199715D01*
X280394Y199844D01*
X280460Y199971D01*
X280530Y200095D01*
X280603Y200218D01*
X280680Y200339D01*
X280760Y200458D01*
X280843Y200574D01*
X280929Y200689D01*
X281018Y200800D01*
X281111Y200910D01*
X281206Y201016D01*
X281305Y201120D01*
X281406Y201221D01*
X281510Y201320D01*
X281616Y201415D01*
X281726Y201508D01*
X281837Y201597D01*
X281952Y201683D01*
X282068Y201766D01*
X282187Y201846D01*
X282308Y201923D01*
X282430Y201996D01*
X282555Y202066D01*
X282682Y202132D01*
X282811Y202195D01*
X282941Y202255D01*
X283073Y202310D01*
X283206Y202362D01*
X283341Y202411D01*
X283477Y202455D01*
X283614Y202496D01*
X283752Y202533D01*
X283891Y202566D01*
X284031Y202596D01*
X284172Y202621D01*
X284314Y202643D01*
X284456Y202660D01*
X284598Y202674D01*
X284741Y202684D01*
X284884Y202690D01*
X285027Y202692D01*
X255778Y178562D02*
X255778Y166878D01*
X255778Y178562D02*
X259024Y178562D01*
X259137Y178560D01*
X259250Y178554D01*
X259363Y178544D01*
X259476Y178530D01*
X259588Y178513D01*
X259699Y178491D01*
X259809Y178466D01*
X259919Y178436D01*
X260027Y178403D01*
X260134Y178366D01*
X260240Y178326D01*
X260344Y178281D01*
X260447Y178233D01*
X260548Y178182D01*
X260647Y178127D01*
X260744Y178069D01*
X260839Y178007D01*
X260932Y177942D01*
X261022Y177874D01*
X261110Y177803D01*
X261196Y177728D01*
X261279Y177651D01*
X261359Y177571D01*
X261436Y177488D01*
X261511Y177402D01*
X261582Y177314D01*
X261650Y177224D01*
X261715Y177131D01*
X261777Y177036D01*
X261835Y176939D01*
X261890Y176840D01*
X261941Y176739D01*
X261989Y176636D01*
X262034Y176532D01*
X262074Y176426D01*
X262111Y176319D01*
X262144Y176211D01*
X262174Y176101D01*
X262199Y175991D01*
X262221Y175880D01*
X262238Y175768D01*
X262252Y175655D01*
X262262Y175542D01*
X262268Y175429D01*
X262270Y175316D01*
X262268Y175203D01*
X262262Y175090D01*
X262252Y174977D01*
X262238Y174864D01*
X262221Y174752D01*
X262199Y174641D01*
X262174Y174531D01*
X262144Y174421D01*
X262111Y174313D01*
X262074Y174206D01*
X262034Y174100D01*
X261989Y173996D01*
X261941Y173893D01*
X261890Y173792D01*
X261835Y173693D01*
X261777Y173596D01*
X261715Y173501D01*
X261650Y173408D01*
X261582Y173318D01*
X261511Y173230D01*
X261436Y173144D01*
X261359Y173061D01*
X261279Y172981D01*
X261196Y172904D01*
X261110Y172829D01*
X261022Y172758D01*
X260932Y172690D01*
X260839Y172625D01*
X260744Y172563D01*
X260647Y172505D01*
X260548Y172450D01*
X260447Y172399D01*
X260344Y172351D01*
X260240Y172306D01*
X260134Y172266D01*
X260027Y172229D01*
X259919Y172196D01*
X259809Y172166D01*
X259699Y172141D01*
X259588Y172119D01*
X259476Y172102D01*
X259363Y172088D01*
X259250Y172078D01*
X259137Y172072D01*
X259024Y172070D01*
X259024Y172071D02*
X255778Y172071D01*
X259673Y172071D02*
X262269Y166878D01*
X266485Y166878D02*
X270380Y178562D01*
X274275Y166878D01*
X273301Y169799D02*
X267459Y169799D01*
X278564Y166878D02*
X282459Y166878D01*
X282558Y166880D01*
X282658Y166886D01*
X282757Y166895D01*
X282855Y166908D01*
X282953Y166925D01*
X283051Y166946D01*
X283147Y166971D01*
X283242Y166999D01*
X283336Y167031D01*
X283429Y167066D01*
X283521Y167105D01*
X283611Y167148D01*
X283699Y167193D01*
X283786Y167243D01*
X283870Y167295D01*
X283953Y167351D01*
X284033Y167409D01*
X284111Y167471D01*
X284186Y167536D01*
X284259Y167604D01*
X284329Y167674D01*
X284397Y167747D01*
X284462Y167822D01*
X284524Y167900D01*
X284582Y167980D01*
X284638Y168063D01*
X284690Y168147D01*
X284740Y168234D01*
X284785Y168322D01*
X284828Y168412D01*
X284867Y168504D01*
X284902Y168597D01*
X284934Y168691D01*
X284962Y168786D01*
X284987Y168882D01*
X285008Y168980D01*
X285025Y169078D01*
X285038Y169176D01*
X285047Y169275D01*
X285053Y169375D01*
X285055Y169474D01*
X285055Y170773D01*
X285053Y170872D01*
X285047Y170972D01*
X285038Y171071D01*
X285025Y171169D01*
X285008Y171267D01*
X284987Y171365D01*
X284962Y171461D01*
X284934Y171556D01*
X284902Y171650D01*
X284867Y171743D01*
X284828Y171835D01*
X284785Y171925D01*
X284740Y172013D01*
X284690Y172100D01*
X284638Y172184D01*
X284582Y172267D01*
X284524Y172347D01*
X284462Y172425D01*
X284397Y172500D01*
X284329Y172573D01*
X284259Y172643D01*
X284186Y172711D01*
X284111Y172776D01*
X284033Y172838D01*
X283953Y172896D01*
X283870Y172952D01*
X283786Y173004D01*
X283699Y173054D01*
X283611Y173099D01*
X283521Y173142D01*
X283429Y173181D01*
X283336Y173216D01*
X283242Y173248D01*
X283147Y173276D01*
X283051Y173301D01*
X282953Y173322D01*
X282855Y173339D01*
X282757Y173352D01*
X282658Y173361D01*
X282558Y173367D01*
X282459Y173369D01*
X278564Y173369D01*
X278564Y178562D01*
X285055Y178562D01*
D11*
X91440Y142240D02*
X91440Y116840D01*
X78740Y116840D01*
X78740Y142240D01*
X91440Y142240D01*
X241300Y151130D02*
X241300Y125730D01*
X228600Y125730D01*
X228600Y151130D01*
X241300Y151130D01*
X115020Y189620D02*
X105020Y189620D01*
X105020Y179620D01*
X205020Y189620D02*
X215020Y189620D01*
X215020Y179620D01*
X215020Y89620D02*
X215020Y79620D01*
X205020Y79620D01*
X115020Y79620D02*
X105020Y79620D01*
X105020Y89620D01*
D12*
X95020Y184620D03*
D11*
X160020Y33020D02*
X312420Y33020D01*
X160020Y33020D02*
X160020Y7620D01*
X312420Y7620D01*
X312420Y33020D01*
X312420Y236220D01*
X312420Y33020D02*
X287020Y33020D01*
X287020Y236220D01*
X312420Y236220D01*
X210820Y236220D02*
X7620Y236220D01*
X7620Y261620D01*
X210820Y261620D01*
X210820Y236220D01*
X33020Y236220D02*
X33020Y33020D01*
X7620Y33020D01*
X7620Y236220D01*
X33020Y236220D01*
X7620Y33020D02*
X160020Y33020D01*
X7620Y33020D02*
X7620Y7620D01*
X160020Y7620D01*
X160020Y33020D01*
X236220Y236220D02*
X236220Y261620D01*
X236220Y236220D02*
X312420Y236220D01*
X312420Y261620D01*
X236220Y261620D01*
X248890Y51450D02*
X276890Y51450D01*
X276890Y37450D01*
X248890Y37450D01*
X248890Y51450D01*
X272870Y116180D02*
X272870Y160680D01*
X272870Y116180D02*
X250370Y116180D01*
X250370Y160680D01*
X272870Y160680D01*
X229870Y106680D02*
X229870Y81280D01*
X280670Y81280D01*
X280670Y106680D01*
X229870Y106680D01*
M02*
