M48
;GenerationSoftware,Autodesk,EAGLE,9.4.1*%
;CreationDate,2019-06-14T01:01:47Z*%
FMAT,2
ICI,OFF
METRIC,TZ,000.000
T3C0.350
T2C1.000
%
G90
M71
T2
X2032Y9652
X29972Y4572
X12192Y24892
X14732Y24892
X17272Y24892
X19812Y24892
X9652Y24892
X7112Y24892
X4572Y24892
X2032Y24892
X2032Y14732
X2032Y17272
X2032Y19812
X2032Y22352
X2032Y12192
X29972Y7112
X2032Y7112
X2032Y4572
X9652Y2032
X12192Y2032
X14732Y2032
X7112Y2032
X4572Y2032
X2032Y2032
X27432Y24892
X24892Y24892
X29972Y24892
X26797Y9398
X24257Y9398
X29972Y9652
X24892Y2032
X27432Y2032
X29972Y2032
X22352Y2032
X19812Y2032
X17272Y2032
X29972Y14732
X29972Y17272
X29972Y19812
X29972Y22352
X29972Y12192
T3
X25908Y3302
X23622Y4445
X20447Y15113
X24130Y16510
X19050Y10287
X19304Y9525
X16764Y16002
X5588Y16002
X16002Y17907
X15240Y17272
X14351Y14732
X19812Y12700
X22860Y18288
X19177Y11684
X24003Y20574
X18288Y11049
M30