G04 EAGLE Gerber RS-274X export*
G75*
%MOMM*%
%FSLAX34Y34*%
%LPD*%
%INBottom Copper Layer*%
%IPPOS*%
%AMOC8*
5,1,8,0,0,1.08239X$1,22.5*%
G01*
%ADD10C,0.554000*%
%ADD11R,4.572000X9.144000*%
%ADD12P,2.089446X8X202.500000*%

G36*
X319270Y3822D02*
X319270Y3822D01*
X319336Y3824D01*
X319379Y3842D01*
X319426Y3850D01*
X319483Y3884D01*
X319543Y3909D01*
X319578Y3940D01*
X319619Y3965D01*
X319661Y4016D01*
X319709Y4060D01*
X319731Y4102D01*
X319760Y4139D01*
X319781Y4201D01*
X319812Y4260D01*
X319820Y4314D01*
X319832Y4351D01*
X319831Y4391D01*
X319839Y4445D01*
X319839Y220855D01*
X319828Y220920D01*
X319826Y220986D01*
X319808Y221029D01*
X319800Y221076D01*
X319766Y221133D01*
X319741Y221193D01*
X319710Y221228D01*
X319685Y221269D01*
X319634Y221311D01*
X319590Y221359D01*
X319548Y221381D01*
X319511Y221410D01*
X319449Y221431D01*
X319390Y221462D01*
X319336Y221470D01*
X319299Y221482D01*
X319259Y221481D01*
X319205Y221489D01*
X4445Y221489D01*
X4380Y221478D01*
X4314Y221476D01*
X4271Y221458D01*
X4224Y221450D01*
X4167Y221416D01*
X4107Y221391D01*
X4072Y221360D01*
X4031Y221335D01*
X3989Y221284D01*
X3941Y221240D01*
X3919Y221198D01*
X3890Y221161D01*
X3869Y221099D01*
X3838Y221040D01*
X3830Y220986D01*
X3818Y220949D01*
X3819Y220909D01*
X3811Y220855D01*
X3811Y4445D01*
X3822Y4380D01*
X3824Y4314D01*
X3842Y4271D01*
X3850Y4224D01*
X3884Y4167D01*
X3909Y4107D01*
X3940Y4072D01*
X3965Y4031D01*
X4016Y3989D01*
X4060Y3941D01*
X4102Y3919D01*
X4139Y3890D01*
X4201Y3869D01*
X4260Y3838D01*
X4314Y3830D01*
X4351Y3818D01*
X4391Y3819D01*
X4445Y3811D01*
X319205Y3811D01*
X319270Y3822D01*
G37*
%LPC*%
G36*
X46170Y185673D02*
X46170Y185673D01*
X39623Y192220D01*
X39623Y201480D01*
X46170Y208027D01*
X55430Y208027D01*
X61977Y201480D01*
X61977Y192220D01*
X55430Y185673D01*
X46170Y185673D01*
G37*
%LPD*%
D10*
X11430Y73660D03*
X11430Y40640D03*
X36830Y73660D03*
X36830Y40640D03*
X11430Y17780D03*
X36830Y17780D03*
X11430Y96520D03*
X36830Y96520D03*
X24130Y96520D03*
X24130Y17780D03*
X24130Y40640D03*
X24130Y73660D03*
D11*
X22860Y57150D03*
D10*
X313690Y50800D03*
X313690Y83820D03*
X288290Y50800D03*
X288290Y83820D03*
X313690Y106680D03*
X288290Y106680D03*
X313690Y27940D03*
X288290Y27940D03*
X300990Y27940D03*
X300990Y106680D03*
X300990Y83820D03*
X300990Y50800D03*
D11*
X302260Y67310D03*
D10*
X313690Y146050D03*
X313690Y179070D03*
X288290Y146050D03*
X288290Y179070D03*
X313690Y201930D03*
X288290Y201930D03*
X313690Y123190D03*
X288290Y123190D03*
X300990Y123190D03*
X300990Y201930D03*
X300990Y179070D03*
X300990Y146050D03*
D11*
X302260Y162560D03*
D12*
X25400Y196850D03*
X50800Y196850D03*
D10*
X118110Y166370D03*
X118110Y124460D03*
X204470Y146050D03*
X179070Y146050D03*
X153670Y146050D03*
X128270Y146050D03*
X143510Y166370D03*
X168910Y166370D03*
X194310Y166370D03*
X143510Y124460D03*
X168910Y124460D03*
X194310Y124460D03*
X219710Y124460D03*
X102870Y146050D03*
X219710Y166370D03*
X95250Y166370D03*
X95250Y125730D03*
X227330Y146050D03*
X101600Y185420D03*
X104140Y102870D03*
X128270Y189230D03*
X153670Y189230D03*
X189230Y194310D03*
X168910Y194310D03*
X238760Y194310D03*
X191770Y186690D03*
X229870Y185420D03*
X247650Y210820D03*
X247650Y203200D03*
X147320Y101600D03*
X170180Y104140D03*
X161290Y96520D03*
X161290Y90170D03*
X189230Y104140D03*
X205740Y104140D03*
X273050Y149860D03*
X271780Y176530D03*
X255270Y176530D03*
X240030Y171450D03*
X229870Y158750D03*
X256540Y146050D03*
X251460Y132080D03*
X226060Y132080D03*
X271780Y80010D03*
X259080Y73660D03*
X252730Y60960D03*
X248920Y50800D03*
X278130Y54610D03*
X276860Y39370D03*
X267970Y26670D03*
X255270Y26670D03*
X52070Y69850D03*
X85090Y77470D03*
X85090Y69850D03*
X69850Y68580D03*
X69850Y45720D03*
X52070Y45720D03*
X88900Y45720D03*
X101600Y45720D03*
X195580Y60960D03*
X195580Y52070D03*
X201930Y43180D03*
X138430Y60960D03*
X138430Y52070D03*
X132080Y41910D03*
X228600Y62230D03*
X228600Y53340D03*
X31750Y172720D03*
X21590Y151130D03*
X31750Y160020D03*
X11430Y172720D03*
X11430Y161290D03*
M02*
