G04 EAGLE Gerber RS-274X export*
G75*
%MOMM*%
%FSLAX34Y34*%
%LPD*%
%INSolder side*%
%IPPOS*%
%AMOC8*
5,1,8,0,0,1.08239X$1,22.5*%
G01*
%ADD10C,0.553200*%
%ADD11P,1.924489X8X22.500000*%
%ADD12C,0.750000*%
%ADD13C,0.457200*%
%ADD14C,0.345441*%

G36*
X527108Y2168D02*
X527108Y2168D01*
X527166Y2166D01*
X527248Y2188D01*
X527332Y2200D01*
X527385Y2224D01*
X527441Y2238D01*
X527514Y2281D01*
X527591Y2316D01*
X527636Y2354D01*
X527686Y2384D01*
X527744Y2445D01*
X527808Y2500D01*
X527840Y2548D01*
X527880Y2591D01*
X527919Y2666D01*
X527966Y2736D01*
X527983Y2792D01*
X528010Y2844D01*
X528021Y2912D01*
X528051Y3007D01*
X528054Y3107D01*
X528065Y3175D01*
X528065Y64770D01*
X528057Y64828D01*
X528059Y64886D01*
X528037Y64968D01*
X528025Y65052D01*
X528002Y65105D01*
X527987Y65161D01*
X527944Y65234D01*
X527909Y65311D01*
X527871Y65356D01*
X527842Y65406D01*
X527780Y65464D01*
X527726Y65528D01*
X527677Y65560D01*
X527634Y65600D01*
X527559Y65639D01*
X527489Y65686D01*
X527433Y65703D01*
X527381Y65730D01*
X527313Y65741D01*
X527218Y65771D01*
X527118Y65774D01*
X527050Y65785D01*
X523039Y65785D01*
X523039Y80265D01*
X527050Y80265D01*
X527108Y80273D01*
X527166Y80271D01*
X527248Y80293D01*
X527332Y80305D01*
X527385Y80329D01*
X527441Y80343D01*
X527514Y80386D01*
X527591Y80421D01*
X527636Y80459D01*
X527686Y80489D01*
X527744Y80550D01*
X527808Y80605D01*
X527840Y80653D01*
X527880Y80696D01*
X527919Y80771D01*
X527966Y80841D01*
X527983Y80897D01*
X528010Y80949D01*
X528021Y81017D01*
X528051Y81112D01*
X528054Y81212D01*
X528065Y81280D01*
X528065Y142875D01*
X528057Y142933D01*
X528059Y142991D01*
X528037Y143073D01*
X528025Y143157D01*
X528002Y143210D01*
X527987Y143266D01*
X527944Y143339D01*
X527909Y143416D01*
X527871Y143461D01*
X527842Y143511D01*
X527780Y143569D01*
X527726Y143633D01*
X527677Y143665D01*
X527634Y143705D01*
X527559Y143744D01*
X527489Y143791D01*
X527433Y143808D01*
X527381Y143835D01*
X527313Y143846D01*
X527218Y143876D01*
X527118Y143879D01*
X527050Y143890D01*
X523039Y143890D01*
X523039Y145035D01*
X527050Y145035D01*
X527108Y145043D01*
X527166Y145041D01*
X527248Y145063D01*
X527332Y145075D01*
X527385Y145099D01*
X527441Y145113D01*
X527514Y145156D01*
X527591Y145191D01*
X527636Y145229D01*
X527686Y145259D01*
X527744Y145320D01*
X527808Y145375D01*
X527840Y145423D01*
X527880Y145466D01*
X527919Y145541D01*
X527966Y145611D01*
X527983Y145667D01*
X528010Y145719D01*
X528021Y145787D01*
X528051Y145882D01*
X528054Y145982D01*
X528065Y146050D01*
X528065Y207645D01*
X528057Y207703D01*
X528059Y207761D01*
X528037Y207843D01*
X528025Y207927D01*
X528002Y207980D01*
X527987Y208036D01*
X527944Y208109D01*
X527909Y208186D01*
X527871Y208231D01*
X527842Y208281D01*
X527780Y208339D01*
X527726Y208403D01*
X527677Y208435D01*
X527634Y208475D01*
X527559Y208514D01*
X527489Y208561D01*
X527433Y208578D01*
X527381Y208605D01*
X527313Y208616D01*
X527218Y208646D01*
X527118Y208649D01*
X527050Y208660D01*
X523039Y208660D01*
X523039Y223140D01*
X527050Y223140D01*
X527108Y223148D01*
X527166Y223146D01*
X527248Y223168D01*
X527332Y223180D01*
X527385Y223204D01*
X527441Y223218D01*
X527514Y223261D01*
X527591Y223296D01*
X527636Y223334D01*
X527686Y223364D01*
X527744Y223425D01*
X527808Y223480D01*
X527840Y223528D01*
X527880Y223571D01*
X527919Y223646D01*
X527966Y223716D01*
X527983Y223772D01*
X528010Y223824D01*
X528021Y223892D01*
X528051Y223987D01*
X528054Y224087D01*
X528065Y224155D01*
X528065Y285750D01*
X528057Y285808D01*
X528059Y285866D01*
X528037Y285948D01*
X528025Y286032D01*
X528002Y286085D01*
X527987Y286141D01*
X527944Y286214D01*
X527909Y286291D01*
X527871Y286336D01*
X527842Y286386D01*
X527780Y286444D01*
X527726Y286508D01*
X527677Y286540D01*
X527634Y286580D01*
X527559Y286619D01*
X527489Y286666D01*
X527433Y286683D01*
X527381Y286710D01*
X527313Y286721D01*
X527218Y286751D01*
X527118Y286754D01*
X527050Y286765D01*
X463550Y286765D01*
X463492Y286757D01*
X463434Y286759D01*
X463352Y286737D01*
X463269Y286725D01*
X463215Y286702D01*
X463159Y286687D01*
X463086Y286644D01*
X463009Y286609D01*
X462964Y286571D01*
X462914Y286542D01*
X462856Y286480D01*
X462792Y286426D01*
X462760Y286377D01*
X462720Y286334D01*
X462681Y286259D01*
X462635Y286189D01*
X462617Y286133D01*
X462590Y286081D01*
X462579Y286013D01*
X462549Y285918D01*
X462546Y285818D01*
X462535Y285750D01*
X462535Y284989D01*
X5080Y284989D01*
X4962Y284974D01*
X4843Y284967D01*
X4805Y284954D01*
X4764Y284949D01*
X4654Y284906D01*
X4541Y284869D01*
X4506Y284847D01*
X4469Y284832D01*
X4373Y284763D01*
X4272Y284699D01*
X4244Y284669D01*
X4211Y284646D01*
X4135Y284554D01*
X4054Y284467D01*
X4034Y284432D01*
X4009Y284401D01*
X3958Y284293D01*
X3900Y284189D01*
X3890Y284149D01*
X3873Y284113D01*
X3851Y283996D01*
X3821Y283881D01*
X3817Y283821D01*
X3813Y283801D01*
X3815Y283780D01*
X3811Y283720D01*
X3811Y207390D01*
X0Y207390D01*
X-58Y207382D01*
X-116Y207384D01*
X-198Y207362D01*
X-282Y207350D01*
X-335Y207327D01*
X-391Y207312D01*
X-464Y207269D01*
X-541Y207234D01*
X-586Y207196D01*
X-636Y207167D01*
X-694Y207105D01*
X-758Y207051D01*
X-790Y207002D01*
X-830Y206959D01*
X-869Y206884D01*
X-916Y206814D01*
X-933Y206758D01*
X-960Y206706D01*
X-971Y206638D01*
X-1001Y206543D01*
X-1004Y206443D01*
X-1015Y206375D01*
X-1015Y144780D01*
X-1007Y144722D01*
X-1009Y144664D01*
X-987Y144582D01*
X-975Y144499D01*
X-952Y144445D01*
X-937Y144389D01*
X-894Y144316D01*
X-859Y144239D01*
X-821Y144194D01*
X-792Y144144D01*
X-730Y144086D01*
X-676Y144022D01*
X-627Y143990D01*
X-584Y143950D01*
X-509Y143911D01*
X-439Y143865D01*
X-383Y143847D01*
X-331Y143820D01*
X-263Y143809D01*
X-168Y143779D01*
X-68Y143776D01*
X0Y143765D01*
X3811Y143765D01*
X3811Y129285D01*
X0Y129285D01*
X-58Y129277D01*
X-116Y129279D01*
X-198Y129257D01*
X-282Y129245D01*
X-335Y129222D01*
X-391Y129207D01*
X-464Y129164D01*
X-541Y129129D01*
X-586Y129091D01*
X-636Y129062D01*
X-694Y129000D01*
X-758Y128946D01*
X-790Y128897D01*
X-830Y128854D01*
X-869Y128779D01*
X-916Y128709D01*
X-933Y128653D01*
X-960Y128601D01*
X-971Y128533D01*
X-1001Y128438D01*
X-1004Y128338D01*
X-1015Y128270D01*
X-1015Y66675D01*
X-1007Y66617D01*
X-1009Y66559D01*
X-987Y66477D01*
X-975Y66394D01*
X-952Y66340D01*
X-937Y66284D01*
X-894Y66211D01*
X-859Y66134D01*
X-821Y66089D01*
X-792Y66039D01*
X-730Y65981D01*
X-676Y65917D01*
X-627Y65885D01*
X-584Y65845D01*
X-509Y65806D01*
X-439Y65760D01*
X-383Y65742D01*
X-331Y65715D01*
X-263Y65704D01*
X-168Y65674D01*
X-68Y65671D01*
X0Y65660D01*
X3811Y65660D01*
X3811Y5080D01*
X3826Y4962D01*
X3833Y4843D01*
X3846Y4805D01*
X3851Y4764D01*
X3894Y4654D01*
X3931Y4541D01*
X3953Y4506D01*
X3968Y4469D01*
X4037Y4373D01*
X4101Y4272D01*
X4131Y4244D01*
X4154Y4211D01*
X4246Y4135D01*
X4333Y4054D01*
X4368Y4034D01*
X4399Y4009D01*
X4507Y3958D01*
X4611Y3900D01*
X4651Y3890D01*
X4687Y3873D01*
X4804Y3851D01*
X4919Y3821D01*
X4979Y3817D01*
X4999Y3813D01*
X5020Y3815D01*
X5080Y3811D01*
X462535Y3811D01*
X462535Y3175D01*
X462543Y3117D01*
X462541Y3059D01*
X462563Y2977D01*
X462575Y2894D01*
X462599Y2840D01*
X462613Y2784D01*
X462656Y2711D01*
X462691Y2634D01*
X462729Y2589D01*
X462759Y2539D01*
X462820Y2481D01*
X462875Y2417D01*
X462923Y2385D01*
X462966Y2345D01*
X463041Y2306D01*
X463111Y2260D01*
X463167Y2242D01*
X463219Y2215D01*
X463287Y2204D01*
X463382Y2174D01*
X463482Y2171D01*
X463550Y2160D01*
X527050Y2160D01*
X527108Y2168D01*
G37*
%LPC*%
G36*
X244159Y59562D02*
X244159Y59562D01*
X243712Y60009D01*
X243712Y228916D01*
X244159Y229363D01*
X362266Y229363D01*
X362713Y228916D01*
X362713Y93477D01*
X362730Y93339D01*
X362743Y93201D01*
X362750Y93182D01*
X362753Y93162D01*
X362804Y93032D01*
X362851Y92902D01*
X362862Y92885D01*
X362870Y92866D01*
X362951Y92754D01*
X363029Y92639D01*
X363045Y92625D01*
X363056Y92609D01*
X363164Y92520D01*
X363268Y92428D01*
X363286Y92419D01*
X363301Y92406D01*
X363427Y92347D01*
X363551Y92283D01*
X363571Y92279D01*
X363589Y92270D01*
X363726Y92244D01*
X363861Y92214D01*
X363882Y92214D01*
X363901Y92211D01*
X364040Y92219D01*
X364179Y92223D01*
X364199Y92229D01*
X364219Y92230D01*
X364351Y92273D01*
X364485Y92312D01*
X364502Y92322D01*
X364521Y92328D01*
X364639Y92403D01*
X364759Y92473D01*
X364780Y92492D01*
X364790Y92499D01*
X364804Y92514D01*
X364879Y92580D01*
X365456Y93156D01*
X367301Y93921D01*
X369299Y93921D01*
X371144Y93156D01*
X372556Y91744D01*
X373321Y89899D01*
X373321Y87901D01*
X372556Y86056D01*
X371535Y85035D01*
X371462Y84941D01*
X371384Y84852D01*
X371365Y84816D01*
X371340Y84784D01*
X371293Y84674D01*
X371239Y84568D01*
X371230Y84529D01*
X371214Y84492D01*
X371195Y84374D01*
X371169Y84258D01*
X371171Y84218D01*
X371164Y84178D01*
X371175Y84059D01*
X371179Y83940D01*
X371190Y83901D01*
X371194Y83861D01*
X371234Y83749D01*
X371267Y83635D01*
X371288Y83600D01*
X371302Y83562D01*
X371369Y83463D01*
X371429Y83361D01*
X371469Y83316D01*
X371480Y83299D01*
X371496Y83285D01*
X371535Y83240D01*
X372556Y82219D01*
X373321Y80374D01*
X373321Y78376D01*
X372556Y76531D01*
X371144Y75119D01*
X369299Y74354D01*
X367301Y74354D01*
X365456Y75119D01*
X364879Y75695D01*
X364770Y75780D01*
X364663Y75869D01*
X364644Y75878D01*
X364628Y75890D01*
X364500Y75946D01*
X364375Y76005D01*
X364355Y76008D01*
X364336Y76016D01*
X364198Y76038D01*
X364062Y76064D01*
X364042Y76063D01*
X364022Y76066D01*
X363883Y76053D01*
X363745Y76045D01*
X363726Y76038D01*
X363706Y76036D01*
X363575Y75989D01*
X363443Y75947D01*
X363425Y75936D01*
X363406Y75929D01*
X363292Y75851D01*
X363174Y75776D01*
X363160Y75762D01*
X363143Y75750D01*
X363051Y75646D01*
X362956Y75545D01*
X362946Y75527D01*
X362933Y75512D01*
X362870Y75388D01*
X362802Y75266D01*
X362797Y75247D01*
X362788Y75229D01*
X362758Y75093D01*
X362723Y74958D01*
X362721Y74930D01*
X362718Y74918D01*
X362719Y74898D01*
X362713Y74798D01*
X362713Y60009D01*
X362266Y59562D01*
X244159Y59562D01*
G37*
%LPD*%
%LPC*%
G36*
X132298Y232409D02*
X132298Y232409D01*
X130809Y233898D01*
X130809Y239390D01*
X130797Y239488D01*
X130794Y239587D01*
X130777Y239645D01*
X130769Y239705D01*
X130733Y239797D01*
X130705Y239892D01*
X130675Y239945D01*
X130652Y240001D01*
X130594Y240081D01*
X130544Y240166D01*
X130478Y240242D01*
X130466Y240258D01*
X130456Y240266D01*
X130438Y240287D01*
X129094Y241631D01*
X128329Y243476D01*
X128329Y245474D01*
X129094Y247319D01*
X130438Y248663D01*
X130498Y248741D01*
X130566Y248813D01*
X130595Y248866D01*
X130632Y248914D01*
X130672Y249005D01*
X130720Y249092D01*
X130735Y249150D01*
X130759Y249206D01*
X130774Y249304D01*
X130799Y249400D01*
X130805Y249500D01*
X130809Y249520D01*
X130807Y249532D01*
X130809Y249560D01*
X130809Y264790D01*
X130797Y264888D01*
X130794Y264987D01*
X130777Y265045D01*
X130769Y265105D01*
X130733Y265197D01*
X130705Y265292D01*
X130675Y265345D01*
X130652Y265401D01*
X130594Y265481D01*
X130544Y265566D01*
X130478Y265642D01*
X130466Y265658D01*
X130456Y265666D01*
X130438Y265687D01*
X129094Y267031D01*
X128329Y268876D01*
X128329Y270874D01*
X129094Y272719D01*
X130438Y274063D01*
X130498Y274141D01*
X130566Y274213D01*
X130595Y274266D01*
X130632Y274314D01*
X130672Y274405D01*
X130720Y274492D01*
X130735Y274550D01*
X130759Y274606D01*
X130774Y274704D01*
X130799Y274800D01*
X130805Y274900D01*
X130809Y274920D01*
X130807Y274932D01*
X130809Y274960D01*
X130809Y280452D01*
X132298Y281941D01*
X220127Y281941D01*
X221616Y280452D01*
X221616Y233898D01*
X220127Y232409D01*
X132298Y232409D01*
G37*
%LPD*%
G36*
X219193Y233696D02*
X219193Y233696D01*
X219312Y233703D01*
X219350Y233716D01*
X219391Y233721D01*
X219501Y233764D01*
X219614Y233801D01*
X219649Y233823D01*
X219686Y233838D01*
X219782Y233908D01*
X219883Y233971D01*
X219911Y234001D01*
X219944Y234024D01*
X220020Y234116D01*
X220101Y234203D01*
X220121Y234238D01*
X220146Y234269D01*
X220197Y234377D01*
X220255Y234481D01*
X220265Y234521D01*
X220282Y234557D01*
X220304Y234674D01*
X220334Y234789D01*
X220338Y234850D01*
X220342Y234870D01*
X220340Y234890D01*
X220344Y234950D01*
X220344Y279400D01*
X220329Y279518D01*
X220322Y279637D01*
X220309Y279675D01*
X220304Y279716D01*
X220261Y279826D01*
X220224Y279939D01*
X220202Y279974D01*
X220187Y280011D01*
X220118Y280107D01*
X220054Y280208D01*
X220024Y280236D01*
X220001Y280269D01*
X219909Y280345D01*
X219822Y280426D01*
X219787Y280446D01*
X219756Y280471D01*
X219648Y280522D01*
X219544Y280580D01*
X219504Y280590D01*
X219468Y280607D01*
X219351Y280629D01*
X219236Y280659D01*
X219176Y280663D01*
X219156Y280667D01*
X219135Y280665D01*
X219075Y280669D01*
X133350Y280669D01*
X133232Y280654D01*
X133113Y280647D01*
X133075Y280634D01*
X133034Y280629D01*
X132924Y280586D01*
X132811Y280549D01*
X132776Y280527D01*
X132739Y280512D01*
X132643Y280443D01*
X132542Y280379D01*
X132514Y280349D01*
X132481Y280326D01*
X132406Y280234D01*
X132324Y280147D01*
X132304Y280112D01*
X132279Y280081D01*
X132228Y279973D01*
X132170Y279869D01*
X132160Y279829D01*
X132143Y279793D01*
X132121Y279676D01*
X132091Y279561D01*
X132087Y279501D01*
X132083Y279481D01*
X132085Y279461D01*
X132083Y279454D01*
X132084Y279447D01*
X132081Y279400D01*
X132081Y234950D01*
X132096Y234832D01*
X132103Y234713D01*
X132116Y234675D01*
X132121Y234634D01*
X132164Y234524D01*
X132201Y234411D01*
X132223Y234376D01*
X132238Y234339D01*
X132308Y234243D01*
X132371Y234142D01*
X132401Y234114D01*
X132424Y234081D01*
X132516Y234006D01*
X132603Y233924D01*
X132638Y233904D01*
X132669Y233879D01*
X132777Y233828D01*
X132881Y233770D01*
X132921Y233760D01*
X132957Y233743D01*
X133074Y233721D01*
X133189Y233691D01*
X133250Y233687D01*
X133270Y233683D01*
X133290Y233685D01*
X133350Y233681D01*
X219075Y233681D01*
X219193Y233696D01*
G37*
%LPC*%
G36*
X402226Y172779D02*
X402226Y172779D01*
X400381Y173544D01*
X398969Y174956D01*
X398204Y176801D01*
X398204Y178799D01*
X398969Y180644D01*
X399990Y181665D01*
X400062Y181759D01*
X400141Y181848D01*
X400160Y181884D01*
X400185Y181916D01*
X400232Y182025D01*
X400286Y182132D01*
X400295Y182171D01*
X400311Y182208D01*
X400330Y182326D01*
X400356Y182442D01*
X400354Y182482D01*
X400361Y182522D01*
X400350Y182641D01*
X400346Y182760D01*
X400335Y182799D01*
X400331Y182839D01*
X400291Y182951D01*
X400258Y183065D01*
X400237Y183100D01*
X400223Y183138D01*
X400157Y183237D01*
X400096Y183339D01*
X400056Y183384D01*
X400045Y183401D01*
X400030Y183415D01*
X399990Y183460D01*
X398969Y184481D01*
X398204Y186326D01*
X398204Y188324D01*
X398969Y190169D01*
X399990Y191190D01*
X400062Y191284D01*
X400141Y191373D01*
X400160Y191409D01*
X400185Y191441D01*
X400232Y191550D01*
X400286Y191657D01*
X400295Y191696D01*
X400311Y191733D01*
X400330Y191851D01*
X400356Y191967D01*
X400354Y192007D01*
X400361Y192047D01*
X400350Y192166D01*
X400346Y192285D01*
X400335Y192324D01*
X400331Y192364D01*
X400291Y192476D01*
X400258Y192590D01*
X400237Y192625D01*
X400223Y192663D01*
X400156Y192762D01*
X400096Y192864D01*
X400056Y192909D01*
X400045Y192926D01*
X400029Y192940D01*
X399990Y192985D01*
X399360Y193615D01*
X399266Y193688D01*
X399177Y193766D01*
X399141Y193785D01*
X399109Y193810D01*
X398999Y193857D01*
X398893Y193911D01*
X398854Y193920D01*
X398817Y193936D01*
X398699Y193955D01*
X398583Y193981D01*
X398543Y193979D01*
X398503Y193986D01*
X398384Y193975D01*
X398265Y193971D01*
X398226Y193960D01*
X398186Y193956D01*
X398074Y193916D01*
X397960Y193883D01*
X397925Y193862D01*
X397887Y193848D01*
X397789Y193782D01*
X397686Y193721D01*
X397641Y193681D01*
X397624Y193670D01*
X397610Y193655D01*
X397565Y193615D01*
X396544Y192594D01*
X394699Y191829D01*
X392701Y191829D01*
X390856Y192594D01*
X389444Y194006D01*
X388679Y195851D01*
X388679Y197849D01*
X389444Y199694D01*
X390856Y201106D01*
X392701Y201871D01*
X394699Y201871D01*
X396544Y201106D01*
X397565Y200085D01*
X397659Y200012D01*
X397748Y199934D01*
X397784Y199915D01*
X397816Y199890D01*
X397926Y199843D01*
X398032Y199789D01*
X398071Y199780D01*
X398108Y199764D01*
X398226Y199745D01*
X398342Y199719D01*
X398382Y199721D01*
X398422Y199714D01*
X398541Y199725D01*
X398660Y199729D01*
X398699Y199740D01*
X398739Y199744D01*
X398851Y199784D01*
X398965Y199817D01*
X399000Y199838D01*
X399038Y199852D01*
X399137Y199919D01*
X399239Y199979D01*
X399284Y200019D01*
X399301Y200030D01*
X399315Y200046D01*
X399360Y200085D01*
X400381Y201106D01*
X402226Y201871D01*
X404224Y201871D01*
X406069Y201106D01*
X407481Y199694D01*
X408246Y197849D01*
X408246Y195851D01*
X407481Y194006D01*
X406460Y192985D01*
X406387Y192891D01*
X406309Y192802D01*
X406290Y192766D01*
X406265Y192734D01*
X406218Y192624D01*
X406164Y192518D01*
X406155Y192479D01*
X406139Y192442D01*
X406120Y192324D01*
X406094Y192208D01*
X406096Y192168D01*
X406089Y192128D01*
X406100Y192009D01*
X406104Y191890D01*
X406115Y191851D01*
X406119Y191811D01*
X406159Y191699D01*
X406192Y191585D01*
X406213Y191550D01*
X406227Y191512D01*
X406294Y191413D01*
X406354Y191311D01*
X406394Y191266D01*
X406405Y191249D01*
X406421Y191235D01*
X406460Y191190D01*
X407481Y190169D01*
X408246Y188324D01*
X408246Y186326D01*
X407481Y184481D01*
X406460Y183460D01*
X406387Y183366D01*
X406309Y183277D01*
X406290Y183241D01*
X406265Y183209D01*
X406218Y183099D01*
X406164Y182993D01*
X406155Y182954D01*
X406139Y182917D01*
X406120Y182799D01*
X406094Y182683D01*
X406096Y182643D01*
X406089Y182603D01*
X406100Y182484D01*
X406104Y182365D01*
X406115Y182326D01*
X406119Y182286D01*
X406159Y182174D01*
X406192Y182060D01*
X406213Y182025D01*
X406227Y181987D01*
X406294Y181888D01*
X406354Y181786D01*
X406394Y181741D01*
X406405Y181724D01*
X406421Y181710D01*
X406460Y181665D01*
X407481Y180644D01*
X408246Y178799D01*
X408246Y176801D01*
X407481Y174956D01*
X406069Y173544D01*
X404224Y172779D01*
X402226Y172779D01*
G37*
%LPD*%
%LPC*%
G36*
X81551Y83879D02*
X81551Y83879D01*
X79706Y84644D01*
X78294Y86056D01*
X77529Y87901D01*
X77529Y89899D01*
X78294Y91744D01*
X79315Y92765D01*
X79388Y92859D01*
X79466Y92948D01*
X79485Y92984D01*
X79510Y93016D01*
X79557Y93126D01*
X79611Y93232D01*
X79620Y93271D01*
X79636Y93308D01*
X79655Y93426D01*
X79681Y93542D01*
X79679Y93582D01*
X79686Y93622D01*
X79675Y93741D01*
X79671Y93860D01*
X79660Y93898D01*
X79656Y93939D01*
X79616Y94051D01*
X79583Y94165D01*
X79562Y94200D01*
X79548Y94238D01*
X79482Y94337D01*
X79421Y94439D01*
X79381Y94484D01*
X79370Y94501D01*
X79355Y94515D01*
X79315Y94560D01*
X78685Y95190D01*
X78591Y95263D01*
X78502Y95341D01*
X78466Y95360D01*
X78434Y95385D01*
X78324Y95432D01*
X78218Y95486D01*
X78179Y95495D01*
X78142Y95511D01*
X78024Y95530D01*
X77908Y95556D01*
X77868Y95554D01*
X77828Y95561D01*
X77709Y95550D01*
X77590Y95546D01*
X77551Y95535D01*
X77511Y95531D01*
X77399Y95491D01*
X77285Y95458D01*
X77250Y95437D01*
X77212Y95423D01*
X77113Y95356D01*
X77011Y95296D01*
X76966Y95256D01*
X76949Y95245D01*
X76935Y95229D01*
X76890Y95190D01*
X75869Y94169D01*
X74024Y93404D01*
X72026Y93404D01*
X70181Y94169D01*
X68769Y95581D01*
X68004Y97426D01*
X68004Y99424D01*
X68769Y101269D01*
X70181Y102681D01*
X72026Y103446D01*
X74024Y103446D01*
X75869Y102681D01*
X76890Y101660D01*
X76984Y101588D01*
X77073Y101509D01*
X77109Y101490D01*
X77141Y101465D01*
X77250Y101418D01*
X77357Y101364D01*
X77396Y101355D01*
X77433Y101339D01*
X77551Y101320D01*
X77667Y101294D01*
X77707Y101296D01*
X77747Y101289D01*
X77866Y101300D01*
X77985Y101304D01*
X78024Y101315D01*
X78064Y101319D01*
X78176Y101359D01*
X78290Y101392D01*
X78325Y101413D01*
X78363Y101427D01*
X78462Y101493D01*
X78564Y101554D01*
X78609Y101594D01*
X78626Y101605D01*
X78640Y101620D01*
X78685Y101660D01*
X79706Y102681D01*
X81551Y103446D01*
X83549Y103446D01*
X85394Y102681D01*
X86806Y101269D01*
X87571Y99424D01*
X87571Y97426D01*
X86806Y95581D01*
X85785Y94560D01*
X85713Y94466D01*
X85634Y94377D01*
X85615Y94341D01*
X85590Y94309D01*
X85543Y94200D01*
X85489Y94093D01*
X85480Y94054D01*
X85464Y94017D01*
X85445Y93899D01*
X85419Y93783D01*
X85421Y93743D01*
X85414Y93703D01*
X85425Y93584D01*
X85429Y93465D01*
X85440Y93426D01*
X85444Y93386D01*
X85484Y93274D01*
X85517Y93160D01*
X85538Y93125D01*
X85552Y93087D01*
X85618Y92988D01*
X85679Y92886D01*
X85719Y92841D01*
X85730Y92824D01*
X85745Y92810D01*
X85785Y92765D01*
X86806Y91744D01*
X87571Y89899D01*
X87571Y87901D01*
X86806Y86056D01*
X85394Y84644D01*
X83549Y83879D01*
X81551Y83879D01*
G37*
%LPD*%
%LPC*%
G36*
X183151Y93404D02*
X183151Y93404D01*
X181306Y94169D01*
X179894Y95581D01*
X179129Y97426D01*
X179129Y99424D01*
X179894Y101269D01*
X181306Y102681D01*
X183151Y103446D01*
X185149Y103446D01*
X186994Y102681D01*
X188015Y101660D01*
X188109Y101588D01*
X188198Y101509D01*
X188234Y101490D01*
X188266Y101465D01*
X188375Y101418D01*
X188482Y101364D01*
X188521Y101355D01*
X188558Y101339D01*
X188676Y101320D01*
X188792Y101294D01*
X188832Y101296D01*
X188872Y101289D01*
X188991Y101300D01*
X189110Y101304D01*
X189149Y101315D01*
X189189Y101319D01*
X189301Y101359D01*
X189415Y101392D01*
X189450Y101413D01*
X189488Y101427D01*
X189587Y101493D01*
X189689Y101554D01*
X189734Y101594D01*
X189751Y101605D01*
X189765Y101620D01*
X189810Y101660D01*
X190831Y102681D01*
X192676Y103446D01*
X194674Y103446D01*
X196519Y102681D01*
X197931Y101269D01*
X198696Y99424D01*
X198696Y97426D01*
X197931Y95581D01*
X196519Y94169D01*
X194674Y93404D01*
X192676Y93404D01*
X190831Y94169D01*
X189810Y95190D01*
X189716Y95263D01*
X189627Y95341D01*
X189591Y95360D01*
X189559Y95385D01*
X189449Y95432D01*
X189343Y95486D01*
X189304Y95495D01*
X189267Y95511D01*
X189149Y95530D01*
X189033Y95556D01*
X188993Y95554D01*
X188953Y95561D01*
X188834Y95550D01*
X188715Y95546D01*
X188676Y95535D01*
X188636Y95531D01*
X188524Y95491D01*
X188410Y95458D01*
X188375Y95437D01*
X188337Y95423D01*
X188238Y95356D01*
X188136Y95296D01*
X188091Y95256D01*
X188074Y95245D01*
X188060Y95229D01*
X188015Y95190D01*
X186994Y94169D01*
X185149Y93404D01*
X183151Y93404D01*
G37*
%LPD*%
%LPC*%
G36*
X427626Y160079D02*
X427626Y160079D01*
X425781Y160844D01*
X424369Y162256D01*
X423604Y164101D01*
X423604Y166099D01*
X424369Y167944D01*
X425390Y168965D01*
X425463Y169059D01*
X425541Y169148D01*
X425560Y169184D01*
X425585Y169216D01*
X425632Y169326D01*
X425686Y169432D01*
X425695Y169471D01*
X425711Y169508D01*
X425730Y169626D01*
X425756Y169742D01*
X425754Y169782D01*
X425761Y169822D01*
X425750Y169941D01*
X425746Y170060D01*
X425735Y170099D01*
X425731Y170139D01*
X425691Y170251D01*
X425658Y170365D01*
X425637Y170400D01*
X425623Y170438D01*
X425556Y170537D01*
X425496Y170639D01*
X425456Y170684D01*
X425445Y170701D01*
X425429Y170715D01*
X425390Y170760D01*
X424369Y171781D01*
X423604Y173626D01*
X423604Y175624D01*
X424369Y177469D01*
X425781Y178881D01*
X427626Y179646D01*
X429624Y179646D01*
X431469Y178881D01*
X432881Y177469D01*
X433646Y175624D01*
X433646Y173626D01*
X432881Y171781D01*
X431860Y170760D01*
X431788Y170666D01*
X431709Y170577D01*
X431690Y170541D01*
X431665Y170509D01*
X431618Y170400D01*
X431564Y170293D01*
X431555Y170254D01*
X431539Y170217D01*
X431520Y170099D01*
X431494Y169983D01*
X431496Y169943D01*
X431489Y169903D01*
X431500Y169784D01*
X431504Y169665D01*
X431515Y169626D01*
X431519Y169586D01*
X431559Y169474D01*
X431592Y169360D01*
X431613Y169325D01*
X431627Y169287D01*
X431693Y169188D01*
X431754Y169086D01*
X431794Y169041D01*
X431805Y169024D01*
X431820Y169010D01*
X431860Y168965D01*
X432881Y167944D01*
X433646Y166099D01*
X433646Y164101D01*
X432881Y162256D01*
X431469Y160844D01*
X429624Y160079D01*
X427626Y160079D01*
G37*
%LPD*%
%LPC*%
G36*
X119651Y175954D02*
X119651Y175954D01*
X117806Y176719D01*
X116394Y178131D01*
X115629Y179976D01*
X115629Y181974D01*
X116394Y183819D01*
X117806Y185231D01*
X119651Y185996D01*
X121649Y185996D01*
X123494Y185231D01*
X124906Y183819D01*
X125671Y181974D01*
X125671Y179976D01*
X124906Y178131D01*
X123494Y176719D01*
X121649Y175954D01*
X119651Y175954D01*
G37*
%LPD*%
%LPC*%
G36*
X135526Y175954D02*
X135526Y175954D01*
X133681Y176719D01*
X132269Y178131D01*
X131504Y179976D01*
X131504Y181974D01*
X132269Y183819D01*
X133681Y185231D01*
X135526Y185996D01*
X137524Y185996D01*
X139369Y185231D01*
X140781Y183819D01*
X141546Y181974D01*
X141546Y179976D01*
X140781Y178131D01*
X139369Y176719D01*
X137524Y175954D01*
X135526Y175954D01*
G37*
%LPD*%
%LPC*%
G36*
X399051Y160079D02*
X399051Y160079D01*
X397206Y160844D01*
X395794Y162256D01*
X395029Y164101D01*
X395029Y166099D01*
X395794Y167944D01*
X397206Y169356D01*
X399051Y170121D01*
X401049Y170121D01*
X402894Y169356D01*
X404306Y167944D01*
X405071Y166099D01*
X405071Y164101D01*
X404306Y162256D01*
X402894Y160844D01*
X401049Y160079D01*
X399051Y160079D01*
G37*
%LPD*%
%LPC*%
G36*
X135526Y160079D02*
X135526Y160079D01*
X133681Y160844D01*
X132269Y162256D01*
X131504Y164101D01*
X131504Y166099D01*
X132269Y167944D01*
X133681Y169356D01*
X135526Y170121D01*
X137524Y170121D01*
X139369Y169356D01*
X140781Y167944D01*
X141546Y166099D01*
X141546Y164101D01*
X140781Y162256D01*
X139369Y160844D01*
X137524Y160079D01*
X135526Y160079D01*
G37*
%LPD*%
%LPC*%
G36*
X173626Y118804D02*
X173626Y118804D01*
X171781Y119569D01*
X170369Y120981D01*
X169604Y122826D01*
X169604Y124824D01*
X170369Y126669D01*
X171781Y128081D01*
X173626Y128846D01*
X175624Y128846D01*
X177469Y128081D01*
X178881Y126669D01*
X179646Y124824D01*
X179646Y122826D01*
X178881Y120981D01*
X177469Y119569D01*
X175624Y118804D01*
X173626Y118804D01*
G37*
%LPD*%
%LPC*%
G36*
X72026Y106104D02*
X72026Y106104D01*
X70181Y106869D01*
X68769Y108281D01*
X68004Y110126D01*
X68004Y112124D01*
X68769Y113969D01*
X70181Y115381D01*
X72026Y116146D01*
X74024Y116146D01*
X75869Y115381D01*
X77281Y113969D01*
X78046Y112124D01*
X78046Y110126D01*
X77281Y108281D01*
X75869Y106869D01*
X74024Y106104D01*
X72026Y106104D01*
G37*
%LPD*%
%LPC*%
G36*
X100601Y106104D02*
X100601Y106104D01*
X98756Y106869D01*
X97344Y108281D01*
X96579Y110126D01*
X96579Y112124D01*
X97344Y113969D01*
X98756Y115381D01*
X100601Y116146D01*
X102599Y116146D01*
X104444Y115381D01*
X105856Y113969D01*
X106621Y112124D01*
X106621Y110126D01*
X105856Y108281D01*
X104444Y106869D01*
X102599Y106104D01*
X100601Y106104D01*
G37*
%LPD*%
%LPC*%
G36*
X227601Y182304D02*
X227601Y182304D01*
X225756Y183069D01*
X224344Y184481D01*
X223579Y186326D01*
X223579Y188324D01*
X224344Y190169D01*
X225756Y191581D01*
X227601Y192346D01*
X229599Y192346D01*
X231444Y191581D01*
X232856Y190169D01*
X233621Y188324D01*
X233621Y186326D01*
X232856Y184481D01*
X231444Y183069D01*
X229599Y182304D01*
X227601Y182304D01*
G37*
%LPD*%
%LPC*%
G36*
X227601Y195004D02*
X227601Y195004D01*
X225756Y195769D01*
X224344Y197181D01*
X223579Y199026D01*
X223579Y201024D01*
X224344Y202869D01*
X225756Y204281D01*
X227601Y205046D01*
X229599Y205046D01*
X231444Y204281D01*
X232856Y202869D01*
X233621Y201024D01*
X233621Y199026D01*
X232856Y197181D01*
X231444Y195769D01*
X229599Y195004D01*
X227601Y195004D01*
G37*
%LPD*%
D10*
X12700Y120650D03*
X31750Y120650D03*
X50800Y120650D03*
X31750Y152400D03*
X12700Y152400D03*
X50800Y152400D03*
X50800Y73025D03*
X31750Y73025D03*
X12700Y73025D03*
X50800Y200025D03*
X31750Y200025D03*
X12700Y200025D03*
X514350Y231775D03*
X495300Y231775D03*
X476250Y231775D03*
X495300Y200025D03*
X514350Y200025D03*
X476250Y200025D03*
X476250Y279400D03*
X495300Y279400D03*
X514350Y279400D03*
X476250Y152400D03*
X495300Y152400D03*
X514350Y152400D03*
X514350Y88900D03*
X495300Y88900D03*
X476250Y88900D03*
X495300Y57150D03*
X514350Y57150D03*
X476250Y57150D03*
X476250Y136525D03*
X495300Y136525D03*
X514350Y136525D03*
X476250Y9525D03*
X495300Y9525D03*
X514350Y9525D03*
D11*
X120650Y257175D03*
X95250Y257175D03*
X146050Y257175D03*
X171450Y257175D03*
D12*
X184150Y98425D03*
X193675Y98425D03*
X368300Y79375D03*
X368300Y88900D03*
X400050Y165100D03*
X403225Y177800D03*
X403225Y187325D03*
X403225Y196850D03*
X393700Y196850D03*
X428625Y174625D03*
X428625Y165100D03*
X228600Y200025D03*
X228600Y187325D03*
X120650Y180975D03*
X136525Y180975D03*
X136525Y165100D03*
X133350Y244475D03*
X158750Y244475D03*
X184150Y244475D03*
X184150Y269875D03*
X158750Y269875D03*
X133350Y269875D03*
X73025Y111125D03*
X73025Y98425D03*
X82550Y98425D03*
X82550Y88900D03*
X101600Y111125D03*
X355600Y196850D03*
X174625Y123825D03*
X203200Y276225D03*
X203200Y238125D03*
X120650Y98425D03*
X101600Y149225D03*
X73025Y149225D03*
X82550Y158750D03*
X92075Y158750D03*
X120650Y88900D03*
X158750Y123825D03*
X158750Y114300D03*
X158750Y104775D03*
X174625Y161925D03*
X184150Y171450D03*
X193675Y171450D03*
X190500Y187325D03*
X215900Y88900D03*
X225425Y98425D03*
X342900Y98425D03*
X406400Y98425D03*
X409575Y82550D03*
X400050Y69850D03*
X355600Y88900D03*
X346075Y225425D03*
X355600Y234950D03*
X368300Y225425D03*
X371475Y196850D03*
X381000Y196850D03*
X415925Y200025D03*
X428625Y200025D03*
X428625Y190500D03*
X400050Y123825D03*
X409575Y114300D03*
X419100Y114300D03*
X428625Y120650D03*
X104775Y177800D03*
X95250Y168275D03*
X107950Y244475D03*
X107950Y269875D03*
X82550Y269875D03*
X82550Y244475D03*
X76200Y257175D03*
X168275Y98425D03*
X196850Y200025D03*
X234950Y276225D03*
X247650Y263525D03*
X247650Y250825D03*
X234950Y238125D03*
X238125Y107950D03*
X238125Y85725D03*
X238125Y63500D03*
X238125Y174625D03*
X238125Y212725D03*
X250825Y234950D03*
X279400Y234950D03*
X307975Y234950D03*
X333375Y234950D03*
X247650Y53975D03*
X273050Y53975D03*
X298450Y53975D03*
X320675Y53975D03*
X346075Y53975D03*
X365125Y53975D03*
X9525Y9525D03*
X9525Y34925D03*
X34925Y9525D03*
X60325Y9525D03*
X85725Y9525D03*
X111125Y9525D03*
X136525Y9525D03*
X161925Y9525D03*
X187325Y9525D03*
X212725Y9525D03*
X238125Y9525D03*
X263525Y9525D03*
X288925Y9525D03*
X314325Y9525D03*
X339725Y9525D03*
X365125Y9525D03*
X390525Y9525D03*
X441325Y9525D03*
X415925Y9525D03*
X9525Y279400D03*
X34925Y279400D03*
X60325Y279400D03*
X85725Y279400D03*
X111125Y279400D03*
X263525Y279400D03*
X288925Y279400D03*
X314325Y279400D03*
X339725Y279400D03*
X365125Y279400D03*
X390525Y279400D03*
X415925Y279400D03*
X441325Y279400D03*
X9525Y254000D03*
X9525Y228600D03*
X9525Y60325D03*
D13*
X254000Y152070D03*
D14*
X269646Y165100D02*
X269646Y206375D01*
X269647Y206375D02*
X269649Y206515D01*
X269655Y206655D01*
X269665Y206794D01*
X269678Y206934D01*
X269696Y207073D01*
X269718Y207211D01*
X269743Y207349D01*
X269772Y207486D01*
X269805Y207622D01*
X269842Y207757D01*
X269883Y207891D01*
X269927Y208023D01*
X269975Y208155D01*
X270027Y208285D01*
X270082Y208414D01*
X270141Y208541D01*
X270204Y208666D01*
X270270Y208789D01*
X270339Y208911D01*
X270412Y209030D01*
X270488Y209148D01*
X270568Y209263D01*
X270650Y209376D01*
X270736Y209487D01*
X270825Y209595D01*
X270916Y209701D01*
X271011Y209804D01*
X271109Y209904D01*
X271209Y210002D01*
X271312Y210097D01*
X271418Y210188D01*
X271526Y210277D01*
X271637Y210363D01*
X271750Y210445D01*
X271865Y210525D01*
X271983Y210601D01*
X272102Y210674D01*
X272224Y210743D01*
X272347Y210809D01*
X272472Y210872D01*
X272599Y210931D01*
X272728Y210986D01*
X272858Y211038D01*
X272990Y211086D01*
X273122Y211130D01*
X273256Y211171D01*
X273391Y211208D01*
X273527Y211241D01*
X273664Y211270D01*
X273802Y211295D01*
X273940Y211317D01*
X274079Y211335D01*
X274219Y211348D01*
X274358Y211358D01*
X274498Y211364D01*
X274638Y211366D01*
X274778Y211364D01*
X274918Y211358D01*
X275057Y211348D01*
X275197Y211335D01*
X275336Y211317D01*
X275474Y211295D01*
X275612Y211270D01*
X275749Y211241D01*
X275885Y211208D01*
X276020Y211171D01*
X276154Y211130D01*
X276286Y211086D01*
X276418Y211038D01*
X276548Y210986D01*
X276677Y210931D01*
X276804Y210872D01*
X276929Y210809D01*
X277052Y210743D01*
X277174Y210674D01*
X277293Y210601D01*
X277411Y210525D01*
X277526Y210445D01*
X277639Y210363D01*
X277750Y210277D01*
X277858Y210188D01*
X277964Y210097D01*
X278067Y210002D01*
X278167Y209904D01*
X278265Y209804D01*
X278360Y209701D01*
X278451Y209595D01*
X278540Y209487D01*
X278626Y209376D01*
X278708Y209263D01*
X278788Y209148D01*
X278864Y209030D01*
X278937Y208911D01*
X279006Y208789D01*
X279072Y208666D01*
X279135Y208541D01*
X279194Y208414D01*
X279249Y208285D01*
X279301Y208155D01*
X279349Y208023D01*
X279393Y207891D01*
X279434Y207757D01*
X279471Y207622D01*
X279504Y207486D01*
X279533Y207349D01*
X279558Y207211D01*
X279580Y207073D01*
X279598Y206934D01*
X279611Y206794D01*
X279621Y206655D01*
X279627Y206515D01*
X279629Y206375D01*
X279629Y76200D01*
X279632Y75937D01*
X279642Y75674D01*
X279658Y75412D01*
X279680Y75150D01*
X279708Y74888D01*
X279743Y74627D01*
X279784Y74368D01*
X279832Y74109D01*
X279885Y73851D01*
X279945Y73595D01*
X280011Y73341D01*
X280083Y73088D01*
X280162Y72837D01*
X280246Y72588D01*
X280336Y72340D01*
X280433Y72096D01*
X280535Y71853D01*
X280643Y71613D01*
X280756Y71376D01*
X280876Y71142D01*
X281001Y70911D01*
X281131Y70682D01*
X281267Y70457D01*
X281409Y70235D01*
X281556Y70017D01*
X281708Y69803D01*
X281865Y69592D01*
X282027Y69385D01*
X282194Y69182D01*
X282366Y68983D01*
X282543Y68788D01*
X282724Y68597D01*
X282910Y68411D01*
X283101Y68230D01*
X283296Y68053D01*
X283495Y67881D01*
X283698Y67714D01*
X283905Y67552D01*
X284116Y67395D01*
X284330Y67243D01*
X284548Y67096D01*
X284770Y66954D01*
X284995Y66818D01*
X285224Y66688D01*
X285455Y66563D01*
X285689Y66443D01*
X285926Y66330D01*
X286166Y66222D01*
X286409Y66120D01*
X286653Y66023D01*
X286901Y65933D01*
X287150Y65849D01*
X287401Y65770D01*
X287654Y65698D01*
X287908Y65632D01*
X288164Y65572D01*
X288422Y65519D01*
X288681Y65471D01*
X288940Y65430D01*
X289201Y65395D01*
X289463Y65367D01*
X289725Y65345D01*
X289987Y65329D01*
X290250Y65319D01*
X290513Y65316D01*
X290776Y65319D01*
X291039Y65329D01*
X291301Y65345D01*
X291563Y65367D01*
X291825Y65395D01*
X292086Y65430D01*
X292345Y65471D01*
X292604Y65519D01*
X292862Y65572D01*
X293118Y65632D01*
X293372Y65698D01*
X293625Y65770D01*
X293876Y65849D01*
X294125Y65933D01*
X294373Y66023D01*
X294617Y66120D01*
X294860Y66222D01*
X295100Y66330D01*
X295337Y66443D01*
X295571Y66563D01*
X295802Y66688D01*
X296031Y66818D01*
X296256Y66954D01*
X296478Y67096D01*
X296696Y67243D01*
X296910Y67395D01*
X297121Y67552D01*
X297328Y67714D01*
X297531Y67881D01*
X297730Y68053D01*
X297925Y68230D01*
X298116Y68411D01*
X298302Y68597D01*
X298483Y68788D01*
X298660Y68983D01*
X298832Y69182D01*
X298999Y69385D01*
X299161Y69592D01*
X299318Y69803D01*
X299470Y70017D01*
X299617Y70235D01*
X299759Y70457D01*
X299895Y70682D01*
X300025Y70911D01*
X300150Y71142D01*
X300270Y71376D01*
X300383Y71613D01*
X300491Y71853D01*
X300593Y72096D01*
X300690Y72340D01*
X300780Y72588D01*
X300864Y72837D01*
X300943Y73088D01*
X301015Y73341D01*
X301081Y73595D01*
X301141Y73851D01*
X301194Y74109D01*
X301242Y74368D01*
X301283Y74627D01*
X301318Y74888D01*
X301346Y75150D01*
X301368Y75412D01*
X301384Y75674D01*
X301394Y75937D01*
X301397Y76200D01*
X301396Y76200D02*
X301396Y206375D01*
X301397Y206375D02*
X301399Y206515D01*
X301405Y206655D01*
X301415Y206794D01*
X301428Y206934D01*
X301446Y207073D01*
X301468Y207211D01*
X301493Y207349D01*
X301522Y207486D01*
X301555Y207622D01*
X301592Y207757D01*
X301633Y207891D01*
X301677Y208023D01*
X301725Y208155D01*
X301777Y208285D01*
X301832Y208414D01*
X301891Y208541D01*
X301954Y208666D01*
X302020Y208789D01*
X302089Y208911D01*
X302162Y209030D01*
X302238Y209148D01*
X302318Y209263D01*
X302400Y209376D01*
X302486Y209487D01*
X302575Y209595D01*
X302666Y209701D01*
X302761Y209804D01*
X302859Y209904D01*
X302959Y210002D01*
X303062Y210097D01*
X303168Y210188D01*
X303276Y210277D01*
X303387Y210363D01*
X303500Y210445D01*
X303615Y210525D01*
X303733Y210601D01*
X303852Y210674D01*
X303974Y210743D01*
X304097Y210809D01*
X304222Y210872D01*
X304349Y210931D01*
X304478Y210986D01*
X304608Y211038D01*
X304740Y211086D01*
X304872Y211130D01*
X305006Y211171D01*
X305141Y211208D01*
X305277Y211241D01*
X305414Y211270D01*
X305552Y211295D01*
X305690Y211317D01*
X305829Y211335D01*
X305969Y211348D01*
X306108Y211358D01*
X306248Y211364D01*
X306388Y211366D01*
X306528Y211364D01*
X306668Y211358D01*
X306807Y211348D01*
X306947Y211335D01*
X307086Y211317D01*
X307224Y211295D01*
X307362Y211270D01*
X307499Y211241D01*
X307635Y211208D01*
X307770Y211171D01*
X307904Y211130D01*
X308036Y211086D01*
X308168Y211038D01*
X308298Y210986D01*
X308427Y210931D01*
X308554Y210872D01*
X308679Y210809D01*
X308802Y210743D01*
X308924Y210674D01*
X309043Y210601D01*
X309161Y210525D01*
X309276Y210445D01*
X309389Y210363D01*
X309500Y210277D01*
X309608Y210188D01*
X309714Y210097D01*
X309817Y210002D01*
X309917Y209904D01*
X310015Y209804D01*
X310110Y209701D01*
X310201Y209595D01*
X310290Y209487D01*
X310376Y209376D01*
X310458Y209263D01*
X310538Y209148D01*
X310614Y209030D01*
X310687Y208911D01*
X310756Y208789D01*
X310822Y208666D01*
X310885Y208541D01*
X310944Y208414D01*
X310999Y208285D01*
X311051Y208155D01*
X311099Y208023D01*
X311143Y207891D01*
X311184Y207757D01*
X311221Y207622D01*
X311254Y207486D01*
X311283Y207349D01*
X311308Y207211D01*
X311330Y207073D01*
X311348Y206934D01*
X311361Y206794D01*
X311371Y206655D01*
X311377Y206515D01*
X311379Y206375D01*
X311379Y76200D01*
X311382Y75937D01*
X311392Y75674D01*
X311408Y75412D01*
X311430Y75150D01*
X311458Y74888D01*
X311493Y74627D01*
X311534Y74368D01*
X311582Y74109D01*
X311635Y73851D01*
X311695Y73595D01*
X311761Y73341D01*
X311833Y73088D01*
X311912Y72837D01*
X311996Y72588D01*
X312086Y72340D01*
X312183Y72096D01*
X312285Y71853D01*
X312393Y71613D01*
X312506Y71376D01*
X312626Y71142D01*
X312751Y70911D01*
X312881Y70682D01*
X313017Y70457D01*
X313159Y70235D01*
X313306Y70017D01*
X313458Y69803D01*
X313615Y69592D01*
X313777Y69385D01*
X313944Y69182D01*
X314116Y68983D01*
X314293Y68788D01*
X314474Y68597D01*
X314660Y68411D01*
X314851Y68230D01*
X315046Y68053D01*
X315245Y67881D01*
X315448Y67714D01*
X315655Y67552D01*
X315866Y67395D01*
X316080Y67243D01*
X316298Y67096D01*
X316520Y66954D01*
X316745Y66818D01*
X316974Y66688D01*
X317205Y66563D01*
X317439Y66443D01*
X317676Y66330D01*
X317916Y66222D01*
X318159Y66120D01*
X318403Y66023D01*
X318651Y65933D01*
X318900Y65849D01*
X319151Y65770D01*
X319404Y65698D01*
X319658Y65632D01*
X319914Y65572D01*
X320172Y65519D01*
X320431Y65471D01*
X320690Y65430D01*
X320951Y65395D01*
X321213Y65367D01*
X321475Y65345D01*
X321737Y65329D01*
X322000Y65319D01*
X322263Y65316D01*
X322526Y65319D01*
X322789Y65329D01*
X323051Y65345D01*
X323313Y65367D01*
X323575Y65395D01*
X323836Y65430D01*
X324095Y65471D01*
X324354Y65519D01*
X324612Y65572D01*
X324868Y65632D01*
X325122Y65698D01*
X325375Y65770D01*
X325626Y65849D01*
X325875Y65933D01*
X326123Y66023D01*
X326367Y66120D01*
X326610Y66222D01*
X326850Y66330D01*
X327087Y66443D01*
X327321Y66563D01*
X327552Y66688D01*
X327781Y66818D01*
X328006Y66954D01*
X328228Y67096D01*
X328446Y67243D01*
X328660Y67395D01*
X328871Y67552D01*
X329078Y67714D01*
X329281Y67881D01*
X329480Y68053D01*
X329675Y68230D01*
X329866Y68411D01*
X330052Y68597D01*
X330233Y68788D01*
X330410Y68983D01*
X330582Y69182D01*
X330749Y69385D01*
X330911Y69592D01*
X331068Y69803D01*
X331220Y70017D01*
X331367Y70235D01*
X331509Y70457D01*
X331645Y70682D01*
X331775Y70911D01*
X331900Y71142D01*
X332020Y71376D01*
X332133Y71613D01*
X332241Y71853D01*
X332343Y72096D01*
X332440Y72340D01*
X332530Y72588D01*
X332614Y72837D01*
X332693Y73088D01*
X332765Y73341D01*
X332831Y73595D01*
X332891Y73851D01*
X332944Y74109D01*
X332992Y74368D01*
X333033Y74627D01*
X333068Y74888D01*
X333096Y75150D01*
X333118Y75412D01*
X333134Y75674D01*
X333144Y75937D01*
X333147Y76200D01*
X333146Y76200D02*
X333146Y146050D01*
X333148Y146211D01*
X333154Y146373D01*
X333164Y146534D01*
X333178Y146695D01*
X333195Y146855D01*
X333217Y147015D01*
X333243Y147175D01*
X333272Y147333D01*
X333306Y147491D01*
X333343Y147649D01*
X333384Y147805D01*
X333429Y147960D01*
X333478Y148114D01*
X333531Y148266D01*
X333587Y148418D01*
X333647Y148568D01*
X333710Y148716D01*
X333778Y148863D01*
X333848Y149008D01*
X333923Y149151D01*
X334001Y149293D01*
X334082Y149432D01*
X334167Y149570D01*
X334255Y149705D01*
X334346Y149838D01*
X334441Y149969D01*
X334538Y150098D01*
X334639Y150224D01*
X334743Y150347D01*
X334850Y150468D01*
X334960Y150586D01*
X335073Y150702D01*
X335189Y150815D01*
X335307Y150925D01*
X335428Y151032D01*
X335551Y151136D01*
X335677Y151237D01*
X335806Y151334D01*
X335937Y151429D01*
X336070Y151520D01*
X336205Y151608D01*
X336343Y151693D01*
X336482Y151774D01*
X336624Y151852D01*
X336767Y151927D01*
X336912Y151997D01*
X337059Y152065D01*
X337207Y152128D01*
X337357Y152188D01*
X337509Y152244D01*
X337661Y152297D01*
X337815Y152346D01*
X337970Y152391D01*
X338126Y152432D01*
X338284Y152469D01*
X338442Y152503D01*
X338600Y152532D01*
X338760Y152558D01*
X338920Y152580D01*
X339080Y152597D01*
X339241Y152611D01*
X339402Y152621D01*
X339564Y152627D01*
X339725Y152629D01*
X342900Y152629D01*
D13*
X342900Y152070D03*
D14*
X342900Y152629D01*
X269646Y165100D02*
X269642Y164799D01*
X269631Y164497D01*
X269613Y164197D01*
X269588Y163896D01*
X269555Y163597D01*
X269515Y163298D01*
X269468Y163000D01*
X269414Y162704D01*
X269352Y162409D01*
X269284Y162115D01*
X269208Y161824D01*
X269125Y161534D01*
X269036Y161246D01*
X268939Y160961D01*
X268836Y160678D01*
X268725Y160397D01*
X268608Y160120D01*
X268485Y159845D01*
X268354Y159573D01*
X268218Y159304D01*
X268074Y159039D01*
X267925Y158778D01*
X267769Y158520D01*
X267607Y158266D01*
X267438Y158016D01*
X267264Y157770D01*
X267084Y157528D01*
X266898Y157291D01*
X266707Y157058D01*
X266510Y156830D01*
X266307Y156607D01*
X266099Y156389D01*
X265886Y156176D01*
X265668Y155968D01*
X265445Y155765D01*
X265217Y155568D01*
X264984Y155377D01*
X264747Y155191D01*
X264505Y155011D01*
X264259Y154837D01*
X264009Y154668D01*
X263755Y154506D01*
X263497Y154350D01*
X263236Y154201D01*
X262971Y154057D01*
X262702Y153921D01*
X262430Y153790D01*
X262155Y153667D01*
X261878Y153550D01*
X261597Y153439D01*
X261314Y153336D01*
X261029Y153239D01*
X260741Y153150D01*
X260451Y153067D01*
X260160Y152991D01*
X259866Y152923D01*
X259571Y152861D01*
X259275Y152807D01*
X258977Y152760D01*
X258678Y152720D01*
X258379Y152687D01*
X258078Y152662D01*
X257778Y152644D01*
X257476Y152633D01*
X257175Y152629D01*
X254000Y152629D01*
X254000Y152070D01*
D13*
X254000Y159080D03*
D14*
X263754Y165100D02*
X263754Y206375D01*
X263757Y206638D01*
X263767Y206901D01*
X263783Y207163D01*
X263805Y207425D01*
X263833Y207687D01*
X263868Y207948D01*
X263909Y208207D01*
X263957Y208466D01*
X264010Y208724D01*
X264070Y208980D01*
X264136Y209234D01*
X264208Y209487D01*
X264287Y209738D01*
X264371Y209987D01*
X264461Y210235D01*
X264558Y210479D01*
X264660Y210722D01*
X264768Y210962D01*
X264881Y211199D01*
X265001Y211433D01*
X265126Y211664D01*
X265256Y211893D01*
X265392Y212118D01*
X265534Y212340D01*
X265681Y212558D01*
X265833Y212772D01*
X265990Y212983D01*
X266152Y213190D01*
X266319Y213393D01*
X266491Y213592D01*
X266668Y213787D01*
X266849Y213978D01*
X267035Y214164D01*
X267226Y214345D01*
X267421Y214522D01*
X267620Y214694D01*
X267823Y214861D01*
X268030Y215023D01*
X268241Y215180D01*
X268455Y215332D01*
X268673Y215479D01*
X268895Y215621D01*
X269120Y215757D01*
X269349Y215887D01*
X269580Y216012D01*
X269814Y216132D01*
X270051Y216245D01*
X270291Y216353D01*
X270534Y216455D01*
X270778Y216552D01*
X271026Y216642D01*
X271275Y216726D01*
X271526Y216805D01*
X271779Y216877D01*
X272033Y216943D01*
X272289Y217003D01*
X272547Y217056D01*
X272806Y217104D01*
X273065Y217145D01*
X273326Y217180D01*
X273588Y217208D01*
X273850Y217230D01*
X274112Y217246D01*
X274375Y217256D01*
X274638Y217259D01*
X274901Y217256D01*
X275164Y217246D01*
X275426Y217230D01*
X275688Y217208D01*
X275950Y217180D01*
X276211Y217145D01*
X276470Y217104D01*
X276729Y217056D01*
X276987Y217003D01*
X277243Y216943D01*
X277497Y216877D01*
X277750Y216805D01*
X278001Y216726D01*
X278250Y216642D01*
X278498Y216552D01*
X278742Y216455D01*
X278985Y216353D01*
X279225Y216245D01*
X279462Y216132D01*
X279696Y216012D01*
X279927Y215887D01*
X280156Y215757D01*
X280381Y215621D01*
X280603Y215479D01*
X280821Y215332D01*
X281035Y215180D01*
X281246Y215023D01*
X281453Y214861D01*
X281656Y214694D01*
X281855Y214522D01*
X282050Y214345D01*
X282241Y214164D01*
X282427Y213978D01*
X282608Y213787D01*
X282785Y213592D01*
X282957Y213393D01*
X283124Y213190D01*
X283286Y212983D01*
X283443Y212772D01*
X283595Y212558D01*
X283742Y212340D01*
X283884Y212118D01*
X284020Y211893D01*
X284150Y211664D01*
X284275Y211433D01*
X284395Y211199D01*
X284508Y210962D01*
X284616Y210722D01*
X284718Y210479D01*
X284815Y210235D01*
X284905Y209987D01*
X284989Y209738D01*
X285068Y209487D01*
X285140Y209234D01*
X285206Y208980D01*
X285266Y208724D01*
X285319Y208466D01*
X285367Y208207D01*
X285408Y207948D01*
X285443Y207687D01*
X285471Y207425D01*
X285493Y207163D01*
X285509Y206901D01*
X285519Y206638D01*
X285522Y206375D01*
X285521Y206375D02*
X285521Y76200D01*
X285522Y76200D02*
X285524Y76060D01*
X285530Y75920D01*
X285540Y75781D01*
X285553Y75641D01*
X285571Y75502D01*
X285593Y75364D01*
X285618Y75226D01*
X285647Y75089D01*
X285680Y74953D01*
X285717Y74818D01*
X285758Y74684D01*
X285802Y74552D01*
X285850Y74420D01*
X285902Y74290D01*
X285957Y74161D01*
X286016Y74034D01*
X286079Y73909D01*
X286145Y73786D01*
X286214Y73664D01*
X286287Y73545D01*
X286363Y73427D01*
X286443Y73312D01*
X286525Y73199D01*
X286611Y73088D01*
X286700Y72980D01*
X286791Y72874D01*
X286886Y72771D01*
X286984Y72671D01*
X287084Y72573D01*
X287187Y72478D01*
X287293Y72387D01*
X287401Y72298D01*
X287512Y72212D01*
X287625Y72130D01*
X287740Y72050D01*
X287858Y71974D01*
X287977Y71901D01*
X288099Y71832D01*
X288222Y71766D01*
X288347Y71703D01*
X288474Y71644D01*
X288603Y71589D01*
X288733Y71537D01*
X288865Y71489D01*
X288997Y71445D01*
X289131Y71404D01*
X289266Y71367D01*
X289402Y71334D01*
X289539Y71305D01*
X289677Y71280D01*
X289815Y71258D01*
X289954Y71240D01*
X290094Y71227D01*
X290233Y71217D01*
X290373Y71211D01*
X290513Y71209D01*
X290653Y71211D01*
X290793Y71217D01*
X290932Y71227D01*
X291072Y71240D01*
X291211Y71258D01*
X291349Y71280D01*
X291487Y71305D01*
X291624Y71334D01*
X291760Y71367D01*
X291895Y71404D01*
X292029Y71445D01*
X292161Y71489D01*
X292293Y71537D01*
X292423Y71589D01*
X292552Y71644D01*
X292679Y71703D01*
X292804Y71766D01*
X292927Y71832D01*
X293049Y71901D01*
X293168Y71974D01*
X293286Y72050D01*
X293401Y72130D01*
X293514Y72212D01*
X293625Y72298D01*
X293733Y72387D01*
X293839Y72478D01*
X293942Y72573D01*
X294042Y72671D01*
X294140Y72771D01*
X294235Y72874D01*
X294326Y72980D01*
X294415Y73088D01*
X294501Y73199D01*
X294583Y73312D01*
X294663Y73427D01*
X294739Y73545D01*
X294812Y73664D01*
X294881Y73786D01*
X294947Y73909D01*
X295010Y74034D01*
X295069Y74161D01*
X295124Y74290D01*
X295176Y74420D01*
X295224Y74552D01*
X295268Y74684D01*
X295309Y74818D01*
X295346Y74953D01*
X295379Y75089D01*
X295408Y75226D01*
X295433Y75364D01*
X295455Y75502D01*
X295473Y75641D01*
X295486Y75781D01*
X295496Y75920D01*
X295502Y76060D01*
X295504Y76200D01*
X295504Y206375D01*
X295507Y206638D01*
X295517Y206901D01*
X295533Y207163D01*
X295555Y207425D01*
X295583Y207687D01*
X295618Y207948D01*
X295659Y208207D01*
X295707Y208466D01*
X295760Y208724D01*
X295820Y208980D01*
X295886Y209234D01*
X295958Y209487D01*
X296037Y209738D01*
X296121Y209987D01*
X296211Y210235D01*
X296308Y210479D01*
X296410Y210722D01*
X296518Y210962D01*
X296631Y211199D01*
X296751Y211433D01*
X296876Y211664D01*
X297006Y211893D01*
X297142Y212118D01*
X297284Y212340D01*
X297431Y212558D01*
X297583Y212772D01*
X297740Y212983D01*
X297902Y213190D01*
X298069Y213393D01*
X298241Y213592D01*
X298418Y213787D01*
X298599Y213978D01*
X298785Y214164D01*
X298976Y214345D01*
X299171Y214522D01*
X299370Y214694D01*
X299573Y214861D01*
X299780Y215023D01*
X299991Y215180D01*
X300205Y215332D01*
X300423Y215479D01*
X300645Y215621D01*
X300870Y215757D01*
X301099Y215887D01*
X301330Y216012D01*
X301564Y216132D01*
X301801Y216245D01*
X302041Y216353D01*
X302284Y216455D01*
X302528Y216552D01*
X302776Y216642D01*
X303025Y216726D01*
X303276Y216805D01*
X303529Y216877D01*
X303783Y216943D01*
X304039Y217003D01*
X304297Y217056D01*
X304556Y217104D01*
X304815Y217145D01*
X305076Y217180D01*
X305338Y217208D01*
X305600Y217230D01*
X305862Y217246D01*
X306125Y217256D01*
X306388Y217259D01*
X306651Y217256D01*
X306914Y217246D01*
X307176Y217230D01*
X307438Y217208D01*
X307700Y217180D01*
X307961Y217145D01*
X308220Y217104D01*
X308479Y217056D01*
X308737Y217003D01*
X308993Y216943D01*
X309247Y216877D01*
X309500Y216805D01*
X309751Y216726D01*
X310000Y216642D01*
X310248Y216552D01*
X310492Y216455D01*
X310735Y216353D01*
X310975Y216245D01*
X311212Y216132D01*
X311446Y216012D01*
X311677Y215887D01*
X311906Y215757D01*
X312131Y215621D01*
X312353Y215479D01*
X312571Y215332D01*
X312785Y215180D01*
X312996Y215023D01*
X313203Y214861D01*
X313406Y214694D01*
X313605Y214522D01*
X313800Y214345D01*
X313991Y214164D01*
X314177Y213978D01*
X314358Y213787D01*
X314535Y213592D01*
X314707Y213393D01*
X314874Y213190D01*
X315036Y212983D01*
X315193Y212772D01*
X315345Y212558D01*
X315492Y212340D01*
X315634Y212118D01*
X315770Y211893D01*
X315900Y211664D01*
X316025Y211433D01*
X316145Y211199D01*
X316258Y210962D01*
X316366Y210722D01*
X316468Y210479D01*
X316565Y210235D01*
X316655Y209987D01*
X316739Y209738D01*
X316818Y209487D01*
X316890Y209234D01*
X316956Y208980D01*
X317016Y208724D01*
X317069Y208466D01*
X317117Y208207D01*
X317158Y207948D01*
X317193Y207687D01*
X317221Y207425D01*
X317243Y207163D01*
X317259Y206901D01*
X317269Y206638D01*
X317272Y206375D01*
X317271Y206375D02*
X317271Y76200D01*
X317272Y76200D02*
X317274Y76060D01*
X317280Y75920D01*
X317290Y75781D01*
X317303Y75641D01*
X317321Y75502D01*
X317343Y75364D01*
X317368Y75226D01*
X317397Y75089D01*
X317430Y74953D01*
X317467Y74818D01*
X317508Y74684D01*
X317552Y74552D01*
X317600Y74420D01*
X317652Y74290D01*
X317707Y74161D01*
X317766Y74034D01*
X317829Y73909D01*
X317895Y73786D01*
X317964Y73664D01*
X318037Y73545D01*
X318113Y73427D01*
X318193Y73312D01*
X318275Y73199D01*
X318361Y73088D01*
X318450Y72980D01*
X318541Y72874D01*
X318636Y72771D01*
X318734Y72671D01*
X318834Y72573D01*
X318937Y72478D01*
X319043Y72387D01*
X319151Y72298D01*
X319262Y72212D01*
X319375Y72130D01*
X319490Y72050D01*
X319608Y71974D01*
X319727Y71901D01*
X319849Y71832D01*
X319972Y71766D01*
X320097Y71703D01*
X320224Y71644D01*
X320353Y71589D01*
X320483Y71537D01*
X320615Y71489D01*
X320747Y71445D01*
X320881Y71404D01*
X321016Y71367D01*
X321152Y71334D01*
X321289Y71305D01*
X321427Y71280D01*
X321565Y71258D01*
X321704Y71240D01*
X321844Y71227D01*
X321983Y71217D01*
X322123Y71211D01*
X322263Y71209D01*
X322403Y71211D01*
X322543Y71217D01*
X322682Y71227D01*
X322822Y71240D01*
X322961Y71258D01*
X323099Y71280D01*
X323237Y71305D01*
X323374Y71334D01*
X323510Y71367D01*
X323645Y71404D01*
X323779Y71445D01*
X323911Y71489D01*
X324043Y71537D01*
X324173Y71589D01*
X324302Y71644D01*
X324429Y71703D01*
X324554Y71766D01*
X324677Y71832D01*
X324799Y71901D01*
X324918Y71974D01*
X325036Y72050D01*
X325151Y72130D01*
X325264Y72212D01*
X325375Y72298D01*
X325483Y72387D01*
X325589Y72478D01*
X325692Y72573D01*
X325792Y72671D01*
X325890Y72771D01*
X325985Y72874D01*
X326076Y72980D01*
X326165Y73088D01*
X326251Y73199D01*
X326333Y73312D01*
X326413Y73427D01*
X326489Y73545D01*
X326562Y73664D01*
X326631Y73786D01*
X326697Y73909D01*
X326760Y74034D01*
X326819Y74161D01*
X326874Y74290D01*
X326926Y74420D01*
X326974Y74552D01*
X327018Y74684D01*
X327059Y74818D01*
X327096Y74953D01*
X327129Y75089D01*
X327158Y75226D01*
X327183Y75364D01*
X327205Y75502D01*
X327223Y75641D01*
X327236Y75781D01*
X327246Y75920D01*
X327252Y76060D01*
X327254Y76200D01*
X327254Y146050D01*
X327258Y146351D01*
X327269Y146653D01*
X327287Y146953D01*
X327312Y147254D01*
X327345Y147553D01*
X327385Y147852D01*
X327432Y148150D01*
X327486Y148446D01*
X327548Y148741D01*
X327616Y149035D01*
X327692Y149326D01*
X327775Y149616D01*
X327864Y149904D01*
X327961Y150189D01*
X328064Y150472D01*
X328175Y150753D01*
X328292Y151030D01*
X328415Y151305D01*
X328546Y151577D01*
X328682Y151846D01*
X328826Y152111D01*
X328975Y152372D01*
X329131Y152630D01*
X329293Y152884D01*
X329462Y153134D01*
X329636Y153380D01*
X329816Y153622D01*
X330002Y153859D01*
X330193Y154092D01*
X330390Y154320D01*
X330593Y154543D01*
X330801Y154761D01*
X331014Y154974D01*
X331232Y155182D01*
X331455Y155385D01*
X331683Y155582D01*
X331916Y155773D01*
X332153Y155959D01*
X332395Y156139D01*
X332641Y156313D01*
X332891Y156482D01*
X333145Y156644D01*
X333403Y156800D01*
X333664Y156949D01*
X333929Y157093D01*
X334198Y157229D01*
X334470Y157360D01*
X334745Y157483D01*
X335022Y157600D01*
X335303Y157711D01*
X335586Y157814D01*
X335871Y157911D01*
X336159Y158000D01*
X336449Y158083D01*
X336740Y158159D01*
X337034Y158227D01*
X337329Y158289D01*
X337625Y158343D01*
X337923Y158390D01*
X338222Y158430D01*
X338521Y158463D01*
X338822Y158488D01*
X339122Y158506D01*
X339424Y158517D01*
X339725Y158521D01*
X342900Y158521D01*
D13*
X342900Y159080D03*
D14*
X342900Y158521D01*
X263754Y165100D02*
X263752Y164939D01*
X263746Y164777D01*
X263736Y164616D01*
X263722Y164455D01*
X263705Y164295D01*
X263683Y164135D01*
X263657Y163975D01*
X263628Y163817D01*
X263594Y163659D01*
X263557Y163501D01*
X263516Y163345D01*
X263471Y163190D01*
X263422Y163036D01*
X263369Y162884D01*
X263313Y162732D01*
X263253Y162582D01*
X263190Y162434D01*
X263122Y162287D01*
X263052Y162142D01*
X262977Y161999D01*
X262899Y161857D01*
X262818Y161718D01*
X262733Y161580D01*
X262645Y161445D01*
X262554Y161312D01*
X262459Y161181D01*
X262362Y161052D01*
X262261Y160926D01*
X262157Y160803D01*
X262050Y160682D01*
X261940Y160564D01*
X261827Y160448D01*
X261711Y160335D01*
X261593Y160225D01*
X261472Y160118D01*
X261349Y160014D01*
X261223Y159913D01*
X261094Y159816D01*
X260963Y159721D01*
X260830Y159630D01*
X260695Y159542D01*
X260557Y159457D01*
X260418Y159376D01*
X260276Y159298D01*
X260133Y159223D01*
X259988Y159153D01*
X259841Y159085D01*
X259693Y159022D01*
X259543Y158962D01*
X259391Y158906D01*
X259239Y158853D01*
X259085Y158804D01*
X258930Y158759D01*
X258774Y158718D01*
X258616Y158681D01*
X258458Y158647D01*
X258300Y158618D01*
X258140Y158592D01*
X257980Y158570D01*
X257820Y158553D01*
X257659Y158539D01*
X257498Y158529D01*
X257336Y158523D01*
X257175Y158521D01*
X254000Y158521D01*
X254000Y159080D01*
D13*
X256540Y126670D03*
D14*
X256540Y127229D01*
D13*
X264160Y133680D03*
X256540Y133680D03*
D14*
X256540Y133121D01*
D13*
X264160Y126670D03*
D14*
X264160Y126695D02*
X257175Y133680D01*
X256540Y133680D01*
X264160Y126695D02*
X264160Y126670D01*
M02*
