G04 EAGLE Gerber RS-274X export*
G75*
%MOMM*%
%FSLAX34Y34*%
%LPD*%
%INComponent side*%
%IPPOS*%
%AMOC8*
5,1,8,0,0,1.08239X$1,22.5*%
G01*
%ADD10R,0.800000X0.800000*%
%ADD11R,1.500000X0.550000*%
%ADD12R,0.700000X0.600000*%
%ADD13R,5.715000X1.041400*%
%ADD14R,6.350000X2.540000*%
%ADD15C,0.553200*%
%ADD16P,1.924489X8X22.500000*%
%ADD17R,0.900000X1.600000*%
%ADD18C,0.750000*%
%ADD19C,0.345441*%
%ADD20C,0.457200*%

G36*
X471922Y222689D02*
X471922Y222689D01*
X471995Y222621D01*
X472048Y222592D01*
X472095Y222555D01*
X472186Y222515D01*
X472273Y222467D01*
X472332Y222452D01*
X472387Y222428D01*
X472485Y222413D01*
X472581Y222388D01*
X472681Y222382D01*
X472701Y222378D01*
X472714Y222380D01*
X472742Y222378D01*
X521770Y222378D01*
X521888Y222393D01*
X522007Y222400D01*
X522045Y222413D01*
X522086Y222418D01*
X522196Y222461D01*
X522309Y222498D01*
X522344Y222520D01*
X522381Y222535D01*
X522477Y222604D01*
X522578Y222668D01*
X522606Y222698D01*
X522639Y222721D01*
X522715Y222813D01*
X522796Y222900D01*
X522816Y222935D01*
X522841Y222966D01*
X522892Y223074D01*
X522928Y223140D01*
X527050Y223140D01*
X527108Y223148D01*
X527166Y223146D01*
X527248Y223168D01*
X527332Y223180D01*
X527385Y223204D01*
X527441Y223218D01*
X527514Y223261D01*
X527591Y223296D01*
X527636Y223334D01*
X527686Y223364D01*
X527744Y223425D01*
X527808Y223480D01*
X527840Y223528D01*
X527880Y223571D01*
X527919Y223646D01*
X527966Y223716D01*
X527983Y223772D01*
X528010Y223824D01*
X528021Y223892D01*
X528051Y223987D01*
X528054Y224087D01*
X528065Y224155D01*
X528065Y285750D01*
X528057Y285808D01*
X528059Y285866D01*
X528037Y285948D01*
X528025Y286032D01*
X528002Y286085D01*
X527987Y286141D01*
X527944Y286214D01*
X527909Y286291D01*
X527871Y286336D01*
X527842Y286386D01*
X527780Y286444D01*
X527726Y286508D01*
X527677Y286540D01*
X527634Y286580D01*
X527559Y286619D01*
X527489Y286666D01*
X527433Y286683D01*
X527381Y286710D01*
X527313Y286721D01*
X527218Y286751D01*
X527118Y286754D01*
X527050Y286765D01*
X463550Y286765D01*
X463492Y286757D01*
X463434Y286759D01*
X463352Y286737D01*
X463269Y286725D01*
X463215Y286702D01*
X463159Y286687D01*
X463086Y286644D01*
X463009Y286609D01*
X462964Y286571D01*
X462914Y286542D01*
X462856Y286480D01*
X462792Y286426D01*
X462760Y286377D01*
X462720Y286334D01*
X462681Y286259D01*
X462635Y286189D01*
X462617Y286133D01*
X462590Y286081D01*
X462579Y286013D01*
X462549Y285918D01*
X462546Y285818D01*
X462535Y285750D01*
X462535Y284989D01*
X5080Y284989D01*
X4962Y284974D01*
X4843Y284967D01*
X4805Y284954D01*
X4764Y284949D01*
X4654Y284906D01*
X4541Y284869D01*
X4506Y284847D01*
X4469Y284832D01*
X4373Y284763D01*
X4272Y284699D01*
X4244Y284669D01*
X4211Y284646D01*
X4135Y284554D01*
X4054Y284467D01*
X4034Y284432D01*
X4009Y284401D01*
X3958Y284293D01*
X3900Y284189D01*
X3890Y284149D01*
X3873Y284113D01*
X3851Y283996D01*
X3821Y283881D01*
X3817Y283821D01*
X3813Y283801D01*
X3815Y283780D01*
X3811Y283720D01*
X3811Y207390D01*
X0Y207390D01*
X-58Y207382D01*
X-116Y207384D01*
X-198Y207362D01*
X-282Y207350D01*
X-335Y207327D01*
X-391Y207312D01*
X-464Y207269D01*
X-541Y207234D01*
X-586Y207196D01*
X-636Y207167D01*
X-694Y207105D01*
X-758Y207051D01*
X-790Y207002D01*
X-830Y206959D01*
X-869Y206884D01*
X-916Y206814D01*
X-933Y206758D01*
X-960Y206706D01*
X-971Y206638D01*
X-1001Y206543D01*
X-1004Y206443D01*
X-1015Y206375D01*
X-1015Y144780D01*
X-1007Y144722D01*
X-1009Y144664D01*
X-987Y144582D01*
X-975Y144499D01*
X-952Y144445D01*
X-937Y144389D01*
X-894Y144316D01*
X-859Y144239D01*
X-821Y144194D01*
X-792Y144144D01*
X-730Y144086D01*
X-676Y144022D01*
X-627Y143990D01*
X-584Y143950D01*
X-509Y143911D01*
X-439Y143865D01*
X-383Y143847D01*
X-331Y143820D01*
X-263Y143809D01*
X-168Y143779D01*
X-68Y143776D01*
X0Y143765D01*
X3921Y143765D01*
X3931Y143733D01*
X3953Y143698D01*
X3968Y143661D01*
X4037Y143565D01*
X4101Y143464D01*
X4131Y143436D01*
X4154Y143403D01*
X4246Y143327D01*
X4333Y143246D01*
X4368Y143226D01*
X4399Y143201D01*
X4507Y143150D01*
X4611Y143092D01*
X4651Y143082D01*
X4687Y143065D01*
X4804Y143043D01*
X4919Y143013D01*
X4979Y143009D01*
X4999Y143005D01*
X5020Y143007D01*
X5080Y143003D01*
X57851Y143003D01*
X58596Y142258D01*
X58596Y140792D01*
X58611Y140674D01*
X58618Y140555D01*
X58631Y140517D01*
X58636Y140477D01*
X58679Y140366D01*
X58716Y140253D01*
X58738Y140219D01*
X58753Y140181D01*
X58822Y140085D01*
X58886Y139984D01*
X58916Y139956D01*
X58939Y139924D01*
X59031Y139848D01*
X59118Y139766D01*
X59153Y139747D01*
X59184Y139721D01*
X59292Y139670D01*
X59396Y139613D01*
X59436Y139603D01*
X59472Y139585D01*
X59589Y139563D01*
X59704Y139533D01*
X59764Y139529D01*
X59784Y139526D01*
X59805Y139527D01*
X59865Y139523D01*
X77725Y139523D01*
X77823Y139535D01*
X77922Y139538D01*
X77981Y139555D01*
X78041Y139563D01*
X78133Y139599D01*
X78228Y139627D01*
X78280Y139658D01*
X78336Y139680D01*
X78416Y139738D01*
X78502Y139788D01*
X78577Y139855D01*
X78594Y139867D01*
X78601Y139876D01*
X78623Y139895D01*
X79274Y140546D01*
X95326Y140546D01*
X96071Y139801D01*
X96071Y133249D01*
X95326Y132504D01*
X79274Y132504D01*
X78623Y133155D01*
X78544Y133216D01*
X78472Y133284D01*
X78419Y133313D01*
X78371Y133350D01*
X78280Y133390D01*
X78194Y133437D01*
X78135Y133452D01*
X78079Y133477D01*
X77982Y133492D01*
X77886Y133517D01*
X77786Y133523D01*
X77765Y133526D01*
X77753Y133525D01*
X77725Y133527D01*
X59865Y133527D01*
X59747Y133512D01*
X59628Y133505D01*
X59590Y133492D01*
X59549Y133487D01*
X59439Y133443D01*
X59326Y133407D01*
X59291Y133385D01*
X59254Y133370D01*
X59158Y133300D01*
X59057Y133237D01*
X59029Y133207D01*
X58996Y133183D01*
X58920Y133092D01*
X58839Y133005D01*
X58819Y132970D01*
X58794Y132938D01*
X58743Y132831D01*
X58685Y132726D01*
X58675Y132687D01*
X58658Y132651D01*
X58636Y132534D01*
X58606Y132418D01*
X58602Y132358D01*
X58598Y132338D01*
X58600Y132318D01*
X58596Y132258D01*
X58596Y130792D01*
X57851Y130047D01*
X5080Y130047D01*
X4962Y130032D01*
X4843Y130025D01*
X4805Y130012D01*
X4764Y130007D01*
X4654Y129964D01*
X4541Y129927D01*
X4506Y129905D01*
X4469Y129890D01*
X4373Y129821D01*
X4272Y129757D01*
X4244Y129727D01*
X4211Y129704D01*
X4135Y129612D01*
X4054Y129525D01*
X4034Y129490D01*
X4009Y129459D01*
X3958Y129351D01*
X3922Y129285D01*
X0Y129285D01*
X-58Y129277D01*
X-116Y129279D01*
X-198Y129257D01*
X-282Y129245D01*
X-335Y129222D01*
X-391Y129207D01*
X-464Y129164D01*
X-541Y129129D01*
X-586Y129091D01*
X-636Y129062D01*
X-694Y129000D01*
X-758Y128946D01*
X-790Y128897D01*
X-830Y128854D01*
X-869Y128779D01*
X-916Y128709D01*
X-933Y128653D01*
X-960Y128601D01*
X-971Y128533D01*
X-1001Y128438D01*
X-1004Y128338D01*
X-1015Y128270D01*
X-1015Y66675D01*
X-1007Y66617D01*
X-1009Y66559D01*
X-987Y66477D01*
X-975Y66394D01*
X-952Y66340D01*
X-937Y66284D01*
X-894Y66211D01*
X-859Y66134D01*
X-821Y66089D01*
X-792Y66039D01*
X-730Y65981D01*
X-676Y65917D01*
X-627Y65885D01*
X-584Y65845D01*
X-509Y65806D01*
X-439Y65760D01*
X-383Y65742D01*
X-331Y65715D01*
X-263Y65704D01*
X-168Y65674D01*
X-68Y65671D01*
X0Y65660D01*
X3811Y65660D01*
X3811Y5080D01*
X3826Y4962D01*
X3833Y4843D01*
X3846Y4805D01*
X3851Y4764D01*
X3894Y4654D01*
X3931Y4541D01*
X3953Y4506D01*
X3968Y4469D01*
X4037Y4373D01*
X4101Y4272D01*
X4131Y4244D01*
X4154Y4211D01*
X4246Y4135D01*
X4333Y4054D01*
X4368Y4034D01*
X4399Y4009D01*
X4507Y3958D01*
X4611Y3900D01*
X4651Y3890D01*
X4687Y3873D01*
X4804Y3851D01*
X4919Y3821D01*
X4979Y3817D01*
X4999Y3813D01*
X5020Y3815D01*
X5080Y3811D01*
X462535Y3811D01*
X462535Y3175D01*
X462543Y3117D01*
X462541Y3059D01*
X462563Y2977D01*
X462575Y2894D01*
X462599Y2840D01*
X462613Y2784D01*
X462656Y2711D01*
X462691Y2634D01*
X462729Y2589D01*
X462759Y2539D01*
X462820Y2481D01*
X462875Y2417D01*
X462923Y2385D01*
X462966Y2345D01*
X463041Y2306D01*
X463111Y2260D01*
X463167Y2242D01*
X463219Y2215D01*
X463287Y2204D01*
X463382Y2174D01*
X463482Y2171D01*
X463550Y2160D01*
X527050Y2160D01*
X527108Y2168D01*
X527166Y2166D01*
X527248Y2188D01*
X527332Y2200D01*
X527385Y2224D01*
X527441Y2238D01*
X527514Y2281D01*
X527591Y2316D01*
X527636Y2354D01*
X527686Y2384D01*
X527744Y2445D01*
X527808Y2500D01*
X527840Y2548D01*
X527880Y2591D01*
X527919Y2666D01*
X527966Y2736D01*
X527983Y2792D01*
X528010Y2844D01*
X528021Y2912D01*
X528051Y3007D01*
X528054Y3107D01*
X528065Y3175D01*
X528065Y64770D01*
X528057Y64828D01*
X528059Y64886D01*
X528037Y64968D01*
X528025Y65052D01*
X528002Y65105D01*
X527987Y65161D01*
X527944Y65234D01*
X527909Y65311D01*
X527871Y65356D01*
X527842Y65406D01*
X527780Y65464D01*
X527726Y65528D01*
X527677Y65560D01*
X527634Y65600D01*
X527559Y65639D01*
X527489Y65686D01*
X527433Y65703D01*
X527381Y65730D01*
X527313Y65741D01*
X527218Y65771D01*
X527118Y65774D01*
X527050Y65785D01*
X522929Y65785D01*
X522919Y65817D01*
X522897Y65852D01*
X522882Y65889D01*
X522813Y65985D01*
X522749Y66086D01*
X522719Y66114D01*
X522696Y66147D01*
X522604Y66223D01*
X522517Y66304D01*
X522482Y66324D01*
X522451Y66349D01*
X522343Y66400D01*
X522239Y66458D01*
X522199Y66468D01*
X522163Y66485D01*
X522046Y66507D01*
X521931Y66537D01*
X521871Y66541D01*
X521851Y66545D01*
X521830Y66543D01*
X521770Y66547D01*
X472742Y66547D01*
X472643Y66535D01*
X472544Y66532D01*
X472486Y66515D01*
X472426Y66507D01*
X472334Y66471D01*
X472239Y66443D01*
X472187Y66413D01*
X472130Y66390D01*
X472050Y66332D01*
X471965Y66282D01*
X471890Y66216D01*
X471873Y66204D01*
X471865Y66194D01*
X471844Y66176D01*
X471454Y65785D01*
X463550Y65785D01*
X463492Y65777D01*
X463434Y65779D01*
X463352Y65757D01*
X463269Y65745D01*
X463215Y65722D01*
X463159Y65707D01*
X463086Y65664D01*
X463009Y65629D01*
X462964Y65591D01*
X462914Y65562D01*
X462856Y65500D01*
X462792Y65446D01*
X462760Y65397D01*
X462720Y65354D01*
X462681Y65279D01*
X462635Y65209D01*
X462617Y65153D01*
X462590Y65101D01*
X462579Y65033D01*
X462552Y64947D01*
X450134Y64947D01*
X433247Y81834D01*
X433247Y122584D01*
X433235Y122682D01*
X433232Y122781D01*
X433215Y122839D01*
X433207Y122899D01*
X433171Y122991D01*
X433143Y123086D01*
X433112Y123138D01*
X433090Y123195D01*
X433032Y123275D01*
X432982Y123360D01*
X432915Y123436D01*
X432903Y123452D01*
X432894Y123460D01*
X432875Y123481D01*
X424012Y132345D01*
X423918Y132418D01*
X423828Y132496D01*
X423792Y132515D01*
X423760Y132540D01*
X423651Y132587D01*
X423545Y132641D01*
X423506Y132650D01*
X423469Y132666D01*
X423351Y132685D01*
X423235Y132711D01*
X423195Y132709D01*
X423154Y132716D01*
X423036Y132705D01*
X422917Y132701D01*
X422878Y132690D01*
X422838Y132686D01*
X422726Y132646D01*
X422611Y132613D01*
X422577Y132592D01*
X422539Y132578D01*
X422440Y132511D01*
X422428Y132504D01*
X406324Y132504D01*
X405579Y133249D01*
X405579Y139801D01*
X406324Y140546D01*
X416103Y140546D01*
X416221Y140561D01*
X416340Y140568D01*
X416378Y140581D01*
X416418Y140586D01*
X416529Y140629D01*
X416642Y140666D01*
X416676Y140688D01*
X416714Y140703D01*
X416810Y140772D01*
X416911Y140836D01*
X416939Y140866D01*
X416971Y140889D01*
X417047Y140981D01*
X417129Y141068D01*
X417148Y141103D01*
X417174Y141134D01*
X417225Y141242D01*
X417282Y141346D01*
X417292Y141386D01*
X417310Y141422D01*
X417332Y141539D01*
X417362Y141654D01*
X417366Y141714D01*
X417369Y141734D01*
X417368Y141755D01*
X417372Y141815D01*
X417372Y143935D01*
X417357Y144053D01*
X417350Y144172D01*
X417337Y144210D01*
X417332Y144251D01*
X417288Y144361D01*
X417252Y144474D01*
X417230Y144509D01*
X417215Y144546D01*
X417145Y144642D01*
X417082Y144743D01*
X417052Y144771D01*
X417028Y144804D01*
X416937Y144880D01*
X416850Y144961D01*
X416815Y144981D01*
X416783Y145006D01*
X416676Y145057D01*
X416571Y145115D01*
X416532Y145125D01*
X416496Y145142D01*
X416379Y145164D01*
X416263Y145194D01*
X416203Y145198D01*
X416183Y145202D01*
X416163Y145200D01*
X416103Y145204D01*
X406324Y145204D01*
X405579Y145949D01*
X405579Y152501D01*
X406324Y153246D01*
X422415Y153246D01*
X422436Y153235D01*
X422468Y153210D01*
X422577Y153163D01*
X422683Y153109D01*
X422723Y153100D01*
X422760Y153084D01*
X422877Y153065D01*
X422994Y153039D01*
X423034Y153041D01*
X423074Y153034D01*
X423192Y153045D01*
X423311Y153049D01*
X423350Y153060D01*
X423390Y153064D01*
X423502Y153104D01*
X423617Y153137D01*
X423652Y153158D01*
X423690Y153172D01*
X423788Y153238D01*
X423891Y153299D01*
X423936Y153339D01*
X423953Y153350D01*
X423966Y153365D01*
X424012Y153405D01*
X425157Y154551D01*
X425242Y154660D01*
X425331Y154767D01*
X425339Y154786D01*
X425352Y154802D01*
X425407Y154930D01*
X425466Y155055D01*
X425470Y155075D01*
X425478Y155094D01*
X425500Y155232D01*
X425526Y155368D01*
X425525Y155388D01*
X425528Y155408D01*
X425515Y155547D01*
X425506Y155685D01*
X425500Y155704D01*
X425498Y155724D01*
X425451Y155856D01*
X425408Y155987D01*
X425397Y156005D01*
X425391Y156024D01*
X425312Y156139D01*
X425238Y156256D01*
X425223Y156270D01*
X425212Y156287D01*
X425108Y156379D01*
X425006Y156474D01*
X424989Y156484D01*
X424974Y156497D01*
X424850Y156560D01*
X424728Y156628D01*
X424708Y156633D01*
X424690Y156642D01*
X424554Y156672D01*
X424420Y156707D01*
X424392Y156709D01*
X424380Y156712D01*
X424360Y156711D01*
X424259Y156717D01*
X386508Y156717D01*
X384994Y158232D01*
X384900Y158305D01*
X384810Y158383D01*
X384774Y158402D01*
X384742Y158427D01*
X384633Y158474D01*
X384527Y158528D01*
X384488Y158537D01*
X384451Y158553D01*
X384333Y158572D01*
X384217Y158598D01*
X384177Y158596D01*
X384136Y158603D01*
X384018Y158592D01*
X383899Y158588D01*
X383860Y158577D01*
X383820Y158573D01*
X383708Y158533D01*
X383593Y158500D01*
X383559Y158479D01*
X383521Y158465D01*
X383422Y158398D01*
X383320Y158338D01*
X383274Y158298D01*
X383257Y158287D01*
X383244Y158271D01*
X383199Y158232D01*
X372838Y147871D01*
X369928Y144961D01*
X369906Y144955D01*
X369854Y144924D01*
X369798Y144902D01*
X369718Y144844D01*
X369632Y144793D01*
X369557Y144727D01*
X369540Y144715D01*
X369532Y144705D01*
X369511Y144687D01*
X368597Y143773D01*
X368524Y143679D01*
X368445Y143589D01*
X368427Y143553D01*
X368402Y143521D01*
X368355Y143412D01*
X368301Y143306D01*
X368292Y143267D01*
X368276Y143229D01*
X368257Y143112D01*
X368231Y142996D01*
X368232Y142955D01*
X368226Y142915D01*
X368237Y142797D01*
X368241Y142678D01*
X368252Y142639D01*
X368256Y142599D01*
X368296Y142486D01*
X368329Y142372D01*
X368350Y142338D01*
X368363Y142299D01*
X368430Y142201D01*
X368491Y142098D01*
X368530Y142053D01*
X368542Y142036D01*
X368557Y142023D01*
X368597Y141978D01*
X369511Y141063D01*
X369590Y141002D01*
X369662Y140935D01*
X369715Y140905D01*
X369763Y140868D01*
X369854Y140829D01*
X369931Y140786D01*
X372345Y138372D01*
X385166Y125551D01*
X385166Y116084D01*
X385179Y115986D01*
X385182Y115887D01*
X385199Y115828D01*
X385206Y115768D01*
X385243Y115676D01*
X385270Y115581D01*
X385301Y115529D01*
X385323Y115473D01*
X385381Y115393D01*
X385432Y115307D01*
X385498Y115232D01*
X385510Y115215D01*
X385520Y115207D01*
X385538Y115186D01*
X386411Y114313D01*
X386489Y114253D01*
X386562Y114185D01*
X386615Y114155D01*
X386663Y114118D01*
X386754Y114079D01*
X386840Y114031D01*
X386899Y114016D01*
X386955Y113992D01*
X387052Y113976D01*
X387148Y113952D01*
X387248Y113945D01*
X387269Y113942D01*
X387281Y113943D01*
X387309Y113941D01*
X387391Y113941D01*
X387489Y113954D01*
X387588Y113957D01*
X387647Y113974D01*
X387707Y113981D01*
X387799Y114018D01*
X387894Y114045D01*
X387946Y114076D01*
X388002Y114098D01*
X388082Y114156D01*
X388168Y114207D01*
X388243Y114273D01*
X388260Y114285D01*
X388267Y114294D01*
X388289Y114313D01*
X389190Y115214D01*
X398210Y115214D01*
X399639Y113785D01*
X399639Y105765D01*
X398210Y104336D01*
X393728Y104336D01*
X393590Y104318D01*
X393452Y104305D01*
X393433Y104299D01*
X393413Y104296D01*
X393283Y104245D01*
X393152Y104198D01*
X393136Y104186D01*
X393117Y104179D01*
X393004Y104097D01*
X392889Y104019D01*
X392876Y104004D01*
X392860Y103992D01*
X392770Y103885D01*
X392679Y103781D01*
X392670Y103763D01*
X392657Y103747D01*
X392597Y103620D01*
X392534Y103497D01*
X392530Y103478D01*
X392521Y103459D01*
X392495Y103323D01*
X392465Y103187D01*
X392465Y103167D01*
X392461Y103147D01*
X392470Y103009D01*
X392474Y102869D01*
X392480Y102850D01*
X392481Y102830D01*
X392524Y102698D01*
X392558Y102581D01*
X392558Y69008D01*
X391367Y67817D01*
X361108Y67817D01*
X359917Y69008D01*
X359917Y103067D01*
X359902Y103185D01*
X359895Y103304D01*
X359882Y103342D01*
X359877Y103382D01*
X359834Y103493D01*
X359797Y103606D01*
X359775Y103640D01*
X359760Y103678D01*
X359691Y103774D01*
X359627Y103875D01*
X359597Y103902D01*
X359574Y103935D01*
X359482Y104011D01*
X359395Y104093D01*
X359360Y104112D01*
X359329Y104138D01*
X359221Y104189D01*
X359117Y104246D01*
X359077Y104256D01*
X359041Y104274D01*
X358924Y104296D01*
X358809Y104326D01*
X358749Y104329D01*
X358729Y104333D01*
X358708Y104332D01*
X358648Y104336D01*
X351090Y104336D01*
X349661Y105765D01*
X349661Y109093D01*
X349646Y109211D01*
X349639Y109330D01*
X349626Y109368D01*
X349621Y109409D01*
X349577Y109519D01*
X349541Y109632D01*
X349519Y109667D01*
X349504Y109704D01*
X349434Y109800D01*
X349370Y109901D01*
X349341Y109929D01*
X349317Y109962D01*
X349225Y110038D01*
X349139Y110119D01*
X349103Y110139D01*
X349072Y110164D01*
X348965Y110215D01*
X348860Y110273D01*
X348821Y110283D01*
X348784Y110300D01*
X348668Y110322D01*
X348552Y110352D01*
X348492Y110356D01*
X348472Y110360D01*
X348452Y110358D01*
X348392Y110362D01*
X244159Y110362D01*
X243712Y110809D01*
X243712Y117367D01*
X243697Y117485D01*
X243690Y117604D01*
X243677Y117642D01*
X243672Y117682D01*
X243629Y117793D01*
X243592Y117906D01*
X243570Y117940D01*
X243555Y117978D01*
X243486Y118074D01*
X243422Y118175D01*
X243392Y118202D01*
X243369Y118235D01*
X243277Y118311D01*
X243190Y118393D01*
X243155Y118412D01*
X243124Y118438D01*
X243016Y118489D01*
X242912Y118546D01*
X242872Y118556D01*
X242836Y118574D01*
X242719Y118596D01*
X242604Y118626D01*
X242544Y118629D01*
X242524Y118633D01*
X242503Y118632D01*
X242443Y118636D01*
X234390Y118636D01*
X232961Y120065D01*
X232961Y127585D01*
X234653Y129277D01*
X234726Y129372D01*
X234805Y129461D01*
X234823Y129497D01*
X234848Y129529D01*
X234895Y129638D01*
X234949Y129744D01*
X234958Y129783D01*
X234974Y129821D01*
X234993Y129938D01*
X235019Y130054D01*
X235018Y130095D01*
X235024Y130135D01*
X235013Y130253D01*
X235009Y130372D01*
X234998Y130411D01*
X234994Y130451D01*
X234954Y130564D01*
X234921Y130678D01*
X234900Y130712D01*
X234887Y130751D01*
X234820Y130849D01*
X234759Y130952D01*
X234720Y130997D01*
X234708Y131014D01*
X234693Y131027D01*
X234653Y131072D01*
X232961Y132765D01*
X232961Y140285D01*
X234653Y141978D01*
X234726Y142072D01*
X234805Y142161D01*
X234823Y142197D01*
X234848Y142229D01*
X234895Y142338D01*
X234949Y142444D01*
X234958Y142483D01*
X234974Y142521D01*
X234993Y142638D01*
X235019Y142754D01*
X235018Y142795D01*
X235024Y142835D01*
X235013Y142953D01*
X235009Y143072D01*
X234998Y143111D01*
X234994Y143151D01*
X234954Y143263D01*
X234921Y143378D01*
X234900Y143413D01*
X234887Y143451D01*
X234820Y143549D01*
X234759Y143652D01*
X234720Y143697D01*
X234708Y143714D01*
X234693Y143727D01*
X234653Y143773D01*
X232961Y145465D01*
X232961Y152985D01*
X234653Y154677D01*
X234726Y154772D01*
X234805Y154861D01*
X234823Y154897D01*
X234848Y154929D01*
X234895Y155038D01*
X234949Y155144D01*
X234958Y155183D01*
X234974Y155221D01*
X234993Y155338D01*
X235019Y155454D01*
X235018Y155495D01*
X235024Y155535D01*
X235013Y155653D01*
X235009Y155772D01*
X234998Y155811D01*
X234994Y155851D01*
X234954Y155964D01*
X234921Y156078D01*
X234900Y156112D01*
X234887Y156151D01*
X234820Y156249D01*
X234759Y156352D01*
X234720Y156397D01*
X234708Y156414D01*
X234693Y156427D01*
X234653Y156472D01*
X232961Y158165D01*
X232961Y165685D01*
X234390Y167114D01*
X251410Y167114D01*
X252839Y165685D01*
X252839Y165075D01*
X252854Y164956D01*
X252861Y164838D01*
X252874Y164799D01*
X252879Y164759D01*
X252923Y164648D01*
X252959Y164535D01*
X252981Y164501D01*
X252996Y164463D01*
X253066Y164367D01*
X253130Y164266D01*
X253159Y164239D01*
X253183Y164206D01*
X253275Y164130D01*
X253361Y164049D01*
X253397Y164029D01*
X253428Y164003D01*
X253535Y163953D01*
X253640Y163895D01*
X253679Y163885D01*
X253716Y163868D01*
X253832Y163845D01*
X253948Y163816D01*
X254008Y163812D01*
X254028Y163808D01*
X254048Y163809D01*
X254108Y163805D01*
X255957Y163805D01*
X258725Y161037D01*
X258725Y157123D01*
X258075Y156472D01*
X258002Y156378D01*
X257923Y156289D01*
X257905Y156253D01*
X257880Y156221D01*
X257832Y156112D01*
X257778Y156006D01*
X257769Y155967D01*
X257753Y155929D01*
X257735Y155812D01*
X257709Y155696D01*
X257710Y155655D01*
X257703Y155615D01*
X257715Y155497D01*
X257718Y155378D01*
X257730Y155339D01*
X257733Y155299D01*
X257774Y155187D01*
X257807Y155072D01*
X257827Y155037D01*
X257841Y154999D01*
X257908Y154901D01*
X257968Y154798D01*
X258008Y154753D01*
X258019Y154736D01*
X258035Y154723D01*
X258075Y154677D01*
X258725Y154027D01*
X258725Y151257D01*
X258740Y151139D01*
X258747Y151020D01*
X258760Y150982D01*
X258765Y150941D01*
X258809Y150831D01*
X258845Y150718D01*
X258867Y150683D01*
X258882Y150646D01*
X258952Y150550D01*
X259016Y150449D01*
X259045Y150421D01*
X259069Y150388D01*
X259161Y150312D01*
X259247Y150231D01*
X259283Y150211D01*
X259314Y150186D01*
X259421Y150135D01*
X259526Y150077D01*
X259565Y150067D01*
X259602Y150050D01*
X259718Y150028D01*
X259834Y149998D01*
X259894Y149994D01*
X259914Y149990D01*
X259934Y149992D01*
X259994Y149988D01*
X336906Y149988D01*
X337024Y150003D01*
X337143Y150010D01*
X337181Y150023D01*
X337221Y150028D01*
X337332Y150071D01*
X337445Y150108D01*
X337479Y150130D01*
X337517Y150145D01*
X337613Y150214D01*
X337714Y150278D01*
X337741Y150308D01*
X337774Y150331D01*
X337850Y150423D01*
X337932Y150510D01*
X337951Y150545D01*
X337977Y150576D01*
X338028Y150684D01*
X338085Y150788D01*
X338095Y150828D01*
X338113Y150864D01*
X338135Y150981D01*
X338165Y151096D01*
X338168Y151156D01*
X338172Y151176D01*
X338171Y151197D01*
X338175Y151257D01*
X338175Y154027D01*
X338825Y154677D01*
X338898Y154771D01*
X338977Y154861D01*
X338996Y154897D01*
X339020Y154929D01*
X339068Y155038D01*
X339122Y155144D01*
X339131Y155183D01*
X339147Y155221D01*
X339165Y155338D01*
X339191Y155454D01*
X339190Y155495D01*
X339197Y155535D01*
X339185Y155653D01*
X339182Y155772D01*
X339170Y155811D01*
X339167Y155851D01*
X339126Y155964D01*
X339093Y156078D01*
X339073Y156112D01*
X339059Y156151D01*
X338992Y156249D01*
X338932Y156352D01*
X338892Y156397D01*
X338881Y156414D01*
X338865Y156427D01*
X338825Y156472D01*
X338175Y157123D01*
X338175Y161037D01*
X340943Y163805D01*
X344857Y163805D01*
X345603Y163059D01*
X345681Y162999D01*
X345753Y162931D01*
X345806Y162902D01*
X345854Y162865D01*
X345945Y162825D01*
X346032Y162777D01*
X346091Y162762D01*
X346146Y162738D01*
X346244Y162723D01*
X346340Y162698D01*
X346440Y162692D01*
X346460Y162688D01*
X346473Y162690D01*
X346501Y162688D01*
X349142Y162688D01*
X349260Y162703D01*
X349379Y162710D01*
X349417Y162723D01*
X349457Y162728D01*
X349568Y162771D01*
X349681Y162808D01*
X349715Y162830D01*
X349753Y162845D01*
X349849Y162914D01*
X349950Y162978D01*
X349977Y163008D01*
X350010Y163031D01*
X350086Y163123D01*
X350168Y163210D01*
X350187Y163245D01*
X350213Y163276D01*
X350264Y163384D01*
X350321Y163488D01*
X350331Y163528D01*
X350349Y163564D01*
X350371Y163681D01*
X350401Y163796D01*
X350404Y163856D01*
X350408Y163876D01*
X350407Y163897D01*
X350411Y163957D01*
X350411Y165685D01*
X351840Y167114D01*
X366039Y167114D01*
X366158Y167129D01*
X366276Y167136D01*
X366315Y167149D01*
X366355Y167154D01*
X366466Y167198D01*
X366579Y167234D01*
X366613Y167256D01*
X366651Y167271D01*
X366747Y167341D01*
X366848Y167405D01*
X366875Y167434D01*
X366908Y167458D01*
X366984Y167550D01*
X367065Y167636D01*
X367085Y167672D01*
X367111Y167703D01*
X367161Y167810D01*
X367219Y167915D01*
X367229Y167954D01*
X367246Y167991D01*
X367269Y168107D01*
X367298Y168223D01*
X367302Y168283D01*
X367306Y168303D01*
X367305Y168323D01*
X367309Y168383D01*
X367309Y169267D01*
X367294Y169385D01*
X367286Y169504D01*
X367274Y169542D01*
X367269Y169582D01*
X367225Y169693D01*
X367188Y169806D01*
X367167Y169840D01*
X367152Y169878D01*
X367082Y169974D01*
X367018Y170075D01*
X366989Y170102D01*
X366965Y170135D01*
X366873Y170211D01*
X366787Y170293D01*
X366751Y170312D01*
X366720Y170338D01*
X366612Y170389D01*
X366508Y170446D01*
X366469Y170456D01*
X366432Y170474D01*
X366315Y170496D01*
X366200Y170526D01*
X366140Y170529D01*
X366120Y170533D01*
X366100Y170532D01*
X366039Y170536D01*
X363790Y170536D01*
X362889Y171437D01*
X362811Y171497D01*
X362738Y171565D01*
X362685Y171595D01*
X362637Y171632D01*
X362547Y171671D01*
X362460Y171719D01*
X362401Y171734D01*
X362346Y171758D01*
X362248Y171774D01*
X362152Y171798D01*
X362052Y171805D01*
X362031Y171808D01*
X362019Y171807D01*
X361991Y171809D01*
X361909Y171809D01*
X361811Y171796D01*
X361712Y171793D01*
X361653Y171776D01*
X361593Y171769D01*
X361501Y171732D01*
X361406Y171705D01*
X361354Y171674D01*
X361298Y171652D01*
X361217Y171594D01*
X361132Y171543D01*
X361057Y171477D01*
X361040Y171465D01*
X361032Y171455D01*
X361011Y171437D01*
X360110Y170536D01*
X351090Y170536D01*
X349661Y171965D01*
X349661Y177673D01*
X349646Y177791D01*
X349639Y177910D01*
X349626Y177948D01*
X349621Y177989D01*
X349577Y178099D01*
X349541Y178212D01*
X349519Y178247D01*
X349504Y178284D01*
X349434Y178380D01*
X349370Y178481D01*
X349341Y178509D01*
X349317Y178542D01*
X349225Y178618D01*
X349139Y178699D01*
X349103Y178719D01*
X349072Y178744D01*
X348965Y178795D01*
X348860Y178853D01*
X348821Y178863D01*
X348784Y178880D01*
X348668Y178902D01*
X348552Y178932D01*
X348492Y178936D01*
X348472Y178940D01*
X348452Y178938D01*
X348409Y178941D01*
X347217Y180133D01*
X347217Y213567D01*
X348408Y214758D01*
X365967Y214758D01*
X367158Y213567D01*
X367158Y182683D01*
X367173Y182565D01*
X367180Y182446D01*
X367193Y182408D01*
X367198Y182368D01*
X367241Y182257D01*
X367278Y182144D01*
X367300Y182110D01*
X367315Y182072D01*
X367384Y181976D01*
X367448Y181875D01*
X367478Y181848D01*
X367501Y181815D01*
X367593Y181739D01*
X367680Y181657D01*
X367715Y181638D01*
X367746Y181612D01*
X367854Y181561D01*
X367958Y181504D01*
X367998Y181494D01*
X368034Y181476D01*
X368151Y181454D01*
X368266Y181424D01*
X368326Y181421D01*
X368346Y181417D01*
X368367Y181418D01*
X368427Y181414D01*
X372810Y181414D01*
X373753Y180472D01*
X373847Y180399D01*
X373936Y180320D01*
X373972Y180302D01*
X374004Y180277D01*
X374113Y180230D01*
X374219Y180176D01*
X374258Y180167D01*
X374296Y180151D01*
X374413Y180132D01*
X374529Y180106D01*
X374570Y180107D01*
X374610Y180101D01*
X374728Y180112D01*
X374847Y180116D01*
X374886Y180127D01*
X374926Y180131D01*
X375038Y180171D01*
X375153Y180204D01*
X375188Y180225D01*
X375226Y180238D01*
X375324Y180305D01*
X375427Y180366D01*
X375472Y180405D01*
X375489Y180417D01*
X375502Y180432D01*
X375548Y180472D01*
X376490Y181414D01*
X384048Y181414D01*
X384166Y181429D01*
X384285Y181436D01*
X384323Y181449D01*
X384364Y181454D01*
X384474Y181498D01*
X384587Y181534D01*
X384622Y181556D01*
X384659Y181571D01*
X384755Y181641D01*
X384856Y181705D01*
X384884Y181734D01*
X384917Y181758D01*
X384993Y181850D01*
X385074Y181936D01*
X385094Y181972D01*
X385119Y182003D01*
X385170Y182110D01*
X385228Y182215D01*
X385238Y182254D01*
X385255Y182291D01*
X385277Y182407D01*
X385307Y182523D01*
X385311Y182583D01*
X385315Y182603D01*
X385313Y182623D01*
X385317Y182683D01*
X385317Y200867D01*
X386508Y202058D01*
X410417Y202058D01*
X411608Y200867D01*
X411608Y184277D01*
X411623Y184159D01*
X411630Y184040D01*
X411643Y184002D01*
X411648Y183961D01*
X411691Y183851D01*
X411728Y183738D01*
X411750Y183703D01*
X411765Y183666D01*
X411834Y183570D01*
X411898Y183469D01*
X411928Y183441D01*
X411951Y183408D01*
X412043Y183332D01*
X412130Y183251D01*
X412165Y183231D01*
X412196Y183206D01*
X412304Y183155D01*
X412408Y183097D01*
X412448Y183087D01*
X412484Y183070D01*
X412601Y183048D01*
X412716Y183018D01*
X412776Y183014D01*
X412796Y183010D01*
X412817Y183012D01*
X412877Y183008D01*
X431978Y183008D01*
X432096Y183023D01*
X432215Y183030D01*
X432253Y183043D01*
X432293Y183048D01*
X432404Y183091D01*
X432517Y183128D01*
X432551Y183150D01*
X432589Y183165D01*
X432685Y183234D01*
X432786Y183298D01*
X432814Y183328D01*
X432846Y183351D01*
X432922Y183443D01*
X433004Y183530D01*
X433023Y183565D01*
X433049Y183596D01*
X433100Y183704D01*
X433157Y183808D01*
X433167Y183848D01*
X433185Y183884D01*
X433207Y184001D01*
X433237Y184116D01*
X433241Y184176D01*
X433244Y184196D01*
X433243Y184217D01*
X433247Y184277D01*
X433247Y210266D01*
X446959Y223978D01*
X462557Y223978D01*
X462563Y223957D01*
X462575Y223874D01*
X462599Y223820D01*
X462613Y223764D01*
X462656Y223691D01*
X462691Y223614D01*
X462729Y223569D01*
X462759Y223519D01*
X462820Y223461D01*
X462875Y223397D01*
X462923Y223365D01*
X462966Y223325D01*
X463041Y223286D01*
X463111Y223240D01*
X463167Y223222D01*
X463219Y223195D01*
X463287Y223184D01*
X463382Y223154D01*
X463482Y223151D01*
X463550Y223140D01*
X471454Y223140D01*
X471844Y222749D01*
X471922Y222689D01*
G37*
G36*
X521888Y79518D02*
X521888Y79518D01*
X522007Y79525D01*
X522045Y79538D01*
X522086Y79543D01*
X522196Y79586D01*
X522309Y79623D01*
X522344Y79645D01*
X522381Y79660D01*
X522477Y79729D01*
X522578Y79793D01*
X522606Y79823D01*
X522639Y79846D01*
X522715Y79938D01*
X522796Y80025D01*
X522816Y80060D01*
X522841Y80091D01*
X522892Y80199D01*
X522928Y80265D01*
X527050Y80265D01*
X527108Y80273D01*
X527166Y80271D01*
X527248Y80293D01*
X527332Y80305D01*
X527385Y80329D01*
X527441Y80343D01*
X527514Y80386D01*
X527591Y80421D01*
X527636Y80459D01*
X527686Y80489D01*
X527744Y80550D01*
X527808Y80605D01*
X527840Y80653D01*
X527880Y80696D01*
X527919Y80771D01*
X527966Y80841D01*
X527983Y80897D01*
X528010Y80949D01*
X528021Y81017D01*
X528051Y81112D01*
X528054Y81212D01*
X528065Y81280D01*
X528065Y142875D01*
X528057Y142933D01*
X528059Y142991D01*
X528037Y143073D01*
X528025Y143157D01*
X528002Y143210D01*
X527987Y143266D01*
X527944Y143339D01*
X527909Y143416D01*
X527871Y143461D01*
X527842Y143511D01*
X527780Y143569D01*
X527726Y143633D01*
X527677Y143665D01*
X527634Y143705D01*
X527559Y143744D01*
X527489Y143791D01*
X527433Y143808D01*
X527381Y143835D01*
X527313Y143846D01*
X527218Y143876D01*
X527118Y143879D01*
X527050Y143890D01*
X523039Y143890D01*
X523039Y145035D01*
X527050Y145035D01*
X527108Y145043D01*
X527166Y145041D01*
X527248Y145063D01*
X527332Y145075D01*
X527385Y145099D01*
X527441Y145113D01*
X527514Y145156D01*
X527591Y145191D01*
X527636Y145229D01*
X527686Y145259D01*
X527744Y145320D01*
X527808Y145375D01*
X527840Y145423D01*
X527880Y145466D01*
X527919Y145541D01*
X527966Y145611D01*
X527983Y145667D01*
X528010Y145719D01*
X528021Y145787D01*
X528051Y145882D01*
X528054Y145982D01*
X528065Y146050D01*
X528065Y207645D01*
X528057Y207703D01*
X528059Y207761D01*
X528037Y207843D01*
X528025Y207927D01*
X528002Y207980D01*
X527987Y208036D01*
X527944Y208109D01*
X527909Y208186D01*
X527871Y208231D01*
X527842Y208281D01*
X527780Y208339D01*
X527726Y208403D01*
X527677Y208435D01*
X527634Y208475D01*
X527559Y208514D01*
X527489Y208561D01*
X527433Y208578D01*
X527381Y208605D01*
X527313Y208616D01*
X527218Y208646D01*
X527118Y208649D01*
X527050Y208660D01*
X522929Y208660D01*
X522919Y208692D01*
X522897Y208727D01*
X522882Y208764D01*
X522813Y208860D01*
X522749Y208961D01*
X522719Y208989D01*
X522696Y209022D01*
X522604Y209098D01*
X522517Y209179D01*
X522482Y209199D01*
X522451Y209224D01*
X522343Y209275D01*
X522239Y209333D01*
X522199Y209343D01*
X522163Y209360D01*
X522046Y209382D01*
X521931Y209412D01*
X521871Y209416D01*
X521851Y209420D01*
X521830Y209418D01*
X521770Y209422D01*
X472742Y209422D01*
X472644Y209410D01*
X472544Y209407D01*
X472486Y209390D01*
X472426Y209382D01*
X472334Y209346D01*
X472239Y209318D01*
X472187Y209288D01*
X472130Y209265D01*
X472050Y209207D01*
X471965Y209157D01*
X471890Y209091D01*
X471873Y209079D01*
X471865Y209069D01*
X471844Y209051D01*
X471454Y208660D01*
X463550Y208660D01*
X463492Y208652D01*
X463434Y208654D01*
X463352Y208632D01*
X463269Y208620D01*
X463215Y208597D01*
X463159Y208582D01*
X463086Y208539D01*
X463009Y208504D01*
X462964Y208466D01*
X462914Y208437D01*
X462856Y208375D01*
X462792Y208321D01*
X462760Y208272D01*
X462720Y208229D01*
X462681Y208154D01*
X462635Y208084D01*
X462617Y208028D01*
X462590Y207976D01*
X462579Y207908D01*
X462549Y207813D01*
X462546Y207713D01*
X462535Y207645D01*
X462535Y202916D01*
X456125Y196506D01*
X456064Y196428D01*
X455996Y196356D01*
X455967Y196303D01*
X455930Y196255D01*
X455890Y196164D01*
X455843Y196077D01*
X455828Y196019D01*
X455803Y195963D01*
X455788Y195865D01*
X455763Y195769D01*
X455757Y195669D01*
X455754Y195649D01*
X455755Y195637D01*
X455753Y195609D01*
X455753Y156817D01*
X455753Y156816D01*
X455753Y154859D01*
X454394Y153501D01*
X454394Y153500D01*
X454369Y153476D01*
X454369Y153475D01*
X444666Y143772D01*
X444593Y143678D01*
X444514Y143589D01*
X444496Y143553D01*
X444471Y143521D01*
X444424Y143412D01*
X444370Y143306D01*
X444361Y143267D01*
X444345Y143229D01*
X444326Y143112D01*
X444300Y142996D01*
X444301Y142955D01*
X444295Y142915D01*
X444306Y142797D01*
X444310Y142678D01*
X444321Y142639D01*
X444325Y142599D01*
X444365Y142486D01*
X444398Y142372D01*
X444419Y142337D01*
X444432Y142299D01*
X444499Y142201D01*
X444560Y142098D01*
X444600Y142053D01*
X444611Y142036D01*
X444626Y142023D01*
X444666Y141977D01*
X455753Y130891D01*
X455753Y96491D01*
X455765Y96393D01*
X455768Y96294D01*
X455785Y96236D01*
X455793Y96176D01*
X455829Y96084D01*
X455857Y95989D01*
X455888Y95937D01*
X455910Y95880D01*
X455968Y95800D01*
X456018Y95715D01*
X456085Y95639D01*
X456097Y95623D01*
X456106Y95615D01*
X456125Y95594D01*
X462535Y89184D01*
X462535Y81280D01*
X462543Y81222D01*
X462541Y81164D01*
X462563Y81082D01*
X462575Y80999D01*
X462599Y80945D01*
X462613Y80889D01*
X462656Y80816D01*
X462691Y80739D01*
X462729Y80694D01*
X462759Y80644D01*
X462820Y80586D01*
X462875Y80522D01*
X462923Y80490D01*
X462966Y80450D01*
X463041Y80411D01*
X463111Y80365D01*
X463167Y80347D01*
X463219Y80320D01*
X463287Y80309D01*
X463382Y80279D01*
X463482Y80276D01*
X463550Y80265D01*
X471454Y80265D01*
X471844Y79874D01*
X471922Y79814D01*
X471995Y79746D01*
X472048Y79717D01*
X472095Y79680D01*
X472186Y79640D01*
X472273Y79592D01*
X472332Y79577D01*
X472387Y79553D01*
X472485Y79538D01*
X472581Y79513D01*
X472681Y79507D01*
X472701Y79503D01*
X472714Y79505D01*
X472742Y79503D01*
X521770Y79503D01*
X521888Y79518D01*
G37*
%LPC*%
G36*
X176958Y90042D02*
X176958Y90042D01*
X175767Y91233D01*
X175767Y117348D01*
X175752Y117466D01*
X175745Y117585D01*
X175732Y117623D01*
X175727Y117664D01*
X175684Y117774D01*
X175647Y117887D01*
X175625Y117922D01*
X175610Y117959D01*
X175541Y118055D01*
X175477Y118156D01*
X175447Y118184D01*
X175424Y118217D01*
X175332Y118293D01*
X175245Y118374D01*
X175210Y118394D01*
X175179Y118419D01*
X175071Y118470D01*
X174967Y118528D01*
X174927Y118538D01*
X174891Y118555D01*
X174774Y118577D01*
X174659Y118607D01*
X174599Y118611D01*
X174579Y118615D01*
X174558Y118613D01*
X174498Y118617D01*
X167433Y118617D01*
X166242Y119808D01*
X166242Y131652D01*
X167433Y132843D01*
X177692Y132843D01*
X177810Y132858D01*
X177929Y132865D01*
X177967Y132878D01*
X178007Y132883D01*
X178118Y132926D01*
X178231Y132963D01*
X178265Y132985D01*
X178303Y133000D01*
X178399Y133069D01*
X178500Y133133D01*
X178527Y133163D01*
X178560Y133186D01*
X178636Y133278D01*
X178718Y133365D01*
X178737Y133400D01*
X178763Y133431D01*
X178814Y133539D01*
X178871Y133643D01*
X178881Y133683D01*
X178899Y133719D01*
X178921Y133836D01*
X178951Y133951D01*
X178954Y134011D01*
X178958Y134031D01*
X178957Y134052D01*
X178961Y134112D01*
X178961Y134493D01*
X178946Y134611D01*
X178939Y134730D01*
X178926Y134768D01*
X178921Y134809D01*
X178877Y134919D01*
X178841Y135032D01*
X178819Y135067D01*
X178804Y135104D01*
X178734Y135200D01*
X178670Y135301D01*
X178641Y135329D01*
X178617Y135362D01*
X178525Y135438D01*
X178439Y135519D01*
X178403Y135539D01*
X178372Y135564D01*
X178265Y135615D01*
X178160Y135673D01*
X178121Y135683D01*
X178084Y135700D01*
X177968Y135722D01*
X177852Y135752D01*
X177792Y135756D01*
X177772Y135760D01*
X177752Y135758D01*
X177692Y135762D01*
X152508Y135762D01*
X152390Y135747D01*
X152271Y135740D01*
X152233Y135727D01*
X152193Y135722D01*
X152082Y135679D01*
X151969Y135642D01*
X151935Y135620D01*
X151897Y135605D01*
X151801Y135535D01*
X151700Y135472D01*
X151673Y135442D01*
X151640Y135419D01*
X151564Y135327D01*
X151482Y135240D01*
X151463Y135205D01*
X151437Y135174D01*
X151386Y135066D01*
X151329Y134962D01*
X151319Y134922D01*
X151301Y134886D01*
X151279Y134769D01*
X151249Y134654D01*
X151246Y134593D01*
X151242Y134573D01*
X151243Y134553D01*
X151239Y134493D01*
X151239Y132765D01*
X149810Y131336D01*
X132790Y131336D01*
X131361Y132765D01*
X131361Y140285D01*
X133053Y141977D01*
X133126Y142072D01*
X133205Y142161D01*
X133223Y142197D01*
X133248Y142229D01*
X133295Y142338D01*
X133349Y142444D01*
X133358Y142483D01*
X133374Y142521D01*
X133393Y142638D01*
X133419Y142754D01*
X133418Y142795D01*
X133424Y142835D01*
X133413Y142953D01*
X133409Y143072D01*
X133398Y143111D01*
X133394Y143151D01*
X133354Y143264D01*
X133321Y143378D01*
X133300Y143412D01*
X133287Y143451D01*
X133220Y143549D01*
X133159Y143652D01*
X133120Y143697D01*
X133108Y143714D01*
X133093Y143727D01*
X133053Y143772D01*
X131361Y145465D01*
X131361Y152273D01*
X131346Y152391D01*
X131339Y152510D01*
X131326Y152548D01*
X131321Y152589D01*
X131277Y152699D01*
X131241Y152812D01*
X131219Y152847D01*
X131204Y152884D01*
X131134Y152980D01*
X131070Y153081D01*
X131041Y153109D01*
X131017Y153142D01*
X130925Y153218D01*
X130839Y153299D01*
X130803Y153319D01*
X130772Y153344D01*
X130665Y153395D01*
X130560Y153453D01*
X130521Y153463D01*
X130484Y153480D01*
X130368Y153502D01*
X130252Y153532D01*
X130192Y153536D01*
X130172Y153540D01*
X130152Y153538D01*
X130092Y153542D01*
X113458Y153542D01*
X112267Y154733D01*
X112267Y188167D01*
X113458Y189358D01*
X146892Y189358D01*
X148083Y188167D01*
X148083Y155683D01*
X148098Y155565D01*
X148105Y155446D01*
X148118Y155408D01*
X148123Y155368D01*
X148166Y155257D01*
X148203Y155144D01*
X148225Y155110D01*
X148240Y155072D01*
X148309Y154976D01*
X148373Y154875D01*
X148403Y154848D01*
X148426Y154815D01*
X148518Y154739D01*
X148605Y154657D01*
X148640Y154638D01*
X148671Y154612D01*
X148779Y154561D01*
X148883Y154504D01*
X148923Y154494D01*
X148959Y154476D01*
X149076Y154454D01*
X149191Y154424D01*
X149251Y154421D01*
X149271Y154417D01*
X149292Y154418D01*
X149352Y154414D01*
X149810Y154414D01*
X151239Y152985D01*
X151239Y151257D01*
X151254Y151139D01*
X151261Y151020D01*
X151274Y150982D01*
X151279Y150941D01*
X151323Y150831D01*
X151359Y150718D01*
X151381Y150683D01*
X151396Y150646D01*
X151466Y150550D01*
X151530Y150449D01*
X151559Y150421D01*
X151583Y150388D01*
X151675Y150312D01*
X151761Y150231D01*
X151797Y150211D01*
X151828Y150186D01*
X151935Y150135D01*
X152040Y150077D01*
X152079Y150067D01*
X152116Y150050D01*
X152232Y150028D01*
X152348Y149998D01*
X152408Y149994D01*
X152428Y149990D01*
X152448Y149992D01*
X152508Y149988D01*
X177692Y149988D01*
X177810Y150003D01*
X177929Y150010D01*
X177967Y150023D01*
X178007Y150028D01*
X178118Y150071D01*
X178231Y150108D01*
X178265Y150130D01*
X178303Y150145D01*
X178399Y150214D01*
X178500Y150278D01*
X178527Y150308D01*
X178560Y150331D01*
X178636Y150423D01*
X178718Y150510D01*
X178737Y150545D01*
X178763Y150576D01*
X178814Y150684D01*
X178871Y150788D01*
X178881Y150828D01*
X178899Y150864D01*
X178921Y150981D01*
X178951Y151096D01*
X178954Y151156D01*
X178958Y151176D01*
X178957Y151197D01*
X178961Y151257D01*
X178961Y152985D01*
X180390Y154414D01*
X195621Y154414D01*
X195719Y154427D01*
X195818Y154430D01*
X195877Y154446D01*
X195937Y154454D01*
X196029Y154490D01*
X196124Y154518D01*
X196176Y154549D01*
X196232Y154571D01*
X196313Y154629D01*
X196398Y154679D01*
X196473Y154746D01*
X196490Y154758D01*
X196498Y154767D01*
X196519Y154786D01*
X198662Y156929D01*
X198723Y157007D01*
X198790Y157079D01*
X198820Y157132D01*
X198857Y157180D01*
X198896Y157271D01*
X198944Y157358D01*
X198959Y157416D01*
X198983Y157472D01*
X198999Y157570D01*
X199023Y157666D01*
X199030Y157766D01*
X199033Y157786D01*
X199032Y157799D01*
X199034Y157827D01*
X199034Y169666D01*
X199021Y169764D01*
X199018Y169863D01*
X199001Y169922D01*
X198994Y169982D01*
X198957Y170074D01*
X198930Y170169D01*
X198899Y170221D01*
X198877Y170277D01*
X198819Y170358D01*
X198768Y170443D01*
X198702Y170518D01*
X198690Y170535D01*
X198681Y170543D01*
X198662Y170564D01*
X197261Y171965D01*
X197261Y179985D01*
X198690Y181414D01*
X206248Y181414D01*
X206366Y181429D01*
X206485Y181436D01*
X206523Y181449D01*
X206564Y181454D01*
X206674Y181498D01*
X206787Y181534D01*
X206822Y181556D01*
X206859Y181571D01*
X206955Y181641D01*
X207056Y181705D01*
X207084Y181734D01*
X207117Y181758D01*
X207193Y181850D01*
X207274Y181936D01*
X207294Y181972D01*
X207319Y182003D01*
X207370Y182110D01*
X207428Y182215D01*
X207438Y182254D01*
X207455Y182291D01*
X207477Y182407D01*
X207507Y182523D01*
X207511Y182583D01*
X207515Y182603D01*
X207513Y182623D01*
X207517Y182683D01*
X207517Y207217D01*
X208708Y208408D01*
X235792Y208408D01*
X240158Y204042D01*
X240158Y180133D01*
X238967Y178942D01*
X223108Y178942D01*
X222990Y178927D01*
X222871Y178920D01*
X222833Y178907D01*
X222793Y178902D01*
X222682Y178859D01*
X222569Y178822D01*
X222535Y178800D01*
X222497Y178785D01*
X222401Y178716D01*
X222300Y178652D01*
X222273Y178622D01*
X222240Y178599D01*
X222164Y178507D01*
X222082Y178420D01*
X222063Y178385D01*
X222037Y178354D01*
X221986Y178246D01*
X221929Y178142D01*
X221919Y178102D01*
X221901Y178066D01*
X221879Y177949D01*
X221849Y177834D01*
X221846Y177774D01*
X221842Y177754D01*
X221843Y177733D01*
X221839Y177673D01*
X221839Y171965D01*
X220410Y170536D01*
X211390Y170536D01*
X210489Y171437D01*
X210410Y171498D01*
X210338Y171565D01*
X210285Y171595D01*
X210237Y171632D01*
X210146Y171671D01*
X210060Y171719D01*
X210001Y171734D01*
X209946Y171758D01*
X209848Y171774D01*
X209752Y171798D01*
X209652Y171805D01*
X209631Y171808D01*
X209619Y171807D01*
X209591Y171809D01*
X209509Y171809D01*
X209411Y171796D01*
X209312Y171793D01*
X209253Y171776D01*
X209193Y171769D01*
X209101Y171732D01*
X209006Y171705D01*
X208954Y171674D01*
X208898Y171652D01*
X208818Y171594D01*
X208732Y171543D01*
X208657Y171477D01*
X208640Y171465D01*
X208632Y171455D01*
X208611Y171437D01*
X207738Y170564D01*
X207677Y170486D01*
X207610Y170413D01*
X207580Y170360D01*
X207543Y170312D01*
X207504Y170221D01*
X207456Y170135D01*
X207441Y170076D01*
X207417Y170021D01*
X207401Y169923D01*
X207377Y169827D01*
X207370Y169727D01*
X207367Y169706D01*
X207368Y169694D01*
X207366Y169666D01*
X207366Y157827D01*
X207366Y157826D01*
X207366Y153849D01*
X198478Y144961D01*
X198456Y144955D01*
X198404Y144924D01*
X198348Y144902D01*
X198268Y144844D01*
X198182Y144793D01*
X198107Y144727D01*
X198090Y144715D01*
X198082Y144706D01*
X198061Y144687D01*
X197147Y143773D01*
X197074Y143678D01*
X196995Y143589D01*
X196977Y143553D01*
X196952Y143521D01*
X196905Y143412D01*
X196851Y143306D01*
X196842Y143267D01*
X196826Y143229D01*
X196807Y143112D01*
X196781Y142996D01*
X196782Y142955D01*
X196776Y142915D01*
X196787Y142797D01*
X196791Y142678D01*
X196802Y142639D01*
X196806Y142599D01*
X196846Y142486D01*
X196879Y142372D01*
X196900Y142338D01*
X196913Y142299D01*
X196980Y142201D01*
X197041Y142098D01*
X197080Y142053D01*
X197092Y142036D01*
X197107Y142023D01*
X197147Y141978D01*
X198061Y141063D01*
X198140Y141002D01*
X198212Y140935D01*
X198265Y140905D01*
X198313Y140868D01*
X198404Y140829D01*
X198481Y140786D01*
X207366Y131901D01*
X207366Y116084D01*
X207379Y115986D01*
X207382Y115887D01*
X207399Y115828D01*
X207406Y115768D01*
X207443Y115676D01*
X207470Y115581D01*
X207501Y115529D01*
X207523Y115473D01*
X207581Y115393D01*
X207632Y115307D01*
X207698Y115232D01*
X207710Y115215D01*
X207719Y115208D01*
X207738Y115186D01*
X208611Y114313D01*
X208690Y114252D01*
X208762Y114185D01*
X208815Y114155D01*
X208863Y114118D01*
X208954Y114079D01*
X209040Y114031D01*
X209099Y114016D01*
X209154Y113992D01*
X209252Y113976D01*
X209348Y113952D01*
X209448Y113945D01*
X209469Y113942D01*
X209481Y113943D01*
X209509Y113941D01*
X209591Y113941D01*
X209689Y113954D01*
X209788Y113957D01*
X209847Y113974D01*
X209907Y113981D01*
X209999Y114018D01*
X210094Y114045D01*
X210146Y114076D01*
X210202Y114098D01*
X210282Y114156D01*
X210368Y114207D01*
X210443Y114273D01*
X210460Y114285D01*
X210467Y114294D01*
X210489Y114313D01*
X211390Y115214D01*
X220410Y115214D01*
X221839Y113785D01*
X221839Y105765D01*
X220410Y104336D01*
X216027Y104336D01*
X215909Y104321D01*
X215790Y104314D01*
X215752Y104301D01*
X215711Y104296D01*
X215601Y104252D01*
X215488Y104216D01*
X215453Y104194D01*
X215416Y104179D01*
X215320Y104109D01*
X215219Y104045D01*
X215191Y104016D01*
X215158Y103992D01*
X215082Y103900D01*
X215001Y103814D01*
X214981Y103778D01*
X214956Y103747D01*
X214905Y103640D01*
X214847Y103535D01*
X214837Y103496D01*
X214820Y103459D01*
X214798Y103343D01*
X214768Y103227D01*
X214764Y103167D01*
X214760Y103147D01*
X214762Y103127D01*
X214758Y103067D01*
X214758Y91233D01*
X213567Y90042D01*
X176958Y90042D01*
G37*
%LPD*%
%LPC*%
G36*
X132298Y232409D02*
X132298Y232409D01*
X130809Y233898D01*
X130809Y239390D01*
X130797Y239488D01*
X130794Y239587D01*
X130777Y239645D01*
X130769Y239705D01*
X130733Y239797D01*
X130705Y239892D01*
X130675Y239945D01*
X130652Y240001D01*
X130594Y240081D01*
X130544Y240166D01*
X130478Y240242D01*
X130466Y240258D01*
X130456Y240266D01*
X130438Y240287D01*
X129094Y241631D01*
X128329Y243476D01*
X128329Y245474D01*
X129094Y247319D01*
X130438Y248663D01*
X130498Y248741D01*
X130566Y248813D01*
X130595Y248866D01*
X130632Y248914D01*
X130672Y249005D01*
X130720Y249092D01*
X130735Y249150D01*
X130759Y249206D01*
X130774Y249304D01*
X130799Y249400D01*
X130805Y249500D01*
X130809Y249520D01*
X130807Y249532D01*
X130809Y249560D01*
X130809Y264790D01*
X130797Y264888D01*
X130794Y264987D01*
X130777Y265045D01*
X130769Y265105D01*
X130733Y265197D01*
X130705Y265292D01*
X130675Y265345D01*
X130652Y265401D01*
X130594Y265481D01*
X130544Y265566D01*
X130478Y265642D01*
X130466Y265658D01*
X130456Y265666D01*
X130438Y265687D01*
X129094Y267031D01*
X128329Y268876D01*
X128329Y270874D01*
X129094Y272719D01*
X130438Y274063D01*
X130498Y274141D01*
X130566Y274213D01*
X130595Y274266D01*
X130632Y274314D01*
X130672Y274405D01*
X130720Y274492D01*
X130735Y274550D01*
X130759Y274606D01*
X130774Y274704D01*
X130799Y274800D01*
X130805Y274900D01*
X130809Y274920D01*
X130807Y274932D01*
X130809Y274960D01*
X130809Y280452D01*
X132298Y281941D01*
X220127Y281941D01*
X221616Y280452D01*
X221616Y233898D01*
X220127Y232409D01*
X132298Y232409D01*
G37*
%LPD*%
G36*
X219193Y233696D02*
X219193Y233696D01*
X219312Y233703D01*
X219350Y233716D01*
X219391Y233721D01*
X219501Y233764D01*
X219614Y233801D01*
X219649Y233823D01*
X219686Y233838D01*
X219782Y233908D01*
X219883Y233971D01*
X219911Y234001D01*
X219944Y234024D01*
X220020Y234116D01*
X220101Y234203D01*
X220121Y234238D01*
X220146Y234269D01*
X220197Y234377D01*
X220255Y234481D01*
X220265Y234521D01*
X220282Y234557D01*
X220304Y234674D01*
X220334Y234789D01*
X220338Y234850D01*
X220342Y234870D01*
X220340Y234890D01*
X220344Y234950D01*
X220344Y279400D01*
X220329Y279518D01*
X220322Y279637D01*
X220309Y279675D01*
X220304Y279716D01*
X220261Y279826D01*
X220224Y279939D01*
X220202Y279974D01*
X220187Y280011D01*
X220118Y280107D01*
X220054Y280208D01*
X220024Y280236D01*
X220001Y280269D01*
X219909Y280345D01*
X219822Y280426D01*
X219787Y280446D01*
X219756Y280471D01*
X219648Y280522D01*
X219544Y280580D01*
X219504Y280590D01*
X219468Y280607D01*
X219351Y280629D01*
X219236Y280659D01*
X219176Y280663D01*
X219156Y280667D01*
X219135Y280665D01*
X219075Y280669D01*
X133350Y280669D01*
X133232Y280654D01*
X133113Y280647D01*
X133075Y280634D01*
X133034Y280629D01*
X132924Y280586D01*
X132811Y280549D01*
X132776Y280527D01*
X132739Y280512D01*
X132643Y280443D01*
X132542Y280379D01*
X132514Y280349D01*
X132481Y280326D01*
X132406Y280234D01*
X132324Y280147D01*
X132304Y280112D01*
X132279Y280081D01*
X132228Y279973D01*
X132170Y279869D01*
X132160Y279829D01*
X132143Y279793D01*
X132121Y279676D01*
X132091Y279561D01*
X132087Y279501D01*
X132083Y279481D01*
X132085Y279461D01*
X132083Y279454D01*
X132084Y279447D01*
X132081Y279400D01*
X132081Y234950D01*
X132096Y234832D01*
X132103Y234713D01*
X132116Y234675D01*
X132121Y234634D01*
X132164Y234524D01*
X132201Y234411D01*
X132223Y234376D01*
X132238Y234339D01*
X132308Y234243D01*
X132371Y234142D01*
X132401Y234114D01*
X132424Y234081D01*
X132516Y234006D01*
X132603Y233924D01*
X132638Y233904D01*
X132669Y233879D01*
X132777Y233828D01*
X132881Y233770D01*
X132921Y233760D01*
X132957Y233743D01*
X133074Y233721D01*
X133189Y233691D01*
X133250Y233687D01*
X133270Y233683D01*
X133290Y233685D01*
X133350Y233681D01*
X219075Y233681D01*
X219193Y233696D01*
G37*
%LPC*%
G36*
X65833Y80517D02*
X65833Y80517D01*
X64642Y81708D01*
X64642Y115142D01*
X65833Y116333D01*
X108792Y116333D01*
X109983Y115142D01*
X109983Y81708D01*
X108792Y80517D01*
X65833Y80517D01*
G37*
%LPD*%
G36*
X428370Y158004D02*
X428370Y158004D01*
X428461Y158011D01*
X428491Y158023D01*
X428522Y158029D01*
X428603Y158071D01*
X428687Y158107D01*
X428719Y158133D01*
X428740Y158144D01*
X428762Y158167D01*
X428818Y158212D01*
X432338Y161732D01*
X432391Y161806D01*
X432451Y161875D01*
X432463Y161905D01*
X432482Y161932D01*
X432509Y162019D01*
X432543Y162104D01*
X432547Y162144D01*
X432554Y162167D01*
X432553Y162199D01*
X432561Y162270D01*
X432561Y180975D01*
X432558Y180995D01*
X432560Y181014D01*
X432538Y181116D01*
X432522Y181218D01*
X432512Y181235D01*
X432508Y181255D01*
X432455Y181344D01*
X432406Y181435D01*
X432392Y181449D01*
X432382Y181466D01*
X432303Y181533D01*
X432228Y181605D01*
X432210Y181613D01*
X432195Y181626D01*
X432099Y181665D01*
X432005Y181708D01*
X431985Y181710D01*
X431967Y181718D01*
X431800Y181736D01*
X410336Y181736D01*
X410336Y200025D01*
X410333Y200045D01*
X410335Y200064D01*
X410313Y200166D01*
X410297Y200268D01*
X410287Y200285D01*
X410283Y200305D01*
X410230Y200394D01*
X410181Y200485D01*
X410167Y200499D01*
X410157Y200516D01*
X410078Y200583D01*
X410003Y200655D01*
X409985Y200663D01*
X409970Y200676D01*
X409874Y200715D01*
X409780Y200758D01*
X409760Y200760D01*
X409742Y200768D01*
X409575Y200786D01*
X387350Y200786D01*
X387330Y200783D01*
X387311Y200785D01*
X387209Y200763D01*
X387107Y200747D01*
X387090Y200737D01*
X387070Y200733D01*
X386981Y200680D01*
X386890Y200631D01*
X386876Y200617D01*
X386859Y200607D01*
X386792Y200528D01*
X386721Y200453D01*
X386712Y200435D01*
X386699Y200420D01*
X386660Y200324D01*
X386617Y200230D01*
X386615Y200210D01*
X386607Y200192D01*
X386589Y200025D01*
X386589Y180903D01*
X386592Y180883D01*
X386590Y180863D01*
X386612Y180762D01*
X386629Y180660D01*
X386638Y180642D01*
X386642Y180623D01*
X386695Y180534D01*
X386744Y180442D01*
X386758Y180429D01*
X386768Y180412D01*
X386847Y180344D01*
X386922Y180273D01*
X386940Y180265D01*
X386955Y180252D01*
X387051Y180213D01*
X387145Y180169D01*
X387165Y180167D01*
X387183Y180160D01*
X387350Y180141D01*
X387602Y180141D01*
X387692Y180156D01*
X387783Y180163D01*
X387812Y180176D01*
X387844Y180181D01*
X387925Y180224D01*
X388009Y180260D01*
X388041Y180285D01*
X388062Y180296D01*
X388084Y180320D01*
X388140Y180364D01*
X389190Y181414D01*
X398210Y181414D01*
X399639Y179985D01*
X399639Y171965D01*
X398210Y170536D01*
X389190Y170536D01*
X388140Y171586D01*
X388066Y171639D01*
X387996Y171698D01*
X387966Y171710D01*
X387940Y171729D01*
X387853Y171756D01*
X387768Y171790D01*
X387727Y171795D01*
X387705Y171802D01*
X387673Y171801D01*
X387602Y171809D01*
X387350Y171809D01*
X387330Y171805D01*
X387311Y171808D01*
X387209Y171786D01*
X387107Y171769D01*
X387090Y171760D01*
X387070Y171755D01*
X386981Y171702D01*
X386890Y171654D01*
X386876Y171639D01*
X386859Y171629D01*
X386792Y171550D01*
X386721Y171475D01*
X386712Y171457D01*
X386699Y171442D01*
X386660Y171346D01*
X386617Y171252D01*
X386615Y171233D01*
X386607Y171214D01*
X386589Y171047D01*
X386589Y158750D01*
X386592Y158730D01*
X386590Y158711D01*
X386612Y158609D01*
X386629Y158507D01*
X386638Y158490D01*
X386642Y158470D01*
X386695Y158381D01*
X386744Y158290D01*
X386758Y158276D01*
X386768Y158259D01*
X386847Y158192D01*
X386922Y158121D01*
X386940Y158112D01*
X386955Y158099D01*
X387051Y158060D01*
X387145Y158017D01*
X387165Y158015D01*
X387183Y158007D01*
X387350Y157989D01*
X428280Y157989D01*
X428370Y158004D01*
G37*
G36*
X107970Y81792D02*
X107970Y81792D01*
X107989Y81790D01*
X108091Y81812D01*
X108193Y81829D01*
X108210Y81838D01*
X108230Y81842D01*
X108319Y81895D01*
X108410Y81944D01*
X108424Y81958D01*
X108441Y81968D01*
X108508Y82047D01*
X108580Y82122D01*
X108588Y82140D01*
X108601Y82155D01*
X108640Y82251D01*
X108683Y82345D01*
X108685Y82365D01*
X108693Y82383D01*
X108711Y82550D01*
X108711Y89218D01*
X108708Y89238D01*
X108710Y89257D01*
X108688Y89359D01*
X108672Y89461D01*
X108662Y89478D01*
X108658Y89498D01*
X108605Y89587D01*
X108556Y89678D01*
X108542Y89692D01*
X108532Y89709D01*
X108453Y89776D01*
X108378Y89848D01*
X108360Y89856D01*
X108345Y89869D01*
X108249Y89908D01*
X108155Y89951D01*
X108135Y89953D01*
X108117Y89961D01*
X107950Y89979D01*
X104574Y89979D01*
X103829Y90724D01*
X103829Y99776D01*
X104574Y100521D01*
X107950Y100521D01*
X107970Y100524D01*
X107989Y100522D01*
X108091Y100544D01*
X108193Y100560D01*
X108210Y100570D01*
X108230Y100574D01*
X108319Y100627D01*
X108410Y100676D01*
X108424Y100690D01*
X108441Y100700D01*
X108508Y100779D01*
X108580Y100854D01*
X108588Y100872D01*
X108601Y100887D01*
X108640Y100983D01*
X108683Y101077D01*
X108685Y101097D01*
X108693Y101115D01*
X108711Y101282D01*
X108711Y114300D01*
X108708Y114320D01*
X108710Y114339D01*
X108688Y114441D01*
X108672Y114543D01*
X108662Y114560D01*
X108658Y114580D01*
X108605Y114669D01*
X108556Y114760D01*
X108542Y114774D01*
X108532Y114791D01*
X108453Y114858D01*
X108378Y114930D01*
X108360Y114938D01*
X108345Y114951D01*
X108249Y114990D01*
X108155Y115033D01*
X108135Y115035D01*
X108117Y115043D01*
X107950Y115061D01*
X66675Y115061D01*
X66655Y115058D01*
X66636Y115060D01*
X66534Y115038D01*
X66432Y115022D01*
X66415Y115012D01*
X66395Y115008D01*
X66306Y114955D01*
X66215Y114906D01*
X66201Y114892D01*
X66184Y114882D01*
X66117Y114803D01*
X66046Y114728D01*
X66037Y114710D01*
X66024Y114695D01*
X65985Y114599D01*
X65942Y114505D01*
X65940Y114485D01*
X65932Y114467D01*
X65914Y114300D01*
X65914Y82550D01*
X65917Y82530D01*
X65915Y82511D01*
X65937Y82409D01*
X65954Y82307D01*
X65963Y82290D01*
X65967Y82270D01*
X66020Y82181D01*
X66069Y82090D01*
X66083Y82076D01*
X66093Y82059D01*
X66172Y81992D01*
X66247Y81921D01*
X66265Y81912D01*
X66280Y81899D01*
X66376Y81860D01*
X66470Y81817D01*
X66490Y81815D01*
X66508Y81807D01*
X66675Y81789D01*
X107950Y81789D01*
X107970Y81792D01*
G37*
G36*
X210988Y91329D02*
X210988Y91329D01*
X211079Y91336D01*
X211109Y91348D01*
X211141Y91354D01*
X211221Y91396D01*
X211305Y91432D01*
X211338Y91458D01*
X211358Y91469D01*
X211380Y91492D01*
X211436Y91537D01*
X213263Y93364D01*
X213316Y93438D01*
X213376Y93507D01*
X213388Y93537D01*
X213407Y93563D01*
X213434Y93650D01*
X213468Y93735D01*
X213472Y93776D01*
X213479Y93798D01*
X213478Y93831D01*
X213486Y93902D01*
X213486Y94743D01*
X213483Y94763D01*
X213485Y94782D01*
X213463Y94884D01*
X213447Y94986D01*
X213437Y95003D01*
X213433Y95023D01*
X213380Y95112D01*
X213331Y95203D01*
X213317Y95217D01*
X213307Y95234D01*
X213228Y95301D01*
X213153Y95373D01*
X213135Y95381D01*
X213120Y95394D01*
X213024Y95433D01*
X212930Y95476D01*
X212910Y95478D01*
X212892Y95486D01*
X212725Y95504D01*
X211874Y95504D01*
X211129Y96249D01*
X211129Y103301D01*
X211238Y103411D01*
X211250Y103427D01*
X211266Y103439D01*
X211322Y103526D01*
X211382Y103610D01*
X211388Y103629D01*
X211399Y103646D01*
X211424Y103747D01*
X211454Y103845D01*
X211454Y103865D01*
X211459Y103885D01*
X211451Y103988D01*
X211448Y104091D01*
X211441Y104110D01*
X211440Y104130D01*
X211399Y104225D01*
X211364Y104322D01*
X211351Y104338D01*
X211343Y104356D01*
X211238Y104487D01*
X210340Y105386D01*
X210266Y105439D01*
X210196Y105498D01*
X210166Y105510D01*
X210140Y105529D01*
X210053Y105556D01*
X209968Y105590D01*
X209927Y105595D01*
X209905Y105602D01*
X209873Y105601D01*
X209802Y105609D01*
X209298Y105609D01*
X209208Y105594D01*
X209117Y105587D01*
X209088Y105574D01*
X209056Y105569D01*
X208975Y105526D01*
X208891Y105490D01*
X208859Y105465D01*
X208838Y105454D01*
X208816Y105430D01*
X208760Y105386D01*
X207710Y104336D01*
X198690Y104336D01*
X197261Y105765D01*
X197261Y113785D01*
X197814Y114338D01*
X198811Y115335D01*
X198864Y115409D01*
X198923Y115479D01*
X198935Y115509D01*
X198954Y115535D01*
X198981Y115622D01*
X199015Y115707D01*
X199020Y115748D01*
X199027Y115770D01*
X199026Y115802D01*
X199034Y115873D01*
X199034Y128134D01*
X199019Y128224D01*
X199012Y128315D01*
X198999Y128345D01*
X198994Y128377D01*
X198951Y128457D01*
X198915Y128541D01*
X198890Y128573D01*
X198879Y128594D01*
X198855Y128616D01*
X198811Y128672D01*
X196370Y131113D01*
X196296Y131166D01*
X196227Y131225D01*
X196196Y131238D01*
X196170Y131256D01*
X196083Y131283D01*
X195998Y131317D01*
X195958Y131322D01*
X195935Y131329D01*
X195903Y131328D01*
X195832Y131336D01*
X180390Y131336D01*
X180377Y131348D01*
X180303Y131401D01*
X180234Y131461D01*
X180204Y131473D01*
X180178Y131492D01*
X180090Y131519D01*
X180006Y131553D01*
X179965Y131557D01*
X179942Y131564D01*
X179910Y131563D01*
X179839Y131571D01*
X168275Y131571D01*
X168255Y131568D01*
X168236Y131570D01*
X168134Y131548D01*
X168032Y131532D01*
X168015Y131522D01*
X167995Y131518D01*
X167906Y131465D01*
X167815Y131416D01*
X167801Y131402D01*
X167784Y131392D01*
X167717Y131313D01*
X167646Y131238D01*
X167637Y131220D01*
X167624Y131205D01*
X167585Y131109D01*
X167542Y131015D01*
X167540Y130995D01*
X167532Y130977D01*
X167514Y130810D01*
X167514Y120650D01*
X167517Y120630D01*
X167515Y120611D01*
X167537Y120509D01*
X167554Y120407D01*
X167563Y120390D01*
X167567Y120370D01*
X167620Y120281D01*
X167669Y120190D01*
X167683Y120176D01*
X167693Y120159D01*
X167772Y120092D01*
X167847Y120021D01*
X167865Y120012D01*
X167880Y119999D01*
X167976Y119960D01*
X168070Y119917D01*
X168090Y119915D01*
X168108Y119907D01*
X168275Y119889D01*
X177039Y119889D01*
X177039Y92075D01*
X177042Y92055D01*
X177040Y92036D01*
X177062Y91934D01*
X177079Y91832D01*
X177088Y91815D01*
X177092Y91795D01*
X177145Y91706D01*
X177194Y91615D01*
X177208Y91601D01*
X177218Y91584D01*
X177297Y91517D01*
X177372Y91446D01*
X177390Y91437D01*
X177405Y91424D01*
X177501Y91385D01*
X177595Y91342D01*
X177615Y91340D01*
X177633Y91332D01*
X177800Y91314D01*
X210898Y91314D01*
X210988Y91329D01*
G37*
G36*
X146070Y154817D02*
X146070Y154817D01*
X146089Y154815D01*
X146191Y154837D01*
X146293Y154854D01*
X146310Y154863D01*
X146330Y154867D01*
X146419Y154920D01*
X146510Y154969D01*
X146524Y154983D01*
X146541Y154993D01*
X146608Y155072D01*
X146680Y155147D01*
X146688Y155165D01*
X146701Y155180D01*
X146740Y155276D01*
X146783Y155370D01*
X146785Y155390D01*
X146793Y155408D01*
X146811Y155575D01*
X146811Y187325D01*
X146808Y187345D01*
X146810Y187364D01*
X146788Y187466D01*
X146772Y187568D01*
X146762Y187585D01*
X146758Y187605D01*
X146705Y187694D01*
X146656Y187785D01*
X146642Y187799D01*
X146632Y187816D01*
X146553Y187883D01*
X146478Y187955D01*
X146460Y187963D01*
X146445Y187976D01*
X146349Y188015D01*
X146255Y188058D01*
X146235Y188060D01*
X146217Y188068D01*
X146050Y188086D01*
X114300Y188086D01*
X114280Y188083D01*
X114261Y188085D01*
X114159Y188063D01*
X114057Y188047D01*
X114040Y188037D01*
X114020Y188033D01*
X113931Y187980D01*
X113840Y187931D01*
X113826Y187917D01*
X113809Y187907D01*
X113742Y187828D01*
X113671Y187753D01*
X113662Y187735D01*
X113649Y187720D01*
X113610Y187624D01*
X113567Y187530D01*
X113565Y187510D01*
X113557Y187492D01*
X113539Y187325D01*
X113539Y155575D01*
X113542Y155555D01*
X113540Y155536D01*
X113562Y155434D01*
X113579Y155332D01*
X113588Y155315D01*
X113592Y155295D01*
X113645Y155206D01*
X113694Y155115D01*
X113708Y155101D01*
X113718Y155084D01*
X113797Y155017D01*
X113872Y154946D01*
X113890Y154937D01*
X113905Y154924D01*
X114001Y154885D01*
X114095Y154842D01*
X114115Y154840D01*
X114133Y154832D01*
X114300Y154814D01*
X146050Y154814D01*
X146070Y154817D01*
G37*
G36*
X390545Y69092D02*
X390545Y69092D01*
X390564Y69090D01*
X390666Y69112D01*
X390768Y69129D01*
X390785Y69138D01*
X390805Y69142D01*
X390894Y69195D01*
X390985Y69244D01*
X390999Y69258D01*
X391016Y69268D01*
X391083Y69347D01*
X391155Y69422D01*
X391163Y69440D01*
X391176Y69455D01*
X391215Y69551D01*
X391258Y69645D01*
X391260Y69665D01*
X391268Y69683D01*
X391286Y69850D01*
X391286Y94743D01*
X391283Y94763D01*
X391285Y94782D01*
X391263Y94884D01*
X391247Y94986D01*
X391237Y95003D01*
X391233Y95023D01*
X391180Y95112D01*
X391131Y95203D01*
X391117Y95217D01*
X391107Y95234D01*
X391028Y95301D01*
X390953Y95373D01*
X390935Y95381D01*
X390920Y95394D01*
X390824Y95433D01*
X390730Y95476D01*
X390710Y95478D01*
X390692Y95486D01*
X390525Y95504D01*
X389674Y95504D01*
X388929Y96249D01*
X388929Y103317D01*
X388960Y103365D01*
X389020Y103448D01*
X389026Y103467D01*
X389037Y103484D01*
X389062Y103585D01*
X389092Y103683D01*
X389092Y103703D01*
X389097Y103723D01*
X389089Y103826D01*
X389086Y103929D01*
X389079Y103948D01*
X389078Y103968D01*
X389037Y104063D01*
X389002Y104160D01*
X388989Y104176D01*
X388981Y104194D01*
X388876Y104325D01*
X387888Y105313D01*
X387814Y105366D01*
X387745Y105426D01*
X387715Y105438D01*
X387689Y105457D01*
X387602Y105484D01*
X387517Y105518D01*
X387476Y105522D01*
X387453Y105529D01*
X387421Y105528D01*
X387350Y105536D01*
X387026Y105536D01*
X386936Y105522D01*
X386845Y105514D01*
X386815Y105502D01*
X386783Y105497D01*
X386703Y105454D01*
X386619Y105418D01*
X386587Y105392D01*
X386566Y105381D01*
X386544Y105358D01*
X386488Y105313D01*
X385510Y104336D01*
X376490Y104336D01*
X375512Y105313D01*
X375438Y105366D01*
X375369Y105426D01*
X375339Y105438D01*
X375313Y105457D01*
X375226Y105484D01*
X375141Y105518D01*
X375100Y105522D01*
X375077Y105529D01*
X375045Y105528D01*
X374974Y105536D01*
X374326Y105536D01*
X374236Y105522D01*
X374145Y105514D01*
X374115Y105502D01*
X374083Y105497D01*
X374003Y105454D01*
X373919Y105418D01*
X373887Y105392D01*
X373866Y105381D01*
X373844Y105358D01*
X373788Y105313D01*
X372810Y104336D01*
X363790Y104336D01*
X362812Y105313D01*
X362738Y105366D01*
X362669Y105426D01*
X362639Y105438D01*
X362613Y105457D01*
X362526Y105484D01*
X362441Y105518D01*
X362400Y105522D01*
X362377Y105529D01*
X362345Y105528D01*
X362274Y105536D01*
X361950Y105536D01*
X361930Y105533D01*
X361911Y105535D01*
X361809Y105513D01*
X361707Y105497D01*
X361690Y105487D01*
X361670Y105483D01*
X361581Y105430D01*
X361490Y105381D01*
X361476Y105367D01*
X361459Y105357D01*
X361392Y105278D01*
X361321Y105203D01*
X361312Y105185D01*
X361299Y105170D01*
X361260Y105074D01*
X361217Y104980D01*
X361215Y104960D01*
X361207Y104942D01*
X361189Y104775D01*
X361189Y69850D01*
X361192Y69830D01*
X361190Y69811D01*
X361212Y69709D01*
X361229Y69607D01*
X361238Y69590D01*
X361242Y69570D01*
X361295Y69481D01*
X361344Y69390D01*
X361358Y69376D01*
X361368Y69359D01*
X361447Y69292D01*
X361522Y69221D01*
X361540Y69212D01*
X361555Y69199D01*
X361651Y69160D01*
X361745Y69117D01*
X361765Y69115D01*
X361783Y69107D01*
X361950Y69089D01*
X390525Y69089D01*
X390545Y69092D01*
G37*
G36*
X209964Y180229D02*
X209964Y180229D01*
X210055Y180236D01*
X210085Y180248D01*
X210117Y180254D01*
X210197Y180296D01*
X210281Y180332D01*
X210313Y180358D01*
X210334Y180369D01*
X210356Y180392D01*
X210412Y180437D01*
X211390Y181414D01*
X220410Y181414D01*
X221388Y180437D01*
X221462Y180384D01*
X221531Y180324D01*
X221561Y180312D01*
X221587Y180293D01*
X221674Y180266D01*
X221759Y180232D01*
X221800Y180228D01*
X221823Y180221D01*
X221855Y180222D01*
X221926Y180214D01*
X238125Y180214D01*
X238145Y180217D01*
X238164Y180215D01*
X238266Y180237D01*
X238368Y180254D01*
X238385Y180263D01*
X238405Y180267D01*
X238494Y180320D01*
X238585Y180369D01*
X238599Y180383D01*
X238616Y180393D01*
X238683Y180472D01*
X238755Y180547D01*
X238763Y180565D01*
X238776Y180580D01*
X238815Y180676D01*
X238858Y180770D01*
X238860Y180790D01*
X238868Y180808D01*
X238886Y180975D01*
X238886Y203200D01*
X238872Y203290D01*
X238864Y203381D01*
X238852Y203411D01*
X238847Y203443D01*
X238804Y203523D01*
X238768Y203607D01*
X238742Y203639D01*
X238731Y203660D01*
X238708Y203682D01*
X238663Y203738D01*
X235488Y206913D01*
X235414Y206966D01*
X235345Y207026D01*
X235315Y207038D01*
X235289Y207057D01*
X235202Y207084D01*
X235117Y207118D01*
X235076Y207122D01*
X235053Y207129D01*
X235021Y207128D01*
X234950Y207136D01*
X209550Y207136D01*
X209530Y207133D01*
X209511Y207135D01*
X209409Y207113D01*
X209307Y207097D01*
X209290Y207087D01*
X209270Y207083D01*
X209181Y207030D01*
X209090Y206981D01*
X209076Y206967D01*
X209059Y206957D01*
X208992Y206878D01*
X208921Y206803D01*
X208912Y206785D01*
X208899Y206770D01*
X208860Y206674D01*
X208817Y206580D01*
X208815Y206560D01*
X208807Y206542D01*
X208789Y206375D01*
X208789Y180975D01*
X208792Y180955D01*
X208790Y180936D01*
X208812Y180834D01*
X208829Y180732D01*
X208838Y180715D01*
X208842Y180695D01*
X208895Y180606D01*
X208944Y180515D01*
X208958Y180501D01*
X208968Y180484D01*
X209047Y180417D01*
X209122Y180346D01*
X209140Y180337D01*
X209155Y180324D01*
X209251Y180285D01*
X209345Y180242D01*
X209365Y180240D01*
X209383Y180232D01*
X209550Y180214D01*
X209874Y180214D01*
X209964Y180229D01*
G37*
G36*
X349664Y180229D02*
X349664Y180229D01*
X349755Y180236D01*
X349785Y180248D01*
X349817Y180254D01*
X349897Y180296D01*
X349981Y180332D01*
X350013Y180358D01*
X350034Y180369D01*
X350056Y180392D01*
X350112Y180437D01*
X351090Y181414D01*
X360110Y181414D01*
X361088Y180437D01*
X361162Y180384D01*
X361231Y180324D01*
X361261Y180312D01*
X361287Y180293D01*
X361374Y180266D01*
X361459Y180232D01*
X361500Y180228D01*
X361523Y180221D01*
X361555Y180222D01*
X361626Y180214D01*
X362274Y180214D01*
X362364Y180228D01*
X362455Y180236D01*
X362485Y180248D01*
X362517Y180254D01*
X362597Y180296D01*
X362681Y180332D01*
X362713Y180358D01*
X362734Y180369D01*
X362756Y180392D01*
X362812Y180437D01*
X363638Y181263D01*
X363650Y181279D01*
X363666Y181292D01*
X363722Y181379D01*
X363782Y181463D01*
X363788Y181482D01*
X363799Y181498D01*
X363824Y181599D01*
X363854Y181698D01*
X363854Y181718D01*
X363859Y181737D01*
X363851Y181840D01*
X363848Y181944D01*
X363841Y181962D01*
X363840Y181982D01*
X363799Y182077D01*
X363764Y182175D01*
X363751Y182190D01*
X363743Y182208D01*
X363638Y182339D01*
X363529Y182449D01*
X363529Y189501D01*
X364274Y190246D01*
X365125Y190246D01*
X365145Y190249D01*
X365164Y190247D01*
X365266Y190269D01*
X365368Y190285D01*
X365385Y190295D01*
X365405Y190299D01*
X365494Y190352D01*
X365585Y190401D01*
X365599Y190415D01*
X365616Y190425D01*
X365683Y190504D01*
X365755Y190579D01*
X365763Y190597D01*
X365776Y190612D01*
X365815Y190708D01*
X365858Y190802D01*
X365860Y190822D01*
X365868Y190840D01*
X365886Y191007D01*
X365886Y212725D01*
X365883Y212745D01*
X365885Y212764D01*
X365863Y212866D01*
X365847Y212968D01*
X365837Y212985D01*
X365833Y213005D01*
X365780Y213094D01*
X365731Y213185D01*
X365717Y213199D01*
X365707Y213216D01*
X365628Y213283D01*
X365553Y213355D01*
X365535Y213363D01*
X365520Y213376D01*
X365424Y213415D01*
X365330Y213458D01*
X365310Y213460D01*
X365292Y213468D01*
X365125Y213486D01*
X349250Y213486D01*
X349230Y213483D01*
X349211Y213485D01*
X349109Y213463D01*
X349007Y213447D01*
X348990Y213437D01*
X348970Y213433D01*
X348881Y213380D01*
X348790Y213331D01*
X348776Y213317D01*
X348759Y213307D01*
X348692Y213228D01*
X348621Y213153D01*
X348612Y213135D01*
X348599Y213120D01*
X348560Y213024D01*
X348517Y212930D01*
X348515Y212910D01*
X348507Y212892D01*
X348489Y212725D01*
X348489Y180975D01*
X348492Y180955D01*
X348490Y180936D01*
X348512Y180834D01*
X348529Y180732D01*
X348538Y180715D01*
X348542Y180695D01*
X348595Y180606D01*
X348644Y180515D01*
X348658Y180501D01*
X348668Y180484D01*
X348747Y180417D01*
X348822Y180346D01*
X348840Y180337D01*
X348855Y180324D01*
X348951Y180285D01*
X349045Y180242D01*
X349065Y180240D01*
X349083Y180232D01*
X349250Y180214D01*
X349574Y180214D01*
X349664Y180229D01*
G37*
%LPC*%
G36*
X133274Y119804D02*
X133274Y119804D01*
X132529Y120549D01*
X132529Y127101D01*
X133274Y127846D01*
X149326Y127846D01*
X150071Y127101D01*
X150071Y120549D01*
X149326Y119804D01*
X133274Y119804D01*
G37*
%LPD*%
%LPC*%
G36*
X133274Y107104D02*
X133274Y107104D01*
X132529Y107849D01*
X132529Y114401D01*
X133274Y115146D01*
X149326Y115146D01*
X150071Y114401D01*
X150071Y107849D01*
X149326Y107104D01*
X133274Y107104D01*
G37*
%LPD*%
D10*
X170300Y111125D03*
X185300Y111125D03*
X415925Y188475D03*
X415925Y173475D03*
D11*
X360350Y161925D03*
X360350Y149225D03*
X360350Y136525D03*
X360350Y123825D03*
X414350Y123825D03*
X414350Y136525D03*
X414350Y149225D03*
X414350Y161925D03*
X242900Y123825D03*
X242900Y136525D03*
X242900Y149225D03*
X242900Y161925D03*
X188900Y161925D03*
X188900Y149225D03*
X188900Y136525D03*
X188900Y123825D03*
D12*
X381000Y99775D03*
X381000Y109775D03*
X368300Y99775D03*
X368300Y109775D03*
X393700Y185975D03*
X393700Y175975D03*
X355600Y185975D03*
X355600Y175975D03*
X393700Y109775D03*
X393700Y99775D03*
X355600Y109775D03*
X355600Y99775D03*
X381000Y175975D03*
X381000Y185975D03*
X368300Y175975D03*
X368300Y185975D03*
D11*
X141300Y111125D03*
X141300Y123825D03*
X141300Y136525D03*
X141300Y149225D03*
X87300Y149225D03*
X87300Y136525D03*
X87300Y123825D03*
X87300Y111125D03*
D12*
X203200Y99775D03*
X203200Y109775D03*
X215900Y185975D03*
X215900Y175975D03*
X215900Y109775D03*
X215900Y99775D03*
X203200Y175975D03*
X203200Y185975D03*
D10*
X106800Y165100D03*
X121800Y165100D03*
X109100Y95250D03*
X94100Y95250D03*
D13*
X28750Y136525D03*
D14*
X31750Y177800D03*
X31750Y95250D03*
D15*
X12700Y120650D03*
X31750Y120650D03*
X50800Y120650D03*
X31750Y152400D03*
X12700Y152400D03*
X50800Y152400D03*
X50800Y73025D03*
X31750Y73025D03*
X12700Y73025D03*
X50800Y200025D03*
X31750Y200025D03*
X12700Y200025D03*
D13*
X498300Y215900D03*
D14*
X495300Y174625D03*
X495300Y257175D03*
D15*
X514350Y231775D03*
X495300Y231775D03*
X476250Y231775D03*
X495300Y200025D03*
X514350Y200025D03*
X476250Y200025D03*
X476250Y279400D03*
X495300Y279400D03*
X514350Y279400D03*
X476250Y152400D03*
X495300Y152400D03*
X514350Y152400D03*
D13*
X498300Y73025D03*
D14*
X495300Y31750D03*
X495300Y114300D03*
D15*
X514350Y88900D03*
X495300Y88900D03*
X476250Y88900D03*
X495300Y57150D03*
X514350Y57150D03*
X476250Y57150D03*
X476250Y136525D03*
X495300Y136525D03*
X514350Y136525D03*
X476250Y9525D03*
X495300Y9525D03*
X514350Y9525D03*
D10*
X398025Y82550D03*
X383025Y82550D03*
X355600Y223400D03*
X355600Y208400D03*
D16*
X120650Y257175D03*
X95250Y257175D03*
X146050Y257175D03*
X171450Y257175D03*
D10*
X215900Y213875D03*
X215900Y198875D03*
D17*
X234575Y257175D03*
X203575Y257175D03*
D18*
X184150Y98425D03*
X193675Y98425D03*
X368300Y79375D03*
X368300Y88900D03*
X400050Y165100D03*
X403225Y177800D03*
X403225Y187325D03*
X403225Y196850D03*
X393700Y196850D03*
X428625Y174625D03*
X428625Y165100D03*
X228600Y200025D03*
X228600Y187325D03*
X120650Y180975D03*
X136525Y180975D03*
X136525Y165100D03*
X133350Y244475D03*
X158750Y244475D03*
X184150Y244475D03*
X184150Y269875D03*
X158750Y269875D03*
X133350Y269875D03*
X73025Y111125D03*
X73025Y98425D03*
X82550Y98425D03*
X82550Y88900D03*
X101600Y111125D03*
X355600Y196850D03*
X174625Y123825D03*
X203200Y276225D03*
X203200Y238125D03*
X120650Y98425D03*
X101600Y149225D03*
X73025Y149225D03*
X82550Y158750D03*
X92075Y158750D03*
X120650Y88900D03*
X158750Y123825D03*
X158750Y114300D03*
X158750Y104775D03*
X174625Y161925D03*
X184150Y171450D03*
X193675Y171450D03*
X190500Y187325D03*
X215900Y88900D03*
X225425Y98425D03*
X342900Y98425D03*
X406400Y98425D03*
X409575Y82550D03*
X400050Y69850D03*
X355600Y88900D03*
X346075Y225425D03*
X355600Y234950D03*
X368300Y225425D03*
X371475Y196850D03*
X381000Y196850D03*
X415925Y200025D03*
X428625Y200025D03*
X428625Y190500D03*
X400050Y123825D03*
X409575Y114300D03*
X419100Y114300D03*
X428625Y120650D03*
X104775Y177800D03*
X95250Y168275D03*
X107950Y244475D03*
X107950Y269875D03*
X82550Y269875D03*
X82550Y244475D03*
X76200Y257175D03*
X168275Y98425D03*
X196850Y200025D03*
X234950Y276225D03*
X247650Y263525D03*
X247650Y250825D03*
X234950Y238125D03*
X238125Y107950D03*
X238125Y85725D03*
X238125Y63500D03*
X238125Y174625D03*
X238125Y212725D03*
X250825Y234950D03*
X279400Y234950D03*
X307975Y234950D03*
X333375Y234950D03*
X247650Y53975D03*
X273050Y53975D03*
X298450Y53975D03*
X320675Y53975D03*
X346075Y53975D03*
X365125Y53975D03*
X9525Y9525D03*
X9525Y34925D03*
X34925Y9525D03*
X60325Y9525D03*
X85725Y9525D03*
X111125Y9525D03*
X136525Y9525D03*
X161925Y9525D03*
X187325Y9525D03*
X212725Y9525D03*
X238125Y9525D03*
X263525Y9525D03*
X288925Y9525D03*
X314325Y9525D03*
X339725Y9525D03*
X365125Y9525D03*
X390525Y9525D03*
X441325Y9525D03*
X415925Y9525D03*
X9525Y279400D03*
X34925Y279400D03*
X60325Y279400D03*
X85725Y279400D03*
X111125Y279400D03*
X263525Y279400D03*
X288925Y279400D03*
X314325Y279400D03*
X339725Y279400D03*
X365125Y279400D03*
X390525Y279400D03*
X415925Y279400D03*
X441325Y279400D03*
X9525Y254000D03*
X9525Y228600D03*
X9525Y60325D03*
D19*
X381000Y175975D02*
X393700Y175975D01*
X381000Y175975D02*
X381000Y161925D01*
X368300Y149225D01*
X360350Y149225D01*
X246304Y152629D02*
X242900Y149225D01*
X246304Y152629D02*
X254000Y152629D01*
D20*
X254000Y152070D03*
X342900Y152070D03*
D19*
X342900Y152629D01*
X356946Y152629D02*
X360350Y149225D01*
X356946Y152629D02*
X342900Y152629D01*
X254000Y152629D02*
X254000Y152070D01*
X244246Y161925D02*
X242900Y161925D01*
X244246Y161925D02*
X244475Y162154D01*
X355600Y175975D02*
X368300Y175975D01*
X371475Y172800D01*
X371475Y165100D01*
X368300Y161925D01*
X360350Y161925D01*
X246304Y158521D02*
X242900Y161925D01*
X246304Y158521D02*
X254000Y158521D01*
D20*
X254000Y159080D03*
X342900Y159080D03*
D19*
X342900Y158521D01*
X356946Y158521D02*
X360350Y161925D01*
X356946Y158521D02*
X342900Y158521D01*
X254000Y158521D02*
X254000Y159080D01*
X381000Y109775D02*
X393700Y109775D01*
X381000Y109775D02*
X381000Y123825D01*
X368300Y136525D01*
X360350Y136525D01*
X246304Y127229D02*
X242900Y123825D01*
X246304Y127229D02*
X256540Y127229D01*
D20*
X256540Y126670D03*
D19*
X256540Y127229D01*
X356946Y133121D02*
X360350Y136525D01*
X356946Y133121D02*
X264160Y133121D01*
D20*
X264160Y133680D03*
D19*
X264160Y133121D01*
X263627Y133121D02*
X257175Y126670D01*
X256540Y126670D01*
X263627Y133121D02*
X264160Y133121D01*
X355600Y109775D02*
X368300Y109775D01*
X371475Y112950D01*
X371475Y120650D01*
X368300Y123825D01*
X360350Y123825D01*
X246304Y133121D02*
X242900Y136525D01*
X246304Y133121D02*
X256540Y133121D01*
D20*
X256540Y133680D03*
D19*
X256540Y133121D01*
X356946Y127229D02*
X360350Y123825D01*
X356946Y127229D02*
X264160Y127229D01*
D20*
X264160Y126670D03*
D19*
X264160Y127229D01*
X142646Y136525D02*
X141300Y136525D01*
X215900Y109775D02*
X215900Y109775D01*
X188900Y136525D02*
X185496Y139929D01*
X144704Y139929D01*
X141300Y136525D01*
X203200Y109775D02*
X215900Y109775D01*
X196850Y136525D02*
X188900Y136525D01*
X196850Y136525D02*
X203200Y130175D01*
X203200Y109775D01*
X215900Y175975D02*
X215900Y175975D01*
X203200Y175975D02*
X203200Y175975D01*
X188900Y149225D02*
X185496Y145821D01*
X144704Y145821D01*
X141300Y149225D01*
X203200Y175975D02*
X215900Y175975D01*
X196850Y149225D02*
X188900Y149225D01*
X196850Y149225D02*
X203200Y155575D01*
X203200Y175975D01*
X87300Y136525D02*
X28750Y136525D01*
X414350Y149225D02*
X434975Y149225D01*
X444500Y158750D01*
X444500Y203200D01*
X457200Y215900D01*
X498300Y215900D01*
X434975Y136525D02*
X414350Y136525D01*
X434975Y136525D02*
X444500Y127000D01*
X444500Y88900D01*
X460375Y73025D01*
X498300Y73025D01*
M02*
