G04 EAGLE Gerber RS-274X export*
G75*
%MOMM*%
%FSLAX34Y34*%
%LPD*%
%INBottom Solder Mask*%
%IPPOS*%
%AMOC8*
5,1,8,0,0,1.08239X$1,22.5*%
G01*
%ADD10C,0.731000*%
%ADD11P,2.226909X8X112.500000*%

G36*
X266758Y235848D02*
X266758Y235848D01*
X266816Y235846D01*
X266898Y235868D01*
X266982Y235880D01*
X267035Y235904D01*
X267091Y235918D01*
X267164Y235961D01*
X267241Y235996D01*
X267286Y236034D01*
X267336Y236064D01*
X267394Y236125D01*
X267458Y236180D01*
X267490Y236228D01*
X267530Y236271D01*
X267569Y236346D01*
X267616Y236416D01*
X267633Y236472D01*
X267660Y236524D01*
X267671Y236592D01*
X267701Y236687D01*
X267704Y236787D01*
X267715Y236855D01*
X267715Y298450D01*
X267707Y298508D01*
X267709Y298566D01*
X267687Y298648D01*
X267675Y298732D01*
X267652Y298785D01*
X267637Y298841D01*
X267594Y298914D01*
X267559Y298991D01*
X267521Y299036D01*
X267492Y299086D01*
X267430Y299144D01*
X267376Y299208D01*
X267327Y299240D01*
X267284Y299280D01*
X267209Y299319D01*
X267139Y299366D01*
X267083Y299383D01*
X267031Y299410D01*
X266963Y299421D01*
X266868Y299451D01*
X266768Y299454D01*
X266700Y299465D01*
X203200Y299465D01*
X203142Y299457D01*
X203084Y299459D01*
X203002Y299437D01*
X202919Y299425D01*
X202865Y299402D01*
X202809Y299387D01*
X202736Y299344D01*
X202659Y299309D01*
X202614Y299271D01*
X202564Y299242D01*
X202506Y299180D01*
X202442Y299126D01*
X202410Y299077D01*
X202370Y299034D01*
X202331Y298959D01*
X202285Y298889D01*
X202267Y298833D01*
X202240Y298781D01*
X202229Y298713D01*
X202199Y298618D01*
X202196Y298518D01*
X202185Y298450D01*
X202185Y236855D01*
X202193Y236797D01*
X202191Y236739D01*
X202213Y236657D01*
X202225Y236574D01*
X202249Y236520D01*
X202263Y236464D01*
X202306Y236391D01*
X202341Y236314D01*
X202379Y236269D01*
X202409Y236219D01*
X202470Y236161D01*
X202525Y236097D01*
X202573Y236065D01*
X202616Y236025D01*
X202691Y235986D01*
X202761Y235940D01*
X202817Y235922D01*
X202869Y235895D01*
X202937Y235884D01*
X203032Y235854D01*
X203132Y235851D01*
X203200Y235840D01*
X266700Y235840D01*
X266758Y235848D01*
G37*
G36*
X63558Y235848D02*
X63558Y235848D01*
X63616Y235846D01*
X63698Y235868D01*
X63782Y235880D01*
X63835Y235904D01*
X63891Y235918D01*
X63964Y235961D01*
X64041Y235996D01*
X64086Y236034D01*
X64136Y236064D01*
X64194Y236125D01*
X64258Y236180D01*
X64290Y236228D01*
X64330Y236271D01*
X64369Y236346D01*
X64416Y236416D01*
X64433Y236472D01*
X64460Y236524D01*
X64471Y236592D01*
X64501Y236687D01*
X64504Y236787D01*
X64515Y236855D01*
X64515Y298450D01*
X64507Y298508D01*
X64509Y298566D01*
X64487Y298648D01*
X64475Y298732D01*
X64452Y298785D01*
X64437Y298841D01*
X64394Y298914D01*
X64359Y298991D01*
X64321Y299036D01*
X64292Y299086D01*
X64230Y299144D01*
X64176Y299208D01*
X64127Y299240D01*
X64084Y299280D01*
X64009Y299319D01*
X63939Y299366D01*
X63883Y299383D01*
X63831Y299410D01*
X63763Y299421D01*
X63668Y299451D01*
X63568Y299454D01*
X63500Y299465D01*
X0Y299465D01*
X-58Y299457D01*
X-116Y299459D01*
X-198Y299437D01*
X-282Y299425D01*
X-335Y299402D01*
X-391Y299387D01*
X-464Y299344D01*
X-541Y299309D01*
X-586Y299271D01*
X-636Y299242D01*
X-694Y299180D01*
X-758Y299126D01*
X-790Y299077D01*
X-830Y299034D01*
X-869Y298959D01*
X-916Y298889D01*
X-933Y298833D01*
X-960Y298781D01*
X-971Y298713D01*
X-1001Y298618D01*
X-1004Y298518D01*
X-1015Y298450D01*
X-1015Y236855D01*
X-1007Y236797D01*
X-1009Y236739D01*
X-987Y236657D01*
X-975Y236574D01*
X-952Y236520D01*
X-937Y236464D01*
X-894Y236391D01*
X-859Y236314D01*
X-821Y236269D01*
X-792Y236219D01*
X-730Y236161D01*
X-676Y236097D01*
X-627Y236065D01*
X-584Y236025D01*
X-509Y235986D01*
X-439Y235940D01*
X-383Y235922D01*
X-331Y235895D01*
X-263Y235884D01*
X-168Y235854D01*
X-68Y235851D01*
X0Y235840D01*
X63500Y235840D01*
X63558Y235848D01*
G37*
G36*
X266758Y157743D02*
X266758Y157743D01*
X266816Y157741D01*
X266898Y157763D01*
X266982Y157775D01*
X267035Y157799D01*
X267091Y157813D01*
X267164Y157856D01*
X267241Y157891D01*
X267286Y157929D01*
X267336Y157959D01*
X267394Y158020D01*
X267458Y158075D01*
X267490Y158123D01*
X267530Y158166D01*
X267569Y158241D01*
X267616Y158311D01*
X267633Y158367D01*
X267660Y158419D01*
X267671Y158487D01*
X267701Y158582D01*
X267704Y158682D01*
X267715Y158750D01*
X267715Y220345D01*
X267707Y220403D01*
X267709Y220461D01*
X267687Y220543D01*
X267675Y220627D01*
X267652Y220680D01*
X267637Y220736D01*
X267594Y220809D01*
X267559Y220886D01*
X267521Y220931D01*
X267492Y220981D01*
X267430Y221039D01*
X267376Y221103D01*
X267327Y221135D01*
X267284Y221175D01*
X267209Y221214D01*
X267139Y221261D01*
X267083Y221278D01*
X267031Y221305D01*
X266963Y221316D01*
X266868Y221346D01*
X266768Y221349D01*
X266700Y221360D01*
X203200Y221360D01*
X203142Y221352D01*
X203084Y221354D01*
X203002Y221332D01*
X202919Y221320D01*
X202865Y221297D01*
X202809Y221282D01*
X202736Y221239D01*
X202659Y221204D01*
X202614Y221166D01*
X202564Y221137D01*
X202506Y221075D01*
X202442Y221021D01*
X202410Y220972D01*
X202370Y220929D01*
X202331Y220854D01*
X202285Y220784D01*
X202267Y220728D01*
X202240Y220676D01*
X202229Y220608D01*
X202199Y220513D01*
X202196Y220413D01*
X202185Y220345D01*
X202185Y158750D01*
X202193Y158692D01*
X202191Y158634D01*
X202213Y158552D01*
X202225Y158469D01*
X202249Y158415D01*
X202263Y158359D01*
X202306Y158286D01*
X202341Y158209D01*
X202379Y158164D01*
X202409Y158114D01*
X202470Y158056D01*
X202525Y157992D01*
X202573Y157960D01*
X202616Y157920D01*
X202691Y157881D01*
X202761Y157835D01*
X202817Y157817D01*
X202869Y157790D01*
X202937Y157779D01*
X203032Y157749D01*
X203132Y157746D01*
X203200Y157735D01*
X266700Y157735D01*
X266758Y157743D01*
G37*
G36*
X63558Y157743D02*
X63558Y157743D01*
X63616Y157741D01*
X63698Y157763D01*
X63782Y157775D01*
X63835Y157799D01*
X63891Y157813D01*
X63964Y157856D01*
X64041Y157891D01*
X64086Y157929D01*
X64136Y157959D01*
X64194Y158020D01*
X64258Y158075D01*
X64290Y158123D01*
X64330Y158166D01*
X64369Y158241D01*
X64416Y158311D01*
X64433Y158367D01*
X64460Y158419D01*
X64471Y158487D01*
X64501Y158582D01*
X64504Y158682D01*
X64515Y158750D01*
X64515Y220345D01*
X64507Y220403D01*
X64509Y220461D01*
X64487Y220543D01*
X64475Y220627D01*
X64452Y220680D01*
X64437Y220736D01*
X64394Y220809D01*
X64359Y220886D01*
X64321Y220931D01*
X64292Y220981D01*
X64230Y221039D01*
X64176Y221103D01*
X64127Y221135D01*
X64084Y221175D01*
X64009Y221214D01*
X63939Y221261D01*
X63883Y221278D01*
X63831Y221305D01*
X63763Y221316D01*
X63668Y221346D01*
X63568Y221349D01*
X63500Y221360D01*
X0Y221360D01*
X-58Y221352D01*
X-116Y221354D01*
X-198Y221332D01*
X-282Y221320D01*
X-335Y221297D01*
X-391Y221282D01*
X-464Y221239D01*
X-541Y221204D01*
X-586Y221166D01*
X-636Y221137D01*
X-694Y221075D01*
X-758Y221021D01*
X-790Y220972D01*
X-830Y220929D01*
X-869Y220854D01*
X-916Y220784D01*
X-933Y220728D01*
X-960Y220676D01*
X-971Y220608D01*
X-1001Y220513D01*
X-1004Y220413D01*
X-1015Y220345D01*
X-1015Y158750D01*
X-1007Y158692D01*
X-1009Y158634D01*
X-987Y158552D01*
X-975Y158469D01*
X-952Y158415D01*
X-937Y158359D01*
X-894Y158286D01*
X-859Y158209D01*
X-821Y158164D01*
X-792Y158114D01*
X-730Y158056D01*
X-676Y157992D01*
X-627Y157960D01*
X-584Y157920D01*
X-509Y157881D01*
X-439Y157835D01*
X-383Y157817D01*
X-331Y157790D01*
X-263Y157779D01*
X-168Y157749D01*
X-68Y157746D01*
X0Y157735D01*
X63500Y157735D01*
X63558Y157743D01*
G37*
G36*
X266758Y83448D02*
X266758Y83448D01*
X266816Y83446D01*
X266898Y83468D01*
X266982Y83480D01*
X267035Y83504D01*
X267091Y83518D01*
X267164Y83561D01*
X267241Y83596D01*
X267286Y83634D01*
X267336Y83664D01*
X267394Y83725D01*
X267458Y83780D01*
X267490Y83828D01*
X267530Y83871D01*
X267569Y83946D01*
X267616Y84016D01*
X267633Y84072D01*
X267660Y84124D01*
X267671Y84192D01*
X267701Y84287D01*
X267704Y84387D01*
X267715Y84455D01*
X267715Y146050D01*
X267707Y146108D01*
X267709Y146166D01*
X267687Y146248D01*
X267675Y146332D01*
X267652Y146385D01*
X267637Y146441D01*
X267594Y146514D01*
X267559Y146591D01*
X267521Y146636D01*
X267492Y146686D01*
X267430Y146744D01*
X267376Y146808D01*
X267327Y146840D01*
X267284Y146880D01*
X267209Y146919D01*
X267139Y146966D01*
X267083Y146983D01*
X267031Y147010D01*
X266963Y147021D01*
X266868Y147051D01*
X266768Y147054D01*
X266700Y147065D01*
X203200Y147065D01*
X203142Y147057D01*
X203084Y147059D01*
X203002Y147037D01*
X202919Y147025D01*
X202865Y147002D01*
X202809Y146987D01*
X202736Y146944D01*
X202659Y146909D01*
X202614Y146871D01*
X202564Y146842D01*
X202506Y146780D01*
X202442Y146726D01*
X202410Y146677D01*
X202370Y146634D01*
X202331Y146559D01*
X202285Y146489D01*
X202267Y146433D01*
X202240Y146381D01*
X202229Y146313D01*
X202199Y146218D01*
X202196Y146118D01*
X202185Y146050D01*
X202185Y84455D01*
X202193Y84397D01*
X202191Y84339D01*
X202213Y84257D01*
X202225Y84174D01*
X202249Y84120D01*
X202263Y84064D01*
X202306Y83991D01*
X202341Y83914D01*
X202379Y83869D01*
X202409Y83819D01*
X202470Y83761D01*
X202525Y83697D01*
X202573Y83665D01*
X202616Y83625D01*
X202691Y83586D01*
X202761Y83540D01*
X202817Y83522D01*
X202869Y83495D01*
X202937Y83484D01*
X203032Y83454D01*
X203132Y83451D01*
X203200Y83440D01*
X266700Y83440D01*
X266758Y83448D01*
G37*
G36*
X266758Y5343D02*
X266758Y5343D01*
X266816Y5341D01*
X266898Y5363D01*
X266982Y5375D01*
X267035Y5399D01*
X267091Y5413D01*
X267164Y5456D01*
X267241Y5491D01*
X267286Y5529D01*
X267336Y5559D01*
X267394Y5620D01*
X267458Y5675D01*
X267490Y5723D01*
X267530Y5766D01*
X267569Y5841D01*
X267616Y5911D01*
X267633Y5967D01*
X267660Y6019D01*
X267671Y6087D01*
X267701Y6182D01*
X267704Y6282D01*
X267715Y6350D01*
X267715Y67945D01*
X267707Y68003D01*
X267709Y68061D01*
X267687Y68143D01*
X267675Y68227D01*
X267652Y68280D01*
X267637Y68336D01*
X267594Y68409D01*
X267559Y68486D01*
X267521Y68531D01*
X267492Y68581D01*
X267430Y68639D01*
X267376Y68703D01*
X267327Y68735D01*
X267284Y68775D01*
X267209Y68814D01*
X267139Y68861D01*
X267083Y68878D01*
X267031Y68905D01*
X266963Y68916D01*
X266868Y68946D01*
X266768Y68949D01*
X266700Y68960D01*
X203200Y68960D01*
X203142Y68952D01*
X203084Y68954D01*
X203002Y68932D01*
X202919Y68920D01*
X202865Y68897D01*
X202809Y68882D01*
X202736Y68839D01*
X202659Y68804D01*
X202614Y68766D01*
X202564Y68737D01*
X202506Y68675D01*
X202442Y68621D01*
X202410Y68572D01*
X202370Y68529D01*
X202331Y68454D01*
X202285Y68384D01*
X202267Y68328D01*
X202240Y68276D01*
X202229Y68208D01*
X202199Y68113D01*
X202196Y68013D01*
X202185Y67945D01*
X202185Y6350D01*
X202193Y6292D01*
X202191Y6234D01*
X202213Y6152D01*
X202225Y6069D01*
X202249Y6015D01*
X202263Y5959D01*
X202306Y5886D01*
X202341Y5809D01*
X202379Y5764D01*
X202409Y5714D01*
X202470Y5656D01*
X202525Y5592D01*
X202573Y5560D01*
X202616Y5520D01*
X202691Y5481D01*
X202761Y5435D01*
X202817Y5417D01*
X202869Y5390D01*
X202937Y5379D01*
X203032Y5349D01*
X203132Y5346D01*
X203200Y5335D01*
X266700Y5335D01*
X266758Y5343D01*
G37*
D10*
X50800Y165100D03*
X31750Y165100D03*
X12700Y165100D03*
X50800Y292100D03*
X31750Y292100D03*
X12700Y292100D03*
X215900Y139700D03*
X234950Y139700D03*
X254000Y139700D03*
X215900Y12700D03*
X234950Y12700D03*
X254000Y12700D03*
D11*
X38100Y88900D03*
X38100Y63500D03*
D10*
X215900Y292100D03*
X234950Y292100D03*
X254000Y292100D03*
X215900Y165100D03*
X234950Y165100D03*
X254000Y165100D03*
M02*
