M48
;GenerationSoftware,Autodesk,EAGLE,9.2.2*%
;CreationDate,2019-03-13T12:43:42Z*%
FMAT,2
ICI,OFF
METRIC,TZ,000.000
T4C0.350
T3C0.400
T2C1.000
%
G90
M71
T2
X28575Y2540
X26035Y2540
T3
X21590Y15240
X21590Y16510
X8636Y16129
X8763Y13970
X8636Y11811
X10795Y8255
X12065Y11430
X12065Y13970
X19050Y9525
X16510Y9525
X13970Y9525
X18415Y17145
X19050Y11430
X21590Y13970
X19050Y13970
X21590Y18415
X19050Y18415
X16510Y18415
X13970Y18415
X16510Y16510
X13970Y16510
X13970Y13970
X16510Y13970
X16510Y11430
X13970Y11430
T4
X36195Y6667
X32385Y6667
X5080Y15557
X34290Y6667
X36195Y21273
X34290Y21273
X32385Y21273
X34290Y18098
X36195Y18098
X32385Y18098
X1270Y12382
X3175Y12382
X5080Y12382
X3175Y15557
X1270Y15557
X32385Y9843
X34290Y9843
X36195Y9843
X17780Y8890
X17780Y12700
X17780Y19050
X20320Y19050
X20320Y10160
X15240Y8890
X15240Y15240
X15240Y19050
X12700Y8890
X12700Y16510
X26035Y8255
X20955Y12700
M30