G04 EAGLE Gerber RS-274X export*
G75*
%MOMM*%
%FSLAX34Y34*%
%LPD*%
%INSilkscreen Top*%
%IPPOS*%
%AMOC8*
5,1,8,0,0,1.08239X$1,22.5*%
G01*
%ADD10C,0.127000*%
%ADD11C,0.254000*%


D10*
X92498Y126365D02*
X92584Y126367D01*
X92670Y126373D01*
X92756Y126382D01*
X92841Y126395D01*
X92926Y126412D01*
X93009Y126432D01*
X93092Y126456D01*
X93174Y126484D01*
X93254Y126515D01*
X93333Y126550D01*
X93410Y126588D01*
X93486Y126630D01*
X93560Y126674D01*
X93631Y126722D01*
X93701Y126773D01*
X93768Y126827D01*
X93833Y126884D01*
X93895Y126944D01*
X93955Y127006D01*
X94012Y127071D01*
X94066Y127138D01*
X94117Y127208D01*
X94165Y127279D01*
X94209Y127353D01*
X94251Y127429D01*
X94289Y127506D01*
X94324Y127585D01*
X94355Y127665D01*
X94383Y127747D01*
X94407Y127830D01*
X94427Y127913D01*
X94444Y127998D01*
X94457Y128083D01*
X94466Y128169D01*
X94472Y128255D01*
X94474Y128341D01*
X92498Y126365D02*
X92371Y126367D01*
X92245Y126373D01*
X92118Y126382D01*
X91992Y126396D01*
X91867Y126413D01*
X91742Y126434D01*
X91618Y126459D01*
X91494Y126488D01*
X91372Y126520D01*
X91250Y126556D01*
X91130Y126596D01*
X91011Y126639D01*
X90893Y126686D01*
X90777Y126737D01*
X90662Y126791D01*
X90549Y126848D01*
X90438Y126909D01*
X90329Y126973D01*
X90222Y127041D01*
X90116Y127111D01*
X90013Y127185D01*
X89913Y127262D01*
X89815Y127342D01*
X89719Y127425D01*
X89626Y127511D01*
X89535Y127600D01*
X89782Y133279D02*
X89784Y133365D01*
X89790Y133451D01*
X89799Y133537D01*
X89812Y133622D01*
X89829Y133707D01*
X89849Y133790D01*
X89873Y133873D01*
X89901Y133955D01*
X89932Y134035D01*
X89967Y134114D01*
X90005Y134191D01*
X90047Y134267D01*
X90091Y134341D01*
X90139Y134412D01*
X90190Y134482D01*
X90244Y134549D01*
X90301Y134614D01*
X90361Y134676D01*
X90423Y134736D01*
X90488Y134793D01*
X90555Y134847D01*
X90625Y134898D01*
X90696Y134946D01*
X90770Y134990D01*
X90846Y135032D01*
X90923Y135070D01*
X91002Y135105D01*
X91082Y135136D01*
X91164Y135164D01*
X91247Y135188D01*
X91330Y135208D01*
X91415Y135225D01*
X91500Y135238D01*
X91586Y135247D01*
X91672Y135253D01*
X91758Y135255D01*
X91877Y135253D01*
X91996Y135247D01*
X92115Y135238D01*
X92233Y135224D01*
X92351Y135207D01*
X92469Y135186D01*
X92585Y135161D01*
X92701Y135133D01*
X92816Y135101D01*
X92929Y135065D01*
X93042Y135025D01*
X93153Y134982D01*
X93263Y134936D01*
X93371Y134886D01*
X93477Y134832D01*
X93582Y134775D01*
X93684Y134715D01*
X93785Y134651D01*
X93884Y134584D01*
X93980Y134514D01*
X90770Y131551D02*
X90696Y131596D01*
X90624Y131645D01*
X90554Y131697D01*
X90487Y131752D01*
X90422Y131810D01*
X90360Y131870D01*
X90301Y131933D01*
X90244Y131999D01*
X90190Y132067D01*
X90139Y132137D01*
X90091Y132209D01*
X90046Y132284D01*
X90005Y132360D01*
X89967Y132438D01*
X89932Y132518D01*
X89901Y132599D01*
X89873Y132681D01*
X89849Y132764D01*
X89829Y132848D01*
X89812Y132934D01*
X89799Y133019D01*
X89790Y133106D01*
X89784Y133192D01*
X89782Y133279D01*
X93485Y130069D02*
X93559Y130024D01*
X93631Y129975D01*
X93701Y129923D01*
X93768Y129868D01*
X93833Y129810D01*
X93895Y129750D01*
X93955Y129687D01*
X94011Y129621D01*
X94065Y129553D01*
X94116Y129483D01*
X94164Y129411D01*
X94209Y129336D01*
X94250Y129260D01*
X94288Y129182D01*
X94323Y129102D01*
X94354Y129021D01*
X94382Y128939D01*
X94406Y128856D01*
X94426Y128772D01*
X94443Y128686D01*
X94456Y128601D01*
X94465Y128514D01*
X94471Y128428D01*
X94473Y128341D01*
X93486Y130069D02*
X90770Y131551D01*
X98795Y135255D02*
X98795Y126365D01*
X101758Y130316D02*
X98795Y135255D01*
X101758Y130316D02*
X104721Y135255D01*
X104721Y126365D01*
X108853Y126365D02*
X111816Y135255D01*
X114780Y126365D01*
X114039Y128588D02*
X109594Y128588D01*
X118607Y129822D02*
X124533Y129822D01*
X127918Y132292D02*
X130882Y132292D01*
X128906Y135255D02*
X128906Y127847D01*
X128908Y127772D01*
X128914Y127697D01*
X128923Y127623D01*
X128936Y127549D01*
X128953Y127476D01*
X128974Y127403D01*
X128998Y127332D01*
X129026Y127263D01*
X129057Y127194D01*
X129092Y127128D01*
X129130Y127063D01*
X129172Y127000D01*
X129216Y126940D01*
X129264Y126882D01*
X129314Y126826D01*
X129367Y126773D01*
X129423Y126723D01*
X129481Y126675D01*
X129541Y126631D01*
X129604Y126589D01*
X129669Y126551D01*
X129735Y126516D01*
X129804Y126485D01*
X129873Y126457D01*
X129944Y126433D01*
X130017Y126412D01*
X130090Y126395D01*
X130164Y126382D01*
X130238Y126373D01*
X130313Y126367D01*
X130388Y126365D01*
X130882Y126365D01*
X134530Y128341D02*
X134530Y130316D01*
X134529Y130316D02*
X134531Y130403D01*
X134537Y130491D01*
X134546Y130578D01*
X134560Y130664D01*
X134577Y130750D01*
X134598Y130834D01*
X134623Y130918D01*
X134652Y131001D01*
X134684Y131082D01*
X134719Y131162D01*
X134758Y131240D01*
X134801Y131317D01*
X134847Y131391D01*
X134896Y131463D01*
X134948Y131533D01*
X135004Y131601D01*
X135062Y131666D01*
X135123Y131729D01*
X135187Y131788D01*
X135254Y131845D01*
X135322Y131899D01*
X135394Y131950D01*
X135467Y131997D01*
X135542Y132042D01*
X135620Y132083D01*
X135699Y132120D01*
X135779Y132154D01*
X135861Y132184D01*
X135944Y132211D01*
X136029Y132234D01*
X136114Y132253D01*
X136200Y132268D01*
X136287Y132280D01*
X136374Y132288D01*
X136461Y132292D01*
X136549Y132292D01*
X136636Y132288D01*
X136723Y132280D01*
X136810Y132268D01*
X136896Y132253D01*
X136981Y132234D01*
X137066Y132211D01*
X137149Y132184D01*
X137231Y132154D01*
X137311Y132120D01*
X137390Y132083D01*
X137468Y132042D01*
X137543Y131997D01*
X137616Y131950D01*
X137688Y131899D01*
X137756Y131845D01*
X137823Y131788D01*
X137887Y131729D01*
X137948Y131666D01*
X138006Y131601D01*
X138062Y131533D01*
X138114Y131463D01*
X138163Y131391D01*
X138209Y131317D01*
X138252Y131240D01*
X138291Y131162D01*
X138326Y131082D01*
X138358Y131001D01*
X138387Y130918D01*
X138412Y130834D01*
X138433Y130750D01*
X138450Y130664D01*
X138464Y130578D01*
X138473Y130491D01*
X138479Y130403D01*
X138481Y130316D01*
X138481Y128341D01*
X138479Y128254D01*
X138473Y128166D01*
X138464Y128079D01*
X138450Y127993D01*
X138433Y127907D01*
X138412Y127823D01*
X138387Y127739D01*
X138358Y127656D01*
X138326Y127575D01*
X138291Y127495D01*
X138252Y127417D01*
X138209Y127340D01*
X138163Y127266D01*
X138114Y127194D01*
X138062Y127124D01*
X138006Y127056D01*
X137948Y126991D01*
X137887Y126928D01*
X137823Y126869D01*
X137756Y126812D01*
X137688Y126758D01*
X137616Y126707D01*
X137543Y126660D01*
X137468Y126615D01*
X137390Y126574D01*
X137311Y126537D01*
X137231Y126503D01*
X137149Y126473D01*
X137066Y126446D01*
X136981Y126423D01*
X136896Y126404D01*
X136810Y126389D01*
X136723Y126377D01*
X136636Y126369D01*
X136549Y126365D01*
X136461Y126365D01*
X136374Y126369D01*
X136287Y126377D01*
X136200Y126389D01*
X136114Y126404D01*
X136029Y126423D01*
X135944Y126446D01*
X135861Y126473D01*
X135779Y126503D01*
X135699Y126537D01*
X135620Y126574D01*
X135542Y126615D01*
X135467Y126660D01*
X135394Y126707D01*
X135322Y126758D01*
X135254Y126812D01*
X135187Y126869D01*
X135123Y126928D01*
X135062Y126991D01*
X135004Y127056D01*
X134948Y127124D01*
X134896Y127194D01*
X134847Y127266D01*
X134801Y127340D01*
X134758Y127417D01*
X134719Y127495D01*
X134684Y127575D01*
X134652Y127656D01*
X134623Y127739D01*
X134598Y127823D01*
X134577Y127907D01*
X134560Y127993D01*
X134546Y128079D01*
X134537Y128166D01*
X134531Y128254D01*
X134529Y128341D01*
X142686Y129822D02*
X148612Y129822D01*
X153412Y131304D02*
X155881Y131304D01*
X155881Y131303D02*
X155979Y131301D01*
X156077Y131295D01*
X156175Y131285D01*
X156272Y131272D01*
X156369Y131254D01*
X156465Y131233D01*
X156559Y131208D01*
X156653Y131179D01*
X156746Y131147D01*
X156837Y131110D01*
X156927Y131071D01*
X157015Y131027D01*
X157101Y130980D01*
X157186Y130930D01*
X157268Y130877D01*
X157348Y130820D01*
X157426Y130760D01*
X157501Y130697D01*
X157574Y130631D01*
X157644Y130562D01*
X157711Y130491D01*
X157776Y130417D01*
X157837Y130340D01*
X157896Y130261D01*
X157951Y130180D01*
X158003Y130097D01*
X158051Y130011D01*
X158096Y129924D01*
X158138Y129835D01*
X158176Y129745D01*
X158210Y129653D01*
X158241Y129560D01*
X158268Y129465D01*
X158291Y129370D01*
X158311Y129273D01*
X158326Y129177D01*
X158338Y129079D01*
X158346Y128981D01*
X158350Y128883D01*
X158350Y128785D01*
X158346Y128687D01*
X158338Y128589D01*
X158326Y128491D01*
X158311Y128395D01*
X158291Y128298D01*
X158268Y128203D01*
X158241Y128108D01*
X158210Y128015D01*
X158176Y127923D01*
X158138Y127833D01*
X158096Y127744D01*
X158051Y127657D01*
X158003Y127571D01*
X157951Y127488D01*
X157896Y127407D01*
X157837Y127328D01*
X157776Y127251D01*
X157711Y127177D01*
X157644Y127106D01*
X157574Y127037D01*
X157501Y126971D01*
X157426Y126908D01*
X157348Y126848D01*
X157268Y126791D01*
X157186Y126738D01*
X157101Y126688D01*
X157015Y126641D01*
X156927Y126597D01*
X156837Y126558D01*
X156746Y126521D01*
X156653Y126489D01*
X156559Y126460D01*
X156465Y126435D01*
X156369Y126414D01*
X156272Y126396D01*
X156175Y126383D01*
X156077Y126373D01*
X155979Y126367D01*
X155881Y126365D01*
X153412Y126365D01*
X153412Y135255D01*
X155881Y135255D01*
X155968Y135253D01*
X156056Y135247D01*
X156143Y135238D01*
X156229Y135224D01*
X156315Y135207D01*
X156399Y135186D01*
X156483Y135161D01*
X156566Y135132D01*
X156647Y135100D01*
X156727Y135065D01*
X156805Y135026D01*
X156882Y134983D01*
X156956Y134937D01*
X157028Y134888D01*
X157098Y134836D01*
X157166Y134780D01*
X157231Y134722D01*
X157294Y134661D01*
X157353Y134597D01*
X157410Y134530D01*
X157464Y134462D01*
X157515Y134390D01*
X157562Y134317D01*
X157607Y134242D01*
X157648Y134164D01*
X157685Y134085D01*
X157719Y134005D01*
X157749Y133923D01*
X157776Y133840D01*
X157799Y133755D01*
X157818Y133670D01*
X157833Y133584D01*
X157845Y133497D01*
X157853Y133410D01*
X157857Y133323D01*
X157857Y133235D01*
X157853Y133148D01*
X157845Y133061D01*
X157833Y132974D01*
X157818Y132888D01*
X157799Y132803D01*
X157776Y132718D01*
X157749Y132635D01*
X157719Y132553D01*
X157685Y132473D01*
X157648Y132394D01*
X157607Y132316D01*
X157562Y132241D01*
X157515Y132168D01*
X157464Y132096D01*
X157410Y132028D01*
X157353Y131961D01*
X157294Y131897D01*
X157231Y131836D01*
X157166Y131778D01*
X157098Y131722D01*
X157028Y131670D01*
X156956Y131621D01*
X156882Y131575D01*
X156805Y131532D01*
X156727Y131493D01*
X156647Y131458D01*
X156566Y131426D01*
X156483Y131397D01*
X156399Y131372D01*
X156315Y131351D01*
X156229Y131334D01*
X156143Y131320D01*
X156056Y131311D01*
X155968Y131305D01*
X155881Y131303D01*
X162382Y135255D02*
X162382Y126365D01*
X167321Y126365D02*
X162382Y135255D01*
X167321Y135255D02*
X167321Y126365D01*
X173772Y126365D02*
X175748Y126365D01*
X173772Y126365D02*
X173686Y126367D01*
X173600Y126373D01*
X173514Y126382D01*
X173429Y126395D01*
X173344Y126412D01*
X173261Y126432D01*
X173178Y126456D01*
X173096Y126484D01*
X173016Y126515D01*
X172937Y126550D01*
X172860Y126588D01*
X172784Y126630D01*
X172710Y126674D01*
X172639Y126722D01*
X172569Y126773D01*
X172502Y126827D01*
X172437Y126884D01*
X172375Y126944D01*
X172315Y127006D01*
X172258Y127071D01*
X172204Y127138D01*
X172153Y127208D01*
X172105Y127279D01*
X172061Y127353D01*
X172019Y127429D01*
X171981Y127506D01*
X171946Y127585D01*
X171915Y127665D01*
X171887Y127747D01*
X171863Y127830D01*
X171843Y127913D01*
X171826Y127998D01*
X171813Y128083D01*
X171804Y128169D01*
X171798Y128255D01*
X171796Y128341D01*
X171797Y128341D02*
X171797Y133279D01*
X171796Y133279D02*
X171798Y133368D01*
X171804Y133456D01*
X171814Y133544D01*
X171828Y133632D01*
X171846Y133719D01*
X171867Y133805D01*
X171893Y133890D01*
X171922Y133973D01*
X171955Y134056D01*
X171992Y134136D01*
X172032Y134215D01*
X172076Y134292D01*
X172123Y134368D01*
X172173Y134440D01*
X172227Y134511D01*
X172284Y134579D01*
X172344Y134645D01*
X172406Y134707D01*
X172472Y134767D01*
X172540Y134824D01*
X172611Y134878D01*
X172683Y134928D01*
X172758Y134975D01*
X172836Y135019D01*
X172915Y135059D01*
X172995Y135096D01*
X173078Y135129D01*
X173161Y135158D01*
X173246Y135184D01*
X173332Y135205D01*
X173419Y135223D01*
X173507Y135237D01*
X173595Y135247D01*
X173683Y135253D01*
X173772Y135255D01*
X175748Y135255D01*
X89535Y122555D02*
X89535Y113665D01*
X89535Y122555D02*
X93486Y122555D01*
X93486Y118604D02*
X89535Y118604D01*
X98498Y113665D02*
X100967Y113665D01*
X98498Y113665D02*
X98423Y113667D01*
X98348Y113673D01*
X98274Y113682D01*
X98200Y113695D01*
X98127Y113712D01*
X98054Y113733D01*
X97983Y113757D01*
X97914Y113785D01*
X97845Y113816D01*
X97779Y113851D01*
X97714Y113889D01*
X97651Y113931D01*
X97591Y113975D01*
X97533Y114023D01*
X97477Y114073D01*
X97424Y114126D01*
X97374Y114182D01*
X97326Y114240D01*
X97282Y114300D01*
X97240Y114363D01*
X97202Y114428D01*
X97167Y114494D01*
X97136Y114563D01*
X97108Y114632D01*
X97084Y114703D01*
X97063Y114776D01*
X97046Y114849D01*
X97033Y114923D01*
X97024Y114997D01*
X97018Y115072D01*
X97016Y115147D01*
X97016Y117616D01*
X97018Y117703D01*
X97024Y117791D01*
X97033Y117878D01*
X97047Y117964D01*
X97064Y118050D01*
X97085Y118134D01*
X97110Y118218D01*
X97139Y118301D01*
X97171Y118382D01*
X97206Y118462D01*
X97245Y118540D01*
X97288Y118617D01*
X97334Y118691D01*
X97383Y118763D01*
X97435Y118833D01*
X97491Y118901D01*
X97549Y118966D01*
X97610Y119029D01*
X97674Y119088D01*
X97741Y119145D01*
X97809Y119199D01*
X97881Y119250D01*
X97954Y119297D01*
X98029Y119342D01*
X98107Y119383D01*
X98186Y119420D01*
X98266Y119454D01*
X98348Y119484D01*
X98431Y119511D01*
X98516Y119534D01*
X98601Y119553D01*
X98687Y119568D01*
X98774Y119580D01*
X98861Y119588D01*
X98948Y119592D01*
X99036Y119592D01*
X99123Y119588D01*
X99210Y119580D01*
X99297Y119568D01*
X99383Y119553D01*
X99468Y119534D01*
X99553Y119511D01*
X99636Y119484D01*
X99718Y119454D01*
X99798Y119420D01*
X99877Y119383D01*
X99955Y119342D01*
X100030Y119297D01*
X100103Y119250D01*
X100175Y119199D01*
X100243Y119145D01*
X100310Y119088D01*
X100374Y119029D01*
X100435Y118966D01*
X100493Y118901D01*
X100549Y118833D01*
X100601Y118763D01*
X100650Y118691D01*
X100696Y118617D01*
X100739Y118540D01*
X100778Y118462D01*
X100813Y118382D01*
X100845Y118301D01*
X100874Y118218D01*
X100899Y118134D01*
X100920Y118050D01*
X100937Y117964D01*
X100951Y117878D01*
X100960Y117791D01*
X100966Y117703D01*
X100968Y117616D01*
X100967Y117616D02*
X100967Y116628D01*
X97016Y116628D01*
X106423Y113665D02*
X108892Y113665D01*
X106423Y113665D02*
X106348Y113667D01*
X106273Y113673D01*
X106199Y113682D01*
X106125Y113695D01*
X106052Y113712D01*
X105979Y113733D01*
X105908Y113757D01*
X105839Y113785D01*
X105770Y113816D01*
X105704Y113851D01*
X105639Y113889D01*
X105576Y113931D01*
X105516Y113975D01*
X105458Y114023D01*
X105402Y114073D01*
X105349Y114126D01*
X105299Y114182D01*
X105251Y114240D01*
X105207Y114300D01*
X105165Y114363D01*
X105127Y114428D01*
X105092Y114494D01*
X105061Y114563D01*
X105033Y114632D01*
X105009Y114703D01*
X104988Y114776D01*
X104971Y114849D01*
X104958Y114923D01*
X104949Y114997D01*
X104943Y115072D01*
X104941Y115147D01*
X104941Y117616D01*
X104940Y117616D02*
X104942Y117703D01*
X104948Y117791D01*
X104957Y117878D01*
X104971Y117964D01*
X104988Y118050D01*
X105009Y118134D01*
X105034Y118218D01*
X105063Y118301D01*
X105095Y118382D01*
X105130Y118462D01*
X105169Y118540D01*
X105212Y118617D01*
X105258Y118691D01*
X105307Y118763D01*
X105359Y118833D01*
X105415Y118901D01*
X105473Y118966D01*
X105534Y119029D01*
X105598Y119088D01*
X105665Y119145D01*
X105733Y119199D01*
X105805Y119250D01*
X105878Y119297D01*
X105953Y119342D01*
X106031Y119383D01*
X106110Y119420D01*
X106190Y119454D01*
X106272Y119484D01*
X106355Y119511D01*
X106440Y119534D01*
X106525Y119553D01*
X106611Y119568D01*
X106698Y119580D01*
X106785Y119588D01*
X106872Y119592D01*
X106960Y119592D01*
X107047Y119588D01*
X107134Y119580D01*
X107221Y119568D01*
X107307Y119553D01*
X107392Y119534D01*
X107477Y119511D01*
X107560Y119484D01*
X107642Y119454D01*
X107722Y119420D01*
X107801Y119383D01*
X107879Y119342D01*
X107954Y119297D01*
X108027Y119250D01*
X108099Y119199D01*
X108167Y119145D01*
X108234Y119088D01*
X108298Y119029D01*
X108359Y118966D01*
X108417Y118901D01*
X108473Y118833D01*
X108525Y118763D01*
X108574Y118691D01*
X108620Y118617D01*
X108663Y118540D01*
X108702Y118462D01*
X108737Y118382D01*
X108769Y118301D01*
X108798Y118218D01*
X108823Y118134D01*
X108844Y118050D01*
X108861Y117964D01*
X108875Y117878D01*
X108884Y117791D01*
X108890Y117703D01*
X108892Y117616D01*
X108892Y116628D01*
X104941Y116628D01*
X116756Y113665D02*
X116756Y122555D01*
X116756Y113665D02*
X114287Y113665D01*
X114212Y113667D01*
X114137Y113673D01*
X114063Y113682D01*
X113989Y113695D01*
X113916Y113712D01*
X113843Y113733D01*
X113772Y113757D01*
X113703Y113785D01*
X113634Y113816D01*
X113568Y113851D01*
X113503Y113889D01*
X113440Y113931D01*
X113380Y113975D01*
X113322Y114023D01*
X113266Y114073D01*
X113213Y114126D01*
X113163Y114182D01*
X113115Y114240D01*
X113071Y114300D01*
X113029Y114363D01*
X112991Y114428D01*
X112956Y114494D01*
X112925Y114563D01*
X112897Y114632D01*
X112873Y114703D01*
X112852Y114776D01*
X112835Y114849D01*
X112822Y114923D01*
X112813Y114997D01*
X112807Y115072D01*
X112805Y115147D01*
X112805Y118110D01*
X112807Y118185D01*
X112813Y118260D01*
X112822Y118334D01*
X112835Y118408D01*
X112852Y118481D01*
X112873Y118554D01*
X112897Y118625D01*
X112925Y118694D01*
X112956Y118763D01*
X112991Y118829D01*
X113029Y118894D01*
X113071Y118957D01*
X113115Y119017D01*
X113163Y119075D01*
X113213Y119131D01*
X113266Y119184D01*
X113322Y119234D01*
X113380Y119282D01*
X113440Y119326D01*
X113503Y119368D01*
X113568Y119406D01*
X113634Y119441D01*
X113703Y119472D01*
X113772Y119500D01*
X113843Y119524D01*
X113916Y119545D01*
X113989Y119562D01*
X114063Y119575D01*
X114137Y119584D01*
X114212Y119590D01*
X114287Y119592D01*
X116756Y119592D01*
X120275Y119592D02*
X123239Y119592D01*
X121263Y122555D02*
X121263Y115147D01*
X121265Y115072D01*
X121271Y114997D01*
X121280Y114923D01*
X121293Y114849D01*
X121310Y114776D01*
X121331Y114703D01*
X121355Y114632D01*
X121383Y114563D01*
X121414Y114494D01*
X121449Y114428D01*
X121487Y114363D01*
X121529Y114300D01*
X121573Y114240D01*
X121621Y114182D01*
X121671Y114126D01*
X121724Y114073D01*
X121780Y114023D01*
X121838Y113975D01*
X121898Y113931D01*
X121961Y113889D01*
X122026Y113851D01*
X122092Y113816D01*
X122161Y113785D01*
X122230Y113757D01*
X122301Y113733D01*
X122374Y113712D01*
X122447Y113695D01*
X122521Y113682D01*
X122595Y113673D01*
X122670Y113667D01*
X122745Y113665D01*
X123239Y113665D01*
X127191Y113665D02*
X127191Y122555D01*
X127191Y119592D02*
X129661Y119592D01*
X129736Y119590D01*
X129811Y119584D01*
X129885Y119575D01*
X129959Y119562D01*
X130032Y119545D01*
X130105Y119524D01*
X130176Y119500D01*
X130245Y119472D01*
X130314Y119441D01*
X130380Y119406D01*
X130445Y119368D01*
X130508Y119326D01*
X130568Y119282D01*
X130626Y119234D01*
X130682Y119184D01*
X130735Y119131D01*
X130785Y119075D01*
X130833Y119017D01*
X130877Y118957D01*
X130919Y118894D01*
X130957Y118829D01*
X130992Y118763D01*
X131023Y118694D01*
X131051Y118625D01*
X131075Y118554D01*
X131096Y118481D01*
X131113Y118408D01*
X131126Y118334D01*
X131135Y118260D01*
X131141Y118185D01*
X131143Y118110D01*
X131142Y118110D02*
X131142Y113665D01*
X135794Y113665D02*
X135794Y119592D01*
X138757Y119592D01*
X138757Y118604D01*
X141822Y117616D02*
X141822Y115641D01*
X141821Y117616D02*
X141823Y117703D01*
X141829Y117791D01*
X141838Y117878D01*
X141852Y117964D01*
X141869Y118050D01*
X141890Y118134D01*
X141915Y118218D01*
X141944Y118301D01*
X141976Y118382D01*
X142011Y118462D01*
X142050Y118540D01*
X142093Y118617D01*
X142139Y118691D01*
X142188Y118763D01*
X142240Y118833D01*
X142296Y118901D01*
X142354Y118966D01*
X142415Y119029D01*
X142479Y119088D01*
X142546Y119145D01*
X142614Y119199D01*
X142686Y119250D01*
X142759Y119297D01*
X142834Y119342D01*
X142912Y119383D01*
X142991Y119420D01*
X143071Y119454D01*
X143153Y119484D01*
X143236Y119511D01*
X143321Y119534D01*
X143406Y119553D01*
X143492Y119568D01*
X143579Y119580D01*
X143666Y119588D01*
X143753Y119592D01*
X143841Y119592D01*
X143928Y119588D01*
X144015Y119580D01*
X144102Y119568D01*
X144188Y119553D01*
X144273Y119534D01*
X144358Y119511D01*
X144441Y119484D01*
X144523Y119454D01*
X144603Y119420D01*
X144682Y119383D01*
X144760Y119342D01*
X144835Y119297D01*
X144908Y119250D01*
X144980Y119199D01*
X145048Y119145D01*
X145115Y119088D01*
X145179Y119029D01*
X145240Y118966D01*
X145298Y118901D01*
X145354Y118833D01*
X145406Y118763D01*
X145455Y118691D01*
X145501Y118617D01*
X145544Y118540D01*
X145583Y118462D01*
X145618Y118382D01*
X145650Y118301D01*
X145679Y118218D01*
X145704Y118134D01*
X145725Y118050D01*
X145742Y117964D01*
X145756Y117878D01*
X145765Y117791D01*
X145771Y117703D01*
X145773Y117616D01*
X145773Y115641D01*
X145771Y115554D01*
X145765Y115466D01*
X145756Y115379D01*
X145742Y115293D01*
X145725Y115207D01*
X145704Y115123D01*
X145679Y115039D01*
X145650Y114956D01*
X145618Y114875D01*
X145583Y114795D01*
X145544Y114717D01*
X145501Y114640D01*
X145455Y114566D01*
X145406Y114494D01*
X145354Y114424D01*
X145298Y114356D01*
X145240Y114291D01*
X145179Y114228D01*
X145115Y114169D01*
X145048Y114112D01*
X144980Y114058D01*
X144908Y114007D01*
X144835Y113960D01*
X144760Y113915D01*
X144682Y113874D01*
X144603Y113837D01*
X144523Y113803D01*
X144441Y113773D01*
X144358Y113746D01*
X144273Y113723D01*
X144188Y113704D01*
X144102Y113689D01*
X144015Y113677D01*
X143928Y113669D01*
X143841Y113665D01*
X143753Y113665D01*
X143666Y113669D01*
X143579Y113677D01*
X143492Y113689D01*
X143406Y113704D01*
X143321Y113723D01*
X143236Y113746D01*
X143153Y113773D01*
X143071Y113803D01*
X142991Y113837D01*
X142912Y113874D01*
X142834Y113915D01*
X142759Y113960D01*
X142686Y114007D01*
X142614Y114058D01*
X142546Y114112D01*
X142479Y114169D01*
X142415Y114228D01*
X142354Y114291D01*
X142296Y114356D01*
X142240Y114424D01*
X142188Y114494D01*
X142139Y114566D01*
X142093Y114640D01*
X142050Y114717D01*
X142011Y114795D01*
X141976Y114875D01*
X141944Y114956D01*
X141915Y115039D01*
X141890Y115123D01*
X141869Y115207D01*
X141852Y115293D01*
X141838Y115379D01*
X141829Y115466D01*
X141823Y115554D01*
X141821Y115641D01*
X150051Y115147D02*
X150051Y119592D01*
X150051Y115147D02*
X150053Y115072D01*
X150059Y114997D01*
X150068Y114923D01*
X150081Y114849D01*
X150098Y114776D01*
X150119Y114703D01*
X150143Y114632D01*
X150171Y114563D01*
X150202Y114494D01*
X150237Y114428D01*
X150275Y114363D01*
X150317Y114300D01*
X150361Y114240D01*
X150409Y114182D01*
X150459Y114126D01*
X150512Y114073D01*
X150568Y114023D01*
X150626Y113975D01*
X150686Y113931D01*
X150749Y113889D01*
X150814Y113851D01*
X150880Y113816D01*
X150949Y113785D01*
X151018Y113757D01*
X151089Y113733D01*
X151162Y113712D01*
X151235Y113695D01*
X151309Y113682D01*
X151383Y113673D01*
X151458Y113667D01*
X151533Y113665D01*
X154002Y113665D01*
X154002Y119592D01*
X159702Y113665D02*
X162171Y113665D01*
X159702Y113665D02*
X159627Y113667D01*
X159552Y113673D01*
X159478Y113682D01*
X159404Y113695D01*
X159331Y113712D01*
X159258Y113733D01*
X159187Y113757D01*
X159118Y113785D01*
X159049Y113816D01*
X158983Y113851D01*
X158918Y113889D01*
X158855Y113931D01*
X158795Y113975D01*
X158737Y114023D01*
X158681Y114073D01*
X158628Y114126D01*
X158578Y114182D01*
X158530Y114240D01*
X158486Y114300D01*
X158444Y114363D01*
X158406Y114428D01*
X158371Y114494D01*
X158340Y114563D01*
X158312Y114632D01*
X158288Y114703D01*
X158267Y114776D01*
X158250Y114849D01*
X158237Y114923D01*
X158228Y114997D01*
X158222Y115072D01*
X158220Y115147D01*
X158220Y118110D01*
X158222Y118185D01*
X158228Y118260D01*
X158237Y118334D01*
X158250Y118408D01*
X158267Y118481D01*
X158288Y118554D01*
X158312Y118625D01*
X158340Y118694D01*
X158371Y118763D01*
X158406Y118829D01*
X158444Y118894D01*
X158486Y118957D01*
X158530Y119017D01*
X158578Y119075D01*
X158628Y119131D01*
X158681Y119184D01*
X158737Y119234D01*
X158795Y119282D01*
X158855Y119326D01*
X158918Y119368D01*
X158983Y119406D01*
X159049Y119441D01*
X159118Y119472D01*
X159187Y119500D01*
X159258Y119524D01*
X159331Y119545D01*
X159404Y119562D01*
X159478Y119575D01*
X159552Y119584D01*
X159627Y119590D01*
X159702Y119592D01*
X162171Y119592D01*
X162171Y112183D01*
X162172Y112183D02*
X162170Y112108D01*
X162164Y112033D01*
X162155Y111959D01*
X162142Y111885D01*
X162125Y111812D01*
X162104Y111739D01*
X162080Y111668D01*
X162052Y111599D01*
X162021Y111530D01*
X161986Y111464D01*
X161948Y111399D01*
X161906Y111336D01*
X161862Y111276D01*
X161814Y111218D01*
X161764Y111162D01*
X161711Y111109D01*
X161655Y111059D01*
X161597Y111011D01*
X161537Y110967D01*
X161474Y110925D01*
X161409Y110887D01*
X161343Y110852D01*
X161274Y110821D01*
X161205Y110793D01*
X161134Y110769D01*
X161061Y110748D01*
X160988Y110731D01*
X160914Y110718D01*
X160840Y110709D01*
X160765Y110703D01*
X160690Y110701D01*
X160690Y110702D02*
X158714Y110702D01*
X166815Y113665D02*
X166815Y122555D01*
X166815Y119592D02*
X169284Y119592D01*
X169359Y119590D01*
X169434Y119584D01*
X169508Y119575D01*
X169582Y119562D01*
X169655Y119545D01*
X169728Y119524D01*
X169799Y119500D01*
X169868Y119472D01*
X169937Y119441D01*
X170003Y119406D01*
X170068Y119368D01*
X170131Y119326D01*
X170191Y119282D01*
X170249Y119234D01*
X170305Y119184D01*
X170358Y119131D01*
X170408Y119075D01*
X170456Y119017D01*
X170500Y118957D01*
X170542Y118894D01*
X170580Y118829D01*
X170615Y118763D01*
X170646Y118694D01*
X170674Y118625D01*
X170698Y118554D01*
X170719Y118481D01*
X170736Y118408D01*
X170749Y118334D01*
X170758Y118260D01*
X170764Y118185D01*
X170766Y118110D01*
X170766Y113665D01*
X114864Y108585D02*
X114864Y99695D01*
X112395Y108585D02*
X117334Y108585D01*
X122295Y99695D02*
X124765Y99695D01*
X122295Y99695D02*
X122220Y99697D01*
X122145Y99703D01*
X122071Y99712D01*
X121997Y99725D01*
X121924Y99742D01*
X121851Y99763D01*
X121780Y99787D01*
X121711Y99815D01*
X121642Y99846D01*
X121576Y99881D01*
X121511Y99919D01*
X121448Y99961D01*
X121388Y100005D01*
X121330Y100053D01*
X121274Y100103D01*
X121221Y100156D01*
X121171Y100212D01*
X121123Y100270D01*
X121079Y100330D01*
X121037Y100393D01*
X120999Y100458D01*
X120964Y100524D01*
X120933Y100593D01*
X120905Y100662D01*
X120881Y100733D01*
X120860Y100806D01*
X120843Y100879D01*
X120830Y100953D01*
X120821Y101027D01*
X120815Y101102D01*
X120813Y101177D01*
X120814Y101177D02*
X120814Y103646D01*
X120813Y103646D02*
X120815Y103733D01*
X120821Y103821D01*
X120830Y103908D01*
X120844Y103994D01*
X120861Y104080D01*
X120882Y104164D01*
X120907Y104248D01*
X120936Y104331D01*
X120968Y104412D01*
X121003Y104492D01*
X121042Y104570D01*
X121085Y104647D01*
X121131Y104721D01*
X121180Y104793D01*
X121232Y104863D01*
X121288Y104931D01*
X121346Y104996D01*
X121407Y105059D01*
X121471Y105118D01*
X121538Y105175D01*
X121606Y105229D01*
X121678Y105280D01*
X121751Y105327D01*
X121826Y105372D01*
X121904Y105413D01*
X121983Y105450D01*
X122063Y105484D01*
X122145Y105514D01*
X122228Y105541D01*
X122313Y105564D01*
X122398Y105583D01*
X122484Y105598D01*
X122571Y105610D01*
X122658Y105618D01*
X122745Y105622D01*
X122833Y105622D01*
X122920Y105618D01*
X123007Y105610D01*
X123094Y105598D01*
X123180Y105583D01*
X123265Y105564D01*
X123350Y105541D01*
X123433Y105514D01*
X123515Y105484D01*
X123595Y105450D01*
X123674Y105413D01*
X123752Y105372D01*
X123827Y105327D01*
X123900Y105280D01*
X123972Y105229D01*
X124040Y105175D01*
X124107Y105118D01*
X124171Y105059D01*
X124232Y104996D01*
X124290Y104931D01*
X124346Y104863D01*
X124398Y104793D01*
X124447Y104721D01*
X124493Y104647D01*
X124536Y104570D01*
X124575Y104492D01*
X124610Y104412D01*
X124642Y104331D01*
X124671Y104248D01*
X124696Y104164D01*
X124717Y104080D01*
X124734Y103994D01*
X124748Y103908D01*
X124757Y103821D01*
X124763Y103733D01*
X124765Y103646D01*
X124765Y102658D01*
X120814Y102658D01*
X129111Y99695D02*
X129111Y105622D01*
X132075Y105622D01*
X132075Y104634D01*
X135675Y105622D02*
X135675Y99695D01*
X135675Y105622D02*
X140120Y105622D01*
X140195Y105620D01*
X140270Y105614D01*
X140344Y105605D01*
X140418Y105592D01*
X140491Y105575D01*
X140564Y105554D01*
X140635Y105530D01*
X140704Y105502D01*
X140773Y105471D01*
X140839Y105436D01*
X140904Y105398D01*
X140967Y105356D01*
X141027Y105312D01*
X141085Y105264D01*
X141141Y105214D01*
X141194Y105161D01*
X141244Y105105D01*
X141292Y105047D01*
X141336Y104987D01*
X141378Y104924D01*
X141416Y104859D01*
X141451Y104793D01*
X141482Y104724D01*
X141510Y104655D01*
X141534Y104584D01*
X141555Y104511D01*
X141572Y104438D01*
X141585Y104364D01*
X141594Y104290D01*
X141600Y104215D01*
X141602Y104140D01*
X141602Y99695D01*
X138639Y99695D02*
X138639Y105622D01*
X114935Y53975D02*
X117898Y49777D01*
X120862Y53975D01*
X117898Y49777D02*
X117898Y45085D01*
X126125Y48542D02*
X128348Y48542D01*
X126125Y48543D02*
X126043Y48541D01*
X125961Y48535D01*
X125879Y48525D01*
X125798Y48512D01*
X125717Y48494D01*
X125638Y48473D01*
X125559Y48448D01*
X125482Y48419D01*
X125407Y48387D01*
X125333Y48351D01*
X125261Y48311D01*
X125190Y48269D01*
X125122Y48222D01*
X125056Y48173D01*
X124993Y48121D01*
X124932Y48065D01*
X124874Y48007D01*
X124818Y47946D01*
X124766Y47883D01*
X124717Y47817D01*
X124670Y47749D01*
X124628Y47679D01*
X124588Y47606D01*
X124552Y47532D01*
X124520Y47457D01*
X124491Y47380D01*
X124466Y47301D01*
X124445Y47222D01*
X124427Y47141D01*
X124414Y47060D01*
X124404Y46978D01*
X124398Y46896D01*
X124396Y46814D01*
X124398Y46732D01*
X124404Y46650D01*
X124414Y46568D01*
X124427Y46487D01*
X124445Y46406D01*
X124466Y46327D01*
X124491Y46248D01*
X124520Y46171D01*
X124552Y46096D01*
X124588Y46022D01*
X124628Y45950D01*
X124670Y45879D01*
X124717Y45811D01*
X124766Y45745D01*
X124818Y45682D01*
X124874Y45621D01*
X124932Y45563D01*
X124993Y45507D01*
X125056Y45455D01*
X125122Y45406D01*
X125190Y45359D01*
X125260Y45317D01*
X125333Y45277D01*
X125407Y45241D01*
X125482Y45209D01*
X125559Y45180D01*
X125638Y45155D01*
X125717Y45134D01*
X125798Y45116D01*
X125879Y45103D01*
X125961Y45093D01*
X126043Y45087D01*
X126125Y45085D01*
X128348Y45085D01*
X128348Y49530D01*
X128346Y49605D01*
X128340Y49680D01*
X128331Y49754D01*
X128318Y49828D01*
X128301Y49901D01*
X128280Y49974D01*
X128256Y50045D01*
X128228Y50114D01*
X128197Y50183D01*
X128162Y50249D01*
X128124Y50314D01*
X128082Y50377D01*
X128038Y50437D01*
X127990Y50495D01*
X127940Y50551D01*
X127887Y50604D01*
X127831Y50654D01*
X127773Y50702D01*
X127713Y50746D01*
X127650Y50788D01*
X127585Y50826D01*
X127519Y50861D01*
X127450Y50892D01*
X127381Y50920D01*
X127310Y50944D01*
X127237Y50965D01*
X127164Y50982D01*
X127090Y50995D01*
X127016Y51004D01*
X126941Y51010D01*
X126866Y51012D01*
X124891Y51012D01*
X133052Y51012D02*
X133052Y42122D01*
X133052Y51012D02*
X135521Y51012D01*
X135596Y51010D01*
X135671Y51004D01*
X135745Y50995D01*
X135819Y50982D01*
X135892Y50965D01*
X135965Y50944D01*
X136036Y50920D01*
X136105Y50892D01*
X136174Y50861D01*
X136240Y50826D01*
X136305Y50788D01*
X136368Y50746D01*
X136428Y50702D01*
X136486Y50654D01*
X136542Y50604D01*
X136595Y50551D01*
X136645Y50495D01*
X136693Y50437D01*
X136737Y50377D01*
X136779Y50314D01*
X136817Y50249D01*
X136852Y50183D01*
X136883Y50114D01*
X136911Y50045D01*
X136935Y49974D01*
X136956Y49901D01*
X136973Y49828D01*
X136986Y49754D01*
X136995Y49680D01*
X137001Y49605D01*
X137003Y49530D01*
X137003Y46567D01*
X137001Y46492D01*
X136995Y46417D01*
X136986Y46343D01*
X136973Y46269D01*
X136956Y46196D01*
X136935Y46123D01*
X136911Y46052D01*
X136883Y45983D01*
X136852Y45914D01*
X136817Y45848D01*
X136779Y45783D01*
X136737Y45720D01*
X136693Y45660D01*
X136645Y45602D01*
X136595Y45546D01*
X136542Y45493D01*
X136486Y45443D01*
X136428Y45395D01*
X136368Y45351D01*
X136305Y45309D01*
X136240Y45271D01*
X136174Y45236D01*
X136105Y45205D01*
X136036Y45177D01*
X135965Y45153D01*
X135892Y45132D01*
X135819Y45115D01*
X135745Y45102D01*
X135671Y45093D01*
X135596Y45087D01*
X135521Y45085D01*
X133052Y45085D01*
X140916Y47061D02*
X140916Y49036D01*
X140918Y49123D01*
X140924Y49211D01*
X140933Y49298D01*
X140947Y49384D01*
X140964Y49470D01*
X140985Y49554D01*
X141010Y49638D01*
X141039Y49721D01*
X141071Y49802D01*
X141106Y49882D01*
X141145Y49960D01*
X141188Y50037D01*
X141234Y50111D01*
X141283Y50183D01*
X141335Y50253D01*
X141391Y50321D01*
X141449Y50386D01*
X141510Y50449D01*
X141574Y50508D01*
X141641Y50565D01*
X141709Y50619D01*
X141781Y50670D01*
X141854Y50717D01*
X141929Y50762D01*
X142007Y50803D01*
X142086Y50840D01*
X142166Y50874D01*
X142248Y50904D01*
X142331Y50931D01*
X142416Y50954D01*
X142501Y50973D01*
X142587Y50988D01*
X142674Y51000D01*
X142761Y51008D01*
X142848Y51012D01*
X142936Y51012D01*
X143023Y51008D01*
X143110Y51000D01*
X143197Y50988D01*
X143283Y50973D01*
X143368Y50954D01*
X143453Y50931D01*
X143536Y50904D01*
X143618Y50874D01*
X143698Y50840D01*
X143777Y50803D01*
X143855Y50762D01*
X143930Y50717D01*
X144003Y50670D01*
X144075Y50619D01*
X144143Y50565D01*
X144210Y50508D01*
X144274Y50449D01*
X144335Y50386D01*
X144393Y50321D01*
X144449Y50253D01*
X144501Y50183D01*
X144550Y50111D01*
X144596Y50037D01*
X144639Y49960D01*
X144678Y49882D01*
X144713Y49802D01*
X144745Y49721D01*
X144774Y49638D01*
X144799Y49554D01*
X144820Y49470D01*
X144837Y49384D01*
X144851Y49298D01*
X144860Y49211D01*
X144866Y49123D01*
X144868Y49036D01*
X144867Y49036D02*
X144867Y47061D01*
X144868Y47061D02*
X144866Y46974D01*
X144860Y46886D01*
X144851Y46799D01*
X144837Y46713D01*
X144820Y46627D01*
X144799Y46543D01*
X144774Y46459D01*
X144745Y46376D01*
X144713Y46295D01*
X144678Y46215D01*
X144639Y46137D01*
X144596Y46060D01*
X144550Y45986D01*
X144501Y45914D01*
X144449Y45844D01*
X144393Y45776D01*
X144335Y45711D01*
X144274Y45648D01*
X144210Y45589D01*
X144143Y45532D01*
X144075Y45478D01*
X144003Y45427D01*
X143930Y45380D01*
X143855Y45335D01*
X143777Y45294D01*
X143698Y45257D01*
X143618Y45223D01*
X143536Y45193D01*
X143453Y45166D01*
X143368Y45143D01*
X143283Y45124D01*
X143197Y45109D01*
X143110Y45097D01*
X143023Y45089D01*
X142936Y45085D01*
X142848Y45085D01*
X142761Y45089D01*
X142674Y45097D01*
X142587Y45109D01*
X142501Y45124D01*
X142416Y45143D01*
X142331Y45166D01*
X142248Y45193D01*
X142166Y45223D01*
X142086Y45257D01*
X142007Y45294D01*
X141929Y45335D01*
X141854Y45380D01*
X141781Y45427D01*
X141709Y45478D01*
X141641Y45532D01*
X141574Y45589D01*
X141510Y45648D01*
X141449Y45711D01*
X141391Y45776D01*
X141335Y45844D01*
X141283Y45914D01*
X141234Y45986D01*
X141188Y46060D01*
X141145Y46137D01*
X141106Y46215D01*
X141071Y46295D01*
X141039Y46376D01*
X141010Y46459D01*
X140985Y46543D01*
X140964Y46627D01*
X140947Y46713D01*
X140933Y46799D01*
X140924Y46886D01*
X140918Y46974D01*
X140916Y47061D01*
X119874Y32703D02*
X119872Y32795D01*
X119866Y32887D01*
X119857Y32978D01*
X119844Y33069D01*
X119827Y33159D01*
X119806Y33249D01*
X119782Y33337D01*
X119754Y33425D01*
X119722Y33511D01*
X119687Y33596D01*
X119648Y33679D01*
X119606Y33761D01*
X119561Y33841D01*
X119512Y33919D01*
X119460Y33995D01*
X119405Y34068D01*
X119347Y34140D01*
X119287Y34209D01*
X119223Y34275D01*
X119157Y34339D01*
X119088Y34399D01*
X119016Y34457D01*
X118943Y34512D01*
X118867Y34564D01*
X118789Y34613D01*
X118709Y34658D01*
X118627Y34700D01*
X118544Y34739D01*
X118459Y34774D01*
X118373Y34806D01*
X118285Y34834D01*
X118197Y34858D01*
X118107Y34879D01*
X118017Y34896D01*
X117926Y34909D01*
X117835Y34918D01*
X117743Y34924D01*
X117651Y34926D01*
X117651Y34925D02*
X117545Y34923D01*
X117440Y34917D01*
X117335Y34907D01*
X117230Y34894D01*
X117126Y34876D01*
X117023Y34855D01*
X116920Y34830D01*
X116818Y34801D01*
X116718Y34768D01*
X116619Y34732D01*
X116521Y34692D01*
X116425Y34648D01*
X116330Y34601D01*
X116238Y34551D01*
X116147Y34497D01*
X116058Y34439D01*
X115972Y34379D01*
X115888Y34315D01*
X115806Y34249D01*
X115726Y34179D01*
X115650Y34106D01*
X115576Y34031D01*
X115505Y33953D01*
X115437Y33872D01*
X115371Y33789D01*
X115309Y33703D01*
X115251Y33616D01*
X115195Y33526D01*
X115143Y33434D01*
X115094Y33340D01*
X115049Y33245D01*
X115007Y33148D01*
X114969Y33049D01*
X114935Y32950D01*
X119133Y30974D02*
X119202Y31043D01*
X119268Y31113D01*
X119331Y31187D01*
X119390Y31263D01*
X119447Y31341D01*
X119501Y31421D01*
X119551Y31504D01*
X119598Y31588D01*
X119641Y31675D01*
X119681Y31763D01*
X119717Y31852D01*
X119750Y31943D01*
X119779Y32035D01*
X119804Y32129D01*
X119825Y32223D01*
X119843Y32318D01*
X119856Y32414D01*
X119866Y32510D01*
X119872Y32606D01*
X119874Y32703D01*
X119133Y30974D02*
X114935Y26035D01*
X119874Y26035D01*
X124079Y30480D02*
X124081Y30655D01*
X124087Y30830D01*
X124098Y31004D01*
X124112Y31179D01*
X124131Y31352D01*
X124154Y31526D01*
X124181Y31699D01*
X124212Y31871D01*
X124247Y32042D01*
X124287Y32212D01*
X124330Y32382D01*
X124378Y32550D01*
X124429Y32717D01*
X124484Y32883D01*
X124544Y33048D01*
X124607Y33211D01*
X124674Y33372D01*
X124745Y33532D01*
X124820Y33690D01*
X124820Y33691D02*
X124849Y33769D01*
X124881Y33847D01*
X124918Y33922D01*
X124957Y33996D01*
X125000Y34068D01*
X125046Y34139D01*
X125096Y34206D01*
X125148Y34272D01*
X125203Y34335D01*
X125262Y34395D01*
X125323Y34453D01*
X125386Y34508D01*
X125452Y34560D01*
X125521Y34609D01*
X125591Y34654D01*
X125663Y34697D01*
X125738Y34736D01*
X125814Y34771D01*
X125891Y34803D01*
X125970Y34831D01*
X126051Y34856D01*
X126132Y34877D01*
X126214Y34894D01*
X126297Y34908D01*
X126380Y34917D01*
X126464Y34923D01*
X126548Y34925D01*
X126632Y34923D01*
X126716Y34917D01*
X126799Y34908D01*
X126882Y34894D01*
X126964Y34877D01*
X127045Y34856D01*
X127126Y34831D01*
X127205Y34803D01*
X127282Y34771D01*
X127358Y34736D01*
X127433Y34697D01*
X127505Y34654D01*
X127576Y34609D01*
X127644Y34560D01*
X127710Y34508D01*
X127773Y34453D01*
X127834Y34395D01*
X127893Y34335D01*
X127948Y34272D01*
X128000Y34206D01*
X128050Y34139D01*
X128096Y34068D01*
X128139Y33996D01*
X128178Y33922D01*
X128215Y33847D01*
X128247Y33769D01*
X128276Y33690D01*
X128277Y33690D02*
X128352Y33532D01*
X128423Y33372D01*
X128490Y33211D01*
X128553Y33048D01*
X128613Y32883D01*
X128668Y32717D01*
X128719Y32550D01*
X128767Y32382D01*
X128810Y32212D01*
X128850Y32042D01*
X128885Y31871D01*
X128916Y31699D01*
X128943Y31526D01*
X128966Y31352D01*
X128985Y31179D01*
X128999Y31004D01*
X129010Y30830D01*
X129016Y30655D01*
X129018Y30480D01*
X124079Y30480D02*
X124081Y30305D01*
X124087Y30130D01*
X124098Y29956D01*
X124112Y29781D01*
X124131Y29608D01*
X124154Y29434D01*
X124181Y29261D01*
X124212Y29089D01*
X124247Y28918D01*
X124287Y28748D01*
X124330Y28578D01*
X124378Y28410D01*
X124429Y28243D01*
X124484Y28077D01*
X124544Y27912D01*
X124607Y27749D01*
X124674Y27588D01*
X124745Y27428D01*
X124820Y27270D01*
X124820Y27269D02*
X124849Y27191D01*
X124881Y27113D01*
X124918Y27038D01*
X124957Y26964D01*
X125000Y26891D01*
X125046Y26821D01*
X125096Y26754D01*
X125148Y26688D01*
X125204Y26625D01*
X125262Y26565D01*
X125323Y26507D01*
X125386Y26452D01*
X125452Y26400D01*
X125521Y26351D01*
X125591Y26306D01*
X125663Y26263D01*
X125738Y26224D01*
X125814Y26189D01*
X125891Y26157D01*
X125970Y26129D01*
X126051Y26104D01*
X126132Y26083D01*
X126214Y26066D01*
X126297Y26052D01*
X126380Y26043D01*
X126464Y26037D01*
X126548Y26035D01*
X128277Y27270D02*
X128352Y27428D01*
X128423Y27588D01*
X128490Y27749D01*
X128553Y27912D01*
X128613Y28077D01*
X128668Y28243D01*
X128719Y28410D01*
X128767Y28578D01*
X128810Y28748D01*
X128850Y28918D01*
X128885Y29089D01*
X128916Y29261D01*
X128943Y29434D01*
X128966Y29608D01*
X128985Y29781D01*
X128999Y29956D01*
X129010Y30130D01*
X129016Y30305D01*
X129018Y30480D01*
X128276Y27269D02*
X128247Y27191D01*
X128215Y27113D01*
X128178Y27038D01*
X128139Y26964D01*
X128096Y26892D01*
X128050Y26821D01*
X128000Y26754D01*
X127948Y26688D01*
X127893Y26625D01*
X127834Y26565D01*
X127773Y26507D01*
X127710Y26452D01*
X127644Y26400D01*
X127576Y26351D01*
X127505Y26306D01*
X127433Y26263D01*
X127358Y26224D01*
X127282Y26189D01*
X127205Y26157D01*
X127126Y26129D01*
X127045Y26104D01*
X126964Y26083D01*
X126882Y26066D01*
X126799Y26052D01*
X126716Y26043D01*
X126632Y26037D01*
X126548Y26035D01*
X124573Y28011D02*
X128524Y32949D01*
X135939Y34926D02*
X136031Y34924D01*
X136123Y34918D01*
X136214Y34909D01*
X136305Y34896D01*
X136395Y34879D01*
X136485Y34858D01*
X136573Y34834D01*
X136661Y34806D01*
X136747Y34774D01*
X136832Y34739D01*
X136915Y34700D01*
X136997Y34658D01*
X137077Y34613D01*
X137155Y34564D01*
X137231Y34512D01*
X137304Y34457D01*
X137376Y34399D01*
X137445Y34339D01*
X137511Y34275D01*
X137575Y34209D01*
X137635Y34140D01*
X137693Y34068D01*
X137748Y33995D01*
X137800Y33919D01*
X137849Y33841D01*
X137894Y33761D01*
X137936Y33679D01*
X137975Y33596D01*
X138010Y33511D01*
X138042Y33425D01*
X138070Y33337D01*
X138094Y33249D01*
X138115Y33159D01*
X138132Y33069D01*
X138145Y32978D01*
X138154Y32887D01*
X138160Y32795D01*
X138162Y32703D01*
X135939Y34925D02*
X135833Y34923D01*
X135728Y34917D01*
X135623Y34907D01*
X135518Y34894D01*
X135414Y34876D01*
X135311Y34855D01*
X135208Y34830D01*
X135106Y34801D01*
X135006Y34768D01*
X134907Y34732D01*
X134809Y34692D01*
X134713Y34648D01*
X134618Y34601D01*
X134526Y34551D01*
X134435Y34497D01*
X134346Y34439D01*
X134260Y34379D01*
X134176Y34315D01*
X134094Y34249D01*
X134014Y34179D01*
X133938Y34106D01*
X133864Y34031D01*
X133793Y33953D01*
X133725Y33872D01*
X133659Y33789D01*
X133597Y33703D01*
X133539Y33616D01*
X133483Y33526D01*
X133431Y33434D01*
X133382Y33340D01*
X133337Y33245D01*
X133295Y33148D01*
X133257Y33049D01*
X133223Y32950D01*
X137421Y30974D02*
X137490Y31043D01*
X137556Y31113D01*
X137619Y31187D01*
X137678Y31263D01*
X137735Y31341D01*
X137789Y31421D01*
X137839Y31504D01*
X137886Y31588D01*
X137929Y31675D01*
X137969Y31763D01*
X138005Y31852D01*
X138038Y31943D01*
X138067Y32035D01*
X138092Y32129D01*
X138113Y32223D01*
X138131Y32318D01*
X138144Y32414D01*
X138154Y32510D01*
X138160Y32606D01*
X138162Y32703D01*
X137421Y30974D02*
X133223Y26035D01*
X138162Y26035D01*
X142367Y30480D02*
X142369Y30655D01*
X142375Y30830D01*
X142386Y31004D01*
X142400Y31179D01*
X142419Y31352D01*
X142442Y31526D01*
X142469Y31699D01*
X142500Y31871D01*
X142535Y32042D01*
X142575Y32212D01*
X142618Y32382D01*
X142666Y32550D01*
X142717Y32717D01*
X142772Y32883D01*
X142832Y33048D01*
X142895Y33211D01*
X142962Y33372D01*
X143033Y33532D01*
X143108Y33690D01*
X143108Y33691D02*
X143137Y33769D01*
X143169Y33847D01*
X143206Y33922D01*
X143245Y33996D01*
X143288Y34068D01*
X143334Y34139D01*
X143384Y34206D01*
X143436Y34272D01*
X143491Y34335D01*
X143550Y34395D01*
X143611Y34453D01*
X143674Y34508D01*
X143740Y34560D01*
X143809Y34609D01*
X143879Y34654D01*
X143951Y34697D01*
X144026Y34736D01*
X144102Y34771D01*
X144179Y34803D01*
X144258Y34831D01*
X144339Y34856D01*
X144420Y34877D01*
X144502Y34894D01*
X144585Y34908D01*
X144668Y34917D01*
X144752Y34923D01*
X144836Y34925D01*
X144920Y34923D01*
X145004Y34917D01*
X145087Y34908D01*
X145170Y34894D01*
X145252Y34877D01*
X145333Y34856D01*
X145414Y34831D01*
X145493Y34803D01*
X145570Y34771D01*
X145646Y34736D01*
X145721Y34697D01*
X145793Y34654D01*
X145864Y34609D01*
X145932Y34560D01*
X145998Y34508D01*
X146061Y34453D01*
X146122Y34395D01*
X146181Y34335D01*
X146236Y34272D01*
X146288Y34206D01*
X146338Y34139D01*
X146384Y34068D01*
X146427Y33996D01*
X146466Y33922D01*
X146503Y33847D01*
X146535Y33769D01*
X146564Y33690D01*
X146565Y33690D02*
X146640Y33532D01*
X146711Y33372D01*
X146778Y33211D01*
X146841Y33048D01*
X146901Y32883D01*
X146956Y32717D01*
X147007Y32550D01*
X147055Y32382D01*
X147098Y32212D01*
X147138Y32042D01*
X147173Y31871D01*
X147204Y31699D01*
X147231Y31526D01*
X147254Y31352D01*
X147273Y31179D01*
X147287Y31004D01*
X147298Y30830D01*
X147304Y30655D01*
X147306Y30480D01*
X142367Y30480D02*
X142369Y30305D01*
X142375Y30130D01*
X142386Y29956D01*
X142400Y29781D01*
X142419Y29608D01*
X142442Y29434D01*
X142469Y29261D01*
X142500Y29089D01*
X142535Y28918D01*
X142575Y28748D01*
X142618Y28578D01*
X142666Y28410D01*
X142717Y28243D01*
X142772Y28077D01*
X142832Y27912D01*
X142895Y27749D01*
X142962Y27588D01*
X143033Y27428D01*
X143108Y27270D01*
X143108Y27269D02*
X143137Y27191D01*
X143169Y27113D01*
X143206Y27038D01*
X143245Y26964D01*
X143288Y26891D01*
X143334Y26821D01*
X143384Y26754D01*
X143436Y26688D01*
X143492Y26625D01*
X143550Y26565D01*
X143611Y26507D01*
X143674Y26452D01*
X143740Y26400D01*
X143809Y26351D01*
X143879Y26306D01*
X143951Y26263D01*
X144026Y26224D01*
X144102Y26189D01*
X144179Y26157D01*
X144258Y26129D01*
X144339Y26104D01*
X144420Y26083D01*
X144502Y26066D01*
X144585Y26052D01*
X144668Y26043D01*
X144752Y26037D01*
X144836Y26035D01*
X146565Y27270D02*
X146640Y27428D01*
X146711Y27588D01*
X146778Y27749D01*
X146841Y27912D01*
X146901Y28077D01*
X146956Y28243D01*
X147007Y28410D01*
X147055Y28578D01*
X147098Y28748D01*
X147138Y28918D01*
X147173Y29089D01*
X147204Y29261D01*
X147231Y29434D01*
X147254Y29608D01*
X147273Y29781D01*
X147287Y29956D01*
X147298Y30130D01*
X147304Y30305D01*
X147306Y30480D01*
X146564Y27269D02*
X146535Y27191D01*
X146503Y27113D01*
X146466Y27038D01*
X146427Y26964D01*
X146384Y26892D01*
X146338Y26821D01*
X146288Y26754D01*
X146236Y26688D01*
X146181Y26625D01*
X146122Y26565D01*
X146061Y26507D01*
X145998Y26452D01*
X145932Y26400D01*
X145864Y26351D01*
X145793Y26306D01*
X145721Y26263D01*
X145646Y26224D01*
X145570Y26189D01*
X145493Y26157D01*
X145414Y26129D01*
X145333Y26104D01*
X145252Y26083D01*
X145170Y26066D01*
X145087Y26052D01*
X145004Y26043D01*
X144920Y26037D01*
X144836Y26035D01*
X142861Y28011D02*
X146812Y32949D01*
D11*
X9398Y76200D02*
X9412Y77372D01*
X9456Y78543D01*
X9527Y79713D01*
X9628Y80881D01*
X9757Y82045D01*
X9915Y83207D01*
X10101Y84364D01*
X10316Y85516D01*
X10558Y86663D01*
X10829Y87803D01*
X11128Y88936D01*
X11454Y90062D01*
X11808Y91179D01*
X12189Y92287D01*
X12598Y93386D01*
X13033Y94474D01*
X13495Y95551D01*
X13983Y96617D01*
X14497Y97670D01*
X15036Y98710D01*
X15602Y99737D01*
X16192Y100749D01*
X16807Y101747D01*
X17446Y102730D01*
X18109Y103696D01*
X18795Y104646D01*
X19505Y105579D01*
X20237Y106494D01*
X20992Y107390D01*
X21768Y108268D01*
X22566Y109127D01*
X23384Y109966D01*
X24223Y110784D01*
X25082Y111582D01*
X25960Y112358D01*
X26856Y113113D01*
X27771Y113845D01*
X28704Y114555D01*
X29654Y115241D01*
X30620Y115904D01*
X31603Y116543D01*
X32601Y117158D01*
X33613Y117748D01*
X34640Y118314D01*
X35680Y118853D01*
X36733Y119367D01*
X37799Y119855D01*
X38876Y120317D01*
X39964Y120752D01*
X41063Y121161D01*
X42171Y121542D01*
X43288Y121896D01*
X44414Y122222D01*
X45547Y122521D01*
X46687Y122792D01*
X47834Y123034D01*
X48986Y123249D01*
X50143Y123435D01*
X51305Y123593D01*
X52469Y123722D01*
X53637Y123823D01*
X54807Y123894D01*
X55978Y123938D01*
X57150Y123952D01*
X58322Y123938D01*
X59493Y123894D01*
X60663Y123823D01*
X61831Y123722D01*
X62995Y123593D01*
X64157Y123435D01*
X65314Y123249D01*
X66466Y123034D01*
X67613Y122792D01*
X68753Y122521D01*
X69886Y122222D01*
X71012Y121896D01*
X72129Y121542D01*
X73237Y121161D01*
X74336Y120752D01*
X75424Y120317D01*
X76501Y119855D01*
X77567Y119367D01*
X78620Y118853D01*
X79660Y118314D01*
X80687Y117748D01*
X81699Y117158D01*
X82697Y116543D01*
X83680Y115904D01*
X84646Y115241D01*
X85596Y114555D01*
X86529Y113845D01*
X87444Y113113D01*
X88340Y112358D01*
X89218Y111582D01*
X90077Y110784D01*
X90916Y109966D01*
X91734Y109127D01*
X92532Y108268D01*
X93308Y107390D01*
X94063Y106494D01*
X94795Y105579D01*
X95505Y104646D01*
X96191Y103696D01*
X96854Y102730D01*
X97493Y101747D01*
X98108Y100749D01*
X98698Y99737D01*
X99264Y98710D01*
X99803Y97670D01*
X100317Y96617D01*
X100805Y95551D01*
X101267Y94474D01*
X101702Y93386D01*
X102111Y92287D01*
X102492Y91179D01*
X102846Y90062D01*
X103172Y88936D01*
X103471Y87803D01*
X103742Y86663D01*
X103984Y85516D01*
X104199Y84364D01*
X104385Y83207D01*
X104543Y82045D01*
X104672Y80881D01*
X104773Y79713D01*
X104844Y78543D01*
X104888Y77372D01*
X104902Y76200D01*
X104888Y75028D01*
X104844Y73857D01*
X104773Y72687D01*
X104672Y71519D01*
X104543Y70355D01*
X104385Y69193D01*
X104199Y68036D01*
X103984Y66884D01*
X103742Y65737D01*
X103471Y64597D01*
X103172Y63464D01*
X102846Y62338D01*
X102492Y61221D01*
X102111Y60113D01*
X101702Y59014D01*
X101267Y57926D01*
X100805Y56849D01*
X100317Y55783D01*
X99803Y54730D01*
X99264Y53690D01*
X98698Y52663D01*
X98108Y51651D01*
X97493Y50653D01*
X96854Y49670D01*
X96191Y48704D01*
X95505Y47754D01*
X94795Y46821D01*
X94063Y45906D01*
X93308Y45010D01*
X92532Y44132D01*
X91734Y43273D01*
X90916Y42434D01*
X90077Y41616D01*
X89218Y40818D01*
X88340Y40042D01*
X87444Y39287D01*
X86529Y38555D01*
X85596Y37845D01*
X84646Y37159D01*
X83680Y36496D01*
X82697Y35857D01*
X81699Y35242D01*
X80687Y34652D01*
X79660Y34086D01*
X78620Y33547D01*
X77567Y33033D01*
X76501Y32545D01*
X75424Y32083D01*
X74336Y31648D01*
X73237Y31239D01*
X72129Y30858D01*
X71012Y30504D01*
X69886Y30178D01*
X68753Y29879D01*
X67613Y29608D01*
X66466Y29366D01*
X65314Y29151D01*
X64157Y28965D01*
X62995Y28807D01*
X61831Y28678D01*
X60663Y28577D01*
X59493Y28506D01*
X58322Y28462D01*
X57150Y28448D01*
X55978Y28462D01*
X54807Y28506D01*
X53637Y28577D01*
X52469Y28678D01*
X51305Y28807D01*
X50143Y28965D01*
X48986Y29151D01*
X47834Y29366D01*
X46687Y29608D01*
X45547Y29879D01*
X44414Y30178D01*
X43288Y30504D01*
X42171Y30858D01*
X41063Y31239D01*
X39964Y31648D01*
X38876Y32083D01*
X37799Y32545D01*
X36733Y33033D01*
X35680Y33547D01*
X34640Y34086D01*
X33613Y34652D01*
X32601Y35242D01*
X31603Y35857D01*
X30620Y36496D01*
X29654Y37159D01*
X28704Y37845D01*
X27771Y38555D01*
X26856Y39287D01*
X25960Y40042D01*
X25082Y40818D01*
X24223Y41616D01*
X23384Y42434D01*
X22566Y43273D01*
X21768Y44132D01*
X20992Y45010D01*
X20237Y45906D01*
X19505Y46821D01*
X18795Y47754D01*
X18109Y48704D01*
X17446Y49670D01*
X16807Y50653D01*
X16192Y51651D01*
X15602Y52663D01*
X15036Y53690D01*
X14497Y54730D01*
X13983Y55783D01*
X13495Y56849D01*
X13033Y57926D01*
X12598Y59014D01*
X12189Y60113D01*
X11808Y61221D01*
X11454Y62338D01*
X11128Y63464D01*
X10829Y64597D01*
X10558Y65737D01*
X10316Y66884D01*
X10101Y68036D01*
X9915Y69193D01*
X9757Y70355D01*
X9628Y71519D01*
X9527Y72687D01*
X9456Y73857D01*
X9412Y75028D01*
X9398Y76200D01*
D10*
X110460Y83200D02*
X138460Y83200D01*
X138460Y69200D01*
X110460Y69200D01*
X110460Y83200D01*
M02*
