M48
;GenerationSoftware,Autodesk,EAGLE,9.6.1*%
;CreationDate,2020-06-16T02:20:21Z*%
FMAT,2
ICI,OFF
METRIC,TZ,000.000
T5C0.300
T4C0.400
T3C1.270
T2C1.321
%
G90
M71
T2
X18590Y4620
X24590Y4620
X24590Y10620
X18590Y10620
X8255Y5080
X3175Y5080
X3175Y10160
X8255Y10160
T3
X5715Y7620
X21590Y7620
T4
X24765Y13970
X27305Y13970
X10160Y8890
X1905Y11430
X1905Y3810
X27305Y11430
X27305Y3810
X27305Y6350
X27305Y8890
X12700Y8890
X12700Y6350
X21590Y11430
X22767Y11246
X25218Y8806
X25407Y7629
X25223Y6452
X22782Y4001
X21606Y3812
X20428Y3996
X20413Y11241
X12065Y13970
X12065Y1270
X4543Y11243
X10160Y6350
X15240Y8890
X15240Y6350
X17780Y8890
X17780Y6350
X5715Y11938
X6887Y11246
X6898Y4032
X5726Y3336
X4554Y4028
X2115Y6460
X1420Y7632
X2112Y8804
X22225Y13970
X1905Y1270
X22225Y1270
X19685Y13970
X17145Y13970
X14605Y13970
X9525Y13970
X6985Y13970
X4445Y13970
X1905Y13970
X27305Y1270
X24765Y1270
X4445Y1270
X19685Y1270
X17145Y1270
X14605Y1270
X9525Y1270
X6985Y1270
T5
X14732Y7620
X14097Y7620
X10160Y7620
X10795Y7620
M30