G04 EAGLE Gerber RS-274X export*
G75*
%MOMM*%
%FSLAX34Y34*%
%LPD*%
%INSilkscreen Top*%
%IPPOS*%
%AMOC8*
5,1,8,0,0,1.08239X$1,22.5*%
G01*
%ADD10C,0.177800*%
%ADD11C,0.127000*%
%ADD12C,0.800000*%
%ADD13C,0.762000*%


D10*
X13589Y221629D02*
X21886Y221629D01*
X17738Y217480D02*
X17738Y225778D01*
X27935Y216789D02*
X32084Y216789D01*
X32187Y216791D01*
X32291Y216797D01*
X32394Y216806D01*
X32496Y216820D01*
X32598Y216837D01*
X32699Y216858D01*
X32800Y216883D01*
X32899Y216912D01*
X32998Y216944D01*
X33095Y216980D01*
X33190Y217020D01*
X33284Y217063D01*
X33376Y217110D01*
X33467Y217160D01*
X33556Y217213D01*
X33642Y217270D01*
X33726Y217329D01*
X33809Y217392D01*
X33888Y217458D01*
X33965Y217527D01*
X34040Y217599D01*
X34112Y217674D01*
X34181Y217751D01*
X34247Y217830D01*
X34310Y217912D01*
X34369Y217997D01*
X34426Y218083D01*
X34479Y218172D01*
X34529Y218263D01*
X34576Y218355D01*
X34619Y218449D01*
X34659Y218544D01*
X34695Y218641D01*
X34727Y218740D01*
X34756Y218839D01*
X34781Y218939D01*
X34802Y219041D01*
X34819Y219143D01*
X34833Y219245D01*
X34842Y219348D01*
X34848Y219452D01*
X34850Y219555D01*
X34850Y220938D01*
X34848Y221041D01*
X34842Y221145D01*
X34833Y221248D01*
X34819Y221350D01*
X34802Y221452D01*
X34781Y221553D01*
X34756Y221654D01*
X34727Y221753D01*
X34695Y221852D01*
X34659Y221949D01*
X34619Y222044D01*
X34576Y222138D01*
X34529Y222230D01*
X34479Y222321D01*
X34426Y222410D01*
X34369Y222496D01*
X34310Y222581D01*
X34247Y222663D01*
X34181Y222742D01*
X34112Y222819D01*
X34040Y222894D01*
X33965Y222966D01*
X33888Y223035D01*
X33809Y223101D01*
X33727Y223164D01*
X33642Y223223D01*
X33556Y223280D01*
X33467Y223333D01*
X33376Y223383D01*
X33284Y223430D01*
X33190Y223473D01*
X33095Y223513D01*
X32998Y223549D01*
X32899Y223581D01*
X32800Y223610D01*
X32699Y223635D01*
X32598Y223656D01*
X32496Y223673D01*
X32394Y223687D01*
X32291Y223696D01*
X32187Y223702D01*
X32084Y223704D01*
X32084Y223703D02*
X27935Y223703D01*
X27935Y229235D01*
X34850Y229235D01*
X14153Y147503D02*
X12079Y147503D01*
X14153Y147503D02*
X14153Y140589D01*
X10005Y140589D01*
X9902Y140591D01*
X9798Y140597D01*
X9695Y140606D01*
X9593Y140620D01*
X9491Y140637D01*
X9390Y140658D01*
X9289Y140683D01*
X9190Y140712D01*
X9091Y140744D01*
X8994Y140780D01*
X8899Y140820D01*
X8805Y140863D01*
X8713Y140910D01*
X8622Y140960D01*
X8533Y141013D01*
X8447Y141070D01*
X8362Y141129D01*
X8280Y141192D01*
X8201Y141258D01*
X8124Y141327D01*
X8049Y141399D01*
X7977Y141474D01*
X7908Y141551D01*
X7842Y141630D01*
X7779Y141712D01*
X7720Y141797D01*
X7663Y141883D01*
X7610Y141972D01*
X7560Y142063D01*
X7513Y142155D01*
X7470Y142249D01*
X7430Y142344D01*
X7394Y142441D01*
X7362Y142540D01*
X7333Y142639D01*
X7308Y142740D01*
X7287Y142841D01*
X7270Y142943D01*
X7256Y143045D01*
X7247Y143148D01*
X7241Y143252D01*
X7239Y143355D01*
X7239Y150269D01*
X7241Y150372D01*
X7247Y150476D01*
X7256Y150579D01*
X7270Y150681D01*
X7287Y150783D01*
X7308Y150884D01*
X7333Y150985D01*
X7362Y151084D01*
X7394Y151183D01*
X7430Y151280D01*
X7470Y151375D01*
X7513Y151469D01*
X7560Y151561D01*
X7610Y151652D01*
X7663Y151741D01*
X7720Y151827D01*
X7779Y151911D01*
X7842Y151994D01*
X7908Y152073D01*
X7977Y152150D01*
X8049Y152225D01*
X8124Y152297D01*
X8201Y152366D01*
X8280Y152432D01*
X8362Y152495D01*
X8447Y152554D01*
X8533Y152611D01*
X8622Y152664D01*
X8713Y152714D01*
X8805Y152761D01*
X8899Y152804D01*
X8994Y152844D01*
X9091Y152880D01*
X9190Y152912D01*
X9289Y152941D01*
X9389Y152966D01*
X9491Y152987D01*
X9593Y153004D01*
X9695Y153018D01*
X9798Y153027D01*
X9902Y153033D01*
X10005Y153035D01*
X14153Y153035D01*
X20894Y153035D02*
X20894Y140589D01*
X27808Y140589D02*
X20894Y153035D01*
X27808Y153035D02*
X27808Y140589D01*
X34549Y140589D02*
X34549Y153035D01*
X38006Y153035D01*
X38122Y153033D01*
X38237Y153027D01*
X38352Y153018D01*
X38467Y153004D01*
X38581Y152987D01*
X38695Y152966D01*
X38807Y152941D01*
X38919Y152912D01*
X39030Y152880D01*
X39140Y152844D01*
X39248Y152804D01*
X39356Y152761D01*
X39461Y152714D01*
X39565Y152663D01*
X39667Y152610D01*
X39768Y152552D01*
X39866Y152492D01*
X39962Y152428D01*
X40057Y152361D01*
X40148Y152291D01*
X40238Y152218D01*
X40325Y152142D01*
X40409Y152063D01*
X40491Y151981D01*
X40570Y151897D01*
X40646Y151810D01*
X40719Y151720D01*
X40789Y151629D01*
X40856Y151534D01*
X40920Y151438D01*
X40980Y151340D01*
X41038Y151239D01*
X41091Y151137D01*
X41142Y151033D01*
X41189Y150928D01*
X41232Y150820D01*
X41272Y150712D01*
X41308Y150602D01*
X41340Y150491D01*
X41369Y150379D01*
X41394Y150267D01*
X41415Y150153D01*
X41432Y150039D01*
X41446Y149924D01*
X41455Y149809D01*
X41461Y149693D01*
X41463Y149578D01*
X41463Y144046D01*
X41461Y143930D01*
X41455Y143815D01*
X41446Y143700D01*
X41432Y143585D01*
X41415Y143471D01*
X41394Y143357D01*
X41369Y143245D01*
X41340Y143133D01*
X41308Y143022D01*
X41272Y142912D01*
X41232Y142804D01*
X41189Y142696D01*
X41142Y142591D01*
X41091Y142487D01*
X41038Y142385D01*
X40980Y142284D01*
X40920Y142186D01*
X40856Y142090D01*
X40789Y141995D01*
X40719Y141904D01*
X40646Y141814D01*
X40570Y141727D01*
X40491Y141643D01*
X40409Y141561D01*
X40325Y141482D01*
X40238Y141406D01*
X40148Y141333D01*
X40057Y141263D01*
X39962Y141196D01*
X39866Y141132D01*
X39768Y141072D01*
X39667Y141014D01*
X39565Y140961D01*
X39461Y140910D01*
X39356Y140863D01*
X39248Y140820D01*
X39140Y140780D01*
X39030Y140744D01*
X38919Y140712D01*
X38807Y140683D01*
X38695Y140658D01*
X38581Y140637D01*
X38467Y140620D01*
X38352Y140606D01*
X38237Y140597D01*
X38122Y140591D01*
X38006Y140589D01*
X34549Y140589D01*
X14153Y14153D02*
X12079Y14153D01*
X14153Y14153D02*
X14153Y7239D01*
X10005Y7239D01*
X9902Y7241D01*
X9798Y7247D01*
X9695Y7256D01*
X9593Y7270D01*
X9491Y7287D01*
X9390Y7308D01*
X9289Y7333D01*
X9190Y7362D01*
X9091Y7394D01*
X8994Y7430D01*
X8899Y7470D01*
X8805Y7513D01*
X8713Y7560D01*
X8622Y7610D01*
X8533Y7663D01*
X8447Y7720D01*
X8362Y7779D01*
X8280Y7842D01*
X8201Y7908D01*
X8124Y7977D01*
X8049Y8049D01*
X7977Y8124D01*
X7908Y8201D01*
X7842Y8280D01*
X7779Y8362D01*
X7720Y8447D01*
X7663Y8533D01*
X7610Y8622D01*
X7560Y8713D01*
X7513Y8805D01*
X7470Y8899D01*
X7430Y8994D01*
X7394Y9091D01*
X7362Y9190D01*
X7333Y9289D01*
X7308Y9390D01*
X7287Y9491D01*
X7270Y9593D01*
X7256Y9695D01*
X7247Y9798D01*
X7241Y9902D01*
X7239Y10005D01*
X7239Y16919D01*
X7241Y17022D01*
X7247Y17126D01*
X7256Y17229D01*
X7270Y17331D01*
X7287Y17433D01*
X7308Y17534D01*
X7333Y17635D01*
X7362Y17734D01*
X7394Y17833D01*
X7430Y17930D01*
X7470Y18025D01*
X7513Y18119D01*
X7560Y18211D01*
X7610Y18302D01*
X7663Y18391D01*
X7720Y18477D01*
X7779Y18561D01*
X7842Y18644D01*
X7908Y18723D01*
X7977Y18800D01*
X8049Y18875D01*
X8124Y18947D01*
X8201Y19016D01*
X8280Y19082D01*
X8362Y19145D01*
X8447Y19204D01*
X8533Y19261D01*
X8622Y19314D01*
X8713Y19364D01*
X8805Y19411D01*
X8899Y19454D01*
X8994Y19494D01*
X9091Y19530D01*
X9190Y19562D01*
X9289Y19591D01*
X9389Y19616D01*
X9491Y19637D01*
X9593Y19654D01*
X9695Y19668D01*
X9798Y19677D01*
X9902Y19683D01*
X10005Y19685D01*
X14153Y19685D01*
X20894Y19685D02*
X20894Y7239D01*
X27808Y7239D02*
X20894Y19685D01*
X27808Y19685D02*
X27808Y7239D01*
X34549Y7239D02*
X34549Y19685D01*
X38006Y19685D01*
X38122Y19683D01*
X38237Y19677D01*
X38352Y19668D01*
X38467Y19654D01*
X38581Y19637D01*
X38695Y19616D01*
X38807Y19591D01*
X38919Y19562D01*
X39030Y19530D01*
X39140Y19494D01*
X39248Y19454D01*
X39356Y19411D01*
X39461Y19364D01*
X39565Y19313D01*
X39667Y19260D01*
X39768Y19202D01*
X39866Y19142D01*
X39962Y19078D01*
X40057Y19011D01*
X40148Y18941D01*
X40238Y18868D01*
X40325Y18792D01*
X40409Y18713D01*
X40491Y18631D01*
X40570Y18547D01*
X40646Y18460D01*
X40719Y18370D01*
X40789Y18279D01*
X40856Y18184D01*
X40920Y18088D01*
X40980Y17990D01*
X41038Y17889D01*
X41091Y17787D01*
X41142Y17683D01*
X41189Y17578D01*
X41232Y17470D01*
X41272Y17362D01*
X41308Y17252D01*
X41340Y17141D01*
X41369Y17029D01*
X41394Y16917D01*
X41415Y16803D01*
X41432Y16689D01*
X41446Y16574D01*
X41455Y16459D01*
X41461Y16343D01*
X41463Y16228D01*
X41463Y10696D01*
X41461Y10580D01*
X41455Y10465D01*
X41446Y10350D01*
X41432Y10235D01*
X41415Y10121D01*
X41394Y10007D01*
X41369Y9895D01*
X41340Y9783D01*
X41308Y9672D01*
X41272Y9562D01*
X41232Y9454D01*
X41189Y9346D01*
X41142Y9241D01*
X41091Y9137D01*
X41038Y9035D01*
X40980Y8934D01*
X40920Y8836D01*
X40856Y8740D01*
X40789Y8645D01*
X40719Y8554D01*
X40646Y8464D01*
X40570Y8377D01*
X40491Y8293D01*
X40409Y8211D01*
X40325Y8132D01*
X40238Y8056D01*
X40148Y7983D01*
X40057Y7913D01*
X39962Y7846D01*
X39866Y7782D01*
X39768Y7722D01*
X39667Y7664D01*
X39565Y7611D01*
X39461Y7560D01*
X39356Y7513D01*
X39248Y7470D01*
X39140Y7430D01*
X39030Y7394D01*
X38919Y7362D01*
X38807Y7333D01*
X38695Y7308D01*
X38581Y7287D01*
X38467Y7270D01*
X38352Y7256D01*
X38237Y7247D01*
X38122Y7241D01*
X38006Y7239D01*
X34549Y7239D01*
X312627Y203129D02*
X314701Y203129D01*
X314701Y196215D01*
X310552Y196215D01*
X310449Y196217D01*
X310345Y196223D01*
X310242Y196232D01*
X310140Y196246D01*
X310038Y196263D01*
X309937Y196284D01*
X309836Y196309D01*
X309737Y196338D01*
X309638Y196370D01*
X309541Y196406D01*
X309446Y196446D01*
X309352Y196489D01*
X309260Y196536D01*
X309169Y196586D01*
X309080Y196639D01*
X308994Y196696D01*
X308909Y196755D01*
X308827Y196818D01*
X308748Y196884D01*
X308671Y196953D01*
X308596Y197025D01*
X308524Y197100D01*
X308455Y197177D01*
X308389Y197256D01*
X308326Y197338D01*
X308267Y197423D01*
X308210Y197509D01*
X308157Y197598D01*
X308107Y197689D01*
X308060Y197781D01*
X308017Y197875D01*
X307977Y197970D01*
X307941Y198067D01*
X307909Y198166D01*
X307880Y198265D01*
X307855Y198366D01*
X307834Y198467D01*
X307817Y198569D01*
X307803Y198671D01*
X307794Y198774D01*
X307788Y198878D01*
X307786Y198981D01*
X307787Y198981D02*
X307787Y205895D01*
X307786Y205895D02*
X307788Y205998D01*
X307794Y206102D01*
X307803Y206205D01*
X307817Y206307D01*
X307834Y206409D01*
X307855Y206510D01*
X307880Y206611D01*
X307909Y206710D01*
X307941Y206809D01*
X307977Y206906D01*
X308017Y207001D01*
X308060Y207095D01*
X308107Y207187D01*
X308157Y207278D01*
X308210Y207367D01*
X308267Y207453D01*
X308326Y207537D01*
X308389Y207620D01*
X308455Y207699D01*
X308524Y207776D01*
X308596Y207851D01*
X308671Y207923D01*
X308748Y207992D01*
X308827Y208058D01*
X308909Y208121D01*
X308994Y208180D01*
X309080Y208237D01*
X309169Y208290D01*
X309260Y208340D01*
X309352Y208387D01*
X309446Y208430D01*
X309541Y208470D01*
X309638Y208506D01*
X309737Y208538D01*
X309836Y208567D01*
X309936Y208592D01*
X310038Y208613D01*
X310140Y208630D01*
X310242Y208644D01*
X310345Y208653D01*
X310449Y208659D01*
X310552Y208661D01*
X314701Y208661D01*
X321442Y208661D02*
X321442Y196215D01*
X328356Y196215D02*
X321442Y208661D01*
X328356Y208661D02*
X328356Y196215D01*
X335097Y196215D02*
X335097Y208661D01*
X338554Y208661D01*
X338670Y208659D01*
X338785Y208653D01*
X338900Y208644D01*
X339015Y208630D01*
X339129Y208613D01*
X339243Y208592D01*
X339355Y208567D01*
X339467Y208538D01*
X339578Y208506D01*
X339688Y208470D01*
X339796Y208430D01*
X339904Y208387D01*
X340009Y208340D01*
X340113Y208289D01*
X340215Y208236D01*
X340316Y208178D01*
X340414Y208118D01*
X340510Y208054D01*
X340605Y207987D01*
X340696Y207917D01*
X340786Y207844D01*
X340873Y207768D01*
X340957Y207689D01*
X341039Y207607D01*
X341118Y207523D01*
X341194Y207436D01*
X341267Y207346D01*
X341337Y207255D01*
X341404Y207160D01*
X341468Y207064D01*
X341528Y206966D01*
X341586Y206865D01*
X341639Y206763D01*
X341690Y206659D01*
X341737Y206554D01*
X341780Y206446D01*
X341820Y206338D01*
X341856Y206228D01*
X341888Y206117D01*
X341917Y206005D01*
X341942Y205893D01*
X341963Y205779D01*
X341980Y205665D01*
X341994Y205550D01*
X342003Y205435D01*
X342009Y205319D01*
X342011Y205204D01*
X342011Y199672D01*
X342009Y199556D01*
X342003Y199441D01*
X341994Y199326D01*
X341980Y199211D01*
X341963Y199097D01*
X341942Y198983D01*
X341917Y198871D01*
X341888Y198759D01*
X341856Y198648D01*
X341820Y198538D01*
X341780Y198430D01*
X341737Y198322D01*
X341690Y198217D01*
X341639Y198113D01*
X341586Y198011D01*
X341528Y197910D01*
X341468Y197812D01*
X341404Y197716D01*
X341337Y197621D01*
X341267Y197530D01*
X341194Y197440D01*
X341118Y197353D01*
X341039Y197269D01*
X340957Y197187D01*
X340873Y197108D01*
X340786Y197032D01*
X340696Y196959D01*
X340605Y196889D01*
X340510Y196822D01*
X340414Y196758D01*
X340316Y196698D01*
X340215Y196640D01*
X340113Y196587D01*
X340009Y196536D01*
X339904Y196489D01*
X339796Y196446D01*
X339688Y196406D01*
X339578Y196370D01*
X339467Y196338D01*
X339355Y196309D01*
X339243Y196284D01*
X339129Y196263D01*
X339015Y196246D01*
X338900Y196232D01*
X338785Y196223D01*
X338670Y196217D01*
X338554Y196215D01*
X335097Y196215D01*
X13589Y95885D02*
X17738Y83439D01*
X21886Y95885D01*
X26699Y91736D02*
X26699Y83439D01*
X26353Y95194D02*
X26353Y95885D01*
X27044Y95885D01*
X27044Y95194D01*
X26353Y95194D01*
X32467Y91736D02*
X32467Y83439D01*
X32467Y91736D02*
X35925Y91736D01*
X36013Y91734D01*
X36101Y91729D01*
X36188Y91719D01*
X36276Y91706D01*
X36362Y91689D01*
X36448Y91669D01*
X36532Y91645D01*
X36616Y91618D01*
X36698Y91586D01*
X36779Y91552D01*
X36859Y91514D01*
X36936Y91473D01*
X37012Y91428D01*
X37086Y91380D01*
X37158Y91329D01*
X37228Y91276D01*
X37295Y91219D01*
X37360Y91159D01*
X37422Y91097D01*
X37482Y91032D01*
X37539Y90965D01*
X37592Y90895D01*
X37643Y90823D01*
X37691Y90749D01*
X37736Y90673D01*
X37777Y90596D01*
X37815Y90516D01*
X37849Y90435D01*
X37881Y90353D01*
X37908Y90269D01*
X37932Y90185D01*
X37952Y90099D01*
X37969Y90013D01*
X37982Y89925D01*
X37992Y89838D01*
X37997Y89750D01*
X37999Y89662D01*
X37999Y83439D01*
X306785Y221615D02*
X302636Y234061D01*
X310934Y234061D02*
X306785Y221615D01*
X315967Y224381D02*
X315967Y227147D01*
X315969Y227250D01*
X315975Y227354D01*
X315984Y227457D01*
X315998Y227559D01*
X316015Y227661D01*
X316036Y227762D01*
X316061Y227863D01*
X316090Y227962D01*
X316122Y228061D01*
X316158Y228158D01*
X316198Y228253D01*
X316241Y228347D01*
X316288Y228439D01*
X316338Y228530D01*
X316391Y228619D01*
X316448Y228705D01*
X316507Y228790D01*
X316570Y228872D01*
X316636Y228951D01*
X316705Y229028D01*
X316777Y229103D01*
X316852Y229175D01*
X316929Y229244D01*
X317008Y229310D01*
X317090Y229373D01*
X317175Y229432D01*
X317261Y229489D01*
X317350Y229542D01*
X317441Y229592D01*
X317533Y229639D01*
X317627Y229682D01*
X317722Y229722D01*
X317819Y229758D01*
X317918Y229790D01*
X318017Y229819D01*
X318118Y229844D01*
X318219Y229865D01*
X318321Y229882D01*
X318423Y229896D01*
X318526Y229905D01*
X318630Y229911D01*
X318733Y229913D01*
X318836Y229911D01*
X318940Y229905D01*
X319043Y229896D01*
X319145Y229882D01*
X319247Y229865D01*
X319348Y229844D01*
X319449Y229819D01*
X319548Y229790D01*
X319647Y229758D01*
X319744Y229722D01*
X319839Y229682D01*
X319933Y229639D01*
X320025Y229592D01*
X320116Y229542D01*
X320205Y229489D01*
X320291Y229432D01*
X320376Y229373D01*
X320458Y229310D01*
X320537Y229244D01*
X320614Y229175D01*
X320689Y229103D01*
X320761Y229028D01*
X320830Y228951D01*
X320896Y228872D01*
X320959Y228790D01*
X321018Y228705D01*
X321075Y228619D01*
X321128Y228530D01*
X321178Y228439D01*
X321225Y228347D01*
X321268Y228253D01*
X321308Y228158D01*
X321344Y228061D01*
X321376Y227962D01*
X321405Y227863D01*
X321430Y227762D01*
X321451Y227661D01*
X321468Y227559D01*
X321482Y227457D01*
X321491Y227354D01*
X321497Y227250D01*
X321499Y227147D01*
X321499Y224381D01*
X321497Y224278D01*
X321491Y224174D01*
X321482Y224071D01*
X321468Y223969D01*
X321451Y223867D01*
X321430Y223766D01*
X321405Y223665D01*
X321376Y223566D01*
X321344Y223467D01*
X321308Y223370D01*
X321268Y223275D01*
X321225Y223181D01*
X321178Y223089D01*
X321128Y222998D01*
X321075Y222909D01*
X321018Y222823D01*
X320959Y222738D01*
X320896Y222656D01*
X320830Y222577D01*
X320761Y222500D01*
X320689Y222425D01*
X320614Y222353D01*
X320537Y222284D01*
X320458Y222218D01*
X320376Y222155D01*
X320291Y222096D01*
X320205Y222039D01*
X320116Y221986D01*
X320025Y221936D01*
X319933Y221889D01*
X319839Y221846D01*
X319744Y221806D01*
X319647Y221770D01*
X319548Y221738D01*
X319449Y221709D01*
X319348Y221684D01*
X319247Y221663D01*
X319145Y221646D01*
X319043Y221632D01*
X318940Y221623D01*
X318836Y221617D01*
X318733Y221615D01*
X318630Y221617D01*
X318526Y221623D01*
X318423Y221632D01*
X318321Y221646D01*
X318219Y221663D01*
X318118Y221684D01*
X318017Y221709D01*
X317918Y221738D01*
X317819Y221770D01*
X317722Y221806D01*
X317627Y221846D01*
X317533Y221889D01*
X317441Y221936D01*
X317350Y221986D01*
X317261Y222039D01*
X317175Y222096D01*
X317090Y222155D01*
X317008Y222218D01*
X316929Y222284D01*
X316852Y222353D01*
X316777Y222425D01*
X316705Y222500D01*
X316636Y222577D01*
X316570Y222656D01*
X316507Y222738D01*
X316448Y222823D01*
X316391Y222909D01*
X316338Y222998D01*
X316288Y223089D01*
X316241Y223181D01*
X316198Y223275D01*
X316158Y223370D01*
X316122Y223467D01*
X316090Y223566D01*
X316061Y223665D01*
X316036Y223766D01*
X316015Y223867D01*
X315998Y223969D01*
X315984Y224071D01*
X315975Y224174D01*
X315969Y224278D01*
X315967Y224381D01*
X327489Y223689D02*
X327489Y229912D01*
X327489Y223689D02*
X327491Y223601D01*
X327496Y223513D01*
X327506Y223426D01*
X327519Y223338D01*
X327536Y223252D01*
X327556Y223166D01*
X327580Y223082D01*
X327607Y222998D01*
X327639Y222916D01*
X327673Y222835D01*
X327711Y222755D01*
X327752Y222678D01*
X327797Y222602D01*
X327845Y222528D01*
X327896Y222456D01*
X327949Y222386D01*
X328006Y222319D01*
X328066Y222254D01*
X328128Y222192D01*
X328193Y222132D01*
X328260Y222075D01*
X328330Y222022D01*
X328402Y221971D01*
X328476Y221923D01*
X328552Y221878D01*
X328629Y221837D01*
X328709Y221799D01*
X328790Y221765D01*
X328872Y221733D01*
X328956Y221706D01*
X329040Y221682D01*
X329126Y221662D01*
X329212Y221645D01*
X329300Y221632D01*
X329387Y221622D01*
X329475Y221617D01*
X329563Y221615D01*
X333020Y221615D01*
X333020Y229912D01*
X337862Y229912D02*
X342011Y229912D01*
X339245Y234061D02*
X339245Y223689D01*
X339246Y223689D02*
X339248Y223601D01*
X339253Y223513D01*
X339263Y223426D01*
X339276Y223338D01*
X339293Y223252D01*
X339313Y223166D01*
X339337Y223082D01*
X339364Y222998D01*
X339396Y222916D01*
X339430Y222835D01*
X339468Y222755D01*
X339509Y222678D01*
X339554Y222602D01*
X339602Y222528D01*
X339653Y222456D01*
X339706Y222386D01*
X339763Y222319D01*
X339823Y222254D01*
X339885Y222192D01*
X339950Y222132D01*
X340017Y222075D01*
X340087Y222021D01*
X340159Y221971D01*
X340233Y221923D01*
X340309Y221878D01*
X340386Y221837D01*
X340466Y221799D01*
X340547Y221765D01*
X340629Y221733D01*
X340713Y221706D01*
X340797Y221682D01*
X340883Y221662D01*
X340970Y221645D01*
X341057Y221632D01*
X341144Y221622D01*
X341232Y221617D01*
X341320Y221615D01*
X342011Y221615D01*
X342900Y263017D02*
X301747Y263017D01*
X302636Y259461D02*
X306785Y247015D01*
X310934Y259461D01*
X315967Y252547D02*
X315967Y249781D01*
X315967Y252547D02*
X315969Y252650D01*
X315975Y252754D01*
X315984Y252857D01*
X315998Y252959D01*
X316015Y253061D01*
X316036Y253162D01*
X316061Y253263D01*
X316090Y253362D01*
X316122Y253461D01*
X316158Y253558D01*
X316198Y253653D01*
X316241Y253747D01*
X316288Y253839D01*
X316338Y253930D01*
X316391Y254019D01*
X316448Y254105D01*
X316507Y254190D01*
X316570Y254272D01*
X316636Y254351D01*
X316705Y254428D01*
X316777Y254503D01*
X316852Y254575D01*
X316929Y254644D01*
X317008Y254710D01*
X317090Y254773D01*
X317175Y254832D01*
X317261Y254889D01*
X317350Y254942D01*
X317441Y254992D01*
X317533Y255039D01*
X317627Y255082D01*
X317722Y255122D01*
X317819Y255158D01*
X317918Y255190D01*
X318017Y255219D01*
X318118Y255244D01*
X318219Y255265D01*
X318321Y255282D01*
X318423Y255296D01*
X318526Y255305D01*
X318630Y255311D01*
X318733Y255313D01*
X318836Y255311D01*
X318940Y255305D01*
X319043Y255296D01*
X319145Y255282D01*
X319247Y255265D01*
X319348Y255244D01*
X319449Y255219D01*
X319548Y255190D01*
X319647Y255158D01*
X319744Y255122D01*
X319839Y255082D01*
X319933Y255039D01*
X320025Y254992D01*
X320116Y254942D01*
X320205Y254889D01*
X320291Y254832D01*
X320376Y254773D01*
X320458Y254710D01*
X320537Y254644D01*
X320614Y254575D01*
X320689Y254503D01*
X320761Y254428D01*
X320830Y254351D01*
X320896Y254272D01*
X320959Y254190D01*
X321018Y254105D01*
X321075Y254019D01*
X321128Y253930D01*
X321178Y253839D01*
X321225Y253747D01*
X321268Y253653D01*
X321308Y253558D01*
X321344Y253461D01*
X321376Y253362D01*
X321405Y253263D01*
X321430Y253162D01*
X321451Y253061D01*
X321468Y252959D01*
X321482Y252857D01*
X321491Y252754D01*
X321497Y252650D01*
X321499Y252547D01*
X321499Y249781D01*
X321497Y249678D01*
X321491Y249574D01*
X321482Y249471D01*
X321468Y249369D01*
X321451Y249267D01*
X321430Y249166D01*
X321405Y249065D01*
X321376Y248966D01*
X321344Y248867D01*
X321308Y248770D01*
X321268Y248675D01*
X321225Y248581D01*
X321178Y248489D01*
X321128Y248398D01*
X321075Y248309D01*
X321018Y248223D01*
X320959Y248138D01*
X320896Y248056D01*
X320830Y247977D01*
X320761Y247900D01*
X320689Y247825D01*
X320614Y247753D01*
X320537Y247684D01*
X320458Y247618D01*
X320376Y247555D01*
X320291Y247496D01*
X320205Y247439D01*
X320116Y247386D01*
X320025Y247336D01*
X319933Y247289D01*
X319839Y247246D01*
X319744Y247206D01*
X319647Y247170D01*
X319548Y247138D01*
X319449Y247109D01*
X319348Y247084D01*
X319247Y247063D01*
X319145Y247046D01*
X319043Y247032D01*
X318940Y247023D01*
X318836Y247017D01*
X318733Y247015D01*
X318630Y247017D01*
X318526Y247023D01*
X318423Y247032D01*
X318321Y247046D01*
X318219Y247063D01*
X318118Y247084D01*
X318017Y247109D01*
X317918Y247138D01*
X317819Y247170D01*
X317722Y247206D01*
X317627Y247246D01*
X317533Y247289D01*
X317441Y247336D01*
X317350Y247386D01*
X317261Y247439D01*
X317175Y247496D01*
X317090Y247555D01*
X317008Y247618D01*
X316929Y247684D01*
X316852Y247753D01*
X316777Y247825D01*
X316705Y247900D01*
X316636Y247977D01*
X316570Y248056D01*
X316507Y248138D01*
X316448Y248223D01*
X316391Y248309D01*
X316338Y248398D01*
X316288Y248489D01*
X316241Y248581D01*
X316198Y248675D01*
X316158Y248770D01*
X316122Y248867D01*
X316090Y248966D01*
X316061Y249065D01*
X316036Y249166D01*
X316015Y249267D01*
X315998Y249369D01*
X315984Y249471D01*
X315975Y249574D01*
X315969Y249678D01*
X315967Y249781D01*
X327489Y249089D02*
X327489Y255312D01*
X327489Y249089D02*
X327491Y249001D01*
X327496Y248913D01*
X327506Y248826D01*
X327519Y248738D01*
X327536Y248652D01*
X327556Y248566D01*
X327580Y248482D01*
X327607Y248398D01*
X327639Y248316D01*
X327673Y248235D01*
X327711Y248155D01*
X327752Y248078D01*
X327797Y248002D01*
X327845Y247928D01*
X327896Y247856D01*
X327949Y247786D01*
X328006Y247719D01*
X328066Y247654D01*
X328128Y247592D01*
X328193Y247532D01*
X328260Y247475D01*
X328330Y247422D01*
X328402Y247371D01*
X328476Y247323D01*
X328552Y247278D01*
X328629Y247237D01*
X328709Y247199D01*
X328790Y247165D01*
X328872Y247133D01*
X328956Y247106D01*
X329040Y247082D01*
X329126Y247062D01*
X329212Y247045D01*
X329300Y247032D01*
X329387Y247022D01*
X329475Y247017D01*
X329563Y247015D01*
X333020Y247015D01*
X333020Y255312D01*
X337862Y255312D02*
X342011Y255312D01*
X339245Y259461D02*
X339245Y249089D01*
X339246Y249089D02*
X339248Y249001D01*
X339253Y248913D01*
X339263Y248826D01*
X339276Y248738D01*
X339293Y248652D01*
X339313Y248566D01*
X339337Y248482D01*
X339364Y248398D01*
X339396Y248316D01*
X339430Y248235D01*
X339468Y248155D01*
X339509Y248078D01*
X339554Y248002D01*
X339602Y247928D01*
X339653Y247856D01*
X339706Y247786D01*
X339763Y247719D01*
X339823Y247654D01*
X339885Y247592D01*
X339950Y247532D01*
X340017Y247475D01*
X340087Y247421D01*
X340159Y247371D01*
X340233Y247323D01*
X340309Y247278D01*
X340386Y247237D01*
X340466Y247199D01*
X340547Y247165D01*
X340629Y247133D01*
X340713Y247106D01*
X340797Y247082D01*
X340883Y247062D01*
X340970Y247045D01*
X341057Y247032D01*
X341144Y247022D01*
X341232Y247017D01*
X341320Y247015D01*
X342011Y247015D01*
X89789Y19685D02*
X89789Y7239D01*
X89789Y19685D02*
X93246Y19685D01*
X93362Y19683D01*
X93477Y19677D01*
X93592Y19668D01*
X93707Y19654D01*
X93821Y19637D01*
X93935Y19616D01*
X94047Y19591D01*
X94159Y19562D01*
X94270Y19530D01*
X94380Y19494D01*
X94488Y19454D01*
X94596Y19411D01*
X94701Y19364D01*
X94805Y19313D01*
X94907Y19260D01*
X95008Y19202D01*
X95106Y19142D01*
X95202Y19078D01*
X95297Y19011D01*
X95388Y18941D01*
X95478Y18868D01*
X95565Y18792D01*
X95649Y18713D01*
X95731Y18631D01*
X95810Y18547D01*
X95886Y18460D01*
X95959Y18370D01*
X96029Y18279D01*
X96096Y18184D01*
X96160Y18088D01*
X96220Y17990D01*
X96278Y17889D01*
X96331Y17787D01*
X96382Y17683D01*
X96429Y17578D01*
X96472Y17470D01*
X96512Y17362D01*
X96548Y17252D01*
X96580Y17141D01*
X96609Y17029D01*
X96634Y16917D01*
X96655Y16803D01*
X96672Y16689D01*
X96686Y16574D01*
X96695Y16459D01*
X96701Y16343D01*
X96703Y16228D01*
X96703Y10696D01*
X96701Y10580D01*
X96695Y10465D01*
X96686Y10350D01*
X96672Y10235D01*
X96655Y10121D01*
X96634Y10007D01*
X96609Y9895D01*
X96580Y9783D01*
X96548Y9672D01*
X96512Y9562D01*
X96472Y9454D01*
X96429Y9346D01*
X96382Y9241D01*
X96331Y9137D01*
X96278Y9035D01*
X96220Y8934D01*
X96160Y8836D01*
X96096Y8740D01*
X96029Y8645D01*
X95959Y8554D01*
X95886Y8464D01*
X95810Y8377D01*
X95731Y8293D01*
X95649Y8211D01*
X95565Y8132D01*
X95478Y8056D01*
X95388Y7983D01*
X95297Y7913D01*
X95202Y7846D01*
X95106Y7782D01*
X95008Y7722D01*
X94907Y7664D01*
X94805Y7611D01*
X94701Y7560D01*
X94596Y7513D01*
X94488Y7470D01*
X94380Y7430D01*
X94270Y7394D01*
X94159Y7362D01*
X94047Y7333D01*
X93935Y7308D01*
X93821Y7287D01*
X93707Y7270D01*
X93592Y7256D01*
X93477Y7247D01*
X93362Y7241D01*
X93246Y7239D01*
X89789Y7239D01*
X104930Y7239D02*
X108387Y7239D01*
X104930Y7239D02*
X104842Y7241D01*
X104754Y7246D01*
X104667Y7256D01*
X104579Y7269D01*
X104493Y7286D01*
X104407Y7306D01*
X104323Y7330D01*
X104239Y7357D01*
X104157Y7389D01*
X104076Y7423D01*
X103996Y7461D01*
X103919Y7502D01*
X103843Y7547D01*
X103769Y7595D01*
X103697Y7646D01*
X103627Y7699D01*
X103560Y7756D01*
X103495Y7816D01*
X103433Y7878D01*
X103373Y7943D01*
X103316Y8010D01*
X103263Y8080D01*
X103212Y8152D01*
X103164Y8226D01*
X103119Y8302D01*
X103078Y8379D01*
X103040Y8459D01*
X103006Y8540D01*
X102974Y8622D01*
X102947Y8706D01*
X102923Y8790D01*
X102903Y8876D01*
X102886Y8962D01*
X102873Y9050D01*
X102863Y9137D01*
X102858Y9225D01*
X102856Y9313D01*
X102855Y9313D02*
X102855Y12771D01*
X102857Y12874D01*
X102863Y12978D01*
X102872Y13081D01*
X102886Y13183D01*
X102903Y13285D01*
X102924Y13386D01*
X102949Y13487D01*
X102978Y13586D01*
X103010Y13685D01*
X103046Y13782D01*
X103086Y13877D01*
X103129Y13971D01*
X103176Y14063D01*
X103226Y14154D01*
X103279Y14243D01*
X103336Y14329D01*
X103395Y14414D01*
X103458Y14496D01*
X103524Y14575D01*
X103593Y14652D01*
X103665Y14727D01*
X103740Y14799D01*
X103817Y14868D01*
X103896Y14934D01*
X103978Y14997D01*
X104063Y15056D01*
X104149Y15113D01*
X104238Y15166D01*
X104329Y15216D01*
X104421Y15263D01*
X104515Y15306D01*
X104610Y15346D01*
X104707Y15382D01*
X104806Y15414D01*
X104905Y15443D01*
X105006Y15468D01*
X105107Y15489D01*
X105209Y15506D01*
X105311Y15520D01*
X105414Y15529D01*
X105518Y15535D01*
X105621Y15537D01*
X105724Y15535D01*
X105828Y15529D01*
X105931Y15520D01*
X106033Y15506D01*
X106135Y15489D01*
X106236Y15468D01*
X106337Y15443D01*
X106436Y15414D01*
X106535Y15382D01*
X106632Y15346D01*
X106727Y15306D01*
X106821Y15263D01*
X106913Y15216D01*
X107004Y15166D01*
X107093Y15113D01*
X107179Y15056D01*
X107264Y14997D01*
X107346Y14934D01*
X107425Y14868D01*
X107502Y14799D01*
X107577Y14727D01*
X107649Y14652D01*
X107718Y14575D01*
X107784Y14496D01*
X107847Y14414D01*
X107906Y14329D01*
X107963Y14243D01*
X108016Y14154D01*
X108066Y14063D01*
X108113Y13971D01*
X108156Y13877D01*
X108196Y13782D01*
X108232Y13685D01*
X108264Y13586D01*
X108293Y13487D01*
X108318Y13386D01*
X108339Y13285D01*
X108356Y13183D01*
X108370Y13081D01*
X108379Y12978D01*
X108385Y12874D01*
X108387Y12771D01*
X108387Y11388D01*
X102855Y11388D01*
X114377Y15536D02*
X114377Y7239D01*
X114377Y15536D02*
X117834Y15536D01*
X117922Y15534D01*
X118010Y15529D01*
X118097Y15519D01*
X118185Y15506D01*
X118271Y15489D01*
X118357Y15469D01*
X118441Y15445D01*
X118525Y15418D01*
X118607Y15386D01*
X118688Y15352D01*
X118768Y15314D01*
X118845Y15273D01*
X118921Y15228D01*
X118995Y15180D01*
X119067Y15129D01*
X119137Y15076D01*
X119204Y15019D01*
X119269Y14959D01*
X119331Y14897D01*
X119391Y14832D01*
X119448Y14765D01*
X119501Y14695D01*
X119552Y14623D01*
X119600Y14549D01*
X119645Y14473D01*
X119686Y14396D01*
X119724Y14316D01*
X119758Y14235D01*
X119790Y14153D01*
X119817Y14069D01*
X119841Y13985D01*
X119861Y13899D01*
X119878Y13813D01*
X119891Y13725D01*
X119901Y13638D01*
X119906Y13550D01*
X119908Y13462D01*
X119908Y7239D01*
X128234Y12079D02*
X131345Y12079D01*
X128234Y12079D02*
X128137Y12077D01*
X128039Y12071D01*
X127942Y12061D01*
X127846Y12048D01*
X127750Y12030D01*
X127655Y12009D01*
X127561Y11983D01*
X127468Y11954D01*
X127376Y11922D01*
X127285Y11885D01*
X127197Y11845D01*
X127109Y11802D01*
X127024Y11755D01*
X126941Y11704D01*
X126859Y11651D01*
X126780Y11594D01*
X126703Y11534D01*
X126629Y11470D01*
X126558Y11404D01*
X126489Y11335D01*
X126423Y11264D01*
X126359Y11190D01*
X126299Y11113D01*
X126242Y11034D01*
X126189Y10952D01*
X126138Y10869D01*
X126091Y10784D01*
X126048Y10696D01*
X126008Y10608D01*
X125971Y10517D01*
X125939Y10425D01*
X125910Y10332D01*
X125884Y10238D01*
X125863Y10143D01*
X125845Y10047D01*
X125832Y9951D01*
X125822Y9854D01*
X125816Y9756D01*
X125814Y9659D01*
X125816Y9562D01*
X125822Y9464D01*
X125832Y9367D01*
X125845Y9271D01*
X125863Y9175D01*
X125884Y9080D01*
X125910Y8986D01*
X125939Y8893D01*
X125971Y8801D01*
X126008Y8710D01*
X126048Y8622D01*
X126091Y8534D01*
X126138Y8449D01*
X126189Y8366D01*
X126242Y8284D01*
X126299Y8205D01*
X126359Y8128D01*
X126423Y8054D01*
X126489Y7983D01*
X126558Y7914D01*
X126629Y7848D01*
X126703Y7784D01*
X126780Y7724D01*
X126859Y7667D01*
X126941Y7614D01*
X127024Y7563D01*
X127109Y7516D01*
X127197Y7473D01*
X127285Y7433D01*
X127376Y7396D01*
X127468Y7364D01*
X127561Y7335D01*
X127655Y7309D01*
X127750Y7288D01*
X127846Y7270D01*
X127942Y7257D01*
X128039Y7247D01*
X128137Y7241D01*
X128234Y7239D01*
X131345Y7239D01*
X131345Y13462D01*
X131343Y13550D01*
X131338Y13638D01*
X131328Y13725D01*
X131315Y13813D01*
X131298Y13899D01*
X131278Y13985D01*
X131254Y14069D01*
X131227Y14153D01*
X131195Y14235D01*
X131161Y14316D01*
X131123Y14396D01*
X131082Y14473D01*
X131037Y14549D01*
X130989Y14623D01*
X130938Y14695D01*
X130885Y14765D01*
X130828Y14832D01*
X130768Y14897D01*
X130706Y14959D01*
X130641Y15019D01*
X130574Y15076D01*
X130504Y15129D01*
X130432Y15180D01*
X130358Y15228D01*
X130282Y15273D01*
X130205Y15314D01*
X130125Y15352D01*
X130044Y15386D01*
X129962Y15418D01*
X129878Y15445D01*
X129794Y15469D01*
X129708Y15489D01*
X129622Y15506D01*
X129534Y15519D01*
X129447Y15529D01*
X129359Y15534D01*
X129271Y15536D01*
X126505Y15536D01*
X137942Y15536D02*
X137942Y7239D01*
X137942Y15536D02*
X142090Y15536D01*
X142090Y14153D01*
X145954Y3090D02*
X147337Y3090D01*
X151486Y15536D01*
X145954Y15536D02*
X148720Y7239D01*
X164281Y14153D02*
X167738Y14153D01*
X167855Y14151D01*
X167971Y14145D01*
X168088Y14135D01*
X168204Y14121D01*
X168319Y14104D01*
X168434Y14082D01*
X168548Y14057D01*
X168661Y14028D01*
X168773Y13994D01*
X168884Y13958D01*
X168993Y13917D01*
X169101Y13873D01*
X169208Y13825D01*
X169313Y13774D01*
X169416Y13719D01*
X169517Y13660D01*
X169616Y13598D01*
X169713Y13533D01*
X169808Y13465D01*
X169900Y13394D01*
X169990Y13319D01*
X170077Y13241D01*
X170162Y13161D01*
X170244Y13078D01*
X170323Y12992D01*
X170399Y12903D01*
X170472Y12812D01*
X170542Y12719D01*
X170608Y12623D01*
X170672Y12525D01*
X170732Y12424D01*
X170789Y12322D01*
X170842Y12218D01*
X170891Y12113D01*
X170937Y12005D01*
X170980Y11897D01*
X171019Y11786D01*
X171053Y11675D01*
X171085Y11563D01*
X171112Y11449D01*
X171136Y11335D01*
X171155Y11219D01*
X171171Y11104D01*
X171183Y10988D01*
X171191Y10871D01*
X171195Y10754D01*
X171195Y10638D01*
X171191Y10521D01*
X171183Y10404D01*
X171171Y10288D01*
X171155Y10173D01*
X171136Y10057D01*
X171112Y9943D01*
X171085Y9829D01*
X171053Y9717D01*
X171019Y9606D01*
X170980Y9495D01*
X170937Y9387D01*
X170891Y9279D01*
X170842Y9174D01*
X170789Y9070D01*
X170732Y8967D01*
X170672Y8867D01*
X170608Y8769D01*
X170542Y8673D01*
X170472Y8580D01*
X170399Y8489D01*
X170323Y8400D01*
X170244Y8314D01*
X170162Y8231D01*
X170077Y8151D01*
X169990Y8073D01*
X169900Y7998D01*
X169808Y7927D01*
X169713Y7859D01*
X169616Y7794D01*
X169517Y7732D01*
X169416Y7673D01*
X169313Y7618D01*
X169208Y7567D01*
X169101Y7519D01*
X168993Y7475D01*
X168884Y7434D01*
X168773Y7398D01*
X168661Y7364D01*
X168548Y7335D01*
X168434Y7310D01*
X168319Y7288D01*
X168204Y7271D01*
X168088Y7257D01*
X167971Y7247D01*
X167855Y7241D01*
X167738Y7239D01*
X164281Y7239D01*
X164281Y19685D01*
X167738Y19685D01*
X167841Y19683D01*
X167945Y19677D01*
X168048Y19668D01*
X168150Y19654D01*
X168252Y19637D01*
X168353Y19616D01*
X168454Y19591D01*
X168553Y19562D01*
X168652Y19530D01*
X168749Y19494D01*
X168844Y19454D01*
X168938Y19411D01*
X169030Y19364D01*
X169121Y19314D01*
X169210Y19261D01*
X169296Y19204D01*
X169381Y19145D01*
X169463Y19082D01*
X169542Y19016D01*
X169619Y18947D01*
X169694Y18875D01*
X169766Y18800D01*
X169835Y18723D01*
X169901Y18644D01*
X169964Y18562D01*
X170023Y18477D01*
X170080Y18391D01*
X170133Y18302D01*
X170183Y18211D01*
X170230Y18119D01*
X170273Y18025D01*
X170313Y17930D01*
X170349Y17833D01*
X170381Y17734D01*
X170410Y17635D01*
X170435Y17534D01*
X170456Y17433D01*
X170473Y17331D01*
X170487Y17229D01*
X170496Y17126D01*
X170502Y17022D01*
X170504Y16919D01*
X170502Y16816D01*
X170496Y16712D01*
X170487Y16609D01*
X170473Y16507D01*
X170456Y16405D01*
X170435Y16304D01*
X170410Y16203D01*
X170381Y16104D01*
X170349Y16005D01*
X170313Y15908D01*
X170273Y15813D01*
X170230Y15719D01*
X170183Y15627D01*
X170133Y15536D01*
X170080Y15447D01*
X170023Y15361D01*
X169964Y15276D01*
X169901Y15194D01*
X169835Y15115D01*
X169766Y15038D01*
X169694Y14963D01*
X169619Y14891D01*
X169542Y14822D01*
X169463Y14756D01*
X169381Y14693D01*
X169296Y14634D01*
X169210Y14577D01*
X169121Y14524D01*
X169030Y14474D01*
X168938Y14427D01*
X168844Y14384D01*
X168749Y14344D01*
X168652Y14308D01*
X168553Y14276D01*
X168454Y14247D01*
X168353Y14222D01*
X168252Y14201D01*
X168150Y14184D01*
X168048Y14170D01*
X167945Y14161D01*
X167841Y14155D01*
X167738Y14153D01*
X176678Y15536D02*
X176678Y9313D01*
X176680Y9225D01*
X176685Y9137D01*
X176695Y9050D01*
X176708Y8962D01*
X176725Y8876D01*
X176745Y8790D01*
X176769Y8706D01*
X176796Y8622D01*
X176828Y8540D01*
X176862Y8459D01*
X176900Y8379D01*
X176941Y8302D01*
X176986Y8226D01*
X177034Y8152D01*
X177085Y8080D01*
X177138Y8010D01*
X177195Y7943D01*
X177255Y7878D01*
X177317Y7816D01*
X177382Y7756D01*
X177449Y7699D01*
X177519Y7646D01*
X177591Y7595D01*
X177665Y7547D01*
X177741Y7502D01*
X177818Y7461D01*
X177898Y7423D01*
X177979Y7389D01*
X178061Y7357D01*
X178145Y7330D01*
X178229Y7306D01*
X178315Y7286D01*
X178401Y7269D01*
X178489Y7256D01*
X178576Y7246D01*
X178664Y7241D01*
X178752Y7239D01*
X182209Y7239D01*
X182209Y15536D01*
X188858Y17611D02*
X188858Y7239D01*
X188859Y17611D02*
X188861Y17699D01*
X188866Y17787D01*
X188876Y17874D01*
X188889Y17962D01*
X188906Y18048D01*
X188926Y18134D01*
X188950Y18218D01*
X188977Y18302D01*
X189009Y18384D01*
X189043Y18465D01*
X189081Y18545D01*
X189122Y18622D01*
X189167Y18698D01*
X189215Y18772D01*
X189266Y18844D01*
X189319Y18914D01*
X189376Y18981D01*
X189436Y19046D01*
X189498Y19108D01*
X189563Y19168D01*
X189630Y19225D01*
X189700Y19279D01*
X189772Y19329D01*
X189846Y19377D01*
X189922Y19422D01*
X189999Y19463D01*
X190079Y19501D01*
X190160Y19535D01*
X190242Y19567D01*
X190326Y19594D01*
X190410Y19618D01*
X190496Y19638D01*
X190583Y19655D01*
X190670Y19668D01*
X190757Y19678D01*
X190845Y19683D01*
X190933Y19685D01*
X191624Y19685D01*
X191624Y15536D02*
X187475Y15536D01*
X196112Y17611D02*
X196112Y7239D01*
X196113Y17611D02*
X196115Y17699D01*
X196120Y17787D01*
X196130Y17874D01*
X196143Y17962D01*
X196160Y18048D01*
X196180Y18134D01*
X196204Y18218D01*
X196231Y18302D01*
X196263Y18384D01*
X196297Y18465D01*
X196335Y18545D01*
X196376Y18622D01*
X196421Y18698D01*
X196469Y18772D01*
X196520Y18844D01*
X196573Y18914D01*
X196630Y18981D01*
X196690Y19046D01*
X196752Y19108D01*
X196817Y19168D01*
X196884Y19225D01*
X196954Y19279D01*
X197026Y19329D01*
X197100Y19377D01*
X197176Y19422D01*
X197253Y19463D01*
X197333Y19501D01*
X197414Y19535D01*
X197496Y19567D01*
X197580Y19594D01*
X197664Y19618D01*
X197750Y19638D01*
X197837Y19655D01*
X197924Y19668D01*
X198011Y19678D01*
X198099Y19683D01*
X198187Y19685D01*
X198878Y19685D01*
X198878Y15536D02*
X194730Y15536D01*
X204782Y7239D02*
X208239Y7239D01*
X204782Y7239D02*
X204694Y7241D01*
X204606Y7246D01*
X204519Y7256D01*
X204431Y7269D01*
X204345Y7286D01*
X204259Y7306D01*
X204175Y7330D01*
X204091Y7357D01*
X204009Y7389D01*
X203928Y7423D01*
X203848Y7461D01*
X203771Y7502D01*
X203695Y7547D01*
X203621Y7595D01*
X203549Y7646D01*
X203479Y7699D01*
X203412Y7756D01*
X203347Y7816D01*
X203285Y7878D01*
X203225Y7943D01*
X203168Y8010D01*
X203115Y8080D01*
X203064Y8152D01*
X203016Y8226D01*
X202971Y8302D01*
X202930Y8379D01*
X202892Y8459D01*
X202858Y8540D01*
X202826Y8622D01*
X202799Y8706D01*
X202775Y8790D01*
X202755Y8876D01*
X202738Y8962D01*
X202725Y9050D01*
X202715Y9137D01*
X202710Y9225D01*
X202708Y9313D01*
X202708Y12771D01*
X202707Y12771D02*
X202709Y12874D01*
X202715Y12978D01*
X202724Y13081D01*
X202738Y13183D01*
X202755Y13285D01*
X202776Y13386D01*
X202801Y13487D01*
X202830Y13586D01*
X202862Y13685D01*
X202898Y13782D01*
X202938Y13877D01*
X202981Y13971D01*
X203028Y14063D01*
X203078Y14154D01*
X203131Y14243D01*
X203188Y14329D01*
X203247Y14414D01*
X203310Y14496D01*
X203376Y14575D01*
X203445Y14652D01*
X203517Y14727D01*
X203592Y14799D01*
X203669Y14868D01*
X203748Y14934D01*
X203830Y14997D01*
X203915Y15056D01*
X204001Y15113D01*
X204090Y15166D01*
X204181Y15216D01*
X204273Y15263D01*
X204367Y15306D01*
X204462Y15346D01*
X204559Y15382D01*
X204658Y15414D01*
X204757Y15443D01*
X204858Y15468D01*
X204959Y15489D01*
X205061Y15506D01*
X205163Y15520D01*
X205266Y15529D01*
X205370Y15535D01*
X205473Y15537D01*
X205576Y15535D01*
X205680Y15529D01*
X205783Y15520D01*
X205885Y15506D01*
X205987Y15489D01*
X206088Y15468D01*
X206189Y15443D01*
X206288Y15414D01*
X206387Y15382D01*
X206484Y15346D01*
X206579Y15306D01*
X206673Y15263D01*
X206765Y15216D01*
X206856Y15166D01*
X206945Y15113D01*
X207031Y15056D01*
X207116Y14997D01*
X207198Y14934D01*
X207277Y14868D01*
X207354Y14799D01*
X207429Y14727D01*
X207501Y14652D01*
X207570Y14575D01*
X207636Y14496D01*
X207699Y14414D01*
X207758Y14329D01*
X207815Y14243D01*
X207868Y14154D01*
X207918Y14063D01*
X207965Y13971D01*
X208008Y13877D01*
X208048Y13782D01*
X208084Y13685D01*
X208116Y13586D01*
X208145Y13487D01*
X208170Y13386D01*
X208191Y13285D01*
X208208Y13183D01*
X208222Y13081D01*
X208231Y12978D01*
X208237Y12874D01*
X208239Y12771D01*
X208239Y11388D01*
X202708Y11388D01*
X214324Y7239D02*
X214324Y15536D01*
X218473Y15536D01*
X218473Y14153D01*
X222337Y5856D02*
X227868Y21068D01*
X234064Y19685D02*
X234064Y7239D01*
X235446Y7239D02*
X232681Y7239D01*
X232681Y19685D02*
X235446Y19685D01*
X241112Y15536D02*
X241112Y7239D01*
X241112Y15536D02*
X244570Y15536D01*
X244658Y15534D01*
X244746Y15529D01*
X244833Y15519D01*
X244921Y15506D01*
X245007Y15489D01*
X245093Y15469D01*
X245177Y15445D01*
X245261Y15418D01*
X245343Y15386D01*
X245424Y15352D01*
X245504Y15314D01*
X245581Y15273D01*
X245657Y15228D01*
X245731Y15180D01*
X245803Y15129D01*
X245873Y15076D01*
X245940Y15019D01*
X246005Y14959D01*
X246067Y14897D01*
X246127Y14832D01*
X246184Y14765D01*
X246237Y14695D01*
X246288Y14623D01*
X246336Y14549D01*
X246381Y14473D01*
X246422Y14396D01*
X246460Y14316D01*
X246494Y14235D01*
X246526Y14153D01*
X246553Y14069D01*
X246577Y13985D01*
X246597Y13899D01*
X246614Y13813D01*
X246627Y13725D01*
X246637Y13638D01*
X246642Y13550D01*
X246644Y13462D01*
X246644Y7239D01*
X254973Y7239D02*
X252207Y15536D01*
X257739Y15536D02*
X254973Y7239D01*
X264949Y7239D02*
X268407Y7239D01*
X264949Y7239D02*
X264861Y7241D01*
X264773Y7246D01*
X264686Y7256D01*
X264598Y7269D01*
X264512Y7286D01*
X264426Y7306D01*
X264342Y7330D01*
X264258Y7357D01*
X264176Y7389D01*
X264095Y7423D01*
X264015Y7461D01*
X263938Y7502D01*
X263862Y7547D01*
X263788Y7595D01*
X263716Y7646D01*
X263646Y7699D01*
X263579Y7756D01*
X263514Y7816D01*
X263452Y7878D01*
X263392Y7943D01*
X263335Y8010D01*
X263282Y8080D01*
X263231Y8152D01*
X263183Y8226D01*
X263138Y8302D01*
X263097Y8379D01*
X263059Y8459D01*
X263025Y8540D01*
X262993Y8622D01*
X262966Y8706D01*
X262942Y8790D01*
X262922Y8876D01*
X262905Y8962D01*
X262892Y9050D01*
X262882Y9137D01*
X262877Y9225D01*
X262875Y9313D01*
X262875Y12771D01*
X262877Y12874D01*
X262883Y12978D01*
X262892Y13081D01*
X262906Y13183D01*
X262923Y13285D01*
X262944Y13386D01*
X262969Y13487D01*
X262998Y13586D01*
X263030Y13685D01*
X263066Y13782D01*
X263106Y13877D01*
X263149Y13971D01*
X263196Y14063D01*
X263246Y14154D01*
X263299Y14243D01*
X263356Y14329D01*
X263415Y14414D01*
X263478Y14496D01*
X263544Y14575D01*
X263613Y14652D01*
X263685Y14727D01*
X263760Y14799D01*
X263837Y14868D01*
X263916Y14934D01*
X263998Y14997D01*
X264083Y15056D01*
X264169Y15113D01*
X264258Y15166D01*
X264349Y15216D01*
X264441Y15263D01*
X264535Y15306D01*
X264630Y15346D01*
X264727Y15382D01*
X264826Y15414D01*
X264925Y15443D01*
X265026Y15468D01*
X265127Y15489D01*
X265229Y15506D01*
X265331Y15520D01*
X265434Y15529D01*
X265538Y15535D01*
X265641Y15537D01*
X265744Y15535D01*
X265848Y15529D01*
X265951Y15520D01*
X266053Y15506D01*
X266155Y15489D01*
X266256Y15468D01*
X266357Y15443D01*
X266456Y15414D01*
X266555Y15382D01*
X266652Y15346D01*
X266747Y15306D01*
X266841Y15263D01*
X266933Y15216D01*
X267024Y15166D01*
X267113Y15113D01*
X267199Y15056D01*
X267284Y14997D01*
X267366Y14934D01*
X267445Y14868D01*
X267522Y14799D01*
X267597Y14727D01*
X267669Y14652D01*
X267738Y14575D01*
X267804Y14496D01*
X267867Y14414D01*
X267926Y14329D01*
X267983Y14243D01*
X268036Y14154D01*
X268086Y14063D01*
X268133Y13971D01*
X268176Y13877D01*
X268216Y13782D01*
X268252Y13685D01*
X268284Y13586D01*
X268313Y13487D01*
X268338Y13386D01*
X268359Y13285D01*
X268376Y13183D01*
X268390Y13081D01*
X268399Y12978D01*
X268405Y12874D01*
X268407Y12771D01*
X268407Y11388D01*
X262875Y11388D01*
X274492Y7239D02*
X274492Y15536D01*
X278640Y15536D01*
X278640Y14153D01*
X281783Y15536D02*
X285932Y15536D01*
X283166Y19685D02*
X283166Y9313D01*
X283168Y9225D01*
X283173Y9137D01*
X283183Y9050D01*
X283196Y8962D01*
X283213Y8876D01*
X283233Y8790D01*
X283257Y8706D01*
X283284Y8622D01*
X283316Y8540D01*
X283350Y8459D01*
X283388Y8379D01*
X283429Y8302D01*
X283474Y8226D01*
X283522Y8152D01*
X283573Y8080D01*
X283626Y8010D01*
X283683Y7943D01*
X283743Y7878D01*
X283805Y7816D01*
X283870Y7756D01*
X283937Y7699D01*
X284007Y7645D01*
X284079Y7595D01*
X284153Y7547D01*
X284229Y7502D01*
X284306Y7461D01*
X284386Y7423D01*
X284467Y7389D01*
X284549Y7357D01*
X284633Y7330D01*
X284717Y7306D01*
X284803Y7286D01*
X284890Y7269D01*
X284977Y7256D01*
X285064Y7246D01*
X285152Y7241D01*
X285240Y7239D01*
X285932Y7239D01*
X293113Y7239D02*
X296570Y7239D01*
X293113Y7239D02*
X293025Y7241D01*
X292937Y7246D01*
X292850Y7256D01*
X292762Y7269D01*
X292676Y7286D01*
X292590Y7306D01*
X292506Y7330D01*
X292422Y7357D01*
X292340Y7389D01*
X292259Y7423D01*
X292179Y7461D01*
X292102Y7502D01*
X292026Y7547D01*
X291952Y7595D01*
X291880Y7646D01*
X291810Y7699D01*
X291743Y7756D01*
X291678Y7816D01*
X291616Y7878D01*
X291556Y7943D01*
X291499Y8010D01*
X291446Y8080D01*
X291395Y8152D01*
X291347Y8226D01*
X291302Y8302D01*
X291261Y8379D01*
X291223Y8459D01*
X291189Y8540D01*
X291157Y8622D01*
X291130Y8706D01*
X291106Y8790D01*
X291086Y8876D01*
X291069Y8962D01*
X291056Y9050D01*
X291046Y9137D01*
X291041Y9225D01*
X291039Y9313D01*
X291039Y12771D01*
X291038Y12771D02*
X291040Y12874D01*
X291046Y12978D01*
X291055Y13081D01*
X291069Y13183D01*
X291086Y13285D01*
X291107Y13386D01*
X291132Y13487D01*
X291161Y13586D01*
X291193Y13685D01*
X291229Y13782D01*
X291269Y13877D01*
X291312Y13971D01*
X291359Y14063D01*
X291409Y14154D01*
X291462Y14243D01*
X291519Y14329D01*
X291578Y14414D01*
X291641Y14496D01*
X291707Y14575D01*
X291776Y14652D01*
X291848Y14727D01*
X291923Y14799D01*
X292000Y14868D01*
X292079Y14934D01*
X292161Y14997D01*
X292246Y15056D01*
X292332Y15113D01*
X292421Y15166D01*
X292512Y15216D01*
X292604Y15263D01*
X292698Y15306D01*
X292793Y15346D01*
X292890Y15382D01*
X292989Y15414D01*
X293088Y15443D01*
X293189Y15468D01*
X293290Y15489D01*
X293392Y15506D01*
X293494Y15520D01*
X293597Y15529D01*
X293701Y15535D01*
X293804Y15537D01*
X293907Y15535D01*
X294011Y15529D01*
X294114Y15520D01*
X294216Y15506D01*
X294318Y15489D01*
X294419Y15468D01*
X294520Y15443D01*
X294619Y15414D01*
X294718Y15382D01*
X294815Y15346D01*
X294910Y15306D01*
X295004Y15263D01*
X295096Y15216D01*
X295187Y15166D01*
X295276Y15113D01*
X295362Y15056D01*
X295447Y14997D01*
X295529Y14934D01*
X295608Y14868D01*
X295685Y14799D01*
X295760Y14727D01*
X295832Y14652D01*
X295901Y14575D01*
X295967Y14496D01*
X296030Y14414D01*
X296089Y14329D01*
X296146Y14243D01*
X296199Y14154D01*
X296249Y14063D01*
X296296Y13971D01*
X296339Y13877D01*
X296379Y13782D01*
X296415Y13685D01*
X296447Y13586D01*
X296476Y13487D01*
X296501Y13386D01*
X296522Y13285D01*
X296539Y13183D01*
X296553Y13081D01*
X296562Y12978D01*
X296568Y12874D01*
X296570Y12771D01*
X296570Y11388D01*
X291039Y11388D01*
X302655Y7239D02*
X302655Y15536D01*
X306804Y15536D01*
X306804Y14153D01*
X214588Y286858D02*
X210439Y292735D01*
X214588Y286858D02*
X218736Y292735D01*
X214588Y286858D02*
X214588Y280289D01*
X226106Y285129D02*
X229217Y285129D01*
X226106Y285129D02*
X226009Y285127D01*
X225911Y285121D01*
X225814Y285111D01*
X225718Y285098D01*
X225622Y285080D01*
X225527Y285059D01*
X225433Y285033D01*
X225340Y285004D01*
X225248Y284972D01*
X225157Y284935D01*
X225069Y284895D01*
X224981Y284852D01*
X224896Y284805D01*
X224813Y284754D01*
X224731Y284701D01*
X224652Y284644D01*
X224575Y284584D01*
X224501Y284520D01*
X224430Y284454D01*
X224361Y284385D01*
X224295Y284314D01*
X224231Y284240D01*
X224171Y284163D01*
X224114Y284084D01*
X224061Y284002D01*
X224010Y283919D01*
X223963Y283834D01*
X223920Y283746D01*
X223880Y283658D01*
X223843Y283567D01*
X223811Y283475D01*
X223782Y283382D01*
X223756Y283288D01*
X223735Y283193D01*
X223717Y283097D01*
X223704Y283001D01*
X223694Y282904D01*
X223688Y282806D01*
X223686Y282709D01*
X223688Y282612D01*
X223694Y282514D01*
X223704Y282417D01*
X223717Y282321D01*
X223735Y282225D01*
X223756Y282130D01*
X223782Y282036D01*
X223811Y281943D01*
X223843Y281851D01*
X223880Y281760D01*
X223920Y281672D01*
X223963Y281584D01*
X224010Y281499D01*
X224061Y281416D01*
X224114Y281334D01*
X224171Y281255D01*
X224231Y281178D01*
X224295Y281104D01*
X224361Y281033D01*
X224430Y280964D01*
X224501Y280898D01*
X224575Y280834D01*
X224652Y280774D01*
X224731Y280717D01*
X224813Y280664D01*
X224896Y280613D01*
X224981Y280566D01*
X225069Y280523D01*
X225157Y280483D01*
X225248Y280446D01*
X225340Y280414D01*
X225433Y280385D01*
X225527Y280359D01*
X225622Y280338D01*
X225718Y280320D01*
X225814Y280307D01*
X225911Y280297D01*
X226009Y280291D01*
X226106Y280289D01*
X229217Y280289D01*
X229217Y286512D01*
X229215Y286600D01*
X229210Y286688D01*
X229200Y286775D01*
X229187Y286863D01*
X229170Y286949D01*
X229150Y287035D01*
X229126Y287119D01*
X229099Y287203D01*
X229067Y287285D01*
X229033Y287366D01*
X228995Y287446D01*
X228954Y287523D01*
X228909Y287599D01*
X228861Y287673D01*
X228810Y287745D01*
X228757Y287815D01*
X228700Y287882D01*
X228640Y287947D01*
X228578Y288009D01*
X228513Y288069D01*
X228446Y288126D01*
X228376Y288179D01*
X228304Y288230D01*
X228230Y288278D01*
X228154Y288323D01*
X228077Y288364D01*
X227997Y288402D01*
X227916Y288436D01*
X227834Y288468D01*
X227750Y288495D01*
X227666Y288519D01*
X227580Y288539D01*
X227494Y288556D01*
X227406Y288569D01*
X227319Y288579D01*
X227231Y288584D01*
X227143Y288586D01*
X224377Y288586D01*
X235803Y288586D02*
X235803Y276140D01*
X235803Y288586D02*
X239260Y288586D01*
X239348Y288584D01*
X239436Y288579D01*
X239523Y288569D01*
X239611Y288556D01*
X239697Y288539D01*
X239783Y288519D01*
X239867Y288495D01*
X239951Y288468D01*
X240033Y288436D01*
X240114Y288402D01*
X240194Y288364D01*
X240271Y288323D01*
X240347Y288278D01*
X240421Y288230D01*
X240493Y288179D01*
X240563Y288126D01*
X240630Y288069D01*
X240695Y288009D01*
X240757Y287947D01*
X240817Y287882D01*
X240874Y287815D01*
X240927Y287745D01*
X240978Y287673D01*
X241026Y287599D01*
X241071Y287523D01*
X241112Y287446D01*
X241150Y287366D01*
X241184Y287285D01*
X241216Y287203D01*
X241243Y287119D01*
X241267Y287035D01*
X241287Y286949D01*
X241304Y286863D01*
X241317Y286775D01*
X241327Y286688D01*
X241332Y286600D01*
X241334Y286512D01*
X241334Y282363D01*
X241332Y282275D01*
X241327Y282187D01*
X241317Y282100D01*
X241304Y282012D01*
X241287Y281926D01*
X241267Y281840D01*
X241243Y281756D01*
X241216Y281672D01*
X241184Y281590D01*
X241150Y281509D01*
X241112Y281429D01*
X241071Y281352D01*
X241026Y281276D01*
X240978Y281202D01*
X240927Y281130D01*
X240874Y281060D01*
X240817Y280993D01*
X240757Y280928D01*
X240695Y280866D01*
X240630Y280806D01*
X240563Y280749D01*
X240493Y280696D01*
X240421Y280645D01*
X240347Y280597D01*
X240271Y280552D01*
X240194Y280511D01*
X240114Y280473D01*
X240033Y280439D01*
X239951Y280407D01*
X239867Y280380D01*
X239783Y280356D01*
X239697Y280336D01*
X239611Y280319D01*
X239523Y280306D01*
X239436Y280296D01*
X239348Y280291D01*
X239260Y280289D01*
X235803Y280289D01*
X246813Y283055D02*
X246813Y285821D01*
X246815Y285924D01*
X246821Y286028D01*
X246830Y286131D01*
X246844Y286233D01*
X246861Y286335D01*
X246882Y286436D01*
X246907Y286537D01*
X246936Y286636D01*
X246968Y286735D01*
X247004Y286832D01*
X247044Y286927D01*
X247087Y287021D01*
X247134Y287113D01*
X247184Y287204D01*
X247237Y287293D01*
X247294Y287379D01*
X247353Y287464D01*
X247416Y287546D01*
X247482Y287625D01*
X247551Y287702D01*
X247623Y287777D01*
X247698Y287849D01*
X247775Y287918D01*
X247854Y287984D01*
X247936Y288047D01*
X248021Y288106D01*
X248107Y288163D01*
X248196Y288216D01*
X248287Y288266D01*
X248379Y288313D01*
X248473Y288356D01*
X248568Y288396D01*
X248665Y288432D01*
X248764Y288464D01*
X248863Y288493D01*
X248964Y288518D01*
X249065Y288539D01*
X249167Y288556D01*
X249269Y288570D01*
X249372Y288579D01*
X249476Y288585D01*
X249579Y288587D01*
X249682Y288585D01*
X249786Y288579D01*
X249889Y288570D01*
X249991Y288556D01*
X250093Y288539D01*
X250194Y288518D01*
X250295Y288493D01*
X250394Y288464D01*
X250493Y288432D01*
X250590Y288396D01*
X250685Y288356D01*
X250779Y288313D01*
X250871Y288266D01*
X250962Y288216D01*
X251051Y288163D01*
X251137Y288106D01*
X251222Y288047D01*
X251304Y287984D01*
X251383Y287918D01*
X251460Y287849D01*
X251535Y287777D01*
X251607Y287702D01*
X251676Y287625D01*
X251742Y287546D01*
X251805Y287464D01*
X251864Y287379D01*
X251921Y287293D01*
X251974Y287204D01*
X252024Y287113D01*
X252071Y287021D01*
X252114Y286927D01*
X252154Y286832D01*
X252190Y286735D01*
X252222Y286636D01*
X252251Y286537D01*
X252276Y286436D01*
X252297Y286335D01*
X252314Y286233D01*
X252328Y286131D01*
X252337Y286028D01*
X252343Y285924D01*
X252345Y285821D01*
X252344Y285821D02*
X252344Y283055D01*
X252345Y283055D02*
X252343Y282952D01*
X252337Y282848D01*
X252328Y282745D01*
X252314Y282643D01*
X252297Y282541D01*
X252276Y282440D01*
X252251Y282339D01*
X252222Y282240D01*
X252190Y282141D01*
X252154Y282044D01*
X252114Y281949D01*
X252071Y281855D01*
X252024Y281763D01*
X251974Y281672D01*
X251921Y281583D01*
X251864Y281497D01*
X251805Y281412D01*
X251742Y281330D01*
X251676Y281251D01*
X251607Y281174D01*
X251535Y281099D01*
X251460Y281027D01*
X251383Y280958D01*
X251304Y280892D01*
X251222Y280829D01*
X251137Y280770D01*
X251051Y280713D01*
X250962Y280660D01*
X250871Y280610D01*
X250779Y280563D01*
X250685Y280520D01*
X250590Y280480D01*
X250493Y280444D01*
X250394Y280412D01*
X250295Y280383D01*
X250194Y280358D01*
X250093Y280337D01*
X249991Y280320D01*
X249889Y280306D01*
X249786Y280297D01*
X249682Y280291D01*
X249579Y280289D01*
X249476Y280291D01*
X249372Y280297D01*
X249269Y280306D01*
X249167Y280320D01*
X249065Y280337D01*
X248964Y280358D01*
X248863Y280383D01*
X248764Y280412D01*
X248665Y280444D01*
X248568Y280480D01*
X248473Y280520D01*
X248379Y280563D01*
X248287Y280610D01*
X248196Y280660D01*
X248107Y280713D01*
X248021Y280770D01*
X247936Y280829D01*
X247854Y280892D01*
X247775Y280958D01*
X247698Y281027D01*
X247623Y281099D01*
X247551Y281174D01*
X247482Y281251D01*
X247416Y281330D01*
X247353Y281412D01*
X247294Y281497D01*
X247237Y281583D01*
X247184Y281672D01*
X247134Y281763D01*
X247087Y281855D01*
X247044Y281949D01*
X247004Y282044D01*
X246968Y282141D01*
X246936Y282240D01*
X246907Y282339D01*
X246882Y282440D01*
X246861Y282541D01*
X246844Y282643D01*
X246830Y282745D01*
X246821Y282848D01*
X246815Y282952D01*
X246813Y283055D01*
X268700Y292736D02*
X268811Y292734D01*
X268922Y292728D01*
X269033Y292718D01*
X269143Y292704D01*
X269253Y292687D01*
X269362Y292665D01*
X269470Y292639D01*
X269577Y292610D01*
X269683Y292577D01*
X269788Y292540D01*
X269891Y292499D01*
X269993Y292455D01*
X270093Y292407D01*
X270191Y292355D01*
X270288Y292300D01*
X270382Y292242D01*
X270475Y292180D01*
X270565Y292115D01*
X270653Y292047D01*
X270738Y291976D01*
X270821Y291902D01*
X270901Y291825D01*
X270978Y291745D01*
X271052Y291662D01*
X271123Y291577D01*
X271191Y291489D01*
X271256Y291399D01*
X271318Y291306D01*
X271376Y291212D01*
X271431Y291115D01*
X271483Y291017D01*
X271531Y290917D01*
X271575Y290815D01*
X271616Y290712D01*
X271653Y290607D01*
X271686Y290501D01*
X271715Y290394D01*
X271741Y290286D01*
X271763Y290177D01*
X271780Y290067D01*
X271794Y289957D01*
X271804Y289846D01*
X271810Y289735D01*
X271812Y289624D01*
X268700Y292735D02*
X268574Y292733D01*
X268449Y292727D01*
X268324Y292717D01*
X268199Y292703D01*
X268074Y292686D01*
X267950Y292664D01*
X267827Y292639D01*
X267705Y292609D01*
X267584Y292576D01*
X267464Y292539D01*
X267345Y292498D01*
X267228Y292454D01*
X267111Y292406D01*
X266997Y292354D01*
X266884Y292299D01*
X266773Y292240D01*
X266664Y292178D01*
X266557Y292112D01*
X266452Y292043D01*
X266349Y291971D01*
X266249Y291895D01*
X266151Y291816D01*
X266055Y291735D01*
X265962Y291650D01*
X265872Y291563D01*
X265785Y291472D01*
X265700Y291379D01*
X265619Y291284D01*
X265540Y291186D01*
X265465Y291085D01*
X265392Y290982D01*
X265324Y290877D01*
X265258Y290770D01*
X265196Y290661D01*
X265137Y290550D01*
X265082Y290437D01*
X265030Y290322D01*
X264982Y290206D01*
X264938Y290088D01*
X264897Y289970D01*
X270775Y287204D02*
X270855Y287283D01*
X270933Y287365D01*
X271008Y287449D01*
X271079Y287536D01*
X271148Y287625D01*
X271214Y287717D01*
X271277Y287810D01*
X271337Y287906D01*
X271393Y288004D01*
X271446Y288103D01*
X271496Y288205D01*
X271542Y288307D01*
X271584Y288412D01*
X271624Y288518D01*
X271659Y288625D01*
X271691Y288733D01*
X271719Y288842D01*
X271744Y288952D01*
X271765Y289063D01*
X271782Y289174D01*
X271795Y289286D01*
X271804Y289399D01*
X271810Y289511D01*
X271812Y289624D01*
X270774Y287203D02*
X264897Y280289D01*
X271812Y280289D01*
X277699Y286512D02*
X277702Y286757D01*
X277711Y287002D01*
X277725Y287246D01*
X277746Y287490D01*
X277772Y287733D01*
X277804Y287976D01*
X277842Y288218D01*
X277885Y288459D01*
X277935Y288699D01*
X277990Y288937D01*
X278051Y289174D01*
X278117Y289410D01*
X278189Y289644D01*
X278267Y289876D01*
X278350Y290107D01*
X278438Y290335D01*
X278532Y290561D01*
X278631Y290785D01*
X278736Y291006D01*
X278736Y291007D02*
X278770Y291100D01*
X278808Y291192D01*
X278849Y291282D01*
X278893Y291370D01*
X278941Y291457D01*
X278993Y291542D01*
X279047Y291625D01*
X279105Y291705D01*
X279166Y291784D01*
X279229Y291860D01*
X279296Y291933D01*
X279366Y292004D01*
X279438Y292072D01*
X279512Y292137D01*
X279590Y292199D01*
X279669Y292259D01*
X279751Y292315D01*
X279835Y292367D01*
X279921Y292417D01*
X280009Y292463D01*
X280098Y292506D01*
X280189Y292545D01*
X280282Y292581D01*
X280375Y292613D01*
X280470Y292641D01*
X280566Y292666D01*
X280663Y292687D01*
X280761Y292704D01*
X280859Y292718D01*
X280958Y292727D01*
X281057Y292733D01*
X281156Y292735D01*
X281255Y292733D01*
X281354Y292727D01*
X281453Y292718D01*
X281551Y292704D01*
X281649Y292687D01*
X281746Y292666D01*
X281842Y292641D01*
X281937Y292613D01*
X282030Y292581D01*
X282123Y292545D01*
X282214Y292506D01*
X282304Y292463D01*
X282391Y292417D01*
X282477Y292367D01*
X282561Y292315D01*
X282643Y292259D01*
X282722Y292199D01*
X282800Y292137D01*
X282874Y292072D01*
X282946Y292004D01*
X283016Y291933D01*
X283083Y291860D01*
X283146Y291784D01*
X283207Y291705D01*
X283265Y291625D01*
X283319Y291542D01*
X283371Y291457D01*
X283419Y291370D01*
X283463Y291282D01*
X283504Y291191D01*
X283542Y291100D01*
X283576Y291007D01*
X283576Y291006D02*
X283680Y290785D01*
X283780Y290561D01*
X283874Y290335D01*
X283962Y290107D01*
X284045Y289876D01*
X284123Y289644D01*
X284195Y289410D01*
X284261Y289175D01*
X284322Y288937D01*
X284377Y288699D01*
X284427Y288459D01*
X284470Y288218D01*
X284508Y287976D01*
X284540Y287733D01*
X284566Y287490D01*
X284587Y287246D01*
X284601Y287002D01*
X284610Y286757D01*
X284613Y286512D01*
X277698Y286512D02*
X277701Y286267D01*
X277710Y286022D01*
X277724Y285778D01*
X277745Y285534D01*
X277771Y285291D01*
X277803Y285048D01*
X277841Y284806D01*
X277884Y284565D01*
X277934Y284325D01*
X277989Y284087D01*
X278050Y283849D01*
X278116Y283614D01*
X278188Y283380D01*
X278266Y283147D01*
X278349Y282917D01*
X278437Y282689D01*
X278531Y282463D01*
X278631Y282239D01*
X278735Y282017D01*
X278736Y282017D02*
X278770Y281924D01*
X278808Y281832D01*
X278849Y281742D01*
X278893Y281654D01*
X278941Y281567D01*
X278993Y281482D01*
X279047Y281399D01*
X279105Y281319D01*
X279166Y281240D01*
X279229Y281164D01*
X279296Y281091D01*
X279366Y281020D01*
X279438Y280952D01*
X279512Y280887D01*
X279590Y280825D01*
X279669Y280765D01*
X279751Y280709D01*
X279835Y280657D01*
X279921Y280607D01*
X280009Y280561D01*
X280098Y280518D01*
X280189Y280479D01*
X280282Y280443D01*
X280375Y280411D01*
X280470Y280383D01*
X280566Y280358D01*
X280663Y280337D01*
X280761Y280320D01*
X280859Y280306D01*
X280958Y280297D01*
X281057Y280291D01*
X281156Y280289D01*
X283576Y282018D02*
X283681Y282239D01*
X283780Y282463D01*
X283874Y282689D01*
X283962Y282917D01*
X284045Y283148D01*
X284123Y283380D01*
X284195Y283614D01*
X284261Y283850D01*
X284322Y284087D01*
X284377Y284325D01*
X284427Y284565D01*
X284470Y284806D01*
X284508Y285048D01*
X284540Y285291D01*
X284566Y285534D01*
X284587Y285778D01*
X284601Y286022D01*
X284610Y286267D01*
X284613Y286512D01*
X283576Y282017D02*
X283542Y281924D01*
X283504Y281832D01*
X283463Y281742D01*
X283419Y281654D01*
X283371Y281567D01*
X283319Y281482D01*
X283265Y281399D01*
X283207Y281319D01*
X283146Y281240D01*
X283083Y281164D01*
X283016Y281091D01*
X282946Y281020D01*
X282874Y280952D01*
X282800Y280887D01*
X282722Y280825D01*
X282643Y280765D01*
X282561Y280709D01*
X282477Y280657D01*
X282391Y280607D01*
X282304Y280561D01*
X282214Y280518D01*
X282123Y280479D01*
X282030Y280443D01*
X281937Y280411D01*
X281842Y280383D01*
X281746Y280358D01*
X281649Y280337D01*
X281551Y280320D01*
X281453Y280306D01*
X281354Y280297D01*
X281255Y280291D01*
X281156Y280289D01*
X278390Y283055D02*
X283922Y289969D01*
X294303Y292736D02*
X294414Y292734D01*
X294525Y292728D01*
X294636Y292718D01*
X294746Y292704D01*
X294856Y292687D01*
X294965Y292665D01*
X295073Y292639D01*
X295180Y292610D01*
X295286Y292577D01*
X295391Y292540D01*
X295494Y292499D01*
X295596Y292455D01*
X295696Y292407D01*
X295794Y292355D01*
X295891Y292300D01*
X295985Y292242D01*
X296078Y292180D01*
X296168Y292115D01*
X296256Y292047D01*
X296341Y291976D01*
X296424Y291902D01*
X296504Y291825D01*
X296581Y291745D01*
X296655Y291662D01*
X296726Y291577D01*
X296794Y291489D01*
X296859Y291399D01*
X296921Y291306D01*
X296979Y291212D01*
X297034Y291115D01*
X297086Y291017D01*
X297134Y290917D01*
X297178Y290815D01*
X297219Y290712D01*
X297256Y290607D01*
X297289Y290501D01*
X297318Y290394D01*
X297344Y290286D01*
X297366Y290177D01*
X297383Y290067D01*
X297397Y289957D01*
X297407Y289846D01*
X297413Y289735D01*
X297415Y289624D01*
X294303Y292735D02*
X294177Y292733D01*
X294052Y292727D01*
X293927Y292717D01*
X293802Y292703D01*
X293677Y292686D01*
X293553Y292664D01*
X293430Y292639D01*
X293308Y292609D01*
X293187Y292576D01*
X293067Y292539D01*
X292948Y292498D01*
X292831Y292454D01*
X292714Y292406D01*
X292600Y292354D01*
X292487Y292299D01*
X292376Y292240D01*
X292267Y292178D01*
X292160Y292112D01*
X292055Y292043D01*
X291952Y291971D01*
X291852Y291895D01*
X291754Y291816D01*
X291658Y291735D01*
X291565Y291650D01*
X291475Y291563D01*
X291388Y291472D01*
X291303Y291379D01*
X291222Y291284D01*
X291143Y291186D01*
X291068Y291085D01*
X290995Y290982D01*
X290927Y290877D01*
X290861Y290770D01*
X290799Y290661D01*
X290740Y290550D01*
X290685Y290437D01*
X290633Y290322D01*
X290585Y290206D01*
X290541Y290088D01*
X290500Y289970D01*
X296378Y287204D02*
X296458Y287283D01*
X296536Y287365D01*
X296611Y287449D01*
X296682Y287536D01*
X296751Y287625D01*
X296817Y287717D01*
X296880Y287810D01*
X296940Y287906D01*
X296996Y288004D01*
X297049Y288103D01*
X297099Y288205D01*
X297145Y288307D01*
X297187Y288412D01*
X297227Y288518D01*
X297262Y288625D01*
X297294Y288733D01*
X297322Y288842D01*
X297347Y288952D01*
X297368Y289063D01*
X297385Y289174D01*
X297398Y289286D01*
X297407Y289399D01*
X297413Y289511D01*
X297415Y289624D01*
X296378Y287203D02*
X290500Y280289D01*
X297415Y280289D01*
X303302Y286512D02*
X303305Y286757D01*
X303314Y287002D01*
X303328Y287246D01*
X303349Y287490D01*
X303375Y287733D01*
X303407Y287976D01*
X303445Y288218D01*
X303488Y288459D01*
X303538Y288699D01*
X303593Y288937D01*
X303654Y289174D01*
X303720Y289410D01*
X303792Y289644D01*
X303870Y289876D01*
X303953Y290107D01*
X304041Y290335D01*
X304135Y290561D01*
X304234Y290785D01*
X304339Y291006D01*
X304339Y291007D02*
X304373Y291100D01*
X304411Y291192D01*
X304452Y291282D01*
X304496Y291370D01*
X304544Y291457D01*
X304596Y291542D01*
X304650Y291625D01*
X304708Y291705D01*
X304769Y291784D01*
X304832Y291860D01*
X304899Y291933D01*
X304969Y292004D01*
X305041Y292072D01*
X305115Y292137D01*
X305193Y292199D01*
X305272Y292259D01*
X305354Y292315D01*
X305438Y292367D01*
X305524Y292417D01*
X305612Y292463D01*
X305701Y292506D01*
X305792Y292545D01*
X305885Y292581D01*
X305978Y292613D01*
X306073Y292641D01*
X306169Y292666D01*
X306266Y292687D01*
X306364Y292704D01*
X306462Y292718D01*
X306561Y292727D01*
X306660Y292733D01*
X306759Y292735D01*
X306858Y292733D01*
X306957Y292727D01*
X307056Y292718D01*
X307154Y292704D01*
X307252Y292687D01*
X307349Y292666D01*
X307445Y292641D01*
X307540Y292613D01*
X307633Y292581D01*
X307726Y292545D01*
X307817Y292506D01*
X307907Y292463D01*
X307994Y292417D01*
X308080Y292367D01*
X308164Y292315D01*
X308246Y292259D01*
X308325Y292199D01*
X308403Y292137D01*
X308477Y292072D01*
X308549Y292004D01*
X308619Y291933D01*
X308686Y291860D01*
X308749Y291784D01*
X308810Y291705D01*
X308868Y291625D01*
X308922Y291542D01*
X308974Y291457D01*
X309022Y291370D01*
X309066Y291282D01*
X309107Y291191D01*
X309145Y291100D01*
X309179Y291007D01*
X309179Y291006D02*
X309283Y290785D01*
X309383Y290561D01*
X309477Y290335D01*
X309565Y290107D01*
X309648Y289876D01*
X309726Y289644D01*
X309798Y289410D01*
X309864Y289175D01*
X309925Y288937D01*
X309980Y288699D01*
X310030Y288459D01*
X310073Y288218D01*
X310111Y287976D01*
X310143Y287733D01*
X310169Y287490D01*
X310190Y287246D01*
X310204Y287002D01*
X310213Y286757D01*
X310216Y286512D01*
X303301Y286512D02*
X303304Y286267D01*
X303313Y286022D01*
X303327Y285778D01*
X303348Y285534D01*
X303374Y285291D01*
X303406Y285048D01*
X303444Y284806D01*
X303487Y284565D01*
X303537Y284325D01*
X303592Y284087D01*
X303653Y283849D01*
X303719Y283614D01*
X303791Y283380D01*
X303869Y283147D01*
X303952Y282917D01*
X304040Y282689D01*
X304134Y282463D01*
X304234Y282239D01*
X304338Y282017D01*
X304339Y282017D02*
X304373Y281924D01*
X304411Y281832D01*
X304452Y281742D01*
X304496Y281654D01*
X304544Y281567D01*
X304596Y281482D01*
X304650Y281399D01*
X304708Y281319D01*
X304769Y281240D01*
X304832Y281164D01*
X304899Y281091D01*
X304969Y281020D01*
X305041Y280952D01*
X305115Y280887D01*
X305193Y280825D01*
X305272Y280765D01*
X305354Y280709D01*
X305438Y280657D01*
X305524Y280607D01*
X305612Y280561D01*
X305701Y280518D01*
X305792Y280479D01*
X305885Y280443D01*
X305978Y280411D01*
X306073Y280383D01*
X306169Y280358D01*
X306266Y280337D01*
X306364Y280320D01*
X306462Y280306D01*
X306561Y280297D01*
X306660Y280291D01*
X306759Y280289D01*
X309179Y282018D02*
X309284Y282239D01*
X309383Y282463D01*
X309477Y282689D01*
X309565Y282917D01*
X309648Y283148D01*
X309726Y283380D01*
X309798Y283614D01*
X309864Y283850D01*
X309925Y284087D01*
X309980Y284325D01*
X310030Y284565D01*
X310073Y284806D01*
X310111Y285048D01*
X310143Y285291D01*
X310169Y285534D01*
X310190Y285778D01*
X310204Y286022D01*
X310213Y286267D01*
X310216Y286512D01*
X309179Y282017D02*
X309145Y281924D01*
X309107Y281832D01*
X309066Y281742D01*
X309022Y281654D01*
X308974Y281567D01*
X308922Y281482D01*
X308868Y281399D01*
X308810Y281319D01*
X308749Y281240D01*
X308686Y281164D01*
X308619Y281091D01*
X308549Y281020D01*
X308477Y280952D01*
X308403Y280887D01*
X308325Y280825D01*
X308246Y280765D01*
X308164Y280709D01*
X308080Y280657D01*
X307994Y280607D01*
X307907Y280561D01*
X307817Y280518D01*
X307726Y280479D01*
X307633Y280443D01*
X307540Y280411D01*
X307445Y280383D01*
X307349Y280358D01*
X307252Y280337D01*
X307154Y280320D01*
X307056Y280306D01*
X306957Y280297D01*
X306858Y280291D01*
X306759Y280289D01*
X303993Y283055D02*
X309525Y289969D01*
D11*
X203200Y190500D02*
X203200Y165100D01*
X190500Y165100D01*
X190500Y190500D01*
X203200Y190500D01*
X190500Y69850D02*
X190500Y44450D01*
X190500Y69850D02*
X203200Y69850D01*
X203200Y44450D01*
X190500Y44450D01*
X298450Y82550D02*
X323850Y82550D01*
X298450Y82550D02*
X298450Y95250D01*
X323850Y95250D01*
X323850Y82550D01*
X101600Y247650D02*
X76200Y247650D01*
X101600Y247650D02*
X101600Y234950D01*
X76200Y234950D01*
X76200Y247650D01*
X126050Y129450D02*
X126050Y127450D01*
X166050Y127450D01*
X166050Y129450D01*
X126050Y213450D02*
X126050Y215450D01*
X166050Y215450D01*
X166050Y213450D01*
D12*
X158050Y135450D03*
D11*
X126050Y27850D02*
X126050Y25850D01*
X166050Y25850D01*
X166050Y27850D01*
X126050Y111850D02*
X126050Y113850D01*
X166050Y113850D01*
X166050Y111850D01*
D12*
X158050Y33850D03*
D11*
X128050Y229500D02*
X128050Y278500D01*
X164050Y278500D01*
X164050Y229500D01*
X152250Y229500D01*
X152250Y229800D01*
X152248Y229946D01*
X152242Y230092D01*
X152232Y230238D01*
X152218Y230384D01*
X152201Y230529D01*
X152179Y230674D01*
X152153Y230818D01*
X152124Y230961D01*
X152090Y231103D01*
X152053Y231245D01*
X152012Y231385D01*
X151967Y231524D01*
X151919Y231662D01*
X151866Y231799D01*
X151811Y231934D01*
X151751Y232067D01*
X151688Y232199D01*
X151621Y232329D01*
X151551Y232458D01*
X151477Y232584D01*
X151400Y232708D01*
X151320Y232830D01*
X151236Y232950D01*
X151149Y233068D01*
X151059Y233183D01*
X150966Y233296D01*
X150869Y233406D01*
X150770Y233514D01*
X150668Y233618D01*
X150564Y233720D01*
X150456Y233819D01*
X150346Y233916D01*
X150233Y234009D01*
X150118Y234099D01*
X150000Y234186D01*
X149880Y234270D01*
X149758Y234350D01*
X149634Y234427D01*
X149508Y234501D01*
X149379Y234571D01*
X149249Y234638D01*
X149117Y234701D01*
X148984Y234761D01*
X148849Y234816D01*
X148712Y234869D01*
X148574Y234917D01*
X148435Y234962D01*
X148295Y235003D01*
X148153Y235040D01*
X148011Y235074D01*
X147868Y235103D01*
X147724Y235129D01*
X147579Y235151D01*
X147434Y235168D01*
X147288Y235182D01*
X147142Y235192D01*
X146996Y235198D01*
X146850Y235200D01*
X146050Y235200D01*
X145902Y235194D01*
X145755Y235184D01*
X145608Y235170D01*
X145461Y235153D01*
X145315Y235131D01*
X145169Y235105D01*
X145024Y235076D01*
X144880Y235043D01*
X144737Y235006D01*
X144595Y234965D01*
X144454Y234920D01*
X144314Y234872D01*
X144176Y234820D01*
X144039Y234764D01*
X143904Y234705D01*
X143770Y234642D01*
X143638Y234576D01*
X143508Y234506D01*
X143380Y234432D01*
X143253Y234355D01*
X143129Y234275D01*
X143007Y234192D01*
X142887Y234105D01*
X142770Y234016D01*
X142655Y233923D01*
X142542Y233827D01*
X142432Y233728D01*
X142325Y233626D01*
X142221Y233522D01*
X142119Y233414D01*
X142020Y233304D01*
X141924Y233192D01*
X141832Y233077D01*
X141742Y232959D01*
X141656Y232839D01*
X141572Y232717D01*
X141492Y232593D01*
X141416Y232467D01*
X141342Y232338D01*
X141272Y232208D01*
X141206Y232076D01*
X141143Y231942D01*
X141084Y231807D01*
X141028Y231670D01*
X140976Y231531D01*
X140928Y231392D01*
X140884Y231251D01*
X140843Y231109D01*
X140806Y230965D01*
X140773Y230821D01*
X140744Y230677D01*
X140718Y230531D01*
X140697Y230385D01*
X140679Y230238D01*
X140666Y230091D01*
X140656Y229943D01*
X140650Y229796D01*
X140648Y229648D01*
X140650Y229500D01*
X128050Y229500D01*
D13*
X167050Y226000D03*
D11*
X64150Y58450D02*
X64150Y30450D01*
X50150Y30450D01*
X50150Y58450D01*
X64150Y58450D01*
X214600Y165750D02*
X242600Y165750D01*
X242600Y151750D01*
X214600Y151750D01*
X214600Y165750D01*
X214600Y216550D02*
X242600Y216550D01*
X242600Y202550D01*
X214600Y202550D01*
X214600Y216550D01*
X214600Y191150D02*
X242600Y191150D01*
X242600Y177150D01*
X214600Y177150D01*
X214600Y191150D01*
X214600Y140350D02*
X242600Y140350D01*
X242600Y126350D01*
X214600Y126350D01*
X214600Y140350D01*
X214600Y64150D02*
X242600Y64150D01*
X242600Y50150D01*
X214600Y50150D01*
X214600Y64150D01*
X214600Y89550D02*
X242600Y89550D01*
X242600Y75550D01*
X214600Y75550D01*
X214600Y89550D01*
X214600Y114950D02*
X242600Y114950D01*
X242600Y100950D01*
X214600Y100950D01*
X214600Y114950D01*
X214600Y38750D02*
X242600Y38750D01*
X242600Y24750D01*
X214600Y24750D01*
X214600Y38750D01*
X89550Y201900D02*
X89550Y229900D01*
X89550Y201900D02*
X75550Y201900D01*
X75550Y229900D01*
X89550Y229900D01*
X64150Y220950D02*
X64150Y248950D01*
X64150Y220950D02*
X50150Y220950D01*
X50150Y248950D01*
X64150Y248950D01*
X89550Y77500D02*
X89550Y49500D01*
X75550Y49500D01*
X75550Y77500D01*
X89550Y77500D01*
X214600Y241950D02*
X242600Y241950D01*
X242600Y227950D01*
X214600Y227950D01*
X214600Y241950D01*
X214600Y267350D02*
X242600Y267350D01*
X242600Y253350D01*
X214600Y253350D01*
X214600Y267350D01*
X64150Y96550D02*
X64150Y68550D01*
X50150Y68550D01*
X50150Y96550D01*
X64150Y96550D01*
X89550Y87600D02*
X89550Y115600D01*
X89550Y87600D02*
X75550Y87600D01*
X75550Y115600D01*
X89550Y115600D01*
X64150Y106650D02*
X64150Y134650D01*
X64150Y106650D02*
X50150Y106650D01*
X50150Y134650D01*
X64150Y134650D01*
X89550Y125700D02*
X89550Y153700D01*
X89550Y125700D02*
X75550Y125700D01*
X75550Y153700D01*
X89550Y153700D01*
X64150Y144750D02*
X64150Y172750D01*
X64150Y144750D02*
X50150Y144750D01*
X50150Y172750D01*
X64150Y172750D01*
X89550Y163800D02*
X89550Y191800D01*
X89550Y163800D02*
X75550Y163800D01*
X75550Y191800D01*
X89550Y191800D01*
X64150Y182850D02*
X64150Y210850D01*
X64150Y182850D02*
X50150Y182850D01*
X50150Y210850D01*
X64150Y210850D01*
X76200Y254000D02*
X50800Y254000D01*
X50800Y266700D01*
X76200Y266700D01*
X76200Y254000D01*
X38100Y209550D02*
X12700Y209550D01*
X12700Y158750D01*
X38100Y158750D01*
X38100Y209550D01*
X38100Y76200D02*
X12700Y76200D01*
X12700Y25400D01*
X38100Y25400D01*
X38100Y76200D01*
X36650Y244450D02*
X36650Y288950D01*
X36650Y244450D02*
X14150Y244450D01*
X14150Y288950D01*
X36650Y288950D01*
X293150Y151500D02*
X293150Y102500D01*
X293150Y151500D02*
X329150Y151500D01*
X329150Y102500D01*
X317350Y102500D01*
X317350Y102800D01*
X317348Y102946D01*
X317342Y103092D01*
X317332Y103238D01*
X317318Y103384D01*
X317301Y103529D01*
X317279Y103674D01*
X317253Y103818D01*
X317224Y103961D01*
X317190Y104103D01*
X317153Y104245D01*
X317112Y104385D01*
X317067Y104524D01*
X317019Y104662D01*
X316966Y104799D01*
X316911Y104934D01*
X316851Y105067D01*
X316788Y105199D01*
X316721Y105329D01*
X316651Y105458D01*
X316577Y105584D01*
X316500Y105708D01*
X316420Y105830D01*
X316336Y105950D01*
X316249Y106068D01*
X316159Y106183D01*
X316066Y106296D01*
X315969Y106406D01*
X315870Y106514D01*
X315768Y106618D01*
X315664Y106720D01*
X315556Y106819D01*
X315446Y106916D01*
X315333Y107009D01*
X315218Y107099D01*
X315100Y107186D01*
X314980Y107270D01*
X314858Y107350D01*
X314734Y107427D01*
X314608Y107501D01*
X314479Y107571D01*
X314349Y107638D01*
X314217Y107701D01*
X314084Y107761D01*
X313949Y107816D01*
X313812Y107869D01*
X313674Y107917D01*
X313535Y107962D01*
X313395Y108003D01*
X313253Y108040D01*
X313111Y108074D01*
X312968Y108103D01*
X312824Y108129D01*
X312679Y108151D01*
X312534Y108168D01*
X312388Y108182D01*
X312242Y108192D01*
X312096Y108198D01*
X311950Y108200D01*
X311150Y108200D01*
X311002Y108194D01*
X310855Y108184D01*
X310708Y108170D01*
X310561Y108153D01*
X310415Y108131D01*
X310269Y108105D01*
X310124Y108076D01*
X309980Y108043D01*
X309837Y108006D01*
X309695Y107965D01*
X309554Y107920D01*
X309414Y107872D01*
X309276Y107820D01*
X309139Y107764D01*
X309004Y107705D01*
X308870Y107642D01*
X308738Y107576D01*
X308608Y107506D01*
X308480Y107432D01*
X308353Y107355D01*
X308229Y107275D01*
X308107Y107192D01*
X307987Y107105D01*
X307870Y107016D01*
X307755Y106923D01*
X307642Y106827D01*
X307532Y106728D01*
X307425Y106626D01*
X307321Y106522D01*
X307219Y106414D01*
X307120Y106304D01*
X307024Y106192D01*
X306932Y106077D01*
X306842Y105959D01*
X306756Y105839D01*
X306672Y105717D01*
X306592Y105593D01*
X306516Y105467D01*
X306442Y105338D01*
X306372Y105208D01*
X306306Y105076D01*
X306243Y104942D01*
X306184Y104807D01*
X306128Y104670D01*
X306076Y104531D01*
X306028Y104392D01*
X305984Y104251D01*
X305943Y104109D01*
X305906Y103965D01*
X305873Y103821D01*
X305844Y103677D01*
X305818Y103531D01*
X305797Y103385D01*
X305779Y103238D01*
X305766Y103091D01*
X305756Y102943D01*
X305750Y102796D01*
X305748Y102648D01*
X305750Y102500D01*
X293150Y102500D01*
D13*
X332150Y99000D03*
D11*
X325150Y62850D02*
X297150Y62850D01*
X297150Y76850D01*
X325150Y76850D01*
X325150Y62850D01*
X328900Y62850D02*
X356900Y62850D01*
X328900Y62850D02*
X328900Y76850D01*
X356900Y76850D01*
X356900Y62850D01*
X354950Y113000D02*
X354950Y141000D01*
X368950Y141000D01*
X368950Y113000D01*
X354950Y113000D01*
X267350Y113000D02*
X267350Y141000D01*
X267350Y113000D02*
X253350Y113000D01*
X253350Y141000D01*
X267350Y141000D01*
X349250Y266700D02*
X374650Y266700D01*
X349250Y266700D02*
X349250Y190500D01*
X374650Y190500D01*
X374650Y266700D01*
M02*
