G04 EAGLE Gerber RS-274X export*
G75*
%MOMM*%
%FSLAX34Y34*%
%LPD*%
%INSolder side*%
%IPPOS*%
%AMOC8*
5,1,8,0,0,1.08239X$1,22.5*%
G01*
%ADD10C,0.503200*%
%ADD11R,4.572000X9.144000*%
%ADD12P,1.924489X8X22.500000*%
%ADD13P,2.089446X8X292.500000*%
%ADD14C,0.675000*%
%ADD15C,0.349250*%
%ADD16C,1.270000*%

G36*
X402020Y3822D02*
X402020Y3822D01*
X402086Y3824D01*
X402129Y3842D01*
X402176Y3850D01*
X402233Y3884D01*
X402293Y3909D01*
X402328Y3940D01*
X402369Y3965D01*
X402411Y4016D01*
X402459Y4060D01*
X402481Y4102D01*
X402510Y4139D01*
X402531Y4201D01*
X402562Y4260D01*
X402570Y4314D01*
X402582Y4351D01*
X402581Y4391D01*
X402589Y4445D01*
X402589Y273838D01*
X402574Y273926D01*
X402564Y274014D01*
X402554Y274035D01*
X402550Y274059D01*
X402504Y274136D01*
X402465Y274215D01*
X402448Y274232D01*
X402435Y274252D01*
X402366Y274308D01*
X402302Y274369D01*
X402280Y274378D01*
X402261Y274393D01*
X402177Y274422D01*
X402095Y274457D01*
X402071Y274458D01*
X402049Y274465D01*
X401960Y274463D01*
X401871Y274467D01*
X401848Y274459D01*
X401824Y274459D01*
X401742Y274425D01*
X401657Y274398D01*
X401636Y274382D01*
X401617Y274374D01*
X401579Y274340D01*
X401507Y274286D01*
X400704Y273484D01*
X396856Y273484D01*
X394134Y276206D01*
X394134Y280054D01*
X396856Y282776D01*
X400704Y282776D01*
X401507Y281974D01*
X401580Y281923D01*
X401649Y281867D01*
X401671Y281859D01*
X401691Y281845D01*
X401777Y281823D01*
X401861Y281795D01*
X401885Y281795D01*
X401908Y281789D01*
X401997Y281799D01*
X402086Y281801D01*
X402108Y281810D01*
X402131Y281813D01*
X402211Y281852D01*
X402293Y281886D01*
X402311Y281902D01*
X402332Y281912D01*
X402393Y281977D01*
X402459Y282037D01*
X402470Y282058D01*
X402486Y282075D01*
X402521Y282157D01*
X402562Y282237D01*
X402565Y282263D01*
X402574Y282282D01*
X402576Y282332D01*
X402589Y282422D01*
X402589Y328448D01*
X402574Y328535D01*
X402564Y328624D01*
X402554Y328645D01*
X402550Y328669D01*
X402504Y328745D01*
X402465Y328825D01*
X402448Y328842D01*
X402435Y328862D01*
X402366Y328918D01*
X402302Y328979D01*
X402280Y328988D01*
X402261Y329003D01*
X402177Y329032D01*
X402095Y329067D01*
X402071Y329068D01*
X402049Y329075D01*
X401960Y329073D01*
X401871Y329077D01*
X401848Y329069D01*
X401824Y329069D01*
X401742Y329035D01*
X401657Y329008D01*
X401636Y328992D01*
X401617Y328984D01*
X401579Y328950D01*
X401507Y328896D01*
X399434Y326824D01*
X395586Y326824D01*
X392864Y329546D01*
X392864Y333394D01*
X395571Y336102D01*
X395609Y336156D01*
X395654Y336203D01*
X395673Y336247D01*
X395700Y336286D01*
X395716Y336349D01*
X395742Y336410D01*
X395744Y336457D01*
X395755Y336503D01*
X395749Y336568D01*
X395752Y336634D01*
X395737Y336679D01*
X395732Y336726D01*
X395703Y336785D01*
X395683Y336848D01*
X395650Y336892D01*
X395633Y336927D01*
X395604Y336954D01*
X395571Y336999D01*
X392864Y339706D01*
X392864Y343554D01*
X395571Y346262D01*
X395609Y346316D01*
X395654Y346363D01*
X395673Y346407D01*
X395700Y346446D01*
X395716Y346509D01*
X395742Y346570D01*
X395744Y346617D01*
X395755Y346663D01*
X395749Y346728D01*
X395752Y346794D01*
X395737Y346839D01*
X395732Y346886D01*
X395703Y346945D01*
X395683Y347008D01*
X395650Y347052D01*
X395633Y347087D01*
X395604Y347114D01*
X395571Y347159D01*
X392864Y349866D01*
X392864Y353714D01*
X395586Y356436D01*
X399434Y356436D01*
X401507Y354364D01*
X401580Y354313D01*
X401649Y354257D01*
X401671Y354249D01*
X401691Y354235D01*
X401777Y354213D01*
X401861Y354185D01*
X401885Y354185D01*
X401908Y354179D01*
X401997Y354189D01*
X402086Y354191D01*
X402108Y354200D01*
X402131Y354203D01*
X402211Y354242D01*
X402293Y354276D01*
X402311Y354292D01*
X402332Y354302D01*
X402393Y354367D01*
X402459Y354427D01*
X402470Y354448D01*
X402486Y354465D01*
X402521Y354547D01*
X402562Y354627D01*
X402565Y354653D01*
X402574Y354672D01*
X402576Y354722D01*
X402589Y354812D01*
X402589Y460528D01*
X402573Y460616D01*
X402564Y460704D01*
X402554Y460725D01*
X402550Y460749D01*
X402504Y460825D01*
X402465Y460905D01*
X402448Y460922D01*
X402435Y460942D01*
X402366Y460998D01*
X402302Y461059D01*
X402280Y461068D01*
X402261Y461083D01*
X402177Y461112D01*
X402095Y461147D01*
X402071Y461148D01*
X402049Y461155D01*
X401960Y461153D01*
X401871Y461157D01*
X401848Y461149D01*
X401824Y461149D01*
X401742Y461115D01*
X401657Y461088D01*
X401636Y461072D01*
X401617Y461064D01*
X401579Y461030D01*
X401507Y460976D01*
X399434Y458904D01*
X395586Y458904D01*
X392864Y461626D01*
X392864Y465474D01*
X395586Y468196D01*
X399434Y468196D01*
X401507Y466124D01*
X401580Y466073D01*
X401649Y466017D01*
X401671Y466009D01*
X401691Y465995D01*
X401777Y465973D01*
X401861Y465945D01*
X401885Y465945D01*
X401908Y465939D01*
X401997Y465949D01*
X402086Y465951D01*
X402108Y465960D01*
X402131Y465963D01*
X402211Y466002D01*
X402293Y466036D01*
X402311Y466052D01*
X402332Y466062D01*
X402393Y466127D01*
X402459Y466187D01*
X402470Y466208D01*
X402486Y466225D01*
X402521Y466307D01*
X402562Y466387D01*
X402565Y466413D01*
X402574Y466432D01*
X402576Y466482D01*
X402589Y466572D01*
X402589Y473228D01*
X402573Y473316D01*
X402564Y473404D01*
X402554Y473425D01*
X402550Y473449D01*
X402504Y473525D01*
X402465Y473605D01*
X402448Y473622D01*
X402435Y473642D01*
X402366Y473698D01*
X402302Y473759D01*
X402280Y473768D01*
X402261Y473783D01*
X402177Y473812D01*
X402095Y473847D01*
X402071Y473848D01*
X402049Y473855D01*
X401960Y473853D01*
X401871Y473857D01*
X401848Y473849D01*
X401824Y473849D01*
X401742Y473815D01*
X401657Y473788D01*
X401636Y473772D01*
X401617Y473764D01*
X401579Y473730D01*
X401507Y473676D01*
X399434Y471604D01*
X395586Y471604D01*
X392864Y474326D01*
X392864Y478174D01*
X395586Y480896D01*
X399434Y480896D01*
X401507Y478824D01*
X401580Y478773D01*
X401649Y478717D01*
X401671Y478709D01*
X401691Y478695D01*
X401777Y478673D01*
X401861Y478645D01*
X401885Y478645D01*
X401908Y478639D01*
X401997Y478649D01*
X402086Y478651D01*
X402108Y478660D01*
X402131Y478663D01*
X402211Y478702D01*
X402293Y478736D01*
X402311Y478752D01*
X402332Y478762D01*
X402393Y478827D01*
X402459Y478887D01*
X402470Y478908D01*
X402486Y478925D01*
X402521Y479007D01*
X402562Y479087D01*
X402565Y479113D01*
X402574Y479132D01*
X402576Y479182D01*
X402589Y479272D01*
X402589Y485928D01*
X402573Y486016D01*
X402564Y486104D01*
X402554Y486125D01*
X402550Y486149D01*
X402504Y486225D01*
X402465Y486305D01*
X402448Y486322D01*
X402435Y486342D01*
X402366Y486398D01*
X402302Y486459D01*
X402280Y486468D01*
X402261Y486483D01*
X402177Y486512D01*
X402095Y486547D01*
X402071Y486548D01*
X402049Y486555D01*
X401960Y486553D01*
X401871Y486557D01*
X401848Y486549D01*
X401824Y486549D01*
X401742Y486515D01*
X401657Y486488D01*
X401636Y486472D01*
X401617Y486464D01*
X401579Y486430D01*
X401507Y486376D01*
X399434Y484304D01*
X395586Y484304D01*
X392864Y487026D01*
X392864Y490874D01*
X395586Y493596D01*
X399434Y493596D01*
X401507Y491524D01*
X401580Y491473D01*
X401649Y491417D01*
X401671Y491409D01*
X401691Y491395D01*
X401777Y491373D01*
X401861Y491345D01*
X401885Y491345D01*
X401908Y491339D01*
X401997Y491349D01*
X402086Y491351D01*
X402108Y491360D01*
X402131Y491363D01*
X402211Y491402D01*
X402293Y491436D01*
X402311Y491452D01*
X402332Y491462D01*
X402393Y491527D01*
X402459Y491587D01*
X402470Y491608D01*
X402486Y491625D01*
X402521Y491707D01*
X402562Y491787D01*
X402565Y491813D01*
X402574Y491832D01*
X402576Y491882D01*
X402589Y491972D01*
X402589Y560705D01*
X402578Y560770D01*
X402576Y560836D01*
X402558Y560879D01*
X402550Y560926D01*
X402516Y560983D01*
X402491Y561043D01*
X402460Y561078D01*
X402435Y561119D01*
X402384Y561161D01*
X402340Y561209D01*
X402298Y561231D01*
X402261Y561260D01*
X402199Y561281D01*
X402140Y561312D01*
X402086Y561320D01*
X402049Y561332D01*
X402009Y561331D01*
X401955Y561339D01*
X4445Y561339D01*
X4380Y561328D01*
X4314Y561326D01*
X4271Y561308D01*
X4224Y561300D01*
X4167Y561266D01*
X4107Y561241D01*
X4072Y561210D01*
X4031Y561185D01*
X3989Y561134D01*
X3941Y561090D01*
X3919Y561048D01*
X3890Y561011D01*
X3869Y560949D01*
X3838Y560890D01*
X3830Y560836D01*
X3818Y560799D01*
X3818Y560778D01*
X3818Y560776D01*
X3818Y560756D01*
X3811Y560705D01*
X3811Y4445D01*
X3822Y4380D01*
X3824Y4314D01*
X3842Y4271D01*
X3850Y4224D01*
X3884Y4167D01*
X3909Y4107D01*
X3940Y4072D01*
X3965Y4031D01*
X4016Y3989D01*
X4060Y3941D01*
X4102Y3919D01*
X4139Y3890D01*
X4201Y3869D01*
X4260Y3838D01*
X4314Y3830D01*
X4351Y3818D01*
X4391Y3819D01*
X4445Y3811D01*
X401955Y3811D01*
X402020Y3822D01*
G37*
%LPC*%
G36*
X56361Y10794D02*
X56361Y10794D01*
X55244Y11911D01*
X55244Y38889D01*
X56361Y40006D01*
X61595Y40006D01*
X61660Y40017D01*
X61726Y40019D01*
X61769Y40037D01*
X61816Y40045D01*
X61873Y40079D01*
X61933Y40104D01*
X61968Y40135D01*
X62009Y40160D01*
X62051Y40211D01*
X62099Y40255D01*
X62121Y40297D01*
X62150Y40334D01*
X62171Y40396D01*
X62202Y40455D01*
X62210Y40509D01*
X62222Y40546D01*
X62221Y40586D01*
X62229Y40640D01*
X62229Y249166D01*
X63389Y251967D01*
X81608Y270186D01*
X84409Y271346D01*
X281893Y271346D01*
X281981Y271362D01*
X282069Y271371D01*
X282090Y271381D01*
X282114Y271385D01*
X282190Y271431D01*
X282270Y271470D01*
X282287Y271487D01*
X282307Y271500D01*
X282363Y271569D01*
X282424Y271633D01*
X282433Y271655D01*
X282448Y271674D01*
X282477Y271758D01*
X282512Y271840D01*
X282513Y271864D01*
X282520Y271886D01*
X282518Y271975D01*
X282522Y272064D01*
X282514Y272087D01*
X282514Y272111D01*
X282480Y272193D01*
X282453Y272278D01*
X282437Y272299D01*
X282429Y272318D01*
X282395Y272356D01*
X282341Y272428D01*
X279834Y274936D01*
X279834Y278784D01*
X282556Y281506D01*
X286404Y281506D01*
X288476Y279434D01*
X288531Y279396D01*
X288578Y279351D01*
X288622Y279332D01*
X288661Y279305D01*
X288724Y279289D01*
X288785Y279263D01*
X288832Y279261D01*
X288878Y279250D01*
X288943Y279256D01*
X289009Y279253D01*
X289054Y279268D01*
X289101Y279273D01*
X289160Y279302D01*
X289223Y279322D01*
X289267Y279355D01*
X289302Y279372D01*
X289329Y279401D01*
X289373Y279434D01*
X291446Y281506D01*
X295294Y281506D01*
X298016Y278784D01*
X298016Y274936D01*
X295509Y272428D01*
X295458Y272355D01*
X295402Y272286D01*
X295394Y272264D01*
X295380Y272244D01*
X295358Y272158D01*
X295330Y272074D01*
X295330Y272050D01*
X295324Y272027D01*
X295334Y271938D01*
X295336Y271849D01*
X295345Y271827D01*
X295348Y271804D01*
X295387Y271724D01*
X295421Y271642D01*
X295437Y271624D01*
X295447Y271603D01*
X295512Y271542D01*
X295572Y271476D01*
X295593Y271465D01*
X295610Y271449D01*
X295692Y271414D01*
X295772Y271373D01*
X295798Y271370D01*
X295817Y271361D01*
X295867Y271359D01*
X295957Y271346D01*
X298406Y271346D01*
X298447Y271353D01*
X298490Y271351D01*
X298557Y271373D01*
X298627Y271385D01*
X298663Y271407D01*
X298703Y271420D01*
X298776Y271474D01*
X298820Y271500D01*
X298833Y271516D01*
X298854Y271532D01*
X317270Y289947D01*
X317313Y289991D01*
X317338Y290026D01*
X317369Y290054D01*
X317401Y290117D01*
X317442Y290175D01*
X317452Y290216D01*
X317472Y290254D01*
X317485Y290344D01*
X317498Y290392D01*
X317495Y290413D01*
X317499Y290439D01*
X317499Y440916D01*
X318659Y443717D01*
X320803Y445861D01*
X323604Y447021D01*
X326636Y447021D01*
X329437Y445861D01*
X331581Y443717D01*
X332741Y440916D01*
X332741Y284204D01*
X331581Y281403D01*
X329437Y279259D01*
X327334Y278388D01*
X327308Y278371D01*
X327278Y278362D01*
X327192Y278298D01*
X327174Y278287D01*
X327171Y278283D01*
X327145Y278267D01*
X327138Y278258D01*
X327128Y278250D01*
X308375Y259497D01*
X306142Y257264D01*
X303341Y256104D01*
X89344Y256104D01*
X89303Y256097D01*
X89260Y256099D01*
X89193Y256077D01*
X89123Y256065D01*
X89087Y256043D01*
X89047Y256030D01*
X88974Y255976D01*
X88930Y255950D01*
X88917Y255934D01*
X88896Y255918D01*
X77657Y244679D01*
X77632Y244644D01*
X77601Y244616D01*
X77569Y244553D01*
X77528Y244495D01*
X77518Y244454D01*
X77498Y244416D01*
X77485Y244326D01*
X77472Y244278D01*
X77475Y244257D01*
X77471Y244231D01*
X77471Y40640D01*
X77482Y40575D01*
X77484Y40509D01*
X77502Y40466D01*
X77510Y40419D01*
X77544Y40362D01*
X77569Y40302D01*
X77600Y40267D01*
X77625Y40226D01*
X77676Y40184D01*
X77720Y40136D01*
X77762Y40114D01*
X77799Y40085D01*
X77861Y40064D01*
X77920Y40033D01*
X77974Y40025D01*
X78011Y40013D01*
X78051Y40014D01*
X78105Y40006D01*
X98816Y40006D01*
X98857Y40013D01*
X98900Y40011D01*
X98967Y40033D01*
X99037Y40045D01*
X99073Y40067D01*
X99113Y40080D01*
X99186Y40134D01*
X99230Y40160D01*
X99243Y40176D01*
X99264Y40192D01*
X103633Y44561D01*
X106434Y45721D01*
X123581Y45721D01*
X123623Y45728D01*
X123665Y45726D01*
X123732Y45748D01*
X123802Y45760D01*
X123838Y45782D01*
X123879Y45795D01*
X123951Y45849D01*
X123995Y45875D01*
X124008Y45891D01*
X124029Y45907D01*
X143958Y65836D01*
X143983Y65871D01*
X144014Y65899D01*
X144046Y65962D01*
X144087Y66020D01*
X144097Y66061D01*
X144117Y66099D01*
X144130Y66189D01*
X144143Y66237D01*
X144140Y66258D01*
X144144Y66284D01*
X144144Y89689D01*
X145261Y90806D01*
X158903Y90806D01*
X158945Y90813D01*
X158987Y90811D01*
X159054Y90833D01*
X159124Y90845D01*
X159160Y90867D01*
X159201Y90880D01*
X159274Y90934D01*
X159317Y90960D01*
X159330Y90976D01*
X159351Y90992D01*
X159366Y91006D01*
X163214Y91006D01*
X163229Y90992D01*
X163263Y90967D01*
X163292Y90936D01*
X163355Y90904D01*
X163413Y90863D01*
X163454Y90853D01*
X163492Y90833D01*
X163581Y90820D01*
X163630Y90807D01*
X163651Y90810D01*
X163677Y90806D01*
X167793Y90806D01*
X167835Y90813D01*
X167877Y90811D01*
X167944Y90833D01*
X168014Y90845D01*
X168050Y90867D01*
X168091Y90880D01*
X168164Y90934D01*
X168207Y90960D01*
X168220Y90976D01*
X168241Y90992D01*
X168256Y91006D01*
X172104Y91006D01*
X172119Y90992D01*
X172153Y90967D01*
X172182Y90936D01*
X172245Y90904D01*
X172303Y90863D01*
X172344Y90853D01*
X172382Y90833D01*
X172471Y90820D01*
X172520Y90807D01*
X172541Y90810D01*
X172567Y90806D01*
X177953Y90806D01*
X177995Y90813D01*
X178037Y90811D01*
X178104Y90833D01*
X178174Y90845D01*
X178210Y90867D01*
X178251Y90880D01*
X178324Y90934D01*
X178367Y90960D01*
X178380Y90976D01*
X178401Y90992D01*
X178416Y91006D01*
X182264Y91006D01*
X182279Y90992D01*
X182313Y90967D01*
X182342Y90936D01*
X182405Y90904D01*
X182463Y90863D01*
X182504Y90853D01*
X182542Y90833D01*
X182631Y90820D01*
X182680Y90807D01*
X182701Y90810D01*
X182727Y90806D01*
X191289Y90806D01*
X192406Y89689D01*
X192406Y62711D01*
X191289Y61594D01*
X164465Y61594D01*
X164435Y61589D01*
X164404Y61591D01*
X164289Y61563D01*
X164244Y61555D01*
X164235Y61549D01*
X164222Y61546D01*
X162806Y60959D01*
X160899Y60959D01*
X160858Y60952D01*
X160815Y60954D01*
X160748Y60932D01*
X160678Y60920D01*
X160642Y60898D01*
X160602Y60885D01*
X160529Y60831D01*
X160485Y60805D01*
X160472Y60789D01*
X160451Y60773D01*
X149856Y50178D01*
X149805Y50105D01*
X149749Y50036D01*
X149741Y50014D01*
X149728Y49994D01*
X149706Y49908D01*
X149677Y49824D01*
X149678Y49800D01*
X149672Y49777D01*
X149681Y49688D01*
X149684Y49599D01*
X149693Y49577D01*
X149695Y49554D01*
X149734Y49474D01*
X149768Y49392D01*
X149784Y49374D01*
X149794Y49353D01*
X149859Y49292D01*
X149919Y49226D01*
X149940Y49215D01*
X149958Y49199D01*
X150040Y49164D01*
X150119Y49123D01*
X150145Y49120D01*
X150164Y49111D01*
X150215Y49109D01*
X150304Y49096D01*
X154324Y49096D01*
X157046Y46374D01*
X157046Y42526D01*
X154324Y39804D01*
X150476Y39804D01*
X147754Y42526D01*
X147754Y46546D01*
X147738Y46633D01*
X147729Y46722D01*
X147719Y46743D01*
X147715Y46767D01*
X147669Y46843D01*
X147630Y46923D01*
X147613Y46939D01*
X147600Y46960D01*
X147531Y47016D01*
X147467Y47077D01*
X147445Y47086D01*
X147426Y47101D01*
X147342Y47130D01*
X147260Y47164D01*
X147236Y47165D01*
X147214Y47173D01*
X147125Y47170D01*
X147036Y47174D01*
X147013Y47167D01*
X146989Y47166D01*
X146907Y47133D01*
X146822Y47106D01*
X146801Y47090D01*
X146782Y47082D01*
X146744Y47048D01*
X146672Y46994D01*
X133550Y33872D01*
X131317Y31639D01*
X128516Y30479D01*
X111369Y30479D01*
X111328Y30472D01*
X111285Y30474D01*
X111218Y30452D01*
X111148Y30440D01*
X111112Y30418D01*
X111072Y30405D01*
X110999Y30351D01*
X110955Y30325D01*
X110942Y30309D01*
X110921Y30293D01*
X110042Y29414D01*
X110017Y29379D01*
X109986Y29351D01*
X109954Y29288D01*
X109913Y29230D01*
X109903Y29189D01*
X109883Y29151D01*
X109870Y29061D01*
X109857Y29013D01*
X109860Y28992D01*
X109856Y28966D01*
X109856Y11911D01*
X108739Y10794D01*
X56361Y10794D01*
G37*
%LPD*%
G36*
X108015Y12077D02*
X108015Y12077D01*
X108081Y12079D01*
X108124Y12097D01*
X108171Y12105D01*
X108228Y12139D01*
X108288Y12164D01*
X108323Y12195D01*
X108364Y12220D01*
X108406Y12271D01*
X108454Y12315D01*
X108476Y12357D01*
X108505Y12394D01*
X108526Y12456D01*
X108557Y12515D01*
X108565Y12569D01*
X108577Y12606D01*
X108576Y12646D01*
X108584Y12700D01*
X108584Y38100D01*
X108573Y38165D01*
X108571Y38231D01*
X108553Y38274D01*
X108545Y38321D01*
X108511Y38378D01*
X108486Y38438D01*
X108455Y38473D01*
X108430Y38514D01*
X108379Y38556D01*
X108335Y38604D01*
X108293Y38626D01*
X108256Y38655D01*
X108194Y38676D01*
X108135Y38707D01*
X108081Y38715D01*
X108044Y38727D01*
X108004Y38726D01*
X107950Y38734D01*
X57150Y38734D01*
X57085Y38723D01*
X57019Y38721D01*
X56976Y38703D01*
X56929Y38695D01*
X56872Y38661D01*
X56812Y38636D01*
X56777Y38605D01*
X56736Y38580D01*
X56695Y38529D01*
X56646Y38485D01*
X56624Y38443D01*
X56595Y38406D01*
X56574Y38344D01*
X56543Y38285D01*
X56535Y38231D01*
X56523Y38194D01*
X56524Y38166D01*
X56523Y38164D01*
X56523Y38149D01*
X56516Y38100D01*
X56516Y12700D01*
X56527Y12635D01*
X56529Y12569D01*
X56547Y12526D01*
X56555Y12479D01*
X56589Y12422D01*
X56614Y12362D01*
X56645Y12327D01*
X56670Y12286D01*
X56721Y12245D01*
X56765Y12196D01*
X56807Y12174D01*
X56844Y12145D01*
X56906Y12124D01*
X56965Y12093D01*
X57019Y12085D01*
X57056Y12073D01*
X57096Y12074D01*
X57150Y12066D01*
X107950Y12066D01*
X108015Y12077D01*
G37*
G36*
X190565Y62877D02*
X190565Y62877D01*
X190631Y62879D01*
X190674Y62897D01*
X190721Y62905D01*
X190778Y62939D01*
X190838Y62964D01*
X190873Y62995D01*
X190914Y63020D01*
X190956Y63071D01*
X191004Y63115D01*
X191026Y63157D01*
X191055Y63194D01*
X191076Y63256D01*
X191107Y63315D01*
X191115Y63369D01*
X191127Y63406D01*
X191126Y63446D01*
X191134Y63500D01*
X191134Y88900D01*
X191123Y88965D01*
X191121Y89031D01*
X191103Y89074D01*
X191095Y89121D01*
X191061Y89178D01*
X191036Y89238D01*
X191005Y89273D01*
X190980Y89314D01*
X190929Y89356D01*
X190885Y89404D01*
X190843Y89426D01*
X190806Y89455D01*
X190744Y89476D01*
X190685Y89507D01*
X190631Y89515D01*
X190594Y89527D01*
X190554Y89526D01*
X190500Y89534D01*
X146050Y89534D01*
X145985Y89523D01*
X145919Y89521D01*
X145876Y89503D01*
X145829Y89495D01*
X145772Y89461D01*
X145712Y89436D01*
X145677Y89405D01*
X145636Y89380D01*
X145595Y89329D01*
X145546Y89285D01*
X145524Y89243D01*
X145495Y89206D01*
X145474Y89144D01*
X145443Y89085D01*
X145435Y89031D01*
X145423Y88994D01*
X145424Y88966D01*
X145423Y88964D01*
X145423Y88949D01*
X145416Y88900D01*
X145416Y63500D01*
X145427Y63435D01*
X145429Y63369D01*
X145447Y63326D01*
X145455Y63279D01*
X145489Y63222D01*
X145514Y63162D01*
X145545Y63127D01*
X145570Y63086D01*
X145621Y63045D01*
X145665Y62996D01*
X145707Y62974D01*
X145744Y62945D01*
X145806Y62924D01*
X145865Y62893D01*
X145919Y62885D01*
X145956Y62873D01*
X145996Y62874D01*
X146050Y62866D01*
X190500Y62866D01*
X190565Y62877D01*
G37*
%LPC*%
G36*
X169526Y446204D02*
X169526Y446204D01*
X166804Y448926D01*
X166804Y452774D01*
X169526Y455496D01*
X173374Y455496D01*
X174817Y454053D01*
X174852Y454029D01*
X174881Y453997D01*
X174944Y453965D01*
X175002Y453925D01*
X175043Y453914D01*
X175080Y453895D01*
X175170Y453881D01*
X175219Y453869D01*
X175240Y453871D01*
X175266Y453867D01*
X188988Y453867D01*
X189029Y453874D01*
X189072Y453873D01*
X189139Y453894D01*
X189208Y453907D01*
X189245Y453928D01*
X189285Y453941D01*
X189358Y453995D01*
X189402Y454021D01*
X189415Y454037D01*
X189436Y454053D01*
X206347Y470964D01*
X206371Y470999D01*
X206403Y471027D01*
X206435Y471090D01*
X206475Y471148D01*
X206486Y471189D01*
X206505Y471227D01*
X206519Y471317D01*
X206531Y471365D01*
X206529Y471386D01*
X206533Y471412D01*
X206533Y521950D01*
X225183Y540600D01*
X225221Y540654D01*
X225266Y540702D01*
X225285Y540746D01*
X225312Y540784D01*
X225328Y540848D01*
X225354Y540909D01*
X225356Y540956D01*
X225368Y541002D01*
X225361Y541067D01*
X225364Y541133D01*
X225349Y541178D01*
X225344Y541225D01*
X225315Y541284D01*
X225295Y541346D01*
X225262Y541391D01*
X225245Y541426D01*
X225216Y541453D01*
X225183Y541497D01*
X224789Y541891D01*
X224789Y550309D01*
X230741Y556261D01*
X239159Y556261D01*
X245111Y550309D01*
X245111Y541891D01*
X239159Y535939D01*
X230741Y535939D01*
X230347Y536333D01*
X230293Y536371D01*
X230245Y536416D01*
X230202Y536435D01*
X230163Y536462D01*
X230099Y536478D01*
X230039Y536504D01*
X229991Y536506D01*
X229946Y536518D01*
X229880Y536511D01*
X229814Y536514D01*
X229770Y536499D01*
X229722Y536494D01*
X229663Y536465D01*
X229601Y536445D01*
X229557Y536412D01*
X229521Y536395D01*
X229494Y536366D01*
X229450Y536333D01*
X212753Y519636D01*
X212729Y519601D01*
X212697Y519573D01*
X212665Y519510D01*
X212625Y519452D01*
X212614Y519411D01*
X212595Y519373D01*
X212581Y519283D01*
X212569Y519235D01*
X212571Y519214D01*
X212567Y519188D01*
X212567Y468650D01*
X191750Y447833D01*
X175266Y447833D01*
X175224Y447826D01*
X175182Y447827D01*
X175114Y447806D01*
X175045Y447793D01*
X175008Y447772D01*
X174968Y447759D01*
X174895Y447705D01*
X174852Y447679D01*
X174839Y447663D01*
X174817Y447647D01*
X173374Y446204D01*
X169526Y446204D01*
G37*
%LPD*%
%LPC*%
G36*
X131426Y420804D02*
X131426Y420804D01*
X128704Y423526D01*
X128704Y427374D01*
X131426Y430096D01*
X133466Y430096D01*
X133508Y430103D01*
X133551Y430101D01*
X133618Y430123D01*
X133687Y430135D01*
X133724Y430157D01*
X133764Y430170D01*
X133837Y430224D01*
X133880Y430250D01*
X133894Y430266D01*
X133915Y430282D01*
X149197Y445564D01*
X149221Y445599D01*
X149253Y445627D01*
X149285Y445690D01*
X149325Y445748D01*
X149336Y445789D01*
X149355Y445827D01*
X149369Y445917D01*
X149381Y445965D01*
X149379Y445986D01*
X149383Y446012D01*
X149383Y540835D01*
X149375Y540877D01*
X149377Y540919D01*
X149356Y540986D01*
X149343Y541056D01*
X149322Y541092D01*
X149309Y541133D01*
X149255Y541205D01*
X149229Y541249D01*
X149213Y541262D01*
X149197Y541283D01*
X148589Y541891D01*
X148589Y550309D01*
X154541Y556261D01*
X162959Y556261D01*
X168911Y550309D01*
X168911Y541891D01*
X162959Y535939D01*
X156051Y535939D01*
X155986Y535928D01*
X155921Y535926D01*
X155877Y535908D01*
X155830Y535900D01*
X155774Y535866D01*
X155713Y535841D01*
X155678Y535810D01*
X155637Y535785D01*
X155596Y535734D01*
X155547Y535690D01*
X155526Y535648D01*
X155496Y535611D01*
X155475Y535549D01*
X155445Y535490D01*
X155437Y535436D01*
X155424Y535399D01*
X155425Y535359D01*
X155417Y535305D01*
X155417Y443250D01*
X138182Y426015D01*
X138157Y425980D01*
X138126Y425951D01*
X138098Y425896D01*
X138095Y425893D01*
X138094Y425888D01*
X138053Y425831D01*
X138043Y425790D01*
X138023Y425752D01*
X138010Y425662D01*
X137997Y425613D01*
X138000Y425593D01*
X137996Y425566D01*
X137996Y423526D01*
X135274Y420804D01*
X131426Y420804D01*
G37*
%LPD*%
%LPC*%
G36*
X169526Y357304D02*
X169526Y357304D01*
X166804Y360026D01*
X166804Y363874D01*
X169526Y366596D01*
X173374Y366596D01*
X174817Y365153D01*
X174852Y365129D01*
X174881Y365097D01*
X174944Y365065D01*
X175002Y365025D01*
X175043Y365014D01*
X175080Y364995D01*
X175170Y364981D01*
X175219Y364969D01*
X175240Y364971D01*
X175266Y364967D01*
X256534Y364967D01*
X256576Y364974D01*
X256618Y364973D01*
X256686Y364994D01*
X256755Y365007D01*
X256792Y365028D01*
X256832Y365041D01*
X256905Y365095D01*
X256948Y365121D01*
X256961Y365137D01*
X256983Y365153D01*
X258426Y366596D01*
X262274Y366596D01*
X264996Y363874D01*
X264996Y360026D01*
X262274Y357304D01*
X258426Y357304D01*
X256983Y358747D01*
X256948Y358771D01*
X256919Y358803D01*
X256856Y358835D01*
X256798Y358875D01*
X256757Y358886D01*
X256720Y358905D01*
X256630Y358919D01*
X256581Y358931D01*
X256560Y358929D01*
X256534Y358933D01*
X175266Y358933D01*
X175224Y358926D01*
X175182Y358927D01*
X175114Y358906D01*
X175045Y358893D01*
X175008Y358872D01*
X174968Y358859D01*
X174895Y358805D01*
X174852Y358779D01*
X174839Y358763D01*
X174817Y358747D01*
X173374Y357304D01*
X169526Y357304D01*
G37*
%LPD*%
%LPC*%
G36*
X67926Y363654D02*
X67926Y363654D01*
X65204Y366376D01*
X65204Y370224D01*
X67926Y372946D01*
X69966Y372946D01*
X70008Y372953D01*
X70051Y372951D01*
X70118Y372973D01*
X70187Y372985D01*
X70224Y373007D01*
X70264Y373020D01*
X70337Y373074D01*
X70380Y373100D01*
X70394Y373116D01*
X70415Y373132D01*
X100350Y403067D01*
X129534Y403067D01*
X129576Y403074D01*
X129618Y403073D01*
X129686Y403094D01*
X129755Y403107D01*
X129792Y403128D01*
X129832Y403141D01*
X129905Y403195D01*
X129948Y403221D01*
X129961Y403237D01*
X129983Y403253D01*
X131426Y404696D01*
X135274Y404696D01*
X137996Y401974D01*
X137996Y398126D01*
X135274Y395404D01*
X131426Y395404D01*
X129983Y396847D01*
X129948Y396871D01*
X129919Y396903D01*
X129856Y396935D01*
X129798Y396975D01*
X129757Y396986D01*
X129720Y397005D01*
X129630Y397019D01*
X129581Y397031D01*
X129560Y397029D01*
X129534Y397033D01*
X103112Y397033D01*
X103071Y397026D01*
X103028Y397027D01*
X102961Y397006D01*
X102892Y396993D01*
X102855Y396972D01*
X102815Y396959D01*
X102742Y396905D01*
X102698Y396879D01*
X102685Y396863D01*
X102664Y396847D01*
X74682Y368865D01*
X74657Y368830D01*
X74626Y368801D01*
X74594Y368738D01*
X74553Y368681D01*
X74543Y368640D01*
X74523Y368602D01*
X74510Y368512D01*
X74497Y368463D01*
X74500Y368443D01*
X74496Y368416D01*
X74496Y366376D01*
X71774Y363654D01*
X67926Y363654D01*
G37*
%LPD*%
%LPC*%
G36*
X74276Y401754D02*
X74276Y401754D01*
X71554Y404476D01*
X71554Y408324D01*
X74276Y411046D01*
X76316Y411046D01*
X76358Y411053D01*
X76401Y411051D01*
X76468Y411073D01*
X76537Y411085D01*
X76574Y411107D01*
X76614Y411120D01*
X76687Y411174D01*
X76730Y411200D01*
X76744Y411216D01*
X76765Y411232D01*
X81300Y415767D01*
X129534Y415767D01*
X129576Y415774D01*
X129618Y415773D01*
X129686Y415794D01*
X129755Y415807D01*
X129792Y415828D01*
X129832Y415841D01*
X129905Y415895D01*
X129948Y415921D01*
X129961Y415937D01*
X129983Y415953D01*
X131426Y417396D01*
X135274Y417396D01*
X137996Y414674D01*
X137996Y410826D01*
X135274Y408104D01*
X131426Y408104D01*
X129983Y409547D01*
X129948Y409571D01*
X129921Y409601D01*
X129919Y409603D01*
X129856Y409635D01*
X129798Y409675D01*
X129757Y409686D01*
X129720Y409705D01*
X129630Y409719D01*
X129581Y409731D01*
X129560Y409729D01*
X129534Y409733D01*
X84062Y409733D01*
X84021Y409726D01*
X83978Y409727D01*
X83911Y409706D01*
X83842Y409693D01*
X83805Y409672D01*
X83765Y409659D01*
X83692Y409605D01*
X83648Y409579D01*
X83647Y409577D01*
X83646Y409577D01*
X83634Y409562D01*
X83614Y409547D01*
X81032Y406965D01*
X81007Y406930D01*
X80976Y406901D01*
X80944Y406838D01*
X80903Y406781D01*
X80893Y406740D01*
X80873Y406702D01*
X80860Y406612D01*
X80847Y406563D01*
X80850Y406543D01*
X80846Y406516D01*
X80846Y404476D01*
X78124Y401754D01*
X74276Y401754D01*
G37*
%LPD*%
%LPC*%
G36*
X14526Y395477D02*
X14526Y395477D01*
X8127Y401876D01*
X8127Y410924D01*
X14526Y417323D01*
X23574Y417323D01*
X29973Y410924D01*
X29973Y401876D01*
X23574Y395477D01*
X14526Y395477D01*
G37*
%LPD*%
%LPC*%
G36*
X14526Y344677D02*
X14526Y344677D01*
X8127Y351076D01*
X8127Y360124D01*
X14526Y366523D01*
X23574Y366523D01*
X29973Y360124D01*
X29973Y351076D01*
X23574Y344677D01*
X14526Y344677D01*
G37*
%LPD*%
%LPC*%
G36*
X212706Y315394D02*
X212706Y315394D01*
X209984Y318116D01*
X209984Y321964D01*
X211221Y323202D01*
X211272Y323275D01*
X211328Y323344D01*
X211336Y323366D01*
X211350Y323386D01*
X211372Y323472D01*
X211400Y323556D01*
X211400Y323580D01*
X211406Y323603D01*
X211396Y323692D01*
X211394Y323781D01*
X211385Y323803D01*
X211382Y323826D01*
X211343Y323906D01*
X211309Y323988D01*
X211293Y324006D01*
X211283Y324027D01*
X211218Y324088D01*
X211158Y324154D01*
X211137Y324165D01*
X211120Y324181D01*
X211038Y324216D01*
X210958Y324257D01*
X210932Y324260D01*
X210913Y324269D01*
X210863Y324271D01*
X210773Y324284D01*
X208896Y324284D01*
X206174Y327006D01*
X206174Y330854D01*
X208881Y333561D01*
X208919Y333616D01*
X208964Y333663D01*
X208983Y333707D01*
X209010Y333746D01*
X209026Y333809D01*
X209052Y333870D01*
X209054Y333917D01*
X209065Y333963D01*
X209059Y334028D01*
X209062Y334094D01*
X209047Y334139D01*
X209042Y334186D01*
X209013Y334245D01*
X208993Y334308D01*
X208960Y334352D01*
X208943Y334387D01*
X208914Y334414D01*
X208881Y334458D01*
X206174Y337166D01*
X206174Y341014D01*
X208881Y343722D01*
X208919Y343776D01*
X208964Y343823D01*
X208983Y343867D01*
X209010Y343906D01*
X209026Y343969D01*
X209052Y344030D01*
X209054Y344077D01*
X209065Y344123D01*
X209059Y344188D01*
X209062Y344254D01*
X209047Y344299D01*
X209042Y344346D01*
X209013Y344405D01*
X208993Y344468D01*
X208960Y344512D01*
X208943Y344547D01*
X208914Y344574D01*
X208881Y344619D01*
X206174Y347326D01*
X206174Y351174D01*
X208896Y353896D01*
X212744Y353896D01*
X215466Y351174D01*
X215466Y347326D01*
X212759Y344619D01*
X212721Y344564D01*
X212676Y344517D01*
X212657Y344473D01*
X212630Y344434D01*
X212614Y344371D01*
X212588Y344310D01*
X212586Y344263D01*
X212575Y344217D01*
X212581Y344152D01*
X212578Y344086D01*
X212593Y344041D01*
X212598Y343994D01*
X212627Y343935D01*
X212647Y343872D01*
X212680Y343828D01*
X212697Y343793D01*
X212726Y343766D01*
X212759Y343722D01*
X215466Y341014D01*
X215466Y337166D01*
X212759Y334458D01*
X212721Y334404D01*
X212676Y334357D01*
X212657Y334313D01*
X212630Y334274D01*
X212614Y334211D01*
X212588Y334150D01*
X212586Y334103D01*
X212575Y334057D01*
X212581Y333992D01*
X212578Y333926D01*
X212593Y333881D01*
X212598Y333834D01*
X212627Y333775D01*
X212647Y333712D01*
X212680Y333668D01*
X212697Y333633D01*
X212726Y333606D01*
X212759Y333561D01*
X215466Y330854D01*
X215466Y327006D01*
X214229Y325768D01*
X214178Y325695D01*
X214122Y325626D01*
X214114Y325604D01*
X214100Y325584D01*
X214078Y325498D01*
X214050Y325414D01*
X214050Y325390D01*
X214044Y325367D01*
X214054Y325278D01*
X214056Y325189D01*
X214065Y325167D01*
X214068Y325144D01*
X214107Y325064D01*
X214141Y324982D01*
X214157Y324964D01*
X214167Y324943D01*
X214232Y324882D01*
X214292Y324816D01*
X214313Y324805D01*
X214330Y324789D01*
X214412Y324754D01*
X214492Y324713D01*
X214518Y324710D01*
X214537Y324701D01*
X214587Y324699D01*
X214677Y324686D01*
X216554Y324686D01*
X218627Y322614D01*
X218681Y322576D01*
X218728Y322531D01*
X218772Y322512D01*
X218811Y322485D01*
X218874Y322469D01*
X218935Y322443D01*
X218982Y322441D01*
X219028Y322430D01*
X219093Y322436D01*
X219159Y322433D01*
X219204Y322448D01*
X219251Y322453D01*
X219310Y322482D01*
X219373Y322502D01*
X219417Y322535D01*
X219452Y322552D01*
X219479Y322581D01*
X219524Y322614D01*
X221596Y324686D01*
X225444Y324686D01*
X228166Y321964D01*
X228166Y318116D01*
X225444Y315394D01*
X221596Y315394D01*
X219524Y317466D01*
X219469Y317504D01*
X219422Y317549D01*
X219378Y317568D01*
X219339Y317595D01*
X219276Y317611D01*
X219215Y317637D01*
X219168Y317639D01*
X219122Y317650D01*
X219057Y317644D01*
X218991Y317647D01*
X218946Y317632D01*
X218899Y317627D01*
X218840Y317598D01*
X218777Y317578D01*
X218733Y317545D01*
X218698Y317528D01*
X218671Y317499D01*
X218627Y317466D01*
X216554Y315394D01*
X212706Y315394D01*
G37*
%LPD*%
%LPC*%
G36*
X256141Y535939D02*
X256141Y535939D01*
X250189Y541891D01*
X250189Y550309D01*
X256141Y556261D01*
X264559Y556261D01*
X270511Y550309D01*
X270511Y541891D01*
X264559Y535939D01*
X256141Y535939D01*
G37*
%LPD*%
%LPC*%
G36*
X281541Y535939D02*
X281541Y535939D01*
X275589Y541891D01*
X275589Y550309D01*
X281541Y556261D01*
X289959Y556261D01*
X295911Y550309D01*
X295911Y541891D01*
X289959Y535939D01*
X281541Y535939D01*
G37*
%LPD*%
%LPC*%
G36*
X179941Y535939D02*
X179941Y535939D01*
X173989Y541891D01*
X173989Y550309D01*
X179941Y556261D01*
X188359Y556261D01*
X194311Y550309D01*
X194311Y541891D01*
X188359Y535939D01*
X179941Y535939D01*
G37*
%LPD*%
%LPC*%
G36*
X140316Y231574D02*
X140316Y231574D01*
X137594Y234296D01*
X137594Y238144D01*
X140301Y240851D01*
X140339Y240906D01*
X140384Y240953D01*
X140403Y240997D01*
X140430Y241036D01*
X140446Y241099D01*
X140472Y241160D01*
X140474Y241207D01*
X140485Y241253D01*
X140479Y241318D01*
X140482Y241384D01*
X140467Y241429D01*
X140462Y241476D01*
X140433Y241535D01*
X140413Y241598D01*
X140380Y241642D01*
X140363Y241677D01*
X140334Y241704D01*
X140301Y241748D01*
X137594Y244456D01*
X137594Y248304D01*
X140316Y251026D01*
X144164Y251026D01*
X146872Y248319D01*
X146926Y248281D01*
X146973Y248236D01*
X147017Y248217D01*
X147056Y248190D01*
X147119Y248174D01*
X147180Y248148D01*
X147227Y248146D01*
X147273Y248135D01*
X147338Y248141D01*
X147404Y248138D01*
X147449Y248153D01*
X147496Y248158D01*
X147555Y248187D01*
X147618Y248207D01*
X147662Y248240D01*
X147697Y248257D01*
X147724Y248286D01*
X147769Y248319D01*
X150476Y251026D01*
X154324Y251026D01*
X157046Y248304D01*
X157046Y244456D01*
X154339Y241748D01*
X154301Y241694D01*
X154256Y241647D01*
X154237Y241603D01*
X154210Y241564D01*
X154194Y241501D01*
X154168Y241440D01*
X154166Y241393D01*
X154155Y241347D01*
X154161Y241282D01*
X154158Y241216D01*
X154173Y241171D01*
X154178Y241124D01*
X154207Y241065D01*
X154227Y241002D01*
X154260Y240958D01*
X154277Y240923D01*
X154306Y240896D01*
X154339Y240851D01*
X157046Y238144D01*
X157046Y234296D01*
X154324Y231574D01*
X150476Y231574D01*
X147768Y234281D01*
X147714Y234319D01*
X147667Y234364D01*
X147623Y234383D01*
X147584Y234410D01*
X147521Y234426D01*
X147460Y234452D01*
X147413Y234454D01*
X147367Y234465D01*
X147302Y234459D01*
X147236Y234462D01*
X147191Y234447D01*
X147144Y234442D01*
X147085Y234413D01*
X147022Y234393D01*
X146978Y234360D01*
X146943Y234343D01*
X146916Y234314D01*
X146871Y234281D01*
X144164Y231574D01*
X140316Y231574D01*
G37*
%LPD*%
%LPC*%
G36*
X140316Y94414D02*
X140316Y94414D01*
X137594Y97136D01*
X137594Y100984D01*
X139666Y103057D01*
X139704Y103111D01*
X139749Y103158D01*
X139768Y103202D01*
X139795Y103241D01*
X139811Y103304D01*
X139837Y103365D01*
X139839Y103412D01*
X139850Y103458D01*
X139844Y103523D01*
X139847Y103589D01*
X139832Y103634D01*
X139827Y103681D01*
X139798Y103740D01*
X139778Y103803D01*
X139745Y103847D01*
X139728Y103882D01*
X139699Y103909D01*
X139666Y103954D01*
X137594Y106026D01*
X137594Y109874D01*
X140316Y112596D01*
X144164Y112596D01*
X146236Y110524D01*
X146265Y110504D01*
X146273Y110495D01*
X146291Y110486D01*
X146338Y110441D01*
X146382Y110422D01*
X146421Y110395D01*
X146484Y110379D01*
X146545Y110353D01*
X146592Y110351D01*
X146638Y110340D01*
X146703Y110346D01*
X146769Y110343D01*
X146814Y110358D01*
X146861Y110363D01*
X146920Y110392D01*
X146983Y110412D01*
X147027Y110445D01*
X147062Y110462D01*
X147089Y110491D01*
X147133Y110524D01*
X149206Y112596D01*
X153054Y112596D01*
X155776Y109874D01*
X155776Y106026D01*
X153704Y103954D01*
X153666Y103899D01*
X153621Y103852D01*
X153602Y103808D01*
X153575Y103769D01*
X153559Y103706D01*
X153533Y103645D01*
X153531Y103598D01*
X153520Y103552D01*
X153526Y103487D01*
X153523Y103421D01*
X153538Y103376D01*
X153543Y103329D01*
X153572Y103270D01*
X153592Y103207D01*
X153625Y103163D01*
X153642Y103128D01*
X153671Y103101D01*
X153704Y103057D01*
X155776Y100984D01*
X155776Y97136D01*
X153054Y94414D01*
X149206Y94414D01*
X147133Y96486D01*
X147079Y96524D01*
X147032Y96569D01*
X146988Y96588D01*
X146949Y96615D01*
X146886Y96631D01*
X146825Y96657D01*
X146778Y96659D01*
X146732Y96670D01*
X146667Y96664D01*
X146601Y96667D01*
X146556Y96652D01*
X146509Y96647D01*
X146450Y96618D01*
X146387Y96598D01*
X146343Y96565D01*
X146308Y96548D01*
X146281Y96519D01*
X146236Y96486D01*
X144164Y94414D01*
X140316Y94414D01*
G37*
%LPD*%
%LPC*%
G36*
X131426Y470334D02*
X131426Y470334D01*
X128704Y473056D01*
X128704Y476904D01*
X131411Y479612D01*
X131449Y479666D01*
X131494Y479713D01*
X131513Y479757D01*
X131540Y479796D01*
X131556Y479859D01*
X131582Y479920D01*
X131584Y479967D01*
X131595Y480013D01*
X131589Y480078D01*
X131592Y480144D01*
X131577Y480189D01*
X131572Y480236D01*
X131543Y480295D01*
X131523Y480358D01*
X131490Y480402D01*
X131473Y480437D01*
X131444Y480464D01*
X131411Y480509D01*
X128704Y483216D01*
X128704Y487064D01*
X130776Y489137D01*
X130814Y489191D01*
X130859Y489238D01*
X130878Y489282D01*
X130905Y489321D01*
X130921Y489384D01*
X130947Y489445D01*
X130949Y489492D01*
X130960Y489538D01*
X130954Y489603D01*
X130957Y489669D01*
X130942Y489714D01*
X130937Y489761D01*
X130908Y489820D01*
X130888Y489883D01*
X130855Y489927D01*
X130838Y489962D01*
X130809Y489989D01*
X130776Y490034D01*
X128704Y492106D01*
X128704Y495954D01*
X130776Y498027D01*
X130814Y498081D01*
X130859Y498128D01*
X130878Y498172D01*
X130905Y498211D01*
X130921Y498274D01*
X130947Y498335D01*
X130949Y498382D01*
X130960Y498428D01*
X130954Y498493D01*
X130957Y498559D01*
X130942Y498604D01*
X130937Y498651D01*
X130908Y498710D01*
X130888Y498773D01*
X130855Y498817D01*
X130838Y498852D01*
X130809Y498879D01*
X130776Y498924D01*
X128704Y500996D01*
X128704Y504844D01*
X131426Y507566D01*
X135274Y507566D01*
X137996Y504844D01*
X137996Y500996D01*
X135924Y498924D01*
X135886Y498869D01*
X135841Y498822D01*
X135822Y498778D01*
X135795Y498739D01*
X135779Y498676D01*
X135753Y498615D01*
X135751Y498568D01*
X135740Y498522D01*
X135746Y498457D01*
X135743Y498391D01*
X135758Y498346D01*
X135763Y498299D01*
X135792Y498240D01*
X135812Y498177D01*
X135845Y498133D01*
X135862Y498098D01*
X135891Y498071D01*
X135924Y498027D01*
X137996Y495954D01*
X137996Y492106D01*
X135924Y490034D01*
X135886Y489979D01*
X135841Y489932D01*
X135822Y489888D01*
X135795Y489849D01*
X135779Y489786D01*
X135753Y489725D01*
X135751Y489678D01*
X135740Y489632D01*
X135746Y489567D01*
X135743Y489501D01*
X135758Y489456D01*
X135763Y489409D01*
X135792Y489350D01*
X135812Y489287D01*
X135845Y489243D01*
X135862Y489208D01*
X135891Y489181D01*
X135924Y489137D01*
X137996Y487064D01*
X137996Y483216D01*
X135289Y480509D01*
X135251Y480454D01*
X135206Y480407D01*
X135187Y480363D01*
X135160Y480324D01*
X135144Y480261D01*
X135118Y480200D01*
X135116Y480153D01*
X135105Y480107D01*
X135111Y480042D01*
X135108Y479976D01*
X135123Y479931D01*
X135128Y479884D01*
X135157Y479825D01*
X135177Y479762D01*
X135210Y479718D01*
X135227Y479683D01*
X135256Y479656D01*
X135289Y479612D01*
X137996Y476904D01*
X137996Y473056D01*
X135274Y470334D01*
X131426Y470334D01*
G37*
%LPD*%
%LPC*%
G36*
X85706Y488114D02*
X85706Y488114D01*
X82984Y490836D01*
X82984Y494684D01*
X85691Y497392D01*
X85729Y497446D01*
X85774Y497493D01*
X85793Y497537D01*
X85820Y497576D01*
X85836Y497639D01*
X85862Y497700D01*
X85864Y497747D01*
X85875Y497793D01*
X85869Y497858D01*
X85872Y497924D01*
X85857Y497969D01*
X85852Y498016D01*
X85823Y498075D01*
X85803Y498138D01*
X85770Y498182D01*
X85753Y498217D01*
X85724Y498244D01*
X85691Y498289D01*
X82984Y500996D01*
X82984Y504844D01*
X85706Y507566D01*
X89554Y507566D01*
X92276Y504844D01*
X92276Y500996D01*
X89569Y498289D01*
X89531Y498234D01*
X89486Y498187D01*
X89467Y498143D01*
X89440Y498104D01*
X89424Y498041D01*
X89398Y497980D01*
X89396Y497933D01*
X89385Y497887D01*
X89391Y497822D01*
X89388Y497756D01*
X89403Y497711D01*
X89408Y497664D01*
X89437Y497605D01*
X89457Y497542D01*
X89490Y497498D01*
X89507Y497463D01*
X89536Y497436D01*
X89569Y497392D01*
X92261Y494699D01*
X92316Y494661D01*
X92363Y494616D01*
X92407Y494597D01*
X92446Y494570D01*
X92509Y494554D01*
X92570Y494528D01*
X92617Y494526D01*
X92663Y494515D01*
X92728Y494521D01*
X92794Y494518D01*
X92839Y494533D01*
X92886Y494538D01*
X92945Y494567D01*
X93008Y494587D01*
X93052Y494620D01*
X93087Y494637D01*
X93114Y494666D01*
X93158Y494699D01*
X95866Y497406D01*
X99714Y497406D01*
X102436Y494684D01*
X102436Y490836D01*
X99714Y488114D01*
X95866Y488114D01*
X93158Y490821D01*
X93104Y490859D01*
X93057Y490904D01*
X93013Y490923D01*
X92974Y490950D01*
X92911Y490966D01*
X92850Y490992D01*
X92803Y490994D01*
X92757Y491005D01*
X92692Y490999D01*
X92626Y491002D01*
X92581Y490987D01*
X92534Y490982D01*
X92475Y490953D01*
X92412Y490933D01*
X92368Y490900D01*
X92333Y490883D01*
X92306Y490854D01*
X92261Y490821D01*
X89554Y488114D01*
X85706Y488114D01*
G37*
%LPD*%
%LPC*%
G36*
X230486Y140134D02*
X230486Y140134D01*
X227764Y142856D01*
X227764Y146719D01*
X227782Y146745D01*
X227838Y146814D01*
X227846Y146836D01*
X227860Y146856D01*
X227882Y146942D01*
X227910Y147026D01*
X227910Y147050D01*
X227916Y147073D01*
X227906Y147162D01*
X227904Y147251D01*
X227895Y147272D01*
X227892Y147296D01*
X227853Y147376D01*
X227819Y147458D01*
X227803Y147476D01*
X227793Y147497D01*
X227728Y147558D01*
X227668Y147624D01*
X227647Y147635D01*
X227630Y147651D01*
X227548Y147686D01*
X227468Y147727D01*
X227442Y147730D01*
X227423Y147739D01*
X227373Y147741D01*
X227283Y147754D01*
X224136Y147754D01*
X221414Y150476D01*
X221414Y154324D01*
X224136Y157046D01*
X227984Y157046D01*
X230706Y154324D01*
X230706Y150461D01*
X230688Y150435D01*
X230632Y150366D01*
X230624Y150344D01*
X230610Y150324D01*
X230588Y150238D01*
X230560Y150154D01*
X230560Y150130D01*
X230554Y150107D01*
X230564Y150018D01*
X230566Y149929D01*
X230575Y149908D01*
X230578Y149884D01*
X230617Y149804D01*
X230651Y149722D01*
X230667Y149704D01*
X230677Y149683D01*
X230742Y149622D01*
X230802Y149556D01*
X230823Y149545D01*
X230840Y149529D01*
X230922Y149494D01*
X231002Y149453D01*
X231028Y149450D01*
X231047Y149441D01*
X231097Y149439D01*
X231187Y149426D01*
X234334Y149426D01*
X237042Y146719D01*
X237096Y146681D01*
X237143Y146636D01*
X237187Y146617D01*
X237226Y146590D01*
X237289Y146574D01*
X237350Y146548D01*
X237397Y146546D01*
X237443Y146535D01*
X237508Y146541D01*
X237574Y146538D01*
X237619Y146553D01*
X237666Y146558D01*
X237725Y146587D01*
X237788Y146607D01*
X237832Y146640D01*
X237867Y146657D01*
X237894Y146686D01*
X237939Y146719D01*
X240646Y149426D01*
X244494Y149426D01*
X247216Y146704D01*
X247216Y142856D01*
X244494Y140134D01*
X240646Y140134D01*
X237939Y142841D01*
X237884Y142879D01*
X237837Y142924D01*
X237793Y142943D01*
X237754Y142970D01*
X237691Y142986D01*
X237630Y143012D01*
X237583Y143014D01*
X237537Y143025D01*
X237472Y143019D01*
X237406Y143022D01*
X237361Y143007D01*
X237314Y143002D01*
X237255Y142973D01*
X237192Y142953D01*
X237148Y142920D01*
X237113Y142903D01*
X237086Y142874D01*
X237042Y142841D01*
X234334Y140134D01*
X230486Y140134D01*
G37*
%LPD*%
%LPC*%
G36*
X287636Y216334D02*
X287636Y216334D01*
X284914Y219056D01*
X284914Y222904D01*
X287621Y225612D01*
X287659Y225666D01*
X287704Y225713D01*
X287723Y225757D01*
X287750Y225796D01*
X287766Y225859D01*
X287792Y225920D01*
X287794Y225967D01*
X287805Y226013D01*
X287799Y226078D01*
X287802Y226144D01*
X287787Y226189D01*
X287782Y226236D01*
X287753Y226295D01*
X287733Y226358D01*
X287700Y226402D01*
X287683Y226437D01*
X287654Y226464D01*
X287621Y226509D01*
X284914Y229216D01*
X284914Y233064D01*
X287421Y235572D01*
X287472Y235645D01*
X287528Y235714D01*
X287536Y235736D01*
X287550Y235756D01*
X287572Y235842D01*
X287600Y235926D01*
X287600Y235950D01*
X287606Y235973D01*
X287596Y236062D01*
X287594Y236151D01*
X287585Y236173D01*
X287582Y236196D01*
X287543Y236276D01*
X287509Y236358D01*
X287493Y236376D01*
X287483Y236397D01*
X287418Y236458D01*
X287358Y236524D01*
X287337Y236535D01*
X287320Y236551D01*
X287238Y236586D01*
X287158Y236627D01*
X287132Y236630D01*
X287113Y236639D01*
X287063Y236641D01*
X286973Y236654D01*
X283826Y236654D01*
X281104Y239376D01*
X281104Y243224D01*
X283826Y245946D01*
X287674Y245946D01*
X290396Y243224D01*
X290396Y239376D01*
X287889Y236868D01*
X287838Y236795D01*
X287782Y236726D01*
X287774Y236704D01*
X287760Y236684D01*
X287738Y236598D01*
X287710Y236514D01*
X287710Y236490D01*
X287704Y236467D01*
X287714Y236378D01*
X287716Y236289D01*
X287725Y236267D01*
X287728Y236244D01*
X287767Y236164D01*
X287801Y236082D01*
X287817Y236064D01*
X287827Y236043D01*
X287892Y235982D01*
X287952Y235916D01*
X287973Y235905D01*
X287990Y235889D01*
X288072Y235854D01*
X288152Y235813D01*
X288178Y235810D01*
X288197Y235801D01*
X288247Y235799D01*
X288337Y235786D01*
X291484Y235786D01*
X294206Y233064D01*
X294206Y229216D01*
X291499Y226509D01*
X291461Y226454D01*
X291416Y226407D01*
X291397Y226363D01*
X291370Y226324D01*
X291354Y226261D01*
X291328Y226200D01*
X291326Y226153D01*
X291315Y226107D01*
X291321Y226042D01*
X291318Y225976D01*
X291333Y225931D01*
X291338Y225884D01*
X291367Y225825D01*
X291387Y225762D01*
X291420Y225718D01*
X291437Y225683D01*
X291466Y225656D01*
X291499Y225612D01*
X294206Y222904D01*
X294206Y219056D01*
X291484Y216334D01*
X287636Y216334D01*
G37*
%LPD*%
%LPC*%
G36*
X250806Y98224D02*
X250806Y98224D01*
X248084Y100946D01*
X248084Y104809D01*
X248102Y104835D01*
X248158Y104904D01*
X248166Y104926D01*
X248180Y104946D01*
X248202Y105032D01*
X248230Y105116D01*
X248230Y105140D01*
X248236Y105163D01*
X248226Y105252D01*
X248224Y105341D01*
X248215Y105362D01*
X248212Y105386D01*
X248173Y105466D01*
X248139Y105548D01*
X248123Y105566D01*
X248113Y105587D01*
X248048Y105648D01*
X247988Y105714D01*
X247967Y105725D01*
X247950Y105741D01*
X247868Y105776D01*
X247788Y105817D01*
X247762Y105820D01*
X247743Y105829D01*
X247693Y105831D01*
X247603Y105844D01*
X246996Y105844D01*
X244274Y108566D01*
X244274Y112414D01*
X246346Y114487D01*
X246384Y114541D01*
X246429Y114588D01*
X246448Y114632D01*
X246475Y114671D01*
X246491Y114734D01*
X246517Y114795D01*
X246519Y114842D01*
X246530Y114888D01*
X246524Y114953D01*
X246527Y115019D01*
X246512Y115064D01*
X246507Y115111D01*
X246478Y115170D01*
X246458Y115233D01*
X246425Y115277D01*
X246408Y115312D01*
X246379Y115339D01*
X246346Y115384D01*
X244274Y117456D01*
X244274Y121304D01*
X246996Y124026D01*
X250844Y124026D01*
X253566Y121304D01*
X253566Y117456D01*
X251494Y115384D01*
X251456Y115329D01*
X251411Y115282D01*
X251392Y115238D01*
X251365Y115199D01*
X251349Y115136D01*
X251323Y115075D01*
X251321Y115028D01*
X251310Y114982D01*
X251316Y114917D01*
X251313Y114851D01*
X251328Y114806D01*
X251333Y114759D01*
X251362Y114700D01*
X251382Y114637D01*
X251415Y114593D01*
X251432Y114558D01*
X251461Y114531D01*
X251494Y114487D01*
X253566Y112414D01*
X253566Y108551D01*
X253548Y108525D01*
X253492Y108456D01*
X253484Y108434D01*
X253470Y108414D01*
X253448Y108328D01*
X253420Y108244D01*
X253420Y108220D01*
X253414Y108197D01*
X253424Y108108D01*
X253426Y108019D01*
X253435Y107998D01*
X253438Y107974D01*
X253477Y107894D01*
X253511Y107812D01*
X253527Y107794D01*
X253537Y107773D01*
X253602Y107712D01*
X253662Y107646D01*
X253683Y107635D01*
X253700Y107619D01*
X253782Y107584D01*
X253862Y107543D01*
X253888Y107540D01*
X253907Y107531D01*
X253957Y107529D01*
X254047Y107516D01*
X254654Y107516D01*
X257376Y104794D01*
X257376Y100946D01*
X254654Y98224D01*
X250806Y98224D01*
G37*
%LPD*%
%LPC*%
G36*
X290176Y477954D02*
X290176Y477954D01*
X287454Y480676D01*
X287454Y484524D01*
X290176Y487246D01*
X294024Y487246D01*
X296731Y484539D01*
X296786Y484501D01*
X296833Y484456D01*
X296877Y484437D01*
X296916Y484410D01*
X296979Y484394D01*
X297040Y484368D01*
X297087Y484366D01*
X297133Y484355D01*
X297198Y484361D01*
X297264Y484358D01*
X297309Y484373D01*
X297356Y484378D01*
X297415Y484407D01*
X297478Y484427D01*
X297522Y484460D01*
X297557Y484477D01*
X297584Y484506D01*
X297628Y484539D01*
X300336Y487246D01*
X304184Y487246D01*
X306906Y484524D01*
X306906Y480676D01*
X304184Y477954D01*
X300336Y477954D01*
X297628Y480661D01*
X297574Y480699D01*
X297527Y480744D01*
X297483Y480763D01*
X297444Y480790D01*
X297381Y480806D01*
X297320Y480832D01*
X297273Y480834D01*
X297227Y480845D01*
X297162Y480839D01*
X297096Y480842D01*
X297051Y480827D01*
X297004Y480822D01*
X296945Y480793D01*
X296882Y480773D01*
X296838Y480740D01*
X296803Y480723D01*
X296776Y480694D01*
X296731Y480661D01*
X294024Y477954D01*
X290176Y477954D01*
G37*
%LPD*%
%LPC*%
G36*
X291446Y458904D02*
X291446Y458904D01*
X288724Y461626D01*
X288724Y465474D01*
X291446Y468196D01*
X295294Y468196D01*
X298001Y465489D01*
X298056Y465451D01*
X298103Y465406D01*
X298147Y465387D01*
X298186Y465360D01*
X298249Y465344D01*
X298310Y465318D01*
X298357Y465316D01*
X298403Y465305D01*
X298468Y465311D01*
X298534Y465308D01*
X298579Y465323D01*
X298626Y465328D01*
X298685Y465357D01*
X298748Y465377D01*
X298792Y465410D01*
X298827Y465427D01*
X298854Y465456D01*
X298898Y465489D01*
X301606Y468196D01*
X305454Y468196D01*
X308176Y465474D01*
X308176Y461626D01*
X305454Y458904D01*
X301606Y458904D01*
X298898Y461611D01*
X298844Y461649D01*
X298797Y461694D01*
X298753Y461713D01*
X298714Y461740D01*
X298651Y461756D01*
X298590Y461782D01*
X298543Y461784D01*
X298497Y461795D01*
X298432Y461789D01*
X298366Y461792D01*
X298321Y461777D01*
X298274Y461772D01*
X298215Y461743D01*
X298152Y461723D01*
X298108Y461690D01*
X298073Y461673D01*
X298046Y461644D01*
X298001Y461611D01*
X295294Y458904D01*
X291446Y458904D01*
G37*
%LPD*%
%LPC*%
G36*
X111106Y328094D02*
X111106Y328094D01*
X108384Y330816D01*
X108384Y334664D01*
X111106Y337386D01*
X114954Y337386D01*
X117027Y335314D01*
X117081Y335276D01*
X117128Y335231D01*
X117172Y335212D01*
X117211Y335185D01*
X117274Y335169D01*
X117335Y335143D01*
X117382Y335141D01*
X117428Y335130D01*
X117493Y335136D01*
X117559Y335133D01*
X117604Y335148D01*
X117651Y335153D01*
X117710Y335182D01*
X117773Y335202D01*
X117817Y335235D01*
X117852Y335252D01*
X117879Y335281D01*
X117924Y335314D01*
X119996Y337386D01*
X123844Y337386D01*
X126566Y334664D01*
X126566Y330816D01*
X123844Y328094D01*
X119996Y328094D01*
X117924Y330166D01*
X117869Y330204D01*
X117822Y330249D01*
X117778Y330268D01*
X117739Y330295D01*
X117676Y330311D01*
X117615Y330337D01*
X117568Y330339D01*
X117522Y330350D01*
X117457Y330344D01*
X117391Y330347D01*
X117346Y330332D01*
X117299Y330327D01*
X117240Y330298D01*
X117177Y330278D01*
X117133Y330245D01*
X117098Y330228D01*
X117071Y330199D01*
X117027Y330166D01*
X114954Y328094D01*
X111106Y328094D01*
G37*
%LPD*%
%LPC*%
G36*
X127616Y319204D02*
X127616Y319204D01*
X124894Y321926D01*
X124894Y325774D01*
X127616Y328496D01*
X131464Y328496D01*
X133536Y326424D01*
X133591Y326386D01*
X133638Y326341D01*
X133682Y326322D01*
X133721Y326295D01*
X133784Y326279D01*
X133845Y326253D01*
X133892Y326251D01*
X133938Y326240D01*
X134003Y326246D01*
X134069Y326243D01*
X134114Y326258D01*
X134161Y326263D01*
X134220Y326292D01*
X134283Y326312D01*
X134327Y326345D01*
X134362Y326362D01*
X134389Y326391D01*
X134433Y326424D01*
X136506Y328496D01*
X140354Y328496D01*
X143076Y325774D01*
X143076Y321926D01*
X140354Y319204D01*
X136506Y319204D01*
X134433Y321276D01*
X134379Y321314D01*
X134332Y321359D01*
X134288Y321378D01*
X134249Y321405D01*
X134186Y321421D01*
X134125Y321447D01*
X134078Y321449D01*
X134032Y321460D01*
X133967Y321454D01*
X133901Y321457D01*
X133856Y321442D01*
X133809Y321437D01*
X133750Y321408D01*
X133687Y321388D01*
X133643Y321355D01*
X133608Y321338D01*
X133581Y321309D01*
X133536Y321276D01*
X131464Y319204D01*
X127616Y319204D01*
G37*
%LPD*%
%LPC*%
G36*
X266046Y281104D02*
X266046Y281104D01*
X263324Y283826D01*
X263324Y287674D01*
X266046Y290396D01*
X269894Y290396D01*
X271967Y288324D01*
X272021Y288286D01*
X272068Y288241D01*
X272112Y288222D01*
X272151Y288195D01*
X272214Y288179D01*
X272275Y288153D01*
X272322Y288151D01*
X272368Y288140D01*
X272433Y288146D01*
X272499Y288143D01*
X272544Y288158D01*
X272591Y288163D01*
X272650Y288192D01*
X272713Y288212D01*
X272757Y288245D01*
X272792Y288262D01*
X272819Y288291D01*
X272864Y288324D01*
X274936Y290396D01*
X278784Y290396D01*
X281506Y287674D01*
X281506Y283826D01*
X278784Y281104D01*
X274936Y281104D01*
X272864Y283176D01*
X272809Y283214D01*
X272762Y283259D01*
X272718Y283278D01*
X272679Y283305D01*
X272616Y283321D01*
X272555Y283347D01*
X272508Y283349D01*
X272462Y283360D01*
X272397Y283354D01*
X272331Y283357D01*
X272286Y283342D01*
X272239Y283337D01*
X272180Y283308D01*
X272117Y283288D01*
X272073Y283255D01*
X272038Y283238D01*
X272011Y283209D01*
X271967Y283176D01*
X269894Y281104D01*
X266046Y281104D01*
G37*
%LPD*%
%LPC*%
G36*
X311766Y465254D02*
X311766Y465254D01*
X309044Y467976D01*
X309044Y471824D01*
X311116Y473897D01*
X311154Y473951D01*
X311199Y473998D01*
X311218Y474042D01*
X311245Y474081D01*
X311261Y474144D01*
X311287Y474205D01*
X311289Y474252D01*
X311300Y474298D01*
X311294Y474363D01*
X311297Y474429D01*
X311282Y474474D01*
X311277Y474521D01*
X311248Y474580D01*
X311228Y474643D01*
X311195Y474687D01*
X311178Y474722D01*
X311149Y474749D01*
X311116Y474794D01*
X309044Y476866D01*
X309044Y480714D01*
X311766Y483436D01*
X315614Y483436D01*
X318336Y480714D01*
X318336Y476866D01*
X316264Y474794D01*
X316226Y474739D01*
X316181Y474692D01*
X316162Y474648D01*
X316135Y474609D01*
X316119Y474546D01*
X316093Y474485D01*
X316091Y474438D01*
X316080Y474392D01*
X316086Y474327D01*
X316083Y474261D01*
X316098Y474216D01*
X316103Y474169D01*
X316132Y474110D01*
X316152Y474047D01*
X316185Y474003D01*
X316202Y473968D01*
X316231Y473941D01*
X316264Y473897D01*
X318336Y471824D01*
X318336Y467976D01*
X315614Y465254D01*
X311766Y465254D01*
G37*
%LPD*%
%LPC*%
G36*
X335896Y466524D02*
X335896Y466524D01*
X333174Y469246D01*
X333174Y473094D01*
X335246Y475167D01*
X335284Y475221D01*
X335329Y475268D01*
X335348Y475312D01*
X335375Y475351D01*
X335391Y475414D01*
X335417Y475475D01*
X335419Y475522D01*
X335430Y475568D01*
X335424Y475633D01*
X335427Y475699D01*
X335412Y475744D01*
X335407Y475791D01*
X335378Y475850D01*
X335358Y475913D01*
X335325Y475957D01*
X335308Y475992D01*
X335279Y476019D01*
X335246Y476064D01*
X333174Y478136D01*
X333174Y481984D01*
X335896Y484706D01*
X339744Y484706D01*
X342466Y481984D01*
X342466Y478136D01*
X340394Y476064D01*
X340356Y476009D01*
X340311Y475962D01*
X340292Y475918D01*
X340265Y475879D01*
X340249Y475816D01*
X340223Y475755D01*
X340221Y475708D01*
X340210Y475662D01*
X340216Y475597D01*
X340213Y475531D01*
X340228Y475486D01*
X340233Y475439D01*
X340262Y475380D01*
X340282Y475317D01*
X340315Y475273D01*
X340332Y475238D01*
X340361Y475211D01*
X340394Y475167D01*
X342466Y473094D01*
X342466Y469246D01*
X339744Y466524D01*
X335896Y466524D01*
G37*
%LPD*%
%LPC*%
G36*
X269856Y42344D02*
X269856Y42344D01*
X267134Y45066D01*
X267134Y48914D01*
X269856Y51636D01*
X273704Y51636D01*
X276426Y48914D01*
X276426Y45066D01*
X273704Y42344D01*
X269856Y42344D01*
G37*
%LPD*%
%LPC*%
G36*
X391776Y497004D02*
X391776Y497004D01*
X389054Y499726D01*
X389054Y503574D01*
X391776Y506296D01*
X395624Y506296D01*
X398346Y503574D01*
X398346Y499726D01*
X395624Y497004D01*
X391776Y497004D01*
G37*
%LPD*%
%LPC*%
G36*
X201276Y39804D02*
X201276Y39804D01*
X198554Y42526D01*
X198554Y46374D01*
X201276Y49096D01*
X205124Y49096D01*
X207846Y46374D01*
X207846Y42526D01*
X205124Y39804D01*
X201276Y39804D01*
G37*
%LPD*%
%LPC*%
G36*
X188576Y39804D02*
X188576Y39804D01*
X185854Y42526D01*
X185854Y46374D01*
X188576Y49096D01*
X192424Y49096D01*
X195146Y46374D01*
X195146Y42526D01*
X192424Y39804D01*
X188576Y39804D01*
G37*
%LPD*%
%LPC*%
G36*
X175876Y39804D02*
X175876Y39804D01*
X173154Y42526D01*
X173154Y46374D01*
X175876Y49096D01*
X179724Y49096D01*
X182446Y46374D01*
X182446Y42526D01*
X179724Y39804D01*
X175876Y39804D01*
G37*
%LPD*%
%LPC*%
G36*
X163176Y39804D02*
X163176Y39804D01*
X160454Y42526D01*
X160454Y46374D01*
X163176Y49096D01*
X167024Y49096D01*
X169746Y46374D01*
X169746Y42526D01*
X167024Y39804D01*
X163176Y39804D01*
G37*
%LPD*%
%LPC*%
G36*
X213976Y39804D02*
X213976Y39804D01*
X211254Y42526D01*
X211254Y46374D01*
X213976Y49096D01*
X217824Y49096D01*
X220546Y46374D01*
X220546Y42526D01*
X217824Y39804D01*
X213976Y39804D01*
G37*
%LPD*%
%LPC*%
G36*
X226676Y39804D02*
X226676Y39804D01*
X223954Y42526D01*
X223954Y46374D01*
X226676Y49096D01*
X230524Y49096D01*
X233246Y46374D01*
X233246Y42526D01*
X230524Y39804D01*
X226676Y39804D01*
G37*
%LPD*%
%LPC*%
G36*
X74276Y498274D02*
X74276Y498274D01*
X71554Y500996D01*
X71554Y504844D01*
X74276Y507566D01*
X78124Y507566D01*
X80846Y504844D01*
X80846Y500996D01*
X78124Y498274D01*
X74276Y498274D01*
G37*
%LPD*%
%LPC*%
G36*
X175876Y27104D02*
X175876Y27104D01*
X173154Y29826D01*
X173154Y33674D01*
X175876Y36396D01*
X179724Y36396D01*
X182446Y33674D01*
X182446Y29826D01*
X179724Y27104D01*
X175876Y27104D01*
G37*
%LPD*%
%LPC*%
G36*
X252076Y27104D02*
X252076Y27104D01*
X249354Y29826D01*
X249354Y33674D01*
X252076Y36396D01*
X255924Y36396D01*
X258646Y33674D01*
X258646Y29826D01*
X255924Y27104D01*
X252076Y27104D01*
G37*
%LPD*%
%LPC*%
G36*
X239376Y27104D02*
X239376Y27104D01*
X236654Y29826D01*
X236654Y33674D01*
X239376Y36396D01*
X243224Y36396D01*
X245946Y33674D01*
X245946Y29826D01*
X243224Y27104D01*
X239376Y27104D01*
G37*
%LPD*%
%LPC*%
G36*
X226676Y27104D02*
X226676Y27104D01*
X223954Y29826D01*
X223954Y33674D01*
X226676Y36396D01*
X230524Y36396D01*
X233246Y33674D01*
X233246Y29826D01*
X230524Y27104D01*
X226676Y27104D01*
G37*
%LPD*%
%LPC*%
G36*
X213976Y27104D02*
X213976Y27104D01*
X211254Y29826D01*
X211254Y33674D01*
X213976Y36396D01*
X217824Y36396D01*
X220546Y33674D01*
X220546Y29826D01*
X217824Y27104D01*
X213976Y27104D01*
G37*
%LPD*%
%LPC*%
G36*
X201276Y27104D02*
X201276Y27104D01*
X198554Y29826D01*
X198554Y33674D01*
X201276Y36396D01*
X205124Y36396D01*
X207846Y33674D01*
X207846Y29826D01*
X205124Y27104D01*
X201276Y27104D01*
G37*
%LPD*%
%LPC*%
G36*
X163176Y27104D02*
X163176Y27104D01*
X160454Y29826D01*
X160454Y33674D01*
X163176Y36396D01*
X167024Y36396D01*
X169746Y33674D01*
X169746Y29826D01*
X167024Y27104D01*
X163176Y27104D01*
G37*
%LPD*%
%LPC*%
G36*
X150476Y27104D02*
X150476Y27104D01*
X147754Y29826D01*
X147754Y33674D01*
X150476Y36396D01*
X154324Y36396D01*
X157046Y33674D01*
X157046Y29826D01*
X154324Y27104D01*
X150476Y27104D01*
G37*
%LPD*%
%LPC*%
G36*
X188576Y27104D02*
X188576Y27104D01*
X185854Y29826D01*
X185854Y33674D01*
X188576Y36396D01*
X192424Y36396D01*
X195146Y33674D01*
X195146Y29826D01*
X192424Y27104D01*
X188576Y27104D01*
G37*
%LPD*%
%LPC*%
G36*
X252076Y14404D02*
X252076Y14404D01*
X249354Y17126D01*
X249354Y20974D01*
X252076Y23696D01*
X255924Y23696D01*
X258646Y20974D01*
X258646Y17126D01*
X255924Y14404D01*
X252076Y14404D01*
G37*
%LPD*%
%LPC*%
G36*
X239376Y14404D02*
X239376Y14404D01*
X236654Y17126D01*
X236654Y20974D01*
X239376Y23696D01*
X243224Y23696D01*
X245946Y20974D01*
X245946Y17126D01*
X243224Y14404D01*
X239376Y14404D01*
G37*
%LPD*%
%LPC*%
G36*
X226676Y14404D02*
X226676Y14404D01*
X223954Y17126D01*
X223954Y20974D01*
X226676Y23696D01*
X230524Y23696D01*
X233246Y20974D01*
X233246Y17126D01*
X230524Y14404D01*
X226676Y14404D01*
G37*
%LPD*%
%LPC*%
G36*
X175876Y14404D02*
X175876Y14404D01*
X173154Y17126D01*
X173154Y20974D01*
X175876Y23696D01*
X179724Y23696D01*
X182446Y20974D01*
X182446Y17126D01*
X179724Y14404D01*
X175876Y14404D01*
G37*
%LPD*%
%LPC*%
G36*
X163176Y14404D02*
X163176Y14404D01*
X160454Y17126D01*
X160454Y20974D01*
X163176Y23696D01*
X167024Y23696D01*
X169746Y20974D01*
X169746Y17126D01*
X167024Y14404D01*
X163176Y14404D01*
G37*
%LPD*%
%LPC*%
G36*
X150476Y14404D02*
X150476Y14404D01*
X147754Y17126D01*
X147754Y20974D01*
X150476Y23696D01*
X154324Y23696D01*
X157046Y20974D01*
X157046Y17126D01*
X154324Y14404D01*
X150476Y14404D01*
G37*
%LPD*%
%LPC*%
G36*
X382886Y260784D02*
X382886Y260784D01*
X380164Y263506D01*
X380164Y267354D01*
X382886Y270076D01*
X386734Y270076D01*
X389456Y267354D01*
X389456Y263506D01*
X386734Y260784D01*
X382886Y260784D01*
G37*
%LPD*%
%LPC*%
G36*
X391776Y446204D02*
X391776Y446204D01*
X389054Y448926D01*
X389054Y452774D01*
X391776Y455496D01*
X395624Y455496D01*
X398346Y452774D01*
X398346Y448926D01*
X395624Y446204D01*
X391776Y446204D01*
G37*
%LPD*%
%LPC*%
G36*
X366376Y446204D02*
X366376Y446204D01*
X363654Y448926D01*
X363654Y452774D01*
X366376Y455496D01*
X370224Y455496D01*
X372946Y452774D01*
X372946Y448926D01*
X370224Y446204D01*
X366376Y446204D01*
G37*
%LPD*%
%LPC*%
G36*
X285096Y433504D02*
X285096Y433504D01*
X282374Y436226D01*
X282374Y440074D01*
X285096Y442796D01*
X288944Y442796D01*
X291666Y440074D01*
X291666Y436226D01*
X288944Y433504D01*
X285096Y433504D01*
G37*
%LPD*%
%LPC*%
G36*
X353676Y446204D02*
X353676Y446204D01*
X350954Y448926D01*
X350954Y452774D01*
X353676Y455496D01*
X357524Y455496D01*
X360246Y452774D01*
X360246Y448926D01*
X357524Y446204D01*
X353676Y446204D01*
G37*
%LPD*%
%LPC*%
G36*
X219056Y456364D02*
X219056Y456364D01*
X216334Y459086D01*
X216334Y462934D01*
X219056Y465656D01*
X222904Y465656D01*
X225626Y462934D01*
X225626Y459086D01*
X222904Y456364D01*
X219056Y456364D01*
G37*
%LPD*%
%LPC*%
G36*
X366376Y458904D02*
X366376Y458904D01*
X363654Y461626D01*
X363654Y465474D01*
X366376Y468196D01*
X370224Y468196D01*
X372946Y465474D01*
X372946Y461626D01*
X370224Y458904D01*
X366376Y458904D01*
G37*
%LPD*%
%LPC*%
G36*
X353676Y458904D02*
X353676Y458904D01*
X350954Y461626D01*
X350954Y465474D01*
X353676Y468196D01*
X357524Y468196D01*
X360246Y465474D01*
X360246Y461626D01*
X357524Y458904D01*
X353676Y458904D01*
G37*
%LPD*%
%LPC*%
G36*
X282556Y469064D02*
X282556Y469064D01*
X279834Y471786D01*
X279834Y475634D01*
X282556Y478356D01*
X286404Y478356D01*
X289126Y475634D01*
X289126Y471786D01*
X286404Y469064D01*
X282556Y469064D01*
G37*
%LPD*%
%LPC*%
G36*
X353676Y471604D02*
X353676Y471604D01*
X350954Y474326D01*
X350954Y478174D01*
X353676Y480896D01*
X357524Y480896D01*
X360246Y478174D01*
X360246Y474326D01*
X357524Y471604D01*
X353676Y471604D01*
G37*
%LPD*%
%LPC*%
G36*
X277476Y329364D02*
X277476Y329364D01*
X274754Y332086D01*
X274754Y335934D01*
X277476Y338656D01*
X281324Y338656D01*
X284046Y335934D01*
X284046Y332086D01*
X281324Y329364D01*
X277476Y329364D01*
G37*
%LPD*%
%LPC*%
G36*
X366376Y471604D02*
X366376Y471604D01*
X363654Y474326D01*
X363654Y478174D01*
X366376Y480896D01*
X370224Y480896D01*
X372946Y478174D01*
X372946Y474326D01*
X370224Y471604D01*
X366376Y471604D01*
G37*
%LPD*%
%LPC*%
G36*
X201276Y56314D02*
X201276Y56314D01*
X198554Y59036D01*
X198554Y62884D01*
X201276Y65606D01*
X205124Y65606D01*
X207846Y62884D01*
X207846Y59036D01*
X205124Y56314D01*
X201276Y56314D01*
G37*
%LPD*%
%LPC*%
G36*
X366376Y484304D02*
X366376Y484304D01*
X363654Y487026D01*
X363654Y490874D01*
X366376Y493596D01*
X370224Y493596D01*
X372946Y490874D01*
X372946Y487026D01*
X370224Y484304D01*
X366376Y484304D01*
G37*
%LPD*%
%LPC*%
G36*
X353676Y484304D02*
X353676Y484304D01*
X350954Y487026D01*
X350954Y490874D01*
X353676Y493596D01*
X357524Y493596D01*
X360246Y490874D01*
X360246Y487026D01*
X357524Y484304D01*
X353676Y484304D01*
G37*
%LPD*%
%LPC*%
G36*
X189846Y197284D02*
X189846Y197284D01*
X187124Y200006D01*
X187124Y203854D01*
X189846Y206576D01*
X193694Y206576D01*
X196416Y203854D01*
X196416Y200006D01*
X193694Y197284D01*
X189846Y197284D01*
G37*
%LPD*%
%LPC*%
G36*
X178416Y197284D02*
X178416Y197284D01*
X175694Y200006D01*
X175694Y203854D01*
X178416Y206576D01*
X182264Y206576D01*
X184986Y203854D01*
X184986Y200006D01*
X182264Y197284D01*
X178416Y197284D01*
G37*
%LPD*%
%LPC*%
G36*
X178416Y185854D02*
X178416Y185854D01*
X175694Y188576D01*
X175694Y192424D01*
X178416Y195146D01*
X182264Y195146D01*
X184986Y192424D01*
X184986Y188576D01*
X182264Y185854D01*
X178416Y185854D01*
G37*
%LPD*%
%LPC*%
G36*
X353676Y497004D02*
X353676Y497004D01*
X350954Y499726D01*
X350954Y503574D01*
X353676Y506296D01*
X357524Y506296D01*
X360246Y503574D01*
X360246Y499726D01*
X357524Y497004D01*
X353676Y497004D01*
G37*
%LPD*%
%LPC*%
G36*
X366376Y497004D02*
X366376Y497004D01*
X363654Y499726D01*
X363654Y503574D01*
X366376Y506296D01*
X370224Y506296D01*
X372946Y503574D01*
X372946Y499726D01*
X370224Y497004D01*
X366376Y497004D01*
G37*
%LPD*%
%LPC*%
G36*
X379076Y497004D02*
X379076Y497004D01*
X376354Y499726D01*
X376354Y503574D01*
X379076Y506296D01*
X382924Y506296D01*
X385646Y503574D01*
X385646Y499726D01*
X382924Y497004D01*
X379076Y497004D01*
G37*
%LPD*%
%LPC*%
G36*
X201276Y84254D02*
X201276Y84254D01*
X198554Y86976D01*
X198554Y90824D01*
X201276Y93546D01*
X205124Y93546D01*
X207846Y90824D01*
X207846Y86976D01*
X205124Y84254D01*
X201276Y84254D01*
G37*
%LPD*%
%LPC*%
G36*
X379076Y446204D02*
X379076Y446204D01*
X376354Y448926D01*
X376354Y452774D01*
X379076Y455496D01*
X382924Y455496D01*
X385646Y452774D01*
X385646Y448926D01*
X382924Y446204D01*
X379076Y446204D01*
G37*
%LPD*%
D10*
X394970Y91440D03*
X394970Y124460D03*
X369570Y91440D03*
X369570Y124460D03*
X394970Y147320D03*
X369570Y147320D03*
X394970Y68580D03*
X369570Y68580D03*
X382270Y68580D03*
X382270Y147320D03*
X382270Y124460D03*
X382270Y91440D03*
D11*
X383540Y107950D03*
D10*
X394970Y193040D03*
X394970Y226060D03*
X369570Y193040D03*
X369570Y226060D03*
X394970Y248920D03*
X369570Y248920D03*
X394970Y170180D03*
X369570Y170180D03*
X382270Y170180D03*
X382270Y248920D03*
X382270Y226060D03*
X382270Y193040D03*
D11*
X383540Y209550D03*
D10*
X11430Y226060D03*
X11430Y193040D03*
X36830Y226060D03*
X36830Y193040D03*
X11430Y170180D03*
X36830Y170180D03*
X11430Y248920D03*
X36830Y248920D03*
X24130Y248920D03*
X24130Y170180D03*
X24130Y193040D03*
X24130Y226060D03*
D11*
X22860Y209550D03*
D10*
X11430Y124460D03*
X11430Y91440D03*
X36830Y124460D03*
X36830Y91440D03*
X11430Y68580D03*
X36830Y68580D03*
X11430Y147320D03*
X36830Y147320D03*
X24130Y147320D03*
X24130Y68580D03*
X24130Y91440D03*
X24130Y124460D03*
D11*
X22860Y107950D03*
D12*
X209550Y546100D03*
X184150Y546100D03*
X158750Y546100D03*
X234950Y546100D03*
X260350Y546100D03*
X285750Y546100D03*
D13*
X19050Y381000D03*
X19050Y406400D03*
X19050Y355600D03*
D12*
X44450Y25400D03*
X19050Y25400D03*
X69850Y25400D03*
X95250Y25400D03*
D14*
X54610Y436880D03*
X38100Y443230D03*
X182880Y472440D03*
X175260Y463550D03*
X170180Y502920D03*
X170180Y485140D03*
X170180Y494030D03*
X170180Y476250D03*
X88900Y457200D03*
X97790Y457200D03*
X46990Y436880D03*
X193040Y472440D03*
X260350Y425450D03*
X260350Y412750D03*
X260350Y400050D03*
X260350Y387350D03*
X260350Y450850D03*
X246380Y350520D03*
X246380Y342900D03*
X246380Y335280D03*
X246380Y327660D03*
X265430Y334010D03*
X256540Y334010D03*
X276860Y323850D03*
X267970Y323850D03*
X129540Y285750D03*
X138430Y285750D03*
X101600Y285750D03*
X115570Y276860D03*
X303530Y323850D03*
X290830Y331470D03*
X288290Y414020D03*
X297180Y414020D03*
X116840Y251460D03*
X106680Y240030D03*
X104140Y222250D03*
X181610Y222250D03*
X168910Y236220D03*
X260350Y252730D03*
X248920Y240030D03*
X247650Y222250D03*
X204470Y201930D03*
X214630Y196850D03*
X214630Y187960D03*
X227330Y190500D03*
X233680Y199390D03*
X242570Y199390D03*
X180340Y152400D03*
X191770Y154940D03*
X191770Y146050D03*
X162560Y144780D03*
X171450Y144780D03*
X105410Y119380D03*
X105410Y107950D03*
X105410Y97790D03*
X180340Y119380D03*
X168910Y109220D03*
X288290Y120650D03*
X288290Y110490D03*
X287020Y101600D03*
X261620Y313690D03*
X320040Y510540D03*
X328930Y510540D03*
X336550Y504190D03*
X336550Y496570D03*
X313690Y504190D03*
X313690Y496570D03*
X302260Y495300D03*
X293370Y495300D03*
X293370Y515620D03*
X303530Y515620D03*
X283210Y504190D03*
X370840Y438150D03*
X361950Y431800D03*
X361950Y422910D03*
X372110Y411480D03*
X382270Y433070D03*
X382270Y422910D03*
X356870Y265430D03*
X355600Y353060D03*
X368300Y265430D03*
X355600Y342900D03*
X356870Y275590D03*
X218440Y87630D03*
X228600Y87630D03*
X238760Y87630D03*
X248920Y90170D03*
X259080Y90170D03*
X270510Y90170D03*
X270510Y81280D03*
X270510Y71120D03*
X238760Y77470D03*
X238760Y67310D03*
X107950Y81280D03*
X107950Y71120D03*
X130810Y80010D03*
X130810Y69850D03*
X119380Y59690D03*
X119380Y90170D03*
X12700Y266700D03*
X12700Y292100D03*
X12700Y469900D03*
X12700Y495300D03*
X12700Y520700D03*
X12700Y552450D03*
X38100Y552450D03*
X63500Y552450D03*
X88900Y552450D03*
X120650Y552450D03*
X304800Y552450D03*
X330200Y552450D03*
X393700Y431800D03*
X393700Y406400D03*
X393700Y381000D03*
X393700Y50800D03*
X393700Y25400D03*
X381000Y12700D03*
X317500Y12700D03*
X38100Y454660D03*
X151130Y304800D03*
X151130Y285750D03*
X129540Y323850D03*
X138430Y323850D03*
X121920Y332740D03*
X113030Y332740D03*
X142240Y236220D03*
X152400Y236220D03*
X152400Y246380D03*
X142240Y246380D03*
X285750Y241300D03*
X289560Y231140D03*
X289560Y220980D03*
X180340Y190500D03*
X191770Y201930D03*
X180340Y201930D03*
X226060Y152400D03*
X242570Y144780D03*
X232410Y144780D03*
X142240Y107950D03*
X151130Y107950D03*
X142240Y99060D03*
X151130Y99060D03*
X248920Y119380D03*
X252730Y102870D03*
X248920Y110490D03*
X397510Y351790D03*
X397510Y341630D03*
X397510Y331470D03*
X398780Y278130D03*
X384810Y265430D03*
X190500Y31750D03*
X203200Y31750D03*
X215900Y31750D03*
X177800Y31750D03*
X228600Y31750D03*
X228600Y19050D03*
X177800Y19050D03*
X165100Y19050D03*
X241300Y19050D03*
X241300Y31750D03*
X165100Y31750D03*
X152400Y19050D03*
X152400Y31750D03*
X254000Y31750D03*
X254000Y19050D03*
X228600Y44450D03*
X215900Y44450D03*
X203200Y44450D03*
X190500Y44450D03*
X177800Y44450D03*
X165100Y44450D03*
X152400Y44450D03*
X203200Y60960D03*
X203200Y88900D03*
X271780Y46990D03*
X133350Y502920D03*
X133350Y494030D03*
X133350Y485140D03*
X133350Y474980D03*
X87630Y492760D03*
X97790Y492760D03*
X76200Y502920D03*
X287020Y438150D03*
X220980Y461010D03*
X223520Y320040D03*
X214630Y320040D03*
X210820Y328930D03*
X210820Y349250D03*
X210820Y339090D03*
X279400Y334010D03*
X276860Y285750D03*
X267970Y285750D03*
X284480Y276860D03*
X293370Y276860D03*
X284480Y473710D03*
X292100Y482600D03*
X302260Y482600D03*
X293370Y463550D03*
X303530Y463550D03*
X313690Y478790D03*
X313690Y469900D03*
X337820Y480060D03*
X337820Y471170D03*
X393700Y450850D03*
X381000Y450850D03*
X397510Y463550D03*
X397510Y476250D03*
X397510Y488950D03*
X393700Y501650D03*
X381000Y501650D03*
X368300Y501650D03*
X355600Y501650D03*
X368300Y488950D03*
X368300Y476250D03*
X368300Y463550D03*
X368300Y450850D03*
X355600Y488950D03*
X355600Y476250D03*
X355600Y463550D03*
X355600Y450850D03*
X87630Y502920D03*
X133350Y425450D03*
D15*
X152400Y444500D01*
X152400Y539750D01*
X158750Y546100D01*
D14*
X171450Y450850D03*
D15*
X190500Y450850D01*
X209550Y469900D01*
X209550Y520700D01*
X234950Y546100D01*
D14*
X325120Y439400D03*
D16*
X323820Y285720D02*
X301825Y263725D01*
X85925Y263725D01*
X69850Y247650D01*
X69850Y25400D01*
D14*
X325120Y430510D03*
X325120Y421620D03*
X325120Y412730D03*
X325120Y403840D03*
D16*
X325120Y285720D02*
X323820Y285720D01*
X325120Y285720D02*
X325120Y439400D01*
X107950Y38100D02*
X95250Y25400D01*
X107950Y38100D02*
X127000Y38100D01*
D14*
X161290Y86360D03*
X170180Y86360D03*
X180340Y86360D03*
X161290Y68580D03*
X168910Y68580D03*
X168910Y77470D03*
X161290Y77470D03*
D16*
X161290Y68580D02*
X157480Y68580D01*
X127000Y38100D01*
D14*
X69850Y368300D03*
D15*
X101600Y400050D01*
X133350Y400050D01*
D14*
X133350Y400050D03*
X76200Y406400D03*
D15*
X82550Y412750D01*
X133350Y412750D01*
D14*
X133350Y412750D03*
X171450Y361950D03*
D15*
X260350Y361950D01*
D14*
X260350Y361950D03*
M02*
