M48
;GenerationSoftware,Autodesk,EAGLE,9.4.1*%
;CreationDate,2019-07-30T02:31:04Z*%
FMAT,2
ICI,OFF
METRIC,TZ,000.000
T4C0.300
T3C0.450
T2C1.000
%
G90
M71
T2
X9525Y2540
X20955Y54610
X18415Y54610
X15875Y54610
X23495Y54610
X26035Y54610
X28575Y54610
X1905Y38100
X1905Y40640
X1905Y35560
X4445Y2540
X1905Y2540
X6985Y2540
T3
X17780Y4445
X17780Y1905
X19050Y4445
X20320Y4445
X21590Y4445
X22860Y4445
X25400Y1905
X25400Y3175
X15240Y3175
X15240Y1905
X16510Y3175
X24130Y3175
X24130Y1905
X16510Y1905
X22098Y46101
X16510Y4445
X15240Y4445
X20320Y6096
X20320Y8890
X27178Y4699
X13335Y50292
X13335Y49403
X13335Y48514
X13335Y47498
X8763Y49276
X9779Y49276
X7620Y50292
X28702Y43815
X14224Y24638
X15113Y9906
X20320Y3175
X28575Y24130
X28956Y23114
X28956Y22098
X18034Y19050
X19177Y20193
X18034Y20193
X22606Y15240
X24257Y14478
X23241Y14478
X14224Y10795
X15113Y10795
X14224Y9906
X22860Y1905
X24892Y11938
X25273Y10287
X24892Y11049
X39751Y35179
X39751Y34163
X39751Y33147
X39878Y27813
X38481Y26543
X19050Y3175
X5461Y43688
X21590Y3175
X17780Y3175
X22860Y3175
X32512Y40384
X36830Y47625
X36830Y46355
X36830Y45085
X35560Y48895
X35560Y47625
X35560Y46355
X35560Y45085
X8763Y50292
X13335Y42545
X17145Y45085
X32512Y43940
X32512Y43051
X32512Y42162
X32512Y41273
X36830Y48895
X16129Y8636
X17018Y8636
X18034Y8636
X16129Y6858
X16891Y6858
X16891Y7747
X16129Y7747
X6985Y36830
X13335Y40005
X7620Y40640
X13335Y41275
X17145Y36195
X26035Y36195
X30353Y46355
X21463Y32004
X21082Y32893
X21082Y34925
X21082Y33909
X27940Y33401
X27686Y28575
X26797Y28575
X28448Y27686
X29337Y27686
X28448Y47371
X29210Y48260
X30226Y48260
X29337Y46355
X22352Y32004
X31369Y47879
X31369Y46990
X33782Y48006
X33782Y47117
X39370Y45085
X38100Y45085
X39751Y46355
X39751Y47625
X39751Y48895
X39370Y50165
X38100Y50165
X36830Y50165
X35560Y50165
X19177Y15494
X11684Y25146
X10668Y24003
X10414Y22225
X18161Y22225
X16891Y23622
X26035Y25273
X24892Y24003
X15240Y24638
X20447Y20193
X21463Y19685
X21463Y18796
X22733Y19050
X23368Y19939
X24257Y19939
X18034Y15240
X29718Y41402
X19177Y14605
X16256Y14478
X17145Y14478
X10541Y11938
X10541Y10795
X10541Y9779
X18034Y11938
X16891Y10922
X28829Y12065
X28829Y11049
X28702Y10160
X26162Y31369
X32004Y51054
X32893Y51054
X33655Y50419
X26035Y45085
X3810Y44323
X18288Y47244
X17526Y46355
X17018Y50292
X17018Y48514
X17018Y49403
X17018Y47625
X8890Y45720
X9779Y45720
X4699Y43688
X19304Y47244
X26035Y42545
X26035Y41275
X26035Y40005
X26035Y38735
X24765Y22225
X24638Y35052
X24638Y34290
X24638Y33528
X24638Y32766
X26543Y33401
X25654Y33401
X27686Y32385
X26797Y32385
X12954Y28575
X13843Y28575
X10160Y28575
X11557Y27686
X30353Y32385
X29083Y33147
X28829Y41402
X39370Y43180
X13081Y6985
X11938Y5969
X11938Y9017
X1270Y26670
X1270Y29210
X1270Y46990
X1270Y49530
X1270Y52070
X1270Y55245
X3810Y55245
X6350Y55245
X8890Y55245
X12065Y55245
X30480Y55245
X33020Y55245
X31369Y50419
X39370Y40640
X39370Y38100
X39370Y5080
X39370Y2540
X38100Y1270
X31750Y1270
X3810Y45466
X15113Y30480
X15113Y28575
X12954Y32385
X13843Y32385
X12192Y33274
X11303Y33274
X14224Y23622
X15240Y23622
X10795Y7112
X33655Y49657
X31369Y49657
X30226Y49530
X29337Y49530
X29337Y51562
X30353Y51562
X28321Y50419
X37084Y43815
X36195Y43180
X36195Y42291
X37211Y41148
X38227Y43307
X38227Y42291
X35687Y26543
X35560Y35306
X35560Y34290
X13081Y8001
X10795Y8128
X23876Y6731
X23876Y7747
X27051Y7112
X27051Y8128
X27051Y9017
X25908Y9017
X24892Y9017
X23876Y8763
X22860Y8763
X21844Y8763
X35687Y27559
X36830Y26543
T4
X1143Y9144
X1143Y12446
X3683Y12446
X3683Y9144
X1143Y6858
X3683Y6858
X1143Y14732
X3683Y14732
X2413Y14732
X2413Y6858
X2413Y9144
X2413Y12446
X38227Y9144
X38227Y12446
X38227Y14732
X38227Y6858
X36957Y6858
X39497Y6858
X36957Y14732
X39497Y14732
X36957Y12446
X36957Y9144
X39497Y12446
X39497Y9144
X1143Y22606
X39497Y22606
X36957Y19304
X36957Y22606
X39497Y24892
X36957Y24892
X39497Y17018
X36957Y17018
X38227Y17018
X38227Y24892
X38227Y22606
X38227Y19304
X39497Y19304
X1143Y19304
X3683Y22606
X3683Y19304
X1143Y17018
X3683Y17018
X1143Y24892
X3683Y24892
X2413Y24892
X2413Y17018
X2413Y19304
X2413Y22606
M30