M48
;GenerationSoftware,Autodesk,EAGLE,9.4.1*%
;CreationDate,2019-06-19T16:31:08Z*%
FMAT,2
ICI,OFF
METRIC,TZ,000.000
T4C0.300
T3C0.350
T2C1.000
%
G90
M71
T2
X16510Y27940
X19050Y27940
X8255Y27940
X5715Y27940
T3
X10160Y8763
X13843Y21209
X8255Y19812
X15748Y16383
X16510Y16383
X15748Y10033
X16510Y10033
X17145Y11303
X17145Y15875
X17145Y15113
X17145Y10541
X12446Y22098
X13208Y22098
X4445Y24130
X11049Y16764
X10160Y17653
X9271Y16764
X5715Y17526
X4826Y16637
X6731Y16637
X8890Y5207
X4826Y6604
X9144Y9652
X5461Y22733
X6350Y23368
X6350Y24130
X6350Y24892
X16129Y3937
X10795Y14351
X5080Y4699
X9525Y23368
X9525Y24130
X9525Y24892
X7620Y23368
X7620Y24130
X7620Y24892
X8509Y22733
X8509Y25527
X7493Y26797
X9398Y26797
X9398Y29083
X7493Y29083
X11811Y21209
X10160Y14351
X6604Y15367
X9398Y14605
X6604Y14605
X6604Y11557
X10414Y12065
X9144Y10922
X9398Y11811
X11684Y4699
X11811Y5588
X13208Y4699
X12446Y4699
X15240Y2540
X7620Y16256
X7620Y15494
X11811Y6731
X11811Y7493
X11811Y8255
X11811Y9017
X11938Y17907
X11938Y19431
X11938Y18669
X11938Y20193
X17145Y3302
X17145Y1778
X17145Y2540
X15240Y1778
X4445Y24892
X15240Y3302
X16129Y1143
X15240Y23368
X15240Y24130
X15240Y24892
X17145Y23368
X17145Y24130
X17145Y24892
X16256Y22733
X16256Y25527
X17399Y26797
X17399Y29083
X15367Y29083
X15367Y26797
X8890Y16256
X5715Y14097
X4445Y23368
X5334Y25527
X4572Y26797
X6477Y26797
X6477Y29083
X4572Y29083
X20193Y1778
X20193Y2540
X20193Y3302
X18415Y1778
X18415Y2540
X18415Y3302
X19304Y1270
X18161Y26797
X19304Y3810
X8890Y15494
X20193Y29083
X19304Y25527
X20320Y24130
X20320Y23368
X18415Y23368
X18415Y24130
X20320Y24892
X20193Y26797
X19304Y22733
X18415Y24892
X18161Y29083
T4
X24257Y17018
X21717Y17018
X22987Y17018
X22987Y24892
X22987Y22606
X22987Y19304
X1016Y15113
X1016Y11811
X3556Y15113
X3556Y11811
X1016Y9525
X3556Y9525
X1016Y17399
X3556Y17399
X2286Y17399
X2286Y9525
X2286Y11811
X2286Y15113
X22987Y1778
X24257Y4064
X24257Y7366
X21717Y4064
X21717Y7366
X24257Y9652
X21717Y9652
X24257Y1778
X21717Y1778
X21717Y24892
X22987Y9652
X22987Y7366
X22987Y4064
X24257Y19304
X24257Y22606
X21717Y19304
X21717Y22606
X24257Y24892
M30