G04 EAGLE Gerber RS-274X export*
G75*
%MOMM*%
%FSLAX34Y34*%
%LPD*%
%INSilk screen SOL*%
%IPPOS*%
%AMOC8*
5,1,8,0,0,1.08239X$1,22.5*%
G01*
%ADD10C,0.101600*%


D10*
X196342Y199898D02*
X191939Y213106D01*
X187537Y199898D01*
X188637Y203200D02*
X195241Y203200D01*
X182380Y199898D02*
X182380Y213106D01*
X178711Y213106D01*
X178591Y213104D01*
X178471Y213098D01*
X178351Y213088D01*
X178232Y213075D01*
X178113Y213057D01*
X177995Y213036D01*
X177878Y213010D01*
X177761Y212981D01*
X177646Y212948D01*
X177532Y212911D01*
X177419Y212871D01*
X177307Y212827D01*
X177197Y212779D01*
X177088Y212728D01*
X176981Y212673D01*
X176877Y212614D01*
X176774Y212553D01*
X176673Y212488D01*
X176574Y212419D01*
X176477Y212348D01*
X176383Y212273D01*
X176292Y212196D01*
X176203Y212115D01*
X176117Y212031D01*
X176033Y211945D01*
X175952Y211856D01*
X175875Y211765D01*
X175800Y211671D01*
X175729Y211574D01*
X175660Y211475D01*
X175595Y211374D01*
X175534Y211272D01*
X175475Y211167D01*
X175420Y211060D01*
X175369Y210951D01*
X175321Y210841D01*
X175277Y210729D01*
X175237Y210616D01*
X175200Y210502D01*
X175167Y210387D01*
X175138Y210270D01*
X175112Y210153D01*
X175091Y210035D01*
X175073Y209916D01*
X175060Y209797D01*
X175050Y209677D01*
X175044Y209557D01*
X175042Y209437D01*
X175042Y203567D01*
X175044Y203447D01*
X175050Y203327D01*
X175060Y203207D01*
X175073Y203088D01*
X175091Y202969D01*
X175112Y202851D01*
X175138Y202734D01*
X175167Y202617D01*
X175200Y202502D01*
X175237Y202388D01*
X175277Y202275D01*
X175321Y202163D01*
X175369Y202053D01*
X175420Y201944D01*
X175475Y201837D01*
X175534Y201733D01*
X175595Y201630D01*
X175660Y201529D01*
X175729Y201430D01*
X175800Y201333D01*
X175875Y201239D01*
X175952Y201148D01*
X176033Y201059D01*
X176117Y200973D01*
X176203Y200889D01*
X176292Y200808D01*
X176383Y200731D01*
X176477Y200656D01*
X176574Y200585D01*
X176673Y200516D01*
X176774Y200451D01*
X176877Y200390D01*
X176981Y200331D01*
X177088Y200276D01*
X177197Y200225D01*
X177307Y200177D01*
X177419Y200133D01*
X177532Y200093D01*
X177646Y200056D01*
X177761Y200023D01*
X177878Y199994D01*
X177995Y199968D01*
X178113Y199947D01*
X178232Y199929D01*
X178351Y199916D01*
X178471Y199906D01*
X178591Y199900D01*
X178711Y199898D01*
X182380Y199898D01*
X166252Y199898D02*
X163317Y199898D01*
X166252Y199898D02*
X166359Y199900D01*
X166466Y199906D01*
X166573Y199916D01*
X166679Y199929D01*
X166785Y199947D01*
X166890Y199968D01*
X166994Y199993D01*
X167098Y200022D01*
X167200Y200055D01*
X167300Y200092D01*
X167400Y200132D01*
X167498Y200176D01*
X167594Y200223D01*
X167688Y200274D01*
X167781Y200328D01*
X167871Y200385D01*
X167960Y200446D01*
X168046Y200510D01*
X168129Y200577D01*
X168211Y200647D01*
X168289Y200720D01*
X168365Y200796D01*
X168438Y200874D01*
X168508Y200956D01*
X168575Y201039D01*
X168639Y201125D01*
X168700Y201214D01*
X168757Y201304D01*
X168811Y201397D01*
X168862Y201491D01*
X168910Y201587D01*
X168953Y201685D01*
X168993Y201785D01*
X169030Y201885D01*
X169063Y201987D01*
X169092Y202091D01*
X169117Y202195D01*
X169138Y202300D01*
X169156Y202406D01*
X169169Y202512D01*
X169179Y202619D01*
X169185Y202726D01*
X169187Y202833D01*
X169187Y210171D01*
X169185Y210278D01*
X169179Y210385D01*
X169169Y210492D01*
X169156Y210598D01*
X169138Y210704D01*
X169117Y210809D01*
X169092Y210913D01*
X169063Y211017D01*
X169030Y211119D01*
X168993Y211219D01*
X168953Y211319D01*
X168909Y211417D01*
X168862Y211513D01*
X168811Y211607D01*
X168757Y211700D01*
X168700Y211790D01*
X168639Y211879D01*
X168575Y211965D01*
X168508Y212048D01*
X168438Y212130D01*
X168365Y212208D01*
X168289Y212284D01*
X168211Y212357D01*
X168129Y212427D01*
X168046Y212494D01*
X167960Y212558D01*
X167871Y212619D01*
X167781Y212676D01*
X167688Y212730D01*
X167594Y212781D01*
X167498Y212828D01*
X167400Y212872D01*
X167301Y212912D01*
X167200Y212949D01*
X167098Y212982D01*
X166994Y213011D01*
X166890Y213036D01*
X166785Y213057D01*
X166679Y213075D01*
X166573Y213088D01*
X166466Y213098D01*
X166359Y213104D01*
X166252Y213106D01*
X163317Y213106D01*
X157937Y213106D02*
X157937Y199898D01*
X153535Y205768D02*
X157937Y213106D01*
X153535Y205768D02*
X149132Y213106D01*
X149132Y199898D01*
X142516Y199898D02*
X142516Y213106D01*
X138847Y213106D01*
X138727Y213104D01*
X138607Y213098D01*
X138487Y213088D01*
X138368Y213075D01*
X138249Y213057D01*
X138131Y213036D01*
X138014Y213010D01*
X137897Y212981D01*
X137782Y212948D01*
X137668Y212911D01*
X137555Y212871D01*
X137443Y212827D01*
X137333Y212779D01*
X137224Y212728D01*
X137117Y212673D01*
X137013Y212614D01*
X136910Y212553D01*
X136809Y212488D01*
X136710Y212419D01*
X136613Y212348D01*
X136519Y212273D01*
X136428Y212196D01*
X136339Y212115D01*
X136253Y212031D01*
X136169Y211945D01*
X136088Y211856D01*
X136011Y211765D01*
X135936Y211671D01*
X135865Y211574D01*
X135796Y211475D01*
X135731Y211374D01*
X135670Y211272D01*
X135611Y211167D01*
X135556Y211060D01*
X135505Y210951D01*
X135457Y210841D01*
X135413Y210729D01*
X135373Y210616D01*
X135336Y210502D01*
X135303Y210387D01*
X135274Y210270D01*
X135248Y210153D01*
X135227Y210035D01*
X135209Y209916D01*
X135196Y209797D01*
X135186Y209677D01*
X135180Y209557D01*
X135178Y209437D01*
X135180Y209317D01*
X135186Y209197D01*
X135196Y209077D01*
X135209Y208958D01*
X135227Y208839D01*
X135248Y208721D01*
X135274Y208604D01*
X135303Y208487D01*
X135336Y208372D01*
X135373Y208258D01*
X135413Y208145D01*
X135457Y208033D01*
X135505Y207923D01*
X135556Y207814D01*
X135611Y207707D01*
X135670Y207602D01*
X135731Y207500D01*
X135796Y207399D01*
X135865Y207300D01*
X135936Y207203D01*
X136011Y207109D01*
X136088Y207018D01*
X136169Y206929D01*
X136253Y206843D01*
X136339Y206759D01*
X136428Y206678D01*
X136519Y206601D01*
X136613Y206526D01*
X136710Y206455D01*
X136809Y206386D01*
X136910Y206321D01*
X137013Y206260D01*
X137117Y206201D01*
X137224Y206146D01*
X137333Y206095D01*
X137443Y206047D01*
X137555Y206003D01*
X137668Y205963D01*
X137782Y205926D01*
X137897Y205893D01*
X138014Y205864D01*
X138131Y205838D01*
X138249Y205817D01*
X138368Y205799D01*
X138487Y205786D01*
X138607Y205776D01*
X138727Y205770D01*
X138847Y205768D01*
X142516Y205768D01*
X130320Y199898D02*
X125918Y199898D01*
X125811Y199900D01*
X125704Y199906D01*
X125597Y199916D01*
X125491Y199929D01*
X125385Y199947D01*
X125280Y199968D01*
X125176Y199993D01*
X125072Y200022D01*
X124970Y200055D01*
X124870Y200092D01*
X124770Y200132D01*
X124672Y200176D01*
X124576Y200223D01*
X124482Y200274D01*
X124389Y200328D01*
X124299Y200385D01*
X124210Y200446D01*
X124124Y200510D01*
X124041Y200577D01*
X123959Y200647D01*
X123881Y200720D01*
X123805Y200796D01*
X123732Y200874D01*
X123662Y200956D01*
X123595Y201039D01*
X123531Y201125D01*
X123470Y201214D01*
X123413Y201304D01*
X123359Y201397D01*
X123308Y201491D01*
X123261Y201587D01*
X123217Y201685D01*
X123177Y201785D01*
X123140Y201885D01*
X123107Y201987D01*
X123078Y202091D01*
X123053Y202195D01*
X123032Y202300D01*
X123014Y202406D01*
X123001Y202512D01*
X122991Y202619D01*
X122985Y202726D01*
X122983Y202833D01*
X122982Y202833D02*
X122982Y204301D01*
X122983Y204301D02*
X122985Y204408D01*
X122991Y204515D01*
X123001Y204622D01*
X123014Y204728D01*
X123032Y204834D01*
X123053Y204939D01*
X123078Y205043D01*
X123107Y205147D01*
X123140Y205249D01*
X123177Y205349D01*
X123217Y205449D01*
X123261Y205547D01*
X123308Y205643D01*
X123359Y205737D01*
X123413Y205830D01*
X123470Y205920D01*
X123531Y206009D01*
X123595Y206095D01*
X123662Y206178D01*
X123732Y206260D01*
X123805Y206338D01*
X123881Y206414D01*
X123959Y206487D01*
X124041Y206557D01*
X124124Y206624D01*
X124210Y206688D01*
X124299Y206749D01*
X124389Y206806D01*
X124482Y206860D01*
X124576Y206911D01*
X124672Y206959D01*
X124770Y207002D01*
X124870Y207042D01*
X124970Y207079D01*
X125072Y207112D01*
X125176Y207141D01*
X125280Y207166D01*
X125385Y207187D01*
X125491Y207205D01*
X125597Y207218D01*
X125704Y207228D01*
X125811Y207234D01*
X125918Y207236D01*
X130320Y207236D01*
X130320Y213106D01*
X122982Y213106D01*
X117519Y213106D02*
X117519Y211638D01*
X117519Y213106D02*
X110181Y213106D01*
X113850Y199898D01*
X100681Y213106D02*
X100568Y213104D01*
X100456Y213098D01*
X100343Y213089D01*
X100231Y213075D01*
X100120Y213058D01*
X100009Y213037D01*
X99899Y213012D01*
X99790Y212984D01*
X99682Y212951D01*
X99575Y212915D01*
X99470Y212876D01*
X99365Y212833D01*
X99263Y212786D01*
X99162Y212736D01*
X99063Y212682D01*
X98965Y212625D01*
X98870Y212565D01*
X98777Y212502D01*
X98686Y212435D01*
X98597Y212365D01*
X98511Y212293D01*
X98427Y212217D01*
X98346Y212139D01*
X98268Y212058D01*
X98192Y211974D01*
X98120Y211888D01*
X98050Y211799D01*
X97983Y211708D01*
X97920Y211615D01*
X97860Y211520D01*
X97803Y211422D01*
X97749Y211323D01*
X97699Y211222D01*
X97652Y211120D01*
X97609Y211015D01*
X97570Y210910D01*
X97534Y210803D01*
X97501Y210695D01*
X97473Y210586D01*
X97448Y210476D01*
X97427Y210365D01*
X97410Y210254D01*
X97396Y210142D01*
X97387Y210029D01*
X97381Y209917D01*
X97379Y209804D01*
X100681Y213106D02*
X100808Y213104D01*
X100935Y213098D01*
X101062Y213089D01*
X101188Y213076D01*
X101314Y213059D01*
X101439Y213038D01*
X101564Y213013D01*
X101687Y212985D01*
X101810Y212953D01*
X101932Y212917D01*
X102053Y212878D01*
X102173Y212835D01*
X102291Y212789D01*
X102408Y212739D01*
X102523Y212685D01*
X102636Y212628D01*
X102748Y212568D01*
X102858Y212505D01*
X102966Y212438D01*
X103072Y212368D01*
X103176Y212295D01*
X103278Y212218D01*
X103377Y212139D01*
X103474Y212057D01*
X103568Y211972D01*
X103660Y211884D01*
X103749Y211794D01*
X103835Y211700D01*
X103919Y211605D01*
X103999Y211507D01*
X104077Y211406D01*
X104152Y211303D01*
X104223Y211198D01*
X104291Y211091D01*
X104356Y210982D01*
X104418Y210871D01*
X104477Y210758D01*
X104532Y210644D01*
X104583Y210528D01*
X104631Y210410D01*
X104676Y210291D01*
X104717Y210171D01*
X98480Y207236D02*
X98398Y207316D01*
X98319Y207399D01*
X98242Y207485D01*
X98168Y207573D01*
X98098Y207664D01*
X98030Y207756D01*
X97965Y207851D01*
X97903Y207948D01*
X97845Y208047D01*
X97789Y208148D01*
X97737Y208250D01*
X97689Y208354D01*
X97644Y208460D01*
X97602Y208567D01*
X97563Y208675D01*
X97529Y208785D01*
X97497Y208895D01*
X97470Y209007D01*
X97446Y209119D01*
X97425Y209232D01*
X97409Y209346D01*
X97396Y209460D01*
X97386Y209574D01*
X97381Y209689D01*
X97379Y209804D01*
X98480Y207236D02*
X104717Y199898D01*
X97379Y199898D01*
X196342Y190387D02*
X196342Y184517D01*
X196342Y190387D02*
X196340Y190507D01*
X196334Y190627D01*
X196324Y190747D01*
X196311Y190866D01*
X196293Y190985D01*
X196272Y191103D01*
X196246Y191220D01*
X196217Y191337D01*
X196184Y191452D01*
X196147Y191566D01*
X196107Y191679D01*
X196063Y191791D01*
X196015Y191901D01*
X195964Y192010D01*
X195909Y192117D01*
X195850Y192222D01*
X195789Y192324D01*
X195724Y192425D01*
X195655Y192524D01*
X195584Y192621D01*
X195509Y192715D01*
X195432Y192806D01*
X195351Y192895D01*
X195267Y192981D01*
X195181Y193065D01*
X195092Y193146D01*
X195001Y193223D01*
X194907Y193298D01*
X194810Y193369D01*
X194711Y193438D01*
X194610Y193503D01*
X194508Y193564D01*
X194403Y193623D01*
X194296Y193678D01*
X194187Y193729D01*
X194077Y193777D01*
X193965Y193821D01*
X193852Y193861D01*
X193738Y193898D01*
X193623Y193931D01*
X193506Y193960D01*
X193389Y193986D01*
X193271Y194007D01*
X193152Y194025D01*
X193033Y194038D01*
X192913Y194048D01*
X192793Y194054D01*
X192673Y194056D01*
X192553Y194054D01*
X192433Y194048D01*
X192313Y194038D01*
X192194Y194025D01*
X192075Y194007D01*
X191957Y193986D01*
X191840Y193960D01*
X191723Y193931D01*
X191608Y193898D01*
X191494Y193861D01*
X191381Y193821D01*
X191269Y193777D01*
X191159Y193729D01*
X191050Y193678D01*
X190943Y193623D01*
X190839Y193564D01*
X190736Y193503D01*
X190635Y193438D01*
X190536Y193369D01*
X190439Y193298D01*
X190345Y193223D01*
X190254Y193146D01*
X190165Y193065D01*
X190079Y192981D01*
X189995Y192895D01*
X189914Y192806D01*
X189837Y192715D01*
X189762Y192621D01*
X189691Y192524D01*
X189622Y192425D01*
X189557Y192324D01*
X189496Y192222D01*
X189437Y192117D01*
X189382Y192010D01*
X189331Y191901D01*
X189283Y191791D01*
X189239Y191679D01*
X189199Y191566D01*
X189162Y191452D01*
X189129Y191337D01*
X189100Y191220D01*
X189074Y191103D01*
X189053Y190985D01*
X189035Y190866D01*
X189022Y190747D01*
X189012Y190627D01*
X189006Y190507D01*
X189004Y190387D01*
X189004Y184517D01*
X189006Y184397D01*
X189012Y184277D01*
X189022Y184157D01*
X189035Y184038D01*
X189053Y183919D01*
X189074Y183801D01*
X189100Y183684D01*
X189129Y183567D01*
X189162Y183452D01*
X189199Y183338D01*
X189239Y183225D01*
X189283Y183113D01*
X189331Y183003D01*
X189382Y182894D01*
X189437Y182787D01*
X189496Y182683D01*
X189557Y182580D01*
X189622Y182479D01*
X189691Y182380D01*
X189762Y182283D01*
X189837Y182189D01*
X189914Y182098D01*
X189995Y182009D01*
X190079Y181923D01*
X190165Y181839D01*
X190254Y181758D01*
X190345Y181681D01*
X190439Y181606D01*
X190536Y181535D01*
X190635Y181466D01*
X190736Y181401D01*
X190839Y181340D01*
X190943Y181281D01*
X191050Y181226D01*
X191159Y181175D01*
X191269Y181127D01*
X191381Y181083D01*
X191494Y181043D01*
X191608Y181006D01*
X191723Y180973D01*
X191840Y180944D01*
X191957Y180918D01*
X192075Y180897D01*
X192194Y180879D01*
X192313Y180866D01*
X192433Y180856D01*
X192553Y180850D01*
X192673Y180848D01*
X192793Y180850D01*
X192913Y180856D01*
X193033Y180866D01*
X193152Y180879D01*
X193271Y180897D01*
X193389Y180918D01*
X193506Y180944D01*
X193623Y180973D01*
X193738Y181006D01*
X193852Y181043D01*
X193965Y181083D01*
X194077Y181127D01*
X194187Y181175D01*
X194296Y181226D01*
X194403Y181281D01*
X194508Y181340D01*
X194610Y181401D01*
X194711Y181466D01*
X194810Y181535D01*
X194907Y181606D01*
X195001Y181681D01*
X195092Y181758D01*
X195181Y181839D01*
X195267Y181923D01*
X195351Y182009D01*
X195432Y182098D01*
X195509Y182189D01*
X195584Y182283D01*
X195655Y182380D01*
X195724Y182479D01*
X195789Y182580D01*
X195850Y182683D01*
X195909Y182787D01*
X195964Y182894D01*
X196015Y183003D01*
X196063Y183113D01*
X196107Y183225D01*
X196147Y183338D01*
X196184Y183452D01*
X196217Y183567D01*
X196246Y183684D01*
X196272Y183801D01*
X196293Y183919D01*
X196311Y184038D01*
X196324Y184157D01*
X196334Y184277D01*
X196340Y184397D01*
X196342Y184517D01*
X183233Y183049D02*
X183233Y189653D01*
X183233Y183049D02*
X183231Y182958D01*
X183225Y182867D01*
X183216Y182777D01*
X183203Y182687D01*
X183186Y182597D01*
X183166Y182509D01*
X183141Y182421D01*
X183114Y182334D01*
X183082Y182249D01*
X183048Y182165D01*
X183009Y182082D01*
X182968Y182001D01*
X182923Y181922D01*
X182875Y181845D01*
X182823Y181770D01*
X182769Y181697D01*
X182712Y181626D01*
X182651Y181558D01*
X182588Y181493D01*
X182523Y181430D01*
X182455Y181369D01*
X182384Y181312D01*
X182311Y181258D01*
X182236Y181206D01*
X182159Y181158D01*
X182080Y181113D01*
X181999Y181072D01*
X181916Y181033D01*
X181832Y180999D01*
X181747Y180967D01*
X181660Y180940D01*
X181572Y180915D01*
X181484Y180895D01*
X181394Y180878D01*
X181304Y180865D01*
X181214Y180856D01*
X181123Y180850D01*
X181032Y180848D01*
X177363Y180848D01*
X177363Y189653D01*
X172783Y189653D02*
X168380Y189653D01*
X171315Y194056D02*
X171315Y183049D01*
X171313Y182958D01*
X171307Y182867D01*
X171298Y182777D01*
X171285Y182687D01*
X171268Y182597D01*
X171248Y182509D01*
X171223Y182421D01*
X171196Y182334D01*
X171164Y182249D01*
X171130Y182165D01*
X171091Y182082D01*
X171050Y182001D01*
X171005Y181922D01*
X170957Y181845D01*
X170905Y181770D01*
X170851Y181697D01*
X170794Y181626D01*
X170733Y181558D01*
X170670Y181493D01*
X170605Y181430D01*
X170537Y181369D01*
X170466Y181312D01*
X170393Y181258D01*
X170318Y181206D01*
X170241Y181158D01*
X170162Y181113D01*
X170081Y181072D01*
X169998Y181033D01*
X169914Y180999D01*
X169829Y180967D01*
X169742Y180940D01*
X169654Y180915D01*
X169566Y180895D01*
X169476Y180878D01*
X169386Y180865D01*
X169296Y180856D01*
X169205Y180850D01*
X169114Y180848D01*
X168380Y180848D01*
X163115Y176445D02*
X163115Y189653D01*
X159446Y189653D01*
X159353Y189651D01*
X159259Y189645D01*
X159166Y189635D01*
X159074Y189621D01*
X158982Y189604D01*
X158891Y189582D01*
X158802Y189557D01*
X158713Y189527D01*
X158625Y189494D01*
X158539Y189458D01*
X158455Y189417D01*
X158373Y189374D01*
X158292Y189326D01*
X158214Y189276D01*
X158137Y189222D01*
X158063Y189164D01*
X157992Y189104D01*
X157923Y189041D01*
X157857Y188975D01*
X157794Y188906D01*
X157734Y188835D01*
X157676Y188761D01*
X157622Y188685D01*
X157572Y188606D01*
X157525Y188525D01*
X157481Y188443D01*
X157440Y188359D01*
X157404Y188273D01*
X157371Y188185D01*
X157341Y188097D01*
X157316Y188007D01*
X157294Y187916D01*
X157277Y187824D01*
X157263Y187732D01*
X157253Y187639D01*
X157247Y187545D01*
X157245Y187452D01*
X157245Y183049D01*
X157247Y182958D01*
X157253Y182867D01*
X157262Y182777D01*
X157275Y182687D01*
X157292Y182597D01*
X157312Y182509D01*
X157337Y182421D01*
X157364Y182334D01*
X157396Y182249D01*
X157430Y182165D01*
X157469Y182082D01*
X157510Y182001D01*
X157555Y181922D01*
X157603Y181845D01*
X157655Y181770D01*
X157709Y181697D01*
X157766Y181626D01*
X157827Y181558D01*
X157890Y181493D01*
X157955Y181430D01*
X158024Y181369D01*
X158094Y181312D01*
X158167Y181258D01*
X158242Y181206D01*
X158319Y181158D01*
X158398Y181113D01*
X158479Y181072D01*
X158562Y181033D01*
X158646Y180999D01*
X158731Y180967D01*
X158818Y180939D01*
X158906Y180915D01*
X158994Y180895D01*
X159084Y180878D01*
X159174Y180865D01*
X159264Y180856D01*
X159355Y180850D01*
X159446Y180848D01*
X163115Y180848D01*
X151656Y183049D02*
X151656Y189653D01*
X151656Y183049D02*
X151654Y182958D01*
X151648Y182867D01*
X151639Y182777D01*
X151626Y182687D01*
X151609Y182597D01*
X151589Y182509D01*
X151564Y182421D01*
X151537Y182334D01*
X151505Y182249D01*
X151471Y182165D01*
X151432Y182082D01*
X151391Y182001D01*
X151346Y181922D01*
X151298Y181845D01*
X151246Y181770D01*
X151192Y181697D01*
X151135Y181626D01*
X151074Y181558D01*
X151011Y181493D01*
X150946Y181430D01*
X150878Y181369D01*
X150807Y181312D01*
X150734Y181258D01*
X150659Y181206D01*
X150582Y181158D01*
X150503Y181113D01*
X150422Y181072D01*
X150339Y181033D01*
X150255Y180999D01*
X150170Y180967D01*
X150083Y180940D01*
X149995Y180915D01*
X149907Y180895D01*
X149817Y180878D01*
X149727Y180865D01*
X149637Y180856D01*
X149546Y180850D01*
X149455Y180848D01*
X145786Y180848D01*
X145786Y189653D01*
X141206Y189653D02*
X136803Y189653D01*
X139738Y194056D02*
X139738Y183049D01*
X139736Y182958D01*
X139730Y182867D01*
X139721Y182777D01*
X139708Y182687D01*
X139691Y182597D01*
X139671Y182509D01*
X139646Y182421D01*
X139619Y182334D01*
X139587Y182249D01*
X139553Y182165D01*
X139514Y182082D01*
X139473Y182001D01*
X139428Y181922D01*
X139380Y181845D01*
X139328Y181770D01*
X139274Y181697D01*
X139217Y181626D01*
X139156Y181558D01*
X139093Y181493D01*
X139028Y181430D01*
X138960Y181369D01*
X138889Y181312D01*
X138816Y181258D01*
X138741Y181206D01*
X138664Y181158D01*
X138585Y181113D01*
X138504Y181072D01*
X138421Y181033D01*
X138337Y180999D01*
X138252Y180967D01*
X138165Y180940D01*
X138077Y180915D01*
X137989Y180895D01*
X137899Y180878D01*
X137809Y180865D01*
X137719Y180856D01*
X137628Y180850D01*
X137537Y180848D01*
X136803Y180848D01*
X124474Y188186D02*
X120805Y188186D01*
X120685Y188184D01*
X120565Y188178D01*
X120445Y188168D01*
X120326Y188155D01*
X120207Y188137D01*
X120089Y188116D01*
X119972Y188090D01*
X119855Y188061D01*
X119740Y188028D01*
X119626Y187991D01*
X119513Y187951D01*
X119401Y187907D01*
X119291Y187859D01*
X119182Y187808D01*
X119075Y187753D01*
X118971Y187694D01*
X118868Y187633D01*
X118767Y187568D01*
X118668Y187499D01*
X118571Y187428D01*
X118477Y187353D01*
X118386Y187276D01*
X118297Y187195D01*
X118211Y187111D01*
X118127Y187025D01*
X118046Y186936D01*
X117969Y186845D01*
X117894Y186751D01*
X117823Y186654D01*
X117754Y186555D01*
X117689Y186454D01*
X117628Y186352D01*
X117569Y186247D01*
X117514Y186140D01*
X117463Y186031D01*
X117415Y185921D01*
X117371Y185809D01*
X117331Y185696D01*
X117294Y185582D01*
X117261Y185467D01*
X117232Y185350D01*
X117206Y185233D01*
X117185Y185115D01*
X117167Y184996D01*
X117154Y184877D01*
X117144Y184757D01*
X117138Y184637D01*
X117136Y184517D01*
X117138Y184397D01*
X117144Y184277D01*
X117154Y184157D01*
X117167Y184038D01*
X117185Y183919D01*
X117206Y183801D01*
X117232Y183684D01*
X117261Y183567D01*
X117294Y183452D01*
X117331Y183338D01*
X117371Y183225D01*
X117415Y183113D01*
X117463Y183003D01*
X117514Y182894D01*
X117569Y182787D01*
X117628Y182682D01*
X117689Y182580D01*
X117754Y182479D01*
X117823Y182380D01*
X117894Y182283D01*
X117969Y182189D01*
X118046Y182098D01*
X118127Y182009D01*
X118211Y181923D01*
X118297Y181839D01*
X118386Y181758D01*
X118477Y181681D01*
X118571Y181606D01*
X118668Y181535D01*
X118767Y181466D01*
X118868Y181401D01*
X118971Y181340D01*
X119075Y181281D01*
X119182Y181226D01*
X119291Y181175D01*
X119401Y181127D01*
X119513Y181083D01*
X119626Y181043D01*
X119740Y181006D01*
X119855Y180973D01*
X119972Y180944D01*
X120089Y180918D01*
X120207Y180897D01*
X120326Y180879D01*
X120445Y180866D01*
X120565Y180856D01*
X120685Y180850D01*
X120805Y180848D01*
X124474Y180848D01*
X124474Y194056D01*
X120805Y194056D01*
X120698Y194054D01*
X120591Y194048D01*
X120484Y194038D01*
X120378Y194025D01*
X120272Y194007D01*
X120167Y193986D01*
X120063Y193961D01*
X119959Y193932D01*
X119857Y193899D01*
X119757Y193862D01*
X119657Y193822D01*
X119559Y193778D01*
X119463Y193731D01*
X119369Y193680D01*
X119276Y193626D01*
X119186Y193569D01*
X119097Y193508D01*
X119011Y193444D01*
X118928Y193377D01*
X118846Y193307D01*
X118768Y193234D01*
X118692Y193158D01*
X118619Y193080D01*
X118549Y192998D01*
X118482Y192915D01*
X118418Y192829D01*
X118357Y192740D01*
X118300Y192650D01*
X118246Y192557D01*
X118195Y192463D01*
X118148Y192367D01*
X118104Y192269D01*
X118064Y192169D01*
X118027Y192069D01*
X117994Y191967D01*
X117965Y191863D01*
X117940Y191759D01*
X117919Y191654D01*
X117901Y191548D01*
X117888Y191442D01*
X117878Y191335D01*
X117872Y191228D01*
X117870Y191121D01*
X117872Y191014D01*
X117878Y190907D01*
X117888Y190800D01*
X117901Y190694D01*
X117919Y190588D01*
X117940Y190483D01*
X117965Y190379D01*
X117994Y190275D01*
X118027Y190173D01*
X118064Y190073D01*
X118104Y189973D01*
X118148Y189875D01*
X118195Y189779D01*
X118246Y189685D01*
X118300Y189592D01*
X118357Y189502D01*
X118418Y189413D01*
X118482Y189327D01*
X118549Y189244D01*
X118619Y189162D01*
X118692Y189084D01*
X118768Y189008D01*
X118846Y188935D01*
X118928Y188865D01*
X119011Y188798D01*
X119097Y188734D01*
X119186Y188673D01*
X119276Y188616D01*
X119369Y188562D01*
X119463Y188511D01*
X119559Y188464D01*
X119657Y188420D01*
X119757Y188380D01*
X119857Y188343D01*
X119959Y188310D01*
X120063Y188281D01*
X120167Y188256D01*
X120272Y188235D01*
X120378Y188217D01*
X120484Y188204D01*
X120591Y188194D01*
X120698Y188188D01*
X120805Y188186D01*
X111971Y189653D02*
X111971Y183049D01*
X111969Y182958D01*
X111963Y182867D01*
X111954Y182777D01*
X111941Y182687D01*
X111924Y182597D01*
X111904Y182509D01*
X111879Y182421D01*
X111852Y182334D01*
X111820Y182249D01*
X111786Y182165D01*
X111747Y182082D01*
X111706Y182001D01*
X111661Y181922D01*
X111613Y181845D01*
X111561Y181770D01*
X111507Y181697D01*
X111450Y181626D01*
X111389Y181558D01*
X111326Y181493D01*
X111261Y181430D01*
X111193Y181369D01*
X111122Y181312D01*
X111049Y181258D01*
X110974Y181206D01*
X110897Y181158D01*
X110818Y181113D01*
X110737Y181072D01*
X110654Y181033D01*
X110570Y180999D01*
X110485Y180967D01*
X110398Y180940D01*
X110310Y180915D01*
X110222Y180895D01*
X110132Y180878D01*
X110042Y180865D01*
X109952Y180856D01*
X109861Y180850D01*
X109770Y180848D01*
X106101Y180848D01*
X106101Y189653D01*
X99740Y191855D02*
X99740Y180848D01*
X99740Y191855D02*
X99738Y191946D01*
X99732Y192037D01*
X99723Y192127D01*
X99710Y192217D01*
X99693Y192307D01*
X99673Y192395D01*
X99648Y192483D01*
X99621Y192570D01*
X99589Y192655D01*
X99555Y192739D01*
X99516Y192822D01*
X99475Y192903D01*
X99430Y192982D01*
X99382Y193059D01*
X99330Y193134D01*
X99276Y193207D01*
X99219Y193278D01*
X99158Y193346D01*
X99095Y193411D01*
X99030Y193474D01*
X98962Y193535D01*
X98891Y193592D01*
X98818Y193646D01*
X98743Y193698D01*
X98666Y193746D01*
X98587Y193791D01*
X98506Y193832D01*
X98423Y193871D01*
X98339Y193905D01*
X98254Y193937D01*
X98167Y193964D01*
X98079Y193989D01*
X97991Y194009D01*
X97901Y194026D01*
X97811Y194039D01*
X97721Y194048D01*
X97630Y194054D01*
X97539Y194056D01*
X96805Y194056D01*
X96805Y189653D02*
X101208Y189653D01*
X92486Y191855D02*
X92486Y180848D01*
X92486Y191855D02*
X92484Y191946D01*
X92478Y192037D01*
X92469Y192127D01*
X92456Y192217D01*
X92439Y192307D01*
X92419Y192395D01*
X92394Y192483D01*
X92367Y192570D01*
X92335Y192655D01*
X92301Y192739D01*
X92262Y192822D01*
X92221Y192903D01*
X92176Y192982D01*
X92128Y193059D01*
X92076Y193134D01*
X92022Y193207D01*
X91965Y193278D01*
X91904Y193346D01*
X91841Y193411D01*
X91776Y193474D01*
X91708Y193535D01*
X91637Y193592D01*
X91564Y193646D01*
X91489Y193698D01*
X91412Y193746D01*
X91333Y193791D01*
X91252Y193832D01*
X91169Y193871D01*
X91085Y193905D01*
X91000Y193937D01*
X90913Y193964D01*
X90825Y193989D01*
X90737Y194009D01*
X90647Y194026D01*
X90557Y194039D01*
X90467Y194048D01*
X90376Y194054D01*
X90285Y194056D01*
X89551Y194056D01*
X89551Y189653D02*
X93953Y189653D01*
X83740Y180848D02*
X80071Y180848D01*
X83740Y180848D02*
X83831Y180850D01*
X83922Y180856D01*
X84012Y180865D01*
X84102Y180878D01*
X84192Y180895D01*
X84280Y180915D01*
X84368Y180940D01*
X84455Y180967D01*
X84540Y180999D01*
X84624Y181033D01*
X84707Y181072D01*
X84788Y181113D01*
X84867Y181158D01*
X84944Y181206D01*
X85019Y181258D01*
X85092Y181312D01*
X85163Y181369D01*
X85231Y181430D01*
X85296Y181493D01*
X85359Y181558D01*
X85420Y181626D01*
X85477Y181697D01*
X85531Y181770D01*
X85583Y181845D01*
X85631Y181922D01*
X85676Y182001D01*
X85717Y182082D01*
X85756Y182165D01*
X85790Y182249D01*
X85822Y182334D01*
X85849Y182421D01*
X85874Y182509D01*
X85894Y182597D01*
X85911Y182687D01*
X85924Y182777D01*
X85933Y182867D01*
X85939Y182958D01*
X85941Y183049D01*
X85941Y186718D01*
X85939Y186825D01*
X85933Y186932D01*
X85923Y187039D01*
X85910Y187145D01*
X85892Y187251D01*
X85871Y187356D01*
X85846Y187460D01*
X85817Y187564D01*
X85784Y187666D01*
X85747Y187766D01*
X85707Y187866D01*
X85663Y187964D01*
X85616Y188060D01*
X85565Y188154D01*
X85511Y188247D01*
X85454Y188337D01*
X85393Y188426D01*
X85329Y188512D01*
X85262Y188595D01*
X85192Y188677D01*
X85119Y188755D01*
X85043Y188831D01*
X84965Y188904D01*
X84883Y188974D01*
X84800Y189041D01*
X84714Y189105D01*
X84625Y189166D01*
X84535Y189223D01*
X84442Y189277D01*
X84348Y189328D01*
X84252Y189375D01*
X84154Y189419D01*
X84054Y189459D01*
X83954Y189496D01*
X83852Y189529D01*
X83748Y189558D01*
X83644Y189583D01*
X83539Y189604D01*
X83433Y189622D01*
X83327Y189635D01*
X83220Y189645D01*
X83113Y189651D01*
X83006Y189653D01*
X82899Y189651D01*
X82792Y189645D01*
X82685Y189635D01*
X82579Y189622D01*
X82473Y189604D01*
X82368Y189583D01*
X82264Y189558D01*
X82160Y189529D01*
X82058Y189496D01*
X81958Y189459D01*
X81858Y189419D01*
X81760Y189375D01*
X81664Y189328D01*
X81570Y189277D01*
X81477Y189223D01*
X81387Y189166D01*
X81298Y189105D01*
X81212Y189041D01*
X81129Y188974D01*
X81047Y188904D01*
X80969Y188831D01*
X80893Y188755D01*
X80820Y188677D01*
X80750Y188595D01*
X80683Y188512D01*
X80619Y188426D01*
X80558Y188337D01*
X80501Y188247D01*
X80447Y188154D01*
X80396Y188060D01*
X80349Y187964D01*
X80305Y187866D01*
X80265Y187766D01*
X80228Y187666D01*
X80195Y187564D01*
X80166Y187460D01*
X80141Y187356D01*
X80120Y187251D01*
X80102Y187145D01*
X80089Y187039D01*
X80079Y186932D01*
X80073Y186825D01*
X80071Y186718D01*
X80071Y185251D01*
X85941Y185251D01*
X74350Y189653D02*
X74350Y180848D01*
X74350Y189653D02*
X69947Y189653D01*
X69947Y188186D01*
M02*
