G04 EAGLE Gerber RS-274X export*
G75*
%MOMM*%
%FSLAX34Y34*%
%LPD*%
%INSilk screen CMP*%
%IPPOS*%
%AMOC8*
5,1,8,0,0,1.08239X$1,22.5*%
G01*
%ADD10C,0.177800*%
%ADD11C,0.127000*%
%ADD12C,0.101600*%
%ADD13C,0.800000*%


D10*
X215279Y280853D02*
X217353Y280853D01*
X217353Y273939D01*
X213205Y273939D01*
X213102Y273941D01*
X212998Y273947D01*
X212895Y273956D01*
X212793Y273970D01*
X212691Y273987D01*
X212590Y274008D01*
X212489Y274033D01*
X212390Y274062D01*
X212291Y274094D01*
X212194Y274130D01*
X212099Y274170D01*
X212005Y274213D01*
X211913Y274260D01*
X211822Y274310D01*
X211733Y274363D01*
X211647Y274420D01*
X211562Y274479D01*
X211480Y274542D01*
X211401Y274608D01*
X211324Y274677D01*
X211249Y274749D01*
X211177Y274824D01*
X211108Y274901D01*
X211042Y274980D01*
X210979Y275062D01*
X210920Y275147D01*
X210863Y275233D01*
X210810Y275322D01*
X210760Y275413D01*
X210713Y275505D01*
X210670Y275599D01*
X210630Y275694D01*
X210594Y275791D01*
X210562Y275890D01*
X210533Y275989D01*
X210508Y276090D01*
X210487Y276191D01*
X210470Y276293D01*
X210456Y276395D01*
X210447Y276498D01*
X210441Y276602D01*
X210439Y276705D01*
X210439Y283619D01*
X210441Y283722D01*
X210447Y283826D01*
X210456Y283929D01*
X210470Y284031D01*
X210487Y284133D01*
X210508Y284234D01*
X210533Y284335D01*
X210562Y284434D01*
X210594Y284533D01*
X210630Y284630D01*
X210670Y284725D01*
X210713Y284819D01*
X210760Y284911D01*
X210810Y285002D01*
X210863Y285091D01*
X210920Y285177D01*
X210979Y285261D01*
X211042Y285344D01*
X211108Y285423D01*
X211177Y285500D01*
X211249Y285575D01*
X211324Y285647D01*
X211401Y285716D01*
X211480Y285782D01*
X211562Y285845D01*
X211647Y285904D01*
X211733Y285961D01*
X211822Y286014D01*
X211913Y286064D01*
X212005Y286111D01*
X212099Y286154D01*
X212194Y286194D01*
X212291Y286230D01*
X212390Y286262D01*
X212489Y286291D01*
X212589Y286316D01*
X212691Y286337D01*
X212793Y286354D01*
X212895Y286368D01*
X212998Y286377D01*
X213102Y286383D01*
X213205Y286385D01*
X217353Y286385D01*
X224094Y286385D02*
X224094Y273939D01*
X231008Y273939D02*
X224094Y286385D01*
X231008Y286385D02*
X231008Y273939D01*
X237749Y273939D02*
X237749Y286385D01*
X241206Y286385D01*
X241322Y286383D01*
X241437Y286377D01*
X241552Y286368D01*
X241667Y286354D01*
X241781Y286337D01*
X241895Y286316D01*
X242007Y286291D01*
X242119Y286262D01*
X242230Y286230D01*
X242340Y286194D01*
X242448Y286154D01*
X242556Y286111D01*
X242661Y286064D01*
X242765Y286013D01*
X242867Y285960D01*
X242968Y285902D01*
X243066Y285842D01*
X243162Y285778D01*
X243257Y285711D01*
X243348Y285641D01*
X243438Y285568D01*
X243525Y285492D01*
X243609Y285413D01*
X243691Y285331D01*
X243770Y285247D01*
X243846Y285160D01*
X243919Y285070D01*
X243989Y284979D01*
X244056Y284884D01*
X244120Y284788D01*
X244180Y284690D01*
X244238Y284589D01*
X244291Y284487D01*
X244342Y284383D01*
X244389Y284278D01*
X244432Y284170D01*
X244472Y284062D01*
X244508Y283952D01*
X244540Y283841D01*
X244569Y283729D01*
X244594Y283617D01*
X244615Y283503D01*
X244632Y283389D01*
X244646Y283274D01*
X244655Y283159D01*
X244661Y283043D01*
X244663Y282928D01*
X244663Y277396D01*
X244661Y277280D01*
X244655Y277165D01*
X244646Y277050D01*
X244632Y276935D01*
X244615Y276821D01*
X244594Y276707D01*
X244569Y276595D01*
X244540Y276483D01*
X244508Y276372D01*
X244472Y276262D01*
X244432Y276154D01*
X244389Y276046D01*
X244342Y275941D01*
X244291Y275837D01*
X244238Y275735D01*
X244180Y275634D01*
X244120Y275536D01*
X244056Y275440D01*
X243989Y275345D01*
X243919Y275254D01*
X243846Y275164D01*
X243770Y275077D01*
X243691Y274993D01*
X243609Y274911D01*
X243525Y274832D01*
X243438Y274756D01*
X243348Y274683D01*
X243257Y274613D01*
X243162Y274546D01*
X243066Y274482D01*
X242968Y274422D01*
X242867Y274364D01*
X242765Y274311D01*
X242661Y274260D01*
X242556Y274213D01*
X242448Y274170D01*
X242340Y274130D01*
X242230Y274094D01*
X242119Y274062D01*
X242007Y274033D01*
X241895Y274008D01*
X241781Y273987D01*
X241667Y273970D01*
X241552Y273956D01*
X241437Y273947D01*
X241322Y273941D01*
X241206Y273939D01*
X237749Y273939D01*
X14153Y280853D02*
X12079Y280853D01*
X14153Y280853D02*
X14153Y273939D01*
X10005Y273939D01*
X9902Y273941D01*
X9798Y273947D01*
X9695Y273956D01*
X9593Y273970D01*
X9491Y273987D01*
X9390Y274008D01*
X9289Y274033D01*
X9190Y274062D01*
X9091Y274094D01*
X8994Y274130D01*
X8899Y274170D01*
X8805Y274213D01*
X8713Y274260D01*
X8622Y274310D01*
X8533Y274363D01*
X8447Y274420D01*
X8362Y274479D01*
X8280Y274542D01*
X8201Y274608D01*
X8124Y274677D01*
X8049Y274749D01*
X7977Y274824D01*
X7908Y274901D01*
X7842Y274980D01*
X7779Y275062D01*
X7720Y275147D01*
X7663Y275233D01*
X7610Y275322D01*
X7560Y275413D01*
X7513Y275505D01*
X7470Y275599D01*
X7430Y275694D01*
X7394Y275791D01*
X7362Y275890D01*
X7333Y275989D01*
X7308Y276090D01*
X7287Y276191D01*
X7270Y276293D01*
X7256Y276395D01*
X7247Y276498D01*
X7241Y276602D01*
X7239Y276705D01*
X7239Y283619D01*
X7241Y283722D01*
X7247Y283826D01*
X7256Y283929D01*
X7270Y284031D01*
X7287Y284133D01*
X7308Y284234D01*
X7333Y284335D01*
X7362Y284434D01*
X7394Y284533D01*
X7430Y284630D01*
X7470Y284725D01*
X7513Y284819D01*
X7560Y284911D01*
X7610Y285002D01*
X7663Y285091D01*
X7720Y285177D01*
X7779Y285261D01*
X7842Y285344D01*
X7908Y285423D01*
X7977Y285500D01*
X8049Y285575D01*
X8124Y285647D01*
X8201Y285716D01*
X8280Y285782D01*
X8362Y285845D01*
X8447Y285904D01*
X8533Y285961D01*
X8622Y286014D01*
X8713Y286064D01*
X8805Y286111D01*
X8899Y286154D01*
X8994Y286194D01*
X9091Y286230D01*
X9190Y286262D01*
X9289Y286291D01*
X9389Y286316D01*
X9491Y286337D01*
X9593Y286354D01*
X9695Y286368D01*
X9798Y286377D01*
X9902Y286383D01*
X10005Y286385D01*
X14153Y286385D01*
X20894Y286385D02*
X20894Y273939D01*
X27808Y273939D02*
X20894Y286385D01*
X27808Y286385D02*
X27808Y273939D01*
X34549Y273939D02*
X34549Y286385D01*
X38006Y286385D01*
X38122Y286383D01*
X38237Y286377D01*
X38352Y286368D01*
X38467Y286354D01*
X38581Y286337D01*
X38695Y286316D01*
X38807Y286291D01*
X38919Y286262D01*
X39030Y286230D01*
X39140Y286194D01*
X39248Y286154D01*
X39356Y286111D01*
X39461Y286064D01*
X39565Y286013D01*
X39667Y285960D01*
X39768Y285902D01*
X39866Y285842D01*
X39962Y285778D01*
X40057Y285711D01*
X40148Y285641D01*
X40238Y285568D01*
X40325Y285492D01*
X40409Y285413D01*
X40491Y285331D01*
X40570Y285247D01*
X40646Y285160D01*
X40719Y285070D01*
X40789Y284979D01*
X40856Y284884D01*
X40920Y284788D01*
X40980Y284690D01*
X41038Y284589D01*
X41091Y284487D01*
X41142Y284383D01*
X41189Y284278D01*
X41232Y284170D01*
X41272Y284062D01*
X41308Y283952D01*
X41340Y283841D01*
X41369Y283729D01*
X41394Y283617D01*
X41415Y283503D01*
X41432Y283389D01*
X41446Y283274D01*
X41455Y283159D01*
X41461Y283043D01*
X41463Y282928D01*
X41463Y277396D01*
X41461Y277280D01*
X41455Y277165D01*
X41446Y277050D01*
X41432Y276935D01*
X41415Y276821D01*
X41394Y276707D01*
X41369Y276595D01*
X41340Y276483D01*
X41308Y276372D01*
X41272Y276262D01*
X41232Y276154D01*
X41189Y276046D01*
X41142Y275941D01*
X41091Y275837D01*
X41038Y275735D01*
X40980Y275634D01*
X40920Y275536D01*
X40856Y275440D01*
X40789Y275345D01*
X40719Y275254D01*
X40646Y275164D01*
X40570Y275077D01*
X40491Y274993D01*
X40409Y274911D01*
X40325Y274832D01*
X40238Y274756D01*
X40148Y274683D01*
X40057Y274613D01*
X39962Y274546D01*
X39866Y274482D01*
X39768Y274422D01*
X39667Y274364D01*
X39565Y274311D01*
X39461Y274260D01*
X39356Y274213D01*
X39248Y274170D01*
X39140Y274130D01*
X39030Y274094D01*
X38919Y274062D01*
X38807Y274033D01*
X38695Y274008D01*
X38581Y273987D01*
X38467Y273970D01*
X38352Y273956D01*
X38237Y273947D01*
X38122Y273941D01*
X38006Y273939D01*
X34549Y273939D01*
X70739Y304179D02*
X79036Y304179D01*
X74888Y300030D02*
X74888Y308328D01*
X85085Y299339D02*
X88543Y299339D01*
X88660Y299341D01*
X88776Y299347D01*
X88893Y299357D01*
X89009Y299371D01*
X89124Y299388D01*
X89239Y299410D01*
X89353Y299435D01*
X89466Y299464D01*
X89578Y299498D01*
X89689Y299534D01*
X89798Y299575D01*
X89906Y299619D01*
X90013Y299667D01*
X90118Y299718D01*
X90221Y299773D01*
X90322Y299832D01*
X90421Y299894D01*
X90518Y299959D01*
X90613Y300027D01*
X90705Y300098D01*
X90795Y300173D01*
X90882Y300251D01*
X90967Y300331D01*
X91049Y300414D01*
X91128Y300500D01*
X91204Y300589D01*
X91277Y300680D01*
X91347Y300773D01*
X91413Y300869D01*
X91477Y300967D01*
X91537Y301068D01*
X91594Y301170D01*
X91647Y301274D01*
X91696Y301379D01*
X91742Y301487D01*
X91785Y301595D01*
X91824Y301706D01*
X91858Y301817D01*
X91890Y301929D01*
X91917Y302043D01*
X91941Y302157D01*
X91960Y302273D01*
X91976Y302388D01*
X91988Y302504D01*
X91996Y302621D01*
X92000Y302738D01*
X92000Y302854D01*
X91996Y302971D01*
X91988Y303088D01*
X91976Y303204D01*
X91960Y303319D01*
X91941Y303435D01*
X91917Y303549D01*
X91890Y303663D01*
X91858Y303775D01*
X91824Y303886D01*
X91785Y303997D01*
X91742Y304105D01*
X91696Y304213D01*
X91647Y304318D01*
X91594Y304422D01*
X91537Y304525D01*
X91477Y304625D01*
X91413Y304723D01*
X91347Y304819D01*
X91277Y304912D01*
X91204Y305003D01*
X91128Y305092D01*
X91049Y305178D01*
X90967Y305261D01*
X90882Y305341D01*
X90795Y305419D01*
X90705Y305494D01*
X90613Y305565D01*
X90518Y305633D01*
X90421Y305698D01*
X90322Y305760D01*
X90221Y305819D01*
X90118Y305874D01*
X90013Y305925D01*
X89906Y305973D01*
X89798Y306017D01*
X89689Y306058D01*
X89578Y306094D01*
X89466Y306128D01*
X89353Y306157D01*
X89239Y306182D01*
X89124Y306204D01*
X89009Y306221D01*
X88893Y306235D01*
X88776Y306245D01*
X88660Y306251D01*
X88543Y306253D01*
X89234Y311785D02*
X85085Y311785D01*
X89234Y311785D02*
X89337Y311783D01*
X89441Y311777D01*
X89544Y311768D01*
X89646Y311754D01*
X89748Y311737D01*
X89849Y311716D01*
X89950Y311691D01*
X90049Y311662D01*
X90148Y311630D01*
X90245Y311594D01*
X90340Y311554D01*
X90434Y311511D01*
X90526Y311464D01*
X90617Y311414D01*
X90706Y311361D01*
X90792Y311304D01*
X90877Y311245D01*
X90959Y311182D01*
X91038Y311116D01*
X91115Y311047D01*
X91190Y310975D01*
X91262Y310900D01*
X91331Y310823D01*
X91397Y310744D01*
X91460Y310662D01*
X91519Y310577D01*
X91576Y310491D01*
X91629Y310402D01*
X91679Y310311D01*
X91726Y310219D01*
X91769Y310125D01*
X91809Y310030D01*
X91845Y309933D01*
X91877Y309834D01*
X91906Y309735D01*
X91931Y309634D01*
X91952Y309533D01*
X91969Y309431D01*
X91983Y309329D01*
X91992Y309226D01*
X91998Y309122D01*
X92000Y309019D01*
X91998Y308916D01*
X91992Y308812D01*
X91983Y308709D01*
X91969Y308607D01*
X91952Y308505D01*
X91931Y308404D01*
X91906Y308303D01*
X91877Y308204D01*
X91845Y308105D01*
X91809Y308008D01*
X91769Y307913D01*
X91726Y307819D01*
X91679Y307727D01*
X91629Y307636D01*
X91576Y307547D01*
X91519Y307461D01*
X91460Y307376D01*
X91397Y307294D01*
X91331Y307215D01*
X91262Y307138D01*
X91190Y307063D01*
X91115Y306991D01*
X91038Y306922D01*
X90959Y306856D01*
X90877Y306793D01*
X90792Y306734D01*
X90706Y306677D01*
X90617Y306624D01*
X90526Y306574D01*
X90434Y306527D01*
X90340Y306484D01*
X90245Y306444D01*
X90148Y306408D01*
X90049Y306376D01*
X89950Y306347D01*
X89849Y306322D01*
X89748Y306301D01*
X89646Y306284D01*
X89544Y306270D01*
X89441Y306261D01*
X89337Y306255D01*
X89234Y306253D01*
X86468Y306253D01*
X97158Y300030D02*
X97158Y299339D01*
X97158Y300030D02*
X97849Y300030D01*
X97849Y299339D01*
X97158Y299339D01*
X103008Y299339D02*
X106465Y299339D01*
X106582Y299341D01*
X106698Y299347D01*
X106815Y299357D01*
X106931Y299371D01*
X107046Y299388D01*
X107161Y299410D01*
X107275Y299435D01*
X107388Y299464D01*
X107500Y299498D01*
X107611Y299534D01*
X107720Y299575D01*
X107828Y299619D01*
X107935Y299667D01*
X108040Y299718D01*
X108143Y299773D01*
X108244Y299832D01*
X108343Y299894D01*
X108440Y299959D01*
X108535Y300027D01*
X108627Y300098D01*
X108717Y300173D01*
X108804Y300251D01*
X108889Y300331D01*
X108971Y300414D01*
X109050Y300500D01*
X109126Y300589D01*
X109199Y300680D01*
X109269Y300773D01*
X109335Y300869D01*
X109399Y300967D01*
X109459Y301068D01*
X109516Y301170D01*
X109569Y301274D01*
X109618Y301379D01*
X109664Y301487D01*
X109707Y301595D01*
X109746Y301706D01*
X109780Y301817D01*
X109812Y301929D01*
X109839Y302043D01*
X109863Y302157D01*
X109882Y302273D01*
X109898Y302388D01*
X109910Y302504D01*
X109918Y302621D01*
X109922Y302738D01*
X109922Y302854D01*
X109918Y302971D01*
X109910Y303088D01*
X109898Y303204D01*
X109882Y303319D01*
X109863Y303435D01*
X109839Y303549D01*
X109812Y303663D01*
X109780Y303775D01*
X109746Y303886D01*
X109707Y303997D01*
X109664Y304105D01*
X109618Y304213D01*
X109569Y304318D01*
X109516Y304422D01*
X109459Y304525D01*
X109399Y304625D01*
X109335Y304723D01*
X109269Y304819D01*
X109199Y304912D01*
X109126Y305003D01*
X109050Y305092D01*
X108971Y305178D01*
X108889Y305261D01*
X108804Y305341D01*
X108717Y305419D01*
X108627Y305494D01*
X108535Y305565D01*
X108440Y305633D01*
X108343Y305698D01*
X108244Y305760D01*
X108143Y305819D01*
X108040Y305874D01*
X107935Y305925D01*
X107828Y305973D01*
X107720Y306017D01*
X107611Y306058D01*
X107500Y306094D01*
X107388Y306128D01*
X107275Y306157D01*
X107161Y306182D01*
X107046Y306204D01*
X106931Y306221D01*
X106815Y306235D01*
X106698Y306245D01*
X106582Y306251D01*
X106465Y306253D01*
X107156Y311785D02*
X103008Y311785D01*
X107156Y311785D02*
X107259Y311783D01*
X107363Y311777D01*
X107466Y311768D01*
X107568Y311754D01*
X107670Y311737D01*
X107771Y311716D01*
X107872Y311691D01*
X107971Y311662D01*
X108070Y311630D01*
X108167Y311594D01*
X108262Y311554D01*
X108356Y311511D01*
X108448Y311464D01*
X108539Y311414D01*
X108628Y311361D01*
X108714Y311304D01*
X108799Y311245D01*
X108881Y311182D01*
X108960Y311116D01*
X109037Y311047D01*
X109112Y310975D01*
X109184Y310900D01*
X109253Y310823D01*
X109319Y310744D01*
X109382Y310662D01*
X109441Y310577D01*
X109498Y310491D01*
X109551Y310402D01*
X109601Y310311D01*
X109648Y310219D01*
X109691Y310125D01*
X109731Y310030D01*
X109767Y309933D01*
X109799Y309834D01*
X109828Y309735D01*
X109853Y309634D01*
X109874Y309533D01*
X109891Y309431D01*
X109905Y309329D01*
X109914Y309226D01*
X109920Y309122D01*
X109922Y309019D01*
X109920Y308916D01*
X109914Y308812D01*
X109905Y308709D01*
X109891Y308607D01*
X109874Y308505D01*
X109853Y308404D01*
X109828Y308303D01*
X109799Y308204D01*
X109767Y308105D01*
X109731Y308008D01*
X109691Y307913D01*
X109648Y307819D01*
X109601Y307727D01*
X109551Y307636D01*
X109498Y307547D01*
X109441Y307461D01*
X109382Y307376D01*
X109319Y307294D01*
X109253Y307215D01*
X109184Y307138D01*
X109112Y307063D01*
X109037Y306991D01*
X108960Y306922D01*
X108881Y306856D01*
X108799Y306793D01*
X108714Y306734D01*
X108628Y306677D01*
X108539Y306624D01*
X108448Y306574D01*
X108356Y306527D01*
X108262Y306484D01*
X108167Y306444D01*
X108070Y306408D01*
X107971Y306376D01*
X107872Y306347D01*
X107771Y306322D01*
X107670Y306301D01*
X107568Y306284D01*
X107466Y306270D01*
X107363Y306261D01*
X107259Y306255D01*
X107156Y306253D01*
X104391Y306253D01*
X146939Y304179D02*
X155236Y304179D01*
X151088Y300030D02*
X151088Y308328D01*
X160594Y311785D02*
X164743Y299339D01*
X168891Y311785D01*
X173925Y304871D02*
X173925Y302105D01*
X173925Y304871D02*
X173927Y304974D01*
X173933Y305078D01*
X173942Y305181D01*
X173956Y305283D01*
X173973Y305385D01*
X173994Y305486D01*
X174019Y305587D01*
X174048Y305686D01*
X174080Y305785D01*
X174116Y305882D01*
X174156Y305977D01*
X174199Y306071D01*
X174246Y306163D01*
X174296Y306254D01*
X174349Y306343D01*
X174406Y306429D01*
X174465Y306514D01*
X174528Y306596D01*
X174594Y306675D01*
X174663Y306752D01*
X174735Y306827D01*
X174810Y306899D01*
X174887Y306968D01*
X174966Y307034D01*
X175048Y307097D01*
X175133Y307156D01*
X175219Y307213D01*
X175308Y307266D01*
X175399Y307316D01*
X175491Y307363D01*
X175585Y307406D01*
X175680Y307446D01*
X175777Y307482D01*
X175876Y307514D01*
X175975Y307543D01*
X176076Y307568D01*
X176177Y307589D01*
X176279Y307606D01*
X176381Y307620D01*
X176484Y307629D01*
X176588Y307635D01*
X176691Y307637D01*
X176794Y307635D01*
X176898Y307629D01*
X177001Y307620D01*
X177103Y307606D01*
X177205Y307589D01*
X177306Y307568D01*
X177407Y307543D01*
X177506Y307514D01*
X177605Y307482D01*
X177702Y307446D01*
X177797Y307406D01*
X177891Y307363D01*
X177983Y307316D01*
X178074Y307266D01*
X178163Y307213D01*
X178249Y307156D01*
X178334Y307097D01*
X178416Y307034D01*
X178495Y306968D01*
X178572Y306899D01*
X178647Y306827D01*
X178719Y306752D01*
X178788Y306675D01*
X178854Y306596D01*
X178917Y306514D01*
X178976Y306429D01*
X179033Y306343D01*
X179086Y306254D01*
X179136Y306163D01*
X179183Y306071D01*
X179226Y305977D01*
X179266Y305882D01*
X179302Y305785D01*
X179334Y305686D01*
X179363Y305587D01*
X179388Y305486D01*
X179409Y305385D01*
X179426Y305283D01*
X179440Y305181D01*
X179449Y305078D01*
X179455Y304974D01*
X179457Y304871D01*
X179457Y302105D01*
X179455Y302002D01*
X179449Y301898D01*
X179440Y301795D01*
X179426Y301693D01*
X179409Y301591D01*
X179388Y301490D01*
X179363Y301389D01*
X179334Y301290D01*
X179302Y301191D01*
X179266Y301094D01*
X179226Y300999D01*
X179183Y300905D01*
X179136Y300813D01*
X179086Y300722D01*
X179033Y300633D01*
X178976Y300547D01*
X178917Y300462D01*
X178854Y300380D01*
X178788Y300301D01*
X178719Y300224D01*
X178647Y300149D01*
X178572Y300077D01*
X178495Y300008D01*
X178416Y299942D01*
X178334Y299879D01*
X178249Y299820D01*
X178163Y299763D01*
X178074Y299710D01*
X177983Y299660D01*
X177891Y299613D01*
X177797Y299570D01*
X177702Y299530D01*
X177605Y299494D01*
X177506Y299462D01*
X177407Y299433D01*
X177306Y299408D01*
X177205Y299387D01*
X177103Y299370D01*
X177001Y299356D01*
X176898Y299347D01*
X176794Y299341D01*
X176691Y299339D01*
X176588Y299341D01*
X176484Y299347D01*
X176381Y299356D01*
X176279Y299370D01*
X176177Y299387D01*
X176076Y299408D01*
X175975Y299433D01*
X175876Y299462D01*
X175777Y299494D01*
X175680Y299530D01*
X175585Y299570D01*
X175491Y299613D01*
X175399Y299660D01*
X175308Y299710D01*
X175219Y299763D01*
X175133Y299820D01*
X175048Y299879D01*
X174966Y299942D01*
X174887Y300008D01*
X174810Y300077D01*
X174735Y300149D01*
X174663Y300224D01*
X174594Y300301D01*
X174528Y300380D01*
X174465Y300462D01*
X174406Y300547D01*
X174349Y300633D01*
X174296Y300722D01*
X174246Y300813D01*
X174199Y300905D01*
X174156Y300999D01*
X174116Y301094D01*
X174080Y301191D01*
X174048Y301290D01*
X174019Y301389D01*
X173994Y301490D01*
X173973Y301591D01*
X173956Y301693D01*
X173942Y301795D01*
X173933Y301898D01*
X173927Y302002D01*
X173925Y302105D01*
X17738Y213198D02*
X13589Y219075D01*
X17738Y213198D02*
X21886Y219075D01*
X17738Y213198D02*
X17738Y206629D01*
X29256Y211469D02*
X32367Y211469D01*
X29256Y211469D02*
X29159Y211467D01*
X29061Y211461D01*
X28964Y211451D01*
X28868Y211438D01*
X28772Y211420D01*
X28677Y211399D01*
X28583Y211373D01*
X28490Y211344D01*
X28398Y211312D01*
X28307Y211275D01*
X28219Y211235D01*
X28131Y211192D01*
X28046Y211145D01*
X27963Y211094D01*
X27881Y211041D01*
X27802Y210984D01*
X27725Y210924D01*
X27651Y210860D01*
X27580Y210794D01*
X27511Y210725D01*
X27445Y210654D01*
X27381Y210580D01*
X27321Y210503D01*
X27264Y210424D01*
X27211Y210342D01*
X27160Y210259D01*
X27113Y210174D01*
X27070Y210086D01*
X27030Y209998D01*
X26993Y209907D01*
X26961Y209815D01*
X26932Y209722D01*
X26906Y209628D01*
X26885Y209533D01*
X26867Y209437D01*
X26854Y209341D01*
X26844Y209244D01*
X26838Y209146D01*
X26836Y209049D01*
X26838Y208952D01*
X26844Y208854D01*
X26854Y208757D01*
X26867Y208661D01*
X26885Y208565D01*
X26906Y208470D01*
X26932Y208376D01*
X26961Y208283D01*
X26993Y208191D01*
X27030Y208100D01*
X27070Y208012D01*
X27113Y207924D01*
X27160Y207839D01*
X27211Y207756D01*
X27264Y207674D01*
X27321Y207595D01*
X27381Y207518D01*
X27445Y207444D01*
X27511Y207373D01*
X27580Y207304D01*
X27651Y207238D01*
X27725Y207174D01*
X27802Y207114D01*
X27881Y207057D01*
X27963Y207004D01*
X28046Y206953D01*
X28131Y206906D01*
X28219Y206863D01*
X28307Y206823D01*
X28398Y206786D01*
X28490Y206754D01*
X28583Y206725D01*
X28677Y206699D01*
X28772Y206678D01*
X28868Y206660D01*
X28964Y206647D01*
X29061Y206637D01*
X29159Y206631D01*
X29256Y206629D01*
X32367Y206629D01*
X32367Y212852D01*
X32365Y212940D01*
X32360Y213028D01*
X32350Y213115D01*
X32337Y213203D01*
X32320Y213289D01*
X32300Y213375D01*
X32276Y213459D01*
X32249Y213543D01*
X32217Y213625D01*
X32183Y213706D01*
X32145Y213786D01*
X32104Y213863D01*
X32059Y213939D01*
X32011Y214013D01*
X31960Y214085D01*
X31907Y214155D01*
X31850Y214222D01*
X31790Y214287D01*
X31728Y214349D01*
X31663Y214409D01*
X31596Y214466D01*
X31526Y214519D01*
X31454Y214570D01*
X31380Y214618D01*
X31304Y214663D01*
X31227Y214704D01*
X31147Y214742D01*
X31066Y214776D01*
X30984Y214808D01*
X30900Y214835D01*
X30816Y214859D01*
X30730Y214879D01*
X30644Y214896D01*
X30556Y214909D01*
X30469Y214919D01*
X30381Y214924D01*
X30293Y214926D01*
X27527Y214926D01*
X38953Y214926D02*
X38953Y202480D01*
X38953Y214926D02*
X42410Y214926D01*
X42498Y214924D01*
X42586Y214919D01*
X42673Y214909D01*
X42761Y214896D01*
X42847Y214879D01*
X42933Y214859D01*
X43017Y214835D01*
X43101Y214808D01*
X43183Y214776D01*
X43264Y214742D01*
X43344Y214704D01*
X43421Y214663D01*
X43497Y214618D01*
X43571Y214570D01*
X43643Y214519D01*
X43713Y214466D01*
X43780Y214409D01*
X43845Y214349D01*
X43907Y214287D01*
X43967Y214222D01*
X44024Y214155D01*
X44077Y214085D01*
X44128Y214013D01*
X44176Y213939D01*
X44221Y213863D01*
X44262Y213786D01*
X44300Y213706D01*
X44334Y213625D01*
X44366Y213543D01*
X44393Y213459D01*
X44417Y213375D01*
X44437Y213289D01*
X44454Y213203D01*
X44467Y213115D01*
X44477Y213028D01*
X44482Y212940D01*
X44484Y212852D01*
X44484Y208703D01*
X44482Y208615D01*
X44477Y208527D01*
X44467Y208440D01*
X44454Y208352D01*
X44437Y208266D01*
X44417Y208180D01*
X44393Y208096D01*
X44366Y208012D01*
X44334Y207930D01*
X44300Y207849D01*
X44262Y207769D01*
X44221Y207692D01*
X44176Y207616D01*
X44128Y207542D01*
X44077Y207470D01*
X44024Y207400D01*
X43967Y207333D01*
X43907Y207268D01*
X43845Y207206D01*
X43780Y207146D01*
X43713Y207089D01*
X43643Y207036D01*
X43571Y206985D01*
X43497Y206937D01*
X43421Y206892D01*
X43344Y206851D01*
X43264Y206813D01*
X43183Y206779D01*
X43101Y206747D01*
X43017Y206720D01*
X42933Y206696D01*
X42847Y206676D01*
X42761Y206659D01*
X42673Y206646D01*
X42586Y206636D01*
X42498Y206631D01*
X42410Y206629D01*
X38953Y206629D01*
X49963Y209395D02*
X49963Y212161D01*
X49965Y212264D01*
X49971Y212368D01*
X49980Y212471D01*
X49994Y212573D01*
X50011Y212675D01*
X50032Y212776D01*
X50057Y212877D01*
X50086Y212976D01*
X50118Y213075D01*
X50154Y213172D01*
X50194Y213267D01*
X50237Y213361D01*
X50284Y213453D01*
X50334Y213544D01*
X50387Y213633D01*
X50444Y213719D01*
X50503Y213804D01*
X50566Y213886D01*
X50632Y213965D01*
X50701Y214042D01*
X50773Y214117D01*
X50848Y214189D01*
X50925Y214258D01*
X51004Y214324D01*
X51086Y214387D01*
X51171Y214446D01*
X51257Y214503D01*
X51346Y214556D01*
X51437Y214606D01*
X51529Y214653D01*
X51623Y214696D01*
X51718Y214736D01*
X51815Y214772D01*
X51914Y214804D01*
X52013Y214833D01*
X52114Y214858D01*
X52215Y214879D01*
X52317Y214896D01*
X52419Y214910D01*
X52522Y214919D01*
X52626Y214925D01*
X52729Y214927D01*
X52832Y214925D01*
X52936Y214919D01*
X53039Y214910D01*
X53141Y214896D01*
X53243Y214879D01*
X53344Y214858D01*
X53445Y214833D01*
X53544Y214804D01*
X53643Y214772D01*
X53740Y214736D01*
X53835Y214696D01*
X53929Y214653D01*
X54021Y214606D01*
X54112Y214556D01*
X54201Y214503D01*
X54287Y214446D01*
X54372Y214387D01*
X54454Y214324D01*
X54533Y214258D01*
X54610Y214189D01*
X54685Y214117D01*
X54757Y214042D01*
X54826Y213965D01*
X54892Y213886D01*
X54955Y213804D01*
X55014Y213719D01*
X55071Y213633D01*
X55124Y213544D01*
X55174Y213453D01*
X55221Y213361D01*
X55264Y213267D01*
X55304Y213172D01*
X55340Y213075D01*
X55372Y212976D01*
X55401Y212877D01*
X55426Y212776D01*
X55447Y212675D01*
X55464Y212573D01*
X55478Y212471D01*
X55487Y212368D01*
X55493Y212264D01*
X55495Y212161D01*
X55494Y212161D02*
X55494Y209395D01*
X55495Y209395D02*
X55493Y209292D01*
X55487Y209188D01*
X55478Y209085D01*
X55464Y208983D01*
X55447Y208881D01*
X55426Y208780D01*
X55401Y208679D01*
X55372Y208580D01*
X55340Y208481D01*
X55304Y208384D01*
X55264Y208289D01*
X55221Y208195D01*
X55174Y208103D01*
X55124Y208012D01*
X55071Y207923D01*
X55014Y207837D01*
X54955Y207752D01*
X54892Y207670D01*
X54826Y207591D01*
X54757Y207514D01*
X54685Y207439D01*
X54610Y207367D01*
X54533Y207298D01*
X54454Y207232D01*
X54372Y207169D01*
X54287Y207110D01*
X54201Y207053D01*
X54112Y207000D01*
X54021Y206950D01*
X53929Y206903D01*
X53835Y206860D01*
X53740Y206820D01*
X53643Y206784D01*
X53544Y206752D01*
X53445Y206723D01*
X53344Y206698D01*
X53243Y206677D01*
X53141Y206660D01*
X53039Y206646D01*
X52936Y206637D01*
X52832Y206631D01*
X52729Y206629D01*
X52626Y206631D01*
X52522Y206637D01*
X52419Y206646D01*
X52317Y206660D01*
X52215Y206677D01*
X52114Y206698D01*
X52013Y206723D01*
X51914Y206752D01*
X51815Y206784D01*
X51718Y206820D01*
X51623Y206860D01*
X51529Y206903D01*
X51437Y206950D01*
X51346Y207000D01*
X51257Y207053D01*
X51171Y207110D01*
X51086Y207169D01*
X51004Y207232D01*
X50925Y207298D01*
X50848Y207367D01*
X50773Y207439D01*
X50701Y207514D01*
X50632Y207591D01*
X50566Y207670D01*
X50503Y207752D01*
X50444Y207837D01*
X50387Y207923D01*
X50334Y208012D01*
X50284Y208103D01*
X50237Y208195D01*
X50194Y208289D01*
X50154Y208384D01*
X50118Y208481D01*
X50086Y208580D01*
X50057Y208679D01*
X50032Y208780D01*
X50011Y208881D01*
X49994Y208983D01*
X49980Y209085D01*
X49971Y209188D01*
X49965Y209292D01*
X49963Y209395D01*
X20504Y196914D02*
X20502Y197025D01*
X20496Y197136D01*
X20486Y197247D01*
X20472Y197357D01*
X20455Y197467D01*
X20433Y197576D01*
X20407Y197684D01*
X20378Y197791D01*
X20345Y197897D01*
X20308Y198002D01*
X20267Y198105D01*
X20223Y198207D01*
X20175Y198307D01*
X20123Y198405D01*
X20068Y198502D01*
X20010Y198596D01*
X19948Y198689D01*
X19883Y198779D01*
X19815Y198867D01*
X19744Y198952D01*
X19670Y199035D01*
X19593Y199115D01*
X19513Y199192D01*
X19430Y199266D01*
X19345Y199337D01*
X19257Y199405D01*
X19167Y199470D01*
X19074Y199532D01*
X18980Y199590D01*
X18883Y199645D01*
X18785Y199697D01*
X18685Y199745D01*
X18583Y199789D01*
X18480Y199830D01*
X18375Y199867D01*
X18269Y199900D01*
X18162Y199929D01*
X18054Y199955D01*
X17945Y199977D01*
X17835Y199994D01*
X17725Y200008D01*
X17614Y200018D01*
X17503Y200024D01*
X17392Y200026D01*
X17392Y200025D02*
X17266Y200023D01*
X17141Y200017D01*
X17016Y200007D01*
X16891Y199993D01*
X16766Y199976D01*
X16642Y199954D01*
X16519Y199929D01*
X16397Y199899D01*
X16276Y199866D01*
X16156Y199829D01*
X16037Y199788D01*
X15920Y199744D01*
X15803Y199696D01*
X15689Y199644D01*
X15576Y199589D01*
X15465Y199530D01*
X15356Y199468D01*
X15249Y199402D01*
X15144Y199333D01*
X15041Y199261D01*
X14941Y199185D01*
X14843Y199106D01*
X14747Y199025D01*
X14654Y198940D01*
X14564Y198853D01*
X14477Y198762D01*
X14392Y198669D01*
X14311Y198574D01*
X14232Y198476D01*
X14157Y198375D01*
X14084Y198272D01*
X14016Y198167D01*
X13950Y198060D01*
X13888Y197951D01*
X13829Y197840D01*
X13774Y197727D01*
X13722Y197612D01*
X13674Y197496D01*
X13630Y197378D01*
X13589Y197260D01*
X19467Y194494D02*
X19547Y194573D01*
X19625Y194655D01*
X19700Y194739D01*
X19771Y194826D01*
X19840Y194915D01*
X19906Y195007D01*
X19969Y195100D01*
X20029Y195196D01*
X20085Y195294D01*
X20138Y195393D01*
X20188Y195495D01*
X20234Y195597D01*
X20276Y195702D01*
X20316Y195808D01*
X20351Y195915D01*
X20383Y196023D01*
X20411Y196132D01*
X20436Y196242D01*
X20457Y196353D01*
X20474Y196464D01*
X20487Y196576D01*
X20496Y196689D01*
X20502Y196801D01*
X20504Y196914D01*
X19466Y194493D02*
X13589Y187579D01*
X20503Y187579D01*
X26391Y193802D02*
X26394Y194047D01*
X26403Y194292D01*
X26417Y194536D01*
X26438Y194780D01*
X26464Y195023D01*
X26496Y195266D01*
X26534Y195508D01*
X26577Y195749D01*
X26627Y195989D01*
X26682Y196227D01*
X26743Y196464D01*
X26809Y196700D01*
X26881Y196934D01*
X26959Y197166D01*
X27042Y197397D01*
X27130Y197625D01*
X27224Y197851D01*
X27323Y198075D01*
X27428Y198296D01*
X27428Y198297D02*
X27462Y198390D01*
X27500Y198482D01*
X27541Y198572D01*
X27585Y198660D01*
X27633Y198747D01*
X27685Y198832D01*
X27739Y198915D01*
X27797Y198995D01*
X27858Y199074D01*
X27921Y199150D01*
X27988Y199223D01*
X28058Y199294D01*
X28130Y199362D01*
X28204Y199427D01*
X28282Y199489D01*
X28361Y199549D01*
X28443Y199605D01*
X28527Y199657D01*
X28613Y199707D01*
X28701Y199753D01*
X28790Y199796D01*
X28881Y199835D01*
X28974Y199871D01*
X29067Y199903D01*
X29162Y199931D01*
X29258Y199956D01*
X29355Y199977D01*
X29453Y199994D01*
X29551Y200008D01*
X29650Y200017D01*
X29749Y200023D01*
X29848Y200025D01*
X29947Y200023D01*
X30046Y200017D01*
X30145Y200008D01*
X30243Y199994D01*
X30341Y199977D01*
X30438Y199956D01*
X30534Y199931D01*
X30629Y199903D01*
X30722Y199871D01*
X30815Y199835D01*
X30906Y199796D01*
X30996Y199753D01*
X31083Y199707D01*
X31169Y199657D01*
X31253Y199605D01*
X31335Y199549D01*
X31414Y199489D01*
X31492Y199427D01*
X31566Y199362D01*
X31638Y199294D01*
X31708Y199223D01*
X31775Y199150D01*
X31838Y199074D01*
X31899Y198995D01*
X31957Y198915D01*
X32011Y198832D01*
X32063Y198747D01*
X32111Y198660D01*
X32155Y198572D01*
X32196Y198481D01*
X32234Y198390D01*
X32268Y198297D01*
X32268Y198296D02*
X32372Y198075D01*
X32472Y197851D01*
X32566Y197625D01*
X32654Y197397D01*
X32737Y197166D01*
X32815Y196934D01*
X32887Y196700D01*
X32953Y196465D01*
X33014Y196227D01*
X33069Y195989D01*
X33119Y195749D01*
X33162Y195508D01*
X33200Y195266D01*
X33232Y195023D01*
X33258Y194780D01*
X33279Y194536D01*
X33293Y194292D01*
X33302Y194047D01*
X33305Y193802D01*
X26390Y193802D02*
X26393Y193557D01*
X26402Y193312D01*
X26416Y193068D01*
X26437Y192824D01*
X26463Y192581D01*
X26495Y192338D01*
X26533Y192096D01*
X26576Y191855D01*
X26626Y191615D01*
X26681Y191377D01*
X26742Y191139D01*
X26808Y190904D01*
X26880Y190670D01*
X26958Y190437D01*
X27041Y190207D01*
X27129Y189979D01*
X27223Y189753D01*
X27323Y189529D01*
X27427Y189307D01*
X27428Y189307D02*
X27462Y189214D01*
X27500Y189122D01*
X27541Y189032D01*
X27585Y188944D01*
X27633Y188857D01*
X27685Y188772D01*
X27739Y188689D01*
X27797Y188609D01*
X27858Y188530D01*
X27921Y188454D01*
X27988Y188381D01*
X28058Y188310D01*
X28130Y188242D01*
X28204Y188177D01*
X28282Y188115D01*
X28361Y188055D01*
X28443Y187999D01*
X28527Y187947D01*
X28613Y187897D01*
X28701Y187851D01*
X28790Y187808D01*
X28881Y187769D01*
X28974Y187733D01*
X29067Y187701D01*
X29162Y187673D01*
X29258Y187648D01*
X29355Y187627D01*
X29453Y187610D01*
X29551Y187596D01*
X29650Y187587D01*
X29749Y187581D01*
X29848Y187579D01*
X32268Y189308D02*
X32373Y189529D01*
X32472Y189753D01*
X32566Y189979D01*
X32654Y190207D01*
X32737Y190438D01*
X32815Y190670D01*
X32887Y190904D01*
X32953Y191140D01*
X33014Y191377D01*
X33069Y191615D01*
X33119Y191855D01*
X33162Y192096D01*
X33200Y192338D01*
X33232Y192581D01*
X33258Y192824D01*
X33279Y193068D01*
X33293Y193312D01*
X33302Y193557D01*
X33305Y193802D01*
X32268Y189307D02*
X32234Y189214D01*
X32196Y189122D01*
X32155Y189032D01*
X32111Y188944D01*
X32063Y188857D01*
X32011Y188772D01*
X31957Y188689D01*
X31899Y188609D01*
X31838Y188530D01*
X31775Y188454D01*
X31708Y188381D01*
X31638Y188310D01*
X31566Y188242D01*
X31492Y188177D01*
X31414Y188115D01*
X31335Y188055D01*
X31253Y187999D01*
X31169Y187947D01*
X31083Y187897D01*
X30996Y187851D01*
X30906Y187808D01*
X30815Y187769D01*
X30722Y187733D01*
X30629Y187701D01*
X30534Y187673D01*
X30438Y187648D01*
X30341Y187627D01*
X30243Y187610D01*
X30145Y187596D01*
X30046Y187587D01*
X29947Y187581D01*
X29848Y187579D01*
X27082Y190345D02*
X32614Y197259D01*
X39192Y197259D02*
X42649Y200025D01*
X42649Y187579D01*
X39192Y187579D02*
X46107Y187579D01*
X54759Y193111D02*
X58908Y193111D01*
X54759Y193110D02*
X54656Y193112D01*
X54552Y193118D01*
X54449Y193127D01*
X54347Y193141D01*
X54245Y193158D01*
X54144Y193179D01*
X54043Y193204D01*
X53944Y193233D01*
X53845Y193265D01*
X53748Y193301D01*
X53653Y193341D01*
X53559Y193384D01*
X53467Y193431D01*
X53376Y193481D01*
X53287Y193534D01*
X53201Y193591D01*
X53116Y193650D01*
X53034Y193713D01*
X52955Y193779D01*
X52878Y193848D01*
X52803Y193920D01*
X52731Y193995D01*
X52662Y194072D01*
X52596Y194151D01*
X52533Y194234D01*
X52474Y194318D01*
X52417Y194404D01*
X52364Y194493D01*
X52314Y194584D01*
X52267Y194676D01*
X52224Y194770D01*
X52184Y194865D01*
X52148Y194962D01*
X52116Y195061D01*
X52087Y195160D01*
X52062Y195261D01*
X52041Y195362D01*
X52024Y195464D01*
X52010Y195566D01*
X52001Y195669D01*
X51995Y195773D01*
X51993Y195876D01*
X51994Y195876D02*
X51994Y196568D01*
X51996Y196685D01*
X52002Y196801D01*
X52012Y196918D01*
X52026Y197034D01*
X52043Y197149D01*
X52065Y197264D01*
X52090Y197378D01*
X52119Y197491D01*
X52153Y197603D01*
X52189Y197714D01*
X52230Y197823D01*
X52274Y197931D01*
X52322Y198038D01*
X52373Y198143D01*
X52428Y198246D01*
X52487Y198347D01*
X52549Y198446D01*
X52614Y198543D01*
X52682Y198638D01*
X52753Y198730D01*
X52828Y198820D01*
X52906Y198907D01*
X52986Y198992D01*
X53069Y199074D01*
X53155Y199153D01*
X53244Y199229D01*
X53335Y199302D01*
X53428Y199372D01*
X53524Y199438D01*
X53622Y199502D01*
X53723Y199562D01*
X53825Y199619D01*
X53929Y199672D01*
X54034Y199721D01*
X54142Y199767D01*
X54250Y199810D01*
X54361Y199849D01*
X54472Y199883D01*
X54584Y199915D01*
X54698Y199942D01*
X54812Y199966D01*
X54928Y199985D01*
X55043Y200001D01*
X55159Y200013D01*
X55276Y200021D01*
X55393Y200025D01*
X55509Y200025D01*
X55626Y200021D01*
X55743Y200013D01*
X55859Y200001D01*
X55974Y199985D01*
X56090Y199966D01*
X56204Y199942D01*
X56318Y199915D01*
X56430Y199883D01*
X56541Y199849D01*
X56652Y199810D01*
X56760Y199767D01*
X56868Y199721D01*
X56973Y199672D01*
X57077Y199619D01*
X57180Y199562D01*
X57280Y199502D01*
X57378Y199438D01*
X57474Y199372D01*
X57567Y199302D01*
X57658Y199229D01*
X57747Y199153D01*
X57833Y199074D01*
X57916Y198992D01*
X57996Y198907D01*
X58074Y198820D01*
X58149Y198730D01*
X58220Y198638D01*
X58288Y198543D01*
X58353Y198446D01*
X58415Y198347D01*
X58474Y198246D01*
X58529Y198143D01*
X58580Y198038D01*
X58628Y197931D01*
X58672Y197823D01*
X58713Y197714D01*
X58749Y197603D01*
X58783Y197491D01*
X58812Y197378D01*
X58837Y197264D01*
X58859Y197149D01*
X58876Y197034D01*
X58890Y196918D01*
X58900Y196801D01*
X58906Y196685D01*
X58908Y196568D01*
X58908Y193111D01*
X58909Y193111D02*
X58907Y192964D01*
X58901Y192817D01*
X58891Y192670D01*
X58878Y192523D01*
X58860Y192377D01*
X58839Y192231D01*
X58813Y192086D01*
X58784Y191942D01*
X58751Y191798D01*
X58714Y191656D01*
X58673Y191514D01*
X58629Y191374D01*
X58581Y191234D01*
X58529Y191096D01*
X58474Y190960D01*
X58415Y190825D01*
X58352Y190692D01*
X58286Y190560D01*
X58216Y190430D01*
X58143Y190303D01*
X58067Y190177D01*
X57987Y190053D01*
X57904Y189931D01*
X57818Y189812D01*
X57728Y189695D01*
X57636Y189580D01*
X57540Y189468D01*
X57442Y189359D01*
X57340Y189252D01*
X57236Y189148D01*
X57129Y189046D01*
X57020Y188948D01*
X56908Y188852D01*
X56793Y188760D01*
X56676Y188670D01*
X56557Y188584D01*
X56435Y188501D01*
X56311Y188421D01*
X56185Y188345D01*
X56058Y188272D01*
X55928Y188202D01*
X55796Y188136D01*
X55663Y188073D01*
X55528Y188014D01*
X55392Y187959D01*
X55254Y187907D01*
X55114Y187859D01*
X54974Y187815D01*
X54832Y187774D01*
X54690Y187737D01*
X54546Y187704D01*
X54402Y187675D01*
X54257Y187649D01*
X54111Y187628D01*
X53965Y187610D01*
X53818Y187597D01*
X53671Y187587D01*
X53524Y187581D01*
X53377Y187579D01*
D11*
X121920Y76200D02*
X121920Y50800D01*
X121920Y76200D02*
X134620Y76200D01*
X134620Y50800D01*
X121920Y50800D01*
X134620Y191770D02*
X134620Y217170D01*
X134620Y191770D02*
X121920Y191770D01*
X121920Y217170D01*
X134620Y217170D01*
X138430Y184150D02*
X138430Y158750D01*
X138430Y184150D02*
X151130Y184150D01*
X151130Y158750D01*
X138430Y158750D01*
X138430Y107950D02*
X138430Y82550D01*
X138430Y107950D02*
X151130Y107950D01*
X151130Y82550D01*
X138430Y82550D01*
X50800Y85090D02*
X50800Y110490D01*
X63500Y110490D01*
X63500Y85090D01*
X50800Y85090D01*
X47600Y252550D02*
X92100Y252550D01*
X92100Y230050D01*
X47600Y230050D01*
X47600Y252550D01*
X155550Y230050D02*
X200050Y230050D01*
X155550Y230050D02*
X155550Y252550D01*
X200050Y252550D01*
X200050Y230050D01*
X95250Y266700D02*
X95250Y292100D01*
X44450Y292100D01*
X44450Y266700D01*
X95250Y266700D01*
X152400Y266700D02*
X152400Y292100D01*
X152400Y266700D02*
X203200Y266700D01*
X203200Y292100D01*
X152400Y292100D01*
X269762Y83400D02*
X344762Y83400D01*
X333512Y30900D02*
X269762Y30900D01*
X302262Y28400D02*
X298512Y85900D01*
X304762Y85900D02*
X308512Y28400D01*
X314762Y28400D02*
X311012Y85900D01*
X317262Y85900D02*
X321012Y28400D01*
X327262Y28400D02*
X323512Y85900D01*
D12*
X156633Y22352D02*
X154037Y13264D01*
X160528Y13264D01*
X158581Y15861D02*
X158581Y10668D01*
X165467Y16510D02*
X165470Y16740D01*
X165478Y16970D01*
X165492Y17199D01*
X165511Y17428D01*
X165536Y17657D01*
X165566Y17884D01*
X165601Y18112D01*
X165642Y18338D01*
X165688Y18563D01*
X165740Y18787D01*
X165797Y19009D01*
X165859Y19231D01*
X165927Y19450D01*
X166000Y19668D01*
X166078Y19885D01*
X166161Y20099D01*
X166249Y20311D01*
X166342Y20521D01*
X166441Y20729D01*
X166474Y20819D01*
X166510Y20908D01*
X166550Y20996D01*
X166594Y21081D01*
X166641Y21165D01*
X166691Y21247D01*
X166745Y21327D01*
X166801Y21404D01*
X166861Y21480D01*
X166924Y21553D01*
X166989Y21623D01*
X167058Y21691D01*
X167129Y21755D01*
X167202Y21817D01*
X167278Y21876D01*
X167356Y21932D01*
X167437Y21985D01*
X167519Y22034D01*
X167603Y22080D01*
X167690Y22123D01*
X167777Y22162D01*
X167867Y22198D01*
X167957Y22230D01*
X168049Y22258D01*
X168142Y22283D01*
X168236Y22304D01*
X168330Y22321D01*
X168425Y22335D01*
X168521Y22344D01*
X168617Y22350D01*
X168713Y22352D01*
X168809Y22350D01*
X168905Y22344D01*
X169001Y22335D01*
X169096Y22321D01*
X169190Y22304D01*
X169284Y22283D01*
X169377Y22258D01*
X169469Y22230D01*
X169559Y22198D01*
X169649Y22162D01*
X169736Y22123D01*
X169823Y22080D01*
X169907Y22034D01*
X169989Y21985D01*
X170070Y21932D01*
X170148Y21876D01*
X170224Y21817D01*
X170297Y21755D01*
X170368Y21691D01*
X170437Y21623D01*
X170502Y21553D01*
X170565Y21480D01*
X170625Y21404D01*
X170681Y21327D01*
X170735Y21247D01*
X170785Y21165D01*
X170832Y21081D01*
X170876Y20996D01*
X170916Y20908D01*
X170952Y20819D01*
X170985Y20729D01*
X171084Y20522D01*
X171177Y20312D01*
X171265Y20099D01*
X171348Y19885D01*
X171426Y19669D01*
X171499Y19451D01*
X171567Y19231D01*
X171629Y19010D01*
X171686Y18787D01*
X171738Y18563D01*
X171784Y18338D01*
X171825Y18112D01*
X171860Y17885D01*
X171890Y17657D01*
X171915Y17428D01*
X171934Y17199D01*
X171948Y16970D01*
X171956Y16740D01*
X171959Y16510D01*
X165467Y16510D02*
X165470Y16280D01*
X165478Y16050D01*
X165492Y15821D01*
X165511Y15592D01*
X165536Y15363D01*
X165566Y15135D01*
X165601Y14908D01*
X165642Y14682D01*
X165688Y14457D01*
X165740Y14233D01*
X165797Y14010D01*
X165859Y13789D01*
X165927Y13569D01*
X166000Y13351D01*
X166078Y13135D01*
X166161Y12921D01*
X166249Y12709D01*
X166342Y12498D01*
X166441Y12291D01*
X166474Y12201D01*
X166510Y12112D01*
X166551Y12024D01*
X166594Y11939D01*
X166641Y11855D01*
X166691Y11773D01*
X166745Y11693D01*
X166801Y11616D01*
X166861Y11540D01*
X166924Y11467D01*
X166989Y11397D01*
X167058Y11329D01*
X167129Y11265D01*
X167202Y11203D01*
X167278Y11144D01*
X167356Y11088D01*
X167437Y11035D01*
X167519Y10986D01*
X167603Y10940D01*
X167690Y10897D01*
X167777Y10858D01*
X167867Y10822D01*
X167957Y10790D01*
X168049Y10762D01*
X168142Y10737D01*
X168236Y10716D01*
X168330Y10699D01*
X168425Y10685D01*
X168521Y10676D01*
X168617Y10670D01*
X168713Y10668D01*
X170984Y12291D02*
X171083Y12498D01*
X171176Y12709D01*
X171264Y12921D01*
X171347Y13135D01*
X171425Y13351D01*
X171498Y13569D01*
X171566Y13789D01*
X171628Y14010D01*
X171685Y14233D01*
X171737Y14457D01*
X171783Y14682D01*
X171824Y14908D01*
X171859Y15135D01*
X171889Y15363D01*
X171914Y15592D01*
X171933Y15821D01*
X171947Y16050D01*
X171955Y16280D01*
X171958Y16510D01*
X170985Y12291D02*
X170952Y12201D01*
X170916Y12112D01*
X170876Y12024D01*
X170832Y11939D01*
X170785Y11855D01*
X170735Y11773D01*
X170681Y11693D01*
X170625Y11616D01*
X170565Y11540D01*
X170502Y11467D01*
X170437Y11397D01*
X170368Y11329D01*
X170297Y11265D01*
X170224Y11203D01*
X170148Y11144D01*
X170070Y11088D01*
X169989Y11035D01*
X169907Y10986D01*
X169823Y10940D01*
X169736Y10897D01*
X169649Y10858D01*
X169559Y10822D01*
X169469Y10790D01*
X169377Y10762D01*
X169284Y10737D01*
X169190Y10716D01*
X169096Y10699D01*
X169001Y10685D01*
X168905Y10676D01*
X168809Y10670D01*
X168713Y10668D01*
X166116Y13264D02*
X171309Y19756D01*
X181596Y23650D02*
X176403Y9370D01*
X186041Y10668D02*
X189286Y10668D01*
X189399Y10670D01*
X189512Y10676D01*
X189625Y10686D01*
X189738Y10700D01*
X189850Y10717D01*
X189961Y10739D01*
X190071Y10764D01*
X190181Y10794D01*
X190289Y10827D01*
X190396Y10864D01*
X190502Y10904D01*
X190606Y10949D01*
X190709Y10997D01*
X190810Y11048D01*
X190909Y11103D01*
X191006Y11161D01*
X191101Y11223D01*
X191194Y11288D01*
X191284Y11356D01*
X191372Y11427D01*
X191458Y11502D01*
X191541Y11579D01*
X191621Y11659D01*
X191698Y11742D01*
X191773Y11828D01*
X191844Y11916D01*
X191912Y12006D01*
X191977Y12099D01*
X192039Y12194D01*
X192097Y12291D01*
X192152Y12390D01*
X192203Y12491D01*
X192251Y12594D01*
X192296Y12698D01*
X192336Y12804D01*
X192373Y12911D01*
X192406Y13019D01*
X192436Y13129D01*
X192461Y13239D01*
X192483Y13350D01*
X192500Y13462D01*
X192514Y13575D01*
X192524Y13688D01*
X192530Y13801D01*
X192532Y13914D01*
X192530Y14027D01*
X192524Y14140D01*
X192514Y14253D01*
X192500Y14366D01*
X192483Y14478D01*
X192461Y14589D01*
X192436Y14699D01*
X192406Y14809D01*
X192373Y14917D01*
X192336Y15024D01*
X192296Y15130D01*
X192251Y15234D01*
X192203Y15337D01*
X192152Y15438D01*
X192097Y15537D01*
X192039Y15634D01*
X191977Y15729D01*
X191912Y15822D01*
X191844Y15912D01*
X191773Y16000D01*
X191698Y16086D01*
X191621Y16169D01*
X191541Y16249D01*
X191458Y16326D01*
X191372Y16401D01*
X191284Y16472D01*
X191194Y16540D01*
X191101Y16605D01*
X191006Y16667D01*
X190909Y16725D01*
X190810Y16780D01*
X190709Y16831D01*
X190606Y16879D01*
X190502Y16924D01*
X190396Y16964D01*
X190289Y17001D01*
X190181Y17034D01*
X190071Y17064D01*
X189961Y17089D01*
X189850Y17111D01*
X189738Y17128D01*
X189625Y17142D01*
X189512Y17152D01*
X189399Y17158D01*
X189286Y17160D01*
X189936Y22352D02*
X186041Y22352D01*
X189936Y22352D02*
X190037Y22350D01*
X190137Y22344D01*
X190237Y22334D01*
X190337Y22321D01*
X190436Y22303D01*
X190535Y22282D01*
X190632Y22257D01*
X190729Y22228D01*
X190824Y22195D01*
X190918Y22159D01*
X191010Y22119D01*
X191101Y22076D01*
X191190Y22029D01*
X191277Y21979D01*
X191363Y21925D01*
X191446Y21868D01*
X191526Y21808D01*
X191605Y21745D01*
X191681Y21678D01*
X191754Y21609D01*
X191824Y21537D01*
X191892Y21463D01*
X191957Y21386D01*
X192018Y21306D01*
X192077Y21224D01*
X192132Y21140D01*
X192184Y21054D01*
X192233Y20966D01*
X192278Y20876D01*
X192320Y20784D01*
X192358Y20691D01*
X192392Y20596D01*
X192423Y20501D01*
X192450Y20404D01*
X192473Y20306D01*
X192493Y20207D01*
X192508Y20107D01*
X192520Y20007D01*
X192528Y19907D01*
X192532Y19806D01*
X192532Y19706D01*
X192528Y19605D01*
X192520Y19505D01*
X192508Y19405D01*
X192493Y19305D01*
X192473Y19206D01*
X192450Y19108D01*
X192423Y19011D01*
X192392Y18916D01*
X192358Y18821D01*
X192320Y18728D01*
X192278Y18636D01*
X192233Y18546D01*
X192184Y18458D01*
X192132Y18372D01*
X192077Y18288D01*
X192018Y18206D01*
X191957Y18126D01*
X191892Y18049D01*
X191824Y17975D01*
X191754Y17903D01*
X191681Y17834D01*
X191605Y17767D01*
X191526Y17704D01*
X191446Y17644D01*
X191363Y17587D01*
X191277Y17533D01*
X191190Y17483D01*
X191101Y17436D01*
X191010Y17393D01*
X190918Y17353D01*
X190824Y17317D01*
X190729Y17284D01*
X190632Y17255D01*
X190535Y17230D01*
X190436Y17209D01*
X190337Y17191D01*
X190237Y17178D01*
X190137Y17168D01*
X190037Y17162D01*
X189936Y17160D01*
X189936Y17159D02*
X187339Y17159D01*
X197471Y16510D02*
X197474Y16740D01*
X197482Y16970D01*
X197496Y17199D01*
X197515Y17428D01*
X197540Y17657D01*
X197570Y17884D01*
X197605Y18112D01*
X197646Y18338D01*
X197692Y18563D01*
X197744Y18787D01*
X197801Y19009D01*
X197863Y19231D01*
X197931Y19450D01*
X198004Y19668D01*
X198082Y19885D01*
X198165Y20099D01*
X198253Y20311D01*
X198346Y20521D01*
X198445Y20729D01*
X198444Y20729D02*
X198477Y20819D01*
X198513Y20908D01*
X198553Y20996D01*
X198597Y21081D01*
X198644Y21165D01*
X198694Y21247D01*
X198748Y21327D01*
X198804Y21404D01*
X198864Y21480D01*
X198927Y21553D01*
X198992Y21623D01*
X199061Y21691D01*
X199132Y21755D01*
X199205Y21817D01*
X199281Y21876D01*
X199359Y21932D01*
X199440Y21985D01*
X199522Y22034D01*
X199606Y22080D01*
X199693Y22123D01*
X199780Y22162D01*
X199870Y22198D01*
X199960Y22230D01*
X200052Y22258D01*
X200145Y22283D01*
X200239Y22304D01*
X200333Y22321D01*
X200428Y22335D01*
X200524Y22344D01*
X200620Y22350D01*
X200716Y22352D01*
X200812Y22350D01*
X200908Y22344D01*
X201004Y22335D01*
X201099Y22321D01*
X201193Y22304D01*
X201287Y22283D01*
X201380Y22258D01*
X201472Y22230D01*
X201562Y22198D01*
X201652Y22162D01*
X201739Y22123D01*
X201826Y22080D01*
X201910Y22034D01*
X201992Y21985D01*
X202073Y21932D01*
X202151Y21876D01*
X202227Y21817D01*
X202300Y21755D01*
X202371Y21691D01*
X202440Y21623D01*
X202505Y21553D01*
X202568Y21480D01*
X202628Y21404D01*
X202684Y21327D01*
X202738Y21247D01*
X202788Y21165D01*
X202835Y21081D01*
X202879Y20996D01*
X202919Y20908D01*
X202955Y20819D01*
X202988Y20729D01*
X202989Y20729D02*
X203088Y20522D01*
X203181Y20312D01*
X203269Y20099D01*
X203352Y19885D01*
X203430Y19669D01*
X203503Y19451D01*
X203571Y19231D01*
X203633Y19010D01*
X203690Y18787D01*
X203742Y18563D01*
X203788Y18338D01*
X203829Y18112D01*
X203864Y17885D01*
X203894Y17657D01*
X203919Y17428D01*
X203938Y17199D01*
X203952Y16970D01*
X203960Y16740D01*
X203963Y16510D01*
X197471Y16510D02*
X197474Y16280D01*
X197482Y16050D01*
X197496Y15821D01*
X197515Y15592D01*
X197540Y15363D01*
X197570Y15135D01*
X197605Y14908D01*
X197646Y14682D01*
X197692Y14457D01*
X197744Y14233D01*
X197801Y14010D01*
X197863Y13789D01*
X197931Y13569D01*
X198004Y13351D01*
X198082Y13135D01*
X198165Y12921D01*
X198253Y12709D01*
X198346Y12498D01*
X198445Y12291D01*
X198444Y12291D02*
X198477Y12201D01*
X198513Y12112D01*
X198554Y12024D01*
X198597Y11939D01*
X198644Y11855D01*
X198694Y11773D01*
X198748Y11693D01*
X198804Y11616D01*
X198864Y11540D01*
X198927Y11467D01*
X198992Y11397D01*
X199061Y11329D01*
X199132Y11265D01*
X199205Y11203D01*
X199281Y11144D01*
X199359Y11088D01*
X199440Y11035D01*
X199522Y10986D01*
X199606Y10940D01*
X199693Y10897D01*
X199780Y10858D01*
X199870Y10822D01*
X199960Y10790D01*
X200052Y10762D01*
X200145Y10737D01*
X200239Y10716D01*
X200333Y10699D01*
X200428Y10685D01*
X200524Y10676D01*
X200620Y10670D01*
X200716Y10668D01*
X202988Y12291D02*
X203087Y12498D01*
X203180Y12709D01*
X203268Y12921D01*
X203351Y13135D01*
X203429Y13351D01*
X203502Y13569D01*
X203570Y13789D01*
X203632Y14010D01*
X203689Y14233D01*
X203741Y14457D01*
X203787Y14682D01*
X203828Y14908D01*
X203863Y15135D01*
X203893Y15363D01*
X203918Y15592D01*
X203937Y15821D01*
X203951Y16050D01*
X203959Y16280D01*
X203962Y16510D01*
X202988Y12291D02*
X202955Y12201D01*
X202919Y12112D01*
X202879Y12024D01*
X202835Y11939D01*
X202788Y11855D01*
X202738Y11773D01*
X202684Y11693D01*
X202628Y11616D01*
X202568Y11540D01*
X202505Y11467D01*
X202440Y11397D01*
X202371Y11329D01*
X202300Y11265D01*
X202227Y11203D01*
X202151Y11144D01*
X202073Y11088D01*
X201992Y11035D01*
X201910Y10986D01*
X201826Y10940D01*
X201739Y10897D01*
X201652Y10858D01*
X201562Y10822D01*
X201472Y10790D01*
X201380Y10762D01*
X201287Y10737D01*
X201193Y10716D01*
X201099Y10699D01*
X201004Y10685D01*
X200908Y10676D01*
X200812Y10670D01*
X200716Y10668D01*
X198120Y13264D02*
X203313Y19756D01*
D11*
X269762Y235800D02*
X344762Y235800D01*
X333512Y183300D02*
X269762Y183300D01*
X302262Y180800D02*
X298512Y238300D01*
X304762Y238300D02*
X308512Y180800D01*
X314762Y180800D02*
X311012Y238300D01*
X317262Y238300D02*
X321012Y180800D01*
X327262Y180800D02*
X323512Y238300D01*
D12*
X156633Y174752D02*
X154037Y165664D01*
X160528Y165664D01*
X158581Y168261D02*
X158581Y163068D01*
X165467Y168910D02*
X165470Y169140D01*
X165478Y169370D01*
X165492Y169599D01*
X165511Y169828D01*
X165536Y170057D01*
X165566Y170284D01*
X165601Y170512D01*
X165642Y170738D01*
X165688Y170963D01*
X165740Y171187D01*
X165797Y171409D01*
X165859Y171631D01*
X165927Y171850D01*
X166000Y172068D01*
X166078Y172285D01*
X166161Y172499D01*
X166249Y172711D01*
X166342Y172921D01*
X166441Y173129D01*
X166474Y173219D01*
X166510Y173308D01*
X166550Y173396D01*
X166594Y173481D01*
X166641Y173565D01*
X166691Y173647D01*
X166745Y173727D01*
X166801Y173804D01*
X166861Y173880D01*
X166924Y173953D01*
X166989Y174023D01*
X167058Y174091D01*
X167129Y174155D01*
X167202Y174217D01*
X167278Y174276D01*
X167356Y174332D01*
X167437Y174385D01*
X167519Y174434D01*
X167603Y174480D01*
X167690Y174523D01*
X167777Y174562D01*
X167867Y174598D01*
X167957Y174630D01*
X168049Y174658D01*
X168142Y174683D01*
X168236Y174704D01*
X168330Y174721D01*
X168425Y174735D01*
X168521Y174744D01*
X168617Y174750D01*
X168713Y174752D01*
X168809Y174750D01*
X168905Y174744D01*
X169001Y174735D01*
X169096Y174721D01*
X169190Y174704D01*
X169284Y174683D01*
X169377Y174658D01*
X169469Y174630D01*
X169559Y174598D01*
X169649Y174562D01*
X169736Y174523D01*
X169823Y174480D01*
X169907Y174434D01*
X169989Y174385D01*
X170070Y174332D01*
X170148Y174276D01*
X170224Y174217D01*
X170297Y174155D01*
X170368Y174091D01*
X170437Y174023D01*
X170502Y173953D01*
X170565Y173880D01*
X170625Y173804D01*
X170681Y173727D01*
X170735Y173647D01*
X170785Y173565D01*
X170832Y173481D01*
X170876Y173396D01*
X170916Y173308D01*
X170952Y173219D01*
X170985Y173129D01*
X171084Y172922D01*
X171177Y172712D01*
X171265Y172499D01*
X171348Y172285D01*
X171426Y172069D01*
X171499Y171851D01*
X171567Y171631D01*
X171629Y171410D01*
X171686Y171187D01*
X171738Y170963D01*
X171784Y170738D01*
X171825Y170512D01*
X171860Y170285D01*
X171890Y170057D01*
X171915Y169828D01*
X171934Y169599D01*
X171948Y169370D01*
X171956Y169140D01*
X171959Y168910D01*
X165467Y168910D02*
X165470Y168680D01*
X165478Y168450D01*
X165492Y168221D01*
X165511Y167992D01*
X165536Y167763D01*
X165566Y167535D01*
X165601Y167308D01*
X165642Y167082D01*
X165688Y166857D01*
X165740Y166633D01*
X165797Y166410D01*
X165859Y166189D01*
X165927Y165969D01*
X166000Y165751D01*
X166078Y165535D01*
X166161Y165321D01*
X166249Y165109D01*
X166342Y164898D01*
X166441Y164691D01*
X166474Y164601D01*
X166510Y164512D01*
X166551Y164424D01*
X166594Y164339D01*
X166641Y164255D01*
X166691Y164173D01*
X166745Y164093D01*
X166801Y164016D01*
X166861Y163940D01*
X166924Y163867D01*
X166989Y163797D01*
X167058Y163729D01*
X167129Y163665D01*
X167202Y163603D01*
X167278Y163544D01*
X167356Y163488D01*
X167437Y163435D01*
X167519Y163386D01*
X167603Y163340D01*
X167690Y163297D01*
X167777Y163258D01*
X167867Y163222D01*
X167957Y163190D01*
X168049Y163162D01*
X168142Y163137D01*
X168236Y163116D01*
X168330Y163099D01*
X168425Y163085D01*
X168521Y163076D01*
X168617Y163070D01*
X168713Y163068D01*
X170984Y164691D02*
X171083Y164898D01*
X171176Y165109D01*
X171264Y165321D01*
X171347Y165535D01*
X171425Y165751D01*
X171498Y165969D01*
X171566Y166189D01*
X171628Y166410D01*
X171685Y166633D01*
X171737Y166857D01*
X171783Y167082D01*
X171824Y167308D01*
X171859Y167535D01*
X171889Y167763D01*
X171914Y167992D01*
X171933Y168221D01*
X171947Y168450D01*
X171955Y168680D01*
X171958Y168910D01*
X170985Y164691D02*
X170952Y164601D01*
X170916Y164512D01*
X170876Y164424D01*
X170832Y164339D01*
X170785Y164255D01*
X170735Y164173D01*
X170681Y164093D01*
X170625Y164016D01*
X170565Y163940D01*
X170502Y163867D01*
X170437Y163797D01*
X170368Y163729D01*
X170297Y163665D01*
X170224Y163603D01*
X170148Y163544D01*
X170070Y163488D01*
X169989Y163435D01*
X169907Y163386D01*
X169823Y163340D01*
X169736Y163297D01*
X169649Y163258D01*
X169559Y163222D01*
X169469Y163190D01*
X169377Y163162D01*
X169284Y163137D01*
X169190Y163116D01*
X169096Y163099D01*
X169001Y163085D01*
X168905Y163076D01*
X168809Y163070D01*
X168713Y163068D01*
X166116Y165664D02*
X171309Y172156D01*
X181596Y176050D02*
X176403Y161770D01*
X186041Y163068D02*
X189286Y163068D01*
X189399Y163070D01*
X189512Y163076D01*
X189625Y163086D01*
X189738Y163100D01*
X189850Y163117D01*
X189961Y163139D01*
X190071Y163164D01*
X190181Y163194D01*
X190289Y163227D01*
X190396Y163264D01*
X190502Y163304D01*
X190606Y163349D01*
X190709Y163397D01*
X190810Y163448D01*
X190909Y163503D01*
X191006Y163561D01*
X191101Y163623D01*
X191194Y163688D01*
X191284Y163756D01*
X191372Y163827D01*
X191458Y163902D01*
X191541Y163979D01*
X191621Y164059D01*
X191698Y164142D01*
X191773Y164228D01*
X191844Y164316D01*
X191912Y164406D01*
X191977Y164499D01*
X192039Y164594D01*
X192097Y164691D01*
X192152Y164790D01*
X192203Y164891D01*
X192251Y164994D01*
X192296Y165098D01*
X192336Y165204D01*
X192373Y165311D01*
X192406Y165419D01*
X192436Y165529D01*
X192461Y165639D01*
X192483Y165750D01*
X192500Y165862D01*
X192514Y165975D01*
X192524Y166088D01*
X192530Y166201D01*
X192532Y166314D01*
X192530Y166427D01*
X192524Y166540D01*
X192514Y166653D01*
X192500Y166766D01*
X192483Y166878D01*
X192461Y166989D01*
X192436Y167099D01*
X192406Y167209D01*
X192373Y167317D01*
X192336Y167424D01*
X192296Y167530D01*
X192251Y167634D01*
X192203Y167737D01*
X192152Y167838D01*
X192097Y167937D01*
X192039Y168034D01*
X191977Y168129D01*
X191912Y168222D01*
X191844Y168312D01*
X191773Y168400D01*
X191698Y168486D01*
X191621Y168569D01*
X191541Y168649D01*
X191458Y168726D01*
X191372Y168801D01*
X191284Y168872D01*
X191194Y168940D01*
X191101Y169005D01*
X191006Y169067D01*
X190909Y169125D01*
X190810Y169180D01*
X190709Y169231D01*
X190606Y169279D01*
X190502Y169324D01*
X190396Y169364D01*
X190289Y169401D01*
X190181Y169434D01*
X190071Y169464D01*
X189961Y169489D01*
X189850Y169511D01*
X189738Y169528D01*
X189625Y169542D01*
X189512Y169552D01*
X189399Y169558D01*
X189286Y169560D01*
X189936Y174752D02*
X186041Y174752D01*
X189936Y174752D02*
X190037Y174750D01*
X190137Y174744D01*
X190237Y174734D01*
X190337Y174721D01*
X190436Y174703D01*
X190535Y174682D01*
X190632Y174657D01*
X190729Y174628D01*
X190824Y174595D01*
X190918Y174559D01*
X191010Y174519D01*
X191101Y174476D01*
X191190Y174429D01*
X191277Y174379D01*
X191363Y174325D01*
X191446Y174268D01*
X191526Y174208D01*
X191605Y174145D01*
X191681Y174078D01*
X191754Y174009D01*
X191824Y173937D01*
X191892Y173863D01*
X191957Y173786D01*
X192018Y173706D01*
X192077Y173624D01*
X192132Y173540D01*
X192184Y173454D01*
X192233Y173366D01*
X192278Y173276D01*
X192320Y173184D01*
X192358Y173091D01*
X192392Y172996D01*
X192423Y172901D01*
X192450Y172804D01*
X192473Y172706D01*
X192493Y172607D01*
X192508Y172507D01*
X192520Y172407D01*
X192528Y172307D01*
X192532Y172206D01*
X192532Y172106D01*
X192528Y172005D01*
X192520Y171905D01*
X192508Y171805D01*
X192493Y171705D01*
X192473Y171606D01*
X192450Y171508D01*
X192423Y171411D01*
X192392Y171316D01*
X192358Y171221D01*
X192320Y171128D01*
X192278Y171036D01*
X192233Y170946D01*
X192184Y170858D01*
X192132Y170772D01*
X192077Y170688D01*
X192018Y170606D01*
X191957Y170526D01*
X191892Y170449D01*
X191824Y170375D01*
X191754Y170303D01*
X191681Y170234D01*
X191605Y170167D01*
X191526Y170104D01*
X191446Y170044D01*
X191363Y169987D01*
X191277Y169933D01*
X191190Y169883D01*
X191101Y169836D01*
X191010Y169793D01*
X190918Y169753D01*
X190824Y169717D01*
X190729Y169684D01*
X190632Y169655D01*
X190535Y169630D01*
X190436Y169609D01*
X190337Y169591D01*
X190237Y169578D01*
X190137Y169568D01*
X190037Y169562D01*
X189936Y169560D01*
X189936Y169559D02*
X187339Y169559D01*
X197471Y168910D02*
X197474Y169140D01*
X197482Y169370D01*
X197496Y169599D01*
X197515Y169828D01*
X197540Y170057D01*
X197570Y170284D01*
X197605Y170512D01*
X197646Y170738D01*
X197692Y170963D01*
X197744Y171187D01*
X197801Y171409D01*
X197863Y171631D01*
X197931Y171850D01*
X198004Y172068D01*
X198082Y172285D01*
X198165Y172499D01*
X198253Y172711D01*
X198346Y172921D01*
X198445Y173129D01*
X198444Y173129D02*
X198477Y173219D01*
X198513Y173308D01*
X198553Y173396D01*
X198597Y173481D01*
X198644Y173565D01*
X198694Y173647D01*
X198748Y173727D01*
X198804Y173804D01*
X198864Y173880D01*
X198927Y173953D01*
X198992Y174023D01*
X199061Y174091D01*
X199132Y174155D01*
X199205Y174217D01*
X199281Y174276D01*
X199359Y174332D01*
X199440Y174385D01*
X199522Y174434D01*
X199606Y174480D01*
X199693Y174523D01*
X199780Y174562D01*
X199870Y174598D01*
X199960Y174630D01*
X200052Y174658D01*
X200145Y174683D01*
X200239Y174704D01*
X200333Y174721D01*
X200428Y174735D01*
X200524Y174744D01*
X200620Y174750D01*
X200716Y174752D01*
X200812Y174750D01*
X200908Y174744D01*
X201004Y174735D01*
X201099Y174721D01*
X201193Y174704D01*
X201287Y174683D01*
X201380Y174658D01*
X201472Y174630D01*
X201562Y174598D01*
X201652Y174562D01*
X201739Y174523D01*
X201826Y174480D01*
X201910Y174434D01*
X201992Y174385D01*
X202073Y174332D01*
X202151Y174276D01*
X202227Y174217D01*
X202300Y174155D01*
X202371Y174091D01*
X202440Y174023D01*
X202505Y173953D01*
X202568Y173880D01*
X202628Y173804D01*
X202684Y173727D01*
X202738Y173647D01*
X202788Y173565D01*
X202835Y173481D01*
X202879Y173396D01*
X202919Y173308D01*
X202955Y173219D01*
X202988Y173129D01*
X202989Y173129D02*
X203088Y172922D01*
X203181Y172712D01*
X203269Y172499D01*
X203352Y172285D01*
X203430Y172069D01*
X203503Y171851D01*
X203571Y171631D01*
X203633Y171410D01*
X203690Y171187D01*
X203742Y170963D01*
X203788Y170738D01*
X203829Y170512D01*
X203864Y170285D01*
X203894Y170057D01*
X203919Y169828D01*
X203938Y169599D01*
X203952Y169370D01*
X203960Y169140D01*
X203963Y168910D01*
X197471Y168910D02*
X197474Y168680D01*
X197482Y168450D01*
X197496Y168221D01*
X197515Y167992D01*
X197540Y167763D01*
X197570Y167535D01*
X197605Y167308D01*
X197646Y167082D01*
X197692Y166857D01*
X197744Y166633D01*
X197801Y166410D01*
X197863Y166189D01*
X197931Y165969D01*
X198004Y165751D01*
X198082Y165535D01*
X198165Y165321D01*
X198253Y165109D01*
X198346Y164898D01*
X198445Y164691D01*
X198444Y164691D02*
X198477Y164601D01*
X198513Y164512D01*
X198554Y164424D01*
X198597Y164339D01*
X198644Y164255D01*
X198694Y164173D01*
X198748Y164093D01*
X198804Y164016D01*
X198864Y163940D01*
X198927Y163867D01*
X198992Y163797D01*
X199061Y163729D01*
X199132Y163665D01*
X199205Y163603D01*
X199281Y163544D01*
X199359Y163488D01*
X199440Y163435D01*
X199522Y163386D01*
X199606Y163340D01*
X199693Y163297D01*
X199780Y163258D01*
X199870Y163222D01*
X199960Y163190D01*
X200052Y163162D01*
X200145Y163137D01*
X200239Y163116D01*
X200333Y163099D01*
X200428Y163085D01*
X200524Y163076D01*
X200620Y163070D01*
X200716Y163068D01*
X202988Y164691D02*
X203087Y164898D01*
X203180Y165109D01*
X203268Y165321D01*
X203351Y165535D01*
X203429Y165751D01*
X203502Y165969D01*
X203570Y166189D01*
X203632Y166410D01*
X203689Y166633D01*
X203741Y166857D01*
X203787Y167082D01*
X203828Y167308D01*
X203863Y167535D01*
X203893Y167763D01*
X203918Y167992D01*
X203937Y168221D01*
X203951Y168450D01*
X203959Y168680D01*
X203962Y168910D01*
X202988Y164691D02*
X202955Y164601D01*
X202919Y164512D01*
X202879Y164424D01*
X202835Y164339D01*
X202788Y164255D01*
X202738Y164173D01*
X202684Y164093D01*
X202628Y164016D01*
X202568Y163940D01*
X202505Y163867D01*
X202440Y163797D01*
X202371Y163729D01*
X202300Y163665D01*
X202227Y163603D01*
X202151Y163544D01*
X202073Y163488D01*
X201992Y163435D01*
X201910Y163386D01*
X201826Y163340D01*
X201739Y163297D01*
X201652Y163258D01*
X201562Y163222D01*
X201472Y163190D01*
X201380Y163162D01*
X201287Y163137D01*
X201193Y163116D01*
X201099Y163099D01*
X201004Y163085D01*
X200908Y163076D01*
X200812Y163070D01*
X200716Y163068D01*
X198120Y165664D02*
X203313Y172156D01*
D11*
X-17032Y108370D02*
X-92032Y108370D01*
X-80782Y160870D02*
X-17032Y160870D01*
X-49532Y163370D02*
X-45782Y105870D01*
X-52032Y105870D02*
X-55782Y163370D01*
X-62032Y163370D02*
X-58282Y105870D01*
X-64532Y105870D02*
X-68282Y163370D01*
X-74532Y163370D02*
X-70782Y105870D01*
D12*
X48768Y172014D02*
X51364Y181102D01*
X48768Y172014D02*
X55259Y172014D01*
X53312Y174611D02*
X53312Y169418D01*
X60198Y175260D02*
X60201Y175490D01*
X60209Y175720D01*
X60223Y175949D01*
X60242Y176178D01*
X60267Y176407D01*
X60297Y176634D01*
X60332Y176862D01*
X60373Y177088D01*
X60419Y177313D01*
X60471Y177537D01*
X60528Y177759D01*
X60590Y177981D01*
X60658Y178200D01*
X60731Y178418D01*
X60809Y178635D01*
X60892Y178849D01*
X60980Y179061D01*
X61073Y179271D01*
X61172Y179479D01*
X61205Y179569D01*
X61241Y179658D01*
X61281Y179746D01*
X61325Y179831D01*
X61372Y179915D01*
X61422Y179997D01*
X61476Y180077D01*
X61532Y180154D01*
X61592Y180230D01*
X61655Y180303D01*
X61720Y180373D01*
X61789Y180441D01*
X61860Y180505D01*
X61933Y180567D01*
X62009Y180626D01*
X62087Y180682D01*
X62168Y180735D01*
X62250Y180784D01*
X62334Y180830D01*
X62421Y180873D01*
X62508Y180912D01*
X62598Y180948D01*
X62688Y180980D01*
X62780Y181008D01*
X62873Y181033D01*
X62967Y181054D01*
X63061Y181071D01*
X63156Y181085D01*
X63252Y181094D01*
X63348Y181100D01*
X63444Y181102D01*
X63540Y181100D01*
X63636Y181094D01*
X63732Y181085D01*
X63827Y181071D01*
X63921Y181054D01*
X64015Y181033D01*
X64108Y181008D01*
X64200Y180980D01*
X64290Y180948D01*
X64380Y180912D01*
X64467Y180873D01*
X64554Y180830D01*
X64638Y180784D01*
X64720Y180735D01*
X64801Y180682D01*
X64879Y180626D01*
X64955Y180567D01*
X65028Y180505D01*
X65099Y180441D01*
X65168Y180373D01*
X65233Y180303D01*
X65296Y180230D01*
X65356Y180154D01*
X65412Y180077D01*
X65466Y179997D01*
X65516Y179915D01*
X65563Y179831D01*
X65607Y179746D01*
X65647Y179658D01*
X65683Y179569D01*
X65716Y179479D01*
X65815Y179272D01*
X65908Y179062D01*
X65996Y178849D01*
X66079Y178635D01*
X66157Y178419D01*
X66230Y178201D01*
X66298Y177981D01*
X66360Y177760D01*
X66417Y177537D01*
X66469Y177313D01*
X66515Y177088D01*
X66556Y176862D01*
X66591Y176635D01*
X66621Y176407D01*
X66646Y176178D01*
X66665Y175949D01*
X66679Y175720D01*
X66687Y175490D01*
X66690Y175260D01*
X60198Y175260D02*
X60201Y175030D01*
X60209Y174800D01*
X60223Y174571D01*
X60242Y174342D01*
X60267Y174113D01*
X60297Y173885D01*
X60332Y173658D01*
X60373Y173432D01*
X60419Y173207D01*
X60471Y172983D01*
X60528Y172760D01*
X60590Y172539D01*
X60658Y172319D01*
X60731Y172101D01*
X60809Y171885D01*
X60892Y171671D01*
X60980Y171459D01*
X61073Y171248D01*
X61172Y171041D01*
X61205Y170951D01*
X61241Y170862D01*
X61282Y170774D01*
X61325Y170689D01*
X61372Y170605D01*
X61422Y170523D01*
X61476Y170443D01*
X61532Y170366D01*
X61592Y170290D01*
X61655Y170217D01*
X61720Y170147D01*
X61789Y170079D01*
X61860Y170015D01*
X61933Y169953D01*
X62009Y169894D01*
X62087Y169838D01*
X62168Y169785D01*
X62250Y169736D01*
X62334Y169690D01*
X62421Y169647D01*
X62508Y169608D01*
X62598Y169572D01*
X62688Y169540D01*
X62780Y169512D01*
X62873Y169487D01*
X62967Y169466D01*
X63061Y169449D01*
X63156Y169435D01*
X63252Y169426D01*
X63348Y169420D01*
X63444Y169418D01*
X65715Y171041D02*
X65814Y171248D01*
X65907Y171459D01*
X65995Y171671D01*
X66078Y171885D01*
X66156Y172101D01*
X66229Y172319D01*
X66297Y172539D01*
X66359Y172760D01*
X66416Y172983D01*
X66468Y173207D01*
X66514Y173432D01*
X66555Y173658D01*
X66590Y173885D01*
X66620Y174113D01*
X66645Y174342D01*
X66664Y174571D01*
X66678Y174800D01*
X66686Y175030D01*
X66689Y175260D01*
X65716Y171041D02*
X65683Y170951D01*
X65647Y170862D01*
X65607Y170774D01*
X65563Y170689D01*
X65516Y170605D01*
X65466Y170523D01*
X65412Y170443D01*
X65356Y170366D01*
X65296Y170290D01*
X65233Y170217D01*
X65168Y170147D01*
X65099Y170079D01*
X65028Y170015D01*
X64955Y169953D01*
X64879Y169894D01*
X64801Y169838D01*
X64720Y169785D01*
X64638Y169736D01*
X64554Y169690D01*
X64467Y169647D01*
X64380Y169608D01*
X64290Y169572D01*
X64200Y169540D01*
X64108Y169512D01*
X64015Y169487D01*
X63921Y169466D01*
X63827Y169449D01*
X63732Y169435D01*
X63636Y169426D01*
X63540Y169420D01*
X63444Y169418D01*
X60847Y172014D02*
X66040Y178506D01*
X76327Y182400D02*
X71134Y168120D01*
X80772Y169418D02*
X84017Y169418D01*
X84130Y169420D01*
X84243Y169426D01*
X84356Y169436D01*
X84469Y169450D01*
X84581Y169467D01*
X84692Y169489D01*
X84802Y169514D01*
X84912Y169544D01*
X85020Y169577D01*
X85127Y169614D01*
X85233Y169654D01*
X85337Y169699D01*
X85440Y169747D01*
X85541Y169798D01*
X85640Y169853D01*
X85737Y169911D01*
X85832Y169973D01*
X85925Y170038D01*
X86015Y170106D01*
X86103Y170177D01*
X86189Y170252D01*
X86272Y170329D01*
X86352Y170409D01*
X86429Y170492D01*
X86504Y170578D01*
X86575Y170666D01*
X86643Y170756D01*
X86708Y170849D01*
X86770Y170944D01*
X86828Y171041D01*
X86883Y171140D01*
X86934Y171241D01*
X86982Y171344D01*
X87027Y171448D01*
X87067Y171554D01*
X87104Y171661D01*
X87137Y171769D01*
X87167Y171879D01*
X87192Y171989D01*
X87214Y172100D01*
X87231Y172212D01*
X87245Y172325D01*
X87255Y172438D01*
X87261Y172551D01*
X87263Y172664D01*
X87261Y172777D01*
X87255Y172890D01*
X87245Y173003D01*
X87231Y173116D01*
X87214Y173228D01*
X87192Y173339D01*
X87167Y173449D01*
X87137Y173559D01*
X87104Y173667D01*
X87067Y173774D01*
X87027Y173880D01*
X86982Y173984D01*
X86934Y174087D01*
X86883Y174188D01*
X86828Y174287D01*
X86770Y174384D01*
X86708Y174479D01*
X86643Y174572D01*
X86575Y174662D01*
X86504Y174750D01*
X86429Y174836D01*
X86352Y174919D01*
X86272Y174999D01*
X86189Y175076D01*
X86103Y175151D01*
X86015Y175222D01*
X85925Y175290D01*
X85832Y175355D01*
X85737Y175417D01*
X85640Y175475D01*
X85541Y175530D01*
X85440Y175581D01*
X85337Y175629D01*
X85233Y175674D01*
X85127Y175714D01*
X85020Y175751D01*
X84912Y175784D01*
X84802Y175814D01*
X84692Y175839D01*
X84581Y175861D01*
X84469Y175878D01*
X84356Y175892D01*
X84243Y175902D01*
X84130Y175908D01*
X84017Y175910D01*
X84667Y181102D02*
X80772Y181102D01*
X84667Y181102D02*
X84768Y181100D01*
X84868Y181094D01*
X84968Y181084D01*
X85068Y181071D01*
X85167Y181053D01*
X85266Y181032D01*
X85363Y181007D01*
X85460Y180978D01*
X85555Y180945D01*
X85649Y180909D01*
X85741Y180869D01*
X85832Y180826D01*
X85921Y180779D01*
X86008Y180729D01*
X86094Y180675D01*
X86177Y180618D01*
X86257Y180558D01*
X86336Y180495D01*
X86412Y180428D01*
X86485Y180359D01*
X86555Y180287D01*
X86623Y180213D01*
X86688Y180136D01*
X86749Y180056D01*
X86808Y179974D01*
X86863Y179890D01*
X86915Y179804D01*
X86964Y179716D01*
X87009Y179626D01*
X87051Y179534D01*
X87089Y179441D01*
X87123Y179346D01*
X87154Y179251D01*
X87181Y179154D01*
X87204Y179056D01*
X87224Y178957D01*
X87239Y178857D01*
X87251Y178757D01*
X87259Y178657D01*
X87263Y178556D01*
X87263Y178456D01*
X87259Y178355D01*
X87251Y178255D01*
X87239Y178155D01*
X87224Y178055D01*
X87204Y177956D01*
X87181Y177858D01*
X87154Y177761D01*
X87123Y177666D01*
X87089Y177571D01*
X87051Y177478D01*
X87009Y177386D01*
X86964Y177296D01*
X86915Y177208D01*
X86863Y177122D01*
X86808Y177038D01*
X86749Y176956D01*
X86688Y176876D01*
X86623Y176799D01*
X86555Y176725D01*
X86485Y176653D01*
X86412Y176584D01*
X86336Y176517D01*
X86257Y176454D01*
X86177Y176394D01*
X86094Y176337D01*
X86008Y176283D01*
X85921Y176233D01*
X85832Y176186D01*
X85741Y176143D01*
X85649Y176103D01*
X85555Y176067D01*
X85460Y176034D01*
X85363Y176005D01*
X85266Y175980D01*
X85167Y175959D01*
X85068Y175941D01*
X84968Y175928D01*
X84868Y175918D01*
X84768Y175912D01*
X84667Y175910D01*
X84667Y175909D02*
X82070Y175909D01*
X92202Y175260D02*
X92205Y175490D01*
X92213Y175720D01*
X92227Y175949D01*
X92246Y176178D01*
X92271Y176407D01*
X92301Y176634D01*
X92336Y176862D01*
X92377Y177088D01*
X92423Y177313D01*
X92475Y177537D01*
X92532Y177759D01*
X92594Y177981D01*
X92662Y178200D01*
X92735Y178418D01*
X92813Y178635D01*
X92896Y178849D01*
X92984Y179061D01*
X93077Y179271D01*
X93176Y179479D01*
X93175Y179479D02*
X93208Y179569D01*
X93244Y179658D01*
X93284Y179746D01*
X93328Y179831D01*
X93375Y179915D01*
X93425Y179997D01*
X93479Y180077D01*
X93535Y180154D01*
X93595Y180230D01*
X93658Y180303D01*
X93723Y180373D01*
X93792Y180441D01*
X93863Y180505D01*
X93936Y180567D01*
X94012Y180626D01*
X94090Y180682D01*
X94171Y180735D01*
X94253Y180784D01*
X94337Y180830D01*
X94424Y180873D01*
X94511Y180912D01*
X94601Y180948D01*
X94691Y180980D01*
X94783Y181008D01*
X94876Y181033D01*
X94970Y181054D01*
X95064Y181071D01*
X95159Y181085D01*
X95255Y181094D01*
X95351Y181100D01*
X95447Y181102D01*
X95543Y181100D01*
X95639Y181094D01*
X95735Y181085D01*
X95830Y181071D01*
X95924Y181054D01*
X96018Y181033D01*
X96111Y181008D01*
X96203Y180980D01*
X96293Y180948D01*
X96383Y180912D01*
X96470Y180873D01*
X96557Y180830D01*
X96641Y180784D01*
X96723Y180735D01*
X96804Y180682D01*
X96882Y180626D01*
X96958Y180567D01*
X97031Y180505D01*
X97102Y180441D01*
X97171Y180373D01*
X97236Y180303D01*
X97299Y180230D01*
X97359Y180154D01*
X97415Y180077D01*
X97469Y179997D01*
X97519Y179915D01*
X97566Y179831D01*
X97610Y179746D01*
X97650Y179658D01*
X97686Y179569D01*
X97719Y179479D01*
X97720Y179479D02*
X97819Y179272D01*
X97912Y179062D01*
X98000Y178849D01*
X98083Y178635D01*
X98161Y178419D01*
X98234Y178201D01*
X98302Y177981D01*
X98364Y177760D01*
X98421Y177537D01*
X98473Y177313D01*
X98519Y177088D01*
X98560Y176862D01*
X98595Y176635D01*
X98625Y176407D01*
X98650Y176178D01*
X98669Y175949D01*
X98683Y175720D01*
X98691Y175490D01*
X98694Y175260D01*
X92202Y175260D02*
X92205Y175030D01*
X92213Y174800D01*
X92227Y174571D01*
X92246Y174342D01*
X92271Y174113D01*
X92301Y173885D01*
X92336Y173658D01*
X92377Y173432D01*
X92423Y173207D01*
X92475Y172983D01*
X92532Y172760D01*
X92594Y172539D01*
X92662Y172319D01*
X92735Y172101D01*
X92813Y171885D01*
X92896Y171671D01*
X92984Y171459D01*
X93077Y171248D01*
X93176Y171041D01*
X93175Y171041D02*
X93208Y170951D01*
X93244Y170862D01*
X93285Y170774D01*
X93328Y170689D01*
X93375Y170605D01*
X93425Y170523D01*
X93479Y170443D01*
X93535Y170366D01*
X93595Y170290D01*
X93658Y170217D01*
X93723Y170147D01*
X93792Y170079D01*
X93863Y170015D01*
X93936Y169953D01*
X94012Y169894D01*
X94090Y169838D01*
X94171Y169785D01*
X94253Y169736D01*
X94337Y169690D01*
X94424Y169647D01*
X94511Y169608D01*
X94601Y169572D01*
X94691Y169540D01*
X94783Y169512D01*
X94876Y169487D01*
X94970Y169466D01*
X95064Y169449D01*
X95159Y169435D01*
X95255Y169426D01*
X95351Y169420D01*
X95447Y169418D01*
X97719Y171041D02*
X97818Y171248D01*
X97911Y171459D01*
X97999Y171671D01*
X98082Y171885D01*
X98160Y172101D01*
X98233Y172319D01*
X98301Y172539D01*
X98363Y172760D01*
X98420Y172983D01*
X98472Y173207D01*
X98518Y173432D01*
X98559Y173658D01*
X98594Y173885D01*
X98624Y174113D01*
X98649Y174342D01*
X98668Y174571D01*
X98682Y174800D01*
X98690Y175030D01*
X98693Y175260D01*
X97719Y171041D02*
X97686Y170951D01*
X97650Y170862D01*
X97610Y170774D01*
X97566Y170689D01*
X97519Y170605D01*
X97469Y170523D01*
X97415Y170443D01*
X97359Y170366D01*
X97299Y170290D01*
X97236Y170217D01*
X97171Y170147D01*
X97102Y170079D01*
X97031Y170015D01*
X96958Y169953D01*
X96882Y169894D01*
X96804Y169838D01*
X96723Y169785D01*
X96641Y169736D01*
X96557Y169690D01*
X96470Y169647D01*
X96383Y169608D01*
X96293Y169572D01*
X96203Y169540D01*
X96111Y169512D01*
X96018Y169487D01*
X95924Y169466D01*
X95830Y169449D01*
X95735Y169435D01*
X95639Y169426D01*
X95543Y169420D01*
X95447Y169418D01*
X92851Y172014D02*
X98044Y178506D01*
D11*
X136430Y140050D02*
X140430Y140050D01*
X140430Y152050D02*
X139430Y152050D01*
X148430Y149050D02*
X148430Y143050D01*
X128430Y143050D02*
X128430Y149050D01*
X132430Y121380D02*
X132430Y117380D01*
X144430Y117380D02*
X144430Y118380D01*
X141430Y109380D02*
X135430Y109380D01*
X135430Y129380D02*
X141430Y129380D01*
X135270Y161260D02*
X135270Y189260D01*
X135270Y161260D02*
X121270Y161260D01*
X121270Y189260D01*
X135270Y189260D01*
X121270Y106710D02*
X121270Y78710D01*
X121270Y106710D02*
X135270Y106710D01*
X135270Y78710D01*
X121270Y78710D01*
X154290Y133320D02*
X154290Y161320D01*
X168290Y161320D01*
X168290Y133320D01*
X154290Y133320D01*
X75550Y166340D02*
X75550Y194340D01*
X89550Y194340D01*
X89550Y166340D01*
X75550Y166340D01*
X45750Y39990D02*
X17750Y39990D01*
X17750Y53990D01*
X45750Y53990D01*
X45750Y39990D01*
X45750Y73040D02*
X17750Y73040D01*
X45750Y73040D02*
X45750Y59040D01*
X17750Y59040D01*
X17750Y73040D01*
X107950Y147320D02*
X107950Y172720D01*
X107950Y147320D02*
X95250Y147320D01*
X95250Y172720D01*
X107950Y172720D01*
X63500Y171450D02*
X63500Y146050D01*
X50800Y146050D01*
X50800Y171450D01*
X63500Y171450D01*
X155550Y14150D02*
X200050Y14150D01*
X155550Y14150D02*
X155550Y36650D01*
X200050Y36650D01*
X200050Y14150D01*
D13*
X65010Y147080D03*
D11*
X95010Y147080D02*
X95010Y143080D01*
X95010Y147080D02*
X91010Y147080D01*
X95010Y121080D02*
X95010Y117080D01*
X91010Y117080D01*
X65010Y117080D02*
X65010Y121080D01*
X65010Y117080D02*
X69010Y117080D01*
X81900Y82580D02*
X81900Y54580D01*
X81900Y82580D02*
X95900Y82580D01*
X95900Y54580D01*
X81900Y54580D01*
X95250Y91440D02*
X95250Y116840D01*
X107950Y116840D01*
X107950Y91440D01*
X95250Y91440D01*
X66040Y85090D02*
X66040Y110490D01*
X78740Y110490D01*
X78740Y85090D01*
X66040Y85090D01*
X168290Y102840D02*
X168290Y130840D01*
X168290Y102840D02*
X154290Y102840D01*
X154290Y130840D01*
X168290Y130840D01*
M02*
