G04 EAGLE Gerber RS-274X export*
G75*
%MOMM*%
%FSLAX34Y34*%
%LPD*%
%INSolder stop mask CMP*%
%IPPOS*%
%AMOC8*
5,1,8,0,0,1.08239X$1,22.5*%
G01*
%ADD10R,0.927000X0.927000*%
%ADD11R,1.027000X1.727000*%
%ADD12P,2.226909X8X202.500000*%
%ADD13P,2.226909X8X22.500000*%
%ADD14R,4.699000X2.667000*%
%ADD15R,3.937000X1.143000*%
%ADD16C,0.630200*%
%ADD17R,0.727000X0.927000*%
%ADD18R,1.027000X0.927000*%
%ADD19R,0.927000X0.727000*%
%ADD20R,0.927000X1.027000*%
%ADD21R,1.077000X1.077000*%
%ADD22R,0.927000X0.427000*%
%ADD23R,0.427000X0.927000*%
%ADD24R,1.357000X1.357000*%


D10*
X128270Y56000D03*
X128270Y71000D03*
X128270Y211970D03*
X128270Y196970D03*
X144780Y163950D03*
X144780Y178950D03*
X144780Y87750D03*
X144780Y102750D03*
X57150Y90290D03*
X57150Y105290D03*
D11*
X54350Y241300D03*
X85350Y241300D03*
X193300Y241300D03*
X162300Y241300D03*
D12*
X57150Y279400D03*
X82550Y279400D03*
D13*
X190500Y279400D03*
X165100Y279400D03*
D14*
X231140Y90170D03*
X231140Y24130D03*
D15*
X234950Y57150D03*
D16*
X242570Y96520D03*
X217170Y96520D03*
X242570Y17780D03*
X217170Y17780D03*
X229870Y17780D03*
X229870Y96520D03*
D14*
X231140Y242570D03*
X231140Y176530D03*
D15*
X234950Y209550D03*
D16*
X242570Y248920D03*
X217170Y248920D03*
X242570Y170180D03*
X217170Y170180D03*
X229870Y170180D03*
X229870Y248920D03*
D14*
X21590Y101600D03*
X21590Y167640D03*
D15*
X17780Y134620D03*
D16*
X10160Y95250D03*
X35560Y95250D03*
X10160Y173990D03*
X35560Y173990D03*
X22860Y173990D03*
X22860Y95250D03*
D17*
X144930Y138050D03*
X131930Y138050D03*
X144930Y154050D03*
D18*
X133430Y154050D03*
D19*
X130430Y112880D03*
X130430Y125880D03*
X146430Y112880D03*
D20*
X146430Y124380D03*
D21*
X128270Y182510D03*
X128270Y168010D03*
X128270Y85460D03*
X128270Y99960D03*
X161290Y140070D03*
X161290Y154570D03*
X82550Y173090D03*
X82550Y187590D03*
X39000Y46990D03*
X24500Y46990D03*
X24500Y66040D03*
X39000Y66040D03*
D10*
X101600Y167520D03*
X101600Y152520D03*
X57150Y166250D03*
X57150Y151250D03*
D11*
X193300Y25400D03*
X162300Y25400D03*
D22*
X65760Y134580D03*
X65760Y139580D03*
X65760Y129580D03*
X65760Y124580D03*
X94260Y134580D03*
X94260Y139580D03*
X94260Y129580D03*
X94260Y124580D03*
D23*
X77510Y146330D03*
X72510Y146330D03*
X82510Y146330D03*
X87510Y146330D03*
X77510Y117830D03*
X72510Y117830D03*
X82510Y117830D03*
X87510Y117830D03*
D24*
X80010Y132080D03*
D21*
X88900Y61330D03*
X88900Y75830D03*
D10*
X101600Y96640D03*
X101600Y111640D03*
X72390Y90290D03*
X72390Y105290D03*
D21*
X161290Y124090D03*
X161290Y109590D03*
M02*
