G04 EAGLE Gerber RS-274X export*
G75*
%MOMM*%
%FSLAX34Y34*%
%LPD*%
%INTop Solder Paste*%
%IPPOS*%
%AMOC8*
5,1,8,0,0,1.08239X$1,22.5*%
G01*
%ADD10R,0.600000X0.700000*%
%ADD11R,1.500000X0.550000*%
%ADD12R,0.950000X0.950000*%
%ADD13R,0.800000X0.800000*%
%ADD14R,0.900000X1.300000*%
%ADD15R,1.400000X0.760000*%
%ADD16R,0.600000X0.600000*%
%ADD17R,0.600000X0.400000*%
%ADD18R,1.000000X0.600000*%
%ADD19R,4.572000X2.540000*%
%ADD20R,3.810000X1.016000*%
%ADD21R,0.700000X0.600000*%


D10*
X208360Y139700D03*
X218360Y139700D03*
X208360Y152400D03*
X218360Y152400D03*
X208360Y165100D03*
X218360Y165100D03*
X208360Y177800D03*
X218360Y177800D03*
D11*
X192100Y139700D03*
X192100Y152400D03*
X192100Y165100D03*
X192100Y177800D03*
X138100Y177800D03*
X138100Y165100D03*
X138100Y152400D03*
X138100Y139700D03*
D12*
X142240Y210450D03*
X142240Y195950D03*
X142240Y107050D03*
X142240Y121550D03*
X158750Y195950D03*
X158750Y210450D03*
X158750Y121550D03*
X158750Y107050D03*
X196850Y121550D03*
X196850Y107050D03*
X177800Y121550D03*
X177800Y107050D03*
X177800Y195950D03*
X177800Y210450D03*
X196850Y195950D03*
X196850Y210450D03*
D13*
X153550Y243840D03*
X138550Y243840D03*
X125730Y195700D03*
X125730Y210700D03*
D14*
X136500Y63500D03*
X117500Y63500D03*
D13*
X125730Y113150D03*
X125730Y128150D03*
X125850Y88900D03*
X140850Y88900D03*
X153550Y228600D03*
X138550Y228600D03*
X110490Y113150D03*
X110490Y128150D03*
D15*
X273690Y137160D03*
X273690Y124460D03*
X273690Y149860D03*
X239390Y124460D03*
X239390Y149860D03*
X273690Y180340D03*
X273690Y167640D03*
X273690Y193040D03*
X239390Y167640D03*
X239390Y193040D03*
X294000Y158750D03*
X294000Y171450D03*
X294000Y146050D03*
X328300Y171450D03*
X328300Y146050D03*
D16*
X386190Y151250D03*
X386190Y166250D03*
D17*
X386190Y158750D03*
D16*
X368190Y151250D03*
X368190Y166250D03*
D17*
X368190Y158750D03*
D10*
X354410Y177800D03*
X364410Y177800D03*
X354410Y139700D03*
X364410Y139700D03*
D18*
X346010Y60350D03*
X346010Y69850D03*
X346010Y79350D03*
X322010Y79350D03*
X322010Y60350D03*
D12*
X333110Y44450D03*
X347610Y44450D03*
X347610Y95250D03*
X333110Y95250D03*
D16*
X341520Y166250D03*
X341520Y151250D03*
D17*
X341520Y158750D03*
D16*
X359520Y166250D03*
X359520Y151250D03*
D17*
X359520Y158750D03*
D19*
X424180Y191770D03*
X424180Y125730D03*
D20*
X427990Y158750D03*
D19*
X22860Y54293D03*
X22860Y120333D03*
D20*
X19050Y87313D03*
D19*
X22860Y197168D03*
X22860Y263208D03*
D20*
X19050Y230188D03*
D21*
X396240Y144860D03*
X396240Y154860D03*
X396240Y162640D03*
X396240Y172640D03*
X364490Y199310D03*
X364490Y189310D03*
X364490Y128190D03*
X364490Y118190D03*
X353060Y189310D03*
X353060Y199310D03*
X353060Y118190D03*
X353060Y128190D03*
D10*
X394890Y184150D03*
X384890Y184150D03*
X394890Y133350D03*
X384890Y133350D03*
D13*
X304800Y77350D03*
X304800Y62350D03*
X364490Y56000D03*
X364490Y71000D03*
X391160Y40520D03*
X391160Y25520D03*
X391160Y61080D03*
X391160Y76080D03*
M02*
