G04 EAGLE Gerber RS-274X export*
G75*
%MOMM*%
%FSLAX34Y34*%
%LPD*%
%INTop Silkscreen *%
%IPPOS*%
%AMOC8*
5,1,8,0,0,1.08239X$1,22.5*%
G01*
%ADD10C,0.228600*%
%ADD11C,0.177800*%
%ADD12C,0.127000*%
%ADD13R,0.400000X0.400000*%


D10*
X185829Y261493D02*
X178943Y261493D01*
X178943Y276987D01*
X185829Y276987D01*
X184108Y270101D02*
X178943Y270101D01*
X195322Y261493D02*
X198765Y261493D01*
X195322Y261493D02*
X195207Y261495D01*
X195092Y261501D01*
X194977Y261510D01*
X194863Y261524D01*
X194749Y261541D01*
X194636Y261562D01*
X194524Y261587D01*
X194412Y261615D01*
X194302Y261648D01*
X194193Y261684D01*
X194085Y261723D01*
X193978Y261766D01*
X193873Y261813D01*
X193769Y261863D01*
X193667Y261917D01*
X193567Y261974D01*
X193469Y262034D01*
X193373Y262097D01*
X193280Y262164D01*
X193188Y262234D01*
X193099Y262307D01*
X193012Y262382D01*
X192928Y262461D01*
X192847Y262542D01*
X192768Y262626D01*
X192693Y262713D01*
X192620Y262802D01*
X192550Y262894D01*
X192483Y262987D01*
X192420Y263083D01*
X192360Y263181D01*
X192303Y263281D01*
X192249Y263383D01*
X192199Y263487D01*
X192152Y263592D01*
X192109Y263699D01*
X192070Y263807D01*
X192034Y263916D01*
X192001Y264026D01*
X191973Y264138D01*
X191948Y264250D01*
X191927Y264363D01*
X191910Y264477D01*
X191896Y264591D01*
X191887Y264706D01*
X191881Y264821D01*
X191879Y264936D01*
X191879Y273544D01*
X191881Y273659D01*
X191887Y273774D01*
X191896Y273889D01*
X191910Y274003D01*
X191927Y274117D01*
X191948Y274230D01*
X191973Y274342D01*
X192001Y274454D01*
X192034Y274564D01*
X192070Y274673D01*
X192109Y274781D01*
X192152Y274888D01*
X192199Y274993D01*
X192249Y275097D01*
X192303Y275199D01*
X192360Y275299D01*
X192420Y275397D01*
X192483Y275493D01*
X192550Y275586D01*
X192620Y275678D01*
X192693Y275767D01*
X192768Y275854D01*
X192847Y275938D01*
X192928Y276019D01*
X193012Y276097D01*
X193099Y276173D01*
X193188Y276246D01*
X193280Y276316D01*
X193373Y276383D01*
X193469Y276446D01*
X193567Y276506D01*
X193667Y276563D01*
X193769Y276617D01*
X193873Y276667D01*
X193978Y276714D01*
X194085Y276757D01*
X194193Y276796D01*
X194302Y276832D01*
X194412Y276865D01*
X194524Y276893D01*
X194636Y276918D01*
X194749Y276939D01*
X194863Y276956D01*
X194977Y276970D01*
X195092Y276979D01*
X195207Y276985D01*
X195322Y276987D01*
X198765Y276987D01*
X205516Y276987D02*
X205516Y261493D01*
X212402Y261493D01*
X231483Y261493D02*
X231598Y261495D01*
X231713Y261501D01*
X231828Y261510D01*
X231942Y261524D01*
X232056Y261541D01*
X232169Y261562D01*
X232281Y261587D01*
X232393Y261615D01*
X232503Y261648D01*
X232612Y261684D01*
X232720Y261723D01*
X232827Y261766D01*
X232932Y261813D01*
X233036Y261863D01*
X233138Y261917D01*
X233238Y261974D01*
X233336Y262034D01*
X233432Y262097D01*
X233525Y262164D01*
X233617Y262234D01*
X233706Y262307D01*
X233793Y262383D01*
X233877Y262461D01*
X233958Y262542D01*
X234037Y262626D01*
X234112Y262713D01*
X234185Y262802D01*
X234255Y262894D01*
X234322Y262987D01*
X234385Y263083D01*
X234445Y263181D01*
X234502Y263281D01*
X234556Y263383D01*
X234606Y263487D01*
X234653Y263592D01*
X234696Y263699D01*
X234735Y263807D01*
X234771Y263916D01*
X234804Y264026D01*
X234832Y264138D01*
X234857Y264250D01*
X234878Y264363D01*
X234895Y264477D01*
X234909Y264591D01*
X234918Y264706D01*
X234924Y264821D01*
X234926Y264936D01*
X231483Y261493D02*
X231309Y261495D01*
X231135Y261501D01*
X230961Y261512D01*
X230788Y261526D01*
X230615Y261545D01*
X230443Y261568D01*
X230271Y261595D01*
X230099Y261626D01*
X229929Y261661D01*
X229759Y261700D01*
X229591Y261743D01*
X229423Y261791D01*
X229257Y261842D01*
X229092Y261897D01*
X228928Y261956D01*
X228766Y262019D01*
X228606Y262086D01*
X228447Y262157D01*
X228289Y262232D01*
X228134Y262310D01*
X227980Y262392D01*
X227829Y262478D01*
X227680Y262567D01*
X227532Y262660D01*
X227387Y262756D01*
X227245Y262856D01*
X227105Y262959D01*
X226967Y263065D01*
X226832Y263175D01*
X226699Y263288D01*
X226570Y263404D01*
X226443Y263523D01*
X226319Y263645D01*
X226749Y273544D02*
X226751Y273659D01*
X226757Y273774D01*
X226766Y273889D01*
X226780Y274003D01*
X226797Y274117D01*
X226818Y274230D01*
X226843Y274342D01*
X226871Y274454D01*
X226904Y274564D01*
X226940Y274673D01*
X226979Y274781D01*
X227022Y274888D01*
X227069Y274993D01*
X227119Y275097D01*
X227173Y275199D01*
X227230Y275299D01*
X227290Y275397D01*
X227353Y275493D01*
X227420Y275586D01*
X227490Y275678D01*
X227563Y275767D01*
X227638Y275854D01*
X227717Y275938D01*
X227798Y276019D01*
X227882Y276098D01*
X227969Y276173D01*
X228058Y276246D01*
X228150Y276316D01*
X228243Y276383D01*
X228339Y276446D01*
X228437Y276506D01*
X228537Y276563D01*
X228639Y276617D01*
X228743Y276667D01*
X228848Y276714D01*
X228955Y276757D01*
X229063Y276796D01*
X229172Y276832D01*
X229282Y276865D01*
X229394Y276893D01*
X229506Y276918D01*
X229619Y276939D01*
X229733Y276956D01*
X229847Y276970D01*
X229962Y276979D01*
X230077Y276985D01*
X230192Y276987D01*
X230352Y276985D01*
X230511Y276979D01*
X230671Y276969D01*
X230830Y276955D01*
X230989Y276938D01*
X231147Y276916D01*
X231305Y276890D01*
X231462Y276861D01*
X231618Y276827D01*
X231774Y276790D01*
X231928Y276749D01*
X232081Y276704D01*
X232234Y276656D01*
X232385Y276603D01*
X232534Y276547D01*
X232682Y276487D01*
X232829Y276424D01*
X232974Y276357D01*
X233117Y276286D01*
X233259Y276212D01*
X233399Y276134D01*
X233536Y276053D01*
X233672Y275969D01*
X233805Y275881D01*
X233937Y275790D01*
X234066Y275696D01*
X228471Y270531D02*
X228371Y270592D01*
X228273Y270657D01*
X228177Y270724D01*
X228084Y270795D01*
X227993Y270869D01*
X227905Y270946D01*
X227819Y271026D01*
X227736Y271109D01*
X227656Y271194D01*
X227579Y271282D01*
X227505Y271373D01*
X227434Y271466D01*
X227365Y271561D01*
X227301Y271659D01*
X227239Y271758D01*
X227181Y271860D01*
X227126Y271964D01*
X227075Y272069D01*
X227028Y272176D01*
X226984Y272285D01*
X226943Y272395D01*
X226907Y272506D01*
X226874Y272618D01*
X226845Y272732D01*
X226819Y272846D01*
X226798Y272961D01*
X226780Y273077D01*
X226767Y273193D01*
X226757Y273310D01*
X226751Y273427D01*
X226749Y273544D01*
X233205Y267949D02*
X233305Y267888D01*
X233403Y267823D01*
X233499Y267756D01*
X233592Y267685D01*
X233683Y267611D01*
X233771Y267534D01*
X233857Y267454D01*
X233940Y267371D01*
X234020Y267286D01*
X234097Y267198D01*
X234171Y267107D01*
X234242Y267014D01*
X234311Y266919D01*
X234375Y266821D01*
X234437Y266722D01*
X234495Y266620D01*
X234550Y266516D01*
X234601Y266411D01*
X234648Y266304D01*
X234692Y266195D01*
X234733Y266085D01*
X234769Y265974D01*
X234802Y265862D01*
X234831Y265748D01*
X234857Y265634D01*
X234878Y265519D01*
X234896Y265403D01*
X234909Y265287D01*
X234919Y265170D01*
X234925Y265053D01*
X234927Y264936D01*
X233205Y267949D02*
X228471Y270531D01*
X239873Y271822D02*
X245037Y271822D01*
X241594Y276987D02*
X241594Y264075D01*
X241595Y264075D02*
X241597Y263976D01*
X241603Y263877D01*
X241612Y263779D01*
X241625Y263681D01*
X241642Y263583D01*
X241663Y263487D01*
X241687Y263391D01*
X241715Y263296D01*
X241747Y263202D01*
X241782Y263110D01*
X241821Y263019D01*
X241863Y262929D01*
X241909Y262842D01*
X241958Y262756D01*
X242010Y262671D01*
X242065Y262590D01*
X242124Y262510D01*
X242185Y262432D01*
X242249Y262357D01*
X242317Y262285D01*
X242387Y262215D01*
X242459Y262147D01*
X242534Y262083D01*
X242612Y262022D01*
X242692Y261963D01*
X242774Y261908D01*
X242858Y261856D01*
X242944Y261807D01*
X243031Y261761D01*
X243121Y261719D01*
X243212Y261680D01*
X243304Y261645D01*
X243398Y261613D01*
X243493Y261585D01*
X243589Y261561D01*
X243685Y261540D01*
X243783Y261523D01*
X243881Y261510D01*
X243979Y261501D01*
X244078Y261495D01*
X244177Y261493D01*
X245037Y261493D01*
X251779Y261493D02*
X251779Y271822D01*
X256944Y271822D01*
X256944Y270101D01*
X262089Y268379D02*
X262089Y264936D01*
X262089Y268379D02*
X262091Y268495D01*
X262097Y268611D01*
X262107Y268727D01*
X262120Y268843D01*
X262138Y268958D01*
X262159Y269072D01*
X262185Y269186D01*
X262214Y269298D01*
X262247Y269410D01*
X262284Y269520D01*
X262324Y269629D01*
X262368Y269737D01*
X262416Y269843D01*
X262467Y269947D01*
X262522Y270050D01*
X262580Y270151D01*
X262641Y270249D01*
X262706Y270346D01*
X262774Y270440D01*
X262845Y270532D01*
X262920Y270622D01*
X262997Y270709D01*
X263077Y270793D01*
X263160Y270874D01*
X263246Y270953D01*
X263334Y271029D01*
X263425Y271102D01*
X263518Y271171D01*
X263613Y271238D01*
X263711Y271301D01*
X263811Y271361D01*
X263912Y271417D01*
X264016Y271470D01*
X264121Y271520D01*
X264228Y271565D01*
X264336Y271608D01*
X264446Y271646D01*
X264557Y271681D01*
X264669Y271712D01*
X264782Y271739D01*
X264896Y271763D01*
X265011Y271782D01*
X265126Y271798D01*
X265242Y271810D01*
X265358Y271818D01*
X265474Y271822D01*
X265590Y271822D01*
X265706Y271818D01*
X265822Y271810D01*
X265938Y271798D01*
X266053Y271782D01*
X266168Y271763D01*
X266282Y271739D01*
X266395Y271712D01*
X266507Y271681D01*
X266618Y271646D01*
X266728Y271608D01*
X266836Y271565D01*
X266943Y271520D01*
X267048Y271470D01*
X267152Y271417D01*
X267254Y271361D01*
X267353Y271301D01*
X267451Y271238D01*
X267546Y271171D01*
X267639Y271102D01*
X267730Y271029D01*
X267818Y270953D01*
X267904Y270874D01*
X267987Y270793D01*
X268067Y270709D01*
X268144Y270622D01*
X268219Y270532D01*
X268290Y270440D01*
X268358Y270346D01*
X268423Y270249D01*
X268484Y270151D01*
X268542Y270050D01*
X268597Y269947D01*
X268648Y269843D01*
X268696Y269737D01*
X268740Y269629D01*
X268780Y269520D01*
X268817Y269410D01*
X268850Y269298D01*
X268879Y269186D01*
X268905Y269072D01*
X268926Y268958D01*
X268944Y268843D01*
X268957Y268727D01*
X268967Y268611D01*
X268973Y268495D01*
X268975Y268379D01*
X268976Y268379D02*
X268976Y264936D01*
X268975Y264936D02*
X268973Y264820D01*
X268967Y264704D01*
X268957Y264588D01*
X268944Y264472D01*
X268926Y264357D01*
X268905Y264243D01*
X268879Y264129D01*
X268850Y264017D01*
X268817Y263905D01*
X268780Y263795D01*
X268740Y263686D01*
X268696Y263578D01*
X268648Y263472D01*
X268597Y263368D01*
X268542Y263265D01*
X268484Y263164D01*
X268423Y263066D01*
X268358Y262969D01*
X268290Y262875D01*
X268219Y262783D01*
X268144Y262693D01*
X268067Y262606D01*
X267987Y262522D01*
X267904Y262441D01*
X267818Y262362D01*
X267730Y262286D01*
X267639Y262213D01*
X267546Y262144D01*
X267451Y262077D01*
X267353Y262014D01*
X267254Y261954D01*
X267152Y261898D01*
X267048Y261845D01*
X266943Y261795D01*
X266836Y261750D01*
X266728Y261707D01*
X266618Y261669D01*
X266507Y261634D01*
X266395Y261603D01*
X266282Y261576D01*
X266168Y261552D01*
X266053Y261533D01*
X265938Y261517D01*
X265822Y261505D01*
X265706Y261497D01*
X265590Y261493D01*
X265474Y261493D01*
X265358Y261497D01*
X265242Y261505D01*
X265126Y261517D01*
X265011Y261533D01*
X264896Y261552D01*
X264782Y261576D01*
X264669Y261603D01*
X264557Y261634D01*
X264446Y261669D01*
X264336Y261707D01*
X264228Y261750D01*
X264121Y261795D01*
X264016Y261845D01*
X263912Y261898D01*
X263811Y261954D01*
X263711Y262014D01*
X263613Y262077D01*
X263518Y262144D01*
X263425Y262213D01*
X263334Y262286D01*
X263246Y262362D01*
X263160Y262441D01*
X263077Y262522D01*
X262997Y262606D01*
X262920Y262693D01*
X262845Y262783D01*
X262774Y262875D01*
X262706Y262969D01*
X262641Y263066D01*
X262580Y263164D01*
X262522Y263265D01*
X262467Y263368D01*
X262416Y263472D01*
X262368Y263578D01*
X262324Y263686D01*
X262284Y263795D01*
X262247Y263905D01*
X262214Y264017D01*
X262185Y264129D01*
X262159Y264243D01*
X262138Y264357D01*
X262120Y264472D01*
X262107Y264588D01*
X262097Y264704D01*
X262091Y264820D01*
X262089Y264936D01*
X276253Y261493D02*
X276253Y276987D01*
X276253Y261493D02*
X280557Y261493D01*
X280658Y261495D01*
X280760Y261501D01*
X280860Y261511D01*
X280961Y261525D01*
X281061Y261543D01*
X281160Y261564D01*
X281258Y261590D01*
X281355Y261619D01*
X281451Y261653D01*
X281545Y261690D01*
X281638Y261730D01*
X281729Y261774D01*
X281819Y261822D01*
X281906Y261873D01*
X281991Y261928D01*
X282075Y261986D01*
X282155Y262047D01*
X282234Y262112D01*
X282310Y262179D01*
X282383Y262249D01*
X282453Y262322D01*
X282520Y262398D01*
X282585Y262476D01*
X282646Y262557D01*
X282704Y262641D01*
X282759Y262726D01*
X282810Y262813D01*
X282858Y262903D01*
X282902Y262994D01*
X282942Y263087D01*
X282979Y263181D01*
X283013Y263277D01*
X283042Y263374D01*
X283068Y263472D01*
X283089Y263571D01*
X283107Y263671D01*
X283121Y263771D01*
X283131Y263872D01*
X283137Y263974D01*
X283139Y264075D01*
X283139Y269240D01*
X283137Y269339D01*
X283131Y269438D01*
X283122Y269536D01*
X283109Y269634D01*
X283092Y269732D01*
X283071Y269828D01*
X283047Y269924D01*
X283019Y270019D01*
X282987Y270113D01*
X282952Y270205D01*
X282913Y270296D01*
X282871Y270386D01*
X282825Y270473D01*
X282776Y270559D01*
X282724Y270643D01*
X282669Y270725D01*
X282610Y270805D01*
X282549Y270883D01*
X282485Y270958D01*
X282417Y271030D01*
X282347Y271100D01*
X282275Y271168D01*
X282200Y271232D01*
X282122Y271293D01*
X282042Y271352D01*
X281960Y271407D01*
X281876Y271459D01*
X281790Y271508D01*
X281703Y271554D01*
X281613Y271596D01*
X281522Y271635D01*
X281430Y271670D01*
X281336Y271702D01*
X281241Y271730D01*
X281145Y271754D01*
X281049Y271775D01*
X280951Y271792D01*
X280853Y271805D01*
X280755Y271814D01*
X280656Y271820D01*
X280557Y271822D01*
X276253Y271822D01*
X292287Y261493D02*
X296591Y261493D01*
X292287Y261493D02*
X292188Y261495D01*
X292089Y261501D01*
X291991Y261510D01*
X291893Y261523D01*
X291795Y261540D01*
X291699Y261561D01*
X291603Y261585D01*
X291508Y261613D01*
X291414Y261645D01*
X291322Y261680D01*
X291231Y261719D01*
X291141Y261761D01*
X291054Y261807D01*
X290968Y261856D01*
X290884Y261908D01*
X290802Y261963D01*
X290722Y262022D01*
X290644Y262083D01*
X290569Y262147D01*
X290497Y262215D01*
X290427Y262285D01*
X290359Y262357D01*
X290295Y262432D01*
X290234Y262510D01*
X290175Y262590D01*
X290120Y262672D01*
X290068Y262756D01*
X290019Y262842D01*
X289973Y262929D01*
X289931Y263019D01*
X289892Y263110D01*
X289857Y263202D01*
X289825Y263296D01*
X289797Y263391D01*
X289773Y263487D01*
X289752Y263583D01*
X289735Y263681D01*
X289722Y263779D01*
X289713Y263877D01*
X289707Y263976D01*
X289705Y264075D01*
X289704Y264075D02*
X289704Y268379D01*
X289705Y268379D02*
X289707Y268495D01*
X289713Y268611D01*
X289723Y268727D01*
X289736Y268843D01*
X289754Y268958D01*
X289775Y269072D01*
X289801Y269186D01*
X289830Y269298D01*
X289863Y269410D01*
X289900Y269520D01*
X289940Y269629D01*
X289984Y269737D01*
X290032Y269843D01*
X290083Y269947D01*
X290138Y270050D01*
X290196Y270151D01*
X290257Y270249D01*
X290322Y270346D01*
X290390Y270440D01*
X290461Y270532D01*
X290536Y270622D01*
X290613Y270709D01*
X290693Y270793D01*
X290776Y270874D01*
X290862Y270953D01*
X290950Y271029D01*
X291041Y271102D01*
X291134Y271171D01*
X291229Y271238D01*
X291327Y271301D01*
X291427Y271361D01*
X291528Y271417D01*
X291632Y271470D01*
X291737Y271520D01*
X291844Y271565D01*
X291952Y271608D01*
X292062Y271646D01*
X292173Y271681D01*
X292285Y271712D01*
X292398Y271739D01*
X292512Y271763D01*
X292627Y271782D01*
X292742Y271798D01*
X292858Y271810D01*
X292974Y271818D01*
X293090Y271822D01*
X293206Y271822D01*
X293322Y271818D01*
X293438Y271810D01*
X293554Y271798D01*
X293669Y271782D01*
X293784Y271763D01*
X293898Y271739D01*
X294011Y271712D01*
X294123Y271681D01*
X294234Y271646D01*
X294344Y271608D01*
X294452Y271565D01*
X294559Y271520D01*
X294664Y271470D01*
X294768Y271417D01*
X294870Y271361D01*
X294969Y271301D01*
X295067Y271238D01*
X295162Y271171D01*
X295255Y271102D01*
X295346Y271029D01*
X295434Y270953D01*
X295520Y270874D01*
X295603Y270793D01*
X295683Y270709D01*
X295760Y270622D01*
X295835Y270532D01*
X295906Y270440D01*
X295974Y270346D01*
X296039Y270249D01*
X296100Y270151D01*
X296158Y270050D01*
X296213Y269947D01*
X296264Y269843D01*
X296312Y269737D01*
X296356Y269629D01*
X296396Y269520D01*
X296433Y269410D01*
X296466Y269298D01*
X296495Y269186D01*
X296521Y269072D01*
X296542Y268958D01*
X296560Y268843D01*
X296573Y268727D01*
X296583Y268611D01*
X296589Y268495D01*
X296591Y268379D01*
X296591Y266658D01*
X289704Y266658D01*
X310042Y261493D02*
X310042Y276987D01*
X310042Y261493D02*
X305738Y261493D01*
X305639Y261495D01*
X305540Y261501D01*
X305442Y261510D01*
X305344Y261523D01*
X305246Y261540D01*
X305150Y261561D01*
X305054Y261585D01*
X304959Y261613D01*
X304865Y261645D01*
X304773Y261680D01*
X304682Y261719D01*
X304592Y261761D01*
X304505Y261807D01*
X304419Y261856D01*
X304335Y261908D01*
X304253Y261963D01*
X304173Y262022D01*
X304095Y262083D01*
X304020Y262147D01*
X303948Y262215D01*
X303878Y262285D01*
X303810Y262357D01*
X303746Y262432D01*
X303685Y262510D01*
X303626Y262590D01*
X303571Y262672D01*
X303519Y262756D01*
X303470Y262842D01*
X303424Y262929D01*
X303382Y263019D01*
X303343Y263110D01*
X303308Y263202D01*
X303276Y263296D01*
X303248Y263391D01*
X303224Y263487D01*
X303203Y263583D01*
X303186Y263681D01*
X303173Y263779D01*
X303164Y263877D01*
X303158Y263976D01*
X303156Y264075D01*
X303156Y269240D01*
X303158Y269339D01*
X303164Y269438D01*
X303173Y269536D01*
X303186Y269634D01*
X303203Y269732D01*
X303224Y269828D01*
X303248Y269924D01*
X303276Y270019D01*
X303308Y270113D01*
X303343Y270205D01*
X303382Y270296D01*
X303424Y270386D01*
X303470Y270473D01*
X303519Y270559D01*
X303571Y270643D01*
X303626Y270725D01*
X303685Y270805D01*
X303746Y270883D01*
X303810Y270958D01*
X303878Y271030D01*
X303948Y271100D01*
X304020Y271168D01*
X304095Y271232D01*
X304173Y271293D01*
X304253Y271352D01*
X304335Y271407D01*
X304419Y271459D01*
X304505Y271508D01*
X304592Y271554D01*
X304682Y271596D01*
X304773Y271635D01*
X304865Y271670D01*
X304959Y271702D01*
X305054Y271730D01*
X305150Y271754D01*
X305246Y271775D01*
X305344Y271792D01*
X305442Y271805D01*
X305540Y271814D01*
X305639Y271820D01*
X305738Y271822D01*
X310042Y271822D01*
X330481Y261493D02*
X330596Y261495D01*
X330711Y261501D01*
X330826Y261510D01*
X330940Y261524D01*
X331054Y261541D01*
X331167Y261562D01*
X331279Y261587D01*
X331391Y261615D01*
X331501Y261648D01*
X331610Y261684D01*
X331718Y261723D01*
X331825Y261766D01*
X331930Y261813D01*
X332034Y261863D01*
X332136Y261917D01*
X332236Y261974D01*
X332334Y262034D01*
X332430Y262097D01*
X332523Y262164D01*
X332615Y262234D01*
X332704Y262307D01*
X332791Y262383D01*
X332875Y262461D01*
X332956Y262542D01*
X333035Y262626D01*
X333110Y262713D01*
X333183Y262802D01*
X333253Y262894D01*
X333320Y262987D01*
X333383Y263083D01*
X333443Y263181D01*
X333500Y263281D01*
X333554Y263383D01*
X333604Y263487D01*
X333651Y263592D01*
X333694Y263699D01*
X333733Y263807D01*
X333769Y263916D01*
X333802Y264026D01*
X333830Y264138D01*
X333855Y264250D01*
X333876Y264363D01*
X333893Y264477D01*
X333907Y264591D01*
X333916Y264706D01*
X333922Y264821D01*
X333924Y264936D01*
X330481Y261493D02*
X330307Y261495D01*
X330133Y261501D01*
X329959Y261512D01*
X329786Y261526D01*
X329613Y261545D01*
X329441Y261568D01*
X329269Y261595D01*
X329097Y261626D01*
X328927Y261661D01*
X328757Y261700D01*
X328589Y261743D01*
X328421Y261791D01*
X328255Y261842D01*
X328090Y261897D01*
X327926Y261956D01*
X327764Y262019D01*
X327604Y262086D01*
X327445Y262157D01*
X327287Y262232D01*
X327132Y262310D01*
X326978Y262392D01*
X326827Y262478D01*
X326678Y262567D01*
X326530Y262660D01*
X326385Y262756D01*
X326243Y262856D01*
X326103Y262959D01*
X325965Y263065D01*
X325830Y263175D01*
X325697Y263288D01*
X325568Y263404D01*
X325441Y263523D01*
X325317Y263645D01*
X325747Y273544D02*
X325749Y273659D01*
X325755Y273774D01*
X325764Y273889D01*
X325778Y274003D01*
X325795Y274117D01*
X325816Y274230D01*
X325841Y274342D01*
X325869Y274454D01*
X325902Y274564D01*
X325938Y274673D01*
X325977Y274781D01*
X326020Y274888D01*
X326067Y274993D01*
X326117Y275097D01*
X326171Y275199D01*
X326228Y275299D01*
X326288Y275397D01*
X326351Y275493D01*
X326418Y275586D01*
X326488Y275678D01*
X326561Y275767D01*
X326636Y275854D01*
X326715Y275938D01*
X326796Y276019D01*
X326880Y276098D01*
X326967Y276173D01*
X327056Y276246D01*
X327148Y276316D01*
X327241Y276383D01*
X327337Y276446D01*
X327435Y276506D01*
X327535Y276563D01*
X327637Y276617D01*
X327741Y276667D01*
X327846Y276714D01*
X327953Y276757D01*
X328061Y276796D01*
X328170Y276832D01*
X328280Y276865D01*
X328392Y276893D01*
X328504Y276918D01*
X328617Y276939D01*
X328731Y276956D01*
X328845Y276970D01*
X328960Y276979D01*
X329075Y276985D01*
X329190Y276987D01*
X329350Y276985D01*
X329509Y276979D01*
X329669Y276969D01*
X329828Y276955D01*
X329987Y276938D01*
X330145Y276916D01*
X330303Y276890D01*
X330460Y276861D01*
X330616Y276827D01*
X330772Y276790D01*
X330926Y276749D01*
X331079Y276704D01*
X331232Y276656D01*
X331383Y276603D01*
X331532Y276547D01*
X331680Y276487D01*
X331827Y276424D01*
X331972Y276357D01*
X332115Y276286D01*
X332257Y276212D01*
X332397Y276134D01*
X332534Y276053D01*
X332670Y275969D01*
X332803Y275881D01*
X332935Y275790D01*
X333064Y275696D01*
X327469Y270531D02*
X327369Y270592D01*
X327271Y270657D01*
X327175Y270724D01*
X327082Y270795D01*
X326991Y270869D01*
X326903Y270946D01*
X326817Y271026D01*
X326734Y271109D01*
X326654Y271194D01*
X326577Y271282D01*
X326503Y271373D01*
X326432Y271466D01*
X326363Y271561D01*
X326299Y271659D01*
X326237Y271758D01*
X326179Y271860D01*
X326124Y271964D01*
X326073Y272069D01*
X326026Y272176D01*
X325982Y272285D01*
X325941Y272395D01*
X325905Y272506D01*
X325872Y272618D01*
X325843Y272732D01*
X325817Y272846D01*
X325796Y272961D01*
X325778Y273077D01*
X325765Y273193D01*
X325755Y273310D01*
X325749Y273427D01*
X325747Y273544D01*
X332202Y267949D02*
X332302Y267888D01*
X332400Y267823D01*
X332496Y267756D01*
X332589Y267685D01*
X332680Y267611D01*
X332768Y267534D01*
X332854Y267454D01*
X332937Y267371D01*
X333017Y267286D01*
X333094Y267198D01*
X333168Y267107D01*
X333239Y267014D01*
X333308Y266919D01*
X333372Y266821D01*
X333434Y266722D01*
X333492Y266620D01*
X333547Y266516D01*
X333598Y266411D01*
X333645Y266304D01*
X333689Y266195D01*
X333730Y266085D01*
X333766Y265974D01*
X333799Y265862D01*
X333828Y265748D01*
X333854Y265634D01*
X333875Y265519D01*
X333893Y265403D01*
X333906Y265287D01*
X333916Y265170D01*
X333922Y265053D01*
X333924Y264936D01*
X332203Y267949D02*
X327468Y270531D01*
X343162Y267518D02*
X347036Y267518D01*
X343162Y267519D02*
X343053Y267517D01*
X342945Y267511D01*
X342836Y267501D01*
X342728Y267488D01*
X342621Y267470D01*
X342514Y267449D01*
X342408Y267423D01*
X342304Y267394D01*
X342200Y267361D01*
X342097Y267325D01*
X341996Y267284D01*
X341897Y267241D01*
X341799Y267193D01*
X341703Y267142D01*
X341609Y267088D01*
X341516Y267030D01*
X341426Y266969D01*
X341339Y266905D01*
X341253Y266837D01*
X341170Y266767D01*
X341090Y266693D01*
X341012Y266617D01*
X340938Y266538D01*
X340866Y266457D01*
X340797Y266372D01*
X340731Y266286D01*
X340668Y266197D01*
X340609Y266106D01*
X340553Y266013D01*
X340500Y265917D01*
X340451Y265820D01*
X340405Y265722D01*
X340363Y265621D01*
X340325Y265519D01*
X340290Y265416D01*
X340259Y265312D01*
X340232Y265207D01*
X340208Y265100D01*
X340189Y264993D01*
X340173Y264886D01*
X340161Y264778D01*
X340153Y264669D01*
X340149Y264560D01*
X340149Y264452D01*
X340153Y264343D01*
X340161Y264234D01*
X340173Y264126D01*
X340189Y264019D01*
X340208Y263912D01*
X340232Y263805D01*
X340259Y263700D01*
X340290Y263596D01*
X340325Y263493D01*
X340363Y263391D01*
X340405Y263290D01*
X340451Y263192D01*
X340500Y263095D01*
X340553Y263000D01*
X340609Y262906D01*
X340668Y262815D01*
X340731Y262726D01*
X340797Y262640D01*
X340866Y262555D01*
X340938Y262474D01*
X341012Y262395D01*
X341090Y262319D01*
X341170Y262245D01*
X341253Y262175D01*
X341339Y262107D01*
X341426Y262043D01*
X341516Y261982D01*
X341609Y261924D01*
X341703Y261870D01*
X341799Y261819D01*
X341897Y261771D01*
X341996Y261728D01*
X342097Y261687D01*
X342200Y261651D01*
X342304Y261618D01*
X342408Y261589D01*
X342514Y261563D01*
X342621Y261542D01*
X342728Y261524D01*
X342836Y261511D01*
X342945Y261501D01*
X343053Y261495D01*
X343162Y261493D01*
X347036Y261493D01*
X347036Y269240D01*
X347034Y269339D01*
X347028Y269438D01*
X347019Y269536D01*
X347006Y269634D01*
X346989Y269732D01*
X346968Y269828D01*
X346944Y269924D01*
X346916Y270019D01*
X346884Y270113D01*
X346849Y270205D01*
X346810Y270296D01*
X346768Y270386D01*
X346722Y270473D01*
X346673Y270559D01*
X346621Y270643D01*
X346566Y270725D01*
X346507Y270805D01*
X346446Y270883D01*
X346382Y270958D01*
X346314Y271030D01*
X346244Y271100D01*
X346172Y271168D01*
X346097Y271232D01*
X346019Y271293D01*
X345939Y271352D01*
X345857Y271407D01*
X345773Y271459D01*
X345687Y271508D01*
X345600Y271554D01*
X345510Y271596D01*
X345419Y271635D01*
X345327Y271670D01*
X345233Y271702D01*
X345138Y271730D01*
X345042Y271754D01*
X344946Y271775D01*
X344848Y271792D01*
X344750Y271805D01*
X344652Y271814D01*
X344553Y271820D01*
X344454Y271822D01*
X341011Y271822D01*
X355197Y271822D02*
X355197Y261493D01*
X355197Y271822D02*
X362944Y271822D01*
X363043Y271820D01*
X363142Y271814D01*
X363240Y271805D01*
X363338Y271792D01*
X363436Y271775D01*
X363532Y271754D01*
X363628Y271730D01*
X363723Y271702D01*
X363817Y271670D01*
X363909Y271635D01*
X364000Y271596D01*
X364090Y271554D01*
X364177Y271508D01*
X364263Y271459D01*
X364347Y271407D01*
X364429Y271352D01*
X364509Y271293D01*
X364587Y271232D01*
X364662Y271168D01*
X364734Y271100D01*
X364804Y271030D01*
X364872Y270958D01*
X364936Y270883D01*
X364997Y270805D01*
X365056Y270725D01*
X365111Y270643D01*
X365163Y270559D01*
X365212Y270473D01*
X365258Y270386D01*
X365300Y270296D01*
X365339Y270205D01*
X365374Y270113D01*
X365406Y270019D01*
X365434Y269924D01*
X365458Y269828D01*
X365479Y269732D01*
X365496Y269634D01*
X365509Y269536D01*
X365518Y269438D01*
X365524Y269339D01*
X365526Y269240D01*
X365526Y261493D01*
X360362Y261493D02*
X360362Y271822D01*
X373688Y271822D02*
X373688Y256328D01*
X373688Y271822D02*
X377991Y271822D01*
X378092Y271820D01*
X378194Y271814D01*
X378294Y271804D01*
X378395Y271790D01*
X378495Y271772D01*
X378594Y271751D01*
X378692Y271725D01*
X378789Y271696D01*
X378885Y271662D01*
X378979Y271625D01*
X379072Y271585D01*
X379163Y271541D01*
X379253Y271493D01*
X379340Y271442D01*
X379425Y271387D01*
X379509Y271329D01*
X379589Y271268D01*
X379668Y271203D01*
X379744Y271136D01*
X379817Y271066D01*
X379887Y270993D01*
X379954Y270917D01*
X380019Y270839D01*
X380080Y270758D01*
X380138Y270674D01*
X380193Y270589D01*
X380244Y270502D01*
X380292Y270412D01*
X380336Y270321D01*
X380376Y270228D01*
X380413Y270134D01*
X380447Y270038D01*
X380476Y269941D01*
X380502Y269843D01*
X380523Y269744D01*
X380541Y269644D01*
X380555Y269544D01*
X380565Y269443D01*
X380571Y269341D01*
X380573Y269240D01*
X380574Y269240D02*
X380574Y264075D01*
X380573Y264075D02*
X380571Y263976D01*
X380565Y263877D01*
X380556Y263779D01*
X380543Y263681D01*
X380526Y263583D01*
X380505Y263487D01*
X380481Y263391D01*
X380453Y263296D01*
X380421Y263202D01*
X380386Y263110D01*
X380347Y263019D01*
X380305Y262929D01*
X380259Y262842D01*
X380210Y262756D01*
X380158Y262672D01*
X380103Y262590D01*
X380044Y262510D01*
X379983Y262432D01*
X379919Y262357D01*
X379851Y262285D01*
X379781Y262215D01*
X379709Y262147D01*
X379634Y262083D01*
X379556Y262022D01*
X379476Y261963D01*
X379394Y261908D01*
X379310Y261856D01*
X379224Y261807D01*
X379137Y261761D01*
X379047Y261719D01*
X378956Y261680D01*
X378864Y261645D01*
X378770Y261613D01*
X378675Y261585D01*
X378579Y261561D01*
X378483Y261540D01*
X378385Y261523D01*
X378287Y261510D01*
X378189Y261501D01*
X378090Y261495D01*
X377991Y261493D01*
X373688Y261493D01*
X387289Y264075D02*
X387289Y276987D01*
X387290Y264075D02*
X387292Y263976D01*
X387298Y263877D01*
X387307Y263779D01*
X387320Y263681D01*
X387337Y263583D01*
X387358Y263487D01*
X387382Y263391D01*
X387410Y263296D01*
X387442Y263202D01*
X387477Y263110D01*
X387516Y263019D01*
X387558Y262929D01*
X387604Y262842D01*
X387653Y262756D01*
X387705Y262672D01*
X387760Y262590D01*
X387819Y262510D01*
X387880Y262432D01*
X387944Y262357D01*
X388012Y262285D01*
X388082Y262215D01*
X388154Y262147D01*
X388229Y262083D01*
X388307Y262022D01*
X388387Y261963D01*
X388469Y261908D01*
X388553Y261856D01*
X388639Y261807D01*
X388726Y261761D01*
X388816Y261719D01*
X388907Y261680D01*
X388999Y261645D01*
X389093Y261613D01*
X389188Y261585D01*
X389284Y261561D01*
X389380Y261540D01*
X389478Y261523D01*
X389576Y261510D01*
X389674Y261501D01*
X389773Y261495D01*
X389872Y261493D01*
X398058Y261493D02*
X402362Y261493D01*
X398058Y261493D02*
X397959Y261495D01*
X397860Y261501D01*
X397762Y261510D01*
X397664Y261523D01*
X397566Y261540D01*
X397470Y261561D01*
X397374Y261585D01*
X397279Y261613D01*
X397185Y261645D01*
X397093Y261680D01*
X397002Y261719D01*
X396912Y261761D01*
X396825Y261807D01*
X396739Y261856D01*
X396655Y261908D01*
X396573Y261963D01*
X396493Y262022D01*
X396415Y262083D01*
X396340Y262147D01*
X396268Y262215D01*
X396198Y262285D01*
X396130Y262357D01*
X396066Y262432D01*
X396005Y262510D01*
X395946Y262590D01*
X395891Y262672D01*
X395839Y262756D01*
X395790Y262842D01*
X395744Y262929D01*
X395702Y263019D01*
X395663Y263110D01*
X395628Y263202D01*
X395596Y263296D01*
X395568Y263391D01*
X395544Y263487D01*
X395523Y263583D01*
X395506Y263681D01*
X395493Y263779D01*
X395484Y263877D01*
X395478Y263976D01*
X395476Y264075D01*
X395476Y268379D01*
X395478Y268495D01*
X395484Y268611D01*
X395494Y268727D01*
X395507Y268843D01*
X395525Y268958D01*
X395546Y269072D01*
X395572Y269186D01*
X395601Y269298D01*
X395634Y269410D01*
X395671Y269520D01*
X395711Y269629D01*
X395755Y269737D01*
X395803Y269843D01*
X395854Y269947D01*
X395909Y270050D01*
X395967Y270151D01*
X396028Y270249D01*
X396093Y270346D01*
X396161Y270440D01*
X396232Y270532D01*
X396307Y270622D01*
X396384Y270709D01*
X396464Y270793D01*
X396547Y270874D01*
X396633Y270953D01*
X396721Y271029D01*
X396812Y271102D01*
X396905Y271171D01*
X397000Y271238D01*
X397098Y271301D01*
X397198Y271361D01*
X397299Y271417D01*
X397403Y271470D01*
X397508Y271520D01*
X397615Y271565D01*
X397723Y271608D01*
X397833Y271646D01*
X397944Y271681D01*
X398056Y271712D01*
X398169Y271739D01*
X398283Y271763D01*
X398398Y271782D01*
X398513Y271798D01*
X398629Y271810D01*
X398745Y271818D01*
X398861Y271822D01*
X398977Y271822D01*
X399093Y271818D01*
X399209Y271810D01*
X399325Y271798D01*
X399440Y271782D01*
X399555Y271763D01*
X399669Y271739D01*
X399782Y271712D01*
X399894Y271681D01*
X400005Y271646D01*
X400115Y271608D01*
X400223Y271565D01*
X400330Y271520D01*
X400435Y271470D01*
X400539Y271417D01*
X400641Y271361D01*
X400740Y271301D01*
X400838Y271238D01*
X400933Y271171D01*
X401026Y271102D01*
X401117Y271029D01*
X401205Y270953D01*
X401291Y270874D01*
X401374Y270793D01*
X401454Y270709D01*
X401531Y270622D01*
X401606Y270532D01*
X401677Y270440D01*
X401745Y270346D01*
X401810Y270249D01*
X401871Y270151D01*
X401929Y270050D01*
X401984Y269947D01*
X402035Y269843D01*
X402083Y269737D01*
X402127Y269629D01*
X402167Y269520D01*
X402204Y269410D01*
X402237Y269298D01*
X402266Y269186D01*
X402292Y269072D01*
X402313Y268958D01*
X402331Y268843D01*
X402344Y268727D01*
X402354Y268611D01*
X402360Y268495D01*
X402362Y268379D01*
X402362Y266658D01*
X395476Y266658D01*
X409654Y261493D02*
X409654Y271822D01*
X414819Y271822D01*
X414819Y270101D01*
D11*
X55612Y94615D02*
X55612Y82169D01*
X54229Y82169D02*
X56995Y82169D01*
X56995Y94615D02*
X54229Y94615D01*
X62823Y94615D02*
X62823Y82169D01*
X69737Y82169D02*
X62823Y94615D01*
X69737Y94615D02*
X69737Y82169D01*
X76213Y87009D02*
X84510Y87009D01*
X80362Y82860D02*
X80362Y91158D01*
X56882Y224409D02*
X56882Y236855D01*
X55499Y224409D02*
X58265Y224409D01*
X58265Y236855D02*
X55499Y236855D01*
X64093Y236855D02*
X64093Y224409D01*
X71007Y224409D02*
X64093Y236855D01*
X71007Y236855D02*
X71007Y224409D01*
X77483Y229249D02*
X85780Y229249D01*
X62385Y125914D02*
X62488Y125912D01*
X62592Y125906D01*
X62695Y125897D01*
X62797Y125883D01*
X62899Y125866D01*
X63000Y125845D01*
X63101Y125820D01*
X63200Y125791D01*
X63299Y125759D01*
X63396Y125723D01*
X63491Y125683D01*
X63585Y125640D01*
X63677Y125593D01*
X63768Y125543D01*
X63857Y125490D01*
X63943Y125433D01*
X64028Y125374D01*
X64110Y125311D01*
X64189Y125245D01*
X64266Y125176D01*
X64341Y125104D01*
X64413Y125029D01*
X64482Y124952D01*
X64548Y124873D01*
X64611Y124791D01*
X64670Y124706D01*
X64727Y124620D01*
X64780Y124531D01*
X64830Y124440D01*
X64877Y124348D01*
X64920Y124254D01*
X64960Y124159D01*
X64996Y124062D01*
X65028Y123963D01*
X65057Y123864D01*
X65082Y123763D01*
X65103Y123662D01*
X65120Y123560D01*
X65134Y123458D01*
X65143Y123355D01*
X65149Y123251D01*
X65151Y123148D01*
X65149Y122999D01*
X65143Y122850D01*
X65134Y122702D01*
X65121Y122554D01*
X65104Y122406D01*
X65083Y122259D01*
X65058Y122112D01*
X65030Y121966D01*
X64998Y121820D01*
X64962Y121676D01*
X64923Y121532D01*
X64880Y121390D01*
X64834Y121248D01*
X64783Y121108D01*
X64730Y120970D01*
X64672Y120832D01*
X64612Y120696D01*
X64548Y120562D01*
X64480Y120429D01*
X64409Y120299D01*
X64335Y120170D01*
X64257Y120043D01*
X64177Y119918D01*
X64093Y119795D01*
X64006Y119674D01*
X63916Y119555D01*
X63823Y119439D01*
X63727Y119325D01*
X63628Y119214D01*
X63527Y119105D01*
X63422Y118999D01*
X55471Y119345D02*
X55368Y119347D01*
X55264Y119353D01*
X55161Y119362D01*
X55059Y119376D01*
X54957Y119393D01*
X54856Y119414D01*
X54755Y119439D01*
X54656Y119468D01*
X54557Y119500D01*
X54460Y119536D01*
X54365Y119576D01*
X54271Y119619D01*
X54179Y119666D01*
X54088Y119716D01*
X53999Y119769D01*
X53913Y119826D01*
X53828Y119885D01*
X53746Y119948D01*
X53667Y120014D01*
X53590Y120083D01*
X53515Y120155D01*
X53443Y120230D01*
X53374Y120307D01*
X53308Y120386D01*
X53245Y120468D01*
X53186Y120553D01*
X53129Y120639D01*
X53076Y120728D01*
X53026Y120819D01*
X52979Y120911D01*
X52936Y121005D01*
X52896Y121100D01*
X52860Y121197D01*
X52828Y121296D01*
X52799Y121395D01*
X52774Y121496D01*
X52753Y121597D01*
X52736Y121699D01*
X52722Y121801D01*
X52713Y121904D01*
X52707Y122008D01*
X52705Y122111D01*
X52707Y122250D01*
X52712Y122389D01*
X52722Y122528D01*
X52735Y122666D01*
X52752Y122804D01*
X52772Y122942D01*
X52796Y123079D01*
X52824Y123215D01*
X52855Y123350D01*
X52890Y123485D01*
X52929Y123618D01*
X52971Y123751D01*
X53017Y123882D01*
X53066Y124012D01*
X53119Y124141D01*
X53175Y124268D01*
X53234Y124394D01*
X53297Y124518D01*
X53364Y124640D01*
X53433Y124761D01*
X53506Y124879D01*
X53581Y124996D01*
X53660Y125110D01*
X53742Y125223D01*
X57891Y120728D02*
X57837Y120639D01*
X57779Y120552D01*
X57718Y120468D01*
X57654Y120386D01*
X57587Y120306D01*
X57517Y120229D01*
X57444Y120154D01*
X57368Y120083D01*
X57290Y120014D01*
X57210Y119948D01*
X57127Y119885D01*
X57042Y119825D01*
X56954Y119768D01*
X56865Y119715D01*
X56773Y119665D01*
X56680Y119619D01*
X56585Y119575D01*
X56489Y119536D01*
X56391Y119500D01*
X56292Y119468D01*
X56192Y119439D01*
X56091Y119414D01*
X55989Y119393D01*
X55886Y119376D01*
X55783Y119362D01*
X55679Y119353D01*
X55575Y119347D01*
X55471Y119345D01*
X59965Y124530D02*
X60019Y124619D01*
X60077Y124705D01*
X60138Y124790D01*
X60202Y124872D01*
X60269Y124952D01*
X60339Y125029D01*
X60412Y125103D01*
X60488Y125175D01*
X60566Y125244D01*
X60646Y125310D01*
X60729Y125373D01*
X60814Y125433D01*
X60902Y125490D01*
X60991Y125543D01*
X61083Y125593D01*
X61176Y125639D01*
X61271Y125683D01*
X61367Y125722D01*
X61465Y125758D01*
X61564Y125790D01*
X61664Y125819D01*
X61765Y125844D01*
X61867Y125865D01*
X61970Y125882D01*
X62073Y125896D01*
X62177Y125905D01*
X62281Y125911D01*
X62385Y125913D01*
X59965Y124531D02*
X57891Y120728D01*
X56854Y130064D02*
X56854Y134213D01*
X52705Y131447D02*
X63077Y131447D01*
X63165Y131449D01*
X63253Y131454D01*
X63340Y131464D01*
X63428Y131477D01*
X63514Y131494D01*
X63600Y131514D01*
X63684Y131538D01*
X63768Y131565D01*
X63850Y131597D01*
X63931Y131631D01*
X64011Y131669D01*
X64088Y131710D01*
X64164Y131755D01*
X64238Y131803D01*
X64310Y131854D01*
X64380Y131907D01*
X64447Y131964D01*
X64512Y132024D01*
X64574Y132086D01*
X64634Y132151D01*
X64691Y132218D01*
X64745Y132288D01*
X64795Y132360D01*
X64843Y132434D01*
X64888Y132510D01*
X64929Y132587D01*
X64967Y132667D01*
X65001Y132748D01*
X65033Y132830D01*
X65060Y132914D01*
X65084Y132998D01*
X65104Y133084D01*
X65121Y133171D01*
X65134Y133258D01*
X65144Y133345D01*
X65149Y133433D01*
X65151Y133521D01*
X65151Y134213D01*
X65151Y139842D02*
X56854Y139842D01*
X56854Y143990D01*
X58237Y143990D01*
X59619Y148281D02*
X62385Y148281D01*
X59619Y148280D02*
X59516Y148282D01*
X59412Y148288D01*
X59309Y148297D01*
X59207Y148311D01*
X59105Y148328D01*
X59004Y148349D01*
X58903Y148374D01*
X58804Y148403D01*
X58705Y148435D01*
X58608Y148471D01*
X58513Y148511D01*
X58419Y148554D01*
X58327Y148601D01*
X58236Y148651D01*
X58147Y148704D01*
X58061Y148761D01*
X57976Y148820D01*
X57894Y148883D01*
X57815Y148949D01*
X57738Y149018D01*
X57663Y149090D01*
X57591Y149165D01*
X57522Y149242D01*
X57456Y149321D01*
X57393Y149403D01*
X57334Y149488D01*
X57277Y149574D01*
X57224Y149663D01*
X57174Y149754D01*
X57127Y149846D01*
X57084Y149940D01*
X57044Y150035D01*
X57008Y150132D01*
X56976Y150231D01*
X56947Y150330D01*
X56922Y150431D01*
X56901Y150532D01*
X56884Y150634D01*
X56870Y150736D01*
X56861Y150839D01*
X56855Y150943D01*
X56853Y151046D01*
X56855Y151149D01*
X56861Y151253D01*
X56870Y151356D01*
X56884Y151458D01*
X56901Y151560D01*
X56922Y151661D01*
X56947Y151762D01*
X56976Y151861D01*
X57008Y151960D01*
X57044Y152057D01*
X57084Y152152D01*
X57127Y152246D01*
X57174Y152338D01*
X57224Y152429D01*
X57277Y152518D01*
X57334Y152604D01*
X57393Y152689D01*
X57456Y152771D01*
X57522Y152850D01*
X57591Y152927D01*
X57663Y153002D01*
X57738Y153074D01*
X57815Y153143D01*
X57894Y153209D01*
X57976Y153272D01*
X58061Y153331D01*
X58147Y153388D01*
X58236Y153441D01*
X58327Y153491D01*
X58419Y153538D01*
X58513Y153581D01*
X58608Y153621D01*
X58705Y153657D01*
X58804Y153689D01*
X58903Y153718D01*
X59004Y153743D01*
X59105Y153764D01*
X59207Y153781D01*
X59309Y153795D01*
X59412Y153804D01*
X59516Y153810D01*
X59619Y153812D01*
X62385Y153812D01*
X62488Y153810D01*
X62592Y153804D01*
X62695Y153795D01*
X62797Y153781D01*
X62899Y153764D01*
X63000Y153743D01*
X63101Y153718D01*
X63200Y153689D01*
X63299Y153657D01*
X63396Y153621D01*
X63491Y153581D01*
X63585Y153538D01*
X63677Y153491D01*
X63768Y153441D01*
X63857Y153388D01*
X63943Y153331D01*
X64028Y153272D01*
X64110Y153209D01*
X64189Y153143D01*
X64266Y153074D01*
X64341Y153002D01*
X64413Y152927D01*
X64482Y152850D01*
X64548Y152771D01*
X64611Y152689D01*
X64670Y152604D01*
X64727Y152518D01*
X64780Y152429D01*
X64830Y152338D01*
X64877Y152246D01*
X64920Y152152D01*
X64960Y152057D01*
X64996Y151960D01*
X65028Y151861D01*
X65057Y151762D01*
X65082Y151661D01*
X65103Y151560D01*
X65120Y151458D01*
X65134Y151356D01*
X65143Y151253D01*
X65149Y151149D01*
X65151Y151046D01*
X65149Y150943D01*
X65143Y150839D01*
X65134Y150736D01*
X65120Y150634D01*
X65103Y150532D01*
X65082Y150431D01*
X65057Y150330D01*
X65028Y150231D01*
X64996Y150132D01*
X64960Y150035D01*
X64920Y149940D01*
X64877Y149846D01*
X64830Y149754D01*
X64780Y149663D01*
X64727Y149574D01*
X64670Y149488D01*
X64611Y149403D01*
X64548Y149321D01*
X64482Y149242D01*
X64413Y149165D01*
X64341Y149090D01*
X64266Y149018D01*
X64189Y148949D01*
X64110Y148883D01*
X64028Y148820D01*
X63943Y148761D01*
X63857Y148704D01*
X63768Y148651D01*
X63677Y148601D01*
X63585Y148554D01*
X63491Y148511D01*
X63396Y148471D01*
X63299Y148435D01*
X63200Y148403D01*
X63101Y148374D01*
X63000Y148349D01*
X62899Y148328D01*
X62797Y148311D01*
X62695Y148297D01*
X62592Y148288D01*
X62488Y148282D01*
X62385Y148280D01*
X65151Y159887D02*
X52705Y159887D01*
X65151Y159887D02*
X65151Y163344D01*
X65149Y163432D01*
X65144Y163520D01*
X65134Y163607D01*
X65121Y163695D01*
X65104Y163781D01*
X65084Y163867D01*
X65060Y163951D01*
X65033Y164035D01*
X65001Y164117D01*
X64967Y164198D01*
X64929Y164278D01*
X64888Y164355D01*
X64843Y164431D01*
X64795Y164505D01*
X64744Y164577D01*
X64691Y164647D01*
X64634Y164714D01*
X64574Y164779D01*
X64512Y164841D01*
X64447Y164901D01*
X64380Y164958D01*
X64310Y165011D01*
X64238Y165062D01*
X64164Y165110D01*
X64088Y165155D01*
X64011Y165196D01*
X63931Y165234D01*
X63850Y165268D01*
X63768Y165300D01*
X63684Y165327D01*
X63600Y165351D01*
X63514Y165371D01*
X63428Y165388D01*
X63340Y165401D01*
X63253Y165411D01*
X63165Y165416D01*
X63077Y165418D01*
X58928Y165418D01*
X58840Y165416D01*
X58752Y165411D01*
X58665Y165401D01*
X58577Y165388D01*
X58491Y165371D01*
X58405Y165351D01*
X58321Y165327D01*
X58237Y165300D01*
X58155Y165268D01*
X58074Y165234D01*
X57994Y165196D01*
X57917Y165155D01*
X57841Y165110D01*
X57767Y165062D01*
X57695Y165011D01*
X57625Y164958D01*
X57558Y164901D01*
X57493Y164841D01*
X57431Y164779D01*
X57371Y164714D01*
X57314Y164647D01*
X57261Y164577D01*
X57210Y164505D01*
X57162Y164431D01*
X57117Y164355D01*
X57076Y164278D01*
X57038Y164198D01*
X57004Y164117D01*
X56972Y164035D01*
X56945Y163951D01*
X56921Y163867D01*
X56901Y163781D01*
X56884Y163695D01*
X56871Y163607D01*
X56861Y163520D01*
X56856Y163432D01*
X56854Y163344D01*
X56854Y159887D01*
X65151Y172971D02*
X65151Y176428D01*
X65151Y172971D02*
X65149Y172883D01*
X65144Y172795D01*
X65134Y172708D01*
X65121Y172620D01*
X65104Y172534D01*
X65084Y172448D01*
X65060Y172364D01*
X65033Y172280D01*
X65001Y172198D01*
X64967Y172117D01*
X64929Y172037D01*
X64888Y171960D01*
X64843Y171884D01*
X64795Y171810D01*
X64744Y171738D01*
X64691Y171668D01*
X64634Y171601D01*
X64574Y171536D01*
X64512Y171474D01*
X64447Y171414D01*
X64380Y171357D01*
X64310Y171304D01*
X64238Y171253D01*
X64164Y171205D01*
X64088Y171160D01*
X64011Y171119D01*
X63931Y171081D01*
X63850Y171047D01*
X63768Y171015D01*
X63684Y170988D01*
X63600Y170964D01*
X63514Y170944D01*
X63428Y170927D01*
X63340Y170914D01*
X63253Y170904D01*
X63165Y170899D01*
X63077Y170897D01*
X59619Y170897D01*
X59516Y170899D01*
X59412Y170905D01*
X59309Y170914D01*
X59207Y170928D01*
X59105Y170945D01*
X59004Y170966D01*
X58903Y170991D01*
X58804Y171020D01*
X58705Y171052D01*
X58608Y171088D01*
X58513Y171128D01*
X58419Y171171D01*
X58327Y171218D01*
X58236Y171268D01*
X58147Y171321D01*
X58061Y171378D01*
X57976Y171437D01*
X57894Y171500D01*
X57815Y171566D01*
X57738Y171635D01*
X57663Y171707D01*
X57591Y171782D01*
X57522Y171859D01*
X57456Y171938D01*
X57393Y172020D01*
X57334Y172105D01*
X57277Y172191D01*
X57224Y172280D01*
X57174Y172371D01*
X57127Y172463D01*
X57084Y172557D01*
X57044Y172652D01*
X57008Y172749D01*
X56976Y172848D01*
X56947Y172947D01*
X56922Y173048D01*
X56901Y173149D01*
X56884Y173251D01*
X56870Y173353D01*
X56861Y173456D01*
X56855Y173560D01*
X56853Y173663D01*
X56855Y173766D01*
X56861Y173870D01*
X56870Y173973D01*
X56884Y174075D01*
X56901Y174177D01*
X56922Y174278D01*
X56947Y174379D01*
X56976Y174478D01*
X57008Y174577D01*
X57044Y174674D01*
X57084Y174769D01*
X57127Y174863D01*
X57174Y174955D01*
X57224Y175046D01*
X57277Y175135D01*
X57334Y175221D01*
X57393Y175306D01*
X57456Y175388D01*
X57522Y175467D01*
X57591Y175544D01*
X57663Y175619D01*
X57738Y175691D01*
X57815Y175760D01*
X57894Y175826D01*
X57976Y175889D01*
X58061Y175948D01*
X58147Y176005D01*
X58236Y176058D01*
X58327Y176108D01*
X58419Y176155D01*
X58513Y176198D01*
X58608Y176238D01*
X58705Y176274D01*
X58804Y176306D01*
X58903Y176335D01*
X59004Y176360D01*
X59105Y176381D01*
X59207Y176398D01*
X59309Y176412D01*
X59412Y176421D01*
X59516Y176427D01*
X59619Y176429D01*
X59619Y176428D02*
X61002Y176428D01*
X61002Y170897D01*
X65151Y189878D02*
X52705Y189878D01*
X65151Y188495D02*
X65151Y191261D01*
X52705Y191261D02*
X52705Y188495D01*
X56854Y196927D02*
X65151Y196927D01*
X56854Y196927D02*
X56854Y200384D01*
X56856Y200472D01*
X56861Y200560D01*
X56871Y200647D01*
X56884Y200735D01*
X56901Y200821D01*
X56921Y200907D01*
X56945Y200991D01*
X56972Y201075D01*
X57004Y201157D01*
X57038Y201238D01*
X57076Y201318D01*
X57117Y201395D01*
X57162Y201471D01*
X57210Y201545D01*
X57261Y201617D01*
X57314Y201687D01*
X57371Y201754D01*
X57431Y201819D01*
X57493Y201881D01*
X57558Y201941D01*
X57625Y201998D01*
X57695Y202051D01*
X57767Y202102D01*
X57841Y202150D01*
X57917Y202195D01*
X57994Y202236D01*
X58074Y202274D01*
X58155Y202308D01*
X58237Y202340D01*
X58321Y202367D01*
X58405Y202391D01*
X58491Y202411D01*
X58577Y202428D01*
X58665Y202441D01*
X58752Y202451D01*
X58840Y202456D01*
X58928Y202458D01*
X65151Y202458D01*
X75819Y36209D02*
X84116Y36209D01*
X79968Y32060D02*
X79968Y40358D01*
X90165Y31369D02*
X94314Y31369D01*
X94417Y31371D01*
X94521Y31377D01*
X94624Y31386D01*
X94726Y31400D01*
X94828Y31417D01*
X94929Y31438D01*
X95030Y31463D01*
X95129Y31492D01*
X95228Y31524D01*
X95325Y31560D01*
X95420Y31600D01*
X95514Y31643D01*
X95606Y31690D01*
X95697Y31740D01*
X95786Y31793D01*
X95872Y31850D01*
X95956Y31909D01*
X96039Y31972D01*
X96118Y32038D01*
X96195Y32107D01*
X96270Y32179D01*
X96342Y32254D01*
X96411Y32331D01*
X96477Y32410D01*
X96540Y32492D01*
X96599Y32577D01*
X96656Y32663D01*
X96709Y32752D01*
X96759Y32843D01*
X96806Y32935D01*
X96849Y33029D01*
X96889Y33124D01*
X96925Y33221D01*
X96957Y33320D01*
X96986Y33419D01*
X97011Y33519D01*
X97032Y33621D01*
X97049Y33723D01*
X97063Y33825D01*
X97072Y33928D01*
X97078Y34032D01*
X97080Y34135D01*
X97080Y35518D01*
X97078Y35621D01*
X97072Y35725D01*
X97063Y35828D01*
X97049Y35930D01*
X97032Y36032D01*
X97011Y36133D01*
X96986Y36234D01*
X96957Y36333D01*
X96925Y36432D01*
X96889Y36529D01*
X96849Y36624D01*
X96806Y36718D01*
X96759Y36810D01*
X96709Y36901D01*
X96656Y36990D01*
X96599Y37076D01*
X96540Y37161D01*
X96477Y37243D01*
X96411Y37322D01*
X96342Y37399D01*
X96270Y37474D01*
X96195Y37546D01*
X96118Y37615D01*
X96039Y37681D01*
X95957Y37744D01*
X95872Y37803D01*
X95786Y37860D01*
X95697Y37913D01*
X95606Y37963D01*
X95514Y38010D01*
X95420Y38053D01*
X95325Y38093D01*
X95228Y38129D01*
X95129Y38161D01*
X95030Y38190D01*
X94929Y38215D01*
X94828Y38236D01*
X94726Y38253D01*
X94624Y38267D01*
X94521Y38276D01*
X94417Y38282D01*
X94314Y38284D01*
X94314Y38283D02*
X90165Y38283D01*
X90165Y43815D01*
X97080Y43815D01*
X165749Y37013D02*
X167823Y37013D01*
X167823Y30099D01*
X163675Y30099D01*
X163572Y30101D01*
X163468Y30107D01*
X163365Y30116D01*
X163263Y30130D01*
X163161Y30147D01*
X163060Y30168D01*
X162959Y30193D01*
X162860Y30222D01*
X162761Y30254D01*
X162664Y30290D01*
X162569Y30330D01*
X162475Y30373D01*
X162383Y30420D01*
X162292Y30470D01*
X162203Y30523D01*
X162117Y30580D01*
X162032Y30639D01*
X161950Y30702D01*
X161871Y30768D01*
X161794Y30837D01*
X161719Y30909D01*
X161647Y30984D01*
X161578Y31061D01*
X161512Y31140D01*
X161449Y31222D01*
X161390Y31307D01*
X161333Y31393D01*
X161280Y31482D01*
X161230Y31573D01*
X161183Y31665D01*
X161140Y31759D01*
X161100Y31854D01*
X161064Y31951D01*
X161032Y32050D01*
X161003Y32149D01*
X160978Y32250D01*
X160957Y32351D01*
X160940Y32453D01*
X160926Y32555D01*
X160917Y32658D01*
X160911Y32762D01*
X160909Y32865D01*
X160909Y39779D01*
X160911Y39882D01*
X160917Y39986D01*
X160926Y40089D01*
X160940Y40191D01*
X160957Y40293D01*
X160978Y40394D01*
X161003Y40495D01*
X161032Y40594D01*
X161064Y40693D01*
X161100Y40790D01*
X161140Y40885D01*
X161183Y40979D01*
X161230Y41071D01*
X161280Y41162D01*
X161333Y41251D01*
X161390Y41337D01*
X161449Y41421D01*
X161512Y41504D01*
X161578Y41583D01*
X161647Y41660D01*
X161719Y41735D01*
X161794Y41807D01*
X161871Y41876D01*
X161950Y41942D01*
X162032Y42005D01*
X162117Y42064D01*
X162203Y42121D01*
X162292Y42174D01*
X162383Y42224D01*
X162475Y42271D01*
X162569Y42314D01*
X162664Y42354D01*
X162761Y42390D01*
X162860Y42422D01*
X162959Y42451D01*
X163059Y42476D01*
X163161Y42497D01*
X163263Y42514D01*
X163365Y42528D01*
X163468Y42537D01*
X163572Y42543D01*
X163675Y42545D01*
X167823Y42545D01*
X174564Y42545D02*
X174564Y30099D01*
X181478Y30099D02*
X174564Y42545D01*
X181478Y42545D02*
X181478Y30099D01*
X188219Y30099D02*
X188219Y42545D01*
X191676Y42545D01*
X191792Y42543D01*
X191907Y42537D01*
X192022Y42528D01*
X192137Y42514D01*
X192251Y42497D01*
X192365Y42476D01*
X192477Y42451D01*
X192589Y42422D01*
X192700Y42390D01*
X192810Y42354D01*
X192918Y42314D01*
X193026Y42271D01*
X193131Y42224D01*
X193235Y42173D01*
X193337Y42120D01*
X193438Y42062D01*
X193536Y42002D01*
X193632Y41938D01*
X193727Y41871D01*
X193818Y41801D01*
X193908Y41728D01*
X193995Y41652D01*
X194079Y41573D01*
X194161Y41491D01*
X194240Y41407D01*
X194316Y41320D01*
X194389Y41230D01*
X194459Y41139D01*
X194526Y41044D01*
X194590Y40948D01*
X194650Y40850D01*
X194708Y40749D01*
X194761Y40647D01*
X194812Y40543D01*
X194859Y40438D01*
X194902Y40330D01*
X194942Y40222D01*
X194978Y40112D01*
X195010Y40001D01*
X195039Y39889D01*
X195064Y39777D01*
X195085Y39663D01*
X195102Y39549D01*
X195116Y39434D01*
X195125Y39319D01*
X195131Y39203D01*
X195133Y39088D01*
X195133Y33556D01*
X195131Y33440D01*
X195125Y33325D01*
X195116Y33210D01*
X195102Y33095D01*
X195085Y32981D01*
X195064Y32867D01*
X195039Y32755D01*
X195010Y32643D01*
X194978Y32532D01*
X194942Y32422D01*
X194902Y32314D01*
X194859Y32206D01*
X194812Y32101D01*
X194761Y31997D01*
X194708Y31895D01*
X194650Y31794D01*
X194590Y31696D01*
X194526Y31600D01*
X194459Y31505D01*
X194389Y31414D01*
X194316Y31324D01*
X194240Y31237D01*
X194161Y31153D01*
X194079Y31071D01*
X193995Y30992D01*
X193908Y30916D01*
X193818Y30843D01*
X193727Y30773D01*
X193632Y30706D01*
X193536Y30642D01*
X193438Y30582D01*
X193337Y30524D01*
X193235Y30471D01*
X193131Y30420D01*
X193026Y30373D01*
X192918Y30330D01*
X192810Y30290D01*
X192700Y30254D01*
X192589Y30222D01*
X192477Y30193D01*
X192365Y30168D01*
X192251Y30147D01*
X192137Y30130D01*
X192022Y30116D01*
X191907Y30107D01*
X191792Y30101D01*
X191676Y30099D01*
X188219Y30099D01*
X432689Y24779D02*
X440986Y24779D01*
X436838Y20630D02*
X436838Y28928D01*
X433959Y76849D02*
X442256Y76849D01*
X442143Y50983D02*
X440069Y50983D01*
X442143Y50983D02*
X442143Y44069D01*
X437995Y44069D01*
X437892Y44071D01*
X437788Y44077D01*
X437685Y44086D01*
X437583Y44100D01*
X437481Y44117D01*
X437380Y44138D01*
X437279Y44163D01*
X437180Y44192D01*
X437081Y44224D01*
X436984Y44260D01*
X436889Y44300D01*
X436795Y44343D01*
X436703Y44390D01*
X436612Y44440D01*
X436523Y44493D01*
X436437Y44550D01*
X436352Y44609D01*
X436270Y44672D01*
X436191Y44738D01*
X436114Y44807D01*
X436039Y44879D01*
X435967Y44954D01*
X435898Y45031D01*
X435832Y45110D01*
X435769Y45192D01*
X435710Y45277D01*
X435653Y45363D01*
X435600Y45452D01*
X435550Y45543D01*
X435503Y45635D01*
X435460Y45729D01*
X435420Y45824D01*
X435384Y45921D01*
X435352Y46020D01*
X435323Y46119D01*
X435298Y46220D01*
X435277Y46321D01*
X435260Y46423D01*
X435246Y46525D01*
X435237Y46628D01*
X435231Y46732D01*
X435229Y46835D01*
X435229Y53749D01*
X435231Y53852D01*
X435237Y53956D01*
X435246Y54059D01*
X435260Y54161D01*
X435277Y54263D01*
X435298Y54364D01*
X435323Y54465D01*
X435352Y54564D01*
X435384Y54663D01*
X435420Y54760D01*
X435460Y54855D01*
X435503Y54949D01*
X435550Y55041D01*
X435600Y55132D01*
X435653Y55221D01*
X435710Y55307D01*
X435769Y55391D01*
X435832Y55474D01*
X435898Y55553D01*
X435967Y55630D01*
X436039Y55705D01*
X436114Y55777D01*
X436191Y55846D01*
X436270Y55912D01*
X436352Y55975D01*
X436437Y56034D01*
X436523Y56091D01*
X436612Y56144D01*
X436703Y56194D01*
X436795Y56241D01*
X436889Y56284D01*
X436984Y56324D01*
X437081Y56360D01*
X437180Y56392D01*
X437279Y56421D01*
X437379Y56446D01*
X437481Y56467D01*
X437583Y56484D01*
X437685Y56498D01*
X437788Y56507D01*
X437892Y56513D01*
X437995Y56515D01*
X442143Y56515D01*
X263074Y34135D02*
X263072Y34032D01*
X263066Y33928D01*
X263057Y33825D01*
X263043Y33723D01*
X263026Y33621D01*
X263005Y33520D01*
X262980Y33419D01*
X262951Y33320D01*
X262919Y33221D01*
X262883Y33124D01*
X262843Y33029D01*
X262800Y32935D01*
X262753Y32843D01*
X262703Y32752D01*
X262650Y32663D01*
X262593Y32577D01*
X262534Y32492D01*
X262471Y32410D01*
X262405Y32331D01*
X262336Y32254D01*
X262264Y32179D01*
X262189Y32107D01*
X262112Y32038D01*
X262033Y31972D01*
X261951Y31909D01*
X261866Y31850D01*
X261780Y31793D01*
X261691Y31740D01*
X261600Y31690D01*
X261508Y31643D01*
X261414Y31600D01*
X261319Y31560D01*
X261222Y31524D01*
X261123Y31492D01*
X261024Y31463D01*
X260923Y31438D01*
X260822Y31417D01*
X260720Y31400D01*
X260618Y31386D01*
X260515Y31377D01*
X260411Y31371D01*
X260308Y31369D01*
X260159Y31371D01*
X260010Y31377D01*
X259862Y31386D01*
X259714Y31399D01*
X259566Y31416D01*
X259419Y31437D01*
X259272Y31462D01*
X259126Y31490D01*
X258980Y31522D01*
X258836Y31558D01*
X258692Y31597D01*
X258550Y31640D01*
X258408Y31686D01*
X258268Y31737D01*
X258130Y31790D01*
X257992Y31848D01*
X257856Y31908D01*
X257722Y31972D01*
X257589Y32040D01*
X257459Y32111D01*
X257330Y32185D01*
X257203Y32263D01*
X257078Y32343D01*
X256955Y32427D01*
X256834Y32514D01*
X256715Y32604D01*
X256599Y32697D01*
X256485Y32793D01*
X256374Y32892D01*
X256265Y32993D01*
X256159Y33098D01*
X256504Y41049D02*
X256506Y41152D01*
X256512Y41256D01*
X256521Y41359D01*
X256535Y41461D01*
X256552Y41563D01*
X256573Y41664D01*
X256598Y41765D01*
X256627Y41864D01*
X256659Y41963D01*
X256695Y42060D01*
X256735Y42155D01*
X256778Y42249D01*
X256825Y42341D01*
X256875Y42432D01*
X256928Y42521D01*
X256985Y42607D01*
X257044Y42692D01*
X257107Y42774D01*
X257173Y42853D01*
X257242Y42930D01*
X257314Y43005D01*
X257389Y43077D01*
X257466Y43146D01*
X257545Y43212D01*
X257628Y43275D01*
X257712Y43334D01*
X257798Y43391D01*
X257887Y43444D01*
X257978Y43494D01*
X258070Y43541D01*
X258164Y43584D01*
X258259Y43624D01*
X258356Y43660D01*
X258455Y43692D01*
X258554Y43721D01*
X258655Y43746D01*
X258756Y43767D01*
X258858Y43784D01*
X258960Y43798D01*
X259063Y43807D01*
X259167Y43813D01*
X259270Y43815D01*
X259409Y43813D01*
X259548Y43808D01*
X259687Y43798D01*
X259825Y43785D01*
X259963Y43768D01*
X260101Y43748D01*
X260238Y43724D01*
X260374Y43696D01*
X260509Y43665D01*
X260644Y43630D01*
X260778Y43591D01*
X260910Y43549D01*
X261041Y43503D01*
X261171Y43454D01*
X261300Y43401D01*
X261427Y43345D01*
X261553Y43286D01*
X261677Y43223D01*
X261799Y43156D01*
X261920Y43087D01*
X262038Y43014D01*
X262155Y42939D01*
X262269Y42860D01*
X262382Y42778D01*
X257888Y38629D02*
X257799Y38683D01*
X257712Y38741D01*
X257628Y38802D01*
X257546Y38866D01*
X257466Y38933D01*
X257389Y39003D01*
X257314Y39076D01*
X257243Y39152D01*
X257174Y39230D01*
X257108Y39310D01*
X257045Y39393D01*
X256985Y39478D01*
X256928Y39566D01*
X256875Y39655D01*
X256825Y39747D01*
X256779Y39840D01*
X256735Y39935D01*
X256696Y40031D01*
X256660Y40129D01*
X256628Y40228D01*
X256599Y40328D01*
X256574Y40429D01*
X256553Y40531D01*
X256536Y40634D01*
X256522Y40737D01*
X256513Y40841D01*
X256507Y40945D01*
X256505Y41049D01*
X261690Y36555D02*
X261779Y36501D01*
X261865Y36443D01*
X261950Y36382D01*
X262032Y36318D01*
X262112Y36251D01*
X262189Y36181D01*
X262263Y36108D01*
X262335Y36032D01*
X262404Y35954D01*
X262470Y35874D01*
X262533Y35791D01*
X262593Y35706D01*
X262650Y35618D01*
X262703Y35529D01*
X262753Y35437D01*
X262799Y35344D01*
X262843Y35249D01*
X262882Y35153D01*
X262918Y35055D01*
X262950Y34956D01*
X262979Y34856D01*
X263004Y34755D01*
X263025Y34653D01*
X263042Y34550D01*
X263056Y34447D01*
X263065Y34343D01*
X263071Y34239D01*
X263073Y34135D01*
X261691Y36555D02*
X257888Y38629D01*
X270707Y36209D02*
X273819Y36209D01*
X270707Y36209D02*
X270610Y36207D01*
X270512Y36201D01*
X270415Y36191D01*
X270319Y36178D01*
X270223Y36160D01*
X270128Y36139D01*
X270034Y36113D01*
X269941Y36084D01*
X269849Y36052D01*
X269758Y36015D01*
X269670Y35975D01*
X269582Y35932D01*
X269497Y35885D01*
X269414Y35834D01*
X269332Y35781D01*
X269253Y35724D01*
X269176Y35664D01*
X269102Y35600D01*
X269031Y35534D01*
X268962Y35465D01*
X268896Y35394D01*
X268832Y35320D01*
X268772Y35243D01*
X268715Y35164D01*
X268662Y35082D01*
X268611Y34999D01*
X268564Y34914D01*
X268521Y34826D01*
X268481Y34738D01*
X268444Y34647D01*
X268412Y34555D01*
X268383Y34462D01*
X268357Y34368D01*
X268336Y34273D01*
X268318Y34177D01*
X268305Y34081D01*
X268295Y33984D01*
X268289Y33886D01*
X268287Y33789D01*
X268289Y33692D01*
X268295Y33594D01*
X268305Y33497D01*
X268318Y33401D01*
X268336Y33305D01*
X268357Y33210D01*
X268383Y33116D01*
X268412Y33023D01*
X268444Y32931D01*
X268481Y32840D01*
X268521Y32752D01*
X268564Y32664D01*
X268611Y32579D01*
X268662Y32496D01*
X268715Y32414D01*
X268772Y32335D01*
X268832Y32258D01*
X268896Y32184D01*
X268962Y32113D01*
X269031Y32044D01*
X269102Y31978D01*
X269176Y31914D01*
X269253Y31854D01*
X269332Y31797D01*
X269414Y31744D01*
X269497Y31693D01*
X269582Y31646D01*
X269670Y31603D01*
X269758Y31563D01*
X269849Y31526D01*
X269941Y31494D01*
X270034Y31465D01*
X270128Y31439D01*
X270223Y31418D01*
X270319Y31400D01*
X270415Y31387D01*
X270512Y31377D01*
X270610Y31371D01*
X270707Y31369D01*
X273819Y31369D01*
X273819Y37592D01*
X273817Y37680D01*
X273812Y37768D01*
X273802Y37855D01*
X273789Y37943D01*
X273772Y38029D01*
X273752Y38115D01*
X273728Y38199D01*
X273701Y38283D01*
X273669Y38365D01*
X273635Y38446D01*
X273597Y38526D01*
X273556Y38603D01*
X273511Y38679D01*
X273463Y38753D01*
X273412Y38825D01*
X273359Y38895D01*
X273302Y38962D01*
X273242Y39027D01*
X273180Y39089D01*
X273115Y39149D01*
X273048Y39206D01*
X272978Y39259D01*
X272906Y39310D01*
X272832Y39358D01*
X272756Y39403D01*
X272679Y39444D01*
X272599Y39482D01*
X272518Y39516D01*
X272436Y39548D01*
X272352Y39575D01*
X272268Y39599D01*
X272182Y39619D01*
X272096Y39636D01*
X272008Y39649D01*
X271921Y39659D01*
X271833Y39664D01*
X271745Y39666D01*
X268979Y39666D01*
X280644Y39666D02*
X280644Y31369D01*
X280644Y39666D02*
X286867Y39666D01*
X286955Y39664D01*
X287043Y39659D01*
X287130Y39649D01*
X287218Y39636D01*
X287304Y39619D01*
X287390Y39599D01*
X287474Y39575D01*
X287558Y39548D01*
X287640Y39516D01*
X287721Y39482D01*
X287801Y39444D01*
X287878Y39403D01*
X287954Y39358D01*
X288028Y39310D01*
X288100Y39259D01*
X288170Y39206D01*
X288237Y39149D01*
X288302Y39089D01*
X288364Y39027D01*
X288424Y38962D01*
X288481Y38895D01*
X288534Y38825D01*
X288585Y38753D01*
X288633Y38679D01*
X288678Y38603D01*
X288719Y38526D01*
X288757Y38446D01*
X288791Y38365D01*
X288823Y38283D01*
X288850Y38199D01*
X288874Y38115D01*
X288894Y38029D01*
X288911Y37943D01*
X288924Y37855D01*
X288934Y37768D01*
X288939Y37680D01*
X288941Y37592D01*
X288941Y31369D01*
X284793Y31369D02*
X284793Y39666D01*
X295766Y39666D02*
X295766Y27220D01*
X295766Y39666D02*
X299224Y39666D01*
X299312Y39664D01*
X299400Y39659D01*
X299487Y39649D01*
X299575Y39636D01*
X299661Y39619D01*
X299747Y39599D01*
X299831Y39575D01*
X299915Y39548D01*
X299997Y39516D01*
X300078Y39482D01*
X300158Y39444D01*
X300235Y39403D01*
X300311Y39358D01*
X300385Y39310D01*
X300457Y39259D01*
X300527Y39206D01*
X300594Y39149D01*
X300659Y39089D01*
X300721Y39027D01*
X300781Y38962D01*
X300838Y38895D01*
X300891Y38825D01*
X300942Y38753D01*
X300990Y38679D01*
X301035Y38603D01*
X301076Y38526D01*
X301114Y38446D01*
X301148Y38365D01*
X301180Y38283D01*
X301207Y38199D01*
X301231Y38115D01*
X301251Y38029D01*
X301268Y37943D01*
X301281Y37855D01*
X301291Y37768D01*
X301296Y37680D01*
X301298Y37592D01*
X301298Y33443D01*
X301296Y33355D01*
X301291Y33267D01*
X301281Y33180D01*
X301268Y33092D01*
X301251Y33006D01*
X301231Y32920D01*
X301207Y32836D01*
X301180Y32752D01*
X301148Y32670D01*
X301114Y32589D01*
X301076Y32509D01*
X301035Y32432D01*
X300990Y32356D01*
X300942Y32282D01*
X300891Y32210D01*
X300838Y32140D01*
X300781Y32073D01*
X300721Y32008D01*
X300659Y31946D01*
X300594Y31886D01*
X300527Y31829D01*
X300457Y31776D01*
X300385Y31725D01*
X300311Y31677D01*
X300235Y31632D01*
X300158Y31591D01*
X300078Y31553D01*
X299997Y31519D01*
X299915Y31487D01*
X299831Y31460D01*
X299747Y31436D01*
X299661Y31416D01*
X299575Y31399D01*
X299487Y31386D01*
X299400Y31376D01*
X299312Y31371D01*
X299224Y31369D01*
X295766Y31369D01*
X306871Y33443D02*
X306871Y43815D01*
X306872Y33443D02*
X306874Y33355D01*
X306879Y33267D01*
X306889Y33180D01*
X306902Y33092D01*
X306919Y33006D01*
X306939Y32920D01*
X306963Y32836D01*
X306990Y32752D01*
X307022Y32670D01*
X307056Y32589D01*
X307094Y32509D01*
X307135Y32432D01*
X307180Y32356D01*
X307228Y32282D01*
X307279Y32210D01*
X307332Y32140D01*
X307389Y32073D01*
X307449Y32008D01*
X307511Y31946D01*
X307576Y31886D01*
X307643Y31829D01*
X307713Y31776D01*
X307785Y31725D01*
X307859Y31677D01*
X307935Y31632D01*
X308012Y31591D01*
X308092Y31553D01*
X308173Y31519D01*
X308255Y31487D01*
X308339Y31460D01*
X308423Y31436D01*
X308509Y31416D01*
X308595Y31399D01*
X308683Y31386D01*
X308770Y31376D01*
X308858Y31371D01*
X308946Y31369D01*
X315678Y31369D02*
X319136Y31369D01*
X315678Y31369D02*
X315590Y31371D01*
X315502Y31376D01*
X315415Y31386D01*
X315327Y31399D01*
X315241Y31416D01*
X315155Y31436D01*
X315071Y31460D01*
X314987Y31487D01*
X314905Y31519D01*
X314824Y31553D01*
X314744Y31591D01*
X314667Y31632D01*
X314591Y31677D01*
X314517Y31725D01*
X314445Y31776D01*
X314375Y31829D01*
X314308Y31886D01*
X314243Y31946D01*
X314181Y32008D01*
X314121Y32073D01*
X314064Y32140D01*
X314011Y32210D01*
X313960Y32282D01*
X313912Y32356D01*
X313867Y32432D01*
X313826Y32509D01*
X313788Y32589D01*
X313754Y32670D01*
X313722Y32752D01*
X313695Y32836D01*
X313671Y32920D01*
X313651Y33006D01*
X313634Y33092D01*
X313621Y33180D01*
X313611Y33267D01*
X313606Y33355D01*
X313604Y33443D01*
X313604Y36901D01*
X313606Y37004D01*
X313612Y37108D01*
X313621Y37211D01*
X313635Y37313D01*
X313652Y37415D01*
X313673Y37516D01*
X313698Y37617D01*
X313727Y37716D01*
X313759Y37815D01*
X313795Y37912D01*
X313835Y38007D01*
X313878Y38101D01*
X313925Y38193D01*
X313975Y38284D01*
X314028Y38373D01*
X314085Y38459D01*
X314144Y38544D01*
X314207Y38626D01*
X314273Y38705D01*
X314342Y38782D01*
X314414Y38857D01*
X314489Y38929D01*
X314566Y38998D01*
X314645Y39064D01*
X314727Y39127D01*
X314812Y39186D01*
X314898Y39243D01*
X314987Y39296D01*
X315078Y39346D01*
X315170Y39393D01*
X315264Y39436D01*
X315359Y39476D01*
X315456Y39512D01*
X315555Y39544D01*
X315654Y39573D01*
X315755Y39598D01*
X315856Y39619D01*
X315958Y39636D01*
X316060Y39650D01*
X316163Y39659D01*
X316267Y39665D01*
X316370Y39667D01*
X316473Y39665D01*
X316577Y39659D01*
X316680Y39650D01*
X316782Y39636D01*
X316884Y39619D01*
X316985Y39598D01*
X317086Y39573D01*
X317185Y39544D01*
X317284Y39512D01*
X317381Y39476D01*
X317476Y39436D01*
X317570Y39393D01*
X317662Y39346D01*
X317753Y39296D01*
X317842Y39243D01*
X317928Y39186D01*
X318013Y39127D01*
X318095Y39064D01*
X318174Y38998D01*
X318251Y38929D01*
X318326Y38857D01*
X318398Y38782D01*
X318467Y38705D01*
X318533Y38626D01*
X318596Y38544D01*
X318655Y38459D01*
X318712Y38373D01*
X318765Y38284D01*
X318815Y38193D01*
X318862Y38101D01*
X318905Y38007D01*
X318945Y37912D01*
X318981Y37815D01*
X319013Y37716D01*
X319042Y37617D01*
X319067Y37516D01*
X319088Y37415D01*
X319105Y37313D01*
X319119Y37211D01*
X319128Y37108D01*
X319134Y37004D01*
X319136Y36901D01*
X319136Y35518D01*
X313604Y35518D01*
X218398Y242408D02*
X214249Y248285D01*
X218398Y242408D02*
X222546Y248285D01*
X218398Y242408D02*
X218398Y235839D01*
X229916Y240679D02*
X233027Y240679D01*
X229916Y240679D02*
X229819Y240677D01*
X229721Y240671D01*
X229624Y240661D01*
X229528Y240648D01*
X229432Y240630D01*
X229337Y240609D01*
X229243Y240583D01*
X229150Y240554D01*
X229058Y240522D01*
X228967Y240485D01*
X228879Y240445D01*
X228791Y240402D01*
X228706Y240355D01*
X228623Y240304D01*
X228541Y240251D01*
X228462Y240194D01*
X228385Y240134D01*
X228311Y240070D01*
X228240Y240004D01*
X228171Y239935D01*
X228105Y239864D01*
X228041Y239790D01*
X227981Y239713D01*
X227924Y239634D01*
X227871Y239552D01*
X227820Y239469D01*
X227773Y239384D01*
X227730Y239296D01*
X227690Y239208D01*
X227653Y239117D01*
X227621Y239025D01*
X227592Y238932D01*
X227566Y238838D01*
X227545Y238743D01*
X227527Y238647D01*
X227514Y238551D01*
X227504Y238454D01*
X227498Y238356D01*
X227496Y238259D01*
X227498Y238162D01*
X227504Y238064D01*
X227514Y237967D01*
X227527Y237871D01*
X227545Y237775D01*
X227566Y237680D01*
X227592Y237586D01*
X227621Y237493D01*
X227653Y237401D01*
X227690Y237310D01*
X227730Y237222D01*
X227773Y237134D01*
X227820Y237049D01*
X227871Y236966D01*
X227924Y236884D01*
X227981Y236805D01*
X228041Y236728D01*
X228105Y236654D01*
X228171Y236583D01*
X228240Y236514D01*
X228311Y236448D01*
X228385Y236384D01*
X228462Y236324D01*
X228541Y236267D01*
X228623Y236214D01*
X228706Y236163D01*
X228791Y236116D01*
X228879Y236073D01*
X228967Y236033D01*
X229058Y235996D01*
X229150Y235964D01*
X229243Y235935D01*
X229337Y235909D01*
X229432Y235888D01*
X229528Y235870D01*
X229624Y235857D01*
X229721Y235847D01*
X229819Y235841D01*
X229916Y235839D01*
X233027Y235839D01*
X233027Y242062D01*
X233025Y242150D01*
X233020Y242238D01*
X233010Y242325D01*
X232997Y242413D01*
X232980Y242499D01*
X232960Y242585D01*
X232936Y242669D01*
X232909Y242753D01*
X232877Y242835D01*
X232843Y242916D01*
X232805Y242996D01*
X232764Y243073D01*
X232719Y243149D01*
X232671Y243223D01*
X232620Y243295D01*
X232567Y243365D01*
X232510Y243432D01*
X232450Y243497D01*
X232388Y243559D01*
X232323Y243619D01*
X232256Y243676D01*
X232186Y243729D01*
X232114Y243780D01*
X232040Y243828D01*
X231964Y243873D01*
X231887Y243914D01*
X231807Y243952D01*
X231726Y243986D01*
X231644Y244018D01*
X231560Y244045D01*
X231476Y244069D01*
X231390Y244089D01*
X231304Y244106D01*
X231216Y244119D01*
X231129Y244129D01*
X231041Y244134D01*
X230953Y244136D01*
X228187Y244136D01*
X239613Y244136D02*
X239613Y231690D01*
X239613Y244136D02*
X243070Y244136D01*
X243158Y244134D01*
X243246Y244129D01*
X243333Y244119D01*
X243421Y244106D01*
X243507Y244089D01*
X243593Y244069D01*
X243677Y244045D01*
X243761Y244018D01*
X243843Y243986D01*
X243924Y243952D01*
X244004Y243914D01*
X244081Y243873D01*
X244157Y243828D01*
X244231Y243780D01*
X244303Y243729D01*
X244373Y243676D01*
X244440Y243619D01*
X244505Y243559D01*
X244567Y243497D01*
X244627Y243432D01*
X244684Y243365D01*
X244737Y243295D01*
X244788Y243223D01*
X244836Y243149D01*
X244881Y243073D01*
X244922Y242996D01*
X244960Y242916D01*
X244994Y242835D01*
X245026Y242753D01*
X245053Y242669D01*
X245077Y242585D01*
X245097Y242499D01*
X245114Y242413D01*
X245127Y242325D01*
X245137Y242238D01*
X245142Y242150D01*
X245144Y242062D01*
X245144Y237913D01*
X245142Y237825D01*
X245137Y237737D01*
X245127Y237650D01*
X245114Y237562D01*
X245097Y237476D01*
X245077Y237390D01*
X245053Y237306D01*
X245026Y237222D01*
X244994Y237140D01*
X244960Y237059D01*
X244922Y236979D01*
X244881Y236902D01*
X244836Y236826D01*
X244788Y236752D01*
X244737Y236680D01*
X244684Y236610D01*
X244627Y236543D01*
X244567Y236478D01*
X244505Y236416D01*
X244440Y236356D01*
X244373Y236299D01*
X244303Y236246D01*
X244231Y236195D01*
X244157Y236147D01*
X244081Y236102D01*
X244004Y236061D01*
X243924Y236023D01*
X243843Y235989D01*
X243761Y235957D01*
X243677Y235930D01*
X243593Y235906D01*
X243507Y235886D01*
X243421Y235869D01*
X243333Y235856D01*
X243246Y235846D01*
X243158Y235841D01*
X243070Y235839D01*
X239613Y235839D01*
X250623Y238605D02*
X250623Y241371D01*
X250625Y241474D01*
X250631Y241578D01*
X250640Y241681D01*
X250654Y241783D01*
X250671Y241885D01*
X250692Y241986D01*
X250717Y242087D01*
X250746Y242186D01*
X250778Y242285D01*
X250814Y242382D01*
X250854Y242477D01*
X250897Y242571D01*
X250944Y242663D01*
X250994Y242754D01*
X251047Y242843D01*
X251104Y242929D01*
X251163Y243014D01*
X251226Y243096D01*
X251292Y243175D01*
X251361Y243252D01*
X251433Y243327D01*
X251508Y243399D01*
X251585Y243468D01*
X251664Y243534D01*
X251746Y243597D01*
X251831Y243656D01*
X251917Y243713D01*
X252006Y243766D01*
X252097Y243816D01*
X252189Y243863D01*
X252283Y243906D01*
X252378Y243946D01*
X252475Y243982D01*
X252574Y244014D01*
X252673Y244043D01*
X252774Y244068D01*
X252875Y244089D01*
X252977Y244106D01*
X253079Y244120D01*
X253182Y244129D01*
X253286Y244135D01*
X253389Y244137D01*
X253492Y244135D01*
X253596Y244129D01*
X253699Y244120D01*
X253801Y244106D01*
X253903Y244089D01*
X254004Y244068D01*
X254105Y244043D01*
X254204Y244014D01*
X254303Y243982D01*
X254400Y243946D01*
X254495Y243906D01*
X254589Y243863D01*
X254681Y243816D01*
X254772Y243766D01*
X254861Y243713D01*
X254947Y243656D01*
X255032Y243597D01*
X255114Y243534D01*
X255193Y243468D01*
X255270Y243399D01*
X255345Y243327D01*
X255417Y243252D01*
X255486Y243175D01*
X255552Y243096D01*
X255615Y243014D01*
X255674Y242929D01*
X255731Y242843D01*
X255784Y242754D01*
X255834Y242663D01*
X255881Y242571D01*
X255924Y242477D01*
X255964Y242382D01*
X256000Y242285D01*
X256032Y242186D01*
X256061Y242087D01*
X256086Y241986D01*
X256107Y241885D01*
X256124Y241783D01*
X256138Y241681D01*
X256147Y241578D01*
X256153Y241474D01*
X256155Y241371D01*
X256154Y241371D02*
X256154Y238605D01*
X256155Y238605D02*
X256153Y238502D01*
X256147Y238398D01*
X256138Y238295D01*
X256124Y238193D01*
X256107Y238091D01*
X256086Y237990D01*
X256061Y237889D01*
X256032Y237790D01*
X256000Y237691D01*
X255964Y237594D01*
X255924Y237499D01*
X255881Y237405D01*
X255834Y237313D01*
X255784Y237222D01*
X255731Y237133D01*
X255674Y237047D01*
X255615Y236962D01*
X255552Y236880D01*
X255486Y236801D01*
X255417Y236724D01*
X255345Y236649D01*
X255270Y236577D01*
X255193Y236508D01*
X255114Y236442D01*
X255032Y236379D01*
X254947Y236320D01*
X254861Y236263D01*
X254772Y236210D01*
X254681Y236160D01*
X254589Y236113D01*
X254495Y236070D01*
X254400Y236030D01*
X254303Y235994D01*
X254204Y235962D01*
X254105Y235933D01*
X254004Y235908D01*
X253903Y235887D01*
X253801Y235870D01*
X253699Y235856D01*
X253596Y235847D01*
X253492Y235841D01*
X253389Y235839D01*
X253286Y235841D01*
X253182Y235847D01*
X253079Y235856D01*
X252977Y235870D01*
X252875Y235887D01*
X252774Y235908D01*
X252673Y235933D01*
X252574Y235962D01*
X252475Y235994D01*
X252378Y236030D01*
X252283Y236070D01*
X252189Y236113D01*
X252097Y236160D01*
X252006Y236210D01*
X251917Y236263D01*
X251831Y236320D01*
X251746Y236379D01*
X251664Y236442D01*
X251585Y236508D01*
X251508Y236577D01*
X251433Y236649D01*
X251361Y236724D01*
X251292Y236801D01*
X251226Y236880D01*
X251163Y236962D01*
X251104Y237047D01*
X251047Y237133D01*
X250994Y237222D01*
X250944Y237313D01*
X250897Y237405D01*
X250854Y237499D01*
X250814Y237594D01*
X250778Y237691D01*
X250746Y237790D01*
X250717Y237889D01*
X250692Y237990D01*
X250671Y238091D01*
X250654Y238193D01*
X250640Y238295D01*
X250631Y238398D01*
X250625Y238502D01*
X250623Y238605D01*
X272510Y248286D02*
X272621Y248284D01*
X272732Y248278D01*
X272843Y248268D01*
X272953Y248254D01*
X273063Y248237D01*
X273172Y248215D01*
X273280Y248189D01*
X273387Y248160D01*
X273493Y248127D01*
X273598Y248090D01*
X273701Y248049D01*
X273803Y248005D01*
X273903Y247957D01*
X274001Y247905D01*
X274098Y247850D01*
X274192Y247792D01*
X274285Y247730D01*
X274375Y247665D01*
X274463Y247597D01*
X274548Y247526D01*
X274631Y247452D01*
X274711Y247375D01*
X274788Y247295D01*
X274862Y247212D01*
X274933Y247127D01*
X275001Y247039D01*
X275066Y246949D01*
X275128Y246856D01*
X275186Y246762D01*
X275241Y246665D01*
X275293Y246567D01*
X275341Y246467D01*
X275385Y246365D01*
X275426Y246262D01*
X275463Y246157D01*
X275496Y246051D01*
X275525Y245944D01*
X275551Y245836D01*
X275573Y245727D01*
X275590Y245617D01*
X275604Y245507D01*
X275614Y245396D01*
X275620Y245285D01*
X275622Y245174D01*
X272510Y248285D02*
X272384Y248283D01*
X272259Y248277D01*
X272134Y248267D01*
X272009Y248253D01*
X271884Y248236D01*
X271760Y248214D01*
X271637Y248189D01*
X271515Y248159D01*
X271394Y248126D01*
X271274Y248089D01*
X271155Y248048D01*
X271038Y248004D01*
X270921Y247956D01*
X270807Y247904D01*
X270694Y247849D01*
X270583Y247790D01*
X270474Y247728D01*
X270367Y247662D01*
X270262Y247593D01*
X270159Y247521D01*
X270059Y247445D01*
X269961Y247366D01*
X269865Y247285D01*
X269772Y247200D01*
X269682Y247113D01*
X269595Y247022D01*
X269510Y246929D01*
X269429Y246834D01*
X269350Y246736D01*
X269275Y246635D01*
X269202Y246532D01*
X269134Y246427D01*
X269068Y246320D01*
X269006Y246211D01*
X268947Y246100D01*
X268892Y245987D01*
X268840Y245872D01*
X268792Y245756D01*
X268748Y245638D01*
X268707Y245520D01*
X274585Y242754D02*
X274665Y242833D01*
X274743Y242915D01*
X274818Y242999D01*
X274889Y243086D01*
X274958Y243175D01*
X275024Y243267D01*
X275087Y243360D01*
X275147Y243456D01*
X275203Y243554D01*
X275256Y243653D01*
X275306Y243755D01*
X275352Y243857D01*
X275394Y243962D01*
X275434Y244068D01*
X275469Y244175D01*
X275501Y244283D01*
X275529Y244392D01*
X275554Y244502D01*
X275575Y244613D01*
X275592Y244724D01*
X275605Y244836D01*
X275614Y244949D01*
X275620Y245061D01*
X275622Y245174D01*
X274584Y242753D02*
X268707Y235839D01*
X275622Y235839D01*
X281509Y242062D02*
X281512Y242307D01*
X281521Y242552D01*
X281535Y242796D01*
X281556Y243040D01*
X281582Y243283D01*
X281614Y243526D01*
X281652Y243768D01*
X281695Y244009D01*
X281745Y244249D01*
X281800Y244487D01*
X281861Y244724D01*
X281927Y244960D01*
X281999Y245194D01*
X282077Y245426D01*
X282160Y245657D01*
X282248Y245885D01*
X282342Y246111D01*
X282441Y246335D01*
X282546Y246556D01*
X282546Y246557D02*
X282580Y246650D01*
X282618Y246742D01*
X282659Y246832D01*
X282703Y246920D01*
X282751Y247007D01*
X282803Y247092D01*
X282857Y247175D01*
X282915Y247255D01*
X282976Y247334D01*
X283039Y247410D01*
X283106Y247483D01*
X283176Y247554D01*
X283248Y247622D01*
X283322Y247687D01*
X283400Y247749D01*
X283479Y247809D01*
X283561Y247865D01*
X283645Y247917D01*
X283731Y247967D01*
X283819Y248013D01*
X283908Y248056D01*
X283999Y248095D01*
X284092Y248131D01*
X284185Y248163D01*
X284280Y248191D01*
X284376Y248216D01*
X284473Y248237D01*
X284571Y248254D01*
X284669Y248268D01*
X284768Y248277D01*
X284867Y248283D01*
X284966Y248285D01*
X285065Y248283D01*
X285164Y248277D01*
X285263Y248268D01*
X285361Y248254D01*
X285459Y248237D01*
X285556Y248216D01*
X285652Y248191D01*
X285747Y248163D01*
X285840Y248131D01*
X285933Y248095D01*
X286024Y248056D01*
X286114Y248013D01*
X286201Y247967D01*
X286287Y247917D01*
X286371Y247865D01*
X286453Y247809D01*
X286532Y247749D01*
X286610Y247687D01*
X286684Y247622D01*
X286756Y247554D01*
X286826Y247483D01*
X286893Y247410D01*
X286956Y247334D01*
X287017Y247255D01*
X287075Y247175D01*
X287129Y247092D01*
X287181Y247007D01*
X287229Y246920D01*
X287273Y246832D01*
X287314Y246741D01*
X287352Y246650D01*
X287386Y246557D01*
X287386Y246556D02*
X287490Y246335D01*
X287590Y246111D01*
X287684Y245885D01*
X287772Y245657D01*
X287855Y245426D01*
X287933Y245194D01*
X288005Y244960D01*
X288071Y244725D01*
X288132Y244487D01*
X288187Y244249D01*
X288237Y244009D01*
X288280Y243768D01*
X288318Y243526D01*
X288350Y243283D01*
X288376Y243040D01*
X288397Y242796D01*
X288411Y242552D01*
X288420Y242307D01*
X288423Y242062D01*
X281508Y242062D02*
X281511Y241817D01*
X281520Y241572D01*
X281534Y241328D01*
X281555Y241084D01*
X281581Y240841D01*
X281613Y240598D01*
X281651Y240356D01*
X281694Y240115D01*
X281744Y239875D01*
X281799Y239637D01*
X281860Y239399D01*
X281926Y239164D01*
X281998Y238930D01*
X282076Y238697D01*
X282159Y238467D01*
X282247Y238239D01*
X282341Y238013D01*
X282441Y237789D01*
X282545Y237567D01*
X282546Y237567D02*
X282580Y237474D01*
X282618Y237382D01*
X282659Y237292D01*
X282703Y237204D01*
X282751Y237117D01*
X282803Y237032D01*
X282857Y236949D01*
X282915Y236869D01*
X282976Y236790D01*
X283039Y236714D01*
X283106Y236641D01*
X283176Y236570D01*
X283248Y236502D01*
X283322Y236437D01*
X283400Y236375D01*
X283479Y236315D01*
X283561Y236259D01*
X283645Y236207D01*
X283731Y236157D01*
X283819Y236111D01*
X283908Y236068D01*
X283999Y236029D01*
X284092Y235993D01*
X284185Y235961D01*
X284280Y235933D01*
X284376Y235908D01*
X284473Y235887D01*
X284571Y235870D01*
X284669Y235856D01*
X284768Y235847D01*
X284867Y235841D01*
X284966Y235839D01*
X287386Y237568D02*
X287491Y237789D01*
X287590Y238013D01*
X287684Y238239D01*
X287772Y238467D01*
X287855Y238698D01*
X287933Y238930D01*
X288005Y239164D01*
X288071Y239400D01*
X288132Y239637D01*
X288187Y239875D01*
X288237Y240115D01*
X288280Y240356D01*
X288318Y240598D01*
X288350Y240841D01*
X288376Y241084D01*
X288397Y241328D01*
X288411Y241572D01*
X288420Y241817D01*
X288423Y242062D01*
X287386Y237567D02*
X287352Y237474D01*
X287314Y237382D01*
X287273Y237292D01*
X287229Y237204D01*
X287181Y237117D01*
X287129Y237032D01*
X287075Y236949D01*
X287017Y236869D01*
X286956Y236790D01*
X286893Y236714D01*
X286826Y236641D01*
X286756Y236570D01*
X286684Y236502D01*
X286610Y236437D01*
X286532Y236375D01*
X286453Y236315D01*
X286371Y236259D01*
X286287Y236207D01*
X286201Y236157D01*
X286114Y236111D01*
X286024Y236068D01*
X285933Y236029D01*
X285840Y235993D01*
X285747Y235961D01*
X285652Y235933D01*
X285556Y235908D01*
X285459Y235887D01*
X285361Y235870D01*
X285263Y235856D01*
X285164Y235847D01*
X285065Y235841D01*
X284966Y235839D01*
X282200Y238605D02*
X287732Y245519D01*
X294310Y245519D02*
X297767Y248285D01*
X297767Y235839D01*
X294310Y235839D02*
X301225Y235839D01*
X309878Y241371D02*
X314026Y241371D01*
X309878Y241370D02*
X309775Y241372D01*
X309671Y241378D01*
X309568Y241387D01*
X309466Y241401D01*
X309364Y241418D01*
X309263Y241439D01*
X309162Y241464D01*
X309063Y241493D01*
X308964Y241525D01*
X308867Y241561D01*
X308772Y241601D01*
X308678Y241644D01*
X308586Y241691D01*
X308495Y241741D01*
X308406Y241794D01*
X308320Y241851D01*
X308235Y241910D01*
X308153Y241973D01*
X308074Y242039D01*
X307997Y242108D01*
X307922Y242180D01*
X307850Y242255D01*
X307781Y242332D01*
X307715Y242411D01*
X307652Y242494D01*
X307593Y242578D01*
X307536Y242664D01*
X307483Y242753D01*
X307433Y242844D01*
X307386Y242936D01*
X307343Y243030D01*
X307303Y243125D01*
X307267Y243222D01*
X307235Y243321D01*
X307206Y243420D01*
X307181Y243521D01*
X307160Y243622D01*
X307143Y243724D01*
X307129Y243826D01*
X307120Y243929D01*
X307114Y244033D01*
X307112Y244136D01*
X307112Y244828D01*
X307114Y244945D01*
X307120Y245061D01*
X307130Y245178D01*
X307144Y245294D01*
X307161Y245409D01*
X307183Y245524D01*
X307208Y245638D01*
X307237Y245751D01*
X307271Y245863D01*
X307307Y245974D01*
X307348Y246083D01*
X307392Y246191D01*
X307440Y246298D01*
X307491Y246403D01*
X307546Y246506D01*
X307605Y246607D01*
X307667Y246706D01*
X307732Y246803D01*
X307800Y246898D01*
X307871Y246990D01*
X307946Y247080D01*
X308024Y247167D01*
X308104Y247252D01*
X308187Y247334D01*
X308273Y247413D01*
X308362Y247489D01*
X308453Y247562D01*
X308546Y247632D01*
X308642Y247698D01*
X308740Y247762D01*
X308841Y247822D01*
X308943Y247879D01*
X309047Y247932D01*
X309152Y247981D01*
X309260Y248027D01*
X309368Y248070D01*
X309479Y248109D01*
X309590Y248143D01*
X309702Y248175D01*
X309816Y248202D01*
X309930Y248226D01*
X310046Y248245D01*
X310161Y248261D01*
X310277Y248273D01*
X310394Y248281D01*
X310511Y248285D01*
X310627Y248285D01*
X310744Y248281D01*
X310861Y248273D01*
X310977Y248261D01*
X311092Y248245D01*
X311208Y248226D01*
X311322Y248202D01*
X311436Y248175D01*
X311548Y248143D01*
X311659Y248109D01*
X311770Y248070D01*
X311878Y248027D01*
X311986Y247981D01*
X312091Y247932D01*
X312195Y247879D01*
X312298Y247822D01*
X312398Y247762D01*
X312496Y247698D01*
X312592Y247632D01*
X312685Y247562D01*
X312776Y247489D01*
X312865Y247413D01*
X312951Y247334D01*
X313034Y247252D01*
X313114Y247167D01*
X313192Y247080D01*
X313267Y246990D01*
X313338Y246898D01*
X313406Y246803D01*
X313471Y246706D01*
X313533Y246607D01*
X313592Y246506D01*
X313647Y246403D01*
X313698Y246298D01*
X313746Y246191D01*
X313790Y246083D01*
X313831Y245974D01*
X313867Y245863D01*
X313901Y245751D01*
X313930Y245638D01*
X313955Y245524D01*
X313977Y245409D01*
X313994Y245294D01*
X314008Y245178D01*
X314018Y245061D01*
X314024Y244945D01*
X314026Y244828D01*
X314026Y241371D01*
X314027Y241371D02*
X314025Y241224D01*
X314019Y241077D01*
X314009Y240930D01*
X313996Y240783D01*
X313978Y240637D01*
X313957Y240491D01*
X313931Y240346D01*
X313902Y240202D01*
X313869Y240058D01*
X313832Y239916D01*
X313791Y239774D01*
X313747Y239634D01*
X313699Y239494D01*
X313647Y239356D01*
X313592Y239220D01*
X313533Y239085D01*
X313470Y238952D01*
X313404Y238820D01*
X313334Y238690D01*
X313261Y238563D01*
X313185Y238437D01*
X313105Y238313D01*
X313022Y238191D01*
X312936Y238072D01*
X312846Y237955D01*
X312754Y237840D01*
X312658Y237728D01*
X312560Y237619D01*
X312458Y237512D01*
X312354Y237408D01*
X312247Y237306D01*
X312138Y237208D01*
X312026Y237112D01*
X311911Y237020D01*
X311794Y236930D01*
X311675Y236844D01*
X311553Y236761D01*
X311429Y236681D01*
X311303Y236605D01*
X311176Y236532D01*
X311046Y236462D01*
X310914Y236396D01*
X310781Y236333D01*
X310646Y236274D01*
X310510Y236219D01*
X310372Y236167D01*
X310232Y236119D01*
X310092Y236075D01*
X309950Y236034D01*
X309808Y235997D01*
X309664Y235964D01*
X309520Y235935D01*
X309375Y235909D01*
X309229Y235888D01*
X309083Y235870D01*
X308936Y235857D01*
X308789Y235847D01*
X308642Y235841D01*
X308495Y235839D01*
X383272Y229235D02*
X383272Y216789D01*
X381889Y216789D02*
X384655Y216789D01*
X384655Y229235D02*
X381889Y229235D01*
X390321Y225086D02*
X390321Y216789D01*
X390321Y225086D02*
X393778Y225086D01*
X393866Y225084D01*
X393954Y225079D01*
X394041Y225069D01*
X394129Y225056D01*
X394215Y225039D01*
X394301Y225019D01*
X394385Y224995D01*
X394469Y224968D01*
X394551Y224936D01*
X394632Y224902D01*
X394712Y224864D01*
X394789Y224823D01*
X394865Y224778D01*
X394939Y224730D01*
X395011Y224679D01*
X395081Y224626D01*
X395148Y224569D01*
X395213Y224509D01*
X395275Y224447D01*
X395335Y224382D01*
X395392Y224315D01*
X395445Y224245D01*
X395496Y224173D01*
X395544Y224099D01*
X395589Y224023D01*
X395630Y223946D01*
X395668Y223866D01*
X395702Y223785D01*
X395734Y223703D01*
X395761Y223619D01*
X395785Y223535D01*
X395805Y223449D01*
X395822Y223363D01*
X395835Y223275D01*
X395845Y223188D01*
X395850Y223100D01*
X395852Y223012D01*
X395852Y216789D01*
X402353Y212640D02*
X402353Y225086D01*
X405811Y225086D01*
X405899Y225084D01*
X405987Y225079D01*
X406074Y225069D01*
X406162Y225056D01*
X406248Y225039D01*
X406334Y225019D01*
X406418Y224995D01*
X406502Y224968D01*
X406584Y224936D01*
X406665Y224902D01*
X406745Y224864D01*
X406822Y224823D01*
X406898Y224778D01*
X406972Y224730D01*
X407044Y224679D01*
X407114Y224626D01*
X407181Y224569D01*
X407246Y224509D01*
X407308Y224447D01*
X407368Y224382D01*
X407425Y224315D01*
X407478Y224245D01*
X407529Y224173D01*
X407577Y224099D01*
X407622Y224023D01*
X407663Y223946D01*
X407701Y223866D01*
X407735Y223785D01*
X407767Y223703D01*
X407794Y223619D01*
X407818Y223535D01*
X407838Y223449D01*
X407855Y223363D01*
X407868Y223275D01*
X407878Y223188D01*
X407883Y223100D01*
X407885Y223012D01*
X407885Y218863D01*
X407883Y218775D01*
X407878Y218687D01*
X407868Y218600D01*
X407855Y218512D01*
X407838Y218426D01*
X407818Y218340D01*
X407794Y218256D01*
X407767Y218172D01*
X407735Y218090D01*
X407701Y218009D01*
X407663Y217929D01*
X407622Y217852D01*
X407577Y217776D01*
X407529Y217702D01*
X407478Y217630D01*
X407425Y217560D01*
X407368Y217493D01*
X407308Y217428D01*
X407246Y217366D01*
X407181Y217306D01*
X407114Y217249D01*
X407044Y217196D01*
X406972Y217145D01*
X406898Y217097D01*
X406822Y217052D01*
X406745Y217011D01*
X406665Y216973D01*
X406584Y216939D01*
X406502Y216907D01*
X406418Y216880D01*
X406334Y216856D01*
X406248Y216836D01*
X406162Y216819D01*
X406074Y216806D01*
X405987Y216796D01*
X405899Y216791D01*
X405811Y216789D01*
X402353Y216789D01*
X413790Y218863D02*
X413790Y225086D01*
X413791Y218863D02*
X413793Y218775D01*
X413798Y218687D01*
X413808Y218600D01*
X413821Y218512D01*
X413838Y218426D01*
X413858Y218340D01*
X413882Y218256D01*
X413909Y218172D01*
X413941Y218090D01*
X413975Y218009D01*
X414013Y217929D01*
X414054Y217852D01*
X414099Y217776D01*
X414147Y217702D01*
X414198Y217630D01*
X414251Y217560D01*
X414308Y217493D01*
X414368Y217428D01*
X414430Y217366D01*
X414495Y217306D01*
X414562Y217249D01*
X414632Y217196D01*
X414704Y217145D01*
X414778Y217097D01*
X414854Y217052D01*
X414931Y217011D01*
X415011Y216973D01*
X415092Y216939D01*
X415174Y216907D01*
X415258Y216880D01*
X415342Y216856D01*
X415428Y216836D01*
X415514Y216819D01*
X415602Y216806D01*
X415689Y216796D01*
X415777Y216791D01*
X415865Y216789D01*
X419322Y216789D01*
X419322Y225086D01*
X424164Y225086D02*
X428312Y225086D01*
X425547Y229235D02*
X425547Y218863D01*
X425549Y218775D01*
X425554Y218687D01*
X425564Y218600D01*
X425577Y218512D01*
X425594Y218426D01*
X425614Y218340D01*
X425638Y218256D01*
X425665Y218172D01*
X425697Y218090D01*
X425731Y218009D01*
X425769Y217929D01*
X425810Y217852D01*
X425855Y217776D01*
X425903Y217702D01*
X425954Y217630D01*
X426007Y217560D01*
X426064Y217493D01*
X426124Y217428D01*
X426186Y217366D01*
X426251Y217306D01*
X426318Y217249D01*
X426388Y217195D01*
X426460Y217145D01*
X426534Y217097D01*
X426610Y217052D01*
X426687Y217011D01*
X426767Y216973D01*
X426848Y216939D01*
X426930Y216907D01*
X427014Y216880D01*
X427098Y216856D01*
X427184Y216836D01*
X427271Y216819D01*
X427358Y216806D01*
X427445Y216796D01*
X427533Y216791D01*
X427621Y216789D01*
X428312Y216789D01*
D12*
X203360Y144700D02*
X203360Y134700D01*
X223360Y134700D01*
X223360Y144700D01*
X203360Y144700D01*
X203360Y147400D02*
X203360Y157400D01*
X203360Y147400D02*
X223360Y147400D01*
X223360Y157400D01*
X203360Y157400D01*
X203360Y160100D02*
X203360Y170100D01*
X203360Y160100D02*
X223360Y160100D01*
X223360Y170100D01*
X203360Y170100D01*
X203360Y172800D02*
X203360Y182800D01*
X203360Y172800D02*
X223360Y172800D01*
X223360Y182800D01*
X203360Y182800D01*
X147100Y183250D02*
X147100Y134250D01*
X147100Y183250D02*
X183100Y183250D01*
X183100Y134250D01*
X171300Y134250D01*
X171300Y134550D01*
X171298Y134696D01*
X171292Y134842D01*
X171282Y134988D01*
X171268Y135134D01*
X171251Y135279D01*
X171229Y135424D01*
X171203Y135568D01*
X171174Y135711D01*
X171140Y135853D01*
X171103Y135995D01*
X171062Y136135D01*
X171017Y136274D01*
X170969Y136412D01*
X170916Y136549D01*
X170861Y136684D01*
X170801Y136817D01*
X170738Y136949D01*
X170671Y137079D01*
X170601Y137208D01*
X170527Y137334D01*
X170450Y137458D01*
X170370Y137580D01*
X170286Y137700D01*
X170199Y137818D01*
X170109Y137933D01*
X170016Y138046D01*
X169919Y138156D01*
X169820Y138264D01*
X169718Y138368D01*
X169614Y138470D01*
X169506Y138569D01*
X169396Y138666D01*
X169283Y138759D01*
X169168Y138849D01*
X169050Y138936D01*
X168930Y139020D01*
X168808Y139100D01*
X168684Y139177D01*
X168558Y139251D01*
X168429Y139321D01*
X168299Y139388D01*
X168167Y139451D01*
X168034Y139511D01*
X167899Y139566D01*
X167762Y139619D01*
X167624Y139667D01*
X167485Y139712D01*
X167345Y139753D01*
X167203Y139790D01*
X167061Y139824D01*
X166918Y139853D01*
X166774Y139879D01*
X166629Y139901D01*
X166484Y139918D01*
X166338Y139932D01*
X166192Y139942D01*
X166046Y139948D01*
X165900Y139950D01*
X165100Y139950D01*
X164952Y139944D01*
X164805Y139934D01*
X164658Y139920D01*
X164511Y139903D01*
X164365Y139881D01*
X164219Y139855D01*
X164074Y139826D01*
X163930Y139793D01*
X163787Y139756D01*
X163645Y139715D01*
X163504Y139670D01*
X163364Y139622D01*
X163226Y139570D01*
X163089Y139514D01*
X162954Y139455D01*
X162820Y139392D01*
X162688Y139326D01*
X162558Y139256D01*
X162430Y139182D01*
X162303Y139105D01*
X162179Y139025D01*
X162057Y138942D01*
X161937Y138855D01*
X161820Y138766D01*
X161705Y138673D01*
X161592Y138577D01*
X161482Y138478D01*
X161375Y138376D01*
X161271Y138272D01*
X161169Y138164D01*
X161070Y138054D01*
X160974Y137942D01*
X160882Y137827D01*
X160792Y137709D01*
X160706Y137589D01*
X160622Y137467D01*
X160542Y137343D01*
X160466Y137217D01*
X160392Y137088D01*
X160322Y136958D01*
X160256Y136826D01*
X160193Y136692D01*
X160134Y136557D01*
X160078Y136420D01*
X160026Y136281D01*
X159978Y136142D01*
X159934Y136001D01*
X159893Y135859D01*
X159856Y135715D01*
X159823Y135571D01*
X159794Y135427D01*
X159768Y135281D01*
X159747Y135135D01*
X159729Y134988D01*
X159716Y134841D01*
X159706Y134693D01*
X159700Y134546D01*
X159698Y134398D01*
X159700Y134250D01*
X147100Y134250D01*
X184100Y130750D02*
X184102Y130839D01*
X184108Y130928D01*
X184118Y131017D01*
X184132Y131105D01*
X184149Y131192D01*
X184171Y131278D01*
X184197Y131364D01*
X184226Y131448D01*
X184259Y131531D01*
X184295Y131612D01*
X184336Y131692D01*
X184379Y131769D01*
X184426Y131845D01*
X184477Y131918D01*
X184530Y131989D01*
X184587Y132058D01*
X184647Y132124D01*
X184710Y132188D01*
X184775Y132248D01*
X184843Y132306D01*
X184914Y132360D01*
X184987Y132411D01*
X185062Y132459D01*
X185139Y132504D01*
X185218Y132545D01*
X185299Y132582D01*
X185381Y132616D01*
X185465Y132647D01*
X185550Y132673D01*
X185636Y132696D01*
X185723Y132714D01*
X185811Y132729D01*
X185900Y132740D01*
X185989Y132747D01*
X186078Y132750D01*
X186167Y132749D01*
X186256Y132744D01*
X186344Y132735D01*
X186433Y132722D01*
X186520Y132705D01*
X186607Y132685D01*
X186693Y132660D01*
X186777Y132632D01*
X186860Y132600D01*
X186942Y132564D01*
X187022Y132525D01*
X187100Y132482D01*
X187176Y132436D01*
X187250Y132386D01*
X187322Y132333D01*
X187391Y132277D01*
X187458Y132218D01*
X187522Y132156D01*
X187583Y132092D01*
X187642Y132024D01*
X187697Y131954D01*
X187749Y131882D01*
X187798Y131807D01*
X187843Y131731D01*
X187885Y131652D01*
X187923Y131572D01*
X187958Y131490D01*
X187989Y131406D01*
X188017Y131321D01*
X188040Y131235D01*
X188060Y131148D01*
X188076Y131061D01*
X188088Y130972D01*
X188096Y130884D01*
X188100Y130795D01*
X188100Y130705D01*
X188096Y130616D01*
X188088Y130528D01*
X188076Y130439D01*
X188060Y130352D01*
X188040Y130265D01*
X188017Y130179D01*
X187989Y130094D01*
X187958Y130010D01*
X187923Y129928D01*
X187885Y129848D01*
X187843Y129769D01*
X187798Y129693D01*
X187749Y129618D01*
X187697Y129546D01*
X187642Y129476D01*
X187583Y129408D01*
X187522Y129344D01*
X187458Y129282D01*
X187391Y129223D01*
X187322Y129167D01*
X187250Y129114D01*
X187176Y129064D01*
X187100Y129018D01*
X187022Y128975D01*
X186942Y128936D01*
X186860Y128900D01*
X186777Y128868D01*
X186693Y128840D01*
X186607Y128815D01*
X186520Y128795D01*
X186433Y128778D01*
X186344Y128765D01*
X186256Y128756D01*
X186167Y128751D01*
X186078Y128750D01*
X185989Y128753D01*
X185900Y128760D01*
X185811Y128771D01*
X185723Y128786D01*
X185636Y128804D01*
X185550Y128827D01*
X185465Y128853D01*
X185381Y128884D01*
X185299Y128918D01*
X185218Y128955D01*
X185139Y128996D01*
X185062Y129041D01*
X184987Y129089D01*
X184914Y129140D01*
X184843Y129194D01*
X184775Y129252D01*
X184710Y129312D01*
X184647Y129376D01*
X184587Y129442D01*
X184530Y129511D01*
X184477Y129582D01*
X184426Y129655D01*
X184379Y129731D01*
X184336Y129808D01*
X184295Y129888D01*
X184259Y129969D01*
X184226Y130052D01*
X184197Y130136D01*
X184171Y130222D01*
X184149Y130308D01*
X184132Y130395D01*
X184118Y130483D01*
X184108Y130572D01*
X184102Y130661D01*
X184100Y130750D01*
X149240Y189200D02*
X149240Y217200D01*
X149240Y189200D02*
X135240Y189200D01*
X135240Y217200D01*
X149240Y217200D01*
X135240Y128300D02*
X135240Y100300D01*
X135240Y128300D02*
X149240Y128300D01*
X149240Y100300D01*
X135240Y100300D01*
X151750Y189200D02*
X151750Y217200D01*
X165750Y217200D01*
X165750Y189200D01*
X151750Y189200D01*
X165750Y128300D02*
X165750Y100300D01*
X151750Y100300D01*
X151750Y128300D01*
X165750Y128300D01*
X203850Y128300D02*
X203850Y100300D01*
X189850Y100300D01*
X189850Y128300D01*
X203850Y128300D01*
X184800Y128300D02*
X184800Y100300D01*
X170800Y100300D01*
X170800Y128300D01*
X184800Y128300D01*
X170800Y189200D02*
X170800Y217200D01*
X184800Y217200D01*
X184800Y189200D01*
X170800Y189200D01*
X189850Y189200D02*
X189850Y217200D01*
X203850Y217200D01*
X203850Y189200D01*
X189850Y189200D01*
X158750Y237490D02*
X133350Y237490D01*
X133350Y250190D01*
X158750Y250190D01*
X158750Y237490D01*
X119380Y215900D02*
X119380Y190500D01*
X119380Y215900D02*
X132080Y215900D01*
X132080Y190500D01*
X119380Y190500D01*
X142025Y72750D02*
X142025Y54250D01*
X142025Y72750D02*
X111975Y72750D01*
X111975Y54250D01*
X142025Y54250D01*
X119380Y107950D02*
X119380Y133350D01*
X132080Y133350D01*
X132080Y107950D01*
X119380Y107950D01*
X120650Y95250D02*
X146050Y95250D01*
X146050Y82550D01*
X120650Y82550D01*
X120650Y95250D01*
X133350Y222250D02*
X158750Y222250D01*
X133350Y222250D02*
X133350Y234950D01*
X158750Y234950D01*
X158750Y222250D01*
X104140Y133350D02*
X104140Y107950D01*
X104140Y133350D02*
X116840Y133350D01*
X116840Y107950D01*
X104140Y107950D01*
X101600Y50800D02*
X101600Y25400D01*
X152400Y25400D01*
X152400Y50800D01*
X101600Y50800D01*
X242840Y156210D02*
X270240Y156210D01*
X270240Y118110D02*
X242840Y118110D01*
X242840Y199390D02*
X270240Y199390D01*
X270240Y161290D02*
X242840Y161290D01*
X297450Y139700D02*
X324850Y139700D01*
X324850Y177800D02*
X297450Y177800D01*
X373190Y147750D02*
X381190Y147750D01*
X381190Y169750D02*
X373190Y169750D01*
D13*
X379190Y149750D03*
D12*
X349410Y172800D02*
X349410Y182800D01*
X349410Y172800D02*
X369410Y172800D01*
X369410Y182800D01*
X349410Y182800D01*
X349410Y144700D02*
X349410Y134700D01*
X369410Y134700D01*
X369410Y144700D01*
X349410Y144700D01*
X326010Y74850D02*
X326010Y64850D01*
X326010Y83850D02*
X326010Y84350D01*
X342010Y84350D01*
X342010Y83850D01*
X342010Y55850D02*
X342010Y55350D01*
X326010Y55350D01*
X326010Y55850D01*
X326360Y51450D02*
X354360Y51450D01*
X354360Y37450D01*
X326360Y37450D01*
X326360Y51450D01*
X326360Y88250D02*
X354360Y88250D01*
X326360Y88250D02*
X326360Y102250D01*
X354360Y102250D01*
X354360Y88250D01*
X200660Y50800D02*
X200660Y25400D01*
X251460Y25400D01*
X251460Y50800D01*
X200660Y50800D01*
X346520Y169750D02*
X354520Y169750D01*
X354520Y147750D02*
X346520Y147750D01*
D13*
X348520Y167750D03*
D12*
X462802Y185000D02*
X537802Y185000D01*
X526552Y132500D02*
X462802Y132500D01*
X495302Y130000D02*
X491552Y187500D01*
X497802Y187500D02*
X501552Y130000D01*
X507802Y130000D02*
X504052Y187500D01*
X510302Y187500D02*
X514052Y130000D01*
X520302Y130000D02*
X516552Y187500D01*
X-15762Y61063D02*
X-90762Y61063D01*
X-79512Y113563D02*
X-15762Y113563D01*
X-48262Y116063D02*
X-44512Y58563D01*
X-50762Y58563D02*
X-54512Y116063D01*
X-60762Y116063D02*
X-57012Y58563D01*
X-63262Y58563D02*
X-67012Y116063D01*
X-73262Y116063D02*
X-69512Y58563D01*
X-90762Y203938D02*
X-15762Y203938D01*
X-15762Y256438D02*
X-79512Y256438D01*
X-48262Y258938D02*
X-44512Y201438D01*
X-50762Y201438D02*
X-54512Y258938D01*
X-60762Y258938D02*
X-57012Y201438D01*
X-63262Y201438D02*
X-67012Y258938D01*
X-73262Y258938D02*
X-69512Y201438D01*
X391240Y139860D02*
X401240Y139860D01*
X401240Y159860D01*
X391240Y159860D01*
X391240Y139860D01*
X391240Y157640D02*
X401240Y157640D01*
X401240Y177640D01*
X391240Y177640D01*
X391240Y157640D01*
X369490Y204310D02*
X359490Y204310D01*
X359490Y184310D01*
X369490Y184310D01*
X369490Y204310D01*
X369490Y133190D02*
X359490Y133190D01*
X359490Y113190D01*
X369490Y113190D01*
X369490Y133190D01*
X358060Y184310D02*
X348060Y184310D01*
X358060Y184310D02*
X358060Y204310D01*
X348060Y204310D01*
X348060Y184310D01*
X348060Y113190D02*
X358060Y113190D01*
X358060Y133190D01*
X348060Y133190D01*
X348060Y113190D01*
X399890Y179150D02*
X399890Y189150D01*
X379890Y189150D01*
X379890Y179150D01*
X399890Y179150D01*
X399890Y138350D02*
X399890Y128350D01*
X399890Y138350D02*
X379890Y138350D01*
X379890Y128350D01*
X399890Y128350D01*
X403860Y88900D02*
X429260Y88900D01*
X403860Y88900D02*
X403860Y12700D01*
X429260Y12700D01*
X429260Y88900D01*
X311150Y82550D02*
X311150Y57150D01*
X298450Y57150D01*
X298450Y82550D01*
X311150Y82550D01*
X358140Y76200D02*
X358140Y50800D01*
X358140Y76200D02*
X370840Y76200D01*
X370840Y50800D01*
X358140Y50800D01*
X397510Y45720D02*
X397510Y20320D01*
X384810Y20320D01*
X384810Y45720D01*
X397510Y45720D01*
X384810Y55880D02*
X384810Y81280D01*
X397510Y81280D01*
X397510Y55880D01*
X384810Y55880D01*
M02*
