G04 EAGLE Gerber RS-274X export*
G75*
%MOMM*%
%FSLAX34Y34*%
%LPD*%
%INTop Solder Paste*%
%IPPOS*%
%AMOC8*
5,1,8,0,0,1.08239X$1,22.5*%
G01*
%ADD10R,0.600000X0.700000*%
%ADD11R,0.800000X0.800000*%
%ADD12R,1.500000X0.550000*%
%ADD13R,0.550000X1.500000*%
%ADD14R,1.500000X0.300000*%
%ADD15R,0.300000X1.500000*%
%ADD16R,1.400000X0.350000*%
%ADD17R,0.580000X1.120000*%
%ADD18R,0.800000X0.300000*%
%ADD19R,0.300000X0.800000*%
%ADD20R,1.230000X1.230000*%
%ADD21R,1.000000X0.600000*%
%ADD22R,0.500000X1.500000*%
%ADD23R,1.500000X0.500000*%
%ADD24R,4.572000X2.540000*%
%ADD25R,3.810000X1.016000*%
%ADD26R,0.950000X0.950000*%
%ADD27C,1.905000*%
%ADD28R,0.600000X1.000000*%
%ADD29R,0.700000X0.600000*%
%ADD30R,1.600000X1.400000*%
%ADD31R,1.300000X1.600000*%
%ADD32R,1.300000X1.300000*%
%ADD33R,1.300000X3.600000*%
%ADD34R,1.600000X0.900000*%
%ADD35R,3.000000X1.600000*%
%ADD36R,6.200000X5.800000*%
%ADD37R,0.900000X1.600000*%
%ADD38R,1.500000X2.250000*%


D10*
X123110Y739140D03*
X113110Y739140D03*
D11*
X86480Y877570D03*
X101480Y877570D03*
X151130Y953890D03*
X151130Y968890D03*
X196850Y976750D03*
X196850Y991750D03*
X165100Y592970D03*
X165100Y577970D03*
D12*
X150800Y793750D03*
X150800Y781050D03*
X150800Y768350D03*
X150800Y755650D03*
X204800Y755650D03*
X204800Y768350D03*
X204800Y781050D03*
X204800Y793750D03*
X169850Y679450D03*
X169850Y666750D03*
X169850Y654050D03*
X169850Y641350D03*
X223850Y641350D03*
X223850Y654050D03*
X223850Y666750D03*
X223850Y679450D03*
D13*
X228600Y557200D03*
X241300Y557200D03*
X254000Y557200D03*
X266700Y557200D03*
X266700Y611200D03*
X254000Y611200D03*
X241300Y611200D03*
X228600Y611200D03*
D14*
X374800Y554950D03*
X374800Y549950D03*
X374800Y544950D03*
X374800Y559950D03*
X374800Y539950D03*
X374800Y534950D03*
X374800Y529950D03*
X374800Y524950D03*
X374800Y519950D03*
X374800Y514950D03*
X374800Y564950D03*
X374800Y569950D03*
X374800Y574950D03*
X374800Y579950D03*
X374800Y584950D03*
X374800Y589950D03*
X488800Y554950D03*
X488800Y549950D03*
X488800Y544950D03*
X488800Y559950D03*
X488800Y539950D03*
X488800Y534950D03*
X488800Y529950D03*
X488800Y524950D03*
X488800Y519950D03*
X488800Y514950D03*
X488800Y564950D03*
X488800Y569950D03*
X488800Y574950D03*
X488800Y579950D03*
X488800Y584950D03*
X488800Y589950D03*
D15*
X429300Y609450D03*
X434300Y609450D03*
X439300Y609450D03*
X424300Y609450D03*
X444300Y609450D03*
X449300Y609450D03*
X454300Y609450D03*
X459300Y609450D03*
X464300Y609450D03*
X469300Y609450D03*
X419300Y609450D03*
X414300Y609450D03*
X409300Y609450D03*
X404300Y609450D03*
X399300Y609450D03*
X394300Y609450D03*
X429300Y495450D03*
X434300Y495450D03*
X439300Y495450D03*
X424300Y495450D03*
X444300Y495450D03*
X449300Y495450D03*
X454300Y495450D03*
X459300Y495450D03*
X464300Y495450D03*
X469300Y495450D03*
X419300Y495450D03*
X414300Y495450D03*
X409300Y495450D03*
X404300Y495450D03*
X399300Y495450D03*
X394300Y495450D03*
D16*
X171780Y287580D03*
X171780Y294080D03*
X171780Y281080D03*
X171780Y300580D03*
X171780Y274580D03*
X171780Y307080D03*
X171780Y268080D03*
X171780Y313580D03*
X117780Y287580D03*
X117780Y294080D03*
X117780Y281080D03*
X117780Y300580D03*
X117780Y274580D03*
X117780Y307080D03*
X117780Y268080D03*
X117780Y313580D03*
X117780Y168350D03*
X117780Y161850D03*
X117780Y174850D03*
X117780Y155350D03*
X117780Y181350D03*
X117780Y148850D03*
X117780Y187850D03*
X117780Y142350D03*
X171780Y168350D03*
X171780Y161850D03*
X171780Y174850D03*
X171780Y155350D03*
X171780Y181350D03*
X171780Y148850D03*
X171780Y187850D03*
X171780Y142350D03*
D17*
X367030Y265700D03*
X354330Y265700D03*
X341630Y265700D03*
X328930Y265700D03*
X379730Y265700D03*
X392430Y265700D03*
X405130Y265700D03*
X417830Y265700D03*
X367030Y318500D03*
X354330Y318500D03*
X341630Y318500D03*
X328930Y318500D03*
X379730Y318500D03*
X392430Y318500D03*
X405130Y318500D03*
X417830Y318500D03*
D18*
X87350Y777200D03*
X87350Y782200D03*
X87350Y772200D03*
X87350Y767200D03*
X115850Y777200D03*
X115850Y782200D03*
X115850Y772200D03*
X115850Y767200D03*
D19*
X99100Y788950D03*
X94100Y788950D03*
X104100Y788950D03*
X109100Y788950D03*
X99100Y760450D03*
X94100Y760450D03*
X104100Y760450D03*
X109100Y760450D03*
D20*
X101600Y774700D03*
D21*
X301690Y781660D03*
X301690Y772160D03*
X301690Y762660D03*
X325690Y762660D03*
X325690Y781660D03*
D13*
X254000Y900100D03*
X266700Y900100D03*
X279400Y900100D03*
X292100Y900100D03*
X292100Y954100D03*
X279400Y954100D03*
X266700Y954100D03*
X254000Y954100D03*
X171450Y900100D03*
X184150Y900100D03*
X196850Y900100D03*
X209550Y900100D03*
X209550Y954100D03*
X196850Y954100D03*
X184150Y954100D03*
X171450Y954100D03*
X88900Y900100D03*
X101600Y900100D03*
X114300Y900100D03*
X127000Y900100D03*
X127000Y954100D03*
X114300Y954100D03*
X101600Y954100D03*
X88900Y954100D03*
D22*
X110300Y489400D03*
X118300Y489400D03*
X102300Y489400D03*
X94300Y489400D03*
X86300Y489400D03*
X126300Y489400D03*
X134300Y489400D03*
X142300Y489400D03*
X110300Y577400D03*
X118300Y577400D03*
X102300Y577400D03*
X94300Y577400D03*
X86300Y577400D03*
X126300Y577400D03*
X134300Y577400D03*
X142300Y577400D03*
D23*
X70300Y529400D03*
X70300Y537400D03*
X70300Y521400D03*
X70300Y513400D03*
X70300Y505400D03*
X70300Y545400D03*
X70300Y553400D03*
X70300Y561400D03*
X158300Y529400D03*
X158300Y537400D03*
X158300Y521400D03*
X158300Y513400D03*
X158300Y505400D03*
X158300Y545400D03*
X158300Y553400D03*
X158300Y561400D03*
D12*
X87300Y425450D03*
X87300Y412750D03*
X87300Y400050D03*
X87300Y387350D03*
X141300Y387350D03*
X141300Y400050D03*
X141300Y412750D03*
X141300Y425450D03*
D13*
X133350Y687400D03*
X120650Y687400D03*
X107950Y687400D03*
X95250Y687400D03*
X95250Y633400D03*
X107950Y633400D03*
X120650Y633400D03*
X133350Y633400D03*
D24*
X22860Y119380D03*
X22860Y185420D03*
D25*
X19050Y152400D03*
D24*
X22860Y259080D03*
X22860Y325120D03*
D25*
X19050Y292100D03*
D26*
X152400Y919850D03*
X152400Y934350D03*
X152400Y888100D03*
X152400Y902600D03*
X69850Y908950D03*
X69850Y894450D03*
X73290Y668020D03*
X58790Y668020D03*
X210450Y511810D03*
X195950Y511810D03*
X58790Y683260D03*
X73290Y683260D03*
X58790Y637540D03*
X73290Y637540D03*
X73290Y652780D03*
X58790Y652780D03*
X187960Y703950D03*
X187960Y718450D03*
X172720Y718450D03*
X172720Y703950D03*
X170180Y826400D03*
X170180Y811900D03*
X203200Y703950D03*
X203200Y718450D03*
X218440Y718450D03*
X218440Y703950D03*
X88530Y452120D03*
X74030Y452120D03*
X74030Y467360D03*
X88530Y467360D03*
X140070Y452120D03*
X154570Y452120D03*
X154570Y467360D03*
X140070Y467360D03*
X203570Y299720D03*
X218070Y299720D03*
X152030Y331470D03*
X137530Y331470D03*
X203570Y266700D03*
X218070Y266700D03*
X203570Y283210D03*
X218070Y283210D03*
X185420Y826400D03*
X185420Y811900D03*
X84720Y313690D03*
X70220Y313690D03*
X84720Y298450D03*
X70220Y298450D03*
X84720Y283210D03*
X70220Y283210D03*
X84720Y267970D03*
X70220Y267970D03*
X154940Y811900D03*
X154940Y826400D03*
X200660Y811900D03*
X200660Y826400D03*
X130440Y708660D03*
X115940Y708660D03*
X115940Y723900D03*
X130440Y723900D03*
X101230Y861060D03*
X86730Y861060D03*
D27*
X266700Y989330D03*
X38100Y895350D03*
X171450Y990600D03*
D28*
X299110Y708090D03*
X308610Y708090D03*
X318110Y708090D03*
X318110Y732090D03*
X299110Y732090D03*
D21*
X70550Y161900D03*
X70550Y152400D03*
X70550Y142900D03*
X94550Y142900D03*
X94550Y161900D03*
D26*
X258710Y666750D03*
X244210Y666750D03*
D28*
X240640Y417130D03*
X231140Y417130D03*
X221640Y417130D03*
X221640Y393130D03*
X240640Y393130D03*
D26*
X222250Y458100D03*
X222250Y443600D03*
X203200Y392800D03*
X203200Y407300D03*
X260350Y405500D03*
X260350Y420000D03*
X203200Y458100D03*
X203200Y443600D03*
X208650Y368300D03*
X223150Y368300D03*
X176900Y368300D03*
X191400Y368300D03*
D29*
X69850Y725250D03*
X69850Y735250D03*
X69850Y746840D03*
X69850Y756840D03*
D30*
X601150Y308850D03*
X529150Y308850D03*
X529150Y338850D03*
X601150Y338850D03*
D26*
X533400Y420000D03*
X533400Y405500D03*
D31*
X444700Y464500D03*
X444700Y424500D03*
X469700Y464500D03*
X469700Y424500D03*
D26*
X508000Y267600D03*
X508000Y253100D03*
X457200Y267600D03*
X457200Y253100D03*
D11*
X459860Y687070D03*
X474860Y687070D03*
D26*
X459740Y653150D03*
X459740Y667650D03*
D32*
X170200Y63500D03*
X170200Y40500D03*
X170200Y86500D03*
D33*
X109200Y63500D03*
D32*
X398800Y114300D03*
X398800Y91300D03*
X398800Y137300D03*
D33*
X337800Y114300D03*
D34*
X431800Y167900D03*
X431800Y136900D03*
X203200Y32760D03*
X203200Y63760D03*
X203200Y117100D03*
X203200Y86100D03*
X431800Y83560D03*
X431800Y114560D03*
D11*
X171450Y861180D03*
X171450Y876180D03*
D27*
X40640Y55880D03*
X311150Y215900D03*
D11*
X311150Y285870D03*
X311150Y300870D03*
D35*
X488950Y910600D03*
X488950Y956300D03*
D36*
X417150Y933450D03*
D35*
X488950Y789950D03*
X488950Y835650D03*
D36*
X417150Y812800D03*
D37*
X548900Y933450D03*
X517900Y933450D03*
X454400Y984250D03*
X485400Y984250D03*
X510800Y863600D03*
X479800Y863600D03*
D34*
X539750Y866400D03*
X539750Y835400D03*
D27*
X412750Y984250D03*
X412750Y863600D03*
D29*
X88900Y737950D03*
X88900Y747950D03*
X109220Y811450D03*
X109220Y801450D03*
D11*
X297180Y285870D03*
X297180Y300870D03*
X75050Y177800D03*
X90050Y177800D03*
X425450Y439300D03*
X425450Y424300D03*
X439300Y631190D03*
X424300Y631190D03*
X403980Y472440D03*
X418980Y472440D03*
X281940Y712590D03*
X281940Y727590D03*
X306190Y797560D03*
X321190Y797560D03*
D29*
X88900Y811450D03*
X88900Y801450D03*
X127000Y799940D03*
X127000Y789940D03*
X127000Y749380D03*
X127000Y759380D03*
D11*
X222250Y813950D03*
X222250Y798950D03*
X242570Y700920D03*
X242570Y685920D03*
X161170Y627380D03*
X146170Y627380D03*
X172600Y431800D03*
X157600Y431800D03*
X138310Y252730D03*
X123310Y252730D03*
X149980Y252730D03*
X164980Y252730D03*
X138310Y204470D03*
X123310Y204470D03*
X149980Y204470D03*
X164980Y204470D03*
X83940Y599440D03*
X98940Y599440D03*
X144660Y599440D03*
X129660Y599440D03*
X210820Y591700D03*
X210820Y576700D03*
X192920Y537210D03*
X177920Y537210D03*
D26*
X342000Y762000D03*
X356500Y762000D03*
D11*
X255150Y374650D03*
X240150Y374650D03*
X267850Y876300D03*
X252850Y876300D03*
X101600Y995560D03*
X101600Y980560D03*
X127000Y859910D03*
X127000Y874910D03*
D29*
X341630Y339170D03*
X341630Y349170D03*
X392430Y339170D03*
X392430Y349170D03*
X379730Y339170D03*
X379730Y349170D03*
X367030Y339170D03*
X367030Y349170D03*
X354330Y339170D03*
X354330Y349170D03*
D11*
X62350Y830580D03*
X77350Y830580D03*
X133230Y830580D03*
X118230Y830580D03*
D38*
X508000Y100800D03*
X508000Y64300D03*
M02*
