G04 EAGLE Gerber RS-274X export*
G75*
%MOMM*%
%FSLAX34Y34*%
%LPD*%
%INBottom Silk screen*%
%IPPOS*%
%AMOC8*
5,1,8,0,0,1.08239X$1,22.5*%
G01*

G36*
X396358Y64786D02*
X396358Y64786D01*
X396477Y64793D01*
X396515Y64806D01*
X396556Y64811D01*
X396666Y64854D01*
X396779Y64891D01*
X396814Y64913D01*
X396851Y64928D01*
X396947Y64998D01*
X397048Y65061D01*
X397076Y65091D01*
X397109Y65114D01*
X397185Y65206D01*
X397266Y65293D01*
X397286Y65328D01*
X397311Y65359D01*
X397362Y65467D01*
X397420Y65571D01*
X397430Y65611D01*
X397447Y65647D01*
X397469Y65764D01*
X397499Y65879D01*
X397503Y65940D01*
X397507Y65960D01*
X397505Y65980D01*
X397509Y66040D01*
X397509Y85090D01*
X397494Y85208D01*
X397487Y85327D01*
X397474Y85365D01*
X397469Y85406D01*
X397426Y85516D01*
X397389Y85629D01*
X397367Y85664D01*
X397352Y85701D01*
X397283Y85797D01*
X397219Y85898D01*
X397189Y85926D01*
X397166Y85959D01*
X397074Y86035D01*
X396987Y86116D01*
X396952Y86136D01*
X396921Y86161D01*
X396813Y86212D01*
X396709Y86270D01*
X396669Y86280D01*
X396633Y86297D01*
X396516Y86319D01*
X396401Y86349D01*
X396341Y86353D01*
X396321Y86357D01*
X396300Y86355D01*
X396240Y86359D01*
X48260Y86359D01*
X48142Y86344D01*
X48023Y86337D01*
X47985Y86324D01*
X47944Y86319D01*
X47834Y86276D01*
X47721Y86239D01*
X47686Y86217D01*
X47649Y86202D01*
X47553Y86133D01*
X47452Y86069D01*
X47424Y86039D01*
X47391Y86016D01*
X47316Y85924D01*
X47234Y85837D01*
X47214Y85802D01*
X47189Y85771D01*
X47138Y85663D01*
X47080Y85559D01*
X47070Y85519D01*
X47053Y85483D01*
X47031Y85366D01*
X47001Y85251D01*
X46997Y85191D01*
X46993Y85171D01*
X46994Y85162D01*
X46993Y85159D01*
X46994Y85145D01*
X46991Y85090D01*
X46991Y66040D01*
X47006Y65922D01*
X47013Y65803D01*
X47026Y65765D01*
X47031Y65724D01*
X47074Y65614D01*
X47111Y65501D01*
X47133Y65466D01*
X47148Y65429D01*
X47218Y65333D01*
X47281Y65232D01*
X47311Y65204D01*
X47334Y65171D01*
X47426Y65096D01*
X47513Y65014D01*
X47548Y64994D01*
X47579Y64969D01*
X47687Y64918D01*
X47791Y64860D01*
X47831Y64850D01*
X47867Y64833D01*
X47984Y64811D01*
X48099Y64781D01*
X48160Y64777D01*
X48180Y64773D01*
X48200Y64775D01*
X48260Y64771D01*
X396240Y64771D01*
X396358Y64786D01*
G37*
G36*
X395088Y15256D02*
X395088Y15256D01*
X395207Y15263D01*
X395245Y15276D01*
X395286Y15281D01*
X395396Y15324D01*
X395509Y15361D01*
X395544Y15383D01*
X395581Y15398D01*
X395677Y15468D01*
X395778Y15531D01*
X395806Y15561D01*
X395839Y15584D01*
X395915Y15676D01*
X395996Y15763D01*
X396016Y15798D01*
X396041Y15829D01*
X396092Y15937D01*
X396150Y16041D01*
X396160Y16081D01*
X396177Y16117D01*
X396199Y16234D01*
X396229Y16349D01*
X396233Y16410D01*
X396237Y16430D01*
X396235Y16450D01*
X396239Y16510D01*
X396239Y35560D01*
X396224Y35678D01*
X396217Y35797D01*
X396204Y35835D01*
X396199Y35876D01*
X396156Y35986D01*
X396119Y36099D01*
X396097Y36134D01*
X396082Y36171D01*
X396013Y36267D01*
X395949Y36368D01*
X395919Y36396D01*
X395896Y36429D01*
X395804Y36505D01*
X395717Y36586D01*
X395682Y36606D01*
X395651Y36631D01*
X395543Y36682D01*
X395439Y36740D01*
X395399Y36750D01*
X395363Y36767D01*
X395246Y36789D01*
X395131Y36819D01*
X395071Y36823D01*
X395051Y36827D01*
X395030Y36825D01*
X394970Y36829D01*
X46990Y36829D01*
X46872Y36814D01*
X46753Y36807D01*
X46715Y36794D01*
X46674Y36789D01*
X46564Y36746D01*
X46451Y36709D01*
X46416Y36687D01*
X46379Y36672D01*
X46283Y36603D01*
X46182Y36539D01*
X46154Y36509D01*
X46121Y36486D01*
X46046Y36394D01*
X45964Y36307D01*
X45944Y36272D01*
X45919Y36241D01*
X45868Y36133D01*
X45810Y36029D01*
X45800Y35989D01*
X45783Y35953D01*
X45761Y35836D01*
X45731Y35721D01*
X45727Y35661D01*
X45723Y35641D01*
X45724Y35632D01*
X45723Y35629D01*
X45724Y35615D01*
X45721Y35560D01*
X45721Y16510D01*
X45736Y16392D01*
X45743Y16273D01*
X45756Y16235D01*
X45761Y16194D01*
X45804Y16084D01*
X45841Y15971D01*
X45863Y15936D01*
X45878Y15899D01*
X45948Y15803D01*
X46011Y15702D01*
X46041Y15674D01*
X46064Y15641D01*
X46156Y15566D01*
X46243Y15484D01*
X46278Y15464D01*
X46309Y15439D01*
X46417Y15388D01*
X46521Y15330D01*
X46561Y15320D01*
X46597Y15303D01*
X46714Y15281D01*
X46829Y15251D01*
X46890Y15247D01*
X46910Y15243D01*
X46930Y15245D01*
X46990Y15241D01*
X394970Y15241D01*
X395088Y15256D01*
G37*
G36*
X538598Y34306D02*
X538598Y34306D01*
X538717Y34313D01*
X538755Y34326D01*
X538796Y34331D01*
X538906Y34374D01*
X539019Y34411D01*
X539054Y34433D01*
X539091Y34448D01*
X539187Y34518D01*
X539288Y34581D01*
X539316Y34611D01*
X539349Y34634D01*
X539425Y34726D01*
X539506Y34813D01*
X539526Y34848D01*
X539551Y34879D01*
X539602Y34987D01*
X539660Y35091D01*
X539670Y35131D01*
X539687Y35167D01*
X539709Y35284D01*
X539739Y35399D01*
X539743Y35460D01*
X539747Y35480D01*
X539745Y35500D01*
X539749Y35560D01*
X539749Y66040D01*
X539734Y66158D01*
X539727Y66277D01*
X539714Y66315D01*
X539709Y66356D01*
X539666Y66466D01*
X539629Y66579D01*
X539607Y66614D01*
X539592Y66651D01*
X539523Y66747D01*
X539459Y66848D01*
X539429Y66876D01*
X539406Y66909D01*
X539314Y66985D01*
X539227Y67066D01*
X539192Y67086D01*
X539161Y67111D01*
X539053Y67162D01*
X538949Y67220D01*
X538909Y67230D01*
X538873Y67247D01*
X538756Y67269D01*
X538641Y67299D01*
X538581Y67303D01*
X538561Y67307D01*
X538540Y67305D01*
X538480Y67309D01*
X408940Y67309D01*
X408822Y67294D01*
X408703Y67287D01*
X408665Y67274D01*
X408624Y67269D01*
X408514Y67226D01*
X408401Y67189D01*
X408366Y67167D01*
X408329Y67152D01*
X408233Y67083D01*
X408132Y67019D01*
X408104Y66989D01*
X408071Y66966D01*
X407996Y66874D01*
X407914Y66787D01*
X407894Y66752D01*
X407869Y66721D01*
X407818Y66613D01*
X407760Y66509D01*
X407750Y66469D01*
X407733Y66433D01*
X407711Y66316D01*
X407681Y66201D01*
X407677Y66141D01*
X407673Y66121D01*
X407674Y66107D01*
X407673Y66103D01*
X407674Y66091D01*
X407671Y66040D01*
X407671Y35560D01*
X407686Y35442D01*
X407693Y35323D01*
X407706Y35285D01*
X407711Y35244D01*
X407754Y35134D01*
X407791Y35021D01*
X407813Y34986D01*
X407828Y34949D01*
X407898Y34853D01*
X407961Y34752D01*
X407991Y34724D01*
X408014Y34691D01*
X408106Y34616D01*
X408193Y34534D01*
X408228Y34514D01*
X408259Y34489D01*
X408367Y34438D01*
X408471Y34380D01*
X408511Y34370D01*
X408547Y34353D01*
X408664Y34331D01*
X408779Y34301D01*
X408840Y34297D01*
X408860Y34293D01*
X408880Y34295D01*
X408940Y34291D01*
X538480Y34291D01*
X538598Y34306D01*
G37*
M02*
