M48
;GenerationSoftware,Autodesk,EAGLE,9.6.1*%
;CreationDate,2020-06-28T21:57:43Z*%
FMAT,2
ICI,OFF
METRIC,TZ,000.000
T5C0.550
T4C0.800
T3C0.850
T2C1.000
%
G90
M71
T2
X41275Y19050
X1905Y15875
X1905Y18415
X1905Y4445
X1905Y6985
X41275Y11430
X41275Y8890
X41275Y6350
X41275Y13970
X41275Y16510
T3
X19685Y26670
X22225Y26670
X30480Y26670
X27940Y26670
X14605Y26670
X12065Y26670
X9525Y13335
X9525Y10795
T4
X21590Y18415
X21590Y1905
X18415Y5080
X26035Y5080
X8890Y5080
X16510Y5080
X7620Y31115
X15240Y31115
X24765Y31115
X13970Y18415
X33655Y8255
X33655Y15875
X23495Y18415
X31115Y18415
X26670Y31115
X34290Y31115
X17145Y31115
X13335Y15875
X20955Y8255
X18415Y8255
X15875Y8255
X13335Y8255
X23495Y8255
X26035Y8255
X28575Y8255
X28575Y15875
X26035Y15875
X23495Y15875
X20955Y15875
X18415Y15875
X15875Y15875
X13970Y1905
T5
X23495Y22225
X38735Y15240
X20955Y12700
M30