G04 EAGLE Gerber RS-274X export*
G75*
%MOMM*%
%FSLAX34Y34*%
%LPD*%
%INSilk screen SOL*%
%IPPOS*%
%AMOC8*
5,1,8,0,0,1.08239X$1,22.5*%
G01*
%ADD10C,0.152400*%
%ADD11C,0.177800*%


D10*
X549882Y207518D02*
X549882Y191262D01*
X551688Y191262D02*
X548076Y191262D01*
X548076Y207518D02*
X551688Y207518D01*
X541510Y202099D02*
X541510Y191262D01*
X541510Y202099D02*
X536995Y202099D01*
X536891Y202097D01*
X536788Y202091D01*
X536684Y202081D01*
X536581Y202067D01*
X536479Y202049D01*
X536378Y202028D01*
X536277Y202002D01*
X536178Y201973D01*
X536079Y201940D01*
X535982Y201903D01*
X535887Y201862D01*
X535793Y201818D01*
X535701Y201770D01*
X535611Y201719D01*
X535522Y201664D01*
X535436Y201606D01*
X535353Y201544D01*
X535271Y201480D01*
X535193Y201412D01*
X535117Y201342D01*
X535043Y201269D01*
X534973Y201192D01*
X534905Y201114D01*
X534841Y201032D01*
X534779Y200949D01*
X534721Y200863D01*
X534666Y200774D01*
X534615Y200684D01*
X534567Y200592D01*
X534523Y200498D01*
X534482Y200403D01*
X534445Y200306D01*
X534412Y200207D01*
X534383Y200108D01*
X534357Y200007D01*
X534336Y199906D01*
X534318Y199804D01*
X534304Y199701D01*
X534294Y199597D01*
X534288Y199494D01*
X534286Y199390D01*
X534285Y199390D02*
X534285Y191262D01*
X526848Y185843D02*
X526848Y202099D01*
X522332Y202099D01*
X522228Y202097D01*
X522125Y202091D01*
X522021Y202081D01*
X521918Y202067D01*
X521816Y202049D01*
X521715Y202028D01*
X521614Y202002D01*
X521515Y201973D01*
X521416Y201940D01*
X521319Y201903D01*
X521224Y201862D01*
X521130Y201818D01*
X521038Y201770D01*
X520948Y201719D01*
X520859Y201664D01*
X520773Y201606D01*
X520690Y201544D01*
X520608Y201480D01*
X520530Y201412D01*
X520454Y201342D01*
X520380Y201269D01*
X520310Y201192D01*
X520242Y201114D01*
X520178Y201032D01*
X520116Y200949D01*
X520058Y200863D01*
X520003Y200774D01*
X519952Y200684D01*
X519904Y200592D01*
X519860Y200498D01*
X519819Y200403D01*
X519782Y200306D01*
X519749Y200207D01*
X519720Y200108D01*
X519694Y200007D01*
X519673Y199906D01*
X519655Y199804D01*
X519641Y199701D01*
X519631Y199597D01*
X519625Y199494D01*
X519623Y199390D01*
X519623Y193971D01*
X519625Y193870D01*
X519631Y193769D01*
X519640Y193668D01*
X519653Y193567D01*
X519670Y193467D01*
X519691Y193368D01*
X519715Y193270D01*
X519743Y193173D01*
X519775Y193076D01*
X519810Y192981D01*
X519849Y192888D01*
X519891Y192796D01*
X519937Y192705D01*
X519986Y192616D01*
X520038Y192530D01*
X520094Y192445D01*
X520152Y192362D01*
X520214Y192282D01*
X520279Y192204D01*
X520346Y192128D01*
X520416Y192055D01*
X520489Y191985D01*
X520565Y191918D01*
X520643Y191853D01*
X520723Y191791D01*
X520806Y191733D01*
X520891Y191677D01*
X520978Y191625D01*
X521066Y191576D01*
X521157Y191530D01*
X521249Y191488D01*
X521342Y191449D01*
X521437Y191414D01*
X521534Y191382D01*
X521631Y191354D01*
X521729Y191330D01*
X521828Y191309D01*
X521928Y191292D01*
X522029Y191279D01*
X522130Y191270D01*
X522231Y191264D01*
X522332Y191262D01*
X526848Y191262D01*
X512853Y193971D02*
X512853Y202099D01*
X512853Y193971D02*
X512851Y193870D01*
X512845Y193769D01*
X512836Y193668D01*
X512823Y193567D01*
X512806Y193467D01*
X512785Y193368D01*
X512761Y193270D01*
X512733Y193173D01*
X512701Y193076D01*
X512666Y192981D01*
X512627Y192888D01*
X512585Y192796D01*
X512539Y192705D01*
X512490Y192616D01*
X512438Y192530D01*
X512382Y192445D01*
X512324Y192362D01*
X512262Y192282D01*
X512197Y192204D01*
X512130Y192128D01*
X512060Y192055D01*
X511987Y191985D01*
X511911Y191918D01*
X511833Y191853D01*
X511753Y191791D01*
X511670Y191733D01*
X511585Y191677D01*
X511499Y191625D01*
X511410Y191576D01*
X511319Y191530D01*
X511227Y191488D01*
X511134Y191449D01*
X511039Y191414D01*
X510942Y191382D01*
X510845Y191354D01*
X510747Y191330D01*
X510648Y191309D01*
X510548Y191292D01*
X510447Y191279D01*
X510346Y191270D01*
X510245Y191264D01*
X510144Y191262D01*
X505628Y191262D01*
X505628Y202099D01*
X500082Y202099D02*
X494664Y202099D01*
X498276Y207518D02*
X498276Y193971D01*
X498274Y193870D01*
X498268Y193769D01*
X498259Y193668D01*
X498246Y193567D01*
X498229Y193467D01*
X498208Y193368D01*
X498184Y193270D01*
X498156Y193173D01*
X498124Y193076D01*
X498089Y192981D01*
X498050Y192888D01*
X498008Y192796D01*
X497962Y192705D01*
X497913Y192616D01*
X497861Y192530D01*
X497805Y192445D01*
X497747Y192362D01*
X497685Y192282D01*
X497620Y192204D01*
X497553Y192128D01*
X497483Y192055D01*
X497410Y191985D01*
X497334Y191918D01*
X497256Y191853D01*
X497176Y191791D01*
X497093Y191733D01*
X497008Y191677D01*
X496922Y191625D01*
X496833Y191576D01*
X496742Y191530D01*
X496650Y191488D01*
X496557Y191449D01*
X496462Y191414D01*
X496365Y191382D01*
X496268Y191354D01*
X496170Y191330D01*
X496071Y191309D01*
X495971Y191292D01*
X495870Y191279D01*
X495769Y191270D01*
X495668Y191264D01*
X495567Y191262D01*
X494664Y191262D01*
X88138Y195778D02*
X88138Y203002D01*
X88136Y203135D01*
X88130Y203267D01*
X88120Y203399D01*
X88107Y203531D01*
X88089Y203663D01*
X88068Y203793D01*
X88043Y203924D01*
X88014Y204053D01*
X87981Y204181D01*
X87945Y204309D01*
X87905Y204435D01*
X87861Y204560D01*
X87813Y204684D01*
X87762Y204806D01*
X87707Y204927D01*
X87649Y205046D01*
X87587Y205164D01*
X87522Y205279D01*
X87453Y205393D01*
X87382Y205504D01*
X87306Y205613D01*
X87228Y205720D01*
X87147Y205825D01*
X87062Y205927D01*
X86975Y206027D01*
X86885Y206124D01*
X86792Y206219D01*
X86696Y206310D01*
X86598Y206399D01*
X86497Y206485D01*
X86393Y206568D01*
X86287Y206648D01*
X86179Y206724D01*
X86069Y206798D01*
X85956Y206868D01*
X85842Y206935D01*
X85725Y206998D01*
X85607Y207058D01*
X85487Y207115D01*
X85365Y207168D01*
X85242Y207217D01*
X85118Y207263D01*
X84992Y207305D01*
X84865Y207343D01*
X84737Y207378D01*
X84608Y207409D01*
X84479Y207436D01*
X84348Y207459D01*
X84217Y207479D01*
X84085Y207494D01*
X83953Y207506D01*
X83821Y207514D01*
X83688Y207518D01*
X83556Y207518D01*
X83423Y207514D01*
X83291Y207506D01*
X83159Y207494D01*
X83027Y207479D01*
X82896Y207459D01*
X82765Y207436D01*
X82636Y207409D01*
X82507Y207378D01*
X82379Y207343D01*
X82252Y207305D01*
X82126Y207263D01*
X82002Y207217D01*
X81879Y207168D01*
X81757Y207115D01*
X81637Y207058D01*
X81519Y206998D01*
X81402Y206935D01*
X81288Y206868D01*
X81175Y206798D01*
X81065Y206724D01*
X80957Y206648D01*
X80851Y206568D01*
X80747Y206485D01*
X80646Y206399D01*
X80548Y206310D01*
X80452Y206219D01*
X80359Y206124D01*
X80269Y206027D01*
X80182Y205927D01*
X80097Y205825D01*
X80016Y205720D01*
X79938Y205613D01*
X79862Y205504D01*
X79791Y205393D01*
X79722Y205279D01*
X79657Y205164D01*
X79595Y205046D01*
X79537Y204927D01*
X79482Y204806D01*
X79431Y204684D01*
X79383Y204560D01*
X79339Y204435D01*
X79299Y204309D01*
X79263Y204181D01*
X79230Y204053D01*
X79201Y203924D01*
X79176Y203793D01*
X79155Y203663D01*
X79137Y203531D01*
X79124Y203399D01*
X79114Y203267D01*
X79108Y203135D01*
X79106Y203002D01*
X79107Y203002D02*
X79107Y195778D01*
X79106Y195778D02*
X79108Y195645D01*
X79114Y195513D01*
X79124Y195381D01*
X79137Y195249D01*
X79155Y195117D01*
X79176Y194987D01*
X79201Y194856D01*
X79230Y194727D01*
X79263Y194599D01*
X79299Y194471D01*
X79339Y194345D01*
X79383Y194220D01*
X79431Y194096D01*
X79482Y193974D01*
X79537Y193853D01*
X79595Y193734D01*
X79657Y193616D01*
X79722Y193501D01*
X79791Y193387D01*
X79862Y193276D01*
X79938Y193167D01*
X80016Y193060D01*
X80097Y192955D01*
X80182Y192853D01*
X80269Y192753D01*
X80359Y192656D01*
X80452Y192561D01*
X80548Y192470D01*
X80646Y192381D01*
X80747Y192295D01*
X80851Y192212D01*
X80957Y192132D01*
X81065Y192056D01*
X81175Y191982D01*
X81288Y191912D01*
X81402Y191845D01*
X81519Y191782D01*
X81637Y191722D01*
X81757Y191665D01*
X81879Y191612D01*
X82002Y191563D01*
X82126Y191517D01*
X82252Y191475D01*
X82379Y191437D01*
X82507Y191402D01*
X82636Y191371D01*
X82765Y191344D01*
X82896Y191321D01*
X83027Y191301D01*
X83159Y191286D01*
X83291Y191274D01*
X83423Y191266D01*
X83556Y191262D01*
X83688Y191262D01*
X83821Y191266D01*
X83953Y191274D01*
X84085Y191286D01*
X84217Y191301D01*
X84348Y191321D01*
X84479Y191344D01*
X84608Y191371D01*
X84737Y191402D01*
X84865Y191437D01*
X84992Y191475D01*
X85118Y191517D01*
X85242Y191563D01*
X85365Y191612D01*
X85487Y191665D01*
X85607Y191722D01*
X85725Y191782D01*
X85842Y191845D01*
X85956Y191912D01*
X86069Y191982D01*
X86179Y192056D01*
X86287Y192132D01*
X86393Y192212D01*
X86497Y192295D01*
X86598Y192381D01*
X86696Y192470D01*
X86792Y192561D01*
X86885Y192656D01*
X86975Y192753D01*
X87062Y192853D01*
X87147Y192955D01*
X87228Y193060D01*
X87306Y193167D01*
X87382Y193276D01*
X87453Y193387D01*
X87522Y193501D01*
X87587Y193616D01*
X87649Y193734D01*
X87707Y193853D01*
X87762Y193974D01*
X87813Y194096D01*
X87861Y194220D01*
X87905Y194345D01*
X87945Y194471D01*
X87981Y194599D01*
X88014Y194727D01*
X88043Y194856D01*
X88068Y194987D01*
X88089Y195117D01*
X88107Y195249D01*
X88120Y195381D01*
X88130Y195513D01*
X88136Y195645D01*
X88138Y195778D01*
X72125Y193971D02*
X72125Y202099D01*
X72124Y193971D02*
X72122Y193870D01*
X72116Y193769D01*
X72107Y193668D01*
X72094Y193567D01*
X72077Y193467D01*
X72056Y193368D01*
X72032Y193270D01*
X72004Y193173D01*
X71972Y193076D01*
X71937Y192981D01*
X71898Y192888D01*
X71856Y192796D01*
X71810Y192705D01*
X71761Y192616D01*
X71709Y192530D01*
X71653Y192445D01*
X71595Y192362D01*
X71533Y192282D01*
X71468Y192204D01*
X71401Y192128D01*
X71331Y192055D01*
X71258Y191985D01*
X71182Y191918D01*
X71104Y191853D01*
X71024Y191791D01*
X70941Y191733D01*
X70856Y191677D01*
X70769Y191625D01*
X70681Y191576D01*
X70590Y191530D01*
X70498Y191488D01*
X70405Y191449D01*
X70310Y191414D01*
X70213Y191382D01*
X70116Y191354D01*
X70018Y191330D01*
X69919Y191309D01*
X69819Y191292D01*
X69718Y191279D01*
X69617Y191270D01*
X69516Y191264D01*
X69415Y191262D01*
X64900Y191262D01*
X64900Y202099D01*
X59354Y202099D02*
X53935Y202099D01*
X57548Y207518D02*
X57548Y193971D01*
X57547Y193971D02*
X57545Y193870D01*
X57539Y193769D01*
X57530Y193668D01*
X57517Y193567D01*
X57500Y193467D01*
X57479Y193368D01*
X57455Y193270D01*
X57427Y193173D01*
X57395Y193076D01*
X57360Y192981D01*
X57321Y192888D01*
X57279Y192796D01*
X57233Y192705D01*
X57184Y192616D01*
X57132Y192530D01*
X57076Y192445D01*
X57018Y192362D01*
X56956Y192282D01*
X56891Y192204D01*
X56824Y192128D01*
X56754Y192055D01*
X56681Y191985D01*
X56605Y191918D01*
X56527Y191853D01*
X56447Y191791D01*
X56364Y191733D01*
X56279Y191677D01*
X56192Y191625D01*
X56104Y191576D01*
X56013Y191530D01*
X55921Y191488D01*
X55828Y191449D01*
X55733Y191414D01*
X55636Y191382D01*
X55539Y191354D01*
X55441Y191330D01*
X55342Y191309D01*
X55242Y191292D01*
X55141Y191279D01*
X55040Y191270D01*
X54939Y191264D01*
X54838Y191262D01*
X53935Y191262D01*
X47563Y185843D02*
X47563Y202099D01*
X43047Y202099D01*
X42943Y202097D01*
X42840Y202091D01*
X42736Y202081D01*
X42633Y202067D01*
X42531Y202049D01*
X42430Y202028D01*
X42329Y202002D01*
X42230Y201973D01*
X42131Y201940D01*
X42034Y201903D01*
X41939Y201862D01*
X41845Y201818D01*
X41753Y201770D01*
X41663Y201719D01*
X41574Y201664D01*
X41488Y201606D01*
X41405Y201544D01*
X41323Y201480D01*
X41245Y201412D01*
X41169Y201342D01*
X41095Y201269D01*
X41025Y201192D01*
X40957Y201114D01*
X40893Y201032D01*
X40831Y200949D01*
X40773Y200863D01*
X40718Y200774D01*
X40667Y200684D01*
X40619Y200592D01*
X40575Y200498D01*
X40534Y200403D01*
X40497Y200306D01*
X40464Y200207D01*
X40435Y200108D01*
X40409Y200007D01*
X40388Y199906D01*
X40370Y199804D01*
X40356Y199701D01*
X40346Y199597D01*
X40340Y199494D01*
X40338Y199390D01*
X40338Y193971D01*
X40340Y193870D01*
X40346Y193769D01*
X40355Y193668D01*
X40368Y193567D01*
X40385Y193467D01*
X40406Y193368D01*
X40430Y193270D01*
X40458Y193173D01*
X40490Y193076D01*
X40525Y192981D01*
X40564Y192888D01*
X40606Y192796D01*
X40652Y192705D01*
X40701Y192616D01*
X40753Y192530D01*
X40809Y192445D01*
X40867Y192362D01*
X40929Y192282D01*
X40994Y192204D01*
X41061Y192128D01*
X41131Y192055D01*
X41204Y191985D01*
X41280Y191918D01*
X41358Y191853D01*
X41438Y191791D01*
X41521Y191733D01*
X41606Y191677D01*
X41693Y191625D01*
X41781Y191576D01*
X41872Y191530D01*
X41964Y191488D01*
X42057Y191449D01*
X42152Y191414D01*
X42249Y191382D01*
X42346Y191354D01*
X42444Y191330D01*
X42543Y191309D01*
X42643Y191292D01*
X42744Y191279D01*
X42845Y191270D01*
X42946Y191264D01*
X43047Y191262D01*
X47563Y191262D01*
X33568Y193971D02*
X33568Y202099D01*
X33567Y193971D02*
X33565Y193870D01*
X33559Y193769D01*
X33550Y193668D01*
X33537Y193567D01*
X33520Y193467D01*
X33499Y193368D01*
X33475Y193270D01*
X33447Y193173D01*
X33415Y193076D01*
X33380Y192981D01*
X33341Y192888D01*
X33299Y192796D01*
X33253Y192705D01*
X33204Y192616D01*
X33152Y192530D01*
X33096Y192445D01*
X33038Y192362D01*
X32976Y192282D01*
X32911Y192204D01*
X32844Y192128D01*
X32774Y192055D01*
X32701Y191985D01*
X32625Y191918D01*
X32547Y191853D01*
X32467Y191791D01*
X32384Y191733D01*
X32299Y191677D01*
X32212Y191625D01*
X32124Y191576D01*
X32033Y191530D01*
X31941Y191488D01*
X31848Y191449D01*
X31753Y191414D01*
X31656Y191382D01*
X31559Y191354D01*
X31461Y191330D01*
X31362Y191309D01*
X31262Y191292D01*
X31161Y191279D01*
X31060Y191270D01*
X30959Y191264D01*
X30858Y191262D01*
X26343Y191262D01*
X26343Y202099D01*
X20797Y202099D02*
X15378Y202099D01*
X18991Y207518D02*
X18991Y193971D01*
X18990Y193971D02*
X18988Y193870D01*
X18982Y193769D01*
X18973Y193668D01*
X18960Y193567D01*
X18943Y193467D01*
X18922Y193368D01*
X18898Y193270D01*
X18870Y193173D01*
X18838Y193076D01*
X18803Y192981D01*
X18764Y192888D01*
X18722Y192796D01*
X18676Y192705D01*
X18627Y192616D01*
X18575Y192530D01*
X18519Y192445D01*
X18461Y192362D01*
X18399Y192282D01*
X18334Y192204D01*
X18267Y192128D01*
X18197Y192055D01*
X18124Y191985D01*
X18048Y191918D01*
X17970Y191853D01*
X17890Y191791D01*
X17807Y191733D01*
X17722Y191677D01*
X17635Y191625D01*
X17547Y191576D01*
X17456Y191530D01*
X17364Y191488D01*
X17271Y191449D01*
X17176Y191414D01*
X17079Y191382D01*
X16982Y191354D01*
X16884Y191330D01*
X16785Y191309D01*
X16685Y191292D01*
X16584Y191279D01*
X16483Y191270D01*
X16382Y191264D01*
X16281Y191262D01*
X15378Y191262D01*
D11*
X433253Y45903D02*
X433253Y43829D01*
X433253Y45903D02*
X426339Y45903D01*
X426339Y41755D01*
X426341Y41652D01*
X426347Y41548D01*
X426356Y41445D01*
X426370Y41343D01*
X426387Y41241D01*
X426408Y41140D01*
X426433Y41039D01*
X426462Y40940D01*
X426494Y40841D01*
X426530Y40744D01*
X426570Y40649D01*
X426613Y40555D01*
X426660Y40463D01*
X426710Y40372D01*
X426763Y40283D01*
X426820Y40197D01*
X426879Y40112D01*
X426942Y40030D01*
X427008Y39951D01*
X427077Y39874D01*
X427149Y39799D01*
X427224Y39727D01*
X427301Y39658D01*
X427380Y39592D01*
X427462Y39529D01*
X427547Y39470D01*
X427633Y39413D01*
X427722Y39360D01*
X427813Y39310D01*
X427905Y39263D01*
X427999Y39220D01*
X428094Y39180D01*
X428191Y39144D01*
X428290Y39112D01*
X428389Y39083D01*
X428490Y39058D01*
X428591Y39037D01*
X428693Y39020D01*
X428795Y39006D01*
X428898Y38997D01*
X429002Y38991D01*
X429105Y38989D01*
X436019Y38989D01*
X436122Y38991D01*
X436226Y38997D01*
X436329Y39006D01*
X436431Y39020D01*
X436533Y39037D01*
X436634Y39058D01*
X436735Y39083D01*
X436834Y39112D01*
X436933Y39144D01*
X437030Y39180D01*
X437125Y39220D01*
X437219Y39263D01*
X437311Y39310D01*
X437402Y39360D01*
X437491Y39413D01*
X437577Y39470D01*
X437661Y39529D01*
X437744Y39592D01*
X437823Y39658D01*
X437900Y39727D01*
X437975Y39799D01*
X438047Y39874D01*
X438116Y39951D01*
X438182Y40030D01*
X438245Y40112D01*
X438304Y40197D01*
X438361Y40283D01*
X438414Y40372D01*
X438464Y40463D01*
X438511Y40555D01*
X438554Y40649D01*
X438594Y40744D01*
X438630Y40841D01*
X438662Y40940D01*
X438691Y41039D01*
X438716Y41139D01*
X438737Y41241D01*
X438754Y41343D01*
X438768Y41445D01*
X438777Y41548D01*
X438783Y41652D01*
X438785Y41755D01*
X438785Y45903D01*
X438785Y52644D02*
X426339Y52644D01*
X426339Y59558D02*
X438785Y52644D01*
X438785Y59558D02*
X426339Y59558D01*
X426339Y66299D02*
X438785Y66299D01*
X438785Y69756D01*
X438783Y69872D01*
X438777Y69987D01*
X438768Y70102D01*
X438754Y70217D01*
X438737Y70331D01*
X438716Y70445D01*
X438691Y70557D01*
X438662Y70669D01*
X438630Y70780D01*
X438594Y70890D01*
X438554Y70998D01*
X438511Y71106D01*
X438464Y71211D01*
X438413Y71315D01*
X438360Y71417D01*
X438302Y71518D01*
X438242Y71616D01*
X438178Y71712D01*
X438111Y71807D01*
X438041Y71898D01*
X437968Y71988D01*
X437892Y72075D01*
X437813Y72159D01*
X437731Y72241D01*
X437647Y72320D01*
X437560Y72396D01*
X437470Y72469D01*
X437379Y72539D01*
X437284Y72606D01*
X437188Y72670D01*
X437090Y72730D01*
X436989Y72788D01*
X436887Y72841D01*
X436783Y72892D01*
X436678Y72939D01*
X436570Y72982D01*
X436462Y73022D01*
X436352Y73058D01*
X436241Y73090D01*
X436129Y73119D01*
X436017Y73144D01*
X435903Y73165D01*
X435789Y73182D01*
X435674Y73196D01*
X435559Y73205D01*
X435443Y73211D01*
X435328Y73213D01*
X429796Y73213D01*
X429680Y73211D01*
X429565Y73205D01*
X429450Y73196D01*
X429335Y73182D01*
X429221Y73165D01*
X429107Y73144D01*
X428995Y73119D01*
X428883Y73090D01*
X428772Y73058D01*
X428662Y73022D01*
X428554Y72982D01*
X428446Y72939D01*
X428341Y72892D01*
X428237Y72841D01*
X428135Y72788D01*
X428034Y72730D01*
X427936Y72670D01*
X427840Y72606D01*
X427745Y72539D01*
X427654Y72469D01*
X427564Y72396D01*
X427477Y72320D01*
X427393Y72241D01*
X427311Y72159D01*
X427232Y72075D01*
X427156Y71988D01*
X427083Y71898D01*
X427013Y71807D01*
X426946Y71712D01*
X426882Y71616D01*
X426822Y71518D01*
X426764Y71417D01*
X426711Y71315D01*
X426660Y71211D01*
X426613Y71106D01*
X426570Y70998D01*
X426530Y70890D01*
X426494Y70780D01*
X426462Y70669D01*
X426433Y70557D01*
X426408Y70445D01*
X426387Y70331D01*
X426370Y70217D01*
X426356Y70102D01*
X426347Y69987D01*
X426341Y69872D01*
X426339Y69756D01*
X426339Y66299D01*
X407853Y45903D02*
X407853Y43829D01*
X407853Y45903D02*
X400939Y45903D01*
X400939Y41755D01*
X400941Y41652D01*
X400947Y41548D01*
X400956Y41445D01*
X400970Y41343D01*
X400987Y41241D01*
X401008Y41140D01*
X401033Y41039D01*
X401062Y40940D01*
X401094Y40841D01*
X401130Y40744D01*
X401170Y40649D01*
X401213Y40555D01*
X401260Y40463D01*
X401310Y40372D01*
X401363Y40283D01*
X401420Y40197D01*
X401479Y40112D01*
X401542Y40030D01*
X401608Y39951D01*
X401677Y39874D01*
X401749Y39799D01*
X401824Y39727D01*
X401901Y39658D01*
X401980Y39592D01*
X402062Y39529D01*
X402147Y39470D01*
X402233Y39413D01*
X402322Y39360D01*
X402413Y39310D01*
X402505Y39263D01*
X402599Y39220D01*
X402694Y39180D01*
X402791Y39144D01*
X402890Y39112D01*
X402989Y39083D01*
X403090Y39058D01*
X403191Y39037D01*
X403293Y39020D01*
X403395Y39006D01*
X403498Y38997D01*
X403602Y38991D01*
X403705Y38989D01*
X410619Y38989D01*
X410722Y38991D01*
X410826Y38997D01*
X410929Y39006D01*
X411031Y39020D01*
X411133Y39037D01*
X411234Y39058D01*
X411335Y39083D01*
X411434Y39112D01*
X411533Y39144D01*
X411630Y39180D01*
X411725Y39220D01*
X411819Y39263D01*
X411911Y39310D01*
X412002Y39360D01*
X412091Y39413D01*
X412177Y39470D01*
X412261Y39529D01*
X412344Y39592D01*
X412423Y39658D01*
X412500Y39727D01*
X412575Y39799D01*
X412647Y39874D01*
X412716Y39951D01*
X412782Y40030D01*
X412845Y40112D01*
X412904Y40197D01*
X412961Y40283D01*
X413014Y40372D01*
X413064Y40463D01*
X413111Y40555D01*
X413154Y40649D01*
X413194Y40744D01*
X413230Y40841D01*
X413262Y40940D01*
X413291Y41039D01*
X413316Y41139D01*
X413337Y41241D01*
X413354Y41343D01*
X413368Y41445D01*
X413377Y41548D01*
X413383Y41652D01*
X413385Y41755D01*
X413385Y45903D01*
X413385Y52644D02*
X400939Y52644D01*
X400939Y59558D02*
X413385Y52644D01*
X413385Y59558D02*
X400939Y59558D01*
X400939Y66299D02*
X413385Y66299D01*
X413385Y69756D01*
X413383Y69872D01*
X413377Y69987D01*
X413368Y70102D01*
X413354Y70217D01*
X413337Y70331D01*
X413316Y70445D01*
X413291Y70557D01*
X413262Y70669D01*
X413230Y70780D01*
X413194Y70890D01*
X413154Y70998D01*
X413111Y71106D01*
X413064Y71211D01*
X413013Y71315D01*
X412960Y71417D01*
X412902Y71518D01*
X412842Y71616D01*
X412778Y71712D01*
X412711Y71807D01*
X412641Y71898D01*
X412568Y71988D01*
X412492Y72075D01*
X412413Y72159D01*
X412331Y72241D01*
X412247Y72320D01*
X412160Y72396D01*
X412070Y72469D01*
X411979Y72539D01*
X411884Y72606D01*
X411788Y72670D01*
X411690Y72730D01*
X411589Y72788D01*
X411487Y72841D01*
X411383Y72892D01*
X411278Y72939D01*
X411170Y72982D01*
X411062Y73022D01*
X410952Y73058D01*
X410841Y73090D01*
X410729Y73119D01*
X410617Y73144D01*
X410503Y73165D01*
X410389Y73182D01*
X410274Y73196D01*
X410159Y73205D01*
X410043Y73211D01*
X409928Y73213D01*
X404396Y73213D01*
X404280Y73211D01*
X404165Y73205D01*
X404050Y73196D01*
X403935Y73182D01*
X403821Y73165D01*
X403707Y73144D01*
X403595Y73119D01*
X403483Y73090D01*
X403372Y73058D01*
X403262Y73022D01*
X403154Y72982D01*
X403046Y72939D01*
X402941Y72892D01*
X402837Y72841D01*
X402735Y72788D01*
X402634Y72730D01*
X402536Y72670D01*
X402440Y72606D01*
X402345Y72539D01*
X402254Y72469D01*
X402164Y72396D01*
X402077Y72320D01*
X401993Y72241D01*
X401911Y72159D01*
X401832Y72075D01*
X401756Y71988D01*
X401683Y71898D01*
X401613Y71807D01*
X401546Y71712D01*
X401482Y71616D01*
X401422Y71518D01*
X401364Y71417D01*
X401311Y71315D01*
X401260Y71211D01*
X401213Y71106D01*
X401170Y70998D01*
X401130Y70890D01*
X401094Y70780D01*
X401062Y70669D01*
X401033Y70557D01*
X401008Y70445D01*
X400987Y70331D01*
X400970Y70217D01*
X400956Y70102D01*
X400947Y69987D01*
X400941Y69872D01*
X400939Y69756D01*
X400939Y66299D01*
X387985Y38989D02*
X375539Y38989D01*
X375539Y44521D01*
X375539Y50084D02*
X375539Y55615D01*
X375539Y50084D02*
X387985Y50084D01*
X387985Y55615D01*
X382453Y54232D02*
X382453Y50084D01*
X387985Y61146D02*
X375539Y61146D01*
X375539Y68060D02*
X387985Y61146D01*
X387985Y68060D02*
X375539Y68060D01*
X352905Y45904D02*
X352802Y45902D01*
X352698Y45896D01*
X352595Y45887D01*
X352493Y45873D01*
X352391Y45856D01*
X352290Y45835D01*
X352189Y45810D01*
X352090Y45781D01*
X351991Y45749D01*
X351894Y45713D01*
X351799Y45673D01*
X351705Y45630D01*
X351613Y45583D01*
X351522Y45533D01*
X351433Y45480D01*
X351347Y45423D01*
X351262Y45364D01*
X351180Y45301D01*
X351101Y45235D01*
X351024Y45166D01*
X350949Y45094D01*
X350877Y45019D01*
X350808Y44942D01*
X350742Y44863D01*
X350679Y44781D01*
X350620Y44696D01*
X350563Y44610D01*
X350510Y44521D01*
X350460Y44430D01*
X350413Y44338D01*
X350370Y44244D01*
X350330Y44149D01*
X350294Y44052D01*
X350262Y43953D01*
X350233Y43854D01*
X350208Y43753D01*
X350187Y43652D01*
X350170Y43550D01*
X350156Y43448D01*
X350147Y43345D01*
X350141Y43241D01*
X350139Y43138D01*
X350141Y42989D01*
X350147Y42840D01*
X350156Y42692D01*
X350169Y42544D01*
X350186Y42396D01*
X350207Y42249D01*
X350232Y42102D01*
X350260Y41956D01*
X350292Y41810D01*
X350328Y41666D01*
X350367Y41522D01*
X350410Y41380D01*
X350456Y41238D01*
X350507Y41098D01*
X350560Y40960D01*
X350618Y40822D01*
X350678Y40686D01*
X350742Y40552D01*
X350810Y40419D01*
X350881Y40289D01*
X350955Y40160D01*
X351033Y40033D01*
X351113Y39908D01*
X351197Y39785D01*
X351284Y39664D01*
X351374Y39545D01*
X351467Y39429D01*
X351563Y39315D01*
X351662Y39204D01*
X351763Y39095D01*
X351868Y38989D01*
X359819Y39334D02*
X359922Y39336D01*
X360026Y39342D01*
X360129Y39351D01*
X360231Y39365D01*
X360333Y39382D01*
X360434Y39403D01*
X360535Y39428D01*
X360634Y39457D01*
X360733Y39489D01*
X360830Y39525D01*
X360925Y39565D01*
X361019Y39608D01*
X361111Y39655D01*
X361202Y39705D01*
X361291Y39758D01*
X361377Y39815D01*
X361462Y39874D01*
X361544Y39937D01*
X361623Y40003D01*
X361700Y40072D01*
X361775Y40144D01*
X361847Y40219D01*
X361916Y40296D01*
X361982Y40375D01*
X362045Y40458D01*
X362104Y40542D01*
X362161Y40628D01*
X362214Y40717D01*
X362264Y40808D01*
X362311Y40900D01*
X362354Y40994D01*
X362394Y41089D01*
X362430Y41186D01*
X362462Y41285D01*
X362491Y41384D01*
X362516Y41485D01*
X362537Y41586D01*
X362554Y41688D01*
X362568Y41790D01*
X362577Y41893D01*
X362583Y41997D01*
X362585Y42100D01*
X362583Y42239D01*
X362578Y42378D01*
X362568Y42517D01*
X362555Y42655D01*
X362538Y42793D01*
X362518Y42931D01*
X362494Y43068D01*
X362466Y43204D01*
X362435Y43339D01*
X362400Y43474D01*
X362361Y43608D01*
X362319Y43740D01*
X362273Y43871D01*
X362224Y44001D01*
X362171Y44130D01*
X362115Y44257D01*
X362056Y44383D01*
X361993Y44507D01*
X361926Y44629D01*
X361857Y44750D01*
X361784Y44868D01*
X361709Y44985D01*
X361630Y45099D01*
X361548Y45212D01*
X357399Y40718D02*
X357453Y40629D01*
X357511Y40542D01*
X357572Y40458D01*
X357636Y40376D01*
X357703Y40296D01*
X357773Y40219D01*
X357846Y40144D01*
X357922Y40073D01*
X358000Y40004D01*
X358080Y39938D01*
X358163Y39875D01*
X358248Y39815D01*
X358336Y39758D01*
X358425Y39705D01*
X358517Y39655D01*
X358610Y39609D01*
X358705Y39565D01*
X358801Y39526D01*
X358899Y39490D01*
X358998Y39458D01*
X359098Y39429D01*
X359199Y39404D01*
X359301Y39383D01*
X359404Y39366D01*
X359507Y39352D01*
X359611Y39343D01*
X359715Y39337D01*
X359819Y39335D01*
X355325Y44520D02*
X355271Y44609D01*
X355213Y44695D01*
X355152Y44780D01*
X355088Y44862D01*
X355021Y44942D01*
X354951Y45019D01*
X354878Y45093D01*
X354802Y45165D01*
X354724Y45234D01*
X354644Y45300D01*
X354561Y45363D01*
X354476Y45423D01*
X354388Y45480D01*
X354299Y45533D01*
X354207Y45583D01*
X354114Y45629D01*
X354019Y45673D01*
X353923Y45712D01*
X353825Y45748D01*
X353726Y45780D01*
X353626Y45809D01*
X353525Y45834D01*
X353423Y45855D01*
X353320Y45872D01*
X353217Y45886D01*
X353113Y45895D01*
X353009Y45901D01*
X352905Y45903D01*
X355325Y44521D02*
X357399Y40718D01*
X350139Y51823D02*
X350139Y57355D01*
X350139Y51823D02*
X362585Y51823D01*
X362585Y57355D01*
X357053Y55972D02*
X357053Y51823D01*
X362585Y62991D02*
X350139Y62991D01*
X362585Y62991D02*
X362585Y66448D01*
X362583Y66565D01*
X362577Y66681D01*
X362567Y66798D01*
X362553Y66914D01*
X362536Y67029D01*
X362514Y67144D01*
X362489Y67258D01*
X362460Y67371D01*
X362426Y67483D01*
X362390Y67594D01*
X362349Y67703D01*
X362305Y67811D01*
X362257Y67918D01*
X362206Y68023D01*
X362151Y68126D01*
X362092Y68227D01*
X362030Y68326D01*
X361965Y68423D01*
X361897Y68518D01*
X361826Y68610D01*
X361751Y68700D01*
X361673Y68787D01*
X361593Y68872D01*
X361510Y68954D01*
X361424Y69033D01*
X361335Y69109D01*
X361244Y69182D01*
X361151Y69252D01*
X361055Y69318D01*
X360957Y69382D01*
X360857Y69442D01*
X360754Y69499D01*
X360650Y69552D01*
X360545Y69601D01*
X360437Y69647D01*
X360329Y69690D01*
X360218Y69729D01*
X360107Y69763D01*
X359995Y69795D01*
X359881Y69822D01*
X359767Y69846D01*
X359651Y69865D01*
X359536Y69881D01*
X359420Y69893D01*
X359303Y69901D01*
X359186Y69905D01*
X359070Y69905D01*
X358953Y69901D01*
X358836Y69893D01*
X358720Y69881D01*
X358605Y69865D01*
X358489Y69846D01*
X358375Y69822D01*
X358261Y69795D01*
X358149Y69763D01*
X358038Y69729D01*
X357927Y69690D01*
X357819Y69647D01*
X357711Y69601D01*
X357606Y69552D01*
X357502Y69499D01*
X357400Y69442D01*
X357299Y69382D01*
X357201Y69318D01*
X357105Y69252D01*
X357012Y69182D01*
X356921Y69109D01*
X356832Y69033D01*
X356746Y68954D01*
X356663Y68872D01*
X356583Y68787D01*
X356505Y68700D01*
X356430Y68610D01*
X356359Y68518D01*
X356291Y68423D01*
X356226Y68326D01*
X356164Y68227D01*
X356105Y68126D01*
X356050Y68023D01*
X355999Y67918D01*
X355951Y67811D01*
X355907Y67703D01*
X355866Y67594D01*
X355830Y67483D01*
X355796Y67371D01*
X355767Y67258D01*
X355742Y67144D01*
X355720Y67029D01*
X355703Y66914D01*
X355689Y66798D01*
X355679Y66681D01*
X355673Y66565D01*
X355671Y66448D01*
X355671Y62991D01*
X355671Y67140D02*
X350139Y69905D01*
X337185Y38989D02*
X324739Y38989D01*
X337185Y38989D02*
X337185Y42446D01*
X337183Y42563D01*
X337177Y42679D01*
X337167Y42796D01*
X337153Y42912D01*
X337136Y43027D01*
X337114Y43142D01*
X337089Y43256D01*
X337060Y43369D01*
X337026Y43481D01*
X336990Y43592D01*
X336949Y43701D01*
X336905Y43809D01*
X336857Y43916D01*
X336806Y44021D01*
X336751Y44124D01*
X336692Y44225D01*
X336630Y44324D01*
X336565Y44421D01*
X336497Y44516D01*
X336426Y44608D01*
X336351Y44698D01*
X336273Y44785D01*
X336193Y44870D01*
X336110Y44952D01*
X336024Y45031D01*
X335935Y45107D01*
X335844Y45180D01*
X335751Y45250D01*
X335655Y45316D01*
X335557Y45380D01*
X335457Y45440D01*
X335354Y45497D01*
X335250Y45550D01*
X335145Y45599D01*
X335037Y45645D01*
X334929Y45688D01*
X334818Y45727D01*
X334707Y45761D01*
X334595Y45793D01*
X334481Y45820D01*
X334367Y45844D01*
X334251Y45863D01*
X334136Y45879D01*
X334020Y45891D01*
X333903Y45899D01*
X333786Y45903D01*
X333670Y45903D01*
X333553Y45899D01*
X333436Y45891D01*
X333320Y45879D01*
X333205Y45863D01*
X333089Y45844D01*
X332975Y45820D01*
X332861Y45793D01*
X332749Y45761D01*
X332638Y45727D01*
X332527Y45688D01*
X332419Y45645D01*
X332311Y45599D01*
X332206Y45550D01*
X332102Y45497D01*
X332000Y45440D01*
X331899Y45380D01*
X331801Y45316D01*
X331705Y45250D01*
X331612Y45180D01*
X331521Y45107D01*
X331432Y45031D01*
X331346Y44952D01*
X331263Y44870D01*
X331183Y44785D01*
X331105Y44698D01*
X331030Y44608D01*
X330959Y44516D01*
X330891Y44421D01*
X330826Y44324D01*
X330764Y44225D01*
X330705Y44124D01*
X330650Y44021D01*
X330599Y43916D01*
X330551Y43809D01*
X330507Y43701D01*
X330466Y43592D01*
X330430Y43481D01*
X330396Y43369D01*
X330367Y43256D01*
X330342Y43142D01*
X330320Y43027D01*
X330303Y42912D01*
X330289Y42796D01*
X330279Y42679D01*
X330273Y42563D01*
X330271Y42446D01*
X330271Y38989D01*
X330271Y43138D02*
X324739Y45903D01*
X324739Y54403D02*
X324739Y57169D01*
X324739Y54403D02*
X324741Y54300D01*
X324747Y54196D01*
X324756Y54093D01*
X324770Y53991D01*
X324787Y53889D01*
X324808Y53788D01*
X324833Y53687D01*
X324862Y53588D01*
X324894Y53489D01*
X324930Y53392D01*
X324970Y53297D01*
X325013Y53203D01*
X325060Y53111D01*
X325110Y53020D01*
X325163Y52931D01*
X325220Y52845D01*
X325279Y52760D01*
X325342Y52678D01*
X325408Y52599D01*
X325477Y52522D01*
X325549Y52447D01*
X325624Y52375D01*
X325701Y52306D01*
X325780Y52240D01*
X325862Y52177D01*
X325947Y52118D01*
X326033Y52061D01*
X326122Y52008D01*
X326213Y51958D01*
X326305Y51911D01*
X326399Y51868D01*
X326494Y51828D01*
X326591Y51792D01*
X326690Y51760D01*
X326789Y51731D01*
X326890Y51706D01*
X326991Y51685D01*
X327093Y51668D01*
X327195Y51654D01*
X327298Y51645D01*
X327402Y51639D01*
X327505Y51637D01*
X334419Y51637D01*
X334522Y51639D01*
X334626Y51645D01*
X334729Y51654D01*
X334831Y51668D01*
X334933Y51685D01*
X335034Y51706D01*
X335135Y51731D01*
X335234Y51760D01*
X335333Y51792D01*
X335430Y51828D01*
X335525Y51868D01*
X335619Y51911D01*
X335711Y51958D01*
X335802Y52008D01*
X335891Y52061D01*
X335977Y52118D01*
X336061Y52177D01*
X336144Y52240D01*
X336223Y52306D01*
X336300Y52375D01*
X336375Y52447D01*
X336447Y52522D01*
X336516Y52599D01*
X336582Y52678D01*
X336645Y52760D01*
X336704Y52845D01*
X336761Y52931D01*
X336814Y53020D01*
X336864Y53111D01*
X336911Y53203D01*
X336954Y53297D01*
X336994Y53392D01*
X337030Y53489D01*
X337062Y53588D01*
X337091Y53687D01*
X337116Y53787D01*
X337137Y53889D01*
X337154Y53991D01*
X337168Y54093D01*
X337177Y54196D01*
X337183Y54300D01*
X337185Y54403D01*
X337185Y57169D01*
X337185Y62812D02*
X324739Y62812D01*
X324739Y68344D01*
X324739Y74117D02*
X337185Y74117D01*
X337185Y81032D02*
X329579Y74117D01*
X332345Y76883D02*
X324739Y81032D01*
X302105Y45904D02*
X302002Y45902D01*
X301898Y45896D01*
X301795Y45887D01*
X301693Y45873D01*
X301591Y45856D01*
X301490Y45835D01*
X301389Y45810D01*
X301290Y45781D01*
X301191Y45749D01*
X301094Y45713D01*
X300999Y45673D01*
X300905Y45630D01*
X300813Y45583D01*
X300722Y45533D01*
X300633Y45480D01*
X300547Y45423D01*
X300462Y45364D01*
X300380Y45301D01*
X300301Y45235D01*
X300224Y45166D01*
X300149Y45094D01*
X300077Y45019D01*
X300008Y44942D01*
X299942Y44863D01*
X299879Y44781D01*
X299820Y44696D01*
X299763Y44610D01*
X299710Y44521D01*
X299660Y44430D01*
X299613Y44338D01*
X299570Y44244D01*
X299530Y44149D01*
X299494Y44052D01*
X299462Y43953D01*
X299433Y43854D01*
X299408Y43753D01*
X299387Y43652D01*
X299370Y43550D01*
X299356Y43448D01*
X299347Y43345D01*
X299341Y43241D01*
X299339Y43138D01*
X299341Y42989D01*
X299347Y42840D01*
X299356Y42692D01*
X299369Y42544D01*
X299386Y42396D01*
X299407Y42249D01*
X299432Y42102D01*
X299460Y41956D01*
X299492Y41810D01*
X299528Y41666D01*
X299567Y41522D01*
X299610Y41380D01*
X299656Y41238D01*
X299707Y41098D01*
X299760Y40960D01*
X299818Y40822D01*
X299878Y40686D01*
X299942Y40552D01*
X300010Y40419D01*
X300081Y40289D01*
X300155Y40160D01*
X300233Y40033D01*
X300313Y39908D01*
X300397Y39785D01*
X300484Y39664D01*
X300574Y39545D01*
X300667Y39429D01*
X300763Y39315D01*
X300862Y39204D01*
X300963Y39095D01*
X301068Y38989D01*
X309019Y39334D02*
X309122Y39336D01*
X309226Y39342D01*
X309329Y39351D01*
X309431Y39365D01*
X309533Y39382D01*
X309634Y39403D01*
X309735Y39428D01*
X309834Y39457D01*
X309933Y39489D01*
X310030Y39525D01*
X310125Y39565D01*
X310219Y39608D01*
X310311Y39655D01*
X310402Y39705D01*
X310491Y39758D01*
X310577Y39815D01*
X310662Y39874D01*
X310744Y39937D01*
X310823Y40003D01*
X310900Y40072D01*
X310975Y40144D01*
X311047Y40219D01*
X311116Y40296D01*
X311182Y40375D01*
X311245Y40458D01*
X311304Y40542D01*
X311361Y40628D01*
X311414Y40717D01*
X311464Y40808D01*
X311511Y40900D01*
X311554Y40994D01*
X311594Y41089D01*
X311630Y41186D01*
X311662Y41285D01*
X311691Y41384D01*
X311716Y41485D01*
X311737Y41586D01*
X311754Y41688D01*
X311768Y41790D01*
X311777Y41893D01*
X311783Y41997D01*
X311785Y42100D01*
X311783Y42239D01*
X311778Y42378D01*
X311768Y42517D01*
X311755Y42655D01*
X311738Y42793D01*
X311718Y42931D01*
X311694Y43068D01*
X311666Y43204D01*
X311635Y43339D01*
X311600Y43474D01*
X311561Y43608D01*
X311519Y43740D01*
X311473Y43871D01*
X311424Y44001D01*
X311371Y44130D01*
X311315Y44257D01*
X311256Y44383D01*
X311193Y44507D01*
X311126Y44629D01*
X311057Y44750D01*
X310984Y44868D01*
X310909Y44985D01*
X310830Y45099D01*
X310748Y45212D01*
X306599Y40718D02*
X306653Y40629D01*
X306711Y40542D01*
X306772Y40458D01*
X306836Y40376D01*
X306903Y40296D01*
X306973Y40219D01*
X307046Y40144D01*
X307122Y40073D01*
X307200Y40004D01*
X307280Y39938D01*
X307363Y39875D01*
X307448Y39815D01*
X307536Y39758D01*
X307625Y39705D01*
X307717Y39655D01*
X307810Y39609D01*
X307905Y39565D01*
X308001Y39526D01*
X308099Y39490D01*
X308198Y39458D01*
X308298Y39429D01*
X308399Y39404D01*
X308501Y39383D01*
X308604Y39366D01*
X308707Y39352D01*
X308811Y39343D01*
X308915Y39337D01*
X309019Y39335D01*
X304525Y44520D02*
X304471Y44609D01*
X304413Y44695D01*
X304352Y44780D01*
X304288Y44862D01*
X304221Y44942D01*
X304151Y45019D01*
X304078Y45093D01*
X304002Y45165D01*
X303924Y45234D01*
X303844Y45300D01*
X303761Y45363D01*
X303676Y45423D01*
X303588Y45480D01*
X303499Y45533D01*
X303407Y45583D01*
X303314Y45629D01*
X303219Y45673D01*
X303123Y45712D01*
X303025Y45748D01*
X302926Y45780D01*
X302826Y45809D01*
X302725Y45834D01*
X302623Y45855D01*
X302520Y45872D01*
X302417Y45886D01*
X302313Y45895D01*
X302209Y45901D01*
X302105Y45903D01*
X304525Y44521D02*
X306599Y40718D01*
X311785Y51896D02*
X299339Y51896D01*
X311785Y51896D02*
X311785Y55353D01*
X311783Y55470D01*
X311777Y55586D01*
X311767Y55703D01*
X311753Y55819D01*
X311736Y55934D01*
X311714Y56049D01*
X311689Y56163D01*
X311660Y56276D01*
X311626Y56388D01*
X311590Y56499D01*
X311549Y56608D01*
X311505Y56716D01*
X311457Y56823D01*
X311406Y56928D01*
X311351Y57031D01*
X311292Y57132D01*
X311230Y57231D01*
X311165Y57328D01*
X311097Y57423D01*
X311026Y57515D01*
X310951Y57605D01*
X310873Y57692D01*
X310793Y57777D01*
X310710Y57859D01*
X310624Y57938D01*
X310535Y58014D01*
X310444Y58087D01*
X310351Y58157D01*
X310255Y58223D01*
X310157Y58287D01*
X310057Y58347D01*
X309954Y58404D01*
X309850Y58457D01*
X309745Y58506D01*
X309637Y58552D01*
X309529Y58595D01*
X309418Y58634D01*
X309307Y58668D01*
X309195Y58700D01*
X309081Y58727D01*
X308967Y58751D01*
X308851Y58770D01*
X308736Y58786D01*
X308620Y58798D01*
X308503Y58806D01*
X308386Y58810D01*
X308270Y58810D01*
X308153Y58806D01*
X308036Y58798D01*
X307920Y58786D01*
X307805Y58770D01*
X307689Y58751D01*
X307575Y58727D01*
X307461Y58700D01*
X307349Y58668D01*
X307238Y58634D01*
X307127Y58595D01*
X307019Y58552D01*
X306911Y58506D01*
X306806Y58457D01*
X306702Y58404D01*
X306600Y58347D01*
X306499Y58287D01*
X306401Y58223D01*
X306305Y58157D01*
X306212Y58087D01*
X306121Y58014D01*
X306032Y57938D01*
X305946Y57859D01*
X305863Y57777D01*
X305783Y57692D01*
X305705Y57605D01*
X305630Y57515D01*
X305559Y57423D01*
X305491Y57328D01*
X305426Y57231D01*
X305364Y57132D01*
X305305Y57031D01*
X305250Y56928D01*
X305199Y56823D01*
X305151Y56716D01*
X305107Y56608D01*
X305066Y56499D01*
X305030Y56388D01*
X304996Y56276D01*
X304967Y56163D01*
X304942Y56049D01*
X304920Y55934D01*
X304903Y55819D01*
X304889Y55703D01*
X304879Y55586D01*
X304873Y55470D01*
X304871Y55353D01*
X304871Y51896D01*
X304871Y56045D02*
X299339Y58811D01*
X299339Y67310D02*
X299339Y70076D01*
X299339Y67310D02*
X299341Y67207D01*
X299347Y67103D01*
X299356Y67000D01*
X299370Y66898D01*
X299387Y66796D01*
X299408Y66695D01*
X299433Y66594D01*
X299462Y66495D01*
X299494Y66396D01*
X299530Y66299D01*
X299570Y66204D01*
X299613Y66110D01*
X299660Y66018D01*
X299710Y65927D01*
X299763Y65838D01*
X299820Y65752D01*
X299879Y65667D01*
X299942Y65585D01*
X300008Y65506D01*
X300077Y65429D01*
X300149Y65354D01*
X300224Y65282D01*
X300301Y65213D01*
X300380Y65147D01*
X300462Y65084D01*
X300547Y65025D01*
X300633Y64968D01*
X300722Y64915D01*
X300813Y64865D01*
X300905Y64818D01*
X300999Y64775D01*
X301094Y64735D01*
X301191Y64699D01*
X301290Y64667D01*
X301389Y64638D01*
X301490Y64613D01*
X301591Y64592D01*
X301693Y64575D01*
X301795Y64561D01*
X301898Y64552D01*
X302002Y64546D01*
X302105Y64544D01*
X302105Y64545D02*
X309019Y64545D01*
X309019Y64544D02*
X309122Y64546D01*
X309226Y64552D01*
X309329Y64561D01*
X309431Y64575D01*
X309533Y64592D01*
X309634Y64613D01*
X309735Y64638D01*
X309834Y64667D01*
X309933Y64699D01*
X310030Y64735D01*
X310125Y64775D01*
X310219Y64818D01*
X310311Y64865D01*
X310402Y64915D01*
X310491Y64968D01*
X310577Y65025D01*
X310661Y65084D01*
X310744Y65147D01*
X310823Y65213D01*
X310900Y65282D01*
X310975Y65354D01*
X311047Y65429D01*
X311116Y65506D01*
X311182Y65585D01*
X311245Y65667D01*
X311304Y65752D01*
X311361Y65838D01*
X311414Y65927D01*
X311464Y66018D01*
X311511Y66110D01*
X311554Y66204D01*
X311594Y66299D01*
X311630Y66396D01*
X311662Y66495D01*
X311691Y66594D01*
X311716Y66694D01*
X311737Y66796D01*
X311754Y66898D01*
X311768Y67000D01*
X311777Y67103D01*
X311783Y67207D01*
X311785Y67310D01*
X311785Y70076D01*
X311785Y75719D02*
X299339Y75719D01*
X299339Y81251D01*
X299339Y87025D02*
X311785Y87025D01*
X311785Y93939D02*
X304179Y87025D01*
X306945Y89790D02*
X299339Y93939D01*
X276705Y45904D02*
X276602Y45902D01*
X276498Y45896D01*
X276395Y45887D01*
X276293Y45873D01*
X276191Y45856D01*
X276090Y45835D01*
X275989Y45810D01*
X275890Y45781D01*
X275791Y45749D01*
X275694Y45713D01*
X275599Y45673D01*
X275505Y45630D01*
X275413Y45583D01*
X275322Y45533D01*
X275233Y45480D01*
X275147Y45423D01*
X275062Y45364D01*
X274980Y45301D01*
X274901Y45235D01*
X274824Y45166D01*
X274749Y45094D01*
X274677Y45019D01*
X274608Y44942D01*
X274542Y44863D01*
X274479Y44781D01*
X274420Y44696D01*
X274363Y44610D01*
X274310Y44521D01*
X274260Y44430D01*
X274213Y44338D01*
X274170Y44244D01*
X274130Y44149D01*
X274094Y44052D01*
X274062Y43953D01*
X274033Y43854D01*
X274008Y43753D01*
X273987Y43652D01*
X273970Y43550D01*
X273956Y43448D01*
X273947Y43345D01*
X273941Y43241D01*
X273939Y43138D01*
X273941Y42989D01*
X273947Y42840D01*
X273956Y42692D01*
X273969Y42544D01*
X273986Y42396D01*
X274007Y42249D01*
X274032Y42102D01*
X274060Y41956D01*
X274092Y41810D01*
X274128Y41666D01*
X274167Y41522D01*
X274210Y41380D01*
X274256Y41238D01*
X274307Y41098D01*
X274360Y40960D01*
X274418Y40822D01*
X274478Y40686D01*
X274542Y40552D01*
X274610Y40419D01*
X274681Y40289D01*
X274755Y40160D01*
X274833Y40033D01*
X274913Y39908D01*
X274997Y39785D01*
X275084Y39664D01*
X275174Y39545D01*
X275267Y39429D01*
X275363Y39315D01*
X275462Y39204D01*
X275563Y39095D01*
X275668Y38989D01*
X283619Y39334D02*
X283722Y39336D01*
X283826Y39342D01*
X283929Y39351D01*
X284031Y39365D01*
X284133Y39382D01*
X284234Y39403D01*
X284335Y39428D01*
X284434Y39457D01*
X284533Y39489D01*
X284630Y39525D01*
X284725Y39565D01*
X284819Y39608D01*
X284911Y39655D01*
X285002Y39705D01*
X285091Y39758D01*
X285177Y39815D01*
X285262Y39874D01*
X285344Y39937D01*
X285423Y40003D01*
X285500Y40072D01*
X285575Y40144D01*
X285647Y40219D01*
X285716Y40296D01*
X285782Y40375D01*
X285845Y40458D01*
X285904Y40542D01*
X285961Y40628D01*
X286014Y40717D01*
X286064Y40808D01*
X286111Y40900D01*
X286154Y40994D01*
X286194Y41089D01*
X286230Y41186D01*
X286262Y41285D01*
X286291Y41384D01*
X286316Y41485D01*
X286337Y41586D01*
X286354Y41688D01*
X286368Y41790D01*
X286377Y41893D01*
X286383Y41997D01*
X286385Y42100D01*
X286383Y42239D01*
X286378Y42378D01*
X286368Y42517D01*
X286355Y42655D01*
X286338Y42793D01*
X286318Y42931D01*
X286294Y43068D01*
X286266Y43204D01*
X286235Y43339D01*
X286200Y43474D01*
X286161Y43608D01*
X286119Y43740D01*
X286073Y43871D01*
X286024Y44001D01*
X285971Y44130D01*
X285915Y44257D01*
X285856Y44383D01*
X285793Y44507D01*
X285726Y44629D01*
X285657Y44750D01*
X285584Y44868D01*
X285509Y44985D01*
X285430Y45099D01*
X285348Y45212D01*
X281199Y40718D02*
X281253Y40629D01*
X281311Y40542D01*
X281372Y40458D01*
X281436Y40376D01*
X281503Y40296D01*
X281573Y40219D01*
X281646Y40144D01*
X281722Y40073D01*
X281800Y40004D01*
X281880Y39938D01*
X281963Y39875D01*
X282048Y39815D01*
X282136Y39758D01*
X282225Y39705D01*
X282317Y39655D01*
X282410Y39609D01*
X282505Y39565D01*
X282601Y39526D01*
X282699Y39490D01*
X282798Y39458D01*
X282898Y39429D01*
X282999Y39404D01*
X283101Y39383D01*
X283204Y39366D01*
X283307Y39352D01*
X283411Y39343D01*
X283515Y39337D01*
X283619Y39335D01*
X279125Y44520D02*
X279071Y44609D01*
X279013Y44695D01*
X278952Y44780D01*
X278888Y44862D01*
X278821Y44942D01*
X278751Y45019D01*
X278678Y45093D01*
X278602Y45165D01*
X278524Y45234D01*
X278444Y45300D01*
X278361Y45363D01*
X278276Y45423D01*
X278188Y45480D01*
X278099Y45533D01*
X278007Y45583D01*
X277914Y45629D01*
X277819Y45673D01*
X277723Y45712D01*
X277625Y45748D01*
X277526Y45780D01*
X277426Y45809D01*
X277325Y45834D01*
X277223Y45855D01*
X277120Y45872D01*
X277017Y45886D01*
X276913Y45895D01*
X276809Y45901D01*
X276705Y45903D01*
X279125Y44521D02*
X281199Y40718D01*
X286385Y51791D02*
X273939Y51791D01*
X286385Y51791D02*
X286385Y55248D01*
X286383Y55364D01*
X286377Y55479D01*
X286368Y55594D01*
X286354Y55709D01*
X286337Y55823D01*
X286316Y55937D01*
X286291Y56049D01*
X286262Y56161D01*
X286230Y56272D01*
X286194Y56382D01*
X286154Y56490D01*
X286111Y56598D01*
X286064Y56703D01*
X286013Y56807D01*
X285960Y56909D01*
X285902Y57010D01*
X285842Y57108D01*
X285778Y57204D01*
X285711Y57299D01*
X285641Y57390D01*
X285568Y57480D01*
X285492Y57567D01*
X285413Y57651D01*
X285331Y57733D01*
X285247Y57812D01*
X285160Y57888D01*
X285070Y57961D01*
X284979Y58031D01*
X284884Y58098D01*
X284788Y58162D01*
X284690Y58222D01*
X284589Y58280D01*
X284487Y58333D01*
X284383Y58384D01*
X284278Y58431D01*
X284170Y58474D01*
X284062Y58514D01*
X283952Y58550D01*
X283841Y58582D01*
X283729Y58611D01*
X283617Y58636D01*
X283503Y58657D01*
X283389Y58674D01*
X283274Y58688D01*
X283159Y58697D01*
X283043Y58703D01*
X282928Y58705D01*
X277396Y58705D01*
X277280Y58703D01*
X277165Y58697D01*
X277050Y58688D01*
X276935Y58674D01*
X276821Y58657D01*
X276707Y58636D01*
X276595Y58611D01*
X276483Y58582D01*
X276372Y58550D01*
X276262Y58514D01*
X276154Y58474D01*
X276046Y58431D01*
X275941Y58384D01*
X275837Y58333D01*
X275735Y58280D01*
X275634Y58222D01*
X275536Y58162D01*
X275440Y58098D01*
X275345Y58031D01*
X275254Y57961D01*
X275164Y57888D01*
X275077Y57812D01*
X274993Y57733D01*
X274911Y57651D01*
X274832Y57567D01*
X274756Y57480D01*
X274683Y57390D01*
X274613Y57299D01*
X274546Y57204D01*
X274482Y57108D01*
X274422Y57010D01*
X274364Y56909D01*
X274311Y56807D01*
X274260Y56703D01*
X274213Y56598D01*
X274170Y56490D01*
X274130Y56382D01*
X274094Y56272D01*
X274062Y56161D01*
X274033Y56049D01*
X274008Y55937D01*
X273987Y55823D01*
X273970Y55709D01*
X273956Y55594D01*
X273947Y55479D01*
X273941Y55364D01*
X273939Y55248D01*
X273939Y51791D01*
X273939Y65916D02*
X286385Y65916D01*
X273939Y64533D02*
X273939Y67299D01*
X286385Y67299D02*
X286385Y64533D01*
X251305Y45904D02*
X251202Y45902D01*
X251098Y45896D01*
X250995Y45887D01*
X250893Y45873D01*
X250791Y45856D01*
X250690Y45835D01*
X250589Y45810D01*
X250490Y45781D01*
X250391Y45749D01*
X250294Y45713D01*
X250199Y45673D01*
X250105Y45630D01*
X250013Y45583D01*
X249922Y45533D01*
X249833Y45480D01*
X249747Y45423D01*
X249662Y45364D01*
X249580Y45301D01*
X249501Y45235D01*
X249424Y45166D01*
X249349Y45094D01*
X249277Y45019D01*
X249208Y44942D01*
X249142Y44863D01*
X249079Y44781D01*
X249020Y44696D01*
X248963Y44610D01*
X248910Y44521D01*
X248860Y44430D01*
X248813Y44338D01*
X248770Y44244D01*
X248730Y44149D01*
X248694Y44052D01*
X248662Y43953D01*
X248633Y43854D01*
X248608Y43753D01*
X248587Y43652D01*
X248570Y43550D01*
X248556Y43448D01*
X248547Y43345D01*
X248541Y43241D01*
X248539Y43138D01*
X248541Y42989D01*
X248547Y42840D01*
X248556Y42692D01*
X248569Y42544D01*
X248586Y42396D01*
X248607Y42249D01*
X248632Y42102D01*
X248660Y41956D01*
X248692Y41810D01*
X248728Y41666D01*
X248767Y41522D01*
X248810Y41380D01*
X248856Y41238D01*
X248907Y41098D01*
X248960Y40960D01*
X249018Y40822D01*
X249078Y40686D01*
X249142Y40552D01*
X249210Y40419D01*
X249281Y40289D01*
X249355Y40160D01*
X249433Y40033D01*
X249513Y39908D01*
X249597Y39785D01*
X249684Y39664D01*
X249774Y39545D01*
X249867Y39429D01*
X249963Y39315D01*
X250062Y39204D01*
X250163Y39095D01*
X250268Y38989D01*
X258219Y39334D02*
X258322Y39336D01*
X258426Y39342D01*
X258529Y39351D01*
X258631Y39365D01*
X258733Y39382D01*
X258834Y39403D01*
X258935Y39428D01*
X259034Y39457D01*
X259133Y39489D01*
X259230Y39525D01*
X259325Y39565D01*
X259419Y39608D01*
X259511Y39655D01*
X259602Y39705D01*
X259691Y39758D01*
X259777Y39815D01*
X259862Y39874D01*
X259944Y39937D01*
X260023Y40003D01*
X260100Y40072D01*
X260175Y40144D01*
X260247Y40219D01*
X260316Y40296D01*
X260382Y40375D01*
X260445Y40458D01*
X260504Y40542D01*
X260561Y40628D01*
X260614Y40717D01*
X260664Y40808D01*
X260711Y40900D01*
X260754Y40994D01*
X260794Y41089D01*
X260830Y41186D01*
X260862Y41285D01*
X260891Y41384D01*
X260916Y41485D01*
X260937Y41586D01*
X260954Y41688D01*
X260968Y41790D01*
X260977Y41893D01*
X260983Y41997D01*
X260985Y42100D01*
X260983Y42239D01*
X260978Y42378D01*
X260968Y42517D01*
X260955Y42655D01*
X260938Y42793D01*
X260918Y42931D01*
X260894Y43068D01*
X260866Y43204D01*
X260835Y43339D01*
X260800Y43474D01*
X260761Y43608D01*
X260719Y43740D01*
X260673Y43871D01*
X260624Y44001D01*
X260571Y44130D01*
X260515Y44257D01*
X260456Y44383D01*
X260393Y44507D01*
X260326Y44629D01*
X260257Y44750D01*
X260184Y44868D01*
X260109Y44985D01*
X260030Y45099D01*
X259948Y45212D01*
X255799Y40718D02*
X255853Y40629D01*
X255911Y40542D01*
X255972Y40458D01*
X256036Y40376D01*
X256103Y40296D01*
X256173Y40219D01*
X256246Y40144D01*
X256322Y40073D01*
X256400Y40004D01*
X256480Y39938D01*
X256563Y39875D01*
X256648Y39815D01*
X256736Y39758D01*
X256825Y39705D01*
X256917Y39655D01*
X257010Y39609D01*
X257105Y39565D01*
X257201Y39526D01*
X257299Y39490D01*
X257398Y39458D01*
X257498Y39429D01*
X257599Y39404D01*
X257701Y39383D01*
X257804Y39366D01*
X257907Y39352D01*
X258011Y39343D01*
X258115Y39337D01*
X258219Y39335D01*
X253725Y44520D02*
X253671Y44609D01*
X253613Y44695D01*
X253552Y44780D01*
X253488Y44862D01*
X253421Y44942D01*
X253351Y45019D01*
X253278Y45093D01*
X253202Y45165D01*
X253124Y45234D01*
X253044Y45300D01*
X252961Y45363D01*
X252876Y45423D01*
X252788Y45480D01*
X252699Y45533D01*
X252607Y45583D01*
X252514Y45629D01*
X252419Y45673D01*
X252323Y45712D01*
X252225Y45748D01*
X252126Y45780D01*
X252026Y45809D01*
X251925Y45834D01*
X251823Y45855D01*
X251720Y45872D01*
X251617Y45886D01*
X251513Y45895D01*
X251409Y45901D01*
X251305Y45903D01*
X253725Y44521D02*
X255799Y40718D01*
X248539Y54082D02*
X248539Y56848D01*
X248539Y54082D02*
X248541Y53979D01*
X248547Y53875D01*
X248556Y53772D01*
X248570Y53670D01*
X248587Y53568D01*
X248608Y53467D01*
X248633Y53366D01*
X248662Y53267D01*
X248694Y53168D01*
X248730Y53071D01*
X248770Y52976D01*
X248813Y52882D01*
X248860Y52790D01*
X248910Y52699D01*
X248963Y52610D01*
X249020Y52524D01*
X249079Y52439D01*
X249142Y52357D01*
X249208Y52278D01*
X249277Y52201D01*
X249349Y52126D01*
X249424Y52054D01*
X249501Y51985D01*
X249580Y51919D01*
X249662Y51856D01*
X249747Y51797D01*
X249833Y51740D01*
X249922Y51687D01*
X250013Y51637D01*
X250105Y51590D01*
X250199Y51547D01*
X250294Y51507D01*
X250391Y51471D01*
X250490Y51439D01*
X250589Y51410D01*
X250690Y51385D01*
X250791Y51364D01*
X250893Y51347D01*
X250995Y51333D01*
X251098Y51324D01*
X251202Y51318D01*
X251305Y51316D01*
X258219Y51316D01*
X258322Y51318D01*
X258426Y51324D01*
X258529Y51333D01*
X258631Y51347D01*
X258733Y51364D01*
X258834Y51385D01*
X258935Y51410D01*
X259034Y51439D01*
X259133Y51471D01*
X259230Y51507D01*
X259325Y51547D01*
X259419Y51590D01*
X259511Y51637D01*
X259602Y51687D01*
X259691Y51740D01*
X259777Y51797D01*
X259861Y51856D01*
X259944Y51919D01*
X260023Y51985D01*
X260100Y52054D01*
X260175Y52126D01*
X260247Y52201D01*
X260316Y52278D01*
X260382Y52357D01*
X260445Y52439D01*
X260504Y52524D01*
X260561Y52610D01*
X260614Y52699D01*
X260664Y52790D01*
X260711Y52882D01*
X260754Y52976D01*
X260794Y53071D01*
X260830Y53168D01*
X260862Y53267D01*
X260891Y53366D01*
X260916Y53466D01*
X260937Y53568D01*
X260954Y53670D01*
X260968Y53772D01*
X260977Y53875D01*
X260983Y53979D01*
X260985Y54082D01*
X260985Y56848D01*
X260985Y62702D02*
X248539Y62702D01*
X253379Y62702D02*
X260985Y69616D01*
X256145Y65467D02*
X248539Y69616D01*
X239141Y57081D02*
X239141Y38100D01*
X223139Y41755D02*
X223139Y44521D01*
X223139Y41755D02*
X223141Y41652D01*
X223147Y41548D01*
X223156Y41445D01*
X223170Y41343D01*
X223187Y41241D01*
X223208Y41140D01*
X223233Y41039D01*
X223262Y40940D01*
X223294Y40841D01*
X223330Y40744D01*
X223370Y40649D01*
X223413Y40555D01*
X223460Y40463D01*
X223510Y40372D01*
X223563Y40283D01*
X223620Y40197D01*
X223679Y40112D01*
X223742Y40030D01*
X223808Y39951D01*
X223877Y39874D01*
X223949Y39799D01*
X224024Y39727D01*
X224101Y39658D01*
X224180Y39592D01*
X224262Y39529D01*
X224347Y39470D01*
X224433Y39413D01*
X224522Y39360D01*
X224613Y39310D01*
X224705Y39263D01*
X224799Y39220D01*
X224894Y39180D01*
X224991Y39144D01*
X225090Y39112D01*
X225189Y39083D01*
X225290Y39058D01*
X225391Y39037D01*
X225493Y39020D01*
X225595Y39006D01*
X225698Y38997D01*
X225802Y38991D01*
X225905Y38989D01*
X232819Y38989D01*
X232922Y38991D01*
X233026Y38997D01*
X233129Y39006D01*
X233231Y39020D01*
X233333Y39037D01*
X233434Y39058D01*
X233535Y39083D01*
X233634Y39112D01*
X233733Y39144D01*
X233830Y39180D01*
X233925Y39220D01*
X234019Y39263D01*
X234111Y39310D01*
X234202Y39360D01*
X234291Y39413D01*
X234377Y39470D01*
X234461Y39529D01*
X234544Y39592D01*
X234623Y39658D01*
X234700Y39727D01*
X234775Y39799D01*
X234847Y39874D01*
X234916Y39951D01*
X234982Y40030D01*
X235045Y40112D01*
X235104Y40197D01*
X235161Y40283D01*
X235214Y40372D01*
X235264Y40463D01*
X235311Y40555D01*
X235354Y40649D01*
X235394Y40744D01*
X235430Y40841D01*
X235462Y40940D01*
X235491Y41039D01*
X235516Y41139D01*
X235537Y41241D01*
X235554Y41343D01*
X235568Y41445D01*
X235577Y41548D01*
X235583Y41652D01*
X235585Y41755D01*
X235585Y44521D01*
X225905Y56193D02*
X225802Y56191D01*
X225698Y56185D01*
X225595Y56176D01*
X225493Y56162D01*
X225391Y56145D01*
X225290Y56124D01*
X225189Y56099D01*
X225090Y56070D01*
X224991Y56038D01*
X224894Y56002D01*
X224799Y55962D01*
X224705Y55919D01*
X224613Y55872D01*
X224522Y55822D01*
X224433Y55769D01*
X224347Y55712D01*
X224262Y55653D01*
X224180Y55590D01*
X224101Y55524D01*
X224024Y55455D01*
X223949Y55383D01*
X223877Y55308D01*
X223808Y55231D01*
X223742Y55152D01*
X223679Y55070D01*
X223620Y54985D01*
X223563Y54899D01*
X223510Y54810D01*
X223460Y54719D01*
X223413Y54627D01*
X223370Y54533D01*
X223330Y54438D01*
X223294Y54341D01*
X223262Y54242D01*
X223233Y54143D01*
X223208Y54042D01*
X223187Y53941D01*
X223170Y53839D01*
X223156Y53737D01*
X223147Y53634D01*
X223141Y53530D01*
X223139Y53427D01*
X223141Y53278D01*
X223147Y53129D01*
X223156Y52981D01*
X223169Y52833D01*
X223186Y52685D01*
X223207Y52538D01*
X223232Y52391D01*
X223260Y52245D01*
X223292Y52099D01*
X223328Y51955D01*
X223367Y51811D01*
X223410Y51669D01*
X223456Y51527D01*
X223507Y51387D01*
X223560Y51249D01*
X223618Y51111D01*
X223678Y50975D01*
X223742Y50841D01*
X223810Y50708D01*
X223881Y50578D01*
X223955Y50449D01*
X224033Y50322D01*
X224113Y50197D01*
X224197Y50074D01*
X224284Y49953D01*
X224374Y49834D01*
X224467Y49718D01*
X224563Y49604D01*
X224662Y49493D01*
X224763Y49384D01*
X224868Y49278D01*
X232819Y49623D02*
X232922Y49625D01*
X233026Y49631D01*
X233129Y49640D01*
X233231Y49654D01*
X233333Y49671D01*
X233434Y49692D01*
X233535Y49717D01*
X233634Y49746D01*
X233733Y49778D01*
X233830Y49814D01*
X233925Y49854D01*
X234019Y49897D01*
X234111Y49944D01*
X234202Y49994D01*
X234291Y50047D01*
X234377Y50104D01*
X234462Y50163D01*
X234544Y50226D01*
X234623Y50292D01*
X234700Y50361D01*
X234775Y50433D01*
X234847Y50508D01*
X234916Y50585D01*
X234982Y50664D01*
X235045Y50747D01*
X235104Y50831D01*
X235161Y50917D01*
X235214Y51006D01*
X235264Y51097D01*
X235311Y51189D01*
X235354Y51283D01*
X235394Y51378D01*
X235430Y51475D01*
X235462Y51574D01*
X235491Y51673D01*
X235516Y51774D01*
X235537Y51875D01*
X235554Y51977D01*
X235568Y52079D01*
X235577Y52182D01*
X235583Y52286D01*
X235585Y52389D01*
X235583Y52528D01*
X235578Y52667D01*
X235568Y52806D01*
X235555Y52944D01*
X235538Y53082D01*
X235518Y53220D01*
X235494Y53357D01*
X235466Y53493D01*
X235435Y53628D01*
X235400Y53763D01*
X235361Y53897D01*
X235319Y54029D01*
X235273Y54160D01*
X235224Y54290D01*
X235171Y54419D01*
X235115Y54546D01*
X235056Y54672D01*
X234993Y54796D01*
X234926Y54918D01*
X234857Y55039D01*
X234784Y55157D01*
X234709Y55274D01*
X234630Y55388D01*
X234548Y55501D01*
X230399Y51007D02*
X230453Y50918D01*
X230511Y50831D01*
X230572Y50747D01*
X230636Y50665D01*
X230703Y50585D01*
X230773Y50508D01*
X230846Y50433D01*
X230922Y50362D01*
X231000Y50293D01*
X231080Y50227D01*
X231163Y50164D01*
X231248Y50104D01*
X231336Y50047D01*
X231425Y49994D01*
X231517Y49944D01*
X231610Y49898D01*
X231705Y49854D01*
X231801Y49815D01*
X231899Y49779D01*
X231998Y49747D01*
X232098Y49718D01*
X232199Y49693D01*
X232301Y49672D01*
X232404Y49655D01*
X232507Y49641D01*
X232611Y49632D01*
X232715Y49626D01*
X232819Y49624D01*
X228325Y54809D02*
X228271Y54898D01*
X228213Y54984D01*
X228152Y55069D01*
X228088Y55151D01*
X228021Y55231D01*
X227951Y55308D01*
X227878Y55382D01*
X227802Y55454D01*
X227724Y55523D01*
X227644Y55589D01*
X227561Y55652D01*
X227476Y55712D01*
X227388Y55769D01*
X227299Y55822D01*
X227207Y55872D01*
X227114Y55918D01*
X227019Y55962D01*
X226923Y56001D01*
X226825Y56037D01*
X226726Y56069D01*
X226626Y56098D01*
X226525Y56123D01*
X226423Y56144D01*
X226320Y56161D01*
X226217Y56175D01*
X226113Y56184D01*
X226009Y56190D01*
X225905Y56192D01*
X228325Y54809D02*
X230399Y51007D01*
X202579Y47286D02*
X202579Y38989D01*
X198430Y43138D02*
X206728Y43138D01*
X197739Y53335D02*
X197739Y56793D01*
X197741Y56910D01*
X197747Y57026D01*
X197757Y57143D01*
X197771Y57259D01*
X197788Y57374D01*
X197810Y57489D01*
X197835Y57603D01*
X197864Y57716D01*
X197898Y57828D01*
X197934Y57939D01*
X197975Y58048D01*
X198019Y58156D01*
X198067Y58263D01*
X198118Y58368D01*
X198173Y58471D01*
X198232Y58572D01*
X198294Y58671D01*
X198359Y58768D01*
X198427Y58863D01*
X198498Y58955D01*
X198573Y59045D01*
X198651Y59132D01*
X198731Y59217D01*
X198814Y59299D01*
X198900Y59378D01*
X198989Y59454D01*
X199080Y59527D01*
X199173Y59597D01*
X199269Y59663D01*
X199367Y59727D01*
X199468Y59787D01*
X199570Y59844D01*
X199674Y59897D01*
X199779Y59946D01*
X199887Y59992D01*
X199995Y60035D01*
X200106Y60074D01*
X200217Y60108D01*
X200329Y60140D01*
X200443Y60167D01*
X200557Y60191D01*
X200673Y60210D01*
X200788Y60226D01*
X200904Y60238D01*
X201021Y60246D01*
X201138Y60250D01*
X201254Y60250D01*
X201371Y60246D01*
X201488Y60238D01*
X201604Y60226D01*
X201719Y60210D01*
X201835Y60191D01*
X201949Y60167D01*
X202063Y60140D01*
X202175Y60108D01*
X202286Y60074D01*
X202397Y60035D01*
X202505Y59992D01*
X202613Y59946D01*
X202718Y59897D01*
X202822Y59844D01*
X202925Y59787D01*
X203025Y59727D01*
X203123Y59663D01*
X203219Y59597D01*
X203312Y59527D01*
X203403Y59454D01*
X203492Y59378D01*
X203578Y59299D01*
X203661Y59217D01*
X203741Y59132D01*
X203819Y59045D01*
X203894Y58955D01*
X203965Y58863D01*
X204033Y58768D01*
X204098Y58671D01*
X204160Y58572D01*
X204219Y58471D01*
X204274Y58368D01*
X204325Y58263D01*
X204373Y58156D01*
X204417Y58048D01*
X204458Y57939D01*
X204494Y57828D01*
X204528Y57716D01*
X204557Y57603D01*
X204582Y57489D01*
X204604Y57374D01*
X204621Y57259D01*
X204635Y57143D01*
X204645Y57026D01*
X204651Y56910D01*
X204653Y56793D01*
X210185Y57484D02*
X210185Y53335D01*
X210185Y57484D02*
X210183Y57587D01*
X210177Y57691D01*
X210168Y57794D01*
X210154Y57896D01*
X210137Y57998D01*
X210116Y58099D01*
X210091Y58200D01*
X210062Y58299D01*
X210030Y58398D01*
X209994Y58495D01*
X209954Y58590D01*
X209911Y58684D01*
X209864Y58776D01*
X209814Y58867D01*
X209761Y58956D01*
X209704Y59042D01*
X209645Y59127D01*
X209582Y59209D01*
X209516Y59288D01*
X209447Y59365D01*
X209375Y59440D01*
X209300Y59512D01*
X209223Y59581D01*
X209144Y59647D01*
X209062Y59710D01*
X208977Y59769D01*
X208891Y59826D01*
X208802Y59879D01*
X208711Y59929D01*
X208619Y59976D01*
X208525Y60019D01*
X208430Y60059D01*
X208333Y60095D01*
X208234Y60127D01*
X208135Y60156D01*
X208034Y60181D01*
X207933Y60202D01*
X207831Y60219D01*
X207729Y60233D01*
X207626Y60242D01*
X207522Y60248D01*
X207419Y60250D01*
X207316Y60248D01*
X207212Y60242D01*
X207109Y60233D01*
X207007Y60219D01*
X206905Y60202D01*
X206804Y60181D01*
X206703Y60156D01*
X206604Y60127D01*
X206505Y60095D01*
X206408Y60059D01*
X206313Y60019D01*
X206219Y59976D01*
X206127Y59929D01*
X206036Y59879D01*
X205947Y59826D01*
X205861Y59769D01*
X205776Y59710D01*
X205694Y59647D01*
X205615Y59581D01*
X205538Y59512D01*
X205463Y59440D01*
X205391Y59365D01*
X205322Y59288D01*
X205256Y59209D01*
X205193Y59127D01*
X205134Y59042D01*
X205077Y58956D01*
X205024Y58867D01*
X204974Y58776D01*
X204927Y58684D01*
X204884Y58590D01*
X204844Y58495D01*
X204808Y58398D01*
X204776Y58299D01*
X204747Y58200D01*
X204722Y58099D01*
X204701Y57998D01*
X204684Y57896D01*
X204670Y57794D01*
X204661Y57691D01*
X204655Y57587D01*
X204653Y57484D01*
X204653Y54718D01*
X198430Y65408D02*
X197739Y65408D01*
X198430Y65408D02*
X198430Y66099D01*
X197739Y66099D01*
X197739Y65408D01*
X197739Y71258D02*
X197739Y74715D01*
X197741Y74832D01*
X197747Y74948D01*
X197757Y75065D01*
X197771Y75181D01*
X197788Y75296D01*
X197810Y75411D01*
X197835Y75525D01*
X197864Y75638D01*
X197898Y75750D01*
X197934Y75861D01*
X197975Y75970D01*
X198019Y76078D01*
X198067Y76185D01*
X198118Y76290D01*
X198173Y76393D01*
X198232Y76494D01*
X198294Y76593D01*
X198359Y76690D01*
X198427Y76785D01*
X198498Y76877D01*
X198573Y76967D01*
X198651Y77054D01*
X198731Y77139D01*
X198814Y77221D01*
X198900Y77300D01*
X198989Y77376D01*
X199080Y77449D01*
X199173Y77519D01*
X199269Y77585D01*
X199367Y77649D01*
X199468Y77709D01*
X199570Y77766D01*
X199674Y77819D01*
X199779Y77868D01*
X199887Y77914D01*
X199995Y77957D01*
X200106Y77996D01*
X200217Y78030D01*
X200329Y78062D01*
X200443Y78089D01*
X200557Y78113D01*
X200673Y78132D01*
X200788Y78148D01*
X200904Y78160D01*
X201021Y78168D01*
X201138Y78172D01*
X201254Y78172D01*
X201371Y78168D01*
X201488Y78160D01*
X201604Y78148D01*
X201719Y78132D01*
X201835Y78113D01*
X201949Y78089D01*
X202063Y78062D01*
X202175Y78030D01*
X202286Y77996D01*
X202397Y77957D01*
X202505Y77914D01*
X202613Y77868D01*
X202718Y77819D01*
X202822Y77766D01*
X202925Y77709D01*
X203025Y77649D01*
X203123Y77585D01*
X203219Y77519D01*
X203312Y77449D01*
X203403Y77376D01*
X203492Y77300D01*
X203578Y77221D01*
X203661Y77139D01*
X203741Y77054D01*
X203819Y76967D01*
X203894Y76877D01*
X203965Y76785D01*
X204033Y76690D01*
X204098Y76593D01*
X204160Y76494D01*
X204219Y76393D01*
X204274Y76290D01*
X204325Y76185D01*
X204373Y76078D01*
X204417Y75970D01*
X204458Y75861D01*
X204494Y75750D01*
X204528Y75638D01*
X204557Y75525D01*
X204582Y75411D01*
X204604Y75296D01*
X204621Y75181D01*
X204635Y75065D01*
X204645Y74948D01*
X204651Y74832D01*
X204653Y74715D01*
X210185Y75406D02*
X210185Y71258D01*
X210185Y75406D02*
X210183Y75509D01*
X210177Y75613D01*
X210168Y75716D01*
X210154Y75818D01*
X210137Y75920D01*
X210116Y76021D01*
X210091Y76122D01*
X210062Y76221D01*
X210030Y76320D01*
X209994Y76417D01*
X209954Y76512D01*
X209911Y76606D01*
X209864Y76698D01*
X209814Y76789D01*
X209761Y76878D01*
X209704Y76964D01*
X209645Y77049D01*
X209582Y77131D01*
X209516Y77210D01*
X209447Y77287D01*
X209375Y77362D01*
X209300Y77434D01*
X209223Y77503D01*
X209144Y77569D01*
X209062Y77632D01*
X208977Y77691D01*
X208891Y77748D01*
X208802Y77801D01*
X208711Y77851D01*
X208619Y77898D01*
X208525Y77941D01*
X208430Y77981D01*
X208333Y78017D01*
X208234Y78049D01*
X208135Y78078D01*
X208034Y78103D01*
X207933Y78124D01*
X207831Y78141D01*
X207729Y78155D01*
X207626Y78164D01*
X207522Y78170D01*
X207419Y78172D01*
X207316Y78170D01*
X207212Y78164D01*
X207109Y78155D01*
X207007Y78141D01*
X206905Y78124D01*
X206804Y78103D01*
X206703Y78078D01*
X206604Y78049D01*
X206505Y78017D01*
X206408Y77981D01*
X206313Y77941D01*
X206219Y77898D01*
X206127Y77851D01*
X206036Y77801D01*
X205947Y77748D01*
X205861Y77691D01*
X205776Y77632D01*
X205694Y77569D01*
X205615Y77503D01*
X205538Y77434D01*
X205463Y77362D01*
X205391Y77287D01*
X205322Y77210D01*
X205256Y77131D01*
X205193Y77049D01*
X205134Y76964D01*
X205077Y76878D01*
X205024Y76789D01*
X204974Y76698D01*
X204927Y76606D01*
X204884Y76512D01*
X204844Y76417D01*
X204808Y76320D01*
X204776Y76221D01*
X204747Y76122D01*
X204722Y76021D01*
X204701Y75920D01*
X204684Y75818D01*
X204670Y75716D01*
X204661Y75613D01*
X204655Y75509D01*
X204653Y75406D01*
X204653Y72641D01*
X210185Y83368D02*
X197739Y87516D01*
X210185Y91665D01*
M02*
