G04 EAGLE Gerber RS-274X export*
G75*
%MOMM*%
%FSLAX34Y34*%
%LPD*%
%INTop Solder Paste*%
%IPPOS*%
%AMOC8*
5,1,8,0,0,1.08239X$1,22.5*%
G01*
%ADD10R,0.600000X0.700000*%
%ADD11R,1.600000X0.900000*%
%ADD12R,0.800000X0.800000*%
%ADD13R,0.700000X0.250000*%
%ADD14R,0.250000X0.700000*%
%ADD15R,1.270000X1.270000*%
%ADD16R,1.000000X0.600000*%
%ADD17R,4.572000X2.540000*%
%ADD18R,3.810000X1.016000*%
%ADD19R,0.950000X0.950000*%
%ADD20R,0.700000X0.600000*%


D10*
X77296Y149098D03*
X87296Y149098D03*
D11*
X60960Y201670D03*
X60960Y232670D03*
D12*
X128270Y218560D03*
X128270Y233560D03*
X24758Y69088D03*
X39758Y69088D03*
D13*
X71090Y123190D03*
X71090Y118190D03*
X71090Y128190D03*
X99090Y123190D03*
X99090Y118190D03*
X99090Y128190D03*
D14*
X85090Y137190D03*
X90090Y137190D03*
X80090Y137190D03*
X85090Y109190D03*
X90090Y109190D03*
X80090Y109190D03*
D15*
X85090Y123190D03*
D16*
X87060Y233020D03*
X87060Y223520D03*
X87060Y214020D03*
X111060Y214020D03*
X111060Y233020D03*
D17*
X20320Y95250D03*
X20320Y161290D03*
D18*
X16510Y128270D03*
D17*
X256540Y227330D03*
X256540Y161290D03*
D18*
X260350Y194310D03*
D17*
X256540Y85090D03*
X256540Y19050D03*
D18*
X260350Y52070D03*
D19*
X97790Y73290D03*
X97790Y58790D03*
D20*
X209550Y174070D03*
X209550Y184070D03*
D10*
X209630Y194310D03*
X219630Y194310D03*
D20*
X209550Y62310D03*
X209550Y72310D03*
D10*
X219630Y52070D03*
X209630Y52070D03*
D19*
X76962Y68464D03*
X76962Y53964D03*
X59690Y53964D03*
X59690Y68464D03*
D10*
X68152Y97790D03*
X78152Y97790D03*
X189310Y72390D03*
X199310Y72390D03*
X189310Y173990D03*
X199310Y173990D03*
M02*
