M48
;GenerationSoftware,Autodesk,EAGLE,9.4.1*%
;CreationDate,2019-06-21T03:18:32Z*%
FMAT,2
ICI,OFF
METRIC,TZ,000.000
T4C0.300
T3C0.350
T2C1.000
%
G90
M71
T2
X2540Y25400
X2540Y27940
X2540Y2540
X2540Y5080
X2540Y10160
X2540Y7620
T3
X12192Y20447
X13970Y8255
X11430Y20320
X14605Y6985
T4
X22987Y20701
X20447Y20701
X12700Y26035
X13208Y15240
X22987Y24003
X5080Y24130
X8763Y6985
X9398Y6985
X14986Y3683
X14605Y5715
X14986Y4445
X16510Y4953
X15621Y4953
X9779Y22225
X6350Y24130
X4445Y25146
X6985Y25146
X3810Y24130
X1270Y24130
X1270Y26289
X3810Y26289
X9398Y27305
X10668Y12954
X10541Y22225
X11049Y21336
X9271Y21336
X6858Y15113
X5969Y16129
X9271Y13843
X9652Y12954
X1143Y13843
X21717Y8763
X21717Y16637
X21717Y14351
X21717Y11049
X1143Y19431
X1143Y16129
X3683Y19431
X3683Y16129
X20447Y8763
X3683Y13843
X1143Y21717
X3683Y21717
X2413Y21717
X2413Y13843
X2413Y16129
X2413Y19431
X20447Y24003
X22987Y8763
X20447Y16637
X22987Y16637
X20447Y14351
X20447Y11049
X22987Y14351
X22987Y11049
X21717Y20701
X21717Y24003
X21717Y26289
X21717Y18415
X20447Y18415
X22987Y18415
X20447Y26289
X22987Y26289
X5080Y27305
X14605Y19685
X13970Y19685
X14605Y16002
X14605Y15367
X13970Y15367
X6858Y19431
X6223Y20320
X5461Y20320
X14605Y19050
X5715Y27305
X6350Y27305
X6985Y28194
X4445Y28194
X5080Y29210
X5715Y29210
X6350Y29210
X3810Y29210
X3810Y3429
X5461Y3937
X5334Y1143
X6350Y1905
X6350Y2540
X6350Y3175
X4445Y3175
X4445Y2540
X4445Y1905
X1270Y29210
X1270Y3429
X1397Y1397
X3683Y1397
X10160Y10414
X7747Y10922
X8763Y10922
X13970Y19050
X13970Y16002
X10922Y18923
X9525Y1905
X7620Y2540
X7620Y3175
X7620Y1905
X3683Y11303
X3556Y9144
X1397Y11303
X1397Y9144
X9525Y2540
X10922Y16129
X10287Y16256
X10160Y18923
X12446Y17526
X5715Y26035
X5715Y24130
X5080Y26035
X6350Y26035
X9398Y5715
X1270Y27178
X3810Y27178
X18542Y10795
X17780Y10795
X15621Y10287
X16510Y10287
X11938Y5715
X14732Y9525
X11049Y10414
X10160Y4953
X11049Y4953
X11684Y4445
X11684Y3683
X12446Y3048
X8509Y3937
X8509Y1143
X9525Y3175
M30