G04 EAGLE Gerber RS-274X export*
G75*
%MOMM*%
%FSLAX34Y34*%
%LPD*%
%INTop Solder Paste*%
%IPPOS*%
%AMOC8*
5,1,8,0,0,1.08239X$1,22.5*%
G01*
%ADD10R,0.800000X0.800000*%
%ADD11R,1.500000X0.550000*%
%ADD12R,0.800000X0.300000*%
%ADD13R,0.300000X0.800000*%
%ADD14R,1.230000X1.230000*%
%ADD15R,4.572000X2.540000*%
%ADD16R,3.810000X1.016000*%
%ADD17R,0.950000X0.950000*%
%ADD18R,0.900000X1.600000*%
%ADD19R,1.600000X0.900000*%
%ADD20C,1.905000*%


D10*
X140850Y111760D03*
X125850Y111760D03*
X119500Y143510D03*
X134500Y143510D03*
X83700Y161290D03*
X68700Y161290D03*
X90050Y177800D03*
X75050Y177800D03*
D11*
X106350Y95250D03*
X106350Y82550D03*
X106350Y69850D03*
X106350Y57150D03*
X160350Y57150D03*
X160350Y69850D03*
X160350Y82550D03*
X160350Y95250D03*
D12*
X110210Y177760D03*
X110210Y182760D03*
X110210Y172760D03*
X110210Y167760D03*
X138710Y177760D03*
X138710Y182760D03*
X138710Y172760D03*
X138710Y167760D03*
D13*
X121960Y189510D03*
X116960Y189510D03*
X126960Y189510D03*
X131960Y189510D03*
X121960Y161010D03*
X116960Y161010D03*
X126960Y161010D03*
X131960Y161010D03*
D14*
X124460Y175260D03*
D15*
X218440Y256540D03*
X218440Y190500D03*
D16*
X222250Y223520D03*
D15*
X218440Y160020D03*
X218440Y93980D03*
D16*
X222250Y127000D03*
D15*
X22860Y144780D03*
X22860Y210820D03*
D16*
X19050Y177800D03*
D17*
X104510Y273050D03*
X119010Y273050D03*
X181610Y97420D03*
X181610Y82920D03*
X82550Y97420D03*
X82550Y82920D03*
X58420Y178170D03*
X58420Y192670D03*
D18*
X85350Y25400D03*
X54350Y25400D03*
D19*
X57150Y282200D03*
X57150Y251200D03*
D10*
X125850Y40640D03*
X140850Y40640D03*
D20*
X139700Y273050D03*
D10*
X101600Y213240D03*
X101600Y198240D03*
X101600Y138550D03*
X101600Y153550D03*
M02*
