G04 EAGLE Gerber RS-274X export*
G75*
%MOMM*%
%FSLAX34Y34*%
%LPD*%
%INTop Copper*%
%IPPOS*%
%AMOC8*
5,1,8,0,0,1.08239X$1,22.5*%
G01*
%ADD10C,2.971800*%
%ADD11R,1.397000X0.558800*%
%ADD12C,0.654000*%
%ADD13C,0.558800*%

G36*
X13975Y67817D02*
X13975Y67817D01*
X13975Y67818D01*
X13975Y67819D01*
X481325Y67819D01*
X481325Y67818D01*
X481329Y67813D01*
X481330Y67813D01*
X495300Y67813D01*
X495305Y67817D01*
X495305Y67818D01*
X495305Y127000D01*
X495301Y127005D01*
X495300Y127005D01*
X444500Y127005D01*
X444495Y127001D01*
X444495Y127000D01*
X444495Y123189D01*
X50805Y123189D01*
X50805Y127000D01*
X50801Y127005D01*
X50800Y127005D01*
X0Y127005D01*
X-5Y127001D01*
X-5Y127000D01*
X-5Y67818D01*
X-1Y67813D01*
X0Y67813D01*
X13970Y67813D01*
X13975Y67817D01*
G37*
G36*
X50805Y-1D02*
X50805Y-1D01*
X50805Y0D01*
X50805Y3811D01*
X444495Y3811D01*
X444495Y0D01*
X444499Y-5D01*
X444500Y-5D01*
X495300Y-5D01*
X495305Y-1D01*
X495305Y0D01*
X495305Y59182D01*
X495301Y59187D01*
X495300Y59187D01*
X481330Y59187D01*
X481325Y59183D01*
X481325Y59182D01*
X481325Y59181D01*
X13975Y59181D01*
X13975Y59182D01*
X13971Y59187D01*
X13970Y59187D01*
X0Y59187D01*
X-5Y59183D01*
X-5Y59182D01*
X-5Y0D01*
X-1Y-5D01*
X0Y-5D01*
X50800Y-5D01*
X50805Y-1D01*
G37*
D10*
X467360Y111125D03*
X467360Y15875D03*
D11*
X488315Y63500D03*
D10*
X27940Y15875D03*
X27940Y111125D03*
D11*
X6985Y63500D03*
D12*
X6350Y76200D03*
X6350Y50800D03*
X31750Y76200D03*
X57150Y76200D03*
X82550Y76200D03*
X107950Y76200D03*
X133350Y76200D03*
X158750Y76200D03*
X184150Y76200D03*
X209550Y76200D03*
X234950Y76200D03*
X260350Y76200D03*
X285750Y76200D03*
X311150Y76200D03*
X336550Y76200D03*
X361950Y76200D03*
X387350Y76200D03*
X412750Y76200D03*
X438150Y76200D03*
X463550Y76200D03*
X31750Y50800D03*
X57150Y50800D03*
X82550Y50800D03*
X107950Y50800D03*
X133350Y50800D03*
X158750Y50800D03*
X184150Y50800D03*
X209550Y50800D03*
X234950Y50800D03*
X260350Y50800D03*
X285750Y50800D03*
X311150Y50800D03*
X336550Y50800D03*
X361950Y50800D03*
X387350Y50800D03*
X412750Y50800D03*
X438150Y50800D03*
X463550Y50800D03*
X488950Y76200D03*
X488950Y50800D03*
X6350Y114300D03*
X57150Y114300D03*
X82550Y114300D03*
X107950Y114300D03*
X133350Y114300D03*
X158750Y114300D03*
X184150Y114300D03*
X209550Y114300D03*
X234950Y114300D03*
X260350Y114300D03*
X285750Y114300D03*
X311150Y114300D03*
X336550Y114300D03*
X361950Y114300D03*
X387350Y114300D03*
X412750Y114300D03*
X438150Y114300D03*
X488950Y114300D03*
X6350Y12700D03*
X57150Y12700D03*
X82550Y12700D03*
X107950Y12700D03*
X133350Y12700D03*
X158750Y12700D03*
X184150Y12700D03*
X209550Y12700D03*
X234950Y12700D03*
X260350Y12700D03*
X285750Y12700D03*
X311150Y12700D03*
X336550Y12700D03*
X361950Y12700D03*
X387350Y12700D03*
X412750Y12700D03*
X438150Y12700D03*
X488950Y12700D03*
D13*
X488315Y63500D02*
X6985Y63500D01*
M02*
