G04 EAGLE Gerber RS-274X export*
G75*
%MOMM*%
%FSLAX34Y34*%
%LPD*%
%INTop Copper Layer*%
%IPPOS*%
%AMOC8*
5,1,8,0,0,1.08239X$1,22.5*%
G01*
%ADD10R,4.572000X2.540000*%
%ADD11R,3.810000X1.016000*%
%ADD12C,0.554000*%
%ADD13R,0.127000X0.127000*%
%ADD14R,0.600000X0.700000*%
%ADD15R,0.700000X0.600000*%
%ADD16C,0.604000*%

G36*
X70668Y55768D02*
X70668Y55768D01*
X70759Y55776D01*
X70789Y55788D01*
X70821Y55793D01*
X70880Y55825D01*
X73103Y55825D01*
X73194Y55839D01*
X73284Y55847D01*
X73314Y55859D01*
X73346Y55864D01*
X73377Y55881D01*
X87416Y55881D01*
X87427Y55877D01*
X87512Y55843D01*
X87553Y55839D01*
X87575Y55832D01*
X87607Y55833D01*
X87679Y55825D01*
X89893Y55825D01*
X89952Y55806D01*
X90037Y55772D01*
X90078Y55768D01*
X90100Y55761D01*
X90132Y55762D01*
X90204Y55754D01*
X92168Y55754D01*
X92258Y55768D01*
X92349Y55776D01*
X92379Y55788D01*
X92411Y55793D01*
X92470Y55825D01*
X93677Y55825D01*
X93768Y55839D01*
X93858Y55847D01*
X93888Y55859D01*
X93920Y55864D01*
X93951Y55881D01*
X110022Y55881D01*
X110033Y55877D01*
X110118Y55843D01*
X110159Y55839D01*
X110181Y55832D01*
X110213Y55833D01*
X110285Y55825D01*
X111483Y55825D01*
X111542Y55806D01*
X111627Y55772D01*
X111668Y55768D01*
X111690Y55761D01*
X111723Y55762D01*
X111794Y55754D01*
X113758Y55754D01*
X113848Y55768D01*
X113939Y55776D01*
X113969Y55788D01*
X114001Y55793D01*
X114060Y55825D01*
X115775Y55825D01*
X115866Y55839D01*
X115956Y55847D01*
X115986Y55859D01*
X116018Y55864D01*
X116049Y55881D01*
X131358Y55881D01*
X131369Y55877D01*
X131454Y55843D01*
X131495Y55839D01*
X131517Y55832D01*
X131549Y55833D01*
X131621Y55825D01*
X133073Y55825D01*
X133132Y55806D01*
X133217Y55772D01*
X133258Y55768D01*
X133280Y55761D01*
X133313Y55762D01*
X133384Y55754D01*
X135348Y55754D01*
X135438Y55768D01*
X135529Y55776D01*
X135559Y55788D01*
X135591Y55793D01*
X135650Y55825D01*
X137365Y55825D01*
X137456Y55839D01*
X137546Y55847D01*
X137576Y55859D01*
X137608Y55864D01*
X137639Y55881D01*
X151424Y55881D01*
X151435Y55877D01*
X151520Y55843D01*
X151561Y55839D01*
X151583Y55832D01*
X151615Y55833D01*
X151687Y55825D01*
X154663Y55825D01*
X154722Y55806D01*
X154807Y55772D01*
X154848Y55768D01*
X154870Y55761D01*
X154903Y55762D01*
X154974Y55754D01*
X156938Y55754D01*
X157028Y55768D01*
X157119Y55776D01*
X157149Y55788D01*
X157181Y55793D01*
X157240Y55825D01*
X159718Y55825D01*
X159808Y55839D01*
X159899Y55847D01*
X159928Y55859D01*
X159960Y55864D01*
X159991Y55881D01*
X173268Y55881D01*
X173279Y55877D01*
X173364Y55843D01*
X173405Y55839D01*
X173427Y55832D01*
X173459Y55833D01*
X173530Y55825D01*
X176253Y55825D01*
X176312Y55806D01*
X176397Y55772D01*
X176438Y55768D01*
X176460Y55761D01*
X176493Y55762D01*
X176564Y55754D01*
X178528Y55754D01*
X178618Y55768D01*
X178709Y55776D01*
X178739Y55788D01*
X178771Y55793D01*
X178830Y55825D01*
X181308Y55825D01*
X181398Y55839D01*
X181489Y55847D01*
X181518Y55859D01*
X181550Y55864D01*
X181581Y55881D01*
X194858Y55881D01*
X194869Y55877D01*
X194954Y55843D01*
X194995Y55839D01*
X195017Y55832D01*
X195049Y55833D01*
X195120Y55825D01*
X197843Y55825D01*
X197902Y55806D01*
X197987Y55772D01*
X198028Y55768D01*
X198050Y55761D01*
X198083Y55762D01*
X198154Y55754D01*
X200118Y55754D01*
X200208Y55768D01*
X200299Y55776D01*
X200329Y55788D01*
X200361Y55793D01*
X200420Y55825D01*
X203152Y55825D01*
X203242Y55839D01*
X203333Y55847D01*
X203362Y55859D01*
X203394Y55864D01*
X203425Y55881D01*
X216448Y55881D01*
X216459Y55877D01*
X216544Y55843D01*
X216585Y55839D01*
X216607Y55832D01*
X216639Y55833D01*
X216710Y55825D01*
X219433Y55825D01*
X219492Y55806D01*
X219577Y55772D01*
X219618Y55768D01*
X219640Y55761D01*
X219673Y55762D01*
X219744Y55754D01*
X221708Y55754D01*
X221798Y55768D01*
X221889Y55776D01*
X221919Y55788D01*
X221951Y55793D01*
X222010Y55825D01*
X224742Y55825D01*
X224832Y55839D01*
X224923Y55847D01*
X224952Y55859D01*
X224984Y55864D01*
X225015Y55881D01*
X237530Y55881D01*
X237541Y55877D01*
X237626Y55843D01*
X237667Y55839D01*
X237689Y55832D01*
X237721Y55833D01*
X237792Y55825D01*
X241023Y55825D01*
X241082Y55806D01*
X241167Y55772D01*
X241208Y55768D01*
X241230Y55761D01*
X241263Y55762D01*
X241334Y55754D01*
X243298Y55754D01*
X243388Y55768D01*
X243479Y55776D01*
X243509Y55788D01*
X243541Y55793D01*
X243600Y55825D01*
X246331Y55825D01*
X246422Y55839D01*
X246512Y55847D01*
X246542Y55859D01*
X246574Y55864D01*
X246605Y55881D01*
X250900Y55881D01*
X250942Y55888D01*
X250986Y55886D01*
X251063Y55908D01*
X251142Y55920D01*
X251181Y55941D01*
X251222Y55953D01*
X251281Y55993D01*
X251301Y56001D01*
X251401Y56039D01*
X251414Y56049D01*
X251429Y56056D01*
X251560Y56161D01*
X257459Y62060D01*
X257757Y62358D01*
X300228Y62358D01*
X300248Y62361D01*
X300267Y62359D01*
X300369Y62381D01*
X300471Y62397D01*
X300488Y62407D01*
X300508Y62411D01*
X300597Y62464D01*
X300688Y62513D01*
X300702Y62527D01*
X300719Y62537D01*
X300786Y62616D01*
X300858Y62691D01*
X300866Y62709D01*
X300879Y62724D01*
X300918Y62820D01*
X300961Y62914D01*
X300963Y62934D01*
X300971Y62952D01*
X300989Y63119D01*
X300989Y97028D01*
X300986Y97048D01*
X300988Y97067D01*
X300966Y97169D01*
X300950Y97271D01*
X300940Y97288D01*
X300936Y97308D01*
X300883Y97397D01*
X300834Y97488D01*
X300820Y97502D01*
X300810Y97519D01*
X300731Y97586D01*
X300656Y97658D01*
X300638Y97666D01*
X300623Y97679D01*
X300527Y97718D01*
X300433Y97761D01*
X300413Y97763D01*
X300395Y97771D01*
X300228Y97789D01*
X4572Y97789D01*
X4552Y97786D01*
X4533Y97788D01*
X4431Y97766D01*
X4329Y97750D01*
X4312Y97740D01*
X4292Y97736D01*
X4203Y97683D01*
X4112Y97634D01*
X4098Y97620D01*
X4081Y97610D01*
X4014Y97531D01*
X3942Y97456D01*
X3934Y97438D01*
X3921Y97423D01*
X3882Y97327D01*
X3839Y97233D01*
X3837Y97213D01*
X3829Y97195D01*
X3811Y97028D01*
X3811Y71246D01*
X0Y71246D01*
X-2Y71245D01*
X-4Y71246D01*
X-47Y71226D01*
X-91Y71208D01*
X-91Y71206D01*
X-93Y71205D01*
X-126Y71120D01*
X-126Y60960D01*
X-125Y60958D01*
X-126Y60956D01*
X-106Y60913D01*
X-88Y60869D01*
X-86Y60869D01*
X-85Y60867D01*
X0Y60834D01*
X37069Y60834D01*
X45658Y56024D01*
X45692Y56020D01*
X45724Y56008D01*
X45739Y56015D01*
X45756Y56013D01*
X45782Y56035D01*
X45813Y56049D01*
X45820Y56066D01*
X45832Y56076D01*
X45834Y56103D01*
X45846Y56134D01*
X45846Y67364D01*
X45848Y67363D01*
X45848Y56642D01*
X45851Y56622D01*
X45849Y56603D01*
X45871Y56501D01*
X45887Y56399D01*
X45897Y56382D01*
X45901Y56362D01*
X45954Y56273D01*
X46003Y56182D01*
X46017Y56168D01*
X46027Y56151D01*
X46106Y56084D01*
X46181Y56012D01*
X46199Y56004D01*
X46214Y55991D01*
X46310Y55952D01*
X46404Y55909D01*
X46424Y55907D01*
X46442Y55899D01*
X46609Y55881D01*
X47244Y55881D01*
X47264Y55884D01*
X47283Y55882D01*
X47385Y55904D01*
X47487Y55920D01*
X47504Y55930D01*
X47524Y55934D01*
X47613Y55987D01*
X47704Y56036D01*
X47718Y56050D01*
X47735Y56060D01*
X47802Y56139D01*
X47874Y56214D01*
X47882Y56232D01*
X47895Y56247D01*
X47934Y56343D01*
X47977Y56437D01*
X47979Y56457D01*
X47987Y56475D01*
X48005Y56642D01*
X48005Y59730D01*
X48009Y59741D01*
X48043Y59826D01*
X48047Y59867D01*
X48054Y59889D01*
X48053Y59921D01*
X48061Y59992D01*
X48061Y62132D01*
X48954Y63025D01*
X57218Y63025D01*
X58111Y62132D01*
X58111Y59992D01*
X58125Y59902D01*
X58133Y59811D01*
X58145Y59782D01*
X58150Y59750D01*
X58167Y59719D01*
X58167Y56642D01*
X58170Y56622D01*
X58168Y56603D01*
X58190Y56501D01*
X58206Y56399D01*
X58216Y56382D01*
X58220Y56362D01*
X58273Y56273D01*
X58322Y56182D01*
X58336Y56168D01*
X58346Y56151D01*
X58425Y56084D01*
X58500Y56012D01*
X58518Y56004D01*
X58533Y55991D01*
X58629Y55952D01*
X58723Y55909D01*
X58743Y55907D01*
X58761Y55899D01*
X58928Y55881D01*
X65318Y55881D01*
X65329Y55877D01*
X65414Y55843D01*
X65455Y55839D01*
X65477Y55832D01*
X65509Y55833D01*
X65580Y55825D01*
X68303Y55825D01*
X68362Y55806D01*
X68447Y55772D01*
X68488Y55768D01*
X68510Y55761D01*
X68542Y55762D01*
X68614Y55754D01*
X70578Y55754D01*
X70668Y55768D01*
G37*
G36*
X300248Y3814D02*
X300248Y3814D01*
X300267Y3812D01*
X300369Y3834D01*
X300471Y3850D01*
X300488Y3860D01*
X300508Y3864D01*
X300597Y3917D01*
X300688Y3966D01*
X300702Y3980D01*
X300719Y3990D01*
X300786Y4069D01*
X300858Y4144D01*
X300866Y4162D01*
X300879Y4177D01*
X300918Y4273D01*
X300961Y4367D01*
X300963Y4387D01*
X300971Y4405D01*
X300989Y4572D01*
X300989Y38481D01*
X300986Y38501D01*
X300988Y38520D01*
X300966Y38622D01*
X300950Y38724D01*
X300940Y38741D01*
X300936Y38761D01*
X300883Y38850D01*
X300834Y38941D01*
X300820Y38955D01*
X300810Y38972D01*
X300731Y39039D01*
X300656Y39111D01*
X300638Y39119D01*
X300623Y39132D01*
X300527Y39171D01*
X300433Y39214D01*
X300413Y39216D01*
X300395Y39224D01*
X300228Y39242D01*
X257757Y39242D01*
X251560Y45439D01*
X251547Y45449D01*
X251536Y45462D01*
X251447Y45520D01*
X251360Y45583D01*
X251344Y45588D01*
X251331Y45597D01*
X251295Y45608D01*
X251294Y45609D01*
X251220Y45639D01*
X251149Y45677D01*
X251107Y45685D01*
X251066Y45701D01*
X250919Y45717D01*
X250907Y45719D01*
X250904Y45719D01*
X250900Y45719D01*
X246594Y45719D01*
X246583Y45723D01*
X246498Y45757D01*
X246457Y45761D01*
X246435Y45768D01*
X246403Y45767D01*
X246331Y45775D01*
X243609Y45775D01*
X243550Y45794D01*
X243465Y45828D01*
X243424Y45832D01*
X243402Y45839D01*
X243369Y45838D01*
X243298Y45846D01*
X241334Y45846D01*
X241244Y45832D01*
X241153Y45824D01*
X241123Y45812D01*
X241091Y45807D01*
X241032Y45775D01*
X237792Y45775D01*
X237702Y45761D01*
X237611Y45753D01*
X237582Y45741D01*
X237550Y45736D01*
X237519Y45719D01*
X225004Y45719D01*
X224993Y45723D01*
X224908Y45757D01*
X224867Y45761D01*
X224845Y45768D01*
X224813Y45767D01*
X224742Y45775D01*
X222019Y45775D01*
X221960Y45794D01*
X221875Y45828D01*
X221834Y45832D01*
X221812Y45839D01*
X221779Y45838D01*
X221708Y45846D01*
X219744Y45846D01*
X219654Y45832D01*
X219563Y45824D01*
X219533Y45812D01*
X219501Y45807D01*
X219442Y45775D01*
X216710Y45775D01*
X216620Y45761D01*
X216529Y45753D01*
X216500Y45741D01*
X216468Y45736D01*
X216437Y45719D01*
X203414Y45719D01*
X203403Y45723D01*
X203318Y45757D01*
X203277Y45761D01*
X203255Y45768D01*
X203223Y45767D01*
X203152Y45775D01*
X200429Y45775D01*
X200370Y45794D01*
X200285Y45828D01*
X200244Y45832D01*
X200222Y45839D01*
X200189Y45838D01*
X200118Y45846D01*
X198154Y45846D01*
X198064Y45832D01*
X197973Y45824D01*
X197943Y45812D01*
X197911Y45807D01*
X197852Y45775D01*
X195120Y45775D01*
X195030Y45761D01*
X194939Y45753D01*
X194910Y45741D01*
X194878Y45736D01*
X194847Y45719D01*
X181570Y45719D01*
X181559Y45723D01*
X181474Y45757D01*
X181433Y45761D01*
X181411Y45768D01*
X181379Y45767D01*
X181308Y45775D01*
X178839Y45775D01*
X178780Y45794D01*
X178695Y45828D01*
X178654Y45832D01*
X178632Y45839D01*
X178599Y45838D01*
X178528Y45846D01*
X176564Y45846D01*
X176474Y45832D01*
X176383Y45824D01*
X176353Y45812D01*
X176321Y45807D01*
X176262Y45775D01*
X173530Y45775D01*
X173440Y45761D01*
X173349Y45753D01*
X173320Y45741D01*
X173288Y45736D01*
X173257Y45719D01*
X159980Y45719D01*
X159969Y45723D01*
X159884Y45757D01*
X159843Y45761D01*
X159821Y45768D01*
X159789Y45767D01*
X159718Y45775D01*
X157249Y45775D01*
X157190Y45794D01*
X157105Y45828D01*
X157064Y45832D01*
X157042Y45839D01*
X157009Y45838D01*
X156938Y45846D01*
X154974Y45846D01*
X154884Y45832D01*
X154793Y45824D01*
X154763Y45812D01*
X154731Y45807D01*
X154672Y45775D01*
X151686Y45775D01*
X151596Y45761D01*
X151505Y45753D01*
X151476Y45741D01*
X151444Y45736D01*
X151413Y45719D01*
X137628Y45719D01*
X137617Y45723D01*
X137532Y45757D01*
X137491Y45761D01*
X137469Y45768D01*
X137437Y45767D01*
X137365Y45775D01*
X135659Y45775D01*
X135600Y45794D01*
X135515Y45828D01*
X135474Y45832D01*
X135452Y45839D01*
X135419Y45838D01*
X135348Y45846D01*
X133384Y45846D01*
X133294Y45832D01*
X133203Y45824D01*
X133173Y45812D01*
X133141Y45807D01*
X133082Y45775D01*
X131621Y45775D01*
X131530Y45761D01*
X131440Y45753D01*
X131410Y45741D01*
X131378Y45736D01*
X131347Y45719D01*
X116038Y45719D01*
X116027Y45723D01*
X115942Y45757D01*
X115901Y45761D01*
X115879Y45768D01*
X115847Y45767D01*
X115775Y45775D01*
X114069Y45775D01*
X114010Y45794D01*
X113925Y45828D01*
X113884Y45832D01*
X113862Y45839D01*
X113829Y45838D01*
X113758Y45846D01*
X111794Y45846D01*
X111704Y45832D01*
X111613Y45824D01*
X111583Y45812D01*
X111551Y45807D01*
X111492Y45775D01*
X110285Y45775D01*
X110194Y45761D01*
X110104Y45753D01*
X110074Y45741D01*
X110042Y45736D01*
X110011Y45719D01*
X93940Y45719D01*
X93929Y45723D01*
X93844Y45757D01*
X93803Y45761D01*
X93781Y45768D01*
X93749Y45767D01*
X93677Y45775D01*
X92479Y45775D01*
X92420Y45794D01*
X92335Y45828D01*
X92294Y45832D01*
X92272Y45839D01*
X92239Y45838D01*
X92168Y45846D01*
X90204Y45846D01*
X90114Y45832D01*
X90023Y45824D01*
X89993Y45812D01*
X89961Y45807D01*
X89902Y45775D01*
X87679Y45775D01*
X87588Y45761D01*
X87498Y45753D01*
X87468Y45741D01*
X87436Y45736D01*
X87405Y45719D01*
X73366Y45719D01*
X73355Y45723D01*
X73270Y45757D01*
X73229Y45761D01*
X73207Y45768D01*
X73175Y45767D01*
X73103Y45775D01*
X70889Y45775D01*
X70830Y45794D01*
X70745Y45828D01*
X70704Y45832D01*
X70682Y45839D01*
X70650Y45838D01*
X70578Y45846D01*
X68614Y45846D01*
X68524Y45832D01*
X68433Y45824D01*
X68403Y45812D01*
X68371Y45807D01*
X68312Y45775D01*
X65581Y45775D01*
X65490Y45761D01*
X65400Y45753D01*
X65370Y45741D01*
X65338Y45736D01*
X65307Y45719D01*
X58928Y45719D01*
X58908Y45716D01*
X58889Y45718D01*
X58787Y45696D01*
X58685Y45680D01*
X58668Y45670D01*
X58648Y45666D01*
X58559Y45613D01*
X58468Y45564D01*
X58454Y45550D01*
X58437Y45540D01*
X58370Y45461D01*
X58298Y45386D01*
X58290Y45368D01*
X58277Y45353D01*
X58238Y45257D01*
X58195Y45163D01*
X58193Y45143D01*
X58185Y45125D01*
X58167Y44958D01*
X58167Y42378D01*
X58163Y42367D01*
X58129Y42282D01*
X58125Y42241D01*
X58118Y42219D01*
X58119Y42187D01*
X58111Y42116D01*
X58111Y39468D01*
X57218Y38575D01*
X48954Y38575D01*
X48061Y39468D01*
X48061Y42116D01*
X48047Y42206D01*
X48039Y42297D01*
X48027Y42326D01*
X48022Y42358D01*
X48005Y42389D01*
X48005Y44958D01*
X48002Y44978D01*
X48004Y44997D01*
X47982Y45099D01*
X47966Y45201D01*
X47956Y45218D01*
X47952Y45238D01*
X47899Y45327D01*
X47850Y45418D01*
X47836Y45432D01*
X47826Y45449D01*
X47747Y45516D01*
X47672Y45588D01*
X47654Y45596D01*
X47639Y45609D01*
X47543Y45648D01*
X47449Y45691D01*
X47429Y45693D01*
X47411Y45701D01*
X47244Y45719D01*
X46609Y45719D01*
X46589Y45716D01*
X46570Y45718D01*
X46468Y45696D01*
X46366Y45680D01*
X46349Y45670D01*
X46329Y45666D01*
X46240Y45613D01*
X46149Y45564D01*
X46135Y45550D01*
X46118Y45540D01*
X46051Y45461D01*
X45979Y45386D01*
X45971Y45368D01*
X45958Y45353D01*
X45919Y45257D01*
X45876Y45163D01*
X45874Y45143D01*
X45866Y45125D01*
X45848Y44958D01*
X45848Y34237D01*
X45846Y34236D01*
X45846Y45466D01*
X45832Y45501D01*
X45824Y45538D01*
X45813Y45545D01*
X45808Y45557D01*
X45773Y45570D01*
X45741Y45591D01*
X45728Y45588D01*
X45716Y45592D01*
X45689Y45580D01*
X45652Y45572D01*
X38160Y40766D01*
X0Y40766D01*
X-2Y40765D01*
X-4Y40766D01*
X-47Y40746D01*
X-91Y40728D01*
X-91Y40726D01*
X-93Y40725D01*
X-126Y40640D01*
X-126Y30480D01*
X-125Y30478D01*
X-126Y30476D01*
X-106Y30433D01*
X-88Y30389D01*
X-86Y30389D01*
X-85Y30387D01*
X0Y30354D01*
X3811Y30354D01*
X3811Y4572D01*
X3814Y4552D01*
X3812Y4533D01*
X3834Y4431D01*
X3850Y4329D01*
X3860Y4312D01*
X3864Y4292D01*
X3917Y4203D01*
X3966Y4112D01*
X3980Y4098D01*
X3990Y4081D01*
X4069Y4014D01*
X4144Y3942D01*
X4162Y3934D01*
X4177Y3921D01*
X4273Y3882D01*
X4367Y3839D01*
X4387Y3837D01*
X4405Y3829D01*
X4572Y3811D01*
X300228Y3811D01*
X300248Y3814D01*
G37*
G36*
X300248Y44962D02*
X300248Y44962D01*
X300267Y44960D01*
X300369Y44982D01*
X300471Y44999D01*
X300488Y45008D01*
X300508Y45012D01*
X300597Y45065D01*
X300688Y45114D01*
X300702Y45128D01*
X300719Y45138D01*
X300786Y45217D01*
X300858Y45292D01*
X300866Y45310D01*
X300879Y45325D01*
X300918Y45421D01*
X300961Y45515D01*
X300963Y45535D01*
X300971Y45553D01*
X300989Y45720D01*
X300989Y55880D01*
X300986Y55900D01*
X300988Y55919D01*
X300966Y56021D01*
X300950Y56123D01*
X300940Y56140D01*
X300936Y56160D01*
X300883Y56249D01*
X300834Y56340D01*
X300820Y56354D01*
X300810Y56371D01*
X300731Y56438D01*
X300656Y56510D01*
X300638Y56518D01*
X300623Y56531D01*
X300527Y56570D01*
X300433Y56613D01*
X300413Y56615D01*
X300395Y56623D01*
X300228Y56641D01*
X257810Y56641D01*
X257691Y56622D01*
X257571Y56603D01*
X257569Y56602D01*
X257567Y56602D01*
X257561Y56598D01*
X257418Y56533D01*
X253789Y54355D01*
X247650Y54355D01*
X247630Y54352D01*
X247611Y54354D01*
X247509Y54332D01*
X247407Y54316D01*
X247390Y54306D01*
X247370Y54302D01*
X247281Y54249D01*
X247190Y54200D01*
X247176Y54186D01*
X247159Y54176D01*
X247092Y54097D01*
X247021Y54022D01*
X247012Y54004D01*
X246999Y53989D01*
X246960Y53893D01*
X246917Y53799D01*
X246915Y53779D01*
X246907Y53761D01*
X246889Y53594D01*
X246889Y48006D01*
X246892Y47986D01*
X246890Y47967D01*
X246912Y47865D01*
X246929Y47763D01*
X246938Y47746D01*
X246942Y47726D01*
X246995Y47637D01*
X247044Y47546D01*
X247058Y47532D01*
X247068Y47515D01*
X247147Y47448D01*
X247222Y47377D01*
X247240Y47368D01*
X247255Y47355D01*
X247351Y47316D01*
X247445Y47273D01*
X247465Y47271D01*
X247483Y47263D01*
X247650Y47245D01*
X253789Y47245D01*
X257418Y45067D01*
X257531Y45023D01*
X257643Y44977D01*
X257646Y44977D01*
X257647Y44976D01*
X257654Y44976D01*
X257810Y44959D01*
X300228Y44959D01*
X300248Y44962D01*
G37*
G36*
X55900Y42676D02*
X55900Y42676D01*
X55919Y42674D01*
X56021Y42696D01*
X56123Y42713D01*
X56140Y42722D01*
X56160Y42726D01*
X56249Y42779D01*
X56340Y42828D01*
X56354Y42842D01*
X56371Y42852D01*
X56438Y42931D01*
X56510Y43006D01*
X56518Y43024D01*
X56531Y43039D01*
X56570Y43135D01*
X56613Y43229D01*
X56615Y43249D01*
X56623Y43267D01*
X56641Y43434D01*
X56641Y47245D01*
X64262Y47245D01*
X64282Y47248D01*
X64301Y47246D01*
X64403Y47268D01*
X64505Y47285D01*
X64522Y47294D01*
X64542Y47298D01*
X64631Y47351D01*
X64722Y47400D01*
X64736Y47414D01*
X64753Y47424D01*
X64820Y47503D01*
X64892Y47578D01*
X64900Y47596D01*
X64913Y47611D01*
X64952Y47707D01*
X64995Y47801D01*
X64997Y47821D01*
X65005Y47839D01*
X65023Y48006D01*
X65023Y53594D01*
X65020Y53614D01*
X65022Y53633D01*
X65000Y53735D01*
X64984Y53837D01*
X64974Y53854D01*
X64970Y53874D01*
X64917Y53963D01*
X64868Y54054D01*
X64854Y54068D01*
X64844Y54085D01*
X64765Y54152D01*
X64690Y54224D01*
X64672Y54232D01*
X64657Y54245D01*
X64561Y54284D01*
X64467Y54327D01*
X64447Y54329D01*
X64429Y54337D01*
X64262Y54355D01*
X56641Y54355D01*
X56641Y58674D01*
X56639Y58688D01*
X56640Y58698D01*
X56639Y58704D01*
X56640Y58713D01*
X56618Y58815D01*
X56602Y58917D01*
X56592Y58934D01*
X56588Y58954D01*
X56535Y59043D01*
X56486Y59134D01*
X56472Y59148D01*
X56462Y59165D01*
X56383Y59232D01*
X56308Y59304D01*
X56290Y59312D01*
X56275Y59325D01*
X56179Y59364D01*
X56085Y59407D01*
X56065Y59409D01*
X56047Y59417D01*
X55880Y59435D01*
X50292Y59435D01*
X50272Y59432D01*
X50253Y59434D01*
X50151Y59412D01*
X50049Y59396D01*
X50032Y59386D01*
X50012Y59382D01*
X49923Y59329D01*
X49832Y59280D01*
X49818Y59266D01*
X49801Y59256D01*
X49734Y59177D01*
X49663Y59102D01*
X49654Y59084D01*
X49641Y59069D01*
X49602Y58973D01*
X49559Y58879D01*
X49557Y58859D01*
X49549Y58841D01*
X49531Y58674D01*
X49531Y54355D01*
X45603Y54355D01*
X45583Y54352D01*
X45562Y54354D01*
X45468Y54339D01*
X45458Y54342D01*
X45430Y54343D01*
X45317Y54355D01*
X43049Y54355D01*
X38175Y55868D01*
X38122Y55869D01*
X38069Y55877D01*
X38053Y55870D01*
X38034Y55871D01*
X37989Y55843D01*
X37940Y55822D01*
X37929Y55807D01*
X37914Y55798D01*
X37890Y55750D01*
X37860Y55706D01*
X37856Y55681D01*
X37851Y55671D01*
X37852Y55659D01*
X37847Y55626D01*
X37847Y54355D01*
X17272Y54355D01*
X17252Y54352D01*
X17233Y54354D01*
X17131Y54332D01*
X17029Y54316D01*
X17012Y54306D01*
X16992Y54302D01*
X16903Y54249D01*
X16812Y54200D01*
X16798Y54186D01*
X16781Y54176D01*
X16714Y54097D01*
X16643Y54022D01*
X16634Y54004D01*
X16621Y53989D01*
X16582Y53893D01*
X16539Y53799D01*
X16537Y53779D01*
X16529Y53761D01*
X16511Y53594D01*
X16511Y48006D01*
X16514Y47986D01*
X16512Y47967D01*
X16534Y47865D01*
X16551Y47763D01*
X16560Y47746D01*
X16564Y47726D01*
X16617Y47637D01*
X16666Y47546D01*
X16680Y47532D01*
X16690Y47515D01*
X16769Y47448D01*
X16844Y47377D01*
X16862Y47368D01*
X16877Y47355D01*
X16973Y47316D01*
X17067Y47273D01*
X17087Y47271D01*
X17105Y47263D01*
X17272Y47245D01*
X37847Y47245D01*
X37847Y45974D01*
X37862Y45923D01*
X37869Y45870D01*
X37881Y45856D01*
X37886Y45839D01*
X37926Y45803D01*
X37960Y45763D01*
X37978Y45757D01*
X37991Y45745D01*
X38044Y45737D01*
X38095Y45721D01*
X38120Y45724D01*
X38131Y45723D01*
X38142Y45727D01*
X38175Y45732D01*
X43049Y47245D01*
X45211Y47245D01*
X45220Y47246D01*
X45230Y47245D01*
X45291Y47257D01*
X45399Y47245D01*
X49531Y47245D01*
X49531Y43434D01*
X49534Y43414D01*
X49532Y43395D01*
X49554Y43293D01*
X49571Y43191D01*
X49580Y43174D01*
X49584Y43154D01*
X49637Y43065D01*
X49686Y42974D01*
X49700Y42960D01*
X49710Y42943D01*
X49789Y42876D01*
X49864Y42805D01*
X49882Y42796D01*
X49897Y42783D01*
X49993Y42744D01*
X50087Y42701D01*
X50107Y42699D01*
X50125Y42691D01*
X50292Y42673D01*
X55880Y42673D01*
X55900Y42676D01*
G37*
G36*
X108351Y47248D02*
X108351Y47248D01*
X108370Y47246D01*
X108472Y47268D01*
X108574Y47285D01*
X108591Y47294D01*
X108611Y47298D01*
X108700Y47351D01*
X108791Y47400D01*
X108805Y47414D01*
X108822Y47424D01*
X108889Y47503D01*
X108961Y47578D01*
X108969Y47596D01*
X108982Y47611D01*
X109021Y47707D01*
X109064Y47801D01*
X109066Y47821D01*
X109074Y47839D01*
X109092Y48006D01*
X109092Y53594D01*
X109089Y53614D01*
X109091Y53633D01*
X109069Y53735D01*
X109053Y53837D01*
X109043Y53854D01*
X109039Y53874D01*
X108986Y53963D01*
X108937Y54054D01*
X108923Y54068D01*
X108913Y54085D01*
X108834Y54152D01*
X108759Y54224D01*
X108741Y54232D01*
X108726Y54245D01*
X108630Y54284D01*
X108536Y54327D01*
X108516Y54329D01*
X108498Y54337D01*
X108331Y54355D01*
X94996Y54355D01*
X94976Y54352D01*
X94957Y54354D01*
X94855Y54332D01*
X94753Y54316D01*
X94736Y54306D01*
X94716Y54302D01*
X94627Y54249D01*
X94536Y54200D01*
X94522Y54186D01*
X94505Y54176D01*
X94438Y54097D01*
X94367Y54022D01*
X94358Y54004D01*
X94345Y53989D01*
X94306Y53893D01*
X94263Y53799D01*
X94261Y53779D01*
X94253Y53761D01*
X94235Y53594D01*
X94235Y48006D01*
X94238Y47986D01*
X94236Y47967D01*
X94258Y47865D01*
X94275Y47763D01*
X94284Y47746D01*
X94288Y47726D01*
X94341Y47637D01*
X94390Y47546D01*
X94404Y47532D01*
X94414Y47515D01*
X94493Y47448D01*
X94568Y47377D01*
X94586Y47368D01*
X94601Y47355D01*
X94697Y47316D01*
X94791Y47273D01*
X94811Y47271D01*
X94829Y47263D01*
X94996Y47245D01*
X108331Y47245D01*
X108351Y47248D01*
G37*
G36*
X129941Y47248D02*
X129941Y47248D01*
X129960Y47246D01*
X130062Y47268D01*
X130164Y47285D01*
X130181Y47294D01*
X130201Y47298D01*
X130290Y47351D01*
X130381Y47400D01*
X130395Y47414D01*
X130412Y47424D01*
X130479Y47503D01*
X130551Y47578D01*
X130559Y47596D01*
X130572Y47611D01*
X130611Y47707D01*
X130654Y47801D01*
X130656Y47821D01*
X130664Y47839D01*
X130682Y48006D01*
X130682Y53594D01*
X130679Y53614D01*
X130681Y53633D01*
X130659Y53735D01*
X130643Y53837D01*
X130633Y53854D01*
X130629Y53874D01*
X130576Y53963D01*
X130527Y54054D01*
X130513Y54068D01*
X130503Y54085D01*
X130424Y54152D01*
X130349Y54224D01*
X130331Y54232D01*
X130316Y54245D01*
X130220Y54284D01*
X130126Y54327D01*
X130106Y54329D01*
X130088Y54337D01*
X129921Y54355D01*
X117094Y54355D01*
X117074Y54352D01*
X117055Y54354D01*
X116953Y54332D01*
X116851Y54316D01*
X116834Y54306D01*
X116814Y54302D01*
X116725Y54249D01*
X116634Y54200D01*
X116620Y54186D01*
X116603Y54176D01*
X116536Y54097D01*
X116465Y54022D01*
X116456Y54004D01*
X116443Y53989D01*
X116404Y53893D01*
X116361Y53799D01*
X116359Y53779D01*
X116351Y53761D01*
X116333Y53594D01*
X116333Y48006D01*
X116336Y47986D01*
X116334Y47967D01*
X116356Y47865D01*
X116373Y47763D01*
X116382Y47746D01*
X116386Y47726D01*
X116439Y47637D01*
X116488Y47546D01*
X116502Y47532D01*
X116512Y47515D01*
X116591Y47448D01*
X116666Y47377D01*
X116684Y47368D01*
X116699Y47355D01*
X116795Y47316D01*
X116889Y47273D01*
X116909Y47271D01*
X116927Y47263D01*
X117094Y47245D01*
X129921Y47245D01*
X129941Y47248D01*
G37*
G36*
X86380Y47248D02*
X86380Y47248D01*
X86399Y47246D01*
X86501Y47268D01*
X86603Y47285D01*
X86620Y47294D01*
X86640Y47298D01*
X86729Y47351D01*
X86820Y47400D01*
X86834Y47414D01*
X86851Y47424D01*
X86918Y47503D01*
X86990Y47578D01*
X86998Y47596D01*
X87011Y47611D01*
X87050Y47707D01*
X87093Y47801D01*
X87095Y47821D01*
X87103Y47839D01*
X87121Y48006D01*
X87121Y53594D01*
X87118Y53614D01*
X87120Y53633D01*
X87098Y53735D01*
X87082Y53837D01*
X87072Y53854D01*
X87068Y53874D01*
X87015Y53963D01*
X86966Y54054D01*
X86952Y54068D01*
X86942Y54085D01*
X86863Y54152D01*
X86788Y54224D01*
X86770Y54232D01*
X86755Y54245D01*
X86659Y54284D01*
X86565Y54327D01*
X86545Y54329D01*
X86527Y54337D01*
X86360Y54355D01*
X74422Y54355D01*
X74402Y54352D01*
X74383Y54354D01*
X74281Y54332D01*
X74179Y54316D01*
X74162Y54306D01*
X74142Y54302D01*
X74053Y54249D01*
X73962Y54200D01*
X73948Y54186D01*
X73931Y54176D01*
X73864Y54097D01*
X73793Y54022D01*
X73784Y54004D01*
X73771Y53989D01*
X73732Y53893D01*
X73689Y53799D01*
X73687Y53779D01*
X73679Y53761D01*
X73661Y53594D01*
X73661Y48006D01*
X73664Y47986D01*
X73662Y47967D01*
X73684Y47865D01*
X73701Y47763D01*
X73710Y47746D01*
X73714Y47726D01*
X73767Y47637D01*
X73816Y47546D01*
X73830Y47532D01*
X73840Y47515D01*
X73919Y47448D01*
X73994Y47377D01*
X74012Y47368D01*
X74027Y47355D01*
X74123Y47316D01*
X74217Y47273D01*
X74237Y47271D01*
X74255Y47263D01*
X74422Y47245D01*
X86360Y47245D01*
X86380Y47248D01*
G37*
G36*
X150388Y47248D02*
X150388Y47248D01*
X150407Y47246D01*
X150509Y47268D01*
X150611Y47285D01*
X150628Y47294D01*
X150648Y47298D01*
X150737Y47351D01*
X150828Y47400D01*
X150842Y47414D01*
X150859Y47424D01*
X150926Y47503D01*
X150998Y47578D01*
X151006Y47596D01*
X151019Y47611D01*
X151058Y47707D01*
X151101Y47801D01*
X151103Y47821D01*
X151111Y47839D01*
X151129Y48006D01*
X151129Y53594D01*
X151126Y53614D01*
X151128Y53633D01*
X151106Y53735D01*
X151090Y53837D01*
X151080Y53854D01*
X151076Y53874D01*
X151023Y53963D01*
X150974Y54054D01*
X150960Y54068D01*
X150950Y54085D01*
X150871Y54152D01*
X150796Y54224D01*
X150778Y54232D01*
X150763Y54245D01*
X150667Y54284D01*
X150573Y54327D01*
X150553Y54329D01*
X150535Y54337D01*
X150368Y54355D01*
X138684Y54355D01*
X138664Y54352D01*
X138645Y54354D01*
X138543Y54332D01*
X138441Y54316D01*
X138424Y54306D01*
X138404Y54302D01*
X138315Y54249D01*
X138224Y54200D01*
X138210Y54186D01*
X138193Y54176D01*
X138126Y54097D01*
X138055Y54022D01*
X138046Y54004D01*
X138033Y53989D01*
X137994Y53893D01*
X137951Y53799D01*
X137949Y53779D01*
X137941Y53761D01*
X137923Y53594D01*
X137923Y48006D01*
X137926Y47986D01*
X137924Y47967D01*
X137946Y47865D01*
X137963Y47763D01*
X137972Y47746D01*
X137976Y47726D01*
X138029Y47637D01*
X138078Y47546D01*
X138092Y47532D01*
X138102Y47515D01*
X138181Y47448D01*
X138256Y47377D01*
X138274Y47368D01*
X138289Y47355D01*
X138385Y47316D01*
X138479Y47273D01*
X138499Y47271D01*
X138517Y47263D01*
X138684Y47245D01*
X150368Y47245D01*
X150388Y47248D01*
G37*
G36*
X172232Y47248D02*
X172232Y47248D01*
X172251Y47246D01*
X172353Y47268D01*
X172455Y47285D01*
X172472Y47294D01*
X172492Y47298D01*
X172581Y47351D01*
X172672Y47400D01*
X172686Y47414D01*
X172703Y47424D01*
X172770Y47503D01*
X172842Y47578D01*
X172850Y47596D01*
X172863Y47611D01*
X172902Y47707D01*
X172945Y47801D01*
X172947Y47821D01*
X172955Y47839D01*
X172973Y48006D01*
X172973Y53594D01*
X172970Y53614D01*
X172972Y53633D01*
X172950Y53735D01*
X172934Y53837D01*
X172924Y53854D01*
X172920Y53874D01*
X172867Y53963D01*
X172818Y54054D01*
X172804Y54068D01*
X172794Y54085D01*
X172715Y54152D01*
X172640Y54224D01*
X172622Y54232D01*
X172607Y54245D01*
X172511Y54284D01*
X172417Y54327D01*
X172397Y54329D01*
X172379Y54337D01*
X172212Y54355D01*
X161036Y54355D01*
X161016Y54352D01*
X160997Y54354D01*
X160895Y54332D01*
X160793Y54316D01*
X160776Y54306D01*
X160756Y54302D01*
X160667Y54249D01*
X160576Y54200D01*
X160562Y54186D01*
X160545Y54176D01*
X160478Y54097D01*
X160407Y54022D01*
X160398Y54004D01*
X160385Y53989D01*
X160346Y53893D01*
X160303Y53799D01*
X160301Y53779D01*
X160293Y53761D01*
X160275Y53594D01*
X160275Y48006D01*
X160278Y47986D01*
X160276Y47967D01*
X160298Y47865D01*
X160315Y47763D01*
X160324Y47746D01*
X160328Y47726D01*
X160381Y47637D01*
X160430Y47546D01*
X160444Y47532D01*
X160454Y47515D01*
X160533Y47448D01*
X160608Y47377D01*
X160626Y47368D01*
X160641Y47355D01*
X160737Y47316D01*
X160831Y47273D01*
X160851Y47271D01*
X160869Y47263D01*
X161036Y47245D01*
X172212Y47245D01*
X172232Y47248D01*
G37*
G36*
X193822Y47248D02*
X193822Y47248D01*
X193841Y47246D01*
X193943Y47268D01*
X194045Y47285D01*
X194062Y47294D01*
X194082Y47298D01*
X194171Y47351D01*
X194262Y47400D01*
X194276Y47414D01*
X194293Y47424D01*
X194360Y47503D01*
X194432Y47578D01*
X194440Y47596D01*
X194453Y47611D01*
X194492Y47707D01*
X194535Y47801D01*
X194537Y47821D01*
X194545Y47839D01*
X194563Y48006D01*
X194563Y53594D01*
X194560Y53614D01*
X194562Y53633D01*
X194540Y53735D01*
X194524Y53837D01*
X194514Y53854D01*
X194510Y53874D01*
X194457Y53963D01*
X194408Y54054D01*
X194394Y54068D01*
X194384Y54085D01*
X194305Y54152D01*
X194230Y54224D01*
X194212Y54232D01*
X194197Y54245D01*
X194101Y54284D01*
X194007Y54327D01*
X193987Y54329D01*
X193969Y54337D01*
X193802Y54355D01*
X182626Y54355D01*
X182606Y54352D01*
X182587Y54354D01*
X182485Y54332D01*
X182383Y54316D01*
X182366Y54306D01*
X182346Y54302D01*
X182257Y54249D01*
X182166Y54200D01*
X182152Y54186D01*
X182135Y54176D01*
X182068Y54097D01*
X181997Y54022D01*
X181988Y54004D01*
X181975Y53989D01*
X181936Y53893D01*
X181893Y53799D01*
X181891Y53779D01*
X181883Y53761D01*
X181865Y53594D01*
X181865Y48006D01*
X181868Y47986D01*
X181866Y47967D01*
X181888Y47865D01*
X181905Y47763D01*
X181914Y47746D01*
X181918Y47726D01*
X181971Y47637D01*
X182020Y47546D01*
X182034Y47532D01*
X182044Y47515D01*
X182123Y47448D01*
X182198Y47377D01*
X182216Y47368D01*
X182231Y47355D01*
X182327Y47316D01*
X182421Y47273D01*
X182441Y47271D01*
X182459Y47263D01*
X182626Y47245D01*
X193802Y47245D01*
X193822Y47248D01*
G37*
G36*
X215412Y47248D02*
X215412Y47248D01*
X215431Y47246D01*
X215533Y47268D01*
X215635Y47285D01*
X215652Y47294D01*
X215672Y47298D01*
X215761Y47351D01*
X215852Y47400D01*
X215866Y47414D01*
X215883Y47424D01*
X215950Y47503D01*
X216022Y47578D01*
X216030Y47596D01*
X216043Y47611D01*
X216082Y47707D01*
X216125Y47801D01*
X216127Y47821D01*
X216135Y47839D01*
X216153Y48006D01*
X216153Y53594D01*
X216150Y53614D01*
X216152Y53633D01*
X216130Y53735D01*
X216114Y53837D01*
X216104Y53854D01*
X216100Y53874D01*
X216047Y53963D01*
X215998Y54054D01*
X215984Y54068D01*
X215974Y54085D01*
X215895Y54152D01*
X215820Y54224D01*
X215802Y54232D01*
X215787Y54245D01*
X215691Y54284D01*
X215597Y54327D01*
X215577Y54329D01*
X215559Y54337D01*
X215392Y54355D01*
X204470Y54355D01*
X204450Y54352D01*
X204431Y54354D01*
X204329Y54332D01*
X204227Y54316D01*
X204210Y54306D01*
X204190Y54302D01*
X204101Y54249D01*
X204010Y54200D01*
X203996Y54186D01*
X203979Y54176D01*
X203912Y54097D01*
X203841Y54022D01*
X203832Y54004D01*
X203819Y53989D01*
X203780Y53893D01*
X203737Y53799D01*
X203735Y53779D01*
X203727Y53761D01*
X203709Y53594D01*
X203709Y48006D01*
X203712Y47986D01*
X203710Y47967D01*
X203732Y47865D01*
X203749Y47763D01*
X203758Y47746D01*
X203762Y47726D01*
X203815Y47637D01*
X203864Y47546D01*
X203878Y47532D01*
X203888Y47515D01*
X203967Y47448D01*
X204042Y47377D01*
X204060Y47368D01*
X204075Y47355D01*
X204171Y47316D01*
X204265Y47273D01*
X204285Y47271D01*
X204303Y47263D01*
X204470Y47245D01*
X215392Y47245D01*
X215412Y47248D01*
G37*
G36*
X236494Y47248D02*
X236494Y47248D01*
X236513Y47246D01*
X236615Y47268D01*
X236717Y47285D01*
X236734Y47294D01*
X236754Y47298D01*
X236843Y47351D01*
X236934Y47400D01*
X236948Y47414D01*
X236965Y47424D01*
X237032Y47503D01*
X237104Y47578D01*
X237112Y47596D01*
X237125Y47611D01*
X237164Y47707D01*
X237207Y47801D01*
X237209Y47821D01*
X237217Y47839D01*
X237235Y48006D01*
X237235Y53594D01*
X237232Y53614D01*
X237234Y53633D01*
X237212Y53735D01*
X237196Y53837D01*
X237186Y53854D01*
X237182Y53874D01*
X237129Y53963D01*
X237080Y54054D01*
X237066Y54068D01*
X237056Y54085D01*
X236977Y54152D01*
X236902Y54224D01*
X236884Y54232D01*
X236869Y54245D01*
X236773Y54284D01*
X236679Y54327D01*
X236659Y54329D01*
X236641Y54337D01*
X236474Y54355D01*
X226060Y54355D01*
X226040Y54352D01*
X226021Y54354D01*
X225919Y54332D01*
X225817Y54316D01*
X225800Y54306D01*
X225780Y54302D01*
X225691Y54249D01*
X225600Y54200D01*
X225586Y54186D01*
X225569Y54176D01*
X225502Y54097D01*
X225431Y54022D01*
X225422Y54004D01*
X225409Y53989D01*
X225370Y53893D01*
X225327Y53799D01*
X225325Y53779D01*
X225317Y53761D01*
X225299Y53594D01*
X225299Y48006D01*
X225302Y47986D01*
X225300Y47967D01*
X225322Y47865D01*
X225339Y47763D01*
X225348Y47746D01*
X225352Y47726D01*
X225405Y47637D01*
X225454Y47546D01*
X225468Y47532D01*
X225478Y47515D01*
X225557Y47448D01*
X225632Y47377D01*
X225650Y47368D01*
X225665Y47355D01*
X225761Y47316D01*
X225855Y47273D01*
X225875Y47271D01*
X225893Y47263D01*
X226060Y47245D01*
X236474Y47245D01*
X236494Y47248D01*
G37*
D10*
X22860Y17780D03*
X22860Y83820D03*
D11*
X19050Y50800D03*
D12*
X11430Y67310D03*
X11430Y34290D03*
X36830Y67310D03*
X36830Y34290D03*
X11430Y11430D03*
X36830Y11430D03*
X11430Y90170D03*
X36830Y90170D03*
X24130Y90170D03*
X24130Y11430D03*
X24130Y34290D03*
X24130Y67310D03*
D13*
X41910Y62230D03*
X41910Y39370D03*
X41910Y50800D03*
D14*
X247316Y50800D03*
X237316Y50800D03*
D15*
X53086Y58500D03*
X53086Y68500D03*
X53086Y33100D03*
X53086Y43100D03*
D14*
X225726Y50800D03*
X215726Y50800D03*
X204136Y50800D03*
X194136Y50800D03*
X182546Y50800D03*
X172546Y50800D03*
X160956Y50800D03*
X150956Y50800D03*
X139366Y50800D03*
X129366Y50800D03*
X117776Y50800D03*
X107776Y50800D03*
X96186Y50800D03*
X86186Y50800D03*
X74596Y50800D03*
X64596Y50800D03*
D16*
X63500Y63500D03*
X76200Y63500D03*
X88900Y63500D03*
X101600Y63500D03*
X114300Y63500D03*
X127000Y63500D03*
X139700Y63500D03*
X152400Y63500D03*
X165100Y63500D03*
X177800Y63500D03*
X190500Y63500D03*
X203200Y63500D03*
X215900Y63500D03*
X228600Y63500D03*
X241300Y63500D03*
X63500Y38100D03*
X76200Y38100D03*
X88900Y38100D03*
X101600Y38100D03*
X114300Y38100D03*
X127000Y38100D03*
X139700Y38100D03*
X152400Y38100D03*
X165100Y38100D03*
X177800Y38100D03*
X190500Y38100D03*
X203200Y38100D03*
X215900Y38100D03*
X228600Y38100D03*
X241300Y38100D03*
X49530Y76200D03*
X57150Y76200D03*
X49530Y25400D03*
X57150Y25400D03*
X50800Y88900D03*
X63500Y88900D03*
X76200Y88900D03*
X88900Y88900D03*
X101600Y88900D03*
X114300Y88900D03*
X127000Y88900D03*
X139700Y88900D03*
X152400Y88900D03*
X165100Y88900D03*
X177800Y88900D03*
X190500Y88900D03*
X203200Y88900D03*
X215900Y88900D03*
X228600Y88900D03*
X241300Y88900D03*
X254000Y88900D03*
X266700Y88900D03*
X279400Y88900D03*
X50800Y12700D03*
X63500Y12700D03*
X76200Y12700D03*
X88900Y12700D03*
X101600Y12700D03*
X114300Y12700D03*
X127000Y12700D03*
X139700Y12700D03*
X152400Y12700D03*
X165100Y12700D03*
X177800Y12700D03*
X190500Y12700D03*
X203200Y12700D03*
X215900Y12700D03*
X228600Y12700D03*
X241300Y12700D03*
X254000Y12700D03*
X266700Y12700D03*
X279400Y12700D03*
X254000Y66040D03*
X266700Y66040D03*
X279400Y66040D03*
X279400Y35560D03*
X266700Y35560D03*
X254000Y35560D03*
X292100Y88900D03*
X292100Y66040D03*
X292100Y35560D03*
X292100Y12700D03*
X292100Y25400D03*
X292100Y76200D03*
M02*
