G04 EAGLE Gerber RS-274X export*
G75*
%MOMM*%
%FSLAX34Y34*%
%LPD*%
%INSolder side*%
%IPPOS*%
%AMOC8*
5,1,8,0,0,1.08239X$1,22.5*%
G01*
%ADD10C,0.503200*%
%ADD11R,4.572000X9.144000*%
%ADD12C,0.553200*%

G36*
X250065Y3812D02*
X250065Y3812D01*
X250067Y3811D01*
X250110Y3831D01*
X250154Y3849D01*
X250154Y3851D01*
X250156Y3852D01*
X250189Y3937D01*
X250189Y338963D01*
X250188Y338965D01*
X250189Y338967D01*
X250169Y339010D01*
X250151Y339054D01*
X250149Y339054D01*
X250148Y339056D01*
X250063Y339089D01*
X3937Y339089D01*
X3935Y339088D01*
X3933Y339089D01*
X3890Y339069D01*
X3846Y339051D01*
X3846Y339049D01*
X3844Y339048D01*
X3811Y338963D01*
X3811Y3937D01*
X3812Y3935D01*
X3811Y3933D01*
X3831Y3890D01*
X3849Y3846D01*
X3851Y3846D01*
X3852Y3844D01*
X3937Y3811D01*
X250063Y3811D01*
X250065Y3812D01*
G37*
D10*
X11430Y73660D03*
X11430Y40640D03*
X36830Y73660D03*
X36830Y40640D03*
X11430Y17780D03*
X36830Y17780D03*
X11430Y96520D03*
X36830Y96520D03*
X24130Y96520D03*
X24130Y17780D03*
X24130Y40640D03*
X24130Y73660D03*
D11*
X22860Y57150D03*
D10*
X242570Y40640D03*
X242570Y73660D03*
X217170Y40640D03*
X217170Y73660D03*
X242570Y96520D03*
X217170Y96520D03*
X242570Y17780D03*
X217170Y17780D03*
X229870Y17780D03*
X229870Y96520D03*
X229870Y73660D03*
X229870Y40640D03*
D11*
X231140Y57150D03*
D10*
X11430Y187960D03*
X11430Y154940D03*
X36830Y187960D03*
X36830Y154940D03*
X11430Y132080D03*
X36830Y132080D03*
X11430Y210820D03*
X36830Y210820D03*
X24130Y210820D03*
X24130Y132080D03*
X24130Y154940D03*
X24130Y187960D03*
D11*
X22860Y171450D03*
D10*
X242570Y154940D03*
X242570Y187960D03*
X217170Y154940D03*
X217170Y187960D03*
X242570Y210820D03*
X217170Y210820D03*
X242570Y132080D03*
X217170Y132080D03*
X229870Y132080D03*
X229870Y210820D03*
X229870Y187960D03*
X229870Y154940D03*
D11*
X231140Y171450D03*
D10*
X11430Y302260D03*
X11430Y269240D03*
X36830Y302260D03*
X36830Y269240D03*
X11430Y246380D03*
X36830Y246380D03*
X11430Y325120D03*
X36830Y325120D03*
X24130Y325120D03*
X24130Y246380D03*
X24130Y269240D03*
X24130Y302260D03*
D11*
X22860Y285750D03*
D10*
X45720Y294640D03*
X45720Y276860D03*
X242570Y269240D03*
X242570Y302260D03*
X217170Y269240D03*
X217170Y302260D03*
X242570Y325120D03*
X217170Y325120D03*
X242570Y246380D03*
X217170Y246380D03*
X229870Y246380D03*
X229870Y325120D03*
X229870Y302260D03*
X229870Y269240D03*
D11*
X231140Y285750D03*
D12*
X50800Y177800D03*
X63500Y177800D03*
X76200Y177800D03*
X88900Y177800D03*
X101600Y177800D03*
X114300Y177800D03*
X127000Y177800D03*
X139700Y177800D03*
X152400Y177800D03*
X165100Y177800D03*
X177800Y177800D03*
X190500Y177800D03*
X203200Y177800D03*
X50800Y165100D03*
X63500Y165100D03*
X76200Y165100D03*
X88900Y165100D03*
X101600Y165100D03*
X114300Y165100D03*
X127000Y165100D03*
X139700Y165100D03*
X152400Y165100D03*
X165100Y165100D03*
X177800Y165100D03*
X190500Y165100D03*
X203200Y165100D03*
X50800Y63500D03*
X63500Y63500D03*
X76200Y63500D03*
X88900Y63500D03*
X101600Y63500D03*
X114300Y63500D03*
X127000Y63500D03*
X139700Y63500D03*
X152400Y63500D03*
X165100Y63500D03*
X177800Y63500D03*
X190500Y63500D03*
X203200Y63500D03*
X50800Y50800D03*
X63500Y50800D03*
X76200Y50800D03*
X88900Y50800D03*
X101600Y50800D03*
X114300Y50800D03*
X127000Y50800D03*
X139700Y50800D03*
X152400Y50800D03*
X165100Y50800D03*
X177800Y50800D03*
X190500Y50800D03*
X203200Y50800D03*
X50800Y292100D03*
X63500Y292100D03*
X76200Y292100D03*
X88900Y292100D03*
X101600Y292100D03*
X114300Y292100D03*
X127000Y292100D03*
X139700Y292100D03*
X152400Y292100D03*
X165100Y292100D03*
X177800Y292100D03*
X190500Y292100D03*
X203200Y292100D03*
X50800Y279400D03*
X63500Y279400D03*
X76200Y279400D03*
X88900Y279400D03*
X101600Y279400D03*
X114300Y279400D03*
X127000Y279400D03*
X139700Y279400D03*
X152400Y279400D03*
X165100Y279400D03*
X177800Y279400D03*
X190500Y279400D03*
X203200Y279400D03*
M02*
