M48
;GenerationSoftware,Autodesk,EAGLE,9.5.0*%
;CreationDate,2019-09-12T20:20:49Z*%
FMAT,2
ICI,OFF
METRIC,TZ,000.000
T3C0.300
T2C0.350
%
G90
M71
T2
X17780Y5080
X12700Y29210
X11430Y29210
X10160Y29210
X8890Y29210
X7620Y29210
X6350Y29210
X5080Y29210
X20320Y5080
X19050Y5080
X13970Y29210
X16510Y5080
X15240Y5080
X13970Y5080
X12700Y5080
X11430Y5080
X10160Y5080
X8890Y5080
X7620Y5080
X6350Y5080
X8890Y27940
X20320Y27940
X19050Y27940
X17780Y27940
X16510Y27940
X15240Y27940
X13970Y27940
X12700Y27940
X11430Y27940
X10160Y27940
X6350Y17780
X7620Y27940
X6350Y27940
X5080Y27940
X20320Y29210
X19050Y29210
X17780Y29210
X16510Y29210
X15240Y29210
X16510Y17780
X11430Y16510
X10160Y16510
X8890Y16510
X7620Y16510
X6350Y16510
X5080Y16510
X20320Y17780
X19050Y17780
X17780Y17780
X20320Y6350
X15240Y17780
X13970Y17780
X12700Y17780
X11430Y17780
X10160Y17780
X8890Y17780
X7620Y17780
X5080Y17780
X5080Y5080
X13970Y16510
X12700Y16510
X19050Y6350
X17780Y6350
X16510Y6350
X15240Y6350
X13970Y6350
X12700Y6350
X11430Y6350
X10160Y6350
X7620Y6350
X8890Y6350
X15240Y16510
X16510Y16510
X17780Y16510
X19050Y16510
X20320Y16510
X5080Y6350
X6350Y6350
T3
X1143Y32512
X3683Y24638
X1143Y24638
X3683Y26924
X3683Y30226
X1143Y26924
X1143Y30226
X22987Y15494
X22987Y18796
X22987Y21082
X22987Y13208
X21717Y13208
X24257Y13208
X21717Y21082
X24257Y21082
X21717Y18796
X21717Y15494
X24257Y18796
X21717Y26924
X22987Y26924
X22987Y30226
X22987Y32512
X22987Y24638
X21717Y24638
X24257Y24638
X21717Y32512
X24257Y32512
X21717Y30226
X3683Y32512
X24257Y30226
X24257Y26924
X4572Y27686
X4572Y29464
X2413Y30226
X2413Y26924
X2413Y24638
X2413Y32512
X2413Y9652
X21717Y9652
X24257Y9652
X21717Y7366
X21717Y4064
X24257Y7366
X24257Y4064
X2413Y7366
X2413Y4064
X2413Y1778
X24257Y1778
X3683Y9652
X1143Y9652
X3683Y1778
X1143Y1778
X3683Y4064
X3683Y7366
X1143Y4064
X1143Y7366
X3683Y15494
X2413Y18796
X2413Y15494
X2413Y13208
X2413Y21082
X3683Y21082
X1143Y21082
X3683Y13208
X1143Y13208
X24257Y15494
X3683Y18796
X1143Y15494
X1143Y18796
X22987Y4064
X22987Y7366
X22987Y9652
X22987Y1778
X21717Y1778
M30