M48
;GenerationSoftware,Autodesk,EAGLE,9.4.1*%
;CreationDate,2019-07-19T14:09:27Z*%
FMAT,2
ICI,OFF
METRIC,TZ,000.000
T3C0.350
T2C1.000
%
G90
M71
T2
X43180Y48260
X45720Y22860
X45720Y25400
X45720Y27940
X33020Y48260
X30480Y48260
X27940Y48260
X25400Y48260
X35560Y48260
X38100Y48260
X40640Y48260
X45720Y20320
X2540Y12700
X2540Y10160
X2540Y7620
X2540Y5080
X2540Y15240
X2540Y17780
X2540Y20320
X2540Y22860
X15240Y2540
X38354Y21082
X45720Y7620
X45720Y5080
X2540Y35560
X2540Y38100
X2540Y40640
X2540Y43180
X2540Y33020
X2540Y30480
X2540Y27940
X2540Y25400
X27940Y35560
X38354Y18542
X38354Y16002
X38354Y23622
X38354Y26162
X38354Y28702
X45720Y17780
X45720Y15240
X45720Y12700
X45720Y10160
X45720Y45720
X30480Y2540
X27940Y2540
X33020Y2540
X35560Y2540
X2540Y48260
X2540Y45720
X5080Y2540
X2540Y2540
X45720Y48260
X10160Y2540
X40640Y2540
X38100Y2540
X43180Y2540
X45720Y2540
X35560Y40640
X33020Y40640
X14605Y10160
X12065Y10160
X30480Y35560
X45720Y40640
X12700Y2540
X7620Y2540
X17780Y2540
X20320Y2540
X22860Y2540
X25400Y2540
X15240Y48260
X17780Y48260
X20320Y48260
X22860Y48260
X12700Y48260
X10160Y48260
X7620Y48260
X5080Y48260
X45720Y35560
X45720Y33020
X45720Y30480
X45720Y38100
X45720Y43180
T3
X27940Y8382
X17526Y21082
X21082Y22987
X22733Y24813
X20574Y11557
X21463Y11938
X26035Y30226
X33655Y15875
X33655Y14605
X40640Y5715
X41910Y5715
X26670Y16510
X35560Y14605
X32385Y8255
X33655Y20320
X33655Y27686
X34925Y29591
X24765Y13335
X24130Y31496
X13970Y32131
X12700Y34036
X41910Y45720
X41910Y44450
X5842Y42545
X5080Y34290
X5207Y31750
X5080Y29210
X5080Y26797
X6985Y34290
X6350Y45466
X10160Y24765
X10160Y26035
X32639Y24765
X32639Y25781
X31877Y19431
X22225Y26035
X31877Y18415
X6985Y29210
X6985Y31750
X7620Y26670
X5080Y21590
X4064Y22987
X12065Y19050
X16510Y16510
X6350Y11430
X16383Y7493
X16383Y5080
X19050Y5080
X21590Y5461
X21590Y10160
X43815Y12065
X31115Y16510
X31115Y15494
X21590Y28575
X35560Y27940
X23241Y26670
X21907Y23447
X23376Y21582
X38354Y13231
X22860Y22352
X21852Y22344
X31115Y14605
X14732Y22225
X15494Y23749
X16383Y27178
X16129Y21717
X14709Y21209
X17780Y29210
X21590Y15875
X29210Y6985
X19050Y29210
X22860Y15240
X29845Y13716
X4064Y24638
X8382Y24638
X5080Y19050
X8890Y13335
X8890Y4445
X6350Y6604
X11430Y5715
X16510Y26035
X18415Y26035
X20320Y26035
X24765Y19685
X18542Y21082
X21717Y21463
X33655Y18161
X24130Y13970
X25400Y12700
X19939Y23241
X17145Y22225
X31115Y10033
X32385Y10033
X33655Y10033
M30