G04 EAGLE Gerber RS-274X export*
G75*
%MOMM*%
%FSLAX34Y34*%
%LPD*%
%INBottom Solder Mask*%
%IPPOS*%
%AMOC8*
5,1,8,0,0,1.08239X$1,22.5*%
G01*
%ADD10P,2.226909X8X112.500000*%
%ADD11P,2.061953X8X292.500000*%
%ADD12P,2.061953X8X112.500000*%
%ADD13P,2.061953X8X22.500000*%
%ADD14P,2.061953X8X202.500000*%
%ADD15P,2.226909X8X22.500000*%


D10*
X457200Y76200D03*
X457200Y50800D03*
D11*
X25400Y355600D03*
X25400Y381000D03*
X25400Y406400D03*
X25400Y431800D03*
X25400Y330200D03*
X25400Y304800D03*
X25400Y279400D03*
X25400Y254000D03*
D12*
X383540Y210820D03*
X383540Y185420D03*
X383540Y160020D03*
X383540Y236220D03*
X383540Y261620D03*
X383540Y287020D03*
X457200Y177800D03*
X457200Y152400D03*
X457200Y127000D03*
X457200Y101600D03*
X457200Y203200D03*
X457200Y228600D03*
X457200Y254000D03*
X457200Y279400D03*
D13*
X330200Y482600D03*
X304800Y482600D03*
X279400Y482600D03*
X254000Y482600D03*
X355600Y482600D03*
X381000Y482600D03*
X406400Y482600D03*
X431800Y482600D03*
D12*
X25400Y127000D03*
X25400Y101600D03*
X25400Y76200D03*
X25400Y50800D03*
X25400Y152400D03*
X25400Y177800D03*
X25400Y203200D03*
X25400Y228600D03*
D13*
X152400Y25400D03*
X127000Y25400D03*
X101600Y25400D03*
X76200Y25400D03*
X177800Y25400D03*
X203200Y25400D03*
X228600Y25400D03*
X254000Y25400D03*
D14*
X152400Y482600D03*
X177800Y482600D03*
X203200Y482600D03*
X228600Y482600D03*
X127000Y482600D03*
X101600Y482600D03*
X76200Y482600D03*
X50800Y482600D03*
D12*
X457200Y355600D03*
X457200Y330200D03*
X457200Y304800D03*
X457200Y381000D03*
X457200Y406400D03*
X457200Y431800D03*
D13*
X304800Y25400D03*
X279400Y25400D03*
X330200Y25400D03*
X355600Y25400D03*
D10*
X25400Y482600D03*
X25400Y457200D03*
D15*
X50800Y25400D03*
X25400Y25400D03*
D10*
X457200Y482600D03*
X457200Y457200D03*
D13*
X406400Y25400D03*
X381000Y25400D03*
X431800Y25400D03*
X457200Y25400D03*
D15*
X355600Y406400D03*
X330200Y406400D03*
X146050Y101600D03*
X120650Y101600D03*
X304800Y355600D03*
X279400Y355600D03*
M02*
